<?xml version="1.0" encoding="UTF-8" standalone="no"?>
<!DOCTYPE svg PUBLIC "-//W3C//DTD SVG 1.1//EN"
 "http://www.w3.org/Graphics/SVG/1.1/DTD/svg11.dtd">
<!-- Generated by graphviz version 2.38.0 (20140413.2041)
 -->
<!-- Title: fwd.hh Pages: 1 -->
<svg width="356pt" height="162pt"
 viewBox="0.00 0.00 356.00 162.00" xmlns="http://www.w3.org/2000/svg" xmlns:xlink="http://www.w3.org/1999/xlink">
<g id="graph0" class="graph" transform="scale(1 1) rotate(0) translate(4 158)">
<title>fwd.hh</title>
<polygon fill="white" stroke="none" points="-4,4 -4,-158 352,-158 352,4 -4,4"/>
<!-- Node1 -->
<g id="node1" class="node"><title>Node1</title>
<polygon fill="#bfbfbf" stroke="black" points="119,-134.5 119,-153.5 165,-153.5 165,-134.5 119,-134.5"/>
<text text-anchor="middle" x="142" y="-141.5" font-family="Helvetica,sans-Serif" font-size="10.00">fwd.hh</text>
</g>
<!-- Node2 -->
<g id="node2" class="node"><title>Node2</title>
<polygon fill="white" stroke="#bfbfbf" points="-3.55271e-15,-73 -3.55271e-15,-92 44,-92 44,-73 -3.55271e-15,-73"/>
<text text-anchor="middle" x="22" y="-80" font-family="Helvetica,sans-Serif" font-size="10.00">vector</text>
</g>
<!-- Node1&#45;&gt;Node2 -->
<g id="edge1" class="edge"><title>Node1&#45;&gt;Node2</title>
<path fill="none" stroke="midnightblue" d="M124.807,-134.475C104.757,-124.534 71.4012,-107.995 48.1398,-96.461"/>
<polygon fill="midnightblue" stroke="midnightblue" points="49.6752,-93.3157 39.1612,-92.0091 46.5655,-99.5871 49.6752,-93.3157"/>
</g>
<!-- Node3 -->
<g id="node3" class="node"><title>Node3</title>
<polygon fill="white" stroke="#bfbfbf" points="62.5,-73 62.5,-92 127.5,-92 127.5,-73 62.5,-73"/>
<text text-anchor="middle" x="95" y="-80" font-family="Helvetica,sans-Serif" font-size="10.00">Eigen/Core</text>
</g>
<!-- Node1&#45;&gt;Node3 -->
<g id="edge2" class="edge"><title>Node1&#45;&gt;Node3</title>
<path fill="none" stroke="midnightblue" d="M135.266,-134.475C128.216,-125.55 116.965,-111.307 108.146,-100.143"/>
<polygon fill="midnightblue" stroke="midnightblue" points="110.667,-97.6867 101.721,-92.0091 105.174,-102.026 110.667,-97.6867"/>
</g>
<!-- Node4 -->
<g id="node4" class="node"><title>Node4</title>
<g id="a_node4"><a doxygen="/local/devel/hpp/install/share/doc/hpp-core/doxygen-html/hpp-core.doxytag:../../hpp-core/doxygen-html/" xlink:href="../../hpp-core/doxygen-html/a00001.html" target="_top" xlink:title="hpp/core/fwd.hh">
<polygon fill="white" stroke="black" points="146,-73 146,-92 232,-92 232,-73 146,-73"/>
<text text-anchor="middle" x="189" y="-80" font-family="Helvetica,sans-Serif" font-size="10.00">hpp/core/fwd.hh</text>
</a>
</g>
</g>
<!-- Node1&#45;&gt;Node4 -->
<g id="edge3" class="edge"><title>Node1&#45;&gt;Node4</title>
<path fill="none" stroke="midnightblue" d="M148.734,-134.475C155.784,-125.55 167.035,-111.307 175.854,-100.143"/>
<polygon fill="midnightblue" stroke="midnightblue" points="178.826,-102.026 182.279,-92.0091 173.333,-97.6867 178.826,-102.026"/>
</g>
<!-- Node5 -->
<g id="node5" class="node"><title>Node5</title>
<g id="a_node5"><a doxygen="/usr/local/share/doc/roboptim-trajectory/doxygen-html/roboptim-trajectory.doxytag:../../../../../../../../usr/local/share/doc/roboptim-trajectory/doxygen-html/" xlink:href="../../../../../../../../usr/local/share/doc/roboptim-trajectory/doxygen-html/a00055.html" target="_top" xlink:title="roboptim/trajectory\l/fwd.hh">
<polygon fill="white" stroke="black" points="250,-67.5 250,-97.5 348,-97.5 348,-67.5 250,-67.5"/>
<text text-anchor="start" x="258" y="-85.5" font-family="Helvetica,sans-Serif" font-size="10.00">roboptim/trajectory</text>
<text text-anchor="middle" x="299" y="-74.5" font-family="Helvetica,sans-Serif" font-size="10.00">/fwd.hh</text>
</a>
</g>
</g>
<!-- Node1&#45;&gt;Node5 -->
<g id="edge4" class="edge"><title>Node1&#45;&gt;Node5</title>
<path fill="none" stroke="midnightblue" d="M164.494,-134.475C187.348,-125.814 223.415,-112.145 252.45,-101.141"/>
<polygon fill="midnightblue" stroke="midnightblue" points="253.888,-104.34 261.998,-97.523 251.407,-97.794 253.888,-104.34"/>
</g>
<!-- Node6 -->
<g id="node6" class="node"><title>Node6</title>
<g id="a_node6"><a doxygen="/usr/local/share/doc/roboptim-trajectory/doxygen-html/roboptim-trajectory.doxytag:../../../../../../../../usr/local/share/doc/roboptim-trajectory/doxygen-html/" xlink:href="../../../../../../../../usr/local/share/doc/roboptim-trajectory/doxygen-html/a00080.html" target="_top" xlink:title="roboptim/trajectory\l/sys.hh">
<polygon fill="white" stroke="black" points="250,-0.5 250,-30.5 348,-30.5 348,-0.5 250,-0.5"/>
<text text-anchor="start" x="258" y="-18.5" font-family="Helvetica,sans-Serif" font-size="10.00">roboptim/trajectory</text>
<text text-anchor="middle" x="299" y="-7.5" font-family="Helvetica,sans-Serif" font-size="10.00">/sys.hh</text>
</a>
</g>
</g>
<!-- Node5&#45;&gt;Node6 -->
<g id="edge5" class="edge"><title>Node5&#45;&gt;Node6</title>
<path fill="none" stroke="midnightblue" d="M299,-67.396C299,-59.6448 299,-49.8122 299,-40.8601"/>
<polygon fill="midnightblue" stroke="midnightblue" points="302.5,-40.5765 299,-30.5765 295.5,-40.5765 302.5,-40.5765"/>
</g>
</g>
</svg>
