<?xml version="1.0" encoding="UTF-8" standalone="no"?>
<!DOCTYPE svg PUBLIC "-//W3C//DTD SVG 1.1//EN"
 "http://www.w3.org/Graphics/SVG/1.1/DTD/svg11.dtd">
<!-- Generated by graphviz version 2.38.0 (20140413.2041)
 -->
<!-- Title: foot&#45;trajectory.cc Pages: 1 -->
<svg width="1181pt" height="475pt"
 viewBox="0.00 0.00 1180.84 475.00" xmlns="http://www.w3.org/2000/svg" xmlns:xlink="http://www.w3.org/1999/xlink">
<g id="graph0" class="graph" transform="scale(1 1) rotate(0) translate(4 471)">
<title>foot&#45;trajectory.cc</title>
<polygon fill="white" stroke="none" points="-4,4 -4,-471 1176.84,-471 1176.84,4 -4,4"/>
<!-- Node1 -->
<g id="node1" class="node"><title>Node1</title>
<polygon fill="#bfbfbf" stroke="black" points="530.842,-447.5 530.842,-466.5 620.842,-466.5 620.842,-447.5 530.842,-447.5"/>
<text text-anchor="middle" x="575.842" y="-454.5" font-family="Helvetica,sans-Serif" font-size="10.00">foot&#45;trajectory.cc</text>
</g>
<!-- Node2 -->
<g id="node2" class="node"><title>Node2</title>
<g id="a_node2"><a xlink:href="a00013.html" target="_top" xlink:title="hpp/walkgen/foot&#45;trajectory.hh">
<polygon fill="white" stroke="black" points="158.842,-386 158.842,-405 306.842,-405 306.842,-386 158.842,-386"/>
<text text-anchor="middle" x="232.842" y="-393" font-family="Helvetica,sans-Serif" font-size="10.00">hpp/walkgen/foot&#45;trajectory.hh</text>
</a>
</g>
</g>
<!-- Node1&#45;&gt;Node2 -->
<g id="edge1" class="edge"><title>Node1&#45;&gt;Node2</title>
<path fill="none" stroke="midnightblue" d="M530.648,-448.16C469.395,-437.535 359.907,-418.542 292.118,-406.783"/>
<polygon fill="midnightblue" stroke="midnightblue" points="292.472,-403.292 282.021,-405.031 291.275,-410.189 292.472,-403.292"/>
</g>
<!-- Node19 -->
<g id="node19" class="node"><title>Node19</title>
<polygon fill="white" stroke="#bfbfbf" points="333.342,-380.5 333.342,-410.5 436.342,-410.5 436.342,-380.5 333.342,-380.5"/>
<text text-anchor="start" x="341.342" y="-398.5" font-family="Helvetica,sans-Serif" font-size="10.00">pinocchio/multibody</text>
<text text-anchor="middle" x="384.842" y="-387.5" font-family="Helvetica,sans-Serif" font-size="10.00">/model.hpp</text>
</g>
<!-- Node1&#45;&gt;Node19 -->
<g id="edge26" class="edge"><title>Node1&#45;&gt;Node19</title>
<path fill="none" stroke="midnightblue" d="M548.476,-447.475C520.19,-438.664 475.265,-424.668 439.637,-413.57"/>
<polygon fill="midnightblue" stroke="midnightblue" points="440.445,-410.156 429.856,-410.523 438.363,-416.839 440.445,-410.156"/>
</g>
<!-- Node20 -->
<g id="node20" class="node"><title>Node20</title>
<g id="a_node20"><a doxygen="/local/devel/hpp/install/share/doc/hpp-util/doxygen-html/hpp-util.doxytag:../../hpp-util/doxygen-html/" xlink:href="../../hpp-util/doxygen-html/a00020.html" target="_top" xlink:title="hpp/util/exception\l&#45;factory.hh">
<polygon fill="white" stroke="black" points="454.342,-380.5 454.342,-410.5 547.342,-410.5 547.342,-380.5 454.342,-380.5"/>
<text text-anchor="start" x="462.342" y="-398.5" font-family="Helvetica,sans-Serif" font-size="10.00">hpp/util/exception</text>
<text text-anchor="middle" x="500.842" y="-387.5" font-family="Helvetica,sans-Serif" font-size="10.00">&#45;factory.hh</text>
</a>
</g>
</g>
<!-- Node1&#45;&gt;Node20 -->
<g id="edge27" class="edge"><title>Node1&#45;&gt;Node20</title>
<path fill="none" stroke="midnightblue" d="M565.096,-447.475C555.033,-439.492 539.607,-427.254 526.392,-416.77"/>
<polygon fill="midnightblue" stroke="midnightblue" points="528.527,-413.996 518.518,-410.523 524.176,-419.48 528.527,-413.996"/>
</g>
<!-- Node21 -->
<g id="node21" class="node"><title>Node21</title>
<g id="a_node21"><a doxygen="/local/devel/hpp/install/share/doc/hpp-pinocchio/doxygen-html/hpp-pinocchio.doxytag:../../hpp-pinocchio/doxygen-html/" xlink:href="../../hpp-pinocchio/doxygen-html/a00102.html" target="_top" xlink:title="hpp/pinocchio/joint.hh">
<polygon fill="white" stroke="black" points="685.342,-252 685.342,-271 796.342,-271 796.342,-252 685.342,-252"/>
<text text-anchor="middle" x="740.842" y="-259" font-family="Helvetica,sans-Serif" font-size="10.00">hpp/pinocchio/joint.hh</text>
</a>
</g>
</g>
<!-- Node1&#45;&gt;Node21 -->
<g id="edge28" class="edge"><title>Node1&#45;&gt;Node21</title>
<path fill="none" stroke="midnightblue" d="M574.179,-447.409C570.019,-423.197 561.728,-353.538 594.842,-313 607.497,-297.508 654.976,-282.923 692.398,-273.449"/>
<polygon fill="midnightblue" stroke="midnightblue" points="693.291,-276.834 702.158,-271.035 691.61,-270.039 693.291,-276.834"/>
</g>
<!-- Node23 -->
<g id="node23" class="node"><title>Node23</title>
<g id="a_node23"><a doxygen="/local/devel/hpp/install/share/doc/hpp-pinocchio/doxygen-html/hpp-pinocchio.doxytag:../../hpp-pinocchio/doxygen-html/" xlink:href="../../hpp-pinocchio/doxygen-html/a00101.html" target="_top" xlink:title="hpp/pinocchio/joint\l&#45;collection.hh">
<polygon fill="white" stroke="black" points="603.842,-380.5 603.842,-410.5 701.842,-410.5 701.842,-380.5 603.842,-380.5"/>
<text text-anchor="start" x="611.842" y="-398.5" font-family="Helvetica,sans-Serif" font-size="10.00">hpp/pinocchio/joint</text>
<text text-anchor="middle" x="652.842" y="-387.5" font-family="Helvetica,sans-Serif" font-size="10.00">&#45;collection.hh</text>
</a>
</g>
</g>
<!-- Node1&#45;&gt;Node23 -->
<g id="edge30" class="edge"><title>Node1&#45;&gt;Node23</title>
<path fill="none" stroke="midnightblue" d="M586.874,-447.475C597.205,-439.492 613.042,-427.254 626.609,-416.77"/>
<polygon fill="midnightblue" stroke="midnightblue" points="628.921,-419.407 634.694,-410.523 624.641,-413.868 628.921,-419.407"/>
</g>
<!-- Node24 -->
<g id="node24" class="node"><title>Node24</title>
<g id="a_node24"><a doxygen="/local/devel/hpp/install/share/doc/hpp-pinocchio/doxygen-html/hpp-pinocchio.doxytag:../../hpp-pinocchio/doxygen-html/" xlink:href="../../hpp-pinocchio/doxygen-html/a00095.html" target="_top" xlink:title="hpp/pinocchio/device.hh">
<polygon fill="white" stroke="black" points="760.842,-386 760.842,-405 882.842,-405 882.842,-386 760.842,-386"/>
<text text-anchor="middle" x="821.842" y="-393" font-family="Helvetica,sans-Serif" font-size="10.00">hpp/pinocchio/device.hh</text>
</a>
</g>
</g>
<!-- Node1&#45;&gt;Node24 -->
<g id="edge31" class="edge"><title>Node1&#45;&gt;Node24</title>
<path fill="none" stroke="midnightblue" d="M611.087,-447.475C654.746,-436.915 729.184,-418.911 776.904,-407.369"/>
<polygon fill="midnightblue" stroke="midnightblue" points="777.764,-410.762 786.661,-405.009 776.119,-403.958 777.764,-410.762"/>
</g>
<!-- Node30 -->
<g id="node30" class="node"><title>Node30</title>
<g id="a_node30"><a doxygen="/local/devel/hpp/install/share/doc/hpp-pinocchio/doxygen-html/hpp-pinocchio.doxytag:../../hpp-pinocchio/doxygen-html/" xlink:href="../../hpp-pinocchio/doxygen-html/a00111.html" target="_top" xlink:title="hpp/pinocchio/liegroup\l/special&#45;orthogonal.hh">
<polygon fill="white" stroke="black" points="901.342,-380.5 901.342,-410.5 1014.34,-410.5 1014.34,-380.5 901.342,-380.5"/>
<text text-anchor="start" x="909.342" y="-398.5" font-family="Helvetica,sans-Serif" font-size="10.00">hpp/pinocchio/liegroup</text>
<text text-anchor="middle" x="957.842" y="-387.5" font-family="Helvetica,sans-Serif" font-size="10.00">/special&#45;orthogonal.hh</text>
</a>
</g>
</g>
<!-- Node1&#45;&gt;Node30 -->
<g id="edge43" class="edge"><title>Node1&#45;&gt;Node30</title>
<path fill="none" stroke="midnightblue" d="M621.015,-450.646C680.577,-443.349 788.833,-429.267 891.134,-411.044"/>
<polygon fill="midnightblue" stroke="midnightblue" points="891.791,-414.482 901.014,-409.268 890.553,-407.593 891.791,-414.482"/>
</g>
<!-- Node3 -->
<g id="node3" class="node"><title>Node3</title>
<polygon fill="white" stroke="#bfbfbf" points="107.342,-319 107.342,-338 166.342,-338 166.342,-319 107.342,-319"/>
<text text-anchor="middle" x="136.842" y="-326" font-family="Helvetica,sans-Serif" font-size="10.00">stdexcept</text>
</g>
<!-- Node2&#45;&gt;Node3 -->
<g id="edge2" class="edge"><title>Node2&#45;&gt;Node3</title>
<path fill="none" stroke="midnightblue" d="M219.895,-385.734C203.989,-374.964 176.792,-356.55 157.872,-343.739"/>
<polygon fill="midnightblue" stroke="midnightblue" points="159.826,-340.836 149.583,-338.127 155.902,-346.632 159.826,-340.836"/>
</g>
<!-- Node4 -->
<g id="node4" class="node"><title>Node4</title>
<g id="a_node4"><a doxygen="/local/devel/hpp/install/share/doc/hpp-core/doxygen-html/hpp-core.doxytag:../../hpp-core/doxygen-html/" xlink:href="../../hpp-core/doxygen-html/a00174.html" target="_top" xlink:title="hpp/core/path.hh">
<polygon fill="white" stroke="black" points="184.342,-319 184.342,-338 273.342,-338 273.342,-319 184.342,-319"/>
<text text-anchor="middle" x="228.842" y="-326" font-family="Helvetica,sans-Serif" font-size="10.00">hpp/core/path.hh</text>
</a>
</g>
</g>
<!-- Node2&#45;&gt;Node4 -->
<g id="edge3" class="edge"><title>Node2&#45;&gt;Node4</title>
<path fill="none" stroke="midnightblue" d="M232.302,-385.734C231.714,-376.183 230.756,-360.618 229.997,-348.283"/>
<polygon fill="midnightblue" stroke="midnightblue" points="233.48,-347.893 229.372,-338.127 226.493,-348.323 233.48,-347.893"/>
</g>
<!-- Node16 -->
<g id="node16" class="node"><title>Node16</title>
<g id="a_node16"><a xlink:href="a00011.html" target="_top" xlink:title="hpp/walkgen/foot&#45;print.hh">
<polygon fill="white" stroke="black" points="388.842,-319 388.842,-338 514.842,-338 514.842,-319 388.842,-319"/>
<text text-anchor="middle" x="451.842" y="-326" font-family="Helvetica,sans-Serif" font-size="10.00">hpp/walkgen/foot&#45;print.hh</text>
</a>
</g>
</g>
<!-- Node2&#45;&gt;Node16 -->
<g id="edge22" class="edge"><title>Node2&#45;&gt;Node16</title>
<path fill="none" stroke="midnightblue" d="M261.923,-385.869C300.891,-374.303 370.141,-353.749 413.384,-340.914"/>
<polygon fill="midnightblue" stroke="midnightblue" points="414.398,-344.264 422.989,-338.064 412.406,-337.554 414.398,-344.264"/>
</g>
<!-- Node5 -->
<g id="node5" class="node"><title>Node5</title>
<g id="a_node5"><a xlink:href="a00001.html" target="_top" xlink:title="hpp/core/fwd.hh">
<polygon fill="white" stroke="black" points="255.842,-134.5 255.842,-153.5 341.842,-153.5 341.842,-134.5 255.842,-134.5"/>
<text text-anchor="middle" x="298.842" y="-141.5" font-family="Helvetica,sans-Serif" font-size="10.00">hpp/core/fwd.hh</text>
</a>
</g>
</g>
<!-- Node4&#45;&gt;Node5 -->
<g id="edge4" class="edge"><title>Node4&#45;&gt;Node5</title>
<path fill="none" stroke="midnightblue" d="M273.463,-323.131C303.526,-317.616 341.158,-305.153 360.842,-277 382.999,-245.308 379.536,-224.383 361.842,-190 354.764,-176.247 341.321,-165.766 328.664,-158.394"/>
<polygon fill="midnightblue" stroke="midnightblue" points="330.155,-155.222 319.689,-153.573 326.842,-161.389 330.155,-155.222"/>
</g>
<!-- Node8 -->
<g id="node8" class="node"><title>Node8</title>
<g id="a_node8"><a doxygen="/local/devel/hpp/install/share/doc/hpp-core/doxygen-html/hpp-core.doxytag:../../hpp-core/doxygen-html/" xlink:href="../../hpp-core/doxygen-html/a00001.html" target="_top" xlink:title="hpp/core/fwd.hh">
<polygon fill="white" stroke="black" points="45.8415,-73 45.8415,-92 131.842,-92 131.842,-73 45.8415,-73"/>
<text text-anchor="middle" x="88.8415" y="-80" font-family="Helvetica,sans-Serif" font-size="10.00">hpp/core/fwd.hh</text>
</a>
</g>
</g>
<!-- Node4&#45;&gt;Node8 -->
<g id="edge11" class="edge"><title>Node4&#45;&gt;Node8</title>
<path fill="none" stroke="midnightblue" d="M197.764,-318.961C190.271,-316.956 182.281,-314.862 174.842,-313 106.236,-295.827 67.8088,-328.969 19.8415,-277 -6.55665,-248.399 -2.36897,-226.956 9.84151,-190 22.0925,-152.921 52.7936,-118.221 72.1154,-99.0263"/>
<polygon fill="midnightblue" stroke="midnightblue" points="74.6169,-101.476 79.3756,-92.0101 69.7525,-96.4425 74.6169,-101.476"/>
</g>
<!-- Node11 -->
<g id="node11" class="node"><title>Node11</title>
<g id="a_node11"><a doxygen="/local/devel/hpp/install/share/doc/hpp-constraints/doxygen-html/hpp-constraints.doxytag:../../hpp-constraints/doxygen-html/" xlink:href="../../hpp-constraints/doxygen-html/a00001.html" target="_top" xlink:title="hpp/core/fwd.hh">
<polygon fill="white" stroke="black" points="113.842,-134.5 113.842,-153.5 199.842,-153.5 199.842,-134.5 113.842,-134.5"/>
<text text-anchor="middle" x="156.842" y="-141.5" font-family="Helvetica,sans-Serif" font-size="10.00">hpp/core/fwd.hh</text>
</a>
</g>
</g>
<!-- Node4&#45;&gt;Node11 -->
<g id="edge10" class="edge"><title>Node4&#45;&gt;Node11</title>
<path fill="none" stroke="midnightblue" d="M224.986,-318.723C216.489,-299.279 195.648,-251.045 179.842,-210 173.859,-194.466 167.589,-176.628 163.11,-163.573"/>
<polygon fill="midnightblue" stroke="midnightblue" points="166.349,-162.227 159.813,-153.888 159.722,-164.482 166.349,-162.227"/>
</g>
<!-- Node12 -->
<g id="node12" class="node"><title>Node12</title>
<g id="a_node12"><a doxygen="/local/devel/hpp/install/share/doc/hpp-core/doxygen-html/hpp-core.doxytag:../../hpp-core/doxygen-html/" xlink:href="../../hpp-core/doxygen-html/a00123.html" target="_top" xlink:title="hpp/core/constraint\l&#45;set.hh">
<polygon fill="white" stroke="black" points="28.8415,-246.5 28.8415,-276.5 128.842,-276.5 128.842,-246.5 28.8415,-246.5"/>
<text text-anchor="start" x="36.8415" y="-264.5" font-family="Helvetica,sans-Serif" font-size="10.00">hpp/core/constraint</text>
<text text-anchor="middle" x="78.8415" y="-253.5" font-family="Helvetica,sans-Serif" font-size="10.00">&#45;set.hh</text>
</a>
</g>
</g>
<!-- Node4&#45;&gt;Node12 -->
<g id="edge12" class="edge"><title>Node4&#45;&gt;Node12</title>
<path fill="none" stroke="midnightblue" d="M208.923,-318.869C186.512,-309.157 149.478,-293.109 120.645,-280.615"/>
<polygon fill="midnightblue" stroke="midnightblue" points="121.781,-277.293 111.214,-276.528 118.998,-283.716 121.781,-277.293"/>
</g>
<!-- Node14 -->
<g id="node14" class="node"><title>Node14</title>
<g id="a_node14"><a doxygen="/local/devel/hpp/install/share/doc/hpp-core/doxygen-html/hpp-core.doxytag:../../hpp-core/doxygen-html/" xlink:href="../../hpp-core/doxygen-html/a00184.html" target="_top" xlink:title="hpp/core/projection\l&#45;error.hh">
<polygon fill="white" stroke="black" points="253.342,-246.5 253.342,-276.5 352.342,-276.5 352.342,-246.5 253.342,-246.5"/>
<text text-anchor="start" x="261.342" y="-264.5" font-family="Helvetica,sans-Serif" font-size="10.00">hpp/core/projection</text>
<text text-anchor="middle" x="302.842" y="-253.5" font-family="Helvetica,sans-Serif" font-size="10.00">&#45;error.hh</text>
</a>
</g>
</g>
<!-- Node4&#45;&gt;Node14 -->
<g id="edge17" class="edge"><title>Node4&#45;&gt;Node14</title>
<path fill="none" stroke="midnightblue" d="M238.821,-318.734C249.111,-309.696 265.53,-295.274 279.164,-283.298"/>
<polygon fill="midnightblue" stroke="midnightblue" points="281.598,-285.818 286.802,-276.589 276.979,-280.559 281.598,-285.818"/>
</g>
<!-- Node15 -->
<g id="node15" class="node"><title>Node15</title>
<g id="a_node15"><a doxygen="/local/devel/hpp/install/share/doc/hpp-core/doxygen-html/hpp-core.doxytag:../../hpp-core/doxygen-html/" xlink:href="../../hpp-core/doxygen-html/a00208.html" target="_top" xlink:title="hpp/core/time&#45;parameterization.hh">
<polygon fill="white" stroke="black" points="188.842,-190.5 188.842,-209.5 352.842,-209.5 352.842,-190.5 188.842,-190.5"/>
<text text-anchor="middle" x="270.842" y="-197.5" font-family="Helvetica,sans-Serif" font-size="10.00">hpp/core/time&#45;parameterization.hh</text>
</a>
</g>
</g>
<!-- Node4&#45;&gt;Node15 -->
<g id="edge18" class="edge"><title>Node4&#45;&gt;Node15</title>
<path fill="none" stroke="midnightblue" d="M229.431,-318.659C230.674,-303.395 234.283,-271.302 243.842,-246 247.498,-236.321 253.224,-226.374 258.463,-218.302"/>
<polygon fill="midnightblue" stroke="midnightblue" points="261.506,-220.051 264.237,-209.814 255.718,-216.114 261.506,-220.051"/>
</g>
<!-- Node6 -->
<g id="node6" class="node"><title>Node6</title>
<polygon fill="white" stroke="#bfbfbf" points="276.842,-73 276.842,-92 320.842,-92 320.842,-73 276.842,-73"/>
<text text-anchor="middle" x="298.842" y="-80" font-family="Helvetica,sans-Serif" font-size="10.00">vector</text>
</g>
<!-- Node5&#45;&gt;Node6 -->
<g id="edge5" class="edge"><title>Node5&#45;&gt;Node6</title>
<path fill="none" stroke="midnightblue" d="M298.842,-134.475C298.842,-126.08 298.842,-112.981 298.842,-102.163"/>
<polygon fill="midnightblue" stroke="midnightblue" points="302.342,-102.009 298.842,-92.0091 295.342,-102.009 302.342,-102.009"/>
</g>
<!-- Node7 -->
<g id="node7" class="node"><title>Node7</title>
<polygon fill="white" stroke="#bfbfbf" points="339.342,-73 339.342,-92 404.342,-92 404.342,-73 339.342,-73"/>
<text text-anchor="middle" x="371.842" y="-80" font-family="Helvetica,sans-Serif" font-size="10.00">Eigen/Core</text>
</g>
<!-- Node5&#45;&gt;Node7 -->
<g id="edge6" class="edge"><title>Node5&#45;&gt;Node7</title>
<path fill="none" stroke="midnightblue" d="M309.301,-134.475C320.793,-125.108 339.471,-109.884 353.428,-98.5081"/>
<polygon fill="midnightblue" stroke="midnightblue" points="355.862,-101.04 361.402,-92.0091 351.439,-95.614 355.862,-101.04"/>
</g>
<!-- Node5&#45;&gt;Node8 -->
<g id="edge7" class="edge"><title>Node5&#45;&gt;Node8</title>
<path fill="none" stroke="midnightblue" d="M268.754,-134.475C231.951,-124.048 169.53,-106.362 128.747,-94.8066"/>
<polygon fill="midnightblue" stroke="midnightblue" points="129.449,-91.3677 118.874,-92.0091 127.541,-98.1026 129.449,-91.3677"/>
</g>
<!-- Node9 -->
<g id="node9" class="node"><title>Node9</title>
<g id="a_node9"><a doxygen="/usr/local/share/doc/roboptim-trajectory/doxygen-html/roboptim-trajectory.doxytag:../../../../../../../../usr/local/share/doc/roboptim-trajectory/doxygen-html/" xlink:href="../../../../../../../../usr/local/share/doc/roboptim-trajectory/doxygen-html/a00055.html" target="_top" xlink:title="roboptim/trajectory\l/fwd.hh">
<polygon fill="white" stroke="black" points="160.842,-67.5 160.842,-97.5 258.842,-97.5 258.842,-67.5 160.842,-67.5"/>
<text text-anchor="start" x="168.842" y="-85.5" font-family="Helvetica,sans-Serif" font-size="10.00">roboptim/trajectory</text>
<text text-anchor="middle" x="209.842" y="-74.5" font-family="Helvetica,sans-Serif" font-size="10.00">/fwd.hh</text>
</a>
</g>
</g>
<!-- Node5&#45;&gt;Node9 -->
<g id="edge8" class="edge"><title>Node5&#45;&gt;Node9</title>
<path fill="none" stroke="midnightblue" d="M286.09,-134.475C273.924,-126.341 255.151,-113.791 239.277,-103.179"/>
<polygon fill="midnightblue" stroke="midnightblue" points="241.076,-100.171 230.817,-97.523 237.185,-105.99 241.076,-100.171"/>
</g>
<!-- Node10 -->
<g id="node10" class="node"><title>Node10</title>
<g id="a_node10"><a doxygen="/usr/local/share/doc/roboptim-trajectory/doxygen-html/roboptim-trajectory.doxytag:../../../../../../../../usr/local/share/doc/roboptim-trajectory/doxygen-html/" xlink:href="../../../../../../../../usr/local/share/doc/roboptim-trajectory/doxygen-html/a00080.html" target="_top" xlink:title="roboptim/trajectory\l/sys.hh">
<polygon fill="white" stroke="black" points="160.842,-0.5 160.842,-30.5 258.842,-30.5 258.842,-0.5 160.842,-0.5"/>
<text text-anchor="start" x="168.842" y="-18.5" font-family="Helvetica,sans-Serif" font-size="10.00">roboptim/trajectory</text>
<text text-anchor="middle" x="209.842" y="-7.5" font-family="Helvetica,sans-Serif" font-size="10.00">/sys.hh</text>
</a>
</g>
</g>
<!-- Node9&#45;&gt;Node10 -->
<g id="edge9" class="edge"><title>Node9&#45;&gt;Node10</title>
<path fill="none" stroke="midnightblue" d="M209.842,-67.396C209.842,-59.6448 209.842,-49.8122 209.842,-40.8601"/>
<polygon fill="midnightblue" stroke="midnightblue" points="213.342,-40.5765 209.842,-30.5765 206.342,-40.5765 213.342,-40.5765"/>
</g>
<!-- Node13 -->
<g id="node13" class="node"><title>Node13</title>
<g id="a_node13"><a doxygen="/local/devel/hpp/install/share/doc/hpp-core/doxygen-html/hpp-core.doxytag:../../hpp-core/doxygen-html/" xlink:href="../../hpp-core/doxygen-html/a00124.html" target="_top" xlink:title="hpp/core/constraint.hh">
<polygon fill="white" stroke="black" points="19.3415,-190.5 19.3415,-209.5 132.342,-209.5 132.342,-190.5 19.3415,-190.5"/>
<text text-anchor="middle" x="75.8415" y="-197.5" font-family="Helvetica,sans-Serif" font-size="10.00">hpp/core/constraint.hh</text>
</a>
</g>
</g>
<!-- Node12&#45;&gt;Node13 -->
<g id="edge13" class="edge"><title>Node12&#45;&gt;Node13</title>
<path fill="none" stroke="midnightblue" d="M78.1306,-246.399C77.7306,-238.466 77.2259,-228.458 76.7923,-219.858"/>
<polygon fill="midnightblue" stroke="midnightblue" points="80.2773,-219.469 76.278,-209.658 73.2861,-219.821 80.2773,-219.469"/>
</g>
<!-- Node13&#45;&gt;Node5 -->
<g id="edge14" class="edge"><title>Node13&#45;&gt;Node5</title>
<path fill="none" stroke="midnightblue" d="M111.177,-190.444C149.752,-181.102 211.626,-166.119 253.694,-155.933"/>
<polygon fill="midnightblue" stroke="midnightblue" points="254.776,-159.272 263.672,-153.516 253.129,-152.468 254.776,-159.272"/>
</g>
<!-- Node13&#45;&gt;Node8 -->
<g id="edge16" class="edge"><title>Node13&#45;&gt;Node8</title>
<path fill="none" stroke="midnightblue" d="M76.8186,-190.319C78.9078,-171.757 83.851,-127.839 86.706,-102.473"/>
<polygon fill="midnightblue" stroke="midnightblue" points="90.2125,-102.611 87.8531,-92.282 83.2565,-101.828 90.2125,-102.611"/>
</g>
<!-- Node13&#45;&gt;Node11 -->
<g id="edge15" class="edge"><title>Node13&#45;&gt;Node11</title>
<path fill="none" stroke="midnightblue" d="M88.8556,-190.324C101.373,-181.979 120.523,-169.212 135.313,-159.352"/>
<polygon fill="midnightblue" stroke="midnightblue" points="137.481,-162.114 143.86,-153.655 133.598,-156.289 137.481,-162.114"/>
</g>
<!-- Node15&#45;&gt;Node5 -->
<g id="edge19" class="edge"><title>Node15&#45;&gt;Node5</title>
<path fill="none" stroke="midnightblue" d="M275.465,-190.083C279.298,-182.691 284.866,-171.953 289.606,-162.811"/>
<polygon fill="midnightblue" stroke="midnightblue" points="292.808,-164.24 294.304,-153.751 286.594,-161.018 292.808,-164.24"/>
</g>
<!-- Node15&#45;&gt;Node8 -->
<g id="edge21" class="edge"><title>Node15&#45;&gt;Node8</title>
<path fill="none" stroke="midnightblue" d="M264.493,-190.333C254.159,-176.742 232.465,-150.289 208.842,-134 183.982,-116.858 152.389,-103.855 127.861,-95.3388"/>
<polygon fill="midnightblue" stroke="midnightblue" points="128.754,-91.9468 118.16,-92.0753 126.522,-98.5814 128.754,-91.9468"/>
</g>
<!-- Node15&#45;&gt;Node11 -->
<g id="edge20" class="edge"><title>Node15&#45;&gt;Node11</title>
<path fill="none" stroke="midnightblue" d="M252.778,-190.444C234.267,-181.675 205.261,-167.935 183.986,-157.858"/>
<polygon fill="midnightblue" stroke="midnightblue" points="185.356,-154.634 174.821,-153.516 182.36,-160.96 185.356,-154.634"/>
</g>
<!-- Node16&#45;&gt;Node5 -->
<g id="edge25" class="edge"><title>Node16&#45;&gt;Node5</title>
<path fill="none" stroke="midnightblue" d="M449.301,-318.692C442.126,-295.143 419.666,-229.818 380.842,-190 367.1,-175.907 347.988,-165.071 331.672,-157.568"/>
<polygon fill="midnightblue" stroke="midnightblue" points="333.015,-154.335 322.45,-153.535 330.21,-160.749 333.015,-154.335"/>
</g>
<!-- Node17 -->
<g id="node17" class="node"><title>Node17</title>
<polygon fill="white" stroke="#bfbfbf" points="446.842,-252 446.842,-271 534.842,-271 534.842,-252 446.842,-252"/>
<text text-anchor="middle" x="490.842" y="-259" font-family="Helvetica,sans-Serif" font-size="10.00">Eigen/StdVector</text>
</g>
<!-- Node16&#45;&gt;Node17 -->
<g id="edge23" class="edge"><title>Node16&#45;&gt;Node17</title>
<path fill="none" stroke="midnightblue" d="M457.101,-318.734C463.066,-308.793 472.939,-292.338 480.468,-279.789"/>
<polygon fill="midnightblue" stroke="midnightblue" points="483.521,-281.503 485.665,-271.127 477.519,-277.901 483.521,-281.503"/>
</g>
<!-- Node18 -->
<g id="node18" class="node"><title>Node18</title>
<polygon fill="white" stroke="#bfbfbf" points="552.842,-252 552.842,-271 666.842,-271 666.842,-252 552.842,-252"/>
<text text-anchor="middle" x="609.842" y="-259" font-family="Helvetica,sans-Serif" font-size="10.00">hpp/walkgen/config.hh</text>
</g>
<!-- Node16&#45;&gt;Node18 -->
<g id="edge24" class="edge"><title>Node16&#45;&gt;Node18</title>
<path fill="none" stroke="midnightblue" d="M472.823,-318.869C500.091,-307.65 547.914,-287.977 579.232,-275.092"/>
<polygon fill="midnightblue" stroke="midnightblue" points="580.857,-278.209 588.774,-271.167 578.194,-271.735 580.857,-278.209"/>
</g>
<!-- Node22 -->
<g id="node22" class="node"><title>Node22</title>
<g id="a_node22"><a doxygen="/local/devel/hpp/install/share/doc/hpp-pinocchio/doxygen-html/hpp-pinocchio.doxytag:../../hpp-pinocchio/doxygen-html/" xlink:href="../../hpp-pinocchio/doxygen-html/a00098.html" target="_top" xlink:title="hpp/pinocchio/fwd.hh">
<polygon fill="white" stroke="black" points="827.342,-190.5 827.342,-209.5 936.342,-209.5 936.342,-190.5 827.342,-190.5"/>
<text text-anchor="middle" x="881.842" y="-197.5" font-family="Helvetica,sans-Serif" font-size="10.00">hpp/pinocchio/fwd.hh</text>
</a>
</g>
</g>
<!-- Node21&#45;&gt;Node22 -->
<g id="edge29" class="edge"><title>Node21&#45;&gt;Node22</title>
<path fill="none" stroke="midnightblue" d="M761.043,-251.975C784.916,-241.901 824.843,-225.053 852.214,-213.502"/>
<polygon fill="midnightblue" stroke="midnightblue" points="853.825,-216.622 861.677,-209.509 851.103,-210.172 853.825,-216.622"/>
</g>
<!-- Node24&#45;&gt;Node22 -->
<g id="edge32" class="edge"><title>Node24&#45;&gt;Node22</title>
<path fill="none" stroke="midnightblue" d="M825.908,-385.693C830.419,-375.718 837.731,-358.911 842.842,-344 857.873,-300.139 871.065,-247.183 877.56,-219.66"/>
<polygon fill="midnightblue" stroke="midnightblue" points="880.992,-220.356 879.851,-209.823 874.174,-218.769 880.992,-220.356"/>
</g>
<!-- Node25 -->
<g id="node25" class="node"><title>Node25</title>
<g id="a_node25"><a doxygen="/local/devel/hpp/install/share/doc/hpp-pinocchio/doxygen-html/hpp-pinocchio.doxytag:../../hpp-pinocchio/doxygen-html/" xlink:href="../../hpp-pinocchio/doxygen-html/a00097.html" target="_top" xlink:title="hpp/pinocchio/frame.hh">
<polygon fill="white" stroke="black" points="1054.84,-252 1054.84,-271 1172.84,-271 1172.84,-252 1054.84,-252"/>
<text text-anchor="middle" x="1113.84" y="-259" font-family="Helvetica,sans-Serif" font-size="10.00">hpp/pinocchio/frame.hh</text>
</a>
</g>
</g>
<!-- Node24&#45;&gt;Node25 -->
<g id="edge33" class="edge"><title>Node24&#45;&gt;Node25</title>
<path fill="none" stroke="midnightblue" d="M860.826,-385.954C915.88,-373.717 1011.35,-351.819 1025.84,-344 1056.53,-327.438 1084.73,-297.665 1100.56,-279.055"/>
<polygon fill="midnightblue" stroke="midnightblue" points="1103.43,-281.082 1107.11,-271.15 1098.04,-276.615 1103.43,-281.082"/>
</g>
<!-- Node26 -->
<g id="node26" class="node"><title>Node26</title>
<g id="a_node26"><a doxygen="/local/devel/hpp/install/share/doc/hpp-pinocchio/doxygen-html/hpp-pinocchio.doxytag:../../hpp-pinocchio/doxygen-html/" xlink:href="../../hpp-pinocchio/doxygen-html/a00108.html" target="_top" xlink:title="hpp/pinocchio/pool.hh">
<polygon fill="white" stroke="black" points="723.342,-319 723.342,-338 834.342,-338 834.342,-319 723.342,-319"/>
<text text-anchor="middle" x="778.842" y="-326" font-family="Helvetica,sans-Serif" font-size="10.00">hpp/pinocchio/pool.hh</text>
</a>
</g>
</g>
<!-- Node24&#45;&gt;Node26 -->
<g id="edge35" class="edge"><title>Node24&#45;&gt;Node26</title>
<path fill="none" stroke="midnightblue" d="M816.042,-385.734C809.466,-375.793 798.58,-359.338 790.279,-346.789"/>
<polygon fill="midnightblue" stroke="midnightblue" points="792.985,-344.536 784.549,-338.127 787.147,-348.399 792.985,-344.536"/>
</g>
<!-- Node27 -->
<g id="node27" class="node"><title>Node27</title>
<g id="a_node27"><a doxygen="/local/devel/hpp/install/share/doc/hpp-pinocchio/doxygen-html/hpp-pinocchio.doxytag:../../hpp-pinocchio/doxygen-html/" xlink:href="../../hpp-pinocchio/doxygen-html/a00096.html" target="_top" xlink:title="hpp/pinocchio/extra\l&#45;config&#45;space.hh">
<polygon fill="white" stroke="black" points="604.342,-313.5 604.342,-343.5 705.342,-343.5 705.342,-313.5 604.342,-313.5"/>
<text text-anchor="start" x="612.342" y="-331.5" font-family="Helvetica,sans-Serif" font-size="10.00">hpp/pinocchio/extra</text>
<text text-anchor="middle" x="654.842" y="-320.5" font-family="Helvetica,sans-Serif" font-size="10.00">&#45;config&#45;space.hh</text>
</a>
</g>
</g>
<!-- Node24&#45;&gt;Node27 -->
<g id="edge36" class="edge"><title>Node24&#45;&gt;Node27</title>
<path fill="none" stroke="midnightblue" d="M799.665,-385.869C774.498,-376.073 732.765,-359.83 700.547,-347.29"/>
<polygon fill="midnightblue" stroke="midnightblue" points="701.471,-343.894 690.883,-343.528 698.932,-350.417 701.471,-343.894"/>
</g>
<!-- Node28 -->
<g id="node28" class="node"><title>Node28</title>
<g id="a_node28"><a doxygen="/local/devel/hpp/install/share/doc/hpp-pinocchio/doxygen-html/hpp-pinocchio.doxytag:../../hpp-pinocchio/doxygen-html/" xlink:href="../../hpp-pinocchio/doxygen-html/a00093.html" target="_top" xlink:title="hpp/pinocchio/device\l&#45;data.hh">
<polygon fill="white" stroke="black" points="928.842,-246.5 928.842,-276.5 1036.84,-276.5 1036.84,-246.5 928.842,-246.5"/>
<text text-anchor="start" x="936.842" y="-264.5" font-family="Helvetica,sans-Serif" font-size="10.00">hpp/pinocchio/device</text>
<text text-anchor="middle" x="982.842" y="-253.5" font-family="Helvetica,sans-Serif" font-size="10.00">&#45;data.hh</text>
</a>
</g>
</g>
<!-- Node24&#45;&gt;Node28 -->
<g id="edge38" class="edge"><title>Node24&#45;&gt;Node28</title>
<path fill="none" stroke="midnightblue" d="M863.697,-385.93C915.774,-374.847 998.974,-355.595 1007.84,-344 1021.01,-326.78 1010.93,-302.586 999.886,-285.035"/>
<polygon fill="midnightblue" stroke="midnightblue" points="1002.64,-282.862 994.145,-276.534 996.842,-286.78 1002.64,-282.862"/>
</g>
<!-- Node29 -->
<g id="node29" class="node"><title>Node29</title>
<g id="a_node29"><a doxygen="/local/devel/hpp/install/share/doc/hpp-pinocchio/doxygen-html/hpp-pinocchio.doxytag:../../hpp-pinocchio/doxygen-html/" xlink:href="../../hpp-pinocchio/doxygen-html/a00094.html" target="_top" xlink:title="hpp/pinocchio/device\l&#45;sync.hh">
<polygon fill="white" stroke="black" points="890.842,-313.5 890.842,-343.5 998.842,-343.5 998.842,-313.5 890.842,-313.5"/>
<text text-anchor="start" x="898.842" y="-331.5" font-family="Helvetica,sans-Serif" font-size="10.00">hpp/pinocchio/device</text>
<text text-anchor="middle" x="944.842" y="-320.5" font-family="Helvetica,sans-Serif" font-size="10.00">&#45;sync.hh</text>
</a>
</g>
</g>
<!-- Node24&#45;&gt;Node29 -->
<g id="edge40" class="edge"><title>Node24&#45;&gt;Node29</title>
<path fill="none" stroke="midnightblue" d="M838.175,-385.869C856.174,-376.357 885.678,-360.765 909.098,-348.389"/>
<polygon fill="midnightblue" stroke="midnightblue" points="910.856,-351.418 918.062,-343.652 907.586,-345.229 910.856,-351.418"/>
</g>
<!-- Node25&#45;&gt;Node22 -->
<g id="edge34" class="edge"><title>Node25&#45;&gt;Node22</title>
<path fill="none" stroke="midnightblue" d="M1080.6,-251.975C1039.6,-241.459 969.813,-223.562 924.787,-212.014"/>
<polygon fill="midnightblue" stroke="midnightblue" points="925.576,-208.603 915.02,-209.509 923.837,-215.384 925.576,-208.603"/>
</g>
<!-- Node27&#45;&gt;Node22 -->
<g id="edge37" class="edge"><title>Node27&#45;&gt;Node22</title>
<path fill="none" stroke="midnightblue" d="M704.287,-313.477C741.055,-302.565 787.701,-287.551 804.842,-277 830.857,-260.985 854.897,-234.642 868.97,-217.559"/>
<polygon fill="midnightblue" stroke="midnightblue" points="871.849,-219.563 875.379,-209.573 866.39,-215.182 871.849,-219.563"/>
</g>
<!-- Node28&#45;&gt;Node22 -->
<g id="edge39" class="edge"><title>Node28&#45;&gt;Node22</title>
<path fill="none" stroke="midnightblue" d="M958.906,-246.399C942.716,-236.862 921.435,-224.325 905.338,-214.842"/>
<polygon fill="midnightblue" stroke="midnightblue" points="906.931,-211.718 896.538,-209.658 903.377,-217.749 906.931,-211.718"/>
</g>
<!-- Node29&#45;&gt;Node22 -->
<g id="edge41" class="edge"><title>Node29&#45;&gt;Node22</title>
<path fill="none" stroke="midnightblue" d="M937.859,-313.479C926.371,-290.411 903.496,-244.482 890.821,-219.029"/>
<polygon fill="midnightblue" stroke="midnightblue" points="893.809,-217.18 886.218,-209.789 887.543,-220.3 893.809,-217.18"/>
</g>
<!-- Node29&#45;&gt;Node28 -->
<g id="edge42" class="edge"><title>Node29&#45;&gt;Node28</title>
<path fill="none" stroke="midnightblue" d="M953.087,-313.396C957.867,-305.219 964.002,-294.725 969.458,-285.393"/>
<polygon fill="midnightblue" stroke="midnightblue" points="972.587,-286.976 974.612,-276.577 966.544,-283.443 972.587,-286.976"/>
</g>
</g>
</svg>
