<?xml version="1.0" encoding="UTF-8" standalone="no"?>
<!DOCTYPE svg PUBLIC "-//W3C//DTD SVG 1.1//EN"
 "http://www.w3.org/Graphics/SVG/1.1/DTD/svg11.dtd">
<!-- Generated by graphviz version 2.38.0 (20140413.2041)
 -->
<!-- Title: fwd.hh Pages: 1 -->
<svg width="329pt" height="140pt"
 viewBox="0.00 0.00 328.50 140.00" xmlns="http://www.w3.org/2000/svg" xmlns:xlink="http://www.w3.org/1999/xlink">
<g id="graph0" class="graph" transform="scale(1 1) rotate(0) translate(4 136)">
<title>fwd.hh</title>
<polygon fill="white" stroke="none" points="-4,4 -4,-136 324.5,-136 324.5,4 -4,4"/>
<!-- Node1 -->
<g id="node1" class="node"><title>Node1</title>
<polygon fill="#bfbfbf" stroke="black" points="94,-112.5 94,-131.5 140,-131.5 140,-112.5 94,-112.5"/>
<text text-anchor="middle" x="117" y="-119.5" font-family="Helvetica,sans-Serif" font-size="10.00">fwd.hh</text>
</g>
<!-- Node2 -->
<g id="node2" class="node"><title>Node2</title>
<g id="a_node2"><a xlink:href="a00011.html" target="_top" xlink:title="small&#45;steps.hh">
<polygon fill="white" stroke="black" points="0,-0.5 0,-19.5 80,-19.5 80,-0.5 0,-0.5"/>
<text text-anchor="middle" x="40" y="-7.5" font-family="Helvetica,sans-Serif" font-size="10.00">small&#45;steps.hh</text>
</a>
</g>
</g>
<!-- Node1&#45;&gt;Node2 -->
<g id="edge1" class="edge"><title>Node1&#45;&gt;Node2</title>
<path fill="none" stroke="midnightblue" d="M92.8257,-106.796C81.4227,-98.9991 68.4885,-88.3942 60,-76 47.8578,-58.2709 42.8716,-32.8973 41.0036,-19.7096"/>
<polygon fill="midnightblue" stroke="midnightblue" points="91.2311,-109.932 101.528,-112.426 95.0338,-104.055 91.2311,-109.932"/>
</g>
<!-- Node3 -->
<g id="node3" class="node"><title>Node3</title>
<g id="a_node3"><a xlink:href="a00014.html" target="_top" xlink:title="time&#45;dependant.hh">
<polygon fill="white" stroke="black" points="68.5,-56.5 68.5,-75.5 165.5,-75.5 165.5,-56.5 68.5,-56.5"/>
<text text-anchor="middle" x="117" y="-63.5" font-family="Helvetica,sans-Serif" font-size="10.00">time&#45;dependant.hh</text>
</a>
</g>
</g>
<!-- Node1&#45;&gt;Node3 -->
<g id="edge2" class="edge"><title>Node1&#45;&gt;Node3</title>
<path fill="none" stroke="midnightblue" d="M117,-101.805C117,-92.9102 117,-82.7798 117,-75.7511"/>
<polygon fill="midnightblue" stroke="midnightblue" points="113.5,-102.083 117,-112.083 120.5,-102.083 113.5,-102.083"/>
</g>
<!-- Node5 -->
<g id="node5" class="node"><title>Node5</title>
<g id="a_node5"><a xlink:href="a00012.html" target="_top" xlink:title="static&#45;stability&#45;constraint.hh">
<polygon fill="white" stroke="black" points="183.5,-56.5 183.5,-75.5 320.5,-75.5 320.5,-56.5 183.5,-56.5"/>
<text text-anchor="middle" x="252" y="-63.5" font-family="Helvetica,sans-Serif" font-size="10.00">static&#45;stability&#45;constraint.hh</text>
</a>
</g>
</g>
<!-- Node1&#45;&gt;Node5 -->
<g id="edge5" class="edge"><title>Node1&#45;&gt;Node5</title>
<path fill="none" stroke="midnightblue" d="M147.906,-108.638C173.24,-98.504 208.431,-84.4274 230.709,-75.5164"/>
<polygon fill="midnightblue" stroke="midnightblue" points="146.376,-105.48 138.391,-112.444 148.976,-111.979 146.376,-105.48"/>
</g>
<!-- Node3&#45;&gt;Node2 -->
<g id="edge3" class="edge"><title>Node3&#45;&gt;Node2</title>
<path fill="none" stroke="midnightblue" d="M96.099,-50.3422C82.0889,-40.5169 64.117,-27.9132 52.3407,-19.6545"/>
<polygon fill="midnightblue" stroke="midnightblue" points="94.4317,-53.4477 104.629,-56.324 98.4509,-47.7166 94.4317,-53.4477"/>
</g>
<!-- Node4 -->
<g id="node4" class="node"><title>Node4</title>
<g id="a_node4"><a xlink:href="a00013.html" target="_top" xlink:title="time&#45;dependant&#45;path.hh">
<polygon fill="white" stroke="black" points="98.5,-0.5 98.5,-19.5 217.5,-19.5 217.5,-0.5 98.5,-0.5"/>
<text text-anchor="middle" x="158" y="-7.5" font-family="Helvetica,sans-Serif" font-size="10.00">time&#45;dependant&#45;path.hh</text>
</a>
</g>
</g>
<!-- Node3&#45;&gt;Node4 -->
<g id="edge4" class="edge"><title>Node3&#45;&gt;Node4</title>
<path fill="none" stroke="midnightblue" d="M130.017,-47.8554C137.117,-38.5048 145.604,-27.3265 151.356,-19.7511"/>
<polygon fill="midnightblue" stroke="midnightblue" points="127.03,-46.002 123.77,-56.083 132.605,-50.235 127.03,-46.002"/>
</g>
</g>
</svg>
