<?xml version="1.0" encoding="UTF-8" standalone="no"?>
<!DOCTYPE svg PUBLIC "-//W3C//DTD SVG 1.1//EN"
 "http://www.w3.org/Graphics/SVG/1.1/DTD/svg11.dtd">
<!-- Generated by graphviz version 2.38.0 (20140413.2041)
 -->
<!-- Title: time&#45;dependant.hh Pages: 1 -->
<svg width="972pt" height="397pt"
 viewBox="0.00 0.00 972.00 397.00" xmlns="http://www.w3.org/2000/svg" xmlns:xlink="http://www.w3.org/1999/xlink">
<g id="graph0" class="graph" transform="scale(1 1) rotate(0) translate(4 393)">
<title>time&#45;dependant.hh</title>
<polygon fill="white" stroke="none" points="-4,4 -4,-393 968,-393 968,4 -4,4"/>
<!-- Node1 -->
<g id="node1" class="node"><title>Node1</title>
<polygon fill="#bfbfbf" stroke="black" points="297.5,-369.5 297.5,-388.5 394.5,-388.5 394.5,-369.5 297.5,-369.5"/>
<text text-anchor="middle" x="346" y="-376.5" font-family="Helvetica,sans-Serif" font-size="10.00">time&#45;dependant.hh</text>
</g>
<!-- Node2 -->
<g id="node2" class="node"><title>Node2</title>
<g id="a_node2"><a doxygen="/local/devel/hpp/install/share/doc/hpp-constraints/doxygen-html/hpp-constraints.doxytag:../../hpp-constraints/doxygen-html/" xlink:href="../../hpp-constraints/doxygen-html/a00119.html" target="_top" xlink:title="hpp/constraints/implicit.hh">
<polygon fill="white" stroke="black" points="233.5,-313.5 233.5,-332.5 364.5,-332.5 364.5,-313.5 233.5,-313.5"/>
<text text-anchor="middle" x="299" y="-320.5" font-family="Helvetica,sans-Serif" font-size="10.00">hpp/constraints/implicit.hh</text>
</a>
</g>
</g>
<!-- Node1&#45;&gt;Node2 -->
<g id="edge1" class="edge"><title>Node1&#45;&gt;Node2</title>
<path fill="none" stroke="midnightblue" d="M338.239,-369.083C331.463,-361.298 321.457,-349.801 313.245,-340.367"/>
<polygon fill="midnightblue" stroke="midnightblue" points="315.822,-337.996 306.617,-332.751 310.542,-342.592 315.822,-337.996"/>
</g>
<!-- Node3 -->
<g id="node3" class="node"><title>Node3</title>
<g id="a_node3"><a xlink:href="a00001.html" target="_top" xlink:title="hpp/constraints/fwd.hh">
<polygon fill="white" stroke="black" points="335,-257.5 335,-276.5 451,-276.5 451,-257.5 335,-257.5"/>
<text text-anchor="middle" x="393" y="-264.5" font-family="Helvetica,sans-Serif" font-size="10.00">hpp/constraints/fwd.hh</text>
</a>
</g>
</g>
<!-- Node1&#45;&gt;Node3 -->
<g id="edge35" class="edge"><title>Node1&#45;&gt;Node3</title>
<path fill="none" stroke="midnightblue" d="M352.038,-369.378C358,-360.563 367.063,-346.314 373,-333 379.762,-317.836 385.13,-299.718 388.595,-286.467"/>
<polygon fill="midnightblue" stroke="midnightblue" points="392.019,-287.203 391.047,-276.653 385.228,-285.506 392.019,-287.203"/>
</g>
<!-- Node2&#45;&gt;Node3 -->
<g id="edge2" class="edge"><title>Node2&#45;&gt;Node3</title>
<path fill="none" stroke="midnightblue" d="M314.103,-313.324C328.903,-304.822 351.694,-291.729 368.982,-281.797"/>
<polygon fill="midnightblue" stroke="midnightblue" points="371.007,-284.671 377.935,-276.655 367.52,-278.601 371.007,-284.671"/>
</g>
<!-- Node4 -->
<g id="node4" class="node"><title>Node4</title>
<g id="a_node4"><a doxygen="/local/devel/hpp/install/share/doc/hpp-core/doxygen-html/hpp-core.doxytag:../../hpp-core/doxygen-html/" xlink:href="../../hpp-core/doxygen-html/a00001.html" target="_top" xlink:title="hpp/core/fwd.hh">
<polygon fill="white" stroke="black" points="807,-0.5 807,-19.5 893,-19.5 893,-0.5 807,-0.5"/>
<text text-anchor="middle" x="850" y="-7.5" font-family="Helvetica,sans-Serif" font-size="10.00">hpp/core/fwd.hh</text>
</a>
</g>
</g>
<!-- Node2&#45;&gt;Node4 -->
<g id="edge32" class="edge"><title>Node2&#45;&gt;Node4</title>
<path fill="none" stroke="midnightblue" d="M364.583,-317.455C532.352,-304.954 964,-266.921 964,-206.5 964,-206.5 964,-206.5 964,-137.5 964,-85.0747 909.301,-44.5813 875.682,-24.6442"/>
<polygon fill="midnightblue" stroke="midnightblue" points="877.239,-21.5028 866.821,-19.5732 873.762,-27.5782 877.239,-21.5028"/>
</g>
<!-- Node5 -->
<g id="node5" class="node"><title>Node5</title>
<g id="a_node5"><a doxygen="/local/devel/hpp/install/share/doc/hpp-walkgen/doxygen-html/hpp-walkgen.doxytag:../../hpp-walkgen/doxygen-html/" xlink:href="../../hpp-walkgen/doxygen-html/a00001.html" target="_top" xlink:title="hpp/walkgen/fwd.hh">
<polygon fill="white" stroke="black" points="100,-0.5 100,-19.5 204,-19.5 204,-0.5 100,-0.5"/>
<text text-anchor="middle" x="152" y="-7.5" font-family="Helvetica,sans-Serif" font-size="10.00">hpp/walkgen/fwd.hh</text>
</a>
</g>
</g>
<!-- Node2&#45;&gt;Node5 -->
<g id="edge33" class="edge"><title>Node2&#45;&gt;Node5</title>
<path fill="none" stroke="midnightblue" d="M233.329,-315.548C170.674,-308.42 81.5856,-295.456 52,-277 18.966,-256.393 0,-245.435 0,-206.5 0,-206.5 0,-206.5 0,-137.5 0,-77.6877 70.3953,-40.6985 115.373,-23.1693"/>
<polygon fill="midnightblue" stroke="midnightblue" points="116.692,-26.4128 124.825,-19.6236 114.233,-19.8587 116.692,-26.4128"/>
</g>
<!-- Node8 -->
<g id="node8" class="node"><title>Node8</title>
<g id="a_node8"><a doxygen="/local/devel/hpp/install/share/doc/hpp-constraints/doxygen-html/hpp-constraints.doxytag:../../hpp-constraints/doxygen-html/" xlink:href="../../hpp-constraints/doxygen-html/a00001.html" target="_top" xlink:title="hpp/constraints/fwd.hh">
<polygon fill="white" stroke="black" points="336,-0.5 336,-19.5 452,-19.5 452,-0.5 336,-0.5"/>
<text text-anchor="middle" x="394" y="-7.5" font-family="Helvetica,sans-Serif" font-size="10.00">hpp/constraints/fwd.hh</text>
</a>
</g>
</g>
<!-- Node2&#45;&gt;Node8 -->
<g id="edge34" class="edge"><title>Node2&#45;&gt;Node8</title>
<path fill="none" stroke="midnightblue" d="M233.476,-320.408C156.162,-314.636 38,-291.852 38,-206.5 38,-206.5 38,-206.5 38,-137.5 38,-77.1168 222.148,-38.156 325.56,-21.0373"/>
<polygon fill="midnightblue" stroke="midnightblue" points="326.305,-24.4621 335.612,-19.3999 325.18,-17.5532 326.305,-24.4621"/>
</g>
<!-- Node3&#45;&gt;Node4 -->
<g id="edge3" class="edge"><title>Node3&#45;&gt;Node4</title>
<path fill="none" stroke="midnightblue" d="M435.999,-257.465C507.54,-242.344 654.554,-207.33 770,-154 819.576,-131.098 846.96,-135.003 873,-87 883.22,-68.1594 872.541,-44.1695 862.58,-28.2353"/>
<polygon fill="midnightblue" stroke="midnightblue" points="865.447,-26.2271 856.961,-19.8841 859.639,-30.1348 865.447,-26.2271"/>
</g>
<!-- Node3&#45;&gt;Node5 -->
<g id="edge4" class="edge"><title>Node3&#45;&gt;Node5</title>
<path fill="none" stroke="midnightblue" d="M347.072,-257.443C319.073,-250.704 283.509,-239.312 256,-221 190.429,-177.351 167.51,-160.811 140,-87 132.95,-68.084 138.405,-45.016 144.059,-29.2903"/>
<polygon fill="midnightblue" stroke="midnightblue" points="147.422,-30.3036 147.853,-19.7175 140.914,-27.7244 147.422,-30.3036"/>
</g>
<!-- Node6 -->
<g id="node6" class="node"><title>Node6</title>
<polygon fill="white" stroke="#bfbfbf" points="832,-190.5 832,-220.5 936,-220.5 936,-190.5 832,-190.5"/>
<text text-anchor="start" x="840" y="-208.5" font-family="Helvetica,sans-Serif" font-size="10.00">hpp/wholebody&#45;step</text>
<text text-anchor="middle" x="884" y="-197.5" font-family="Helvetica,sans-Serif" font-size="10.00">/config.hh</text>
</g>
<!-- Node3&#45;&gt;Node6 -->
<g id="edge5" class="edge"><title>Node3&#45;&gt;Node6</title>
<path fill="none" stroke="midnightblue" d="M451.014,-261.905C533.088,-255.647 687.634,-242.155 818,-221 819.27,-220.794 820.553,-220.579 821.844,-220.356"/>
<polygon fill="midnightblue" stroke="midnightblue" points="822.662,-223.764 831.864,-218.513 821.395,-216.88 822.662,-223.764"/>
</g>
<!-- Node7 -->
<g id="node7" class="node"><title>Node7</title>
<g id="a_node7"><a doxygen="/local/devel/hpp/install/share/doc/hpp-constraints/doxygen-html/hpp-constraints.doxytag:../../hpp-constraints/doxygen-html/" xlink:href="../../hpp-constraints/doxygen-html/a00137.html" target="_top" xlink:title="hpp/constraints/symbolic\l&#45;function.hh">
<polygon fill="white" stroke="black" points="285.5,-190.5 285.5,-220.5 410.5,-220.5 410.5,-190.5 285.5,-190.5"/>
<text text-anchor="start" x="293.5" y="-208.5" font-family="Helvetica,sans-Serif" font-size="10.00">hpp/constraints/symbolic</text>
<text text-anchor="middle" x="348" y="-197.5" font-family="Helvetica,sans-Serif" font-size="10.00">&#45;function.hh</text>
</a>
</g>
</g>
<!-- Node3&#45;&gt;Node7 -->
<g id="edge6" class="edge"><title>Node3&#45;&gt;Node7</title>
<path fill="none" stroke="midnightblue" d="M381.652,-257.475C374.387,-250.019 365.387,-238.852 358.356,-228.869"/>
<polygon fill="midnightblue" stroke="midnightblue" points="361.243,-226.891 352.776,-220.523 355.424,-230.781 361.243,-226.891"/>
</g>
<!-- Node7&#45;&gt;Node3 -->
<g id="edge7" class="edge"><title>Node7&#45;&gt;Node3</title>
<path fill="none" stroke="midnightblue" d="M364.436,-220.523C371.894,-228.945 380.171,-239.727 386.096,-248.678"/>
<polygon fill="midnightblue" stroke="midnightblue" points="383.263,-250.755 391.453,-257.475 389.241,-247.114 383.263,-250.755"/>
</g>
<!-- Node7&#45;&gt;Node4 -->
<g id="edge8" class="edge"><title>Node7&#45;&gt;Node4</title>
<path fill="none" stroke="midnightblue" d="M410.888,-199.577C534.172,-188.464 800.301,-156.771 854,-87 866.56,-70.6806 862.344,-46.0617 857.123,-29.2983"/>
<polygon fill="midnightblue" stroke="midnightblue" points="860.328,-27.8598 853.714,-19.5829 853.723,-30.1778 860.328,-27.8598"/>
</g>
<!-- Node7&#45;&gt;Node5 -->
<g id="edge9" class="edge"><title>Node7&#45;&gt;Node5</title>
<path fill="none" stroke="midnightblue" d="M298.051,-190.39C250.69,-174.051 182.269,-142.059 151,-87 141.046,-69.473 143.327,-45.804 146.786,-29.5627"/>
<polygon fill="midnightblue" stroke="midnightblue" points="150.229,-30.22 149.233,-19.6721 143.433,-28.5389 150.229,-30.22"/>
</g>
<!-- Node7&#45;&gt;Node8 -->
<g id="edge10" class="edge"><title>Node7&#45;&gt;Node8</title>
<path fill="none" stroke="midnightblue" d="M348.299,-190.183C349.235,-163.229 353.094,-103.395 369,-56 372.27,-46.2563 377.647,-36.1858 382.578,-28.0484"/>
<polygon fill="midnightblue" stroke="midnightblue" points="385.59,-29.8342 388.009,-19.5192 379.686,-26.0744 385.59,-29.8342"/>
</g>
<!-- Node9 -->
<g id="node9" class="node"><title>Node9</title>
<g id="a_node9"><a doxygen="/local/devel/hpp/install/share/doc/hpp-constraints/doxygen-html/hpp-constraints.doxytag:../../hpp-constraints/doxygen-html/" xlink:href="../../hpp-constraints/doxygen-html/a00136.html" target="_top" xlink:title="hpp/constraints/symbolic\l&#45;calculus.hh">
<polygon fill="white" stroke="black" points="467.5,-123.5 467.5,-153.5 592.5,-153.5 592.5,-123.5 467.5,-123.5"/>
<text text-anchor="start" x="475.5" y="-141.5" font-family="Helvetica,sans-Serif" font-size="10.00">hpp/constraints/symbolic</text>
<text text-anchor="middle" x="530" y="-130.5" font-family="Helvetica,sans-Serif" font-size="10.00">&#45;calculus.hh</text>
</a>
</g>
</g>
<!-- Node7&#45;&gt;Node9 -->
<g id="edge11" class="edge"><title>Node7&#45;&gt;Node9</title>
<path fill="none" stroke="midnightblue" d="M387.491,-190.396C414.918,-180.601 451.653,-167.481 480.957,-157.015"/>
<polygon fill="midnightblue" stroke="midnightblue" points="482.346,-160.236 490.586,-153.577 479.991,-153.644 482.346,-160.236"/>
</g>
<!-- Node13 -->
<g id="node13" class="node"><title>Node13</title>
<g id="a_node13"><a doxygen="/local/devel/hpp/install/share/doc/hpp-constraints/doxygen-html/hpp-constraints.doxytag:../../hpp-constraints/doxygen-html/" xlink:href="../../hpp-constraints/doxygen-html/a00107.html" target="_top" xlink:title="hpp/constraints/differentiable\l&#45;function.hh">
<polygon fill="white" stroke="black" points="180,-56.5 180,-86.5 322,-86.5 322,-56.5 180,-56.5"/>
<text text-anchor="start" x="188" y="-74.5" font-family="Helvetica,sans-Serif" font-size="10.00">hpp/constraints/differentiable</text>
<text text-anchor="middle" x="251" y="-63.5" font-family="Helvetica,sans-Serif" font-size="10.00">&#45;function.hh</text>
</a>
</g>
</g>
<!-- Node7&#45;&gt;Node13 -->
<g id="edge27" class="edge"><title>Node7&#45;&gt;Node13</title>
<path fill="none" stroke="midnightblue" d="M337.619,-190.374C320.773,-167.448 287.35,-121.966 267.306,-94.6894"/>
<polygon fill="midnightblue" stroke="midnightblue" points="270.048,-92.5104 261.306,-86.5247 264.407,-96.6555 270.048,-92.5104"/>
</g>
<!-- Node9&#45;&gt;Node3 -->
<g id="edge12" class="edge"><title>Node9&#45;&gt;Node3</title>
<path fill="none" stroke="midnightblue" d="M517.869,-153.751C503.239,-170.594 477.544,-199.095 453,-221 440.769,-231.916 426.055,-242.98 414.26,-251.405"/>
<polygon fill="midnightblue" stroke="midnightblue" points="412.063,-248.671 405.898,-257.288 416.091,-254.396 412.063,-248.671"/>
</g>
<!-- Node9&#45;&gt;Node4 -->
<g id="edge13" class="edge"><title>Node9&#45;&gt;Node4</title>
<path fill="none" stroke="midnightblue" d="M592.779,-134.886C670.622,-130.339 797.194,-118.243 831,-87 846.731,-72.4612 850.298,-47.0449 850.713,-29.6387"/>
<polygon fill="midnightblue" stroke="midnightblue" points="854.212,-29.5217 850.627,-19.5518 847.212,-29.5813 854.212,-29.5217"/>
</g>
<!-- Node9&#45;&gt;Node5 -->
<g id="edge14" class="edge"><title>Node9&#45;&gt;Node5</title>
<path fill="none" stroke="midnightblue" d="M467.272,-136.866C376.166,-134.623 213.457,-125.209 171,-87 155.078,-72.6707 151.555,-47.2062 151.202,-29.7317"/>
<polygon fill="midnightblue" stroke="midnightblue" points="154.704,-29.6429 151.329,-19.5997 147.704,-29.555 154.704,-29.6429"/>
</g>
<!-- Node9&#45;&gt;Node8 -->
<g id="edge15" class="edge"><title>Node9&#45;&gt;Node8</title>
<path fill="none" stroke="midnightblue" d="M529.889,-123.316C529.002,-105.479 524.894,-74.9062 508,-56 493.44,-39.706 472.217,-29.2432 452.018,-22.5553"/>
<polygon fill="midnightblue" stroke="midnightblue" points="452.805,-19.1361 442.219,-19.5663 450.763,-25.8316 452.805,-19.1361"/>
</g>
<!-- Node10 -->
<g id="node10" class="node"><title>Node10</title>
<g id="a_node10"><a doxygen="/local/devel/hpp/install/share/doc/hpp-constraints/doxygen-html/hpp-constraints.doxytag:../../hpp-constraints/doxygen-html/" xlink:href="../../hpp-constraints/doxygen-html/a00135.html" target="_top" xlink:title="hpp/constraints/svd.hh">
<polygon fill="white" stroke="black" points="706,-62 706,-81 822,-81 822,-62 706,-62"/>
<text text-anchor="middle" x="764" y="-69" font-family="Helvetica,sans-Serif" font-size="10.00">hpp/constraints/svd.hh</text>
</a>
</g>
</g>
<!-- Node9&#45;&gt;Node10 -->
<g id="edge16" class="edge"><title>Node9&#45;&gt;Node10</title>
<path fill="none" stroke="midnightblue" d="M580.486,-123.476C623.251,-111.597 683.767,-94.787 723.437,-83.7676"/>
<polygon fill="midnightblue" stroke="midnightblue" points="724.598,-87.0775 733.297,-81.0287 722.725,-80.3329 724.598,-87.0775"/>
</g>
<!-- Node11 -->
<g id="node11" class="node"><title>Node11</title>
<g id="a_node11"><a doxygen="/local/devel/hpp/install/share/doc/hpp-constraints/doxygen-html/hpp-constraints.doxytag:../../hpp-constraints/doxygen-html/" xlink:href="../../hpp-constraints/doxygen-html/a00138.html" target="_top" xlink:title="hpp/constraints/tools.hh">
<polygon fill="white" stroke="black" points="378.5,-62 378.5,-81 499.5,-81 499.5,-62 378.5,-62"/>
<text text-anchor="middle" x="439" y="-69" font-family="Helvetica,sans-Serif" font-size="10.00">hpp/constraints/tools.hh</text>
</a>
</g>
</g>
<!-- Node9&#45;&gt;Node11 -->
<g id="edge21" class="edge"><title>Node9&#45;&gt;Node11</title>
<path fill="none" stroke="midnightblue" d="M510.254,-123.396C495.135,-112.597 474.359,-97.7564 459.142,-86.8872"/>
<polygon fill="midnightblue" stroke="midnightblue" points="461.082,-83.9714 450.91,-81.007 457.013,-89.6675 461.082,-83.9714"/>
</g>
<!-- Node12 -->
<g id="node12" class="node"><title>Node12</title>
<g id="a_node12"><a doxygen="/local/devel/hpp/install/share/doc/hpp-constraints/doxygen-html/hpp-constraints.doxytag:../../hpp-constraints/doxygen-html/" xlink:href="../../hpp-constraints/doxygen-html/a00122.html" target="_top" xlink:title="hpp/constraints/macros.hh">
<polygon fill="white" stroke="black" points="556,-62 556,-81 688,-81 688,-62 556,-62"/>
<text text-anchor="middle" x="622" y="-69" font-family="Helvetica,sans-Serif" font-size="10.00">hpp/constraints/macros.hh</text>
</a>
</g>
</g>
<!-- Node9&#45;&gt;Node12 -->
<g id="edge26" class="edge"><title>Node9&#45;&gt;Node12</title>
<path fill="none" stroke="midnightblue" d="M549.963,-123.396C565.248,-112.597 586.252,-97.7564 601.637,-86.8872"/>
<polygon fill="midnightblue" stroke="midnightblue" points="603.812,-89.6359 609.959,-81.007 599.772,-83.9188 603.812,-89.6359"/>
</g>
<!-- Node10&#45;&gt;Node3 -->
<g id="edge17" class="edge"><title>Node10&#45;&gt;Node3</title>
<path fill="none" stroke="midnightblue" d="M747.911,-81.1654C705.026,-104.227 584.333,-168.899 483,-221 461.764,-231.918 437.548,-244.006 419.587,-252.902"/>
<polygon fill="midnightblue" stroke="midnightblue" points="417.725,-249.919 410.312,-257.488 420.827,-256.193 417.725,-249.919"/>
</g>
<!-- Node10&#45;&gt;Node4 -->
<g id="edge18" class="edge"><title>Node10&#45;&gt;Node4</title>
<path fill="none" stroke="midnightblue" d="M776.322,-61.9751C790.116,-52.4315 812.699,-36.8073 829.232,-25.3683"/>
<polygon fill="midnightblue" stroke="midnightblue" points="831.469,-28.077 837.701,-19.5091 827.486,-22.3205 831.469,-28.077"/>
</g>
<!-- Node10&#45;&gt;Node5 -->
<g id="edge19" class="edge"><title>Node10&#45;&gt;Node5</title>
<path fill="none" stroke="midnightblue" d="M728.692,-61.9542C718.513,-59.737 707.359,-57.5418 697,-56 605.412,-42.3679 336.971,-23.3833 214.368,-15.1179"/>
<polygon fill="midnightblue" stroke="midnightblue" points="214.24,-11.6015 204.027,-14.4229 213.77,-18.5857 214.24,-11.6015"/>
</g>
<!-- Node10&#45;&gt;Node8 -->
<g id="edge20" class="edge"><title>Node10&#45;&gt;Node8</title>
<path fill="none" stroke="midnightblue" d="M726.525,-61.9352C716.925,-59.8664 706.601,-57.7499 697,-56 616.712,-41.3666 523.803,-28.107 462.254,-19.8325"/>
<polygon fill="midnightblue" stroke="midnightblue" points="462.65,-16.3543 452.274,-18.4976 461.721,-23.2925 462.65,-16.3543"/>
</g>
<!-- Node11&#45;&gt;Node3 -->
<g id="edge22" class="edge"><title>Node11&#45;&gt;Node3</title>
<path fill="none" stroke="midnightblue" d="M438.994,-81.1375C438.735,-104.398 436.393,-170.037 419,-221 415.69,-230.697 410.201,-240.646 405.116,-248.716"/>
<polygon fill="midnightblue" stroke="midnightblue" points="402.101,-246.929 399.489,-257.197 407.934,-250.799 402.101,-246.929"/>
</g>
<!-- Node11&#45;&gt;Node4 -->
<g id="edge23" class="edge"><title>Node11&#45;&gt;Node4</title>
<path fill="none" stroke="midnightblue" d="M497.886,-61.9751C577.971,-50.3814 720.041,-29.814 796.967,-18.6776"/>
<polygon fill="midnightblue" stroke="midnightblue" points="797.527,-22.133 806.923,-17.2363 796.524,-15.2052 797.527,-22.133"/>
</g>
<!-- Node11&#45;&gt;Node5 -->
<g id="edge24" class="edge"><title>Node11&#45;&gt;Node5</title>
<path fill="none" stroke="midnightblue" d="M397.88,-61.9751C346.518,-51.3269 258.644,-33.1092 203.036,-21.5806"/>
<polygon fill="midnightblue" stroke="midnightblue" points="203.546,-18.112 193.044,-19.5091 202.125,-24.9663 203.546,-18.112"/>
</g>
<!-- Node11&#45;&gt;Node8 -->
<g id="edge25" class="edge"><title>Node11&#45;&gt;Node8</title>
<path fill="none" stroke="midnightblue" d="M432.553,-61.9751C425.803,-53.0501 415.031,-38.8071 406.587,-27.6425"/>
<polygon fill="midnightblue" stroke="midnightblue" points="409.259,-25.3737 400.435,-19.5091 403.676,-29.5962 409.259,-25.3737"/>
</g>
<!-- Node13&#45;&gt;Node3 -->
<g id="edge28" class="edge"><title>Node13&#45;&gt;Node3</title>
<path fill="none" stroke="midnightblue" d="M249.132,-86.6098C246.145,-115.354 243.572,-181.324 276,-221 289.433,-237.436 309.615,-247.88 329.453,-254.512"/>
<polygon fill="midnightblue" stroke="midnightblue" points="328.546,-257.895 339.132,-257.471 330.593,-251.201 328.546,-257.895"/>
</g>
<!-- Node13&#45;&gt;Node4 -->
<g id="edge29" class="edge"><title>Node13&#45;&gt;Node4</title>
<path fill="none" stroke="midnightblue" d="M322.096,-61.4255C337.549,-59.5477 353.815,-57.643 369,-56 524.205,-39.2076 707.992,-23.0453 796.753,-15.4738"/>
<polygon fill="midnightblue" stroke="midnightblue" points="797.174,-18.9507 806.841,-14.6153 796.58,-11.9759 797.174,-18.9507"/>
</g>
<!-- Node13&#45;&gt;Node5 -->
<g id="edge30" class="edge"><title>Node13&#45;&gt;Node5</title>
<path fill="none" stroke="midnightblue" d="M227.538,-56.3993C211.669,-46.8619 190.809,-34.3248 175.032,-24.8422"/>
<polygon fill="midnightblue" stroke="midnightblue" points="176.779,-21.8093 166.405,-19.6578 173.174,-27.809 176.779,-21.8093"/>
</g>
<!-- Node13&#45;&gt;Node8 -->
<g id="edge31" class="edge"><title>Node13&#45;&gt;Node8</title>
<path fill="none" stroke="midnightblue" d="M284.889,-56.3993C308.882,-46.4163 340.774,-33.1465 363.877,-23.5335"/>
<polygon fill="midnightblue" stroke="midnightblue" points="365.304,-26.7308 373.192,-19.6578 362.615,-20.268 365.304,-26.7308"/>
</g>
</g>
</svg>
