<?xml version="1.0" encoding="UTF-8" standalone="no"?>
<!DOCTYPE svg PUBLIC "-//W3C//DTD SVG 1.1//EN"
 "http://www.w3.org/Graphics/SVG/1.1/DTD/svg11.dtd">
<!-- Generated by graphviz version 2.38.0 (20140413.2041)
 -->
<!-- Title: hpp::wholebodyStep::SmallSteps::PiecewiseAffine Pages: 1 -->
<svg width="157pt" height="173pt"
 viewBox="0.00 0.00 157.00 173.00" xmlns="http://www.w3.org/2000/svg" xmlns:xlink="http://www.w3.org/1999/xlink">
<g id="graph0" class="graph" transform="scale(1 1) rotate(0) translate(4 169)">
<title>hpp::wholebodyStep::SmallSteps::PiecewiseAffine</title>
<polygon fill="white" stroke="none" points="-4,4 -4,-169 153,-169 153,4 -4,4"/>
<!-- Node1 -->
<g id="node1" class="node"><title>Node1</title>
<polygon fill="#bfbfbf" stroke="black" points="-1.42109e-14,-0.5 -1.42109e-14,-30.5 149,-30.5 149,-0.5 -1.42109e-14,-0.5"/>
<text text-anchor="start" x="8" y="-18.5" font-family="Helvetica,sans-Serif" font-size="10.00">hpp::wholebodyStep</text>
<text text-anchor="middle" x="74.5" y="-7.5" font-family="Helvetica,sans-Serif" font-size="10.00">::SmallSteps::PiecewiseAffine</text>
</g>
<!-- Node2 -->
<g id="node2" class="node"><title>Node2</title>
<g id="a_node2"><a xlink:title="STL class. ">
<polygon fill="white" stroke="#bfbfbf" points="28.5,-78.5 28.5,-97.5 120.5,-97.5 120.5,-78.5 28.5,-78.5"/>
<text text-anchor="middle" x="74.5" y="-85.5" font-family="Helvetica,sans-Serif" font-size="10.00">std::map&lt; K, T &gt;</text>
</a>
</g>
</g>
<!-- Node2&#45;&gt;Node1 -->
<g id="edge1" class="edge"><title>Node2&#45;&gt;Node1</title>
<path fill="none" stroke="#9a32cd" stroke-dasharray="5,2" d="M74.5,-68.2362C74.5,-56.4079 74.5,-41.3829 74.5,-30.5762"/>
<polygon fill="#9a32cd" stroke="#9a32cd" points="71.0001,-68.3553 74.5,-78.3553 78.0001,-68.3554 71.0001,-68.3553"/>
<text text-anchor="middle" x="89.5" y="-52" font-family="Helvetica,sans-Serif" font-size="10.00"> pairs_</text>
</g>
<!-- Node3 -->
<g id="node3" class="node"><title>Node3</title>
<polygon fill="white" stroke="#bfbfbf" points="36,-145.5 36,-164.5 65,-164.5 65,-145.5 36,-145.5"/>
<text text-anchor="middle" x="50.5" y="-152.5" font-family="Helvetica,sans-Serif" font-size="10.00">K</text>
</g>
<!-- Node3&#45;&gt;Node2 -->
<g id="edge2" class="edge"><title>Node3&#45;&gt;Node2</title>
<path fill="none" stroke="#9a32cd" stroke-dasharray="5,2" d="M48.527,-135.005C48.5219,-128.774 49.2271,-121.931 51.5,-116 54.1441,-109.1 59.363,-102.736 64.162,-97.9219"/>
<polygon fill="#9a32cd" stroke="#9a32cd" points="45.0466,-135.448 49.1178,-145.229 52.035,-135.044 45.0466,-135.448"/>
<text text-anchor="middle" x="64" y="-119" font-family="Helvetica,sans-Serif" font-size="10.00"> keys</text>
</g>
<!-- Node4 -->
<g id="node4" class="node"><title>Node4</title>
<polygon fill="white" stroke="#bfbfbf" points="84,-145.5 84,-164.5 113,-164.5 113,-145.5 84,-145.5"/>
<text text-anchor="middle" x="98.5" y="-152.5" font-family="Helvetica,sans-Serif" font-size="10.00">T</text>
</g>
<!-- Node4&#45;&gt;Node2 -->
<g id="edge3" class="edge"><title>Node4&#45;&gt;Node2</title>
<path fill="none" stroke="#9a32cd" stroke-dasharray="5,2" d="M91.7763,-135.79C87.1674,-123.308 81.2619,-107.314 77.6855,-97.6273"/>
<polygon fill="#9a32cd" stroke="#9a32cd" points="88.5161,-137.065 95.2633,-145.234 95.0828,-134.641 88.5161,-137.065"/>
<text text-anchor="middle" x="109" y="-119" font-family="Helvetica,sans-Serif" font-size="10.00"> elements</text>
</g>
</g>
</svg>
