<?xml version="1.0" encoding="UTF-8" standalone="no"?>
<!DOCTYPE svg PUBLIC "-//W3C//DTD SVG 1.1//EN"
 "http://www.w3.org/Graphics/SVG/1.1/DTD/svg11.dtd">
<!-- Generated by graphviz version 2.38.0 (20140413.2041)
 -->
<!-- Title: fwd.hh Pages: 1 -->
<svg width="918pt" height="285pt"
 viewBox="0.00 0.00 917.75 285.00" xmlns="http://www.w3.org/2000/svg" xmlns:xlink="http://www.w3.org/1999/xlink">
<g id="graph0" class="graph" transform="scale(1 1) rotate(0) translate(4 281)">
<title>fwd.hh</title>
<polygon fill="white" stroke="none" points="-4,4 -4,-281 913.753,-281 913.753,4 -4,4"/>
<!-- Node1 -->
<g id="node1" class="node"><title>Node1</title>
<polygon fill="#bfbfbf" stroke="black" points="513.753,-257.5 513.753,-276.5 559.753,-276.5 559.753,-257.5 513.753,-257.5"/>
<text text-anchor="middle" x="536.753" y="-264.5" font-family="Helvetica,sans-Serif" font-size="10.00">fwd.hh</text>
</g>
<!-- Node2 -->
<g id="node2" class="node"><title>Node2</title>
<g id="a_node2"><a doxygen="/local/devel/hpp/install/share/doc/hpp-core/doxygen-html/hpp-core.doxytag:../../hpp-core/doxygen-html/" xlink:href="../../hpp-core/doxygen-html/a00001.html" target="_top" xlink:title="hpp/core/fwd.hh">
<polygon fill="white" stroke="black" points="3.75284,-0.5 3.75284,-19.5 89.7528,-19.5 89.7528,-0.5 3.75284,-0.5"/>
<text text-anchor="middle" x="46.7528" y="-7.5" font-family="Helvetica,sans-Serif" font-size="10.00">hpp/core/fwd.hh</text>
</a>
</g>
</g>
<!-- Node1&#45;&gt;Node2 -->
<g id="edge1" class="edge"><title>Node1&#45;&gt;Node2</title>
<path fill="none" stroke="midnightblue" d="M513.618,-265.816C440.932,-264.209 212.958,-251.24 60.7528,-154 27.8066,-132.951 17.2492,-123.693 3.75284,-87 -1.0034,-74.0692 -1.37472,-68.7881 3.75284,-56 8.43288,-44.328 17.744,-33.9687 26.5085,-26.1405"/>
<polygon fill="midnightblue" stroke="midnightblue" points="28.8046,-28.7832 34.2554,-19.698 24.3287,-23.4011 28.8046,-28.7832"/>
</g>
<!-- Node3 -->
<g id="node3" class="node"><title>Node3</title>
<g id="a_node3"><a doxygen="/local/devel/hpp/install/share/doc/hpp-walkgen/doxygen-html/hpp-walkgen.doxytag:../../hpp-walkgen/doxygen-html/" xlink:href="../../hpp-walkgen/doxygen-html/a00001.html" target="_top" xlink:title="hpp/walkgen/fwd.hh">
<polygon fill="white" stroke="black" points="539.753,-0.5 539.753,-19.5 643.753,-19.5 643.753,-0.5 539.753,-0.5"/>
<text text-anchor="middle" x="591.753" y="-7.5" font-family="Helvetica,sans-Serif" font-size="10.00">hpp/walkgen/fwd.hh</text>
</a>
</g>
</g>
<!-- Node1&#45;&gt;Node3 -->
<g id="edge2" class="edge"><title>Node1&#45;&gt;Node3</title>
<path fill="none" stroke="midnightblue" d="M559.936,-257.723C579.65,-250.023 608.119,-237.295 629.753,-221 690.629,-175.147 713.804,-159.676 736.753,-87 740.902,-73.8617 744.925,-67.0926 736.753,-56 717.721,-30.1658 684,-18.7258 653.864,-13.832"/>
<polygon fill="midnightblue" stroke="midnightblue" points="654.199,-10.3447 643.808,-12.412 653.22,-17.2759 654.199,-10.3447"/>
</g>
<!-- Node4 -->
<g id="node4" class="node"><title>Node4</title>
<polygon fill="white" stroke="#bfbfbf" points="805.753,-190.5 805.753,-220.5 909.753,-220.5 909.753,-190.5 805.753,-190.5"/>
<text text-anchor="start" x="813.753" y="-208.5" font-family="Helvetica,sans-Serif" font-size="10.00">hpp/wholebody&#45;step</text>
<text text-anchor="middle" x="857.753" y="-197.5" font-family="Helvetica,sans-Serif" font-size="10.00">/config.hh</text>
</g>
<!-- Node1&#45;&gt;Node4 -->
<g id="edge3" class="edge"><title>Node1&#45;&gt;Node4</title>
<path fill="none" stroke="midnightblue" d="M560.018,-262.227C604.927,-254.871 706.642,-237.851 791.753,-221 793.015,-220.75 794.29,-220.495 795.575,-220.236"/>
<polygon fill="midnightblue" stroke="midnightblue" points="796.469,-223.625 805.556,-218.177 795.055,-216.769 796.469,-223.625"/>
</g>
<!-- Node5 -->
<g id="node5" class="node"><title>Node5</title>
<g id="a_node5"><a doxygen="/local/devel/hpp/install/share/doc/hpp-constraints/doxygen-html/hpp-constraints.doxytag:../../hpp-constraints/doxygen-html/" xlink:href="../../hpp-constraints/doxygen-html/a00137.html" target="_top" xlink:title="hpp/constraints/symbolic\l&#45;function.hh">
<polygon fill="white" stroke="black" points="474.253,-190.5 474.253,-220.5 599.253,-220.5 599.253,-190.5 474.253,-190.5"/>
<text text-anchor="start" x="482.253" y="-208.5" font-family="Helvetica,sans-Serif" font-size="10.00">hpp/constraints/symbolic</text>
<text text-anchor="middle" x="536.753" y="-197.5" font-family="Helvetica,sans-Serif" font-size="10.00">&#45;function.hh</text>
</a>
</g>
</g>
<!-- Node1&#45;&gt;Node5 -->
<g id="edge4" class="edge"><title>Node1&#45;&gt;Node5</title>
<path fill="none" stroke="midnightblue" d="M531.852,-257.475C530.325,-250.471 529.743,-240.192 530.109,-230.696"/>
<polygon fill="midnightblue" stroke="midnightblue" points="533.614,-230.77 530.923,-220.523 526.636,-230.212 533.614,-230.77"/>
</g>
<!-- Node5&#45;&gt;Node1 -->
<g id="edge5" class="edge"><title>Node5&#45;&gt;Node1</title>
<path fill="none" stroke="midnightblue" d="M542.583,-220.523C543.626,-228.586 543.782,-238.813 543.052,-247.526"/>
<polygon fill="midnightblue" stroke="midnightblue" points="539.58,-247.085 541.653,-257.475 546.511,-248.06 539.58,-247.085"/>
</g>
<!-- Node5&#45;&gt;Node2 -->
<g id="edge6" class="edge"><title>Node5&#45;&gt;Node2</title>
<path fill="none" stroke="midnightblue" d="M473.998,-200.209C347.315,-190.075 68.3282,-159.814 12.7528,-87 -1.28721,-68.6049 15.5299,-43.4948 30.101,-27.2625"/>
<polygon fill="midnightblue" stroke="midnightblue" points="32.9754,-29.3196 37.3406,-19.6658 27.908,-24.4903 32.9754,-29.3196"/>
</g>
<!-- Node5&#45;&gt;Node3 -->
<g id="edge7" class="edge"><title>Node5&#45;&gt;Node3</title>
<path fill="none" stroke="midnightblue" d="M581.025,-190.388C625.402,-173.598 691.248,-140.848 720.753,-87 727.373,-74.9171 728.731,-67.2328 720.753,-56 705.414,-34.4041 678.909,-23.0865 653.899,-17.1893"/>
<polygon fill="midnightblue" stroke="midnightblue" points="654.555,-13.7506 644.048,-15.116 653.113,-20.6006 654.555,-13.7506"/>
</g>
<!-- Node6 -->
<g id="node6" class="node"><title>Node6</title>
<g id="a_node6"><a doxygen="/local/devel/hpp/install/share/doc/hpp-constraints/doxygen-html/hpp-constraints.doxytag:../../hpp-constraints/doxygen-html/" xlink:href="../../hpp-constraints/doxygen-html/a00001.html" target="_top" xlink:title="hpp/constraints/fwd.hh">
<polygon fill="white" stroke="black" points="356.753,-0.5 356.753,-19.5 472.753,-19.5 472.753,-0.5 356.753,-0.5"/>
<text text-anchor="middle" x="414.753" y="-7.5" font-family="Helvetica,sans-Serif" font-size="10.00">hpp/constraints/fwd.hh</text>
</a>
</g>
</g>
<!-- Node5&#45;&gt;Node6 -->
<g id="edge8" class="edge"><title>Node5&#45;&gt;Node6</title>
<path fill="none" stroke="midnightblue" d="M534.79,-190.362C530.258,-162.135 516.811,-97.911 483.753,-56 473.174,-42.5884 457.447,-31.8961 443.679,-24.3049"/>
<polygon fill="midnightblue" stroke="midnightblue" points="445.033,-21.0639 434.547,-19.5496 441.8,-27.2726 445.033,-21.0639"/>
</g>
<!-- Node7 -->
<g id="node7" class="node"><title>Node7</title>
<g id="a_node7"><a doxygen="/local/devel/hpp/install/share/doc/hpp-constraints/doxygen-html/hpp-constraints.doxytag:../../hpp-constraints/doxygen-html/" xlink:href="../../hpp-constraints/doxygen-html/a00136.html" target="_top" xlink:title="hpp/constraints/symbolic\l&#45;calculus.hh">
<polygon fill="white" stroke="black" points="267.253,-123.5 267.253,-153.5 392.253,-153.5 392.253,-123.5 267.253,-123.5"/>
<text text-anchor="start" x="275.253" y="-141.5" font-family="Helvetica,sans-Serif" font-size="10.00">hpp/constraints/symbolic</text>
<text text-anchor="middle" x="329.753" y="-130.5" font-family="Helvetica,sans-Serif" font-size="10.00">&#45;calculus.hh</text>
</a>
</g>
</g>
<!-- Node5&#45;&gt;Node7 -->
<g id="edge9" class="edge"><title>Node5&#45;&gt;Node7</title>
<path fill="none" stroke="midnightblue" d="M492.092,-190.476C460.505,-180.557 417.97,-167.201 384.363,-156.648"/>
<polygon fill="midnightblue" stroke="midnightblue" points="385.28,-153.268 374.691,-153.611 383.183,-159.946 385.28,-153.268"/>
</g>
<!-- Node11 -->
<g id="node11" class="node"><title>Node11</title>
<g id="a_node11"><a doxygen="/local/devel/hpp/install/share/doc/hpp-constraints/doxygen-html/hpp-constraints.doxytag:../../hpp-constraints/doxygen-html/" xlink:href="../../hpp-constraints/doxygen-html/a00107.html" target="_top" xlink:title="hpp/constraints/differentiable\l&#45;function.hh">
<polygon fill="white" stroke="black" points="569.753,-56.5 569.753,-86.5 711.753,-86.5 711.753,-56.5 569.753,-56.5"/>
<text text-anchor="start" x="577.753" y="-74.5" font-family="Helvetica,sans-Serif" font-size="10.00">hpp/constraints/differentiable</text>
<text text-anchor="middle" x="640.753" y="-63.5" font-family="Helvetica,sans-Serif" font-size="10.00">&#45;function.hh</text>
</a>
</g>
</g>
<!-- Node5&#45;&gt;Node11 -->
<g id="edge25" class="edge"><title>Node5&#45;&gt;Node11</title>
<path fill="none" stroke="midnightblue" d="M547.883,-190.374C565.945,-167.448 601.78,-121.966 623.27,-94.6894"/>
<polygon fill="midnightblue" stroke="midnightblue" points="626.264,-96.5457 629.703,-86.5247 620.765,-92.2136 626.264,-96.5457"/>
</g>
<!-- Node7&#45;&gt;Node1 -->
<g id="edge10" class="edge"><title>Node7&#45;&gt;Node1</title>
<path fill="none" stroke="midnightblue" d="M341.307,-153.732C356.49,-171.62 384.765,-202.246 414.753,-221 442.511,-238.359 477.97,-250.492 503.498,-257.748"/>
<polygon fill="midnightblue" stroke="midnightblue" points="502.868,-261.205 513.437,-260.471 504.717,-254.454 502.868,-261.205"/>
</g>
<!-- Node7&#45;&gt;Node2 -->
<g id="edge11" class="edge"><title>Node7&#45;&gt;Node2</title>
<path fill="none" stroke="midnightblue" d="M267.218,-136.391C186.706,-133.488 53.4717,-123.185 22.7528,-87 8.3971,-70.0899 21.4327,-44.5551 33.1833,-27.8289"/>
<polygon fill="midnightblue" stroke="midnightblue" points="36.1914,-29.6518 39.3971,-19.5535 30.5937,-25.4486 36.1914,-29.6518"/>
</g>
<!-- Node7&#45;&gt;Node3 -->
<g id="edge12" class="edge"><title>Node7&#45;&gt;Node3</title>
<path fill="none" stroke="midnightblue" d="M385.851,-123.443C415.762,-114.884 452.694,-102.584 483.753,-87 517.821,-69.9064 553.189,-42.9623 573.8,-26.1708"/>
<polygon fill="midnightblue" stroke="midnightblue" points="576.205,-28.7234 581.683,-19.6544 571.745,-23.3281 576.205,-28.7234"/>
</g>
<!-- Node7&#45;&gt;Node6 -->
<g id="edge13" class="edge"><title>Node7&#45;&gt;Node6</title>
<path fill="none" stroke="midnightblue" d="M329.084,-123.269C328.961,-105.932 331.05,-76.4325 344.753,-56 354.102,-42.0587 369.384,-31.5027 383.288,-24.1309"/>
<polygon fill="midnightblue" stroke="midnightblue" points="385.185,-27.0978 392.603,-19.5336 382.087,-20.8206 385.185,-27.0978"/>
</g>
<!-- Node8 -->
<g id="node8" class="node"><title>Node8</title>
<g id="a_node8"><a doxygen="/local/devel/hpp/install/share/doc/hpp-constraints/doxygen-html/hpp-constraints.doxytag:../../hpp-constraints/doxygen-html/" xlink:href="../../hpp-constraints/doxygen-html/a00135.html" target="_top" xlink:title="hpp/constraints/svd.hh">
<polygon fill="white" stroke="black" points="31.7528,-62 31.7528,-81 147.753,-81 147.753,-62 31.7528,-62"/>
<text text-anchor="middle" x="89.7528" y="-69" font-family="Helvetica,sans-Serif" font-size="10.00">hpp/constraints/svd.hh</text>
</a>
</g>
</g>
<!-- Node7&#45;&gt;Node8 -->
<g id="edge14" class="edge"><title>Node7&#45;&gt;Node8</title>
<path fill="none" stroke="midnightblue" d="M277.972,-123.476C234.018,-111.572 171.78,-94.7156 131.097,-83.6975"/>
<polygon fill="midnightblue" stroke="midnightblue" points="131.811,-80.2646 121.243,-81.0287 129.981,-87.0212 131.811,-80.2646"/>
</g>
<!-- Node9 -->
<g id="node9" class="node"><title>Node9</title>
<g id="a_node9"><a doxygen="/local/devel/hpp/install/share/doc/hpp-constraints/doxygen-html/hpp-constraints.doxytag:../../hpp-constraints/doxygen-html/" xlink:href="../../hpp-constraints/doxygen-html/a00138.html" target="_top" xlink:title="hpp/constraints/tools.hh">
<polygon fill="white" stroke="black" points="354.253,-62 354.253,-81 475.253,-81 475.253,-62 354.253,-62"/>
<text text-anchor="middle" x="414.753" y="-69" font-family="Helvetica,sans-Serif" font-size="10.00">hpp/constraints/tools.hh</text>
</a>
</g>
</g>
<!-- Node7&#45;&gt;Node9 -->
<g id="edge19" class="edge"><title>Node7&#45;&gt;Node9</title>
<path fill="none" stroke="midnightblue" d="M348.197,-123.396C362.106,-112.759 381.141,-98.2028 395.293,-87.3813"/>
<polygon fill="midnightblue" stroke="midnightblue" points="397.566,-90.0493 403.383,-81.1945 393.313,-84.4888 397.566,-90.0493"/>
</g>
<!-- Node10 -->
<g id="node10" class="node"><title>Node10</title>
<g id="a_node10"><a doxygen="/local/devel/hpp/install/share/doc/hpp-constraints/doxygen-html/hpp-constraints.doxytag:../../hpp-constraints/doxygen-html/" xlink:href="../../hpp-constraints/doxygen-html/a00122.html" target="_top" xlink:title="hpp/constraints/macros.hh">
<polygon fill="white" stroke="black" points="165.753,-62 165.753,-81 297.753,-81 297.753,-62 165.753,-62"/>
<text text-anchor="middle" x="231.753" y="-69" font-family="Helvetica,sans-Serif" font-size="10.00">hpp/constraints/macros.hh</text>
</a>
</g>
</g>
<!-- Node7&#45;&gt;Node10 -->
<g id="edge24" class="edge"><title>Node7&#45;&gt;Node10</title>
<path fill="none" stroke="midnightblue" d="M308.488,-123.396C292.054,-112.496 269.413,-97.4787 252.986,-86.5835"/>
<polygon fill="midnightblue" stroke="midnightblue" points="254.847,-83.6177 244.579,-81.007 250.978,-89.4512 254.847,-83.6177"/>
</g>
<!-- Node8&#45;&gt;Node1 -->
<g id="edge15" class="edge"><title>Node8&#45;&gt;Node1</title>
<path fill="none" stroke="midnightblue" d="M103.438,-81.0096C143.582,-105.67 265.055,-178.141 373.753,-221 417.372,-238.199 470.01,-251.453 503.435,-258.99"/>
<polygon fill="midnightblue" stroke="midnightblue" points="503.056,-262.491 513.576,-261.234 504.568,-255.656 503.056,-262.491"/>
</g>
<!-- Node8&#45;&gt;Node2 -->
<g id="edge16" class="edge"><title>Node8&#45;&gt;Node2</title>
<path fill="none" stroke="midnightblue" d="M83.592,-61.9751C77.142,-53.0501 66.8488,-38.8071 58.7802,-27.6425"/>
<polygon fill="midnightblue" stroke="midnightblue" points="61.5965,-25.564 52.9023,-19.5091 55.9229,-29.6642 61.5965,-25.564"/>
</g>
<!-- Node8&#45;&gt;Node3 -->
<g id="edge17" class="edge"><title>Node8&#45;&gt;Node3</title>
<path fill="none" stroke="midnightblue" d="M125.778,-61.9416C135.768,-59.7766 146.645,-57.6115 156.753,-56 226.884,-44.8184 426.813,-25.9484 529.386,-16.5979"/>
<polygon fill="midnightblue" stroke="midnightblue" points="529.958,-20.0603 539.6,-15.6689 529.324,-13.0891 529.958,-20.0603"/>
</g>
<!-- Node8&#45;&gt;Node6 -->
<g id="edge18" class="edge"><title>Node8&#45;&gt;Node6</title>
<path fill="none" stroke="midnightblue" d="M127.963,-61.9512C137.361,-59.9258 147.408,-57.8253 156.753,-56 223.271,-43.0066 299.799,-29.8877 352.127,-21.1947"/>
<polygon fill="midnightblue" stroke="midnightblue" points="352.966,-24.6035 362.26,-19.5165 351.822,-17.6976 352.966,-24.6035"/>
</g>
<!-- Node9&#45;&gt;Node1 -->
<g id="edge20" class="edge"><title>Node9&#45;&gt;Node1</title>
<path fill="none" stroke="midnightblue" d="M415.627,-81.1667C418.488,-105.639 429.514,-176.382 464.753,-221 475.62,-234.759 491.932,-245.447 506.283,-252.948"/>
<polygon fill="midnightblue" stroke="midnightblue" points="504.837,-256.137 515.354,-257.416 507.931,-249.857 504.837,-256.137"/>
</g>
<!-- Node9&#45;&gt;Node2 -->
<g id="edge21" class="edge"><title>Node9&#45;&gt;Node2</title>
<path fill="none" stroke="midnightblue" d="M362.027,-61.9751C292.224,-50.689 169.827,-30.8993 99.842,-19.5837"/>
<polygon fill="midnightblue" stroke="midnightblue" points="100.34,-16.1188 89.9092,-17.9777 99.2223,-23.0291 100.34,-16.1188"/>
</g>
<!-- Node9&#45;&gt;Node3 -->
<g id="edge22" class="edge"><title>Node9&#45;&gt;Node3</title>
<path fill="none" stroke="midnightblue" d="M440.113,-61.9751C470.737,-51.6804 522.41,-34.3103 556.798,-22.7502"/>
<polygon fill="midnightblue" stroke="midnightblue" points="558.077,-26.0131 566.44,-19.5091 555.846,-19.3779 558.077,-26.0131"/>
</g>
<!-- Node9&#45;&gt;Node6 -->
<g id="edge23" class="edge"><title>Node9&#45;&gt;Node6</title>
<path fill="none" stroke="midnightblue" d="M414.753,-61.9751C414.753,-53.5803 414.753,-40.4806 414.753,-29.6631"/>
<polygon fill="midnightblue" stroke="midnightblue" points="418.253,-29.5091 414.753,-19.5091 411.253,-29.5091 418.253,-29.5091"/>
</g>
<!-- Node11&#45;&gt;Node1 -->
<g id="edge26" class="edge"><title>Node11&#45;&gt;Node1</title>
<path fill="none" stroke="midnightblue" d="M641.066,-86.5978C641.006,-114.754 637.352,-178.856 607.753,-221 597.914,-235.009 582.184,-245.628 568.028,-253.023"/>
<polygon fill="midnightblue" stroke="midnightblue" points="566.478,-249.884 559.03,-257.419 569.552,-256.174 566.478,-249.884"/>
</g>
<!-- Node11&#45;&gt;Node2 -->
<g id="edge27" class="edge"><title>Node11&#45;&gt;Node2</title>
<path fill="none" stroke="midnightblue" d="M569.693,-63.382C449.144,-51.3069 207.233,-27.075 100.012,-16.3349"/>
<polygon fill="midnightblue" stroke="midnightblue" points="100.057,-12.822 89.758,-15.3078 99.3593,-19.7871 100.057,-12.822"/>
</g>
<!-- Node11&#45;&gt;Node3 -->
<g id="edge28" class="edge"><title>Node11&#45;&gt;Node3</title>
<path fill="none" stroke="midnightblue" d="M629.141,-56.3993C622.02,-47.7533 612.87,-36.642 605.404,-27.576"/>
<polygon fill="midnightblue" stroke="midnightblue" points="607.942,-25.1521 598.883,-19.6578 602.538,-29.6021 607.942,-25.1521"/>
</g>
<!-- Node11&#45;&gt;Node6 -->
<g id="edge29" class="edge"><title>Node11&#45;&gt;Node6</title>
<path fill="none" stroke="midnightblue" d="M587.48,-56.4747C547.639,-45.9856 493.897,-31.8367 456.998,-22.1221"/>
<polygon fill="midnightblue" stroke="midnightblue" points="457.624,-18.6678 447.063,-19.5064 455.842,-25.4371 457.624,-18.6678"/>
</g>
</g>
</svg>
