<?xml version="1.0" encoding="UTF-8" standalone="no"?>
<!DOCTYPE svg PUBLIC "-//W3C//DTD SVG 1.1//EN"
 "http://www.w3.org/Graphics/SVG/1.1/DTD/svg11.dtd">
<!-- Generated by graphviz version 2.38.0 (20140413.2041)
 -->
<!-- Title: gcommon.idl Pages: 1 -->
<svg width="346pt" height="140pt"
 viewBox="0.00 0.00 346.00 140.00" xmlns="http://www.w3.org/2000/svg" xmlns:xlink="http://www.w3.org/1999/xlink">
<g id="graph0" class="graph" transform="scale(1 1) rotate(0) translate(4 136)">
<title>gcommon.idl</title>
<polygon fill="white" stroke="none" points="-4,4 -4,-136 342,-136 342,4 -4,4"/>
<!-- Node1 -->
<g id="node1" class="node"><title>Node1</title>
<polygon fill="#bfbfbf" stroke="black" points="107.5,-112.5 107.5,-131.5 179.5,-131.5 179.5,-112.5 107.5,-112.5"/>
<text text-anchor="middle" x="143.5" y="-119.5" font-family="Helvetica,sans-Serif" font-size="10.00">gcommon.idl</text>
</g>
<!-- Node2 -->
<g id="node2" class="node"><title>Node2</title>
<g id="a_node2"><a xlink:href="a00042.html" target="_top" xlink:title="graph.idl">
<polygon fill="white" stroke="black" points="-3.55271e-15,-56.5 -3.55271e-15,-75.5 53,-75.5 53,-56.5 -3.55271e-15,-56.5"/>
<text text-anchor="middle" x="26.5" y="-63.5" font-family="Helvetica,sans-Serif" font-size="10.00">graph.idl</text>
</a>
</g>
</g>
<!-- Node1&#45;&gt;Node2 -->
<g id="edge1" class="edge"><title>Node1&#45;&gt;Node2</title>
<path fill="none" stroke="midnightblue" d="M115.836,-108.232C93.9509,-98.1312 64.0032,-84.3091 44.9523,-75.5164"/>
<polygon fill="midnightblue" stroke="midnightblue" points="114.415,-111.431 124.961,-112.444 117.348,-105.075 114.415,-111.431"/>
</g>
<!-- Node3 -->
<g id="node3" class="node"><title>Node3</title>
<g id="a_node3"><a xlink:href="a00044.html" target="_top" xlink:title="problem.idl">
<polygon fill="white" stroke="black" points="71.5,-56.5 71.5,-75.5 135.5,-75.5 135.5,-56.5 71.5,-56.5"/>
<text text-anchor="middle" x="103.5" y="-63.5" font-family="Helvetica,sans-Serif" font-size="10.00">problem.idl</text>
</a>
</g>
</g>
<!-- Node1&#45;&gt;Node3 -->
<g id="edge2" class="edge"><title>Node1&#45;&gt;Node3</title>
<path fill="none" stroke="midnightblue" d="M130.8,-103.855C123.874,-94.5048 115.594,-83.3265 109.982,-75.7511"/>
<polygon fill="midnightblue" stroke="midnightblue" points="128.13,-106.131 136.895,-112.083 133.755,-101.964 128.13,-106.131"/>
</g>
<!-- Node4 -->
<g id="node4" class="node"><title>Node4</title>
<g id="a_node4"><a xlink:href="a00037.html" target="_top" xlink:title="_graph.idl">
<polygon fill="white" stroke="black" points="154,-56.5 154,-75.5 213,-75.5 213,-56.5 154,-56.5"/>
<text text-anchor="middle" x="183.5" y="-63.5" font-family="Helvetica,sans-Serif" font-size="10.00">_graph.idl</text>
</a>
</g>
</g>
<!-- Node1&#45;&gt;Node4 -->
<g id="edge3" class="edge"><title>Node1&#45;&gt;Node4</title>
<path fill="none" stroke="midnightblue" d="M156.2,-103.855C163.126,-94.5048 171.406,-83.3265 177.018,-75.7511"/>
<polygon fill="midnightblue" stroke="midnightblue" points="153.245,-101.964 150.105,-112.083 158.87,-106.131 153.245,-101.964"/>
</g>
<!-- Node6 -->
<g id="node6" class="node"><title>Node6</title>
<g id="a_node6"><a xlink:href="a00001.html" target="_top" xlink:title="steering_methods.idl">
<polygon fill="white" stroke="black" points="231,-56.5 231,-75.5 338,-75.5 338,-56.5 231,-56.5"/>
<text text-anchor="middle" x="284.5" y="-63.5" font-family="Helvetica,sans-Serif" font-size="10.00">steering_methods.idl</text>
</a>
</g>
</g>
<!-- Node1&#45;&gt;Node6 -->
<g id="edge5" class="edge"><title>Node1&#45;&gt;Node6</title>
<path fill="none" stroke="midnightblue" d="M175.429,-108.772C201.914,-98.6287 238.892,-84.4669 262.263,-75.5164"/>
<polygon fill="midnightblue" stroke="midnightblue" points="173.929,-105.599 165.842,-112.444 176.432,-112.136 173.929,-105.599"/>
</g>
<!-- Node5 -->
<g id="node5" class="node"><title>Node5</title>
<g id="a_node5"><a xlink:href="a00004.html" target="_top" xlink:title="_problem.idl">
<polygon fill="white" stroke="black" points="149,-0.5 149,-19.5 218,-19.5 218,-0.5 149,-0.5"/>
<text text-anchor="middle" x="183.5" y="-7.5" font-family="Helvetica,sans-Serif" font-size="10.00">_problem.idl</text>
</a>
</g>
</g>
<!-- Node4&#45;&gt;Node5 -->
<g id="edge4" class="edge"><title>Node4&#45;&gt;Node5</title>
<path fill="none" stroke="midnightblue" d="M183.5,-45.8045C183.5,-36.9102 183.5,-26.7798 183.5,-19.7511"/>
<polygon fill="midnightblue" stroke="midnightblue" points="180,-46.083 183.5,-56.083 187,-46.083 180,-46.083"/>
</g>
</g>
</svg>
