<?xml version="1.0" encoding="UTF-8" standalone="no"?>
<!DOCTYPE svg PUBLIC "-//W3C//DTD SVG 1.1//EN"
 "http://www.w3.org/Graphics/SVG/1.1/DTD/svg11.dtd">
<!-- Generated by graphviz version 2.38.0 (20140413.2041)
 -->
<!-- Title: hpp::manipulation::Server Pages: 1 -->
<svg width="133pt" height="174pt"
 viewBox="0.00 0.00 133.00 174.00" xmlns="http://www.w3.org/2000/svg" xmlns:xlink="http://www.w3.org/1999/xlink">
<g id="graph0" class="graph" transform="scale(1 1) rotate(0) translate(4 170)">
<title>hpp::manipulation::Server</title>
<polygon fill="white" stroke="none" points="-4,4 -4,-170 129,-170 129,4 -4,4"/>
<!-- Node1 -->
<g id="node1" class="node"><title>Node1</title>
<polygon fill="#bfbfbf" stroke="black" points="13,-0.5 13,-30.5 112,-30.5 112,-0.5 13,-0.5"/>
<text text-anchor="start" x="21" y="-18.5" font-family="Helvetica,sans-Serif" font-size="10.00">hpp::manipulation::</text>
<text text-anchor="middle" x="62.5" y="-7.5" font-family="Helvetica,sans-Serif" font-size="10.00">Server</text>
</g>
<!-- Node2 -->
<g id="node2" class="node"><title>Node2</title>
<g id="a_node2"><a doxygen="/local/devel/hpp/install/share/doc/hpp-corbaserver/doxygen-html/hpp-corbaserver.doxytag:../../hpp-corbaserver/doxygen-html/" xlink:href="../../hpp-corbaserver/doxygen-html/a00055.html" target="_top" xlink:title="hpp::corbaServer::Server\lPlugin">
<polygon fill="white" stroke="black" points="-7.10543e-15,-68.5 -7.10543e-15,-98.5 125,-98.5 125,-68.5 -7.10543e-15,-68.5"/>
<text text-anchor="start" x="8" y="-86.5" font-family="Helvetica,sans-Serif" font-size="10.00">hpp::corbaServer::Server</text>
<text text-anchor="middle" x="62.5" y="-75.5" font-family="Helvetica,sans-Serif" font-size="10.00">Plugin</text>
</a>
</g>
</g>
<!-- Node2&#45;&gt;Node1 -->
<g id="edge1" class="edge"><title>Node2&#45;&gt;Node1</title>
<path fill="none" stroke="midnightblue" d="M62.5,-58.0322C62.5,-48.8606 62.5,-38.7449 62.5,-30.7931"/>
<polygon fill="midnightblue" stroke="midnightblue" points="59.0001,-58.1789 62.5,-68.179 66.0001,-58.179 59.0001,-58.1789"/>
</g>
<!-- Node3 -->
<g id="node3" class="node"><title>Node3</title>
<g id="a_node3"><a doxygen="/local/devel/hpp/install/share/doc/hpp-corbaserver/doxygen-html/hpp-corbaserver.doxytag:../../hpp-corbaserver/doxygen-html/" xlink:href="../../hpp-corbaserver/doxygen-html/a00054.html" target="_top" xlink:title="hpp::corbaServer::Server">
<polygon fill="white" stroke="black" points="-7.10543e-15,-146.5 -7.10543e-15,-165.5 125,-165.5 125,-146.5 -7.10543e-15,-146.5"/>
<text text-anchor="middle" x="62.5" y="-153.5" font-family="Helvetica,sans-Serif" font-size="10.00">hpp::corbaServer::Server</text>
</a>
</g>
</g>
<!-- Node3&#45;&gt;Node2 -->
<g id="edge2" class="edge"><title>Node3&#45;&gt;Node2</title>
<path fill="none" stroke="#9a32cd" stroke-dasharray="5,2" d="M62.5,-136.236C62.5,-124.408 62.5,-109.383 62.5,-98.5762"/>
<polygon fill="#9a32cd" stroke="#9a32cd" points="59.0001,-136.355 62.5,-146.355 66.0001,-136.355 59.0001,-136.355"/>
<text text-anchor="middle" x="80.5" y="-120" font-family="Helvetica,sans-Serif" font-size="10.00"> parent_</text>
</g>
</g>
</svg>
