<?xml version="1.0" encoding="UTF-8" standalone="no"?>
<!DOCTYPE svg PUBLIC "-//W3C//DTD SVG 1.1//EN"
 "http://www.w3.org/Graphics/SVG/1.1/DTD/svg11.dtd">
<!-- Generated by graphviz version 2.38.0 (20140413.2041)
 -->
<!-- Title: problem.idl Pages: 1 -->
<svg width="256pt" height="95pt"
 viewBox="0.00 0.00 256.00 95.00" xmlns="http://www.w3.org/2000/svg" xmlns:xlink="http://www.w3.org/1999/xlink">
<g id="graph0" class="graph" transform="scale(1 1) rotate(0) translate(4 91)">
<title>problem.idl</title>
<polygon fill="white" stroke="none" points="-4,4 -4,-91 252,-91 252,4 -4,4"/>
<!-- Node1 -->
<g id="node1" class="node"><title>Node1</title>
<polygon fill="#bfbfbf" stroke="black" points="106,-67.5 106,-86.5 170,-86.5 170,-67.5 106,-67.5"/>
<text text-anchor="middle" x="138" y="-74.5" font-family="Helvetica,sans-Serif" font-size="10.00">problem.idl</text>
</g>
<!-- Node2 -->
<g id="node2" class="node"><title>Node2</title>
<g id="a_node2"><a xlink:href="a00041.html" target="_top" xlink:title="hpp/corbaserver/manipulation\l/gcommon.idl">
<polygon fill="white" stroke="black" points="0,-0.5 0,-30.5 144,-30.5 144,-0.5 0,-0.5"/>
<text text-anchor="start" x="8" y="-18.5" font-family="Helvetica,sans-Serif" font-size="10.00">hpp/corbaserver/manipulation</text>
<text text-anchor="middle" x="72" y="-7.5" font-family="Helvetica,sans-Serif" font-size="10.00">/gcommon.idl</text>
</a>
</g>
</g>
<!-- Node1&#45;&gt;Node2 -->
<g id="edge1" class="edge"><title>Node1&#45;&gt;Node2</title>
<path fill="none" stroke="midnightblue" d="M128.544,-67.4751C119.856,-59.6426 106.624,-47.7145 95.145,-37.3656"/>
<polygon fill="midnightblue" stroke="midnightblue" points="97.3258,-34.6193 87.5549,-30.523 92.6387,-39.8184 97.3258,-34.6193"/>
</g>
<!-- Node3 -->
<g id="node3" class="node"><title>Node3</title>
<g id="a_node3"><a doxygen="/local/devel/hpp/install/share/doc/hpp-corbaserver/doxygen-html/hpp-corbaserver.doxytag:../../hpp-corbaserver/doxygen-html/" xlink:href="../../hpp-corbaserver/doxygen-html/a00071.html" target="_top" xlink:title="hpp/common.idl">
<polygon fill="white" stroke="black" points="162,-6 162,-25 248,-25 248,-6 162,-6"/>
<text text-anchor="middle" x="205" y="-13" font-family="Helvetica,sans-Serif" font-size="10.00">hpp/common.idl</text>
</a>
</g>
</g>
<!-- Node1&#45;&gt;Node3 -->
<g id="edge2" class="edge"><title>Node1&#45;&gt;Node3</title>
<path fill="none" stroke="midnightblue" d="M147.599,-67.4751C158.048,-58.1966 174.968,-43.1706 187.736,-31.831"/>
<polygon fill="midnightblue" stroke="midnightblue" points="190.265,-34.2663 195.418,-25.0091 185.617,-29.0323 190.265,-34.2663"/>
</g>
</g>
</svg>
