<?xml version="1.0" encoding="UTF-8" standalone="no"?>
<!DOCTYPE svg PUBLIC "-//W3C//DTD SVG 1.1//EN"
 "http://www.w3.org/Graphics/SVG/1.1/DTD/svg11.dtd">
<!-- Generated by graphviz version 2.38.0 (20140413.2041)
 -->
<!-- Title: hpp::manipulation_idl::steeringMethod::EndEffectorTrajectory Pages: 1 -->
<svg width="155pt" height="106pt"
 viewBox="0.00 0.00 155.00 106.00" xmlns="http://www.w3.org/2000/svg" xmlns:xlink="http://www.w3.org/1999/xlink">
<g id="graph0" class="graph" transform="scale(1 1) rotate(0) translate(4 102)">
<title>hpp::manipulation_idl::steeringMethod::EndEffectorTrajectory</title>
<polygon fill="white" stroke="none" points="-4,4 -4,-102 151,-102 151,4 -4,4"/>
<!-- Node1 -->
<g id="node1" class="node"><title>Node1</title>
<polygon fill="#bfbfbf" stroke="black" points="0,-0.5 0,-41.5 147,-41.5 147,-0.5 0,-0.5"/>
<text text-anchor="start" x="8" y="-29.5" font-family="Helvetica,sans-Serif" font-size="10.00">hpp::manipulation_idl</text>
<text text-anchor="start" x="8" y="-18.5" font-family="Helvetica,sans-Serif" font-size="10.00">::steeringMethod::EndEffector</text>
<text text-anchor="middle" x="73.5" y="-7.5" font-family="Helvetica,sans-Serif" font-size="10.00">Trajectory</text>
</g>
<!-- Node2 -->
<g id="node2" class="node"><title>Node2</title>
<g id="a_node2"><a doxygen="/local/devel/hpp/install/share/doc/hpp-corbaserver/doxygen-html/hpp-corbaserver.doxytag:../../hpp-corbaserver/doxygen-html/" xlink:href="../../hpp-corbaserver/doxygen-html/a00057.html" target="_top" xlink:title="hpp::core_idl::SteeringMethod">
<polygon fill="white" stroke="black" points="0.5,-78.5 0.5,-97.5 146.5,-97.5 146.5,-78.5 0.5,-78.5"/>
<text text-anchor="middle" x="73.5" y="-85.5" font-family="Helvetica,sans-Serif" font-size="10.00">hpp::core_idl::SteeringMethod</text>
</a>
</g>
</g>
<!-- Node2&#45;&gt;Node1 -->
<g id="edge1" class="edge"><title>Node2&#45;&gt;Node1</title>
<path fill="none" stroke="midnightblue" d="M73.5,-68.037C73.5,-59.7084 73.5,-49.9358 73.5,-41.5421"/>
<polygon fill="midnightblue" stroke="midnightblue" points="70.0001,-68.2338 73.5,-78.2338 77.0001,-68.2338 70.0001,-68.2338"/>
</g>
</g>
</svg>
