<?xml version="1.0" encoding="UTF-8" standalone="no"?>
<!DOCTYPE svg PUBLIC "-//W3C//DTD SVG 1.1//EN"
 "http://www.w3.org/Graphics/SVG/1.1/DTD/svg11.dtd">
<!-- Generated by graphviz version 2.38.0 (20140413.2041)
 -->
<!-- Title: manipulation_idl Pages: 1 -->
<svg width="126pt" height="151pt"
 viewBox="0.00 0.00 126.00 151.00" xmlns="http://www.w3.org/2000/svg" xmlns:xlink="http://www.w3.org/1999/xlink">
<g id="graph0" class="graph" transform="scale(1 1) rotate(0) translate(4 147)">
<title>manipulation_idl</title>
<polygon fill="white" stroke="none" points="-4,4 -4,-147 122,-147 122,4 -4,4"/>
<g id="clust1" class="cluster"><title>clusterdir_87882f463c1f563717a22859a8fe91dd</title>
<g id="a_clust1"><a xlink:href="dir_87882f463c1f563717a22859a8fe91dd.html" target="_top" xlink:title="hpp">
<polygon fill="#ddddee" stroke="black" points="8,-64 8,-135 110,-135 110,-64 8,-64"/>
<text text-anchor="middle" x="59" y="-123" font-family="Helvetica,sans-Serif" font-size="10.00">hpp</text>
</a>
</g>
</g>
<!-- dir_e91937eea33d5e1a50970fb1fd288bd0 -->
<g id="node1" class="node"><title>dir_e91937eea33d5e1a50970fb1fd288bd0</title>
<g id="a_node1"><a xlink:href="dir_e91937eea33d5e1a50970fb1fd288bd0.html" target="_top" xlink:title="manipulation_idl">
<polygon fill="#eeeeff" stroke="black" points="102,-108 16,-108 16,-72 102,-72 102,-108"/>
<text text-anchor="middle" x="59" y="-87.5" font-family="Helvetica,sans-Serif" font-size="10.00">manipulation_idl</text>
</a>
</g>
</g>
<!-- dir_19301abaccadef14b656ac5321bb1bd7 -->
<g id="node2" class="node"><title>dir_19301abaccadef14b656ac5321bb1bd7</title>
<g id="a_node2"><a xlink:href="dir_19301abaccadef14b656ac5321bb1bd7.html" target="_top" xlink:title="corbaserver">
<polygon fill="white" stroke="red" points="93,-36 25,-36 25,-0 93,-0 93,-36"/>
<text text-anchor="middle" x="59" y="-15.5" font-family="Helvetica,sans-Serif" font-size="10.00">corbaserver</text>
</a>
</g>
</g>
<!-- dir_e91937eea33d5e1a50970fb1fd288bd0&#45;&gt;dir_19301abaccadef14b656ac5321bb1bd7 -->
<g id="edge1" class="edge"><title>dir_e91937eea33d5e1a50970fb1fd288bd0&#45;&gt;dir_19301abaccadef14b656ac5321bb1bd7</title>
<path fill="none" stroke="black" d="M59,-71.6966C59,-63.9827 59,-54.7125 59,-46.1124"/>
<polygon fill="black" stroke="black" points="62.5001,-46.1043 59,-36.1043 55.5001,-46.1044 62.5001,-46.1043"/>
<g id="a_edge1&#45;headlabel"><a xlink:href="dir_000002_000011.html" target="_top" xlink:title="2">
<text text-anchor="middle" x="65.3393" y="-47.199" font-family="Helvetica,sans-Serif" font-size="10.00">2</text>
</a>
</g>
</g>
</g>
</svg>
