<?xml version="1.0" encoding="UTF-8" standalone="no"?>
<!DOCTYPE svg PUBLIC "-//W3C//DTD SVG 1.1//EN"
 "http://www.w3.org/Graphics/SVG/1.1/DTD/svg11.dtd">
<!-- Generated by graphviz version 2.38.0 (20140413.2041)
 -->
<!-- Title: Graphical Class Hierarchy Pages: 1 -->
<svg width="239pt" height="148pt"
 viewBox="0.00 0.00 239.00 147.50" xmlns="http://www.w3.org/2000/svg" xmlns:xlink="http://www.w3.org/1999/xlink">
<g id="graph0" class="graph" transform="scale(1 1) rotate(0) translate(4 143.5)">
<title>Graphical Class Hierarchy</title>
<polygon fill="white" stroke="none" points="-4,4 -4,-143.5 235,-143.5 235,4 -4,4"/>
<!-- Node1 -->
<g id="node1" class="node"><title>Node1</title>
<polygon fill="white" stroke="#bfbfbf" points="0,-55 0,-74 43,-74 43,-55 0,-55"/>
<text text-anchor="middle" x="21.5" y="-62" font-family="Helvetica,sans-Serif" font-size="10.00">object</text>
</g>
<!-- Node2 -->
<g id="node2" class="node"><title>Node2</title>
<g id="a_node2"><a xlink:href="a00008.html" target="_top" xlink:title="Association of a numerical constraint with the associated passive joints. ">
<polygon fill="white" stroke="black" points="79,-98 79,-139 231,-139 231,-98 79,-98"/>
<text text-anchor="start" x="87" y="-127" font-family="Helvetica,sans-Serif" font-size="10.00">manipulation.constraint</text>
<text text-anchor="start" x="87" y="-116" font-family="Helvetica,sans-Serif" font-size="10.00">_graph._ConstraintAndPassive</text>
<text text-anchor="middle" x="155" y="-105" font-family="Helvetica,sans-Serif" font-size="10.00">Joints</text>
</a>
</g>
</g>
<!-- Node1&#45;&gt;Node2 -->
<g id="edge1" class="edge"><title>Node1&#45;&gt;Node2</title>
<path fill="none" stroke="midnightblue" d="M52.3195,-78.012C60.8965,-81.812 70.2881,-85.8907 79,-89.5 85.7066,-92.2785 92.7831,-95.1248 99.8025,-97.8967"/>
<polygon fill="midnightblue" stroke="midnightblue" points="53.6199,-74.7596 43.0616,-73.88 50.7668,-81.1519 53.6199,-74.7596"/>
</g>
<!-- Node3 -->
<g id="node3" class="node"><title>Node3</title>
<g id="a_node3"><a xlink:href="a00014.html" target="_top" xlink:title="This class wraps the Corba client to the server implemented by libhpp&#45;manipulation&#45;corba.so. ">
<polygon fill="white" stroke="black" points="95,-49.5 95,-79.5 215,-79.5 215,-49.5 95,-49.5"/>
<text text-anchor="start" x="103" y="-67.5" font-family="Helvetica,sans-Serif" font-size="10.00">manipulation.constraint</text>
<text text-anchor="middle" x="155" y="-56.5" font-family="Helvetica,sans-Serif" font-size="10.00">_graph.ConstraintGraph</text>
</a>
</g>
</g>
<!-- Node1&#45;&gt;Node3 -->
<g id="edge2" class="edge"><title>Node1&#45;&gt;Node3</title>
<path fill="none" stroke="midnightblue" d="M53.3192,-64.5C65.7792,-64.5 80.5974,-64.5 94.9814,-64.5"/>
<polygon fill="midnightblue" stroke="midnightblue" points="53.0469,-61.0001 43.0469,-64.5 53.0468,-68.0001 53.0469,-61.0001"/>
</g>
<!-- Node4 -->
<g id="node4" class="node"><title>Node4</title>
<g id="a_node4"><a xlink:href="a00032.html" target="_top" xlink:title="manipulation.constraint\l_graph_factory.Rules">
<polygon fill="white" stroke="black" points="96.5,-0.5 96.5,-30.5 213.5,-30.5 213.5,-0.5 96.5,-0.5"/>
<text text-anchor="start" x="104.5" y="-18.5" font-family="Helvetica,sans-Serif" font-size="10.00">manipulation.constraint</text>
<text text-anchor="middle" x="155" y="-7.5" font-family="Helvetica,sans-Serif" font-size="10.00">_graph_factory.Rules</text>
</a>
</g>
</g>
<!-- Node1&#45;&gt;Node4 -->
<g id="edge3" class="edge"><title>Node1&#45;&gt;Node4</title>
<path fill="none" stroke="midnightblue" d="M52.2535,-51.3353C60.8295,-47.6844 70.237,-43.8156 79,-40.5 87.9859,-37.1001 97.6653,-33.6902 106.987,-30.5302"/>
<polygon fill="midnightblue" stroke="midnightblue" points="50.8001,-48.1504 43.003,-55.3237 53.5716,-54.5784 50.8001,-48.1504"/>
</g>
</g>
</svg>
