<?xml version="1.0" encoding="UTF-8" standalone="no"?>
<!DOCTYPE svg PUBLIC "-//W3C//DTD SVG 1.1//EN"
 "http://www.w3.org/Graphics/SVG/1.1/DTD/svg11.dtd">
<!-- Generated by graphviz version 2.38.0 (20140413.2041)
 -->
<!-- Title: Graphical Class Hierarchy Pages: 1 -->
<svg width="315pt" height="186pt"
 viewBox="0.00 0.00 315.00 186.00" xmlns="http://www.w3.org/2000/svg" xmlns:xlink="http://www.w3.org/1999/xlink">
<g id="graph0" class="graph" transform="scale(1 1) rotate(0) translate(4 182)">
<title>Graphical Class Hierarchy</title>
<polygon fill="white" stroke="none" points="-4,4 -4,-182 311,-182 311,4 -4,4"/>
<!-- Node1 -->
<g id="node1" class="node"><title>Node1</title>
<g id="a_node1"><a xlink:href="a00022.html" target="_top" xlink:title="hpp::manipulation_idl\l::graph_idl::GraphComponent">
<polygon fill="white" stroke="black" points="0,-73.5 0,-103.5 144,-103.5 144,-73.5 0,-73.5"/>
<text text-anchor="start" x="8" y="-91.5" font-family="Helvetica,sans-Serif" font-size="10.00">hpp::manipulation_idl</text>
<text text-anchor="middle" x="72" y="-80.5" font-family="Helvetica,sans-Serif" font-size="10.00">::graph_idl::GraphComponent</text>
</a>
</g>
</g>
<!-- Node2 -->
<g id="node2" class="node"><title>Node2</title>
<g id="a_node2"><a xlink:href="a00017.html" target="_top" xlink:title="hpp::manipulation_idl\l::graph_idl::Edge">
<polygon fill="white" stroke="black" points="189.5,-147.5 189.5,-177.5 297.5,-177.5 297.5,-147.5 189.5,-147.5"/>
<text text-anchor="start" x="197.5" y="-165.5" font-family="Helvetica,sans-Serif" font-size="10.00">hpp::manipulation_idl</text>
<text text-anchor="middle" x="243.5" y="-154.5" font-family="Helvetica,sans-Serif" font-size="10.00">::graph_idl::Edge</text>
</a>
</g>
</g>
<!-- Node1&#45;&gt;Node2 -->
<g id="edge1" class="edge"><title>Node1&#45;&gt;Node2</title>
<path fill="none" stroke="midnightblue" d="M112.772,-107.9C132.789,-117.455 157.519,-128.945 180,-138.5 187.06,-141.501 194.634,-144.549 201.988,-147.422"/>
<polygon fill="midnightblue" stroke="midnightblue" points="114.175,-104.691 103.645,-103.521 111.147,-111.002 114.175,-104.691"/>
</g>
<!-- Node3 -->
<g id="node3" class="node"><title>Node3</title>
<g id="a_node3"><a xlink:href="a00020.html" target="_top" xlink:title="hpp::manipulation_idl\l::graph_idl::Graph">
<polygon fill="white" stroke="black" points="189.5,-98.5 189.5,-128.5 297.5,-128.5 297.5,-98.5 189.5,-98.5"/>
<text text-anchor="start" x="197.5" y="-116.5" font-family="Helvetica,sans-Serif" font-size="10.00">hpp::manipulation_idl</text>
<text text-anchor="middle" x="243.5" y="-105.5" font-family="Helvetica,sans-Serif" font-size="10.00">::graph_idl::Graph</text>
</a>
</g>
</g>
<!-- Node1&#45;&gt;Node3 -->
<g id="edge2" class="edge"><title>Node1&#45;&gt;Node3</title>
<path fill="none" stroke="midnightblue" d="M154.37,-100.501C166.299,-102.261 178.317,-104.033 189.477,-105.679"/>
<polygon fill="midnightblue" stroke="midnightblue" points="154.796,-97.0265 144.392,-99.0298 153.774,-103.952 154.796,-97.0265"/>
</g>
<!-- Node4 -->
<g id="node4" class="node"><title>Node4</title>
<g id="a_node4"><a xlink:href="a00034.html" target="_top" xlink:title="hpp::manipulation_idl\l::graph_idl::State">
<polygon fill="white" stroke="black" points="189.5,-49.5 189.5,-79.5 297.5,-79.5 297.5,-49.5 189.5,-49.5"/>
<text text-anchor="start" x="197.5" y="-67.5" font-family="Helvetica,sans-Serif" font-size="10.00">hpp::manipulation_idl</text>
<text text-anchor="middle" x="243.5" y="-56.5" font-family="Helvetica,sans-Serif" font-size="10.00">::graph_idl::State</text>
</a>
</g>
</g>
<!-- Node1&#45;&gt;Node4 -->
<g id="edge3" class="edge"><title>Node1&#45;&gt;Node4</title>
<path fill="none" stroke="midnightblue" d="M154.37,-76.9786C166.299,-75.2896 178.317,-73.5879 189.477,-72.0077"/>
<polygon fill="midnightblue" stroke="midnightblue" points="153.803,-73.5239 144.392,-78.3914 154.784,-80.4548 153.803,-73.5239"/>
</g>
<!-- Node5 -->
<g id="node5" class="node"><title>Node5</title>
<g id="a_node5"><a xlink:href="a00036.html" target="_top" xlink:title="hpp::manipulation_idl\l::graph_idl::StateSelector">
<polygon fill="white" stroke="black" points="180,-0.5 180,-30.5 307,-30.5 307,-0.5 180,-0.5"/>
<text text-anchor="start" x="188" y="-18.5" font-family="Helvetica,sans-Serif" font-size="10.00">hpp::manipulation_idl</text>
<text text-anchor="middle" x="243.5" y="-7.5" font-family="Helvetica,sans-Serif" font-size="10.00">::graph_idl::StateSelector</text>
</a>
</g>
</g>
<!-- Node1&#45;&gt;Node5 -->
<g id="edge4" class="edge"><title>Node1&#45;&gt;Node5</title>
<path fill="none" stroke="midnightblue" d="M114.925,-69.2121C134.598,-60.285 158.415,-49.6539 180,-40.5 187.747,-37.2148 196.079,-33.8 204.056,-30.5883"/>
<polygon fill="midnightblue" stroke="midnightblue" points="113.28,-66.1155 105.628,-73.4437 116.179,-72.4866 113.28,-66.1155"/>
</g>
</g>
</svg>
