<?xml version="1.0" encoding="UTF-8" standalone="no"?>
<!DOCTYPE svg PUBLIC "-//W3C//DTD SVG 1.1//EN"
 "http://www.w3.org/Graphics/SVG/1.1/DTD/svg11.dtd">
<!-- Generated by graphviz version 2.38.0 (20140413.2041)
 -->
<!-- Title: Graphical Class Hierarchy Pages: 1 -->
<svg width="214pt" height="78pt"
 viewBox="0.00 0.00 214.00 77.50" xmlns="http://www.w3.org/2000/svg" xmlns:xlink="http://www.w3.org/1999/xlink">
<g id="graph0" class="graph" transform="scale(1 1) rotate(0) translate(4 73.5)">
<title>Graphical Class Hierarchy</title>
<polygon fill="white" stroke="none" points="-4,4 -4,-73.5 210,-73.5 210,4 -4,4"/>
<!-- Node1 -->
<g id="node1" class="node"><title>Node1</title>
<polygon fill="white" stroke="#bfbfbf" points="0,-22.5 0,-41.5 45,-41.5 45,-22.5 0,-22.5"/>
<text text-anchor="middle" x="22.5" y="-29.5" font-family="Helvetica,sans-Serif" font-size="10.00">Parent</text>
</g>
<!-- Node2 -->
<g id="node2" class="node"><title>Node2</title>
<g id="a_node2"><a xlink:href="a00028.html" target="_top" xlink:title="Definition of a manipulation planning problem. ">
<polygon fill="white" stroke="black" points="86,-39 86,-69 201,-69 201,-39 86,-39"/>
<text text-anchor="start" x="94" y="-57" font-family="Helvetica,sans-Serif" font-size="10.00">manipulation.problem</text>
<text text-anchor="middle" x="143.5" y="-46" font-family="Helvetica,sans-Serif" font-size="10.00">_solver.ProblemSolver</text>
</a>
</g>
</g>
<!-- Node1&#45;&gt;Node2 -->
<g id="edge1" class="edge"><title>Node1&#45;&gt;Node2</title>
<path fill="none" stroke="midnightblue" d="M55.1595,-37.853C64.6344,-39.6047 75.3254,-41.5812 85.8943,-43.5351"/>
<polygon fill="midnightblue" stroke="midnightblue" points="55.5197,-34.3604 45.05,-35.984 54.2471,-41.2437 55.5197,-34.3604"/>
</g>
<!-- Node3 -->
<g id="node3" class="node"><title>Node3</title>
<g id="a_node3"><a xlink:href="a00029.html" target="_top" xlink:title="Load and handle a composite robot for manipulation planning. ">
<polygon fill="white" stroke="black" points="81,-0.5 81,-19.5 206,-19.5 206,-0.5 81,-0.5"/>
<text text-anchor="middle" x="143.5" y="-7.5" font-family="Helvetica,sans-Serif" font-size="10.00">manipulation.robot.Robot</text>
</a>
</g>
</g>
<!-- Node1&#45;&gt;Node3 -->
<g id="edge2" class="edge"><title>Node1&#45;&gt;Node3</title>
<path fill="none" stroke="midnightblue" d="M55.0387,-26.1693C66.0582,-24.1321 78.7339,-21.7887 90.9538,-19.5296"/>
<polygon fill="midnightblue" stroke="midnightblue" points="54.2471,-22.7563 45.05,-28.016 55.5197,-29.6396 54.2471,-22.7563"/>
</g>
</g>
</svg>
