<?xml version="1.0" encoding="UTF-8" standalone="no"?>
<!DOCTYPE svg PUBLIC "-//W3C//DTD SVG 1.1//EN"
 "http://www.w3.org/Graphics/SVG/1.1/DTD/svg11.dtd">
<!-- Generated by graphviz version 2.38.0 (20140413.2041)
 -->
<!-- Title: affine&#45;function.hh Pages: 1 -->
<svg width="733pt" height="408pt"
 viewBox="0.00 0.00 733.46 408.00" xmlns="http://www.w3.org/2000/svg" xmlns:xlink="http://www.w3.org/1999/xlink">
<g id="graph0" class="graph" transform="scale(1 1) rotate(0) translate(4 404)">
<title>affine&#45;function.hh</title>
<polygon fill="white" stroke="none" points="-4,4 -4,-404 729.459,-404 729.459,4 -4,4"/>
<!-- Node1 -->
<g id="node1" class="node"><title>Node1</title>
<polygon fill="#bfbfbf" stroke="black" points="263,-380.5 263,-399.5 355,-399.5 355,-380.5 263,-380.5"/>
<text text-anchor="middle" x="309" y="-387.5" font-family="Helvetica,sans-Serif" font-size="10.00">affine&#45;function.hh</text>
</g>
<!-- Node2 -->
<g id="node2" class="node"><title>Node2</title>
<g id="a_node2"><a xlink:href="a00001.html" target="_top" xlink:title="hpp/constraints/fwd.hh">
<polygon fill="white" stroke="black" points="118,-252 118,-271 234,-271 234,-252 118,-252"/>
<text text-anchor="middle" x="176" y="-259" font-family="Helvetica,sans-Serif" font-size="10.00">hpp/constraints/fwd.hh</text>
</a>
</g>
</g>
<!-- Node1&#45;&gt;Node2 -->
<g id="edge1" class="edge"><title>Node1&#45;&gt;Node2</title>
<path fill="none" stroke="midnightblue" d="M287.832,-380.5C270.579,-372.821 246.32,-360.242 229,-344 209.148,-325.383 193.277,-297.884 184.248,-280.078"/>
<polygon fill="midnightblue" stroke="midnightblue" points="187.385,-278.525 179.849,-271.078 181.096,-281.599 187.385,-278.525"/>
</g>
<!-- Node5 -->
<g id="node5" class="node"><title>Node5</title>
<polygon fill="white" stroke="#bfbfbf" points="384,-252 384,-271 510,-271 510,-252 384,-252"/>
<text text-anchor="middle" x="447" y="-259" font-family="Helvetica,sans-Serif" font-size="10.00">hpp/constraints/config.hh</text>
</g>
<!-- Node1&#45;&gt;Node5 -->
<g id="edge4" class="edge"><title>Node1&#45;&gt;Node5</title>
<path fill="none" stroke="midnightblue" d="M329.647,-380.464C346.815,-372.685 371.225,-359.982 389,-344 409.824,-325.277 427.426,-297.805 437.603,-280.034"/>
<polygon fill="midnightblue" stroke="midnightblue" points="440.795,-281.496 442.587,-271.054 434.674,-278.1 440.795,-281.496"/>
</g>
<!-- Node6 -->
<g id="node6" class="node"><title>Node6</title>
<g id="a_node6"><a xlink:href="a00107.html" target="_top" xlink:title="hpp/constraints/differentiable\l&#45;function.hh">
<polygon fill="white" stroke="black" points="238,-313.5 238,-343.5 380,-343.5 380,-313.5 238,-313.5"/>
<text text-anchor="start" x="246" y="-331.5" font-family="Helvetica,sans-Serif" font-size="10.00">hpp/constraints/differentiable</text>
<text text-anchor="middle" x="309" y="-320.5" font-family="Helvetica,sans-Serif" font-size="10.00">&#45;function.hh</text>
</a>
</g>
</g>
<!-- Node1&#45;&gt;Node6 -->
<g id="edge5" class="edge"><title>Node1&#45;&gt;Node6</title>
<path fill="none" stroke="midnightblue" d="M309,-380.475C309,-373.471 309,-363.192 309,-353.696"/>
<polygon fill="midnightblue" stroke="midnightblue" points="312.5,-353.523 309,-343.523 305.5,-353.523 312.5,-353.523"/>
</g>
<!-- Node3 -->
<g id="node3" class="node"><title>Node3</title>
<g id="a_node3"><a doxygen="/local/devel/hpp/install/share/doc/hpp-pinocchio/doxygen-html/hpp-pinocchio.doxytag:../../hpp-pinocchio/doxygen-html/" xlink:href="../../hpp-pinocchio/doxygen-html/a00098.html" target="_top" xlink:title="hpp/pinocchio/fwd.hh">
<polygon fill="white" stroke="black" points="599.5,-0.5 599.5,-19.5 708.5,-19.5 708.5,-0.5 599.5,-0.5"/>
<text text-anchor="middle" x="654" y="-7.5" font-family="Helvetica,sans-Serif" font-size="10.00">hpp/pinocchio/fwd.hh</text>
</a>
</g>
</g>
<!-- Node2&#45;&gt;Node3 -->
<g id="edge2" class="edge"><title>Node2&#45;&gt;Node3</title>
<path fill="none" stroke="midnightblue" d="M173.508,-251.962C164.946,-220.654 140.176,-111.104 195,-56 222.231,-28.6299 468.984,-16.9581 589.012,-12.8663"/>
<polygon fill="midnightblue" stroke="midnightblue" points="589.297,-16.3589 599.175,-12.5277 589.064,-9.36275 589.297,-16.3589"/>
</g>
<!-- Node4 -->
<g id="node4" class="node"><title>Node4</title>
<polygon fill="white" stroke="#bfbfbf" points="0,-185 0,-204 148,-204 148,-185 0,-185"/>
<text text-anchor="middle" x="74" y="-192" font-family="Helvetica,sans-Serif" font-size="10.00">hpp/constraints/deprecated.hh</text>
</g>
<!-- Node2&#45;&gt;Node4 -->
<g id="edge3" class="edge"><title>Node2&#45;&gt;Node4</title>
<path fill="none" stroke="midnightblue" d="M162.244,-251.734C145.268,-240.916 116.186,-222.383 96.0727,-209.566"/>
<polygon fill="midnightblue" stroke="midnightblue" points="97.8524,-206.55 87.5382,-204.127 94.0905,-212.453 97.8524,-206.55"/>
</g>
<!-- Node6&#45;&gt;Node2 -->
<g id="edge6" class="edge"><title>Node6&#45;&gt;Node2</title>
<path fill="none" stroke="midnightblue" d="M280.141,-313.396C257.114,-302.142 225.11,-286.501 202.677,-275.538"/>
<polygon fill="midnightblue" stroke="midnightblue" points="203.928,-272.253 193.407,-271.007 200.854,-278.543 203.928,-272.253"/>
</g>
<!-- Node6&#45;&gt;Node5 -->
<g id="edge7" class="edge"><title>Node6&#45;&gt;Node5</title>
<path fill="none" stroke="midnightblue" d="M338.944,-313.396C362.943,-302.092 396.342,-286.361 419.633,-275.39"/>
<polygon fill="midnightblue" stroke="midnightblue" points="421.384,-278.435 428.939,-271.007 418.401,-272.102 421.384,-278.435"/>
</g>
<!-- Node7 -->
<g id="node7" class="node"><title>Node7</title>
<g id="a_node7"><a doxygen="/local/devel/hpp/install/share/doc/hpp-pinocchio/doxygen-html/hpp-pinocchio.doxytag:../../hpp-pinocchio/doxygen-html/" xlink:href="../../hpp-pinocchio/doxygen-html/a00103.html" target="_top" xlink:title="hpp/pinocchio/liegroup\l&#45;element.hh">
<polygon fill="white" stroke="black" points="252.5,-246.5 252.5,-276.5 365.5,-276.5 365.5,-246.5 252.5,-246.5"/>
<text text-anchor="start" x="260.5" y="-264.5" font-family="Helvetica,sans-Serif" font-size="10.00">hpp/pinocchio/liegroup</text>
<text text-anchor="middle" x="309" y="-253.5" font-family="Helvetica,sans-Serif" font-size="10.00">&#45;element.hh</text>
</a>
</g>
</g>
<!-- Node6&#45;&gt;Node7 -->
<g id="edge8" class="edge"><title>Node6&#45;&gt;Node7</title>
<path fill="none" stroke="midnightblue" d="M309,-313.396C309,-305.645 309,-295.812 309,-286.86"/>
<polygon fill="midnightblue" stroke="midnightblue" points="312.5,-286.576 309,-276.577 305.5,-286.577 312.5,-286.576"/>
</g>
<!-- Node8 -->
<g id="node8" class="node"><title>Node8</title>
<g id="a_node8"><a doxygen="/local/devel/hpp/install/share/doc/hpp-pinocchio/doxygen-html/hpp-pinocchio.doxytag:../../hpp-pinocchio/doxygen-html/" xlink:href="../../hpp-pinocchio/doxygen-html/a00104.html" target="_top" xlink:title="hpp/pinocchio/liegroup\l&#45;space.hh">
<polygon fill="white" stroke="black" points="400.5,-179.5 400.5,-209.5 513.5,-209.5 513.5,-179.5 400.5,-179.5"/>
<text text-anchor="start" x="408.5" y="-197.5" font-family="Helvetica,sans-Serif" font-size="10.00">hpp/pinocchio/liegroup</text>
<text text-anchor="middle" x="457" y="-186.5" font-family="Helvetica,sans-Serif" font-size="10.00">&#45;space.hh</text>
</a>
</g>
</g>
<!-- Node7&#45;&gt;Node8 -->
<g id="edge9" class="edge"><title>Node7&#45;&gt;Node8</title>
<path fill="none" stroke="midnightblue" d="M341.114,-246.396C362.932,-236.814 391.994,-224.05 415.556,-213.702"/>
<polygon fill="midnightblue" stroke="midnightblue" points="417.2,-216.802 424.949,-209.577 414.386,-210.393 417.2,-216.802"/>
</g>
<!-- Node8&#45;&gt;Node3 -->
<g id="edge16" class="edge"><title>Node8&#45;&gt;Node3</title>
<path fill="none" stroke="midnightblue" d="M513.59,-188.57C576.112,-179.756 674.024,-155.22 720,-87 727.7,-75.5747 726.438,-68.1812 720,-56 712.576,-41.9533 698.579,-31.4667 685.379,-24.167"/>
<polygon fill="midnightblue" stroke="midnightblue" points="686.957,-21.0428 676.459,-19.6178 683.777,-27.2788 686.957,-21.0428"/>
</g>
<!-- Node9 -->
<g id="node9" class="node"><title>Node9</title>
<g id="a_node9"><a doxygen="/local/devel/hpp/install/share/doc/hpp-pinocchio/doxygen-html/hpp-pinocchio.doxytag:../../hpp-pinocchio/doxygen-html/" xlink:href="../../hpp-pinocchio/doxygen-html/a00105.html" target="_top" xlink:title="hpp/pinocchio/liegroup.hh">
<polygon fill="white" stroke="black" points="393.5,-123.5 393.5,-142.5 520.5,-142.5 520.5,-123.5 393.5,-123.5"/>
<text text-anchor="middle" x="457" y="-130.5" font-family="Helvetica,sans-Serif" font-size="10.00">hpp/pinocchio/liegroup.hh</text>
</a>
</g>
</g>
<!-- Node8&#45;&gt;Node9 -->
<g id="edge10" class="edge"><title>Node8&#45;&gt;Node9</title>
<path fill="none" stroke="midnightblue" d="M457,-179.399C457,-171.466 457,-161.458 457,-152.858"/>
<polygon fill="midnightblue" stroke="midnightblue" points="460.5,-152.658 457,-142.658 453.5,-152.658 460.5,-152.658"/>
</g>
<!-- Node10 -->
<g id="node10" class="node"><title>Node10</title>
<g id="a_node10"><a doxygen="/local/devel/hpp/install/share/doc/hpp-pinocchio/doxygen-html/hpp-pinocchio.doxytag:../../hpp-pinocchio/doxygen-html/" xlink:href="../../hpp-pinocchio/doxygen-html/a00114.html" target="_top" xlink:title="hpp/pinocchio/liegroup\l/vector&#45;space.hh">
<polygon fill="white" stroke="black" points="597.5,-56.5 597.5,-86.5 710.5,-86.5 710.5,-56.5 597.5,-56.5"/>
<text text-anchor="start" x="605.5" y="-74.5" font-family="Helvetica,sans-Serif" font-size="10.00">hpp/pinocchio/liegroup</text>
<text text-anchor="middle" x="654" y="-63.5" font-family="Helvetica,sans-Serif" font-size="10.00">/vector&#45;space.hh</text>
</a>
</g>
</g>
<!-- Node9&#45;&gt;Node10 -->
<g id="edge11" class="edge"><title>Node9&#45;&gt;Node10</title>
<path fill="none" stroke="midnightblue" d="M485.225,-123.475C514.524,-114.626 561.133,-100.549 597.954,-89.4277"/>
<polygon fill="midnightblue" stroke="midnightblue" points="599.01,-92.7649 607.571,-86.523 596.986,-86.0638 599.01,-92.7649"/>
</g>
<!-- Node11 -->
<g id="node11" class="node"><title>Node11</title>
<g id="a_node11"><a doxygen="/local/devel/hpp/install/share/doc/hpp-pinocchio/doxygen-html/hpp-pinocchio.doxytag:../../hpp-pinocchio/doxygen-html/" xlink:href="../../hpp-pinocchio/doxygen-html/a00089.html" target="_top" xlink:title="hpp/pinocchio/liegroup\l/cartesian&#45;product.hh">
<polygon fill="white" stroke="black" points="204.5,-56.5 204.5,-86.5 317.5,-86.5 317.5,-56.5 204.5,-56.5"/>
<text text-anchor="start" x="212.5" y="-74.5" font-family="Helvetica,sans-Serif" font-size="10.00">hpp/pinocchio/liegroup</text>
<text text-anchor="middle" x="261" y="-63.5" font-family="Helvetica,sans-Serif" font-size="10.00">/cartesian&#45;product.hh</text>
</a>
</g>
</g>
<!-- Node9&#45;&gt;Node11 -->
<g id="edge13" class="edge"><title>Node9&#45;&gt;Node11</title>
<path fill="none" stroke="midnightblue" d="M428.918,-123.475C399.892,-114.664 353.79,-100.668 317.23,-89.5698"/>
<polygon fill="midnightblue" stroke="midnightblue" points="317.779,-86.0788 307.193,-86.523 315.745,-92.7769 317.779,-86.0788"/>
</g>
<!-- Node12 -->
<g id="node12" class="node"><title>Node12</title>
<g id="a_node12"><a doxygen="/local/devel/hpp/install/share/doc/hpp-pinocchio/doxygen-html/hpp-pinocchio.doxytag:../../hpp-pinocchio/doxygen-html/" xlink:href="../../hpp-pinocchio/doxygen-html/a00111.html" target="_top" xlink:title="hpp/pinocchio/liegroup\l/special&#45;orthogonal.hh">
<polygon fill="white" stroke="black" points="335.5,-56.5 335.5,-86.5 448.5,-86.5 448.5,-56.5 335.5,-56.5"/>
<text text-anchor="start" x="343.5" y="-74.5" font-family="Helvetica,sans-Serif" font-size="10.00">hpp/pinocchio/liegroup</text>
<text text-anchor="middle" x="392" y="-63.5" font-family="Helvetica,sans-Serif" font-size="10.00">/special&#45;orthogonal.hh</text>
</a>
</g>
</g>
<!-- Node9&#45;&gt;Node12 -->
<g id="edge14" class="edge"><title>Node9&#45;&gt;Node12</title>
<path fill="none" stroke="midnightblue" d="M447.687,-123.475C439.131,-115.643 426.1,-103.714 414.794,-93.3656"/>
<polygon fill="midnightblue" stroke="midnightblue" points="417.059,-90.6934 407.319,-86.523 412.332,-95.8568 417.059,-90.6934"/>
</g>
<!-- Node13 -->
<g id="node13" class="node"><title>Node13</title>
<g id="a_node13"><a doxygen="/local/devel/hpp/install/share/doc/hpp-pinocchio/doxygen-html/hpp-pinocchio.doxytag:../../hpp-pinocchio/doxygen-html/" xlink:href="../../hpp-pinocchio/doxygen-html/a00110.html" target="_top" xlink:title="hpp/pinocchio/liegroup\l/special&#45;euclidean.hh">
<polygon fill="white" stroke="black" points="466.5,-56.5 466.5,-86.5 579.5,-86.5 579.5,-56.5 466.5,-56.5"/>
<text text-anchor="start" x="474.5" y="-74.5" font-family="Helvetica,sans-Serif" font-size="10.00">hpp/pinocchio/liegroup</text>
<text text-anchor="middle" x="523" y="-63.5" font-family="Helvetica,sans-Serif" font-size="10.00">/special&#45;euclidean.hh</text>
</a>
</g>
</g>
<!-- Node9&#45;&gt;Node13 -->
<g id="edge15" class="edge"><title>Node9&#45;&gt;Node13</title>
<path fill="none" stroke="midnightblue" d="M466.456,-123.475C475.144,-115.643 488.376,-103.714 499.855,-93.3656"/>
<polygon fill="midnightblue" stroke="midnightblue" points="502.361,-95.8184 507.445,-86.523 497.674,-90.6193 502.361,-95.8184"/>
</g>
<!-- Node10&#45;&gt;Node3 -->
<g id="edge12" class="edge"><title>Node10&#45;&gt;Node3</title>
<path fill="none" stroke="midnightblue" d="M654,-56.3993C654,-48.4664 654,-38.458 654,-29.8583"/>
<polygon fill="midnightblue" stroke="midnightblue" points="657.5,-29.6577 654,-19.6578 650.5,-29.6578 657.5,-29.6577"/>
</g>
</g>
</svg>
