<?xml version="1.0" encoding="UTF-8" standalone="no"?>
<!DOCTYPE svg PUBLIC "-//W3C//DTD SVG 1.1//EN"
 "http://www.w3.org/Graphics/SVG/1.1/DTD/svg11.dtd">
<!-- Generated by graphviz version 2.38.0 (20140413.2041)
 -->
<!-- Title: hierarchical&#45;iterative.hh Pages: 1 -->
<svg width="284pt" height="196pt"
 viewBox="0.00 0.00 283.50 196.00" xmlns="http://www.w3.org/2000/svg" xmlns:xlink="http://www.w3.org/1999/xlink">
<g id="graph0" class="graph" transform="scale(1 1) rotate(0) translate(4 192)">
<title>hierarchical&#45;iterative.hh</title>
<polygon fill="white" stroke="none" points="-4,4 -4,-192 279.5,-192 279.5,4 -4,4"/>
<!-- Node1 -->
<g id="node1" class="node"><title>Node1</title>
<polygon fill="#bfbfbf" stroke="black" points="123,-168.5 123,-187.5 240,-187.5 240,-168.5 123,-168.5"/>
<text text-anchor="middle" x="181.5" y="-175.5" font-family="Helvetica,sans-Serif" font-size="10.00">hierarchical&#45;iterative.hh</text>
</g>
<!-- Node2 -->
<g id="node2" class="node"><title>Node2</title>
<g id="a_node2"><a xlink:href="a00135.html" target="_top" xlink:title="hpp/constraints/svd.hh">
<polygon fill="white" stroke="black" points="123.5,-112.5 123.5,-131.5 239.5,-131.5 239.5,-112.5 123.5,-112.5"/>
<text text-anchor="middle" x="181.5" y="-119.5" font-family="Helvetica,sans-Serif" font-size="10.00">hpp/constraints/svd.hh</text>
</a>
</g>
</g>
<!-- Node1&#45;&gt;Node2 -->
<g id="edge1" class="edge"><title>Node1&#45;&gt;Node2</title>
<path fill="none" stroke="midnightblue" d="M181.5,-168.083C181.5,-161.006 181.5,-150.861 181.5,-141.986"/>
<polygon fill="midnightblue" stroke="midnightblue" points="185,-141.751 181.5,-131.751 178,-141.751 185,-141.751"/>
</g>
<!-- Node3 -->
<g id="node3" class="node"><title>Node3</title>
<g id="a_node3"><a xlink:href="a00001.html" target="_top" xlink:title="hpp/constraints/fwd.hh">
<polygon fill="white" stroke="black" points="69.5,-56.5 69.5,-75.5 185.5,-75.5 185.5,-56.5 69.5,-56.5"/>
<text text-anchor="middle" x="127.5" y="-63.5" font-family="Helvetica,sans-Serif" font-size="10.00">hpp/constraints/fwd.hh</text>
</a>
</g>
</g>
<!-- Node2&#45;&gt;Node3 -->
<g id="edge2" class="edge"><title>Node2&#45;&gt;Node3</title>
<path fill="none" stroke="midnightblue" d="M172.583,-112.083C164.72,-104.22 153.069,-92.5688 143.581,-83.0813"/>
<polygon fill="midnightblue" stroke="midnightblue" points="145.797,-80.3473 136.251,-75.7511 140.847,-85.2971 145.797,-80.3473"/>
</g>
<!-- Node6 -->
<g id="node6" class="node"><title>Node6</title>
<polygon fill="white" stroke="#bfbfbf" points="204,-56.5 204,-75.5 269,-75.5 269,-56.5 204,-56.5"/>
<text text-anchor="middle" x="236.5" y="-63.5" font-family="Helvetica,sans-Serif" font-size="10.00">Eigen/SVD</text>
</g>
<!-- Node2&#45;&gt;Node6 -->
<g id="edge5" class="edge"><title>Node2&#45;&gt;Node6</title>
<path fill="none" stroke="midnightblue" d="M190.582,-112.083C198.671,-104.141 210.695,-92.3354 220.41,-82.7973"/>
<polygon fill="midnightblue" stroke="midnightblue" points="222.903,-85.2545 227.587,-75.7511 217.999,-80.2595 222.903,-85.2545"/>
</g>
<!-- Node4 -->
<g id="node4" class="node"><title>Node4</title>
<g id="a_node4"><a doxygen="/local/devel/hpp/install/share/doc/hpp-pinocchio/doxygen-html/hpp-pinocchio.doxytag:../../hpp-pinocchio/doxygen-html/" xlink:href="../../hpp-pinocchio/doxygen-html/a00098.html" target="_top" xlink:title="hpp/pinocchio/fwd.hh">
<polygon fill="white" stroke="black" points="0,-0.5 0,-19.5 109,-19.5 109,-0.5 0,-0.5"/>
<text text-anchor="middle" x="54.5" y="-7.5" font-family="Helvetica,sans-Serif" font-size="10.00">hpp/pinocchio/fwd.hh</text>
</a>
</g>
</g>
<!-- Node3&#45;&gt;Node4 -->
<g id="edge3" class="edge"><title>Node3&#45;&gt;Node4</title>
<path fill="none" stroke="midnightblue" d="M115.771,-56.324C104.663,-48.1066 87.7578,-35.6017 74.5167,-25.8069"/>
<polygon fill="midnightblue" stroke="midnightblue" points="76.5631,-22.9671 66.4421,-19.8339 72.4001,-28.5948 76.5631,-22.9671"/>
</g>
<!-- Node5 -->
<g id="node5" class="node"><title>Node5</title>
<polygon fill="white" stroke="#bfbfbf" points="127.5,-0.5 127.5,-19.5 275.5,-19.5 275.5,-0.5 127.5,-0.5"/>
<text text-anchor="middle" x="201.5" y="-7.5" font-family="Helvetica,sans-Serif" font-size="10.00">hpp/constraints/deprecated.hh</text>
</g>
<!-- Node3&#45;&gt;Node5 -->
<g id="edge4" class="edge"><title>Node3&#45;&gt;Node5</title>
<path fill="none" stroke="midnightblue" d="M139.389,-56.324C150.65,-48.1066 167.787,-35.6017 181.209,-25.8069"/>
<polygon fill="midnightblue" stroke="midnightblue" points="183.38,-28.5559 189.394,-19.8339 179.253,-22.9014 183.38,-28.5559"/>
</g>
</g>
</svg>
