<?xml version="1.0" encoding="UTF-8" standalone="no"?>
<!DOCTYPE svg PUBLIC "-//W3C//DTD SVG 1.1//EN"
 "http://www.w3.org/Graphics/SVG/1.1/DTD/svg11.dtd">
<!-- Generated by graphviz version 2.38.0 (20140413.2041)
 -->
<!-- Title: implicit&#45;function.hh Pages: 1 -->
<svg width="1308pt" height="408pt"
 viewBox="0.00 0.00 1307.50 408.00" xmlns="http://www.w3.org/2000/svg" xmlns:xlink="http://www.w3.org/1999/xlink">
<g id="graph0" class="graph" transform="scale(1 1) rotate(0) translate(4 404)">
<title>implicit&#45;function.hh</title>
<polygon fill="white" stroke="none" points="-4,4 -4,-404 1303.5,-404 1303.5,4 -4,4"/>
<!-- Node1 -->
<g id="node1" class="node"><title>Node1</title>
<polygon fill="#bfbfbf" stroke="black" points="697.5,-380.5 697.5,-399.5 795.5,-399.5 795.5,-380.5 697.5,-380.5"/>
<text text-anchor="middle" x="746.5" y="-387.5" font-family="Helvetica,sans-Serif" font-size="10.00">implicit&#45;function.hh</text>
</g>
<!-- Node2 -->
<g id="node2" class="node"><title>Node2</title>
<g id="a_node2"><a xlink:href="a00107.html" target="_top" xlink:title="hpp/constraints/differentiable\l&#45;function.hh">
<polygon fill="white" stroke="black" points="468.5,-313.5 468.5,-343.5 610.5,-343.5 610.5,-313.5 468.5,-313.5"/>
<text text-anchor="start" x="476.5" y="-331.5" font-family="Helvetica,sans-Serif" font-size="10.00">hpp/constraints/differentiable</text>
<text text-anchor="middle" x="539.5" y="-320.5" font-family="Helvetica,sans-Serif" font-size="10.00">&#45;function.hh</text>
</a>
</g>
</g>
<!-- Node1&#45;&gt;Node2 -->
<g id="edge1" class="edge"><title>Node1&#45;&gt;Node2</title>
<path fill="none" stroke="midnightblue" d="M716.842,-380.475C685.925,-371.588 636.664,-357.429 597.898,-346.286"/>
<polygon fill="midnightblue" stroke="midnightblue" points="598.864,-342.922 588.286,-343.523 596.93,-349.649 598.864,-342.922"/>
</g>
<!-- Node14 -->
<g id="node14" class="node"><title>Node14</title>
<g id="a_node14"><a xlink:href="a00127.html" target="_top" xlink:title="hpp/constraints/matrix\l&#45;view.hh">
<polygon fill="white" stroke="black" points="829,-313.5 829,-343.5 942,-343.5 942,-313.5 829,-313.5"/>
<text text-anchor="start" x="837" y="-331.5" font-family="Helvetica,sans-Serif" font-size="10.00">hpp/constraints/matrix</text>
<text text-anchor="middle" x="885.5" y="-320.5" font-family="Helvetica,sans-Serif" font-size="10.00">&#45;view.hh</text>
</a>
</g>
</g>
<!-- Node1&#45;&gt;Node14 -->
<g id="edge15" class="edge"><title>Node1&#45;&gt;Node14</title>
<path fill="none" stroke="midnightblue" d="M766.415,-380.475C786.385,-371.927 817.75,-358.501 843.278,-347.573"/>
<polygon fill="midnightblue" stroke="midnightblue" points="844.925,-350.676 852.74,-343.523 842.17,-344.241 844.925,-350.676"/>
</g>
<!-- Node3 -->
<g id="node3" class="node"><title>Node3</title>
<g id="a_node3"><a xlink:href="a00001.html" target="_top" xlink:title="hpp/constraints/fwd.hh">
<polygon fill="white" stroke="black" points="551.5,-252 551.5,-271 667.5,-271 667.5,-252 551.5,-252"/>
<text text-anchor="middle" x="609.5" y="-259" font-family="Helvetica,sans-Serif" font-size="10.00">hpp/constraints/fwd.hh</text>
</a>
</g>
</g>
<!-- Node2&#45;&gt;Node3 -->
<g id="edge2" class="edge"><title>Node2&#45;&gt;Node3</title>
<path fill="none" stroke="midnightblue" d="M554.689,-313.396C565.82,-303.06 580.936,-289.024 592.475,-278.309"/>
<polygon fill="midnightblue" stroke="midnightblue" points="595.19,-280.564 600.137,-271.195 590.427,-275.434 595.19,-280.564"/>
</g>
<!-- Node6 -->
<g id="node6" class="node"><title>Node6</title>
<polygon fill="white" stroke="#bfbfbf" points="407.5,-252 407.5,-271 533.5,-271 533.5,-252 407.5,-252"/>
<text text-anchor="middle" x="470.5" y="-259" font-family="Helvetica,sans-Serif" font-size="10.00">hpp/constraints/config.hh</text>
</g>
<!-- Node2&#45;&gt;Node6 -->
<g id="edge5" class="edge"><title>Node2&#45;&gt;Node6</title>
<path fill="none" stroke="midnightblue" d="M524.528,-313.396C513.556,-303.06 498.656,-289.024 487.282,-278.309"/>
<polygon fill="midnightblue" stroke="midnightblue" points="489.408,-275.504 479.73,-271.195 484.609,-280.599 489.408,-275.504"/>
</g>
<!-- Node7 -->
<g id="node7" class="node"><title>Node7</title>
<g id="a_node7"><a doxygen="/local/devel/hpp/install/share/doc/hpp-pinocchio/doxygen-html/hpp-pinocchio.doxytag:../../hpp-pinocchio/doxygen-html/" xlink:href="../../hpp-pinocchio/doxygen-html/a00103.html" target="_top" xlink:title="hpp/pinocchio/liegroup\l&#45;element.hh">
<polygon fill="white" stroke="black" points="276,-246.5 276,-276.5 389,-276.5 389,-246.5 276,-246.5"/>
<text text-anchor="start" x="284" y="-264.5" font-family="Helvetica,sans-Serif" font-size="10.00">hpp/pinocchio/liegroup</text>
<text text-anchor="middle" x="332.5" y="-253.5" font-family="Helvetica,sans-Serif" font-size="10.00">&#45;element.hh</text>
</a>
</g>
</g>
<!-- Node2&#45;&gt;Node7 -->
<g id="edge6" class="edge"><title>Node2&#45;&gt;Node7</title>
<path fill="none" stroke="midnightblue" d="M494.839,-313.476C463.252,-303.557 420.717,-290.201 387.11,-279.648"/>
<polygon fill="midnightblue" stroke="midnightblue" points="388.027,-276.268 377.438,-276.611 385.93,-282.946 388.027,-276.268"/>
</g>
<!-- Node4 -->
<g id="node4" class="node"><title>Node4</title>
<g id="a_node4"><a doxygen="/local/devel/hpp/install/share/doc/hpp-pinocchio/doxygen-html/hpp-pinocchio.doxytag:../../hpp-pinocchio/doxygen-html/" xlink:href="../../hpp-pinocchio/doxygen-html/a00098.html" target="_top" xlink:title="hpp/pinocchio/fwd.hh">
<polygon fill="white" stroke="black" points="499,-0.5 499,-19.5 608,-19.5 608,-0.5 499,-0.5"/>
<text text-anchor="middle" x="553.5" y="-7.5" font-family="Helvetica,sans-Serif" font-size="10.00">hpp/pinocchio/fwd.hh</text>
</a>
</g>
</g>
<!-- Node3&#45;&gt;Node4 -->
<g id="edge3" class="edge"><title>Node3&#45;&gt;Node4</title>
<path fill="none" stroke="midnightblue" d="M605.894,-251.692C601.919,-241.717 595.555,-224.909 591.5,-210 573.759,-144.767 561.238,-65.3153 556.099,-29.7646"/>
<polygon fill="midnightblue" stroke="midnightblue" points="559.56,-29.2485 554.692,-19.8385 552.63,-30.2306 559.56,-29.2485"/>
</g>
<!-- Node5 -->
<g id="node5" class="node"><title>Node5</title>
<polygon fill="white" stroke="#bfbfbf" points="600.5,-185 600.5,-204 748.5,-204 748.5,-185 600.5,-185"/>
<text text-anchor="middle" x="674.5" y="-192" font-family="Helvetica,sans-Serif" font-size="10.00">hpp/constraints/deprecated.hh</text>
</g>
<!-- Node3&#45;&gt;Node5 -->
<g id="edge4" class="edge"><title>Node3&#45;&gt;Node5</title>
<path fill="none" stroke="midnightblue" d="M618.266,-251.734C628.597,-241.403 645.963,-224.037 658.668,-211.332"/>
<polygon fill="midnightblue" stroke="midnightblue" points="661.276,-213.673 665.873,-204.127 656.327,-208.724 661.276,-213.673"/>
</g>
<!-- Node8 -->
<g id="node8" class="node"><title>Node8</title>
<g id="a_node8"><a doxygen="/local/devel/hpp/install/share/doc/hpp-pinocchio/doxygen-html/hpp-pinocchio.doxytag:../../hpp-pinocchio/doxygen-html/" xlink:href="../../hpp-pinocchio/doxygen-html/a00104.html" target="_top" xlink:title="hpp/pinocchio/liegroup\l&#45;space.hh">
<polygon fill="white" stroke="black" points="276,-179.5 276,-209.5 389,-209.5 389,-179.5 276,-179.5"/>
<text text-anchor="start" x="284" y="-197.5" font-family="Helvetica,sans-Serif" font-size="10.00">hpp/pinocchio/liegroup</text>
<text text-anchor="middle" x="332.5" y="-186.5" font-family="Helvetica,sans-Serif" font-size="10.00">&#45;space.hh</text>
</a>
</g>
</g>
<!-- Node7&#45;&gt;Node8 -->
<g id="edge7" class="edge"><title>Node7&#45;&gt;Node8</title>
<path fill="none" stroke="midnightblue" d="M332.5,-246.396C332.5,-238.645 332.5,-228.812 332.5,-219.86"/>
<polygon fill="midnightblue" stroke="midnightblue" points="336,-219.576 332.5,-209.577 329,-219.577 336,-219.576"/>
</g>
<!-- Node8&#45;&gt;Node4 -->
<g id="edge14" class="edge"><title>Node8&#45;&gt;Node4</title>
<path fill="none" stroke="midnightblue" d="M369.042,-179.482C408.993,-162.628 472.859,-131.011 514.5,-87 530.219,-70.3866 541.152,-46.2087 547.362,-29.6094"/>
<polygon fill="midnightblue" stroke="midnightblue" points="550.742,-30.5462 550.763,-19.9513 544.14,-28.2211 550.742,-30.5462"/>
</g>
<!-- Node9 -->
<g id="node9" class="node"><title>Node9</title>
<g id="a_node9"><a doxygen="/local/devel/hpp/install/share/doc/hpp-pinocchio/doxygen-html/hpp-pinocchio.doxytag:../../hpp-pinocchio/doxygen-html/" xlink:href="../../hpp-pinocchio/doxygen-html/a00105.html" target="_top" xlink:title="hpp/pinocchio/liegroup.hh">
<polygon fill="white" stroke="black" points="255,-123.5 255,-142.5 382,-142.5 382,-123.5 255,-123.5"/>
<text text-anchor="middle" x="318.5" y="-130.5" font-family="Helvetica,sans-Serif" font-size="10.00">hpp/pinocchio/liegroup.hh</text>
</a>
</g>
</g>
<!-- Node8&#45;&gt;Node9 -->
<g id="edge8" class="edge"><title>Node8&#45;&gt;Node9</title>
<path fill="none" stroke="midnightblue" d="M329.182,-179.399C327.295,-171.377 324.908,-161.233 322.869,-152.569"/>
<polygon fill="midnightblue" stroke="midnightblue" points="326.235,-151.59 320.537,-142.658 319.421,-153.194 326.235,-151.59"/>
</g>
<!-- Node10 -->
<g id="node10" class="node"><title>Node10</title>
<g id="a_node10"><a doxygen="/local/devel/hpp/install/share/doc/hpp-pinocchio/doxygen-html/hpp-pinocchio.doxytag:../../hpp-pinocchio/doxygen-html/" xlink:href="../../hpp-pinocchio/doxygen-html/a00114.html" target="_top" xlink:title="hpp/pinocchio/liegroup\l/vector&#45;space.hh">
<polygon fill="white" stroke="black" points="393,-56.5 393,-86.5 506,-86.5 506,-56.5 393,-56.5"/>
<text text-anchor="start" x="401" y="-74.5" font-family="Helvetica,sans-Serif" font-size="10.00">hpp/pinocchio/liegroup</text>
<text text-anchor="middle" x="449.5" y="-63.5" font-family="Helvetica,sans-Serif" font-size="10.00">/vector&#45;space.hh</text>
</a>
</g>
</g>
<!-- Node9&#45;&gt;Node10 -->
<g id="edge9" class="edge"><title>Node9&#45;&gt;Node10</title>
<path fill="none" stroke="midnightblue" d="M337.269,-123.475C356.006,-114.965 385.389,-101.619 409.39,-90.718"/>
<polygon fill="midnightblue" stroke="midnightblue" points="410.968,-93.8451 418.626,-86.523 408.074,-87.4717 410.968,-93.8451"/>
</g>
<!-- Node11 -->
<g id="node11" class="node"><title>Node11</title>
<g id="a_node11"><a doxygen="/local/devel/hpp/install/share/doc/hpp-pinocchio/doxygen-html/hpp-pinocchio.doxytag:../../hpp-pinocchio/doxygen-html/" xlink:href="../../hpp-pinocchio/doxygen-html/a00089.html" target="_top" xlink:title="hpp/pinocchio/liegroup\l/cartesian&#45;product.hh">
<polygon fill="white" stroke="black" points="0,-56.5 0,-86.5 113,-86.5 113,-56.5 0,-56.5"/>
<text text-anchor="start" x="8" y="-74.5" font-family="Helvetica,sans-Serif" font-size="10.00">hpp/pinocchio/liegroup</text>
<text text-anchor="middle" x="56.5" y="-63.5" font-family="Helvetica,sans-Serif" font-size="10.00">/cartesian&#45;product.hh</text>
</a>
</g>
</g>
<!-- Node9&#45;&gt;Node11 -->
<g id="edge11" class="edge"><title>Node9&#45;&gt;Node11</title>
<path fill="none" stroke="midnightblue" d="M280.962,-123.475C239.84,-114.136 173.08,-98.9753 123.037,-87.6106"/>
<polygon fill="midnightblue" stroke="midnightblue" points="123.791,-84.1927 113.264,-85.3911 122.241,-91.0189 123.791,-84.1927"/>
</g>
<!-- Node12 -->
<g id="node12" class="node"><title>Node12</title>
<g id="a_node12"><a doxygen="/local/devel/hpp/install/share/doc/hpp-pinocchio/doxygen-html/hpp-pinocchio.doxytag:../../hpp-pinocchio/doxygen-html/" xlink:href="../../hpp-pinocchio/doxygen-html/a00111.html" target="_top" xlink:title="hpp/pinocchio/liegroup\l/special&#45;orthogonal.hh">
<polygon fill="white" stroke="black" points="131,-56.5 131,-86.5 244,-86.5 244,-56.5 131,-56.5"/>
<text text-anchor="start" x="139" y="-74.5" font-family="Helvetica,sans-Serif" font-size="10.00">hpp/pinocchio/liegroup</text>
<text text-anchor="middle" x="187.5" y="-63.5" font-family="Helvetica,sans-Serif" font-size="10.00">/special&#45;orthogonal.hh</text>
</a>
</g>
</g>
<!-- Node9&#45;&gt;Node12 -->
<g id="edge12" class="edge"><title>Node9&#45;&gt;Node12</title>
<path fill="none" stroke="midnightblue" d="M299.731,-123.475C280.994,-114.965 251.611,-101.619 227.61,-90.718"/>
<polygon fill="midnightblue" stroke="midnightblue" points="228.926,-87.4717 218.374,-86.523 226.032,-93.8451 228.926,-87.4717"/>
</g>
<!-- Node13 -->
<g id="node13" class="node"><title>Node13</title>
<g id="a_node13"><a doxygen="/local/devel/hpp/install/share/doc/hpp-pinocchio/doxygen-html/hpp-pinocchio.doxytag:../../hpp-pinocchio/doxygen-html/" xlink:href="../../hpp-pinocchio/doxygen-html/a00110.html" target="_top" xlink:title="hpp/pinocchio/liegroup\l/special&#45;euclidean.hh">
<polygon fill="white" stroke="black" points="262,-56.5 262,-86.5 375,-86.5 375,-56.5 262,-56.5"/>
<text text-anchor="start" x="270" y="-74.5" font-family="Helvetica,sans-Serif" font-size="10.00">hpp/pinocchio/liegroup</text>
<text text-anchor="middle" x="318.5" y="-63.5" font-family="Helvetica,sans-Serif" font-size="10.00">/special&#45;euclidean.hh</text>
</a>
</g>
</g>
<!-- Node9&#45;&gt;Node13 -->
<g id="edge13" class="edge"><title>Node9&#45;&gt;Node13</title>
<path fill="none" stroke="midnightblue" d="M318.5,-123.475C318.5,-116.471 318.5,-106.192 318.5,-96.6956"/>
<polygon fill="midnightblue" stroke="midnightblue" points="322,-96.5229 318.5,-86.523 315,-96.523 322,-96.5229"/>
</g>
<!-- Node10&#45;&gt;Node4 -->
<g id="edge10" class="edge"><title>Node10&#45;&gt;Node4</title>
<path fill="none" stroke="midnightblue" d="M474.147,-56.3993C490.817,-46.8619 512.731,-34.3248 529.305,-24.8422"/>
<polygon fill="midnightblue" stroke="midnightblue" points="531.425,-27.6617 538.367,-19.6578 527.949,-21.5858 531.425,-27.6617"/>
</g>
<!-- Node14&#45;&gt;Node3 -->
<g id="edge22" class="edge"><title>Node14&#45;&gt;Node3</title>
<path fill="none" stroke="midnightblue" d="M828.981,-314.189C777.743,-302.122 703.156,-284.557 655.483,-273.329"/>
<polygon fill="midnightblue" stroke="midnightblue" points="656.273,-269.92 645.737,-271.034 654.669,-276.733 656.273,-269.92"/>
</g>
<!-- Node15 -->
<g id="node15" class="node"><title>Node15</title>
<polygon fill="white" stroke="#bfbfbf" points="1100,-252 1100,-271 1165,-271 1165,-252 1100,-252"/>
<text text-anchor="middle" x="1132.5" y="-259" font-family="Helvetica,sans-Serif" font-size="10.00">Eigen/Core</text>
</g>
<!-- Node14&#45;&gt;Node15 -->
<g id="edge16" class="edge"><title>Node14&#45;&gt;Node15</title>
<path fill="none" stroke="midnightblue" d="M942.43,-314.94C983.777,-305.463 1040.93,-291.629 1090.5,-277 1093.44,-276.133 1096.48,-275.186 1099.51,-274.204"/>
<polygon fill="midnightblue" stroke="midnightblue" points="1100.7,-277.497 1109.08,-271.009 1098.48,-270.858 1100.7,-277.497"/>
</g>
<!-- Node16 -->
<g id="node16" class="node"><title>Node16</title>
<polygon fill="white" stroke="#bfbfbf" points="1183.5,-252 1183.5,-271 1227.5,-271 1227.5,-252 1183.5,-252"/>
<text text-anchor="middle" x="1205.5" y="-259" font-family="Helvetica,sans-Serif" font-size="10.00">vector</text>
</g>
<!-- Node14&#45;&gt;Node16 -->
<g id="edge17" class="edge"><title>Node14&#45;&gt;Node16</title>
<path fill="none" stroke="midnightblue" d="M942.221,-322.073C1001.27,-315.392 1095.92,-301.76 1174.5,-277 1176.37,-276.411 1178.27,-275.732 1180.17,-274.998"/>
<polygon fill="midnightblue" stroke="midnightblue" points="1181.62,-278.184 1189.41,-271.008 1178.85,-271.757 1181.62,-278.184"/>
</g>
<!-- Node17 -->
<g id="node17" class="node"><title>Node17</title>
<polygon fill="white" stroke="#bfbfbf" points="1245.5,-252 1245.5,-271 1299.5,-271 1299.5,-252 1245.5,-252"/>
<text text-anchor="middle" x="1272.5" y="-259" font-family="Helvetica,sans-Serif" font-size="10.00">iostream</text>
</g>
<!-- Node14&#45;&gt;Node17 -->
<g id="edge18" class="edge"><title>Node14&#45;&gt;Node17</title>
<path fill="none" stroke="midnightblue" d="M942.269,-323.544C1012.38,-317.7 1134.84,-304.359 1236.5,-277 1239,-276.326 1241.57,-275.527 1244.12,-274.655"/>
<polygon fill="midnightblue" stroke="midnightblue" points="1245.6,-277.838 1253.73,-271.047 1243.14,-271.284 1245.6,-277.838"/>
</g>
<!-- Node18 -->
<g id="node18" class="node"><title>Node18</title>
<polygon fill="white" stroke="#bfbfbf" points="686,-252 686,-271 777,-271 777,-252 686,-252"/>
<text text-anchor="middle" x="731.5" y="-259" font-family="Helvetica,sans-Serif" font-size="10.00">hpp/util/indent.hh</text>
</g>
<!-- Node14&#45;&gt;Node18 -->
<g id="edge19" class="edge"><title>Node14&#45;&gt;Node18</title>
<path fill="none" stroke="midnightblue" d="M852.084,-313.396C824.944,-301.941 787.031,-285.938 761.002,-274.952"/>
<polygon fill="midnightblue" stroke="midnightblue" points="762.229,-271.671 751.655,-271.007 759.507,-278.12 762.229,-271.671"/>
</g>
<!-- Node19 -->
<g id="node19" class="node"><title>Node19</title>
<g id="a_node19"><a doxygen="/local/devel/hpp/install/share/doc/hpp-pinocchio/doxygen-html/hpp-pinocchio.doxytag:../../hpp-pinocchio/doxygen-html/" xlink:href="../../hpp-pinocchio/doxygen-html/a00113.html" target="_top" xlink:title="hpp/pinocchio/util.hh">
<polygon fill="white" stroke="black" points="766.5,-185 766.5,-204 872.5,-204 872.5,-185 766.5,-185"/>
<text text-anchor="middle" x="819.5" y="-192" font-family="Helvetica,sans-Serif" font-size="10.00">hpp/pinocchio/util.hh</text>
</a>
</g>
</g>
<!-- Node14&#45;&gt;Node19 -->
<g id="edge20" class="edge"><title>Node14&#45;&gt;Node19</title>
<path fill="none" stroke="midnightblue" d="M860.046,-313.397C847.013,-304.719 832.287,-292.32 824.5,-277 814.488,-257.304 814.814,-231.381 816.601,-214.115"/>
<polygon fill="midnightblue" stroke="midnightblue" points="820.075,-214.538 817.892,-204.17 813.133,-213.636 820.075,-214.538"/>
</g>
<!-- Node20 -->
<g id="node20" class="node"><title>Node20</title>
<g id="a_node20"><a xlink:href="a00126.html" target="_top" xlink:title="hpp/constraints/impl\l/matrix&#45;view.hh">
<polygon fill="white" stroke="black" points="833.5,-246.5 833.5,-276.5 937.5,-276.5 937.5,-246.5 833.5,-246.5"/>
<text text-anchor="start" x="841.5" y="-264.5" font-family="Helvetica,sans-Serif" font-size="10.00">hpp/constraints/impl</text>
<text text-anchor="middle" x="885.5" y="-253.5" font-family="Helvetica,sans-Serif" font-size="10.00">/matrix&#45;view.hh</text>
</a>
</g>
</g>
<!-- Node14&#45;&gt;Node20 -->
<g id="edge23" class="edge"><title>Node14&#45;&gt;Node20</title>
<path fill="none" stroke="midnightblue" d="M885.5,-313.396C885.5,-305.645 885.5,-295.812 885.5,-286.86"/>
<polygon fill="midnightblue" stroke="midnightblue" points="889,-286.576 885.5,-276.577 882,-286.577 889,-286.576"/>
</g>
<!-- Node21 -->
<g id="node21" class="node"><title>Node21</title>
<g id="a_node21"><a xlink:href="a00125.html" target="_top" xlink:title="hpp/constraints/impl\l/matrix&#45;view&#45;operation.hh">
<polygon fill="white" stroke="black" points="955.5,-246.5 955.5,-276.5 1081.5,-276.5 1081.5,-246.5 955.5,-246.5"/>
<text text-anchor="start" x="963.5" y="-264.5" font-family="Helvetica,sans-Serif" font-size="10.00">hpp/constraints/impl</text>
<text text-anchor="middle" x="1018.5" y="-253.5" font-family="Helvetica,sans-Serif" font-size="10.00">/matrix&#45;view&#45;operation.hh</text>
</a>
</g>
</g>
<!-- Node14&#45;&gt;Node21 -->
<g id="edge25" class="edge"><title>Node14&#45;&gt;Node21</title>
<path fill="none" stroke="midnightblue" d="M914.359,-313.396C933.792,-303.899 959.619,-291.276 980.691,-280.978"/>
<polygon fill="midnightblue" stroke="midnightblue" points="982.25,-284.112 989.697,-276.577 979.176,-277.823 982.25,-284.112"/>
</g>
<!-- Node19&#45;&gt;Node4 -->
<g id="edge21" class="edge"><title>Node19&#45;&gt;Node4</title>
<path fill="none" stroke="midnightblue" d="M807.027,-184.942C764.79,-155.964 626.862,-61.3329 574.195,-25.1989"/>
<polygon fill="midnightblue" stroke="midnightblue" points="576.172,-22.3104 565.946,-19.5391 572.212,-28.0825 576.172,-22.3104"/>
</g>
<!-- Node20&#45;&gt;Node19 -->
<g id="edge24" class="edge"><title>Node20&#45;&gt;Node19</title>
<path fill="none" stroke="midnightblue" d="M871.179,-246.396C860.684,-236.06 846.432,-222.024 835.552,-211.309"/>
<polygon fill="midnightblue" stroke="midnightblue" points="837.909,-208.718 828.328,-204.195 832.997,-213.705 837.909,-208.718"/>
</g>
</g>
</svg>
