<?xml version="1.0" encoding="UTF-8" standalone="no"?>
<!DOCTYPE svg PUBLIC "-//W3C//DTD SVG 1.1//EN"
 "http://www.w3.org/Graphics/SVG/1.1/DTD/svg11.dtd">
<!-- Generated by graphviz version 2.38.0 (20140413.2041)
 -->
<!-- Title: configuration&#45;constraint.hh Pages: 1 -->
<svg width="677pt" height="408pt"
 viewBox="0.00 0.00 676.50 408.00" xmlns="http://www.w3.org/2000/svg" xmlns:xlink="http://www.w3.org/1999/xlink">
<g id="graph0" class="graph" transform="scale(1 1) rotate(0) translate(4 404)">
<title>configuration&#45;constraint.hh</title>
<polygon fill="white" stroke="none" points="-4,4 -4,-404 672.5,-404 672.5,4 -4,4"/>
<!-- Node1 -->
<g id="node1" class="node"><title>Node1</title>
<polygon fill="#bfbfbf" stroke="black" points="166.5,-380.5 166.5,-399.5 297.5,-399.5 297.5,-380.5 166.5,-380.5"/>
<text text-anchor="middle" x="232" y="-387.5" font-family="Helvetica,sans-Serif" font-size="10.00">configuration&#45;constraint.hh</text>
</g>
<!-- Node2 -->
<g id="node2" class="node"><title>Node2</title>
<polygon fill="white" stroke="#bfbfbf" points="0,-319 0,-338 120,-338 120,-319 0,-319"/>
<text text-anchor="middle" x="60" y="-326" font-family="Helvetica,sans-Serif" font-size="10.00">boost/assign/list_of.hpp</text>
</g>
<!-- Node1&#45;&gt;Node2 -->
<g id="edge1" class="edge"><title>Node1&#45;&gt;Node2</title>
<path fill="none" stroke="midnightblue" d="M207.357,-380.475C177.725,-370.225 127.815,-352.959 94.3982,-341.399"/>
<polygon fill="midnightblue" stroke="midnightblue" points="95.1925,-337.971 84.5977,-338.009 92.904,-344.586 95.1925,-337.971"/>
</g>
<!-- Node3 -->
<g id="node3" class="node"><title>Node3</title>
<polygon fill="white" stroke="#bfbfbf" points="138.5,-319 138.5,-338 203.5,-338 203.5,-319 138.5,-319"/>
<text text-anchor="middle" x="171" y="-326" font-family="Helvetica,sans-Serif" font-size="10.00">Eigen/Core</text>
</g>
<!-- Node1&#45;&gt;Node3 -->
<g id="edge2" class="edge"><title>Node1&#45;&gt;Node3</title>
<path fill="none" stroke="midnightblue" d="M223.26,-380.475C213.838,-371.285 198.636,-356.456 187.051,-345.156"/>
<polygon fill="midnightblue" stroke="midnightblue" points="189.326,-342.486 179.724,-338.009 184.438,-347.497 189.326,-342.486"/>
</g>
<!-- Node4 -->
<g id="node4" class="node"><title>Node4</title>
<g id="a_node4"><a xlink:href="a00107.html" target="_top" xlink:title="hpp/constraints/differentiable\l&#45;function.hh">
<polygon fill="white" stroke="black" points="260,-313.5 260,-343.5 402,-343.5 402,-313.5 260,-313.5"/>
<text text-anchor="start" x="268" y="-331.5" font-family="Helvetica,sans-Serif" font-size="10.00">hpp/constraints/differentiable</text>
<text text-anchor="middle" x="331" y="-320.5" font-family="Helvetica,sans-Serif" font-size="10.00">&#45;function.hh</text>
</a>
</g>
</g>
<!-- Node1&#45;&gt;Node4 -->
<g id="edge3" class="edge"><title>Node1&#45;&gt;Node4</title>
<path fill="none" stroke="midnightblue" d="M246.184,-380.475C259.843,-372.266 280.987,-359.558 298.747,-348.885"/>
<polygon fill="midnightblue" stroke="midnightblue" points="300.9,-351.674 307.668,-343.523 297.294,-345.674 300.9,-351.674"/>
</g>
<!-- Node5 -->
<g id="node5" class="node"><title>Node5</title>
<g id="a_node5"><a xlink:href="a00001.html" target="_top" xlink:title="hpp/constraints/fwd.hh">
<polygon fill="white" stroke="black" points="140,-252 140,-271 256,-271 256,-252 140,-252"/>
<text text-anchor="middle" x="198" y="-259" font-family="Helvetica,sans-Serif" font-size="10.00">hpp/constraints/fwd.hh</text>
</a>
</g>
</g>
<!-- Node1&#45;&gt;Node5 -->
<g id="edge18" class="edge"><title>Node1&#45;&gt;Node5</title>
<path fill="none" stroke="midnightblue" d="M229.903,-380.075C226.527,-365.84 219.599,-337.139 213,-313 210.056,-302.231 206.509,-290.251 203.604,-280.663"/>
<polygon fill="midnightblue" stroke="midnightblue" points="206.934,-279.584 200.662,-271.045 200.24,-281.632 206.934,-279.584"/>
</g>
<!-- Node8 -->
<g id="node8" class="node"><title>Node8</title>
<polygon fill="white" stroke="#bfbfbf" points="406,-252 406,-271 532,-271 532,-252 406,-252"/>
<text text-anchor="middle" x="469" y="-259" font-family="Helvetica,sans-Serif" font-size="10.00">hpp/constraints/config.hh</text>
</g>
<!-- Node1&#45;&gt;Node8 -->
<g id="edge17" class="edge"><title>Node1&#45;&gt;Node8</title>
<path fill="none" stroke="midnightblue" d="M297.806,-383.591C333.778,-378.031 377.661,-366.774 411,-344 434.473,-327.966 451.641,-299.116 460.97,-280.395"/>
<polygon fill="midnightblue" stroke="midnightblue" points="464.217,-281.717 465.337,-271.182 457.891,-278.719 464.217,-281.717"/>
</g>
<!-- Node4&#45;&gt;Node5 -->
<g id="edge4" class="edge"><title>Node4&#45;&gt;Node5</title>
<path fill="none" stroke="midnightblue" d="M302.141,-313.396C279.114,-302.142 247.11,-286.501 224.677,-275.538"/>
<polygon fill="midnightblue" stroke="midnightblue" points="225.928,-272.253 215.407,-271.007 222.854,-278.543 225.928,-272.253"/>
</g>
<!-- Node4&#45;&gt;Node8 -->
<g id="edge7" class="edge"><title>Node4&#45;&gt;Node8</title>
<path fill="none" stroke="midnightblue" d="M360.944,-313.396C384.943,-302.092 418.342,-286.361 441.633,-275.39"/>
<polygon fill="midnightblue" stroke="midnightblue" points="443.384,-278.435 450.939,-271.007 440.401,-272.102 443.384,-278.435"/>
</g>
<!-- Node9 -->
<g id="node9" class="node"><title>Node9</title>
<g id="a_node9"><a doxygen="/local/devel/hpp/install/share/doc/hpp-pinocchio/doxygen-html/hpp-pinocchio.doxytag:../../hpp-pinocchio/doxygen-html/" xlink:href="../../hpp-pinocchio/doxygen-html/a00103.html" target="_top" xlink:title="hpp/pinocchio/liegroup\l&#45;element.hh">
<polygon fill="white" stroke="black" points="274.5,-246.5 274.5,-276.5 387.5,-276.5 387.5,-246.5 274.5,-246.5"/>
<text text-anchor="start" x="282.5" y="-264.5" font-family="Helvetica,sans-Serif" font-size="10.00">hpp/pinocchio/liegroup</text>
<text text-anchor="middle" x="331" y="-253.5" font-family="Helvetica,sans-Serif" font-size="10.00">&#45;element.hh</text>
</a>
</g>
</g>
<!-- Node4&#45;&gt;Node9 -->
<g id="edge8" class="edge"><title>Node4&#45;&gt;Node9</title>
<path fill="none" stroke="midnightblue" d="M331,-313.396C331,-305.645 331,-295.812 331,-286.86"/>
<polygon fill="midnightblue" stroke="midnightblue" points="334.5,-286.576 331,-276.577 327.5,-286.577 334.5,-286.576"/>
</g>
<!-- Node6 -->
<g id="node6" class="node"><title>Node6</title>
<g id="a_node6"><a doxygen="/local/devel/hpp/install/share/doc/hpp-pinocchio/doxygen-html/hpp-pinocchio.doxytag:../../hpp-pinocchio/doxygen-html/" xlink:href="../../hpp-pinocchio/doxygen-html/a00098.html" target="_top" xlink:title="hpp/pinocchio/fwd.hh">
<polygon fill="white" stroke="black" points="79.5,-0.5 79.5,-19.5 188.5,-19.5 188.5,-0.5 79.5,-0.5"/>
<text text-anchor="middle" x="134" y="-7.5" font-family="Helvetica,sans-Serif" font-size="10.00">hpp/pinocchio/fwd.hh</text>
</a>
</g>
</g>
<!-- Node5&#45;&gt;Node6 -->
<g id="edge5" class="edge"><title>Node5&#45;&gt;Node6</title>
<path fill="none" stroke="midnightblue" d="M170.67,-251.958C151.332,-244.319 126.819,-231.026 115,-210 81.7219,-150.799 110.42,-65.8292 125.791,-29.0761"/>
<polygon fill="midnightblue" stroke="midnightblue" points="129.102,-30.239 129.881,-19.6728 122.682,-27.4471 129.102,-30.239"/>
</g>
<!-- Node7 -->
<g id="node7" class="node"><title>Node7</title>
<polygon fill="white" stroke="#bfbfbf" points="124,-185 124,-204 272,-204 272,-185 124,-185"/>
<text text-anchor="middle" x="198" y="-192" font-family="Helvetica,sans-Serif" font-size="10.00">hpp/constraints/deprecated.hh</text>
</g>
<!-- Node5&#45;&gt;Node7 -->
<g id="edge6" class="edge"><title>Node5&#45;&gt;Node7</title>
<path fill="none" stroke="midnightblue" d="M198,-251.734C198,-242.183 198,-226.618 198,-214.283"/>
<polygon fill="midnightblue" stroke="midnightblue" points="201.5,-214.127 198,-204.127 194.5,-214.127 201.5,-214.127"/>
</g>
<!-- Node10 -->
<g id="node10" class="node"><title>Node10</title>
<g id="a_node10"><a doxygen="/local/devel/hpp/install/share/doc/hpp-pinocchio/doxygen-html/hpp-pinocchio.doxytag:../../hpp-pinocchio/doxygen-html/" xlink:href="../../hpp-pinocchio/doxygen-html/a00104.html" target="_top" xlink:title="hpp/pinocchio/liegroup\l&#45;space.hh">
<polygon fill="white" stroke="black" points="290.5,-179.5 290.5,-209.5 403.5,-209.5 403.5,-179.5 290.5,-179.5"/>
<text text-anchor="start" x="298.5" y="-197.5" font-family="Helvetica,sans-Serif" font-size="10.00">hpp/pinocchio/liegroup</text>
<text text-anchor="middle" x="347" y="-186.5" font-family="Helvetica,sans-Serif" font-size="10.00">&#45;space.hh</text>
</a>
</g>
</g>
<!-- Node9&#45;&gt;Node10 -->
<g id="edge9" class="edge"><title>Node9&#45;&gt;Node10</title>
<path fill="none" stroke="midnightblue" d="M334.472,-246.396C336.401,-238.56 338.853,-228.596 341.076,-219.565"/>
<polygon fill="midnightblue" stroke="midnightblue" points="344.543,-220.123 343.535,-209.577 337.746,-218.45 344.543,-220.123"/>
</g>
<!-- Node10&#45;&gt;Node6 -->
<g id="edge16" class="edge"><title>Node10&#45;&gt;Node6</title>
<path fill="none" stroke="midnightblue" d="M298.927,-179.469C254.456,-164.003 189.835,-134.77 153,-87 140.314,-70.5482 136.003,-46.6713 134.588,-30.0874"/>
<polygon fill="midnightblue" stroke="midnightblue" points="138.074,-29.7344 134.005,-19.9522 131.085,-30.1369 138.074,-29.7344"/>
</g>
<!-- Node11 -->
<g id="node11" class="node"><title>Node11</title>
<g id="a_node11"><a doxygen="/local/devel/hpp/install/share/doc/hpp-pinocchio/doxygen-html/hpp-pinocchio.doxytag:../../hpp-pinocchio/doxygen-html/" xlink:href="../../hpp-pinocchio/doxygen-html/a00105.html" target="_top" xlink:title="hpp/pinocchio/liegroup.hh">
<polygon fill="white" stroke="black" points="286.5,-123.5 286.5,-142.5 413.5,-142.5 413.5,-123.5 286.5,-123.5"/>
<text text-anchor="middle" x="350" y="-130.5" font-family="Helvetica,sans-Serif" font-size="10.00">hpp/pinocchio/liegroup.hh</text>
</a>
</g>
</g>
<!-- Node10&#45;&gt;Node11 -->
<g id="edge10" class="edge"><title>Node10&#45;&gt;Node11</title>
<path fill="none" stroke="midnightblue" d="M347.711,-179.399C348.111,-171.466 348.616,-161.458 349.049,-152.858"/>
<polygon fill="midnightblue" stroke="midnightblue" points="352.555,-152.821 349.563,-142.658 345.564,-152.469 352.555,-152.821"/>
</g>
<!-- Node12 -->
<g id="node12" class="node"><title>Node12</title>
<g id="a_node12"><a doxygen="/local/devel/hpp/install/share/doc/hpp-pinocchio/doxygen-html/hpp-pinocchio.doxytag:../../hpp-pinocchio/doxygen-html/" xlink:href="../../hpp-pinocchio/doxygen-html/a00114.html" target="_top" xlink:title="hpp/pinocchio/liegroup\l/vector&#45;space.hh">
<polygon fill="white" stroke="black" points="162.5,-56.5 162.5,-86.5 275.5,-86.5 275.5,-56.5 162.5,-56.5"/>
<text text-anchor="start" x="170.5" y="-74.5" font-family="Helvetica,sans-Serif" font-size="10.00">hpp/pinocchio/liegroup</text>
<text text-anchor="middle" x="219" y="-63.5" font-family="Helvetica,sans-Serif" font-size="10.00">/vector&#45;space.hh</text>
</a>
</g>
</g>
<!-- Node11&#45;&gt;Node12 -->
<g id="edge11" class="edge"><title>Node11&#45;&gt;Node12</title>
<path fill="none" stroke="midnightblue" d="M331.231,-123.475C312.494,-114.965 283.111,-101.619 259.11,-90.718"/>
<polygon fill="midnightblue" stroke="midnightblue" points="260.426,-87.4717 249.874,-86.523 257.532,-93.8451 260.426,-87.4717"/>
</g>
<!-- Node13 -->
<g id="node13" class="node"><title>Node13</title>
<g id="a_node13"><a doxygen="/local/devel/hpp/install/share/doc/hpp-pinocchio/doxygen-html/hpp-pinocchio.doxytag:../../hpp-pinocchio/doxygen-html/" xlink:href="../../hpp-pinocchio/doxygen-html/a00089.html" target="_top" xlink:title="hpp/pinocchio/liegroup\l/cartesian&#45;product.hh">
<polygon fill="white" stroke="black" points="293.5,-56.5 293.5,-86.5 406.5,-86.5 406.5,-56.5 293.5,-56.5"/>
<text text-anchor="start" x="301.5" y="-74.5" font-family="Helvetica,sans-Serif" font-size="10.00">hpp/pinocchio/liegroup</text>
<text text-anchor="middle" x="350" y="-63.5" font-family="Helvetica,sans-Serif" font-size="10.00">/cartesian&#45;product.hh</text>
</a>
</g>
</g>
<!-- Node11&#45;&gt;Node13 -->
<g id="edge13" class="edge"><title>Node11&#45;&gt;Node13</title>
<path fill="none" stroke="midnightblue" d="M350,-123.475C350,-116.471 350,-106.192 350,-96.6956"/>
<polygon fill="midnightblue" stroke="midnightblue" points="353.5,-96.5229 350,-86.523 346.5,-96.523 353.5,-96.5229"/>
</g>
<!-- Node14 -->
<g id="node14" class="node"><title>Node14</title>
<g id="a_node14"><a doxygen="/local/devel/hpp/install/share/doc/hpp-pinocchio/doxygen-html/hpp-pinocchio.doxytag:../../hpp-pinocchio/doxygen-html/" xlink:href="../../hpp-pinocchio/doxygen-html/a00111.html" target="_top" xlink:title="hpp/pinocchio/liegroup\l/special&#45;orthogonal.hh">
<polygon fill="white" stroke="black" points="424.5,-56.5 424.5,-86.5 537.5,-86.5 537.5,-56.5 424.5,-56.5"/>
<text text-anchor="start" x="432.5" y="-74.5" font-family="Helvetica,sans-Serif" font-size="10.00">hpp/pinocchio/liegroup</text>
<text text-anchor="middle" x="481" y="-63.5" font-family="Helvetica,sans-Serif" font-size="10.00">/special&#45;orthogonal.hh</text>
</a>
</g>
</g>
<!-- Node11&#45;&gt;Node14 -->
<g id="edge14" class="edge"><title>Node11&#45;&gt;Node14</title>
<path fill="none" stroke="midnightblue" d="M368.769,-123.475C387.506,-114.965 416.889,-101.619 440.89,-90.718"/>
<polygon fill="midnightblue" stroke="midnightblue" points="442.468,-93.8451 450.126,-86.523 439.574,-87.4717 442.468,-93.8451"/>
</g>
<!-- Node15 -->
<g id="node15" class="node"><title>Node15</title>
<g id="a_node15"><a doxygen="/local/devel/hpp/install/share/doc/hpp-pinocchio/doxygen-html/hpp-pinocchio.doxytag:../../hpp-pinocchio/doxygen-html/" xlink:href="../../hpp-pinocchio/doxygen-html/a00110.html" target="_top" xlink:title="hpp/pinocchio/liegroup\l/special&#45;euclidean.hh">
<polygon fill="white" stroke="black" points="555.5,-56.5 555.5,-86.5 668.5,-86.5 668.5,-56.5 555.5,-56.5"/>
<text text-anchor="start" x="563.5" y="-74.5" font-family="Helvetica,sans-Serif" font-size="10.00">hpp/pinocchio/liegroup</text>
<text text-anchor="middle" x="612" y="-63.5" font-family="Helvetica,sans-Serif" font-size="10.00">/special&#45;euclidean.hh</text>
</a>
</g>
</g>
<!-- Node11&#45;&gt;Node15 -->
<g id="edge15" class="edge"><title>Node11&#45;&gt;Node15</title>
<path fill="none" stroke="midnightblue" d="M387.538,-123.475C428.66,-114.136 495.42,-98.9753 545.463,-87.6106"/>
<polygon fill="midnightblue" stroke="midnightblue" points="546.259,-91.0189 555.236,-85.3911 544.709,-84.1927 546.259,-91.0189"/>
</g>
<!-- Node12&#45;&gt;Node6 -->
<g id="edge12" class="edge"><title>Node12&#45;&gt;Node6</title>
<path fill="none" stroke="midnightblue" d="M198.856,-56.3993C185.613,-47.1293 168.322,-35.0254 154.924,-25.6469"/>
<polygon fill="midnightblue" stroke="midnightblue" points="156.568,-22.5251 146.368,-19.6578 152.553,-28.2598 156.568,-22.5251"/>
</g>
</g>
</svg>
