<?xml version="1.0" encoding="UTF-8" standalone="no"?>
<!DOCTYPE svg PUBLIC "-//W3C//DTD SVG 1.1//EN"
 "http://www.w3.org/Graphics/SVG/1.1/DTD/svg11.dtd">
<!-- Generated by graphviz version 2.38.0 (20140413.2041)
 -->
<!-- Title: implicit&#45;constraint&#45;set.hh Pages: 1 -->
<svg width="743pt" height="486pt"
 viewBox="0.00 0.00 742.56 486.00" xmlns="http://www.w3.org/2000/svg" xmlns:xlink="http://www.w3.org/1999/xlink">
<g id="graph0" class="graph" transform="scale(1 1) rotate(0) translate(4 482)">
<title>implicit&#45;constraint&#45;set.hh</title>
<polygon fill="white" stroke="none" points="-4,4 -4,-482 738.562,-482 738.562,4 -4,4"/>
<!-- Node1 -->
<g id="node1" class="node"><title>Node1</title>
<polygon fill="#bfbfbf" stroke="black" points="226.5,-447.5 226.5,-477.5 319.5,-477.5 319.5,-447.5 226.5,-447.5"/>
<text text-anchor="start" x="234.5" y="-465.5" font-family="Helvetica,sans-Serif" font-size="10.00">implicit&#45;constraint</text>
<text text-anchor="middle" x="273" y="-454.5" font-family="Helvetica,sans-Serif" font-size="10.00">&#45;set.hh</text>
</g>
<!-- Node2 -->
<g id="node2" class="node"><title>Node2</title>
<g id="a_node2"><a xlink:href="a00001.html" target="_top" xlink:title="hpp/constraints/fwd.hh">
<polygon fill="white" stroke="black" points="118,-252 118,-271 234,-271 234,-252 118,-252"/>
<text text-anchor="middle" x="176" y="-259" font-family="Helvetica,sans-Serif" font-size="10.00">hpp/constraints/fwd.hh</text>
</a>
</g>
</g>
<!-- Node1&#45;&gt;Node2 -->
<g id="edge1" class="edge"><title>Node1&#45;&gt;Node2</title>
<path fill="none" stroke="midnightblue" d="M236.897,-447.396C220.81,-439.22 203.222,-427.273 193,-411 167.533,-370.456 169.945,-311.215 173.278,-281.29"/>
<polygon fill="midnightblue" stroke="midnightblue" points="176.793,-281.398 174.592,-271.034 169.85,-280.509 176.793,-281.398"/>
</g>
<!-- Node5 -->
<g id="node5" class="node"><title>Node5</title>
<g id="a_node5"><a xlink:href="a00119.html" target="_top" xlink:title="hpp/constraints/implicit.hh">
<polygon fill="white" stroke="black" points="381.5,-319 381.5,-338 512.5,-338 512.5,-319 381.5,-319"/>
<text text-anchor="middle" x="447" y="-326" font-family="Helvetica,sans-Serif" font-size="10.00">hpp/constraints/implicit.hh</text>
</a>
</g>
</g>
<!-- Node1&#45;&gt;Node5 -->
<g id="edge4" class="edge"><title>Node1&#45;&gt;Node5</title>
<path fill="none" stroke="midnightblue" d="M297.433,-447.392C313.608,-437.736 335.066,-424.316 353,-411 381.573,-389.784 412.305,-362.118 430.58,-345.092"/>
<polygon fill="midnightblue" stroke="midnightblue" points="433.154,-347.476 438.048,-338.08 428.362,-342.374 433.154,-347.476"/>
</g>
<!-- Node7 -->
<g id="node7" class="node"><title>Node7</title>
<g id="a_node7"><a xlink:href="a00105.html" target="_top" xlink:title="hpp/constraints/differentiable\l&#45;function&#45;set.hh">
<polygon fill="white" stroke="black" points="202,-380.5 202,-410.5 344,-410.5 344,-380.5 202,-380.5"/>
<text text-anchor="start" x="210" y="-398.5" font-family="Helvetica,sans-Serif" font-size="10.00">hpp/constraints/differentiable</text>
<text text-anchor="middle" x="273" y="-387.5" font-family="Helvetica,sans-Serif" font-size="10.00">&#45;function&#45;set.hh</text>
</a>
</g>
</g>
<!-- Node1&#45;&gt;Node7 -->
<g id="edge7" class="edge"><title>Node1&#45;&gt;Node7</title>
<path fill="none" stroke="midnightblue" d="M273,-447.396C273,-439.645 273,-429.812 273,-420.86"/>
<polygon fill="midnightblue" stroke="midnightblue" points="276.5,-420.576 273,-410.577 269.5,-420.577 276.5,-420.576"/>
</g>
<!-- Node3 -->
<g id="node3" class="node"><title>Node3</title>
<g id="a_node3"><a doxygen="/local/devel/hpp/install/share/doc/hpp-pinocchio/doxygen-html/hpp-pinocchio.doxytag:../../hpp-pinocchio/doxygen-html/" xlink:href="../../hpp-pinocchio/doxygen-html/a00098.html" target="_top" xlink:title="hpp/pinocchio/fwd.hh">
<polygon fill="white" stroke="black" points="206.5,-0.5 206.5,-19.5 315.5,-19.5 315.5,-0.5 206.5,-0.5"/>
<text text-anchor="middle" x="261" y="-7.5" font-family="Helvetica,sans-Serif" font-size="10.00">hpp/pinocchio/fwd.hh</text>
</a>
</g>
</g>
<!-- Node2&#45;&gt;Node3 -->
<g id="edge2" class="edge"><title>Node2&#45;&gt;Node3</title>
<path fill="none" stroke="midnightblue" d="M174.383,-251.942C169.254,-222.322 155.898,-122.354 195,-56 203.181,-42.1179 217.531,-31.5674 230.765,-24.1839"/>
<polygon fill="midnightblue" stroke="midnightblue" points="232.39,-27.2838 239.659,-19.5762 229.17,-21.0683 232.39,-27.2838"/>
</g>
<!-- Node4 -->
<g id="node4" class="node"><title>Node4</title>
<polygon fill="white" stroke="#bfbfbf" points="0,-185 0,-204 148,-204 148,-185 0,-185"/>
<text text-anchor="middle" x="74" y="-192" font-family="Helvetica,sans-Serif" font-size="10.00">hpp/constraints/deprecated.hh</text>
</g>
<!-- Node2&#45;&gt;Node4 -->
<g id="edge3" class="edge"><title>Node2&#45;&gt;Node4</title>
<path fill="none" stroke="midnightblue" d="M162.244,-251.734C145.268,-240.916 116.186,-222.383 96.0727,-209.566"/>
<polygon fill="midnightblue" stroke="midnightblue" points="97.8524,-206.55 87.5382,-204.127 94.0905,-212.453 97.8524,-206.55"/>
</g>
<!-- Node5&#45;&gt;Node2 -->
<g id="edge5" class="edge"><title>Node5&#45;&gt;Node2</title>
<path fill="none" stroke="midnightblue" d="M411.293,-318.936C362.549,-307.244 275.143,-286.28 221.681,-273.457"/>
<polygon fill="midnightblue" stroke="midnightblue" points="222.327,-270.012 211.786,-271.083 220.694,-276.819 222.327,-270.012"/>
</g>
<!-- Node6 -->
<g id="node6" class="node"><title>Node6</title>
<polygon fill="white" stroke="#bfbfbf" points="384,-252 384,-271 510,-271 510,-252 384,-252"/>
<text text-anchor="middle" x="447" y="-259" font-family="Helvetica,sans-Serif" font-size="10.00">hpp/constraints/config.hh</text>
</g>
<!-- Node5&#45;&gt;Node6 -->
<g id="edge6" class="edge"><title>Node5&#45;&gt;Node6</title>
<path fill="none" stroke="midnightblue" d="M447,-318.734C447,-309.183 447,-293.618 447,-281.283"/>
<polygon fill="midnightblue" stroke="midnightblue" points="450.5,-281.127 447,-271.127 443.5,-281.127 450.5,-281.127"/>
</g>
<!-- Node7&#45;&gt;Node2 -->
<g id="edge8" class="edge"><title>Node7&#45;&gt;Node2</title>
<path fill="none" stroke="midnightblue" d="M251.344,-380.411C238.584,-371.251 222.866,-358.364 212,-344 197.379,-324.672 187.17,-298.474 181.449,-281.056"/>
<polygon fill="midnightblue" stroke="midnightblue" points="184.646,-279.549 178.337,-271.037 177.961,-281.626 184.646,-279.549"/>
</g>
<!-- Node8 -->
<g id="node8" class="node"><title>Node8</title>
<g id="a_node8"><a xlink:href="a00107.html" target="_top" xlink:title="hpp/constraints/differentiable\l&#45;function.hh">
<polygon fill="white" stroke="black" points="221,-313.5 221,-343.5 363,-343.5 363,-313.5 221,-313.5"/>
<text text-anchor="start" x="229" y="-331.5" font-family="Helvetica,sans-Serif" font-size="10.00">hpp/constraints/differentiable</text>
<text text-anchor="middle" x="292" y="-320.5" font-family="Helvetica,sans-Serif" font-size="10.00">&#45;function.hh</text>
</a>
</g>
</g>
<!-- Node7&#45;&gt;Node8 -->
<g id="edge9" class="edge"><title>Node7&#45;&gt;Node8</title>
<path fill="none" stroke="midnightblue" d="M277.123,-380.396C279.438,-372.474 282.389,-362.379 285.051,-353.271"/>
<polygon fill="midnightblue" stroke="midnightblue" points="288.439,-354.157 287.885,-343.577 281.72,-352.193 288.439,-354.157"/>
</g>
<!-- Node8&#45;&gt;Node2 -->
<g id="edge10" class="edge"><title>Node8&#45;&gt;Node2</title>
<path fill="none" stroke="midnightblue" d="M266.83,-313.396C247.017,-302.294 219.582,-286.921 200.061,-275.983"/>
<polygon fill="midnightblue" stroke="midnightblue" points="201.616,-272.842 191.182,-271.007 198.195,-278.949 201.616,-272.842"/>
</g>
<!-- Node8&#45;&gt;Node6 -->
<g id="edge11" class="edge"><title>Node8&#45;&gt;Node6</title>
<path fill="none" stroke="midnightblue" d="M325.633,-313.396C352.95,-301.941 391.108,-285.938 417.306,-274.952"/>
<polygon fill="midnightblue" stroke="midnightblue" points="418.846,-278.102 426.714,-271.007 416.139,-271.647 418.846,-278.102"/>
</g>
<!-- Node9 -->
<g id="node9" class="node"><title>Node9</title>
<g id="a_node9"><a doxygen="/local/devel/hpp/install/share/doc/hpp-pinocchio/doxygen-html/hpp-pinocchio.doxytag:../../hpp-pinocchio/doxygen-html/" xlink:href="../../hpp-pinocchio/doxygen-html/a00103.html" target="_top" xlink:title="hpp/pinocchio/liegroup\l&#45;element.hh">
<polygon fill="white" stroke="black" points="252.5,-246.5 252.5,-276.5 365.5,-276.5 365.5,-246.5 252.5,-246.5"/>
<text text-anchor="start" x="260.5" y="-264.5" font-family="Helvetica,sans-Serif" font-size="10.00">hpp/pinocchio/liegroup</text>
<text text-anchor="middle" x="309" y="-253.5" font-family="Helvetica,sans-Serif" font-size="10.00">&#45;element.hh</text>
</a>
</g>
</g>
<!-- Node8&#45;&gt;Node9 -->
<g id="edge12" class="edge"><title>Node8&#45;&gt;Node9</title>
<path fill="none" stroke="midnightblue" d="M295.689,-313.396C297.761,-305.474 300.401,-295.379 302.783,-286.271"/>
<polygon fill="midnightblue" stroke="midnightblue" points="306.174,-287.137 305.318,-276.577 299.402,-285.365 306.174,-287.137"/>
</g>
<!-- Node10 -->
<g id="node10" class="node"><title>Node10</title>
<g id="a_node10"><a doxygen="/local/devel/hpp/install/share/doc/hpp-pinocchio/doxygen-html/hpp-pinocchio.doxytag:../../hpp-pinocchio/doxygen-html/" xlink:href="../../hpp-pinocchio/doxygen-html/a00104.html" target="_top" xlink:title="hpp/pinocchio/liegroup\l&#45;space.hh">
<polygon fill="white" stroke="black" points="400.5,-179.5 400.5,-209.5 513.5,-209.5 513.5,-179.5 400.5,-179.5"/>
<text text-anchor="start" x="408.5" y="-197.5" font-family="Helvetica,sans-Serif" font-size="10.00">hpp/pinocchio/liegroup</text>
<text text-anchor="middle" x="457" y="-186.5" font-family="Helvetica,sans-Serif" font-size="10.00">&#45;space.hh</text>
</a>
</g>
</g>
<!-- Node9&#45;&gt;Node10 -->
<g id="edge13" class="edge"><title>Node9&#45;&gt;Node10</title>
<path fill="none" stroke="midnightblue" d="M341.114,-246.396C362.932,-236.814 391.994,-224.05 415.556,-213.702"/>
<polygon fill="midnightblue" stroke="midnightblue" points="417.2,-216.802 424.949,-209.577 414.386,-210.393 417.2,-216.802"/>
</g>
<!-- Node10&#45;&gt;Node3 -->
<g id="edge20" class="edge"><title>Node10&#45;&gt;Node3</title>
<path fill="none" stroke="midnightblue" d="M513.541,-185.255C609.035,-169.134 785.758,-128.52 720,-56 694.033,-27.3622 446.032,-16.323 325.77,-12.6277"/>
<polygon fill="midnightblue" stroke="midnightblue" points="325.69,-9.12384 315.589,-12.3231 325.48,-16.1207 325.69,-9.12384"/>
</g>
<!-- Node11 -->
<g id="node11" class="node"><title>Node11</title>
<g id="a_node11"><a doxygen="/local/devel/hpp/install/share/doc/hpp-pinocchio/doxygen-html/hpp-pinocchio.doxytag:../../hpp-pinocchio/doxygen-html/" xlink:href="../../hpp-pinocchio/doxygen-html/a00105.html" target="_top" xlink:title="hpp/pinocchio/liegroup.hh">
<polygon fill="white" stroke="black" points="393.5,-123.5 393.5,-142.5 520.5,-142.5 520.5,-123.5 393.5,-123.5"/>
<text text-anchor="middle" x="457" y="-130.5" font-family="Helvetica,sans-Serif" font-size="10.00">hpp/pinocchio/liegroup.hh</text>
</a>
</g>
</g>
<!-- Node10&#45;&gt;Node11 -->
<g id="edge14" class="edge"><title>Node10&#45;&gt;Node11</title>
<path fill="none" stroke="midnightblue" d="M457,-179.399C457,-171.466 457,-161.458 457,-152.858"/>
<polygon fill="midnightblue" stroke="midnightblue" points="460.5,-152.658 457,-142.658 453.5,-152.658 460.5,-152.658"/>
</g>
<!-- Node12 -->
<g id="node12" class="node"><title>Node12</title>
<g id="a_node12"><a doxygen="/local/devel/hpp/install/share/doc/hpp-pinocchio/doxygen-html/hpp-pinocchio.doxytag:../../hpp-pinocchio/doxygen-html/" xlink:href="../../hpp-pinocchio/doxygen-html/a00114.html" target="_top" xlink:title="hpp/pinocchio/liegroup\l/vector&#45;space.hh">
<polygon fill="white" stroke="black" points="204.5,-56.5 204.5,-86.5 317.5,-86.5 317.5,-56.5 204.5,-56.5"/>
<text text-anchor="start" x="212.5" y="-74.5" font-family="Helvetica,sans-Serif" font-size="10.00">hpp/pinocchio/liegroup</text>
<text text-anchor="middle" x="261" y="-63.5" font-family="Helvetica,sans-Serif" font-size="10.00">/vector&#45;space.hh</text>
</a>
</g>
</g>
<!-- Node11&#45;&gt;Node12 -->
<g id="edge15" class="edge"><title>Node11&#45;&gt;Node12</title>
<path fill="none" stroke="midnightblue" d="M428.918,-123.475C399.892,-114.664 353.79,-100.668 317.23,-89.5698"/>
<polygon fill="midnightblue" stroke="midnightblue" points="317.779,-86.0788 307.193,-86.523 315.745,-92.7769 317.779,-86.0788"/>
</g>
<!-- Node13 -->
<g id="node13" class="node"><title>Node13</title>
<g id="a_node13"><a doxygen="/local/devel/hpp/install/share/doc/hpp-pinocchio/doxygen-html/hpp-pinocchio.doxytag:../../hpp-pinocchio/doxygen-html/" xlink:href="../../hpp-pinocchio/doxygen-html/a00089.html" target="_top" xlink:title="hpp/pinocchio/liegroup\l/cartesian&#45;product.hh">
<polygon fill="white" stroke="black" points="335.5,-56.5 335.5,-86.5 448.5,-86.5 448.5,-56.5 335.5,-56.5"/>
<text text-anchor="start" x="343.5" y="-74.5" font-family="Helvetica,sans-Serif" font-size="10.00">hpp/pinocchio/liegroup</text>
<text text-anchor="middle" x="392" y="-63.5" font-family="Helvetica,sans-Serif" font-size="10.00">/cartesian&#45;product.hh</text>
</a>
</g>
</g>
<!-- Node11&#45;&gt;Node13 -->
<g id="edge17" class="edge"><title>Node11&#45;&gt;Node13</title>
<path fill="none" stroke="midnightblue" d="M447.687,-123.475C439.131,-115.643 426.1,-103.714 414.794,-93.3656"/>
<polygon fill="midnightblue" stroke="midnightblue" points="417.059,-90.6934 407.319,-86.523 412.332,-95.8568 417.059,-90.6934"/>
</g>
<!-- Node14 -->
<g id="node14" class="node"><title>Node14</title>
<g id="a_node14"><a doxygen="/local/devel/hpp/install/share/doc/hpp-pinocchio/doxygen-html/hpp-pinocchio.doxytag:../../hpp-pinocchio/doxygen-html/" xlink:href="../../hpp-pinocchio/doxygen-html/a00111.html" target="_top" xlink:title="hpp/pinocchio/liegroup\l/special&#45;orthogonal.hh">
<polygon fill="white" stroke="black" points="466.5,-56.5 466.5,-86.5 579.5,-86.5 579.5,-56.5 466.5,-56.5"/>
<text text-anchor="start" x="474.5" y="-74.5" font-family="Helvetica,sans-Serif" font-size="10.00">hpp/pinocchio/liegroup</text>
<text text-anchor="middle" x="523" y="-63.5" font-family="Helvetica,sans-Serif" font-size="10.00">/special&#45;orthogonal.hh</text>
</a>
</g>
</g>
<!-- Node11&#45;&gt;Node14 -->
<g id="edge18" class="edge"><title>Node11&#45;&gt;Node14</title>
<path fill="none" stroke="midnightblue" d="M466.456,-123.475C475.144,-115.643 488.376,-103.714 499.855,-93.3656"/>
<polygon fill="midnightblue" stroke="midnightblue" points="502.361,-95.8184 507.445,-86.523 497.674,-90.6193 502.361,-95.8184"/>
</g>
<!-- Node15 -->
<g id="node15" class="node"><title>Node15</title>
<g id="a_node15"><a doxygen="/local/devel/hpp/install/share/doc/hpp-pinocchio/doxygen-html/hpp-pinocchio.doxytag:../../hpp-pinocchio/doxygen-html/" xlink:href="../../hpp-pinocchio/doxygen-html/a00110.html" target="_top" xlink:title="hpp/pinocchio/liegroup\l/special&#45;euclidean.hh">
<polygon fill="white" stroke="black" points="597.5,-56.5 597.5,-86.5 710.5,-86.5 710.5,-56.5 597.5,-56.5"/>
<text text-anchor="start" x="605.5" y="-74.5" font-family="Helvetica,sans-Serif" font-size="10.00">hpp/pinocchio/liegroup</text>
<text text-anchor="middle" x="654" y="-63.5" font-family="Helvetica,sans-Serif" font-size="10.00">/special&#45;euclidean.hh</text>
</a>
</g>
</g>
<!-- Node11&#45;&gt;Node15 -->
<g id="edge19" class="edge"><title>Node11&#45;&gt;Node15</title>
<path fill="none" stroke="midnightblue" d="M485.225,-123.475C514.524,-114.626 561.133,-100.549 597.954,-89.4277"/>
<polygon fill="midnightblue" stroke="midnightblue" points="599.01,-92.7649 607.571,-86.523 596.986,-86.0638 599.01,-92.7649"/>
</g>
<!-- Node12&#45;&gt;Node3 -->
<g id="edge16" class="edge"><title>Node12&#45;&gt;Node3</title>
<path fill="none" stroke="midnightblue" d="M261,-56.3993C261,-48.4664 261,-38.458 261,-29.8583"/>
<polygon fill="midnightblue" stroke="midnightblue" points="264.5,-29.6577 261,-19.6578 257.5,-29.6578 264.5,-29.6577"/>
</g>
</g>
</svg>
