<?xml version="1.0" encoding="UTF-8" standalone="no"?>
<!DOCTYPE svg PUBLIC "-//W3C//DTD SVG 1.1//EN"
 "http://www.w3.org/Graphics/SVG/1.1/DTD/svg11.dtd">
<!-- Generated by graphviz version 2.38.0 (20140413.2041)
 -->
<!-- Title: convex&#45;shape&#45;contact.hh Pages: 1 -->
<svg width="1437pt" height="475pt"
 viewBox="0.00 0.00 1437.23 475.00" xmlns="http://www.w3.org/2000/svg" xmlns:xlink="http://www.w3.org/1999/xlink">
<g id="graph0" class="graph" transform="scale(1 1) rotate(0) translate(4 471)">
<title>convex&#45;shape&#45;contact.hh</title>
<polygon fill="white" stroke="none" points="-4,4 -4,-471 1433.23,-471 1433.23,4 -4,4"/>
<!-- Node1 -->
<g id="node1" class="node"><title>Node1</title>
<polygon fill="#bfbfbf" stroke="black" points="776.229,-447.5 776.229,-466.5 902.229,-466.5 902.229,-447.5 776.229,-447.5"/>
<text text-anchor="middle" x="839.229" y="-454.5" font-family="Helvetica,sans-Serif" font-size="10.00">convex&#45;shape&#45;contact.hh</text>
</g>
<!-- Node2 -->
<g id="node2" class="node"><title>Node2</title>
<polygon fill="white" stroke="#bfbfbf" points="852.229,-252 852.229,-271 896.229,-271 896.229,-252 852.229,-252"/>
<text text-anchor="middle" x="874.229" y="-259" font-family="Helvetica,sans-Serif" font-size="10.00">vector</text>
</g>
<!-- Node1&#45;&gt;Node2 -->
<g id="edge1" class="edge"><title>Node1&#45;&gt;Node2</title>
<path fill="none" stroke="midnightblue" d="M865.558,-447.403C904.603,-433.054 976.445,-400.122 1006.23,-344 1012.69,-331.83 1014.19,-324.247 1006.23,-313 978.463,-273.755 948.606,-295.489 904.229,-277 903.028,-276.499 901.806,-275.975 900.576,-275.434"/>
<polygon fill="midnightblue" stroke="midnightblue" points="901.76,-272.126 891.214,-271.113 898.827,-278.482 901.76,-272.126"/>
</g>
<!-- Node3 -->
<g id="node3" class="node"><title>Node3</title>
<g id="a_node3"><a xlink:href="a00001.html" target="_top" xlink:title="hpp/constraints/fwd.hh">
<polygon fill="white" stroke="black" points="586.229,-252 586.229,-271 702.229,-271 702.229,-252 586.229,-252"/>
<text text-anchor="middle" x="644.229" y="-259" font-family="Helvetica,sans-Serif" font-size="10.00">hpp/constraints/fwd.hh</text>
</a>
</g>
</g>
<!-- Node1&#45;&gt;Node3 -->
<g id="edge2" class="edge"><title>Node1&#45;&gt;Node3</title>
<path fill="none" stroke="midnightblue" d="M802.957,-447.409C756.296,-434.161 677.324,-403.771 644.229,-344 633.49,-324.605 635.897,-298.423 639.38,-281.026"/>
<polygon fill="midnightblue" stroke="midnightblue" points="642.85,-281.554 641.697,-271.022 636.031,-279.974 642.85,-281.554"/>
</g>
<!-- Node5 -->
<g id="node5" class="node"><title>Node5</title>
<polygon fill="white" stroke="#bfbfbf" points="64.2291,-185 64.2291,-204 212.229,-204 212.229,-185 64.2291,-185"/>
<text text-anchor="middle" x="138.229" y="-192" font-family="Helvetica,sans-Serif" font-size="10.00">hpp/constraints/deprecated.hh</text>
</g>
<!-- Node1&#45;&gt;Node5 -->
<g id="edge6" class="edge"><title>Node1&#45;&gt;Node5</title>
<path fill="none" stroke="midnightblue" d="M776.159,-452.324C599.168,-440.565 104.421,-397.326 7.22914,-277 -20.1116,-243.151 39.9939,-219.444 87.5761,-206.636"/>
<polygon fill="midnightblue" stroke="midnightblue" points="88.6984,-209.961 97.5036,-204.069 86.9458,-203.184 88.6984,-209.961"/>
</g>
<!-- Node6 -->
<g id="node6" class="node"><title>Node6</title>
<polygon fill="white" stroke="#bfbfbf" points="1303.23,-252 1303.23,-271 1429.23,-271 1429.23,-252 1303.23,-252"/>
<text text-anchor="middle" x="1366.23" y="-259" font-family="Helvetica,sans-Serif" font-size="10.00">hpp/constraints/config.hh</text>
</g>
<!-- Node1&#45;&gt;Node6 -->
<g id="edge5" class="edge"><title>Node1&#45;&gt;Node6</title>
<path fill="none" stroke="midnightblue" d="M901.616,-447.443C949.225,-440.09 1016.13,-427.973 1073.23,-411 1148.7,-388.567 1167.23,-380.055 1237.23,-344 1277.29,-323.364 1321.07,-294.167 1345.94,-276.898"/>
<polygon fill="midnightblue" stroke="midnightblue" points="1348.02,-279.715 1354.2,-271.113 1344,-273.98 1348.02,-279.715"/>
</g>
<!-- Node7 -->
<g id="node7" class="node"><title>Node7</title>
<g id="a_node7"><a xlink:href="a00113.html" target="_top" xlink:title="hpp/constraints/generic\l&#45;transformation.hh">
<polygon fill="white" stroke="black" points="780.229,-380.5 780.229,-410.5 898.229,-410.5 898.229,-380.5 780.229,-380.5"/>
<text text-anchor="start" x="788.229" y="-398.5" font-family="Helvetica,sans-Serif" font-size="10.00">hpp/constraints/generic</text>
<text text-anchor="middle" x="839.229" y="-387.5" font-family="Helvetica,sans-Serif" font-size="10.00">&#45;transformation.hh</text>
</a>
</g>
</g>
<!-- Node1&#45;&gt;Node7 -->
<g id="edge7" class="edge"><title>Node1&#45;&gt;Node7</title>
<path fill="none" stroke="midnightblue" d="M839.229,-447.475C839.229,-440.471 839.229,-430.192 839.229,-420.696"/>
<polygon fill="midnightblue" stroke="midnightblue" points="842.729,-420.523 839.229,-410.523 835.729,-420.523 842.729,-420.523"/>
</g>
<!-- Node10 -->
<g id="node10" class="node"><title>Node10</title>
<g id="a_node10"><a xlink:href="a00107.html" target="_top" xlink:title="hpp/constraints/differentiable\l&#45;function.hh">
<polygon fill="white" stroke="black" points="672.229,-313.5 672.229,-343.5 814.229,-343.5 814.229,-313.5 672.229,-313.5"/>
<text text-anchor="start" x="680.229" y="-331.5" font-family="Helvetica,sans-Serif" font-size="10.00">hpp/constraints/differentiable</text>
<text text-anchor="middle" x="743.229" y="-320.5" font-family="Helvetica,sans-Serif" font-size="10.00">&#45;function.hh</text>
</a>
</g>
</g>
<!-- Node1&#45;&gt;Node10 -->
<g id="edge36" class="edge"><title>Node1&#45;&gt;Node10</title>
<path fill="none" stroke="midnightblue" d="M819.67,-447.424C804.495,-439.853 783.964,-427.458 771.229,-411 758.264,-394.244 751.074,-371.088 747.238,-353.739"/>
<polygon fill="midnightblue" stroke="midnightblue" points="750.645,-352.922 745.262,-343.796 743.779,-354.287 750.645,-352.922"/>
</g>
<!-- Node25 -->
<g id="node25" class="node"><title>Node25</title>
<g id="a_node25"><a xlink:href="a00102.html" target="_top" xlink:title="hpp/constraints/convex\l&#45;shape.hh">
<polygon fill="white" stroke="black" points="1054.23,-313.5 1054.23,-343.5 1172.23,-343.5 1172.23,-313.5 1054.23,-313.5"/>
<text text-anchor="start" x="1062.23" y="-331.5" font-family="Helvetica,sans-Serif" font-size="10.00">hpp/constraints/convex</text>
<text text-anchor="middle" x="1113.23" y="-320.5" font-family="Helvetica,sans-Serif" font-size="10.00">&#45;shape.hh</text>
</a>
</g>
</g>
<!-- Node1&#45;&gt;Node25 -->
<g id="edge37" class="edge"><title>Node1&#45;&gt;Node25</title>
<path fill="none" stroke="midnightblue" d="M902.665,-451.821C944.17,-446.761 998.276,-435.598 1040.23,-411 1064.87,-396.551 1085.76,-370.952 1098.79,-352.29"/>
<polygon fill="midnightblue" stroke="midnightblue" points="1101.85,-354.012 1104.54,-343.765 1096.05,-350.097 1101.85,-354.012"/>
</g>
<!-- Node4 -->
<g id="node4" class="node"><title>Node4</title>
<g id="a_node4"><a doxygen="/local/devel/hpp/install/share/doc/hpp-pinocchio/doxygen-html/hpp-pinocchio.doxytag:../../hpp-pinocchio/doxygen-html/" xlink:href="../../hpp-pinocchio/doxygen-html/a00098.html" target="_top" xlink:title="hpp/pinocchio/fwd.hh">
<polygon fill="white" stroke="black" points="482.729,-0.5 482.729,-19.5 591.729,-19.5 591.729,-0.5 482.729,-0.5"/>
<text text-anchor="middle" x="537.229" y="-7.5" font-family="Helvetica,sans-Serif" font-size="10.00">hpp/pinocchio/fwd.hh</text>
</a>
</g>
</g>
<!-- Node3&#45;&gt;Node4 -->
<g id="edge3" class="edge"><title>Node3&#45;&gt;Node4</title>
<path fill="none" stroke="midnightblue" d="M638.915,-251.79C623.945,-226.924 580.91,-153.133 556.229,-87 549.112,-67.9286 543.822,-45.1791 540.656,-29.5714"/>
<polygon fill="midnightblue" stroke="midnightblue" points="544.067,-28.7759 538.73,-19.6235 537.195,-30.1065 544.067,-28.7759"/>
</g>
<!-- Node3&#45;&gt;Node5 -->
<g id="edge4" class="edge"><title>Node3&#45;&gt;Node5</title>
<path fill="none" stroke="midnightblue" d="M607.294,-251.955C597.252,-249.815 586.354,-247.659 576.229,-246 453.853,-225.945 310.954,-211.048 222.516,-202.813"/>
<polygon fill="midnightblue" stroke="midnightblue" points="222.818,-199.326 212.538,-201.891 222.174,-206.297 222.818,-199.326"/>
</g>
<!-- Node7&#45;&gt;Node3 -->
<g id="edge11" class="edge"><title>Node7&#45;&gt;Node3</title>
<path fill="none" stroke="midnightblue" d="M779.948,-392.368C741.533,-387.804 693.238,-375.561 663.229,-344 647.311,-327.259 643.837,-299.874 643.489,-281.525"/>
<polygon fill="midnightblue" stroke="midnightblue" points="646.99,-281.48 643.594,-271.444 639.99,-281.407 646.99,-281.48"/>
</g>
<!-- Node7&#45;&gt;Node6 -->
<g id="edge12" class="edge"><title>Node7&#45;&gt;Node6</title>
<path fill="none" stroke="midnightblue" d="M898.338,-390.606C967.335,-384.958 1084.35,-371.941 1181.23,-344 1241.03,-326.754 1306.75,-294.295 1341.5,-275.974"/>
<polygon fill="midnightblue" stroke="midnightblue" points="1343.26,-278.997 1350.44,-271.206 1339.97,-272.82 1343.26,-278.997"/>
</g>
<!-- Node8 -->
<g id="node8" class="node"><title>Node8</title>
<polygon fill="white" stroke="#bfbfbf" points="870.729,-319 870.729,-338 997.729,-338 997.729,-319 870.729,-319"/>
<text text-anchor="middle" x="934.229" y="-326" font-family="Helvetica,sans-Serif" font-size="10.00">pinocchio/spatial/se3.hpp</text>
</g>
<!-- Node7&#45;&gt;Node8 -->
<g id="edge8" class="edge"><title>Node7&#45;&gt;Node8</title>
<path fill="none" stroke="midnightblue" d="M859.843,-380.396C875.626,-369.597 897.316,-354.756 913.202,-343.887"/>
<polygon fill="midnightblue" stroke="midnightblue" points="915.519,-346.542 921.796,-338.007 911.566,-340.765 915.519,-346.542"/>
</g>
<!-- Node9 -->
<g id="node9" class="node"><title>Node9</title>
<g id="a_node9"><a doxygen="/local/devel/hpp/install/share/doc/hpp-pinocchio/doxygen-html/hpp-pinocchio.doxytag:../../hpp-pinocchio/doxygen-html/" xlink:href="../../hpp-pinocchio/doxygen-html/a00102.html" target="_top" xlink:title="hpp/pinocchio/joint.hh">
<polygon fill="white" stroke="black" points="913.729,-252 913.729,-271 1024.73,-271 1024.73,-252 913.729,-252"/>
<text text-anchor="middle" x="969.229" y="-259" font-family="Helvetica,sans-Serif" font-size="10.00">hpp/pinocchio/joint.hh</text>
</a>
</g>
</g>
<!-- Node7&#45;&gt;Node9 -->
<g id="edge9" class="edge"><title>Node7&#45;&gt;Node9</title>
<path fill="none" stroke="midnightblue" d="M839.525,-380.477C840.609,-362.81 844.924,-332.416 861.229,-313 877.043,-294.169 901.439,-281.94 923.046,-274.241"/>
<polygon fill="midnightblue" stroke="midnightblue" points="924.354,-277.494 932.736,-271.015 922.143,-270.853 924.354,-277.494"/>
</g>
<!-- Node7&#45;&gt;Node10 -->
<g id="edge13" class="edge"><title>Node7&#45;&gt;Node10</title>
<path fill="none" stroke="midnightblue" d="M818.399,-380.396C804.938,-371.282 787.227,-359.29 772.378,-349.236"/>
<polygon fill="midnightblue" stroke="midnightblue" points="774.262,-346.285 764.019,-343.577 770.337,-352.081 774.262,-346.285"/>
</g>
<!-- Node18 -->
<g id="node18" class="node"><title>Node18</title>
<g id="a_node18"><a xlink:href="a00127.html" target="_top" xlink:title="hpp/constraints/matrix\l&#45;view.hh">
<polygon fill="white" stroke="black" points="375.729,-313.5 375.729,-343.5 488.729,-343.5 488.729,-313.5 375.729,-313.5"/>
<text text-anchor="start" x="383.729" y="-331.5" font-family="Helvetica,sans-Serif" font-size="10.00">hpp/constraints/matrix</text>
<text text-anchor="middle" x="432.229" y="-320.5" font-family="Helvetica,sans-Serif" font-size="10.00">&#45;view.hh</text>
</a>
</g>
</g>
<!-- Node7&#45;&gt;Node18 -->
<g id="edge25" class="edge"><title>Node7&#45;&gt;Node18</title>
<path fill="none" stroke="midnightblue" d="M780.048,-385.048C705.355,-373.12 577.22,-352.656 499.072,-340.175"/>
<polygon fill="midnightblue" stroke="midnightblue" points="499.284,-336.665 488.858,-338.544 498.18,-343.577 499.284,-336.665"/>
</g>
<!-- Node9&#45;&gt;Node4 -->
<g id="edge10" class="edge"><title>Node9&#45;&gt;Node4</title>
<path fill="none" stroke="midnightblue" d="M980.572,-251.992C1019.12,-222.118 1139.46,-120.345 1080.23,-56 1048.42,-21.4499 739.24,-13.4239 602.135,-11.5616"/>
<polygon fill="midnightblue" stroke="midnightblue" points="601.822,-8.05739 591.777,-11.4283 601.731,-15.0568 601.822,-8.05739"/>
</g>
<!-- Node10&#45;&gt;Node3 -->
<g id="edge14" class="edge"><title>Node10&#45;&gt;Node3</title>
<path fill="none" stroke="midnightblue" d="M721.748,-313.396C705.146,-302.496 682.274,-287.479 665.679,-276.584"/>
<polygon fill="midnightblue" stroke="midnightblue" points="667.466,-273.57 657.186,-271.007 663.624,-279.421 667.466,-273.57"/>
</g>
<!-- Node10&#45;&gt;Node6 -->
<g id="edge15" class="edge"><title>Node10&#45;&gt;Node6</title>
<path fill="none" stroke="midnightblue" d="M814.313,-318.309C829.766,-316.438 846.036,-314.566 861.229,-313 1052.88,-293.247 1102.44,-303.811 1293.23,-277 1301.06,-275.9 1309.31,-274.498 1317.34,-273.001"/>
<polygon fill="midnightblue" stroke="midnightblue" points="1318.19,-276.402 1327.35,-271.069 1316.86,-269.528 1318.19,-276.402"/>
</g>
<!-- Node11 -->
<g id="node11" class="node"><title>Node11</title>
<g id="a_node11"><a doxygen="/local/devel/hpp/install/share/doc/hpp-pinocchio/doxygen-html/hpp-pinocchio.doxytag:../../hpp-pinocchio/doxygen-html/" xlink:href="../../hpp-pinocchio/doxygen-html/a00103.html" target="_top" xlink:title="hpp/pinocchio/liegroup\l&#45;element.hh">
<polygon fill="white" stroke="black" points="720.729,-246.5 720.729,-276.5 833.729,-276.5 833.729,-246.5 720.729,-246.5"/>
<text text-anchor="start" x="728.729" y="-264.5" font-family="Helvetica,sans-Serif" font-size="10.00">hpp/pinocchio/liegroup</text>
<text text-anchor="middle" x="777.229" y="-253.5" font-family="Helvetica,sans-Serif" font-size="10.00">&#45;element.hh</text>
</a>
</g>
</g>
<!-- Node10&#45;&gt;Node11 -->
<g id="edge16" class="edge"><title>Node10&#45;&gt;Node11</title>
<path fill="none" stroke="midnightblue" d="M750.607,-313.396C754.839,-305.304 760.259,-294.944 765.102,-285.685"/>
<polygon fill="midnightblue" stroke="midnightblue" points="768.332,-287.06 769.866,-276.577 762.13,-283.815 768.332,-287.06"/>
</g>
<!-- Node12 -->
<g id="node12" class="node"><title>Node12</title>
<g id="a_node12"><a doxygen="/local/devel/hpp/install/share/doc/hpp-pinocchio/doxygen-html/hpp-pinocchio.doxytag:../../hpp-pinocchio/doxygen-html/" xlink:href="../../hpp-pinocchio/doxygen-html/a00104.html" target="_top" xlink:title="hpp/pinocchio/liegroup\l&#45;space.hh">
<polygon fill="white" stroke="black" points="708.729,-179.5 708.729,-209.5 821.729,-209.5 821.729,-179.5 708.729,-179.5"/>
<text text-anchor="start" x="716.729" y="-197.5" font-family="Helvetica,sans-Serif" font-size="10.00">hpp/pinocchio/liegroup</text>
<text text-anchor="middle" x="765.229" y="-186.5" font-family="Helvetica,sans-Serif" font-size="10.00">&#45;space.hh</text>
</a>
</g>
</g>
<!-- Node11&#45;&gt;Node12 -->
<g id="edge17" class="edge"><title>Node11&#45;&gt;Node12</title>
<path fill="none" stroke="midnightblue" d="M774.625,-246.396C773.179,-238.56 771.339,-228.596 769.672,-219.565"/>
<polygon fill="midnightblue" stroke="midnightblue" points="773.085,-218.775 767.828,-209.577 766.202,-220.046 773.085,-218.775"/>
</g>
<!-- Node12&#45;&gt;Node4 -->
<g id="edge24" class="edge"><title>Node12&#45;&gt;Node4</title>
<path fill="none" stroke="midnightblue" d="M710.266,-179.475C662.545,-164.457 595.158,-135.91 556.229,-87 543.154,-70.5724 538.939,-46.3206 537.653,-29.6548"/>
<polygon fill="midnightblue" stroke="midnightblue" points="541.142,-29.3355 537.158,-19.5182 534.15,-29.6772 541.142,-29.3355"/>
</g>
<!-- Node13 -->
<g id="node13" class="node"><title>Node13</title>
<g id="a_node13"><a doxygen="/local/devel/hpp/install/share/doc/hpp-pinocchio/doxygen-html/hpp-pinocchio.doxytag:../../hpp-pinocchio/doxygen-html/" xlink:href="../../hpp-pinocchio/doxygen-html/a00105.html" target="_top" xlink:title="hpp/pinocchio/liegroup.hh">
<polygon fill="white" stroke="black" points="701.729,-123.5 701.729,-142.5 828.729,-142.5 828.729,-123.5 701.729,-123.5"/>
<text text-anchor="middle" x="765.229" y="-130.5" font-family="Helvetica,sans-Serif" font-size="10.00">hpp/pinocchio/liegroup.hh</text>
</a>
</g>
</g>
<!-- Node12&#45;&gt;Node13 -->
<g id="edge18" class="edge"><title>Node12&#45;&gt;Node13</title>
<path fill="none" stroke="midnightblue" d="M765.229,-179.399C765.229,-171.466 765.229,-161.458 765.229,-152.858"/>
<polygon fill="midnightblue" stroke="midnightblue" points="768.729,-152.658 765.229,-142.658 761.729,-152.658 768.729,-152.658"/>
</g>
<!-- Node14 -->
<g id="node14" class="node"><title>Node14</title>
<g id="a_node14"><a doxygen="/local/devel/hpp/install/share/doc/hpp-pinocchio/doxygen-html/hpp-pinocchio.doxytag:../../hpp-pinocchio/doxygen-html/" xlink:href="../../hpp-pinocchio/doxygen-html/a00114.html" target="_top" xlink:title="hpp/pinocchio/liegroup\l/vector&#45;space.hh">
<polygon fill="white" stroke="black" points="565.729,-56.5 565.729,-86.5 678.729,-86.5 678.729,-56.5 565.729,-56.5"/>
<text text-anchor="start" x="573.729" y="-74.5" font-family="Helvetica,sans-Serif" font-size="10.00">hpp/pinocchio/liegroup</text>
<text text-anchor="middle" x="622.229" y="-63.5" font-family="Helvetica,sans-Serif" font-size="10.00">/vector&#45;space.hh</text>
</a>
</g>
</g>
<!-- Node13&#45;&gt;Node14 -->
<g id="edge19" class="edge"><title>Node13&#45;&gt;Node14</title>
<path fill="none" stroke="midnightblue" d="M744.741,-123.475C724.106,-114.889 691.645,-101.383 665.319,-90.4291"/>
<polygon fill="midnightblue" stroke="midnightblue" points="666.509,-87.1332 655.931,-86.523 663.82,-93.596 666.509,-87.1332"/>
</g>
<!-- Node15 -->
<g id="node15" class="node"><title>Node15</title>
<g id="a_node15"><a doxygen="/local/devel/hpp/install/share/doc/hpp-pinocchio/doxygen-html/hpp-pinocchio.doxytag:../../hpp-pinocchio/doxygen-html/" xlink:href="../../hpp-pinocchio/doxygen-html/a00089.html" target="_top" xlink:title="hpp/pinocchio/liegroup\l/cartesian&#45;product.hh">
<polygon fill="white" stroke="black" points="958.729,-56.5 958.729,-86.5 1071.73,-86.5 1071.73,-56.5 958.729,-56.5"/>
<text text-anchor="start" x="966.729" y="-74.5" font-family="Helvetica,sans-Serif" font-size="10.00">hpp/pinocchio/liegroup</text>
<text text-anchor="middle" x="1015.23" y="-63.5" font-family="Helvetica,sans-Serif" font-size="10.00">/cartesian&#45;product.hh</text>
</a>
</g>
</g>
<!-- Node13&#45;&gt;Node15 -->
<g id="edge21" class="edge"><title>Node13&#45;&gt;Node15</title>
<path fill="none" stroke="midnightblue" d="M801.048,-123.475C839.493,-114.325 901.421,-99.5862 948.822,-88.3049"/>
<polygon fill="midnightblue" stroke="midnightblue" points="949.785,-91.6736 958.703,-85.9533 948.164,-84.8638 949.785,-91.6736"/>
</g>
<!-- Node16 -->
<g id="node16" class="node"><title>Node16</title>
<g id="a_node16"><a doxygen="/local/devel/hpp/install/share/doc/hpp-pinocchio/doxygen-html/hpp-pinocchio.doxytag:../../hpp-pinocchio/doxygen-html/" xlink:href="../../hpp-pinocchio/doxygen-html/a00111.html" target="_top" xlink:title="hpp/pinocchio/liegroup\l/special&#45;orthogonal.hh">
<polygon fill="white" stroke="black" points="696.729,-56.5 696.729,-86.5 809.729,-86.5 809.729,-56.5 696.729,-56.5"/>
<text text-anchor="start" x="704.729" y="-74.5" font-family="Helvetica,sans-Serif" font-size="10.00">hpp/pinocchio/liegroup</text>
<text text-anchor="middle" x="753.229" y="-63.5" font-family="Helvetica,sans-Serif" font-size="10.00">/special&#45;orthogonal.hh</text>
</a>
</g>
</g>
<!-- Node13&#45;&gt;Node16 -->
<g id="edge22" class="edge"><title>Node13&#45;&gt;Node16</title>
<path fill="none" stroke="midnightblue" d="M763.51,-123.475C762.082,-116.396 759.979,-105.97 758.047,-96.3896"/>
<polygon fill="midnightblue" stroke="midnightblue" points="761.465,-95.6336 756.057,-86.523 754.603,-97.0176 761.465,-95.6336"/>
</g>
<!-- Node17 -->
<g id="node17" class="node"><title>Node17</title>
<g id="a_node17"><a doxygen="/local/devel/hpp/install/share/doc/hpp-pinocchio/doxygen-html/hpp-pinocchio.doxytag:../../hpp-pinocchio/doxygen-html/" xlink:href="../../hpp-pinocchio/doxygen-html/a00110.html" target="_top" xlink:title="hpp/pinocchio/liegroup\l/special&#45;euclidean.hh">
<polygon fill="white" stroke="black" points="827.729,-56.5 827.729,-86.5 940.729,-86.5 940.729,-56.5 827.729,-56.5"/>
<text text-anchor="start" x="835.729" y="-74.5" font-family="Helvetica,sans-Serif" font-size="10.00">hpp/pinocchio/liegroup</text>
<text text-anchor="middle" x="884.229" y="-63.5" font-family="Helvetica,sans-Serif" font-size="10.00">/special&#45;euclidean.hh</text>
</a>
</g>
</g>
<!-- Node13&#45;&gt;Node17 -->
<g id="edge23" class="edge"><title>Node13&#45;&gt;Node17</title>
<path fill="none" stroke="midnightblue" d="M782.279,-123.475C799.149,-115.04 825.519,-101.855 847.213,-91.008"/>
<polygon fill="midnightblue" stroke="midnightblue" points="848.804,-94.1257 856.183,-86.523 845.674,-87.8647 848.804,-94.1257"/>
</g>
<!-- Node14&#45;&gt;Node4 -->
<g id="edge20" class="edge"><title>Node14&#45;&gt;Node4</title>
<path fill="none" stroke="midnightblue" d="M602.085,-56.3993C588.842,-47.1293 571.551,-35.0254 558.153,-25.6469"/>
<polygon fill="midnightblue" stroke="midnightblue" points="559.797,-22.5251 549.597,-19.6578 555.783,-28.2598 559.797,-22.5251"/>
</g>
<!-- Node18&#45;&gt;Node2 -->
<g id="edge27" class="edge"><title>Node18&#45;&gt;Node2</title>
<path fill="none" stroke="midnightblue" d="M488.994,-325.913C569.121,-322.464 719.332,-311.543 842.229,-277 844.376,-276.397 846.562,-275.67 848.733,-274.867"/>
<polygon fill="midnightblue" stroke="midnightblue" points="850.098,-278.09 857.98,-271.01 847.403,-271.63 850.098,-278.09"/>
</g>
<!-- Node18&#45;&gt;Node3 -->
<g id="edge32" class="edge"><title>Node18&#45;&gt;Node3</title>
<path fill="none" stroke="midnightblue" d="M477.969,-313.476C516.466,-301.673 570.842,-285.001 606.79,-273.979"/>
<polygon fill="midnightblue" stroke="midnightblue" points="607.878,-277.306 616.413,-271.029 605.826,-270.614 607.878,-277.306"/>
</g>
<!-- Node19 -->
<g id="node19" class="node"><title>Node19</title>
<polygon fill="white" stroke="#bfbfbf" points="502.729,-252 502.729,-271 567.729,-271 567.729,-252 502.729,-252"/>
<text text-anchor="middle" x="535.229" y="-259" font-family="Helvetica,sans-Serif" font-size="10.00">Eigen/Core</text>
</g>
<!-- Node18&#45;&gt;Node19 -->
<g id="edge26" class="edge"><title>Node18&#45;&gt;Node19</title>
<path fill="none" stroke="midnightblue" d="M454.579,-313.396C471.851,-302.496 495.648,-287.479 512.912,-276.584"/>
<polygon fill="midnightblue" stroke="midnightblue" points="515.16,-279.304 521.749,-271.007 511.424,-273.384 515.16,-279.304"/>
</g>
<!-- Node20 -->
<g id="node20" class="node"><title>Node20</title>
<polygon fill="white" stroke="#bfbfbf" points="16.2291,-252 16.2291,-271 70.2291,-271 70.2291,-252 16.2291,-252"/>
<text text-anchor="middle" x="43.2291" y="-259" font-family="Helvetica,sans-Serif" font-size="10.00">iostream</text>
</g>
<!-- Node18&#45;&gt;Node20 -->
<g id="edge28" class="edge"><title>Node18&#45;&gt;Node20</title>
<path fill="none" stroke="midnightblue" d="M375.445,-323.606C304.984,-317.813 181.616,-304.511 79.2291,-277 76.7239,-276.327 74.158,-275.528 71.6063,-274.657"/>
<polygon fill="midnightblue" stroke="midnightblue" points="72.5859,-271.286 61.9937,-271.05 70.1265,-277.84 72.5859,-271.286"/>
</g>
<!-- Node21 -->
<g id="node21" class="node"><title>Node21</title>
<polygon fill="white" stroke="#bfbfbf" points="88.7291,-252 88.7291,-271 179.729,-271 179.729,-252 88.7291,-252"/>
<text text-anchor="middle" x="134.229" y="-259" font-family="Helvetica,sans-Serif" font-size="10.00">hpp/util/indent.hh</text>
</g>
<!-- Node18&#45;&gt;Node21 -->
<g id="edge29" class="edge"><title>Node18&#45;&gt;Node21</title>
<path fill="none" stroke="midnightblue" d="M375.576,-316.607C326.208,-306.906 252.77,-291.967 189.229,-277 184.784,-275.953 180.149,-274.811 175.539,-273.642"/>
<polygon fill="midnightblue" stroke="midnightblue" points="176.127,-270.179 165.569,-271.069 174.377,-276.957 176.127,-270.179"/>
</g>
<!-- Node22 -->
<g id="node22" class="node"><title>Node22</title>
<g id="a_node22"><a doxygen="/local/devel/hpp/install/share/doc/hpp-pinocchio/doxygen-html/hpp-pinocchio.doxytag:../../hpp-pinocchio/doxygen-html/" xlink:href="../../hpp-pinocchio/doxygen-html/a00113.html" target="_top" xlink:title="hpp/pinocchio/util.hh">
<polygon fill="white" stroke="black" points="379.229,-185 379.229,-204 485.229,-204 485.229,-185 379.229,-185"/>
<text text-anchor="middle" x="432.229" y="-192" font-family="Helvetica,sans-Serif" font-size="10.00">hpp/pinocchio/util.hh</text>
</a>
</g>
</g>
<!-- Node18&#45;&gt;Node22 -->
<g id="edge30" class="edge"><title>Node18&#45;&gt;Node22</title>
<path fill="none" stroke="midnightblue" d="M406.087,-313.371C393.024,-304.757 378.485,-292.427 371.229,-277 365.365,-264.532 365.365,-258.468 371.229,-246 378.551,-230.433 393.288,-218.019 406.443,-209.395"/>
<polygon fill="midnightblue" stroke="midnightblue" points="408.488,-212.247 415.186,-204.038 404.831,-206.278 408.488,-212.247"/>
</g>
<!-- Node23 -->
<g id="node23" class="node"><title>Node23</title>
<g id="a_node23"><a xlink:href="a00126.html" target="_top" xlink:title="hpp/constraints/impl\l/matrix&#45;view.hh">
<polygon fill="white" stroke="black" points="380.229,-246.5 380.229,-276.5 484.229,-276.5 484.229,-246.5 380.229,-246.5"/>
<text text-anchor="start" x="388.229" y="-264.5" font-family="Helvetica,sans-Serif" font-size="10.00">hpp/constraints/impl</text>
<text text-anchor="middle" x="432.229" y="-253.5" font-family="Helvetica,sans-Serif" font-size="10.00">/matrix&#45;view.hh</text>
</a>
</g>
</g>
<!-- Node18&#45;&gt;Node23 -->
<g id="edge33" class="edge"><title>Node18&#45;&gt;Node23</title>
<path fill="none" stroke="midnightblue" d="M432.229,-313.396C432.229,-305.645 432.229,-295.812 432.229,-286.86"/>
<polygon fill="midnightblue" stroke="midnightblue" points="435.729,-286.576 432.229,-276.577 428.729,-286.577 435.729,-286.576"/>
</g>
<!-- Node24 -->
<g id="node24" class="node"><title>Node24</title>
<g id="a_node24"><a xlink:href="a00125.html" target="_top" xlink:title="hpp/constraints/impl\l/matrix&#45;view&#45;operation.hh">
<polygon fill="white" stroke="black" points="198.229,-246.5 198.229,-276.5 324.229,-276.5 324.229,-246.5 198.229,-246.5"/>
<text text-anchor="start" x="206.229" y="-264.5" font-family="Helvetica,sans-Serif" font-size="10.00">hpp/constraints/impl</text>
<text text-anchor="middle" x="261.229" y="-253.5" font-family="Helvetica,sans-Serif" font-size="10.00">/matrix&#45;view&#45;operation.hh</text>
</a>
</g>
</g>
<!-- Node18&#45;&gt;Node24 -->
<g id="edge35" class="edge"><title>Node18&#45;&gt;Node24</title>
<path fill="none" stroke="midnightblue" d="M395.125,-313.396C369.467,-303.643 335.14,-290.595 307.667,-280.152"/>
<polygon fill="midnightblue" stroke="midnightblue" points="308.852,-276.858 298.261,-276.577 306.365,-283.401 308.852,-276.858"/>
</g>
<!-- Node22&#45;&gt;Node4 -->
<g id="edge31" class="edge"><title>Node22&#45;&gt;Node4</title>
<path fill="none" stroke="midnightblue" d="M437.294,-184.698C453.614,-156.331 505.044,-66.9405 527.063,-28.6693"/>
<polygon fill="midnightblue" stroke="midnightblue" points="530.262,-30.1273 532.216,-19.714 524.195,-26.6364 530.262,-30.1273"/>
</g>
<!-- Node23&#45;&gt;Node22 -->
<g id="edge34" class="edge"><title>Node23&#45;&gt;Node22</title>
<path fill="none" stroke="midnightblue" d="M432.229,-246.396C432.229,-237.064 432.229,-224.714 432.229,-214.517"/>
<polygon fill="midnightblue" stroke="midnightblue" points="435.729,-214.195 432.229,-204.195 428.729,-214.195 435.729,-214.195"/>
</g>
<!-- Node25&#45;&gt;Node2 -->
<g id="edge38" class="edge"><title>Node25&#45;&gt;Node2</title>
<path fill="none" stroke="midnightblue" d="M1054.02,-314.672C1002.34,-303.204 931.468,-286.747 904.229,-277 902.799,-276.488 901.347,-275.929 899.893,-275.338"/>
<polygon fill="midnightblue" stroke="midnightblue" points="901.021,-272.008 890.463,-271.124 898.165,-278.399 901.021,-272.008"/>
</g>
<!-- Node25&#45;&gt;Node3 -->
<g id="edge42" class="edge"><title>Node25&#45;&gt;Node3</title>
<path fill="none" stroke="midnightblue" d="M1054.1,-319.345C1038.53,-317.237 1021.75,-314.999 1006.23,-313 875.227,-296.131 841.469,-298.992 711.229,-277 704.527,-275.868 697.481,-274.52 690.578,-273.108"/>
<polygon fill="midnightblue" stroke="midnightblue" points="691.13,-269.647 680.623,-271.011 689.687,-276.497 691.13,-269.647"/>
</g>
<!-- Node25&#45;&gt;Node6 -->
<g id="edge43" class="edge"><title>Node25&#45;&gt;Node6</title>
<path fill="none" stroke="midnightblue" d="M1167.81,-313.476C1214.35,-301.521 1280.32,-284.573 1323.19,-273.558"/>
<polygon fill="midnightblue" stroke="midnightblue" points="1324.22,-276.907 1333.03,-271.029 1322.48,-270.127 1324.22,-276.907"/>
</g>
<!-- Node25&#45;&gt;Node9 -->
<g id="edge41" class="edge"><title>Node25&#45;&gt;Node9</title>
<path fill="none" stroke="midnightblue" d="M1081.98,-313.396C1056.83,-302.041 1021.78,-286.22 997.461,-275.244"/>
<polygon fill="midnightblue" stroke="midnightblue" points="998.63,-271.931 988.075,-271.007 995.75,-278.311 998.63,-271.931"/>
</g>
<!-- Node26 -->
<g id="node26" class="node"><title>Node26</title>
<polygon fill="white" stroke="#bfbfbf" points="1042.73,-246.5 1042.73,-276.5 1163.73,-276.5 1163.73,-246.5 1042.73,-246.5"/>
<text text-anchor="start" x="1050.73" y="-264.5" font-family="Helvetica,sans-Serif" font-size="10.00">hpp/fcl/shape/geometric</text>
<text text-anchor="middle" x="1103.23" y="-253.5" font-family="Helvetica,sans-Serif" font-size="10.00">_shapes.h</text>
</g>
<!-- Node25&#45;&gt;Node26 -->
<g id="edge39" class="edge"><title>Node25&#45;&gt;Node26</title>
<path fill="none" stroke="midnightblue" d="M1111.06,-313.396C1109.85,-305.56 1108.32,-295.596 1106.93,-286.565"/>
<polygon fill="midnightblue" stroke="midnightblue" points="1110.37,-285.928 1105.39,-276.577 1103.46,-286.992 1110.37,-285.928"/>
</g>
<!-- Node27 -->
<g id="node27" class="node"><title>Node27</title>
<polygon fill="white" stroke="#bfbfbf" points="1181.73,-246.5 1181.73,-276.5 1284.73,-276.5 1284.73,-246.5 1181.73,-246.5"/>
<text text-anchor="start" x="1189.73" y="-264.5" font-family="Helvetica,sans-Serif" font-size="10.00">pinocchio/multibody</text>
<text text-anchor="middle" x="1233.23" y="-253.5" font-family="Helvetica,sans-Serif" font-size="10.00">/model.hpp</text>
</g>
<!-- Node25&#45;&gt;Node27 -->
<g id="edge40" class="edge"><title>Node25&#45;&gt;Node27</title>
<path fill="none" stroke="midnightblue" d="M1139.27,-313.396C1156.56,-304.026 1179.48,-291.615 1198.35,-281.395"/>
<polygon fill="midnightblue" stroke="midnightblue" points="1200.12,-284.417 1207.24,-276.577 1196.78,-278.262 1200.12,-284.417"/>
</g>
</g>
</svg>
