<?xml version="1.0" encoding="UTF-8" standalone="no"?>
<!DOCTYPE svg PUBLIC "-//W3C//DTD SVG 1.1//EN"
 "http://www.w3.org/Graphics/SVG/1.1/DTD/svg11.dtd">
<!-- Generated by graphviz version 2.38.0 (20140413.2041)
 -->
<!-- Title: explicit.hh Pages: 1 -->
<svg width="345pt" height="196pt"
 viewBox="0.00 0.00 345.00 196.00" xmlns="http://www.w3.org/2000/svg" xmlns:xlink="http://www.w3.org/1999/xlink">
<g id="graph0" class="graph" transform="scale(1 1) rotate(0) translate(4 192)">
<title>explicit.hh</title>
<polygon fill="white" stroke="none" points="-4,4 -4,-192 341,-192 341,4 -4,4"/>
<!-- Node1 -->
<g id="node1" class="node"><title>Node1</title>
<polygon fill="#bfbfbf" stroke="black" points="137.5,-168.5 137.5,-187.5 198.5,-187.5 198.5,-168.5 137.5,-168.5"/>
<text text-anchor="middle" x="168" y="-175.5" font-family="Helvetica,sans-Serif" font-size="10.00">explicit.hh</text>
</g>
<!-- Node2 -->
<g id="node2" class="node"><title>Node2</title>
<g id="a_node2"><a xlink:href="a00131.html" target="_top" xlink:title="relative&#45;pose.hh">
<polygon fill="white" stroke="black" points="0,-112.5 0,-131.5 86,-131.5 86,-112.5 0,-112.5"/>
<text text-anchor="middle" x="43" y="-119.5" font-family="Helvetica,sans-Serif" font-size="10.00">relative&#45;pose.hh</text>
</a>
</g>
</g>
<!-- Node1&#45;&gt;Node2 -->
<g id="edge1" class="edge"><title>Node1&#45;&gt;Node2</title>
<path fill="none" stroke="midnightblue" d="M138.759,-164.368C115.35,-154.255 83.1587,-140.349 62.714,-131.516"/>
<polygon fill="midnightblue" stroke="midnightblue" points="137.625,-167.691 148.193,-168.444 140.401,-161.265 137.625,-167.691"/>
</g>
<!-- Node3 -->
<g id="node3" class="node"><title>Node3</title>
<g id="a_node3"><a xlink:href="a00133.html" target="_top" xlink:title="relative&#45;transformation.hh">
<polygon fill="white" stroke="black" points="104.5,-112.5 104.5,-131.5 231.5,-131.5 231.5,-112.5 104.5,-112.5"/>
<text text-anchor="middle" x="168" y="-119.5" font-family="Helvetica,sans-Serif" font-size="10.00">relative&#45;transformation.hh</text>
</a>
</g>
</g>
<!-- Node1&#45;&gt;Node3 -->
<g id="edge2" class="edge"><title>Node1&#45;&gt;Node3</title>
<path fill="none" stroke="midnightblue" d="M168,-157.805C168,-148.91 168,-138.78 168,-131.751"/>
<polygon fill="midnightblue" stroke="midnightblue" points="164.5,-158.083 168,-168.083 171.5,-158.083 164.5,-158.083"/>
</g>
<!-- Node4 -->
<g id="node4" class="node"><title>Node4</title>
<g id="a_node4"><a xlink:href="a00121.html" target="_top" xlink:title="locked&#45;joint.hh">
<polygon fill="white" stroke="black" points="250,-112.5 250,-131.5 330,-131.5 330,-112.5 250,-112.5"/>
<text text-anchor="middle" x="290" y="-119.5" font-family="Helvetica,sans-Serif" font-size="10.00">locked&#45;joint.hh</text>
</a>
</g>
</g>
<!-- Node1&#45;&gt;Node4 -->
<g id="edge3" class="edge"><title>Node1&#45;&gt;Node4</title>
<path fill="none" stroke="midnightblue" d="M196.539,-164.368C219.386,-154.255 250.805,-140.349 270.759,-131.516"/>
<polygon fill="midnightblue" stroke="midnightblue" points="195.059,-161.196 187.331,-168.444 197.892,-167.597 195.059,-161.196"/>
</g>
<!-- Node5 -->
<g id="node5" class="node"><title>Node5</title>
<g id="a_node5"><a xlink:href="a00097.html" target="_top" xlink:title="by&#45;substitution.hh">
<polygon fill="white" stroke="black" points="243,-56.5 243,-75.5 337,-75.5 337,-56.5 243,-56.5"/>
<text text-anchor="middle" x="290" y="-63.5" font-family="Helvetica,sans-Serif" font-size="10.00">by&#45;substitution.hh</text>
</a>
</g>
</g>
<!-- Node4&#45;&gt;Node5 -->
<g id="edge4" class="edge"><title>Node4&#45;&gt;Node5</title>
<path fill="none" stroke="midnightblue" d="M290,-101.805C290,-92.9102 290,-82.7798 290,-75.7511"/>
<polygon fill="midnightblue" stroke="midnightblue" points="286.5,-102.083 290,-112.083 293.5,-102.083 286.5,-102.083"/>
</g>
<!-- Node6 -->
<g id="node6" class="node"><title>Node6</title>
<g id="a_node6"><a xlink:href="a00116.html" target="_top" xlink:title="hybrid&#45;solver.hh">
<polygon fill="white" stroke="black" points="247,-0.5 247,-19.5 333,-19.5 333,-0.5 247,-0.5"/>
<text text-anchor="middle" x="290" y="-7.5" font-family="Helvetica,sans-Serif" font-size="10.00">hybrid&#45;solver.hh</text>
</a>
</g>
</g>
<!-- Node5&#45;&gt;Node6 -->
<g id="edge5" class="edge"><title>Node5&#45;&gt;Node6</title>
<path fill="none" stroke="midnightblue" d="M290,-45.8045C290,-36.9102 290,-26.7798 290,-19.7511"/>
<polygon fill="midnightblue" stroke="midnightblue" points="286.5,-46.083 290,-56.083 293.5,-46.083 286.5,-46.083"/>
</g>
</g>
</svg>
