<?xml version="1.0" encoding="UTF-8" standalone="no"?>
<!DOCTYPE svg PUBLIC "-//W3C//DTD SVG 1.1//EN"
 "http://www.w3.org/Graphics/SVG/1.1/DTD/svg11.dtd">
<!-- Generated by graphviz version 2.38.0 (20140413.2041)
 -->
<!-- Title: differentiable&#45;function.hh Pages: 1 -->
<svg width="645pt" height="341pt"
 viewBox="0.00 0.00 644.50 341.00" xmlns="http://www.w3.org/2000/svg" xmlns:xlink="http://www.w3.org/1999/xlink">
<g id="graph0" class="graph" transform="scale(1 1) rotate(0) translate(4 337)">
<title>differentiable&#45;function.hh</title>
<polygon fill="white" stroke="none" points="-4,4 -4,-337 640.5,-337 640.5,4 -4,4"/>
<!-- Node1 -->
<g id="node1" class="node"><title>Node1</title>
<polygon fill="#bfbfbf" stroke="black" points="135.5,-313.5 135.5,-332.5 258.5,-332.5 258.5,-313.5 135.5,-313.5"/>
<text text-anchor="middle" x="197" y="-320.5" font-family="Helvetica,sans-Serif" font-size="10.00">differentiable&#45;function.hh</text>
</g>
<!-- Node2 -->
<g id="node2" class="node"><title>Node2</title>
<g id="a_node2"><a xlink:href="a00001.html" target="_top" xlink:title="hpp/constraints/fwd.hh">
<polygon fill="white" stroke="black" points="0,-252 0,-271 116,-271 116,-252 0,-252"/>
<text text-anchor="middle" x="58" y="-259" font-family="Helvetica,sans-Serif" font-size="10.00">hpp/constraints/fwd.hh</text>
</a>
</g>
</g>
<!-- Node1&#45;&gt;Node2 -->
<g id="edge1" class="edge"><title>Node1&#45;&gt;Node2</title>
<path fill="none" stroke="midnightblue" d="M177.085,-313.475C153.551,-303.401 114.19,-286.553 87.2071,-275.002"/>
<polygon fill="midnightblue" stroke="midnightblue" points="88.4489,-271.727 77.8784,-271.009 85.6942,-278.162 88.4489,-271.727"/>
</g>
<!-- Node5 -->
<g id="node5" class="node"><title>Node5</title>
<polygon fill="white" stroke="#bfbfbf" points="134,-252 134,-271 260,-271 260,-252 134,-252"/>
<text text-anchor="middle" x="197" y="-259" font-family="Helvetica,sans-Serif" font-size="10.00">hpp/constraints/config.hh</text>
</g>
<!-- Node1&#45;&gt;Node5 -->
<g id="edge4" class="edge"><title>Node1&#45;&gt;Node5</title>
<path fill="none" stroke="midnightblue" d="M197,-313.475C197,-305.08 197,-291.981 197,-281.163"/>
<polygon fill="midnightblue" stroke="midnightblue" points="200.5,-281.009 197,-271.009 193.5,-281.009 200.5,-281.009"/>
</g>
<!-- Node6 -->
<g id="node6" class="node"><title>Node6</title>
<g id="a_node6"><a doxygen="/local/devel/hpp/install/share/doc/hpp-pinocchio/doxygen-html/hpp-pinocchio.doxytag:../../hpp-pinocchio/doxygen-html/" xlink:href="../../hpp-pinocchio/doxygen-html/a00103.html" target="_top" xlink:title="hpp/pinocchio/liegroup\l&#45;element.hh">
<polygon fill="white" stroke="black" points="278.5,-246.5 278.5,-276.5 391.5,-276.5 391.5,-246.5 278.5,-246.5"/>
<text text-anchor="start" x="286.5" y="-264.5" font-family="Helvetica,sans-Serif" font-size="10.00">hpp/pinocchio/liegroup</text>
<text text-anchor="middle" x="335" y="-253.5" font-family="Helvetica,sans-Serif" font-size="10.00">&#45;element.hh</text>
</a>
</g>
</g>
<!-- Node1&#45;&gt;Node6 -->
<g id="edge5" class="edge"><title>Node1&#45;&gt;Node6</title>
<path fill="none" stroke="midnightblue" d="M216.772,-313.475C236.598,-304.927 267.737,-291.501 293.082,-280.573"/>
<polygon fill="midnightblue" stroke="midnightblue" points="294.679,-283.696 302.476,-276.523 291.908,-277.268 294.679,-283.696"/>
</g>
<!-- Node3 -->
<g id="node3" class="node"><title>Node3</title>
<g id="a_node3"><a doxygen="/local/devel/hpp/install/share/doc/hpp-pinocchio/doxygen-html/hpp-pinocchio.doxytag:../../hpp-pinocchio/doxygen-html/" xlink:href="../../hpp-pinocchio/doxygen-html/a00098.html" target="_top" xlink:title="hpp/pinocchio/fwd.hh">
<polygon fill="white" stroke="black" points="47.5,-0.5 47.5,-19.5 156.5,-19.5 156.5,-0.5 47.5,-0.5"/>
<text text-anchor="middle" x="102" y="-7.5" font-family="Helvetica,sans-Serif" font-size="10.00">hpp/pinocchio/fwd.hh</text>
</a>
</g>
</g>
<!-- Node2&#45;&gt;Node3 -->
<g id="edge2" class="edge"><title>Node2&#45;&gt;Node3</title>
<path fill="none" stroke="midnightblue" d="M59.5146,-251.912C65.7952,-216.298 89.8755,-79.7515 98.7183,-29.6085"/>
<polygon fill="midnightblue" stroke="midnightblue" points="102.202,-30.0081 100.492,-19.5522 95.3082,-28.7924 102.202,-30.0081"/>
</g>
<!-- Node4 -->
<g id="node4" class="node"><title>Node4</title>
<polygon fill="white" stroke="#bfbfbf" points="86,-185 86,-204 234,-204 234,-185 86,-185"/>
<text text-anchor="middle" x="160" y="-192" font-family="Helvetica,sans-Serif" font-size="10.00">hpp/constraints/deprecated.hh</text>
</g>
<!-- Node2&#45;&gt;Node4 -->
<g id="edge3" class="edge"><title>Node2&#45;&gt;Node4</title>
<path fill="none" stroke="midnightblue" d="M71.7562,-251.734C88.7324,-240.916 117.814,-222.383 137.927,-209.566"/>
<polygon fill="midnightblue" stroke="midnightblue" points="139.91,-212.453 146.462,-204.127 136.148,-206.55 139.91,-212.453"/>
</g>
<!-- Node7 -->
<g id="node7" class="node"><title>Node7</title>
<g id="a_node7"><a doxygen="/local/devel/hpp/install/share/doc/hpp-pinocchio/doxygen-html/hpp-pinocchio.doxytag:../../hpp-pinocchio/doxygen-html/" xlink:href="../../hpp-pinocchio/doxygen-html/a00104.html" target="_top" xlink:title="hpp/pinocchio/liegroup\l&#45;space.hh">
<polygon fill="white" stroke="black" points="272.5,-179.5 272.5,-209.5 385.5,-209.5 385.5,-179.5 272.5,-179.5"/>
<text text-anchor="start" x="280.5" y="-197.5" font-family="Helvetica,sans-Serif" font-size="10.00">hpp/pinocchio/liegroup</text>
<text text-anchor="middle" x="329" y="-186.5" font-family="Helvetica,sans-Serif" font-size="10.00">&#45;space.hh</text>
</a>
</g>
</g>
<!-- Node6&#45;&gt;Node7 -->
<g id="edge6" class="edge"><title>Node6&#45;&gt;Node7</title>
<path fill="none" stroke="midnightblue" d="M333.698,-246.396C332.975,-238.56 332.055,-228.596 331.221,-219.565"/>
<polygon fill="midnightblue" stroke="midnightblue" points="334.704,-219.212 330.299,-209.577 327.733,-219.856 334.704,-219.212"/>
</g>
<!-- Node7&#45;&gt;Node3 -->
<g id="edge13" class="edge"><title>Node7&#45;&gt;Node3</title>
<path fill="none" stroke="midnightblue" d="M274.295,-179.404C226.8,-164.338 159.734,-135.762 121,-87 107.941,-70.5597 103.723,-46.3105 102.431,-29.6488"/>
<polygon fill="midnightblue" stroke="midnightblue" points="105.92,-29.3309 101.933,-19.5151 98.9286,-29.6752 105.92,-29.3309"/>
</g>
<!-- Node8 -->
<g id="node8" class="node"><title>Node8</title>
<g id="a_node8"><a doxygen="/local/devel/hpp/install/share/doc/hpp-pinocchio/doxygen-html/hpp-pinocchio.doxytag:../../hpp-pinocchio/doxygen-html/" xlink:href="../../hpp-pinocchio/doxygen-html/a00105.html" target="_top" xlink:title="hpp/pinocchio/liegroup.hh">
<polygon fill="white" stroke="black" points="265.5,-123.5 265.5,-142.5 392.5,-142.5 392.5,-123.5 265.5,-123.5"/>
<text text-anchor="middle" x="329" y="-130.5" font-family="Helvetica,sans-Serif" font-size="10.00">hpp/pinocchio/liegroup.hh</text>
</a>
</g>
</g>
<!-- Node7&#45;&gt;Node8 -->
<g id="edge7" class="edge"><title>Node7&#45;&gt;Node8</title>
<path fill="none" stroke="midnightblue" d="M329,-179.399C329,-171.466 329,-161.458 329,-152.858"/>
<polygon fill="midnightblue" stroke="midnightblue" points="332.5,-152.658 329,-142.658 325.5,-152.658 332.5,-152.658"/>
</g>
<!-- Node9 -->
<g id="node9" class="node"><title>Node9</title>
<g id="a_node9"><a doxygen="/local/devel/hpp/install/share/doc/hpp-pinocchio/doxygen-html/hpp-pinocchio.doxytag:../../hpp-pinocchio/doxygen-html/" xlink:href="../../hpp-pinocchio/doxygen-html/a00114.html" target="_top" xlink:title="hpp/pinocchio/liegroup\l/vector&#45;space.hh">
<polygon fill="white" stroke="black" points="130.5,-56.5 130.5,-86.5 243.5,-86.5 243.5,-56.5 130.5,-56.5"/>
<text text-anchor="start" x="138.5" y="-74.5" font-family="Helvetica,sans-Serif" font-size="10.00">hpp/pinocchio/liegroup</text>
<text text-anchor="middle" x="187" y="-63.5" font-family="Helvetica,sans-Serif" font-size="10.00">/vector&#45;space.hh</text>
</a>
</g>
</g>
<!-- Node8&#45;&gt;Node9 -->
<g id="edge8" class="edge"><title>Node8&#45;&gt;Node9</title>
<path fill="none" stroke="midnightblue" d="M308.655,-123.475C288.165,-114.889 255.93,-101.383 229.789,-90.4291"/>
<polygon fill="midnightblue" stroke="midnightblue" points="231.042,-87.1596 220.467,-86.523 228.337,-93.6157 231.042,-87.1596"/>
</g>
<!-- Node10 -->
<g id="node10" class="node"><title>Node10</title>
<g id="a_node10"><a doxygen="/local/devel/hpp/install/share/doc/hpp-pinocchio/doxygen-html/hpp-pinocchio.doxytag:../../hpp-pinocchio/doxygen-html/" xlink:href="../../hpp-pinocchio/doxygen-html/a00089.html" target="_top" xlink:title="hpp/pinocchio/liegroup\l/cartesian&#45;product.hh">
<polygon fill="white" stroke="black" points="261.5,-56.5 261.5,-86.5 374.5,-86.5 374.5,-56.5 261.5,-56.5"/>
<text text-anchor="start" x="269.5" y="-74.5" font-family="Helvetica,sans-Serif" font-size="10.00">hpp/pinocchio/liegroup</text>
<text text-anchor="middle" x="318" y="-63.5" font-family="Helvetica,sans-Serif" font-size="10.00">/cartesian&#45;product.hh</text>
</a>
</g>
</g>
<!-- Node8&#45;&gt;Node10 -->
<g id="edge10" class="edge"><title>Node8&#45;&gt;Node10</title>
<path fill="none" stroke="midnightblue" d="M327.424,-123.475C326.115,-116.396 324.188,-105.97 322.417,-96.3896"/>
<polygon fill="midnightblue" stroke="midnightblue" points="325.852,-95.72 320.592,-86.523 318.969,-96.9926 325.852,-95.72"/>
</g>
<!-- Node11 -->
<g id="node11" class="node"><title>Node11</title>
<g id="a_node11"><a doxygen="/local/devel/hpp/install/share/doc/hpp-pinocchio/doxygen-html/hpp-pinocchio.doxytag:../../hpp-pinocchio/doxygen-html/" xlink:href="../../hpp-pinocchio/doxygen-html/a00111.html" target="_top" xlink:title="hpp/pinocchio/liegroup\l/special&#45;orthogonal.hh">
<polygon fill="white" stroke="black" points="392.5,-56.5 392.5,-86.5 505.5,-86.5 505.5,-56.5 392.5,-56.5"/>
<text text-anchor="start" x="400.5" y="-74.5" font-family="Helvetica,sans-Serif" font-size="10.00">hpp/pinocchio/liegroup</text>
<text text-anchor="middle" x="449" y="-63.5" font-family="Helvetica,sans-Serif" font-size="10.00">/special&#45;orthogonal.hh</text>
</a>
</g>
</g>
<!-- Node8&#45;&gt;Node11 -->
<g id="edge11" class="edge"><title>Node8&#45;&gt;Node11</title>
<path fill="none" stroke="midnightblue" d="M346.193,-123.475C363.205,-115.04 389.796,-101.855 411.673,-91.008"/>
<polygon fill="midnightblue" stroke="midnightblue" points="413.314,-94.101 420.718,-86.523 410.204,-87.8296 413.314,-94.101"/>
</g>
<!-- Node12 -->
<g id="node12" class="node"><title>Node12</title>
<g id="a_node12"><a doxygen="/local/devel/hpp/install/share/doc/hpp-pinocchio/doxygen-html/hpp-pinocchio.doxytag:../../hpp-pinocchio/doxygen-html/" xlink:href="../../hpp-pinocchio/doxygen-html/a00110.html" target="_top" xlink:title="hpp/pinocchio/liegroup\l/special&#45;euclidean.hh">
<polygon fill="white" stroke="black" points="523.5,-56.5 523.5,-86.5 636.5,-86.5 636.5,-56.5 523.5,-56.5"/>
<text text-anchor="start" x="531.5" y="-74.5" font-family="Helvetica,sans-Serif" font-size="10.00">hpp/pinocchio/liegroup</text>
<text text-anchor="middle" x="580" y="-63.5" font-family="Helvetica,sans-Serif" font-size="10.00">/special&#45;euclidean.hh</text>
</a>
</g>
</g>
<!-- Node8&#45;&gt;Node12 -->
<g id="edge12" class="edge"><title>Node8&#45;&gt;Node12</title>
<path fill="none" stroke="midnightblue" d="M364.962,-123.475C403.561,-114.325 465.737,-99.5862 513.327,-88.3049"/>
<polygon fill="midnightblue" stroke="midnightblue" points="514.325,-91.6656 523.248,-85.9533 512.71,-84.8543 514.325,-91.6656"/>
</g>
<!-- Node9&#45;&gt;Node3 -->
<g id="edge9" class="edge"><title>Node9&#45;&gt;Node3</title>
<path fill="none" stroke="midnightblue" d="M166.856,-56.3993C153.613,-47.1293 136.322,-35.0254 122.924,-25.6469"/>
<polygon fill="midnightblue" stroke="midnightblue" points="124.568,-22.5251 114.368,-19.6578 120.553,-28.2598 124.568,-22.5251"/>
</g>
</g>
</svg>
