<?xml version="1.0" encoding="UTF-8" standalone="no"?>
<!DOCTYPE svg PUBLIC "-//W3C//DTD SVG 1.1//EN"
 "http://www.w3.org/Graphics/SVG/1.1/DTD/svg11.dtd">
<!-- Generated by graphviz version 2.38.0 (20140413.2041)
 -->
<!-- Title: fwd.hh Pages: 1 -->
<svg width="2689pt" height="386pt"
 viewBox="0.00 0.00 2689.47 386.00" xmlns="http://www.w3.org/2000/svg" xmlns:xlink="http://www.w3.org/1999/xlink">
<g id="graph0" class="graph" transform="scale(1 1) rotate(0) translate(4 382)">
<title>fwd.hh</title>
<polygon fill="white" stroke="none" points="-4,4 -4,-382 2685.47,-382 2685.47,4 -4,4"/>
<!-- Node1 -->
<g id="node1" class="node"><title>Node1</title>
<polygon fill="#bfbfbf" stroke="black" points="1216.34,-358.5 1216.34,-377.5 1262.34,-377.5 1262.34,-358.5 1216.34,-358.5"/>
<text text-anchor="middle" x="1239.34" y="-365.5" font-family="Helvetica,sans-Serif" font-size="10.00">fwd.hh</text>
</g>
<!-- Node2 -->
<g id="node2" class="node"><title>Node2</title>
<g id="a_node2"><a xlink:href="a00095.html" target="_top" xlink:title="active&#45;set&#45;differentiable\l&#45;function.hh">
<polygon fill="white" stroke="black" points="530.341,-235.5 530.341,-265.5 648.341,-265.5 648.341,-235.5 530.341,-235.5"/>
<text text-anchor="start" x="538.341" y="-253.5" font-family="Helvetica,sans-Serif" font-size="10.00">active&#45;set&#45;differentiable</text>
<text text-anchor="middle" x="589.341" y="-242.5" font-family="Helvetica,sans-Serif" font-size="10.00">&#45;function.hh</text>
</a>
</g>
</g>
<!-- Node1&#45;&gt;Node2 -->
<g id="edge1" class="edge"><title>Node1&#45;&gt;Node2</title>
<path fill="none" stroke="midnightblue" d="M1205.95,-363.068C1147.76,-356.04 1024.04,-340.331 920.341,-322 802.656,-301.196 774.226,-290.906 657.341,-266 654.507,-265.396 651.607,-264.778 648.679,-264.154"/>
<polygon fill="midnightblue" stroke="midnightblue" points="1205.69,-366.561 1216.04,-364.277 1206.53,-359.611 1205.69,-366.561"/>
</g>
<!-- Node3 -->
<g id="node3" class="node"><title>Node3</title>
<g id="a_node3"><a xlink:href="a00107.html" target="_top" xlink:title="differentiable&#45;function.hh">
<polygon fill="white" stroke="black" points="1177.84,-302.5 1177.84,-321.5 1300.84,-321.5 1300.84,-302.5 1177.84,-302.5"/>
<text text-anchor="middle" x="1239.34" y="-309.5" font-family="Helvetica,sans-Serif" font-size="10.00">differentiable&#45;function.hh</text>
</a>
</g>
</g>
<!-- Node1&#45;&gt;Node3 -->
<g id="edge2" class="edge"><title>Node1&#45;&gt;Node3</title>
<path fill="none" stroke="midnightblue" d="M1239.34,-347.805C1239.34,-338.91 1239.34,-328.78 1239.34,-321.751"/>
<polygon fill="midnightblue" stroke="midnightblue" points="1235.84,-348.083 1239.34,-358.083 1242.84,-348.083 1235.84,-348.083"/>
</g>
<!-- Node4 -->
<g id="node4" class="node"><title>Node4</title>
<g id="a_node4"><a xlink:href="a00096.html" target="_top" xlink:title="affine&#45;function.hh">
<polygon fill="white" stroke="black" points="666.341,-241 666.341,-260 758.341,-260 758.341,-241 666.341,-241"/>
<text text-anchor="middle" x="712.341" y="-248" font-family="Helvetica,sans-Serif" font-size="10.00">affine&#45;function.hh</text>
</a>
</g>
</g>
<!-- Node1&#45;&gt;Node4 -->
<g id="edge33" class="edge"><title>Node1&#45;&gt;Node4</title>
<path fill="none" stroke="midnightblue" d="M1206.33,-360.719C1162.25,-352.267 1081.8,-336.605 1013.34,-322 903.678,-298.605 876.236,-292.741 767.341,-266 759.765,-264.14 751.627,-262.047 743.995,-260.042"/>
<polygon fill="midnightblue" stroke="midnightblue" points="1205.72,-364.166 1216.2,-362.608 1207.03,-357.291 1205.72,-364.166"/>
</g>
<!-- Node5 -->
<g id="node5" class="node"><title>Node5</title>
<g id="a_node5"><a xlink:href="a00099.html" target="_top" xlink:title="com&#45;between&#45;feet.hh">
<polygon fill="white" stroke="black" points="290.341,-241 290.341,-260 398.341,-260 398.341,-241 290.341,-241"/>
<text text-anchor="middle" x="344.341" y="-248" font-family="Helvetica,sans-Serif" font-size="10.00">com&#45;between&#45;feet.hh</text>
</a>
</g>
</g>
<!-- Node1&#45;&gt;Node5 -->
<g id="edge34" class="edge"><title>Node1&#45;&gt;Node5</title>
<path fill="none" stroke="midnightblue" d="M1206.09,-366.622C1060.77,-364.775 485.376,-355.399 412.341,-322 382.803,-308.492 359.488,-275.896 349.553,-260.215"/>
<polygon fill="midnightblue" stroke="midnightblue" points="1206.14,-370.122 1216.18,-366.746 1206.23,-363.123 1206.14,-370.122"/>
</g>
<!-- Node6 -->
<g id="node6" class="node"><title>Node6</title>
<g id="a_node6"><a xlink:href="a00100.html" target="_top" xlink:title="configuration&#45;constraint.hh">
<polygon fill="white" stroke="black" points="776.841,-241 776.841,-260 907.841,-260 907.841,-241 776.841,-241"/>
<text text-anchor="middle" x="842.341" y="-248" font-family="Helvetica,sans-Serif" font-size="10.00">configuration&#45;constraint.hh</text>
</a>
</g>
</g>
<!-- Node1&#45;&gt;Node6 -->
<g id="edge40" class="edge"><title>Node1&#45;&gt;Node6</title>
<path fill="none" stroke="midnightblue" d="M1206.31,-357.391C1130.33,-335.285 944.11,-281.108 871.76,-260.059"/>
<polygon fill="midnightblue" stroke="midnightblue" points="1205.7,-360.858 1216.28,-360.291 1207.66,-354.137 1205.7,-360.858"/>
</g>
<!-- Node7 -->
<g id="node7" class="node"><title>Node7</title>
<g id="a_node7"><a xlink:href="a00113.html" target="_top" xlink:title="generic&#45;transformation.hh">
<polygon fill="white" stroke="black" points="1702.84,-241 1702.84,-260 1829.84,-260 1829.84,-241 1702.84,-241"/>
<text text-anchor="middle" x="1766.34" y="-248" font-family="Helvetica,sans-Serif" font-size="10.00">generic&#45;transformation.hh</text>
</a>
</g>
</g>
<!-- Node1&#45;&gt;Node7 -->
<g id="edge42" class="edge"><title>Node1&#45;&gt;Node7</title>
<path fill="none" stroke="midnightblue" d="M1272.47,-360.087C1314.21,-351.348 1388.14,-335.781 1451.34,-322 1551.54,-300.153 1669.45,-273.515 1728.55,-260.099"/>
<polygon fill="midnightblue" stroke="midnightblue" points="1271.64,-356.683 1262.57,-362.156 1273.08,-363.534 1271.64,-356.683"/>
</g>
<!-- Node8 -->
<g id="node8" class="node"><title>Node8</title>
<g id="a_node8"><a xlink:href="a00101.html" target="_top" xlink:title="convex&#45;shape&#45;contact.hh">
<polygon fill="white" stroke="black" points="490.341,-174 490.341,-193 616.341,-193 616.341,-174 490.341,-174"/>
<text text-anchor="middle" x="553.341" y="-181" font-family="Helvetica,sans-Serif" font-size="10.00">convex&#45;shape&#45;contact.hh</text>
</a>
</g>
</g>
<!-- Node1&#45;&gt;Node8 -->
<g id="edge41" class="edge"><title>Node1&#45;&gt;Node8</title>
<path fill="none" stroke="midnightblue" d="M1205.77,-366.229C1064.3,-362.819 522.902,-348.098 498.341,-322 461.69,-283.056 520.905,-216.625 544.4,-193.082"/>
<polygon fill="midnightblue" stroke="midnightblue" points="1205.92,-369.733 1216,-366.472 1206.08,-362.735 1205.92,-369.733"/>
</g>
<!-- Node9 -->
<g id="node9" class="node"><title>Node9</title>
<g id="a_node9"><a xlink:href="a00129.html" target="_top" xlink:title="qp&#45;static&#45;stability.hh">
<polygon fill="white" stroke="black" points="437.341,-112.5 437.341,-131.5 541.341,-131.5 541.341,-112.5 437.341,-112.5"/>
<text text-anchor="middle" x="489.341" y="-119.5" font-family="Helvetica,sans-Serif" font-size="10.00">qp&#45;static&#45;stability.hh</text>
</a>
</g>
</g>
<!-- Node1&#45;&gt;Node9 -->
<g id="edge69" class="edge"><title>Node1&#45;&gt;Node9</title>
<path fill="none" stroke="midnightblue" d="M1206.32,-366.498C1020.17,-363.577 108.408,-347.98 55.3407,-322 15.8689,-302.676 -15.4334,-271.963 8.34072,-235 54.7227,-162.888 322.212,-135.091 437.019,-126.381"/>
<polygon fill="midnightblue" stroke="midnightblue" points="1206.27,-369.998 1216.32,-366.654 1206.38,-362.999 1206.27,-369.998"/>
</g>
<!-- Node11 -->
<g id="node11" class="node"><title>Node11</title>
<g id="a_node11"><a xlink:href="a00105.html" target="_top" xlink:title="differentiable&#45;function\l&#45;set.hh">
<polygon fill="white" stroke="black" points="1848.34,-235.5 1848.34,-265.5 1958.34,-265.5 1958.34,-235.5 1848.34,-235.5"/>
<text text-anchor="start" x="1856.34" y="-253.5" font-family="Helvetica,sans-Serif" font-size="10.00">differentiable&#45;function</text>
<text text-anchor="middle" x="1903.34" y="-242.5" font-family="Helvetica,sans-Serif" font-size="10.00">&#45;set.hh</text>
</a>
</g>
</g>
<!-- Node1&#45;&gt;Node11 -->
<g id="edge52" class="edge"><title>Node1&#45;&gt;Node11</title>
<path fill="none" stroke="midnightblue" d="M1272.53,-362.048C1363.36,-348.357 1623.58,-308.203 1838.34,-266 1841.52,-265.376 1844.78,-264.715 1848.06,-264.032"/>
<polygon fill="midnightblue" stroke="midnightblue" points="1271.92,-358.601 1262.55,-363.549 1272.96,-365.523 1271.92,-358.601"/>
</g>
<!-- Node13 -->
<g id="node13" class="node"><title>Node13</title>
<g id="a_node13"><a xlink:href="a00110.html" target="_top" xlink:title="explicit&#45;constraint\l&#45;set.hh">
<polygon fill="white" stroke="black" points="2016.84,-168.5 2016.84,-198.5 2109.84,-198.5 2109.84,-168.5 2016.84,-168.5"/>
<text text-anchor="start" x="2024.84" y="-186.5" font-family="Helvetica,sans-Serif" font-size="10.00">explicit&#45;constraint</text>
<text text-anchor="middle" x="2063.34" y="-175.5" font-family="Helvetica,sans-Serif" font-size="10.00">&#45;set.hh</text>
</a>
</g>
</g>
<!-- Node1&#45;&gt;Node13 -->
<g id="edge63" class="edge"><title>Node1&#45;&gt;Node13</title>
<path fill="none" stroke="midnightblue" d="M1272.82,-364.896C1398.34,-356.619 1840.27,-323.888 1967.34,-266 1971.99,-263.881 2021.07,-221.371 2047.19,-198.609"/>
<polygon fill="midnightblue" stroke="midnightblue" points="1272.42,-361.414 1262.67,-365.557 1272.87,-368.399 1272.42,-361.414"/>
</g>
<!-- Node15 -->
<g id="node15" class="node"><title>Node15</title>
<g id="a_node15"><a xlink:href="a00097.html" target="_top" xlink:title="by&#45;substitution.hh">
<polygon fill="white" stroke="black" points="2310.34,-56.5 2310.34,-75.5 2404.34,-75.5 2404.34,-56.5 2310.34,-56.5"/>
<text text-anchor="middle" x="2357.34" y="-63.5" font-family="Helvetica,sans-Serif" font-size="10.00">by&#45;substitution.hh</text>
</a>
</g>
</g>
<!-- Node1&#45;&gt;Node15 -->
<g id="edge65" class="edge"><title>Node1&#45;&gt;Node15</title>
<path fill="none" stroke="midnightblue" d="M1272.83,-366.582C1434.68,-364.412 2131.91,-353.307 2223.34,-322 2274.79,-304.385 2323.34,-305.879 2323.34,-251.5 2323.34,-251.5 2323.34,-251.5 2323.34,-182.5 2323.34,-141.112 2343.68,-94.6535 2352.9,-75.7263"/>
<polygon fill="midnightblue" stroke="midnightblue" points="1272.48,-363.086 1262.53,-366.718 1272.58,-370.085 1272.48,-363.086"/>
</g>
<!-- Node17 -->
<g id="node17" class="node"><title>Node17</title>
<g id="a_node17"><a xlink:href="a00117.html" target="_top" xlink:title="implicit&#45;constraint\l&#45;set.hh">
<polygon fill="white" stroke="black" points="2573.84,-168.5 2573.84,-198.5 2666.84,-198.5 2666.84,-168.5 2573.84,-168.5"/>
<text text-anchor="start" x="2581.84" y="-186.5" font-family="Helvetica,sans-Serif" font-size="10.00">implicit&#45;constraint</text>
<text text-anchor="middle" x="2620.34" y="-175.5" font-family="Helvetica,sans-Serif" font-size="10.00">&#45;set.hh</text>
</a>
</g>
</g>
<!-- Node1&#45;&gt;Node17 -->
<g id="edge67" class="edge"><title>Node1&#45;&gt;Node17</title>
<path fill="none" stroke="midnightblue" d="M1272.7,-366.702C1459.08,-364.915 2367.26,-354.586 2487.34,-322 2538.01,-308.251 2557.15,-305.834 2591.34,-266 2608.17,-246.399 2615.47,-216.347 2618.46,-198.735"/>
<polygon fill="midnightblue" stroke="midnightblue" points="1272.4,-363.204 1262.44,-366.798 1272.47,-370.204 1272.4,-363.204"/>
</g>
<!-- Node18 -->
<g id="node18" class="node"><title>Node18</title>
<g id="a_node18"><a xlink:href="a00114.html" target="_top" xlink:title="hierarchical&#45;iterative.hh">
<polygon fill="white" stroke="black" points="2505.84,-112.5 2505.84,-131.5 2622.84,-131.5 2622.84,-112.5 2505.84,-112.5"/>
<text text-anchor="middle" x="2564.34" y="-119.5" font-family="Helvetica,sans-Serif" font-size="10.00">hierarchical&#45;iterative.hh</text>
</a>
</g>
</g>
<!-- Node1&#45;&gt;Node18 -->
<g id="edge66" class="edge"><title>Node1&#45;&gt;Node18</title>
<path fill="none" stroke="midnightblue" d="M1272.73,-366.947C1463.26,-366.496 2408.7,-362.234 2531.34,-322 2611.64,-295.658 2645.21,-277.563 2676.34,-199 2681.42,-186.191 2684.06,-179.415 2676.34,-168 2663.43,-148.902 2640.94,-137.908 2619.48,-131.58"/>
<polygon fill="midnightblue" stroke="midnightblue" points="1272.5,-363.447 1262.5,-366.969 1272.51,-370.447 1272.5,-363.447"/>
</g>
<!-- Node20 -->
<g id="node20" class="node"><title>Node20</title>
<g id="a_node20"><a xlink:href="a00108.html" target="_top" xlink:title="distance&#45;between&#45;bodies.hh">
<polygon fill="white" stroke="black" points="1354.34,-241 1354.34,-260 1492.34,-260 1492.34,-241 1354.34,-241"/>
<text text-anchor="middle" x="1423.34" y="-248" font-family="Helvetica,sans-Serif" font-size="10.00">distance&#45;between&#45;bodies.hh</text>
</a>
</g>
</g>
<!-- Node1&#45;&gt;Node20 -->
<g id="edge53" class="edge"><title>Node1&#45;&gt;Node20</title>
<path fill="none" stroke="midnightblue" d="M1262.1,-352.717C1300.66,-328.506 1377.76,-280.112 1409.35,-260.282"/>
<polygon fill="midnightblue" stroke="midnightblue" points="1259.78,-350.038 1253.17,-358.319 1263.5,-355.967 1259.78,-350.038"/>
</g>
<!-- Node23 -->
<g id="node23" class="node"><title>Node23</title>
<g id="a_node23"><a xlink:href="a00104.html" target="_top" xlink:title="difference.hh">
<polygon fill="white" stroke="black" points="1510.84,-241 1510.84,-260 1583.84,-260 1583.84,-241 1510.84,-241"/>
<text text-anchor="middle" x="1547.34" y="-248" font-family="Helvetica,sans-Serif" font-size="10.00">difference.hh</text>
</a>
</g>
</g>
<!-- Node1&#45;&gt;Node23 -->
<g id="edge64" class="edge"><title>Node1&#45;&gt;Node23</title>
<path fill="none" stroke="midnightblue" d="M1271.6,-354.901C1334.04,-331.487 1470.02,-280.497 1524.29,-260.143"/>
<polygon fill="midnightblue" stroke="midnightblue" points="1270.37,-351.625 1262.24,-358.413 1272.83,-358.179 1270.37,-351.625"/>
</g>
<!-- Node25 -->
<g id="node25" class="node"><title>Node25</title>
<g id="a_node25"><a xlink:href="a00124.html" target="_top" xlink:title="manipulability.hh">
<polygon fill="white" stroke="black" points="2129.84,-241 2129.84,-260 2218.84,-260 2218.84,-241 2129.84,-241"/>
<text text-anchor="middle" x="2174.34" y="-248" font-family="Helvetica,sans-Serif" font-size="10.00">manipulability.hh</text>
</a>
</g>
</g>
<!-- Node1&#45;&gt;Node25 -->
<g id="edge68" class="edge"><title>Node1&#45;&gt;Node25</title>
<path fill="none" stroke="midnightblue" d="M1272.95,-366.463C1401.07,-364.19 1858.75,-353.963 2000.34,-322 2061.07,-308.292 2128.04,-275.795 2158.13,-260.176"/>
<polygon fill="midnightblue" stroke="midnightblue" points="1272.54,-362.969 1262.6,-366.641 1272.66,-369.968 1272.54,-362.969"/>
</g>
<!-- Node26 -->
<g id="node26" class="node"><title>Node26</title>
<g id="a_node26"><a xlink:href="a00134.html" target="_top" xlink:title="static&#45;stability.hh">
<polygon fill="white" stroke="black" points="380.841,-174 380.841,-193 471.841,-193 471.841,-174 380.841,-174"/>
<text text-anchor="middle" x="426.341" y="-181" font-family="Helvetica,sans-Serif" font-size="10.00">static&#45;stability.hh</text>
</a>
</g>
</g>
<!-- Node1&#45;&gt;Node26 -->
<g id="edge70" class="edge"><title>Node1&#45;&gt;Node26</title>
<path fill="none" stroke="midnightblue" d="M1206.01,-367.056C1067.76,-367.018 543.831,-364.075 484.341,-322 439.92,-290.583 429.348,-218.184 426.983,-193.18"/>
<polygon fill="midnightblue" stroke="midnightblue" points="1206.02,-370.556 1216.02,-367.054 1206.02,-363.556 1206.02,-370.556"/>
</g>
<!-- Node27 -->
<g id="node27" class="node"><title>Node27</title>
<g id="a_node27"><a xlink:href="a00130.html" target="_top" xlink:title="relative&#45;com.hh">
<polygon fill="white" stroke="black" points="1601.84,-241 1601.84,-260 1684.84,-260 1684.84,-241 1601.84,-241"/>
<text text-anchor="middle" x="1643.34" y="-248" font-family="Helvetica,sans-Serif" font-size="10.00">relative&#45;com.hh</text>
</a>
</g>
</g>
<!-- Node1&#45;&gt;Node27 -->
<g id="edge75" class="edge"><title>Node1&#45;&gt;Node27</title>
<path fill="none" stroke="midnightblue" d="M1272.52,-358.083C1305.68,-349.127 1358.11,-334.848 1403.34,-322 1480,-300.226 1570.07,-273.444 1614.94,-260.021"/>
<polygon fill="midnightblue" stroke="midnightblue" points="1271.21,-354.812 1262.46,-360.796 1273.03,-361.571 1271.21,-354.812"/>
</g>
<!-- Node28 -->
<g id="node28" class="node"><title>Node28</title>
<g id="a_node28"><a xlink:href="a00137.html" target="_top" xlink:title="symbolic&#45;function.hh">
<polygon fill="white" stroke="black" points="164.841,-174 164.841,-193 271.841,-193 271.841,-174 164.841,-174"/>
<text text-anchor="middle" x="218.341" y="-181" font-family="Helvetica,sans-Serif" font-size="10.00">symbolic&#45;function.hh</text>
</a>
</g>
</g>
<!-- Node1&#45;&gt;Node28 -->
<g id="edge76" class="edge"><title>Node1&#45;&gt;Node28</title>
<path fill="none" stroke="midnightblue" d="M1205.87,-366.831C1049.35,-365.846 388.838,-359.503 186.341,-322 109.366,-307.744 65.0572,-329.548 19.3407,-266 -19.6853,-211.752 93.1566,-193.52 164.569,-187.461"/>
<polygon fill="midnightblue" stroke="midnightblue" points="1206.23,-370.333 1216.25,-366.893 1206.27,-363.333 1206.23,-370.333"/>
</g>
<!-- Node29 -->
<g id="node29" class="node"><title>Node29</title>
<g id="a_node29"><a xlink:href="a00138.html" target="_top" xlink:title="tools.hh">
<polygon fill="white" stroke="black" points="308.841,-302.5 308.841,-321.5 359.841,-321.5 359.841,-302.5 308.841,-302.5"/>
<text text-anchor="middle" x="334.341" y="-309.5" font-family="Helvetica,sans-Serif" font-size="10.00">tools.hh</text>
</a>
</g>
</g>
<!-- Node1&#45;&gt;Node29 -->
<g id="edge35" class="edge"><title>Node1&#45;&gt;Node29</title>
<path fill="none" stroke="midnightblue" d="M1205.81,-367.29C1089.93,-367.86 695.812,-366.203 374.341,-322 369.687,-321.36 364.774,-320.452 360.044,-319.456"/>
<polygon fill="midnightblue" stroke="midnightblue" points="1206.17,-370.788 1216.15,-367.229 1206.13,-363.788 1206.17,-370.788"/>
</g>
<!-- Node30 -->
<g id="node30" class="node"><title>Node30</title>
<g id="a_node30"><a xlink:href="a00136.html" target="_top" xlink:title="symbolic&#45;calculus.hh">
<polygon fill="white" stroke="black" points="164.341,-241 164.341,-260 272.341,-260 272.341,-241 164.341,-241"/>
<text text-anchor="middle" x="218.341" y="-248" font-family="Helvetica,sans-Serif" font-size="10.00">symbolic&#45;calculus.hh</text>
</a>
</g>
</g>
<!-- Node1&#45;&gt;Node30 -->
<g id="edge71" class="edge"><title>Node1&#45;&gt;Node30</title>
<path fill="none" stroke="midnightblue" d="M1205.8,-366.695C1048.13,-365.086 384.747,-356.313 299.341,-322 266.126,-308.656 237.171,-275.672 224.769,-260.014"/>
<polygon fill="midnightblue" stroke="midnightblue" points="1206.23,-370.199 1216.26,-366.798 1206.3,-363.199 1206.23,-370.199"/>
</g>
<!-- Node31 -->
<g id="node31" class="node"><title>Node31</title>
<g id="a_node31"><a xlink:href="a00127.html" target="_top" xlink:title="matrix&#45;view.hh">
<polygon fill="white" stroke="black" points="2134.34,-302.5 2134.34,-321.5 2214.34,-321.5 2214.34,-302.5 2134.34,-302.5"/>
<text text-anchor="middle" x="2174.34" y="-309.5" font-family="Helvetica,sans-Serif" font-size="10.00">matrix&#45;view.hh</text>
</a>
</g>
</g>
<!-- Node1&#45;&gt;Node31 -->
<g id="edge43" class="edge"><title>Node1&#45;&gt;Node31</title>
<path fill="none" stroke="midnightblue" d="M1272.5,-365.712C1385.48,-361.22 1765.76,-345.243 2079.34,-322 2097.35,-320.665 2117.24,-318.835 2134.16,-317.174"/>
<polygon fill="midnightblue" stroke="midnightblue" points="1272.27,-362.219 1262.41,-366.111 1272.54,-369.213 1272.27,-362.219"/>
</g>
<!-- Node32 -->
<g id="node32" class="node"><title>Node32</title>
<g id="a_node32"><a xlink:href="a00102.html" target="_top" xlink:title="convex&#45;shape.hh">
<polygon fill="white" stroke="black" points="507.841,-302.5 507.841,-321.5 598.841,-321.5 598.841,-302.5 507.841,-302.5"/>
<text text-anchor="middle" x="553.341" y="-309.5" font-family="Helvetica,sans-Serif" font-size="10.00">convex&#45;shape.hh</text>
</a>
</g>
</g>
<!-- Node1&#45;&gt;Node32 -->
<g id="edge50" class="edge"><title>Node1&#45;&gt;Node32</title>
<path fill="none" stroke="midnightblue" d="M1206.05,-364.38C1093.63,-355.53 727.901,-326.741 598.896,-316.586"/>
<polygon fill="midnightblue" stroke="midnightblue" points="1205.88,-367.877 1216.12,-365.172 1206.43,-360.898 1205.88,-367.877"/>
</g>
<!-- Node33 -->
<g id="node33" class="node"><title>Node33</title>
<g id="a_node33"><a xlink:href="a00119.html" target="_top" xlink:title="implicit.hh">
<polygon fill="white" stroke="black" points="2416.84,-302.5 2416.84,-321.5 2477.84,-321.5 2477.84,-302.5 2416.84,-302.5"/>
<text text-anchor="middle" x="2447.34" y="-309.5" font-family="Helvetica,sans-Serif" font-size="10.00">implicit.hh</text>
</a>
</g>
</g>
<!-- Node1&#45;&gt;Node33 -->
<g id="edge54" class="edge"><title>Node1&#45;&gt;Node33</title>
<path fill="none" stroke="midnightblue" d="M1272.55,-366.132C1406.17,-362.536 1917.4,-347.774 2337.34,-322 2364.12,-320.357 2394.5,-317.819 2416.54,-315.857"/>
<polygon fill="midnightblue" stroke="midnightblue" points="1272.44,-362.634 1262.54,-366.4 1272.63,-369.631 1272.44,-362.634"/>
</g>
<!-- Node38 -->
<g id="node38" class="node"><title>Node38</title>
<g id="a_node38"><a xlink:href="a00135.html" target="_top" xlink:title="svd.hh">
<polygon fill="white" stroke="black" points="195.341,-302.5 195.341,-321.5 241.341,-321.5 241.341,-302.5 195.341,-302.5"/>
<text text-anchor="middle" x="218.341" y="-309.5" font-family="Helvetica,sans-Serif" font-size="10.00">svd.hh</text>
</a>
</g>
</g>
<!-- Node1&#45;&gt;Node38 -->
<g id="edge72" class="edge"><title>Node1&#45;&gt;Node38</title>
<path fill="none" stroke="midnightblue" d="M1206.01,-367.455C1081.07,-368.742 628.847,-369.62 260.341,-322 254.276,-321.216 247.788,-320.011 241.769,-318.735"/>
<polygon fill="midnightblue" stroke="midnightblue" points="1206.13,-370.954 1216.09,-367.343 1206.05,-363.955 1206.13,-370.954"/>
</g>
<!-- Node3&#45;&gt;Node2 -->
<g id="edge3" class="edge"><title>Node3&#45;&gt;Node2</title>
<path fill="none" stroke="midnightblue" d="M1167.44,-308.516C1057.19,-304.016 839.953,-292.41 657.341,-266 654.474,-265.585 651.546,-265.121 648.595,-264.62"/>
<polygon fill="midnightblue" stroke="midnightblue" points="1167.32,-312.014 1177.45,-308.917 1167.6,-305.02 1167.32,-312.014"/>
</g>
<!-- Node3&#45;&gt;Node4 -->
<g id="edge4" class="edge"><title>Node3&#45;&gt;Node4</title>
<path fill="none" stroke="midnightblue" d="M1167.68,-307.801C1074.76,-302.824 907.939,-291.064 767.341,-266 758.786,-264.475 749.613,-262.285 741.259,-260.067"/>
<polygon fill="midnightblue" stroke="midnightblue" points="1167.64,-311.303 1177.81,-308.332 1168.01,-304.313 1167.64,-311.303"/>
</g>
<!-- Node3&#45;&gt;Node5 -->
<g id="edge5" class="edge"><title>Node3&#45;&gt;Node5</title>
<path fill="none" stroke="midnightblue" d="M1167.19,-306.936C1037.75,-299.544 757.548,-283.076 521.341,-266 480.133,-263.021 433.569,-259.188 398.546,-256.211"/>
<polygon fill="midnightblue" stroke="midnightblue" points="1167.18,-310.442 1177.37,-307.517 1167.58,-303.453 1167.18,-310.442"/>
</g>
<!-- Node3&#45;&gt;Node6 -->
<g id="edge6" class="edge"><title>Node3&#45;&gt;Node6</title>
<path fill="none" stroke="midnightblue" d="M1167.54,-301.605C1103.21,-292.998 1006.33,-279.568 922.341,-266 911.054,-264.177 898.9,-262.056 887.559,-260.008"/>
<polygon fill="midnightblue" stroke="midnightblue" points="1167.2,-305.091 1177.58,-302.944 1168.13,-298.152 1167.2,-305.091"/>
</g>
<!-- Node3&#45;&gt;Node7 -->
<g id="edge7" class="edge"><title>Node3&#45;&gt;Node7</title>
<path fill="none" stroke="midnightblue" d="M1310.95,-306.066C1400.64,-299.39 1558.87,-285.971 1693.34,-266 1704.33,-264.368 1716.18,-262.196 1727.06,-260.031"/>
<polygon fill="midnightblue" stroke="midnightblue" points="1310.61,-302.582 1300.89,-306.808 1311.12,-309.563 1310.61,-302.582"/>
</g>
<!-- Node3&#45;&gt;Node8 -->
<g id="edge11" class="edge"><title>Node3&#45;&gt;Node8</title>
<path fill="none" stroke="midnightblue" d="M1216.91,-296.955C1203.47,-288.342 1186.16,-276.908 1171.34,-266 1153.79,-253.081 1153.54,-243.197 1133.34,-235 1040.97,-197.509 746.61,-187.811 616.366,-185.335"/>
<polygon fill="midnightblue" stroke="midnightblue" points="1215.2,-300.018 1225.52,-302.426 1218.96,-294.109 1215.2,-300.018"/>
</g>
<!-- Node3&#45;&gt;Node9 -->
<g id="edge28" class="edge"><title>Node3&#45;&gt;Node9</title>
<path fill="none" stroke="midnightblue" d="M1271.18,-297.942C1284.58,-290.665 1298.79,-280.166 1306.34,-266 1312.82,-253.841 1315.4,-245.383 1306.34,-235 1255.76,-177.009 713.877,-137.427 541.604,-126.236"/>
<polygon fill="midnightblue" stroke="midnightblue" points="1269.51,-294.867 1262.13,-302.471 1272.64,-301.128 1269.51,-294.867"/>
</g>
<!-- Node3&#45;&gt;Node11 -->
<g id="edge12" class="edge"><title>Node3&#45;&gt;Node11</title>
<path fill="none" stroke="midnightblue" d="M1311.12,-308.957C1423.9,-304.996 1649.27,-294.04 1838.34,-266 1841.54,-265.525 1844.82,-264.981 1848.12,-264.387"/>
<polygon fill="midnightblue" stroke="midnightblue" points="1310.76,-305.467 1300.89,-309.308 1311,-312.463 1310.76,-305.467"/>
</g>
<!-- Node3&#45;&gt;Node20 -->
<g id="edge22" class="edge"><title>Node3&#45;&gt;Node20</title>
<path fill="none" stroke="midnightblue" d="M1275.27,-299.381C1311.04,-287.815 1365.08,-270.341 1397.03,-260.009"/>
<polygon fill="midnightblue" stroke="midnightblue" points="1274.14,-296.068 1265.7,-302.475 1276.3,-302.728 1274.14,-296.068"/>
</g>
<!-- Node21 -->
<g id="node21" class="node"><title>Node21</title>
<g id="a_node21"><a xlink:href="a00109.html" target="_top" xlink:title="distance&#45;between&#45;points\l&#45;in&#45;bodies.hh">
<polygon fill="white" stroke="black" points="1002.34,-235.5 1002.34,-265.5 1124.34,-265.5 1124.34,-235.5 1002.34,-235.5"/>
<text text-anchor="start" x="1010.34" y="-253.5" font-family="Helvetica,sans-Serif" font-size="10.00">distance&#45;between&#45;points</text>
<text text-anchor="middle" x="1063.34" y="-242.5" font-family="Helvetica,sans-Serif" font-size="10.00">&#45;in&#45;bodies.hh</text>
</a>
</g>
</g>
<!-- Node3&#45;&gt;Node21 -->
<g id="edge23" class="edge"><title>Node3&#45;&gt;Node21</title>
<path fill="none" stroke="midnightblue" d="M1204.53,-299.23C1175.87,-289.542 1135.17,-275.782 1104.82,-265.523"/>
<polygon fill="midnightblue" stroke="midnightblue" points="1203.53,-302.588 1214.12,-302.475 1205.77,-295.957 1203.53,-302.588"/>
</g>
<!-- Node22 -->
<g id="node22" class="node"><title>Node22</title>
<g id="a_node22"><a xlink:href="a00118.html" target="_top" xlink:title="implicit&#45;function.hh">
<polygon fill="white" stroke="black" points="2014.34,-241 2014.34,-260 2112.34,-260 2112.34,-241 2014.34,-241"/>
<text text-anchor="middle" x="2063.34" y="-248" font-family="Helvetica,sans-Serif" font-size="10.00">implicit&#45;function.hh</text>
</a>
</g>
</g>
<!-- Node3&#45;&gt;Node22 -->
<g id="edge24" class="edge"><title>Node3&#45;&gt;Node22</title>
<path fill="none" stroke="midnightblue" d="M1311.13,-308.662C1441.93,-303.937 1727.65,-291.459 1967.34,-266 1982.59,-264.38 1999.13,-262.079 2014.12,-259.787"/>
<polygon fill="midnightblue" stroke="midnightblue" points="1310.72,-305.175 1300.85,-309.029 1310.97,-312.17 1310.72,-305.175"/>
</g>
<!-- Node3&#45;&gt;Node23 -->
<g id="edge25" class="edge"><title>Node3&#45;&gt;Node23</title>
<path fill="none" stroke="midnightblue" d="M1310.94,-301.373C1363.91,-293.607 1437.61,-281.443 1501.34,-266 1508.18,-264.344 1515.48,-262.213 1522.21,-260.098"/>
<polygon fill="midnightblue" stroke="midnightblue" points="1310.36,-297.921 1300.96,-302.82 1311.36,-304.848 1310.36,-297.921"/>
</g>
<!-- Node24 -->
<g id="node24" class="node"><title>Node24</title>
<g id="a_node24"><a xlink:href="a00128.html" target="_top" xlink:title="of&#45;parameter&#45;subset.hh">
<polygon fill="white" stroke="black" points="1180.84,-241 1180.84,-260 1297.84,-260 1297.84,-241 1180.84,-241"/>
<text text-anchor="middle" x="1239.34" y="-248" font-family="Helvetica,sans-Serif" font-size="10.00">of&#45;parameter&#45;subset.hh</text>
</a>
</g>
</g>
<!-- Node3&#45;&gt;Node24 -->
<g id="edge26" class="edge"><title>Node3&#45;&gt;Node24</title>
<path fill="none" stroke="midnightblue" d="M1239.34,-292.317C1239.34,-281.496 1239.34,-268.398 1239.34,-260.009"/>
<polygon fill="midnightblue" stroke="midnightblue" points="1235.84,-292.475 1239.34,-302.475 1242.84,-292.475 1235.84,-292.475"/>
</g>
<!-- Node3&#45;&gt;Node25 -->
<g id="edge27" class="edge"><title>Node3&#45;&gt;Node25</title>
<path fill="none" stroke="midnightblue" d="M1311.23,-309.334C1492.71,-304.807 1965.97,-290.917 2121.34,-266 2130.01,-264.61 2139.29,-262.347 2147.62,-260.017"/>
<polygon fill="midnightblue" stroke="midnightblue" points="1310.9,-305.841 1300.99,-309.587 1311.08,-312.839 1310.9,-305.841"/>
</g>
<!-- Node3&#45;&gt;Node26 -->
<g id="edge29" class="edge"><title>Node3&#45;&gt;Node26</title>
<path fill="none" stroke="midnightblue" d="M1167.63,-306.289C1117.23,-300.991 1049.11,-289.763 993.341,-266 971.666,-256.765 972.467,-243.092 950.341,-235 754.002,-163.192 687.483,-233.79 481.341,-199 472.577,-197.521 463.178,-195.29 454.673,-193.018"/>
<polygon fill="midnightblue" stroke="midnightblue" points="1167.49,-309.792 1177.79,-307.301 1168.18,-302.826 1167.49,-309.792"/>
</g>
<!-- Node3&#45;&gt;Node27 -->
<g id="edge31" class="edge"><title>Node3&#45;&gt;Node27</title>
<path fill="none" stroke="midnightblue" d="M1311.29,-305.02C1383,-298.314 1496,-285.72 1592.34,-266 1600.19,-264.394 1608.59,-262.205 1616.27,-260.015"/>
<polygon fill="midnightblue" stroke="midnightblue" points="1310.66,-301.564 1301.02,-305.967 1311.3,-308.534 1310.66,-301.564"/>
</g>
<!-- Node3&#45;&gt;Node28 -->
<g id="edge32" class="edge"><title>Node3&#45;&gt;Node28</title>
<path fill="none" stroke="midnightblue" d="M1167.43,-311.188C1106.8,-308.747 1019.17,-298.982 950.341,-266 931.9,-257.163 935.155,-243.013 916.341,-235 804.671,-187.442 492.325,-208.727 371.341,-199 338.362,-196.349 301.435,-192.864 272.121,-189.975"/>
<polygon fill="midnightblue" stroke="midnightblue" points="1167.55,-314.695 1177.67,-311.542 1167.79,-307.699 1167.55,-314.695"/>
</g>
<!-- Node7&#45;&gt;Node8 -->
<g id="edge8" class="edge"><title>Node7&#45;&gt;Node8</title>
<path fill="none" stroke="midnightblue" d="M1719.15,-239.041C1710.6,-237.455 1701.73,-236.013 1693.34,-235 1285.23,-185.718 789.739,-183.149 616.644,-183.944"/>
<polygon fill="midnightblue" stroke="midnightblue" points="1718.52,-242.483 1729,-240.951 1719.85,-235.611 1718.52,-242.483"/>
</g>
<!-- Node10 -->
<g id="node10" class="node"><title>Node10</title>
<g id="a_node10"><a xlink:href="a00133.html" target="_top" xlink:title="relative&#45;transformation.hh">
<polygon fill="white" stroke="black" points="2167.84,-174 2167.84,-193 2294.84,-193 2294.84,-174 2167.84,-174"/>
<text text-anchor="middle" x="2231.34" y="-181" font-family="Helvetica,sans-Serif" font-size="10.00">relative&#45;transformation.hh</text>
</a>
</g>
</g>
<!-- Node7&#45;&gt;Node10 -->
<g id="edge10" class="edge"><title>Node7&#45;&gt;Node10</title>
<path fill="none" stroke="midnightblue" d="M1816.64,-239.043C1824.23,-237.6 1831.98,-236.203 1839.34,-235 1963.17,-214.766 1994.9,-215.055 2119.34,-199 2134.99,-196.98 2151.88,-194.797 2167.67,-192.753"/>
<polygon fill="midnightblue" stroke="midnightblue" points="1815.94,-235.612 1806.79,-240.954 1817.28,-242.484 1815.94,-235.612"/>
</g>
<!-- Node8&#45;&gt;Node9 -->
<g id="edge9" class="edge"><title>Node8&#45;&gt;Node9</title>
<path fill="none" stroke="midnightblue" d="M536.829,-167.15C524.628,-155.806 508.467,-140.781 498.493,-131.509"/>
<polygon fill="midnightblue" stroke="midnightblue" points="534.464,-169.73 544.171,-173.975 539.23,-164.603 534.464,-169.73"/>
</g>
<!-- Node12 -->
<g id="node12" class="node"><title>Node12</title>
<g id="a_node12"><a xlink:href="a00106.html" target="_top" xlink:title="differentiable&#45;function\l&#45;stack.hh">
<polygon fill="white" stroke="black" points="1848.34,-168.5 1848.34,-198.5 1958.34,-198.5 1958.34,-168.5 1848.34,-168.5"/>
<text text-anchor="start" x="1856.34" y="-186.5" font-family="Helvetica,sans-Serif" font-size="10.00">differentiable&#45;function</text>
<text text-anchor="middle" x="1903.34" y="-175.5" font-family="Helvetica,sans-Serif" font-size="10.00">&#45;stack.hh</text>
</a>
</g>
</g>
<!-- Node11&#45;&gt;Node12 -->
<g id="edge13" class="edge"><title>Node11&#45;&gt;Node12</title>
<path fill="none" stroke="midnightblue" d="M1903.34,-225.108C1903.34,-216.154 1903.34,-206.323 1903.34,-198.577"/>
<polygon fill="midnightblue" stroke="midnightblue" points="1899.84,-225.396 1903.34,-235.396 1906.84,-225.396 1899.84,-225.396"/>
</g>
<!-- Node11&#45;&gt;Node13 -->
<g id="edge14" class="edge"><title>Node11&#45;&gt;Node13</title>
<path fill="none" stroke="midnightblue" d="M1947.54,-231.544C1973.14,-221.143 2004.91,-208.238 2028.69,-198.577"/>
<polygon fill="midnightblue" stroke="midnightblue" points="1946.01,-228.39 1938.06,-235.396 1948.64,-234.875 1946.01,-228.39"/>
</g>
<!-- Node11&#45;&gt;Node17 -->
<g id="edge18" class="edge"><title>Node11&#45;&gt;Node17</title>
<path fill="none" stroke="midnightblue" d="M1968.66,-239.455C1980.83,-237.799 1993.46,-236.226 2005.34,-235 2252.99,-209.462 2318.52,-238.378 2564.34,-199 2567.41,-198.508 2570.57,-197.922 2573.73,-197.272"/>
<polygon fill="midnightblue" stroke="midnightblue" points="1967.99,-236.014 1958.56,-240.859 1968.95,-242.947 1967.99,-236.014"/>
</g>
<!-- Node14 -->
<g id="node14" class="node"><title>Node14</title>
<g id="a_node14"><a xlink:href="a00111.html" target="_top" xlink:title="explicit&#45;solver.hh">
<polygon fill="white" stroke="black" points="2018.34,-112.5 2018.34,-131.5 2108.34,-131.5 2108.34,-112.5 2018.34,-112.5"/>
<text text-anchor="middle" x="2063.34" y="-119.5" font-family="Helvetica,sans-Serif" font-size="10.00">explicit&#45;solver.hh</text>
</a>
</g>
</g>
<!-- Node13&#45;&gt;Node14 -->
<g id="edge15" class="edge"><title>Node13&#45;&gt;Node14</title>
<path fill="none" stroke="midnightblue" d="M2063.34,-158.289C2063.34,-148.857 2063.34,-138.655 2063.34,-131.658"/>
<polygon fill="midnightblue" stroke="midnightblue" points="2059.84,-158.399 2063.34,-168.399 2066.84,-158.399 2059.84,-158.399"/>
</g>
<!-- Node13&#45;&gt;Node15 -->
<g id="edge16" class="edge"><title>Node13&#45;&gt;Node15</title>
<path fill="none" stroke="midnightblue" d="M2108.56,-164.733C2172.76,-139.515 2287.8,-94.3189 2335.6,-75.5423"/>
<polygon fill="midnightblue" stroke="midnightblue" points="2107.12,-161.539 2099.1,-168.453 2109.68,-168.054 2107.12,-161.539"/>
</g>
<!-- Node16 -->
<g id="node16" class="node"><title>Node16</title>
<g id="a_node16"><a xlink:href="a00116.html" target="_top" xlink:title="hybrid&#45;solver.hh">
<polygon fill="white" stroke="black" points="2314.34,-0.5 2314.34,-19.5 2400.34,-19.5 2400.34,-0.5 2314.34,-0.5"/>
<text text-anchor="middle" x="2357.34" y="-7.5" font-family="Helvetica,sans-Serif" font-size="10.00">hybrid&#45;solver.hh</text>
</a>
</g>
</g>
<!-- Node15&#45;&gt;Node16 -->
<g id="edge17" class="edge"><title>Node15&#45;&gt;Node16</title>
<path fill="none" stroke="midnightblue" d="M2357.34,-45.8045C2357.34,-36.9102 2357.34,-26.7798 2357.34,-19.7511"/>
<polygon fill="midnightblue" stroke="midnightblue" points="2353.84,-46.083 2357.34,-56.083 2360.84,-46.083 2353.84,-46.083"/>
</g>
<!-- Node17&#45;&gt;Node18 -->
<g id="edge19" class="edge"><title>Node17&#45;&gt;Node18</title>
<path fill="none" stroke="midnightblue" d="M2600.11,-161.002C2590.56,-150.862 2579.71,-139.332 2572.49,-131.658"/>
<polygon fill="midnightblue" stroke="midnightblue" points="2597.67,-163.516 2607.07,-168.399 2602.76,-158.719 2597.67,-163.516"/>
</g>
<!-- Node18&#45;&gt;Node15 -->
<g id="edge20" class="edge"><title>Node18&#45;&gt;Node15</title>
<path fill="none" stroke="midnightblue" d="M2521.52,-109.829C2482.44,-99.6333 2425.51,-84.7823 2389.99,-75.5164"/>
<polygon fill="midnightblue" stroke="midnightblue" points="2520.98,-113.306 2531.54,-112.444 2522.75,-106.533 2520.98,-113.306"/>
</g>
<!-- Node19 -->
<g id="node19" class="node"><title>Node19</title>
<g id="a_node19"><a xlink:href="a00120.html" target="_top" xlink:title="iterative&#45;solver.hh">
<polygon fill="white" stroke="black" points="2517.34,-56.5 2517.34,-75.5 2611.34,-75.5 2611.34,-56.5 2517.34,-56.5"/>
<text text-anchor="middle" x="2564.34" y="-63.5" font-family="Helvetica,sans-Serif" font-size="10.00">iterative&#45;solver.hh</text>
</a>
</g>
</g>
<!-- Node18&#45;&gt;Node19 -->
<g id="edge21" class="edge"><title>Node18&#45;&gt;Node19</title>
<path fill="none" stroke="midnightblue" d="M2564.34,-101.805C2564.34,-92.9102 2564.34,-82.7798 2564.34,-75.7511"/>
<polygon fill="midnightblue" stroke="midnightblue" points="2560.84,-102.083 2564.34,-112.083 2567.84,-102.083 2560.84,-102.083"/>
</g>
<!-- Node26&#45;&gt;Node9 -->
<g id="edge30" class="edge"><title>Node26&#45;&gt;Node9</title>
<path fill="none" stroke="midnightblue" d="M442.938,-166.825C454.908,-155.52 470.607,-140.693 480.331,-131.509"/>
<polygon fill="midnightblue" stroke="midnightblue" points="440.234,-164.564 435.367,-173.975 445.04,-169.653 440.234,-164.564"/>
</g>
<!-- Node29&#45;&gt;Node5 -->
<g id="edge36" class="edge"><title>Node29&#45;&gt;Node5</title>
<path fill="none" stroke="midnightblue" d="M337.481,-292.317C339.299,-281.496 341.501,-268.398 342.911,-260.009"/>
<polygon fill="midnightblue" stroke="midnightblue" points="333.979,-292.033 335.773,-302.475 340.883,-293.194 333.979,-292.033"/>
</g>
<!-- Node29&#45;&gt;Node30 -->
<g id="edge37" class="edge"><title>Node29&#45;&gt;Node30</title>
<path fill="none" stroke="midnightblue" d="M308.736,-297.867C286.254,-286.335 254.211,-269.899 234.93,-260.009"/>
<polygon fill="midnightblue" stroke="midnightblue" points="307.226,-301.025 317.721,-302.475 310.42,-294.797 307.226,-301.025"/>
</g>
<!-- Node30&#45;&gt;Node26 -->
<g id="edge38" class="edge"><title>Node30&#45;&gt;Node26</title>
<path fill="none" stroke="midnightblue" d="M255.63,-237.847C296.829,-224.973 362.195,-204.546 398.937,-193.064"/>
<polygon fill="midnightblue" stroke="midnightblue" points="254.462,-234.545 245.962,-240.869 256.55,-241.226 254.462,-234.545"/>
</g>
<!-- Node30&#45;&gt;Node28 -->
<g id="edge39" class="edge"><title>Node30&#45;&gt;Node28</title>
<path fill="none" stroke="midnightblue" d="M218.341,-230.537C218.341,-218.17 218.341,-202.62 218.341,-193.127"/>
<polygon fill="midnightblue" stroke="midnightblue" points="214.841,-230.734 218.341,-240.734 221.841,-230.734 214.841,-230.734"/>
</g>
<!-- Node31&#45;&gt;Node7 -->
<g id="edge44" class="edge"><title>Node31&#45;&gt;Node7</title>
<path fill="none" stroke="midnightblue" d="M2124.19,-305.255C2058.55,-297.511 1940.03,-282.746 1839.34,-266 1828.76,-264.241 1817.37,-262.098 1806.8,-260.005"/>
<polygon fill="midnightblue" stroke="midnightblue" points="2123.92,-308.748 2134.26,-306.437 2124.73,-301.795 2123.92,-308.748"/>
</g>
<!-- Node31&#45;&gt;Node10 -->
<g id="edge46" class="edge"><title>Node31&#45;&gt;Node10</title>
<path fill="none" stroke="midnightblue" d="M2218.84,-298.809C2235.13,-291.955 2251.88,-281.543 2261.34,-266 2276.23,-241.529 2252.49,-208.488 2239.26,-193.078"/>
<polygon fill="midnightblue" stroke="midnightblue" points="2217.44,-295.597 2209.35,-302.445 2219.94,-302.132 2217.44,-295.597"/>
</g>
<!-- Node31&#45;&gt;Node13 -->
<g id="edge47" class="edge"><title>Node31&#45;&gt;Node13</title>
<path fill="none" stroke="midnightblue" d="M2199.52,-297C2210.53,-289.401 2222.3,-278.906 2228.34,-266 2234.18,-253.523 2236.53,-246.077 2228.34,-235 2214.13,-215.793 2153.58,-200.916 2109.94,-192.43"/>
<polygon fill="midnightblue" stroke="midnightblue" points="2197.51,-294.128 2190.97,-302.464 2201.28,-300.025 2197.51,-294.128"/>
</g>
<!-- Node31&#45;&gt;Node18 -->
<g id="edge48" class="edge"><title>Node31&#45;&gt;Node18</title>
<path fill="none" stroke="midnightblue" d="M2224.75,-307.616C2288.33,-302.391 2392.89,-290.313 2422.34,-266 2458.36,-236.257 2427.95,-201.662 2460.34,-168 2478.14,-149.5 2504.82,-138.168 2526.7,-131.503"/>
<polygon fill="midnightblue" stroke="midnightblue" points="2224.23,-304.146 2214.54,-308.425 2224.78,-311.124 2224.23,-304.146"/>
</g>
<!-- Node31&#45;&gt;Node22 -->
<g id="edge45" class="edge"><title>Node31&#45;&gt;Node22</title>
<path fill="none" stroke="midnightblue" d="M2149.55,-297.712C2128.05,-286.188 2097.58,-269.855 2079.21,-260.009"/>
<polygon fill="midnightblue" stroke="midnightblue" points="2147.97,-300.835 2158.44,-302.475 2151.28,-294.666 2147.97,-300.835"/>
</g>
<!-- Node31&#45;&gt;Node25 -->
<g id="edge49" class="edge"><title>Node31&#45;&gt;Node25</title>
<path fill="none" stroke="midnightblue" d="M2174.34,-292.317C2174.34,-281.496 2174.34,-268.398 2174.34,-260.009"/>
<polygon fill="midnightblue" stroke="midnightblue" points="2170.84,-292.475 2174.34,-302.475 2177.84,-292.475 2170.84,-292.475"/>
</g>
<!-- Node32&#45;&gt;Node8 -->
<g id="edge51" class="edge"><title>Node32&#45;&gt;Node8</title>
<path fill="none" stroke="midnightblue" d="M537.89,-294.55C531.44,-286.572 524.681,-276.462 521.341,-266 517.15,-252.875 517.501,-248.232 521.341,-235 526.084,-218.652 537.883,-202.525 545.751,-193.045"/>
<polygon fill="midnightblue" stroke="midnightblue" points="535.397,-297.019 544.589,-302.286 540.688,-292.436 535.397,-297.019"/>
</g>
<!-- Node33&#45;&gt;Node17 -->
<g id="edge62" class="edge"><title>Node33&#45;&gt;Node17</title>
<path fill="none" stroke="midnightblue" d="M2487.88,-301.892C2511.93,-294.996 2541.99,-283.633 2564.34,-266 2587.79,-247.498 2605.23,-216.496 2614,-198.534"/>
<polygon fill="midnightblue" stroke="midnightblue" points="2486.71,-298.582 2477.98,-304.579 2488.55,-305.337 2486.71,-298.582"/>
</g>
<!-- Node34 -->
<g id="node34" class="node"><title>Node34</title>
<g id="a_node34"><a xlink:href="a00112.html" target="_top" xlink:title="explicit.hh">
<polygon fill="white" stroke="black" points="2351.84,-241 2351.84,-260 2412.84,-260 2412.84,-241 2351.84,-241"/>
<text text-anchor="middle" x="2382.34" y="-248" font-family="Helvetica,sans-Serif" font-size="10.00">explicit.hh</text>
</a>
</g>
</g>
<!-- Node33&#45;&gt;Node34 -->
<g id="edge55" class="edge"><title>Node33&#45;&gt;Node34</title>
<path fill="none" stroke="midnightblue" d="M2430.57,-295.65C2418.18,-284.306 2401.77,-269.281 2391.64,-260.009"/>
<polygon fill="midnightblue" stroke="midnightblue" points="2428.29,-298.305 2438.03,-302.475 2433.01,-293.141 2428.29,-298.305"/>
</g>
<!-- Node37 -->
<g id="node37" class="node"><title>Node37</title>
<g id="a_node37"><a xlink:href="a00132.html" target="_top" xlink:title="relative&#45;pose.hh">
<polygon fill="white" stroke="black" points="2469.34,-241 2469.34,-260 2555.34,-260 2555.34,-241 2469.34,-241"/>
<text text-anchor="middle" x="2512.34" y="-248" font-family="Helvetica,sans-Serif" font-size="10.00">relative&#45;pose.hh</text>
</a>
</g>
</g>
<!-- Node33&#45;&gt;Node37 -->
<g id="edge60" class="edge"><title>Node33&#45;&gt;Node37</title>
<path fill="none" stroke="midnightblue" d="M2464.11,-295.65C2476.5,-284.306 2492.92,-269.281 2503.05,-260.009"/>
<polygon fill="midnightblue" stroke="midnightblue" points="2461.67,-293.141 2456.65,-302.475 2466.39,-298.305 2461.67,-293.141"/>
</g>
<!-- Node34&#45;&gt;Node10 -->
<g id="edge57" class="edge"><title>Node34&#45;&gt;Node10</title>
<path fill="none" stroke="midnightblue" d="M2352.79,-236.781C2322.89,-223.909 2277.46,-204.355 2251.48,-193.167"/>
<polygon fill="midnightblue" stroke="midnightblue" points="2351.72,-240.129 2362.29,-240.869 2354.49,-233.7 2351.72,-240.129"/>
</g>
<!-- Node35 -->
<g id="node35" class="node"><title>Node35</title>
<g id="a_node35"><a xlink:href="a00131.html" target="_top" xlink:title="relative&#45;pose.hh">
<polygon fill="white" stroke="black" points="2469.34,-174 2469.34,-193 2555.34,-193 2555.34,-174 2469.34,-174"/>
<text text-anchor="middle" x="2512.34" y="-181" font-family="Helvetica,sans-Serif" font-size="10.00">relative&#45;pose.hh</text>
</a>
</g>
</g>
<!-- Node34&#45;&gt;Node35 -->
<g id="edge56" class="edge"><title>Node34&#45;&gt;Node35</title>
<path fill="none" stroke="midnightblue" d="M2408.79,-236.274C2434.54,-223.4 2472.92,-204.209 2495.01,-193.167"/>
<polygon fill="midnightblue" stroke="midnightblue" points="2406.98,-233.266 2399.6,-240.869 2410.11,-239.527 2406.98,-233.266"/>
</g>
<!-- Node36 -->
<g id="node36" class="node"><title>Node36</title>
<g id="a_node36"><a xlink:href="a00121.html" target="_top" xlink:title="locked&#45;joint.hh">
<polygon fill="white" stroke="black" points="2351.34,-112.5 2351.34,-131.5 2431.34,-131.5 2431.34,-112.5 2351.34,-112.5"/>
<text text-anchor="middle" x="2391.34" y="-119.5" font-family="Helvetica,sans-Serif" font-size="10.00">locked&#45;joint.hh</text>
</a>
</g>
</g>
<!-- Node34&#45;&gt;Node36 -->
<g id="edge58" class="edge"><title>Node34&#45;&gt;Node36</title>
<path fill="none" stroke="midnightblue" d="M2383.67,-230.806C2385.64,-203.076 2389.27,-152.128 2390.72,-131.756"/>
<polygon fill="midnightblue" stroke="midnightblue" points="2380.18,-230.582 2382.96,-240.805 2387.16,-231.079 2380.18,-230.582"/>
</g>
<!-- Node36&#45;&gt;Node15 -->
<g id="edge59" class="edge"><title>Node36&#45;&gt;Node15</title>
<path fill="none" stroke="midnightblue" d="M2380.36,-103.566C2374.51,-94.2747 2367.57,-83.2484 2362.85,-75.7511"/>
<polygon fill="midnightblue" stroke="midnightblue" points="2377.44,-105.486 2385.73,-112.083 2383.36,-101.756 2377.44,-105.486"/>
</g>
<!-- Node37&#45;&gt;Node35 -->
<g id="edge61" class="edge"><title>Node37&#45;&gt;Node35</title>
<path fill="none" stroke="midnightblue" d="M2512.34,-230.537C2512.34,-218.17 2512.34,-202.62 2512.34,-193.127"/>
<polygon fill="midnightblue" stroke="midnightblue" points="2508.84,-230.734 2512.34,-240.734 2515.84,-230.734 2508.84,-230.734"/>
</g>
<!-- Node38&#45;&gt;Node30 -->
<g id="edge73" class="edge"><title>Node38&#45;&gt;Node30</title>
<path fill="none" stroke="midnightblue" d="M218.341,-292.317C218.341,-281.496 218.341,-268.398 218.341,-260.009"/>
<polygon fill="midnightblue" stroke="midnightblue" points="214.841,-292.475 218.341,-302.475 221.841,-292.475 214.841,-292.475"/>
</g>
<!-- Node39 -->
<g id="node39" class="node"><title>Node39</title>
<g id="a_node39"><a xlink:href="a00115.html" target="_top" xlink:title="hierarchical&#45;iterative.hh">
<polygon fill="white" stroke="black" points="28.8407,-241 28.8407,-260 145.841,-260 145.841,-241 28.8407,-241"/>
<text text-anchor="middle" x="87.3407" y="-248" font-family="Helvetica,sans-Serif" font-size="10.00">hierarchical&#45;iterative.hh</text>
</a>
</g>
</g>
<!-- Node38&#45;&gt;Node39 -->
<g id="edge74" class="edge"><title>Node38&#45;&gt;Node39</title>
<path fill="none" stroke="midnightblue" d="M190.439,-298.327C165.007,-286.776 128.141,-270.032 106.075,-260.009"/>
<polygon fill="midnightblue" stroke="midnightblue" points="189.019,-301.526 199.572,-302.475 191.914,-295.153 189.019,-301.526"/>
</g>
</g>
</svg>
