<?xml version="1.0" encoding="UTF-8" standalone="no"?>
<!DOCTYPE svg PUBLIC "-//W3C//DTD SVG 1.1//EN"
 "http://www.w3.org/Graphics/SVG/1.1/DTD/svg11.dtd">
<!-- Generated by graphviz version 2.38.0 (20140413.2041)
 -->
<!-- Title: distance&#45;between&#45;bodies.hh Pages: 1 -->
<svg width="798pt" height="419pt"
 viewBox="0.00 0.00 798.00 419.00" xmlns="http://www.w3.org/2000/svg" xmlns:xlink="http://www.w3.org/1999/xlink">
<g id="graph0" class="graph" transform="scale(1 1) rotate(0) translate(4 415)">
<title>distance&#45;between&#45;bodies.hh</title>
<polygon fill="white" stroke="none" points="-4,4 -4,-415 794,-415 794,4 -4,4"/>
<!-- Node1 -->
<g id="node1" class="node"><title>Node1</title>
<polygon fill="#bfbfbf" stroke="black" points="148.5,-391.5 148.5,-410.5 286.5,-410.5 286.5,-391.5 148.5,-391.5"/>
<text text-anchor="middle" x="217.5" y="-398.5" font-family="Helvetica,sans-Serif" font-size="10.00">distance&#45;between&#45;bodies.hh</text>
</g>
<!-- Node2 -->
<g id="node2" class="node"><title>Node2</title>
<polygon fill="white" stroke="#bfbfbf" points="0,-324.5 0,-354.5 103,-354.5 103,-324.5 0,-324.5"/>
<text text-anchor="start" x="8" y="-342.5" font-family="Helvetica,sans-Serif" font-size="10.00">pinocchio/multibody</text>
<text text-anchor="middle" x="51.5" y="-331.5" font-family="Helvetica,sans-Serif" font-size="10.00">/geometry.hpp</text>
</g>
<!-- Node1&#45;&gt;Node2 -->
<g id="edge1" class="edge"><title>Node1&#45;&gt;Node2</title>
<path fill="none" stroke="midnightblue" d="M193.716,-391.475C169.448,-382.776 131.086,-369.026 100.318,-357.998"/>
<polygon fill="midnightblue" stroke="midnightblue" points="101.217,-354.602 90.6229,-354.523 98.8555,-361.192 101.217,-354.602"/>
</g>
<!-- Node3 -->
<g id="node3" class="node"><title>Node3</title>
<g id="a_node3"><a doxygen="/local/devel/hpp/install/share/doc/hpp-pinocchio/doxygen-html/hpp-pinocchio.doxytag:../../hpp-pinocchio/doxygen-html/" xlink:href="../../hpp-pinocchio/doxygen-html/a00091.html" target="_top" xlink:title="hpp/pinocchio/collision\l&#45;object.hh">
<polygon fill="white" stroke="black" points="74,-123.5 74,-153.5 189,-153.5 189,-123.5 74,-123.5"/>
<text text-anchor="start" x="82" y="-141.5" font-family="Helvetica,sans-Serif" font-size="10.00">hpp/pinocchio/collision</text>
<text text-anchor="middle" x="131.5" y="-130.5" font-family="Helvetica,sans-Serif" font-size="10.00">&#45;object.hh</text>
</a>
</g>
</g>
<!-- Node1&#45;&gt;Node3 -->
<g id="edge2" class="edge"><title>Node1&#45;&gt;Node3</title>
<path fill="none" stroke="midnightblue" d="M210.577,-391.343C196.582,-373.325 165.024,-329.968 150.5,-288 136.028,-246.183 132.402,-194.308 131.596,-164.247"/>
<polygon fill="midnightblue" stroke="midnightblue" points="135.088,-163.796 131.409,-153.861 128.09,-163.922 135.088,-163.796"/>
</g>
<!-- Node5 -->
<g id="node5" class="node"><title>Node5</title>
<g id="a_node5"><a doxygen="/local/devel/hpp/install/share/doc/hpp-pinocchio/doxygen-html/hpp-pinocchio.doxytag:../../hpp-pinocchio/doxygen-html/" xlink:href="../../hpp-pinocchio/doxygen-html/a00103.html" target="_top" xlink:title="hpp/pinocchio/liegroup\l&#45;element.hh">
<polygon fill="white" stroke="black" points="438,-257.5 438,-287.5 551,-287.5 551,-257.5 438,-257.5"/>
<text text-anchor="start" x="446" y="-275.5" font-family="Helvetica,sans-Serif" font-size="10.00">hpp/pinocchio/liegroup</text>
<text text-anchor="middle" x="494.5" y="-264.5" font-family="Helvetica,sans-Serif" font-size="10.00">&#45;element.hh</text>
</a>
</g>
</g>
<!-- Node1&#45;&gt;Node5 -->
<g id="edge4" class="edge"><title>Node1&#45;&gt;Node5</title>
<path fill="none" stroke="midnightblue" d="M286.937,-394.31C326.9,-388.663 376.885,-377.413 416.5,-355 442.252,-340.43 464.774,-314.674 478.91,-296.008"/>
<polygon fill="midnightblue" stroke="midnightblue" points="481.879,-297.878 484.974,-287.746 476.236,-293.736 481.879,-297.878"/>
</g>
<!-- Node12 -->
<g id="node12" class="node"><title>Node12</title>
<g id="a_node12"><a xlink:href="a00001.html" target="_top" xlink:title="hpp/constraints/fwd.hh">
<polygon fill="white" stroke="black" points="159.5,-263 159.5,-282 275.5,-282 275.5,-263 159.5,-263"/>
<text text-anchor="middle" x="217.5" y="-270" font-family="Helvetica,sans-Serif" font-size="10.00">hpp/constraints/fwd.hh</text>
</a>
</g>
</g>
<!-- Node1&#45;&gt;Node12 -->
<g id="edge13" class="edge"><title>Node1&#45;&gt;Node12</title>
<path fill="none" stroke="midnightblue" d="M217.5,-391.305C217.5,-370.994 217.5,-320.053 217.5,-292.277"/>
<polygon fill="midnightblue" stroke="midnightblue" points="221,-292.256 217.5,-282.256 214,-292.256 221,-292.256"/>
</g>
<!-- Node14 -->
<g id="node14" class="node"><title>Node14</title>
<g id="a_node14"><a xlink:href="a00107.html" target="_top" xlink:title="hpp/constraints/differentiable\l&#45;function.hh">
<polygon fill="white" stroke="black" points="265.5,-324.5 265.5,-354.5 407.5,-354.5 407.5,-324.5 265.5,-324.5"/>
<text text-anchor="start" x="273.5" y="-342.5" font-family="Helvetica,sans-Serif" font-size="10.00">hpp/constraints/differentiable</text>
<text text-anchor="middle" x="336.5" y="-331.5" font-family="Helvetica,sans-Serif" font-size="10.00">&#45;function.hh</text>
</a>
</g>
</g>
<!-- Node1&#45;&gt;Node14 -->
<g id="edge16" class="edge"><title>Node1&#45;&gt;Node14</title>
<path fill="none" stroke="midnightblue" d="M234.55,-391.475C251.42,-383.04 277.79,-369.855 299.484,-359.008"/>
<polygon fill="midnightblue" stroke="midnightblue" points="301.075,-362.126 308.454,-354.523 297.945,-355.865 301.075,-362.126"/>
</g>
<!-- Node4 -->
<g id="node4" class="node"><title>Node4</title>
<g id="a_node4"><a doxygen="/local/devel/hpp/install/share/doc/hpp-pinocchio/doxygen-html/hpp-pinocchio.doxytag:../../hpp-pinocchio/doxygen-html/" xlink:href="../../hpp-pinocchio/doxygen-html/a00098.html" target="_top" xlink:title="hpp/pinocchio/fwd.hh">
<polygon fill="white" stroke="black" points="182,-0.5 182,-19.5 291,-19.5 291,-0.5 182,-0.5"/>
<text text-anchor="middle" x="236.5" y="-7.5" font-family="Helvetica,sans-Serif" font-size="10.00">hpp/pinocchio/fwd.hh</text>
</a>
</g>
</g>
<!-- Node3&#45;&gt;Node4 -->
<g id="edge3" class="edge"><title>Node3&#45;&gt;Node4</title>
<path fill="none" stroke="midnightblue" d="M143.138,-123.479C162.625,-100.001 201.77,-52.8413 222.645,-27.6915"/>
<polygon fill="midnightblue" stroke="midnightblue" points="225.511,-29.7186 229.205,-19.7885 220.125,-25.2478 225.511,-29.7186"/>
</g>
<!-- Node6 -->
<g id="node6" class="node"><title>Node6</title>
<g id="a_node6"><a doxygen="/local/devel/hpp/install/share/doc/hpp-pinocchio/doxygen-html/hpp-pinocchio.doxytag:../../hpp-pinocchio/doxygen-html/" xlink:href="../../hpp-pinocchio/doxygen-html/a00104.html" target="_top" xlink:title="hpp/pinocchio/liegroup\l&#45;space.hh">
<polygon fill="white" stroke="black" points="426,-190.5 426,-220.5 539,-220.5 539,-190.5 426,-190.5"/>
<text text-anchor="start" x="434" y="-208.5" font-family="Helvetica,sans-Serif" font-size="10.00">hpp/pinocchio/liegroup</text>
<text text-anchor="middle" x="482.5" y="-197.5" font-family="Helvetica,sans-Serif" font-size="10.00">&#45;space.hh</text>
</a>
</g>
</g>
<!-- Node5&#45;&gt;Node6 -->
<g id="edge5" class="edge"><title>Node5&#45;&gt;Node6</title>
<path fill="none" stroke="midnightblue" d="M491.896,-257.396C490.449,-249.56 488.61,-239.596 486.943,-230.565"/>
<polygon fill="midnightblue" stroke="midnightblue" points="490.356,-229.775 485.099,-220.577 483.472,-231.046 490.356,-229.775"/>
</g>
<!-- Node6&#45;&gt;Node4 -->
<g id="edge12" class="edge"><title>Node6&#45;&gt;Node4</title>
<path fill="none" stroke="midnightblue" d="M443.088,-190.454C397.528,-172.528 322.651,-137.649 274.5,-87 258.825,-70.5117 248.245,-46.3082 242.311,-29.6687"/>
<polygon fill="midnightblue" stroke="midnightblue" points="245.563,-28.3589 239.074,-19.9836 238.924,-30.5774 245.563,-28.3589"/>
</g>
<!-- Node7 -->
<g id="node7" class="node"><title>Node7</title>
<g id="a_node7"><a doxygen="/local/devel/hpp/install/share/doc/hpp-pinocchio/doxygen-html/hpp-pinocchio.doxytag:../../hpp-pinocchio/doxygen-html/" xlink:href="../../hpp-pinocchio/doxygen-html/a00105.html" target="_top" xlink:title="hpp/pinocchio/liegroup.hh">
<polygon fill="white" stroke="black" points="419,-129 419,-148 546,-148 546,-129 419,-129"/>
<text text-anchor="middle" x="482.5" y="-136" font-family="Helvetica,sans-Serif" font-size="10.00">hpp/pinocchio/liegroup.hh</text>
</a>
</g>
</g>
<!-- Node6&#45;&gt;Node7 -->
<g id="edge6" class="edge"><title>Node6&#45;&gt;Node7</title>
<path fill="none" stroke="midnightblue" d="M482.5,-190.396C482.5,-181.064 482.5,-168.714 482.5,-158.517"/>
<polygon fill="midnightblue" stroke="midnightblue" points="486,-158.195 482.5,-148.195 479,-158.195 486,-158.195"/>
</g>
<!-- Node8 -->
<g id="node8" class="node"><title>Node8</title>
<g id="a_node8"><a doxygen="/local/devel/hpp/install/share/doc/hpp-pinocchio/doxygen-html/hpp-pinocchio.doxytag:../../hpp-pinocchio/doxygen-html/" xlink:href="../../hpp-pinocchio/doxygen-html/a00114.html" target="_top" xlink:title="hpp/pinocchio/liegroup\l/vector&#45;space.hh">
<polygon fill="white" stroke="black" points="677,-56.5 677,-86.5 790,-86.5 790,-56.5 677,-56.5"/>
<text text-anchor="start" x="685" y="-74.5" font-family="Helvetica,sans-Serif" font-size="10.00">hpp/pinocchio/liegroup</text>
<text text-anchor="middle" x="733.5" y="-63.5" font-family="Helvetica,sans-Serif" font-size="10.00">/vector&#45;space.hh</text>
</a>
</g>
</g>
<!-- Node7&#45;&gt;Node8 -->
<g id="edge7" class="edge"><title>Node7&#45;&gt;Node8</title>
<path fill="none" stroke="midnightblue" d="M515.572,-128.936C554.553,-118.841 620.23,-101.833 669.315,-89.1215"/>
<polygon fill="midnightblue" stroke="midnightblue" points="670.407,-92.4544 679.21,-86.5592 668.652,-85.6779 670.407,-92.4544"/>
</g>
<!-- Node9 -->
<g id="node9" class="node"><title>Node9</title>
<g id="a_node9"><a doxygen="/local/devel/hpp/install/share/doc/hpp-pinocchio/doxygen-html/hpp-pinocchio.doxytag:../../hpp-pinocchio/doxygen-html/" xlink:href="../../hpp-pinocchio/doxygen-html/a00089.html" target="_top" xlink:title="hpp/pinocchio/liegroup\l/cartesian&#45;product.hh">
<polygon fill="white" stroke="black" points="415,-56.5 415,-86.5 528,-86.5 528,-56.5 415,-56.5"/>
<text text-anchor="start" x="423" y="-74.5" font-family="Helvetica,sans-Serif" font-size="10.00">hpp/pinocchio/liegroup</text>
<text text-anchor="middle" x="471.5" y="-63.5" font-family="Helvetica,sans-Serif" font-size="10.00">/cartesian&#45;product.hh</text>
</a>
</g>
</g>
<!-- Node7&#45;&gt;Node9 -->
<g id="edge9" class="edge"><title>Node7&#45;&gt;Node9</title>
<path fill="none" stroke="midnightblue" d="M481.016,-128.734C479.63,-120.541 477.495,-107.923 475.598,-96.7136"/>
<polygon fill="midnightblue" stroke="midnightblue" points="479.004,-95.8648 473.884,-86.589 472.102,-97.0329 479.004,-95.8648"/>
</g>
<!-- Node10 -->
<g id="node10" class="node"><title>Node10</title>
<g id="a_node10"><a doxygen="/local/devel/hpp/install/share/doc/hpp-pinocchio/doxygen-html/hpp-pinocchio.doxytag:../../hpp-pinocchio/doxygen-html/" xlink:href="../../hpp-pinocchio/doxygen-html/a00111.html" target="_top" xlink:title="hpp/pinocchio/liegroup\l/special&#45;orthogonal.hh">
<polygon fill="white" stroke="black" points="546,-56.5 546,-86.5 659,-86.5 659,-56.5 546,-56.5"/>
<text text-anchor="start" x="554" y="-74.5" font-family="Helvetica,sans-Serif" font-size="10.00">hpp/pinocchio/liegroup</text>
<text text-anchor="middle" x="602.5" y="-63.5" font-family="Helvetica,sans-Serif" font-size="10.00">/special&#45;orthogonal.hh</text>
</a>
</g>
</g>
<!-- Node7&#45;&gt;Node10 -->
<g id="edge10" class="edge"><title>Node7&#45;&gt;Node10</title>
<path fill="none" stroke="midnightblue" d="M498.684,-128.734C516.227,-119.231 544.758,-103.777 567.475,-91.4719"/>
<polygon fill="midnightblue" stroke="midnightblue" points="569.364,-94.4294 576.49,-86.589 566.03,-88.2744 569.364,-94.4294"/>
</g>
<!-- Node11 -->
<g id="node11" class="node"><title>Node11</title>
<g id="a_node11"><a doxygen="/local/devel/hpp/install/share/doc/hpp-pinocchio/doxygen-html/hpp-pinocchio.doxytag:../../hpp-pinocchio/doxygen-html/" xlink:href="../../hpp-pinocchio/doxygen-html/a00110.html" target="_top" xlink:title="hpp/pinocchio/liegroup\l/special&#45;euclidean.hh">
<polygon fill="white" stroke="black" points="284,-56.5 284,-86.5 397,-86.5 397,-56.5 284,-56.5"/>
<text text-anchor="start" x="292" y="-74.5" font-family="Helvetica,sans-Serif" font-size="10.00">hpp/pinocchio/liegroup</text>
<text text-anchor="middle" x="340.5" y="-63.5" font-family="Helvetica,sans-Serif" font-size="10.00">/special&#45;euclidean.hh</text>
</a>
</g>
</g>
<!-- Node7&#45;&gt;Node11 -->
<g id="edge11" class="edge"><title>Node7&#45;&gt;Node11</title>
<path fill="none" stroke="midnightblue" d="M463.643,-128.869C442.52,-119.199 407.674,-103.249 380.43,-90.778"/>
<polygon fill="midnightblue" stroke="midnightblue" points="381.695,-87.5078 371.146,-86.5281 378.782,-93.8727 381.695,-87.5078"/>
</g>
<!-- Node8&#45;&gt;Node4 -->
<g id="edge8" class="edge"><title>Node8&#45;&gt;Node4</title>
<path fill="none" stroke="midnightblue" d="M676.855,-57.4587C674.035,-56.9369 671.239,-56.4466 668.5,-56 539.056,-34.8929 386.092,-21.6946 301.319,-15.4015"/>
<polygon fill="midnightblue" stroke="midnightblue" points="301.554,-11.9094 291.325,-14.6682 301.042,-18.8907 301.554,-11.9094"/>
</g>
<!-- Node12&#45;&gt;Node4 -->
<g id="edge14" class="edge"><title>Node12&#45;&gt;Node4</title>
<path fill="none" stroke="midnightblue" d="M218.132,-262.833C220.82,-225.981 231.334,-81.8255 235.127,-29.8295"/>
<polygon fill="midnightblue" stroke="midnightblue" points="238.629,-29.928 235.865,-19.6999 231.647,-29.4187 238.629,-29.928"/>
</g>
<!-- Node13 -->
<g id="node13" class="node"><title>Node13</title>
<polygon fill="white" stroke="#bfbfbf" points="245.5,-196 245.5,-215 393.5,-215 393.5,-196 245.5,-196"/>
<text text-anchor="middle" x="319.5" y="-203" font-family="Helvetica,sans-Serif" font-size="10.00">hpp/constraints/deprecated.hh</text>
</g>
<!-- Node12&#45;&gt;Node13 -->
<g id="edge15" class="edge"><title>Node12&#45;&gt;Node13</title>
<path fill="none" stroke="midnightblue" d="M231.256,-262.734C248.232,-251.916 277.314,-233.383 297.427,-220.566"/>
<polygon fill="midnightblue" stroke="midnightblue" points="299.41,-223.453 305.962,-215.127 295.648,-217.55 299.41,-223.453"/>
</g>
<!-- Node14&#45;&gt;Node5 -->
<g id="edge19" class="edge"><title>Node14&#45;&gt;Node5</title>
<path fill="none" stroke="midnightblue" d="M370.784,-324.396C394.283,-314.728 425.654,-301.823 450.926,-291.426"/>
<polygon fill="midnightblue" stroke="midnightblue" points="452.367,-294.618 460.283,-287.577 449.704,-288.144 452.367,-294.618"/>
</g>
<!-- Node14&#45;&gt;Node12 -->
<g id="edge17" class="edge"><title>Node14&#45;&gt;Node12</title>
<path fill="none" stroke="midnightblue" d="M310.679,-324.396C290.261,-313.243 261.953,-297.781 241.911,-286.834"/>
<polygon fill="midnightblue" stroke="midnightblue" points="243.528,-283.729 233.074,-282.007 240.173,-289.872 243.528,-283.729"/>
</g>
<!-- Node15 -->
<g id="node15" class="node"><title>Node15</title>
<polygon fill="white" stroke="#bfbfbf" points="293.5,-263 293.5,-282 419.5,-282 419.5,-263 293.5,-263"/>
<text text-anchor="middle" x="356.5" y="-270" font-family="Helvetica,sans-Serif" font-size="10.00">hpp/constraints/config.hh</text>
</g>
<!-- Node14&#45;&gt;Node15 -->
<g id="edge18" class="edge"><title>Node14&#45;&gt;Node15</title>
<path fill="none" stroke="midnightblue" d="M340.84,-324.396C343.773,-314.863 347.675,-302.182 350.85,-291.862"/>
<polygon fill="midnightblue" stroke="midnightblue" points="354.229,-292.782 353.825,-282.195 347.539,-290.723 354.229,-292.782"/>
</g>
</g>
</svg>
