<?xml version="1.0" encoding="UTF-8" standalone="no"?>
<!DOCTYPE svg PUBLIC "-//W3C//DTD SVG 1.1//EN"
 "http://www.w3.org/Graphics/SVG/1.1/DTD/svg11.dtd">
<!-- Generated by graphviz version 2.38.0 (20140413.2041)
 -->
<!-- Title: implicit.hh Pages: 1 -->
<svg width="474pt" height="263pt"
 viewBox="0.00 0.00 473.50 263.00" xmlns="http://www.w3.org/2000/svg" xmlns:xlink="http://www.w3.org/1999/xlink">
<g id="graph0" class="graph" transform="scale(1 1) rotate(0) translate(4 259)">
<title>implicit.hh</title>
<polygon fill="white" stroke="none" points="-4,4 -4,-259 469.5,-259 469.5,4 -4,4"/>
<!-- Node1 -->
<g id="node1" class="node"><title>Node1</title>
<polygon fill="#bfbfbf" stroke="black" points="137.5,-235.5 137.5,-254.5 198.5,-254.5 198.5,-235.5 137.5,-235.5"/>
<text text-anchor="middle" x="168" y="-242.5" font-family="Helvetica,sans-Serif" font-size="10.00">implicit.hh</text>
</g>
<!-- Node2 -->
<g id="node2" class="node"><title>Node2</title>
<g id="a_node2"><a xlink:href="a00112.html" target="_top" xlink:title="explicit.hh">
<polygon fill="white" stroke="black" points="137.5,-174 137.5,-193 198.5,-193 198.5,-174 137.5,-174"/>
<text text-anchor="middle" x="168" y="-181" font-family="Helvetica,sans-Serif" font-size="10.00">explicit.hh</text>
</a>
</g>
</g>
<!-- Node1&#45;&gt;Node2 -->
<g id="edge1" class="edge"><title>Node1&#45;&gt;Node2</title>
<path fill="none" stroke="midnightblue" d="M168,-225.317C168,-214.496 168,-201.398 168,-193.009"/>
<polygon fill="midnightblue" stroke="midnightblue" points="164.5,-225.475 168,-235.475 171.5,-225.475 164.5,-225.475"/>
</g>
<!-- Node8 -->
<g id="node8" class="node"><title>Node8</title>
<g id="a_node8"><a xlink:href="a00132.html" target="_top" xlink:title="relative&#45;pose.hh">
<polygon fill="white" stroke="black" points="16,-174 16,-193 102,-193 102,-174 16,-174"/>
<text text-anchor="middle" x="59" y="-181" font-family="Helvetica,sans-Serif" font-size="10.00">relative&#45;pose.hh</text>
</a>
</g>
</g>
<!-- Node1&#45;&gt;Node8 -->
<g id="edge7" class="edge"><title>Node1&#45;&gt;Node8</title>
<path fill="none" stroke="midnightblue" d="M143.372,-230.556C122.278,-219.042 92.5443,-202.811 74.5881,-193.009"/>
<polygon fill="midnightblue" stroke="midnightblue" points="141.929,-233.756 152.383,-235.475 145.283,-227.612 141.929,-233.756"/>
</g>
<!-- Node9 -->
<g id="node9" class="node"><title>Node9</title>
<g id="a_node9"><a xlink:href="a00117.html" target="_top" xlink:title="implicit&#45;constraint\l&#45;set.hh">
<polygon fill="white" stroke="black" points="288.5,-168.5 288.5,-198.5 381.5,-198.5 381.5,-168.5 288.5,-168.5"/>
<text text-anchor="start" x="296.5" y="-186.5" font-family="Helvetica,sans-Serif" font-size="10.00">implicit&#45;constraint</text>
<text text-anchor="middle" x="335" y="-175.5" font-family="Helvetica,sans-Serif" font-size="10.00">&#45;set.hh</text>
</a>
</g>
</g>
<!-- Node1&#45;&gt;Node9 -->
<g id="edge9" class="edge"><title>Node1&#45;&gt;Node9</title>
<path fill="none" stroke="midnightblue" d="M201.391,-232.103C228.565,-222.422 266.974,-208.737 295.641,-198.523"/>
<polygon fill="midnightblue" stroke="midnightblue" points="200.172,-228.822 191.927,-235.475 202.522,-235.416 200.172,-228.822"/>
</g>
<!-- Node3 -->
<g id="node3" class="node"><title>Node3</title>
<g id="a_node3"><a xlink:href="a00131.html" target="_top" xlink:title="relative&#45;pose.hh">
<polygon fill="white" stroke="black" points="0,-112.5 0,-131.5 86,-131.5 86,-112.5 0,-112.5"/>
<text text-anchor="middle" x="43" y="-119.5" font-family="Helvetica,sans-Serif" font-size="10.00">relative&#45;pose.hh</text>
</a>
</g>
</g>
<!-- Node2&#45;&gt;Node3 -->
<g id="edge2" class="edge"><title>Node2&#45;&gt;Node3</title>
<path fill="none" stroke="midnightblue" d="M141.055,-169.674C116.8,-158.129 81.8393,-141.487 60.8762,-131.509"/>
<polygon fill="midnightblue" stroke="midnightblue" points="139.557,-172.837 150.091,-173.975 142.566,-166.517 139.557,-172.837"/>
</g>
<!-- Node4 -->
<g id="node4" class="node"><title>Node4</title>
<g id="a_node4"><a xlink:href="a00133.html" target="_top" xlink:title="relative&#45;transformation.hh">
<polygon fill="white" stroke="black" points="104.5,-112.5 104.5,-131.5 231.5,-131.5 231.5,-112.5 104.5,-112.5"/>
<text text-anchor="middle" x="168" y="-119.5" font-family="Helvetica,sans-Serif" font-size="10.00">relative&#45;transformation.hh</text>
</a>
</g>
</g>
<!-- Node2&#45;&gt;Node4 -->
<g id="edge3" class="edge"><title>Node2&#45;&gt;Node4</title>
<path fill="none" stroke="midnightblue" d="M168,-163.817C168,-152.996 168,-139.898 168,-131.509"/>
<polygon fill="midnightblue" stroke="midnightblue" points="164.5,-163.975 168,-173.975 171.5,-163.975 164.5,-163.975"/>
</g>
<!-- Node5 -->
<g id="node5" class="node"><title>Node5</title>
<g id="a_node5"><a xlink:href="a00121.html" target="_top" xlink:title="locked&#45;joint.hh">
<polygon fill="white" stroke="black" points="250,-112.5 250,-131.5 330,-131.5 330,-112.5 250,-112.5"/>
<text text-anchor="middle" x="290" y="-119.5" font-family="Helvetica,sans-Serif" font-size="10.00">locked&#45;joint.hh</text>
</a>
</g>
</g>
<!-- Node2&#45;&gt;Node5 -->
<g id="edge4" class="edge"><title>Node2&#45;&gt;Node5</title>
<path fill="none" stroke="midnightblue" d="M194.613,-169.521C218.273,-157.982 252.183,-141.443 272.553,-131.509"/>
<polygon fill="midnightblue" stroke="midnightblue" points="192.933,-166.446 185.48,-173.975 196.002,-172.737 192.933,-166.446"/>
</g>
<!-- Node6 -->
<g id="node6" class="node"><title>Node6</title>
<g id="a_node6"><a xlink:href="a00097.html" target="_top" xlink:title="by&#45;substitution.hh">
<polygon fill="white" stroke="black" points="246,-56.5 246,-75.5 340,-75.5 340,-56.5 246,-56.5"/>
<text text-anchor="middle" x="293" y="-63.5" font-family="Helvetica,sans-Serif" font-size="10.00">by&#45;substitution.hh</text>
</a>
</g>
</g>
<!-- Node5&#45;&gt;Node6 -->
<g id="edge5" class="edge"><title>Node5&#45;&gt;Node6</title>
<path fill="none" stroke="midnightblue" d="M291.066,-101.805C291.561,-92.9102 292.123,-82.7798 292.514,-75.7511"/>
<polygon fill="midnightblue" stroke="midnightblue" points="287.556,-101.904 290.495,-112.083 294.545,-102.293 287.556,-101.904"/>
</g>
<!-- Node7 -->
<g id="node7" class="node"><title>Node7</title>
<g id="a_node7"><a xlink:href="a00116.html" target="_top" xlink:title="hybrid&#45;solver.hh">
<polygon fill="white" stroke="black" points="250,-0.5 250,-19.5 336,-19.5 336,-0.5 250,-0.5"/>
<text text-anchor="middle" x="293" y="-7.5" font-family="Helvetica,sans-Serif" font-size="10.00">hybrid&#45;solver.hh</text>
</a>
</g>
</g>
<!-- Node6&#45;&gt;Node7 -->
<g id="edge6" class="edge"><title>Node6&#45;&gt;Node7</title>
<path fill="none" stroke="midnightblue" d="M293,-45.8045C293,-36.9102 293,-26.7798 293,-19.7511"/>
<polygon fill="midnightblue" stroke="midnightblue" points="289.5,-46.083 293,-56.083 296.5,-46.083 289.5,-46.083"/>
</g>
<!-- Node8&#45;&gt;Node3 -->
<g id="edge8" class="edge"><title>Node8&#45;&gt;Node3</title>
<path fill="none" stroke="midnightblue" d="M54.0676,-164.157C51.1405,-153.272 47.5677,-139.986 45.2882,-131.509"/>
<polygon fill="midnightblue" stroke="midnightblue" points="50.7308,-165.227 56.7076,-173.975 57.4906,-163.409 50.7308,-165.227"/>
</g>
<!-- Node10 -->
<g id="node10" class="node"><title>Node10</title>
<g id="a_node10"><a xlink:href="a00114.html" target="_top" xlink:title="hierarchical&#45;iterative.hh">
<polygon fill="white" stroke="black" points="348.5,-112.5 348.5,-131.5 465.5,-131.5 465.5,-112.5 348.5,-112.5"/>
<text text-anchor="middle" x="407" y="-119.5" font-family="Helvetica,sans-Serif" font-size="10.00">hierarchical&#45;iterative.hh</text>
</a>
</g>
</g>
<!-- Node9&#45;&gt;Node10 -->
<g id="edge10" class="edge"><title>Node9&#45;&gt;Node10</title>
<path fill="none" stroke="midnightblue" d="M359.936,-161.893C372.46,-151.543 386.964,-139.558 396.523,-131.658"/>
<polygon fill="midnightblue" stroke="midnightblue" points="357.542,-159.331 352.063,-168.399 362.001,-164.727 357.542,-159.331"/>
</g>
<!-- Node10&#45;&gt;Node6 -->
<g id="edge11" class="edge"><title>Node10&#45;&gt;Node6</title>
<path fill="none" stroke="midnightblue" d="M379.758,-108.096C358.46,-98.0073 329.458,-84.2697 310.979,-75.5164"/>
<polygon fill="midnightblue" stroke="midnightblue" points="378.401,-111.326 388.936,-112.444 381.397,-105 378.401,-111.326"/>
</g>
<!-- Node11 -->
<g id="node11" class="node"><title>Node11</title>
<g id="a_node11"><a xlink:href="a00120.html" target="_top" xlink:title="iterative&#45;solver.hh">
<polygon fill="white" stroke="black" points="360,-56.5 360,-75.5 454,-75.5 454,-56.5 360,-56.5"/>
<text text-anchor="middle" x="407" y="-63.5" font-family="Helvetica,sans-Serif" font-size="10.00">iterative&#45;solver.hh</text>
</a>
</g>
</g>
<!-- Node10&#45;&gt;Node11 -->
<g id="edge12" class="edge"><title>Node10&#45;&gt;Node11</title>
<path fill="none" stroke="midnightblue" d="M407,-101.805C407,-92.9102 407,-82.7798 407,-75.7511"/>
<polygon fill="midnightblue" stroke="midnightblue" points="403.5,-102.083 407,-112.083 410.5,-102.083 403.5,-102.083"/>
</g>
</g>
</svg>
