<?xml version="1.0" encoding="UTF-8" standalone="no"?>
<!DOCTYPE svg PUBLIC "-//W3C//DTD SVG 1.1//EN"
 "http://www.w3.org/Graphics/SVG/1.1/DTD/svg11.dtd">
<!-- Generated by graphviz version 2.38.0 (20140413.2041)
 -->
<!-- Title: com&#45;between&#45;feet.hh Pages: 1 -->
<svg width="772pt" height="408pt"
 viewBox="0.00 0.00 771.58 408.00" xmlns="http://www.w3.org/2000/svg" xmlns:xlink="http://www.w3.org/1999/xlink">
<g id="graph0" class="graph" transform="scale(1 1) rotate(0) translate(4 404)">
<title>com&#45;between&#45;feet.hh</title>
<polygon fill="white" stroke="none" points="-4,4 -4,-404 767.578,-404 767.578,4 -4,4"/>
<!-- Node1 -->
<g id="node1" class="node"><title>Node1</title>
<polygon fill="#bfbfbf" stroke="black" points="252.078,-380.5 252.078,-399.5 360.078,-399.5 360.078,-380.5 252.078,-380.5"/>
<text text-anchor="middle" x="306.078" y="-387.5" font-family="Helvetica,sans-Serif" font-size="10.00">com&#45;between&#45;feet.hh</text>
</g>
<!-- Node2 -->
<g id="node2" class="node"><title>Node2</title>
<polygon fill="white" stroke="#bfbfbf" points="59.0776,-319 59.0776,-338 179.078,-338 179.078,-319 59.0776,-319"/>
<text text-anchor="middle" x="119.078" y="-326" font-family="Helvetica,sans-Serif" font-size="10.00">boost/assign/list_of.hpp</text>
</g>
<!-- Node1&#45;&gt;Node2 -->
<g id="edge1" class="edge"><title>Node1&#45;&gt;Node2</title>
<path fill="none" stroke="midnightblue" d="M279.285,-380.475C246.791,-370.136 191.869,-352.661 155.54,-341.102"/>
<polygon fill="midnightblue" stroke="midnightblue" points="156.411,-337.706 145.82,-338.009 154.288,-344.376 156.411,-337.706"/>
</g>
<!-- Node3 -->
<g id="node3" class="node"><title>Node3</title>
<g id="a_node3"><a xlink:href="a00107.html" target="_top" xlink:title="hpp/constraints/differentiable\l&#45;function.hh">
<polygon fill="white" stroke="black" points="235.078,-313.5 235.078,-343.5 377.078,-343.5 377.078,-313.5 235.078,-313.5"/>
<text text-anchor="start" x="243.078" y="-331.5" font-family="Helvetica,sans-Serif" font-size="10.00">hpp/constraints/differentiable</text>
<text text-anchor="middle" x="306.078" y="-320.5" font-family="Helvetica,sans-Serif" font-size="10.00">&#45;function.hh</text>
</a>
</g>
</g>
<!-- Node1&#45;&gt;Node3 -->
<g id="edge2" class="edge"><title>Node1&#45;&gt;Node3</title>
<path fill="none" stroke="midnightblue" d="M306.078,-380.475C306.078,-373.471 306.078,-363.192 306.078,-353.696"/>
<polygon fill="midnightblue" stroke="midnightblue" points="309.578,-353.523 306.078,-343.523 302.578,-353.523 309.578,-353.523"/>
</g>
<!-- Node4 -->
<g id="node4" class="node"><title>Node4</title>
<g id="a_node4"><a xlink:href="a00001.html" target="_top" xlink:title="hpp/constraints/fwd.hh">
<polygon fill="white" stroke="black" points="373.078,-252 373.078,-271 489.078,-271 489.078,-252 373.078,-252"/>
<text text-anchor="middle" x="431.078" y="-259" font-family="Helvetica,sans-Serif" font-size="10.00">hpp/constraints/fwd.hh</text>
</a>
</g>
</g>
<!-- Node1&#45;&gt;Node4 -->
<g id="edge17" class="edge"><title>Node1&#45;&gt;Node4</title>
<path fill="none" stroke="midnightblue" d="M328.619,-380.363C345.975,-372.83 369.691,-360.516 386.078,-344 404.263,-325.67 417.275,-298.48 424.489,-280.626"/>
<polygon fill="midnightblue" stroke="midnightblue" points="427.828,-281.694 428.144,-271.104 421.293,-279.185 427.828,-281.694"/>
</g>
<!-- Node7 -->
<g id="node7" class="node"><title>Node7</title>
<polygon fill="white" stroke="#bfbfbf" points="97.0776,-252 97.0776,-271 223.078,-271 223.078,-252 97.0776,-252"/>
<text text-anchor="middle" x="160.078" y="-259" font-family="Helvetica,sans-Serif" font-size="10.00">hpp/constraints/config.hh</text>
</g>
<!-- Node1&#45;&gt;Node7 -->
<g id="edge16" class="edge"><title>Node1&#45;&gt;Node7</title>
<path fill="none" stroke="midnightblue" d="M286.359,-380.491C269.317,-372.561 244.584,-359.627 226.078,-344 203.542,-324.97 183.098,-297.388 171.123,-279.698"/>
<polygon fill="midnightblue" stroke="midnightblue" points="173.814,-277.421 165.382,-271.006 167.972,-281.279 173.814,-277.421"/>
</g>
<!-- Node15 -->
<g id="node15" class="node"><title>Node15</title>
<g id="a_node15"><a xlink:href="a00138.html" target="_top" xlink:title="hpp/constraints/tools.hh">
<polygon fill="white" stroke="black" points="484.578,-319 484.578,-338 605.578,-338 605.578,-319 484.578,-319"/>
<text text-anchor="middle" x="545.078" y="-326" font-family="Helvetica,sans-Serif" font-size="10.00">hpp/constraints/tools.hh</text>
</a>
</g>
</g>
<!-- Node1&#45;&gt;Node15 -->
<g id="edge18" class="edge"><title>Node1&#45;&gt;Node15</title>
<path fill="none" stroke="midnightblue" d="M340.32,-380.475C382.648,-369.937 454.754,-351.986 501.128,-340.441"/>
<polygon fill="midnightblue" stroke="midnightblue" points="502.04,-343.821 510.898,-338.009 500.349,-337.029 502.04,-343.821"/>
</g>
<!-- Node3&#45;&gt;Node4 -->
<g id="edge3" class="edge"><title>Node3&#45;&gt;Node4</title>
<path fill="none" stroke="midnightblue" d="M333.201,-313.396C354.745,-302.193 384.652,-286.641 405.721,-275.685"/>
<polygon fill="midnightblue" stroke="midnightblue" points="407.461,-278.726 414.718,-271.007 404.231,-272.515 407.461,-278.726"/>
</g>
<!-- Node3&#45;&gt;Node7 -->
<g id="edge6" class="edge"><title>Node3&#45;&gt;Node7</title>
<path fill="none" stroke="midnightblue" d="M274.398,-313.396C248.78,-301.991 213.04,-286.079 188.374,-275.098"/>
<polygon fill="midnightblue" stroke="midnightblue" points="189.745,-271.877 179.186,-271.007 186.898,-278.272 189.745,-271.877"/>
</g>
<!-- Node8 -->
<g id="node8" class="node"><title>Node8</title>
<g id="a_node8"><a doxygen="/local/devel/hpp/install/share/doc/hpp-pinocchio/doxygen-html/hpp-pinocchio.doxytag:../../hpp-pinocchio/doxygen-html/" xlink:href="../../hpp-pinocchio/doxygen-html/a00103.html" target="_top" xlink:title="hpp/pinocchio/liegroup\l&#45;element.hh">
<polygon fill="white" stroke="black" points="241.578,-246.5 241.578,-276.5 354.578,-276.5 354.578,-246.5 241.578,-246.5"/>
<text text-anchor="start" x="249.578" y="-264.5" font-family="Helvetica,sans-Serif" font-size="10.00">hpp/pinocchio/liegroup</text>
<text text-anchor="middle" x="298.078" y="-253.5" font-family="Helvetica,sans-Serif" font-size="10.00">&#45;element.hh</text>
</a>
</g>
</g>
<!-- Node3&#45;&gt;Node8 -->
<g id="edge7" class="edge"><title>Node3&#45;&gt;Node8</title>
<path fill="none" stroke="midnightblue" d="M304.342,-313.396C303.377,-305.56 302.151,-295.596 301.039,-286.565"/>
<polygon fill="midnightblue" stroke="midnightblue" points="304.505,-286.074 299.81,-276.577 297.558,-286.929 304.505,-286.074"/>
</g>
<!-- Node5 -->
<g id="node5" class="node"><title>Node5</title>
<g id="a_node5"><a doxygen="/local/devel/hpp/install/share/doc/hpp-pinocchio/doxygen-html/hpp-pinocchio.doxytag:../../hpp-pinocchio/doxygen-html/" xlink:href="../../hpp-pinocchio/doxygen-html/a00098.html" target="_top" xlink:title="hpp/pinocchio/fwd.hh">
<polygon fill="white" stroke="black" points="417.578,-0.5 417.578,-19.5 526.578,-19.5 526.578,-0.5 417.578,-0.5"/>
<text text-anchor="middle" x="472.078" y="-7.5" font-family="Helvetica,sans-Serif" font-size="10.00">hpp/pinocchio/fwd.hh</text>
</a>
</g>
</g>
<!-- Node4&#45;&gt;Node5 -->
<g id="edge4" class="edge"><title>Node4&#45;&gt;Node5</title>
<path fill="none" stroke="midnightblue" d="M455.697,-251.896C474.641,-243.976 499.905,-230.345 514.078,-210 545.914,-164.298 532.719,-142.439 538.078,-87 539.403,-73.2861 544.515,-68.1812 538.078,-56 530.654,-41.9533 516.657,-31.4667 503.457,-24.167"/>
<polygon fill="midnightblue" stroke="midnightblue" points="505.035,-21.0428 494.536,-19.6178 501.855,-27.2788 505.035,-21.0428"/>
</g>
<!-- Node6 -->
<g id="node6" class="node"><title>Node6</title>
<polygon fill="white" stroke="#bfbfbf" points="357.078,-185 357.078,-204 505.078,-204 505.078,-185 357.078,-185"/>
<text text-anchor="middle" x="431.078" y="-192" font-family="Helvetica,sans-Serif" font-size="10.00">hpp/constraints/deprecated.hh</text>
</g>
<!-- Node4&#45;&gt;Node6 -->
<g id="edge5" class="edge"><title>Node4&#45;&gt;Node6</title>
<path fill="none" stroke="midnightblue" d="M431.078,-251.734C431.078,-242.183 431.078,-226.618 431.078,-214.283"/>
<polygon fill="midnightblue" stroke="midnightblue" points="434.578,-214.127 431.078,-204.127 427.578,-214.127 434.578,-214.127"/>
</g>
<!-- Node9 -->
<g id="node9" class="node"><title>Node9</title>
<g id="a_node9"><a doxygen="/local/devel/hpp/install/share/doc/hpp-pinocchio/doxygen-html/hpp-pinocchio.doxytag:../../hpp-pinocchio/doxygen-html/" xlink:href="../../hpp-pinocchio/doxygen-html/a00104.html" target="_top" xlink:title="hpp/pinocchio/liegroup\l&#45;space.hh">
<polygon fill="white" stroke="black" points="177.578,-179.5 177.578,-209.5 290.578,-209.5 290.578,-179.5 177.578,-179.5"/>
<text text-anchor="start" x="185.578" y="-197.5" font-family="Helvetica,sans-Serif" font-size="10.00">hpp/pinocchio/liegroup</text>
<text text-anchor="middle" x="234.078" y="-186.5" font-family="Helvetica,sans-Serif" font-size="10.00">&#45;space.hh</text>
</a>
</g>
</g>
<!-- Node8&#45;&gt;Node9 -->
<g id="edge8" class="edge"><title>Node8&#45;&gt;Node9</title>
<path fill="none" stroke="midnightblue" d="M284.191,-246.396C275.72,-237.793 264.725,-226.626 255.192,-216.945"/>
<polygon fill="midnightblue" stroke="midnightblue" points="257.448,-214.247 247.937,-209.577 252.46,-219.158 257.448,-214.247"/>
</g>
<!-- Node9&#45;&gt;Node5 -->
<g id="edge15" class="edge"><title>Node9&#45;&gt;Node5</title>
<path fill="none" stroke="midnightblue" d="M177.54,-181.442C95.0783,-161.44 -42.6219,-117.427 13.0776,-56 39.045,-27.3622 287.046,-16.323 407.307,-12.6277"/>
<polygon fill="midnightblue" stroke="midnightblue" points="407.597,-16.1207 417.488,-12.3231 407.388,-9.12384 407.597,-16.1207"/>
</g>
<!-- Node10 -->
<g id="node10" class="node"><title>Node10</title>
<g id="a_node10"><a doxygen="/local/devel/hpp/install/share/doc/hpp-pinocchio/doxygen-html/hpp-pinocchio.doxytag:../../hpp-pinocchio/doxygen-html/" xlink:href="../../hpp-pinocchio/doxygen-html/a00105.html" target="_top" xlink:title="hpp/pinocchio/liegroup.hh">
<polygon fill="white" stroke="black" points="170.578,-123.5 170.578,-142.5 297.578,-142.5 297.578,-123.5 170.578,-123.5"/>
<text text-anchor="middle" x="234.078" y="-130.5" font-family="Helvetica,sans-Serif" font-size="10.00">hpp/pinocchio/liegroup.hh</text>
</a>
</g>
</g>
<!-- Node9&#45;&gt;Node10 -->
<g id="edge9" class="edge"><title>Node9&#45;&gt;Node10</title>
<path fill="none" stroke="midnightblue" d="M234.078,-179.399C234.078,-171.466 234.078,-161.458 234.078,-152.858"/>
<polygon fill="midnightblue" stroke="midnightblue" points="237.578,-152.658 234.078,-142.658 230.578,-152.658 237.578,-152.658"/>
</g>
<!-- Node11 -->
<g id="node11" class="node"><title>Node11</title>
<g id="a_node11"><a doxygen="/local/devel/hpp/install/share/doc/hpp-pinocchio/doxygen-html/hpp-pinocchio.doxytag:../../hpp-pinocchio/doxygen-html/" xlink:href="../../hpp-pinocchio/doxygen-html/a00114.html" target="_top" xlink:title="hpp/pinocchio/liegroup\l/vector&#45;space.hh">
<polygon fill="white" stroke="black" points="415.578,-56.5 415.578,-86.5 528.578,-86.5 528.578,-56.5 415.578,-56.5"/>
<text text-anchor="start" x="423.578" y="-74.5" font-family="Helvetica,sans-Serif" font-size="10.00">hpp/pinocchio/liegroup</text>
<text text-anchor="middle" x="472.078" y="-63.5" font-family="Helvetica,sans-Serif" font-size="10.00">/vector&#45;space.hh</text>
</a>
</g>
</g>
<!-- Node10&#45;&gt;Node11 -->
<g id="edge10" class="edge"><title>Node10&#45;&gt;Node11</title>
<path fill="none" stroke="midnightblue" d="M268.177,-123.475C304.026,-114.513 361.324,-100.188 406.065,-89.0032"/>
<polygon fill="midnightblue" stroke="midnightblue" points="407.133,-92.3439 415.986,-86.523 405.435,-85.5529 407.133,-92.3439"/>
</g>
<!-- Node12 -->
<g id="node12" class="node"><title>Node12</title>
<g id="a_node12"><a doxygen="/local/devel/hpp/install/share/doc/hpp-pinocchio/doxygen-html/hpp-pinocchio.doxytag:../../hpp-pinocchio/doxygen-html/" xlink:href="../../hpp-pinocchio/doxygen-html/a00089.html" target="_top" xlink:title="hpp/pinocchio/liegroup\l/cartesian&#45;product.hh">
<polygon fill="white" stroke="black" points="22.5776,-56.5 22.5776,-86.5 135.578,-86.5 135.578,-56.5 22.5776,-56.5"/>
<text text-anchor="start" x="30.5776" y="-74.5" font-family="Helvetica,sans-Serif" font-size="10.00">hpp/pinocchio/liegroup</text>
<text text-anchor="middle" x="79.0776" y="-63.5" font-family="Helvetica,sans-Serif" font-size="10.00">/cartesian&#45;product.hh</text>
</a>
</g>
</g>
<!-- Node10&#45;&gt;Node12 -->
<g id="edge12" class="edge"><title>Node10&#45;&gt;Node12</title>
<path fill="none" stroke="midnightblue" d="M211.87,-123.475C189.308,-114.814 153.7,-101.145 125.034,-90.1415"/>
<polygon fill="midnightblue" stroke="midnightblue" points="126.198,-86.8392 115.608,-86.523 123.689,-93.3743 126.198,-86.8392"/>
</g>
<!-- Node13 -->
<g id="node13" class="node"><title>Node13</title>
<g id="a_node13"><a doxygen="/local/devel/hpp/install/share/doc/hpp-pinocchio/doxygen-html/hpp-pinocchio.doxytag:../../hpp-pinocchio/doxygen-html/" xlink:href="../../hpp-pinocchio/doxygen-html/a00111.html" target="_top" xlink:title="hpp/pinocchio/liegroup\l/special&#45;orthogonal.hh">
<polygon fill="white" stroke="black" points="153.578,-56.5 153.578,-86.5 266.578,-86.5 266.578,-56.5 153.578,-56.5"/>
<text text-anchor="start" x="161.578" y="-74.5" font-family="Helvetica,sans-Serif" font-size="10.00">hpp/pinocchio/liegroup</text>
<text text-anchor="middle" x="210.078" y="-63.5" font-family="Helvetica,sans-Serif" font-size="10.00">/special&#45;orthogonal.hh</text>
</a>
</g>
</g>
<!-- Node10&#45;&gt;Node13 -->
<g id="edge13" class="edge"><title>Node10&#45;&gt;Node13</title>
<path fill="none" stroke="midnightblue" d="M230.639,-123.475C227.753,-116.32 223.489,-105.748 219.59,-96.0841"/>
<polygon fill="midnightblue" stroke="midnightblue" points="222.721,-94.4877 215.734,-86.523 216.229,-97.1062 222.721,-94.4877"/>
</g>
<!-- Node14 -->
<g id="node14" class="node"><title>Node14</title>
<g id="a_node14"><a doxygen="/local/devel/hpp/install/share/doc/hpp-pinocchio/doxygen-html/hpp-pinocchio.doxytag:../../hpp-pinocchio/doxygen-html/" xlink:href="../../hpp-pinocchio/doxygen-html/a00110.html" target="_top" xlink:title="hpp/pinocchio/liegroup\l/special&#45;euclidean.hh">
<polygon fill="white" stroke="black" points="284.578,-56.5 284.578,-86.5 397.578,-86.5 397.578,-56.5 284.578,-56.5"/>
<text text-anchor="start" x="292.578" y="-74.5" font-family="Helvetica,sans-Serif" font-size="10.00">hpp/pinocchio/liegroup</text>
<text text-anchor="middle" x="341.078" y="-63.5" font-family="Helvetica,sans-Serif" font-size="10.00">/special&#45;euclidean.hh</text>
</a>
</g>
</g>
<!-- Node10&#45;&gt;Node14 -->
<g id="edge14" class="edge"><title>Node10&#45;&gt;Node14</title>
<path fill="none" stroke="midnightblue" d="M249.408,-123.475C264.374,-115.153 287.654,-102.207 307.008,-91.445"/>
<polygon fill="midnightblue" stroke="midnightblue" points="308.821,-94.4418 315.86,-86.523 305.419,-88.324 308.821,-94.4418"/>
</g>
<!-- Node11&#45;&gt;Node5 -->
<g id="edge11" class="edge"><title>Node11&#45;&gt;Node5</title>
<path fill="none" stroke="midnightblue" d="M472.078,-56.3993C472.078,-48.4664 472.078,-38.458 472.078,-29.8583"/>
<polygon fill="midnightblue" stroke="midnightblue" points="475.578,-29.6577 472.078,-19.6578 468.578,-29.6578 475.578,-29.6577"/>
</g>
<!-- Node15&#45;&gt;Node4 -->
<g id="edge21" class="edge"><title>Node15&#45;&gt;Node4</title>
<path fill="none" stroke="midnightblue" d="M529.703,-318.734C510.559,-307.818 477.64,-289.049 455.142,-276.221"/>
<polygon fill="midnightblue" stroke="midnightblue" points="456.629,-273.04 446.209,-271.127 453.162,-279.121 456.629,-273.04"/>
</g>
<!-- Node16 -->
<g id="node16" class="node"><title>Node16</title>
<polygon fill="white" stroke="#bfbfbf" points="652.578,-246.5 652.578,-276.5 763.578,-276.5 763.578,-246.5 652.578,-246.5"/>
<text text-anchor="start" x="660.578" y="-264.5" font-family="Helvetica,sans-Serif" font-size="10.00">boost/math/constants</text>
<text text-anchor="middle" x="708.078" y="-253.5" font-family="Helvetica,sans-Serif" font-size="10.00">/constants.hpp</text>
</g>
<!-- Node15&#45;&gt;Node16 -->
<g id="edge19" class="edge"><title>Node15&#45;&gt;Node16</title>
<path fill="none" stroke="midnightblue" d="M566.723,-318.869C591.287,-309.073 632.02,-292.83 663.467,-280.29"/>
<polygon fill="midnightblue" stroke="midnightblue" points="664.907,-283.483 672.899,-276.528 662.314,-276.981 664.907,-283.483"/>
</g>
<!-- Node17 -->
<g id="node17" class="node"><title>Node17</title>
<polygon fill="white" stroke="#bfbfbf" points="507.578,-252 507.578,-271 634.578,-271 634.578,-252 507.578,-252"/>
<text text-anchor="middle" x="571.078" y="-259" font-family="Helvetica,sans-Serif" font-size="10.00">pinocchio/spatial/se3.hpp</text>
</g>
<!-- Node15&#45;&gt;Node17 -->
<g id="edge20" class="edge"><title>Node15&#45;&gt;Node17</title>
<path fill="none" stroke="midnightblue" d="M548.584,-318.734C552.482,-308.988 558.885,-292.981 563.865,-280.532"/>
<polygon fill="midnightblue" stroke="midnightblue" points="567.162,-281.712 567.627,-271.127 560.663,-279.112 567.162,-281.712"/>
</g>
</g>
</svg>
