<?xml version="1.0" encoding="UTF-8" standalone="no"?>
<!DOCTYPE svg PUBLIC "-//W3C//DTD SVG 1.1//EN"
 "http://www.w3.org/Graphics/SVG/1.1/DTD/svg11.dtd">
<!-- Generated by graphviz version 2.38.0 (20140413.2041)
 -->
<!-- Title: relative&#45;pose.hh Pages: 1 -->
<svg width="479pt" height="263pt"
 viewBox="0.00 0.00 479.00 263.00" xmlns="http://www.w3.org/2000/svg" xmlns:xlink="http://www.w3.org/1999/xlink">
<g id="graph0" class="graph" transform="scale(1 1) rotate(0) translate(4 259)">
<title>relative&#45;pose.hh</title>
<polygon fill="white" stroke="none" points="-4,4 -4,-259 475,-259 475,4 -4,4"/>
<!-- Node1 -->
<g id="node1" class="node"><title>Node1</title>
<polygon fill="#bfbfbf" stroke="black" points="224.5,-235.5 224.5,-254.5 310.5,-254.5 310.5,-235.5 224.5,-235.5"/>
<text text-anchor="middle" x="267.5" y="-242.5" font-family="Helvetica,sans-Serif" font-size="10.00">relative&#45;pose.hh</text>
</g>
<!-- Node2 -->
<g id="node2" class="node"><title>Node2</title>
<g id="a_node2"><a xlink:href="a00112.html" target="_top" xlink:title="hpp/constraints/explicit.hh">
<polygon fill="white" stroke="black" points="60,-174 60,-193 191,-193 191,-174 60,-174"/>
<text text-anchor="middle" x="125.5" y="-181" font-family="Helvetica,sans-Serif" font-size="10.00">hpp/constraints/explicit.hh</text>
</a>
</g>
</g>
<!-- Node1&#45;&gt;Node2 -->
<g id="edge1" class="edge"><title>Node1&#45;&gt;Node2</title>
<path fill="none" stroke="midnightblue" d="M247.155,-235.475C223.113,-225.401 182.903,-208.553 155.337,-197.002"/>
<polygon fill="midnightblue" stroke="midnightblue" points="156.383,-193.646 145.807,-193.009 153.678,-200.102 156.383,-193.646"/>
</g>
<!-- Node8 -->
<g id="node8" class="node"><title>Node8</title>
<g id="a_node8"><a xlink:href="a00132.html" target="_top" xlink:title="hpp/constraints/implicit\l/relative&#45;pose.hh">
<polygon fill="white" stroke="black" points="209,-168.5 209,-198.5 326,-198.5 326,-168.5 209,-168.5"/>
<text text-anchor="start" x="217" y="-186.5" font-family="Helvetica,sans-Serif" font-size="10.00">hpp/constraints/implicit</text>
<text text-anchor="middle" x="267.5" y="-175.5" font-family="Helvetica,sans-Serif" font-size="10.00">/relative&#45;pose.hh</text>
</a>
</g>
</g>
<!-- Node1&#45;&gt;Node8 -->
<g id="edge7" class="edge"><title>Node1&#45;&gt;Node8</title>
<path fill="none" stroke="midnightblue" d="M267.5,-235.475C267.5,-228.471 267.5,-218.192 267.5,-208.696"/>
<polygon fill="midnightblue" stroke="midnightblue" points="271,-208.523 267.5,-198.523 264,-208.523 271,-208.523"/>
</g>
<!-- Node9 -->
<g id="node9" class="node"><title>Node9</title>
<polygon fill="white" stroke="#bfbfbf" points="344,-174 344,-193 471,-193 471,-174 344,-174"/>
<text text-anchor="middle" x="407.5" y="-181" font-family="Helvetica,sans-Serif" font-size="10.00">pinocchio/spatial/se3.hpp</text>
</g>
<!-- Node1&#45;&gt;Node9 -->
<g id="edge9" class="edge"><title>Node1&#45;&gt;Node9</title>
<path fill="none" stroke="midnightblue" d="M287.559,-235.475C311.262,-225.401 350.906,-208.553 378.083,-197.002"/>
<polygon fill="midnightblue" stroke="midnightblue" points="379.644,-200.142 387.479,-193.009 376.906,-193.699 379.644,-200.142"/>
</g>
<!-- Node3 -->
<g id="node3" class="node"><title>Node3</title>
<g id="a_node3"><a xlink:href="a00119.html" target="_top" xlink:title="hpp/constraints/implicit.hh">
<polygon fill="white" stroke="black" points="131,-112.5 131,-131.5 262,-131.5 262,-112.5 131,-112.5"/>
<text text-anchor="middle" x="196.5" y="-119.5" font-family="Helvetica,sans-Serif" font-size="10.00">hpp/constraints/implicit.hh</text>
</a>
</g>
</g>
<!-- Node2&#45;&gt;Node3 -->
<g id="edge2" class="edge"><title>Node2&#45;&gt;Node3</title>
<path fill="none" stroke="midnightblue" d="M135.673,-173.975C146.85,-164.608 165.017,-149.384 178.591,-138.008"/>
<polygon fill="midnightblue" stroke="midnightblue" points="180.93,-140.615 186.346,-131.509 176.434,-135.25 180.93,-140.615"/>
</g>
<!-- Node4 -->
<g id="node4" class="node"><title>Node4</title>
<g id="a_node4"><a xlink:href="a00001.html" target="_top" xlink:title="hpp/constraints/fwd.hh">
<polygon fill="white" stroke="black" points="69.5,-56.5 69.5,-75.5 185.5,-75.5 185.5,-56.5 69.5,-56.5"/>
<text text-anchor="middle" x="127.5" y="-63.5" font-family="Helvetica,sans-Serif" font-size="10.00">hpp/constraints/fwd.hh</text>
</a>
</g>
</g>
<!-- Node3&#45;&gt;Node4 -->
<g id="edge3" class="edge"><title>Node3&#45;&gt;Node4</title>
<path fill="none" stroke="midnightblue" d="M185.414,-112.324C175.014,-104.185 159.239,-91.8395 146.778,-82.0874"/>
<polygon fill="midnightblue" stroke="midnightblue" points="148.82,-79.2407 138.788,-75.8339 144.506,-84.7533 148.82,-79.2407"/>
</g>
<!-- Node7 -->
<g id="node7" class="node"><title>Node7</title>
<polygon fill="white" stroke="#bfbfbf" points="203.5,-56.5 203.5,-75.5 329.5,-75.5 329.5,-56.5 203.5,-56.5"/>
<text text-anchor="middle" x="266.5" y="-63.5" font-family="Helvetica,sans-Serif" font-size="10.00">hpp/constraints/config.hh</text>
</g>
<!-- Node3&#45;&gt;Node7 -->
<g id="edge6" class="edge"><title>Node3&#45;&gt;Node7</title>
<path fill="none" stroke="midnightblue" d="M207.747,-112.324C218.297,-104.185 234.301,-91.8395 246.942,-82.0874"/>
<polygon fill="midnightblue" stroke="midnightblue" points="249.269,-84.7132 255.049,-75.8339 244.993,-79.1707 249.269,-84.7132"/>
</g>
<!-- Node5 -->
<g id="node5" class="node"><title>Node5</title>
<g id="a_node5"><a doxygen="/local/devel/hpp/install/share/doc/hpp-pinocchio/doxygen-html/hpp-pinocchio.doxytag:../../hpp-pinocchio/doxygen-html/" xlink:href="../../hpp-pinocchio/doxygen-html/a00098.html" target="_top" xlink:title="hpp/pinocchio/fwd.hh">
<polygon fill="white" stroke="black" points="0,-0.5 0,-19.5 109,-19.5 109,-0.5 0,-0.5"/>
<text text-anchor="middle" x="54.5" y="-7.5" font-family="Helvetica,sans-Serif" font-size="10.00">hpp/pinocchio/fwd.hh</text>
</a>
</g>
</g>
<!-- Node4&#45;&gt;Node5 -->
<g id="edge4" class="edge"><title>Node4&#45;&gt;Node5</title>
<path fill="none" stroke="midnightblue" d="M115.771,-56.324C104.663,-48.1066 87.7578,-35.6017 74.5167,-25.8069"/>
<polygon fill="midnightblue" stroke="midnightblue" points="76.5631,-22.9671 66.4421,-19.8339 72.4001,-28.5948 76.5631,-22.9671"/>
</g>
<!-- Node6 -->
<g id="node6" class="node"><title>Node6</title>
<polygon fill="white" stroke="#bfbfbf" points="127.5,-0.5 127.5,-19.5 275.5,-19.5 275.5,-0.5 127.5,-0.5"/>
<text text-anchor="middle" x="201.5" y="-7.5" font-family="Helvetica,sans-Serif" font-size="10.00">hpp/constraints/deprecated.hh</text>
</g>
<!-- Node4&#45;&gt;Node6 -->
<g id="edge5" class="edge"><title>Node4&#45;&gt;Node6</title>
<path fill="none" stroke="midnightblue" d="M139.389,-56.324C150.65,-48.1066 167.787,-35.6017 181.209,-25.8069"/>
<polygon fill="midnightblue" stroke="midnightblue" points="183.38,-28.5559 189.394,-19.8339 179.253,-22.9014 183.38,-28.5559"/>
</g>
<!-- Node8&#45;&gt;Node3 -->
<g id="edge8" class="edge"><title>Node8&#45;&gt;Node3</title>
<path fill="none" stroke="midnightblue" d="M250.674,-168.399C239.825,-159.308 225.723,-147.49 214.627,-138.191"/>
<polygon fill="midnightblue" stroke="midnightblue" points="216.744,-135.398 206.831,-131.658 212.248,-140.763 216.744,-135.398"/>
</g>
</g>
</svg>
