<?xml version="1.0" encoding="UTF-8" standalone="no"?>
<!DOCTYPE svg PUBLIC "-//W3C//DTD SVG 1.1//EN"
 "http://www.w3.org/Graphics/SVG/1.1/DTD/svg11.dtd">
<!-- Generated by graphviz version 2.38.0 (20140413.2041)
 -->
<!-- Title: tools.hh Pages: 1 -->
<svg width="300pt" height="196pt"
 viewBox="0.00 0.00 299.50 196.00" xmlns="http://www.w3.org/2000/svg" xmlns:xlink="http://www.w3.org/1999/xlink">
<g id="graph0" class="graph" transform="scale(1 1) rotate(0) translate(4 192)">
<title>tools.hh</title>
<polygon fill="white" stroke="none" points="-4,4 -4,-192 295.5,-192 295.5,4 -4,4"/>
<!-- Node1 -->
<g id="node1" class="node"><title>Node1</title>
<polygon fill="#bfbfbf" stroke="black" points="91.5,-168.5 91.5,-187.5 142.5,-187.5 142.5,-168.5 91.5,-168.5"/>
<text text-anchor="middle" x="117" y="-175.5" font-family="Helvetica,sans-Serif" font-size="10.00">tools.hh</text>
</g>
<!-- Node2 -->
<g id="node2" class="node"><title>Node2</title>
<g id="a_node2"><a xlink:href="a00099.html" target="_top" xlink:title="com&#45;between&#45;feet.hh">
<polygon fill="white" stroke="black" points="0,-112.5 0,-131.5 108,-131.5 108,-112.5 0,-112.5"/>
<text text-anchor="middle" x="54" y="-119.5" font-family="Helvetica,sans-Serif" font-size="10.00">com&#45;between&#45;feet.hh</text>
</a>
</g>
</g>
<!-- Node1&#45;&gt;Node2 -->
<g id="edge1" class="edge"><title>Node1&#45;&gt;Node2</title>
<path fill="none" stroke="midnightblue" d="M98.9601,-161.537C87.7269,-151.909 73.6809,-139.869 64.3062,-131.834"/>
<polygon fill="midnightblue" stroke="midnightblue" points="97.0076,-164.473 106.878,-168.324 101.563,-159.159 97.0076,-164.473"/>
</g>
<!-- Node3 -->
<g id="node3" class="node"><title>Node3</title>
<g id="a_node3"><a xlink:href="a00136.html" target="_top" xlink:title="symbolic&#45;calculus.hh">
<polygon fill="white" stroke="black" points="126,-112.5 126,-131.5 234,-131.5 234,-112.5 126,-112.5"/>
<text text-anchor="middle" x="180" y="-119.5" font-family="Helvetica,sans-Serif" font-size="10.00">symbolic&#45;calculus.hh</text>
</a>
</g>
</g>
<!-- Node1&#45;&gt;Node3 -->
<g id="edge2" class="edge"><title>Node1&#45;&gt;Node3</title>
<path fill="none" stroke="midnightblue" d="M135.04,-161.537C146.273,-151.909 160.319,-139.869 169.694,-131.834"/>
<polygon fill="midnightblue" stroke="midnightblue" points="132.437,-159.159 127.122,-168.324 136.992,-164.473 132.437,-159.159"/>
</g>
<!-- Node4 -->
<g id="node4" class="node"><title>Node4</title>
<g id="a_node4"><a xlink:href="a00134.html" target="_top" xlink:title="static&#45;stability.hh">
<polygon fill="white" stroke="black" points="75.5,-56.5 75.5,-75.5 166.5,-75.5 166.5,-56.5 75.5,-56.5"/>
<text text-anchor="middle" x="121" y="-63.5" font-family="Helvetica,sans-Serif" font-size="10.00">static&#45;stability.hh</text>
</a>
</g>
</g>
<!-- Node3&#45;&gt;Node4 -->
<g id="edge3" class="edge"><title>Node3&#45;&gt;Node4</title>
<path fill="none" stroke="midnightblue" d="M163.105,-105.537C152.585,-95.9087 139.431,-83.8694 130.652,-75.8339"/>
<polygon fill="midnightblue" stroke="midnightblue" points="160.781,-108.154 170.521,-112.324 165.507,-102.99 160.781,-108.154"/>
</g>
<!-- Node6 -->
<g id="node6" class="node"><title>Node6</title>
<g id="a_node6"><a xlink:href="a00137.html" target="_top" xlink:title="symbolic&#45;function.hh">
<polygon fill="white" stroke="black" points="184.5,-56.5 184.5,-75.5 291.5,-75.5 291.5,-56.5 184.5,-56.5"/>
<text text-anchor="middle" x="238" y="-63.5" font-family="Helvetica,sans-Serif" font-size="10.00">symbolic&#45;function.hh</text>
</a>
</g>
</g>
<!-- Node3&#45;&gt;Node6 -->
<g id="edge5" class="edge"><title>Node3&#45;&gt;Node6</title>
<path fill="none" stroke="midnightblue" d="M196.913,-105.253C207.203,-95.6731 219.966,-83.7906 228.512,-75.8339"/>
<polygon fill="midnightblue" stroke="midnightblue" points="194.253,-102.948 189.319,-112.324 199.023,-108.071 194.253,-102.948"/>
</g>
<!-- Node5 -->
<g id="node5" class="node"><title>Node5</title>
<g id="a_node5"><a xlink:href="a00129.html" target="_top" xlink:title="qp&#45;static&#45;stability.hh">
<polygon fill="white" stroke="black" points="69,-0.5 69,-19.5 173,-19.5 173,-0.5 69,-0.5"/>
<text text-anchor="middle" x="121" y="-7.5" font-family="Helvetica,sans-Serif" font-size="10.00">qp&#45;static&#45;stability.hh</text>
</a>
</g>
</g>
<!-- Node4&#45;&gt;Node5 -->
<g id="edge4" class="edge"><title>Node4&#45;&gt;Node5</title>
<path fill="none" stroke="midnightblue" d="M121,-45.8045C121,-36.9102 121,-26.7798 121,-19.7511"/>
<polygon fill="midnightblue" stroke="midnightblue" points="117.5,-46.083 121,-56.083 124.5,-46.083 117.5,-46.083"/>
</g>
</g>
</svg>
