<?xml version="1.0" encoding="UTF-8" standalone="no"?>
<!DOCTYPE svg PUBLIC "-//W3C//DTD SVG 1.1//EN"
 "http://www.w3.org/Graphics/SVG/1.1/DTD/svg11.dtd">
<!-- Generated by graphviz version 2.38.0 (20140413.2041)
 -->
<!-- Title: symbolic&#45;calculus.hh Pages: 1 -->
<svg width="1669pt" height="352pt"
 viewBox="0.00 0.00 1668.50 352.00" xmlns="http://www.w3.org/2000/svg" xmlns:xlink="http://www.w3.org/1999/xlink">
<g id="graph0" class="graph" transform="scale(1 1) rotate(0) translate(4 348)">
<title>symbolic&#45;calculus.hh</title>
<polygon fill="white" stroke="none" points="-4,4 -4,-348 1664.5,-348 1664.5,4 -4,4"/>
<!-- Node1 -->
<g id="node1" class="node"><title>Node1</title>
<polygon fill="#bfbfbf" stroke="black" points="1165,-324.5 1165,-343.5 1273,-343.5 1273,-324.5 1165,-324.5"/>
<text text-anchor="middle" x="1219" y="-331.5" font-family="Helvetica,sans-Serif" font-size="10.00">symbolic&#45;calculus.hh</text>
</g>
<!-- Node2 -->
<g id="node2" class="node"><title>Node2</title>
<polygon fill="white" stroke="#bfbfbf" points="1176.5,-196 1176.5,-215 1241.5,-215 1241.5,-196 1176.5,-196"/>
<text text-anchor="middle" x="1209" y="-203" font-family="Helvetica,sans-Serif" font-size="10.00">Eigen/SVD</text>
</g>
<!-- Node1&#45;&gt;Node2 -->
<g id="edge1" class="edge"><title>Node1&#45;&gt;Node2</title>
<path fill="none" stroke="midnightblue" d="M1212.63,-324.232C1206.74,-315.532 1198.39,-301.572 1195,-288 1189.63,-266.521 1195.81,-241.343 1201.57,-224.719"/>
<polygon fill="midnightblue" stroke="midnightblue" points="1204.93,-225.746 1205.18,-215.154 1198.38,-223.279 1204.93,-225.746"/>
</g>
<!-- Node3 -->
<g id="node3" class="node"><title>Node3</title>
<g id="a_node3"><a doxygen="/local/devel/hpp/install/share/doc/hpp-pinocchio/doxygen-html/hpp-pinocchio.doxytag:../../hpp-pinocchio/doxygen-html/" xlink:href="../../hpp-pinocchio/doxygen-html/a00102.html" target="_top" xlink:title="hpp/pinocchio/joint.hh">
<polygon fill="white" stroke="black" points="1188.5,-62 1188.5,-81 1299.5,-81 1299.5,-62 1188.5,-62"/>
<text text-anchor="middle" x="1244" y="-69" font-family="Helvetica,sans-Serif" font-size="10.00">hpp/pinocchio/joint.hh</text>
</a>
</g>
</g>
<!-- Node1&#45;&gt;Node3 -->
<g id="edge2" class="edge"><title>Node1&#45;&gt;Node3</title>
<path fill="none" stroke="midnightblue" d="M1211.79,-324.414C1194.17,-302.375 1151.51,-241.892 1167,-190 1179.13,-149.355 1210.32,-109.706 1229.07,-88.4584"/>
<polygon fill="midnightblue" stroke="midnightblue" points="1231.69,-90.7745 1235.81,-81.0102 1226.5,-86.0789 1231.69,-90.7745"/>
</g>
<!-- Node5 -->
<g id="node5" class="node"><title>Node5</title>
<g id="a_node5"><a doxygen="/local/devel/hpp/install/share/doc/hpp-pinocchio/doxygen-html/hpp-pinocchio.doxytag:../../hpp-pinocchio/doxygen-html/" xlink:href="../../hpp-pinocchio/doxygen-html/a00090.html" target="_top" xlink:title="hpp/pinocchio/center\l&#45;of&#45;mass&#45;computation.hh">
<polygon fill="white" stroke="black" points="535.5,-257.5 535.5,-287.5 660.5,-287.5 660.5,-257.5 535.5,-257.5"/>
<text text-anchor="start" x="543.5" y="-275.5" font-family="Helvetica,sans-Serif" font-size="10.00">hpp/pinocchio/center</text>
<text text-anchor="middle" x="598" y="-264.5" font-family="Helvetica,sans-Serif" font-size="10.00">&#45;of&#45;mass&#45;computation.hh</text>
</a>
</g>
</g>
<!-- Node1&#45;&gt;Node5 -->
<g id="edge4" class="edge"><title>Node1&#45;&gt;Node5</title>
<path fill="none" stroke="midnightblue" d="M1164.98,-327.824C1053.33,-317.126 797.063,-292.573 670.895,-280.484"/>
<polygon fill="midnightblue" stroke="midnightblue" points="670.857,-276.965 660.569,-279.495 670.189,-283.933 670.857,-276.965"/>
</g>
<!-- Node12 -->
<g id="node12" class="node"><title>Node12</title>
<g id="a_node12"><a doxygen="/local/devel/hpp/install/share/doc/hpp-pinocchio/doxygen-html/hpp-pinocchio.doxytag:../../hpp-pinocchio/doxygen-html/" xlink:href="../../hpp-pinocchio/doxygen-html/a00103.html" target="_top" xlink:title="hpp/pinocchio/liegroup\l&#45;element.hh">
<polygon fill="white" stroke="black" points="928.5,-257.5 928.5,-287.5 1041.5,-287.5 1041.5,-257.5 928.5,-257.5"/>
<text text-anchor="start" x="936.5" y="-275.5" font-family="Helvetica,sans-Serif" font-size="10.00">hpp/pinocchio/liegroup</text>
<text text-anchor="middle" x="985" y="-264.5" font-family="Helvetica,sans-Serif" font-size="10.00">&#45;element.hh</text>
</a>
</g>
</g>
<!-- Node1&#45;&gt;Node12 -->
<g id="edge18" class="edge"><title>Node1&#45;&gt;Node12</title>
<path fill="none" stroke="midnightblue" d="M1185.47,-324.475C1150.23,-315.513 1093.89,-301.188 1049.9,-290.003"/>
<polygon fill="midnightblue" stroke="midnightblue" points="1050.7,-286.595 1040.15,-287.523 1048.98,-293.379 1050.7,-286.595"/>
</g>
<!-- Node19 -->
<g id="node19" class="node"><title>Node19</title>
<g id="a_node19"><a xlink:href="a00001.html" target="_top" xlink:title="hpp/constraints/fwd.hh">
<polygon fill="white" stroke="black" points="1270,-196 1270,-215 1386,-215 1386,-196 1270,-196"/>
<text text-anchor="middle" x="1328" y="-203" font-family="Helvetica,sans-Serif" font-size="10.00">hpp/constraints/fwd.hh</text>
</a>
</g>
</g>
<!-- Node1&#45;&gt;Node19 -->
<g id="edge27" class="edge"><title>Node1&#45;&gt;Node19</title>
<path fill="none" stroke="midnightblue" d="M1272.32,-324.431C1293.66,-318.1 1316.18,-307.101 1329,-288 1341.54,-269.32 1338.12,-242.405 1333.72,-224.69"/>
<polygon fill="midnightblue" stroke="midnightblue" points="1337.08,-223.682 1331,-215.005 1330.34,-225.579 1337.08,-223.682"/>
</g>
<!-- Node21 -->
<g id="node21" class="node"><title>Node21</title>
<g id="a_node21"><a xlink:href="a00135.html" target="_top" xlink:title="hpp/constraints/svd.hh">
<polygon fill="white" stroke="black" points="1204,-263 1204,-282 1320,-282 1320,-263 1204,-263"/>
<text text-anchor="middle" x="1262" y="-270" font-family="Helvetica,sans-Serif" font-size="10.00">hpp/constraints/svd.hh</text>
</a>
</g>
</g>
<!-- Node1&#45;&gt;Node21 -->
<g id="edge30" class="edge"><title>Node1&#45;&gt;Node21</title>
<path fill="none" stroke="midnightblue" d="M1225.16,-324.475C1231.61,-315.55 1241.9,-301.307 1249.97,-290.143"/>
<polygon fill="midnightblue" stroke="midnightblue" points="1252.83,-292.164 1255.85,-282.009 1247.16,-288.064 1252.83,-292.164"/>
</g>
<!-- Node22 -->
<g id="node22" class="node"><title>Node22</title>
<g id="a_node22"><a xlink:href="a00138.html" target="_top" xlink:title="hpp/constraints/tools.hh">
<polygon fill="white" stroke="black" points="1376.5,-263 1376.5,-282 1497.5,-282 1497.5,-263 1376.5,-263"/>
<text text-anchor="middle" x="1437" y="-270" font-family="Helvetica,sans-Serif" font-size="10.00">hpp/constraints/tools.hh</text>
</a>
</g>
</g>
<!-- Node1&#45;&gt;Node22 -->
<g id="edge33" class="edge"><title>Node1&#45;&gt;Node22</title>
<path fill="none" stroke="midnightblue" d="M1250.23,-324.475C1288.6,-314.004 1353.79,-296.212 1396.11,-284.66"/>
<polygon fill="midnightblue" stroke="midnightblue" points="1397.1,-288.019 1405.82,-282.009 1395.26,-281.266 1397.1,-288.019"/>
</g>
<!-- Node25 -->
<g id="node25" class="node"><title>Node25</title>
<g id="a_node25"><a xlink:href="a00122.html" target="_top" xlink:title="hpp/constraints/macros.hh">
<polygon fill="white" stroke="black" points="1516,-263 1516,-282 1648,-282 1648,-263 1516,-263"/>
<text text-anchor="middle" x="1582" y="-270" font-family="Helvetica,sans-Serif" font-size="10.00">hpp/constraints/macros.hh</text>
</a>
</g>
</g>
<!-- Node1&#45;&gt;Node25 -->
<g id="edge37" class="edge"><title>Node1&#45;&gt;Node25</title>
<path fill="none" stroke="midnightblue" d="M1273.04,-325.07C1330.8,-316.468 1425,-302.072 1506,-288 1513.36,-286.721 1521.11,-285.313 1528.74,-283.893"/>
<polygon fill="midnightblue" stroke="midnightblue" points="1529.46,-287.318 1538.64,-282.029 1528.16,-280.439 1529.46,-287.318"/>
</g>
<!-- Node4 -->
<g id="node4" class="node"><title>Node4</title>
<g id="a_node4"><a doxygen="/local/devel/hpp/install/share/doc/hpp-pinocchio/doxygen-html/hpp-pinocchio.doxytag:../../hpp-pinocchio/doxygen-html/" xlink:href="../../hpp-pinocchio/doxygen-html/a00098.html" target="_top" xlink:title="hpp/pinocchio/fwd.hh">
<polygon fill="white" stroke="black" points="524.5,-0.5 524.5,-19.5 633.5,-19.5 633.5,-0.5 524.5,-0.5"/>
<text text-anchor="middle" x="579" y="-7.5" font-family="Helvetica,sans-Serif" font-size="10.00">hpp/pinocchio/fwd.hh</text>
</a>
</g>
</g>
<!-- Node3&#45;&gt;Node4 -->
<g id="edge3" class="edge"><title>Node3&#45;&gt;Node4</title>
<path fill="none" stroke="midnightblue" d="M1210.1,-61.9655C1200.14,-59.7213 1189.18,-57.509 1179,-56 985.805,-27.3601 754.765,-16.5511 644.211,-12.8041"/>
<polygon fill="midnightblue" stroke="midnightblue" points="644.004,-9.29546 633.894,-12.4632 643.773,-16.2916 644.004,-9.29546"/>
</g>
<!-- Node5&#45;&gt;Node4 -->
<g id="edge5" class="edge"><title>Node5&#45;&gt;Node4</title>
<path fill="none" stroke="midnightblue" d="M597.306,-257.363C595.565,-222.899 590.671,-131.816 584,-56 583.241,-47.3781 582.21,-37.848 581.282,-29.7861"/>
<polygon fill="midnightblue" stroke="midnightblue" points="584.729,-29.1335 580.076,-19.6151 577.777,-29.9576 584.729,-29.1335"/>
</g>
<!-- Node6 -->
<g id="node6" class="node"><title>Node6</title>
<g id="a_node6"><a doxygen="/local/devel/hpp/install/share/doc/hpp-pinocchio/doxygen-html/hpp-pinocchio.doxytag:../../hpp-pinocchio/doxygen-html/" xlink:href="../../hpp-pinocchio/doxygen-html/a00095.html" target="_top" xlink:title="hpp/pinocchio/device.hh">
<polygon fill="white" stroke="black" points="289,-196 289,-215 411,-215 411,-196 289,-196"/>
<text text-anchor="middle" x="350" y="-203" font-family="Helvetica,sans-Serif" font-size="10.00">hpp/pinocchio/device.hh</text>
</a>
</g>
</g>
<!-- Node5&#45;&gt;Node6 -->
<g id="edge6" class="edge"><title>Node5&#45;&gt;Node6</title>
<path fill="none" stroke="midnightblue" d="M544.493,-257.476C498.978,-245.547 434.488,-228.644 392.456,-217.628"/>
<polygon fill="midnightblue" stroke="midnightblue" points="393.101,-214.178 382.54,-215.029 391.326,-220.95 393.101,-214.178"/>
</g>
<!-- Node6&#45;&gt;Node4 -->
<g id="edge7" class="edge"><title>Node6&#45;&gt;Node4</title>
<path fill="none" stroke="midnightblue" d="M411.182,-203.692C453.087,-199.855 507.024,-187.933 541,-154 574.684,-120.358 579.513,-60.4835 579.612,-29.9874"/>
<polygon fill="midnightblue" stroke="midnightblue" points="583.11,-29.8034 579.469,-19.8539 576.111,-29.9024 583.11,-29.8034"/>
</g>
<!-- Node7 -->
<g id="node7" class="node"><title>Node7</title>
<g id="a_node7"><a doxygen="/local/devel/hpp/install/share/doc/hpp-pinocchio/doxygen-html/hpp-pinocchio.doxytag:../../hpp-pinocchio/doxygen-html/" xlink:href="../../hpp-pinocchio/doxygen-html/a00097.html" target="_top" xlink:title="hpp/pinocchio/frame.hh">
<polygon fill="white" stroke="black" points="0,-129 0,-148 118,-148 118,-129 0,-129"/>
<text text-anchor="middle" x="59" y="-136" font-family="Helvetica,sans-Serif" font-size="10.00">hpp/pinocchio/frame.hh</text>
</a>
</g>
</g>
<!-- Node6&#45;&gt;Node7 -->
<g id="edge8" class="edge"><title>Node6&#45;&gt;Node7</title>
<path fill="none" stroke="midnightblue" d="M311.658,-195.936C259.099,-184.196 164.679,-163.105 107.338,-150.297"/>
<polygon fill="midnightblue" stroke="midnightblue" points="107.95,-146.848 97.4273,-148.083 106.424,-153.679 107.95,-146.848"/>
</g>
<!-- Node8 -->
<g id="node8" class="node"><title>Node8</title>
<g id="a_node8"><a doxygen="/local/devel/hpp/install/share/doc/hpp-pinocchio/doxygen-html/hpp-pinocchio.doxytag:../../hpp-pinocchio/doxygen-html/" xlink:href="../../hpp-pinocchio/doxygen-html/a00108.html" target="_top" xlink:title="hpp/pinocchio/pool.hh">
<polygon fill="white" stroke="black" points="294.5,-129 294.5,-148 405.5,-148 405.5,-129 294.5,-129"/>
<text text-anchor="middle" x="350" y="-136" font-family="Helvetica,sans-Serif" font-size="10.00">hpp/pinocchio/pool.hh</text>
</a>
</g>
</g>
<!-- Node6&#45;&gt;Node8 -->
<g id="edge10" class="edge"><title>Node6&#45;&gt;Node8</title>
<path fill="none" stroke="midnightblue" d="M350,-195.734C350,-186.183 350,-170.618 350,-158.283"/>
<polygon fill="midnightblue" stroke="midnightblue" points="353.5,-158.127 350,-148.127 346.5,-158.127 353.5,-158.127"/>
</g>
<!-- Node9 -->
<g id="node9" class="node"><title>Node9</title>
<g id="a_node9"><a doxygen="/local/devel/hpp/install/share/doc/hpp-pinocchio/doxygen-html/hpp-pinocchio.doxytag:../../hpp-pinocchio/doxygen-html/" xlink:href="../../hpp-pinocchio/doxygen-html/a00096.html" target="_top" xlink:title="hpp/pinocchio/extra\l&#45;config&#45;space.hh">
<polygon fill="white" stroke="black" points="136.5,-123.5 136.5,-153.5 237.5,-153.5 237.5,-123.5 136.5,-123.5"/>
<text text-anchor="start" x="144.5" y="-141.5" font-family="Helvetica,sans-Serif" font-size="10.00">hpp/pinocchio/extra</text>
<text text-anchor="middle" x="187" y="-130.5" font-family="Helvetica,sans-Serif" font-size="10.00">&#45;config&#45;space.hh</text>
</a>
</g>
</g>
<!-- Node6&#45;&gt;Node9 -->
<g id="edge11" class="edge"><title>Node6&#45;&gt;Node9</title>
<path fill="none" stroke="midnightblue" d="M328.355,-195.869C303.79,-186.073 263.057,-169.83 231.611,-157.29"/>
<polygon fill="midnightblue" stroke="midnightblue" points="232.763,-153.981 222.178,-153.528 230.17,-160.483 232.763,-153.981"/>
</g>
<!-- Node10 -->
<g id="node10" class="node"><title>Node10</title>
<g id="a_node10"><a doxygen="/local/devel/hpp/install/share/doc/hpp-pinocchio/doxygen-html/hpp-pinocchio.doxytag:../../hpp-pinocchio/doxygen-html/" xlink:href="../../hpp-pinocchio/doxygen-html/a00093.html" target="_top" xlink:title="hpp/pinocchio/device\l&#45;data.hh">
<polygon fill="white" stroke="black" points="386,-56.5 386,-86.5 494,-86.5 494,-56.5 386,-56.5"/>
<text text-anchor="start" x="394" y="-74.5" font-family="Helvetica,sans-Serif" font-size="10.00">hpp/pinocchio/device</text>
<text text-anchor="middle" x="440" y="-63.5" font-family="Helvetica,sans-Serif" font-size="10.00">&#45;data.hh</text>
</a>
</g>
</g>
<!-- Node6&#45;&gt;Node10 -->
<g id="edge13" class="edge"><title>Node6&#45;&gt;Node10</title>
<path fill="none" stroke="midnightblue" d="M331.261,-195.928C315.673,-187.655 294.548,-173.51 285,-154 278.943,-141.625 276.906,-134.15 285,-123 305.718,-94.4602 342.991,-81.7392 375.794,-76.1992"/>
<polygon fill="midnightblue" stroke="midnightblue" points="376.435,-79.6422 385.807,-74.7008 375.399,-72.7193 376.435,-79.6422"/>
</g>
<!-- Node11 -->
<g id="node11" class="node"><title>Node11</title>
<g id="a_node11"><a doxygen="/local/devel/hpp/install/share/doc/hpp-pinocchio/doxygen-html/hpp-pinocchio.doxytag:../../hpp-pinocchio/doxygen-html/" xlink:href="../../hpp-pinocchio/doxygen-html/a00094.html" target="_top" xlink:title="hpp/pinocchio/device\l&#45;sync.hh">
<polygon fill="white" stroke="black" points="424,-123.5 424,-153.5 532,-153.5 532,-123.5 424,-123.5"/>
<text text-anchor="start" x="432" y="-141.5" font-family="Helvetica,sans-Serif" font-size="10.00">hpp/pinocchio/device</text>
<text text-anchor="middle" x="478" y="-130.5" font-family="Helvetica,sans-Serif" font-size="10.00">&#45;sync.hh</text>
</a>
</g>
</g>
<!-- Node6&#45;&gt;Node11 -->
<g id="edge15" class="edge"><title>Node6&#45;&gt;Node11</title>
<path fill="none" stroke="midnightblue" d="M366.997,-195.869C385.811,-186.315 416.703,-170.627 441.127,-158.225"/>
<polygon fill="midnightblue" stroke="midnightblue" points="442.801,-161.3 450.132,-153.652 439.631,-155.059 442.801,-161.3"/>
</g>
<!-- Node7&#45;&gt;Node4 -->
<g id="edge9" class="edge"><title>Node7&#45;&gt;Node4</title>
<path fill="none" stroke="midnightblue" d="M79.6875,-128.926C120.16,-112.468 212.941,-76.285 294,-56 368.492,-37.3583 455.965,-24.9064 514.161,-17.9157"/>
<polygon fill="midnightblue" stroke="midnightblue" points="514.798,-21.365 524.318,-16.7155 513.976,-14.4133 514.798,-21.365"/>
</g>
<!-- Node9&#45;&gt;Node4 -->
<g id="edge12" class="edge"><title>Node9&#45;&gt;Node4</title>
<path fill="none" stroke="midnightblue" d="M215.331,-123.369C251.913,-105.587 317.907,-75.0725 377,-56 423.651,-40.9431 477.953,-29.1535 518.5,-21.4255"/>
<polygon fill="midnightblue" stroke="midnightblue" points="519.316,-24.8335 528.499,-19.5487 518.025,-17.9536 519.316,-24.8335"/>
</g>
<!-- Node10&#45;&gt;Node4 -->
<g id="edge14" class="edge"><title>Node10&#45;&gt;Node4</title>
<path fill="none" stroke="midnightblue" d="M472.941,-56.3993C496.159,-46.4608 526.986,-33.2649 549.419,-23.6625"/>
<polygon fill="midnightblue" stroke="midnightblue" points="550.958,-26.8106 558.774,-19.6578 548.204,-20.3754 550.958,-26.8106"/>
</g>
<!-- Node11&#45;&gt;Node4 -->
<g id="edge16" class="edge"><title>Node11&#45;&gt;Node4</title>
<path fill="none" stroke="midnightblue" d="M489.195,-123.479C507.94,-100.001 545.593,-52.8413 565.673,-27.6915"/>
<polygon fill="midnightblue" stroke="midnightblue" points="568.479,-29.7871 571.983,-19.7885 563.008,-25.4195 568.479,-29.7871"/>
</g>
<!-- Node11&#45;&gt;Node10 -->
<g id="edge17" class="edge"><title>Node11&#45;&gt;Node10</title>
<path fill="none" stroke="midnightblue" d="M469.755,-123.396C464.974,-115.219 458.839,-104.725 453.384,-95.393"/>
<polygon fill="midnightblue" stroke="midnightblue" points="456.298,-93.443 448.229,-86.5765 450.255,-96.9759 456.298,-93.443"/>
</g>
<!-- Node13 -->
<g id="node13" class="node"><title>Node13</title>
<g id="a_node13"><a doxygen="/local/devel/hpp/install/share/doc/hpp-pinocchio/doxygen-html/hpp-pinocchio.doxytag:../../hpp-pinocchio/doxygen-html/" xlink:href="../../hpp-pinocchio/doxygen-html/a00104.html" target="_top" xlink:title="hpp/pinocchio/liegroup\l&#45;space.hh">
<polygon fill="white" stroke="black" points="861.5,-190.5 861.5,-220.5 974.5,-220.5 974.5,-190.5 861.5,-190.5"/>
<text text-anchor="start" x="869.5" y="-208.5" font-family="Helvetica,sans-Serif" font-size="10.00">hpp/pinocchio/liegroup</text>
<text text-anchor="middle" x="918" y="-197.5" font-family="Helvetica,sans-Serif" font-size="10.00">&#45;space.hh</text>
</a>
</g>
</g>
<!-- Node12&#45;&gt;Node13 -->
<g id="edge19" class="edge"><title>Node12&#45;&gt;Node13</title>
<path fill="none" stroke="midnightblue" d="M970.462,-257.396C961.507,-248.708 949.856,-237.405 939.809,-227.658"/>
<polygon fill="midnightblue" stroke="midnightblue" points="942.124,-225.028 932.51,-220.577 937.25,-230.052 942.124,-225.028"/>
</g>
<!-- Node13&#45;&gt;Node4 -->
<g id="edge26" class="edge"><title>Node13&#45;&gt;Node4</title>
<path fill="none" stroke="midnightblue" d="M874.046,-190.439C819.674,-171.833 725.651,-135.624 655,-87 630.13,-69.8837 606.338,-44.045 592.197,-27.3464"/>
<polygon fill="midnightblue" stroke="midnightblue" points="594.803,-25.0065 585.726,-19.5419 589.414,-29.4742 594.803,-25.0065"/>
</g>
<!-- Node14 -->
<g id="node14" class="node"><title>Node14</title>
<g id="a_node14"><a doxygen="/local/devel/hpp/install/share/doc/hpp-pinocchio/doxygen-html/hpp-pinocchio.doxytag:../../hpp-pinocchio/doxygen-html/" xlink:href="../../hpp-pinocchio/doxygen-html/a00105.html" target="_top" xlink:title="hpp/pinocchio/liegroup.hh">
<polygon fill="white" stroke="black" points="854.5,-129 854.5,-148 981.5,-148 981.5,-129 854.5,-129"/>
<text text-anchor="middle" x="918" y="-136" font-family="Helvetica,sans-Serif" font-size="10.00">hpp/pinocchio/liegroup.hh</text>
</a>
</g>
</g>
<!-- Node13&#45;&gt;Node14 -->
<g id="edge20" class="edge"><title>Node13&#45;&gt;Node14</title>
<path fill="none" stroke="midnightblue" d="M918,-190.396C918,-181.064 918,-168.714 918,-158.517"/>
<polygon fill="midnightblue" stroke="midnightblue" points="921.5,-158.195 918,-148.195 914.5,-158.195 921.5,-158.195"/>
</g>
<!-- Node15 -->
<g id="node15" class="node"><title>Node15</title>
<g id="a_node15"><a doxygen="/local/devel/hpp/install/share/doc/hpp-pinocchio/doxygen-html/hpp-pinocchio.doxytag:../../hpp-pinocchio/doxygen-html/" xlink:href="../../hpp-pinocchio/doxygen-html/a00114.html" target="_top" xlink:title="hpp/pinocchio/liegroup\l/vector&#45;space.hh">
<polygon fill="white" stroke="black" points="664.5,-56.5 664.5,-86.5 777.5,-86.5 777.5,-56.5 664.5,-56.5"/>
<text text-anchor="start" x="672.5" y="-74.5" font-family="Helvetica,sans-Serif" font-size="10.00">hpp/pinocchio/liegroup</text>
<text text-anchor="middle" x="721" y="-63.5" font-family="Helvetica,sans-Serif" font-size="10.00">/vector&#45;space.hh</text>
</a>
</g>
</g>
<!-- Node14&#45;&gt;Node15 -->
<g id="edge21" class="edge"><title>Node14&#45;&gt;Node15</title>
<path fill="none" stroke="midnightblue" d="M891.84,-128.869C861.767,-118.946 811.646,-102.408 773.448,-89.8051"/>
<polygon fill="midnightblue" stroke="midnightblue" points="774.109,-86.3377 763.516,-86.5281 771.916,-92.9852 774.109,-86.3377"/>
</g>
<!-- Node16 -->
<g id="node16" class="node"><title>Node16</title>
<g id="a_node16"><a doxygen="/local/devel/hpp/install/share/doc/hpp-pinocchio/doxygen-html/hpp-pinocchio.doxytag:../../hpp-pinocchio/doxygen-html/" xlink:href="../../hpp-pinocchio/doxygen-html/a00089.html" target="_top" xlink:title="hpp/pinocchio/liegroup\l/cartesian&#45;product.hh">
<polygon fill="white" stroke="black" points="795.5,-56.5 795.5,-86.5 908.5,-86.5 908.5,-56.5 795.5,-56.5"/>
<text text-anchor="start" x="803.5" y="-74.5" font-family="Helvetica,sans-Serif" font-size="10.00">hpp/pinocchio/liegroup</text>
<text text-anchor="middle" x="852" y="-63.5" font-family="Helvetica,sans-Serif" font-size="10.00">/cartesian&#45;product.hh</text>
</a>
</g>
</g>
<!-- Node14&#45;&gt;Node16 -->
<g id="edge23" class="edge"><title>Node14&#45;&gt;Node16</title>
<path fill="none" stroke="midnightblue" d="M909.099,-128.734C900.008,-119.78 885.551,-105.543 873.46,-93.6346"/>
<polygon fill="midnightblue" stroke="midnightblue" points="875.887,-91.1122 866.306,-86.589 870.975,-96.0996 875.887,-91.1122"/>
</g>
<!-- Node17 -->
<g id="node17" class="node"><title>Node17</title>
<g id="a_node17"><a doxygen="/local/devel/hpp/install/share/doc/hpp-pinocchio/doxygen-html/hpp-pinocchio.doxytag:../../hpp-pinocchio/doxygen-html/" xlink:href="../../hpp-pinocchio/doxygen-html/a00111.html" target="_top" xlink:title="hpp/pinocchio/liegroup\l/special&#45;orthogonal.hh">
<polygon fill="white" stroke="black" points="926.5,-56.5 926.5,-86.5 1039.5,-86.5 1039.5,-56.5 926.5,-56.5"/>
<text text-anchor="start" x="934.5" y="-74.5" font-family="Helvetica,sans-Serif" font-size="10.00">hpp/pinocchio/liegroup</text>
<text text-anchor="middle" x="983" y="-63.5" font-family="Helvetica,sans-Serif" font-size="10.00">/special&#45;orthogonal.hh</text>
</a>
</g>
</g>
<!-- Node14&#45;&gt;Node17 -->
<g id="edge24" class="edge"><title>Node14&#45;&gt;Node17</title>
<path fill="none" stroke="midnightblue" d="M926.766,-128.734C935.635,-119.865 949.689,-105.811 961.528,-93.9722"/>
<polygon fill="midnightblue" stroke="midnightblue" points="964.315,-96.135 968.911,-86.589 959.365,-91.1852 964.315,-96.135"/>
</g>
<!-- Node18 -->
<g id="node18" class="node"><title>Node18</title>
<g id="a_node18"><a doxygen="/local/devel/hpp/install/share/doc/hpp-pinocchio/doxygen-html/hpp-pinocchio.doxytag:../../hpp-pinocchio/doxygen-html/" xlink:href="../../hpp-pinocchio/doxygen-html/a00110.html" target="_top" xlink:title="hpp/pinocchio/liegroup\l/special&#45;euclidean.hh">
<polygon fill="white" stroke="black" points="1057.5,-56.5 1057.5,-86.5 1170.5,-86.5 1170.5,-56.5 1057.5,-56.5"/>
<text text-anchor="start" x="1065.5" y="-74.5" font-family="Helvetica,sans-Serif" font-size="10.00">hpp/pinocchio/liegroup</text>
<text text-anchor="middle" x="1114" y="-63.5" font-family="Helvetica,sans-Serif" font-size="10.00">/special&#45;euclidean.hh</text>
</a>
</g>
</g>
<!-- Node14&#45;&gt;Node18 -->
<g id="edge25" class="edge"><title>Node14&#45;&gt;Node18</title>
<path fill="none" stroke="midnightblue" d="M944.027,-128.869C973.947,-118.946 1023.81,-102.408 1061.82,-89.8051"/>
<polygon fill="midnightblue" stroke="midnightblue" points="1063.31,-92.998 1071.7,-86.5281 1061.11,-86.3538 1063.31,-92.998"/>
</g>
<!-- Node15&#45;&gt;Node4 -->
<g id="edge22" class="edge"><title>Node15&#45;&gt;Node4</title>
<path fill="none" stroke="midnightblue" d="M687.348,-56.3993C663.523,-46.4163 631.854,-33.1465 608.912,-23.5335"/>
<polygon fill="midnightblue" stroke="midnightblue" points="610.238,-20.2944 599.662,-19.6578 607.533,-26.7505 610.238,-20.2944"/>
</g>
<!-- Node19&#45;&gt;Node4 -->
<g id="edge28" class="edge"><title>Node19&#45;&gt;Node4</title>
<path fill="none" stroke="midnightblue" d="M1330.09,-195.813C1335.72,-170.025 1348.19,-93.3862 1308,-56 1259.95,-11.3001 812.88,-9.46762 643.568,-10.4026"/>
<polygon fill="midnightblue" stroke="midnightblue" points="643.524,-6.90275 633.545,-10.4631 643.566,-13.9026 643.524,-6.90275"/>
</g>
<!-- Node20 -->
<g id="node20" class="node"><title>Node20</title>
<polygon fill="white" stroke="#bfbfbf" points="1356,-129 1356,-148 1504,-148 1504,-129 1356,-129"/>
<text text-anchor="middle" x="1430" y="-136" font-family="Helvetica,sans-Serif" font-size="10.00">hpp/constraints/deprecated.hh</text>
</g>
<!-- Node19&#45;&gt;Node20 -->
<g id="edge29" class="edge"><title>Node19&#45;&gt;Node20</title>
<path fill="none" stroke="midnightblue" d="M1341.76,-195.734C1358.73,-184.916 1387.81,-166.383 1407.93,-153.566"/>
<polygon fill="midnightblue" stroke="midnightblue" points="1409.91,-156.453 1416.46,-148.127 1406.15,-150.55 1409.91,-156.453"/>
</g>
<!-- Node21&#45;&gt;Node2 -->
<g id="edge32" class="edge"><title>Node21&#45;&gt;Node2</title>
<path fill="none" stroke="midnightblue" d="M1254.85,-262.734C1246.59,-252.598 1232.8,-235.69 1222.5,-223.056"/>
<polygon fill="midnightblue" stroke="midnightblue" points="1225.07,-220.666 1216.03,-215.127 1219.64,-225.089 1225.07,-220.666"/>
</g>
<!-- Node21&#45;&gt;Node19 -->
<g id="edge31" class="edge"><title>Node21&#45;&gt;Node19</title>
<path fill="none" stroke="midnightblue" d="M1270.9,-262.734C1281.39,-252.403 1299.02,-235.037 1311.92,-222.332"/>
<polygon fill="midnightblue" stroke="midnightblue" points="1314.57,-224.638 1319.24,-215.127 1309.66,-219.651 1314.57,-224.638"/>
</g>
<!-- Node22&#45;&gt;Node19 -->
<g id="edge36" class="edge"><title>Node22&#45;&gt;Node19</title>
<path fill="none" stroke="midnightblue" d="M1422.3,-262.734C1404.08,-251.867 1372.8,-233.216 1351.3,-220.393"/>
<polygon fill="midnightblue" stroke="midnightblue" points="1352.85,-217.243 1342.47,-215.127 1349.26,-223.255 1352.85,-217.243"/>
</g>
<!-- Node23 -->
<g id="node23" class="node"><title>Node23</title>
<polygon fill="white" stroke="#bfbfbf" points="1404.5,-190.5 1404.5,-220.5 1515.5,-220.5 1515.5,-190.5 1404.5,-190.5"/>
<text text-anchor="start" x="1412.5" y="-208.5" font-family="Helvetica,sans-Serif" font-size="10.00">boost/math/constants</text>
<text text-anchor="middle" x="1460" y="-197.5" font-family="Helvetica,sans-Serif" font-size="10.00">/constants.hpp</text>
</g>
<!-- Node22&#45;&gt;Node23 -->
<g id="edge34" class="edge"><title>Node22&#45;&gt;Node23</title>
<path fill="none" stroke="midnightblue" d="M1440.1,-262.734C1443.06,-254.372 1447.65,-241.4 1451.68,-230.022"/>
<polygon fill="midnightblue" stroke="midnightblue" points="1454.98,-231.184 1455.01,-220.589 1448.38,-228.849 1454.98,-231.184"/>
</g>
<!-- Node24 -->
<g id="node24" class="node"><title>Node24</title>
<polygon fill="white" stroke="#bfbfbf" points="1533.5,-196 1533.5,-215 1660.5,-215 1660.5,-196 1533.5,-196"/>
<text text-anchor="middle" x="1597" y="-203" font-family="Helvetica,sans-Serif" font-size="10.00">pinocchio/spatial/se3.hpp</text>
</g>
<!-- Node22&#45;&gt;Node24 -->
<g id="edge35" class="edge"><title>Node22&#45;&gt;Node24</title>
<path fill="none" stroke="midnightblue" d="M1458.25,-262.869C1485.94,-251.619 1534.56,-231.867 1566.27,-218.985"/>
<polygon fill="midnightblue" stroke="midnightblue" points="1567.97,-222.07 1575.92,-215.064 1565.34,-215.585 1567.97,-222.07"/>
</g>
</g>
</svg>
