<?xml version="1.0" encoding="UTF-8" standalone="no"?>
<!DOCTYPE svg PUBLIC "-//W3C//DTD SVG 1.1//EN"
 "http://www.w3.org/Graphics/SVG/1.1/DTD/svg11.dtd">
<!-- Generated by graphviz version 2.38.0 (20140413.2041)
 -->
<!-- Title: symbolic&#45;function.hh Pages: 1 -->
<svg width="1532pt" height="419pt"
 viewBox="0.00 0.00 1531.50 419.00" xmlns="http://www.w3.org/2000/svg" xmlns:xlink="http://www.w3.org/1999/xlink">
<g id="graph0" class="graph" transform="scale(1 1) rotate(0) translate(4 415)">
<title>symbolic&#45;function.hh</title>
<polygon fill="white" stroke="none" points="-4,4 -4,-415 1527.5,-415 1527.5,4 -4,4"/>
<!-- Node1 -->
<g id="node1" class="node"><title>Node1</title>
<polygon fill="#bfbfbf" stroke="black" points="837.5,-391.5 837.5,-410.5 944.5,-410.5 944.5,-391.5 837.5,-391.5"/>
<text text-anchor="middle" x="891" y="-398.5" font-family="Helvetica,sans-Serif" font-size="10.00">symbolic&#45;function.hh</text>
</g>
<!-- Node2 -->
<g id="node2" class="node"><title>Node2</title>
<polygon fill="white" stroke="#bfbfbf" points="0,-330 0,-349 120,-349 120,-330 0,-330"/>
<text text-anchor="middle" x="60" y="-337" font-family="Helvetica,sans-Serif" font-size="10.00">boost/assign/list_of.hpp</text>
</g>
<!-- Node1&#45;&gt;Node2 -->
<g id="edge1" class="edge"><title>Node1&#45;&gt;Node2</title>
<path fill="none" stroke="midnightblue" d="M837.077,-399.274C712.679,-397.058 396.189,-388.328 134,-355 125.599,-353.932 116.719,-352.478 108.138,-350.901"/>
<polygon fill="midnightblue" stroke="midnightblue" points="108.728,-347.451 98.2487,-349.01 107.413,-354.326 108.728,-347.451"/>
</g>
<!-- Node3 -->
<g id="node3" class="node"><title>Node3</title>
<g id="a_node3"><a xlink:href="a00001.html" target="_top" xlink:title="hpp/constraints/fwd.hh">
<polygon fill="white" stroke="black" points="833,-196 833,-215 949,-215 949,-196 833,-196"/>
<text text-anchor="middle" x="891" y="-203" font-family="Helvetica,sans-Serif" font-size="10.00">hpp/constraints/fwd.hh</text>
</a>
</g>
</g>
<!-- Node1&#45;&gt;Node3 -->
<g id="edge2" class="edge"><title>Node1&#45;&gt;Node3</title>
<path fill="none" stroke="midnightblue" d="M891,-391.436C891,-362.287 891,-266.468 891,-225.428"/>
<polygon fill="midnightblue" stroke="midnightblue" points="894.5,-225.407 891,-215.407 887.5,-225.407 894.5,-225.407"/>
</g>
<!-- Node6 -->
<g id="node6" class="node"><title>Node6</title>
<polygon fill="white" stroke="#bfbfbf" points="1089,-263 1089,-282 1215,-282 1215,-263 1089,-263"/>
<text text-anchor="middle" x="1152" y="-270" font-family="Helvetica,sans-Serif" font-size="10.00">hpp/constraints/config.hh</text>
</g>
<!-- Node1&#45;&gt;Node6 -->
<g id="edge5" class="edge"><title>Node1&#45;&gt;Node6</title>
<path fill="none" stroke="midnightblue" d="M944.607,-396.036C1005.46,-390.479 1099.7,-378.327 1126,-355 1143.93,-339.092 1149.59,-310.844 1151.32,-292.141"/>
<polygon fill="midnightblue" stroke="midnightblue" points="1154.81,-292.364 1151.96,-282.161 1147.83,-291.918 1154.81,-292.364"/>
</g>
<!-- Node7 -->
<g id="node7" class="node"><title>Node7</title>
<g id="a_node7"><a xlink:href="a00136.html" target="_top" xlink:title="hpp/constraints/symbolic\l&#45;calculus.hh">
<polygon fill="white" stroke="black" points="618.5,-324.5 618.5,-354.5 743.5,-354.5 743.5,-324.5 618.5,-324.5"/>
<text text-anchor="start" x="626.5" y="-342.5" font-family="Helvetica,sans-Serif" font-size="10.00">hpp/constraints/symbolic</text>
<text text-anchor="middle" x="681" y="-331.5" font-family="Helvetica,sans-Serif" font-size="10.00">&#45;calculus.hh</text>
</a>
</g>
</g>
<!-- Node1&#45;&gt;Node7 -->
<g id="edge6" class="edge"><title>Node1&#45;&gt;Node7</title>
<path fill="none" stroke="midnightblue" d="M860.912,-391.475C829.547,-382.588 779.572,-368.429 740.244,-357.286"/>
<polygon fill="midnightblue" stroke="midnightblue" points="741.068,-353.882 730.493,-354.523 739.16,-360.617 741.068,-353.882"/>
</g>
<!-- Node11 -->
<g id="node11" class="node"><title>Node11</title>
<g id="a_node11"><a doxygen="/local/devel/hpp/install/share/doc/hpp-pinocchio/doxygen-html/hpp-pinocchio.doxytag:../../hpp-pinocchio/doxygen-html/" xlink:href="../../hpp-pinocchio/doxygen-html/a00095.html" target="_top" xlink:title="hpp/pinocchio/device.hh">
<polygon fill="white" stroke="black" points="297,-196 297,-215 419,-215 419,-196 297,-196"/>
<text text-anchor="middle" x="358" y="-203" font-family="Helvetica,sans-Serif" font-size="10.00">hpp/pinocchio/device.hh</text>
</a>
</g>
</g>
<!-- Node1&#45;&gt;Node11 -->
<g id="edge46" class="edge"><title>Node1&#45;&gt;Node11</title>
<path fill="none" stroke="midnightblue" d="M837.452,-399.474C693.731,-396.813 305.1,-380.99 227,-288 198.797,-254.419 260.247,-230.457 308.213,-217.545"/>
<polygon fill="midnightblue" stroke="midnightblue" points="309.099,-220.931 317.901,-215.034 307.342,-214.155 309.099,-220.931"/>
</g>
<!-- Node17 -->
<g id="node17" class="node"><title>Node17</title>
<g id="a_node17"><a doxygen="/local/devel/hpp/install/share/doc/hpp-pinocchio/doxygen-html/hpp-pinocchio.doxytag:../../hpp-pinocchio/doxygen-html/" xlink:href="../../hpp-pinocchio/doxygen-html/a00103.html" target="_top" xlink:title="hpp/pinocchio/liegroup\l&#45;element.hh">
<polygon fill="white" stroke="black" points="919.5,-257.5 919.5,-287.5 1032.5,-287.5 1032.5,-257.5 919.5,-257.5"/>
<text text-anchor="start" x="927.5" y="-275.5" font-family="Helvetica,sans-Serif" font-size="10.00">hpp/pinocchio/liegroup</text>
<text text-anchor="middle" x="976" y="-264.5" font-family="Helvetica,sans-Serif" font-size="10.00">&#45;element.hh</text>
</a>
</g>
</g>
<!-- Node1&#45;&gt;Node17 -->
<g id="edge47" class="edge"><title>Node1&#45;&gt;Node17</title>
<path fill="none" stroke="midnightblue" d="M896.842,-391.305C909.839,-371.963 941.499,-324.846 960.608,-296.406"/>
<polygon fill="midnightblue" stroke="midnightblue" points="963.66,-298.14 966.332,-287.888 957.85,-294.236 963.66,-298.14"/>
</g>
<!-- Node29 -->
<g id="node29" class="node"><title>Node29</title>
<g id="a_node29"><a xlink:href="a00107.html" target="_top" xlink:title="hpp/constraints/differentiable\l&#45;function.hh">
<polygon fill="white" stroke="black" points="975,-324.5 975,-354.5 1117,-354.5 1117,-324.5 975,-324.5"/>
<text text-anchor="start" x="983" y="-342.5" font-family="Helvetica,sans-Serif" font-size="10.00">hpp/constraints/differentiable</text>
<text text-anchor="middle" x="1046" y="-331.5" font-family="Helvetica,sans-Serif" font-size="10.00">&#45;function.hh</text>
</a>
</g>
</g>
<!-- Node1&#45;&gt;Node29 -->
<g id="edge42" class="edge"><title>Node1&#45;&gt;Node29</title>
<path fill="none" stroke="midnightblue" d="M913.208,-391.475C935.77,-382.814 971.378,-369.145 1000.04,-358.141"/>
<polygon fill="midnightblue" stroke="midnightblue" points="1001.39,-361.374 1009.47,-354.523 998.879,-354.839 1001.39,-361.374"/>
</g>
<!-- Node4 -->
<g id="node4" class="node"><title>Node4</title>
<g id="a_node4"><a doxygen="/local/devel/hpp/install/share/doc/hpp-pinocchio/doxygen-html/hpp-pinocchio.doxytag:../../hpp-pinocchio/doxygen-html/" xlink:href="../../hpp-pinocchio/doxygen-html/a00098.html" target="_top" xlink:title="hpp/pinocchio/fwd.hh">
<polygon fill="white" stroke="black" points="549.5,-0.5 549.5,-19.5 658.5,-19.5 658.5,-0.5 549.5,-0.5"/>
<text text-anchor="middle" x="604" y="-7.5" font-family="Helvetica,sans-Serif" font-size="10.00">hpp/pinocchio/fwd.hh</text>
</a>
</g>
</g>
<!-- Node3&#45;&gt;Node4 -->
<g id="edge3" class="edge"><title>Node3&#45;&gt;Node4</title>
<path fill="none" stroke="midnightblue" d="M867.966,-195.907C848.681,-187.702 821.57,-173.666 804,-154 772.31,-118.53 796.814,-87.2995 761,-56 735.474,-33.6915 699.546,-22.4053 668.5,-16.7116"/>
<polygon fill="midnightblue" stroke="midnightblue" points="669.052,-13.2555 658.611,-15.0527 667.894,-20.159 669.052,-13.2555"/>
</g>
<!-- Node5 -->
<g id="node5" class="node"><title>Node5</title>
<polygon fill="white" stroke="#bfbfbf" points="813,-129 813,-148 961,-148 961,-129 813,-129"/>
<text text-anchor="middle" x="887" y="-136" font-family="Helvetica,sans-Serif" font-size="10.00">hpp/constraints/deprecated.hh</text>
</g>
<!-- Node3&#45;&gt;Node5 -->
<g id="edge4" class="edge"><title>Node3&#45;&gt;Node5</title>
<path fill="none" stroke="midnightblue" d="M890.461,-195.734C889.873,-186.183 888.915,-170.618 888.156,-158.283"/>
<polygon fill="midnightblue" stroke="midnightblue" points="891.639,-157.893 887.531,-148.127 884.652,-158.323 891.639,-157.893"/>
</g>
<!-- Node7&#45;&gt;Node3 -->
<g id="edge33" class="edge"><title>Node7&#45;&gt;Node3</title>
<path fill="none" stroke="midnightblue" d="M743.737,-327.377C773.235,-319.867 807.63,-307.619 834,-288 856.676,-271.13 873.657,-242.513 882.956,-224.068"/>
<polygon fill="midnightblue" stroke="midnightblue" points="886.134,-225.536 887.318,-215.007 879.827,-222.499 886.134,-225.536"/>
</g>
<!-- Node8 -->
<g id="node8" class="node"><title>Node8</title>
<polygon fill="white" stroke="#bfbfbf" points="749.5,-196 749.5,-215 814.5,-215 814.5,-196 749.5,-196"/>
<text text-anchor="middle" x="782" y="-203" font-family="Helvetica,sans-Serif" font-size="10.00">Eigen/SVD</text>
</g>
<!-- Node7&#45;&gt;Node8 -->
<g id="edge7" class="edge"><title>Node7&#45;&gt;Node8</title>
<path fill="none" stroke="midnightblue" d="M681.079,-324.485C681.842,-307.1 685.401,-277.281 700,-257 712.197,-240.055 732.006,-227.626 749.099,-219.338"/>
<polygon fill="midnightblue" stroke="midnightblue" points="750.608,-222.496 758.25,-215.157 747.7,-216.129 750.608,-222.496"/>
</g>
<!-- Node9 -->
<g id="node9" class="node"><title>Node9</title>
<g id="a_node9"><a doxygen="/local/devel/hpp/install/share/doc/hpp-pinocchio/doxygen-html/hpp-pinocchio.doxytag:../../hpp-pinocchio/doxygen-html/" xlink:href="../../hpp-pinocchio/doxygen-html/a00102.html" target="_top" xlink:title="hpp/pinocchio/joint.hh">
<polygon fill="white" stroke="black" points="107.5,-62 107.5,-81 218.5,-81 218.5,-62 107.5,-62"/>
<text text-anchor="middle" x="163" y="-69" font-family="Helvetica,sans-Serif" font-size="10.00">hpp/pinocchio/joint.hh</text>
</a>
</g>
</g>
<!-- Node7&#45;&gt;Node9 -->
<g id="edge8" class="edge"><title>Node7&#45;&gt;Node9</title>
<path fill="none" stroke="midnightblue" d="M618.387,-338.043C509.566,-336.194 291.032,-327.511 227,-288 166.571,-250.713 160.163,-222.084 140,-154 133.5,-132.053 143.413,-106.658 152.179,-90.125"/>
<polygon fill="midnightblue" stroke="midnightblue" points="155.42,-91.5074 157.332,-81.0866 149.339,-88.0403 155.42,-91.5074"/>
</g>
<!-- Node10 -->
<g id="node10" class="node"><title>Node10</title>
<g id="a_node10"><a doxygen="/local/devel/hpp/install/share/doc/hpp-pinocchio/doxygen-html/hpp-pinocchio.doxytag:../../hpp-pinocchio/doxygen-html/" xlink:href="../../hpp-pinocchio/doxygen-html/a00090.html" target="_top" xlink:title="hpp/pinocchio/center\l&#45;of&#45;mass&#45;computation.hh">
<polygon fill="white" stroke="black" points="386.5,-257.5 386.5,-287.5 511.5,-287.5 511.5,-257.5 386.5,-257.5"/>
<text text-anchor="start" x="394.5" y="-275.5" font-family="Helvetica,sans-Serif" font-size="10.00">hpp/pinocchio/center</text>
<text text-anchor="middle" x="449" y="-264.5" font-family="Helvetica,sans-Serif" font-size="10.00">&#45;of&#45;mass&#45;computation.hh</text>
</a>
</g>
</g>
<!-- Node7&#45;&gt;Node10 -->
<g id="edge10" class="edge"><title>Node7&#45;&gt;Node10</title>
<path fill="none" stroke="midnightblue" d="M630.945,-324.476C595.24,-314.472 547.052,-300.971 509.238,-290.377"/>
<polygon fill="midnightblue" stroke="midnightblue" points="509.939,-286.939 499.365,-287.611 508.05,-293.679 509.939,-286.939"/>
</g>
<!-- Node7&#45;&gt;Node17 -->
<g id="edge24" class="edge"><title>Node7&#45;&gt;Node17</title>
<path fill="none" stroke="midnightblue" d="M743.562,-324.715C792.138,-314.012 859.359,-299.201 909.021,-288.258"/>
<polygon fill="midnightblue" stroke="midnightblue" points="910.01,-291.624 919.023,-286.054 908.504,-284.788 910.01,-291.624"/>
</g>
<!-- Node24 -->
<g id="node24" class="node"><title>Node24</title>
<g id="a_node24"><a xlink:href="a00135.html" target="_top" xlink:title="hpp/constraints/svd.hh">
<polygon fill="white" stroke="black" points="709,-263 709,-282 825,-282 825,-263 709,-263"/>
<text text-anchor="middle" x="767" y="-270" font-family="Helvetica,sans-Serif" font-size="10.00">hpp/constraints/svd.hh</text>
</a>
</g>
</g>
<!-- Node7&#45;&gt;Node24 -->
<g id="edge34" class="edge"><title>Node7&#45;&gt;Node24</title>
<path fill="none" stroke="midnightblue" d="M699.661,-324.396C713.734,-313.759 732.993,-299.203 747.311,-288.381"/>
<polygon fill="midnightblue" stroke="midnightblue" points="749.629,-291.016 755.496,-282.195 745.408,-285.432 749.629,-291.016"/>
</g>
<!-- Node25 -->
<g id="node25" class="node"><title>Node25</title>
<g id="a_node25"><a xlink:href="a00138.html" target="_top" xlink:title="hpp/constraints/tools.hh">
<polygon fill="white" stroke="black" points="531.5,-263 531.5,-282 652.5,-282 652.5,-263 531.5,-263"/>
<text text-anchor="middle" x="592" y="-270" font-family="Helvetica,sans-Serif" font-size="10.00">hpp/constraints/tools.hh</text>
</a>
</g>
</g>
<!-- Node7&#45;&gt;Node25 -->
<g id="edge37" class="edge"><title>Node7&#45;&gt;Node25</title>
<path fill="none" stroke="midnightblue" d="M661.688,-324.396C647.04,-313.697 626.961,-299.033 612.118,-288.193"/>
<polygon fill="midnightblue" stroke="midnightblue" points="613.788,-285.078 603.648,-282.007 609.659,-290.731 613.788,-285.078"/>
</g>
<!-- Node28 -->
<g id="node28" class="node"><title>Node28</title>
<g id="a_node28"><a xlink:href="a00122.html" target="_top" xlink:title="hpp/constraints/macros.hh">
<polygon fill="white" stroke="black" points="236,-263 236,-282 368,-282 368,-263 236,-263"/>
<text text-anchor="middle" x="302" y="-270" font-family="Helvetica,sans-Serif" font-size="10.00">hpp/constraints/macros.hh</text>
</a>
</g>
</g>
<!-- Node7&#45;&gt;Node28 -->
<g id="edge41" class="edge"><title>Node7&#45;&gt;Node28</title>
<path fill="none" stroke="midnightblue" d="M618.328,-328.584C556.804,-318.733 460.331,-302.974 377,-288 369.911,-286.726 362.454,-285.34 355.104,-283.947"/>
<polygon fill="midnightblue" stroke="midnightblue" points="355.672,-280.492 345.193,-282.052 354.358,-287.368 355.672,-280.492"/>
</g>
<!-- Node9&#45;&gt;Node4 -->
<g id="edge9" class="edge"><title>Node9&#45;&gt;Node4</title>
<path fill="none" stroke="midnightblue" d="M218.853,-62.9643C300.673,-51.925 452.765,-31.4047 539.327,-19.7258"/>
<polygon fill="midnightblue" stroke="midnightblue" points="539.85,-23.187 549.292,-18.3812 538.914,-16.2499 539.85,-23.187"/>
</g>
<!-- Node10&#45;&gt;Node4 -->
<g id="edge11" class="edge"><title>Node10&#45;&gt;Node4</title>
<path fill="none" stroke="midnightblue" d="M447.475,-257.369C446.353,-239.006 447.507,-207.257 466,-190 551.933,-109.808 650.751,-242.589 728,-154 769.607,-106.285 678.362,-49.399 630.661,-24.1688"/>
<polygon fill="midnightblue" stroke="midnightblue" points="632.243,-21.0467 621.753,-19.5569 629.024,-27.2629 632.243,-21.0467"/>
</g>
<!-- Node10&#45;&gt;Node11 -->
<g id="edge12" class="edge"><title>Node10&#45;&gt;Node11</title>
<path fill="none" stroke="midnightblue" d="M429.254,-257.396C414.135,-246.597 393.359,-231.756 378.142,-220.887"/>
<polygon fill="midnightblue" stroke="midnightblue" points="380.082,-217.971 369.91,-215.007 376.013,-223.667 380.082,-217.971"/>
</g>
<!-- Node11&#45;&gt;Node4 -->
<g id="edge13" class="edge"><title>Node11&#45;&gt;Node4</title>
<path fill="none" stroke="midnightblue" d="M399.664,-195.95C453.742,-184.522 542.585,-164.493 554,-154 590.056,-120.858 600.114,-60.2702 602.917,-29.699"/>
<polygon fill="midnightblue" stroke="midnightblue" points="606.419,-29.8053 603.676,-19.5718 599.439,-29.2824 606.419,-29.8053"/>
</g>
<!-- Node12 -->
<g id="node12" class="node"><title>Node12</title>
<g id="a_node12"><a doxygen="/local/devel/hpp/install/share/doc/hpp-pinocchio/doxygen-html/hpp-pinocchio.doxytag:../../hpp-pinocchio/doxygen-html/" xlink:href="../../hpp-pinocchio/doxygen-html/a00097.html" target="_top" xlink:title="hpp/pinocchio/frame.hh">
<polygon fill="white" stroke="black" points="601,-129 601,-148 719,-148 719,-129 601,-129"/>
<text text-anchor="middle" x="660" y="-136" font-family="Helvetica,sans-Serif" font-size="10.00">hpp/pinocchio/frame.hh</text>
</a>
</g>
</g>
<!-- Node11&#45;&gt;Node12 -->
<g id="edge14" class="edge"><title>Node11&#45;&gt;Node12</title>
<path fill="none" stroke="midnightblue" d="M397.792,-195.936C452.45,-184.171 550.732,-163.018 610.204,-150.218"/>
<polygon fill="midnightblue" stroke="midnightblue" points="611.08,-153.609 620.12,-148.083 609.608,-146.766 611.08,-153.609"/>
</g>
<!-- Node13 -->
<g id="node13" class="node"><title>Node13</title>
<g id="a_node13"><a doxygen="/local/devel/hpp/install/share/doc/hpp-pinocchio/doxygen-html/hpp-pinocchio.doxytag:../../hpp-pinocchio/doxygen-html/" xlink:href="../../hpp-pinocchio/doxygen-html/a00108.html" target="_top" xlink:title="hpp/pinocchio/pool.hh">
<polygon fill="white" stroke="black" points="307.5,-129 307.5,-148 418.5,-148 418.5,-129 307.5,-129"/>
<text text-anchor="middle" x="363" y="-136" font-family="Helvetica,sans-Serif" font-size="10.00">hpp/pinocchio/pool.hh</text>
</a>
</g>
</g>
<!-- Node11&#45;&gt;Node13 -->
<g id="edge16" class="edge"><title>Node11&#45;&gt;Node13</title>
<path fill="none" stroke="midnightblue" d="M358.674,-195.734C359.409,-186.183 360.606,-170.618 361.555,-158.283"/>
<polygon fill="midnightblue" stroke="midnightblue" points="365.059,-158.366 362.336,-148.127 358.08,-157.829 365.059,-158.366"/>
</g>
<!-- Node14 -->
<g id="node14" class="node"><title>Node14</title>
<g id="a_node14"><a doxygen="/local/devel/hpp/install/share/doc/hpp-pinocchio/doxygen-html/hpp-pinocchio.doxytag:../../hpp-pinocchio/doxygen-html/" xlink:href="../../hpp-pinocchio/doxygen-html/a00096.html" target="_top" xlink:title="hpp/pinocchio/extra\l&#45;config&#45;space.hh">
<polygon fill="white" stroke="black" points="149.5,-123.5 149.5,-153.5 250.5,-153.5 250.5,-123.5 149.5,-123.5"/>
<text text-anchor="start" x="157.5" y="-141.5" font-family="Helvetica,sans-Serif" font-size="10.00">hpp/pinocchio/extra</text>
<text text-anchor="middle" x="200" y="-130.5" font-family="Helvetica,sans-Serif" font-size="10.00">&#45;config&#45;space.hh</text>
</a>
</g>
</g>
<!-- Node11&#45;&gt;Node14 -->
<g id="edge17" class="edge"><title>Node11&#45;&gt;Node14</title>
<path fill="none" stroke="midnightblue" d="M337.019,-195.869C313.31,-186.115 274.064,-169.97 243.637,-157.452"/>
<polygon fill="midnightblue" stroke="midnightblue" points="244.679,-154.096 234.099,-153.528 242.015,-160.569 244.679,-154.096"/>
</g>
<!-- Node15 -->
<g id="node15" class="node"><title>Node15</title>
<g id="a_node15"><a doxygen="/local/devel/hpp/install/share/doc/hpp-pinocchio/doxygen-html/hpp-pinocchio.doxytag:../../hpp-pinocchio/doxygen-html/" xlink:href="../../hpp-pinocchio/doxygen-html/a00093.html" target="_top" xlink:title="hpp/pinocchio/device\l&#45;data.hh">
<polygon fill="white" stroke="black" points="399,-56.5 399,-86.5 507,-86.5 507,-56.5 399,-56.5"/>
<text text-anchor="start" x="407" y="-74.5" font-family="Helvetica,sans-Serif" font-size="10.00">hpp/pinocchio/device</text>
<text text-anchor="middle" x="453" y="-63.5" font-family="Helvetica,sans-Serif" font-size="10.00">&#45;data.hh</text>
</a>
</g>
</g>
<!-- Node11&#45;&gt;Node15 -->
<g id="edge19" class="edge"><title>Node11&#45;&gt;Node15</title>
<path fill="none" stroke="midnightblue" d="M343.441,-195.962C320.05,-181.154 278.595,-149.731 298,-123 318.718,-94.4602 355.991,-81.7392 388.794,-76.1992"/>
<polygon fill="midnightblue" stroke="midnightblue" points="389.435,-79.6422 398.807,-74.7008 388.399,-72.7193 389.435,-79.6422"/>
</g>
<!-- Node16 -->
<g id="node16" class="node"><title>Node16</title>
<g id="a_node16"><a doxygen="/local/devel/hpp/install/share/doc/hpp-pinocchio/doxygen-html/hpp-pinocchio.doxytag:../../hpp-pinocchio/doxygen-html/" xlink:href="../../hpp-pinocchio/doxygen-html/a00094.html" target="_top" xlink:title="hpp/pinocchio/device\l&#45;sync.hh">
<polygon fill="white" stroke="black" points="437,-123.5 437,-153.5 545,-153.5 545,-123.5 437,-123.5"/>
<text text-anchor="start" x="445" y="-141.5" font-family="Helvetica,sans-Serif" font-size="10.00">hpp/pinocchio/device</text>
<text text-anchor="middle" x="491" y="-130.5" font-family="Helvetica,sans-Serif" font-size="10.00">&#45;sync.hh</text>
</a>
</g>
</g>
<!-- Node11&#45;&gt;Node16 -->
<g id="edge21" class="edge"><title>Node11&#45;&gt;Node16</title>
<path fill="none" stroke="midnightblue" d="M375.661,-195.869C395.359,-186.242 427.799,-170.388 453.266,-157.942"/>
<polygon fill="midnightblue" stroke="midnightblue" points="454.849,-161.064 462.296,-153.528 451.775,-154.774 454.849,-161.064"/>
</g>
<!-- Node12&#45;&gt;Node4 -->
<g id="edge15" class="edge"><title>Node12&#45;&gt;Node4</title>
<path fill="none" stroke="midnightblue" d="M656.151,-128.805C647.079,-108.313 624.207,-56.6451 611.987,-29.0416"/>
<polygon fill="midnightblue" stroke="midnightblue" points="615.124,-27.483 607.876,-19.7557 608.724,-30.3166 615.124,-27.483"/>
</g>
<!-- Node14&#45;&gt;Node4 -->
<g id="edge18" class="edge"><title>Node14&#45;&gt;Node4</title>
<path fill="none" stroke="midnightblue" d="M227.98,-123.412C264.458,-105.535 330.623,-74.7738 390,-56 439.096,-40.4769 496.236,-28.7712 539.116,-21.1951"/>
<polygon fill="midnightblue" stroke="midnightblue" points="539.89,-24.6133 549.143,-19.4528 538.692,-17.7166 539.89,-24.6133"/>
</g>
<!-- Node15&#45;&gt;Node4 -->
<g id="edge20" class="edge"><title>Node15&#45;&gt;Node4</title>
<path fill="none" stroke="midnightblue" d="M488.785,-56.3993C514.233,-46.3717 548.097,-33.028 572.518,-23.405"/>
<polygon fill="midnightblue" stroke="midnightblue" points="574.008,-26.5802 582.028,-19.6578 571.441,-20.0676 574.008,-26.5802"/>
</g>
<!-- Node16&#45;&gt;Node4 -->
<g id="edge22" class="edge"><title>Node16&#45;&gt;Node4</title>
<path fill="none" stroke="midnightblue" d="M502.178,-123.331C515.358,-106.811 538.117,-78.854 559,-56 568.13,-46.0086 578.826,-35.2753 587.499,-26.7979"/>
<polygon fill="midnightblue" stroke="midnightblue" points="590.045,-29.2046 594.792,-19.7328 585.175,-24.1768 590.045,-29.2046"/>
</g>
<!-- Node16&#45;&gt;Node15 -->
<g id="edge23" class="edge"><title>Node16&#45;&gt;Node15</title>
<path fill="none" stroke="midnightblue" d="M482.755,-123.396C477.974,-115.219 471.839,-104.725 466.384,-95.393"/>
<polygon fill="midnightblue" stroke="midnightblue" points="469.298,-93.443 461.229,-86.5765 463.255,-96.9759 469.298,-93.443"/>
</g>
<!-- Node18 -->
<g id="node18" class="node"><title>Node18</title>
<g id="a_node18"><a doxygen="/local/devel/hpp/install/share/doc/hpp-pinocchio/doxygen-html/hpp-pinocchio.doxytag:../../hpp-pinocchio/doxygen-html/" xlink:href="../../hpp-pinocchio/doxygen-html/a00104.html" target="_top" xlink:title="hpp/pinocchio/liegroup\l&#45;space.hh">
<polygon fill="white" stroke="black" points="967.5,-190.5 967.5,-220.5 1080.5,-220.5 1080.5,-190.5 967.5,-190.5"/>
<text text-anchor="start" x="975.5" y="-208.5" font-family="Helvetica,sans-Serif" font-size="10.00">hpp/pinocchio/liegroup</text>
<text text-anchor="middle" x="1024" y="-197.5" font-family="Helvetica,sans-Serif" font-size="10.00">&#45;space.hh</text>
</a>
</g>
</g>
<!-- Node17&#45;&gt;Node18 -->
<g id="edge25" class="edge"><title>Node17&#45;&gt;Node18</title>
<path fill="none" stroke="midnightblue" d="M986.415,-257.396C992.579,-249.049 1000.53,-238.287 1007.52,-228.811"/>
<polygon fill="midnightblue" stroke="midnightblue" points="1010.48,-230.7 1013.61,-220.577 1004.85,-226.542 1010.48,-230.7"/>
</g>
<!-- Node18&#45;&gt;Node4 -->
<g id="edge32" class="edge"><title>Node18&#45;&gt;Node4</title>
<path fill="none" stroke="midnightblue" d="M1018.07,-190.392C1009.82,-172.349 993.212,-141.26 970,-123 880.78,-52.815 747.656,-26.4265 668.951,-16.6363"/>
<polygon fill="midnightblue" stroke="midnightblue" points="669.032,-13.1213 658.688,-15.4155 668.205,-20.0723 669.032,-13.1213"/>
</g>
<!-- Node19 -->
<g id="node19" class="node"><title>Node19</title>
<g id="a_node19"><a doxygen="/local/devel/hpp/install/share/doc/hpp-pinocchio/doxygen-html/hpp-pinocchio.doxytag:../../hpp-pinocchio/doxygen-html/" xlink:href="../../hpp-pinocchio/doxygen-html/a00105.html" target="_top" xlink:title="hpp/pinocchio/liegroup.hh">
<polygon fill="white" stroke="black" points="1141.5,-129 1141.5,-148 1268.5,-148 1268.5,-129 1141.5,-129"/>
<text text-anchor="middle" x="1205" y="-136" font-family="Helvetica,sans-Serif" font-size="10.00">hpp/pinocchio/liegroup.hh</text>
</a>
</g>
</g>
<!-- Node18&#45;&gt;Node19 -->
<g id="edge26" class="edge"><title>Node18&#45;&gt;Node19</title>
<path fill="none" stroke="midnightblue" d="M1063.27,-190.396C1095.59,-178.789 1140.91,-162.515 1171.53,-151.519"/>
<polygon fill="midnightblue" stroke="midnightblue" points="1173.08,-154.681 1181.31,-148.007 1170.72,-148.093 1173.08,-154.681"/>
</g>
<!-- Node20 -->
<g id="node20" class="node"><title>Node20</title>
<g id="a_node20"><a doxygen="/local/devel/hpp/install/share/doc/hpp-pinocchio/doxygen-html/hpp-pinocchio.doxytag:../../hpp-pinocchio/doxygen-html/" xlink:href="../../hpp-pinocchio/doxygen-html/a00114.html" target="_top" xlink:title="hpp/pinocchio/liegroup\l/vector&#45;space.hh">
<polygon fill="white" stroke="black" points="1017.5,-56.5 1017.5,-86.5 1130.5,-86.5 1130.5,-56.5 1017.5,-56.5"/>
<text text-anchor="start" x="1025.5" y="-74.5" font-family="Helvetica,sans-Serif" font-size="10.00">hpp/pinocchio/liegroup</text>
<text text-anchor="middle" x="1074" y="-63.5" font-family="Helvetica,sans-Serif" font-size="10.00">/vector&#45;space.hh</text>
</a>
</g>
</g>
<!-- Node19&#45;&gt;Node20 -->
<g id="edge27" class="edge"><title>Node19&#45;&gt;Node20</title>
<path fill="none" stroke="midnightblue" d="M1187.6,-128.869C1168.35,-119.315 1136.73,-103.627 1111.74,-91.2246"/>
<polygon fill="midnightblue" stroke="midnightblue" points="1113.03,-87.9612 1102.52,-86.6516 1109.92,-94.2317 1113.03,-87.9612"/>
</g>
<!-- Node21 -->
<g id="node21" class="node"><title>Node21</title>
<g id="a_node21"><a doxygen="/local/devel/hpp/install/share/doc/hpp-pinocchio/doxygen-html/hpp-pinocchio.doxytag:../../hpp-pinocchio/doxygen-html/" xlink:href="../../hpp-pinocchio/doxygen-html/a00089.html" target="_top" xlink:title="hpp/pinocchio/liegroup\l/cartesian&#45;product.hh">
<polygon fill="white" stroke="black" points="1148.5,-56.5 1148.5,-86.5 1261.5,-86.5 1261.5,-56.5 1148.5,-56.5"/>
<text text-anchor="start" x="1156.5" y="-74.5" font-family="Helvetica,sans-Serif" font-size="10.00">hpp/pinocchio/liegroup</text>
<text text-anchor="middle" x="1205" y="-63.5" font-family="Helvetica,sans-Serif" font-size="10.00">/cartesian&#45;product.hh</text>
</a>
</g>
</g>
<!-- Node19&#45;&gt;Node21 -->
<g id="edge29" class="edge"><title>Node19&#45;&gt;Node21</title>
<path fill="none" stroke="midnightblue" d="M1205,-128.734C1205,-120.541 1205,-107.923 1205,-96.7136"/>
<polygon fill="midnightblue" stroke="midnightblue" points="1208.5,-96.589 1205,-86.589 1201.5,-96.5891 1208.5,-96.589"/>
</g>
<!-- Node22 -->
<g id="node22" class="node"><title>Node22</title>
<g id="a_node22"><a doxygen="/local/devel/hpp/install/share/doc/hpp-pinocchio/doxygen-html/hpp-pinocchio.doxytag:../../hpp-pinocchio/doxygen-html/" xlink:href="../../hpp-pinocchio/doxygen-html/a00111.html" target="_top" xlink:title="hpp/pinocchio/liegroup\l/special&#45;orthogonal.hh">
<polygon fill="white" stroke="black" points="1279.5,-56.5 1279.5,-86.5 1392.5,-86.5 1392.5,-56.5 1279.5,-56.5"/>
<text text-anchor="start" x="1287.5" y="-74.5" font-family="Helvetica,sans-Serif" font-size="10.00">hpp/pinocchio/liegroup</text>
<text text-anchor="middle" x="1336" y="-63.5" font-family="Helvetica,sans-Serif" font-size="10.00">/special&#45;orthogonal.hh</text>
</a>
</g>
</g>
<!-- Node19&#45;&gt;Node22 -->
<g id="edge30" class="edge"><title>Node19&#45;&gt;Node22</title>
<path fill="none" stroke="midnightblue" d="M1222.4,-128.869C1241.65,-119.315 1273.27,-103.627 1298.26,-91.2246"/>
<polygon fill="midnightblue" stroke="midnightblue" points="1300.08,-94.2317 1307.48,-86.6516 1296.97,-87.9612 1300.08,-94.2317"/>
</g>
<!-- Node23 -->
<g id="node23" class="node"><title>Node23</title>
<g id="a_node23"><a doxygen="/local/devel/hpp/install/share/doc/hpp-pinocchio/doxygen-html/hpp-pinocchio.doxytag:../../hpp-pinocchio/doxygen-html/" xlink:href="../../hpp-pinocchio/doxygen-html/a00110.html" target="_top" xlink:title="hpp/pinocchio/liegroup\l/special&#45;euclidean.hh">
<polygon fill="white" stroke="black" points="1410.5,-56.5 1410.5,-86.5 1523.5,-86.5 1523.5,-56.5 1410.5,-56.5"/>
<text text-anchor="start" x="1418.5" y="-74.5" font-family="Helvetica,sans-Serif" font-size="10.00">hpp/pinocchio/liegroup</text>
<text text-anchor="middle" x="1467" y="-63.5" font-family="Helvetica,sans-Serif" font-size="10.00">/special&#45;euclidean.hh</text>
</a>
</g>
</g>
<!-- Node19&#45;&gt;Node23 -->
<g id="edge31" class="edge"><title>Node19&#45;&gt;Node23</title>
<path fill="none" stroke="midnightblue" d="M1239.52,-128.936C1280.3,-118.82 1349.05,-101.762 1400.32,-89.042"/>
<polygon fill="midnightblue" stroke="midnightblue" points="1401.47,-92.3642 1410.33,-86.5592 1399.78,-85.5701 1401.47,-92.3642"/>
</g>
<!-- Node20&#45;&gt;Node4 -->
<g id="edge28" class="edge"><title>Node20&#45;&gt;Node4</title>
<path fill="none" stroke="midnightblue" d="M1017.11,-58.4178C1012.35,-57.5472 1007.6,-56.7273 1003,-56 885.871,-37.4724 748.224,-23.6978 669.046,-16.5404"/>
<polygon fill="midnightblue" stroke="midnightblue" points="669.015,-13.0237 658.742,-15.6166 668.39,-19.9957 669.015,-13.0237"/>
</g>
<!-- Node24&#45;&gt;Node3 -->
<g id="edge35" class="edge"><title>Node24&#45;&gt;Node3</title>
<path fill="none" stroke="midnightblue" d="M783.466,-262.869C804.404,-251.893 840.781,-232.824 865.363,-219.938"/>
<polygon fill="midnightblue" stroke="midnightblue" points="867.234,-222.91 874.466,-215.167 863.984,-216.71 867.234,-222.91"/>
</g>
<!-- Node24&#45;&gt;Node8 -->
<g id="edge36" class="edge"><title>Node24&#45;&gt;Node8</title>
<path fill="none" stroke="midnightblue" d="M769.023,-262.734C771.25,-253.085 774.892,-237.3 777.752,-224.906"/>
<polygon fill="midnightblue" stroke="midnightblue" points="781.171,-225.658 780.009,-215.127 774.35,-224.084 781.171,-225.658"/>
</g>
<!-- Node25&#45;&gt;Node3 -->
<g id="edge40" class="edge"><title>Node25&#45;&gt;Node3</title>
<path fill="none" stroke="midnightblue" d="M631.396,-262.936C685.512,-251.171 782.818,-230.018 841.699,-217.218"/>
<polygon fill="midnightblue" stroke="midnightblue" points="842.488,-220.628 851.516,-215.083 841.001,-213.788 842.488,-220.628"/>
</g>
<!-- Node26 -->
<g id="node26" class="node"><title>Node26</title>
<polygon fill="white" stroke="#bfbfbf" points="620.5,-190.5 620.5,-220.5 731.5,-220.5 731.5,-190.5 620.5,-190.5"/>
<text text-anchor="start" x="628.5" y="-208.5" font-family="Helvetica,sans-Serif" font-size="10.00">boost/math/constants</text>
<text text-anchor="middle" x="676" y="-197.5" font-family="Helvetica,sans-Serif" font-size="10.00">/constants.hpp</text>
</g>
<!-- Node25&#45;&gt;Node26 -->
<g id="edge38" class="edge"><title>Node25&#45;&gt;Node26</title>
<path fill="none" stroke="midnightblue" d="M603.329,-262.734C615.117,-253.611 633.995,-239.004 649.555,-226.963"/>
<polygon fill="midnightblue" stroke="midnightblue" points="652.026,-229.477 657.793,-220.589 647.742,-223.941 652.026,-229.477"/>
</g>
<!-- Node27 -->
<g id="node27" class="node"><title>Node27</title>
<polygon fill="white" stroke="#bfbfbf" points="475.5,-196 475.5,-215 602.5,-215 602.5,-196 475.5,-196"/>
<text text-anchor="middle" x="539" y="-203" font-family="Helvetica,sans-Serif" font-size="10.00">pinocchio/spatial/se3.hpp</text>
</g>
<!-- Node25&#45;&gt;Node27 -->
<g id="edge39" class="edge"><title>Node25&#45;&gt;Node27</title>
<path fill="none" stroke="midnightblue" d="M584.852,-262.734C576.587,-252.598 562.801,-235.69 552.499,-223.056"/>
<polygon fill="midnightblue" stroke="midnightblue" points="555.067,-220.666 546.035,-215.127 549.641,-225.089 555.067,-220.666"/>
</g>
<!-- Node29&#45;&gt;Node3 -->
<g id="edge43" class="edge"><title>Node29&#45;&gt;Node3</title>
<path fill="none" stroke="midnightblue" d="M1049.74,-324.206C1053.46,-306.534 1056.72,-276.419 1042,-257 1029.74,-240.822 981.842,-226.584 943.237,-217.386"/>
<polygon fill="midnightblue" stroke="midnightblue" points="943.675,-213.895 933.142,-215.043 942.092,-220.714 943.675,-213.895"/>
</g>
<!-- Node29&#45;&gt;Node6 -->
<g id="edge44" class="edge"><title>Node29&#45;&gt;Node6</title>
<path fill="none" stroke="midnightblue" d="M1069,-324.396C1086.94,-313.395 1111.72,-298.2 1129.52,-287.282"/>
<polygon fill="midnightblue" stroke="midnightblue" points="1131.43,-290.218 1138.13,-282.007 1127.77,-284.251 1131.43,-290.218"/>
</g>
<!-- Node29&#45;&gt;Node17 -->
<g id="edge45" class="edge"><title>Node29&#45;&gt;Node17</title>
<path fill="none" stroke="midnightblue" d="M1030.81,-324.396C1021.45,-315.708 1009.28,-304.405 998.785,-294.658"/>
<polygon fill="midnightblue" stroke="midnightblue" points="1000.87,-291.816 991.159,-287.577 996.106,-296.946 1000.87,-291.816"/>
</g>
</g>
</svg>
