<?xml version="1.0" encoding="UTF-8" standalone="no"?>
<!DOCTYPE svg PUBLIC "-//W3C//DTD SVG 1.1//EN"
 "http://www.w3.org/Graphics/SVG/1.1/DTD/svg11.dtd">
<!-- Generated by graphviz version 2.38.0 (20140413.2041)
 -->
<!-- Title: hpp::constraints::DifferentiableFunction Pages: 1 -->
<svg width="365pt" height="978pt"
 viewBox="0.00 0.00 365.00 978.00" xmlns="http://www.w3.org/2000/svg" xmlns:xlink="http://www.w3.org/1999/xlink">
<g id="graph0" class="graph" transform="scale(1 1) rotate(0) translate(4 974)">
<title>hpp::constraints::DifferentiableFunction</title>
<polygon fill="white" stroke="none" points="-4,4 -4,-974 361,-974 361,4 -4,4"/>
<!-- Node1 -->
<g id="node1" class="node"><title>Node1</title>
<polygon fill="#bfbfbf" stroke="black" points="0,-459.5 0,-489.5 150,-489.5 150,-459.5 0,-459.5"/>
<text text-anchor="start" x="8" y="-477.5" font-family="Helvetica,sans-Serif" font-size="10.00">hpp::constraints::Differentiable</text>
<text text-anchor="middle" x="75" y="-466.5" font-family="Helvetica,sans-Serif" font-size="10.00">Function</text>
</g>
<!-- Node2 -->
<g id="node2" class="node"><title>Node2</title>
<g id="a_node2"><a xlink:href="a00008.html" target="_top" xlink:title="Handle bounds on input variables of a differentiable function. ">
<polygon fill="white" stroke="black" points="208,-939.5 208,-969.5 335,-969.5 335,-939.5 208,-939.5"/>
<text text-anchor="start" x="216" y="-957.5" font-family="Helvetica,sans-Serif" font-size="10.00">hpp::constraints::Active</text>
<text text-anchor="middle" x="271.5" y="-946.5" font-family="Helvetica,sans-Serif" font-size="10.00">SetDifferentiableFunction</text>
</a>
</g>
</g>
<!-- Node1&#45;&gt;Node2 -->
<g id="edge1" class="edge"><title>Node1&#45;&gt;Node2</title>
<path fill="none" stroke="midnightblue" d="M78.7502,-499.737C88.637,-585.967 125.057,-867.067 186,-930.5 192.022,-936.768 199.552,-941.435 207.619,-944.903"/>
<polygon fill="midnightblue" stroke="midnightblue" points="82.2008,-499.101 77.6032,-489.556 75.2448,-499.885 82.2008,-499.101"/>
</g>
<!-- Node3 -->
<g id="node3" class="node"><title>Node3</title>
<g id="a_node3"><a xlink:href="a00009.html" target="_top" xlink:title="Affine function . ">
<polygon fill="white" stroke="black" points="212.5,-890.5 212.5,-920.5 330.5,-920.5 330.5,-890.5 212.5,-890.5"/>
<text text-anchor="start" x="220.5" y="-908.5" font-family="Helvetica,sans-Serif" font-size="10.00">hpp::constraints::Affine</text>
<text text-anchor="middle" x="271.5" y="-897.5" font-family="Helvetica,sans-Serif" font-size="10.00">Function</text>
</a>
</g>
</g>
<!-- Node1&#45;&gt;Node3 -->
<g id="edge2" class="edge"><title>Node1&#45;&gt;Node3</title>
<path fill="none" stroke="midnightblue" d="M79.5903,-499.789C91.4163,-579.694 131.526,-824.755 186,-880.5 193.271,-887.94 202.641,-893.192 212.482,-896.893"/>
<polygon fill="midnightblue" stroke="midnightblue" points="83.0177,-499.037 78.1107,-489.647 76.091,-500.048 83.0177,-499.037"/>
</g>
<!-- Node4 -->
<g id="node4" class="node"><title>Node4</title>
<g id="a_node4"><a xlink:href="a00019.html" target="_top" xlink:title="Constraint on the relative position of the center of mass. ">
<polygon fill="white" stroke="black" points="186,-852 186,-871 357,-871 357,-852 186,-852"/>
<text text-anchor="middle" x="271.5" y="-859" font-family="Helvetica,sans-Serif" font-size="10.00">hpp::constraints::ComBetweenFeet</text>
</a>
</g>
</g>
<!-- Node1&#45;&gt;Node4 -->
<g id="edge3" class="edge"><title>Node1&#45;&gt;Node4</title>
<path fill="none" stroke="midnightblue" d="M75.4548,-499.915C75.4906,-566.72 85.3166,-748.562 186,-842.5 190.068,-846.295 194.725,-849.391 199.716,-851.909"/>
<polygon fill="midnightblue" stroke="midnightblue" points="78.9549,-499.887 75.5258,-489.863 71.9551,-499.838 78.9549,-499.887"/>
</g>
<!-- Node5 -->
<g id="node5" class="node"><title>Node5</title>
<g id="a_node5"><a xlink:href="a00020.html" target="_top" xlink:title="Square distance between input configuration and reference configuration. ">
<polygon fill="white" stroke="black" points="196.5,-802.5 196.5,-832.5 346.5,-832.5 346.5,-802.5 196.5,-802.5"/>
<text text-anchor="start" x="204.5" y="-820.5" font-family="Helvetica,sans-Serif" font-size="10.00">hpp::constraints::Configuration</text>
<text text-anchor="middle" x="271.5" y="-809.5" font-family="Helvetica,sans-Serif" font-size="10.00">Constraint</text>
</a>
</g>
</g>
<!-- Node1&#45;&gt;Node5 -->
<g id="edge4" class="edge"><title>Node1&#45;&gt;Node5</title>
<path fill="none" stroke="midnightblue" d="M77.12,-499.878C81.1735,-559.969 99.8704,-712.008 186,-793.5 189.656,-796.959 193.773,-799.925 198.172,-802.467"/>
<polygon fill="midnightblue" stroke="midnightblue" points="80.6062,-499.54 76.5206,-489.765 73.6185,-499.955 80.6062,-499.54"/>
</g>
<!-- Node6 -->
<g id="node6" class="node"><title>Node6</title>
<g id="a_node6"><a xlink:href="a00022.html" target="_top" xlink:title="Constant function . ">
<polygon fill="white" stroke="black" points="205.5,-753.5 205.5,-783.5 337.5,-783.5 337.5,-753.5 205.5,-753.5"/>
<text text-anchor="start" x="213.5" y="-771.5" font-family="Helvetica,sans-Serif" font-size="10.00">hpp::constraints::Constant</text>
<text text-anchor="middle" x="271.5" y="-760.5" font-family="Helvetica,sans-Serif" font-size="10.00">Function</text>
</a>
</g>
</g>
<!-- Node1&#45;&gt;Node6 -->
<g id="edge5" class="edge"><title>Node1&#45;&gt;Node6</title>
<path fill="none" stroke="midnightblue" d="M78.8987,-499.609C86.4008,-552.856 111.391,-677.687 186,-744.5 191.68,-749.587 198.365,-753.602 205.446,-756.771"/>
<polygon fill="midnightblue" stroke="midnightblue" points="82.3648,-499.121 77.5866,-489.665 75.425,-500.037 82.3648,-499.121"/>
</g>
<!-- Node7 -->
<g id="node7" class="node"><title>Node7</title>
<g id="a_node7"><a xlink:href="a00025.html" target="_top" xlink:title="The function returns a relative transformation between the two &quot;closest&quot; convex shapes it contains...">
<polygon fill="white" stroke="black" points="208.5,-704.5 208.5,-734.5 334.5,-734.5 334.5,-704.5 208.5,-704.5"/>
<text text-anchor="start" x="216.5" y="-722.5" font-family="Helvetica,sans-Serif" font-size="10.00">hpp::constraints::Convex</text>
<text text-anchor="middle" x="271.5" y="-711.5" font-family="Helvetica,sans-Serif" font-size="10.00">ShapeContact</text>
</a>
</g>
</g>
<!-- Node1&#45;&gt;Node7 -->
<g id="edge6" class="edge"><title>Node1&#45;&gt;Node7</title>
<path fill="none" stroke="midnightblue" d="M81.4611,-499.77C92.7285,-545.751 122.958,-643.167 186,-695.5 192.571,-700.955 200.311,-705.172 208.393,-708.431"/>
<polygon fill="midnightblue" stroke="midnightblue" points="84.8024,-498.688 79.1097,-489.752 77.9876,-500.288 84.8024,-498.688"/>
</g>
<!-- Node8 -->
<g id="node8" class="node"><title>Node8</title>
<g id="a_node8"><a xlink:href="a00026.html" target="_top" xlink:title="Complement to full transformation constraint of ConvexShapeContact. ">
<polygon fill="white" stroke="black" points="204.5,-655.5 204.5,-685.5 338.5,-685.5 338.5,-655.5 204.5,-655.5"/>
<text text-anchor="start" x="212.5" y="-673.5" font-family="Helvetica,sans-Serif" font-size="10.00">hpp::constraints::Convex</text>
<text text-anchor="middle" x="271.5" y="-662.5" font-family="Helvetica,sans-Serif" font-size="10.00">ShapeContactComplement</text>
</a>
</g>
</g>
<!-- Node1&#45;&gt;Node8 -->
<g id="edge7" class="edge"><title>Node1&#45;&gt;Node8</title>
<path fill="none" stroke="midnightblue" d="M85.0801,-499.157C100.171,-536.683 133.997,-607.84 186,-646.5 191.507,-650.594 197.69,-653.991 204.139,-656.808"/>
<polygon fill="midnightblue" stroke="midnightblue" points="88.2156,-497.564 81.321,-489.519 81.6941,-500.107 88.2156,-497.564"/>
</g>
<!-- Node9 -->
<g id="node9" class="node"><title>Node9</title>
<g id="a_node9"><a xlink:href="a00033.html" target="_top" xlink:title="Set of differentiable functions. ">
<polygon fill="white" stroke="black" points="196.5,-606.5 196.5,-636.5 346.5,-636.5 346.5,-606.5 196.5,-606.5"/>
<text text-anchor="start" x="204.5" y="-624.5" font-family="Helvetica,sans-Serif" font-size="10.00">hpp::constraints::Differentiable</text>
<text text-anchor="middle" x="271.5" y="-613.5" font-family="Helvetica,sans-Serif" font-size="10.00">FunctionSet</text>
</a>
</g>
</g>
<!-- Node1&#45;&gt;Node9 -->
<g id="edge8" class="edge"><title>Node1&#45;&gt;Node9</title>
<path fill="none" stroke="midnightblue" d="M91.0416,-498.25C109.898,-526.101 144.797,-571.729 186,-597.5 191.43,-600.897 197.353,-603.825 203.461,-606.346"/>
<polygon fill="midnightblue" stroke="midnightblue" points="93.9365,-496.282 85.4953,-489.88 88.1013,-500.149 93.9365,-496.282"/>
</g>
<!-- Node10 -->
<g id="node10" class="node"><title>Node10</title>
<g id="a_node10"><a xlink:href="a00034.html" target="_top" xlink:title="Distance between two sets of objects. ">
<polygon fill="white" stroke="black" points="206,-557.5 206,-587.5 337,-587.5 337,-557.5 206,-557.5"/>
<text text-anchor="start" x="214" y="-575.5" font-family="Helvetica,sans-Serif" font-size="10.00">hpp::constraints::Distance</text>
<text text-anchor="middle" x="271.5" y="-564.5" font-family="Helvetica,sans-Serif" font-size="10.00">BetweenBodies</text>
</a>
</g>
</g>
<!-- Node1&#45;&gt;Node10 -->
<g id="edge9" class="edge"><title>Node1&#45;&gt;Node10</title>
<path fill="none" stroke="midnightblue" d="M102.351,-495.728C123.79,-512.11 155.404,-534.302 186,-548.5 193.193,-551.838 200.951,-554.81 208.747,-557.427"/>
<polygon fill="midnightblue" stroke="midnightblue" points="104.424,-492.907 94.3767,-489.544 100.134,-498.439 104.424,-492.907"/>
</g>
<!-- Node11 -->
<g id="node11" class="node"><title>Node11</title>
<g id="a_node11"><a xlink:href="a00035.html" target="_top" xlink:title="Distance between two sets of objects. ">
<polygon fill="white" stroke="black" points="206,-508.5 206,-538.5 337,-538.5 337,-508.5 206,-508.5"/>
<text text-anchor="start" x="214" y="-526.5" font-family="Helvetica,sans-Serif" font-size="10.00">hpp::constraints::Distance</text>
<text text-anchor="middle" x="271.5" y="-515.5" font-family="Helvetica,sans-Serif" font-size="10.00">BetweenPointsInBodies</text>
</a>
</g>
</g>
<!-- Node1&#45;&gt;Node11 -->
<g id="edge10" class="edge"><title>Node1&#45;&gt;Node11</title>
<path fill="none" stroke="midnightblue" d="M145.662,-492.05C167.02,-497.431 190.315,-503.299 210.935,-508.494"/>
<polygon fill="midnightblue" stroke="midnightblue" points="146.23,-488.584 135.678,-489.535 144.52,-495.372 146.23,-488.584"/>
</g>
<!-- Node12 -->
<g id="node12" class="node"><title>Node12</title>
<g id="a_node12"><a xlink:href="a00056.html" target="_top" xlink:title="Function of the form q &#45;&gt; g (q_out) &#45; f (q_in) ">
<polygon fill="white" stroke="black" points="210,-459.5 210,-489.5 333,-489.5 333,-459.5 210,-459.5"/>
<text text-anchor="start" x="218" y="-477.5" font-family="Helvetica,sans-Serif" font-size="10.00">hpp::constraints::explicit</text>
<text text-anchor="middle" x="271.5" y="-466.5" font-family="Helvetica,sans-Serif" font-size="10.00">_::ImplicitFunction</text>
</a>
</g>
</g>
<!-- Node1&#45;&gt;Node12 -->
<g id="edge11" class="edge"><title>Node1&#45;&gt;Node12</title>
<path fill="none" stroke="midnightblue" d="M160.374,-474.5C177.032,-474.5 194.202,-474.5 209.884,-474.5"/>
<polygon fill="midnightblue" stroke="midnightblue" points="160.087,-471 150.087,-474.5 160.087,-478 160.087,-471"/>
</g>
<!-- Node13 -->
<g id="node13" class="node"><title>Node13</title>
<g id="a_node13"><a xlink:href="a00077.html" target="_top" xlink:title="Relative transformation as a mapping between configuration variables. ">
<polygon fill="white" stroke="black" points="207,-410.5 207,-440.5 336,-440.5 336,-410.5 207,-410.5"/>
<text text-anchor="start" x="215" y="-428.5" font-family="Helvetica,sans-Serif" font-size="10.00">hpp::constraints::explicit</text>
<text text-anchor="middle" x="271.5" y="-417.5" font-family="Helvetica,sans-Serif" font-size="10.00">_::RelativeTransformation</text>
</a>
</g>
</g>
<!-- Node1&#45;&gt;Node13 -->
<g id="edge12" class="edge"><title>Node1&#45;&gt;Node13</title>
<path fill="none" stroke="midnightblue" d="M145.662,-456.95C167.02,-451.569 190.315,-445.701 210.935,-440.506"/>
<polygon fill="midnightblue" stroke="midnightblue" points="144.52,-453.628 135.678,-459.465 146.23,-460.416 144.52,-453.628"/>
</g>
<!-- Node14 -->
<g id="node14" class="node"><title>Node14</title>
<g id="a_node14"><a xlink:href="a00030.html" target="_top" xlink:title="Compute the difference between the value of the function in two points. ">
<polygon fill="white" stroke="black" points="208,-361.5 208,-391.5 335,-391.5 335,-361.5 208,-361.5"/>
<text text-anchor="start" x="216" y="-379.5" font-family="Helvetica,sans-Serif" font-size="10.00">hpp::constraints::function</text>
<text text-anchor="middle" x="271.5" y="-368.5" font-family="Helvetica,sans-Serif" font-size="10.00">::Difference</text>
</a>
</g>
</g>
<!-- Node1&#45;&gt;Node14 -->
<g id="edge13" class="edge"><title>Node1&#45;&gt;Node14</title>
<path fill="none" stroke="midnightblue" d="M102.828,-453.378C124.309,-437.309 155.748,-415.623 186,-401.5 193.902,-397.811 202.474,-394.526 211.026,-391.647"/>
<polygon fill="midnightblue" stroke="midnightblue" points="100.677,-450.617 94.8266,-459.45 104.909,-456.193 100.677,-450.617"/>
</g>
<!-- Node15 -->
<g id="node15" class="node"><title>Node15</title>
<g id="a_node15"><a xlink:href="a00066.html" target="_top" xlink:title="Function depending on a subset of parameters. ">
<polygon fill="white" stroke="black" points="208,-312.5 208,-342.5 335,-342.5 335,-312.5 208,-312.5"/>
<text text-anchor="start" x="216" y="-330.5" font-family="Helvetica,sans-Serif" font-size="10.00">hpp::constraints::function</text>
<text text-anchor="middle" x="271.5" y="-319.5" font-family="Helvetica,sans-Serif" font-size="10.00">::OfParameterSubset</text>
</a>
</g>
</g>
<!-- Node1&#45;&gt;Node15 -->
<g id="edge14" class="edge"><title>Node1&#45;&gt;Node15</title>
<path fill="none" stroke="midnightblue" d="M91.3821,-450.664C110.386,-423.085 145.248,-378.184 186,-352.5 192.73,-348.258 200.213,-344.708 207.864,-341.744"/>
<polygon fill="midnightblue" stroke="midnightblue" points="88.2478,-449.052 85.5595,-459.3 94.0519,-452.965 88.2478,-449.052"/>
</g>
<!-- Node16 -->
<g id="node16" class="node"><title>Node16</title>
<g id="a_node16"><a xlink:href="a00049.html" target="_top" xlink:title="GenericTransformation class encapsulates 6 possible differentiable functions: Position, Orientation, Transformation and their relative versions RelativePosition, RelativeOrientation, RelativeTransformation. ">
<polygon fill="white" stroke="black" points="202,-263.5 202,-293.5 341,-293.5 341,-263.5 202,-263.5"/>
<text text-anchor="start" x="210" y="-281.5" font-family="Helvetica,sans-Serif" font-size="10.00">hpp::constraints::Generic</text>
<text text-anchor="middle" x="271.5" y="-270.5" font-family="Helvetica,sans-Serif" font-size="10.00">Transformation&lt; _Options &gt;</text>
</a>
</g>
</g>
<!-- Node1&#45;&gt;Node16 -->
<g id="edge15" class="edge"><title>Node1&#45;&gt;Node16</title>
<path fill="none" stroke="midnightblue" d="M85.2862,-449.775C100.555,-412.485 134.5,-342.117 186,-303.5 191.141,-299.645 196.869,-296.382 202.854,-293.621"/>
<polygon fill="midnightblue" stroke="midnightblue" points="81.917,-448.777 81.4759,-459.362 88.422,-451.362 81.917,-448.777"/>
</g>
<!-- Node17 -->
<g id="node17" class="node"><title>Node17</title>
<g id="a_node17"><a xlink:href="a00053.html" target="_top" xlink:title="Identity function . ">
<polygon fill="white" stroke="black" points="209,-225 209,-244 334,-244 334,-225 209,-225"/>
<text text-anchor="middle" x="271.5" y="-232" font-family="Helvetica,sans-Serif" font-size="10.00">hpp::constraints::Identity</text>
</a>
</g>
</g>
<!-- Node1&#45;&gt;Node17 -->
<g id="edge16" class="edge"><title>Node1&#45;&gt;Node17</title>
<path fill="none" stroke="midnightblue" d="M81.1975,-449.407C92.0996,-403.328 121.845,-305.304 186,-254.5 192.737,-249.165 200.662,-245.215 208.914,-242.296"/>
<polygon fill="midnightblue" stroke="midnightblue" points="77.7214,-448.911 78.9308,-459.437 84.5492,-450.454 77.7214,-448.911"/>
</g>
<!-- Node18 -->
<g id="node18" class="node"><title>Node18</title>
<g id="a_node18"><a xlink:href="a00060.html" target="_top" xlink:title="Differentiable function. ">
<polygon fill="white" stroke="black" points="195.5,-187 195.5,-206 347.5,-206 347.5,-187 195.5,-187"/>
<text text-anchor="middle" x="271.5" y="-194" font-family="Helvetica,sans-Serif" font-size="10.00">hpp::constraints::Manipulability</text>
</a>
</g>
</g>
<!-- Node1&#45;&gt;Node18 -->
<g id="edge17" class="edge"><title>Node1&#45;&gt;Node18</title>
<path fill="none" stroke="midnightblue" d="M79.0596,-449.384C86.7971,-397.274 112.098,-277.14 186,-215.5 190.619,-211.648 195.857,-208.535 201.409,-206.026"/>
<polygon fill="midnightblue" stroke="midnightblue" points="75.574,-449.039 77.664,-459.425 82.5074,-450.002 75.574,-449.039"/>
</g>
<!-- Node19 -->
<g id="node19" class="node"><title>Node19</title>
<g id="a_node19"><a xlink:href="a00073.html" target="_top" xlink:title="hpp::constraints::QPStatic\lStability">
<polygon fill="white" stroke="black" points="205.5,-137.5 205.5,-167.5 337.5,-167.5 337.5,-137.5 205.5,-137.5"/>
<text text-anchor="start" x="213.5" y="-155.5" font-family="Helvetica,sans-Serif" font-size="10.00">hpp::constraints::QPStatic</text>
<text text-anchor="middle" x="271.5" y="-144.5" font-family="Helvetica,sans-Serif" font-size="10.00">Stability</text>
</a>
</g>
</g>
<!-- Node1&#45;&gt;Node19 -->
<g id="edge18" class="edge"><title>Node1&#45;&gt;Node19</title>
<path fill="none" stroke="midnightblue" d="M77.9438,-448.998C83.6853,-391.853 105.613,-252.67 186,-177.5 191.587,-172.275 198.215,-168.138 205.265,-164.862"/>
<polygon fill="midnightblue" stroke="midnightblue" points="74.4279,-449.012 76.9988,-459.291 81.3986,-449.652 74.4279,-449.012"/>
</g>
<!-- Node20 -->
<g id="node20" class="node"><title>Node20</title>
<g id="a_node20"><a xlink:href="a00074.html" target="_top" xlink:title="Constraint on the relative position of the center of mass. ">
<polygon fill="white" stroke="black" points="197,-99 197,-118 346,-118 346,-99 197,-99"/>
<text text-anchor="middle" x="271.5" y="-106" font-family="Helvetica,sans-Serif" font-size="10.00">hpp::constraints::RelativeCom</text>
</a>
</g>
</g>
<!-- Node1&#45;&gt;Node20 -->
<g id="edge19" class="edge"><title>Node1&#45;&gt;Node20</title>
<path fill="none" stroke="midnightblue" d="M76.0835,-448.964C77.7497,-384.9 91.3861,-216.236 186,-128.5 190.643,-124.195 196.037,-120.764 201.81,-118.036"/>
<polygon fill="midnightblue" stroke="midnightblue" points="72.5775,-449.271 75.8979,-459.332 79.5764,-449.396 72.5775,-449.271"/>
</g>
<!-- Node21 -->
<g id="node21" class="node"><title>Node21</title>
<g id="a_node21"><a xlink:href="a00083.html" target="_top" xlink:title="hpp::constraints::Static\lStability">
<polygon fill="white" stroke="black" points="212.5,-49.5 212.5,-79.5 330.5,-79.5 330.5,-49.5 212.5,-49.5"/>
<text text-anchor="start" x="220.5" y="-67.5" font-family="Helvetica,sans-Serif" font-size="10.00">hpp::constraints::Static</text>
<text text-anchor="middle" x="271.5" y="-56.5" font-family="Helvetica,sans-Serif" font-size="10.00">Stability</text>
</a>
</g>
</g>
<!-- Node1&#45;&gt;Node21 -->
<g id="edge20" class="edge"><title>Node1&#45;&gt;Node21</title>
<path fill="none" stroke="midnightblue" d="M75.4173,-449.266C75.2703,-381.178 84.5064,-191.947 186,-89.5 193.214,-82.2182 202.44,-77.0356 212.13,-73.3521"/>
<polygon fill="midnightblue" stroke="midnightblue" points="71.9193,-449.509 75.5148,-459.475 78.919,-449.442 71.9193,-449.509"/>
</g>
<!-- Node22 -->
<g id="node22" class="node"><title>Node22</title>
<g id="a_node22"><a xlink:href="a00085.html" target="_top" xlink:title="hpp::constraints::Symbolic\lFunction\&lt; Expression \&gt;">
<polygon fill="white" stroke="black" points="205,-0.5 205,-30.5 338,-30.5 338,-0.5 205,-0.5"/>
<text text-anchor="start" x="213" y="-18.5" font-family="Helvetica,sans-Serif" font-size="10.00">hpp::constraints::Symbolic</text>
<text text-anchor="middle" x="271.5" y="-7.5" font-family="Helvetica,sans-Serif" font-size="10.00">Function&lt; Expression &gt;</text>
</a>
</g>
</g>
<!-- Node1&#45;&gt;Node22 -->
<g id="edge21" class="edge"><title>Node1&#45;&gt;Node22</title>
<path fill="none" stroke="midnightblue" d="M79.1266,-449.134C89.9159,-365.55 128.13,-100.698 186,-40.5 191.301,-34.9855 197.755,-30.6715 204.709,-27.2993"/>
<polygon fill="midnightblue" stroke="midnightblue" points="75.6284,-448.9 77.84,-459.261 82.5725,-449.782 75.6284,-448.9"/>
</g>
</g>
</svg>
