<?xml version="1.0" encoding="UTF-8" standalone="no"?>
<!DOCTYPE svg PUBLIC "-//W3C//DTD SVG 1.1//EN"
 "http://www.w3.org/Graphics/SVG/1.1/DTD/svg11.dtd">
<!-- Generated by graphviz version 2.38.0 (20140413.2041)
 -->
<!-- Title: hpp::constraints::ConstantFunction Pages: 1 -->
<svg width="520pt" height="88pt"
 viewBox="0.00 0.00 520.00 88.00" xmlns="http://www.w3.org/2000/svg" xmlns:xlink="http://www.w3.org/1999/xlink">
<g id="graph0" class="graph" transform="scale(1 1) rotate(0) translate(4 84)">
<title>hpp::constraints::ConstantFunction</title>
<polygon fill="white" stroke="none" points="-4,4 -4,-84 516,-84 516,4 -4,4"/>
<!-- Node1 -->
<g id="node1" class="node"><title>Node1</title>
<polygon fill="#bfbfbf" stroke="black" points="380,-30.5 380,-60.5 512,-60.5 512,-30.5 380,-30.5"/>
<text text-anchor="start" x="388" y="-48.5" font-family="Helvetica,sans-Serif" font-size="10.00">hpp::constraints::Constant</text>
<text text-anchor="middle" x="446" y="-37.5" font-family="Helvetica,sans-Serif" font-size="10.00">Function</text>
</g>
<!-- Node2 -->
<g id="node2" class="node"><title>Node2</title>
<g id="a_node2"><a xlink:href="a00032.html" target="_top" xlink:title="Differentiable function. ">
<polygon fill="white" stroke="black" points="180,-49.5 180,-79.5 330,-79.5 330,-49.5 180,-49.5"/>
<text text-anchor="start" x="188" y="-67.5" font-family="Helvetica,sans-Serif" font-size="10.00">hpp::constraints::Differentiable</text>
<text text-anchor="middle" x="255" y="-56.5" font-family="Helvetica,sans-Serif" font-size="10.00">Function</text>
</a>
</g>
</g>
<!-- Node2&#45;&gt;Node1 -->
<g id="edge1" class="edge"><title>Node2&#45;&gt;Node1</title>
<path fill="none" stroke="midnightblue" d="M340.264,-56.029C353.577,-54.6906 367.164,-53.3248 379.952,-52.0392"/>
<polygon fill="midnightblue" stroke="midnightblue" points="339.755,-52.5624 330.155,-57.0452 340.455,-59.5273 339.755,-52.5624"/>
</g>
<!-- Node3 -->
<g id="node3" class="node"><title>Node3</title>
<g id="a_node3"><a doxygen="/local/devel/hpp/install/share/doc/hpp-pinocchio/doxygen-html/hpp-pinocchio.doxytag:../../hpp-pinocchio/doxygen-html/" xlink:href="../../hpp-pinocchio/doxygen-html/a00076.html" target="_top" xlink:title="hpp::pinocchio::Liegroup\lElementBase\&lt; vector_type \&gt;">
<polygon fill="white" stroke="black" points="183,-0.5 183,-30.5 327,-30.5 327,-0.5 183,-0.5"/>
<text text-anchor="start" x="191" y="-18.5" font-family="Helvetica,sans-Serif" font-size="10.00">hpp::pinocchio::Liegroup</text>
<text text-anchor="middle" x="255" y="-7.5" font-family="Helvetica,sans-Serif" font-size="10.00">ElementBase&lt; vector_type &gt;</text>
</a>
</g>
</g>
<!-- Node3&#45;&gt;Node1 -->
<g id="edge2" class="edge"><title>Node3&#45;&gt;Node1</title>
<path fill="none" stroke="#9a32cd" stroke-dasharray="5,2" d="M337.408,-28.4219C351.573,-30.6703 366.138,-32.9822 379.796,-35.1502"/>
<polygon fill="#9a32cd" stroke="#9a32cd" points="337.609,-24.91 327.183,-26.799 336.511,-31.8234 337.609,-24.91"/>
<text text-anchor="middle" x="355" y="-34.5" font-family="Helvetica,sans-Serif" font-size="10.00"> c_</text>
</g>
<!-- Node4 -->
<g id="node4" class="node"><title>Node4</title>
<g id="a_node4"><a doxygen="/local/devel/hpp/install/share/doc/hpp-pinocchio/doxygen-html/hpp-pinocchio.doxytag:../../hpp-pinocchio/doxygen-html/" xlink:href="../../hpp-pinocchio/doxygen-html/a00077.html" target="_top" xlink:title="hpp::pinocchio::Liegroup\lElementConstBase\&lt; class \&gt;">
<polygon fill="white" stroke="black" points="0,-0.5 0,-30.5 143,-30.5 143,-0.5 0,-0.5"/>
<text text-anchor="start" x="8" y="-18.5" font-family="Helvetica,sans-Serif" font-size="10.00">hpp::pinocchio::Liegroup</text>
<text text-anchor="middle" x="71.5" y="-7.5" font-family="Helvetica,sans-Serif" font-size="10.00">ElementConstBase&lt; class &gt;</text>
</a>
</g>
</g>
<!-- Node4&#45;&gt;Node3 -->
<g id="edge3" class="edge"><title>Node4&#45;&gt;Node3</title>
<path fill="none" stroke="midnightblue" d="M153.374,-15.5C163.217,-15.5 173.217,-15.5 182.903,-15.5"/>
<polygon fill="midnightblue" stroke="midnightblue" points="153.192,-12.0001 143.192,-15.5 153.192,-19.0001 153.192,-12.0001"/>
</g>
</g>
</svg>
