<?xml version="1.0" encoding="UTF-8" standalone="no"?>
<!DOCTYPE svg PUBLIC "-//W3C//DTD SVG 1.1//EN"
 "http://www.w3.org/Graphics/SVG/1.1/DTD/svg11.dtd">
<!-- Generated by graphviz version 2.38.0 (20140413.2041)
 -->
<!-- Title: hpp::constraints::CalculusBaseAbstract&lt; ValueType, JacobianType &gt; Pages: 1 -->
<svg width="178pt" height="117pt"
 viewBox="0.00 0.00 178.00 117.00" xmlns="http://www.w3.org/2000/svg" xmlns:xlink="http://www.w3.org/1999/xlink">
<g id="graph0" class="graph" transform="scale(1 1) rotate(0) translate(4 113)">
<title>hpp::constraints::CalculusBaseAbstract&lt; ValueType, JacobianType &gt;</title>
<polygon fill="white" stroke="none" points="-4,4 -4,-113 174,-113 174,4 -4,4"/>
<!-- Node1 -->
<g id="node1" class="node"><title>Node1</title>
<polygon fill="#bfbfbf" stroke="black" points="18,-67.5 18,-108.5 152,-108.5 152,-67.5 18,-67.5"/>
<text text-anchor="start" x="26" y="-96.5" font-family="Helvetica,sans-Serif" font-size="10.00">hpp::constraints::Calculus</text>
<text text-anchor="start" x="26" y="-85.5" font-family="Helvetica,sans-Serif" font-size="10.00">BaseAbstract&lt; ValueType,</text>
<text text-anchor="middle" x="85" y="-74.5" font-family="Helvetica,sans-Serif" font-size="10.00"> JacobianType &gt;</text>
</g>
<!-- Node2 -->
<g id="node2" class="node"><title>Node2</title>
<g id="a_node2"><a xlink:href="a00017.html" target="_top" xlink:title="Main abstract class. ">
<polygon fill="white" stroke="black" points="0,-0.5 0,-30.5 170,-30.5 170,-0.5 0,-0.5"/>
<text text-anchor="start" x="8" y="-18.5" font-family="Helvetica,sans-Serif" font-size="10.00">hpp::constraints::Calculus</text>
<text text-anchor="middle" x="85" y="-7.5" font-family="Helvetica,sans-Serif" font-size="10.00">Base&lt; ValueType, JacobianType &gt;</text>
</a>
</g>
</g>
<!-- Node1&#45;&gt;Node2 -->
<g id="edge1" class="edge"><title>Node1&#45;&gt;Node2</title>
<path fill="none" stroke="midnightblue" d="M85,-57.08C85,-48.0061 85,-38.4498 85,-30.8916"/>
<polygon fill="midnightblue" stroke="midnightblue" points="81.5001,-57.3618 85,-67.3618 88.5001,-57.3619 81.5001,-57.3618"/>
</g>
</g>
</svg>
