<?xml version="1.0" encoding="UTF-8" standalone="no"?>
<!DOCTYPE svg PUBLIC "-//W3C//DTD SVG 1.1//EN"
 "http://www.w3.org/Graphics/SVG/1.1/DTD/svg11.dtd">
<!-- Generated by graphviz version 2.38.0 (20140413.2041)
 -->
<!-- Title: hpp::constraints::CrossProduct&lt; LhsValue, RhsValue &gt; Pages: 1 -->
<svg width="169pt" height="195pt"
 viewBox="0.00 0.00 169.00 195.00" xmlns="http://www.w3.org/2000/svg" xmlns:xlink="http://www.w3.org/1999/xlink">
<g id="graph0" class="graph" transform="scale(1 1) rotate(0) translate(4 191)">
<title>hpp::constraints::CrossProduct&lt; LhsValue, RhsValue &gt;</title>
<polygon fill="white" stroke="none" points="-4,4 -4,-191 165,-191 165,4 -4,4"/>
<!-- Node1 -->
<g id="node1" class="node"><title>Node1</title>
<polygon fill="#bfbfbf" stroke="black" points="4.5,-0.5 4.5,-30.5 156.5,-30.5 156.5,-0.5 4.5,-0.5"/>
<text text-anchor="start" x="12.5" y="-18.5" font-family="Helvetica,sans-Serif" font-size="10.00">hpp::constraints::CrossProduct</text>
<text text-anchor="middle" x="80.5" y="-7.5" font-family="Helvetica,sans-Serif" font-size="10.00">&lt; LhsValue, RhsValue &gt;</text>
</g>
<!-- Node2 -->
<g id="node2" class="node"><title>Node2</title>
<g id="a_node2"><a xlink:href="a00017.html" target="_top" xlink:title="hpp::constraints::Calculus\lBase\&lt; CrossProduct\&lt; LhsValue,\l RhsValue \&gt; \&gt;">
<polygon fill="white" stroke="black" points="0,-67.5 0,-108.5 161,-108.5 161,-67.5 0,-67.5"/>
<text text-anchor="start" x="8" y="-96.5" font-family="Helvetica,sans-Serif" font-size="10.00">hpp::constraints::Calculus</text>
<text text-anchor="start" x="8" y="-85.5" font-family="Helvetica,sans-Serif" font-size="10.00">Base&lt; CrossProduct&lt; LhsValue,</text>
<text text-anchor="middle" x="80.5" y="-74.5" font-family="Helvetica,sans-Serif" font-size="10.00"> RhsValue &gt; &gt;</text>
</a>
</g>
</g>
<!-- Node2&#45;&gt;Node1 -->
<g id="edge1" class="edge"><title>Node2&#45;&gt;Node1</title>
<path fill="none" stroke="midnightblue" d="M80.5,-57.08C80.5,-48.0061 80.5,-38.4498 80.5,-30.8916"/>
<polygon fill="midnightblue" stroke="midnightblue" points="77.0001,-57.3618 80.5,-67.3618 84.0001,-57.3619 77.0001,-57.3618"/>
</g>
<!-- Node3 -->
<g id="node3" class="node"><title>Node3</title>
<g id="a_node3"><a xlink:href="a00018.html" target="_top" xlink:title="hpp::constraints::Calculus\lBaseAbstract\&lt; vector3_t,\l JacobianMatrix \&gt;">
<polygon fill="white" stroke="black" points="15,-145.5 15,-186.5 146,-186.5 146,-145.5 15,-145.5"/>
<text text-anchor="start" x="23" y="-174.5" font-family="Helvetica,sans-Serif" font-size="10.00">hpp::constraints::Calculus</text>
<text text-anchor="start" x="23" y="-163.5" font-family="Helvetica,sans-Serif" font-size="10.00">BaseAbstract&lt; vector3_t,</text>
<text text-anchor="middle" x="80.5" y="-152.5" font-family="Helvetica,sans-Serif" font-size="10.00"> JacobianMatrix &gt;</text>
</a>
</g>
</g>
<!-- Node3&#45;&gt;Node2 -->
<g id="edge2" class="edge"><title>Node3&#45;&gt;Node2</title>
<path fill="none" stroke="midnightblue" d="M80.5,-135.297C80.5,-126.301 80.5,-116.653 80.5,-108.506"/>
<polygon fill="midnightblue" stroke="midnightblue" points="77.0001,-135.428 80.5,-145.428 84.0001,-135.428 77.0001,-135.428"/>
</g>
</g>
</svg>
