<?xml version="1.0" encoding="UTF-8" standalone="no"?>
<!DOCTYPE svg PUBLIC "-//W3C//DTD SVG 1.1//EN"
 "http://www.w3.org/Graphics/SVG/1.1/DTD/svg11.dtd">
<!-- Generated by graphviz version 2.38.0 (20140413.2041)
 -->
<!-- Title: hpp::constraints::function::Difference Pages: 1 -->
<svg width="512pt" height="88pt"
 viewBox="0.00 0.00 512.00 88.00" xmlns="http://www.w3.org/2000/svg" xmlns:xlink="http://www.w3.org/1999/xlink">
<g id="graph0" class="graph" transform="scale(1 1) rotate(0) translate(4 84)">
<title>hpp::constraints::function::Difference</title>
<polygon fill="white" stroke="none" points="-4,4 -4,-84 508,-84 508,4 -4,4"/>
<!-- Node1 -->
<g id="node1" class="node"><title>Node1</title>
<polygon fill="#bfbfbf" stroke="black" points="377,-27.5 377,-57.5 504,-57.5 504,-27.5 377,-27.5"/>
<text text-anchor="start" x="385" y="-45.5" font-family="Helvetica,sans-Serif" font-size="10.00">hpp::constraints::function</text>
<text text-anchor="middle" x="440.5" y="-34.5" font-family="Helvetica,sans-Serif" font-size="10.00">::Difference</text>
</g>
<!-- Node2 -->
<g id="node2" class="node"><title>Node2</title>
<g id="a_node2"><a xlink:href="a00032.html" target="_top" xlink:title="Differentiable function. ">
<polygon fill="white" stroke="black" points="180,-49.5 180,-79.5 330,-79.5 330,-49.5 180,-49.5"/>
<text text-anchor="start" x="188" y="-67.5" font-family="Helvetica,sans-Serif" font-size="10.00">hpp::constraints::Differentiable</text>
<text text-anchor="middle" x="255" y="-56.5" font-family="Helvetica,sans-Serif" font-size="10.00">Function</text>
</a>
</g>
</g>
<!-- Node2&#45;&gt;Node1 -->
<g id="edge1" class="edge"><title>Node2&#45;&gt;Node1</title>
<path fill="none" stroke="midnightblue" d="M340.372,-54.3846C352.664,-52.9109 365.134,-51.4159 376.891,-50.0063"/>
<polygon fill="midnightblue" stroke="midnightblue" points="339.62,-50.9496 330.108,-55.6152 340.453,-57.8998 339.62,-50.9496"/>
</g>
<!-- Node3 -->
<g id="node3" class="node"><title>Node3</title>
<g id="a_node3"><a doxygen="/local/devel/hpp/install/share/doc/hpp-pinocchio/doxygen-html/hpp-pinocchio.doxytag:../../hpp-pinocchio/doxygen-html/" xlink:href="../../hpp-pinocchio/doxygen-html/a00076.html" target="_top" xlink:title="hpp::pinocchio::Liegroup\lElementBase\&lt; vector_type \&gt;">
<polygon fill="white" stroke="black" points="183,-0.5 183,-30.5 327,-30.5 327,-0.5 183,-0.5"/>
<text text-anchor="start" x="191" y="-18.5" font-family="Helvetica,sans-Serif" font-size="10.00">hpp::pinocchio::Liegroup</text>
<text text-anchor="middle" x="255" y="-7.5" font-family="Helvetica,sans-Serif" font-size="10.00">ElementBase&lt; vector_type &gt;</text>
</a>
</g>
</g>
<!-- Node3&#45;&gt;Node1 -->
<g id="edge2" class="edge"><title>Node3&#45;&gt;Node1</title>
<path fill="none" stroke="#9a32cd" stroke-dasharray="5,2" d="M337.141,-22.5215C344.545,-23.4204 351.919,-24.4121 359,-25.5 364.788,-26.3894 370.788,-27.4299 376.782,-28.5504"/>
<polygon fill="#9a32cd" stroke="#9a32cd" points="337.387,-19.0267 327.051,-21.3528 336.582,-25.9802 337.387,-19.0267"/>
<text text-anchor="middle" x="353.5" y="-39.5" font-family="Helvetica,sans-Serif" font-size="10.00"> l_</text>
<text text-anchor="middle" x="353.5" y="-28.5" font-family="Helvetica,sans-Serif" font-size="10.00">r_</text>
</g>
<!-- Node4 -->
<g id="node4" class="node"><title>Node4</title>
<g id="a_node4"><a doxygen="/local/devel/hpp/install/share/doc/hpp-pinocchio/doxygen-html/hpp-pinocchio.doxytag:../../hpp-pinocchio/doxygen-html/" xlink:href="../../hpp-pinocchio/doxygen-html/a00077.html" target="_top" xlink:title="hpp::pinocchio::Liegroup\lElementConstBase\&lt; class \&gt;">
<polygon fill="white" stroke="black" points="0,-0.5 0,-30.5 143,-30.5 143,-0.5 0,-0.5"/>
<text text-anchor="start" x="8" y="-18.5" font-family="Helvetica,sans-Serif" font-size="10.00">hpp::pinocchio::Liegroup</text>
<text text-anchor="middle" x="71.5" y="-7.5" font-family="Helvetica,sans-Serif" font-size="10.00">ElementConstBase&lt; class &gt;</text>
</a>
</g>
</g>
<!-- Node4&#45;&gt;Node3 -->
<g id="edge3" class="edge"><title>Node4&#45;&gt;Node3</title>
<path fill="none" stroke="midnightblue" d="M153.374,-15.5C163.217,-15.5 173.217,-15.5 182.903,-15.5"/>
<polygon fill="midnightblue" stroke="midnightblue" points="153.192,-12.0001 143.192,-15.5 153.192,-19.0001 153.192,-12.0001"/>
</g>
</g>
</svg>
