<?xml version="1.0" encoding="UTF-8" standalone="no"?>
<!DOCTYPE svg PUBLIC "-//W3C//DTD SVG 1.1//EN"
 "http://www.w3.org/Graphics/SVG/1.1/DTD/svg11.dtd">
<!-- Generated by graphviz version 2.38.0 (20140413.2041)
 -->
<!-- Title: hpp::constraints::explicit_::RelativePose Pages: 1 -->
<svg width="278pt" height="218pt"
 viewBox="0.00 0.00 277.50 218.00" xmlns="http://www.w3.org/2000/svg" xmlns:xlink="http://www.w3.org/1999/xlink">
<g id="graph0" class="graph" transform="scale(1 1) rotate(0) translate(4 214)">
<title>hpp::constraints::explicit_::RelativePose</title>
<polygon fill="white" stroke="none" points="-4,4 -4,-214 273.5,-214 273.5,4 -4,4"/>
<!-- Node1 -->
<g id="node1" class="node"><title>Node1</title>
<polygon fill="#bfbfbf" stroke="black" points="85.5,-0.5 85.5,-30.5 208.5,-30.5 208.5,-0.5 85.5,-0.5"/>
<text text-anchor="start" x="93.5" y="-18.5" font-family="Helvetica,sans-Serif" font-size="10.00">hpp::constraints::explicit</text>
<text text-anchor="middle" x="147" y="-7.5" font-family="Helvetica,sans-Serif" font-size="10.00">_::RelativePose</text>
</g>
<!-- Node2 -->
<g id="node2" class="node"><title>Node2</title>
<g id="a_node2"><a xlink:href="a00043.html" target="_top" xlink:title="Explicit numerical constraint. ">
<polygon fill="white" stroke="black" points="141.5,-74 141.5,-93 266.5,-93 266.5,-74 141.5,-74"/>
<text text-anchor="middle" x="204" y="-81" font-family="Helvetica,sans-Serif" font-size="10.00">hpp::constraints::Explicit</text>
</a>
</g>
</g>
<!-- Node2&#45;&gt;Node1 -->
<g id="edge1" class="edge"><title>Node2&#45;&gt;Node1</title>
<path fill="none" stroke="midnightblue" d="M190.008,-66.2987C180.587,-55.3898 168.281,-41.1413 159.248,-30.6815"/>
<polygon fill="midnightblue" stroke="midnightblue" points="187.363,-68.5911 196.548,-73.8717 192.661,-64.0157 187.363,-68.5911"/>
</g>
<!-- Node3 -->
<g id="node3" class="node"><title>Node3</title>
<g id="a_node3"><a xlink:href="a00054.html" target="_top" xlink:title="This class represents a parameterizable numerical constraint that compares the output of a function &#160;...">
<polygon fill="white" stroke="black" points="0,-190.5 0,-209.5 124,-209.5 124,-190.5 0,-190.5"/>
<text text-anchor="middle" x="62" y="-197.5" font-family="Helvetica,sans-Serif" font-size="10.00">hpp::constraints::Implicit</text>
</a>
</g>
</g>
<!-- Node3&#45;&gt;Node2 -->
<g id="edge2" class="edge"><title>Node3&#45;&gt;Node2</title>
<path fill="none" stroke="midnightblue" d="M80.7098,-183.914C110.833,-159.624 169.134,-112.614 193.203,-93.206"/>
<polygon fill="midnightblue" stroke="midnightblue" points="78.2607,-181.392 72.6731,-190.394 82.6546,-186.841 78.2607,-181.392"/>
</g>
<!-- Node5 -->
<g id="node5" class="node"><title>Node5</title>
<g id="a_node5"><a xlink:href="a00076.html" target="_top" xlink:title="Constraint of relative pose between two frames on a kinematic chain. ">
<polygon fill="white" stroke="black" points="0.5,-68.5 0.5,-98.5 123.5,-98.5 123.5,-68.5 0.5,-68.5"/>
<text text-anchor="start" x="8.5" y="-86.5" font-family="Helvetica,sans-Serif" font-size="10.00">hpp::constraints::implicit</text>
<text text-anchor="middle" x="62" y="-75.5" font-family="Helvetica,sans-Serif" font-size="10.00">::RelativePose</text>
</a>
</g>
</g>
<!-- Node3&#45;&gt;Node5 -->
<g id="edge5" class="edge"><title>Node3&#45;&gt;Node5</title>
<path fill="none" stroke="midnightblue" d="M62,-180.294C62,-157.479 62,-119.414 62,-98.8061"/>
<polygon fill="midnightblue" stroke="midnightblue" points="58.5001,-180.394 62,-190.394 65.5001,-180.394 58.5001,-180.394"/>
</g>
<!-- Node4 -->
<g id="node4" class="node"><title>Node4</title>
<polygon fill="white" stroke="#bfbfbf" points="142.5,-190.5 142.5,-209.5 269.5,-209.5 269.5,-190.5 142.5,-190.5"/>
<text text-anchor="middle" x="206" y="-197.5" font-family="Helvetica,sans-Serif" font-size="10.00">std::vector&lt; segment_t &gt;</text>
</g>
<!-- Node4&#45;&gt;Node2 -->
<g id="edge3" class="edge"><title>Node4&#45;&gt;Node2</title>
<path fill="none" stroke="#9a32cd" stroke-dasharray="5,2" d="M205.674,-180.327C205.236,-155.247 204.475,-111.698 204.152,-93.206"/>
<polygon fill="#9a32cd" stroke="#9a32cd" points="202.175,-180.457 205.85,-190.394 209.174,-180.334 202.175,-180.457"/>
<text text-anchor="middle" x="236.5" y="-164" font-family="Helvetica,sans-Serif" font-size="10.00"> inputConf_</text>
<text text-anchor="middle" x="236.5" y="-153" font-family="Helvetica,sans-Serif" font-size="10.00">outputConf_</text>
<text text-anchor="start" x="205" y="-142" font-family="Helvetica,sans-Serif" font-size="10.00">outputVelocity</text>
<text text-anchor="middle" x="236.5" y="-131" font-family="Helvetica,sans-Serif" font-size="10.00">_</text>
<text text-anchor="middle" x="236.5" y="-120" font-family="Helvetica,sans-Serif" font-size="10.00">inputVelocity_</text>
</g>
<!-- Node5&#45;&gt;Node1 -->
<g id="edge4" class="edge"><title>Node5&#45;&gt;Node1</title>
<path fill="none" stroke="midnightblue" d="M88.647,-61.8094C101.741,-51.6426 117.178,-39.6562 128.884,-30.5663"/>
<polygon fill="midnightblue" stroke="midnightblue" points="86.1957,-59.2815 80.4437,-68.179 90.4888,-64.8105 86.1957,-59.2815"/>
</g>
</g>
</svg>
