<?xml version="1.0" encoding="UTF-8" standalone="no"?>
<!DOCTYPE svg PUBLIC "-//W3C//DTD SVG 1.1//EN"
 "http://www.w3.org/Graphics/SVG/1.1/DTD/svg11.dtd">
<!-- Generated by graphviz version 2.38.0 (20140413.2041)
 -->
<!-- Title: hpp::constraints::LockedJoint Pages: 1 -->
<svg width="278pt" height="207pt"
 viewBox="0.00 0.00 277.50 207.00" xmlns="http://www.w3.org/2000/svg" xmlns:xlink="http://www.w3.org/1999/xlink">
<g id="graph0" class="graph" transform="scale(1 1) rotate(0) translate(4 203)">
<title>hpp::constraints::LockedJoint</title>
<polygon fill="white" stroke="none" points="-4,4 -4,-203 273.5,-203 273.5,4 -4,4"/>
<!-- Node1 -->
<g id="node1" class="node"><title>Node1</title>
<polygon fill="#bfbfbf" stroke="black" points="72,-0.5 72,-30.5 196,-30.5 196,-0.5 72,-0.5"/>
<text text-anchor="start" x="80" y="-18.5" font-family="Helvetica,sans-Serif" font-size="10.00">hpp::constraints::Locked</text>
<text text-anchor="middle" x="134" y="-7.5" font-family="Helvetica,sans-Serif" font-size="10.00">Joint</text>
</g>
<!-- Node2 -->
<g id="node2" class="node"><title>Node2</title>
<g id="a_node2"><a xlink:href="a00043.html" target="_top" xlink:title="Explicit numerical constraint. ">
<polygon fill="white" stroke="black" points="71.5,-68.5 71.5,-87.5 196.5,-87.5 196.5,-68.5 71.5,-68.5"/>
<text text-anchor="middle" x="134" y="-75.5" font-family="Helvetica,sans-Serif" font-size="10.00">hpp::constraints::Explicit</text>
</a>
</g>
</g>
<!-- Node2&#45;&gt;Node1 -->
<g id="edge1" class="edge"><title>Node2&#45;&gt;Node1</title>
<path fill="none" stroke="midnightblue" d="M134,-58.2154C134,-49.3565 134,-38.9577 134,-30.7587"/>
<polygon fill="midnightblue" stroke="midnightblue" points="130.5,-58.3318 134,-68.3318 137.5,-58.3319 130.5,-58.3318"/>
</g>
<!-- Node3 -->
<g id="node3" class="node"><title>Node3</title>
<g id="a_node3"><a xlink:href="a00054.html" target="_top" xlink:title="This class represents a parameterizable numerical constraint that compares the output of a function &#160;...">
<polygon fill="white" stroke="black" points="0,-179.5 0,-198.5 124,-198.5 124,-179.5 0,-179.5"/>
<text text-anchor="middle" x="62" y="-186.5" font-family="Helvetica,sans-Serif" font-size="10.00">hpp::constraints::Implicit</text>
</a>
</g>
</g>
<!-- Node3&#45;&gt;Node2 -->
<g id="edge2" class="edge"><title>Node3&#45;&gt;Node2</title>
<path fill="none" stroke="midnightblue" d="M73.3632,-170.797C89.0042,-147.119 116.57,-105.387 128.377,-87.5133"/>
<polygon fill="midnightblue" stroke="midnightblue" points="70.241,-169.174 67.6497,-179.447 76.0818,-173.032 70.241,-169.174"/>
</g>
<!-- Node4 -->
<g id="node4" class="node"><title>Node4</title>
<polygon fill="white" stroke="#bfbfbf" points="142.5,-179.5 142.5,-198.5 269.5,-198.5 269.5,-179.5 142.5,-179.5"/>
<text text-anchor="middle" x="206" y="-186.5" font-family="Helvetica,sans-Serif" font-size="10.00">std::vector&lt; segment_t &gt;</text>
</g>
<!-- Node4&#45;&gt;Node2 -->
<g id="edge3" class="edge"><title>Node4&#45;&gt;Node2</title>
<path fill="none" stroke="#9a32cd" stroke-dasharray="5,2" d="M194.637,-170.797C178.996,-147.119 151.43,-105.387 139.623,-87.5133"/>
<polygon fill="#9a32cd" stroke="#9a32cd" points="191.918,-173.032 200.35,-179.447 197.759,-169.174 191.918,-173.032"/>
<text text-anchor="middle" x="218.5" y="-153" font-family="Helvetica,sans-Serif" font-size="10.00"> inputConf_</text>
<text text-anchor="middle" x="218.5" y="-142" font-family="Helvetica,sans-Serif" font-size="10.00">outputConf_</text>
<text text-anchor="start" x="187" y="-131" font-family="Helvetica,sans-Serif" font-size="10.00">outputVelocity</text>
<text text-anchor="middle" x="218.5" y="-120" font-family="Helvetica,sans-Serif" font-size="10.00">_</text>
<text text-anchor="middle" x="218.5" y="-109" font-family="Helvetica,sans-Serif" font-size="10.00">inputVelocity_</text>
</g>
</g>
</svg>
