<?xml version="1.0" encoding="UTF-8" standalone="no"?>
<!DOCTYPE svg PUBLIC "-//W3C//DTD SVG 1.1//EN"
 "http://www.w3.org/Graphics/SVG/1.1/DTD/svg11.dtd">
<!-- Generated by graphviz version 2.38.0 (20140413.2041)
 -->
<!-- Title: hpp::constraints::ScalarMultiply&lt; RhsValue &gt; Pages: 1 -->
<svg width="187pt" height="184pt"
 viewBox="0.00 0.00 187.00 184.00" xmlns="http://www.w3.org/2000/svg" xmlns:xlink="http://www.w3.org/1999/xlink">
<g id="graph0" class="graph" transform="scale(1 1) rotate(0) translate(4 180)">
<title>hpp::constraints::ScalarMultiply&lt; RhsValue &gt;</title>
<polygon fill="white" stroke="none" points="-4,4 -4,-180 183,-180 183,4 -4,4"/>
<!-- Node1 -->
<g id="node1" class="node"><title>Node1</title>
<polygon fill="#bfbfbf" stroke="black" points="29.5,-0.5 29.5,-30.5 149.5,-30.5 149.5,-0.5 29.5,-0.5"/>
<text text-anchor="start" x="37.5" y="-18.5" font-family="Helvetica,sans-Serif" font-size="10.00">hpp::constraints::Scalar</text>
<text text-anchor="middle" x="89.5" y="-7.5" font-family="Helvetica,sans-Serif" font-size="10.00">Multiply&lt; RhsValue &gt;</text>
</g>
<!-- Node2 -->
<g id="node2" class="node"><title>Node2</title>
<g id="a_node2"><a xlink:href="a00017.html" target="_top" xlink:title="hpp::constraints::Calculus\lBase\&lt; ScalarMultiply\&lt; RhsValue \&gt; \&gt;">
<polygon fill="white" stroke="black" points="0,-67.5 0,-97.5 179,-97.5 179,-67.5 0,-67.5"/>
<text text-anchor="start" x="8" y="-85.5" font-family="Helvetica,sans-Serif" font-size="10.00">hpp::constraints::Calculus</text>
<text text-anchor="middle" x="89.5" y="-74.5" font-family="Helvetica,sans-Serif" font-size="10.00">Base&lt; ScalarMultiply&lt; RhsValue &gt; &gt;</text>
</a>
</g>
</g>
<!-- Node2&#45;&gt;Node1 -->
<g id="edge1" class="edge"><title>Node2&#45;&gt;Node1</title>
<path fill="none" stroke="midnightblue" d="M89.5,-57.1081C89.5,-48.1539 89.5,-38.3227 89.5,-30.5765"/>
<polygon fill="midnightblue" stroke="midnightblue" points="86.0001,-57.3959 89.5,-67.396 93.0001,-57.396 86.0001,-57.3959"/>
</g>
<!-- Node3 -->
<g id="node3" class="node"><title>Node3</title>
<g id="a_node3"><a xlink:href="a00018.html" target="_top" xlink:title="hpp::constraints::Calculus\lBaseAbstract\&lt; vector3_t,\l JacobianMatrix \&gt;">
<polygon fill="white" stroke="black" points="24,-134.5 24,-175.5 155,-175.5 155,-134.5 24,-134.5"/>
<text text-anchor="start" x="32" y="-163.5" font-family="Helvetica,sans-Serif" font-size="10.00">hpp::constraints::Calculus</text>
<text text-anchor="start" x="32" y="-152.5" font-family="Helvetica,sans-Serif" font-size="10.00">BaseAbstract&lt; vector3_t,</text>
<text text-anchor="middle" x="89.5" y="-141.5" font-family="Helvetica,sans-Serif" font-size="10.00"> JacobianMatrix &gt;</text>
</a>
</g>
</g>
<!-- Node3&#45;&gt;Node2 -->
<g id="edge2" class="edge"><title>Node3&#45;&gt;Node2</title>
<path fill="none" stroke="midnightblue" d="M89.5,-124.08C89.5,-115.006 89.5,-105.45 89.5,-97.8916"/>
<polygon fill="midnightblue" stroke="midnightblue" points="86.0001,-124.362 89.5,-134.362 93.0001,-124.362 86.0001,-124.362"/>
</g>
</g>
</svg>
