<?xml version="1.0" encoding="UTF-8" standalone="no"?>
<!DOCTYPE svg PUBLIC "-//W3C//DTD SVG 1.1//EN"
 "http://www.w3.org/Graphics/SVG/1.1/DTD/svg11.dtd">
<!-- Generated by graphviz version 2.38.0 (20140413.2041)
 -->
<!-- Title: hpp::constraints::LockedJoint Pages: 1 -->
<svg width="133pt" height="151pt"
 viewBox="0.00 0.00 133.00 151.00" xmlns="http://www.w3.org/2000/svg" xmlns:xlink="http://www.w3.org/1999/xlink">
<g id="graph0" class="graph" transform="scale(1 1) rotate(0) translate(4 147)">
<title>hpp::constraints::LockedJoint</title>
<polygon fill="white" stroke="none" points="-4,4 -4,-147 129,-147 129,4 -4,4"/>
<!-- Node1 -->
<g id="node1" class="node"><title>Node1</title>
<polygon fill="#bfbfbf" stroke="black" points="0.5,-0.5 0.5,-30.5 124.5,-30.5 124.5,-0.5 0.5,-0.5"/>
<text text-anchor="start" x="8.5" y="-18.5" font-family="Helvetica,sans-Serif" font-size="10.00">hpp::constraints::Locked</text>
<text text-anchor="middle" x="62.5" y="-7.5" font-family="Helvetica,sans-Serif" font-size="10.00">Joint</text>
</g>
<!-- Node2 -->
<g id="node2" class="node"><title>Node2</title>
<g id="a_node2"><a xlink:href="a00043.html" target="_top" xlink:title="Explicit numerical constraint. ">
<polygon fill="white" stroke="black" points="-7.10543e-15,-67.5 -7.10543e-15,-86.5 125,-86.5 125,-67.5 -7.10543e-15,-67.5"/>
<text text-anchor="middle" x="62.5" y="-74.5" font-family="Helvetica,sans-Serif" font-size="10.00">hpp::constraints::Explicit</text>
</a>
</g>
</g>
<!-- Node2&#45;&gt;Node1 -->
<g id="edge1" class="edge"><title>Node2&#45;&gt;Node1</title>
<path fill="none" stroke="midnightblue" d="M62.5,-57.2349C62.5,-48.5864 62.5,-38.4969 62.5,-30.523"/>
<polygon fill="midnightblue" stroke="midnightblue" points="59.0001,-57.4751 62.5,-67.4751 66.0001,-57.4751 59.0001,-57.4751"/>
</g>
<!-- Node3 -->
<g id="node3" class="node"><title>Node3</title>
<g id="a_node3"><a xlink:href="a00054.html" target="_top" xlink:title="This class represents a parameterizable numerical constraint that compares the output of a function &#160;...">
<polygon fill="white" stroke="black" points="0.5,-123.5 0.5,-142.5 124.5,-142.5 124.5,-123.5 0.5,-123.5"/>
<text text-anchor="middle" x="62.5" y="-130.5" font-family="Helvetica,sans-Serif" font-size="10.00">hpp::constraints::Implicit</text>
</a>
</g>
</g>
<!-- Node3&#45;&gt;Node2 -->
<g id="edge2" class="edge"><title>Node3&#45;&gt;Node2</title>
<path fill="none" stroke="midnightblue" d="M62.5,-112.805C62.5,-103.91 62.5,-93.7798 62.5,-86.7511"/>
<polygon fill="midnightblue" stroke="midnightblue" points="59.0001,-113.083 62.5,-123.083 66.0001,-113.083 59.0001,-113.083"/>
</g>
</g>
</svg>
