<?xml version="1.0" encoding="UTF-8" standalone="no"?>
<!DOCTYPE svg PUBLIC "-//W3C//DTD SVG 1.1//EN"
 "http://www.w3.org/Graphics/SVG/1.1/DTD/svg11.dtd">
<!-- Generated by graphviz version 2.38.0 (20140413.2041)
 -->
<!-- Title: hpp::constraints::solver::BySubstitution Pages: 1 -->
<svg width="1204pt" height="359pt"
 viewBox="0.00 0.00 1204.00 358.50" xmlns="http://www.w3.org/2000/svg" xmlns:xlink="http://www.w3.org/1999/xlink">
<g id="graph0" class="graph" transform="scale(1 1) rotate(0) translate(4 354.5)">
<title>hpp::constraints::solver::BySubstitution</title>
<polygon fill="white" stroke="none" points="-4,4 -4,-354.5 1200,-354.5 1200,4 -4,4"/>
<!-- Node1 -->
<g id="node1" class="node"><title>Node1</title>
<polygon fill="#bfbfbf" stroke="black" points="1077,-200 1077,-230 1196,-230 1196,-200 1077,-200"/>
<text text-anchor="start" x="1085" y="-218" font-family="Helvetica,sans-Serif" font-size="10.00">hpp::constraints::solver</text>
<text text-anchor="middle" x="1136.5" y="-207" font-family="Helvetica,sans-Serif" font-size="10.00">::BySubstitution</text>
</g>
<!-- Node2 -->
<g id="node2" class="node"><title>Node2</title>
<g id="a_node2"><a xlink:href="a00052.html" target="_top" xlink:title="Solve a system of non&#45;linear equations on a robot configuration. ">
<polygon fill="white" stroke="black" points="921,-200 921,-230 1040,-230 1040,-200 921,-200"/>
<text text-anchor="start" x="929" y="-218" font-family="Helvetica,sans-Serif" font-size="10.00">hpp::constraints::solver</text>
<text text-anchor="middle" x="980.5" y="-207" font-family="Helvetica,sans-Serif" font-size="10.00">::HierarchicalIterative</text>
</a>
</g>
</g>
<!-- Node2&#45;&gt;Node1 -->
<g id="edge1" class="edge"><title>Node2&#45;&gt;Node1</title>
<path fill="none" stroke="midnightblue" d="M1050.39,-215C1059.19,-215 1068.13,-215 1076.75,-215"/>
<polygon fill="midnightblue" stroke="midnightblue" points="1050.16,-211.5 1040.16,-215 1050.16,-218.5 1050.16,-211.5"/>
</g>
<!-- Node3 -->
<g id="node3" class="node"><title>Node3</title>
<polygon fill="white" stroke="#bfbfbf" points="691,-320 691,-350 823,-350 823,-320 691,-320"/>
<text text-anchor="start" x="699" y="-338" font-family="Helvetica,sans-Serif" font-size="10.00">std::map&lt; Differentiable</text>
<text text-anchor="middle" x="757" y="-327" font-family="Helvetica,sans-Serif" font-size="10.00">FunctionPtr_t, size_type &gt;</text>
</g>
<!-- Node3&#45;&gt;Node2 -->
<g id="edge2" class="edge"><title>Node3&#45;&gt;Node2</title>
<path fill="none" stroke="#9a32cd" stroke-dasharray="5,2" d="M811.359,-316.461C817.002,-314.346 822.635,-312.17 828,-310 861.929,-296.278 871.787,-295.11 903,-276 925.165,-262.429 948.161,-243.291 963.078,-230.088"/>
<polygon fill="#9a32cd" stroke="#9a32cd" points="810.071,-313.206 801.899,-319.949 812.492,-319.774 810.071,-313.206"/>
<text text-anchor="middle" x="874.5" y="-317" font-family="Helvetica,sans-Serif" font-size="10.00"> iq_</text>
<text text-anchor="middle" x="874.5" y="-306" font-family="Helvetica,sans-Serif" font-size="10.00">iv_</text>
</g>
<!-- Node4 -->
<g id="node4" class="node"><title>Node4</title>
<g id="a_node4"><a xlink:href="a00061.html" target="_top" xlink:title="Eigen::MatrixBlocks\l\&lt; false, true \&gt;">
<polygon fill="white" stroke="black" points="205.5,-175 205.5,-205 309.5,-205 309.5,-175 205.5,-175"/>
<text text-anchor="start" x="213.5" y="-193" font-family="Helvetica,sans-Serif" font-size="10.00">Eigen::MatrixBlocks</text>
<text text-anchor="middle" x="257.5" y="-182" font-family="Helvetica,sans-Serif" font-size="10.00">&lt; false, true &gt;</text>
</a>
</g>
</g>
<!-- Node4&#45;&gt;Node2 -->
<g id="edge3" class="edge"><title>Node4&#45;&gt;Node2</title>
<path fill="none" stroke="#9a32cd" stroke-dasharray="5,2" d="M320.098,-192.136C457.269,-196.892 786.363,-208.303 920.792,-212.964"/>
<polygon fill="#9a32cd" stroke="#9a32cd" points="319.89,-188.627 309.775,-191.778 319.647,-195.622 319.89,-188.627"/>
<text text-anchor="middle" x="635" y="-207" font-family="Helvetica,sans-Serif" font-size="10.00"> freeVariables_</text>
</g>
<!-- Node12 -->
<g id="node12" class="node"><title>Node12</title>
<g id="a_node12"><a xlink:href="a00029.html" target="_top" xlink:title="hpp::constraints::solver\l::HierarchicalIterative::Data">
<polygon fill="white" stroke="black" points="447,-74 447,-104 584,-104 584,-74 447,-74"/>
<text text-anchor="start" x="455" y="-92" font-family="Helvetica,sans-Serif" font-size="10.00">hpp::constraints::solver</text>
<text text-anchor="middle" x="515.5" y="-81" font-family="Helvetica,sans-Serif" font-size="10.00">::HierarchicalIterative::Data</text>
</a>
</g>
</g>
<!-- Node4&#45;&gt;Node12 -->
<g id="edge13" class="edge"><title>Node4&#45;&gt;Node12</title>
<path fill="none" stroke="#9a32cd" stroke-dasharray="5,2" d="M319.721,-176.613C352.823,-168.338 393.978,-156.352 429,-141 452.072,-130.886 476.438,-115.547 493.229,-104.146"/>
<polygon fill="#9a32cd" stroke="#9a32cd" points="318.603,-173.283 309.723,-179.061 320.268,-180.082 318.603,-173.283"/>
<text text-anchor="middle" x="391" y="-170" font-family="Helvetica,sans-Serif" font-size="10.00"> equalityIndices</text>
</g>
<!-- Node5 -->
<g id="node5" class="node"><title>Node5</title>
<g id="a_node5"><a xlink:href="a00062.html" target="_top" xlink:title="Eigen::MatrixBlocksBase\l\&lt; MatrixBlocks\&lt; _allRows,\l _allCols \&gt; \&gt;">
<polygon fill="white" stroke="black" points="4,-142.5 4,-183.5 139,-183.5 139,-142.5 4,-142.5"/>
<text text-anchor="start" x="12" y="-171.5" font-family="Helvetica,sans-Serif" font-size="10.00">Eigen::MatrixBlocksBase</text>
<text text-anchor="start" x="12" y="-160.5" font-family="Helvetica,sans-Serif" font-size="10.00">&lt; MatrixBlocks&lt; _allRows,</text>
<text text-anchor="middle" x="71.5" y="-149.5" font-family="Helvetica,sans-Serif" font-size="10.00"> _allCols &gt; &gt;</text>
</a>
</g>
</g>
<!-- Node5&#45;&gt;Node4 -->
<g id="edge4" class="edge"><title>Node5&#45;&gt;Node4</title>
<path fill="none" stroke="midnightblue" d="M149.277,-174.266C168.183,-177.04 187.972,-179.944 205.328,-182.491"/>
<polygon fill="midnightblue" stroke="midnightblue" points="149.591,-170.775 139.188,-172.786 148.574,-177.701 149.591,-170.775"/>
</g>
<!-- Node16 -->
<g id="node16" class="node"><title>Node16</title>
<g id="a_node16"><a xlink:href="a00061.html" target="_top" xlink:title="Eigen::MatrixBlocks\l\&lt; false, false \&gt;">
<polygon fill="white" stroke="black" points="205.5,-126 205.5,-156 309.5,-156 309.5,-126 205.5,-126"/>
<text text-anchor="start" x="213.5" y="-144" font-family="Helvetica,sans-Serif" font-size="10.00">Eigen::MatrixBlocks</text>
<text text-anchor="middle" x="257.5" y="-133" font-family="Helvetica,sans-Serif" font-size="10.00">&lt; false, false &gt;</text>
</a>
</g>
</g>
<!-- Node5&#45;&gt;Node16 -->
<g id="edge17" class="edge"><title>Node5&#45;&gt;Node16</title>
<path fill="none" stroke="midnightblue" d="M149.277,-153.82C168.183,-151.56 187.972,-149.194 205.328,-147.118"/>
<polygon fill="midnightblue" stroke="midnightblue" points="148.702,-150.364 139.188,-155.026 149.533,-157.314 148.702,-150.364"/>
</g>
<!-- Node6 -->
<g id="node6" class="node"><title>Node6</title>
<polygon fill="white" stroke="#bfbfbf" points="689,-222 689,-252 825,-252 825,-222 689,-222"/>
<text text-anchor="start" x="697" y="-240" font-family="Helvetica,sans-Serif" font-size="10.00">std::map&lt; Differentiable</text>
<text text-anchor="middle" x="757" y="-229" font-family="Helvetica,sans-Serif" font-size="10.00">FunctionPtr_t, std::size_t &gt;</text>
</g>
<!-- Node6&#45;&gt;Node2 -->
<g id="edge5" class="edge"><title>Node6&#45;&gt;Node2</title>
<path fill="none" stroke="#9a32cd" stroke-dasharray="5,2" d="M835.26,-229.326C863.382,-226.533 894.685,-223.424 920.923,-220.818"/>
<polygon fill="#9a32cd" stroke="#9a32cd" points="834.663,-225.868 825.058,-230.34 835.355,-232.834 834.663,-225.868"/>
<text text-anchor="middle" x="874.5" y="-231" font-family="Helvetica,sans-Serif" font-size="10.00"> priority_</text>
</g>
<!-- Node7 -->
<g id="node7" class="node"><title>Node7</title>
<polygon fill="white" stroke="#bfbfbf" points="686,-271 686,-301 828,-301 828,-271 686,-271"/>
<text text-anchor="start" x="694" y="-289" font-family="Helvetica,sans-Serif" font-size="10.00">std::vector&lt; hpp::constraints</text>
<text text-anchor="middle" x="757" y="-278" font-family="Helvetica,sans-Serif" font-size="10.00">::ImplicitConstraintSet &gt;</text>
</g>
<!-- Node7&#45;&gt;Node2 -->
<g id="edge6" class="edge"><title>Node7&#45;&gt;Node2</title>
<path fill="none" stroke="#9a32cd" stroke-dasharray="5,2" d="M821.52,-268.097C846.965,-260.683 876.482,-251.775 903,-243 915.084,-239.001 928.127,-234.353 939.96,-230.007"/>
<polygon fill="#9a32cd" stroke="#9a32cd" points="820.249,-264.821 811.619,-270.967 822.198,-271.545 820.249,-264.821"/>
<text text-anchor="middle" x="874.5" y="-264" font-family="Helvetica,sans-Serif" font-size="10.00"> stacks_</text>
</g>
<!-- Node8 -->
<g id="node8" class="node"><title>Node8</title>
<g id="a_node8"><a xlink:href="a00055.html" target="_top" xlink:title="Set of implicit constraints. ">
<polygon fill="white" stroke="black" points="453.5,-271 453.5,-301 577.5,-301 577.5,-271 453.5,-271"/>
<text text-anchor="start" x="461.5" y="-289" font-family="Helvetica,sans-Serif" font-size="10.00">hpp::constraints::Implicit</text>
<text text-anchor="middle" x="515.5" y="-278" font-family="Helvetica,sans-Serif" font-size="10.00">ConstraintSet</text>
</a>
</g>
</g>
<!-- Node8&#45;&gt;Node7 -->
<g id="edge7" class="edge"><title>Node8&#45;&gt;Node7</title>
<path fill="none" stroke="#9a32cd" stroke-dasharray="5,2" d="M587.835,-286C618.775,-286 654.902,-286 685.723,-286"/>
<polygon fill="#9a32cd" stroke="#9a32cd" points="587.556,-282.5 577.556,-286 587.556,-289.5 587.556,-282.5"/>
<text text-anchor="middle" x="635" y="-289" font-family="Helvetica,sans-Serif" font-size="10.00"> elements</text>
</g>
<!-- Node9 -->
<g id="node9" class="node"><title>Node9</title>
<g id="a_node9"><a xlink:href="a00054.html" target="_top" xlink:title="This class represents a parameterizable numerical constraint that compares the output of a function &#160;...">
<polygon fill="white" stroke="black" points="195.5,-276.5 195.5,-295.5 319.5,-295.5 319.5,-276.5 195.5,-276.5"/>
<text text-anchor="middle" x="257.5" y="-283.5" font-family="Helvetica,sans-Serif" font-size="10.00">hpp::constraints::Implicit</text>
</a>
</g>
</g>
<!-- Node9&#45;&gt;Node8 -->
<g id="edge8" class="edge"><title>Node9&#45;&gt;Node8</title>
<path fill="none" stroke="midnightblue" d="M329.991,-286C368.759,-286 416.18,-286 453.239,-286"/>
<polygon fill="midnightblue" stroke="midnightblue" points="329.818,-282.5 319.818,-286 329.818,-289.5 329.818,-282.5"/>
</g>
<!-- Node10 -->
<g id="node10" class="node"><title>Node10</title>
<polygon fill="white" stroke="#bfbfbf" points="697,-134 697,-164 817,-164 817,-134 697,-134"/>
<text text-anchor="start" x="705" y="-152" font-family="Helvetica,sans-Serif" font-size="10.00">std::vector&lt; constraints</text>
<text text-anchor="middle" x="757" y="-141" font-family="Helvetica,sans-Serif" font-size="10.00">::ImplicitPtr_t &gt;</text>
</g>
<!-- Node10&#45;&gt;Node2 -->
<g id="edge9" class="edge"><title>Node10&#45;&gt;Node2</title>
<path fill="none" stroke="#9a32cd" stroke-dasharray="5,2" d="M827.434,-152.139C851.847,-154.788 879.13,-159.54 903,-168 924.01,-175.446 945.418,-189.239 960.223,-199.964"/>
<polygon fill="#9a32cd" stroke="#9a32cd" points="827.461,-148.625 817.166,-151.128 826.775,-155.591 827.461,-148.625"/>
<text text-anchor="middle" x="874.5" y="-171" font-family="Helvetica,sans-Serif" font-size="10.00"> constraints_</text>
</g>
<!-- Node11 -->
<g id="node11" class="node"><title>Node11</title>
<polygon fill="white" stroke="#bfbfbf" points="686,-73.5 686,-114.5 828,-114.5 828,-73.5 686,-73.5"/>
<text text-anchor="start" x="694" y="-102.5" font-family="Helvetica,sans-Serif" font-size="10.00">std::vector&lt; hpp::constraints</text>
<text text-anchor="start" x="694" y="-91.5" font-family="Helvetica,sans-Serif" font-size="10.00">::solver::HierarchicalIterative</text>
<text text-anchor="middle" x="757" y="-80.5" font-family="Helvetica,sans-Serif" font-size="10.00">::Data &gt;</text>
</g>
<!-- Node11&#45;&gt;Node2 -->
<g id="edge10" class="edge"><title>Node11&#45;&gt;Node2</title>
<path fill="none" stroke="#9a32cd" stroke-dasharray="5,2" d="M837.987,-112.065C859.966,-118.941 883.185,-128.086 903,-140 929.62,-156.005 954.064,-183.045 967.843,-199.912"/>
<polygon fill="#9a32cd" stroke="#9a32cd" points="838.911,-108.688 828.327,-109.159 836.895,-115.391 838.911,-108.688"/>
<text text-anchor="middle" x="874.5" y="-143" font-family="Helvetica,sans-Serif" font-size="10.00"> datas_</text>
</g>
<!-- Node12&#45;&gt;Node11 -->
<g id="edge11" class="edge"><title>Node12&#45;&gt;Node11</title>
<path fill="none" stroke="#9a32cd" stroke-dasharray="5,2" d="M594.427,-90.6269C623.917,-91.2425 657.278,-91.939 685.996,-92.5385"/>
<polygon fill="#9a32cd" stroke="#9a32cd" points="594.242,-87.1223 584.171,-90.4128 594.095,-94.1208 594.242,-87.1223"/>
<text text-anchor="middle" x="635" y="-96" font-family="Helvetica,sans-Serif" font-size="10.00"> elements</text>
</g>
<!-- Node13 -->
<g id="node13" class="node"><title>Node13</title>
<polygon fill="white" stroke="#bfbfbf" points="194,-38.5 194,-57.5 321,-57.5 321,-38.5 194,-38.5"/>
<text text-anchor="middle" x="257.5" y="-45.5" font-family="Helvetica,sans-Serif" font-size="10.00">std::vector&lt; std::size_t &gt;</text>
</g>
<!-- Node13&#45;&gt;Node12 -->
<g id="edge12" class="edge"><title>Node13&#45;&gt;Node12</title>
<path fill="none" stroke="#9a32cd" stroke-dasharray="5,2" d="M331.351,-58.7431C361.585,-63.2968 397.01,-68.7555 429,-74 434.8,-74.9509 440.817,-75.9602 446.851,-76.988"/>
<polygon fill="#9a32cd" stroke="#9a32cd" points="331.718,-55.2591 321.309,-57.2351 330.678,-62.1815 331.718,-55.2591"/>
<text text-anchor="middle" x="391" y="-77" font-family="Helvetica,sans-Serif" font-size="10.00"> inequalityIndices</text>
</g>
<!-- Node14 -->
<g id="node14" class="node"><title>Node14</title>
<g id="a_node14"><a doxygen="/local/devel/hpp/install/share/doc/hpp-pinocchio/doxygen-html/hpp-pinocchio.doxytag:../../hpp-pinocchio/doxygen-html/" xlink:href="../../hpp-pinocchio/doxygen-html/a00076.html" target="_top" xlink:title="hpp::pinocchio::Liegroup\lElementBase\&lt; vector_type \&gt;">
<polygon fill="white" stroke="black" points="185.5,-77 185.5,-107 329.5,-107 329.5,-77 185.5,-77"/>
<text text-anchor="start" x="193.5" y="-95" font-family="Helvetica,sans-Serif" font-size="10.00">hpp::pinocchio::Liegroup</text>
<text text-anchor="middle" x="257.5" y="-84" font-family="Helvetica,sans-Serif" font-size="10.00">ElementBase&lt; vector_type &gt;</text>
</a>
</g>
</g>
<!-- Node14&#45;&gt;Node12 -->
<g id="edge14" class="edge"><title>Node14&#45;&gt;Node12</title>
<path fill="none" stroke="#9a32cd" stroke-dasharray="5,2" d="M340.004,-89.2491C344.4,-89.1518 348.753,-89.0674 353,-89 383.838,-88.5106 417.993,-88.4418 446.92,-88.5225"/>
<polygon fill="#9a32cd" stroke="#9a32cd" points="339.615,-85.7574 329.702,-89.4976 339.784,-92.7554 339.615,-85.7574"/>
<text text-anchor="middle" x="391" y="-103" font-family="Helvetica,sans-Serif" font-size="10.00"> output</text>
<text text-anchor="middle" x="391" y="-92" font-family="Helvetica,sans-Serif" font-size="10.00">rightHandSide</text>
</g>
<!-- Node15 -->
<g id="node15" class="node"><title>Node15</title>
<g id="a_node15"><a doxygen="/local/devel/hpp/install/share/doc/hpp-pinocchio/doxygen-html/hpp-pinocchio.doxytag:../../hpp-pinocchio/doxygen-html/" xlink:href="../../hpp-pinocchio/doxygen-html/a00077.html" target="_top" xlink:title="hpp::pinocchio::Liegroup\lElementConstBase\&lt; class \&gt;">
<polygon fill="white" stroke="black" points="0,-77 0,-107 143,-107 143,-77 0,-77"/>
<text text-anchor="start" x="8" y="-95" font-family="Helvetica,sans-Serif" font-size="10.00">hpp::pinocchio::Liegroup</text>
<text text-anchor="middle" x="71.5" y="-84" font-family="Helvetica,sans-Serif" font-size="10.00">ElementConstBase&lt; class &gt;</text>
</a>
</g>
</g>
<!-- Node15&#45;&gt;Node14 -->
<g id="edge15" class="edge"><title>Node15&#45;&gt;Node14</title>
<path fill="none" stroke="midnightblue" d="M153.303,-92C164.016,-92 174.936,-92 185.468,-92"/>
<polygon fill="midnightblue" stroke="midnightblue" points="153.113,-88.5001 143.113,-92 153.113,-95.5001 153.113,-88.5001"/>
</g>
<!-- Node16&#45;&gt;Node12 -->
<g id="edge16" class="edge"><title>Node16&#45;&gt;Node12</title>
<path fill="none" stroke="#9a32cd" stroke-dasharray="5,2" d="M320.068,-131.353C352.581,-125.96 393.083,-118.769 429,-111 438.588,-108.926 448.725,-106.514 458.539,-104.063"/>
<polygon fill="#9a32cd" stroke="#9a32cd" points="319.108,-127.964 309.808,-133.039 320.244,-134.871 319.108,-127.964"/>
<text text-anchor="middle" x="391" y="-129" font-family="Helvetica,sans-Serif" font-size="10.00"> activeRowsOfJ</text>
</g>
<!-- Node17 -->
<g id="node17" class="node"><title>Node17</title>
<polygon fill="white" stroke="#bfbfbf" points="180,-0.5 180,-19.5 335,-19.5 335,-0.5 180,-0.5"/>
<text text-anchor="middle" x="257.5" y="-7.5" font-family="Helvetica,sans-Serif" font-size="10.00">std::vector&lt; ComparisonType &gt;</text>
</g>
<!-- Node17&#45;&gt;Node12 -->
<g id="edge18" class="edge"><title>Node17&#45;&gt;Node12</title>
<path fill="none" stroke="#9a32cd" stroke-dasharray="5,2" d="M326.658,-21.495C358.257,-27.7583 396.028,-36.5878 429,-48 449.068,-54.946 470.622,-65.3025 487.068,-73.8686"/>
<polygon fill="#9a32cd" stroke="#9a32cd" points="327.113,-18.0181 316.63,-19.5516 325.781,-24.8903 327.113,-18.0181"/>
<text text-anchor="middle" x="391" y="-51" font-family="Helvetica,sans-Serif" font-size="10.00"> comparison</text>
</g>
</g>
</svg>
