<?xml version="1.0" encoding="UTF-8" standalone="no"?>
<!DOCTYPE svg PUBLIC "-//W3C//DTD SVG 1.1//EN"
 "http://www.w3.org/Graphics/SVG/1.1/DTD/svg11.dtd">
<!-- Generated by graphviz version 2.38.0 (20140413.2041)
 -->
<!-- Title: hpp::constraints::explicit_::RelativePose Pages: 1 -->
<svg width="274pt" height="162pt"
 viewBox="0.00 0.00 274.00 162.00" xmlns="http://www.w3.org/2000/svg" xmlns:xlink="http://www.w3.org/1999/xlink">
<g id="graph0" class="graph" transform="scale(1 1) rotate(0) translate(4 158)">
<title>hpp::constraints::explicit_::RelativePose</title>
<polygon fill="white" stroke="none" points="-4,4 -4,-158 270,-158 270,4 -4,4"/>
<!-- Node1 -->
<g id="node1" class="node"><title>Node1</title>
<polygon fill="#bfbfbf" stroke="black" points="72,-0.5 72,-30.5 195,-30.5 195,-0.5 72,-0.5"/>
<text text-anchor="start" x="80" y="-18.5" font-family="Helvetica,sans-Serif" font-size="10.00">hpp::constraints::explicit</text>
<text text-anchor="middle" x="133.5" y="-7.5" font-family="Helvetica,sans-Serif" font-size="10.00">_::RelativePose</text>
</g>
<!-- Node2 -->
<g id="node2" class="node"><title>Node2</title>
<g id="a_node2"><a xlink:href="a00043.html" target="_top" xlink:title="Explicit numerical constraint. ">
<polygon fill="white" stroke="black" points="0,-73 0,-92 125,-92 125,-73 0,-73"/>
<text text-anchor="middle" x="62.5" y="-80" font-family="Helvetica,sans-Serif" font-size="10.00">hpp::constraints::Explicit</text>
</a>
</g>
</g>
<!-- Node2&#45;&gt;Node1 -->
<g id="edge1" class="edge"><title>Node2&#45;&gt;Node1</title>
<path fill="none" stroke="midnightblue" d="M79.5094,-65.928C91.2509,-55.1788 106.736,-41.0024 118.11,-30.589"/>
<polygon fill="midnightblue" stroke="midnightblue" points="77.0879,-63.3997 72.0754,-72.7338 81.8147,-68.5628 77.0879,-63.3997"/>
</g>
<!-- Node3 -->
<g id="node3" class="node"><title>Node3</title>
<g id="a_node3"><a xlink:href="a00054.html" target="_top" xlink:title="This class represents a parameterizable numerical constraint that compares the output of a function &#160;...">
<polygon fill="white" stroke="black" points="71.5,-134.5 71.5,-153.5 195.5,-153.5 195.5,-134.5 71.5,-134.5"/>
<text text-anchor="middle" x="133.5" y="-141.5" font-family="Helvetica,sans-Serif" font-size="10.00">hpp::constraints::Implicit</text>
</a>
</g>
</g>
<!-- Node3&#45;&gt;Node2 -->
<g id="edge2" class="edge"><title>Node3&#45;&gt;Node2</title>
<path fill="none" stroke="midnightblue" d="M115.568,-127.973C101.989,-116.593 83.8231,-101.369 72.6537,-92.0091"/>
<polygon fill="midnightblue" stroke="midnightblue" points="113.415,-130.735 123.327,-134.475 117.911,-125.369 113.415,-130.735"/>
</g>
<!-- Node4 -->
<g id="node4" class="node"><title>Node4</title>
<g id="a_node4"><a xlink:href="a00076.html" target="_top" xlink:title="Constraint of relative pose between two frames on a kinematic chain. ">
<polygon fill="white" stroke="black" points="143,-67.5 143,-97.5 266,-97.5 266,-67.5 143,-67.5"/>
<text text-anchor="start" x="151" y="-85.5" font-family="Helvetica,sans-Serif" font-size="10.00">hpp::constraints::implicit</text>
<text text-anchor="middle" x="204.5" y="-74.5" font-family="Helvetica,sans-Serif" font-size="10.00">::RelativePose</text>
</a>
</g>
</g>
<!-- Node3&#45;&gt;Node4 -->
<g id="edge4" class="edge"><title>Node3&#45;&gt;Node4</title>
<path fill="none" stroke="midnightblue" d="M151.493,-127.921C162.641,-118.579 176.862,-106.662 187.767,-97.523"/>
<polygon fill="midnightblue" stroke="midnightblue" points="149.089,-125.369 143.673,-134.475 153.585,-130.735 149.089,-125.369"/>
</g>
<!-- Node4&#45;&gt;Node1 -->
<g id="edge3" class="edge"><title>Node4&#45;&gt;Node1</title>
<path fill="none" stroke="midnightblue" d="M181.668,-60.5978C170.948,-50.7831 158.453,-39.3442 148.876,-30.5765"/>
<polygon fill="midnightblue" stroke="midnightblue" points="179.355,-63.225 189.094,-67.396 184.082,-58.0618 179.355,-63.225"/>
</g>
</g>
</svg>
