<?xml version="1.0" encoding="UTF-8" standalone="no"?>
<!DOCTYPE svg PUBLIC "-//W3C//DTD SVG 1.1//EN"
 "http://www.w3.org/Graphics/SVG/1.1/DTD/svg11.dtd">
<!-- Generated by graphviz version 2.38.0 (20140413.2041)
 -->
<!-- Title: hpp::constraints::MatrixOfExpressions&lt; ValueType, JacobianType &gt; Pages: 1 -->
<svg width="632pt" height="144pt"
 viewBox="0.00 0.00 632.00 143.50" xmlns="http://www.w3.org/2000/svg" xmlns:xlink="http://www.w3.org/1999/xlink">
<g id="graph0" class="graph" transform="scale(1 1) rotate(0) translate(4 139.5)">
<title>hpp::constraints::MatrixOfExpressions&lt; ValueType, JacobianType &gt;</title>
<polygon fill="white" stroke="none" points="-4,4 -4,-139.5 628,-139.5 628,4 -4,4"/>
<!-- Node1 -->
<g id="node1" class="node"><title>Node1</title>
<polygon fill="#bfbfbf" stroke="black" points="484,-20 484,-61 624,-61 624,-20 484,-20"/>
<text text-anchor="start" x="492" y="-49" font-family="Helvetica,sans-Serif" font-size="10.00">hpp::constraints::Matrix</text>
<text text-anchor="start" x="492" y="-38" font-family="Helvetica,sans-Serif" font-size="10.00">OfExpressions&lt; ValueType,</text>
<text text-anchor="middle" x="554" y="-27" font-family="Helvetica,sans-Serif" font-size="10.00"> JacobianType &gt;</text>
</g>
<!-- Node2 -->
<g id="node2" class="node"><title>Node2</title>
<g id="a_node2"><a xlink:href="a00017.html" target="_top" xlink:title="hpp::constraints::Calculus\lBase\&lt; MatrixOfExpressions\l\&lt; ValueType, JacobianType\l \&gt;, Eigen::Matrix\&lt; value_type,\l Eigen::Dynamic, Eigen::Dynamic\l \&gt;, Eigen::Matrix\&lt; value_type,\l Eigen::Dynamic, Eigen::Dynamic \&gt; \&gt;">
<polygon fill="white" stroke="black" points="216,-50 216,-135 399,-135 399,-50 216,-50"/>
<text text-anchor="start" x="224" y="-123" font-family="Helvetica,sans-Serif" font-size="10.00">hpp::constraints::Calculus</text>
<text text-anchor="start" x="224" y="-112" font-family="Helvetica,sans-Serif" font-size="10.00">Base&lt; MatrixOfExpressions</text>
<text text-anchor="start" x="224" y="-101" font-family="Helvetica,sans-Serif" font-size="10.00">&lt; ValueType, JacobianType</text>
<text text-anchor="start" x="224" y="-90" font-family="Helvetica,sans-Serif" font-size="10.00"> &gt;, Eigen::Matrix&lt; value_type,</text>
<text text-anchor="start" x="224" y="-79" font-family="Helvetica,sans-Serif" font-size="10.00"> Eigen::Dynamic, Eigen::Dynamic</text>
<text text-anchor="start" x="224" y="-68" font-family="Helvetica,sans-Serif" font-size="10.00"> &gt;, Eigen::Matrix&lt; value_type,</text>
<text text-anchor="middle" x="307.5" y="-57" font-family="Helvetica,sans-Serif" font-size="10.00"> Eigen::Dynamic, Eigen::Dynamic &gt; &gt;</text>
</a>
</g>
</g>
<!-- Node2&#45;&gt;Node1 -->
<g id="edge1" class="edge"><title>Node2&#45;&gt;Node1</title>
<path fill="none" stroke="midnightblue" d="M409.125,-71.0992C434.252,-65.7551 460.639,-60.1433 483.854,-55.2059"/>
<polygon fill="midnightblue" stroke="midnightblue" points="408.248,-67.7072 399.195,-73.211 409.705,-74.5541 408.248,-67.7072"/>
</g>
<!-- Node3 -->
<g id="node3" class="node"><title>Node3</title>
<g id="a_node3"><a xlink:href="a00018.html" target="_top" xlink:title="hpp::constraints::Calculus\lBaseAbstract\&lt; Eigen::Matrix\l\&lt; value_type, Eigen::Dynamic,\l Eigen::Dynamic \&gt;, Eigen::Matrix\l\&lt; value_type, Eigen::Dynamic, Eigen\l::Dynamic \&gt; \&gt;">
<polygon fill="white" stroke="black" points="0,-55.5 0,-129.5 179,-129.5 179,-55.5 0,-55.5"/>
<text text-anchor="start" x="8" y="-117.5" font-family="Helvetica,sans-Serif" font-size="10.00">hpp::constraints::Calculus</text>
<text text-anchor="start" x="8" y="-106.5" font-family="Helvetica,sans-Serif" font-size="10.00">BaseAbstract&lt; Eigen::Matrix</text>
<text text-anchor="start" x="8" y="-95.5" font-family="Helvetica,sans-Serif" font-size="10.00">&lt; value_type, Eigen::Dynamic,</text>
<text text-anchor="start" x="8" y="-84.5" font-family="Helvetica,sans-Serif" font-size="10.00"> Eigen::Dynamic &gt;, Eigen::Matrix</text>
<text text-anchor="start" x="8" y="-73.5" font-family="Helvetica,sans-Serif" font-size="10.00">&lt; value_type, Eigen::Dynamic, Eigen</text>
<text text-anchor="middle" x="89.5" y="-62.5" font-family="Helvetica,sans-Serif" font-size="10.00">::Dynamic &gt; &gt;</text>
</a>
</g>
</g>
<!-- Node3&#45;&gt;Node2 -->
<g id="edge2" class="edge"><title>Node3&#45;&gt;Node2</title>
<path fill="none" stroke="midnightblue" d="M189.566,-92.5C198.362,-92.5 207.238,-92.5 215.958,-92.5"/>
<polygon fill="midnightblue" stroke="midnightblue" points="189.291,-89.0001 179.291,-92.5 189.291,-96.0001 189.291,-89.0001"/>
</g>
<!-- Node4 -->
<g id="node4" class="node"><title>Node4</title>
<polygon fill="white" stroke="#bfbfbf" points="248,-0.5 248,-30.5 367,-30.5 367,-0.5 248,-0.5"/>
<text text-anchor="start" x="256" y="-18.5" font-family="Helvetica,sans-Serif" font-size="10.00">std::vector&lt; std::vector</text>
<text text-anchor="middle" x="307.5" y="-7.5" font-family="Helvetica,sans-Serif" font-size="10.00">&lt; ElementPtr_t &gt; &gt;</text>
</g>
<!-- Node4&#45;&gt;Node1 -->
<g id="edge3" class="edge"><title>Node4&#45;&gt;Node1</title>
<path fill="none" stroke="#9a32cd" stroke-dasharray="5,2" d="M377.159,-22.5203C410.415,-25.9208 450.269,-29.9959 483.621,-33.406"/>
<polygon fill="#9a32cd" stroke="#9a32cd" points="377.368,-19.0236 367.064,-21.4881 376.656,-25.9872 377.368,-19.0236"/>
<text text-anchor="middle" x="441.5" y="-34.5" font-family="Helvetica,sans-Serif" font-size="10.00"> elements_</text>
</g>
</g>
</svg>
