<?xml version="1.0" encoding="UTF-8" standalone="no"?>
<!DOCTYPE svg PUBLIC "-//W3C//DTD SVG 1.1//EN"
 "http://www.w3.org/Graphics/SVG/1.1/DTD/svg11.dtd">
<!-- Generated by graphviz version 2.38.0 (20140413.2041)
 -->
<!-- Title: hpp::constraints::Expression&lt; LhsValue, RhsValue &gt; Pages: 1 -->
<svg width="369pt" height="137pt"
 viewBox="0.00 0.00 369.00 137.00" xmlns="http://www.w3.org/2000/svg" xmlns:xlink="http://www.w3.org/1999/xlink">
<g id="graph0" class="graph" transform="scale(1 1) rotate(0) translate(4 133)">
<title>hpp::constraints::Expression&lt; LhsValue, RhsValue &gt;</title>
<polygon fill="white" stroke="none" points="-4,4 -4,-133 365,-133 365,4 -4,4"/>
<!-- Node1 -->
<g id="node1" class="node"><title>Node1</title>
<polygon fill="#bfbfbf" stroke="black" points="220,-49.5 220,-79.5 361,-79.5 361,-49.5 220,-49.5"/>
<text text-anchor="start" x="228" y="-67.5" font-family="Helvetica,sans-Serif" font-size="10.00">hpp::constraints::Expression</text>
<text text-anchor="middle" x="290.5" y="-56.5" font-family="Helvetica,sans-Serif" font-size="10.00">&lt; LhsValue, RhsValue &gt;</text>
</g>
<!-- Node2 -->
<g id="node2" class="node"><title>Node2</title>
<g id="a_node2"><a xlink:href="a00086.html" target="_top" xlink:title="hpp::constraints::Traits\l\&lt; RhsValue \&gt;">
<polygon fill="white" stroke="black" points="21,-98.5 21,-128.5 138,-128.5 138,-98.5 21,-98.5"/>
<text text-anchor="start" x="29" y="-116.5" font-family="Helvetica,sans-Serif" font-size="10.00">hpp::constraints::Traits</text>
<text text-anchor="middle" x="79.5" y="-105.5" font-family="Helvetica,sans-Serif" font-size="10.00">&lt; RhsValue &gt;</text>
</a>
</g>
</g>
<!-- Node2&#45;&gt;Node1 -->
<g id="edge1" class="edge"><title>Node2&#45;&gt;Node1</title>
<path fill="none" stroke="#9a32cd" stroke-dasharray="5,2" d="M148.211,-97.6252C172.997,-91.8141 200.948,-85.2609 225.408,-79.5263"/>
<polygon fill="#9a32cd" stroke="#9a32cd" points="147.1,-94.2905 138.163,-99.9808 148.698,-101.106 147.1,-94.2905"/>
<text text-anchor="middle" x="189.5" y="-92.5" font-family="Helvetica,sans-Serif" font-size="10.00"> rhs_</text>
</g>
<!-- Node3 -->
<g id="node3" class="node"><title>Node3</title>
<g id="a_node3"><a xlink:href="a00086.html" target="_top" xlink:title="hpp::constraints::Traits\l\&lt; hpp::constraints::Expression \&gt;">
<polygon fill="white" stroke="black" points="0,-49.5 0,-79.5 159,-79.5 159,-49.5 0,-49.5"/>
<text text-anchor="start" x="8" y="-67.5" font-family="Helvetica,sans-Serif" font-size="10.00">hpp::constraints::Traits</text>
<text text-anchor="middle" x="79.5" y="-56.5" font-family="Helvetica,sans-Serif" font-size="10.00">&lt; hpp::constraints::Expression &gt;</text>
</a>
</g>
</g>
<!-- Node3&#45;&gt;Node1 -->
<g id="edge2" class="edge"><title>Node3&#45;&gt;Node1</title>
<path fill="none" stroke="#9a32cd" stroke-dasharray="5,2" d="M169.58,-64.5C186.364,-64.5 203.691,-64.5 219.777,-64.5"/>
<polygon fill="#9a32cd" stroke="#9a32cd" points="169.216,-61.0001 159.216,-64.5 169.216,-68.0001 169.216,-61.0001"/>
<text text-anchor="middle" x="189.5" y="-67.5" font-family="Helvetica,sans-Serif" font-size="10.00"> self_</text>
</g>
<!-- Node4 -->
<g id="node4" class="node"><title>Node4</title>
<g id="a_node4"><a xlink:href="a00086.html" target="_top" xlink:title="hpp::constraints::Traits\l\&lt; LhsValue \&gt;">
<polygon fill="white" stroke="black" points="21,-0.5 21,-30.5 138,-30.5 138,-0.5 21,-0.5"/>
<text text-anchor="start" x="29" y="-18.5" font-family="Helvetica,sans-Serif" font-size="10.00">hpp::constraints::Traits</text>
<text text-anchor="middle" x="79.5" y="-7.5" font-family="Helvetica,sans-Serif" font-size="10.00">&lt; LhsValue &gt;</text>
</a>
</g>
</g>
<!-- Node4&#45;&gt;Node1 -->
<g id="edge3" class="edge"><title>Node4&#45;&gt;Node1</title>
<path fill="none" stroke="#9a32cd" stroke-dasharray="5,2" d="M148.211,-31.3748C172.997,-37.1859 200.948,-43.7391 225.408,-49.4737"/>
<polygon fill="#9a32cd" stroke="#9a32cd" points="148.698,-27.8943 138.163,-29.0192 147.1,-34.7095 148.698,-27.8943"/>
<text text-anchor="middle" x="189.5" y="-45.5" font-family="Helvetica,sans-Serif" font-size="10.00"> lhs_</text>
</g>
</g>
</svg>
