<?xml version="1.0" encoding="UTF-8" standalone="no"?>
<!DOCTYPE svg PUBLIC "-//W3C//DTD SVG 1.1//EN"
 "http://www.w3.org/Graphics/SVG/1.1/DTD/svg11.dtd">
<!-- Generated by graphviz version 2.38.0 (20140413.2041)
 -->
<!-- Title: constraints Pages: 1 -->
<svg width="266pt" height="183pt"
 viewBox="0.00 0.00 266.00 183.00" xmlns="http://www.w3.org/2000/svg" xmlns:xlink="http://www.w3.org/1999/xlink">
<g id="graph0" class="graph" transform="scale(1 1) rotate(0) translate(4 179)">
<title>constraints</title>
<polygon fill="white" stroke="none" points="-4,4 -4,-179 262,-179 262,4 -4,4"/>
<g id="clust1" class="cluster"><title>clusterdir_766a2b2ecef16448f861b8cf84e3a157</title>
<g id="a_clust1"><a xlink:href="dir_766a2b2ecef16448f861b8cf84e3a157.html" target="_top" xlink:title="hpp">
<polygon fill="#ddddee" stroke="black" points="8,-8 8,-167 250,-167 250,-8 8,-8"/>
<text text-anchor="middle" x="129" y="-155" font-family="Helvetica,sans-Serif" font-size="10.00">hpp</text>
</a>
</g>
</g>
<g id="clust2" class="cluster"><title>clusterdir_36e73b2d8d75107b9114c06b6058a3be</title>
<g id="a_clust2"><a xlink:href="dir_36e73b2d8d75107b9114c06b6058a3be.html" target="_top">
<polygon fill="#eeeeff" stroke="black" points="16,-16 16,-140 242,-140 242,-16 16,-16"/>
</a>
</g>
</g>
<!-- dir_36e73b2d8d75107b9114c06b6058a3be -->
<g id="node1" class="node"><title>dir_36e73b2d8d75107b9114c06b6058a3be</title>
<text text-anchor="middle" x="201" y="-111.5" font-family="Helvetica,sans-Serif" font-size="10.00">constraints</text>
</g>
<!-- dir_d0ff4967af962dc9f7c1cd62adb261e4 -->
<g id="node4" class="node"><title>dir_d0ff4967af962dc9f7c1cd62adb261e4</title>
<g id="a_node4"><a xlink:href="dir_d0ff4967af962dc9f7c1cd62adb261e4.html" target="_top" xlink:title="impl">
<polygon fill="white" stroke="black" points="162,-60 108,-60 108,-24 162,-24 162,-60"/>
<text text-anchor="middle" x="135" y="-39.5" font-family="Helvetica,sans-Serif" font-size="10.00">impl</text>
</a>
</g>
</g>
<!-- dir_36e73b2d8d75107b9114c06b6058a3be&#45;&gt;dir_d0ff4967af962dc9f7c1cd62adb261e4 -->
<g id="edge3" class="edge"><title>dir_36e73b2d8d75107b9114c06b6058a3be&#45;&gt;dir_d0ff4967af962dc9f7c1cd62adb261e4</title>
<path fill="none" stroke="black" d="M184.685,-95.6966C176.693,-87.2198 166.928,-76.8636 158.178,-67.5826"/>
<polygon fill="black" stroke="black" points="160.534,-64.9792 151.127,-60.1043 155.441,-69.7813 160.534,-64.9792"/>
<g id="a_edge3&#45;headlabel"><a xlink:href="dir_000002_000008.html" target="_top" xlink:title="2">
<text text-anchor="middle" x="165.065" y="-63.1468" font-family="Helvetica,sans-Serif" font-size="10.00">2</text>
</a>
</g>
</g>
<!-- dir_0bf44effc9d5f1c811dc80e75d6c2cea -->
<g id="node6" class="node"><title>dir_0bf44effc9d5f1c811dc80e75d6c2cea</title>
<g id="a_node6"><a xlink:href="dir_0bf44effc9d5f1c811dc80e75d6c2cea.html" target="_top" xlink:title="solver">
<polygon fill="white" stroke="red" points="234,-60 180,-60 180,-24 234,-24 234,-60"/>
<text text-anchor="middle" x="207" y="-39.5" font-family="Helvetica,sans-Serif" font-size="10.00">solver</text>
</a>
</g>
</g>
<!-- dir_36e73b2d8d75107b9114c06b6058a3be&#45;&gt;dir_0bf44effc9d5f1c811dc80e75d6c2cea -->
<g id="edge2" class="edge"><title>dir_36e73b2d8d75107b9114c06b6058a3be&#45;&gt;dir_0bf44effc9d5f1c811dc80e75d6c2cea</title>
<path fill="none" stroke="black" d="M202.483,-95.6966C203.144,-87.9827 203.939,-78.7125 204.676,-70.1124"/>
<polygon fill="black" stroke="black" points="208.167,-70.3667 205.534,-60.1043 201.193,-69.7689 208.167,-70.3667"/>
<g id="a_edge2&#45;headlabel"><a xlink:href="dir_000002_000003.html" target="_top" xlink:title="2">
<text text-anchor="middle" x="210.689" y="-71.6907" font-family="Helvetica,sans-Serif" font-size="10.00">2</text>
</a>
</g>
</g>
<!-- dir_276290e8fa4db16a76946a2da5f7bc44 -->
<g id="node2" class="node"><title>dir_276290e8fa4db16a76946a2da5f7bc44</title>
<g id="a_node2"><a xlink:href="dir_276290e8fa4db16a76946a2da5f7bc44.html" target="_top" xlink:title="explicit">
<polygon fill="white" stroke="black" points="150,-132 96,-132 96,-96 150,-96 150,-132"/>
<text text-anchor="middle" x="123" y="-111.5" font-family="Helvetica,sans-Serif" font-size="10.00">explicit</text>
</a>
</g>
</g>
<!-- dir_e26ae1369a0c50b3c4bd7ca9b5c72175 -->
<g id="node5" class="node"><title>dir_e26ae1369a0c50b3c4bd7ca9b5c72175</title>
<g id="a_node5"><a xlink:href="dir_e26ae1369a0c50b3c4bd7ca9b5c72175.html" target="_top" xlink:title="implicit">
<polygon fill="white" stroke="black" points="90,-60 36,-60 36,-24 90,-24 90,-60"/>
<text text-anchor="middle" x="63" y="-39.5" font-family="Helvetica,sans-Serif" font-size="10.00">implicit</text>
</a>
</g>
</g>
<!-- dir_276290e8fa4db16a76946a2da5f7bc44&#45;&gt;dir_e26ae1369a0c50b3c4bd7ca9b5c72175 -->
<g id="edge1" class="edge"><title>dir_276290e8fa4db16a76946a2da5f7bc44&#45;&gt;dir_e26ae1369a0c50b3c4bd7ca9b5c72175</title>
<path fill="none" stroke="black" d="M108.169,-95.6966C100.975,-87.3046 92.2033,-77.0705 84.3097,-67.8613"/>
<polygon fill="black" stroke="black" points="86.8262,-65.4191 77.6609,-60.1043 81.5114,-69.9747 86.8262,-65.4191"/>
<g id="a_edge1&#45;headlabel"><a xlink:href="dir_000006_000009.html" target="_top" xlink:title="1">
<text text-anchor="middle" x="91.3213" y="-63.8006" font-family="Helvetica,sans-Serif" font-size="10.00">1</text>
</a>
</g>
</g>
<!-- dir_ec899521b45d5bc48ee38d5a07a48560 -->
<g id="node3" class="node"><title>dir_ec899521b45d5bc48ee38d5a07a48560</title>
<g id="a_node3"><a xlink:href="dir_ec899521b45d5bc48ee38d5a07a48560.html" target="_top" xlink:title="function">
<polygon fill="white" stroke="black" points="78,-132 24,-132 24,-96 78,-96 78,-132"/>
<text text-anchor="middle" x="51" y="-111.5" font-family="Helvetica,sans-Serif" font-size="10.00">function</text>
</a>
</g>
</g>
</g>
</svg>
