<?xml version="1.0" encoding="UTF-8" standalone="no"?>
<!DOCTYPE svg PUBLIC "-//W3C//DTD SVG 1.1//EN"
 "http://www.w3.org/Graphics/SVG/1.1/DTD/svg11.dtd">
<!-- Generated by graphviz version 2.38.0 (20140413.2041)
 -->
<!-- Title: Graphical Class Hierarchy Pages: 1 -->
<svg width="453pt" height="127pt"
 viewBox="0.00 0.00 453.00 127.00" xmlns="http://www.w3.org/2000/svg" xmlns:xlink="http://www.w3.org/1999/xlink">
<g id="graph0" class="graph" transform="scale(1 1) rotate(0) translate(4 123)">
<title>Graphical Class Hierarchy</title>
<polygon fill="white" stroke="none" points="-4,4 -4,-123 449,-123 449,4 -4,4"/>
<!-- Node1 -->
<g id="node1" class="node"><title>Node1</title>
<g id="a_node1"><a xlink:href="a00054.html" target="_top" xlink:title="This class represents a parameterizable numerical constraint that compares the output of a function &#160;...">
<polygon fill="white" stroke="black" points="0,-50 0,-69 124,-69 124,-50 0,-50"/>
<text text-anchor="middle" x="62" y="-57" font-family="Helvetica,sans-Serif" font-size="10.00">hpp::constraints::Implicit</text>
</a>
</g>
</g>
<!-- Node2 -->
<g id="node2" class="node"><title>Node2</title>
<g id="a_node2"><a xlink:href="a00043.html" target="_top" xlink:title="Explicit numerical constraint. ">
<polygon fill="white" stroke="black" points="160,-50 160,-69 285,-69 285,-50 160,-50"/>
<text text-anchor="middle" x="222.5" y="-57" font-family="Helvetica,sans-Serif" font-size="10.00">hpp::constraints::Explicit</text>
</a>
</g>
</g>
<!-- Node1&#45;&gt;Node2 -->
<g id="edge1" class="edge"><title>Node1&#45;&gt;Node2</title>
<path fill="none" stroke="midnightblue" d="M134.514,-59.5C142.974,-59.5 151.553,-59.5 159.86,-59.5"/>
<polygon fill="midnightblue" stroke="midnightblue" points="134.28,-56.0001 124.28,-59.5 134.28,-63.0001 134.28,-56.0001"/>
</g>
<!-- Node5 -->
<g id="node5" class="node"><title>Node5</title>
<g id="a_node5"><a xlink:href="a00076.html" target="_top" xlink:title="Constraint of relative pose between two frames on a kinematic chain. ">
<polygon fill="white" stroke="black" points="161,-88.5 161,-118.5 284,-118.5 284,-88.5 161,-88.5"/>
<text text-anchor="start" x="169" y="-106.5" font-family="Helvetica,sans-Serif" font-size="10.00">hpp::constraints::implicit</text>
<text text-anchor="middle" x="222.5" y="-95.5" font-family="Helvetica,sans-Serif" font-size="10.00">::RelativePose</text>
</a>
</g>
</g>
<!-- Node1&#45;&gt;Node5 -->
<g id="edge4" class="edge"><title>Node1&#45;&gt;Node5</title>
<path fill="none" stroke="midnightblue" d="M107.092,-71.7402C125.728,-76.9134 147.616,-82.9897 167.23,-88.4346"/>
<polygon fill="midnightblue" stroke="midnightblue" points="107.964,-68.3498 97.3921,-69.0473 106.092,-75.0948 107.964,-68.3498"/>
</g>
<!-- Node6 -->
<g id="node6" class="node"><title>Node6</title>
<g id="a_node6"><a xlink:href="a00055.html" target="_top" xlink:title="Set of implicit constraints. ">
<polygon fill="white" stroke="black" points="160.5,-0.5 160.5,-30.5 284.5,-30.5 284.5,-0.5 160.5,-0.5"/>
<text text-anchor="start" x="168.5" y="-18.5" font-family="Helvetica,sans-Serif" font-size="10.00">hpp::constraints::Implicit</text>
<text text-anchor="middle" x="222.5" y="-7.5" font-family="Helvetica,sans-Serif" font-size="10.00">ConstraintSet</text>
</a>
</g>
</g>
<!-- Node1&#45;&gt;Node6 -->
<g id="edge6" class="edge"><title>Node1&#45;&gt;Node6</title>
<path fill="none" stroke="midnightblue" d="M107.092,-47.2598C125.728,-42.0866 147.616,-36.0103 167.23,-30.5654"/>
<polygon fill="midnightblue" stroke="midnightblue" points="106.092,-43.9052 97.3921,-49.9527 107.964,-50.6502 106.092,-43.9052"/>
</g>
<!-- Node3 -->
<g id="node3" class="node"><title>Node3</title>
<g id="a_node3"><a xlink:href="a00075.html" target="_top" xlink:title="Constraint of relative pose between two frames on a kinematic chain. ">
<polygon fill="white" stroke="black" points="321.5,-88.5 321.5,-118.5 444.5,-118.5 444.5,-88.5 321.5,-88.5"/>
<text text-anchor="start" x="329.5" y="-106.5" font-family="Helvetica,sans-Serif" font-size="10.00">hpp::constraints::explicit</text>
<text text-anchor="middle" x="383" y="-95.5" font-family="Helvetica,sans-Serif" font-size="10.00">_::RelativePose</text>
</a>
</g>
</g>
<!-- Node2&#45;&gt;Node3 -->
<g id="edge2" class="edge"><title>Node2&#45;&gt;Node3</title>
<path fill="none" stroke="midnightblue" d="M267.592,-71.7402C286.228,-76.9134 308.116,-82.9897 327.73,-88.4346"/>
<polygon fill="midnightblue" stroke="midnightblue" points="268.464,-68.3498 257.892,-69.0473 266.592,-75.0948 268.464,-68.3498"/>
</g>
<!-- Node4 -->
<g id="node4" class="node"><title>Node4</title>
<g id="a_node4"><a xlink:href="a00059.html" target="_top" xlink:title="Implementation of constraint specific to locked joint. ">
<polygon fill="white" stroke="black" points="321,-39.5 321,-69.5 445,-69.5 445,-39.5 321,-39.5"/>
<text text-anchor="start" x="329" y="-57.5" font-family="Helvetica,sans-Serif" font-size="10.00">hpp::constraints::Locked</text>
<text text-anchor="middle" x="383" y="-46.5" font-family="Helvetica,sans-Serif" font-size="10.00">Joint</text>
</a>
</g>
</g>
<!-- Node2&#45;&gt;Node4 -->
<g id="edge3" class="edge"><title>Node2&#45;&gt;Node4</title>
<path fill="none" stroke="midnightblue" d="M295.239,-57.237C303.828,-56.966 312.537,-56.6913 320.955,-56.4257"/>
<polygon fill="midnightblue" stroke="midnightblue" points="295.119,-53.7389 285.234,-57.5526 295.34,-60.7354 295.119,-53.7389"/>
</g>
<!-- Node5&#45;&gt;Node3 -->
<g id="edge5" class="edge"><title>Node5&#45;&gt;Node3</title>
<path fill="none" stroke="midnightblue" d="M294.393,-103.5C303.386,-103.5 312.523,-103.5 321.336,-103.5"/>
<polygon fill="midnightblue" stroke="midnightblue" points="294.327,-100 284.327,-103.5 294.327,-107 294.327,-100"/>
</g>
</g>
</svg>
