<?xml version="1.0" encoding="UTF-8" standalone="no"?>
<!DOCTYPE svg PUBLIC "-//W3C//DTD SVG 1.1//EN"
 "http://www.w3.org/Graphics/SVG/1.1/DTD/svg11.dtd">
<!-- Generated by graphviz version 2.38.0 (20140413.2041)
 -->
<!-- Title: constraint&#45;set.hh Pages: 1 -->
<svg width="760pt" height="196pt"
 viewBox="0.00 0.00 760.00 196.00" xmlns="http://www.w3.org/2000/svg" xmlns:xlink="http://www.w3.org/1999/xlink">
<g id="graph0" class="graph" transform="scale(1 1) rotate(0) translate(4 192)">
<title>constraint&#45;set.hh</title>
<polygon fill="white" stroke="none" points="-4,4 -4,-192 756,-192 756,4 -4,4"/>
<!-- Node1 -->
<g id="node1" class="node"><title>Node1</title>
<polygon fill="#bfbfbf" stroke="black" points="185,-168.5 185,-187.5 274,-187.5 274,-168.5 185,-168.5"/>
<text text-anchor="middle" x="229.5" y="-175.5" font-family="Helvetica,sans-Serif" font-size="10.00">constraint&#45;set.hh</text>
</g>
<!-- Node2 -->
<g id="node2" class="node"><title>Node2</title>
<polygon fill="white" stroke="#bfbfbf" points="0,-0.5 0,-19.5 43,-19.5 43,-0.5 0,-0.5"/>
<text text-anchor="middle" x="21.5" y="-7.5" font-family="Helvetica,sans-Serif" font-size="10.00">deque</text>
</g>
<!-- Node1&#45;&gt;Node2 -->
<g id="edge1" class="edge"><title>Node1&#45;&gt;Node2</title>
<path fill="none" stroke="midnightblue" d="M218.61,-168.309C184.983,-141.472 82.5136,-59.6935 40.1418,-25.8776"/>
<polygon fill="midnightblue" stroke="midnightblue" points="42.2816,-23.1073 32.2823,-19.6051 37.9151,-28.5786 42.2816,-23.1073"/>
</g>
<!-- Node3 -->
<g id="node3" class="node"><title>Node3</title>
<g id="a_node3"><a xlink:href="a00124.html" target="_top" xlink:title="hpp/core/constraint.hh">
<polygon fill="white" stroke="black" points="243,-112.5 243,-131.5 356,-131.5 356,-112.5 243,-112.5"/>
<text text-anchor="middle" x="299.5" y="-119.5" font-family="Helvetica,sans-Serif" font-size="10.00">hpp/core/constraint.hh</text>
</a>
</g>
</g>
<!-- Node1&#45;&gt;Node3 -->
<g id="edge2" class="edge"><title>Node1&#45;&gt;Node3</title>
<path fill="none" stroke="midnightblue" d="M240.747,-168.324C251.297,-160.185 267.301,-147.839 279.942,-138.087"/>
<polygon fill="midnightblue" stroke="midnightblue" points="282.269,-140.713 288.049,-131.834 277.993,-135.171 282.269,-140.713"/>
</g>
<!-- Node4 -->
<g id="node4" class="node"><title>Node4</title>
<polygon fill="white" stroke="#bfbfbf" points="317.5,-56.5 317.5,-75.5 369.5,-75.5 369.5,-56.5 317.5,-56.5"/>
<text text-anchor="middle" x="343.5" y="-63.5" font-family="Helvetica,sans-Serif" font-size="10.00">ostream</text>
</g>
<!-- Node3&#45;&gt;Node4 -->
<g id="edge3" class="edge"><title>Node3&#45;&gt;Node4</title>
<path fill="none" stroke="midnightblue" d="M306.766,-112.083C313.045,-104.377 322.288,-93.0333 329.931,-83.6531"/>
<polygon fill="midnightblue" stroke="midnightblue" points="332.766,-85.7143 336.369,-75.7511 327.339,-81.2926 332.766,-85.7143"/>
</g>
<!-- Node5 -->
<g id="node5" class="node"><title>Node5</title>
<polygon fill="white" stroke="#bfbfbf" points="655,-0.5 655,-19.5 752,-19.5 752,-0.5 655,-0.5"/>
<text text-anchor="middle" x="703.5" y="-7.5" font-family="Helvetica,sans-Serif" font-size="10.00">hpp/core/config.hh</text>
</g>
<!-- Node3&#45;&gt;Node5 -->
<g id="edge4" class="edge"><title>Node3&#45;&gt;Node5</title>
<path fill="none" stroke="midnightblue" d="M330.865,-112.46C403.137,-92.7821 581.373,-44.2525 662.319,-22.2128"/>
<polygon fill="midnightblue" stroke="midnightblue" points="663.426,-25.5388 672.155,-19.5345 661.587,-18.7847 663.426,-25.5388"/>
</g>
<!-- Node6 -->
<g id="node6" class="node"><title>Node6</title>
<g id="a_node6"><a xlink:href="a00001.html" target="_top" xlink:title="hpp/core/fwd.hh">
<polygon fill="white" stroke="black" points="213.5,-56.5 213.5,-75.5 299.5,-75.5 299.5,-56.5 213.5,-56.5"/>
<text text-anchor="middle" x="256.5" y="-63.5" font-family="Helvetica,sans-Serif" font-size="10.00">hpp/core/fwd.hh</text>
</a>
</g>
</g>
<!-- Node3&#45;&gt;Node6 -->
<g id="edge5" class="edge"><title>Node3&#45;&gt;Node6</title>
<path fill="none" stroke="midnightblue" d="M292.399,-112.083C286.263,-104.377 277.23,-93.0333 269.761,-83.6531"/>
<polygon fill="midnightblue" stroke="midnightblue" points="272.436,-81.3936 263.468,-75.7511 266.96,-85.7542 272.436,-81.3936"/>
</g>
<!-- Node6&#45;&gt;Node2 -->
<g id="edge8" class="edge"><title>Node6&#45;&gt;Node2</title>
<path fill="none" stroke="midnightblue" d="M213.479,-56.5396C173.958,-48.548 113.572,-35.787 52.8249,-20.2086"/>
<polygon fill="midnightblue" stroke="midnightblue" points="53.6334,-16.8026 43.0754,-17.6845 51.8789,-23.5792 53.6334,-16.8026"/>
</g>
<!-- Node6&#45;&gt;Node5 -->
<g id="edge13" class="edge"><title>Node6&#45;&gt;Node5</title>
<path fill="none" stroke="midnightblue" d="M299.596,-57.318C302.606,-56.8502 305.596,-56.4055 308.5,-56 454.906,-35.5557 495.019,-39.5978 644.687,-20.1835"/>
<polygon fill="midnightblue" stroke="midnightblue" points="645.246,-23.6403 654.706,-18.8703 644.336,-16.6996 645.246,-23.6403"/>
</g>
<!-- Node7 -->
<g id="node7" class="node"><title>Node7</title>
<polygon fill="white" stroke="#bfbfbf" points="593.5,-0.5 593.5,-19.5 637.5,-19.5 637.5,-0.5 593.5,-0.5"/>
<text text-anchor="middle" x="615.5" y="-7.5" font-family="Helvetica,sans-Serif" font-size="10.00">vector</text>
</g>
<!-- Node6&#45;&gt;Node7 -->
<g id="edge6" class="edge"><title>Node6&#45;&gt;Node7</title>
<path fill="none" stroke="midnightblue" d="M299.608,-57.3966C302.615,-56.9101 305.601,-56.4397 308.5,-56 427.582,-37.9367 461.631,-44.9224 583.181,-19.997"/>
<polygon fill="midnightblue" stroke="midnightblue" points="584.175,-23.3651 593.252,-17.9006 582.748,-16.512 584.175,-23.3651"/>
</g>
<!-- Node8 -->
<g id="node8" class="node"><title>Node8</title>
<polygon fill="white" stroke="#bfbfbf" points="61,-0.5 61,-19.5 96,-19.5 96,-0.5 61,-0.5"/>
<text text-anchor="middle" x="78.5" y="-7.5" font-family="Helvetica,sans-Serif" font-size="10.00">map</text>
</g>
<!-- Node6&#45;&gt;Node8 -->
<g id="edge7" class="edge"><title>Node6&#45;&gt;Node8</title>
<path fill="none" stroke="midnightblue" d="M226.094,-56.4382C197.304,-48.2348 152.655,-35.2651 105.797,-20.3238"/>
<polygon fill="midnightblue" stroke="midnightblue" points="106.677,-16.9303 96.0859,-17.2085 104.539,-23.5958 106.677,-16.9303"/>
</g>
<!-- Node9 -->
<g id="node9" class="node"><title>Node9</title>
<polygon fill="white" stroke="#bfbfbf" points="114,-0.5 114,-19.5 143,-19.5 143,-0.5 114,-0.5"/>
<text text-anchor="middle" x="128.5" y="-7.5" font-family="Helvetica,sans-Serif" font-size="10.00">list</text>
</g>
<!-- Node6&#45;&gt;Node9 -->
<g id="edge9" class="edge"><title>Node6&#45;&gt;Node9</title>
<path fill="none" stroke="midnightblue" d="M236.218,-56.4435C213.519,-46.8675 176.766,-31.3623 152.615,-21.1733"/>
<polygon fill="midnightblue" stroke="midnightblue" points="153.687,-17.8272 143.113,-17.1649 150.966,-24.2767 153.687,-17.8272"/>
</g>
<!-- Node10 -->
<g id="node10" class="node"><title>Node10</title>
<polygon fill="white" stroke="#bfbfbf" points="161.5,-0.5 161.5,-19.5 191.5,-19.5 191.5,-0.5 161.5,-0.5"/>
<text text-anchor="middle" x="176.5" y="-7.5" font-family="Helvetica,sans-Serif" font-size="10.00">set</text>
</g>
<!-- Node6&#45;&gt;Node10 -->
<g id="edge10" class="edge"><title>Node6&#45;&gt;Node10</title>
<path fill="none" stroke="midnightblue" d="M243.647,-56.324C231.284,-47.979 212.37,-35.2122 197.763,-25.3524"/>
<polygon fill="midnightblue" stroke="midnightblue" points="199.568,-22.3483 189.321,-19.6545 195.652,-28.1503 199.568,-22.3483"/>
</g>
<!-- Node11 -->
<g id="node11" class="node"><title>Node11</title>
<g id="a_node11"><a doxygen="/local/devel/hpp/install/share/doc/hpp-util/doxygen-html/hpp-util.doxytag:../../hpp-util/doxygen-html/" xlink:href="../../hpp-util/doxygen-html/a00028.html" target="_top" xlink:title="hpp/util/pointer.hh">
<polygon fill="white" stroke="black" points="209.5,-0.5 209.5,-19.5 303.5,-19.5 303.5,-0.5 209.5,-0.5"/>
<text text-anchor="middle" x="256.5" y="-7.5" font-family="Helvetica,sans-Serif" font-size="10.00">hpp/util/pointer.hh</text>
</a>
</g>
</g>
<!-- Node6&#45;&gt;Node11 -->
<g id="edge11" class="edge"><title>Node6&#45;&gt;Node11</title>
<path fill="none" stroke="midnightblue" d="M256.5,-56.083C256.5,-49.0059 256.5,-38.8611 256.5,-29.9865"/>
<polygon fill="midnightblue" stroke="midnightblue" points="260,-29.751 256.5,-19.7511 253,-29.7511 260,-29.751"/>
</g>
<!-- Node12 -->
<g id="node12" class="node"><title>Node12</title>
<g id="a_node12"><a doxygen="/local/devel/hpp/install/share/doc/hpp-constraints/doxygen-html/hpp-constraints.doxytag:../../hpp-constraints/doxygen-html/" xlink:href="../../hpp-constraints/doxygen-html/a00001.html" target="_top" xlink:title="hpp/constraints/fwd.hh">
<polygon fill="white" stroke="black" points="321.5,-0.5 321.5,-19.5 437.5,-19.5 437.5,-0.5 321.5,-0.5"/>
<text text-anchor="middle" x="379.5" y="-7.5" font-family="Helvetica,sans-Serif" font-size="10.00">hpp/constraints/fwd.hh</text>
</a>
</g>
</g>
<!-- Node6&#45;&gt;Node12 -->
<g id="edge12" class="edge"><title>Node6&#45;&gt;Node12</title>
<path fill="none" stroke="midnightblue" d="M275.99,-56.4435C296.142,-47.5961 327.823,-33.6875 350.831,-23.5865"/>
<polygon fill="midnightblue" stroke="midnightblue" points="352.352,-26.7411 360.101,-19.5164 349.538,-20.3316 352.352,-26.7411"/>
</g>
<!-- Node13 -->
<g id="node13" class="node"><title>Node13</title>
<polygon fill="white" stroke="#bfbfbf" points="456,-0.5 456,-19.5 575,-19.5 575,-0.5 456,-0.5"/>
<text text-anchor="middle" x="515.5" y="-7.5" font-family="Helvetica,sans-Serif" font-size="10.00">hpp/core/deprecated.hh</text>
</g>
<!-- Node6&#45;&gt;Node13 -->
<g id="edge14" class="edge"><title>Node6&#45;&gt;Node13</title>
<path fill="none" stroke="midnightblue" d="M297.539,-56.4435C342.816,-47.0036 415.727,-31.802 464.606,-21.6111"/>
<polygon fill="midnightblue" stroke="midnightblue" points="465.578,-24.9839 474.653,-19.5164 464.149,-18.1312 465.578,-24.9839"/>
</g>
</g>
</svg>
