<?xml version="1.0" encoding="UTF-8" standalone="no"?>
<!DOCTYPE svg PUBLIC "-//W3C//DTD SVG 1.1//EN"
 "http://www.w3.org/Graphics/SVG/1.1/DTD/svg11.dtd">
<!-- Generated by graphviz version 2.38.0 (20140413.2041)
 -->
<!-- Title: dubins.hh Pages: 1 -->
<svg width="1043pt" height="453pt"
 viewBox="0.00 0.00 1043.00 453.00" xmlns="http://www.w3.org/2000/svg" xmlns:xlink="http://www.w3.org/1999/xlink">
<g id="graph0" class="graph" transform="scale(1 1) rotate(0) translate(4 449)">
<title>dubins.hh</title>
<polygon fill="white" stroke="none" points="-4,4 -4,-449 1039,-449 1039,4 -4,4"/>
<!-- Node1 -->
<g id="node1" class="node"><title>Node1</title>
<polygon fill="#bfbfbf" stroke="black" points="157.5,-425.5 157.5,-444.5 216.5,-444.5 216.5,-425.5 157.5,-425.5"/>
<text text-anchor="middle" x="187" y="-432.5" font-family="Helvetica,sans-Serif" font-size="10.00">dubins.hh</text>
</g>
<!-- Node2 -->
<g id="node2" class="node"><title>Node2</title>
<g id="a_node2"><a doxygen="/local/devel/hpp/install/share/doc/hpp-util/doxygen-html/hpp-util.doxytag:../../hpp-util/doxygen-html/" xlink:href="../../hpp-util/doxygen-html/a00018.html" target="_top" xlink:title="hpp/util/debug.hh">
<polygon fill="white" stroke="black" points="141.5,-235.5 141.5,-254.5 232.5,-254.5 232.5,-235.5 141.5,-235.5"/>
<text text-anchor="middle" x="187" y="-242.5" font-family="Helvetica,sans-Serif" font-size="10.00">hpp/util/debug.hh</text>
</a>
</g>
</g>
<!-- Node1&#45;&gt;Node2 -->
<g id="edge1" class="edge"><title>Node1&#45;&gt;Node2</title>
<path fill="none" stroke="midnightblue" d="M187,-425.434C187,-396.928 187,-304.822 187,-264.826"/>
<polygon fill="midnightblue" stroke="midnightblue" points="190.5,-264.617 187,-254.617 183.5,-264.617 190.5,-264.617"/>
</g>
<!-- Node4 -->
<g id="node4" class="node"><title>Node4</title>
<g id="a_node4"><a doxygen="/local/devel/hpp/install/share/doc/hpp-util/doxygen-html/hpp-util.doxytag:../../hpp-util/doxygen-html/" xlink:href="../../hpp-util/doxygen-html/a00028.html" target="_top" xlink:title="hpp/util/pointer.hh">
<polygon fill="white" stroke="black" points="0,-0.5 0,-19.5 94,-19.5 94,-0.5 0,-0.5"/>
<text text-anchor="middle" x="47" y="-7.5" font-family="Helvetica,sans-Serif" font-size="10.00">hpp/util/pointer.hh</text>
</a>
</g>
</g>
<!-- Node1&#45;&gt;Node4 -->
<g id="edge3" class="edge"><title>Node1&#45;&gt;Node4</title>
<path fill="none" stroke="midnightblue" d="M160.528,-425.395C117.466,-409.542 37,-371.374 37,-307.5 37,-307.5 37,-307.5 37,-121 37,-88.8158 41.2982,-51.5516 44.2588,-29.7018"/>
<polygon fill="midnightblue" stroke="midnightblue" points="47.7619,-29.9245 45.6927,-19.5338 40.8305,-28.947 47.7619,-29.9245"/>
</g>
<!-- Node5 -->
<g id="node5" class="node"><title>Node5</title>
<g id="a_node5"><a xlink:href="a00001.html" target="_top" xlink:title="hpp/core/fwd.hh">
<polygon fill="white" stroke="black" points="294,-56.5 294,-75.5 380,-75.5 380,-56.5 294,-56.5"/>
<text text-anchor="middle" x="337" y="-63.5" font-family="Helvetica,sans-Serif" font-size="10.00">hpp/core/fwd.hh</text>
</a>
</g>
</g>
<!-- Node1&#45;&gt;Node5 -->
<g id="edge4" class="edge"><title>Node1&#45;&gt;Node5</title>
<path fill="none" stroke="midnightblue" d="M170.474,-425.348C139.319,-407.71 75,-364.405 75,-307.5 75,-307.5 75,-307.5 75,-182.5 75,-92.294 206.646,-71.9379 283.304,-67.7312"/>
<polygon fill="midnightblue" stroke="midnightblue" points="283.912,-71.2065 293.736,-67.2392 283.582,-64.2143 283.912,-71.2065"/>
</g>
<!-- Node12 -->
<g id="node12" class="node"><title>Node12</title>
<polygon fill="white" stroke="#bfbfbf" points="757.5,-0.5 757.5,-19.5 854.5,-19.5 854.5,-0.5 757.5,-0.5"/>
<text text-anchor="middle" x="806" y="-7.5" font-family="Helvetica,sans-Serif" font-size="10.00">hpp/core/config.hh</text>
</g>
<!-- Node1&#45;&gt;Node12 -->
<g id="edge14" class="edge"><title>Node1&#45;&gt;Node12</title>
<path fill="none" stroke="midnightblue" d="M216.684,-432.772C366.773,-426.177 1035,-392.066 1035,-307.5 1035,-307.5 1035,-307.5 1035,-121 1035,-45.4861 932.572,-21.7773 864.722,-14.356"/>
<polygon fill="midnightblue" stroke="midnightblue" points="864.864,-10.8528 854.565,-13.337 864.166,-17.8178 864.864,-10.8528"/>
</g>
<!-- Node14 -->
<g id="node14" class="node"><title>Node14</title>
<g id="a_node14"><a xlink:href="a00142.html" target="_top" xlink:title="hpp/core/steering&#45;method\l/fwd.hh">
<polygon fill="white" stroke="black" points="879.5,-291.5 879.5,-321.5 1006.5,-321.5 1006.5,-291.5 879.5,-291.5"/>
<text text-anchor="start" x="887.5" y="-309.5" font-family="Helvetica,sans-Serif" font-size="10.00">hpp/core/steering&#45;method</text>
<text text-anchor="middle" x="943" y="-298.5" font-family="Helvetica,sans-Serif" font-size="10.00">/fwd.hh</text>
</a>
</g>
</g>
<!-- Node1&#45;&gt;Node14 -->
<g id="edge15" class="edge"><title>Node1&#45;&gt;Node14</title>
<path fill="none" stroke="midnightblue" d="M216.776,-429.3C311.555,-414.293 614.71,-365.933 865,-322 866.297,-321.772 867.606,-321.541 868.925,-321.308"/>
<polygon fill="midnightblue" stroke="midnightblue" points="869.941,-324.682 879.168,-319.474 868.708,-317.791 869.941,-324.682"/>
</g>
<!-- Node15 -->
<g id="node15" class="node"><title>Node15</title>
<g id="a_node15"><a xlink:href="a00112.html" target="_top" xlink:title="hpp/core/steering&#45;method\l/car&#45;like.hh">
<polygon fill="white" stroke="black" points="197.5,-358.5 197.5,-388.5 324.5,-388.5 324.5,-358.5 197.5,-358.5"/>
<text text-anchor="start" x="205.5" y="-376.5" font-family="Helvetica,sans-Serif" font-size="10.00">hpp/core/steering&#45;method</text>
<text text-anchor="middle" x="261" y="-365.5" font-family="Helvetica,sans-Serif" font-size="10.00">/car&#45;like.hh</text>
</a>
</g>
</g>
<!-- Node1&#45;&gt;Node15 -->
<g id="edge16" class="edge"><title>Node1&#45;&gt;Node15</title>
<path fill="none" stroke="midnightblue" d="M197.602,-425.475C207.437,-417.567 222.464,-405.485 235.42,-395.067"/>
<polygon fill="midnightblue" stroke="midnightblue" points="237.96,-397.517 243.56,-388.523 233.573,-392.062 237.96,-397.517"/>
</g>
<!-- Node3 -->
<g id="node3" class="node"><title>Node3</title>
<g id="a_node3"><a doxygen="/local/devel/hpp/install/share/doc/hpp-util/doxygen-html/hpp-util.doxytag:../../hpp-util/doxygen-html/" xlink:href="../../hpp-util/doxygen-html/a00025.html" target="_top" xlink:title="hpp/util/indent.hh">
<polygon fill="white" stroke="black" points="141.5,-174 141.5,-193 232.5,-193 232.5,-174 141.5,-174"/>
<text text-anchor="middle" x="187" y="-181" font-family="Helvetica,sans-Serif" font-size="10.00">hpp/util/indent.hh</text>
</a>
</g>
</g>
<!-- Node2&#45;&gt;Node3 -->
<g id="edge2" class="edge"><title>Node2&#45;&gt;Node3</title>
<path fill="none" stroke="midnightblue" d="M187,-235.475C187,-227.08 187,-213.981 187,-203.163"/>
<polygon fill="midnightblue" stroke="midnightblue" points="190.5,-203.009 187,-193.009 183.5,-203.009 190.5,-203.009"/>
</g>
<!-- Node5&#45;&gt;Node4 -->
<g id="edge10" class="edge"><title>Node5&#45;&gt;Node4</title>
<path fill="none" stroke="midnightblue" d="M293.897,-56.974C243.097,-47.5146 158.556,-31.7726 102.797,-21.3898"/>
<polygon fill="midnightblue" stroke="midnightblue" points="103.207,-17.906 92.7351,-19.5162 101.925,-24.7877 103.207,-17.906"/>
</g>
<!-- Node6 -->
<g id="node6" class="node"><title>Node6</title>
<polygon fill="white" stroke="#bfbfbf" points="246,-0.5 246,-19.5 290,-19.5 290,-0.5 246,-0.5"/>
<text text-anchor="middle" x="268" y="-7.5" font-family="Helvetica,sans-Serif" font-size="10.00">vector</text>
</g>
<!-- Node5&#45;&gt;Node6 -->
<g id="edge5" class="edge"><title>Node5&#45;&gt;Node6</title>
<path fill="none" stroke="midnightblue" d="M325.914,-56.324C315.514,-48.1849 299.739,-35.8395 287.278,-26.0874"/>
<polygon fill="midnightblue" stroke="midnightblue" points="289.32,-23.2407 279.288,-19.8339 285.006,-28.7533 289.32,-23.2407"/>
</g>
<!-- Node7 -->
<g id="node7" class="node"><title>Node7</title>
<polygon fill="white" stroke="#bfbfbf" points="308.5,-0.5 308.5,-19.5 343.5,-19.5 343.5,-0.5 308.5,-0.5"/>
<text text-anchor="middle" x="326" y="-7.5" font-family="Helvetica,sans-Serif" font-size="10.00">map</text>
</g>
<!-- Node5&#45;&gt;Node7 -->
<g id="edge6" class="edge"><title>Node5&#45;&gt;Node7</title>
<path fill="none" stroke="midnightblue" d="M335.184,-56.083C333.726,-48.9272 331.629,-38.6353 329.807,-29.6911"/>
<polygon fill="midnightblue" stroke="midnightblue" points="333.208,-28.8512 327.783,-19.7511 326.349,-30.2485 333.208,-28.8512"/>
</g>
<!-- Node8 -->
<g id="node8" class="node"><title>Node8</title>
<polygon fill="white" stroke="#bfbfbf" points="457.5,-0.5 457.5,-19.5 500.5,-19.5 500.5,-0.5 457.5,-0.5"/>
<text text-anchor="middle" x="479" y="-7.5" font-family="Helvetica,sans-Serif" font-size="10.00">deque</text>
</g>
<!-- Node5&#45;&gt;Node8 -->
<g id="edge7" class="edge"><title>Node5&#45;&gt;Node8</title>
<path fill="none" stroke="midnightblue" d="M359.5,-56.4435C383.216,-47.4249 420.761,-33.1472 447.433,-23.0043"/>
<polygon fill="midnightblue" stroke="midnightblue" points="448.969,-26.165 457.072,-19.339 446.48,-19.6221 448.969,-26.165"/>
</g>
<!-- Node9 -->
<g id="node9" class="node"><title>Node9</title>
<polygon fill="white" stroke="#bfbfbf" points="361.5,-0.5 361.5,-19.5 390.5,-19.5 390.5,-0.5 361.5,-0.5"/>
<text text-anchor="middle" x="376" y="-7.5" font-family="Helvetica,sans-Serif" font-size="10.00">list</text>
</g>
<!-- Node5&#45;&gt;Node9 -->
<g id="edge8" class="edge"><title>Node5&#45;&gt;Node9</title>
<path fill="none" stroke="midnightblue" d="M343.44,-56.083C348.949,-48.4554 357.031,-37.2645 363.765,-27.9408"/>
<polygon fill="midnightblue" stroke="midnightblue" points="366.662,-29.9071 369.68,-19.7511 360.987,-25.8087 366.662,-29.9071"/>
</g>
<!-- Node10 -->
<g id="node10" class="node"><title>Node10</title>
<polygon fill="white" stroke="#bfbfbf" points="409,-0.5 409,-19.5 439,-19.5 439,-0.5 409,-0.5"/>
<text text-anchor="middle" x="424" y="-7.5" font-family="Helvetica,sans-Serif" font-size="10.00">set</text>
</g>
<!-- Node5&#45;&gt;Node10 -->
<g id="edge9" class="edge"><title>Node5&#45;&gt;Node10</title>
<path fill="none" stroke="midnightblue" d="M350.978,-56.324C364.55,-47.9002 385.38,-34.9709 401.325,-25.0741"/>
<polygon fill="midnightblue" stroke="midnightblue" points="403.406,-27.9019 410.057,-19.6545 399.714,-21.9544 403.406,-27.9019"/>
</g>
<!-- Node11 -->
<g id="node11" class="node"><title>Node11</title>
<g id="a_node11"><a doxygen="/local/devel/hpp/install/share/doc/hpp-constraints/doxygen-html/hpp-constraints.doxytag:../../hpp-constraints/doxygen-html/" xlink:href="../../hpp-constraints/doxygen-html/a00001.html" target="_top" xlink:title="hpp/constraints/fwd.hh">
<polygon fill="white" stroke="black" points="112,-0.5 112,-19.5 228,-19.5 228,-0.5 112,-0.5"/>
<text text-anchor="middle" x="170" y="-7.5" font-family="Helvetica,sans-Serif" font-size="10.00">hpp/constraints/fwd.hh</text>
</a>
</g>
</g>
<!-- Node5&#45;&gt;Node11 -->
<g id="edge11" class="edge"><title>Node5&#45;&gt;Node11</title>
<path fill="none" stroke="midnightblue" d="M310.538,-56.4435C282.322,-47.3196 237.46,-32.8133 206.032,-22.6509"/>
<polygon fill="midnightblue" stroke="midnightblue" points="206.93,-19.263 196.338,-19.5164 204.776,-25.9234 206.93,-19.263"/>
</g>
<!-- Node5&#45;&gt;Node12 -->
<g id="edge12" class="edge"><title>Node5&#45;&gt;Node12</title>
<path fill="none" stroke="midnightblue" d="M380.282,-60.0166C464.737,-50.2926 651.579,-28.7798 747.17,-17.7736"/>
<polygon fill="midnightblue" stroke="midnightblue" points="747.712,-21.2344 757.246,-16.6135 746.911,-14.2804 747.712,-21.2344"/>
</g>
<!-- Node13 -->
<g id="node13" class="node"><title>Node13</title>
<polygon fill="white" stroke="#bfbfbf" points="586.5,-0.5 586.5,-19.5 705.5,-19.5 705.5,-0.5 586.5,-0.5"/>
<text text-anchor="middle" x="646" y="-7.5" font-family="Helvetica,sans-Serif" font-size="10.00">hpp/core/deprecated.hh</text>
</g>
<!-- Node5&#45;&gt;Node13 -->
<g id="edge13" class="edge"><title>Node5&#45;&gt;Node13</title>
<path fill="none" stroke="midnightblue" d="M380.29,-57.4347C434.224,-48.0093 526.621,-31.8623 587.001,-21.3105"/>
<polygon fill="midnightblue" stroke="midnightblue" points="587.897,-24.7071 597.145,-19.5378 586.692,-17.8116 587.897,-24.7071"/>
</g>
<!-- Node15&#45;&gt;Node2 -->
<g id="edge17" class="edge"><title>Node15&#45;&gt;Node2</title>
<path fill="none" stroke="midnightblue" d="M252.798,-358.479C239.244,-335.309 212.197,-289.073 197.349,-263.691"/>
<polygon fill="midnightblue" stroke="midnightblue" points="200.212,-261.653 192.141,-254.789 194.169,-265.187 200.212,-261.653"/>
</g>
<!-- Node15&#45;&gt;Node4 -->
<g id="edge18" class="edge"><title>Node15&#45;&gt;Node4</title>
<path fill="none" stroke="midnightblue" d="M238.719,-358.248C209.749,-338.55 159.603,-300.261 132,-255 115.104,-227.294 113,-216.951 113,-184.5 113,-184.5 113,-184.5 113,-121 113,-82.8574 83.4604,-46.5175 63.9056,-26.6396"/>
<polygon fill="midnightblue" stroke="midnightblue" points="66.3344,-24.1194 56.7385,-19.6282 61.4392,-29.1232 66.3344,-24.1194"/>
</g>
<!-- Node15&#45;&gt;Node5 -->
<g id="edge19" class="edge"><title>Node15&#45;&gt;Node5</title>
<path fill="none" stroke="midnightblue" d="M261,-358.461C261,-335.118 261,-286.849 261,-246 261,-246 261,-246 261,-182.5 261,-140.812 295.978,-102.53 318.475,-82.2185"/>
<polygon fill="midnightblue" stroke="midnightblue" points="320.864,-84.7796 326.111,-75.5755 316.269,-79.4985 320.864,-84.7796"/>
</g>
<!-- Node15&#45;&gt;Node12 -->
<g id="edge20" class="edge"><title>Node15&#45;&gt;Node12</title>
<path fill="none" stroke="midnightblue" d="M324.681,-367.156C485.016,-352.221 898.196,-304.072 977,-199 1029.89,-128.474 896.047,-53.5115 834.743,-24.0023"/>
<polygon fill="midnightblue" stroke="midnightblue" points="836.103,-20.7739 825.566,-19.6642 833.111,-27.1024 836.103,-20.7739"/>
</g>
<!-- Node15&#45;&gt;Node14 -->
<g id="edge21" class="edge"><title>Node15&#45;&gt;Node14</title>
<path fill="none" stroke="midnightblue" d="M324.708,-369.282C435.1,-363.235 668.936,-348.353 865,-322 866.305,-321.825 867.622,-321.642 868.947,-321.453"/>
<polygon fill="midnightblue" stroke="midnightblue" points="869.871,-324.853 879.233,-319.893 868.821,-317.932 869.871,-324.853"/>
</g>
<!-- Node16 -->
<g id="node16" class="node"><title>Node16</title>
<g id="a_node16"><a xlink:href="a00203.html" target="_top" xlink:title="hpp/core/steering&#45;method.hh">
<polygon fill="white" stroke="black" points="289,-297 289,-316 429,-316 429,-297 289,-297"/>
<text text-anchor="middle" x="359" y="-304" font-family="Helvetica,sans-Serif" font-size="10.00">hpp/core/steering&#45;method.hh</text>
</a>
</g>
</g>
<!-- Node15&#45;&gt;Node16 -->
<g id="edge22" class="edge"><title>Node15&#45;&gt;Node16</title>
<path fill="none" stroke="midnightblue" d="M282.265,-358.396C298.699,-347.496 321.34,-332.479 337.766,-321.584"/>
<polygon fill="midnightblue" stroke="midnightblue" points="339.775,-324.451 346.174,-316.007 335.906,-318.618 339.775,-324.451"/>
</g>
<!-- Node16&#45;&gt;Node2 -->
<g id="edge23" class="edge"><title>Node16&#45;&gt;Node2</title>
<path fill="none" stroke="midnightblue" d="M334.357,-296.975C304.725,-286.725 254.815,-269.459 221.398,-257.899"/>
<polygon fill="midnightblue" stroke="midnightblue" points="222.192,-254.471 211.598,-254.509 219.904,-261.086 222.192,-254.471"/>
</g>
<!-- Node16&#45;&gt;Node5 -->
<g id="edge24" class="edge"><title>Node16&#45;&gt;Node5</title>
<path fill="none" stroke="midnightblue" d="M356.546,-296.74C351.561,-278.634 340.2,-235.705 334,-199 329.013,-169.478 328.558,-161.899 327,-132 326.538,-123.123 326.03,-120.836 327,-112 327.973,-103.14 329.992,-93.4716 331.963,-85.3755"/>
<polygon fill="midnightblue" stroke="midnightblue" points="335.393,-86.0919 334.518,-75.5332 328.617,-84.333 335.393,-86.0919"/>
</g>
<!-- Node17 -->
<g id="node17" class="node"><title>Node17</title>
<g id="a_node17"><a xlink:href="a00174.html" target="_top" xlink:title="hpp/core/path.hh">
<polygon fill="white" stroke="black" points="642.5,-235.5 642.5,-254.5 731.5,-254.5 731.5,-235.5 642.5,-235.5"/>
<text text-anchor="middle" x="687" y="-242.5" font-family="Helvetica,sans-Serif" font-size="10.00">hpp/core/path.hh</text>
</a>
</g>
</g>
<!-- Node16&#45;&gt;Node17 -->
<g id="edge25" class="edge"><title>Node16&#45;&gt;Node17</title>
<path fill="none" stroke="midnightblue" d="M405.994,-296.975C465.814,-286.124 568.97,-267.411 632.272,-255.928"/>
<polygon fill="midnightblue" stroke="midnightblue" points="633.244,-259.309 642.459,-254.08 631.995,-252.421 633.244,-259.309"/>
</g>
<!-- Node23 -->
<g id="node23" class="node"><title>Node23</title>
<g id="a_node23"><a xlink:href="a00184.html" target="_top" xlink:title="hpp/core/projection\l&#45;error.hh">
<polygon fill="white" stroke="black" points="869.5,-168.5 869.5,-198.5 968.5,-198.5 968.5,-168.5 869.5,-168.5"/>
<text text-anchor="start" x="877.5" y="-186.5" font-family="Helvetica,sans-Serif" font-size="10.00">hpp/core/projection</text>
<text text-anchor="middle" x="919" y="-175.5" font-family="Helvetica,sans-Serif" font-size="10.00">&#45;error.hh</text>
</a>
</g>
</g>
<!-- Node16&#45;&gt;Node23 -->
<g id="edge42" class="edge"><title>Node16&#45;&gt;Node23</title>
<path fill="none" stroke="midnightblue" d="M429.151,-301.333C506.341,-295.568 633.585,-282.568 740,-255 789.798,-242.099 844.468,-219.203 880.122,-203.008"/>
<polygon fill="midnightblue" stroke="midnightblue" points="882.026,-205.985 889.654,-198.632 879.106,-199.623 882.026,-205.985"/>
</g>
<!-- Node17&#45;&gt;Node5 -->
<g id="edge28" class="edge"><title>Node17&#45;&gt;Node5</title>
<path fill="none" stroke="midnightblue" d="M642.376,-244.32C561.515,-243.904 395.47,-238.162 356,-199 325.82,-169.056 329.16,-114.155 333.461,-85.5057"/>
<polygon fill="midnightblue" stroke="midnightblue" points="336.918,-86.0501 335.148,-75.6042 330.018,-84.8742 336.918,-86.0501"/>
</g>
<!-- Node17&#45;&gt;Node12 -->
<g id="edge29" class="edge"><title>Node17&#45;&gt;Node12</title>
<path fill="none" stroke="midnightblue" d="M727.187,-235.459C748.305,-228.932 772.874,-217.751 788,-199 828.112,-149.277 817.592,-66.3374 810.277,-29.5479"/>
<polygon fill="midnightblue" stroke="midnightblue" points="813.684,-28.7459 808.169,-19.7 806.839,-30.2111 813.684,-28.7459"/>
</g>
<!-- Node17&#45;&gt;Node13 -->
<g id="edge36" class="edge"><title>Node17&#45;&gt;Node13</title>
<path fill="none" stroke="midnightblue" d="M710.392,-235.483C727.265,-228.215 749.384,-216.188 763,-199 787.7,-167.821 801.997,-147.473 784,-112 761.871,-68.3822 711.076,-39.0768 677.673,-23.7258"/>
<polygon fill="midnightblue" stroke="midnightblue" points="678.894,-20.4387 668.333,-19.5874 676.058,-26.8386 678.894,-20.4387"/>
</g>
<!-- Node18 -->
<g id="node18" class="node"><title>Node18</title>
<polygon fill="white" stroke="#bfbfbf" points="365,-174 365,-193 493,-193 493,-174 365,-174"/>
<text text-anchor="middle" x="429" y="-181" font-family="Helvetica,sans-Serif" font-size="10.00">boost/concept_check.hpp</text>
</g>
<!-- Node17&#45;&gt;Node18 -->
<g id="edge26" class="edge"><title>Node17&#45;&gt;Node18</title>
<path fill="none" stroke="midnightblue" d="M650.035,-235.475C604.15,-224.893 525.85,-206.836 475.815,-195.297"/>
<polygon fill="midnightblue" stroke="midnightblue" points="476.427,-191.846 465.897,-193.009 474.854,-198.667 476.427,-191.846"/>
</g>
<!-- Node19 -->
<g id="node19" class="node"><title>Node19</title>
<g id="a_node19"><a doxygen="/local/devel/hpp/install/share/doc/hpp-util/doxygen-html/hpp-util.doxytag:../../hpp-util/doxygen-html/" xlink:href="../../hpp-util/doxygen-html/a00022.html" target="_top" xlink:title="hpp/util/exception.hh">
<polygon fill="white" stroke="black" points="511.5,-174 511.5,-193 618.5,-193 618.5,-174 511.5,-174"/>
<text text-anchor="middle" x="565" y="-181" font-family="Helvetica,sans-Serif" font-size="10.00">hpp/util/exception.hh</text>
</a>
</g>
</g>
<!-- Node17&#45;&gt;Node19 -->
<g id="edge27" class="edge"><title>Node17&#45;&gt;Node19</title>
<path fill="none" stroke="midnightblue" d="M669.52,-235.475C649.137,-225.534 615.225,-208.995 591.575,-197.461"/>
<polygon fill="midnightblue" stroke="midnightblue" points="592.969,-194.247 582.447,-193.009 589.901,-200.538 592.969,-194.247"/>
</g>
<!-- Node20 -->
<g id="node20" class="node"><title>Node20</title>
<g id="a_node20"><a xlink:href="a00123.html" target="_top" xlink:title="hpp/core/constraint\l&#45;set.hh">
<polygon fill="white" stroke="black" points="637,-168.5 637,-198.5 737,-198.5 737,-168.5 637,-168.5"/>
<text text-anchor="start" x="645" y="-186.5" font-family="Helvetica,sans-Serif" font-size="10.00">hpp/core/constraint</text>
<text text-anchor="middle" x="687" y="-175.5" font-family="Helvetica,sans-Serif" font-size="10.00">&#45;set.hh</text>
</a>
</g>
</g>
<!-- Node17&#45;&gt;Node20 -->
<g id="edge30" class="edge"><title>Node17&#45;&gt;Node20</title>
<path fill="none" stroke="midnightblue" d="M687,-235.475C687,-228.471 687,-218.192 687,-208.696"/>
<polygon fill="midnightblue" stroke="midnightblue" points="690.5,-208.523 687,-198.523 683.5,-208.523 690.5,-208.523"/>
</g>
<!-- Node17&#45;&gt;Node23 -->
<g id="edge37" class="edge"><title>Node17&#45;&gt;Node23</title>
<path fill="none" stroke="midnightblue" d="M720.24,-235.475C756.466,-226.184 815.162,-211.131 859.398,-199.786"/>
<polygon fill="midnightblue" stroke="midnightblue" points="860.353,-203.154 869.17,-197.28 858.614,-196.374 860.353,-203.154"/>
</g>
<!-- Node25 -->
<g id="node25" class="node"><title>Node25</title>
<g id="a_node25"><a xlink:href="a00208.html" target="_top" xlink:title="hpp/core/time&#45;parameterization.hh">
<polygon fill="white" stroke="black" points="611,-112.5 611,-131.5 775,-131.5 775,-112.5 611,-112.5"/>
<text text-anchor="middle" x="693" y="-119.5" font-family="Helvetica,sans-Serif" font-size="10.00">hpp/core/time&#45;parameterization.hh</text>
</a>
</g>
</g>
<!-- Node17&#45;&gt;Node25 -->
<g id="edge39" class="edge"><title>Node17&#45;&gt;Node25</title>
<path fill="none" stroke="midnightblue" d="M705.984,-235.398C719.886,-227.954 737.714,-215.741 746,-199 752.112,-186.652 751.786,-180.504 746,-168 740.08,-155.207 728.532,-144.722 717.722,-137.1"/>
<polygon fill="midnightblue" stroke="midnightblue" points="719.618,-134.158 709.334,-131.613 715.786,-140.016 719.618,-134.158"/>
</g>
<!-- Node20&#45;&gt;Node8 -->
<g id="edge31" class="edge"><title>Node20&#45;&gt;Node8</title>
<path fill="none" stroke="midnightblue" d="M636.92,-170.351C633.564,-169.551 630.234,-168.761 627,-168 557.317,-151.591 514.607,-187.993 470,-132 446.466,-102.459 460.312,-54.9438 470.722,-29.1225"/>
<polygon fill="midnightblue" stroke="midnightblue" points="474,-30.359 474.723,-19.7888 467.566,-27.6014 474,-30.359"/>
</g>
<!-- Node21 -->
<g id="node21" class="node"><title>Node21</title>
<g id="a_node21"><a xlink:href="a00124.html" target="_top" xlink:title="hpp/core/constraint.hh">
<polygon fill="white" stroke="black" points="479.5,-112.5 479.5,-131.5 592.5,-131.5 592.5,-112.5 479.5,-112.5"/>
<text text-anchor="middle" x="536" y="-119.5" font-family="Helvetica,sans-Serif" font-size="10.00">hpp/core/constraint.hh</text>
</a>
</g>
</g>
<!-- Node20&#45;&gt;Node21 -->
<g id="edge32" class="edge"><title>Node20&#45;&gt;Node21</title>
<path fill="none" stroke="midnightblue" d="M651.215,-168.399C625.767,-158.372 591.903,-145.028 567.482,-135.405"/>
<polygon fill="midnightblue" stroke="midnightblue" points="568.559,-132.068 557.972,-131.658 565.992,-138.58 568.559,-132.068"/>
</g>
<!-- Node21&#45;&gt;Node5 -->
<g id="edge35" class="edge"><title>Node21&#45;&gt;Node5</title>
<path fill="none" stroke="midnightblue" d="M504.468,-112.444C470.408,-103.201 415.994,-88.4356 378.485,-78.2572"/>
<polygon fill="midnightblue" stroke="midnightblue" points="378.952,-74.7575 368.385,-75.5164 377.119,-81.5132 378.952,-74.7575"/>
</g>
<!-- Node21&#45;&gt;Node12 -->
<g id="edge34" class="edge"><title>Node21&#45;&gt;Node12</title>
<path fill="none" stroke="midnightblue" d="M557.186,-112.368C604.8,-92.9703 720.411,-45.8696 775.644,-23.3673"/>
<polygon fill="midnightblue" stroke="midnightblue" points="776.972,-26.6058 784.912,-19.5914 774.33,-20.1231 776.972,-26.6058"/>
</g>
<!-- Node22 -->
<g id="node22" class="node"><title>Node22</title>
<polygon fill="white" stroke="#bfbfbf" points="510,-56.5 510,-75.5 562,-75.5 562,-56.5 510,-56.5"/>
<text text-anchor="middle" x="536" y="-63.5" font-family="Helvetica,sans-Serif" font-size="10.00">ostream</text>
</g>
<!-- Node21&#45;&gt;Node22 -->
<g id="edge33" class="edge"><title>Node21&#45;&gt;Node22</title>
<path fill="none" stroke="midnightblue" d="M536,-112.083C536,-105.006 536,-94.8611 536,-85.9865"/>
<polygon fill="midnightblue" stroke="midnightblue" points="539.5,-85.751 536,-75.7511 532.5,-85.7511 539.5,-85.751"/>
</g>
<!-- Node24 -->
<g id="node24" class="node"><title>Node24</title>
<polygon fill="white" stroke="#bfbfbf" points="889.5,-112.5 889.5,-131.5 948.5,-131.5 948.5,-112.5 889.5,-112.5"/>
<text text-anchor="middle" x="919" y="-119.5" font-family="Helvetica,sans-Serif" font-size="10.00">exception</text>
</g>
<!-- Node23&#45;&gt;Node24 -->
<g id="edge38" class="edge"><title>Node23&#45;&gt;Node24</title>
<path fill="none" stroke="midnightblue" d="M919,-168.399C919,-160.466 919,-150.458 919,-141.858"/>
<polygon fill="midnightblue" stroke="midnightblue" points="922.5,-141.658 919,-131.658 915.5,-141.658 922.5,-141.658"/>
</g>
<!-- Node25&#45;&gt;Node5 -->
<g id="edge40" class="edge"><title>Node25&#45;&gt;Node5</title>
<path fill="none" stroke="midnightblue" d="M636.591,-112.444C568.942,-102.182 456.412,-85.113 390.215,-75.0719"/>
<polygon fill="midnightblue" stroke="midnightblue" points="390.414,-71.5622 380.002,-73.5228 389.364,-78.483 390.414,-71.5622"/>
</g>
<!-- Node25&#45;&gt;Node12 -->
<g id="edge41" class="edge"><title>Node25&#45;&gt;Node12</title>
<path fill="none" stroke="midnightblue" d="M701.867,-112.368C720.845,-93.8941 765.636,-50.2926 789.827,-26.7436"/>
<polygon fill="midnightblue" stroke="midnightblue" points="792.45,-29.0747 797.174,-19.5914 787.567,-24.0588 792.45,-29.0747"/>
</g>
</g>
</svg>
