<?xml version="1.0" encoding="UTF-8" standalone="no"?>
<!DOCTYPE svg PUBLIC "-//W3C//DTD SVG 1.1//EN"
 "http://www.w3.org/Graphics/SVG/1.1/DTD/svg11.dtd">
<!-- Generated by graphviz version 2.38.0 (20140413.2041)
 -->
<!-- Title: fwd.hh Pages: 1 -->
<svg width="760pt" height="84pt"
 viewBox="0.00 0.00 759.50 84.00" xmlns="http://www.w3.org/2000/svg" xmlns:xlink="http://www.w3.org/1999/xlink">
<g id="graph0" class="graph" transform="scale(1 1) rotate(0) translate(4 80)">
<title>fwd.hh</title>
<polygon fill="white" stroke="none" points="-4,4 -4,-80 755.5,-80 755.5,4 -4,4"/>
<!-- Node1 -->
<g id="node1" class="node"><title>Node1</title>
<polygon fill="#bfbfbf" stroke="black" points="216,-56.5 216,-75.5 262,-75.5 262,-56.5 216,-56.5"/>
<text text-anchor="middle" x="239" y="-63.5" font-family="Helvetica,sans-Serif" font-size="10.00">fwd.hh</text>
</g>
<!-- Node2 -->
<g id="node2" class="node"><title>Node2</title>
<polygon fill="white" stroke="#bfbfbf" points="0,-0.5 0,-19.5 44,-19.5 44,-0.5 0,-0.5"/>
<text text-anchor="middle" x="22" y="-7.5" font-family="Helvetica,sans-Serif" font-size="10.00">vector</text>
</g>
<!-- Node1&#45;&gt;Node2 -->
<g id="edge1" class="edge"><title>Node1&#45;&gt;Node2</title>
<path fill="none" stroke="midnightblue" d="M215.717,-59.7231C182.136,-52.0357 117.945,-37.057 54.1369,-20.2172"/>
<polygon fill="midnightblue" stroke="midnightblue" points="54.8808,-16.7935 44.3174,-17.6098 53.0842,-23.5591 54.8808,-16.7935"/>
</g>
<!-- Node3 -->
<g id="node3" class="node"><title>Node3</title>
<polygon fill="white" stroke="#bfbfbf" points="62.5,-0.5 62.5,-19.5 97.5,-19.5 97.5,-0.5 62.5,-0.5"/>
<text text-anchor="middle" x="80" y="-7.5" font-family="Helvetica,sans-Serif" font-size="10.00">map</text>
</g>
<!-- Node1&#45;&gt;Node3 -->
<g id="edge2" class="edge"><title>Node1&#45;&gt;Node3</title>
<path fill="none" stroke="midnightblue" d="M215.917,-57.2446C191.193,-48.9256 150.563,-35.2216 107.2,-20.3964"/>
<polygon fill="midnightblue" stroke="midnightblue" points="108.211,-17.043 97.6164,-17.1166 105.944,-23.6659 108.211,-17.043"/>
</g>
<!-- Node4 -->
<g id="node4" class="node"><title>Node4</title>
<polygon fill="white" stroke="#bfbfbf" points="115.5,-0.5 115.5,-19.5 158.5,-19.5 158.5,-0.5 115.5,-0.5"/>
<text text-anchor="middle" x="137" y="-7.5" font-family="Helvetica,sans-Serif" font-size="10.00">deque</text>
</g>
<!-- Node1&#45;&gt;Node4 -->
<g id="edge3" class="edge"><title>Node1&#45;&gt;Node4</title>
<path fill="none" stroke="midnightblue" d="M222.612,-56.324C206.329,-47.7034 181.133,-34.3643 162.284,-24.3855"/>
<polygon fill="midnightblue" stroke="midnightblue" points="163.823,-21.2402 153.347,-19.6545 160.548,-27.4267 163.823,-21.2402"/>
</g>
<!-- Node5 -->
<g id="node5" class="node"><title>Node5</title>
<polygon fill="white" stroke="#bfbfbf" points="176.5,-0.5 176.5,-19.5 205.5,-19.5 205.5,-0.5 176.5,-0.5"/>
<text text-anchor="middle" x="191" y="-7.5" font-family="Helvetica,sans-Serif" font-size="10.00">list</text>
</g>
<!-- Node1&#45;&gt;Node5 -->
<g id="edge4" class="edge"><title>Node1&#45;&gt;Node5</title>
<path fill="none" stroke="midnightblue" d="M231.074,-56.083C224.154,-48.2982 213.935,-36.8015 205.548,-27.3665"/>
<polygon fill="midnightblue" stroke="midnightblue" points="208.038,-24.8999 198.779,-19.7511 202.806,-29.5505 208.038,-24.8999"/>
</g>
<!-- Node6 -->
<g id="node6" class="node"><title>Node6</title>
<polygon fill="white" stroke="#bfbfbf" points="224,-0.5 224,-19.5 254,-19.5 254,-0.5 224,-0.5"/>
<text text-anchor="middle" x="239" y="-7.5" font-family="Helvetica,sans-Serif" font-size="10.00">set</text>
</g>
<!-- Node1&#45;&gt;Node6 -->
<g id="edge5" class="edge"><title>Node1&#45;&gt;Node6</title>
<path fill="none" stroke="midnightblue" d="M239,-56.083C239,-49.0059 239,-38.8611 239,-29.9865"/>
<polygon fill="midnightblue" stroke="midnightblue" points="242.5,-29.751 239,-19.7511 235.5,-29.7511 242.5,-29.751"/>
</g>
<!-- Node7 -->
<g id="node7" class="node"><title>Node7</title>
<g id="a_node7"><a doxygen="/local/devel/hpp/install/share/doc/hpp-util/doxygen-html/hpp-util.doxytag:../../hpp-util/doxygen-html/" xlink:href="../../hpp-util/doxygen-html/a00028.html" target="_top" xlink:title="hpp/util/pointer.hh">
<polygon fill="white" stroke="black" points="272,-0.5 272,-19.5 366,-19.5 366,-0.5 272,-0.5"/>
<text text-anchor="middle" x="319" y="-7.5" font-family="Helvetica,sans-Serif" font-size="10.00">hpp/util/pointer.hh</text>
</a>
</g>
</g>
<!-- Node1&#45;&gt;Node7 -->
<g id="edge6" class="edge"><title>Node1&#45;&gt;Node7</title>
<path fill="none" stroke="midnightblue" d="M251.853,-56.324C264.216,-47.979 283.13,-35.2122 297.737,-25.3524"/>
<polygon fill="midnightblue" stroke="midnightblue" points="299.848,-28.1503 306.179,-19.6545 295.932,-22.3483 299.848,-28.1503"/>
</g>
<!-- Node8 -->
<g id="node8" class="node"><title>Node8</title>
<g id="a_node8"><a doxygen="/local/devel/hpp/install/share/doc/hpp-constraints/doxygen-html/hpp-constraints.doxytag:../../hpp-constraints/doxygen-html/" xlink:href="../../hpp-constraints/doxygen-html/a00001.html" target="_top" xlink:title="hpp/constraints/fwd.hh">
<polygon fill="white" stroke="black" points="384,-0.5 384,-19.5 500,-19.5 500,-0.5 384,-0.5"/>
<text text-anchor="middle" x="442" y="-7.5" font-family="Helvetica,sans-Serif" font-size="10.00">hpp/constraints/fwd.hh</text>
</a>
</g>
</g>
<!-- Node1&#45;&gt;Node8 -->
<g id="edge7" class="edge"><title>Node1&#45;&gt;Node8</title>
<path fill="none" stroke="midnightblue" d="M262.287,-58.8055C295.864,-49.8735 358.418,-33.2338 400.138,-22.1356"/>
<polygon fill="midnightblue" stroke="midnightblue" points="401.241,-25.464 410.006,-19.5108 399.442,-18.6992 401.241,-25.464"/>
</g>
<!-- Node9 -->
<g id="node9" class="node"><title>Node9</title>
<polygon fill="white" stroke="#bfbfbf" points="517.5,-0.5 517.5,-19.5 614.5,-19.5 614.5,-0.5 517.5,-0.5"/>
<text text-anchor="middle" x="566" y="-7.5" font-family="Helvetica,sans-Serif" font-size="10.00">hpp/core/config.hh</text>
</g>
<!-- Node1&#45;&gt;Node9 -->
<g id="edge8" class="edge"><title>Node1&#45;&gt;Node9</title>
<path fill="none" stroke="midnightblue" d="M262.255,-61.1597C312.841,-52.8061 434.191,-32.7667 507.277,-20.6974"/>
<polygon fill="midnightblue" stroke="midnightblue" points="507.961,-24.132 517.257,-19.0494 506.82,-17.2255 507.961,-24.132"/>
</g>
<!-- Node10 -->
<g id="node10" class="node"><title>Node10</title>
<polygon fill="white" stroke="#bfbfbf" points="632.5,-0.5 632.5,-19.5 751.5,-19.5 751.5,-0.5 632.5,-0.5"/>
<text text-anchor="middle" x="692" y="-7.5" font-family="Helvetica,sans-Serif" font-size="10.00">hpp/core/deprecated.hh</text>
</g>
<!-- Node1&#45;&gt;Node10 -->
<g id="edge9" class="edge"><title>Node1&#45;&gt;Node10</title>
<path fill="none" stroke="midnightblue" d="M262.014,-62.4338C320.37,-55.9006 479.093,-37.9677 622.039,-20.23"/>
<polygon fill="midnightblue" stroke="midnightblue" points="622.811,-23.6611 632.303,-18.9534 621.947,-16.7146 622.811,-23.6611"/>
</g>
</g>
</svg>
