<?xml version="1.0" encoding="UTF-8" standalone="no"?>
<!DOCTYPE svg PUBLIC "-//W3C//DTD SVG 1.1//EN"
 "http://www.w3.org/Graphics/SVG/1.1/DTD/svg11.dtd">
<!-- Generated by graphviz version 2.38.0 (20140413.2041)
 -->
<!-- Title: continuous&#45;validation.hh Pages: 1 -->
<svg width="1653pt" height="296pt"
 viewBox="0.00 0.00 1653.00 296.00" xmlns="http://www.w3.org/2000/svg" xmlns:xlink="http://www.w3.org/1999/xlink">
<g id="graph0" class="graph" transform="scale(1 1) rotate(0) translate(4 292)">
<title>continuous&#45;validation.hh</title>
<polygon fill="white" stroke="none" points="-4,4 -4,-292 1649,-292 1649,4 -4,4"/>
<!-- Node1 -->
<g id="node1" class="node"><title>Node1</title>
<polygon fill="#bfbfbf" stroke="black" points="313,-268.5 313,-287.5 435,-287.5 435,-268.5 313,-268.5"/>
<text text-anchor="middle" x="374" y="-275.5" font-family="Helvetica,sans-Serif" font-size="10.00">continuous&#45;validation.hh</text>
</g>
<!-- Node2 -->
<g id="node2" class="node"><title>Node2</title>
<g id="a_node2"><a doxygen="/local/devel/hpp/install/share/doc/hpp-pinocchio/doxygen-html/hpp-pinocchio.doxytag:../../hpp-pinocchio/doxygen-html/" xlink:href="../../hpp-pinocchio/doxygen-html/a00108.html" target="_top" xlink:title="hpp/pinocchio/pool.hh">
<polygon fill="white" stroke="black" points="146.5,-207 146.5,-226 257.5,-226 257.5,-207 146.5,-207"/>
<text text-anchor="middle" x="202" y="-214" font-family="Helvetica,sans-Serif" font-size="10.00">hpp/pinocchio/pool.hh</text>
</a>
</g>
</g>
<!-- Node1&#45;&gt;Node2 -->
<g id="edge1" class="edge"><title>Node1&#45;&gt;Node2</title>
<path fill="none" stroke="midnightblue" d="M349.357,-268.475C319.725,-258.225 269.815,-240.959 236.398,-229.399"/>
<polygon fill="midnightblue" stroke="midnightblue" points="237.192,-225.971 226.598,-226.009 234.904,-232.586 237.192,-225.971"/>
</g>
<!-- Node3 -->
<g id="node3" class="node"><title>Node3</title>
<g id="a_node3"><a xlink:href="a00001.html" target="_top" xlink:title="hpp/core/fwd.hh">
<polygon fill="white" stroke="black" points="326,-62 326,-81 412,-81 412,-62 326,-62"/>
<text text-anchor="middle" x="369" y="-69" font-family="Helvetica,sans-Serif" font-size="10.00">hpp/core/fwd.hh</text>
</a>
</g>
</g>
<!-- Node1&#45;&gt;Node3 -->
<g id="edge2" class="edge"><title>Node1&#45;&gt;Node3</title>
<path fill="none" stroke="midnightblue" d="M350.212,-268.499C334.279,-261.413 314.537,-249.605 305,-232 295.809,-215.032 294.374,-154.268 310,-123 317.591,-107.811 331.991,-95.345 344.665,-86.5985"/>
<polygon fill="midnightblue" stroke="midnightblue" points="346.576,-89.5306 353.058,-81.1498 342.765,-83.6593 346.576,-89.5306"/>
</g>
<!-- Node13 -->
<g id="node13" class="node"><title>Node13</title>
<g id="a_node13"><a xlink:href="a00171.html" target="_top" xlink:title="hpp/core/path&#45;validation.hh">
<polygon fill="white" stroke="black" points="452,-207 452,-226 586,-226 586,-207 452,-207"/>
<text text-anchor="middle" x="519" y="-214" font-family="Helvetica,sans-Serif" font-size="10.00">hpp/core/path&#45;validation.hh</text>
</a>
</g>
</g>
<!-- Node1&#45;&gt;Node13 -->
<g id="edge12" class="edge"><title>Node1&#45;&gt;Node13</title>
<path fill="none" stroke="midnightblue" d="M394.775,-268.475C419.432,-258.357 460.745,-241.405 488.902,-229.851"/>
<polygon fill="midnightblue" stroke="midnightblue" points="490.341,-233.043 498.264,-226.009 487.683,-226.567 490.341,-233.043"/>
</g>
<!-- Node18 -->
<g id="node18" class="node"><title>Node18</title>
<g id="a_node18"><a xlink:href="a00170.html" target="_top" xlink:title="hpp/core/path&#45;validation\l&#45;report.hh">
<polygon fill="white" stroke="black" points="314,-201.5 314,-231.5 434,-231.5 434,-201.5 314,-201.5"/>
<text text-anchor="start" x="322" y="-219.5" font-family="Helvetica,sans-Serif" font-size="10.00">hpp/core/path&#45;validation</text>
<text text-anchor="middle" x="374" y="-208.5" font-family="Helvetica,sans-Serif" font-size="10.00">&#45;report.hh</text>
</a>
</g>
</g>
<!-- Node1&#45;&gt;Node18 -->
<g id="edge21" class="edge"><title>Node1&#45;&gt;Node18</title>
<path fill="none" stroke="midnightblue" d="M374,-268.475C374,-261.471 374,-251.192 374,-241.696"/>
<polygon fill="midnightblue" stroke="midnightblue" points="377.5,-241.523 374,-231.523 370.5,-241.523 377.5,-241.523"/>
</g>
<!-- Node20 -->
<g id="node20" class="node"><title>Node20</title>
<g id="a_node20"><a xlink:href="a00153.html" target="_top" xlink:title="hpp/core/continuous\l&#45;validation/interval\l&#45;validation.hh">
<polygon fill="white" stroke="black" points="1000,-123.5 1000,-164.5 1104,-164.5 1104,-123.5 1000,-123.5"/>
<text text-anchor="start" x="1008" y="-152.5" font-family="Helvetica,sans-Serif" font-size="10.00">hpp/core/continuous</text>
<text text-anchor="start" x="1008" y="-141.5" font-family="Helvetica,sans-Serif" font-size="10.00">&#45;validation/interval</text>
<text text-anchor="middle" x="1052" y="-130.5" font-family="Helvetica,sans-Serif" font-size="10.00">&#45;validation.hh</text>
</a>
</g>
</g>
<!-- Node1&#45;&gt;Node20 -->
<g id="edge25" class="edge"><title>Node1&#45;&gt;Node20</title>
<path fill="none" stroke="midnightblue" d="M417.703,-268.491C534.556,-245.741 854.515,-183.448 990.038,-157.063"/>
<polygon fill="midnightblue" stroke="midnightblue" points="990.713,-160.498 999.86,-155.151 989.376,-153.627 990.713,-160.498"/>
</g>
<!-- Node4 -->
<g id="node4" class="node"><title>Node4</title>
<polygon fill="white" stroke="#bfbfbf" points="134,-0.5 134,-19.5 178,-19.5 178,-0.5 134,-0.5"/>
<text text-anchor="middle" x="156" y="-7.5" font-family="Helvetica,sans-Serif" font-size="10.00">vector</text>
</g>
<!-- Node3&#45;&gt;Node4 -->
<g id="edge3" class="edge"><title>Node3&#45;&gt;Node4</title>
<path fill="none" stroke="midnightblue" d="M337.73,-61.9449C303.36,-52.5151 246.265,-36.7721 187.782,-20.1986"/>
<polygon fill="midnightblue" stroke="midnightblue" points="188.582,-16.7873 178.006,-17.4239 186.671,-23.5213 188.582,-16.7873"/>
</g>
<!-- Node5 -->
<g id="node5" class="node"><title>Node5</title>
<polygon fill="white" stroke="#bfbfbf" points="196.5,-0.5 196.5,-19.5 231.5,-19.5 231.5,-0.5 196.5,-0.5"/>
<text text-anchor="middle" x="214" y="-7.5" font-family="Helvetica,sans-Serif" font-size="10.00">map</text>
</g>
<!-- Node3&#45;&gt;Node5 -->
<g id="edge4" class="edge"><title>Node3&#45;&gt;Node5</title>
<path fill="none" stroke="midnightblue" d="M346.792,-61.9751C318.966,-51.2933 271.295,-32.994 241.279,-21.4715"/>
<polygon fill="midnightblue" stroke="midnightblue" points="242.42,-18.1607 231.83,-17.8445 239.912,-24.6958 242.42,-18.1607"/>
</g>
<!-- Node6 -->
<g id="node6" class="node"><title>Node6</title>
<polygon fill="white" stroke="#bfbfbf" points="249.5,-0.5 249.5,-19.5 292.5,-19.5 292.5,-0.5 249.5,-0.5"/>
<text text-anchor="middle" x="271" y="-7.5" font-family="Helvetica,sans-Serif" font-size="10.00">deque</text>
</g>
<!-- Node3&#45;&gt;Node6 -->
<g id="edge5" class="edge"><title>Node3&#45;&gt;Node6</title>
<path fill="none" stroke="midnightblue" d="M354.959,-61.9751C338.949,-52.2548 312.55,-36.2266 293.626,-24.7372"/>
<polygon fill="midnightblue" stroke="midnightblue" points="295.379,-21.7072 285.015,-19.5091 291.746,-27.6907 295.379,-21.7072"/>
</g>
<!-- Node7 -->
<g id="node7" class="node"><title>Node7</title>
<polygon fill="white" stroke="#bfbfbf" points="310.5,-0.5 310.5,-19.5 339.5,-19.5 339.5,-0.5 310.5,-0.5"/>
<text text-anchor="middle" x="325" y="-7.5" font-family="Helvetica,sans-Serif" font-size="10.00">list</text>
</g>
<!-- Node3&#45;&gt;Node7 -->
<g id="edge6" class="edge"><title>Node3&#45;&gt;Node7</title>
<path fill="none" stroke="midnightblue" d="M362.696,-61.9751C356.096,-53.0501 345.563,-38.8071 337.307,-27.6425"/>
<polygon fill="midnightblue" stroke="midnightblue" points="340.052,-25.4684 331.292,-19.5091 334.424,-29.6305 340.052,-25.4684"/>
</g>
<!-- Node8 -->
<g id="node8" class="node"><title>Node8</title>
<polygon fill="white" stroke="#bfbfbf" points="358,-0.5 358,-19.5 388,-19.5 388,-0.5 358,-0.5"/>
<text text-anchor="middle" x="373" y="-7.5" font-family="Helvetica,sans-Serif" font-size="10.00">set</text>
</g>
<!-- Node3&#45;&gt;Node8 -->
<g id="edge7" class="edge"><title>Node3&#45;&gt;Node8</title>
<path fill="none" stroke="midnightblue" d="M369.573,-61.9751C370.137,-53.5803 371.018,-40.4806 371.745,-29.6631"/>
<polygon fill="midnightblue" stroke="midnightblue" points="375.249,-29.7214 372.428,-19.5091 368.265,-29.2518 375.249,-29.7214"/>
</g>
<!-- Node9 -->
<g id="node9" class="node"><title>Node9</title>
<g id="a_node9"><a doxygen="/local/devel/hpp/install/share/doc/hpp-util/doxygen-html/hpp-util.doxytag:../../hpp-util/doxygen-html/" xlink:href="../../hpp-util/doxygen-html/a00028.html" target="_top" xlink:title="hpp/util/pointer.hh">
<polygon fill="white" stroke="black" points="406,-0.5 406,-19.5 500,-19.5 500,-0.5 406,-0.5"/>
<text text-anchor="middle" x="453" y="-7.5" font-family="Helvetica,sans-Serif" font-size="10.00">hpp/util/pointer.hh</text>
</a>
</g>
</g>
<!-- Node3&#45;&gt;Node9 -->
<g id="edge8" class="edge"><title>Node3&#45;&gt;Node9</title>
<path fill="none" stroke="midnightblue" d="M381.035,-61.9751C394.508,-52.4315 416.566,-36.8073 432.715,-25.3683"/>
<polygon fill="midnightblue" stroke="midnightblue" points="434.85,-28.1454 440.987,-19.5091 430.804,-22.4332 434.85,-28.1454"/>
</g>
<!-- Node10 -->
<g id="node10" class="node"><title>Node10</title>
<g id="a_node10"><a doxygen="/local/devel/hpp/install/share/doc/hpp-constraints/doxygen-html/hpp-constraints.doxytag:../../hpp-constraints/doxygen-html/" xlink:href="../../hpp-constraints/doxygen-html/a00001.html" target="_top" xlink:title="hpp/constraints/fwd.hh">
<polygon fill="white" stroke="black" points="0,-0.5 0,-19.5 116,-19.5 116,-0.5 0,-0.5"/>
<text text-anchor="middle" x="58" y="-7.5" font-family="Helvetica,sans-Serif" font-size="10.00">hpp/constraints/fwd.hh</text>
</a>
</g>
</g>
<!-- Node3&#45;&gt;Node10 -->
<g id="edge9" class="edge"><title>Node3&#45;&gt;Node10</title>
<path fill="none" stroke="midnightblue" d="M325.757,-62.2268C270.141,-51.5865 173.503,-33.0978 112.796,-21.4836"/>
<polygon fill="midnightblue" stroke="midnightblue" points="113.116,-17.9813 102.636,-19.5397 111.8,-24.8566 113.116,-17.9813"/>
</g>
<!-- Node11 -->
<g id="node11" class="node"><title>Node11</title>
<polygon fill="white" stroke="#bfbfbf" points="518.5,-0.5 518.5,-19.5 615.5,-19.5 615.5,-0.5 518.5,-0.5"/>
<text text-anchor="middle" x="567" y="-7.5" font-family="Helvetica,sans-Serif" font-size="10.00">hpp/core/config.hh</text>
</g>
<!-- Node3&#45;&gt;Node11 -->
<g id="edge10" class="edge"><title>Node3&#45;&gt;Node11</title>
<path fill="none" stroke="midnightblue" d="M397.369,-61.9751C431.921,-51.592 490.424,-34.0116 528.885,-22.4538"/>
<polygon fill="midnightblue" stroke="midnightblue" points="530.114,-25.739 538.684,-19.5091 528.1,-19.0351 530.114,-25.739"/>
</g>
<!-- Node12 -->
<g id="node12" class="node"><title>Node12</title>
<polygon fill="white" stroke="#bfbfbf" points="642.5,-0.5 642.5,-19.5 761.5,-19.5 761.5,-0.5 642.5,-0.5"/>
<text text-anchor="middle" x="702" y="-7.5" font-family="Helvetica,sans-Serif" font-size="10.00">hpp/core/deprecated.hh</text>
</g>
<!-- Node3&#45;&gt;Node12 -->
<g id="edge11" class="edge"><title>Node3&#45;&gt;Node12</title>
<path fill="none" stroke="midnightblue" d="M412.193,-62.7824C471.409,-52.2016 577.969,-33.1617 644.063,-21.352"/>
<polygon fill="midnightblue" stroke="midnightblue" points="645.082,-24.7256 654.31,-19.5211 643.851,-17.8347 645.082,-24.7256"/>
</g>
<!-- Node13&#45;&gt;Node3 -->
<g id="edge13" class="edge"><title>Node13&#45;&gt;Node3</title>
<path fill="none" stroke="midnightblue" d="M510.57,-206.99C490.978,-187.234 442.768,-138.743 426,-123 413.25,-111.03 398.457,-97.9464 387.137,-88.0964"/>
<polygon fill="midnightblue" stroke="midnightblue" points="389.1,-85.1662 379.249,-81.2664 384.518,-90.4582 389.1,-85.1662"/>
</g>
<!-- Node13&#45;&gt;Node11 -->
<g id="edge14" class="edge"><title>Node13&#45;&gt;Node11</title>
<path fill="none" stroke="midnightblue" d="M514.989,-206.905C503.948,-181.896 475.678,-107.663 503,-56 510.307,-42.1833 523.976,-31.6957 536.811,-24.3359"/>
<polygon fill="midnightblue" stroke="midnightblue" points="538.702,-27.295 545.907,-19.5267 535.43,-21.1067 538.702,-27.295"/>
</g>
<!-- Node14 -->
<g id="node14" class="node"><title>Node14</title>
<g id="a_node14"><a xlink:href="a00191.html" target="_top" xlink:title="hpp/core/relative&#45;motion.hh">
<polygon fill="white" stroke="black" points="511,-134.5 511,-153.5 645,-153.5 645,-134.5 511,-134.5"/>
<text text-anchor="middle" x="578" y="-141.5" font-family="Helvetica,sans-Serif" font-size="10.00">hpp/core/relative&#45;motion.hh</text>
</a>
</g>
</g>
<!-- Node13&#45;&gt;Node14 -->
<g id="edge15" class="edge"><title>Node13&#45;&gt;Node14</title>
<path fill="none" stroke="midnightblue" d="M526.235,-206.855C535.612,-195.65 552.166,-175.87 564.031,-161.692"/>
<polygon fill="midnightblue" stroke="midnightblue" points="566.972,-163.631 570.706,-153.715 561.604,-159.138 566.972,-163.631"/>
</g>
<!-- Node14&#45;&gt;Node3 -->
<g id="edge18" class="edge"><title>Node14&#45;&gt;Node3</title>
<path fill="none" stroke="midnightblue" d="M552.79,-134.496C515.6,-121.951 445.91,-98.4432 403.851,-84.256"/>
<polygon fill="midnightblue" stroke="midnightblue" points="404.894,-80.914 394.3,-81.0341 402.656,-87.5468 404.894,-80.914"/>
</g>
<!-- Node15 -->
<g id="node15" class="node"><title>Node15</title>
<polygon fill="white" stroke="#bfbfbf" points="511.5,-62 511.5,-81 576.5,-81 576.5,-62 511.5,-62"/>
<text text-anchor="middle" x="544" y="-69" font-family="Helvetica,sans-Serif" font-size="10.00">Eigen/Core</text>
</g>
<!-- Node14&#45;&gt;Node15 -->
<g id="edge16" class="edge"><title>Node14&#45;&gt;Node15</title>
<path fill="none" stroke="midnightblue" d="M573.831,-134.355C568.58,-123.467 559.424,-104.483 552.637,-90.4091"/>
<polygon fill="midnightblue" stroke="midnightblue" points="555.7,-88.7023 548.203,-81.2154 549.395,-91.743 555.7,-88.7023"/>
</g>
<!-- Node16 -->
<g id="node16" class="node"><title>Node16</title>
<g id="a_node16"><a doxygen="/local/devel/hpp/install/share/doc/hpp-pinocchio/doxygen-html/hpp-pinocchio.doxytag:../../hpp-pinocchio/doxygen-html/" xlink:href="../../hpp-pinocchio/doxygen-html/a00098.html" target="_top" xlink:title="hpp/pinocchio/fwd.hh">
<polygon fill="white" stroke="black" points="784.5,-0.5 784.5,-19.5 893.5,-19.5 893.5,-0.5 784.5,-0.5"/>
<text text-anchor="middle" x="839" y="-7.5" font-family="Helvetica,sans-Serif" font-size="10.00">hpp/pinocchio/fwd.hh</text>
</a>
</g>
</g>
<!-- Node14&#45;&gt;Node16 -->
<g id="edge17" class="edge"><title>Node14&#45;&gt;Node16</title>
<path fill="none" stroke="midnightblue" d="M580.02,-134.491C584.677,-116.846 597.901,-76.2341 625,-56 637.24,-46.8609 718.668,-31.4276 777.454,-21.226"/>
<polygon fill="midnightblue" stroke="midnightblue" points="778.151,-24.6576 787.412,-19.5103 776.963,-17.7593 778.151,-24.6576"/>
</g>
<!-- Node17 -->
<g id="node17" class="node"><title>Node17</title>
<g id="a_node17"><a doxygen="/local/devel/hpp/install/share/doc/hpp-pinocchio/doxygen-html/hpp-pinocchio.doxytag:../../hpp-pinocchio/doxygen-html/" xlink:href="../../hpp-pinocchio/doxygen-html/a00102.html" target="_top" xlink:title="hpp/pinocchio/joint.hh">
<polygon fill="white" stroke="black" points="633.5,-62 633.5,-81 744.5,-81 744.5,-62 633.5,-62"/>
<text text-anchor="middle" x="689" y="-69" font-family="Helvetica,sans-Serif" font-size="10.00">hpp/pinocchio/joint.hh</text>
</a>
</g>
</g>
<!-- Node14&#45;&gt;Node17 -->
<g id="edge19" class="edge"><title>Node14&#45;&gt;Node17</title>
<path fill="none" stroke="midnightblue" d="M591.611,-134.355C610.335,-122.463 644.267,-100.912 666.721,-86.6505"/>
<polygon fill="midnightblue" stroke="midnightblue" points="668.713,-89.5313 675.278,-81.2154 664.96,-83.6223 668.713,-89.5313"/>
</g>
<!-- Node17&#45;&gt;Node16 -->
<g id="edge20" class="edge"><title>Node17&#45;&gt;Node16</title>
<path fill="none" stroke="midnightblue" d="M710.491,-61.9751C736.11,-51.8129 779.11,-34.7564 808.245,-23.1996"/>
<polygon fill="midnightblue" stroke="midnightblue" points="809.544,-26.4497 817.549,-19.5091 806.963,-19.9429 809.544,-26.4497"/>
</g>
<!-- Node19 -->
<g id="node19" class="node"><title>Node19</title>
<g id="a_node19"><a xlink:href="a00210.html" target="_top" xlink:title="hpp/core/validation\l&#45;report.hh">
<polygon fill="white" stroke="black" points="319,-129 319,-159 417,-159 417,-129 319,-129"/>
<text text-anchor="start" x="327" y="-147" font-family="Helvetica,sans-Serif" font-size="10.00">hpp/core/validation</text>
<text text-anchor="middle" x="368" y="-136" font-family="Helvetica,sans-Serif" font-size="10.00">&#45;report.hh</text>
</a>
</g>
</g>
<!-- Node18&#45;&gt;Node19 -->
<g id="edge22" class="edge"><title>Node18&#45;&gt;Node19</title>
<path fill="none" stroke="midnightblue" d="M372.786,-201.233C372.005,-192.06 370.971,-179.905 370.063,-169.244"/>
<polygon fill="midnightblue" stroke="midnightblue" points="373.548,-168.913 369.212,-159.246 366.573,-169.506 373.548,-168.913"/>
</g>
<!-- Node19&#45;&gt;Node3 -->
<g id="edge24" class="edge"><title>Node19&#45;&gt;Node3</title>
<path fill="none" stroke="midnightblue" d="M368.202,-128.733C368.355,-118.001 368.565,-103.187 368.731,-91.459"/>
<polygon fill="midnightblue" stroke="midnightblue" points="372.232,-91.4418 368.874,-81.3932 365.232,-91.3425 372.232,-91.4418"/>
</g>
<!-- Node19&#45;&gt;Node11 -->
<g id="edge23" class="edge"><title>Node19&#45;&gt;Node11</title>
<path fill="none" stroke="midnightblue" d="M381.7,-128.954C400.236,-110.502 434.919,-77.8814 469,-56 489.485,-42.8474 514.444,-31.4462 534.047,-23.4106"/>
<polygon fill="midnightblue" stroke="midnightblue" points="535.494,-26.6011 543.476,-19.6337 532.892,-20.1029 535.494,-26.6011"/>
</g>
<!-- Node20&#45;&gt;Node3 -->
<g id="edge38" class="edge"><title>Node20&#45;&gt;Node3</title>
<path fill="none" stroke="midnightblue" d="M999.758,-137.779C902.152,-128 685.465,-106.178 503,-87 476.427,-84.207 446.899,-81.0208 422.34,-78.3478"/>
<polygon fill="midnightblue" stroke="midnightblue" points="422.462,-74.8404 412.141,-77.2362 421.703,-81.7992 422.462,-74.8404"/>
</g>
<!-- Node20&#45;&gt;Node12 -->
<g id="edge37" class="edge"><title>Node20&#45;&gt;Node12</title>
<path fill="none" stroke="midnightblue" d="M999.985,-139.262C945.687,-133.692 859.239,-120.038 792,-87 787.857,-84.9642 744.774,-47.9823 719.751,-26.3703"/>
<polygon fill="midnightblue" stroke="midnightblue" points="721.893,-23.5956 712.039,-19.7029 717.315,-28.8909 721.893,-23.5956"/>
</g>
<!-- Node20&#45;&gt;Node17 -->
<g id="edge36" class="edge"><title>Node20&#45;&gt;Node17</title>
<path fill="none" stroke="midnightblue" d="M999.819,-133.278C941.186,-122.295 843.187,-103.764 759,-87 752.77,-85.7594 746.232,-84.4352 739.759,-83.1104"/>
<polygon fill="midnightblue" stroke="midnightblue" points="740.195,-79.6268 729.695,-81.0401 738.785,-86.4832 740.195,-79.6268"/>
</g>
<!-- Node21 -->
<g id="node21" class="node"><title>Node21</title>
<polygon fill="white" stroke="#bfbfbf" points="1311,-62 1311,-81 1351,-81 1351,-62 1311,-62"/>
<text text-anchor="middle" x="1331" y="-69" font-family="Helvetica,sans-Serif" font-size="10.00">limits</text>
</g>
<!-- Node20&#45;&gt;Node21 -->
<g id="edge26" class="edge"><title>Node20&#45;&gt;Node21</title>
<path fill="none" stroke="midnightblue" d="M1104.27,-135.107C1155.58,-126.476 1235.58,-110.643 1302,-87 1303.43,-86.4926 1304.87,-85.932 1306.32,-85.3349"/>
<polygon fill="midnightblue" stroke="midnightblue" points="1308.03,-88.3998 1315.65,-81.0425 1305.1,-82.0398 1308.03,-88.3998"/>
</g>
<!-- Node22 -->
<g id="node22" class="node"><title>Node22</title>
<polygon fill="white" stroke="#bfbfbf" points="1369.5,-62 1369.5,-81 1416.5,-81 1416.5,-62 1369.5,-62"/>
<text text-anchor="middle" x="1393" y="-69" font-family="Helvetica,sans-Serif" font-size="10.00">iterator</text>
</g>
<!-- Node20&#45;&gt;Node22 -->
<g id="edge27" class="edge"><title>Node20&#45;&gt;Node22</title>
<path fill="none" stroke="midnightblue" d="M1104.11,-137.304C1166.07,-129.671 1272.17,-113.874 1360,-87 1361.93,-86.4095 1363.9,-85.7377 1365.86,-85.0144"/>
<polygon fill="midnightblue" stroke="midnightblue" points="1367.53,-88.114 1375.48,-81.1072 1364.9,-81.6288 1367.53,-88.114"/>
</g>
<!-- Node23 -->
<g id="node23" class="node"><title>Node23</title>
<polygon fill="white" stroke="#bfbfbf" points="1435,-56.5 1435,-86.5 1539,-86.5 1539,-56.5 1435,-56.5"/>
<text text-anchor="start" x="1443" y="-74.5" font-family="Helvetica,sans-Serif" font-size="10.00">boost/icl/continuous</text>
<text text-anchor="middle" x="1487" y="-63.5" font-family="Helvetica,sans-Serif" font-size="10.00">_interval.hpp</text>
</g>
<!-- Node20&#45;&gt;Node23 -->
<g id="edge28" class="edge"><title>Node20&#45;&gt;Node23</title>
<path fill="none" stroke="midnightblue" d="M1104.27,-136.595C1174.81,-127.638 1304.56,-110.057 1424.71,-87.1548"/>
<polygon fill="midnightblue" stroke="midnightblue" points="1425.66,-90.5364 1434.82,-85.2107 1424.34,-83.6623 1425.66,-90.5364"/>
</g>
<!-- Node24 -->
<g id="node24" class="node"><title>Node24</title>
<polygon fill="white" stroke="#bfbfbf" points="1557,-56.5 1557,-86.5 1645,-86.5 1645,-56.5 1557,-56.5"/>
<text text-anchor="start" x="1565" y="-74.5" font-family="Helvetica,sans-Serif" font-size="10.00">boost/icl/interval</text>
<text text-anchor="middle" x="1601" y="-63.5" font-family="Helvetica,sans-Serif" font-size="10.00">_set.hpp</text>
</g>
<!-- Node20&#45;&gt;Node24 -->
<g id="edge29" class="edge"><title>Node20&#45;&gt;Node24</title>
<path fill="none" stroke="midnightblue" d="M1104.17,-139.774C1193.22,-133.688 1380.3,-118.381 1546.94,-87.0147"/>
<polygon fill="midnightblue" stroke="midnightblue" points="1547.71,-90.4319 1556.87,-85.1211 1546.39,-83.5557 1547.71,-90.4319"/>
</g>
<!-- Node25 -->
<g id="node25" class="node"><title>Node25</title>
<polygon fill="white" stroke="#bfbfbf" points="933,-62 933,-81 1049,-81 1049,-62 933,-62"/>
<text text-anchor="middle" x="991" y="-69" font-family="Helvetica,sans-Serif" font-size="10.00">hpp/fcl/collision_data.h</text>
</g>
<!-- Node20&#45;&gt;Node25 -->
<g id="edge30" class="edge"><title>Node20&#45;&gt;Node25</title>
<path fill="none" stroke="midnightblue" d="M1035.01,-123.362C1025.64,-112.539 1014.15,-99.2568 1005.26,-88.9795"/>
<polygon fill="midnightblue" stroke="midnightblue" points="1007.69,-86.4455 998.505,-81.1734 1002.4,-91.0257 1007.69,-86.4455"/>
</g>
<!-- Node26 -->
<g id="node26" class="node"><title>Node26</title>
<polygon fill="white" stroke="#bfbfbf" points="1067,-62 1067,-81 1159,-81 1159,-62 1067,-62"/>
<text text-anchor="middle" x="1113" y="-69" font-family="Helvetica,sans-Serif" font-size="10.00">hpp/fcl/collision.h</text>
</g>
<!-- Node20&#45;&gt;Node26 -->
<g id="edge31" class="edge"><title>Node20&#45;&gt;Node26</title>
<path fill="none" stroke="midnightblue" d="M1068.99,-123.362C1078.36,-112.539 1089.85,-99.2568 1098.74,-88.9795"/>
<polygon fill="midnightblue" stroke="midnightblue" points="1101.6,-91.0257 1105.5,-81.1734 1096.31,-86.4455 1101.6,-91.0257"/>
</g>
<!-- Node27 -->
<g id="node27" class="node"><title>Node27</title>
<g id="a_node27"><a doxygen="/local/devel/hpp/install/share/doc/hpp-pinocchio/doxygen-html/hpp-pinocchio.doxytag:../../hpp-pinocchio/doxygen-html/" xlink:href="../../hpp-pinocchio/doxygen-html/a00088.html" target="_top" xlink:title="hpp/pinocchio/body.hh">
<polygon fill="white" stroke="black" points="801,-62 801,-81 915,-81 915,-62 801,-62"/>
<text text-anchor="middle" x="858" y="-69" font-family="Helvetica,sans-Serif" font-size="10.00">hpp/pinocchio/body.hh</text>
</a>
</g>
</g>
<!-- Node20&#45;&gt;Node27 -->
<g id="edge32" class="edge"><title>Node20&#45;&gt;Node27</title>
<path fill="none" stroke="midnightblue" d="M999.756,-124.015C965.172,-111.447 920.866,-95.3457 891.07,-84.5176"/>
<polygon fill="midnightblue" stroke="midnightblue" points="892.15,-81.1863 881.556,-81.0603 889.759,-87.7654 892.15,-81.1863"/>
</g>
<!-- Node28 -->
<g id="node28" class="node"><title>Node28</title>
<g id="a_node28"><a doxygen="/local/devel/hpp/install/share/doc/hpp-pinocchio/doxygen-html/hpp-pinocchio.doxytag:../../hpp-pinocchio/doxygen-html/" xlink:href="../../hpp-pinocchio/doxygen-html/a00091.html" target="_top" xlink:title="hpp/pinocchio/collision\l&#45;object.hh">
<polygon fill="white" stroke="black" points="1177.5,-56.5 1177.5,-86.5 1292.5,-86.5 1292.5,-56.5 1177.5,-56.5"/>
<text text-anchor="start" x="1185.5" y="-74.5" font-family="Helvetica,sans-Serif" font-size="10.00">hpp/pinocchio/collision</text>
<text text-anchor="middle" x="1235" y="-63.5" font-family="Helvetica,sans-Serif" font-size="10.00">&#45;object.hh</text>
</a>
</g>
</g>
<!-- Node20&#45;&gt;Node28 -->
<g id="edge34" class="edge"><title>Node20&#45;&gt;Node28</title>
<path fill="none" stroke="midnightblue" d="M1102.98,-123.362C1129.89,-112.993 1162.67,-100.366 1188.83,-90.2876"/>
<polygon fill="midnightblue" stroke="midnightblue" points="1190.43,-93.4207 1198.5,-86.5597 1187.92,-86.8886 1190.43,-93.4207"/>
</g>
<!-- Node27&#45;&gt;Node16 -->
<g id="edge33" class="edge"><title>Node27&#45;&gt;Node16</title>
<path fill="none" stroke="midnightblue" d="M855.278,-61.9751C852.569,-53.4919 848.326,-40.2043 844.851,-29.3222"/>
<polygon fill="midnightblue" stroke="midnightblue" points="848.093,-27.9705 841.717,-19.5091 841.425,-30.0999 848.093,-27.9705"/>
</g>
<!-- Node28&#45;&gt;Node16 -->
<g id="edge35" class="edge"><title>Node28&#45;&gt;Node16</title>
<path fill="none" stroke="midnightblue" d="M1177.31,-57.7195C1174.17,-57.1151 1171.05,-56.5373 1168,-56 1076.79,-39.9171 970.489,-26.2978 903.959,-18.3839"/>
<polygon fill="midnightblue" stroke="midnightblue" points="903.973,-14.8613 893.631,-17.1632 903.151,-21.8129 903.973,-14.8613"/>
</g>
</g>
</svg>
