<?xml version="1.0" encoding="UTF-8" standalone="no"?>
<!DOCTYPE svg PUBLIC "-//W3C//DTD SVG 1.1//EN"
 "http://www.w3.org/Graphics/SVG/1.1/DTD/svg11.dtd">
<!-- Generated by graphviz version 2.38.0 (20140413.2041)
 -->
<!-- Title: configuration&#45;shooter.hh Pages: 1 -->
<svg width="176pt" height="151pt"
 viewBox="0.00 0.00 175.50 151.00" xmlns="http://www.w3.org/2000/svg" xmlns:xlink="http://www.w3.org/1999/xlink">
<g id="graph0" class="graph" transform="scale(1 1) rotate(0) translate(4 147)">
<title>configuration&#45;shooter.hh</title>
<polygon fill="white" stroke="none" points="-4,4 -4,-147 171.5,-147 171.5,4 -4,4"/>
<!-- Node1 -->
<g id="node1" class="node"><title>Node1</title>
<polygon fill="#bfbfbf" stroke="black" points="30.5,-123.5 30.5,-142.5 151.5,-142.5 151.5,-123.5 30.5,-123.5"/>
<text text-anchor="middle" x="91" y="-130.5" font-family="Helvetica,sans-Serif" font-size="10.00">configuration&#45;shooter.hh</text>
</g>
<!-- Node2 -->
<g id="node2" class="node"><title>Node2</title>
<g id="a_node2"><a xlink:href="a00209.html" target="_top" xlink:title="uniform.hh">
<polygon fill="white" stroke="black" points="18,-67.5 18,-86.5 80,-86.5 80,-67.5 18,-67.5"/>
<text text-anchor="middle" x="49" y="-74.5" font-family="Helvetica,sans-Serif" font-size="10.00">uniform.hh</text>
</a>
</g>
</g>
<!-- Node1&#45;&gt;Node2 -->
<g id="edge1" class="edge"><title>Node1&#45;&gt;Node2</title>
<path fill="none" stroke="midnightblue" d="M77.8898,-115.144C70.5722,-105.736 61.7591,-94.4046 55.8064,-86.7511"/>
<polygon fill="midnightblue" stroke="midnightblue" points="75.1624,-117.338 84.0646,-123.083 80.6878,-113.041 75.1624,-117.338"/>
</g>
<!-- Node4 -->
<g id="node4" class="node"><title>Node4</title>
<g id="a_node4"><a xlink:href="a00144.html" target="_top" xlink:title="gaussian.hh">
<polygon fill="white" stroke="black" points="98.5,-67.5 98.5,-86.5 167.5,-86.5 167.5,-67.5 98.5,-67.5"/>
<text text-anchor="middle" x="133" y="-74.5" font-family="Helvetica,sans-Serif" font-size="10.00">gaussian.hh</text>
</a>
</g>
</g>
<!-- Node1&#45;&gt;Node4 -->
<g id="edge3" class="edge"><title>Node1&#45;&gt;Node4</title>
<path fill="none" stroke="midnightblue" d="M104.11,-115.144C111.428,-105.736 120.241,-94.4046 126.194,-86.7511"/>
<polygon fill="midnightblue" stroke="midnightblue" points="101.312,-113.041 97.9354,-123.083 106.838,-117.338 101.312,-113.041"/>
</g>
<!-- Node3 -->
<g id="node3" class="node"><title>Node3</title>
<g id="a_node3"><a xlink:href="a00109.html" target="_top" xlink:title="basic&#45;configuration\l&#45;shooter.hh">
<polygon fill="white" stroke="black" points="-7.10543e-15,-0.5 -7.10543e-15,-30.5 98,-30.5 98,-0.5 -7.10543e-15,-0.5"/>
<text text-anchor="start" x="8" y="-18.5" font-family="Helvetica,sans-Serif" font-size="10.00">basic&#45;configuration</text>
<text text-anchor="middle" x="49" y="-7.5" font-family="Helvetica,sans-Serif" font-size="10.00">&#45;shooter.hh</text>
</a>
</g>
</g>
<!-- Node2&#45;&gt;Node3 -->
<g id="edge2" class="edge"><title>Node2&#45;&gt;Node3</title>
<path fill="none" stroke="midnightblue" d="M49,-57.2349C49,-48.5864 49,-38.4969 49,-30.523"/>
<polygon fill="midnightblue" stroke="midnightblue" points="45.5001,-57.4751 49,-67.4751 52.5001,-57.4751 45.5001,-57.4751"/>
</g>
</g>
</svg>
