<?xml version="1.0" encoding="UTF-8" standalone="no"?>
<!DOCTYPE svg PUBLIC "-//W3C//DTD SVG 1.1//EN"
 "http://www.w3.org/Graphics/SVG/1.1/DTD/svg11.dtd">
<!-- Generated by graphviz version 2.38.0 (20140413.2041)
 -->
<!-- Title: constant&#45;curvature.hh Pages: 1 -->
<svg width="803pt" height="330pt"
 viewBox="0.00 0.00 803.00 330.00" xmlns="http://www.w3.org/2000/svg" xmlns:xlink="http://www.w3.org/1999/xlink">
<g id="graph0" class="graph" transform="scale(1 1) rotate(0) translate(4 326)">
<title>constant&#45;curvature.hh</title>
<polygon fill="white" stroke="none" points="-4,4 -4,-326 799,-326 799,4 -4,4"/>
<!-- Node1 -->
<g id="node1" class="node"><title>Node1</title>
<polygon fill="#bfbfbf" stroke="black" points="375,-302.5 375,-321.5 486,-321.5 486,-302.5 375,-302.5"/>
<text text-anchor="middle" x="430.5" y="-309.5" font-family="Helvetica,sans-Serif" font-size="10.00">constant&#45;curvature.hh</text>
</g>
<!-- Node2 -->
<g id="node2" class="node"><title>Node2</title>
<g id="a_node2"><a xlink:href="a00001.html" target="_top" xlink:title="hpp/core/fwd.hh">
<polygon fill="white" stroke="black" points="257.5,-56.5 257.5,-75.5 343.5,-75.5 343.5,-56.5 257.5,-56.5"/>
<text text-anchor="middle" x="300.5" y="-63.5" font-family="Helvetica,sans-Serif" font-size="10.00">hpp/core/fwd.hh</text>
</a>
</g>
</g>
<!-- Node1&#45;&gt;Node2 -->
<g id="edge1" class="edge"><title>Node1&#45;&gt;Node2</title>
<path fill="none" stroke="midnightblue" d="M418.65,-302.418C407.225,-293.856 389.764,-279.995 376.5,-266 350.941,-239.032 343.407,-232.086 326.5,-199 312.3,-171.212 311.401,-162.643 305.5,-132 302.553,-116.699 301.33,-99.057 300.829,-86.0166"/>
<polygon fill="midnightblue" stroke="midnightblue" points="304.324,-85.8152 300.549,-75.9161 297.327,-86.0092 304.324,-85.8152"/>
</g>
<!-- Node12 -->
<g id="node12" class="node"><title>Node12</title>
<g id="a_node12"><a xlink:href="a00174.html" target="_top" xlink:title="hpp/core/path.hh">
<polygon fill="white" stroke="black" points="386,-241 386,-260 475,-260 475,-241 386,-241"/>
<text text-anchor="middle" x="430.5" y="-248" font-family="Helvetica,sans-Serif" font-size="10.00">hpp/core/path.hh</text>
</a>
</g>
</g>
<!-- Node1&#45;&gt;Node12 -->
<g id="edge11" class="edge"><title>Node1&#45;&gt;Node12</title>
<path fill="none" stroke="midnightblue" d="M430.5,-302.475C430.5,-294.08 430.5,-280.981 430.5,-270.163"/>
<polygon fill="midnightblue" stroke="midnightblue" points="434,-270.009 430.5,-260.009 427,-270.009 434,-270.009"/>
</g>
<!-- Node21 -->
<g id="node21" class="node"><title>Node21</title>
<g id="a_node21"><a xlink:href="a00142.html" target="_top" xlink:title="hpp/core/steering&#45;method\l/fwd.hh">
<polygon fill="white" stroke="black" points="493,-235.5 493,-265.5 620,-265.5 620,-235.5 493,-235.5"/>
<text text-anchor="start" x="501" y="-253.5" font-family="Helvetica,sans-Serif" font-size="10.00">hpp/core/steering&#45;method</text>
<text text-anchor="middle" x="556.5" y="-242.5" font-family="Helvetica,sans-Serif" font-size="10.00">/fwd.hh</text>
</a>
</g>
</g>
<!-- Node1&#45;&gt;Node21 -->
<g id="edge28" class="edge"><title>Node1&#45;&gt;Node21</title>
<path fill="none" stroke="midnightblue" d="M448.553,-302.475C466.495,-294.002 494.586,-280.737 517.614,-269.863"/>
<polygon fill="midnightblue" stroke="midnightblue" points="519.256,-272.958 526.804,-265.523 516.267,-266.628 519.256,-272.958"/>
</g>
<!-- Node3 -->
<g id="node3" class="node"><title>Node3</title>
<polygon fill="white" stroke="#bfbfbf" points="195.5,-0.5 195.5,-19.5 239.5,-19.5 239.5,-0.5 195.5,-0.5"/>
<text text-anchor="middle" x="217.5" y="-7.5" font-family="Helvetica,sans-Serif" font-size="10.00">vector</text>
</g>
<!-- Node2&#45;&gt;Node3 -->
<g id="edge2" class="edge"><title>Node2&#45;&gt;Node3</title>
<path fill="none" stroke="midnightblue" d="M287.165,-56.324C274.338,-47.979 254.715,-35.2122 239.56,-25.3524"/>
<polygon fill="midnightblue" stroke="midnightblue" points="241.093,-22.1742 230.802,-19.6545 237.276,-28.0417 241.093,-22.1742"/>
</g>
<!-- Node4 -->
<g id="node4" class="node"><title>Node4</title>
<polygon fill="white" stroke="#bfbfbf" points="258,-0.5 258,-19.5 293,-19.5 293,-0.5 258,-0.5"/>
<text text-anchor="middle" x="275.5" y="-7.5" font-family="Helvetica,sans-Serif" font-size="10.00">map</text>
</g>
<!-- Node2&#45;&gt;Node4 -->
<g id="edge3" class="edge"><title>Node2&#45;&gt;Node4</title>
<path fill="none" stroke="midnightblue" d="M296.372,-56.083C292.986,-48.77 288.084,-38.1814 283.881,-29.1034"/>
<polygon fill="midnightblue" stroke="midnightblue" points="286.929,-27.3553 279.551,-19.7511 280.577,-30.2962 286.929,-27.3553"/>
</g>
<!-- Node5 -->
<g id="node5" class="node"><title>Node5</title>
<polygon fill="white" stroke="#bfbfbf" points="0,-0.5 0,-19.5 43,-19.5 43,-0.5 0,-0.5"/>
<text text-anchor="middle" x="21.5" y="-7.5" font-family="Helvetica,sans-Serif" font-size="10.00">deque</text>
</g>
<!-- Node2&#45;&gt;Node5 -->
<g id="edge4" class="edge"><title>Node2&#45;&gt;Node5</title>
<path fill="none" stroke="midnightblue" d="M257.211,-58.5323C209.537,-51.1023 130.457,-37.875 53.0282,-19.9114"/>
<polygon fill="midnightblue" stroke="midnightblue" points="53.6404,-16.46 43.105,-17.5806 52.0397,-23.2746 53.6404,-16.46"/>
</g>
<!-- Node6 -->
<g id="node6" class="node"><title>Node6</title>
<polygon fill="white" stroke="#bfbfbf" points="311,-0.5 311,-19.5 340,-19.5 340,-0.5 311,-0.5"/>
<text text-anchor="middle" x="325.5" y="-7.5" font-family="Helvetica,sans-Serif" font-size="10.00">list</text>
</g>
<!-- Node2&#45;&gt;Node6 -->
<g id="edge5" class="edge"><title>Node2&#45;&gt;Node6</title>
<path fill="none" stroke="midnightblue" d="M304.628,-56.083C308.014,-48.77 312.916,-38.1814 317.119,-29.1034"/>
<polygon fill="midnightblue" stroke="midnightblue" points="320.423,-30.2962 321.449,-19.7511 314.071,-27.3553 320.423,-30.2962"/>
</g>
<!-- Node7 -->
<g id="node7" class="node"><title>Node7</title>
<polygon fill="white" stroke="#bfbfbf" points="358.5,-0.5 358.5,-19.5 388.5,-19.5 388.5,-0.5 358.5,-0.5"/>
<text text-anchor="middle" x="373.5" y="-7.5" font-family="Helvetica,sans-Serif" font-size="10.00">set</text>
</g>
<!-- Node2&#45;&gt;Node7 -->
<g id="edge6" class="edge"><title>Node2&#45;&gt;Node7</title>
<path fill="none" stroke="midnightblue" d="M312.229,-56.324C323.337,-48.1066 340.242,-35.6017 353.483,-25.8069"/>
<polygon fill="midnightblue" stroke="midnightblue" points="355.6,-28.5948 361.558,-19.8339 351.437,-22.9671 355.6,-28.5948"/>
</g>
<!-- Node8 -->
<g id="node8" class="node"><title>Node8</title>
<g id="a_node8"><a doxygen="/local/devel/hpp/install/share/doc/hpp-util/doxygen-html/hpp-util.doxytag:../../hpp-util/doxygen-html/" xlink:href="../../hpp-util/doxygen-html/a00028.html" target="_top" xlink:title="hpp/util/pointer.hh">
<polygon fill="white" stroke="black" points="406.5,-0.5 406.5,-19.5 500.5,-19.5 500.5,-0.5 406.5,-0.5"/>
<text text-anchor="middle" x="453.5" y="-7.5" font-family="Helvetica,sans-Serif" font-size="10.00">hpp/util/pointer.hh</text>
</a>
</g>
</g>
<!-- Node2&#45;&gt;Node8 -->
<g id="edge7" class="edge"><title>Node2&#45;&gt;Node8</title>
<path fill="none" stroke="midnightblue" d="M324.743,-56.4435C350.371,-47.3986 390.985,-33.064 419.738,-22.9158"/>
<polygon fill="midnightblue" stroke="midnightblue" points="421.105,-26.1452 429.37,-19.5164 418.775,-19.5442 421.105,-26.1452"/>
</g>
<!-- Node9 -->
<g id="node9" class="node"><title>Node9</title>
<g id="a_node9"><a doxygen="/local/devel/hpp/install/share/doc/hpp-constraints/doxygen-html/hpp-constraints.doxytag:../../hpp-constraints/doxygen-html/" xlink:href="../../hpp-constraints/doxygen-html/a00001.html" target="_top" xlink:title="hpp/constraints/fwd.hh">
<polygon fill="white" stroke="black" points="61.5,-0.5 61.5,-19.5 177.5,-19.5 177.5,-0.5 61.5,-0.5"/>
<text text-anchor="middle" x="119.5" y="-7.5" font-family="Helvetica,sans-Serif" font-size="10.00">hpp/constraints/fwd.hh</text>
</a>
</g>
</g>
<!-- Node2&#45;&gt;Node9 -->
<g id="edge8" class="edge"><title>Node2&#45;&gt;Node9</title>
<path fill="none" stroke="midnightblue" d="M271.82,-56.4435C240.973,-47.2406 191.772,-32.5617 157.671,-22.3879"/>
<polygon fill="midnightblue" stroke="midnightblue" points="158.629,-19.0215 148.046,-19.5164 156.628,-25.7293 158.629,-19.0215"/>
</g>
<!-- Node10 -->
<g id="node10" class="node"><title>Node10</title>
<polygon fill="white" stroke="#bfbfbf" points="519,-0.5 519,-19.5 616,-19.5 616,-0.5 519,-0.5"/>
<text text-anchor="middle" x="567.5" y="-7.5" font-family="Helvetica,sans-Serif" font-size="10.00">hpp/core/config.hh</text>
</g>
<!-- Node2&#45;&gt;Node10 -->
<g id="edge9" class="edge"><title>Node2&#45;&gt;Node10</title>
<path fill="none" stroke="midnightblue" d="M342.807,-56.4435C389.58,-46.9839 464.96,-31.7384 515.35,-21.5472"/>
<polygon fill="midnightblue" stroke="midnightblue" points="516.283,-24.9294 525.391,-19.5164 514.896,-18.0683 516.283,-24.9294"/>
</g>
<!-- Node11 -->
<g id="node11" class="node"><title>Node11</title>
<polygon fill="white" stroke="#bfbfbf" points="676,-0.5 676,-19.5 795,-19.5 795,-0.5 676,-0.5"/>
<text text-anchor="middle" x="735.5" y="-7.5" font-family="Helvetica,sans-Serif" font-size="10.00">hpp/core/deprecated.hh</text>
</g>
<!-- Node2&#45;&gt;Node11 -->
<g id="edge10" class="edge"><title>Node2&#45;&gt;Node11</title>
<path fill="none" stroke="midnightblue" d="M343.8,-59.6249C419.12,-50.2747 574.875,-30.9396 665.645,-19.6716"/>
<polygon fill="midnightblue" stroke="midnightblue" points="666.349,-23.1112 675.842,-18.4058 665.487,-16.1645 666.349,-23.1112"/>
</g>
<!-- Node12&#45;&gt;Node2 -->
<g id="edge14" class="edge"><title>Node12&#45;&gt;Node2</title>
<path fill="none" stroke="midnightblue" d="M410.158,-240.998C392.178,-232.602 366.273,-218.234 349.5,-199 320.412,-165.643 307.959,-113.444 303.161,-85.7389"/>
<polygon fill="midnightblue" stroke="midnightblue" points="306.608,-85.1272 301.59,-75.7959 299.693,-86.2196 306.608,-85.1272"/>
</g>
<!-- Node12&#45;&gt;Node10 -->
<g id="edge15" class="edge"><title>Node12&#45;&gt;Node10</title>
<path fill="none" stroke="midnightblue" d="M458.942,-240.985C466.844,-238.82 475.462,-236.644 483.5,-235 541.077,-223.221 706.876,-243.294 745.5,-199 804.927,-130.849 661.034,-53.7125 596.674,-23.7981"/>
<polygon fill="midnightblue" stroke="midnightblue" points="597.979,-20.5464 587.429,-19.5721 595.069,-26.9128 597.979,-20.5464"/>
</g>
<!-- Node12&#45;&gt;Node11 -->
<g id="edge22" class="edge"><title>Node12&#45;&gt;Node11</title>
<path fill="none" stroke="midnightblue" d="M458.931,-240.932C466.833,-238.767 475.454,-236.604 483.5,-235 545.672,-222.605 724.596,-246.572 766.5,-199 809.47,-150.217 768.198,-65.541 746.701,-28.8285"/>
<polygon fill="midnightblue" stroke="midnightblue" points="749.419,-26.5599 741.248,-19.8152 743.43,-30.1831 749.419,-26.5599"/>
</g>
<!-- Node13 -->
<g id="node13" class="node"><title>Node13</title>
<polygon fill="white" stroke="#bfbfbf" points="366.5,-174 366.5,-193 494.5,-193 494.5,-174 366.5,-174"/>
<text text-anchor="middle" x="430.5" y="-181" font-family="Helvetica,sans-Serif" font-size="10.00">boost/concept_check.hpp</text>
</g>
<!-- Node12&#45;&gt;Node13 -->
<g id="edge12" class="edge"><title>Node12&#45;&gt;Node13</title>
<path fill="none" stroke="midnightblue" d="M430.5,-240.734C430.5,-231.183 430.5,-215.618 430.5,-203.283"/>
<polygon fill="midnightblue" stroke="midnightblue" points="434,-203.127 430.5,-193.127 427,-203.127 434,-203.127"/>
</g>
<!-- Node14 -->
<g id="node14" class="node"><title>Node14</title>
<g id="a_node14"><a doxygen="/local/devel/hpp/install/share/doc/hpp-util/doxygen-html/hpp-util.doxytag:../../hpp-util/doxygen-html/" xlink:href="../../hpp-util/doxygen-html/a00022.html" target="_top" xlink:title="hpp/util/exception.hh">
<polygon fill="white" stroke="black" points="513,-174 513,-193 620,-193 620,-174 513,-174"/>
<text text-anchor="middle" x="566.5" y="-181" font-family="Helvetica,sans-Serif" font-size="10.00">hpp/util/exception.hh</text>
</a>
</g>
</g>
<!-- Node12&#45;&gt;Node14 -->
<g id="edge13" class="edge"><title>Node12&#45;&gt;Node14</title>
<path fill="none" stroke="midnightblue" d="M448.56,-240.869C471.727,-229.796 512.129,-210.486 539.095,-197.598"/>
<polygon fill="midnightblue" stroke="midnightblue" points="540.852,-200.637 548.366,-193.167 537.834,-194.322 540.852,-200.637"/>
</g>
<!-- Node15 -->
<g id="node15" class="node"><title>Node15</title>
<g id="a_node15"><a xlink:href="a00123.html" target="_top" xlink:title="hpp/core/constraint\l&#45;set.hh">
<polygon fill="white" stroke="black" points="127.5,-168.5 127.5,-198.5 227.5,-198.5 227.5,-168.5 127.5,-168.5"/>
<text text-anchor="start" x="135.5" y="-186.5" font-family="Helvetica,sans-Serif" font-size="10.00">hpp/core/constraint</text>
<text text-anchor="middle" x="177.5" y="-175.5" font-family="Helvetica,sans-Serif" font-size="10.00">&#45;set.hh</text>
</a>
</g>
</g>
<!-- Node12&#45;&gt;Node15 -->
<g id="edge16" class="edge"><title>Node12&#45;&gt;Node15</title>
<path fill="none" stroke="midnightblue" d="M397.165,-240.936C356.659,-230.529 287.556,-212.775 237.659,-199.956"/>
<polygon fill="midnightblue" stroke="midnightblue" points="238.506,-196.56 227.949,-197.461 236.764,-203.34 238.506,-196.56"/>
</g>
<!-- Node18 -->
<g id="node18" class="node"><title>Node18</title>
<g id="a_node18"><a xlink:href="a00184.html" target="_top" xlink:title="hpp/core/projection\l&#45;error.hh">
<polygon fill="white" stroke="black" points="638,-168.5 638,-198.5 737,-198.5 737,-168.5 638,-168.5"/>
<text text-anchor="start" x="646" y="-186.5" font-family="Helvetica,sans-Serif" font-size="10.00">hpp/core/projection</text>
<text text-anchor="middle" x="687.5" y="-175.5" font-family="Helvetica,sans-Serif" font-size="10.00">&#45;error.hh</text>
</a>
</g>
</g>
<!-- Node12&#45;&gt;Node18 -->
<g id="edge23" class="edge"><title>Node12&#45;&gt;Node18</title>
<path fill="none" stroke="midnightblue" d="M461.294,-240.939C468.567,-238.955 476.3,-236.876 483.5,-235 497.502,-231.352 572.477,-212.836 627.487,-199.277"/>
<polygon fill="midnightblue" stroke="midnightblue" points="628.635,-202.599 637.507,-196.808 626.96,-195.802 628.635,-202.599"/>
</g>
<!-- Node20 -->
<g id="node20" class="node"><title>Node20</title>
<g id="a_node20"><a xlink:href="a00208.html" target="_top" xlink:title="hpp/core/time&#45;parameterization.hh">
<polygon fill="white" stroke="black" points="328.5,-112.5 328.5,-131.5 492.5,-131.5 492.5,-112.5 328.5,-112.5"/>
<text text-anchor="middle" x="410.5" y="-119.5" font-family="Helvetica,sans-Serif" font-size="10.00">hpp/core/time&#45;parameterization.hh</text>
</a>
</g>
</g>
<!-- Node12&#45;&gt;Node20 -->
<g id="edge25" class="edge"><title>Node12&#45;&gt;Node20</title>
<path fill="none" stroke="midnightblue" d="M408.139,-240.906C390.833,-232.923 368.089,-219.201 357.5,-199 351.103,-186.797 351.714,-180.504 357.5,-168 363.42,-155.207 374.968,-144.722 385.778,-137.1"/>
<polygon fill="midnightblue" stroke="midnightblue" points="387.714,-140.016 394.166,-131.613 383.882,-134.158 387.714,-140.016"/>
</g>
<!-- Node15&#45;&gt;Node5 -->
<g id="edge17" class="edge"><title>Node15&#45;&gt;Node5</title>
<path fill="none" stroke="midnightblue" d="M156.069,-168.402C142.524,-158.954 125.077,-145.763 111.5,-132 78.5499,-98.5985 47.6273,-52.6647 32.0412,-28.1136"/>
<polygon fill="midnightblue" stroke="midnightblue" points="34.95,-26.1641 26.6761,-19.5463 29.0172,-29.8793 34.95,-26.1641"/>
</g>
<!-- Node16 -->
<g id="node16" class="node"><title>Node16</title>
<g id="a_node16"><a xlink:href="a00124.html" target="_top" xlink:title="hpp/core/constraint.hh">
<polygon fill="white" stroke="black" points="121,-112.5 121,-131.5 234,-131.5 234,-112.5 121,-112.5"/>
<text text-anchor="middle" x="177.5" y="-119.5" font-family="Helvetica,sans-Serif" font-size="10.00">hpp/core/constraint.hh</text>
</a>
</g>
</g>
<!-- Node15&#45;&gt;Node16 -->
<g id="edge18" class="edge"><title>Node15&#45;&gt;Node16</title>
<path fill="none" stroke="midnightblue" d="M177.5,-168.399C177.5,-160.466 177.5,-150.458 177.5,-141.858"/>
<polygon fill="midnightblue" stroke="midnightblue" points="181,-141.658 177.5,-131.658 174,-141.658 181,-141.658"/>
</g>
<!-- Node16&#45;&gt;Node2 -->
<g id="edge21" class="edge"><title>Node16&#45;&gt;Node2</title>
<path fill="none" stroke="midnightblue" d="M196.99,-112.444C217.142,-103.596 248.823,-89.6875 271.831,-79.5865"/>
<polygon fill="midnightblue" stroke="midnightblue" points="273.352,-82.7411 281.101,-75.5164 270.538,-76.3316 273.352,-82.7411"/>
</g>
<!-- Node16&#45;&gt;Node10 -->
<g id="edge20" class="edge"><title>Node16&#45;&gt;Node10</title>
<path fill="none" stroke="midnightblue" d="M212.478,-112.464C247.887,-103.715 304.161,-89.5156 352.5,-76 415.429,-58.405 488.092,-35.995 530.785,-22.6118"/>
<polygon fill="midnightblue" stroke="midnightblue" points="531.963,-25.9104 540.455,-19.5742 529.865,-19.2322 531.963,-25.9104"/>
</g>
<!-- Node17 -->
<g id="node17" class="node"><title>Node17</title>
<polygon fill="white" stroke="#bfbfbf" points="151.5,-56.5 151.5,-75.5 203.5,-75.5 203.5,-56.5 151.5,-56.5"/>
<text text-anchor="middle" x="177.5" y="-63.5" font-family="Helvetica,sans-Serif" font-size="10.00">ostream</text>
</g>
<!-- Node16&#45;&gt;Node17 -->
<g id="edge19" class="edge"><title>Node16&#45;&gt;Node17</title>
<path fill="none" stroke="midnightblue" d="M177.5,-112.083C177.5,-105.006 177.5,-94.8611 177.5,-85.9865"/>
<polygon fill="midnightblue" stroke="midnightblue" points="181,-85.751 177.5,-75.7511 174,-85.7511 181,-85.751"/>
</g>
<!-- Node19 -->
<g id="node19" class="node"><title>Node19</title>
<polygon fill="white" stroke="#bfbfbf" points="658,-112.5 658,-131.5 717,-131.5 717,-112.5 658,-112.5"/>
<text text-anchor="middle" x="687.5" y="-119.5" font-family="Helvetica,sans-Serif" font-size="10.00">exception</text>
</g>
<!-- Node18&#45;&gt;Node19 -->
<g id="edge24" class="edge"><title>Node18&#45;&gt;Node19</title>
<path fill="none" stroke="midnightblue" d="M687.5,-168.399C687.5,-160.466 687.5,-150.458 687.5,-141.858"/>
<polygon fill="midnightblue" stroke="midnightblue" points="691,-141.658 687.5,-131.658 684,-141.658 691,-141.658"/>
</g>
<!-- Node20&#45;&gt;Node2 -->
<g id="edge26" class="edge"><title>Node20&#45;&gt;Node2</title>
<path fill="none" stroke="midnightblue" d="M392.827,-112.324C375.106,-103.625 347.597,-90.1202 327.212,-80.113"/>
<polygon fill="midnightblue" stroke="midnightblue" points="328.649,-76.9195 318.13,-75.6545 325.564,-83.2031 328.649,-76.9195"/>
</g>
<!-- Node20&#45;&gt;Node10 -->
<g id="edge27" class="edge"><title>Node20&#45;&gt;Node10</title>
<path fill="none" stroke="midnightblue" d="M422.82,-112.368C449.646,-93.5728 513.594,-48.7684 546.757,-25.5334"/>
<polygon fill="midnightblue" stroke="midnightblue" points="549.056,-28.196 555.238,-19.5914 545.039,-22.4631 549.056,-28.196"/>
</g>
</g>
</svg>
