<?xml version="1.0" encoding="UTF-8" standalone="no"?>
<!DOCTYPE svg PUBLIC "-//W3C//DTD SVG 1.1//EN"
 "http://www.w3.org/Graphics/SVG/1.1/DTD/svg11.dtd">
<!-- Generated by graphviz version 2.38.0 (20140413.2041)
 -->
<!-- Title: config&#45;validations.hh Pages: 1 -->
<svg width="888pt" height="263pt"
 viewBox="0.00 0.00 888.00 263.00" xmlns="http://www.w3.org/2000/svg" xmlns:xlink="http://www.w3.org/1999/xlink">
<g id="graph0" class="graph" transform="scale(1 1) rotate(0) translate(4 259)">
<title>config&#45;validations.hh</title>
<polygon fill="white" stroke="none" points="-4,4 -4,-259 884,-259 884,4 -4,4"/>
<!-- Node1 -->
<g id="node1" class="node"><title>Node1</title>
<polygon fill="#bfbfbf" stroke="black" points="548.5,-235.5 548.5,-254.5 654.5,-254.5 654.5,-235.5 548.5,-235.5"/>
<text text-anchor="middle" x="601.5" y="-242.5" font-family="Helvetica,sans-Serif" font-size="10.00">config&#45;validations.hh</text>
</g>
<!-- Node2 -->
<g id="node2" class="node"><title>Node2</title>
<g id="a_node2"><a xlink:href="a00118.html" target="_top" xlink:title="hpp/core/config&#45;validation.hh">
<polygon fill="white" stroke="black" points="531,-179.5 531,-198.5 672,-198.5 672,-179.5 531,-179.5"/>
<text text-anchor="middle" x="601.5" y="-186.5" font-family="Helvetica,sans-Serif" font-size="10.00">hpp/core/config&#45;validation.hh</text>
</a>
</g>
</g>
<!-- Node1&#45;&gt;Node2 -->
<g id="edge1" class="edge"><title>Node1&#45;&gt;Node2</title>
<path fill="none" stroke="midnightblue" d="M601.5,-235.083C601.5,-228.006 601.5,-217.861 601.5,-208.986"/>
<polygon fill="midnightblue" stroke="midnightblue" points="605,-208.751 601.5,-198.751 598,-208.751 605,-208.751"/>
</g>
<!-- Node3 -->
<g id="node3" class="node"><title>Node3</title>
<g id="a_node3"><a xlink:href="a00210.html" target="_top" xlink:title="hpp/core/validation\l&#45;report.hh">
<polygon fill="white" stroke="black" points="330.5,-112.5 330.5,-142.5 428.5,-142.5 428.5,-112.5 330.5,-112.5"/>
<text text-anchor="start" x="338.5" y="-130.5" font-family="Helvetica,sans-Serif" font-size="10.00">hpp/core/validation</text>
<text text-anchor="middle" x="379.5" y="-119.5" font-family="Helvetica,sans-Serif" font-size="10.00">&#45;report.hh</text>
</a>
</g>
</g>
<!-- Node2&#45;&gt;Node3 -->
<g id="edge2" class="edge"><title>Node2&#45;&gt;Node3</title>
<path fill="none" stroke="midnightblue" d="M569.693,-179.475C535.618,-170.342 480.766,-155.641 438.705,-144.368"/>
<polygon fill="midnightblue" stroke="midnightblue" points="439.418,-140.936 428.853,-141.727 437.606,-147.697 439.418,-140.936"/>
</g>
<!-- Node13 -->
<g id="node13" class="node"><title>Node13</title>
<polygon fill="white" stroke="#bfbfbf" points="633,-0.5 633,-19.5 752,-19.5 752,-0.5 633,-0.5"/>
<text text-anchor="middle" x="692.5" y="-7.5" font-family="Helvetica,sans-Serif" font-size="10.00">hpp/core/deprecated.hh</text>
</g>
<!-- Node2&#45;&gt;Node13 -->
<g id="edge20" class="edge"><title>Node2&#45;&gt;Node13</title>
<path fill="none" stroke="midnightblue" d="M601.992,-179.189C603.622,-156.768 610.412,-96.4654 637.5,-56 645.731,-43.7036 658.322,-33.0517 669.381,-25.2024"/>
<polygon fill="midnightblue" stroke="midnightblue" points="671.467,-28.0174 677.809,-19.5304 667.558,-22.2101 671.467,-28.0174"/>
</g>
<!-- Node14 -->
<g id="node14" class="node"><title>Node14</title>
<g id="a_node14"><a xlink:href="a00191.html" target="_top" xlink:title="hpp/core/relative&#45;motion.hh">
<polygon fill="white" stroke="black" points="629.5,-118 629.5,-137 763.5,-137 763.5,-118 629.5,-118"/>
<text text-anchor="middle" x="696.5" y="-125" font-family="Helvetica,sans-Serif" font-size="10.00">hpp/core/relative&#45;motion.hh</text>
</a>
</g>
</g>
<!-- Node2&#45;&gt;Node14 -->
<g id="edge14" class="edge"><title>Node2&#45;&gt;Node14</title>
<path fill="none" stroke="midnightblue" d="M615.111,-179.475C630.561,-169.799 655.99,-153.872 674.316,-142.394"/>
<polygon fill="midnightblue" stroke="midnightblue" points="676.297,-145.283 682.914,-137.009 672.581,-139.351 676.297,-145.283"/>
</g>
<!-- Node4 -->
<g id="node4" class="node"><title>Node4</title>
<polygon fill="white" stroke="#bfbfbf" points="0,-0.5 0,-19.5 97,-19.5 97,-0.5 0,-0.5"/>
<text text-anchor="middle" x="48.5" y="-7.5" font-family="Helvetica,sans-Serif" font-size="10.00">hpp/core/config.hh</text>
</g>
<!-- Node3&#45;&gt;Node4 -->
<g id="edge3" class="edge"><title>Node3&#45;&gt;Node4</title>
<path fill="none" stroke="midnightblue" d="M339.244,-112.453C273.473,-89.5026 144.149,-44.376 82.6059,-22.901"/>
<polygon fill="midnightblue" stroke="midnightblue" points="83.5753,-19.5324 72.9805,-19.5423 81.269,-26.1415 83.5753,-19.5324"/>
</g>
<!-- Node5 -->
<g id="node5" class="node"><title>Node5</title>
<g id="a_node5"><a xlink:href="a00001.html" target="_top" xlink:title="hpp/core/fwd.hh">
<polygon fill="white" stroke="black" points="336.5,-56.5 336.5,-75.5 422.5,-75.5 422.5,-56.5 336.5,-56.5"/>
<text text-anchor="middle" x="379.5" y="-63.5" font-family="Helvetica,sans-Serif" font-size="10.00">hpp/core/fwd.hh</text>
</a>
</g>
</g>
<!-- Node3&#45;&gt;Node5 -->
<g id="edge4" class="edge"><title>Node3&#45;&gt;Node5</title>
<path fill="none" stroke="midnightblue" d="M379.5,-112.399C379.5,-104.466 379.5,-94.458 379.5,-85.8583"/>
<polygon fill="midnightblue" stroke="midnightblue" points="383,-85.6577 379.5,-75.6578 376,-85.6578 383,-85.6577"/>
</g>
<!-- Node5&#45;&gt;Node4 -->
<g id="edge12" class="edge"><title>Node5&#45;&gt;Node4</title>
<path fill="none" stroke="midnightblue" d="M336.228,-57.9404C277.676,-48.3883 173.01,-31.3128 107.352,-20.6012"/>
<polygon fill="midnightblue" stroke="midnightblue" points="107.595,-17.0948 97.1623,-18.9389 106.468,-24.0034 107.595,-17.0948"/>
</g>
<!-- Node6 -->
<g id="node6" class="node"><title>Node6</title>
<polygon fill="white" stroke="#bfbfbf" points="517.5,-0.5 517.5,-19.5 561.5,-19.5 561.5,-0.5 517.5,-0.5"/>
<text text-anchor="middle" x="539.5" y="-7.5" font-family="Helvetica,sans-Serif" font-size="10.00">vector</text>
</g>
<!-- Node5&#45;&gt;Node6 -->
<g id="edge5" class="edge"><title>Node5&#45;&gt;Node6</title>
<path fill="none" stroke="midnightblue" d="M404.852,-56.4435C432.719,-47.0385 477.532,-31.9142 507.725,-21.7242"/>
<polygon fill="midnightblue" stroke="midnightblue" points="509.002,-24.9871 517.358,-18.473 506.764,-18.3546 509.002,-24.9871"/>
</g>
<!-- Node7 -->
<g id="node7" class="node"><title>Node7</title>
<polygon fill="white" stroke="#bfbfbf" points="580,-0.5 580,-19.5 615,-19.5 615,-0.5 580,-0.5"/>
<text text-anchor="middle" x="597.5" y="-7.5" font-family="Helvetica,sans-Serif" font-size="10.00">map</text>
</g>
<!-- Node5&#45;&gt;Node7 -->
<g id="edge6" class="edge"><title>Node5&#45;&gt;Node7</title>
<path fill="none" stroke="midnightblue" d="M420.387,-56.4882C457.124,-48.591 512.715,-36.0274 569.913,-19.9601"/>
<polygon fill="midnightblue" stroke="midnightblue" points="571.189,-23.236 579.852,-17.1366 569.276,-16.5024 571.189,-23.236"/>
</g>
<!-- Node8 -->
<g id="node8" class="node"><title>Node8</title>
<polygon fill="white" stroke="#bfbfbf" points="115,-0.5 115,-19.5 158,-19.5 158,-0.5 115,-0.5"/>
<text text-anchor="middle" x="136.5" y="-7.5" font-family="Helvetica,sans-Serif" font-size="10.00">deque</text>
</g>
<!-- Node5&#45;&gt;Node8 -->
<g id="edge7" class="edge"><title>Node5&#45;&gt;Node8</title>
<path fill="none" stroke="midnightblue" d="M336.42,-56.9915C295.331,-49.1097 231.523,-36.2391 167.869,-20.2"/>
<polygon fill="midnightblue" stroke="midnightblue" points="168.625,-16.7808 158.07,-17.705 166.897,-23.5643 168.625,-16.7808"/>
</g>
<!-- Node9 -->
<g id="node9" class="node"><title>Node9</title>
<polygon fill="white" stroke="#bfbfbf" points="176,-0.5 176,-19.5 205,-19.5 205,-0.5 176,-0.5"/>
<text text-anchor="middle" x="190.5" y="-7.5" font-family="Helvetica,sans-Serif" font-size="10.00">list</text>
</g>
<!-- Node5&#45;&gt;Node9 -->
<g id="edge8" class="edge"><title>Node5&#45;&gt;Node9</title>
<path fill="none" stroke="midnightblue" d="M344.459,-56.4459C312.901,-48.521 265.089,-35.9693 214.881,-19.8905"/>
<polygon fill="midnightblue" stroke="midnightblue" points="215.739,-16.4895 205.147,-16.738 213.583,-23.149 215.739,-16.4895"/>
</g>
<!-- Node10 -->
<g id="node10" class="node"><title>Node10</title>
<polygon fill="white" stroke="#bfbfbf" points="223.5,-0.5 223.5,-19.5 253.5,-19.5 253.5,-0.5 223.5,-0.5"/>
<text text-anchor="middle" x="238.5" y="-7.5" font-family="Helvetica,sans-Serif" font-size="10.00">set</text>
</g>
<!-- Node5&#45;&gt;Node10 -->
<g id="edge9" class="edge"><title>Node5&#45;&gt;Node10</title>
<path fill="none" stroke="midnightblue" d="M357.158,-56.4435C331.544,-46.6337 289.683,-30.6019 263.141,-20.4369"/>
<polygon fill="midnightblue" stroke="midnightblue" points="264.375,-17.1616 253.784,-16.8536 261.871,-23.6986 264.375,-17.1616"/>
</g>
<!-- Node11 -->
<g id="node11" class="node"><title>Node11</title>
<g id="a_node11"><a doxygen="/local/devel/hpp/install/share/doc/hpp-util/doxygen-html/hpp-util.doxytag:../../hpp-util/doxygen-html/" xlink:href="../../hpp-util/doxygen-html/a00028.html" target="_top" xlink:title="hpp/util/pointer.hh">
<polygon fill="white" stroke="black" points="271.5,-0.5 271.5,-19.5 365.5,-19.5 365.5,-0.5 271.5,-0.5"/>
<text text-anchor="middle" x="318.5" y="-7.5" font-family="Helvetica,sans-Serif" font-size="10.00">hpp/util/pointer.hh</text>
</a>
</g>
</g>
<!-- Node5&#45;&gt;Node11 -->
<g id="edge10" class="edge"><title>Node5&#45;&gt;Node11</title>
<path fill="none" stroke="midnightblue" d="M369.699,-56.324C360.682,-48.3414 347.094,-36.3128 336.182,-26.6529"/>
<polygon fill="midnightblue" stroke="midnightblue" points="338.287,-23.8416 328.479,-19.8339 333.647,-29.083 338.287,-23.8416"/>
</g>
<!-- Node12 -->
<g id="node12" class="node"><title>Node12</title>
<g id="a_node12"><a doxygen="/local/devel/hpp/install/share/doc/hpp-constraints/doxygen-html/hpp-constraints.doxytag:../../hpp-constraints/doxygen-html/" xlink:href="../../hpp-constraints/doxygen-html/a00001.html" target="_top" xlink:title="hpp/constraints/fwd.hh">
<polygon fill="white" stroke="black" points="383.5,-0.5 383.5,-19.5 499.5,-19.5 499.5,-0.5 383.5,-0.5"/>
<text text-anchor="middle" x="441.5" y="-7.5" font-family="Helvetica,sans-Serif" font-size="10.00">hpp/constraints/fwd.hh</text>
</a>
</g>
</g>
<!-- Node5&#45;&gt;Node12 -->
<g id="edge11" class="edge"><title>Node5&#45;&gt;Node12</title>
<path fill="none" stroke="midnightblue" d="M389.461,-56.324C398.627,-48.3414 412.437,-36.3128 423.528,-26.6529"/>
<polygon fill="midnightblue" stroke="midnightblue" points="426.115,-29.041 431.357,-19.8339 421.518,-23.7624 426.115,-29.041"/>
</g>
<!-- Node5&#45;&gt;Node13 -->
<g id="edge13" class="edge"><title>Node5&#45;&gt;Node13</title>
<path fill="none" stroke="midnightblue" d="M422.693,-57.5482C477.34,-48.1202 571.716,-31.8381 633.115,-21.2454"/>
<polygon fill="midnightblue" stroke="midnightblue" points="633.791,-24.6806 643.05,-19.5313 632.6,-17.7825 633.791,-24.6806"/>
</g>
<!-- Node14&#45;&gt;Node5 -->
<g id="edge17" class="edge"><title>Node14&#45;&gt;Node5</title>
<path fill="none" stroke="midnightblue" d="M651.082,-117.975C593.268,-107.124 493.572,-88.4109 432.393,-76.9278"/>
<polygon fill="midnightblue" stroke="midnightblue" points="433.021,-73.4847 422.547,-75.0798 431.73,-80.3646 433.021,-73.4847"/>
</g>
<!-- Node15 -->
<g id="node15" class="node"><title>Node15</title>
<polygon fill="white" stroke="#bfbfbf" points="647,-56.5 647,-75.5 712,-75.5 712,-56.5 647,-56.5"/>
<text text-anchor="middle" x="679.5" y="-63.5" font-family="Helvetica,sans-Serif" font-size="10.00">Eigen/Core</text>
</g>
<!-- Node14&#45;&gt;Node15 -->
<g id="edge15" class="edge"><title>Node14&#45;&gt;Node15</title>
<path fill="none" stroke="midnightblue" d="M694.064,-117.975C691.641,-109.492 687.844,-96.2043 684.735,-85.3222"/>
<polygon fill="midnightblue" stroke="midnightblue" points="688.044,-84.1628 681.931,-75.5091 681.313,-86.0859 688.044,-84.1628"/>
</g>
<!-- Node16 -->
<g id="node16" class="node"><title>Node16</title>
<g id="a_node16"><a doxygen="/local/devel/hpp/install/share/doc/hpp-pinocchio/doxygen-html/hpp-pinocchio.doxytag:../../hpp-pinocchio/doxygen-html/" xlink:href="../../hpp-pinocchio/doxygen-html/a00098.html" target="_top" xlink:title="hpp/pinocchio/fwd.hh">
<polygon fill="white" stroke="black" points="770,-0.5 770,-19.5 879,-19.5 879,-0.5 770,-0.5"/>
<text text-anchor="middle" x="824.5" y="-7.5" font-family="Helvetica,sans-Serif" font-size="10.00">hpp/pinocchio/fwd.hh</text>
</a>
</g>
</g>
<!-- Node14&#45;&gt;Node16 -->
<g id="edge16" class="edge"><title>Node14&#45;&gt;Node16</title>
<path fill="none" stroke="midnightblue" d="M703.429,-117.684C714.611,-103.744 737.698,-76.1305 760.5,-56 773.364,-44.6431 789.118,-33.536 801.777,-25.1981"/>
<polygon fill="midnightblue" stroke="midnightblue" points="803.861,-28.0186 810.361,-19.6523 800.062,-22.1387 803.861,-28.0186"/>
</g>
<!-- Node17 -->
<g id="node17" class="node"><title>Node17</title>
<g id="a_node17"><a doxygen="/local/devel/hpp/install/share/doc/hpp-pinocchio/doxygen-html/hpp-pinocchio.doxytag:../../hpp-pinocchio/doxygen-html/" xlink:href="../../hpp-pinocchio/doxygen-html/a00102.html" target="_top" xlink:title="hpp/pinocchio/joint.hh">
<polygon fill="white" stroke="black" points="769,-56.5 769,-75.5 880,-75.5 880,-56.5 769,-56.5"/>
<text text-anchor="middle" x="824.5" y="-63.5" font-family="Helvetica,sans-Serif" font-size="10.00">hpp/pinocchio/joint.hh</text>
</a>
</g>
</g>
<!-- Node14&#45;&gt;Node17 -->
<g id="edge18" class="edge"><title>Node14&#45;&gt;Node17</title>
<path fill="none" stroke="midnightblue" d="M714.839,-117.975C736.321,-107.99 772.122,-91.3476 796.948,-79.8075"/>
<polygon fill="midnightblue" stroke="midnightblue" points="798.602,-82.8983 806.195,-75.5091 795.651,-76.5506 798.602,-82.8983"/>
</g>
<!-- Node17&#45;&gt;Node16 -->
<g id="edge19" class="edge"><title>Node17&#45;&gt;Node16</title>
<path fill="none" stroke="midnightblue" d="M824.5,-56.083C824.5,-49.0059 824.5,-38.8611 824.5,-29.9865"/>
<polygon fill="midnightblue" stroke="midnightblue" points="828,-29.751 824.5,-19.7511 821,-29.7511 828,-29.751"/>
</g>
</g>
</svg>
