<?xml version="1.0" encoding="UTF-8" standalone="no"?>
<!DOCTYPE svg PUBLIC "-//W3C//DTD SVG 1.1//EN"
 "http://www.w3.org/Graphics/SVG/1.1/DTD/svg11.dtd">
<!-- Generated by graphviz version 2.38.0 (20140413.2041)
 -->
<!-- Title: collision&#45;path&#45;validation&#45;report.hh Pages: 1 -->
<svg width="760pt" height="285pt"
 viewBox="0.00 0.00 760.00 285.00" xmlns="http://www.w3.org/2000/svg" xmlns:xlink="http://www.w3.org/1999/xlink">
<g id="graph0" class="graph" transform="scale(1 1) rotate(0) translate(4 281)">
<title>collision&#45;path&#45;validation&#45;report.hh</title>
<polygon fill="white" stroke="none" points="-4,4 -4,-281 756,-281 756,4 -4,4"/>
<!-- Node1 -->
<g id="node1" class="node"><title>Node1</title>
<polygon fill="#bfbfbf" stroke="black" points="277.5,-246.5 277.5,-276.5 395.5,-276.5 395.5,-246.5 277.5,-246.5"/>
<text text-anchor="start" x="285.5" y="-264.5" font-family="Helvetica,sans-Serif" font-size="10.00">collision&#45;path&#45;validation</text>
<text text-anchor="middle" x="336.5" y="-253.5" font-family="Helvetica,sans-Serif" font-size="10.00">&#45;report.hh</text>
</g>
<!-- Node2 -->
<g id="node2" class="node"><title>Node2</title>
<g id="a_node2"><a xlink:href="a00170.html" target="_top" xlink:title="hpp/core/path&#45;validation\l&#45;report.hh">
<polygon fill="white" stroke="black" points="212.5,-179.5 212.5,-209.5 332.5,-209.5 332.5,-179.5 212.5,-179.5"/>
<text text-anchor="start" x="220.5" y="-197.5" font-family="Helvetica,sans-Serif" font-size="10.00">hpp/core/path&#45;validation</text>
<text text-anchor="middle" x="272.5" y="-186.5" font-family="Helvetica,sans-Serif" font-size="10.00">&#45;report.hh</text>
</a>
</g>
</g>
<!-- Node1&#45;&gt;Node2 -->
<g id="edge1" class="edge"><title>Node1&#45;&gt;Node2</title>
<path fill="none" stroke="midnightblue" d="M322.613,-246.396C314.142,-237.793 303.147,-226.626 293.615,-216.945"/>
<polygon fill="midnightblue" stroke="midnightblue" points="295.87,-214.247 286.36,-209.577 290.882,-219.158 295.87,-214.247"/>
</g>
<!-- Node14 -->
<g id="node14" class="node"><title>Node14</title>
<g id="a_node14"><a xlink:href="a00114.html" target="_top" xlink:title="hpp/core/collision\l&#45;validation&#45;report.hh">
<polygon fill="white" stroke="black" points="350.5,-179.5 350.5,-209.5 452.5,-209.5 452.5,-179.5 350.5,-179.5"/>
<text text-anchor="start" x="358.5" y="-197.5" font-family="Helvetica,sans-Serif" font-size="10.00">hpp/core/collision</text>
<text text-anchor="middle" x="401.5" y="-186.5" font-family="Helvetica,sans-Serif" font-size="10.00">&#45;validation&#45;report.hh</text>
</a>
</g>
</g>
<!-- Node1&#45;&gt;Node14 -->
<g id="edge14" class="edge"><title>Node1&#45;&gt;Node14</title>
<path fill="none" stroke="midnightblue" d="M350.604,-246.396C359.292,-237.708 370.595,-226.405 380.342,-216.658"/>
<polygon fill="midnightblue" stroke="midnightblue" points="382.827,-219.122 387.423,-209.577 377.878,-214.173 382.827,-219.122"/>
</g>
<!-- Node3 -->
<g id="node3" class="node"><title>Node3</title>
<g id="a_node3"><a xlink:href="a00210.html" target="_top" xlink:title="hpp/core/validation\l&#45;report.hh">
<polygon fill="white" stroke="black" points="224.5,-112.5 224.5,-142.5 322.5,-142.5 322.5,-112.5 224.5,-112.5"/>
<text text-anchor="start" x="232.5" y="-130.5" font-family="Helvetica,sans-Serif" font-size="10.00">hpp/core/validation</text>
<text text-anchor="middle" x="273.5" y="-119.5" font-family="Helvetica,sans-Serif" font-size="10.00">&#45;report.hh</text>
</a>
</g>
</g>
<!-- Node2&#45;&gt;Node3 -->
<g id="edge2" class="edge"><title>Node2&#45;&gt;Node3</title>
<path fill="none" stroke="midnightblue" d="M272.717,-179.396C272.836,-171.645 272.988,-161.812 273.125,-152.86"/>
<polygon fill="midnightblue" stroke="midnightblue" points="276.629,-152.629 273.283,-142.577 269.63,-152.521 276.629,-152.629"/>
</g>
<!-- Node4 -->
<g id="node4" class="node"><title>Node4</title>
<polygon fill="white" stroke="#bfbfbf" points="0,-0.5 0,-19.5 97,-19.5 97,-0.5 0,-0.5"/>
<text text-anchor="middle" x="48.5" y="-7.5" font-family="Helvetica,sans-Serif" font-size="10.00">hpp/core/config.hh</text>
</g>
<!-- Node3&#45;&gt;Node4 -->
<g id="edge3" class="edge"><title>Node3&#45;&gt;Node4</title>
<path fill="none" stroke="midnightblue" d="M245.911,-112.337C201.945,-89.7684 116.615,-45.9656 74.0011,-24.0906"/>
<polygon fill="midnightblue" stroke="midnightblue" points="75.5966,-20.9754 65.1019,-19.5223 72.3998,-27.2028 75.5966,-20.9754"/>
</g>
<!-- Node5 -->
<g id="node5" class="node"><title>Node5</title>
<g id="a_node5"><a xlink:href="a00001.html" target="_top" xlink:title="hpp/core/fwd.hh">
<polygon fill="white" stroke="black" points="235.5,-56.5 235.5,-75.5 321.5,-75.5 321.5,-56.5 235.5,-56.5"/>
<text text-anchor="middle" x="278.5" y="-63.5" font-family="Helvetica,sans-Serif" font-size="10.00">hpp/core/fwd.hh</text>
</a>
</g>
</g>
<!-- Node3&#45;&gt;Node5 -->
<g id="edge4" class="edge"><title>Node3&#45;&gt;Node5</title>
<path fill="none" stroke="midnightblue" d="M274.685,-112.399C275.352,-104.466 276.193,-94.458 276.915,-85.8583"/>
<polygon fill="midnightblue" stroke="midnightblue" points="280.423,-85.9158 277.772,-75.6578 273.447,-85.3295 280.423,-85.9158"/>
</g>
<!-- Node5&#45;&gt;Node4 -->
<g id="edge12" class="edge"><title>Node5&#45;&gt;Node4</title>
<path fill="none" stroke="midnightblue" d="M242.056,-56.4435C202.101,-47.0629 137.913,-31.9926 94.5153,-21.8036"/>
<polygon fill="midnightblue" stroke="midnightblue" points="95.309,-18.3948 84.7737,-19.5164 93.7089,-25.2095 95.309,-18.3948"/>
</g>
<!-- Node6 -->
<g id="node6" class="node"><title>Node6</title>
<polygon fill="white" stroke="#bfbfbf" points="114.5,-0.5 114.5,-19.5 158.5,-19.5 158.5,-0.5 114.5,-0.5"/>
<text text-anchor="middle" x="136.5" y="-7.5" font-family="Helvetica,sans-Serif" font-size="10.00">vector</text>
</g>
<!-- Node5&#45;&gt;Node6 -->
<g id="edge5" class="edge"><title>Node5&#45;&gt;Node6</title>
<path fill="none" stroke="midnightblue" d="M256,-56.4435C232.423,-47.4776 195.178,-33.314 168.536,-23.1827"/>
<polygon fill="midnightblue" stroke="midnightblue" points="169.486,-19.7995 158.895,-19.5164 166.998,-26.3424 169.486,-19.7995"/>
</g>
<!-- Node7 -->
<g id="node7" class="node"><title>Node7</title>
<polygon fill="white" stroke="#bfbfbf" points="177,-0.5 177,-19.5 212,-19.5 212,-0.5 177,-0.5"/>
<text text-anchor="middle" x="194.5" y="-7.5" font-family="Helvetica,sans-Serif" font-size="10.00">map</text>
</g>
<!-- Node5&#45;&gt;Node7 -->
<g id="edge6" class="edge"><title>Node5&#45;&gt;Node7</title>
<path fill="none" stroke="midnightblue" d="M265.004,-56.324C251.9,-47.9002 231.788,-34.9709 216.393,-25.0741"/>
<polygon fill="midnightblue" stroke="midnightblue" points="218.267,-22.118 207.963,-19.6545 214.482,-28.0063 218.267,-22.118"/>
</g>
<!-- Node8 -->
<g id="node8" class="node"><title>Node8</title>
<polygon fill="white" stroke="#bfbfbf" points="230,-0.5 230,-19.5 273,-19.5 273,-0.5 230,-0.5"/>
<text text-anchor="middle" x="251.5" y="-7.5" font-family="Helvetica,sans-Serif" font-size="10.00">deque</text>
</g>
<!-- Node5&#45;&gt;Node8 -->
<g id="edge7" class="edge"><title>Node5&#45;&gt;Node8</title>
<path fill="none" stroke="midnightblue" d="M274.041,-56.083C270.346,-48.6913 264.977,-37.9533 260.406,-28.8111"/>
<polygon fill="midnightblue" stroke="midnightblue" points="263.478,-27.1301 255.876,-19.7511 257.217,-30.2606 263.478,-27.1301"/>
</g>
<!-- Node9 -->
<g id="node9" class="node"><title>Node9</title>
<polygon fill="white" stroke="#bfbfbf" points="291,-0.5 291,-19.5 320,-19.5 320,-0.5 291,-0.5"/>
<text text-anchor="middle" x="305.5" y="-7.5" font-family="Helvetica,sans-Serif" font-size="10.00">list</text>
</g>
<!-- Node5&#45;&gt;Node9 -->
<g id="edge8" class="edge"><title>Node5&#45;&gt;Node9</title>
<path fill="none" stroke="midnightblue" d="M282.959,-56.083C286.654,-48.6913 292.023,-37.9533 296.594,-28.8111"/>
<polygon fill="midnightblue" stroke="midnightblue" points="299.783,-30.2606 301.124,-19.7511 293.522,-27.1301 299.783,-30.2606"/>
</g>
<!-- Node10 -->
<g id="node10" class="node"><title>Node10</title>
<polygon fill="white" stroke="#bfbfbf" points="338.5,-0.5 338.5,-19.5 368.5,-19.5 368.5,-0.5 338.5,-0.5"/>
<text text-anchor="middle" x="353.5" y="-7.5" font-family="Helvetica,sans-Serif" font-size="10.00">set</text>
</g>
<!-- Node5&#45;&gt;Node10 -->
<g id="edge9" class="edge"><title>Node5&#45;&gt;Node10</title>
<path fill="none" stroke="midnightblue" d="M290.55,-56.324C301.963,-48.1066 319.331,-35.6017 332.935,-25.8069"/>
<polygon fill="midnightblue" stroke="midnightblue" points="335.16,-28.5174 341.231,-19.8339 331.07,-22.8366 335.16,-28.5174"/>
</g>
<!-- Node11 -->
<g id="node11" class="node"><title>Node11</title>
<g id="a_node11"><a doxygen="/local/devel/hpp/install/share/doc/hpp-util/doxygen-html/hpp-util.doxytag:../../hpp-util/doxygen-html/" xlink:href="../../hpp-util/doxygen-html/a00028.html" target="_top" xlink:title="hpp/util/pointer.hh">
<polygon fill="white" stroke="black" points="386.5,-0.5 386.5,-19.5 480.5,-19.5 480.5,-0.5 386.5,-0.5"/>
<text text-anchor="middle" x="433.5" y="-7.5" font-family="Helvetica,sans-Serif" font-size="10.00">hpp/util/pointer.hh</text>
</a>
</g>
</g>
<!-- Node5&#45;&gt;Node11 -->
<g id="edge10" class="edge"><title>Node5&#45;&gt;Node11</title>
<path fill="none" stroke="midnightblue" d="M303.06,-56.4435C329.023,-47.3986 370.168,-33.064 399.297,-22.9158"/>
<polygon fill="midnightblue" stroke="midnightblue" points="400.763,-26.1116 409.055,-19.5164 398.46,-19.5013 400.763,-26.1116"/>
</g>
<!-- Node12 -->
<g id="node12" class="node"><title>Node12</title>
<g id="a_node12"><a doxygen="/local/devel/hpp/install/share/doc/hpp-constraints/doxygen-html/hpp-constraints.doxytag:../../hpp-constraints/doxygen-html/" xlink:href="../../hpp-constraints/doxygen-html/a00001.html" target="_top" xlink:title="hpp/constraints/fwd.hh">
<polygon fill="white" stroke="black" points="498.5,-0.5 498.5,-19.5 614.5,-19.5 614.5,-0.5 498.5,-0.5"/>
<text text-anchor="middle" x="556.5" y="-7.5" font-family="Helvetica,sans-Serif" font-size="10.00">hpp/constraints/fwd.hh</text>
</a>
</g>
</g>
<!-- Node5&#45;&gt;Node12 -->
<g id="edge11" class="edge"><title>Node5&#45;&gt;Node12</title>
<path fill="none" stroke="midnightblue" d="M321.632,-56.6217C370.346,-47.1594 449.689,-31.7475 502.485,-21.4921"/>
<polygon fill="midnightblue" stroke="midnightblue" points="503.198,-24.9192 512.347,-19.5765 501.863,-18.0476 503.198,-24.9192"/>
</g>
<!-- Node13 -->
<g id="node13" class="node"><title>Node13</title>
<polygon fill="white" stroke="#bfbfbf" points="633,-0.5 633,-19.5 752,-19.5 752,-0.5 633,-0.5"/>
<text text-anchor="middle" x="692.5" y="-7.5" font-family="Helvetica,sans-Serif" font-size="10.00">hpp/core/deprecated.hh</text>
</g>
<!-- Node5&#45;&gt;Node13 -->
<g id="edge13" class="edge"><title>Node5&#45;&gt;Node13</title>
<path fill="none" stroke="midnightblue" d="M321.738,-58.023C326.38,-57.3186 331.036,-56.6312 335.5,-56 459.982,-38.397 493.841,-36.4339 622.418,-20.1287"/>
<polygon fill="midnightblue" stroke="midnightblue" points="623.185,-23.5594 632.663,-18.8247 622.301,-16.6154 623.185,-23.5594"/>
</g>
<!-- Node14&#45;&gt;Node3 -->
<g id="edge17" class="edge"><title>Node14&#45;&gt;Node3</title>
<path fill="none" stroke="midnightblue" d="M373.726,-179.396C355.107,-169.941 330.39,-157.39 310.161,-147.117"/>
<polygon fill="midnightblue" stroke="midnightblue" points="311.721,-143.984 301.22,-142.577 308.551,-150.225 311.721,-143.984"/>
</g>
<!-- Node15 -->
<g id="node15" class="node"><title>Node15</title>
<g id="a_node15"><a doxygen="/local/devel/hpp/install/share/doc/hpp-pinocchio/doxygen-html/hpp-pinocchio.doxytag:../../hpp-pinocchio/doxygen-html/" xlink:href="../../hpp-pinocchio/doxygen-html/a00091.html" target="_top" xlink:title="hpp/pinocchio/collision\l&#45;object.hh">
<polygon fill="white" stroke="black" points="342,-112.5 342,-142.5 457,-142.5 457,-112.5 342,-112.5"/>
<text text-anchor="start" x="350" y="-130.5" font-family="Helvetica,sans-Serif" font-size="10.00">hpp/pinocchio/collision</text>
<text text-anchor="middle" x="399.5" y="-119.5" font-family="Helvetica,sans-Serif" font-size="10.00">&#45;object.hh</text>
</a>
</g>
</g>
<!-- Node14&#45;&gt;Node15 -->
<g id="edge15" class="edge"><title>Node14&#45;&gt;Node15</title>
<path fill="none" stroke="midnightblue" d="M401.066,-179.396C400.828,-171.645 400.525,-161.812 400.25,-152.86"/>
<polygon fill="midnightblue" stroke="midnightblue" points="403.739,-152.464 399.933,-142.577 396.742,-152.679 403.739,-152.464"/>
</g>
<!-- Node17 -->
<g id="node17" class="node"><title>Node17</title>
<polygon fill="white" stroke="#bfbfbf" points="475.5,-118 475.5,-137 591.5,-137 591.5,-118 475.5,-118"/>
<text text-anchor="middle" x="533.5" y="-125" font-family="Helvetica,sans-Serif" font-size="10.00">hpp/fcl/collision_data.h</text>
</g>
<!-- Node14&#45;&gt;Node17 -->
<g id="edge18" class="edge"><title>Node14&#45;&gt;Node17</title>
<path fill="none" stroke="midnightblue" d="M430.142,-179.396C452.995,-168.142 484.759,-152.501 507.024,-141.538"/>
<polygon fill="midnightblue" stroke="midnightblue" points="508.799,-144.565 516.224,-137.007 505.707,-138.285 508.799,-144.565"/>
</g>
<!-- Node16 -->
<g id="node16" class="node"><title>Node16</title>
<g id="a_node16"><a doxygen="/local/devel/hpp/install/share/doc/hpp-pinocchio/doxygen-html/hpp-pinocchio.doxytag:../../hpp-pinocchio/doxygen-html/" xlink:href="../../hpp-pinocchio/doxygen-html/a00098.html" target="_top" xlink:title="hpp/pinocchio/fwd.hh">
<polygon fill="white" stroke="black" points="345,-56.5 345,-75.5 454,-75.5 454,-56.5 345,-56.5"/>
<text text-anchor="middle" x="399.5" y="-63.5" font-family="Helvetica,sans-Serif" font-size="10.00">hpp/pinocchio/fwd.hh</text>
</a>
</g>
</g>
<!-- Node15&#45;&gt;Node16 -->
<g id="edge16" class="edge"><title>Node15&#45;&gt;Node16</title>
<path fill="none" stroke="midnightblue" d="M399.5,-112.399C399.5,-104.466 399.5,-94.458 399.5,-85.8583"/>
<polygon fill="midnightblue" stroke="midnightblue" points="403,-85.6577 399.5,-75.6578 396,-85.6578 403,-85.6577"/>
</g>
</g>
</svg>
