<?xml version="1.0" encoding="UTF-8" standalone="no"?>
<!DOCTYPE svg PUBLIC "-//W3C//DTD SVG 1.1//EN"
 "http://www.w3.org/Graphics/SVG/1.1/DTD/svg11.dtd">
<!-- Generated by graphviz version 2.38.0 (20140413.2041)
 -->
<!-- Title: hermite.hh Pages: 1 -->
<svg width="1841pt" height="408pt"
 viewBox="0.00 0.00 1840.50 408.00" xmlns="http://www.w3.org/2000/svg" xmlns:xlink="http://www.w3.org/1999/xlink">
<g id="graph0" class="graph" transform="scale(1 1) rotate(0) translate(4 404)">
<title>hermite.hh</title>
<polygon fill="white" stroke="none" points="-4,4 -4,-404 1836.5,-404 1836.5,4 -4,4"/>
<!-- Node1 -->
<g id="node1" class="node"><title>Node1</title>
<polygon fill="#bfbfbf" stroke="black" points="1725.5,-380.5 1725.5,-399.5 1787.5,-399.5 1787.5,-380.5 1725.5,-380.5"/>
<text text-anchor="middle" x="1756.5" y="-387.5" font-family="Helvetica,sans-Serif" font-size="10.00">hermite.hh</text>
</g>
<!-- Node2 -->
<g id="node2" class="node"><title>Node2</title>
<g id="a_node2"><a xlink:href="a00001.html" target="_top" xlink:title="hpp/core/fwd.hh">
<polygon fill="white" stroke="black" points="1387.5,-62 1387.5,-81 1473.5,-81 1473.5,-62 1387.5,-62"/>
<text text-anchor="middle" x="1430.5" y="-69" font-family="Helvetica,sans-Serif" font-size="10.00">hpp/core/fwd.hh</text>
</a>
</g>
</g>
<!-- Node1&#45;&gt;Node2 -->
<g id="edge1" class="edge"><title>Node1&#45;&gt;Node2</title>
<path fill="none" stroke="midnightblue" d="M1756.26,-380.48C1754.75,-343.464 1743.6,-195.229 1661.5,-123 1635.5,-100.123 1543.41,-85.4642 1483.66,-78.1285"/>
<polygon fill="midnightblue" stroke="midnightblue" points="1483.98,-74.6417 1473.63,-76.9288 1483.14,-81.5921 1483.98,-74.6417"/>
</g>
<!-- Node10 -->
<g id="node10" class="node"><title>Node10</title>
<polygon fill="white" stroke="#bfbfbf" points="1668,-0.5 1668,-19.5 1765,-19.5 1765,-0.5 1668,-0.5"/>
<text text-anchor="middle" x="1716.5" y="-7.5" font-family="Helvetica,sans-Serif" font-size="10.00">hpp/core/config.hh</text>
</g>
<!-- Node1&#45;&gt;Node10 -->
<g id="edge11" class="edge"><title>Node1&#45;&gt;Node10</title>
<path fill="none" stroke="midnightblue" d="M1767.39,-380.425C1788.4,-362.821 1832.5,-320.307 1832.5,-273.5 1832.5,-273.5 1832.5,-273.5 1832.5,-137.5 1832.5,-84.7967 1777.13,-44.5348 1742.9,-24.6804"/>
<polygon fill="midnightblue" stroke="midnightblue" points="1744.3,-21.4561 1733.87,-19.6282 1740.88,-27.5651 1744.3,-21.4561"/>
</g>
<!-- Node12 -->
<g id="node12" class="node"><title>Node12</title>
<g id="a_node12"><a xlink:href="a00200.html" target="_top" xlink:title="hpp/core/path/spline.hh">
<polygon fill="white" stroke="black" points="1037.5,-324.5 1037.5,-343.5 1155.5,-343.5 1155.5,-324.5 1037.5,-324.5"/>
<text text-anchor="middle" x="1096.5" y="-331.5" font-family="Helvetica,sans-Serif" font-size="10.00">hpp/core/path/spline.hh</text>
</a>
</g>
</g>
<!-- Node1&#45;&gt;Node12 -->
<g id="edge12" class="edge"><title>Node1&#45;&gt;Node12</title>
<path fill="none" stroke="midnightblue" d="M1725.11,-386.432C1624.33,-378.186 1307.3,-352.247 1165.83,-340.673"/>
<polygon fill="midnightblue" stroke="midnightblue" points="1165.8,-337.159 1155.55,-339.831 1165.23,-344.135 1165.8,-337.159"/>
</g>
<!-- Node3 -->
<g id="node3" class="node"><title>Node3</title>
<polygon fill="white" stroke="#bfbfbf" points="1452.5,-0.5 1452.5,-19.5 1496.5,-19.5 1496.5,-0.5 1452.5,-0.5"/>
<text text-anchor="middle" x="1474.5" y="-7.5" font-family="Helvetica,sans-Serif" font-size="10.00">vector</text>
</g>
<!-- Node2&#45;&gt;Node3 -->
<g id="edge2" class="edge"><title>Node2&#45;&gt;Node3</title>
<path fill="none" stroke="midnightblue" d="M1436.8,-61.9751C1443.4,-53.0501 1453.94,-38.8071 1462.19,-27.6425"/>
<polygon fill="midnightblue" stroke="midnightblue" points="1465.08,-29.6305 1468.21,-19.5091 1459.45,-25.4684 1465.08,-29.6305"/>
</g>
<!-- Node4 -->
<g id="node4" class="node"><title>Node4</title>
<polygon fill="white" stroke="#bfbfbf" points="1515,-0.5 1515,-19.5 1550,-19.5 1550,-0.5 1515,-0.5"/>
<text text-anchor="middle" x="1532.5" y="-7.5" font-family="Helvetica,sans-Serif" font-size="10.00">map</text>
</g>
<!-- Node2&#45;&gt;Node4 -->
<g id="edge3" class="edge"><title>Node2&#45;&gt;Node4</title>
<path fill="none" stroke="midnightblue" d="M1445.11,-61.9751C1461.85,-52.2106 1489.5,-36.0807 1509.22,-24.5808"/>
<polygon fill="midnightblue" stroke="midnightblue" points="1511.04,-27.5711 1517.91,-19.5091 1507.51,-21.5246 1511.04,-27.5711"/>
</g>
<!-- Node5 -->
<g id="node5" class="node"><title>Node5</title>
<polygon fill="white" stroke="#bfbfbf" points="1145,-0.5 1145,-19.5 1188,-19.5 1188,-0.5 1145,-0.5"/>
<text text-anchor="middle" x="1166.5" y="-7.5" font-family="Helvetica,sans-Serif" font-size="10.00">deque</text>
</g>
<!-- Node2&#45;&gt;Node5 -->
<g id="edge4" class="edge"><title>Node2&#45;&gt;Node5</title>
<path fill="none" stroke="midnightblue" d="M1387.35,-62.0772C1342.44,-53.104 1269.88,-38.0281 1197.83,-19.9402"/>
<polygon fill="midnightblue" stroke="midnightblue" points="1198.68,-16.5461 1188.13,-17.4859 1196.96,-23.3322 1198.68,-16.5461"/>
</g>
<!-- Node6 -->
<g id="node6" class="node"><title>Node6</title>
<polygon fill="white" stroke="#bfbfbf" points="1568,-0.5 1568,-19.5 1597,-19.5 1597,-0.5 1568,-0.5"/>
<text text-anchor="middle" x="1582.5" y="-7.5" font-family="Helvetica,sans-Serif" font-size="10.00">list</text>
</g>
<!-- Node2&#45;&gt;Node6 -->
<g id="edge5" class="edge"><title>Node2&#45;&gt;Node6</title>
<path fill="none" stroke="midnightblue" d="M1452.28,-61.9751C1480.33,-50.9948 1528.94,-31.9653 1558.18,-20.5217"/>
<polygon fill="midnightblue" stroke="midnightblue" points="1559.61,-23.7204 1567.64,-16.816 1557.05,-17.202 1559.61,-23.7204"/>
</g>
<!-- Node7 -->
<g id="node7" class="node"><title>Node7</title>
<polygon fill="white" stroke="#bfbfbf" points="1615.5,-0.5 1615.5,-19.5 1645.5,-19.5 1645.5,-0.5 1615.5,-0.5"/>
<text text-anchor="middle" x="1630.5" y="-7.5" font-family="Helvetica,sans-Serif" font-size="10.00">set</text>
</g>
<!-- Node2&#45;&gt;Node7 -->
<g id="edge6" class="edge"><title>Node2&#45;&gt;Node7</title>
<path fill="none" stroke="midnightblue" d="M1463.17,-61.9581C1496.75,-52.9985 1550.69,-38.0985 1605.76,-20.0584"/>
<polygon fill="midnightblue" stroke="midnightblue" points="1606.93,-23.3581 1615.33,-16.8964 1604.74,-16.7117 1606.93,-23.3581"/>
</g>
<!-- Node8 -->
<g id="node8" class="node"><title>Node8</title>
<g id="a_node8"><a doxygen="/local/devel/hpp/install/share/doc/hpp-util/doxygen-html/hpp-util.doxytag:../../hpp-util/doxygen-html/" xlink:href="../../hpp-util/doxygen-html/a00028.html" target="_top" xlink:title="hpp/util/pointer.hh">
<polygon fill="white" stroke="black" points="1206.5,-0.5 1206.5,-19.5 1300.5,-19.5 1300.5,-0.5 1206.5,-0.5"/>
<text text-anchor="middle" x="1253.5" y="-7.5" font-family="Helvetica,sans-Serif" font-size="10.00">hpp/util/pointer.hh</text>
</a>
</g>
</g>
<!-- Node2&#45;&gt;Node8 -->
<g id="edge7" class="edge"><title>Node2&#45;&gt;Node8</title>
<path fill="none" stroke="midnightblue" d="M1405.14,-61.9751C1374.52,-51.6804 1322.84,-34.3103 1288.45,-22.7502"/>
<polygon fill="midnightblue" stroke="midnightblue" points="1289.41,-19.3779 1278.81,-19.5091 1287.18,-26.0131 1289.41,-19.3779"/>
</g>
<!-- Node9 -->
<g id="node9" class="node"><title>Node9</title>
<g id="a_node9"><a doxygen="/local/devel/hpp/install/share/doc/hpp-constraints/doxygen-html/hpp-constraints.doxytag:../../hpp-constraints/doxygen-html/" xlink:href="../../hpp-constraints/doxygen-html/a00001.html" target="_top" xlink:title="hpp/constraints/fwd.hh">
<polygon fill="white" stroke="black" points="1318.5,-0.5 1318.5,-19.5 1434.5,-19.5 1434.5,-0.5 1318.5,-0.5"/>
<text text-anchor="middle" x="1376.5" y="-7.5" font-family="Helvetica,sans-Serif" font-size="10.00">hpp/constraints/fwd.hh</text>
</a>
</g>
</g>
<!-- Node2&#45;&gt;Node9 -->
<g id="edge8" class="edge"><title>Node2&#45;&gt;Node9</title>
<path fill="none" stroke="midnightblue" d="M1422.76,-61.9751C1414.5,-52.8733 1401.22,-38.241 1391.01,-26.983"/>
<polygon fill="midnightblue" stroke="midnightblue" points="1393.53,-24.5619 1384.22,-19.5091 1388.35,-29.2663 1393.53,-24.5619"/>
</g>
<!-- Node2&#45;&gt;Node10 -->
<g id="edge9" class="edge"><title>Node2&#45;&gt;Node10</title>
<path fill="none" stroke="midnightblue" d="M1471.48,-61.9751C1522.66,-51.3269 1610.23,-33.1092 1665.64,-21.5806"/>
<polygon fill="midnightblue" stroke="midnightblue" points="1666.52,-24.9726 1675.6,-19.5091 1665.1,-18.1193 1666.52,-24.9726"/>
</g>
<!-- Node11 -->
<g id="node11" class="node"><title>Node11</title>
<polygon fill="white" stroke="#bfbfbf" points="1001,-0.5 1001,-19.5 1120,-19.5 1120,-0.5 1001,-0.5"/>
<text text-anchor="middle" x="1060.5" y="-7.5" font-family="Helvetica,sans-Serif" font-size="10.00">hpp/core/deprecated.hh</text>
</g>
<!-- Node2&#45;&gt;Node11 -->
<g id="edge10" class="edge"><title>Node2&#45;&gt;Node11</title>
<path fill="none" stroke="midnightblue" d="M1387.33,-63.5581C1322.33,-53.1059 1198.96,-33.2663 1123.79,-21.1777"/>
<polygon fill="midnightblue" stroke="midnightblue" points="1123.94,-17.6573 1113.51,-19.5251 1122.83,-24.5685 1123.94,-17.6573"/>
</g>
<!-- Node12&#45;&gt;Node2 -->
<g id="edge51" class="edge"><title>Node12&#45;&gt;Node2</title>
<path fill="none" stroke="midnightblue" d="M1094.03,-324.348C1085.55,-292.602 1061.04,-181.335 1115.5,-123 1117.73,-120.609 1288.3,-94.232 1377.48,-80.5824"/>
<polygon fill="midnightblue" stroke="midnightblue" points="1378.05,-84.0348 1387.41,-79.063 1377,-77.1153 1378.05,-84.0348"/>
</g>
<!-- Node12&#45;&gt;Node10 -->
<g id="edge53" class="edge"><title>Node12&#45;&gt;Node10</title>
<path fill="none" stroke="midnightblue" d="M1155.63,-329.484C1291.62,-320.262 1621.19,-291.077 1703.5,-221 1760.44,-172.519 1752.02,-129.156 1736.5,-56 1734.5,-46.5915 1730.4,-36.7618 1726.43,-28.6981"/>
<polygon fill="midnightblue" stroke="midnightblue" points="1729.39,-26.8101 1721.63,-19.5932 1723.19,-30.0721 1729.39,-26.8101"/>
</g>
<!-- Node13 -->
<g id="node13" class="node"><title>Node13</title>
<g id="a_node13"><a xlink:href="a00174.html" target="_top" xlink:title="hpp/core/path.hh">
<polygon fill="white" stroke="black" points="1326,-263 1326,-282 1415,-282 1415,-263 1326,-263"/>
<text text-anchor="middle" x="1370.5" y="-270" font-family="Helvetica,sans-Serif" font-size="10.00">hpp/core/path.hh</text>
</a>
</g>
</g>
<!-- Node12&#45;&gt;Node13 -->
<g id="edge13" class="edge"><title>Node12&#45;&gt;Node13</title>
<path fill="none" stroke="midnightblue" d="M1135.76,-324.475C1184.69,-313.849 1268.34,-295.685 1321.45,-284.152"/>
<polygon fill="midnightblue" stroke="midnightblue" points="1322.29,-287.552 1331.32,-282.009 1320.8,-280.711 1322.29,-287.552"/>
</g>
<!-- Node22 -->
<g id="node22" class="node"><title>Node22</title>
<g id="a_node22"><a doxygen="/local/devel/hpp/install/share/doc/hpp-pinocchio/doxygen-html/hpp-pinocchio.doxytag:../../hpp-pinocchio/doxygen-html/" xlink:href="../../hpp-pinocchio/doxygen-html/a00095.html" target="_top" xlink:title="hpp/pinocchio/device.hh">
<polygon fill="white" stroke="black" points="190.5,-196 190.5,-215 312.5,-215 312.5,-196 190.5,-196"/>
<text text-anchor="middle" x="251.5" y="-203" font-family="Helvetica,sans-Serif" font-size="10.00">hpp/pinocchio/device.hh</text>
</a>
</g>
</g>
<!-- Node12&#45;&gt;Node22 -->
<g id="edge30" class="edge"><title>Node12&#45;&gt;Node22</title>
<path fill="none" stroke="midnightblue" d="M1052.17,-324.485C1021.13,-317.42 979.337,-305.642 945.5,-288 925.866,-277.763 927.109,-265.095 906.5,-257 801.859,-215.898 469.942,-208.152 322.852,-206.763"/>
<polygon fill="midnightblue" stroke="midnightblue" points="322.617,-203.261 312.587,-206.673 322.556,-210.261 322.617,-203.261"/>
</g>
<!-- Node29 -->
<g id="node29" class="node"><title>Node29</title>
<g id="a_node29"><a doxygen="/local/devel/hpp/install/share/doc/hpp-pinocchio/doxygen-html/hpp-pinocchio.doxytag:../../hpp-pinocchio/doxygen-html/" xlink:href="../../hpp-pinocchio/doxygen-html/a00103.html" target="_top" xlink:title="hpp/pinocchio/liegroup\l&#45;element.hh">
<polygon fill="white" stroke="black" points="955,-257.5 955,-287.5 1068,-287.5 1068,-257.5 955,-257.5"/>
<text text-anchor="start" x="963" y="-275.5" font-family="Helvetica,sans-Serif" font-size="10.00">hpp/pinocchio/liegroup</text>
<text text-anchor="middle" x="1011.5" y="-264.5" font-family="Helvetica,sans-Serif" font-size="10.00">&#45;element.hh</text>
</a>
</g>
</g>
<!-- Node12&#45;&gt;Node29 -->
<g id="edge42" class="edge"><title>Node12&#45;&gt;Node29</title>
<path fill="none" stroke="midnightblue" d="M1084.32,-324.475C1072.81,-316.417 1055.1,-304.023 1040.03,-293.474"/>
<polygon fill="midnightblue" stroke="midnightblue" points="1041.73,-290.39 1031.53,-287.523 1037.72,-296.125 1041.73,-290.39"/>
</g>
<!-- Node36 -->
<g id="node36" class="node"><title>Node36</title>
<g id="a_node36"><a xlink:href="a00142.html" target="_top" xlink:title="hpp/core/steering&#45;method\l/fwd.hh">
<polygon fill="white" stroke="black" points="771,-257.5 771,-287.5 898,-287.5 898,-257.5 771,-257.5"/>
<text text-anchor="start" x="779" y="-275.5" font-family="Helvetica,sans-Serif" font-size="10.00">hpp/core/steering&#45;method</text>
<text text-anchor="middle" x="834.5" y="-264.5" font-family="Helvetica,sans-Serif" font-size="10.00">/fwd.hh</text>
</a>
</g>
</g>
<!-- Node12&#45;&gt;Node36 -->
<g id="edge52" class="edge"><title>Node12&#45;&gt;Node36</title>
<path fill="none" stroke="midnightblue" d="M1058.96,-324.475C1019.25,-315.456 955.626,-301.008 906.24,-289.792"/>
<polygon fill="midnightblue" stroke="midnightblue" points="906.775,-286.325 896.248,-287.523 905.225,-293.151 906.775,-286.325"/>
</g>
<!-- Node13&#45;&gt;Node2 -->
<g id="edge16" class="edge"><title>Node13&#45;&gt;Node2</title>
<path fill="none" stroke="midnightblue" d="M1372.2,-262.856C1375.21,-247.889 1381.89,-216.232 1389.5,-190 1399.84,-154.353 1414.77,-113.635 1423.47,-90.7053"/>
<polygon fill="midnightblue" stroke="midnightblue" points="1426.78,-91.8306 1427.09,-81.2402 1420.25,-89.3288 1426.78,-91.8306"/>
</g>
<!-- Node13&#45;&gt;Node10 -->
<g id="edge17" class="edge"><title>Node13&#45;&gt;Node10</title>
<path fill="none" stroke="midnightblue" d="M1415.25,-270.312C1491.51,-267.321 1641.99,-256.908 1678.5,-221 1731.13,-169.228 1724.85,-70.8183 1719.48,-29.7424"/>
<polygon fill="midnightblue" stroke="midnightblue" points="1722.94,-29.1609 1718.04,-19.7636 1716.01,-30.1611 1722.94,-29.1609"/>
</g>
<!-- Node13&#45;&gt;Node11 -->
<g id="edge24" class="edge"><title>Node13&#45;&gt;Node11</title>
<path fill="none" stroke="midnightblue" d="M1325.86,-268.29C1261.04,-262.721 1145.32,-249.069 1115.5,-221 1060.81,-169.531 1057.94,-70.9528 1059.35,-29.7871"/>
<polygon fill="midnightblue" stroke="midnightblue" points="1062.85,-29.9396 1059.82,-19.7856 1055.85,-29.6093 1062.85,-29.9396"/>
</g>
<!-- Node14 -->
<g id="node14" class="node"><title>Node14</title>
<polygon fill="white" stroke="#bfbfbf" points="1398.5,-196 1398.5,-215 1526.5,-215 1526.5,-196 1398.5,-196"/>
<text text-anchor="middle" x="1462.5" y="-203" font-family="Helvetica,sans-Serif" font-size="10.00">boost/concept_check.hpp</text>
</g>
<!-- Node13&#45;&gt;Node14 -->
<g id="edge14" class="edge"><title>Node13&#45;&gt;Node14</title>
<path fill="none" stroke="midnightblue" d="M1382.91,-262.734C1398.08,-252.013 1423.98,-233.716 1442.1,-220.914"/>
<polygon fill="midnightblue" stroke="midnightblue" points="1444.14,-223.756 1450.29,-215.127 1440.1,-218.039 1444.14,-223.756"/>
</g>
<!-- Node15 -->
<g id="node15" class="node"><title>Node15</title>
<g id="a_node15"><a doxygen="/local/devel/hpp/install/share/doc/hpp-util/doxygen-html/hpp-util.doxytag:../../hpp-util/doxygen-html/" xlink:href="../../hpp-util/doxygen-html/a00022.html" target="_top" xlink:title="hpp/util/exception.hh">
<polygon fill="white" stroke="black" points="1545,-196 1545,-215 1652,-215 1652,-196 1545,-196"/>
<text text-anchor="middle" x="1598.5" y="-203" font-family="Helvetica,sans-Serif" font-size="10.00">hpp/util/exception.hh</text>
</a>
</g>
</g>
<!-- Node13&#45;&gt;Node15 -->
<g id="edge15" class="edge"><title>Node13&#45;&gt;Node15</title>
<path fill="none" stroke="midnightblue" d="M1400.78,-262.869C1441.43,-251.278 1513.75,-230.662 1558.75,-217.834"/>
<polygon fill="midnightblue" stroke="midnightblue" points="1559.8,-221.171 1568.46,-215.064 1557.88,-214.439 1559.8,-221.171"/>
</g>
<!-- Node16 -->
<g id="node16" class="node"><title>Node16</title>
<g id="a_node16"><a xlink:href="a00123.html" target="_top" xlink:title="hpp/core/constraint\l&#45;set.hh">
<polygon fill="white" stroke="black" points="1242.5,-190.5 1242.5,-220.5 1342.5,-220.5 1342.5,-190.5 1242.5,-190.5"/>
<text text-anchor="start" x="1250.5" y="-208.5" font-family="Helvetica,sans-Serif" font-size="10.00">hpp/core/constraint</text>
<text text-anchor="middle" x="1292.5" y="-197.5" font-family="Helvetica,sans-Serif" font-size="10.00">&#45;set.hh</text>
</a>
</g>
</g>
<!-- Node13&#45;&gt;Node16 -->
<g id="edge18" class="edge"><title>Node13&#45;&gt;Node16</title>
<path fill="none" stroke="midnightblue" d="M1359.98,-262.734C1349.14,-253.696 1331.83,-239.274 1317.46,-227.298"/>
<polygon fill="midnightblue" stroke="midnightblue" points="1319.33,-224.302 1309.41,-220.589 1314.85,-229.68 1319.33,-224.302"/>
</g>
<!-- Node19 -->
<g id="node19" class="node"><title>Node19</title>
<g id="a_node19"><a xlink:href="a00184.html" target="_top" xlink:title="hpp/core/projection\l&#45;error.hh">
<polygon fill="white" stroke="black" points="1125,-190.5 1125,-220.5 1224,-220.5 1224,-190.5 1125,-190.5"/>
<text text-anchor="start" x="1133" y="-208.5" font-family="Helvetica,sans-Serif" font-size="10.00">hpp/core/projection</text>
<text text-anchor="middle" x="1174.5" y="-197.5" font-family="Helvetica,sans-Serif" font-size="10.00">&#45;error.hh</text>
</a>
</g>
</g>
<!-- Node13&#45;&gt;Node19 -->
<g id="edge25" class="edge"><title>Node13&#45;&gt;Node19</title>
<path fill="none" stroke="midnightblue" d="M1344.47,-262.869C1314.55,-252.946 1264.69,-236.408 1226.68,-223.805"/>
<polygon fill="midnightblue" stroke="midnightblue" points="1227.39,-220.354 1216.8,-220.528 1225.19,-226.998 1227.39,-220.354"/>
</g>
<!-- Node21 -->
<g id="node21" class="node"><title>Node21</title>
<g id="a_node21"><a xlink:href="a00208.html" target="_top" xlink:title="hpp/core/time&#45;parameterization.hh">
<polygon fill="white" stroke="black" points="1488.5,-129 1488.5,-148 1652.5,-148 1652.5,-129 1488.5,-129"/>
<text text-anchor="middle" x="1570.5" y="-136" font-family="Helvetica,sans-Serif" font-size="10.00">hpp/core/time&#45;parameterization.hh</text>
</a>
</g>
</g>
<!-- Node13&#45;&gt;Node21 -->
<g id="edge27" class="edge"><title>Node13&#45;&gt;Node21</title>
<path fill="none" stroke="midnightblue" d="M1415.21,-270.489C1488.83,-267.775 1630.55,-257.783 1661.5,-221 1684.53,-193.632 1637.72,-166.953 1603.1,-151.933"/>
<polygon fill="midnightblue" stroke="midnightblue" points="1604.3,-148.642 1593.73,-148.015 1601.6,-155.1 1604.3,-148.642"/>
</g>
<!-- Node16&#45;&gt;Node5 -->
<g id="edge19" class="edge"><title>Node16&#45;&gt;Node5</title>
<path fill="none" stroke="midnightblue" d="M1270.9,-190.37C1258.16,-181.194 1242.44,-168.306 1231.5,-154 1201.22,-114.416 1181.05,-58.4778 1171.98,-29.7041"/>
<polygon fill="midnightblue" stroke="midnightblue" points="1175.22,-28.3301 1168.96,-19.7833 1168.53,-30.3692 1175.22,-28.3301"/>
</g>
<!-- Node17 -->
<g id="node17" class="node"><title>Node17</title>
<g id="a_node17"><a xlink:href="a00124.html" target="_top" xlink:title="hpp/core/constraint.hh">
<polygon fill="white" stroke="black" points="1241,-129 1241,-148 1354,-148 1354,-129 1241,-129"/>
<text text-anchor="middle" x="1297.5" y="-136" font-family="Helvetica,sans-Serif" font-size="10.00">hpp/core/constraint.hh</text>
</a>
</g>
</g>
<!-- Node16&#45;&gt;Node17 -->
<g id="edge20" class="edge"><title>Node16&#45;&gt;Node17</title>
<path fill="none" stroke="midnightblue" d="M1293.58,-190.396C1294.31,-180.963 1295.27,-168.448 1296.06,-158.189"/>
<polygon fill="midnightblue" stroke="midnightblue" points="1299.55,-158.434 1296.83,-148.195 1292.57,-157.897 1299.55,-158.434"/>
</g>
<!-- Node17&#45;&gt;Node2 -->
<g id="edge23" class="edge"><title>Node17&#45;&gt;Node2</title>
<path fill="none" stroke="midnightblue" d="M1315.16,-128.869C1337.82,-117.796 1377.33,-98.4862 1403.7,-85.5978"/>
<polygon fill="midnightblue" stroke="midnightblue" points="1405.32,-88.7027 1412.77,-81.1672 1402.24,-82.4136 1405.32,-88.7027"/>
</g>
<!-- Node17&#45;&gt;Node10 -->
<g id="edge22" class="edge"><title>Node17&#45;&gt;Node10</title>
<path fill="none" stroke="midnightblue" d="M1330.72,-128.941C1367.85,-119.256 1429.7,-102.77 1482.5,-87 1553.65,-65.747 1636.08,-38.3099 1681.66,-22.8897"/>
<polygon fill="midnightblue" stroke="midnightblue" points="1683,-26.1308 1691.35,-19.6051 1680.75,-19.5015 1683,-26.1308"/>
</g>
<!-- Node18 -->
<g id="node18" class="node"><title>Node18</title>
<polygon fill="white" stroke="#bfbfbf" points="1271.5,-62 1271.5,-81 1323.5,-81 1323.5,-62 1271.5,-62"/>
<text text-anchor="middle" x="1297.5" y="-69" font-family="Helvetica,sans-Serif" font-size="10.00">ostream</text>
</g>
<!-- Node17&#45;&gt;Node18 -->
<g id="edge21" class="edge"><title>Node17&#45;&gt;Node18</title>
<path fill="none" stroke="midnightblue" d="M1297.5,-128.734C1297.5,-119.183 1297.5,-103.618 1297.5,-91.2829"/>
<polygon fill="midnightblue" stroke="midnightblue" points="1301,-91.1273 1297.5,-81.1273 1294,-91.1273 1301,-91.1273"/>
</g>
<!-- Node20 -->
<g id="node20" class="node"><title>Node20</title>
<polygon fill="white" stroke="#bfbfbf" points="1125,-129 1125,-148 1184,-148 1184,-129 1125,-129"/>
<text text-anchor="middle" x="1154.5" y="-136" font-family="Helvetica,sans-Serif" font-size="10.00">exception</text>
</g>
<!-- Node19&#45;&gt;Node20 -->
<g id="edge26" class="edge"><title>Node19&#45;&gt;Node20</title>
<path fill="none" stroke="midnightblue" d="M1170.16,-190.396C1167.23,-180.863 1163.33,-168.182 1160.15,-157.862"/>
<polygon fill="midnightblue" stroke="midnightblue" points="1163.46,-156.723 1157.18,-148.195 1156.77,-158.782 1163.46,-156.723"/>
</g>
<!-- Node21&#45;&gt;Node2 -->
<g id="edge28" class="edge"><title>Node21&#45;&gt;Node2</title>
<path fill="none" stroke="midnightblue" d="M1551.91,-128.869C1527.96,-117.748 1486.11,-98.3167 1458.35,-85.4286"/>
<polygon fill="midnightblue" stroke="midnightblue" points="1459.71,-82.2038 1449.17,-81.1672 1456.76,-88.5529 1459.71,-82.2038"/>
</g>
<!-- Node21&#45;&gt;Node10 -->
<g id="edge29" class="edge"><title>Node21&#45;&gt;Node10</title>
<path fill="none" stroke="midnightblue" d="M1580.54,-128.805C1604.91,-107.682 1667.53,-53.4289 1698.54,-26.5582"/>
<polygon fill="midnightblue" stroke="midnightblue" points="1701.13,-28.9493 1706.39,-19.7557 1696.54,-23.6588 1701.13,-28.9493"/>
</g>
<!-- Node23 -->
<g id="node23" class="node"><title>Node23</title>
<g id="a_node23"><a doxygen="/local/devel/hpp/install/share/doc/hpp-pinocchio/doxygen-html/hpp-pinocchio.doxytag:../../hpp-pinocchio/doxygen-html/" xlink:href="../../hpp-pinocchio/doxygen-html/a00098.html" target="_top" xlink:title="hpp/pinocchio/fwd.hh">
<polygon fill="white" stroke="black" points="273,-0.5 273,-19.5 382,-19.5 382,-0.5 273,-0.5"/>
<text text-anchor="middle" x="327.5" y="-7.5" font-family="Helvetica,sans-Serif" font-size="10.00">hpp/pinocchio/fwd.hh</text>
</a>
</g>
</g>
<!-- Node22&#45;&gt;Node23 -->
<g id="edge31" class="edge"><title>Node22&#45;&gt;Node23</title>
<path fill="none" stroke="midnightblue" d="M231.557,-195.932C214.758,-187.662 191.45,-173.519 178.5,-154 154.175,-117.338 137.848,-91.0068 164.5,-56 176.714,-39.9577 222.748,-28.1754 262.793,-20.7001"/>
<polygon fill="midnightblue" stroke="midnightblue" points="263.6,-24.1111 272.82,-18.8924 262.358,-17.2221 263.6,-24.1111"/>
</g>
<!-- Node24 -->
<g id="node24" class="node"><title>Node24</title>
<g id="a_node24"><a doxygen="/local/devel/hpp/install/share/doc/hpp-pinocchio/doxygen-html/hpp-pinocchio.doxytag:../../hpp-pinocchio/doxygen-html/" xlink:href="../../hpp-pinocchio/doxygen-html/a00097.html" target="_top" xlink:title="hpp/pinocchio/frame.hh">
<polygon fill="white" stroke="black" points="173.5,-62 173.5,-81 291.5,-81 291.5,-62 173.5,-62"/>
<text text-anchor="middle" x="232.5" y="-69" font-family="Helvetica,sans-Serif" font-size="10.00">hpp/pinocchio/frame.hh</text>
</a>
</g>
</g>
<!-- Node22&#45;&gt;Node24 -->
<g id="edge32" class="edge"><title>Node22&#45;&gt;Node24</title>
<path fill="none" stroke="midnightblue" d="M232.761,-195.928C217.173,-187.655 196.048,-173.51 186.5,-154 180.443,-141.625 181.525,-135.848 186.5,-123 191.906,-109.038 203.167,-96.5645 213.194,-87.5076"/>
<polygon fill="midnightblue" stroke="midnightblue" points="215.482,-90.1564 220.836,-81.0134 210.949,-84.8225 215.482,-90.1564"/>
</g>
<!-- Node25 -->
<g id="node25" class="node"><title>Node25</title>
<g id="a_node25"><a doxygen="/local/devel/hpp/install/share/doc/hpp-pinocchio/doxygen-html/hpp-pinocchio.doxytag:../../hpp-pinocchio/doxygen-html/" xlink:href="../../hpp-pinocchio/doxygen-html/a00108.html" target="_top" xlink:title="hpp/pinocchio/pool.hh">
<polygon fill="white" stroke="black" points="196,-129 196,-148 307,-148 307,-129 196,-129"/>
<text text-anchor="middle" x="251.5" y="-136" font-family="Helvetica,sans-Serif" font-size="10.00">hpp/pinocchio/pool.hh</text>
</a>
</g>
</g>
<!-- Node22&#45;&gt;Node25 -->
<g id="edge34" class="edge"><title>Node22&#45;&gt;Node25</title>
<path fill="none" stroke="midnightblue" d="M251.5,-195.734C251.5,-186.183 251.5,-170.618 251.5,-158.283"/>
<polygon fill="midnightblue" stroke="midnightblue" points="255,-158.127 251.5,-148.127 248,-158.127 255,-158.127"/>
</g>
<!-- Node26 -->
<g id="node26" class="node"><title>Node26</title>
<g id="a_node26"><a doxygen="/local/devel/hpp/install/share/doc/hpp-pinocchio/doxygen-html/hpp-pinocchio.doxytag:../../hpp-pinocchio/doxygen-html/" xlink:href="../../hpp-pinocchio/doxygen-html/a00096.html" target="_top" xlink:title="hpp/pinocchio/extra\l&#45;config&#45;space.hh">
<polygon fill="white" stroke="black" points="0,-123.5 0,-153.5 101,-153.5 101,-123.5 0,-123.5"/>
<text text-anchor="start" x="8" y="-141.5" font-family="Helvetica,sans-Serif" font-size="10.00">hpp/pinocchio/extra</text>
<text text-anchor="middle" x="50.5" y="-130.5" font-family="Helvetica,sans-Serif" font-size="10.00">&#45;config&#45;space.hh</text>
</a>
</g>
</g>
<!-- Node22&#45;&gt;Node26 -->
<g id="edge35" class="edge"><title>Node22&#45;&gt;Node26</title>
<path fill="none" stroke="midnightblue" d="M224.809,-195.869C193.995,-185.904 142.551,-169.268 103.516,-156.644"/>
<polygon fill="midnightblue" stroke="midnightblue" points="104.471,-153.275 93.8791,-153.528 102.317,-159.935 104.471,-153.275"/>
</g>
<!-- Node27 -->
<g id="node27" class="node"><title>Node27</title>
<g id="a_node27"><a doxygen="/local/devel/hpp/install/share/doc/hpp-pinocchio/doxygen-html/hpp-pinocchio.doxytag:../../hpp-pinocchio/doxygen-html/" xlink:href="../../hpp-pinocchio/doxygen-html/a00093.html" target="_top" xlink:title="hpp/pinocchio/device\l&#45;data.hh">
<polygon fill="white" stroke="black" points="355.5,-56.5 355.5,-86.5 463.5,-86.5 463.5,-56.5 355.5,-56.5"/>
<text text-anchor="start" x="363.5" y="-74.5" font-family="Helvetica,sans-Serif" font-size="10.00">hpp/pinocchio/device</text>
<text text-anchor="middle" x="409.5" y="-63.5" font-family="Helvetica,sans-Serif" font-size="10.00">&#45;data.hh</text>
</a>
</g>
</g>
<!-- Node22&#45;&gt;Node27 -->
<g id="edge37" class="edge"><title>Node22&#45;&gt;Node27</title>
<path fill="none" stroke="midnightblue" d="M312.581,-196.495C362.244,-188.585 426.597,-174.654 442.5,-154 456.186,-136.226 443.285,-112.002 429.812,-94.59"/>
<polygon fill="midnightblue" stroke="midnightblue" points="432.326,-92.1383 423.265,-86.6477 426.925,-96.5905 432.326,-92.1383"/>
</g>
<!-- Node28 -->
<g id="node28" class="node"><title>Node28</title>
<g id="a_node28"><a doxygen="/local/devel/hpp/install/share/doc/hpp-pinocchio/doxygen-html/hpp-pinocchio.doxytag:../../hpp-pinocchio/doxygen-html/" xlink:href="../../hpp-pinocchio/doxygen-html/a00094.html" target="_top" xlink:title="hpp/pinocchio/device\l&#45;sync.hh">
<polygon fill="white" stroke="black" points="325.5,-123.5 325.5,-153.5 433.5,-153.5 433.5,-123.5 325.5,-123.5"/>
<text text-anchor="start" x="333.5" y="-141.5" font-family="Helvetica,sans-Serif" font-size="10.00">hpp/pinocchio/device</text>
<text text-anchor="middle" x="379.5" y="-130.5" font-family="Helvetica,sans-Serif" font-size="10.00">&#45;sync.hh</text>
</a>
</g>
</g>
<!-- Node22&#45;&gt;Node28 -->
<g id="edge39" class="edge"><title>Node22&#45;&gt;Node28</title>
<path fill="none" stroke="midnightblue" d="M268.497,-195.869C287.311,-186.315 318.203,-170.627 342.627,-158.225"/>
<polygon fill="midnightblue" stroke="midnightblue" points="344.301,-161.3 351.632,-153.652 341.131,-155.059 344.301,-161.3"/>
</g>
<!-- Node24&#45;&gt;Node23 -->
<g id="edge33" class="edge"><title>Node24&#45;&gt;Node23</title>
<path fill="none" stroke="midnightblue" d="M246.111,-61.9751C261.561,-52.2989 286.99,-36.3721 305.316,-24.8941"/>
<polygon fill="midnightblue" stroke="midnightblue" points="307.297,-27.7834 313.914,-19.5091 303.581,-21.8509 307.297,-27.7834"/>
</g>
<!-- Node26&#45;&gt;Node23 -->
<g id="edge36" class="edge"><title>Node26&#45;&gt;Node23</title>
<path fill="none" stroke="midnightblue" d="M57.8113,-123.185C68.0741,-104.618 88.5546,-72.6451 115.5,-56 159.897,-28.5742 218.415,-17.6573 262.721,-13.411"/>
<polygon fill="midnightblue" stroke="midnightblue" points="263.143,-16.8877 272.803,-12.5355 262.538,-9.91392 263.143,-16.8877"/>
</g>
<!-- Node27&#45;&gt;Node23 -->
<g id="edge38" class="edge"><title>Node27&#45;&gt;Node23</title>
<path fill="none" stroke="midnightblue" d="M390.067,-56.3993C377.292,-47.1293 360.611,-35.0254 347.686,-25.6469"/>
<polygon fill="midnightblue" stroke="midnightblue" points="349.581,-22.6979 339.432,-19.6578 345.47,-28.3635 349.581,-22.6979"/>
</g>
<!-- Node28&#45;&gt;Node23 -->
<g id="edge40" class="edge"><title>Node28&#45;&gt;Node23</title>
<path fill="none" stroke="midnightblue" d="M368.304,-123.218C361.159,-113.489 352.202,-100.052 346.5,-87 338.351,-68.3463 333.236,-45.5261 330.393,-29.7876"/>
<polygon fill="midnightblue" stroke="midnightblue" points="333.814,-29.026 328.713,-19.7399 326.91,-30.1801 333.814,-29.026"/>
</g>
<!-- Node28&#45;&gt;Node27 -->
<g id="edge41" class="edge"><title>Node28&#45;&gt;Node27</title>
<path fill="none" stroke="midnightblue" d="M386.01,-123.396C389.744,-115.304 394.526,-104.944 398.799,-95.685"/>
<polygon fill="midnightblue" stroke="midnightblue" points="401.99,-97.1228 403.003,-86.5765 395.635,-94.1894 401.99,-97.1228"/>
</g>
<!-- Node30 -->
<g id="node30" class="node"><title>Node30</title>
<g id="a_node30"><a doxygen="/local/devel/hpp/install/share/doc/hpp-pinocchio/doxygen-html/hpp-pinocchio.doxytag:../../hpp-pinocchio/doxygen-html/" xlink:href="../../hpp-pinocchio/doxygen-html/a00104.html" target="_top" xlink:title="hpp/pinocchio/liegroup\l&#45;space.hh">
<polygon fill="white" stroke="black" points="720,-190.5 720,-220.5 833,-220.5 833,-190.5 720,-190.5"/>
<text text-anchor="start" x="728" y="-208.5" font-family="Helvetica,sans-Serif" font-size="10.00">hpp/pinocchio/liegroup</text>
<text text-anchor="middle" x="776.5" y="-197.5" font-family="Helvetica,sans-Serif" font-size="10.00">&#45;space.hh</text>
</a>
</g>
</g>
<!-- Node29&#45;&gt;Node30 -->
<g id="edge43" class="edge"><title>Node29&#45;&gt;Node30</title>
<path fill="none" stroke="midnightblue" d="M960.798,-257.476C924.631,-247.472 875.82,-233.971 837.517,-223.377"/>
<polygon fill="midnightblue" stroke="midnightblue" points="838.088,-219.904 827.516,-220.611 836.221,-226.65 838.088,-219.904"/>
</g>
<!-- Node30&#45;&gt;Node23 -->
<g id="edge50" class="edge"><title>Node30&#45;&gt;Node23</title>
<path fill="none" stroke="midnightblue" d="M738.372,-190.384C686.227,-170.419 590.473,-131.382 514.5,-87 494.467,-75.2971 493.202,-66.4737 472.5,-56 442.309,-40.7257 405.938,-29.455 377.176,-22.0133"/>
<polygon fill="midnightblue" stroke="midnightblue" points="377.894,-18.5849 367.342,-19.5404 376.187,-25.3735 377.894,-18.5849"/>
</g>
<!-- Node31 -->
<g id="node31" class="node"><title>Node31</title>
<g id="a_node31"><a doxygen="/local/devel/hpp/install/share/doc/hpp-pinocchio/doxygen-html/hpp-pinocchio.doxytag:../../hpp-pinocchio/doxygen-html/" xlink:href="../../hpp-pinocchio/doxygen-html/a00105.html" target="_top" xlink:title="hpp/pinocchio/liegroup.hh">
<polygon fill="white" stroke="black" points="713,-129 713,-148 840,-148 840,-129 713,-129"/>
<text text-anchor="middle" x="776.5" y="-136" font-family="Helvetica,sans-Serif" font-size="10.00">hpp/pinocchio/liegroup.hh</text>
</a>
</g>
</g>
<!-- Node30&#45;&gt;Node31 -->
<g id="edge44" class="edge"><title>Node30&#45;&gt;Node31</title>
<path fill="none" stroke="midnightblue" d="M776.5,-190.396C776.5,-181.064 776.5,-168.714 776.5,-158.517"/>
<polygon fill="midnightblue" stroke="midnightblue" points="780,-158.195 776.5,-148.195 773,-158.195 780,-158.195"/>
</g>
<!-- Node32 -->
<g id="node32" class="node"><title>Node32</title>
<g id="a_node32"><a doxygen="/local/devel/hpp/install/share/doc/hpp-pinocchio/doxygen-html/hpp-pinocchio.doxytag:../../hpp-pinocchio/doxygen-html/" xlink:href="../../hpp-pinocchio/doxygen-html/a00114.html" target="_top" xlink:title="hpp/pinocchio/liegroup\l/vector&#45;space.hh">
<polygon fill="white" stroke="black" points="524,-56.5 524,-86.5 637,-86.5 637,-56.5 524,-56.5"/>
<text text-anchor="start" x="532" y="-74.5" font-family="Helvetica,sans-Serif" font-size="10.00">hpp/pinocchio/liegroup</text>
<text text-anchor="middle" x="580.5" y="-63.5" font-family="Helvetica,sans-Serif" font-size="10.00">/vector&#45;space.hh</text>
</a>
</g>
</g>
<!-- Node31&#45;&gt;Node32 -->
<g id="edge45" class="edge"><title>Node31&#45;&gt;Node32</title>
<path fill="none" stroke="midnightblue" d="M750.473,-128.869C720.553,-118.946 670.686,-102.408 632.681,-89.8051"/>
<polygon fill="midnightblue" stroke="midnightblue" points="633.393,-86.3538 622.8,-86.5281 631.19,-92.998 633.393,-86.3538"/>
</g>
<!-- Node33 -->
<g id="node33" class="node"><title>Node33</title>
<g id="a_node33"><a doxygen="/local/devel/hpp/install/share/doc/hpp-pinocchio/doxygen-html/hpp-pinocchio.doxytag:../../hpp-pinocchio/doxygen-html/" xlink:href="../../hpp-pinocchio/doxygen-html/a00089.html" target="_top" xlink:title="hpp/pinocchio/liegroup\l/cartesian&#45;product.hh">
<polygon fill="white" stroke="black" points="655,-56.5 655,-86.5 768,-86.5 768,-56.5 655,-56.5"/>
<text text-anchor="start" x="663" y="-74.5" font-family="Helvetica,sans-Serif" font-size="10.00">hpp/pinocchio/liegroup</text>
<text text-anchor="middle" x="711.5" y="-63.5" font-family="Helvetica,sans-Serif" font-size="10.00">/cartesian&#45;product.hh</text>
</a>
</g>
</g>
<!-- Node31&#45;&gt;Node33 -->
<g id="edge47" class="edge"><title>Node31&#45;&gt;Node33</title>
<path fill="none" stroke="midnightblue" d="M767.734,-128.734C758.865,-119.865 744.811,-105.811 732.972,-93.9722"/>
<polygon fill="midnightblue" stroke="midnightblue" points="735.135,-91.1852 725.589,-86.589 730.185,-96.135 735.135,-91.1852"/>
</g>
<!-- Node34 -->
<g id="node34" class="node"><title>Node34</title>
<g id="a_node34"><a doxygen="/local/devel/hpp/install/share/doc/hpp-pinocchio/doxygen-html/hpp-pinocchio.doxytag:../../hpp-pinocchio/doxygen-html/" xlink:href="../../hpp-pinocchio/doxygen-html/a00111.html" target="_top" xlink:title="hpp/pinocchio/liegroup\l/special&#45;orthogonal.hh">
<polygon fill="white" stroke="black" points="786,-56.5 786,-86.5 899,-86.5 899,-56.5 786,-56.5"/>
<text text-anchor="start" x="794" y="-74.5" font-family="Helvetica,sans-Serif" font-size="10.00">hpp/pinocchio/liegroup</text>
<text text-anchor="middle" x="842.5" y="-63.5" font-family="Helvetica,sans-Serif" font-size="10.00">/special&#45;orthogonal.hh</text>
</a>
</g>
</g>
<!-- Node31&#45;&gt;Node34 -->
<g id="edge48" class="edge"><title>Node31&#45;&gt;Node34</title>
<path fill="none" stroke="midnightblue" d="M785.401,-128.734C794.492,-119.78 808.949,-105.543 821.04,-93.6346"/>
<polygon fill="midnightblue" stroke="midnightblue" points="823.525,-96.0996 828.194,-86.589 818.613,-91.1122 823.525,-96.0996"/>
</g>
<!-- Node35 -->
<g id="node35" class="node"><title>Node35</title>
<g id="a_node35"><a doxygen="/local/devel/hpp/install/share/doc/hpp-pinocchio/doxygen-html/hpp-pinocchio.doxytag:../../hpp-pinocchio/doxygen-html/" xlink:href="../../hpp-pinocchio/doxygen-html/a00110.html" target="_top" xlink:title="hpp/pinocchio/liegroup\l/special&#45;euclidean.hh">
<polygon fill="white" stroke="black" points="917,-56.5 917,-86.5 1030,-86.5 1030,-56.5 917,-56.5"/>
<text text-anchor="start" x="925" y="-74.5" font-family="Helvetica,sans-Serif" font-size="10.00">hpp/pinocchio/liegroup</text>
<text text-anchor="middle" x="973.5" y="-63.5" font-family="Helvetica,sans-Serif" font-size="10.00">/special&#45;euclidean.hh</text>
</a>
</g>
</g>
<!-- Node31&#45;&gt;Node35 -->
<g id="edge49" class="edge"><title>Node31&#45;&gt;Node35</title>
<path fill="none" stroke="midnightblue" d="M802.66,-128.869C832.733,-118.946 882.854,-102.408 921.052,-89.8051"/>
<polygon fill="midnightblue" stroke="midnightblue" points="922.584,-92.9852 930.984,-86.5281 920.391,-86.3377 922.584,-92.9852"/>
</g>
<!-- Node32&#45;&gt;Node23 -->
<g id="edge46" class="edge"><title>Node32&#45;&gt;Node23</title>
<path fill="none" stroke="midnightblue" d="M523.722,-57.147C478.403,-46.4892 415.724,-31.7482 373.505,-21.8194"/>
<polygon fill="midnightblue" stroke="midnightblue" points="374.301,-18.4112 363.766,-19.5289 372.699,-25.2253 374.301,-18.4112"/>
</g>
</g>
</svg>
