<?xml version="1.0" encoding="UTF-8" standalone="no"?>
<!DOCTYPE svg PUBLIC "-//W3C//DTD SVG 1.1//EN"
 "http://www.w3.org/Graphics/SVG/1.1/DTD/svg11.dtd">
<!-- Generated by graphviz version 2.38.0 (20140413.2041)
 -->
<!-- Title: interpolated&#45;steering&#45;method.hh Pages: 1 -->
<svg width="1142pt" height="397pt"
 viewBox="0.00 0.00 1142.00 397.00" xmlns="http://www.w3.org/2000/svg" xmlns:xlink="http://www.w3.org/1999/xlink">
<g id="graph0" class="graph" transform="scale(1 1) rotate(0) translate(4 393)">
<title>interpolated&#45;steering&#45;method.hh</title>
<polygon fill="white" stroke="none" points="-4,4 -4,-393 1138,-393 1138,4 -4,4"/>
<!-- Node1 -->
<g id="node1" class="node"><title>Node1</title>
<polygon fill="#bfbfbf" stroke="black" points="691.5,-358.5 691.5,-388.5 795.5,-388.5 795.5,-358.5 691.5,-358.5"/>
<text text-anchor="start" x="699.5" y="-376.5" font-family="Helvetica,sans-Serif" font-size="10.00">interpolated&#45;steering</text>
<text text-anchor="middle" x="743.5" y="-365.5" font-family="Helvetica,sans-Serif" font-size="10.00">&#45;method.hh</text>
</g>
<!-- Node2 -->
<g id="node2" class="node"><title>Node2</title>
<g id="a_node2"><a xlink:href="a00203.html" target="_top" xlink:title="hpp/core/steering&#45;method.hh">
<polygon fill="white" stroke="black" points="330.5,-297 330.5,-316 470.5,-316 470.5,-297 330.5,-297"/>
<text text-anchor="middle" x="400.5" y="-304" font-family="Helvetica,sans-Serif" font-size="10.00">hpp/core/steering&#45;method.hh</text>
</a>
</g>
</g>
<!-- Node1&#45;&gt;Node2 -->
<g id="edge1" class="edge"><title>Node1&#45;&gt;Node2</title>
<path fill="none" stroke="midnightblue" d="M691.406,-362.628C627.72,-350.559 520.425,-330.226 455.462,-317.916"/>
<polygon fill="midnightblue" stroke="midnightblue" points="455.89,-314.434 445.413,-316.011 454.586,-321.312 455.89,-314.434"/>
</g>
<!-- Node24 -->
<g id="node24" class="node"><title>Node24</title>
<g id="a_node24"><a xlink:href="a00142.html" target="_top" xlink:title="hpp/core/steering&#45;method\l/fwd.hh">
<polygon fill="white" stroke="black" points="613,-291.5 613,-321.5 740,-321.5 740,-291.5 613,-291.5"/>
<text text-anchor="start" x="621" y="-309.5" font-family="Helvetica,sans-Serif" font-size="10.00">hpp/core/steering&#45;method</text>
<text text-anchor="middle" x="676.5" y="-298.5" font-family="Helvetica,sans-Serif" font-size="10.00">/fwd.hh</text>
</a>
</g>
</g>
<!-- Node1&#45;&gt;Node24 -->
<g id="edge32" class="edge"><title>Node1&#45;&gt;Node24</title>
<path fill="none" stroke="midnightblue" d="M728.962,-358.396C720.007,-349.708 708.356,-338.405 698.309,-328.658"/>
<polygon fill="midnightblue" stroke="midnightblue" points="700.624,-326.028 691.01,-321.577 695.75,-331.052 700.624,-326.028"/>
</g>
<!-- Node25 -->
<g id="node25" class="node"><title>Node25</title>
<g id="a_node25"><a xlink:href="a00151.html" target="_top" xlink:title="hpp/core/interpolated\l&#45;path.hh">
<polygon fill="white" stroke="black" points="758,-291.5 758,-321.5 865,-321.5 865,-291.5 758,-291.5"/>
<text text-anchor="start" x="766" y="-309.5" font-family="Helvetica,sans-Serif" font-size="10.00">hpp/core/interpolated</text>
<text text-anchor="middle" x="811.5" y="-298.5" font-family="Helvetica,sans-Serif" font-size="10.00">&#45;path.hh</text>
</a>
</g>
</g>
<!-- Node1&#45;&gt;Node25 -->
<g id="edge33" class="edge"><title>Node1&#45;&gt;Node25</title>
<path fill="none" stroke="midnightblue" d="M758.255,-358.396C767.344,-349.708 779.169,-338.405 789.366,-328.658"/>
<polygon fill="midnightblue" stroke="midnightblue" points="791.963,-331.016 796.774,-321.577 787.127,-325.956 791.963,-331.016"/>
</g>
<!-- Node26 -->
<g id="node26" class="node"><title>Node26</title>
<g id="a_node26"><a xlink:href="a00212.html" target="_top" xlink:title="hpp/core/weighed&#45;distance.hh">
<polygon fill="white" stroke="black" points="883.5,-297 883.5,-316 1029.5,-316 1029.5,-297 883.5,-297"/>
<text text-anchor="middle" x="956.5" y="-304" font-family="Helvetica,sans-Serif" font-size="10.00">hpp/core/weighed&#45;distance.hh</text>
</a>
</g>
</g>
<!-- Node1&#45;&gt;Node26 -->
<g id="edge37" class="edge"><title>Node1&#45;&gt;Node26</title>
<path fill="none" stroke="midnightblue" d="M789.456,-358.476C828.134,-346.673 882.766,-330.001 918.885,-318.979"/>
<polygon fill="midnightblue" stroke="midnightblue" points="920.009,-322.295 928.552,-316.029 917.966,-315.6 920.009,-322.295"/>
</g>
<!-- Node3 -->
<g id="node3" class="node"><title>Node3</title>
<g id="a_node3"><a doxygen="/local/devel/hpp/install/share/doc/hpp-util/doxygen-html/hpp-util.doxytag:../../hpp-util/doxygen-html/" xlink:href="../../hpp-util/doxygen-html/a00018.html" target="_top" xlink:title="hpp/util/debug.hh">
<polygon fill="white" stroke="black" points="19,-235.5 19,-254.5 110,-254.5 110,-235.5 19,-235.5"/>
<text text-anchor="middle" x="64.5" y="-242.5" font-family="Helvetica,sans-Serif" font-size="10.00">hpp/util/debug.hh</text>
</a>
</g>
</g>
<!-- Node2&#45;&gt;Node3 -->
<g id="edge2" class="edge"><title>Node2&#45;&gt;Node3</title>
<path fill="none" stroke="midnightblue" d="M352.359,-296.975C290.954,-286.101 184.973,-267.334 120.162,-255.857"/>
<polygon fill="midnightblue" stroke="midnightblue" points="120.584,-252.377 110.127,-254.08 119.364,-259.27 120.584,-252.377"/>
</g>
<!-- Node5 -->
<g id="node5" class="node"><title>Node5</title>
<g id="a_node5"><a xlink:href="a00001.html" target="_top" xlink:title="hpp/core/fwd.hh">
<polygon fill="white" stroke="black" points="470.5,-56.5 470.5,-75.5 556.5,-75.5 556.5,-56.5 470.5,-56.5"/>
<text text-anchor="middle" x="513.5" y="-63.5" font-family="Helvetica,sans-Serif" font-size="10.00">hpp/core/fwd.hh</text>
</a>
</g>
</g>
<!-- Node2&#45;&gt;Node5 -->
<g id="edge4" class="edge"><title>Node2&#45;&gt;Node5</title>
<path fill="none" stroke="midnightblue" d="M402.113,-296.792C407.665,-268.378 427.916,-176.494 468.5,-112 475.528,-100.831 485.794,-90.2889 494.746,-82.2196"/>
<polygon fill="midnightblue" stroke="midnightblue" points="497.182,-84.7399 502.467,-75.5572 492.609,-79.44 497.182,-84.7399"/>
</g>
<!-- Node15 -->
<g id="node15" class="node"><title>Node15</title>
<g id="a_node15"><a xlink:href="a00174.html" target="_top" xlink:title="hpp/core/path.hh">
<polygon fill="white" stroke="black" points="457,-235.5 457,-254.5 546,-254.5 546,-235.5 457,-235.5"/>
<text text-anchor="middle" x="501.5" y="-242.5" font-family="Helvetica,sans-Serif" font-size="10.00">hpp/core/path.hh</text>
</a>
</g>
</g>
<!-- Node2&#45;&gt;Node15 -->
<g id="edge14" class="edge"><title>Node2&#45;&gt;Node15</title>
<path fill="none" stroke="midnightblue" d="M414.971,-296.975C431.471,-287.255 458.678,-271.227 478.181,-259.737"/>
<polygon fill="midnightblue" stroke="midnightblue" points="480.216,-262.601 487.056,-254.509 476.663,-256.569 480.216,-262.601"/>
</g>
<!-- Node21 -->
<g id="node21" class="node"><title>Node21</title>
<g id="a_node21"><a xlink:href="a00184.html" target="_top" xlink:title="hpp/core/projection\l&#45;error.hh">
<polygon fill="white" stroke="black" points="109,-168.5 109,-198.5 208,-198.5 208,-168.5 109,-168.5"/>
<text text-anchor="start" x="117" y="-186.5" font-family="Helvetica,sans-Serif" font-size="10.00">hpp/core/projection</text>
<text text-anchor="middle" x="158.5" y="-175.5" font-family="Helvetica,sans-Serif" font-size="10.00">&#45;error.hh</text>
</a>
</g>
</g>
<!-- Node2&#45;&gt;Node21 -->
<g id="edge31" class="edge"><title>Node2&#45;&gt;Node21</title>
<path fill="none" stroke="midnightblue" d="M383.483,-296.992C344.713,-277.606 249.065,-229.783 195.811,-203.156"/>
<polygon fill="midnightblue" stroke="midnightblue" points="197.208,-199.941 186.699,-198.599 194.078,-206.202 197.208,-199.941"/>
</g>
<!-- Node4 -->
<g id="node4" class="node"><title>Node4</title>
<g id="a_node4"><a doxygen="/local/devel/hpp/install/share/doc/hpp-util/doxygen-html/hpp-util.doxytag:../../hpp-util/doxygen-html/" xlink:href="../../hpp-util/doxygen-html/a00025.html" target="_top" xlink:title="hpp/util/indent.hh">
<polygon fill="white" stroke="black" points="0,-174 0,-193 91,-193 91,-174 0,-174"/>
<text text-anchor="middle" x="45.5" y="-181" font-family="Helvetica,sans-Serif" font-size="10.00">hpp/util/indent.hh</text>
</a>
</g>
</g>
<!-- Node3&#45;&gt;Node4 -->
<g id="edge3" class="edge"><title>Node3&#45;&gt;Node4</title>
<path fill="none" stroke="midnightblue" d="M61.7778,-235.475C59.0688,-226.992 54.8257,-213.704 51.3508,-202.822"/>
<polygon fill="midnightblue" stroke="midnightblue" points="54.5933,-201.47 48.2172,-193.009 47.9251,-203.6 54.5933,-201.47"/>
</g>
<!-- Node6 -->
<g id="node6" class="node"><title>Node6</title>
<polygon fill="white" stroke="#bfbfbf" points="752.5,-0.5 752.5,-19.5 796.5,-19.5 796.5,-0.5 752.5,-0.5"/>
<text text-anchor="middle" x="774.5" y="-7.5" font-family="Helvetica,sans-Serif" font-size="10.00">vector</text>
</g>
<!-- Node5&#45;&gt;Node6 -->
<g id="edge5" class="edge"><title>Node5&#45;&gt;Node6</title>
<path fill="none" stroke="midnightblue" d="M556.563,-57.7603C600.878,-50.0469 672.091,-36.9227 742.314,-20.1233"/>
<polygon fill="midnightblue" stroke="midnightblue" points="743.316,-23.4818 752.213,-17.7286 741.67,-16.6781 743.316,-23.4818"/>
</g>
<!-- Node7 -->
<g id="node7" class="node"><title>Node7</title>
<polygon fill="white" stroke="#bfbfbf" points="358,-0.5 358,-19.5 393,-19.5 393,-0.5 358,-0.5"/>
<text text-anchor="middle" x="375.5" y="-7.5" font-family="Helvetica,sans-Serif" font-size="10.00">map</text>
</g>
<!-- Node5&#45;&gt;Node7 -->
<g id="edge6" class="edge"><title>Node5&#45;&gt;Node7</title>
<path fill="none" stroke="midnightblue" d="M491.633,-56.4435C467.614,-47.0445 428.997,-31.9336 402.956,-21.7438"/>
<polygon fill="midnightblue" stroke="midnightblue" points="403.903,-18.3557 393.315,-17.971 401.352,-24.8744 403.903,-18.3557"/>
</g>
<!-- Node8 -->
<g id="node8" class="node"><title>Node8</title>
<polygon fill="white" stroke="#bfbfbf" points="297,-0.5 297,-19.5 340,-19.5 340,-0.5 297,-0.5"/>
<text text-anchor="middle" x="318.5" y="-7.5" font-family="Helvetica,sans-Serif" font-size="10.00">deque</text>
</g>
<!-- Node5&#45;&gt;Node8 -->
<g id="edge7" class="edge"><title>Node5&#45;&gt;Node8</title>
<path fill="none" stroke="midnightblue" d="M481.184,-56.4445C449.888,-48.1021 400.852,-34.8826 349.968,-20.3744"/>
<polygon fill="midnightblue" stroke="midnightblue" points="350.688,-16.94 340.111,-17.5541 348.762,-23.6699 350.688,-16.94"/>
</g>
<!-- Node9 -->
<g id="node9" class="node"><title>Node9</title>
<polygon fill="white" stroke="#bfbfbf" points="411,-0.5 411,-19.5 440,-19.5 440,-0.5 411,-0.5"/>
<text text-anchor="middle" x="425.5" y="-7.5" font-family="Helvetica,sans-Serif" font-size="10.00">list</text>
</g>
<!-- Node5&#45;&gt;Node9 -->
<g id="edge8" class="edge"><title>Node5&#45;&gt;Node9</title>
<path fill="none" stroke="midnightblue" d="M499.361,-56.324C485.634,-47.9002 464.564,-34.9709 448.436,-25.0741"/>
<polygon fill="midnightblue" stroke="midnightblue" points="449.957,-21.9016 439.604,-19.6545 446.296,-27.8678 449.957,-21.9016"/>
</g>
<!-- Node10 -->
<g id="node10" class="node"><title>Node10</title>
<polygon fill="white" stroke="#bfbfbf" points="458.5,-0.5 458.5,-19.5 488.5,-19.5 488.5,-0.5 458.5,-0.5"/>
<text text-anchor="middle" x="473.5" y="-7.5" font-family="Helvetica,sans-Serif" font-size="10.00">set</text>
</g>
<!-- Node5&#45;&gt;Node10 -->
<g id="edge9" class="edge"><title>Node5&#45;&gt;Node10</title>
<path fill="none" stroke="midnightblue" d="M506.895,-56.083C501.245,-48.4554 492.955,-37.2645 486.049,-27.9408"/>
<polygon fill="midnightblue" stroke="midnightblue" points="488.747,-25.7034 479.982,-19.7511 483.122,-29.87 488.747,-25.7034"/>
</g>
<!-- Node11 -->
<g id="node11" class="node"><title>Node11</title>
<g id="a_node11"><a doxygen="/local/devel/hpp/install/share/doc/hpp-util/doxygen-html/hpp-util.doxytag:../../hpp-util/doxygen-html/" xlink:href="../../hpp-util/doxygen-html/a00028.html" target="_top" xlink:title="hpp/util/pointer.hh">
<polygon fill="white" stroke="black" points="506.5,-0.5 506.5,-19.5 600.5,-19.5 600.5,-0.5 506.5,-0.5"/>
<text text-anchor="middle" x="553.5" y="-7.5" font-family="Helvetica,sans-Serif" font-size="10.00">hpp/util/pointer.hh</text>
</a>
</g>
</g>
<!-- Node5&#45;&gt;Node11 -->
<g id="edge10" class="edge"><title>Node5&#45;&gt;Node11</title>
<path fill="none" stroke="midnightblue" d="M520.105,-56.083C525.755,-48.4554 534.045,-37.2645 540.951,-27.9408"/>
<polygon fill="midnightblue" stroke="midnightblue" points="543.878,-29.87 547.018,-19.7511 538.253,-25.7034 543.878,-29.87"/>
</g>
<!-- Node12 -->
<g id="node12" class="node"><title>Node12</title>
<g id="a_node12"><a doxygen="/local/devel/hpp/install/share/doc/hpp-constraints/doxygen-html/hpp-constraints.doxytag:../../hpp-constraints/doxygen-html/" xlink:href="../../hpp-constraints/doxygen-html/a00001.html" target="_top" xlink:title="hpp/constraints/fwd.hh">
<polygon fill="white" stroke="black" points="618.5,-0.5 618.5,-19.5 734.5,-19.5 734.5,-0.5 618.5,-0.5"/>
<text text-anchor="middle" x="676.5" y="-7.5" font-family="Helvetica,sans-Serif" font-size="10.00">hpp/constraints/fwd.hh</text>
</a>
</g>
</g>
<!-- Node5&#45;&gt;Node12 -->
<g id="edge11" class="edge"><title>Node5&#45;&gt;Node12</title>
<path fill="none" stroke="midnightblue" d="M539.328,-56.4435C566.749,-47.3591 610.277,-32.9388 640.932,-22.7831"/>
<polygon fill="midnightblue" stroke="midnightblue" points="642.401,-25.9837 650.793,-19.5164 640.2,-19.3389 642.401,-25.9837"/>
</g>
<!-- Node13 -->
<g id="node13" class="node"><title>Node13</title>
<polygon fill="white" stroke="#bfbfbf" points="814,-0.5 814,-19.5 911,-19.5 911,-0.5 814,-0.5"/>
<text text-anchor="middle" x="862.5" y="-7.5" font-family="Helvetica,sans-Serif" font-size="10.00">hpp/core/config.hh</text>
</g>
<!-- Node5&#45;&gt;Node13 -->
<g id="edge12" class="edge"><title>Node5&#45;&gt;Node13</title>
<path fill="none" stroke="midnightblue" d="M556.551,-58.4162C611.571,-49.991 710.04,-34.8745 804.032,-20.2249"/>
<polygon fill="midnightblue" stroke="midnightblue" points="804.651,-23.6708 813.992,-18.6716 803.572,-16.7544 804.651,-23.6708"/>
</g>
<!-- Node14 -->
<g id="node14" class="node"><title>Node14</title>
<polygon fill="white" stroke="#bfbfbf" points="160,-0.5 160,-19.5 279,-19.5 279,-0.5 160,-0.5"/>
<text text-anchor="middle" x="219.5" y="-7.5" font-family="Helvetica,sans-Serif" font-size="10.00">hpp/core/deprecated.hh</text>
</g>
<!-- Node5&#45;&gt;Node14 -->
<g id="edge13" class="edge"><title>Node5&#45;&gt;Node14</title>
<path fill="none" stroke="midnightblue" d="M470.435,-57.0901C418.977,-47.6387 332.732,-31.7976 275.972,-21.3725"/>
<polygon fill="midnightblue" stroke="midnightblue" points="276.549,-17.9199 266.081,-19.5558 275.285,-24.8048 276.549,-17.9199"/>
</g>
<!-- Node15&#45;&gt;Node5 -->
<g id="edge17" class="edge"><title>Node15&#45;&gt;Node5</title>
<path fill="none" stroke="midnightblue" d="M488.719,-235.369C478.106,-227.36 463.769,-214.379 457.5,-199 452.299,-186.242 454.05,-181.339 457.5,-168 465.828,-135.805 486.871,-102.932 500.658,-83.7736"/>
<polygon fill="midnightblue" stroke="midnightblue" points="503.621,-85.6537 506.755,-75.5333 497.994,-81.4899 503.621,-85.6537"/>
</g>
<!-- Node15&#45;&gt;Node13 -->
<g id="edge18" class="edge"><title>Node15&#45;&gt;Node13</title>
<path fill="none" stroke="midnightblue" d="M546.036,-244.394C597.522,-242.992 683.278,-234.799 746.5,-199 781.027,-179.45 783.719,-165.165 805.5,-132 827.93,-97.8471 846.455,-53.478 855.846,-29.0723"/>
<polygon fill="midnightblue" stroke="midnightblue" points="859.147,-30.2386 859.399,-19.6467 852.597,-27.77 859.147,-30.2386"/>
</g>
<!-- Node15&#45;&gt;Node14 -->
<g id="edge25" class="edge"><title>Node15&#45;&gt;Node14</title>
<path fill="none" stroke="midnightblue" d="M456.978,-241.282C395.915,-236.629 290.641,-224.998 263.5,-199 216.114,-153.611 215.469,-67.7139 217.79,-29.7962"/>
<polygon fill="midnightblue" stroke="midnightblue" points="221.292,-29.9027 218.557,-19.6669 214.312,-29.374 221.292,-29.9027"/>
</g>
<!-- Node16 -->
<g id="node16" class="node"><title>Node16</title>
<polygon fill="white" stroke="#bfbfbf" points="466.5,-174 466.5,-193 594.5,-193 594.5,-174 466.5,-174"/>
<text text-anchor="middle" x="530.5" y="-181" font-family="Helvetica,sans-Serif" font-size="10.00">boost/concept_check.hpp</text>
</g>
<!-- Node15&#45;&gt;Node16 -->
<g id="edge15" class="edge"><title>Node15&#45;&gt;Node16</title>
<path fill="none" stroke="midnightblue" d="M505.655,-235.475C509.876,-226.815 516.537,-213.149 521.9,-202.145"/>
<polygon fill="midnightblue" stroke="midnightblue" points="525.118,-203.532 526.353,-193.009 518.825,-200.465 525.118,-203.532"/>
</g>
<!-- Node17 -->
<g id="node17" class="node"><title>Node17</title>
<g id="a_node17"><a doxygen="/local/devel/hpp/install/share/doc/hpp-util/doxygen-html/hpp-util.doxytag:../../hpp-util/doxygen-html/" xlink:href="../../hpp-util/doxygen-html/a00022.html" target="_top" xlink:title="hpp/util/exception.hh">
<polygon fill="white" stroke="black" points="613,-174 613,-193 720,-193 720,-174 613,-174"/>
<text text-anchor="middle" x="666.5" y="-181" font-family="Helvetica,sans-Serif" font-size="10.00">hpp/util/exception.hh</text>
</a>
</g>
</g>
<!-- Node15&#45;&gt;Node17 -->
<g id="edge16" class="edge"><title>Node15&#45;&gt;Node17</title>
<path fill="none" stroke="midnightblue" d="M525.14,-235.475C553.444,-225.269 601.033,-208.108 633.086,-196.549"/>
<polygon fill="midnightblue" stroke="midnightblue" points="634.684,-199.694 642.903,-193.009 632.309,-193.109 634.684,-199.694"/>
</g>
<!-- Node18 -->
<g id="node18" class="node"><title>Node18</title>
<g id="a_node18"><a xlink:href="a00123.html" target="_top" xlink:title="hpp/core/constraint\l&#45;set.hh">
<polygon fill="white" stroke="black" points="272.5,-168.5 272.5,-198.5 372.5,-198.5 372.5,-168.5 272.5,-168.5"/>
<text text-anchor="start" x="280.5" y="-186.5" font-family="Helvetica,sans-Serif" font-size="10.00">hpp/core/constraint</text>
<text text-anchor="middle" x="322.5" y="-175.5" font-family="Helvetica,sans-Serif" font-size="10.00">&#45;set.hh</text>
</a>
</g>
</g>
<!-- Node15&#45;&gt;Node18 -->
<g id="edge19" class="edge"><title>Node15&#45;&gt;Node18</title>
<path fill="none" stroke="midnightblue" d="M475.854,-235.475C449.458,-226.701 407.602,-212.788 374.281,-201.712"/>
<polygon fill="midnightblue" stroke="midnightblue" points="375.28,-198.356 364.687,-198.523 373.072,-204.999 375.28,-198.356"/>
</g>
<!-- Node15&#45;&gt;Node21 -->
<g id="edge26" class="edge"><title>Node15&#45;&gt;Node21</title>
<path fill="none" stroke="midnightblue" d="M456.892,-237.689C401.682,-229.675 304.867,-214.957 222.5,-199 221.032,-198.716 219.546,-198.422 218.049,-198.122"/>
<polygon fill="midnightblue" stroke="midnightblue" points="218.552,-194.652 208.049,-196.049 217.131,-201.506 218.552,-194.652"/>
</g>
<!-- Node23 -->
<g id="node23" class="node"><title>Node23</title>
<g id="a_node23"><a xlink:href="a00208.html" target="_top" xlink:title="hpp/core/time&#45;parameterization.hh">
<polygon fill="white" stroke="black" points="632.5,-112.5 632.5,-131.5 796.5,-131.5 796.5,-112.5 632.5,-112.5"/>
<text text-anchor="middle" x="714.5" y="-119.5" font-family="Helvetica,sans-Serif" font-size="10.00">hpp/core/time&#45;parameterization.hh</text>
</a>
</g>
</g>
<!-- Node15&#45;&gt;Node23 -->
<g id="edge28" class="edge"><title>Node15&#45;&gt;Node23</title>
<path fill="none" stroke="midnightblue" d="M546.06,-241.674C605.492,-237.533 705.871,-226.556 728.5,-199 742.024,-182.532 733.378,-157.244 724.865,-140.419"/>
<polygon fill="midnightblue" stroke="midnightblue" points="727.917,-138.705 720.038,-131.622 721.78,-142.072 727.917,-138.705"/>
</g>
<!-- Node18&#45;&gt;Node8 -->
<g id="edge20" class="edge"><title>Node18&#45;&gt;Node8</title>
<path fill="none" stroke="midnightblue" d="M307.237,-168.174C298.443,-158.833 288.222,-145.839 283.5,-132 271.025,-95.4373 292.435,-51.7156 306.904,-28.127"/>
<polygon fill="midnightblue" stroke="midnightblue" points="309.924,-29.9007 312.382,-19.5949 304.034,-26.1185 309.924,-29.9007"/>
</g>
<!-- Node19 -->
<g id="node19" class="node"><title>Node19</title>
<g id="a_node19"><a xlink:href="a00124.html" target="_top" xlink:title="hpp/core/constraint.hh">
<polygon fill="white" stroke="black" points="293,-112.5 293,-131.5 406,-131.5 406,-112.5 293,-112.5"/>
<text text-anchor="middle" x="349.5" y="-119.5" font-family="Helvetica,sans-Serif" font-size="10.00">hpp/core/constraint.hh</text>
</a>
</g>
</g>
<!-- Node18&#45;&gt;Node19 -->
<g id="edge21" class="edge"><title>Node18&#45;&gt;Node19</title>
<path fill="none" stroke="midnightblue" d="M328.899,-168.399C332.62,-160.199 337.347,-149.781 341.335,-140.994"/>
<polygon fill="midnightblue" stroke="midnightblue" points="344.626,-142.21 345.571,-131.658 338.252,-139.318 344.626,-142.21"/>
</g>
<!-- Node19&#45;&gt;Node5 -->
<g id="edge24" class="edge"><title>Node19&#45;&gt;Node5</title>
<path fill="none" stroke="midnightblue" d="M375.486,-112.444C403.196,-103.32 447.252,-88.8133 478.116,-78.6509"/>
<polygon fill="midnightblue" stroke="midnightblue" points="479.232,-81.9684 487.635,-75.5164 477.042,-75.3196 479.232,-81.9684"/>
</g>
<!-- Node19&#45;&gt;Node13 -->
<g id="edge23" class="edge"><title>Node19&#45;&gt;Node13</title>
<path fill="none" stroke="midnightblue" d="M390.935,-112.497C434.436,-103.539 504.814,-88.9617 565.5,-76 653.151,-57.2788 755.194,-34.7953 813.973,-21.7773"/>
<polygon fill="midnightblue" stroke="midnightblue" points="815.075,-25.1182 824.081,-19.5377 813.56,-18.284 815.075,-25.1182"/>
</g>
<!-- Node20 -->
<g id="node20" class="node"><title>Node20</title>
<polygon fill="white" stroke="#bfbfbf" points="323.5,-56.5 323.5,-75.5 375.5,-75.5 375.5,-56.5 323.5,-56.5"/>
<text text-anchor="middle" x="349.5" y="-63.5" font-family="Helvetica,sans-Serif" font-size="10.00">ostream</text>
</g>
<!-- Node19&#45;&gt;Node20 -->
<g id="edge22" class="edge"><title>Node19&#45;&gt;Node20</title>
<path fill="none" stroke="midnightblue" d="M349.5,-112.083C349.5,-105.006 349.5,-94.8611 349.5,-85.9865"/>
<polygon fill="midnightblue" stroke="midnightblue" points="353,-85.751 349.5,-75.7511 346,-85.7511 353,-85.751"/>
</g>
<!-- Node22 -->
<g id="node22" class="node"><title>Node22</title>
<polygon fill="white" stroke="#bfbfbf" points="129,-112.5 129,-131.5 188,-131.5 188,-112.5 129,-112.5"/>
<text text-anchor="middle" x="158.5" y="-119.5" font-family="Helvetica,sans-Serif" font-size="10.00">exception</text>
</g>
<!-- Node21&#45;&gt;Node22 -->
<g id="edge27" class="edge"><title>Node21&#45;&gt;Node22</title>
<path fill="none" stroke="midnightblue" d="M158.5,-168.399C158.5,-160.466 158.5,-150.458 158.5,-141.858"/>
<polygon fill="midnightblue" stroke="midnightblue" points="162,-141.658 158.5,-131.658 155,-141.658 162,-141.658"/>
</g>
<!-- Node23&#45;&gt;Node5 -->
<g id="edge29" class="edge"><title>Node23&#45;&gt;Node5</title>
<path fill="none" stroke="midnightblue" d="M682.651,-112.444C648.102,-103.162 592.818,-88.3093 554.917,-78.127"/>
<polygon fill="midnightblue" stroke="midnightblue" points="555.766,-74.7309 545.2,-75.5164 553.949,-81.4912 555.766,-74.7309"/>
</g>
<!-- Node23&#45;&gt;Node13 -->
<g id="edge30" class="edge"><title>Node23&#45;&gt;Node13</title>
<path fill="none" stroke="midnightblue" d="M726.113,-112.368C751.294,-93.6531 811.17,-49.1509 842.544,-25.8324"/>
<polygon fill="midnightblue" stroke="midnightblue" points="845.003,-28.3658 850.941,-19.5914 840.827,-22.7476 845.003,-28.3658"/>
</g>
<!-- Node25&#45;&gt;Node5 -->
<g id="edge34" class="edge"><title>Node25&#45;&gt;Node5</title>
<path fill="none" stroke="midnightblue" d="M806.66,-291.189C796.555,-263.419 770.596,-201.972 728.5,-168 690.109,-137.018 668.301,-152.655 623.5,-132 591.244,-117.128 556.304,-95.4305 534.657,-81.2642"/>
<polygon fill="midnightblue" stroke="midnightblue" points="536.511,-78.2944 526.24,-75.6959 532.649,-84.1325 536.511,-78.2944"/>
</g>
<!-- Node25&#45;&gt;Node13 -->
<g id="edge35" class="edge"><title>Node25&#45;&gt;Node13</title>
<path fill="none" stroke="midnightblue" d="M821.821,-291.414C836.723,-269.644 862.5,-225.99 862.5,-184.5 862.5,-184.5 862.5,-184.5 862.5,-121 862.5,-88.948 862.5,-51.6426 862.5,-29.7489"/>
<polygon fill="midnightblue" stroke="midnightblue" points="866,-29.5577 862.5,-19.5578 859,-29.5578 866,-29.5577"/>
</g>
<!-- Node25&#45;&gt;Node15 -->
<g id="edge36" class="edge"><title>Node25&#45;&gt;Node15</title>
<path fill="none" stroke="midnightblue" d="M757.92,-292.992C754.736,-292.303 751.578,-291.634 748.5,-291 682.6,-277.421 606.366,-263.856 556.221,-255.226"/>
<polygon fill="midnightblue" stroke="midnightblue" points="556.688,-251.755 546.241,-253.514 555.505,-258.654 556.688,-251.755"/>
</g>
<!-- Node27 -->
<g id="node27" class="node"><title>Node27</title>
<g id="a_node27"><a xlink:href="a00135.html" target="_top" xlink:title="hpp/core/distance.hh">
<polygon fill="white" stroke="black" points="903,-174 903,-193 1010,-193 1010,-174 903,-174"/>
<text text-anchor="middle" x="956.5" y="-181" font-family="Helvetica,sans-Serif" font-size="10.00">hpp/core/distance.hh</text>
</a>
</g>
</g>
<!-- Node26&#45;&gt;Node27 -->
<g id="edge38" class="edge"><title>Node26&#45;&gt;Node27</title>
<path fill="none" stroke="midnightblue" d="M956.5,-296.798C956.5,-277.35 956.5,-229.99 956.5,-203.404"/>
<polygon fill="midnightblue" stroke="midnightblue" points="960,-203.123 956.5,-193.123 953,-203.123 960,-203.123"/>
</g>
<!-- Node27&#45;&gt;Node5 -->
<g id="edge40" class="edge"><title>Node27&#45;&gt;Node5</title>
<path fill="none" stroke="midnightblue" d="M941.636,-173.806C915.191,-158.744 857.821,-127.891 805.5,-112 724.476,-87.3922 626.521,-75.8084 567.166,-70.6844"/>
<polygon fill="midnightblue" stroke="midnightblue" points="567.16,-67.1719 556.904,-69.8299 566.579,-74.1478 567.16,-67.1719"/>
</g>
<!-- Node27&#45;&gt;Node13 -->
<g id="edge41" class="edge"><title>Node27&#45;&gt;Node13</title>
<path fill="none" stroke="midnightblue" d="M951.709,-173.76C936.936,-146.806 891.887,-64.6165 872.05,-28.4237"/>
<polygon fill="midnightblue" stroke="midnightblue" points="875.045,-26.6063 867.17,-19.5194 868.907,-29.9708 875.045,-26.6063"/>
</g>
<!-- Node28 -->
<g id="node28" class="node"><title>Node28</title>
<g id="a_node28"><a doxygen="/local/devel/hpp/install/share/doc/hpp-pinocchio/doxygen-html/hpp-pinocchio.doxytag:../../hpp-pinocchio/doxygen-html/" xlink:href="../../hpp-pinocchio/doxygen-html/a00098.html" target="_top" xlink:title="hpp/pinocchio/fwd.hh">
<polygon fill="white" stroke="black" points="1025,-56.5 1025,-75.5 1134,-75.5 1134,-56.5 1025,-56.5"/>
<text text-anchor="middle" x="1079.5" y="-63.5" font-family="Helvetica,sans-Serif" font-size="10.00">hpp/pinocchio/fwd.hh</text>
</a>
</g>
</g>
<!-- Node27&#45;&gt;Node28 -->
<g id="edge39" class="edge"><title>Node27&#45;&gt;Node28</title>
<path fill="none" stroke="midnightblue" d="M997.29,-173.934C1021.32,-166.761 1050.3,-154.023 1067.5,-132 1077.76,-118.871 1080.24,-99.7267 1080.47,-85.6133"/>
<polygon fill="midnightblue" stroke="midnightblue" points="1083.97,-85.5139 1080.27,-75.5841 1076.97,-85.6506 1083.97,-85.5139"/>
</g>
<!-- Node29 -->
<g id="node29" class="node"><title>Node29</title>
<g id="a_node29"><a xlink:href="a00162.html" target="_top" xlink:title="hpp/core/node.hh">
<polygon fill="white" stroke="black" points="966.5,-112.5 966.5,-131.5 1058.5,-131.5 1058.5,-112.5 966.5,-112.5"/>
<text text-anchor="middle" x="1012.5" y="-119.5" font-family="Helvetica,sans-Serif" font-size="10.00">hpp/core/node.hh</text>
</a>
</g>
</g>
<!-- Node27&#45;&gt;Node29 -->
<g id="edge42" class="edge"><title>Node27&#45;&gt;Node29</title>
<path fill="none" stroke="midnightblue" d="M964.523,-173.975C973.09,-164.873 986.861,-150.241 997.457,-138.983"/>
<polygon fill="midnightblue" stroke="midnightblue" points="1000.19,-141.19 1004.49,-131.509 995.089,-136.392 1000.19,-141.19"/>
</g>
<!-- Node29&#45;&gt;Node5 -->
<g id="edge44" class="edge"><title>Node29&#45;&gt;Node5</title>
<path fill="none" stroke="midnightblue" d="M966.45,-116.017C873.705,-105.98 664.91,-83.3851 566.597,-72.746"/>
<polygon fill="midnightblue" stroke="midnightblue" points="566.903,-69.2587 556.585,-71.6625 566.15,-76.2181 566.903,-69.2587"/>
</g>
<!-- Node29&#45;&gt;Node13 -->
<g id="edge45" class="edge"><title>Node29&#45;&gt;Node13</title>
<path fill="none" stroke="midnightblue" d="M1006.29,-112.496C996.202,-99.1289 975.089,-72.9775 952.5,-56 934.708,-42.6278 912.334,-31.4199 894.345,-23.5342"/>
<polygon fill="midnightblue" stroke="midnightblue" points="895.432,-20.1931 884.859,-19.5023 892.693,-26.6353 895.432,-20.1931"/>
</g>
<!-- Node29&#45;&gt;Node28 -->
<g id="edge43" class="edge"><title>Node29&#45;&gt;Node28</title>
<path fill="none" stroke="midnightblue" d="M1023.26,-112.324C1033.27,-104.263 1048.39,-92.0765 1060.43,-82.3695"/>
<polygon fill="midnightblue" stroke="midnightblue" points="1062.95,-84.8343 1068.54,-75.8339 1058.56,-79.3841 1062.95,-84.8343"/>
</g>
</g>
</svg>
