<?xml version="1.0" encoding="UTF-8" standalone="no"?>
<!DOCTYPE svg PUBLIC "-//W3C//DTD SVG 1.1//EN"
 "http://www.w3.org/Graphics/SVG/1.1/DTD/svg11.dtd">
<!-- Generated by graphviz version 2.38.0 (20140413.2041)
 -->
<!-- Title: connected&#45;component.hh Pages: 1 -->
<svg width="821pt" height="196pt"
 viewBox="0.00 0.00 821.00 196.00" xmlns="http://www.w3.org/2000/svg" xmlns:xlink="http://www.w3.org/1999/xlink">
<g id="graph0" class="graph" transform="scale(1 1) rotate(0) translate(4 192)">
<title>connected&#45;component.hh</title>
<polygon fill="white" stroke="none" points="-4,4 -4,-192 817,-192 817,4 -4,4"/>
<!-- Node1 -->
<g id="node1" class="node"><title>Node1</title>
<polygon fill="#bfbfbf" stroke="black" points="538.5,-168.5 538.5,-187.5 664.5,-187.5 664.5,-168.5 538.5,-168.5"/>
<text text-anchor="middle" x="601.5" y="-175.5" font-family="Helvetica,sans-Serif" font-size="10.00">connected&#45;component.hh</text>
</g>
<!-- Node2 -->
<g id="node2" class="node"><title>Node2</title>
<g id="a_node2"><a xlink:href="a00001.html" target="_top" xlink:title="hpp/core/fwd.hh">
<polygon fill="white" stroke="black" points="458.5,-56.5 458.5,-75.5 544.5,-75.5 544.5,-56.5 458.5,-56.5"/>
<text text-anchor="middle" x="501.5" y="-63.5" font-family="Helvetica,sans-Serif" font-size="10.00">hpp/core/fwd.hh</text>
</a>
</g>
</g>
<!-- Node1&#45;&gt;Node2 -->
<g id="edge1" class="edge"><title>Node1&#45;&gt;Node2</title>
<path fill="none" stroke="midnightblue" d="M593.653,-168.368C576.931,-149.974 537.565,-106.671 516.093,-83.0519"/>
<polygon fill="midnightblue" stroke="midnightblue" points="518.627,-80.6365 509.31,-75.5914 513.447,-85.3452 518.627,-80.6365"/>
</g>
<!-- Node10 -->
<g id="node10" class="node"><title>Node10</title>
<polygon fill="white" stroke="#bfbfbf" points="656,-0.5 656,-19.5 753,-19.5 753,-0.5 656,-0.5"/>
<text text-anchor="middle" x="704.5" y="-7.5" font-family="Helvetica,sans-Serif" font-size="10.00">hpp/core/config.hh</text>
</g>
<!-- Node1&#45;&gt;Node10 -->
<g id="edge11" class="edge"><title>Node1&#45;&gt;Node10</title>
<path fill="none" stroke="midnightblue" d="M602.901,-168.155C605.203,-155.227 610.558,-130.682 620.5,-112 638.501,-78.1767 669.051,-45.2494 687.928,-26.6086"/>
<polygon fill="midnightblue" stroke="midnightblue" points="690.484,-29.0049 695.232,-19.5334 685.614,-23.9768 690.484,-29.0049"/>
</g>
<!-- Node12 -->
<g id="node12" class="node"><title>Node12</title>
<g id="a_node12"><a xlink:href="a00162.html" target="_top" xlink:title="hpp/core/node.hh">
<polygon fill="white" stroke="black" points="629.5,-112.5 629.5,-131.5 721.5,-131.5 721.5,-112.5 629.5,-112.5"/>
<text text-anchor="middle" x="675.5" y="-119.5" font-family="Helvetica,sans-Serif" font-size="10.00">hpp/core/node.hh</text>
</a>
</g>
</g>
<!-- Node1&#45;&gt;Node12 -->
<g id="edge12" class="edge"><title>Node1&#45;&gt;Node12</title>
<path fill="none" stroke="midnightblue" d="M613.389,-168.324C624.65,-160.107 641.787,-147.602 655.209,-137.807"/>
<polygon fill="midnightblue" stroke="midnightblue" points="657.38,-140.556 663.394,-131.834 653.253,-134.901 657.38,-140.556"/>
</g>
<!-- Node3 -->
<g id="node3" class="node"><title>Node3</title>
<polygon fill="white" stroke="#bfbfbf" points="479.5,-0.5 479.5,-19.5 523.5,-19.5 523.5,-0.5 479.5,-0.5"/>
<text text-anchor="middle" x="501.5" y="-7.5" font-family="Helvetica,sans-Serif" font-size="10.00">vector</text>
</g>
<!-- Node2&#45;&gt;Node3 -->
<g id="edge2" class="edge"><title>Node2&#45;&gt;Node3</title>
<path fill="none" stroke="midnightblue" d="M501.5,-56.083C501.5,-49.0059 501.5,-38.8611 501.5,-29.9865"/>
<polygon fill="midnightblue" stroke="midnightblue" points="505,-29.751 501.5,-19.7511 498,-29.7511 505,-29.751"/>
</g>
<!-- Node4 -->
<g id="node4" class="node"><title>Node4</title>
<polygon fill="white" stroke="#bfbfbf" points="542,-0.5 542,-19.5 577,-19.5 577,-0.5 542,-0.5"/>
<text text-anchor="middle" x="559.5" y="-7.5" font-family="Helvetica,sans-Serif" font-size="10.00">map</text>
</g>
<!-- Node2&#45;&gt;Node4 -->
<g id="edge3" class="edge"><title>Node2&#45;&gt;Node4</title>
<path fill="none" stroke="midnightblue" d="M510.819,-56.324C519.393,-48.3414 532.312,-36.3128 542.688,-26.6529"/>
<polygon fill="midnightblue" stroke="midnightblue" points="545.078,-29.2098 550.012,-19.8339 540.308,-24.0865 545.078,-29.2098"/>
</g>
<!-- Node5 -->
<g id="node5" class="node"><title>Node5</title>
<polygon fill="white" stroke="#bfbfbf" points="595,-0.5 595,-19.5 638,-19.5 638,-0.5 595,-0.5"/>
<text text-anchor="middle" x="616.5" y="-7.5" font-family="Helvetica,sans-Serif" font-size="10.00">deque</text>
</g>
<!-- Node2&#45;&gt;Node5 -->
<g id="edge4" class="edge"><title>Node2&#45;&gt;Node5</title>
<path fill="none" stroke="midnightblue" d="M519.722,-56.4435C538.396,-47.6751 567.656,-33.9355 589.117,-23.8579"/>
<polygon fill="midnightblue" stroke="midnightblue" points="590.799,-26.935 598.363,-19.5164 587.824,-20.5988 590.799,-26.935"/>
</g>
<!-- Node6 -->
<g id="node6" class="node"><title>Node6</title>
<polygon fill="white" stroke="#bfbfbf" points="0,-0.5 0,-19.5 29,-19.5 29,-0.5 0,-0.5"/>
<text text-anchor="middle" x="14.5" y="-7.5" font-family="Helvetica,sans-Serif" font-size="10.00">list</text>
</g>
<!-- Node2&#45;&gt;Node6 -->
<g id="edge5" class="edge"><title>Node2&#45;&gt;Node6</title>
<path fill="none" stroke="midnightblue" d="M458.447,-64.5553C377.602,-62.9186 197.72,-55.4736 38.9772,-19.444"/>
<polygon fill="midnightblue" stroke="midnightblue" points="39.567,-15.9881 29.0353,-17.1432 37.9886,-22.8078 39.567,-15.9881"/>
</g>
<!-- Node7 -->
<g id="node7" class="node"><title>Node7</title>
<polygon fill="white" stroke="#bfbfbf" points="47.5,-0.5 47.5,-19.5 77.5,-19.5 77.5,-0.5 47.5,-0.5"/>
<text text-anchor="middle" x="62.5" y="-7.5" font-family="Helvetica,sans-Serif" font-size="10.00">set</text>
</g>
<!-- Node2&#45;&gt;Node7 -->
<g id="edge6" class="edge"><title>Node2&#45;&gt;Node7</title>
<path fill="none" stroke="midnightblue" d="M458.484,-63.8759C384.233,-61.1741 227.335,-52.1166 87.5873,-19.6764"/>
<polygon fill="midnightblue" stroke="midnightblue" points="88.094,-16.1996 77.5564,-17.3 86.4802,-23.0111 88.094,-16.1996"/>
</g>
<!-- Node8 -->
<g id="node8" class="node"><title>Node8</title>
<g id="a_node8"><a doxygen="/local/devel/hpp/install/share/doc/hpp-util/doxygen-html/hpp-util.doxytag:../../hpp-util/doxygen-html/" xlink:href="../../hpp-util/doxygen-html/a00028.html" target="_top" xlink:title="hpp/util/pointer.hh">
<polygon fill="white" stroke="black" points="95.5,-0.5 95.5,-19.5 189.5,-19.5 189.5,-0.5 95.5,-0.5"/>
<text text-anchor="middle" x="142.5" y="-7.5" font-family="Helvetica,sans-Serif" font-size="10.00">hpp/util/pointer.hh</text>
</a>
</g>
</g>
<!-- Node2&#45;&gt;Node8 -->
<g id="edge7" class="edge"><title>Node2&#45;&gt;Node8</title>
<path fill="none" stroke="midnightblue" d="M458.324,-58.7528C401.479,-50.4916 298.152,-35.3495 199.674,-20.167"/>
<polygon fill="midnightblue" stroke="midnightblue" points="199.964,-16.6704 189.547,-18.6029 198.896,-23.5883 199.964,-16.6704"/>
</g>
<!-- Node9 -->
<g id="node9" class="node"><title>Node9</title>
<g id="a_node9"><a doxygen="/local/devel/hpp/install/share/doc/hpp-constraints/doxygen-html/hpp-constraints.doxytag:../../hpp-constraints/doxygen-html/" xlink:href="../../hpp-constraints/doxygen-html/a00001.html" target="_top" xlink:title="hpp/constraints/fwd.hh">
<polygon fill="white" stroke="black" points="207.5,-0.5 207.5,-19.5 323.5,-19.5 323.5,-0.5 207.5,-0.5"/>
<text text-anchor="middle" x="265.5" y="-7.5" font-family="Helvetica,sans-Serif" font-size="10.00">hpp/constraints/fwd.hh</text>
</a>
</g>
</g>
<!-- Node2&#45;&gt;Node9 -->
<g id="edge8" class="edge"><title>Node2&#45;&gt;Node9</title>
<path fill="none" stroke="midnightblue" d="M464.105,-56.4435C423.108,-47.0629 357.246,-31.9926 312.716,-21.8036"/>
<polygon fill="midnightblue" stroke="midnightblue" points="313.249,-18.3352 302.72,-19.5164 311.687,-25.1588 313.249,-18.3352"/>
</g>
<!-- Node2&#45;&gt;Node10 -->
<g id="edge9" class="edge"><title>Node2&#45;&gt;Node10</title>
<path fill="none" stroke="midnightblue" d="M533.666,-56.4435C568.559,-47.1616 624.393,-32.3093 662.671,-22.127"/>
<polygon fill="midnightblue" stroke="midnightblue" points="663.72,-25.4696 672.485,-19.5164 661.921,-18.7048 663.72,-25.4696"/>
</g>
<!-- Node11 -->
<g id="node11" class="node"><title>Node11</title>
<polygon fill="white" stroke="#bfbfbf" points="342,-0.5 342,-19.5 461,-19.5 461,-0.5 342,-0.5"/>
<text text-anchor="middle" x="401.5" y="-7.5" font-family="Helvetica,sans-Serif" font-size="10.00">hpp/core/deprecated.hh</text>
</g>
<!-- Node2&#45;&gt;Node11 -->
<g id="edge10" class="edge"><title>Node2&#45;&gt;Node11</title>
<path fill="none" stroke="midnightblue" d="M485.433,-56.324C469.542,-47.7428 444.993,-34.486 426.542,-24.5224"/>
<polygon fill="midnightblue" stroke="midnightblue" points="427.989,-21.3264 417.527,-19.6545 424.663,-27.4857 427.989,-21.3264"/>
</g>
<!-- Node12&#45;&gt;Node2 -->
<g id="edge14" class="edge"><title>Node12&#45;&gt;Node2</title>
<path fill="none" stroke="midnightblue" d="M647.929,-112.444C618.403,-103.28 571.382,-88.6876 538.617,-78.5192"/>
<polygon fill="midnightblue" stroke="midnightblue" points="539.53,-75.1378 528.942,-75.5164 537.455,-81.8232 539.53,-75.1378"/>
</g>
<!-- Node12&#45;&gt;Node10 -->
<g id="edge15" class="edge"><title>Node12&#45;&gt;Node10</title>
<path fill="none" stroke="midnightblue" d="M677.776,-112.368C682.477,-94.5366 693.349,-53.2953 699.683,-29.2717"/>
<polygon fill="midnightblue" stroke="midnightblue" points="703.07,-30.1533 702.235,-19.5914 696.301,-28.3688 703.07,-30.1533"/>
</g>
<!-- Node13 -->
<g id="node13" class="node"><title>Node13</title>
<g id="a_node13"><a doxygen="/local/devel/hpp/install/share/doc/hpp-pinocchio/doxygen-html/hpp-pinocchio.doxytag:../../hpp-pinocchio/doxygen-html/" xlink:href="../../hpp-pinocchio/doxygen-html/a00098.html" target="_top" xlink:title="hpp/pinocchio/fwd.hh">
<polygon fill="white" stroke="black" points="704,-56.5 704,-75.5 813,-75.5 813,-56.5 704,-56.5"/>
<text text-anchor="middle" x="758.5" y="-63.5" font-family="Helvetica,sans-Serif" font-size="10.00">hpp/pinocchio/fwd.hh</text>
</a>
</g>
</g>
<!-- Node12&#45;&gt;Node13 -->
<g id="edge13" class="edge"><title>Node12&#45;&gt;Node13</title>
<path fill="none" stroke="midnightblue" d="M688.835,-112.324C701.662,-103.979 721.285,-91.2122 736.44,-81.3524"/>
<polygon fill="midnightblue" stroke="midnightblue" points="738.724,-84.0417 745.198,-75.6545 734.907,-78.1742 738.724,-84.0417"/>
</g>
</g>
</svg>
