<?xml version="1.0" encoding="UTF-8" standalone="no"?>
<!DOCTYPE svg PUBLIC "-//W3C//DTD SVG 1.1//EN"
 "http://www.w3.org/Graphics/SVG/1.1/DTD/svg11.dtd">
<!-- Generated by graphviz version 2.38.0 (20140413.2041)
 -->
<!-- Title: gaussian.hh Pages: 1 -->
<svg width="1293pt" height="285pt"
 viewBox="0.00 0.00 1292.83 285.00" xmlns="http://www.w3.org/2000/svg" xmlns:xlink="http://www.w3.org/1999/xlink">
<g id="graph0" class="graph" transform="scale(1 1) rotate(0) translate(4 281)">
<title>gaussian.hh</title>
<polygon fill="white" stroke="none" points="-4,4 -4,-281 1288.83,-281 1288.83,4 -4,4"/>
<!-- Node1 -->
<g id="node1" class="node"><title>Node1</title>
<polygon fill="#bfbfbf" stroke="black" points="306.832,-257.5 306.832,-276.5 375.832,-276.5 375.832,-257.5 306.832,-257.5"/>
<text text-anchor="middle" x="341.332" y="-264.5" font-family="Helvetica,sans-Serif" font-size="10.00">gaussian.hh</text>
</g>
<!-- Node2 -->
<g id="node2" class="node"><title>Node2</title>
<polygon fill="white" stroke="#bfbfbf" points="210.332,-196 210.332,-215 262.332,-215 262.332,-196 210.332,-196"/>
<text text-anchor="middle" x="236.332" y="-203" font-family="Helvetica,sans-Serif" font-size="10.00">sstream</text>
</g>
<!-- Node1&#45;&gt;Node2 -->
<g id="edge1" class="edge"><title>Node1&#45;&gt;Node2</title>
<path fill="none" stroke="midnightblue" d="M326.288,-257.475C309.057,-247.711 280.592,-231.581 260.298,-220.081"/>
<polygon fill="midnightblue" stroke="midnightblue" points="261.774,-216.894 251.348,-215.009 258.323,-222.984 261.774,-216.894"/>
</g>
<!-- Node3 -->
<g id="node3" class="node"><title>Node3</title>
<g id="a_node3"><a doxygen="/local/devel/hpp/install/share/doc/hpp-pinocchio/doxygen-html/hpp-pinocchio.doxytag:../../hpp-pinocchio/doxygen-html/" xlink:href="../../hpp-pinocchio/doxygen-html/a00095.html" target="_top" xlink:title="hpp/pinocchio/device.hh">
<polygon fill="white" stroke="black" points="280.332,-196 280.332,-215 402.332,-215 402.332,-196 280.332,-196"/>
<text text-anchor="middle" x="341.332" y="-203" font-family="Helvetica,sans-Serif" font-size="10.00">hpp/pinocchio/device.hh</text>
</a>
</g>
</g>
<!-- Node1&#45;&gt;Node3 -->
<g id="edge2" class="edge"><title>Node1&#45;&gt;Node3</title>
<path fill="none" stroke="midnightblue" d="M341.332,-257.475C341.332,-249.08 341.332,-235.981 341.332,-225.163"/>
<polygon fill="midnightblue" stroke="midnightblue" points="344.832,-225.009 341.332,-215.009 337.832,-225.009 344.832,-225.009"/>
</g>
<!-- Node10 -->
<g id="node10" class="node"><title>Node10</title>
<g id="a_node10"><a xlink:href="a00120.html" target="_top" xlink:title="hpp/core/configuration\l&#45;shooter.hh">
<polygon fill="white" stroke="black" points="527.832,-190.5 527.832,-220.5 640.832,-220.5 640.832,-190.5 527.832,-190.5"/>
<text text-anchor="start" x="535.832" y="-208.5" font-family="Helvetica,sans-Serif" font-size="10.00">hpp/core/configuration</text>
<text text-anchor="middle" x="584.332" y="-197.5" font-family="Helvetica,sans-Serif" font-size="10.00">&#45;shooter.hh</text>
</a>
</g>
</g>
<!-- Node1&#45;&gt;Node10 -->
<g id="edge14" class="edge"><title>Node1&#45;&gt;Node10</title>
<path fill="none" stroke="midnightblue" d="M375.89,-257.538C412.635,-248.541 471.657,-234.089 517.532,-222.857"/>
<polygon fill="midnightblue" stroke="midnightblue" points="518.523,-226.217 527.403,-220.439 516.858,-219.418 518.523,-226.217"/>
</g>
<!-- Node4 -->
<g id="node4" class="node"><title>Node4</title>
<g id="a_node4"><a doxygen="/local/devel/hpp/install/share/doc/hpp-pinocchio/doxygen-html/hpp-pinocchio.doxytag:../../hpp-pinocchio/doxygen-html/" xlink:href="../../hpp-pinocchio/doxygen-html/a00098.html" target="_top" xlink:title="hpp/pinocchio/fwd.hh">
<polygon fill="white" stroke="black" points="283.832,-0.5 283.832,-19.5 392.832,-19.5 392.832,-0.5 283.832,-0.5"/>
<text text-anchor="middle" x="338.332" y="-7.5" font-family="Helvetica,sans-Serif" font-size="10.00">hpp/pinocchio/fwd.hh</text>
</a>
</g>
</g>
<!-- Node3&#45;&gt;Node4 -->
<g id="edge3" class="edge"><title>Node3&#45;&gt;Node4</title>
<path fill="none" stroke="midnightblue" d="M302.173,-195.928C292.144,-193.859 281.359,-191.744 271.332,-190 214.951,-180.191 53.8643,-197.203 16.3324,-154 -60.6713,-65.3617 158.847,-29.2497 273.501,-16.7288"/>
<polygon fill="midnightblue" stroke="midnightblue" points="274.009,-20.1946 283.584,-15.6588 273.271,-13.2336 274.009,-20.1946"/>
</g>
<!-- Node5 -->
<g id="node5" class="node"><title>Node5</title>
<g id="a_node5"><a doxygen="/local/devel/hpp/install/share/doc/hpp-pinocchio/doxygen-html/hpp-pinocchio.doxytag:../../hpp-pinocchio/doxygen-html/" xlink:href="../../hpp-pinocchio/doxygen-html/a00097.html" target="_top" xlink:title="hpp/pinocchio/frame.hh">
<polygon fill="white" stroke="black" points="25.3324,-129 25.3324,-148 143.332,-148 143.332,-129 25.3324,-129"/>
<text text-anchor="middle" x="84.3324" y="-136" font-family="Helvetica,sans-Serif" font-size="10.00">hpp/pinocchio/frame.hh</text>
</a>
</g>
</g>
<!-- Node3&#45;&gt;Node5 -->
<g id="edge4" class="edge"><title>Node3&#45;&gt;Node5</title>
<path fill="none" stroke="midnightblue" d="M307.47,-195.936C261.34,-184.268 178.698,-163.367 127.97,-150.537"/>
<polygon fill="midnightblue" stroke="midnightblue" points="128.823,-147.142 118.27,-148.083 127.106,-153.929 128.823,-147.142"/>
</g>
<!-- Node6 -->
<g id="node6" class="node"><title>Node6</title>
<g id="a_node6"><a doxygen="/local/devel/hpp/install/share/doc/hpp-pinocchio/doxygen-html/hpp-pinocchio.doxytag:../../hpp-pinocchio/doxygen-html/" xlink:href="../../hpp-pinocchio/doxygen-html/a00108.html" target="_top" xlink:title="hpp/pinocchio/pool.hh">
<polygon fill="white" stroke="black" points="161.832,-129 161.832,-148 272.832,-148 272.832,-129 161.832,-129"/>
<text text-anchor="middle" x="217.332" y="-136" font-family="Helvetica,sans-Serif" font-size="10.00">hpp/pinocchio/pool.hh</text>
</a>
</g>
</g>
<!-- Node3&#45;&gt;Node6 -->
<g id="edge6" class="edge"><title>Node3&#45;&gt;Node6</title>
<path fill="none" stroke="midnightblue" d="M324.866,-195.869C303.929,-184.893 267.551,-165.824 242.969,-152.938"/>
<polygon fill="midnightblue" stroke="midnightblue" points="244.349,-149.71 233.867,-148.167 241.099,-155.91 244.349,-149.71"/>
</g>
<!-- Node7 -->
<g id="node7" class="node"><title>Node7</title>
<g id="a_node7"><a doxygen="/local/devel/hpp/install/share/doc/hpp-pinocchio/doxygen-html/hpp-pinocchio.doxytag:../../hpp-pinocchio/doxygen-html/" xlink:href="../../hpp-pinocchio/doxygen-html/a00096.html" target="_top" xlink:title="hpp/pinocchio/extra\l&#45;config&#45;space.hh">
<polygon fill="white" stroke="black" points="290.832,-123.5 290.832,-153.5 391.832,-153.5 391.832,-123.5 290.832,-123.5"/>
<text text-anchor="start" x="298.832" y="-141.5" font-family="Helvetica,sans-Serif" font-size="10.00">hpp/pinocchio/extra</text>
<text text-anchor="middle" x="341.332" y="-130.5" font-family="Helvetica,sans-Serif" font-size="10.00">&#45;config&#45;space.hh</text>
</a>
</g>
</g>
<!-- Node3&#45;&gt;Node7 -->
<g id="edge7" class="edge"><title>Node3&#45;&gt;Node7</title>
<path fill="none" stroke="midnightblue" d="M341.332,-195.734C341.332,-187.541 341.332,-174.923 341.332,-163.714"/>
<polygon fill="midnightblue" stroke="midnightblue" points="344.832,-163.589 341.332,-153.589 337.832,-163.589 344.832,-163.589"/>
</g>
<!-- Node8 -->
<g id="node8" class="node"><title>Node8</title>
<g id="a_node8"><a doxygen="/local/devel/hpp/install/share/doc/hpp-pinocchio/doxygen-html/hpp-pinocchio.doxytag:../../hpp-pinocchio/doxygen-html/" xlink:href="../../hpp-pinocchio/doxygen-html/a00093.html" target="_top" xlink:title="hpp/pinocchio/device\l&#45;data.hh">
<polygon fill="white" stroke="black" points="366.332,-56.5 366.332,-86.5 474.332,-86.5 474.332,-56.5 366.332,-56.5"/>
<text text-anchor="start" x="374.332" y="-74.5" font-family="Helvetica,sans-Serif" font-size="10.00">hpp/pinocchio/device</text>
<text text-anchor="middle" x="420.332" y="-63.5" font-family="Helvetica,sans-Serif" font-size="10.00">&#45;data.hh</text>
</a>
</g>
</g>
<!-- Node3&#45;&gt;Node8 -->
<g id="edge9" class="edge"><title>Node3&#45;&gt;Node8</title>
<path fill="none" stroke="midnightblue" d="M355.742,-195.94C369.309,-187.126 389.166,-172.142 400.332,-154 410.982,-136.698 415.964,-114.062 418.293,-97.037"/>
<polygon fill="midnightblue" stroke="midnightblue" points="421.808,-97.1065 419.473,-86.7722 414.854,-96.3069 421.808,-97.1065"/>
</g>
<!-- Node9 -->
<g id="node9" class="node"><title>Node9</title>
<g id="a_node9"><a doxygen="/local/devel/hpp/install/share/doc/hpp-pinocchio/doxygen-html/hpp-pinocchio.doxytag:../../hpp-pinocchio/doxygen-html/" xlink:href="../../hpp-pinocchio/doxygen-html/a00094.html" target="_top" xlink:title="hpp/pinocchio/device\l&#45;sync.hh">
<polygon fill="white" stroke="black" points="448.332,-123.5 448.332,-153.5 556.332,-153.5 556.332,-123.5 448.332,-123.5"/>
<text text-anchor="start" x="456.332" y="-141.5" font-family="Helvetica,sans-Serif" font-size="10.00">hpp/pinocchio/device</text>
<text text-anchor="middle" x="502.332" y="-130.5" font-family="Helvetica,sans-Serif" font-size="10.00">&#45;sync.hh</text>
</a>
</g>
</g>
<!-- Node3&#45;&gt;Node9 -->
<g id="edge11" class="edge"><title>Node3&#45;&gt;Node9</title>
<path fill="none" stroke="midnightblue" d="M362.712,-195.869C386.975,-186.073 427.208,-169.83 458.269,-157.29"/>
<polygon fill="midnightblue" stroke="midnightblue" points="459.623,-160.517 467.586,-153.528 457.003,-154.026 459.623,-160.517"/>
</g>
<!-- Node5&#45;&gt;Node4 -->
<g id="edge5" class="edge"><title>Node5&#45;&gt;Node4</title>
<path fill="none" stroke="midnightblue" d="M101.791,-128.805C145.488,-107.042 259.793,-50.1151 311.837,-24.1958"/>
<polygon fill="midnightblue" stroke="midnightblue" points="313.697,-27.1795 321.088,-19.5884 310.576,-20.9136 313.697,-27.1795"/>
</g>
<!-- Node7&#45;&gt;Node4 -->
<g id="edge8" class="edge"><title>Node7&#45;&gt;Node4</title>
<path fill="none" stroke="midnightblue" d="M341,-123.479C340.46,-100.719 339.393,-55.7023 338.784,-30.0582"/>
<polygon fill="midnightblue" stroke="midnightblue" points="342.277,-29.7027 338.541,-19.7885 335.279,-29.8687 342.277,-29.7027"/>
</g>
<!-- Node8&#45;&gt;Node4 -->
<g id="edge10" class="edge"><title>Node8&#45;&gt;Node4</title>
<path fill="none" stroke="midnightblue" d="M400.9,-56.3993C388.124,-47.1293 371.443,-35.0254 358.518,-25.6469"/>
<polygon fill="midnightblue" stroke="midnightblue" points="360.413,-22.6979 350.264,-19.6578 356.302,-28.3635 360.413,-22.6979"/>
</g>
<!-- Node9&#45;&gt;Node4 -->
<g id="edge12" class="edge"><title>Node9&#45;&gt;Node4</title>
<path fill="none" stroke="midnightblue" d="M503.034,-123.467C503.143,-105.507 500.554,-74.5064 483.332,-56 462.612,-33.7339 431.11,-22.3978 402.756,-16.6623"/>
<polygon fill="midnightblue" stroke="midnightblue" points="403.347,-13.2124 392.881,-14.8584 402.089,-20.0985 403.347,-13.2124"/>
</g>
<!-- Node9&#45;&gt;Node8 -->
<g id="edge13" class="edge"><title>Node9&#45;&gt;Node8</title>
<path fill="none" stroke="midnightblue" d="M484.54,-123.396C473.257,-114.452 458.478,-102.737 445.944,-92.8018"/>
<polygon fill="midnightblue" stroke="midnightblue" points="448.101,-90.0457 438.09,-86.5765 443.753,-95.5313 448.101,-90.0457"/>
</g>
<!-- Node11 -->
<g id="node11" class="node"><title>Node11</title>
<polygon fill="white" stroke="#bfbfbf" points="532.832,-62 532.832,-81 629.832,-81 629.832,-62 532.832,-62"/>
<text text-anchor="middle" x="581.332" y="-69" font-family="Helvetica,sans-Serif" font-size="10.00">hpp/core/config.hh</text>
</g>
<!-- Node10&#45;&gt;Node11 -->
<g id="edge15" class="edge"><title>Node10&#45;&gt;Node11</title>
<path fill="none" stroke="midnightblue" d="M584.011,-190.374C583.469,-166.504 582.371,-118.181 581.762,-91.4149"/>
<polygon fill="midnightblue" stroke="midnightblue" points="585.254,-91.0151 581.528,-81.0973 578.256,-91.1742 585.254,-91.0151"/>
</g>
<!-- Node12 -->
<g id="node12" class="node"><title>Node12</title>
<g id="a_node12"><a xlink:href="a00001.html" target="_top" xlink:title="hpp/core/fwd.hh">
<polygon fill="white" stroke="black" points="768.332,-129 768.332,-148 854.332,-148 854.332,-129 768.332,-129"/>
<text text-anchor="middle" x="811.332" y="-136" font-family="Helvetica,sans-Serif" font-size="10.00">hpp/core/fwd.hh</text>
</a>
</g>
</g>
<!-- Node10&#45;&gt;Node12 -->
<g id="edge16" class="edge"><title>Node10&#45;&gt;Node12</title>
<path fill="none" stroke="midnightblue" d="M633.309,-190.476C674.705,-178.622 733.25,-161.858 771.737,-150.838"/>
<polygon fill="midnightblue" stroke="midnightblue" points="772.898,-154.146 781.548,-148.029 770.971,-147.417 772.898,-154.146"/>
</g>
<!-- Node12&#45;&gt;Node11 -->
<g id="edge24" class="edge"><title>Node12&#45;&gt;Node11</title>
<path fill="none" stroke="midnightblue" d="M780.79,-128.869C739.779,-117.278 666.83,-96.6624 621.436,-83.8335"/>
<polygon fill="midnightblue" stroke="midnightblue" points="622.21,-80.4152 611.635,-81.0637 620.306,-87.1514 622.21,-80.4152"/>
</g>
<!-- Node13 -->
<g id="node13" class="node"><title>Node13</title>
<polygon fill="white" stroke="#bfbfbf" points="647.332,-62 647.332,-81 691.332,-81 691.332,-62 647.332,-62"/>
<text text-anchor="middle" x="669.332" y="-69" font-family="Helvetica,sans-Serif" font-size="10.00">vector</text>
</g>
<!-- Node12&#45;&gt;Node13 -->
<g id="edge17" class="edge"><title>Node12&#45;&gt;Node13</title>
<path fill="none" stroke="midnightblue" d="M792.476,-128.869C768.181,-117.748 725.732,-98.3167 697.576,-85.4286"/>
<polygon fill="midnightblue" stroke="midnightblue" points="698.816,-82.147 688.267,-81.1672 695.903,-88.5118 698.816,-82.147"/>
</g>
<!-- Node14 -->
<g id="node14" class="node"><title>Node14</title>
<polygon fill="white" stroke="#bfbfbf" points="709.832,-62 709.832,-81 744.832,-81 744.832,-62 709.832,-62"/>
<text text-anchor="middle" x="727.332" y="-69" font-family="Helvetica,sans-Serif" font-size="10.00">map</text>
</g>
<!-- Node12&#45;&gt;Node14 -->
<g id="edge18" class="edge"><title>Node12&#45;&gt;Node14</title>
<path fill="none" stroke="midnightblue" d="M800.004,-128.734C786.275,-118.111 762.934,-100.049 746.412,-87.2642"/>
<polygon fill="midnightblue" stroke="midnightblue" points="748.532,-84.4791 738.482,-81.1273 744.248,-90.0152 748.532,-84.4791"/>
</g>
<!-- Node15 -->
<g id="node15" class="node"><title>Node15</title>
<polygon fill="white" stroke="#bfbfbf" points="762.832,-62 762.832,-81 805.832,-81 805.832,-62 762.832,-62"/>
<text text-anchor="middle" x="784.332" y="-69" font-family="Helvetica,sans-Serif" font-size="10.00">deque</text>
</g>
<!-- Node12&#45;&gt;Node15 -->
<g id="edge19" class="edge"><title>Node12&#45;&gt;Node15</title>
<path fill="none" stroke="midnightblue" d="M807.691,-128.734C803.643,-118.988 796.994,-102.981 791.823,-90.5318"/>
<polygon fill="midnightblue" stroke="midnightblue" points="794.984,-89.0196 787.916,-81.1273 788.52,-91.7049 794.984,-89.0196"/>
</g>
<!-- Node16 -->
<g id="node16" class="node"><title>Node16</title>
<polygon fill="white" stroke="#bfbfbf" points="823.832,-62 823.832,-81 852.832,-81 852.832,-62 823.832,-62"/>
<text text-anchor="middle" x="838.332" y="-69" font-family="Helvetica,sans-Serif" font-size="10.00">list</text>
</g>
<!-- Node12&#45;&gt;Node16 -->
<g id="edge20" class="edge"><title>Node12&#45;&gt;Node16</title>
<path fill="none" stroke="midnightblue" d="M814.974,-128.734C819.022,-118.988 825.671,-102.981 830.842,-90.5318"/>
<polygon fill="midnightblue" stroke="midnightblue" points="834.145,-91.7049 834.749,-81.1273 827.68,-89.0196 834.145,-91.7049"/>
</g>
<!-- Node17 -->
<g id="node17" class="node"><title>Node17</title>
<polygon fill="white" stroke="#bfbfbf" points="871.332,-62 871.332,-81 901.332,-81 901.332,-62 871.332,-62"/>
<text text-anchor="middle" x="886.332" y="-69" font-family="Helvetica,sans-Serif" font-size="10.00">set</text>
</g>
<!-- Node12&#45;&gt;Node17 -->
<g id="edge21" class="edge"><title>Node12&#45;&gt;Node17</title>
<path fill="none" stroke="midnightblue" d="M821.447,-128.734C833.48,-118.305 853.784,-100.709 868.479,-87.9732"/>
<polygon fill="midnightblue" stroke="midnightblue" points="871.113,-90.3216 876.378,-81.1273 866.529,-85.0317 871.113,-90.3216"/>
</g>
<!-- Node18 -->
<g id="node18" class="node"><title>Node18</title>
<g id="a_node18"><a doxygen="/local/devel/hpp/install/share/doc/hpp-util/doxygen-html/hpp-util.doxytag:../../hpp-util/doxygen-html/" xlink:href="../../hpp-util/doxygen-html/a00028.html" target="_top" xlink:title="hpp/util/pointer.hh">
<polygon fill="white" stroke="black" points="919.332,-62 919.332,-81 1013.33,-81 1013.33,-62 919.332,-62"/>
<text text-anchor="middle" x="966.332" y="-69" font-family="Helvetica,sans-Serif" font-size="10.00">hpp/util/pointer.hh</text>
</a>
</g>
</g>
<!-- Node12&#45;&gt;Node18 -->
<g id="edge22" class="edge"><title>Node12&#45;&gt;Node18</title>
<path fill="none" stroke="midnightblue" d="M831.915,-128.869C858.666,-117.65 905.58,-97.9766 936.304,-85.0925"/>
<polygon fill="midnightblue" stroke="midnightblue" points="937.796,-88.2622 945.664,-81.1672 935.089,-81.8068 937.796,-88.2622"/>
</g>
<!-- Node19 -->
<g id="node19" class="node"><title>Node19</title>
<g id="a_node19"><a doxygen="/local/devel/hpp/install/share/doc/hpp-constraints/doxygen-html/hpp-constraints.doxytag:../../hpp-constraints/doxygen-html/" xlink:href="../../hpp-constraints/doxygen-html/a00001.html" target="_top" xlink:title="hpp/constraints/fwd.hh">
<polygon fill="white" stroke="black" points="1031.33,-62 1031.33,-81 1147.33,-81 1147.33,-62 1031.33,-62"/>
<text text-anchor="middle" x="1089.33" y="-69" font-family="Helvetica,sans-Serif" font-size="10.00">hpp/constraints/fwd.hh</text>
</a>
</g>
</g>
<!-- Node12&#45;&gt;Node19 -->
<g id="edge23" class="edge"><title>Node12&#45;&gt;Node19</title>
<path fill="none" stroke="midnightblue" d="M847.962,-128.936C898.069,-117.22 988.001,-96.1925 1042.81,-83.3768"/>
<polygon fill="midnightblue" stroke="midnightblue" points="1043.68,-86.7683 1052.62,-81.0834 1042.09,-79.9521 1043.68,-86.7683"/>
</g>
<!-- Node20 -->
<g id="node20" class="node"><title>Node20</title>
<polygon fill="white" stroke="#bfbfbf" points="1165.83,-62 1165.83,-81 1284.83,-81 1284.83,-62 1165.83,-62"/>
<text text-anchor="middle" x="1225.33" y="-69" font-family="Helvetica,sans-Serif" font-size="10.00">hpp/core/deprecated.hh</text>
</g>
<!-- Node12&#45;&gt;Node20 -->
<g id="edge25" class="edge"><title>Node12&#45;&gt;Node20</title>
<path fill="none" stroke="midnightblue" d="M854.499,-132.053C919.958,-123.596 1048.16,-106.263 1156.33,-87 1162.97,-85.8176 1169.95,-84.4726 1176.81,-83.0897"/>
<polygon fill="midnightblue" stroke="midnightblue" points="1177.64,-86.4926 1186.73,-81.051 1176.23,-79.6359 1177.64,-86.4926"/>
</g>
</g>
</svg>
