<?xml version="1.0" encoding="UTF-8" standalone="no"?>
<!DOCTYPE svg PUBLIC "-//W3C//DTD SVG 1.1//EN"
 "http://www.w3.org/Graphics/SVG/1.1/DTD/svg11.dtd">
<!-- Generated by graphviz version 2.38.0 (20140413.2041)
 -->
<!-- Title: collision&#45;validation.hh Pages: 1 -->
<svg width="887pt" height="285pt"
 viewBox="0.00 0.00 887.00 285.00" xmlns="http://www.w3.org/2000/svg" xmlns:xlink="http://www.w3.org/1999/xlink">
<g id="graph0" class="graph" transform="scale(1 1) rotate(0) translate(4 281)">
<title>collision&#45;validation.hh</title>
<polygon fill="white" stroke="none" points="-4,4 -4,-281 883,-281 883,4 -4,4"/>
<!-- Node1 -->
<g id="node1" class="node"><title>Node1</title>
<polygon fill="#bfbfbf" stroke="black" points="349.5,-257.5 349.5,-276.5 459.5,-276.5 459.5,-257.5 349.5,-257.5"/>
<text text-anchor="middle" x="404.5" y="-264.5" font-family="Helvetica,sans-Serif" font-size="10.00">collision&#45;validation.hh</text>
</g>
<!-- Node2 -->
<g id="node2" class="node"><title>Node2</title>
<g id="a_node2"><a xlink:href="a00114.html" target="_top" xlink:title="hpp/core/collision\l&#45;validation&#45;report.hh">
<polygon fill="white" stroke="black" points="353.5,-190.5 353.5,-220.5 455.5,-220.5 455.5,-190.5 353.5,-190.5"/>
<text text-anchor="start" x="361.5" y="-208.5" font-family="Helvetica,sans-Serif" font-size="10.00">hpp/core/collision</text>
<text text-anchor="middle" x="404.5" y="-197.5" font-family="Helvetica,sans-Serif" font-size="10.00">&#45;validation&#45;report.hh</text>
</a>
</g>
</g>
<!-- Node1&#45;&gt;Node2 -->
<g id="edge1" class="edge"><title>Node1&#45;&gt;Node2</title>
<path fill="none" stroke="midnightblue" d="M404.5,-257.475C404.5,-250.471 404.5,-240.192 404.5,-230.696"/>
<polygon fill="midnightblue" stroke="midnightblue" points="408,-230.523 404.5,-220.523 401,-230.523 408,-230.523"/>
</g>
<!-- Node16 -->
<g id="node16" class="node"><title>Node16</title>
<polygon fill="white" stroke="#bfbfbf" points="221.5,-129 221.5,-148 337.5,-148 337.5,-129 221.5,-129"/>
<text text-anchor="middle" x="279.5" y="-136" font-family="Helvetica,sans-Serif" font-size="10.00">hpp/fcl/collision_data.h</text>
</g>
<!-- Node1&#45;&gt;Node16 -->
<g id="edge26" class="edge"><title>Node1&#45;&gt;Node16</title>
<path fill="none" stroke="midnightblue" d="M390.859,-257.241C378.167,-248.763 359.075,-235.148 344.5,-221 323.681,-200.791 303.447,-173.933 291.229,-156.677"/>
<polygon fill="midnightblue" stroke="midnightblue" points="293.9,-154.388 285.313,-148.182 288.156,-158.389 293.9,-154.388"/>
</g>
<!-- Node17 -->
<g id="node17" class="node"><title>Node17</title>
<g id="a_node17"><a xlink:href="a00118.html" target="_top" xlink:title="hpp/core/config&#45;validation.hh">
<polygon fill="white" stroke="black" points="485,-196 485,-215 626,-215 626,-196 485,-196"/>
<text text-anchor="middle" x="555.5" y="-203" font-family="Helvetica,sans-Serif" font-size="10.00">hpp/core/config&#45;validation.hh</text>
</a>
</g>
</g>
<!-- Node1&#45;&gt;Node17 -->
<g id="edge17" class="edge"><title>Node1&#45;&gt;Node17</title>
<path fill="none" stroke="midnightblue" d="M426.135,-257.475C451.924,-247.313 495.211,-230.256 524.54,-218.7"/>
<polygon fill="midnightblue" stroke="midnightblue" points="525.885,-221.932 533.906,-215.009 523.319,-215.419 525.885,-221.932"/>
</g>
<!-- Node3 -->
<g id="node3" class="node"><title>Node3</title>
<g id="a_node3"><a doxygen="/local/devel/hpp/install/share/doc/hpp-pinocchio/doxygen-html/hpp-pinocchio.doxytag:../../hpp-pinocchio/doxygen-html/" xlink:href="../../hpp-pinocchio/doxygen-html/a00091.html" target="_top" xlink:title="hpp/pinocchio/collision\l&#45;object.hh">
<polygon fill="white" stroke="black" points="424,-56.5 424,-86.5 539,-86.5 539,-56.5 424,-56.5"/>
<text text-anchor="start" x="432" y="-74.5" font-family="Helvetica,sans-Serif" font-size="10.00">hpp/pinocchio/collision</text>
<text text-anchor="middle" x="481.5" y="-63.5" font-family="Helvetica,sans-Serif" font-size="10.00">&#45;object.hh</text>
</a>
</g>
</g>
<!-- Node2&#45;&gt;Node3 -->
<g id="edge2" class="edge"><title>Node2&#45;&gt;Node3</title>
<path fill="none" stroke="midnightblue" d="M426.603,-190.442C438.961,-181.465 453.619,-168.757 462.5,-154 472.947,-136.64 477.65,-114.009 479.767,-97.0011"/>
<polygon fill="midnightblue" stroke="midnightblue" points="483.28,-97.0535 480.82,-86.7484 476.317,-96.3387 483.28,-97.0535"/>
</g>
<!-- Node5 -->
<g id="node5" class="node"><title>Node5</title>
<g id="a_node5"><a xlink:href="a00210.html" target="_top" xlink:title="hpp/core/validation\l&#45;report.hh">
<polygon fill="white" stroke="black" points="355.5,-123.5 355.5,-153.5 453.5,-153.5 453.5,-123.5 355.5,-123.5"/>
<text text-anchor="start" x="363.5" y="-141.5" font-family="Helvetica,sans-Serif" font-size="10.00">hpp/core/validation</text>
<text text-anchor="middle" x="404.5" y="-130.5" font-family="Helvetica,sans-Serif" font-size="10.00">&#45;report.hh</text>
</a>
</g>
</g>
<!-- Node2&#45;&gt;Node5 -->
<g id="edge4" class="edge"><title>Node2&#45;&gt;Node5</title>
<path fill="none" stroke="midnightblue" d="M404.5,-190.396C404.5,-182.645 404.5,-172.812 404.5,-163.86"/>
<polygon fill="midnightblue" stroke="midnightblue" points="408,-163.576 404.5,-153.577 401,-163.577 408,-163.576"/>
</g>
<!-- Node2&#45;&gt;Node16 -->
<g id="edge16" class="edge"><title>Node2&#45;&gt;Node16</title>
<path fill="none" stroke="midnightblue" d="M377.377,-190.396C355.832,-179.193 325.925,-163.641 304.856,-152.685"/>
<polygon fill="midnightblue" stroke="midnightblue" points="306.347,-149.515 295.86,-148.007 303.117,-155.726 306.347,-149.515"/>
</g>
<!-- Node4 -->
<g id="node4" class="node"><title>Node4</title>
<g id="a_node4"><a doxygen="/local/devel/hpp/install/share/doc/hpp-pinocchio/doxygen-html/hpp-pinocchio.doxytag:../../hpp-pinocchio/doxygen-html/" xlink:href="../../hpp-pinocchio/doxygen-html/a00098.html" target="_top" xlink:title="hpp/pinocchio/fwd.hh">
<polygon fill="white" stroke="black" points="770,-0.5 770,-19.5 879,-19.5 879,-0.5 770,-0.5"/>
<text text-anchor="middle" x="824.5" y="-7.5" font-family="Helvetica,sans-Serif" font-size="10.00">hpp/pinocchio/fwd.hh</text>
</a>
</g>
</g>
<!-- Node3&#45;&gt;Node4 -->
<g id="edge3" class="edge"><title>Node3&#45;&gt;Node4</title>
<path fill="none" stroke="midnightblue" d="M539.297,-60.4739C602.054,-49.5876 701.78,-32.2882 765.142,-21.2969"/>
<polygon fill="midnightblue" stroke="midnightblue" points="766.118,-24.6798 775.373,-19.5221 764.922,-17.7828 766.118,-24.6798"/>
</g>
<!-- Node6 -->
<g id="node6" class="node"><title>Node6</title>
<polygon fill="white" stroke="#bfbfbf" points="0,-0.5 0,-19.5 97,-19.5 97,-0.5 0,-0.5"/>
<text text-anchor="middle" x="48.5" y="-7.5" font-family="Helvetica,sans-Serif" font-size="10.00">hpp/core/config.hh</text>
</g>
<!-- Node5&#45;&gt;Node6 -->
<g id="edge5" class="edge"><title>Node5&#45;&gt;Node6</title>
<path fill="none" stroke="midnightblue" d="M365.042,-123.479C294.614,-98.4536 148.462,-46.5203 82.3202,-23.0176"/>
<polygon fill="midnightblue" stroke="midnightblue" points="83.3824,-19.6807 72.7877,-19.6303 81.0386,-26.2766 83.3824,-19.6807"/>
</g>
<!-- Node7 -->
<g id="node7" class="node"><title>Node7</title>
<g id="a_node7"><a xlink:href="a00001.html" target="_top" xlink:title="hpp/core/fwd.hh">
<polygon fill="white" stroke="black" points="310.5,-62 310.5,-81 396.5,-81 396.5,-62 310.5,-62"/>
<text text-anchor="middle" x="353.5" y="-69" font-family="Helvetica,sans-Serif" font-size="10.00">hpp/core/fwd.hh</text>
</a>
</g>
</g>
<!-- Node5&#45;&gt;Node7 -->
<g id="edge6" class="edge"><title>Node5&#45;&gt;Node7</title>
<path fill="none" stroke="midnightblue" d="M393.434,-123.396C385.56,-113.361 374.95,-99.8382 366.645,-89.2535"/>
<polygon fill="midnightblue" stroke="midnightblue" points="369.248,-86.9014 360.322,-81.1945 363.741,-91.2225 369.248,-86.9014"/>
</g>
<!-- Node7&#45;&gt;Node6 -->
<g id="edge14" class="edge"><title>Node7&#45;&gt;Node6</title>
<path fill="none" stroke="midnightblue" d="M310.448,-62.1013C255.808,-51.4421 161.55,-33.054 102.247,-21.4852"/>
<polygon fill="midnightblue" stroke="midnightblue" points="102.806,-18.0282 92.3208,-19.5486 101.466,-24.8987 102.806,-18.0282"/>
</g>
<!-- Node8 -->
<g id="node8" class="node"><title>Node8</title>
<polygon fill="white" stroke="#bfbfbf" points="114.5,-0.5 114.5,-19.5 158.5,-19.5 158.5,-0.5 114.5,-0.5"/>
<text text-anchor="middle" x="136.5" y="-7.5" font-family="Helvetica,sans-Serif" font-size="10.00">vector</text>
</g>
<!-- Node7&#45;&gt;Node8 -->
<g id="edge7" class="edge"><title>Node7&#45;&gt;Node8</title>
<path fill="none" stroke="midnightblue" d="M321.195,-61.9122C286.017,-52.5202 227.845,-36.8728 168.432,-20.2273"/>
<polygon fill="midnightblue" stroke="midnightblue" points="169.076,-16.7727 158.502,-17.439 167.183,-23.5121 169.076,-16.7727"/>
</g>
<!-- Node9 -->
<g id="node9" class="node"><title>Node9</title>
<polygon fill="white" stroke="#bfbfbf" points="177,-0.5 177,-19.5 212,-19.5 212,-0.5 177,-0.5"/>
<text text-anchor="middle" x="194.5" y="-7.5" font-family="Helvetica,sans-Serif" font-size="10.00">map</text>
</g>
<!-- Node7&#45;&gt;Node9 -->
<g id="edge8" class="edge"><title>Node7&#45;&gt;Node9</title>
<path fill="none" stroke="midnightblue" d="M330.719,-61.9751C302.02,-51.2355 252.745,-32.7959 221.985,-21.2852"/>
<polygon fill="midnightblue" stroke="midnightblue" points="222.912,-17.8952 212.32,-17.6684 220.459,-24.4512 222.912,-17.8952"/>
</g>
<!-- Node10 -->
<g id="node10" class="node"><title>Node10</title>
<polygon fill="white" stroke="#bfbfbf" points="230,-0.5 230,-19.5 273,-19.5 273,-0.5 230,-0.5"/>
<text text-anchor="middle" x="251.5" y="-7.5" font-family="Helvetica,sans-Serif" font-size="10.00">deque</text>
</g>
<!-- Node7&#45;&gt;Node10 -->
<g id="edge9" class="edge"><title>Node7&#45;&gt;Node10</title>
<path fill="none" stroke="midnightblue" d="M338.886,-61.9751C322.147,-52.2106 294.496,-36.0807 274.781,-24.5808"/>
<polygon fill="midnightblue" stroke="midnightblue" points="276.488,-21.5246 266.087,-19.5091 272.961,-27.5711 276.488,-21.5246"/>
</g>
<!-- Node11 -->
<g id="node11" class="node"><title>Node11</title>
<polygon fill="white" stroke="#bfbfbf" points="291,-0.5 291,-19.5 320,-19.5 320,-0.5 291,-0.5"/>
<text text-anchor="middle" x="305.5" y="-7.5" font-family="Helvetica,sans-Serif" font-size="10.00">list</text>
</g>
<!-- Node7&#45;&gt;Node11 -->
<g id="edge10" class="edge"><title>Node7&#45;&gt;Node11</title>
<path fill="none" stroke="midnightblue" d="M346.623,-61.9751C339.351,-52.9617 327.705,-38.5246 318.659,-27.3118"/>
<polygon fill="midnightblue" stroke="midnightblue" points="321.367,-25.0946 312.364,-19.5091 315.919,-29.4898 321.367,-25.0946"/>
</g>
<!-- Node12 -->
<g id="node12" class="node"><title>Node12</title>
<polygon fill="white" stroke="#bfbfbf" points="338.5,-0.5 338.5,-19.5 368.5,-19.5 368.5,-0.5 338.5,-0.5"/>
<text text-anchor="middle" x="353.5" y="-7.5" font-family="Helvetica,sans-Serif" font-size="10.00">set</text>
</g>
<!-- Node7&#45;&gt;Node12 -->
<g id="edge11" class="edge"><title>Node7&#45;&gt;Node12</title>
<path fill="none" stroke="midnightblue" d="M353.5,-61.9751C353.5,-53.5803 353.5,-40.4806 353.5,-29.6631"/>
<polygon fill="midnightblue" stroke="midnightblue" points="357,-29.5091 353.5,-19.5091 350,-29.5091 357,-29.5091"/>
</g>
<!-- Node13 -->
<g id="node13" class="node"><title>Node13</title>
<g id="a_node13"><a doxygen="/local/devel/hpp/install/share/doc/hpp-util/doxygen-html/hpp-util.doxytag:../../hpp-util/doxygen-html/" xlink:href="../../hpp-util/doxygen-html/a00028.html" target="_top" xlink:title="hpp/util/pointer.hh">
<polygon fill="white" stroke="black" points="386.5,-0.5 386.5,-19.5 480.5,-19.5 480.5,-0.5 386.5,-0.5"/>
<text text-anchor="middle" x="433.5" y="-7.5" font-family="Helvetica,sans-Serif" font-size="10.00">hpp/util/pointer.hh</text>
</a>
</g>
</g>
<!-- Node7&#45;&gt;Node13 -->
<g id="edge12" class="edge"><title>Node7&#45;&gt;Node13</title>
<path fill="none" stroke="midnightblue" d="M364.962,-61.9751C377.675,-52.5199 398.413,-37.0961 413.753,-25.6871"/>
<polygon fill="midnightblue" stroke="midnightblue" points="416.124,-28.2854 422.059,-19.5091 411.946,-22.6686 416.124,-28.2854"/>
</g>
<!-- Node14 -->
<g id="node14" class="node"><title>Node14</title>
<g id="a_node14"><a doxygen="/local/devel/hpp/install/share/doc/hpp-constraints/doxygen-html/hpp-constraints.doxytag:../../hpp-constraints/doxygen-html/" xlink:href="../../hpp-constraints/doxygen-html/a00001.html" target="_top" xlink:title="hpp/constraints/fwd.hh">
<polygon fill="white" stroke="black" points="498.5,-0.5 498.5,-19.5 614.5,-19.5 614.5,-0.5 498.5,-0.5"/>
<text text-anchor="middle" x="556.5" y="-7.5" font-family="Helvetica,sans-Serif" font-size="10.00">hpp/constraints/fwd.hh</text>
</a>
</g>
</g>
<!-- Node7&#45;&gt;Node14 -->
<g id="edge13" class="edge"><title>Node7&#45;&gt;Node14</title>
<path fill="none" stroke="midnightblue" d="M382.585,-61.9751C418.085,-51.5699 478.245,-33.9367 517.674,-22.3801"/>
<polygon fill="midnightblue" stroke="midnightblue" points="518.857,-25.6806 527.469,-19.5091 516.888,-18.9632 518.857,-25.6806"/>
</g>
<!-- Node15 -->
<g id="node15" class="node"><title>Node15</title>
<polygon fill="white" stroke="#bfbfbf" points="633,-0.5 633,-19.5 752,-19.5 752,-0.5 633,-0.5"/>
<text text-anchor="middle" x="692.5" y="-7.5" font-family="Helvetica,sans-Serif" font-size="10.00">hpp/core/deprecated.hh</text>
</g>
<!-- Node7&#45;&gt;Node15 -->
<g id="edge15" class="edge"><title>Node7&#45;&gt;Node15</title>
<path fill="none" stroke="midnightblue" d="M387.602,-61.9305C396.342,-59.8617 405.747,-57.7464 414.5,-56 485.028,-41.9289 566.289,-29.1711 622.664,-20.8631"/>
<polygon fill="midnightblue" stroke="midnightblue" points="623.506,-24.2772 632.893,-19.3642 622.491,-17.3511 623.506,-24.2772"/>
</g>
<!-- Node17&#45;&gt;Node5 -->
<g id="edge18" class="edge"><title>Node17&#45;&gt;Node5</title>
<path fill="none" stroke="midnightblue" d="M535.448,-195.869C512.888,-186.157 475.608,-170.109 446.582,-157.615"/>
<polygon fill="midnightblue" stroke="midnightblue" points="447.657,-154.267 437.088,-153.528 444.89,-160.697 447.657,-154.267"/>
</g>
<!-- Node17&#45;&gt;Node15 -->
<g id="edge25" class="edge"><title>Node17&#45;&gt;Node15</title>
<path fill="none" stroke="midnightblue" d="M555.189,-195.986C554.745,-171.315 556.724,-98.8162 592.5,-56 605.702,-40.2004 625.596,-29.719 644.172,-22.8821"/>
<polygon fill="midnightblue" stroke="midnightblue" points="645.385,-26.1664 653.724,-19.6301 643.129,-19.5399 645.385,-26.1664"/>
</g>
<!-- Node18 -->
<g id="node18" class="node"><title>Node18</title>
<g id="a_node18"><a xlink:href="a00191.html" target="_top" xlink:title="hpp/core/relative&#45;motion.hh">
<polygon fill="white" stroke="black" points="595.5,-129 595.5,-148 729.5,-148 729.5,-129 595.5,-129"/>
<text text-anchor="middle" x="662.5" y="-136" font-family="Helvetica,sans-Serif" font-size="10.00">hpp/core/relative&#45;motion.hh</text>
</a>
</g>
</g>
<!-- Node17&#45;&gt;Node18 -->
<g id="edge19" class="edge"><title>Node17&#45;&gt;Node18</title>
<path fill="none" stroke="midnightblue" d="M569.93,-195.734C587.819,-184.867 618.521,-166.216 639.63,-153.393"/>
<polygon fill="midnightblue" stroke="midnightblue" points="641.569,-156.311 648.298,-148.127 637.934,-150.328 641.569,-156.311"/>
</g>
<!-- Node18&#45;&gt;Node4 -->
<g id="edge21" class="edge"><title>Node18&#45;&gt;Node4</title>
<path fill="none" stroke="midnightblue" d="M724.309,-128.939C752.344,-122.026 783.785,-109.541 804.5,-87 818.752,-71.4918 823.088,-47.0506 824.285,-30.0894"/>
<polygon fill="midnightblue" stroke="midnightblue" points="827.796,-29.8747 824.695,-19.7439 820.802,-29.5973 827.796,-29.8747"/>
</g>
<!-- Node18&#45;&gt;Node7 -->
<g id="edge22" class="edge"><title>Node18&#45;&gt;Node7</title>
<path fill="none" stroke="midnightblue" d="M618.506,-128.99C568.858,-119.282 485.726,-102.713 414.5,-87 409.383,-85.8711 404.033,-84.654 398.719,-83.4219"/>
<polygon fill="midnightblue" stroke="midnightblue" points="399.15,-79.928 388.615,-81.0529 397.552,-86.7432 399.15,-79.928"/>
</g>
<!-- Node19 -->
<g id="node19" class="node"><title>Node19</title>
<polygon fill="white" stroke="#bfbfbf" points="731,-62 731,-81 796,-81 796,-62 731,-62"/>
<text text-anchor="middle" x="763.5" y="-69" font-family="Helvetica,sans-Serif" font-size="10.00">Eigen/Core</text>
</g>
<!-- Node18&#45;&gt;Node19 -->
<g id="edge20" class="edge"><title>Node18&#45;&gt;Node19</title>
<path fill="none" stroke="midnightblue" d="M676.121,-128.734C692.931,-117.916 721.728,-99.3832 741.644,-86.5659"/>
<polygon fill="midnightblue" stroke="midnightblue" points="743.58,-89.4823 750.094,-81.1273 739.791,-83.5959 743.58,-89.4823"/>
</g>
<!-- Node20 -->
<g id="node20" class="node"><title>Node20</title>
<g id="a_node20"><a doxygen="/local/devel/hpp/install/share/doc/hpp-pinocchio/doxygen-html/hpp-pinocchio.doxytag:../../hpp-pinocchio/doxygen-html/" xlink:href="../../hpp-pinocchio/doxygen-html/a00102.html" target="_top" xlink:title="hpp/pinocchio/joint.hh">
<polygon fill="white" stroke="black" points="602,-62 602,-81 713,-81 713,-62 602,-62"/>
<text text-anchor="middle" x="657.5" y="-69" font-family="Helvetica,sans-Serif" font-size="10.00">hpp/pinocchio/joint.hh</text>
</a>
</g>
</g>
<!-- Node18&#45;&gt;Node20 -->
<g id="edge23" class="edge"><title>Node18&#45;&gt;Node20</title>
<path fill="none" stroke="midnightblue" d="M661.826,-128.734C661.091,-119.183 659.894,-103.618 658.945,-91.2829"/>
<polygon fill="midnightblue" stroke="midnightblue" points="662.42,-90.8294 658.164,-81.1273 655.441,-91.3663 662.42,-90.8294"/>
</g>
<!-- Node20&#45;&gt;Node4 -->
<g id="edge24" class="edge"><title>Node20&#45;&gt;Node4</title>
<path fill="none" stroke="midnightblue" d="M681.427,-61.9751C710.197,-51.7246 758.656,-34.4593 791.102,-22.8994"/>
<polygon fill="midnightblue" stroke="midnightblue" points="792.372,-26.1624 800.617,-19.5091 790.023,-19.5684 792.372,-26.1624"/>
</g>
</g>
</svg>
