<?xml version="1.0" encoding="UTF-8" standalone="no"?>
<!DOCTYPE svg PUBLIC "-//W3C//DTD SVG 1.1//EN"
 "http://www.w3.org/Graphics/SVG/1.1/DTD/svg11.dtd">
<!-- Generated by graphviz version 2.38.0 (20140413.2041)
 -->
<!-- Title: equation.hh Pages: 1 -->
<svg width="761pt" height="196pt"
 viewBox="0.00 0.00 761.00 196.00" xmlns="http://www.w3.org/2000/svg" xmlns:xlink="http://www.w3.org/1999/xlink">
<g id="graph0" class="graph" transform="scale(1 1) rotate(0) translate(4 192)">
<title>equation.hh</title>
<polygon fill="white" stroke="none" points="-4,4 -4,-192 757,-192 757,4 -4,4"/>
<!-- Node1 -->
<g id="node1" class="node"><title>Node1</title>
<polygon fill="#bfbfbf" stroke="black" points="292.5,-168.5 292.5,-187.5 359.5,-187.5 359.5,-168.5 292.5,-168.5"/>
<text text-anchor="middle" x="326" y="-175.5" font-family="Helvetica,sans-Serif" font-size="10.00">equation.hh</text>
</g>
<!-- Node2 -->
<g id="node2" class="node"><title>Node2</title>
<g id="a_node2"><a doxygen="/local/devel/hpp/install/share/doc/hpp-constraints/doxygen-html/hpp-constraints.doxytag:../../hpp-constraints/doxygen-html/" xlink:href="../../hpp-constraints/doxygen-html/a00119.html" target="_top" xlink:title="hpp/constraints/implicit.hh">
<polygon fill="white" stroke="black" points="307.5,-112.5 307.5,-131.5 438.5,-131.5 438.5,-112.5 307.5,-112.5"/>
<text text-anchor="middle" x="373" y="-119.5" font-family="Helvetica,sans-Serif" font-size="10.00">hpp/constraints/implicit.hh</text>
</a>
</g>
</g>
<!-- Node1&#45;&gt;Node2 -->
<g id="edge1" class="edge"><title>Node1&#45;&gt;Node2</title>
<path fill="none" stroke="midnightblue" d="M333.761,-168.083C340.537,-160.298 350.543,-148.801 358.755,-139.367"/>
<polygon fill="midnightblue" stroke="midnightblue" points="361.458,-141.592 365.383,-131.751 356.178,-136.996 361.458,-141.592"/>
</g>
<!-- Node3 -->
<g id="node3" class="node"><title>Node3</title>
<g id="a_node3"><a xlink:href="a00001.html" target="_top" xlink:title="hpp/constraints/fwd.hh">
<polygon fill="white" stroke="black" points="221,-56.5 221,-75.5 337,-75.5 337,-56.5 221,-56.5"/>
<text text-anchor="middle" x="279" y="-63.5" font-family="Helvetica,sans-Serif" font-size="10.00">hpp/constraints/fwd.hh</text>
</a>
</g>
</g>
<!-- Node1&#45;&gt;Node3 -->
<g id="edge14" class="edge"><title>Node1&#45;&gt;Node3</title>
<path fill="none" stroke="midnightblue" d="M319.676,-168.432C313.445,-159.658 304.01,-145.44 298,-132 291.251,-116.907 286.183,-98.782 282.987,-85.5104"/>
<polygon fill="midnightblue" stroke="midnightblue" points="286.38,-84.649 280.745,-75.6768 279.555,-86.2046 286.38,-84.649"/>
</g>
<!-- Node2&#45;&gt;Node3 -->
<g id="edge2" class="edge"><title>Node2&#45;&gt;Node3</title>
<path fill="none" stroke="midnightblue" d="M357.897,-112.324C343.097,-103.822 320.306,-90.7288 303.018,-80.7975"/>
<polygon fill="midnightblue" stroke="midnightblue" points="304.48,-77.6009 294.065,-75.6545 300.993,-83.6707 304.48,-77.6009"/>
</g>
<!-- Node10 -->
<g id="node10" class="node"><title>Node10</title>
<g id="a_node10"><a doxygen="/local/devel/hpp/install/share/doc/hpp-constraints/doxygen-html/hpp-constraints.doxytag:../../hpp-constraints/doxygen-html/" xlink:href="../../hpp-constraints/doxygen-html/a00001.html" target="_top" xlink:title="hpp/constraints/fwd.hh">
<polygon fill="white" stroke="black" points="637,-0.5 637,-19.5 753,-19.5 753,-0.5 637,-0.5"/>
<text text-anchor="middle" x="695" y="-7.5" font-family="Helvetica,sans-Serif" font-size="10.00">hpp/constraints/fwd.hh</text>
</a>
</g>
</g>
<!-- Node2&#45;&gt;Node10 -->
<g id="edge13" class="edge"><title>Node2&#45;&gt;Node10</title>
<path fill="none" stroke="midnightblue" d="M372.787,-112.301C372.955,-98.171 375.515,-70.3687 392,-56 396.427,-52.1411 539.084,-32.1723 627.05,-20.1698"/>
<polygon fill="midnightblue" stroke="midnightblue" points="627.53,-23.6369 636.966,-18.819 626.585,-16.701 627.53,-23.6369"/>
</g>
<!-- Node13 -->
<g id="node13" class="node"><title>Node13</title>
<g id="a_node13"><a xlink:href="a00142.html" target="_top" xlink:title="hpp/constraints/fwd.hh">
<polygon fill="white" stroke="black" points="401,-56.5 401,-75.5 517,-75.5 517,-56.5 401,-56.5"/>
<text text-anchor="middle" x="459" y="-63.5" font-family="Helvetica,sans-Serif" font-size="10.00">hpp/constraints/fwd.hh</text>
</a>
</g>
</g>
<!-- Node2&#45;&gt;Node13 -->
<g id="edge12" class="edge"><title>Node2&#45;&gt;Node13</title>
<path fill="none" stroke="midnightblue" d="M386.817,-112.324C400.233,-103.9 420.824,-90.9709 436.586,-81.0741"/>
<polygon fill="midnightblue" stroke="midnightblue" points="438.609,-83.9364 445.217,-75.6545 434.887,-78.0081 438.609,-83.9364"/>
</g>
<!-- Node4 -->
<g id="node4" class="node"><title>Node4</title>
<polygon fill="white" stroke="#bfbfbf" points="0,-0.5 0,-19.5 44,-19.5 44,-0.5 0,-0.5"/>
<text text-anchor="middle" x="22" y="-7.5" font-family="Helvetica,sans-Serif" font-size="10.00">vector</text>
</g>
<!-- Node3&#45;&gt;Node4 -->
<g id="edge3" class="edge"><title>Node3&#45;&gt;Node4</title>
<path fill="none" stroke="midnightblue" d="M229.797,-56.4639C185.989,-48.5801 119.98,-36.0082 54.0184,-20.092"/>
<polygon fill="midnightblue" stroke="midnightblue" points="54.8339,-16.6884 44.2894,-17.7196 53.1755,-23.4891 54.8339,-16.6884"/>
</g>
<!-- Node5 -->
<g id="node5" class="node"><title>Node5</title>
<polygon fill="white" stroke="#bfbfbf" points="62.5,-0.5 62.5,-19.5 97.5,-19.5 97.5,-0.5 62.5,-0.5"/>
<text text-anchor="middle" x="80" y="-7.5" font-family="Helvetica,sans-Serif" font-size="10.00">map</text>
</g>
<!-- Node3&#45;&gt;Node5 -->
<g id="edge4" class="edge"><title>Node3&#45;&gt;Node5</title>
<path fill="none" stroke="midnightblue" d="M242.652,-56.4285C209.545,-48.426 159.127,-35.7533 107.259,-20.2217"/>
<polygon fill="midnightblue" stroke="midnightblue" points="108.146,-16.8334 97.5609,-17.2888 106.12,-23.5337 108.146,-16.8334"/>
</g>
<!-- Node6 -->
<g id="node6" class="node"><title>Node6</title>
<polygon fill="white" stroke="#bfbfbf" points="115.5,-0.5 115.5,-19.5 158.5,-19.5 158.5,-0.5 115.5,-0.5"/>
<text text-anchor="middle" x="137" y="-7.5" font-family="Helvetica,sans-Serif" font-size="10.00">deque</text>
</g>
<!-- Node3&#45;&gt;Node6 -->
<g id="edge5" class="edge"><title>Node3&#45;&gt;Node6</title>
<path fill="none" stroke="midnightblue" d="M256.5,-56.4435C232.784,-47.4249 195.239,-33.1472 168.567,-23.0043"/>
<polygon fill="midnightblue" stroke="midnightblue" points="169.52,-19.6221 158.928,-19.339 167.031,-26.165 169.52,-19.6221"/>
</g>
<!-- Node7 -->
<g id="node7" class="node"><title>Node7</title>
<polygon fill="white" stroke="#bfbfbf" points="176.5,-0.5 176.5,-19.5 205.5,-19.5 205.5,-0.5 176.5,-0.5"/>
<text text-anchor="middle" x="191" y="-7.5" font-family="Helvetica,sans-Serif" font-size="10.00">list</text>
</g>
<!-- Node3&#45;&gt;Node7 -->
<g id="edge6" class="edge"><title>Node3&#45;&gt;Node7</title>
<path fill="none" stroke="midnightblue" d="M264.861,-56.324C251.134,-47.9002 230.064,-34.9709 213.936,-25.0741"/>
<polygon fill="midnightblue" stroke="midnightblue" points="215.457,-21.9016 205.104,-19.6545 211.796,-27.8678 215.457,-21.9016"/>
</g>
<!-- Node8 -->
<g id="node8" class="node"><title>Node8</title>
<polygon fill="white" stroke="#bfbfbf" points="224,-0.5 224,-19.5 254,-19.5 254,-0.5 224,-0.5"/>
<text text-anchor="middle" x="239" y="-7.5" font-family="Helvetica,sans-Serif" font-size="10.00">set</text>
</g>
<!-- Node3&#45;&gt;Node8 -->
<g id="edge7" class="edge"><title>Node3&#45;&gt;Node8</title>
<path fill="none" stroke="midnightblue" d="M272.395,-56.083C266.745,-48.4554 258.455,-37.2645 251.549,-27.9408"/>
<polygon fill="midnightblue" stroke="midnightblue" points="254.247,-25.7034 245.482,-19.7511 248.622,-29.87 254.247,-25.7034"/>
</g>
<!-- Node9 -->
<g id="node9" class="node"><title>Node9</title>
<g id="a_node9"><a doxygen="/local/devel/hpp/install/share/doc/hpp-util/doxygen-html/hpp-util.doxytag:../../hpp-util/doxygen-html/" xlink:href="../../hpp-util/doxygen-html/a00028.html" target="_top" xlink:title="hpp/util/pointer.hh">
<polygon fill="white" stroke="black" points="272,-0.5 272,-19.5 366,-19.5 366,-0.5 272,-0.5"/>
<text text-anchor="middle" x="319" y="-7.5" font-family="Helvetica,sans-Serif" font-size="10.00">hpp/util/pointer.hh</text>
</a>
</g>
</g>
<!-- Node3&#45;&gt;Node9 -->
<g id="edge8" class="edge"><title>Node3&#45;&gt;Node9</title>
<path fill="none" stroke="midnightblue" d="M285.605,-56.083C291.255,-48.4554 299.545,-37.2645 306.451,-27.9408"/>
<polygon fill="midnightblue" stroke="midnightblue" points="309.378,-29.87 312.518,-19.7511 303.753,-25.7034 309.378,-29.87"/>
</g>
<!-- Node3&#45;&gt;Node10 -->
<g id="edge9" class="edge"><title>Node3&#45;&gt;Node10</title>
<path fill="none" stroke="midnightblue" d="M337.059,-57.6094C404.232,-49.0372 518.46,-34.3944 626.773,-20.156"/>
<polygon fill="midnightblue" stroke="midnightblue" points="627.44,-23.5985 636.898,-18.8239 626.527,-16.6583 627.44,-23.5985"/>
</g>
<!-- Node11 -->
<g id="node11" class="node"><title>Node11</title>
<polygon fill="white" stroke="#bfbfbf" points="384.5,-0.5 384.5,-19.5 481.5,-19.5 481.5,-0.5 384.5,-0.5"/>
<text text-anchor="middle" x="433" y="-7.5" font-family="Helvetica,sans-Serif" font-size="10.00">hpp/core/config.hh</text>
</g>
<!-- Node3&#45;&gt;Node11 -->
<g id="edge10" class="edge"><title>Node3&#45;&gt;Node11</title>
<path fill="none" stroke="midnightblue" d="M303.402,-56.4435C329.197,-47.3986 370.077,-33.064 399.018,-22.9158"/>
<polygon fill="midnightblue" stroke="midnightblue" points="400.434,-26.1283 408.712,-19.5164 398.118,-19.5226 400.434,-26.1283"/>
</g>
<!-- Node12 -->
<g id="node12" class="node"><title>Node12</title>
<polygon fill="white" stroke="#bfbfbf" points="499.5,-0.5 499.5,-19.5 618.5,-19.5 618.5,-0.5 499.5,-0.5"/>
<text text-anchor="middle" x="559" y="-7.5" font-family="Helvetica,sans-Serif" font-size="10.00">hpp/core/deprecated.hh</text>
</g>
<!-- Node3&#45;&gt;Node12 -->
<g id="edge11" class="edge"><title>Node3&#45;&gt;Node12</title>
<path fill="none" stroke="midnightblue" d="M323.367,-56.4435C372.622,-46.9444 452.128,-31.611 504.971,-21.4198"/>
<polygon fill="midnightblue" stroke="midnightblue" points="505.684,-24.8469 514.841,-19.5164 504.359,-17.9735 505.684,-24.8469"/>
</g>
</g>
</svg>
