<?xml version="1.0" encoding="UTF-8" standalone="no"?>
<!DOCTYPE svg PUBLIC "-//W3C//DTD SVG 1.1//EN"
 "http://www.w3.org/Graphics/SVG/1.1/DTD/svg11.dtd">
<!-- Generated by graphviz version 2.38.0 (20140413.2041)
 -->
<!-- Title: interval&#45;validation.hh Pages: 1 -->
<svg width="1660pt" height="151pt"
 viewBox="0.00 0.00 1659.50 151.00" xmlns="http://www.w3.org/2000/svg" xmlns:xlink="http://www.w3.org/1999/xlink">
<g id="graph0" class="graph" transform="scale(1 1) rotate(0) translate(4 147)">
<title>interval&#45;validation.hh</title>
<polygon fill="white" stroke="none" points="-4,4 -4,-147 1655.5,-147 1655.5,4 -4,4"/>
<!-- Node1 -->
<g id="node1" class="node"><title>Node1</title>
<polygon fill="#bfbfbf" stroke="black" points="479,-123.5 479,-142.5 585,-142.5 585,-123.5 479,-123.5"/>
<text text-anchor="middle" x="532" y="-130.5" font-family="Helvetica,sans-Serif" font-size="10.00">interval&#45;validation.hh</text>
</g>
<!-- Node2 -->
<g id="node2" class="node"><title>Node2</title>
<polygon fill="white" stroke="#bfbfbf" points="0,-62 0,-81 40,-81 40,-62 0,-62"/>
<text text-anchor="middle" x="20" y="-69" font-family="Helvetica,sans-Serif" font-size="10.00">limits</text>
</g>
<!-- Node1&#45;&gt;Node2 -->
<g id="edge1" class="edge"><title>Node1&#45;&gt;Node2</title>
<path fill="none" stroke="midnightblue" d="M478.747,-129.521C370.555,-124.079 128.56,-109.729 49,-87 47.3255,-86.5216 45.6322,-85.9471 43.9491,-85.3067"/>
<polygon fill="midnightblue" stroke="midnightblue" points="45.1797,-82.0228 34.6227,-81.1282 42.3177,-88.411 45.1797,-82.0228"/>
</g>
<!-- Node3 -->
<g id="node3" class="node"><title>Node3</title>
<polygon fill="white" stroke="#bfbfbf" points="58.5,-62 58.5,-81 105.5,-81 105.5,-62 58.5,-62"/>
<text text-anchor="middle" x="82" y="-69" font-family="Helvetica,sans-Serif" font-size="10.00">iterator</text>
</g>
<!-- Node1&#45;&gt;Node3 -->
<g id="edge2" class="edge"><title>Node1&#45;&gt;Node3</title>
<path fill="none" stroke="midnightblue" d="M478.719,-131.433C398.5,-129.427 242.518,-121.025 115,-87 112.704,-86.3875 110.364,-85.6376 108.042,-84.8048"/>
<polygon fill="midnightblue" stroke="midnightblue" points="109.35,-81.5586 98.7676,-81.0521 106.725,-88.0475 109.35,-81.5586"/>
</g>
<!-- Node4 -->
<g id="node4" class="node"><title>Node4</title>
<polygon fill="white" stroke="#bfbfbf" points="124,-56.5 124,-86.5 228,-86.5 228,-56.5 124,-56.5"/>
<text text-anchor="start" x="132" y="-74.5" font-family="Helvetica,sans-Serif" font-size="10.00">boost/icl/continuous</text>
<text text-anchor="middle" x="176" y="-63.5" font-family="Helvetica,sans-Serif" font-size="10.00">_interval.hpp</text>
</g>
<!-- Node1&#45;&gt;Node4 -->
<g id="edge3" class="edge"><title>Node1&#45;&gt;Node4</title>
<path fill="none" stroke="midnightblue" d="M478.749,-125.215C421.64,-117.639 328.097,-104.371 238.267,-87.154"/>
<polygon fill="midnightblue" stroke="midnightblue" points="238.665,-83.6662 228.182,-85.2012 237.335,-90.5386 238.665,-83.6662"/>
</g>
<!-- Node5 -->
<g id="node5" class="node"><title>Node5</title>
<polygon fill="white" stroke="#bfbfbf" points="246,-56.5 246,-86.5 334,-86.5 334,-56.5 246,-56.5"/>
<text text-anchor="start" x="254" y="-74.5" font-family="Helvetica,sans-Serif" font-size="10.00">boost/icl/interval</text>
<text text-anchor="middle" x="290" y="-63.5" font-family="Helvetica,sans-Serif" font-size="10.00">_set.hpp</text>
</g>
<!-- Node1&#45;&gt;Node5 -->
<g id="edge4" class="edge"><title>Node1&#45;&gt;Node5</title>
<path fill="none" stroke="midnightblue" d="M494.614,-123.486C458.51,-115.177 402.049,-101.96 344.257,-87.2777"/>
<polygon fill="midnightblue" stroke="midnightblue" points="344.772,-83.7971 334.217,-84.7155 343.041,-90.5797 344.772,-83.7971"/>
</g>
<!-- Node6 -->
<g id="node6" class="node"><title>Node6</title>
<polygon fill="white" stroke="#bfbfbf" points="352,-62 352,-81 468,-81 468,-62 352,-62"/>
<text text-anchor="middle" x="410" y="-69" font-family="Helvetica,sans-Serif" font-size="10.00">hpp/fcl/collision_data.h</text>
</g>
<!-- Node1&#45;&gt;Node6 -->
<g id="edge5" class="edge"><title>Node1&#45;&gt;Node6</title>
<path fill="none" stroke="midnightblue" d="M514.52,-123.475C494.137,-113.534 460.225,-96.9947 436.575,-85.461"/>
<polygon fill="midnightblue" stroke="midnightblue" points="437.969,-82.2468 427.447,-81.0091 434.901,-88.5385 437.969,-82.2468"/>
</g>
<!-- Node7 -->
<g id="node7" class="node"><title>Node7</title>
<polygon fill="white" stroke="#bfbfbf" points="486,-62 486,-81 578,-81 578,-62 486,-62"/>
<text text-anchor="middle" x="532" y="-69" font-family="Helvetica,sans-Serif" font-size="10.00">hpp/fcl/collision.h</text>
</g>
<!-- Node1&#45;&gt;Node7 -->
<g id="edge6" class="edge"><title>Node1&#45;&gt;Node7</title>
<path fill="none" stroke="midnightblue" d="M532,-123.475C532,-115.08 532,-101.981 532,-91.1631"/>
<polygon fill="midnightblue" stroke="midnightblue" points="535.5,-91.0091 532,-81.0091 528.5,-91.0091 535.5,-91.0091"/>
</g>
<!-- Node8 -->
<g id="node8" class="node"><title>Node8</title>
<g id="a_node8"><a doxygen="/local/devel/hpp/install/share/doc/hpp-pinocchio/doxygen-html/hpp-pinocchio.doxytag:../../hpp-pinocchio/doxygen-html/" xlink:href="../../hpp-pinocchio/doxygen-html/a00088.html" target="_top" xlink:title="hpp/pinocchio/body.hh">
<polygon fill="white" stroke="black" points="596,-62 596,-81 710,-81 710,-62 596,-62"/>
<text text-anchor="middle" x="653" y="-69" font-family="Helvetica,sans-Serif" font-size="10.00">hpp/pinocchio/body.hh</text>
</a>
</g>
</g>
<!-- Node1&#45;&gt;Node8 -->
<g id="edge7" class="edge"><title>Node1&#45;&gt;Node8</title>
<path fill="none" stroke="midnightblue" d="M549.336,-123.475C569.553,-113.534 603.187,-96.9947 626.642,-85.461"/>
<polygon fill="midnightblue" stroke="midnightblue" points="628.267,-88.5627 635.696,-81.0091 625.178,-82.281 628.267,-88.5627"/>
</g>
<!-- Node10 -->
<g id="node10" class="node"><title>Node10</title>
<g id="a_node10"><a doxygen="/local/devel/hpp/install/share/doc/hpp-pinocchio/doxygen-html/hpp-pinocchio.doxytag:../../hpp-pinocchio/doxygen-html/" xlink:href="../../hpp-pinocchio/doxygen-html/a00091.html" target="_top" xlink:title="hpp/pinocchio/collision\l&#45;object.hh">
<polygon fill="white" stroke="black" points="728.5,-56.5 728.5,-86.5 843.5,-86.5 843.5,-56.5 728.5,-56.5"/>
<text text-anchor="start" x="736.5" y="-74.5" font-family="Helvetica,sans-Serif" font-size="10.00">hpp/pinocchio/collision</text>
<text text-anchor="middle" x="786" y="-63.5" font-family="Helvetica,sans-Serif" font-size="10.00">&#45;object.hh</text>
</a>
</g>
</g>
<!-- Node1&#45;&gt;Node10 -->
<g id="edge9" class="edge"><title>Node1&#45;&gt;Node10</title>
<path fill="none" stroke="midnightblue" d="M568.392,-123.475C607.324,-114.355 669.959,-99.6828 718.056,-88.4159"/>
<polygon fill="midnightblue" stroke="midnightblue" points="719.147,-91.7552 728.085,-86.0666 717.551,-84.9397 719.147,-91.7552"/>
</g>
<!-- Node11 -->
<g id="node11" class="node"><title>Node11</title>
<g id="a_node11"><a doxygen="/local/devel/hpp/install/share/doc/hpp-pinocchio/doxygen-html/hpp-pinocchio.doxytag:../../hpp-pinocchio/doxygen-html/" xlink:href="../../hpp-pinocchio/doxygen-html/a00102.html" target="_top" xlink:title="hpp/pinocchio/joint.hh">
<polygon fill="white" stroke="black" points="861.5,-62 861.5,-81 972.5,-81 972.5,-62 861.5,-62"/>
<text text-anchor="middle" x="917" y="-69" font-family="Helvetica,sans-Serif" font-size="10.00">hpp/pinocchio/joint.hh</text>
</a>
</g>
</g>
<!-- Node1&#45;&gt;Node11 -->
<g id="edge11" class="edge"><title>Node1&#45;&gt;Node11</title>
<path fill="none" stroke="midnightblue" d="M585.043,-125.941C648.872,-118.334 759.174,-104.174 853,-87 859.178,-85.8692 865.662,-84.5531 872.035,-83.1839"/>
<polygon fill="midnightblue" stroke="midnightblue" points="872.887,-86.5802 881.898,-81.0076 871.379,-79.7446 872.887,-86.5802"/>
</g>
<!-- Node12 -->
<g id="node12" class="node"><title>Node12</title>
<polygon fill="white" stroke="#bfbfbf" points="899.5,-0.5 899.5,-19.5 1018.5,-19.5 1018.5,-0.5 899.5,-0.5"/>
<text text-anchor="middle" x="959" y="-7.5" font-family="Helvetica,sans-Serif" font-size="10.00">hpp/core/deprecated.hh</text>
</g>
<!-- Node1&#45;&gt;Node12 -->
<g id="edge13" class="edge"><title>Node1&#45;&gt;Node12</title>
<path fill="none" stroke="midnightblue" d="M585.095,-130.608C698.41,-127.089 955.79,-115.962 982,-87 996.829,-70.6141 984.066,-44.947 972.453,-28.0486"/>
<polygon fill="midnightblue" stroke="midnightblue" points="975.044,-25.6637 966.303,-19.6774 969.403,-29.8084 975.044,-25.6637"/>
</g>
<!-- Node13 -->
<g id="node13" class="node"><title>Node13</title>
<g id="a_node13"><a xlink:href="a00001.html" target="_top" xlink:title="hpp/core/fwd.hh">
<polygon fill="white" stroke="black" points="1158,-62 1158,-81 1244,-81 1244,-62 1158,-62"/>
<text text-anchor="middle" x="1201" y="-69" font-family="Helvetica,sans-Serif" font-size="10.00">hpp/core/fwd.hh</text>
</a>
</g>
</g>
<!-- Node1&#45;&gt;Node13 -->
<g id="edge14" class="edge"><title>Node1&#45;&gt;Node13</title>
<path fill="none" stroke="midnightblue" d="M585.055,-127.281C710.103,-116.16 1022.19,-88.403 1147.59,-77.2501"/>
<polygon fill="midnightblue" stroke="midnightblue" points="1148.07,-80.7218 1157.72,-76.3495 1147.45,-73.7493 1148.07,-80.7218"/>
</g>
<!-- Node9 -->
<g id="node9" class="node"><title>Node9</title>
<g id="a_node9"><a doxygen="/local/devel/hpp/install/share/doc/hpp-pinocchio/doxygen-html/hpp-pinocchio.doxytag:../../hpp-pinocchio/doxygen-html/" xlink:href="../../hpp-pinocchio/doxygen-html/a00098.html" target="_top" xlink:title="hpp/pinocchio/fwd.hh">
<polygon fill="white" stroke="black" points="731.5,-0.5 731.5,-19.5 840.5,-19.5 840.5,-0.5 731.5,-0.5"/>
<text text-anchor="middle" x="786" y="-7.5" font-family="Helvetica,sans-Serif" font-size="10.00">hpp/pinocchio/fwd.hh</text>
</a>
</g>
</g>
<!-- Node8&#45;&gt;Node9 -->
<g id="edge8" class="edge"><title>Node8&#45;&gt;Node9</title>
<path fill="none" stroke="midnightblue" d="M672.056,-61.9751C694.475,-51.9455 731.905,-35.2002 757.713,-23.6546"/>
<polygon fill="midnightblue" stroke="midnightblue" points="759.281,-26.7877 766.98,-19.5091 756.422,-20.3979 759.281,-26.7877"/>
</g>
<!-- Node10&#45;&gt;Node9 -->
<g id="edge10" class="edge"><title>Node10&#45;&gt;Node9</title>
<path fill="none" stroke="midnightblue" d="M786,-56.3993C786,-48.4664 786,-38.458 786,-29.8583"/>
<polygon fill="midnightblue" stroke="midnightblue" points="789.5,-29.6577 786,-19.6578 782.5,-29.6578 789.5,-29.6577"/>
</g>
<!-- Node11&#45;&gt;Node9 -->
<g id="edge12" class="edge"><title>Node11&#45;&gt;Node9</title>
<path fill="none" stroke="midnightblue" d="M898.231,-61.9751C876.149,-51.9455 839.281,-35.2002 813.861,-23.6546"/>
<polygon fill="midnightblue" stroke="midnightblue" points="815.287,-20.4579 804.734,-19.5091 812.392,-26.8313 815.287,-20.4579"/>
</g>
<!-- Node13&#45;&gt;Node12 -->
<g id="edge23" class="edge"><title>Node13&#45;&gt;Node12</title>
<path fill="none" stroke="midnightblue" d="M1166.33,-61.9751C1123.47,-51.4374 1050.46,-33.4863 1003.5,-21.9415"/>
<polygon fill="midnightblue" stroke="midnightblue" points="1004.15,-18.498 993.608,-19.5091 1002.48,-25.2955 1004.15,-18.498"/>
</g>
<!-- Node14 -->
<g id="node14" class="node"><title>Node14</title>
<polygon fill="white" stroke="#bfbfbf" points="1037,-0.5 1037,-19.5 1081,-19.5 1081,-0.5 1037,-0.5"/>
<text text-anchor="middle" x="1059" y="-7.5" font-family="Helvetica,sans-Serif" font-size="10.00">vector</text>
</g>
<!-- Node13&#45;&gt;Node14 -->
<g id="edge15" class="edge"><title>Node13&#45;&gt;Node14</title>
<path fill="none" stroke="midnightblue" d="M1180.65,-61.9751C1156.61,-51.9013 1116.4,-35.0525 1088.84,-23.5023"/>
<polygon fill="midnightblue" stroke="midnightblue" points="1089.88,-20.1457 1079.31,-19.5091 1087.18,-26.6018 1089.88,-20.1457"/>
</g>
<!-- Node15 -->
<g id="node15" class="node"><title>Node15</title>
<polygon fill="white" stroke="#bfbfbf" points="1099.5,-0.5 1099.5,-19.5 1134.5,-19.5 1134.5,-0.5 1099.5,-0.5"/>
<text text-anchor="middle" x="1117" y="-7.5" font-family="Helvetica,sans-Serif" font-size="10.00">map</text>
</g>
<!-- Node13&#45;&gt;Node15 -->
<g id="edge16" class="edge"><title>Node13&#45;&gt;Node15</title>
<path fill="none" stroke="midnightblue" d="M1188.96,-61.9751C1175.49,-52.4315 1153.43,-36.8073 1137.28,-25.3683"/>
<polygon fill="midnightblue" stroke="midnightblue" points="1139.2,-22.4332 1129.01,-19.5091 1135.15,-28.1454 1139.2,-22.4332"/>
</g>
<!-- Node16 -->
<g id="node16" class="node"><title>Node16</title>
<polygon fill="white" stroke="#bfbfbf" points="1152.5,-0.5 1152.5,-19.5 1195.5,-19.5 1195.5,-0.5 1152.5,-0.5"/>
<text text-anchor="middle" x="1174" y="-7.5" font-family="Helvetica,sans-Serif" font-size="10.00">deque</text>
</g>
<!-- Node13&#45;&gt;Node16 -->
<g id="edge17" class="edge"><title>Node13&#45;&gt;Node16</title>
<path fill="none" stroke="midnightblue" d="M1197.13,-61.9751C1193.2,-53.3152 1187,-39.6486 1182.01,-28.6453"/>
<polygon fill="midnightblue" stroke="midnightblue" points="1185.18,-27.1691 1177.86,-19.5091 1178.81,-30.0617 1185.18,-27.1691"/>
</g>
<!-- Node17 -->
<g id="node17" class="node"><title>Node17</title>
<polygon fill="white" stroke="#bfbfbf" points="1213.5,-0.5 1213.5,-19.5 1242.5,-19.5 1242.5,-0.5 1213.5,-0.5"/>
<text text-anchor="middle" x="1228" y="-7.5" font-family="Helvetica,sans-Serif" font-size="10.00">list</text>
</g>
<!-- Node13&#45;&gt;Node17 -->
<g id="edge18" class="edge"><title>Node13&#45;&gt;Node17</title>
<path fill="none" stroke="midnightblue" d="M1204.87,-61.9751C1208.8,-53.3152 1215,-39.6486 1219.99,-28.6453"/>
<polygon fill="midnightblue" stroke="midnightblue" points="1223.19,-30.0617 1224.14,-19.5091 1216.82,-27.1691 1223.19,-30.0617"/>
</g>
<!-- Node18 -->
<g id="node18" class="node"><title>Node18</title>
<polygon fill="white" stroke="#bfbfbf" points="1261,-0.5 1261,-19.5 1291,-19.5 1291,-0.5 1261,-0.5"/>
<text text-anchor="middle" x="1276" y="-7.5" font-family="Helvetica,sans-Serif" font-size="10.00">set</text>
</g>
<!-- Node13&#45;&gt;Node18 -->
<g id="edge19" class="edge"><title>Node13&#45;&gt;Node18</title>
<path fill="none" stroke="midnightblue" d="M1211.75,-61.9751C1223.55,-52.6082 1242.74,-37.3839 1257.08,-26.0081"/>
<polygon fill="midnightblue" stroke="midnightblue" points="1259.62,-28.4661 1265.27,-19.5091 1255.26,-22.9822 1259.62,-28.4661"/>
</g>
<!-- Node19 -->
<g id="node19" class="node"><title>Node19</title>
<g id="a_node19"><a doxygen="/local/devel/hpp/install/share/doc/hpp-util/doxygen-html/hpp-util.doxytag:../../hpp-util/doxygen-html/" xlink:href="../../hpp-util/doxygen-html/a00028.html" target="_top" xlink:title="hpp/util/pointer.hh">
<polygon fill="white" stroke="black" points="1309,-0.5 1309,-19.5 1403,-19.5 1403,-0.5 1309,-0.5"/>
<text text-anchor="middle" x="1356" y="-7.5" font-family="Helvetica,sans-Serif" font-size="10.00">hpp/util/pointer.hh</text>
</a>
</g>
</g>
<!-- Node13&#45;&gt;Node19 -->
<g id="edge20" class="edge"><title>Node13&#45;&gt;Node19</title>
<path fill="none" stroke="midnightblue" d="M1223.21,-61.9751C1249.68,-51.8129 1294.11,-34.7564 1324.22,-23.1996"/>
<polygon fill="midnightblue" stroke="midnightblue" points="1325.75,-26.3604 1333.83,-19.5091 1323.24,-19.8254 1325.75,-26.3604"/>
</g>
<!-- Node20 -->
<g id="node20" class="node"><title>Node20</title>
<g id="a_node20"><a doxygen="/local/devel/hpp/install/share/doc/hpp-constraints/doxygen-html/hpp-constraints.doxytag:../../hpp-constraints/doxygen-html/" xlink:href="../../hpp-constraints/doxygen-html/a00001.html" target="_top" xlink:title="hpp/constraints/fwd.hh">
<polygon fill="white" stroke="black" points="1421,-0.5 1421,-19.5 1537,-19.5 1537,-0.5 1421,-0.5"/>
<text text-anchor="middle" x="1479" y="-7.5" font-family="Helvetica,sans-Serif" font-size="10.00">hpp/constraints/fwd.hh</text>
</a>
</g>
</g>
<!-- Node13&#45;&gt;Node20 -->
<g id="edge21" class="edge"><title>Node13&#45;&gt;Node20</title>
<path fill="none" stroke="midnightblue" d="M1240.83,-61.9751C1290.48,-51.349 1375.35,-33.1847 1429.23,-21.6524"/>
<polygon fill="midnightblue" stroke="midnightblue" points="1430.2,-25.0245 1439.24,-19.5091 1428.73,-18.1796 1430.2,-25.0245"/>
</g>
<!-- Node21 -->
<g id="node21" class="node"><title>Node21</title>
<polygon fill="white" stroke="#bfbfbf" points="1554.5,-0.5 1554.5,-19.5 1651.5,-19.5 1651.5,-0.5 1554.5,-0.5"/>
<text text-anchor="middle" x="1603" y="-7.5" font-family="Helvetica,sans-Serif" font-size="10.00">hpp/core/config.hh</text>
</g>
<!-- Node13&#45;&gt;Node21 -->
<g id="edge22" class="edge"><title>Node13&#45;&gt;Node21</title>
<path fill="none" stroke="midnightblue" d="M1244.05,-64.3571C1307.51,-55.2669 1430.18,-37.5637 1544.52,-20.2126"/>
<polygon fill="midnightblue" stroke="midnightblue" points="1545.14,-23.6595 1554.5,-18.6966 1544.08,-16.739 1545.14,-23.6595"/>
</g>
</g>
</svg>
