<?xml version="1.0" encoding="UTF-8" standalone="no"?>
<!DOCTYPE svg PUBLIC "-//W3C//DTD SVG 1.1//EN"
 "http://www.w3.org/Graphics/SVG/1.1/DTD/svg11.dtd">
<!-- Generated by graphviz version 2.38.0 (20140413.2041)
 -->
<!-- Title: explicit&#45;numerical&#45;constraint.hh Pages: 1 -->
<svg width="760pt" height="263pt"
 viewBox="0.00 0.00 760.00 263.00" xmlns="http://www.w3.org/2000/svg" xmlns:xlink="http://www.w3.org/1999/xlink">
<g id="graph0" class="graph" transform="scale(1 1) rotate(0) translate(4 259)">
<title>explicit&#45;numerical&#45;constraint.hh</title>
<polygon fill="white" stroke="none" points="-4,4 -4,-259 756,-259 756,4 -4,4"/>
<!-- Node1 -->
<g id="node1" class="node"><title>Node1</title>
<polygon fill="#bfbfbf" stroke="black" points="469.5,-224.5 469.5,-254.5 561.5,-254.5 561.5,-224.5 469.5,-224.5"/>
<text text-anchor="start" x="477.5" y="-242.5" font-family="Helvetica,sans-Serif" font-size="10.00">explicit&#45;numerical</text>
<text text-anchor="middle" x="515.5" y="-231.5" font-family="Helvetica,sans-Serif" font-size="10.00">&#45;constraint.hh</text>
</g>
<!-- Node2 -->
<g id="node2" class="node"><title>Node2</title>
<g id="a_node2"><a doxygen="/local/devel/hpp/install/share/doc/hpp-constraints/doxygen-html/hpp-constraints.doxytag:../../hpp-constraints/doxygen-html/" xlink:href="../../hpp-constraints/doxygen-html/a00112.html" target="_top" xlink:title="hpp/constraints/explicit.hh">
<polygon fill="white" stroke="black" points="450,-168.5 450,-187.5 581,-187.5 581,-168.5 450,-168.5"/>
<text text-anchor="middle" x="515.5" y="-175.5" font-family="Helvetica,sans-Serif" font-size="10.00">hpp/constraints/explicit.hh</text>
</a>
</g>
</g>
<!-- Node1&#45;&gt;Node2 -->
<g id="edge1" class="edge"><title>Node1&#45;&gt;Node2</title>
<path fill="none" stroke="midnightblue" d="M515.5,-224.399C515.5,-216.466 515.5,-206.458 515.5,-197.858"/>
<polygon fill="midnightblue" stroke="midnightblue" points="519,-197.658 515.5,-187.658 512,-197.658 519,-197.658"/>
</g>
<!-- Node4 -->
<g id="node4" class="node"><title>Node4</title>
<g id="a_node4"><a xlink:href="a00001.html" target="_top" xlink:title="hpp/constraints/fwd.hh">
<polygon fill="white" stroke="black" points="318.5,-56.5 318.5,-75.5 434.5,-75.5 434.5,-56.5 318.5,-56.5"/>
<text text-anchor="middle" x="376.5" y="-63.5" font-family="Helvetica,sans-Serif" font-size="10.00">hpp/constraints/fwd.hh</text>
</a>
</g>
</g>
<!-- Node1&#45;&gt;Node4 -->
<g id="edge15" class="edge"><title>Node1&#45;&gt;Node4</title>
<path fill="none" stroke="midnightblue" d="M488.076,-224.456C472.684,-215.566 453.934,-202.941 440.5,-188 412.276,-156.611 392.407,-110.528 382.887,-85.2533"/>
<polygon fill="midnightblue" stroke="midnightblue" points="386.155,-83.9988 379.446,-75.7987 379.577,-86.3927 386.155,-83.9988"/>
</g>
<!-- Node12 -->
<g id="node12" class="node"><title>Node12</title>
<polygon fill="white" stroke="#bfbfbf" points="655,-0.5 655,-19.5 752,-19.5 752,-0.5 655,-0.5"/>
<text text-anchor="middle" x="703.5" y="-7.5" font-family="Helvetica,sans-Serif" font-size="10.00">hpp/core/config.hh</text>
</g>
<!-- Node1&#45;&gt;Node12 -->
<g id="edge16" class="edge"><title>Node1&#45;&gt;Node12</title>
<path fill="none" stroke="midnightblue" d="M540.815,-224.363C555.944,-215.184 574.981,-202.296 589.5,-188 639.775,-138.497 679.048,-63.0126 695.326,-28.8734"/>
<polygon fill="midnightblue" stroke="midnightblue" points="698.56,-30.2214 699.627,-19.6804 692.219,-27.2553 698.56,-30.2214"/>
</g>
<!-- Node3 -->
<g id="node3" class="node"><title>Node3</title>
<g id="a_node3"><a doxygen="/local/devel/hpp/install/share/doc/hpp-constraints/doxygen-html/hpp-constraints.doxytag:../../hpp-constraints/doxygen-html/" xlink:href="../../hpp-constraints/doxygen-html/a00119.html" target="_top" xlink:title="hpp/constraints/implicit.hh">
<polygon fill="white" stroke="black" points="450,-112.5 450,-131.5 581,-131.5 581,-112.5 450,-112.5"/>
<text text-anchor="middle" x="515.5" y="-119.5" font-family="Helvetica,sans-Serif" font-size="10.00">hpp/constraints/implicit.hh</text>
</a>
</g>
</g>
<!-- Node2&#45;&gt;Node3 -->
<g id="edge2" class="edge"><title>Node2&#45;&gt;Node3</title>
<path fill="none" stroke="midnightblue" d="M515.5,-168.083C515.5,-161.006 515.5,-150.861 515.5,-141.986"/>
<polygon fill="midnightblue" stroke="midnightblue" points="519,-141.751 515.5,-131.751 512,-141.751 519,-141.751"/>
</g>
<!-- Node3&#45;&gt;Node4 -->
<g id="edge3" class="edge"><title>Node3&#45;&gt;Node4</title>
<path fill="none" stroke="midnightblue" d="M493.475,-112.444C470.396,-103.478 433.938,-89.314 407.859,-79.1827"/>
<polygon fill="midnightblue" stroke="midnightblue" points="409.011,-75.8753 398.422,-75.5164 406.476,-82.4002 409.011,-75.8753"/>
</g>
<!-- Node11 -->
<g id="node11" class="node"><title>Node11</title>
<g id="a_node11"><a doxygen="/local/devel/hpp/install/share/doc/hpp-constraints/doxygen-html/hpp-constraints.doxytag:../../hpp-constraints/doxygen-html/" xlink:href="../../hpp-constraints/doxygen-html/a00001.html" target="_top" xlink:title="hpp/constraints/fwd.hh">
<polygon fill="white" stroke="black" points="521.5,-0.5 521.5,-19.5 637.5,-19.5 637.5,-0.5 521.5,-0.5"/>
<text text-anchor="middle" x="579.5" y="-7.5" font-family="Helvetica,sans-Serif" font-size="10.00">hpp/constraints/fwd.hh</text>
</a>
</g>
</g>
<!-- Node3&#45;&gt;Node11 -->
<g id="edge14" class="edge"><title>Node3&#45;&gt;Node11</title>
<path fill="none" stroke="midnightblue" d="M516.611,-112.461C518.591,-99.4957 523.593,-74.4089 534.5,-56 541.14,-44.7926 551.21,-34.3632 560.141,-26.3724"/>
<polygon fill="midnightblue" stroke="midnightblue" points="562.551,-28.9173 567.892,-19.7673 558.01,-23.5894 562.551,-28.9173"/>
</g>
<!-- Node14 -->
<g id="node14" class="node"><title>Node14</title>
<g id="a_node14"><a xlink:href="a00142.html" target="_top" xlink:title="hpp/constraints/fwd.hh">
<polygon fill="white" stroke="black" points="543.5,-56.5 543.5,-75.5 659.5,-75.5 659.5,-56.5 543.5,-56.5"/>
<text text-anchor="middle" x="601.5" y="-63.5" font-family="Helvetica,sans-Serif" font-size="10.00">hpp/constraints/fwd.hh</text>
</a>
</g>
</g>
<!-- Node3&#45;&gt;Node14 -->
<g id="edge13" class="edge"><title>Node3&#45;&gt;Node14</title>
<path fill="none" stroke="midnightblue" d="M529.317,-112.324C542.733,-103.9 563.324,-90.9709 579.086,-81.0741"/>
<polygon fill="midnightblue" stroke="midnightblue" points="581.109,-83.9364 587.717,-75.6545 577.387,-78.0081 581.109,-83.9364"/>
</g>
<!-- Node5 -->
<g id="node5" class="node"><title>Node5</title>
<polygon fill="white" stroke="#bfbfbf" points="137.5,-0.5 137.5,-19.5 181.5,-19.5 181.5,-0.5 137.5,-0.5"/>
<text text-anchor="middle" x="159.5" y="-7.5" font-family="Helvetica,sans-Serif" font-size="10.00">vector</text>
</g>
<!-- Node4&#45;&gt;Node5 -->
<g id="edge4" class="edge"><title>Node4&#45;&gt;Node5</title>
<path fill="none" stroke="midnightblue" d="M338.967,-56.4444C303.37,-48.2137 248.164,-35.149 191.637,-20.2191"/>
<polygon fill="midnightblue" stroke="midnightblue" points="192.381,-16.7953 181.817,-17.6098 190.583,-23.5605 192.381,-16.7953"/>
</g>
<!-- Node6 -->
<g id="node6" class="node"><title>Node6</title>
<polygon fill="white" stroke="#bfbfbf" points="200,-0.5 200,-19.5 235,-19.5 235,-0.5 200,-0.5"/>
<text text-anchor="middle" x="217.5" y="-7.5" font-family="Helvetica,sans-Serif" font-size="10.00">map</text>
</g>
<!-- Node4&#45;&gt;Node6 -->
<g id="edge5" class="edge"><title>Node4&#45;&gt;Node6</title>
<path fill="none" stroke="midnightblue" d="M350.985,-56.426C326.081,-48.0446 286.874,-34.8156 244.725,-20.405"/>
<polygon fill="midnightblue" stroke="midnightblue" points="245.711,-17.0431 235.116,-17.1166 243.444,-23.666 245.711,-17.0431"/>
</g>
<!-- Node7 -->
<g id="node7" class="node"><title>Node7</title>
<polygon fill="white" stroke="#bfbfbf" points="253,-0.5 253,-19.5 296,-19.5 296,-0.5 253,-0.5"/>
<text text-anchor="middle" x="274.5" y="-7.5" font-family="Helvetica,sans-Serif" font-size="10.00">deque</text>
</g>
<!-- Node4&#45;&gt;Node7 -->
<g id="edge6" class="edge"><title>Node4&#45;&gt;Node7</title>
<path fill="none" stroke="midnightblue" d="M360.112,-56.324C343.829,-47.7034 318.633,-34.3643 299.784,-24.3855"/>
<polygon fill="midnightblue" stroke="midnightblue" points="301.323,-21.2402 290.847,-19.6545 298.048,-27.4267 301.323,-21.2402"/>
</g>
<!-- Node8 -->
<g id="node8" class="node"><title>Node8</title>
<polygon fill="white" stroke="#bfbfbf" points="314,-0.5 314,-19.5 343,-19.5 343,-0.5 314,-0.5"/>
<text text-anchor="middle" x="328.5" y="-7.5" font-family="Helvetica,sans-Serif" font-size="10.00">list</text>
</g>
<!-- Node4&#45;&gt;Node8 -->
<g id="edge7" class="edge"><title>Node4&#45;&gt;Node8</title>
<path fill="none" stroke="midnightblue" d="M368.574,-56.083C361.654,-48.2982 351.435,-36.8015 343.048,-27.3665"/>
<polygon fill="midnightblue" stroke="midnightblue" points="345.538,-24.8999 336.279,-19.7511 340.306,-29.5505 345.538,-24.8999"/>
</g>
<!-- Node9 -->
<g id="node9" class="node"><title>Node9</title>
<polygon fill="white" stroke="#bfbfbf" points="361.5,-0.5 361.5,-19.5 391.5,-19.5 391.5,-0.5 361.5,-0.5"/>
<text text-anchor="middle" x="376.5" y="-7.5" font-family="Helvetica,sans-Serif" font-size="10.00">set</text>
</g>
<!-- Node4&#45;&gt;Node9 -->
<g id="edge8" class="edge"><title>Node4&#45;&gt;Node9</title>
<path fill="none" stroke="midnightblue" d="M376.5,-56.083C376.5,-49.0059 376.5,-38.8611 376.5,-29.9865"/>
<polygon fill="midnightblue" stroke="midnightblue" points="380,-29.751 376.5,-19.7511 373,-29.7511 380,-29.751"/>
</g>
<!-- Node10 -->
<g id="node10" class="node"><title>Node10</title>
<g id="a_node10"><a doxygen="/local/devel/hpp/install/share/doc/hpp-util/doxygen-html/hpp-util.doxytag:../../hpp-util/doxygen-html/" xlink:href="../../hpp-util/doxygen-html/a00028.html" target="_top" xlink:title="hpp/util/pointer.hh">
<polygon fill="white" stroke="black" points="409.5,-0.5 409.5,-19.5 503.5,-19.5 503.5,-0.5 409.5,-0.5"/>
<text text-anchor="middle" x="456.5" y="-7.5" font-family="Helvetica,sans-Serif" font-size="10.00">hpp/util/pointer.hh</text>
</a>
</g>
</g>
<!-- Node4&#45;&gt;Node10 -->
<g id="edge9" class="edge"><title>Node4&#45;&gt;Node10</title>
<path fill="none" stroke="midnightblue" d="M389.353,-56.324C401.716,-47.979 420.63,-35.2122 435.237,-25.3524"/>
<polygon fill="midnightblue" stroke="midnightblue" points="437.348,-28.1503 443.679,-19.6545 433.432,-22.3483 437.348,-28.1503"/>
</g>
<!-- Node4&#45;&gt;Node11 -->
<g id="edge10" class="edge"><title>Node4&#45;&gt;Node11</title>
<path fill="none" stroke="midnightblue" d="M408.666,-56.4435C443.559,-47.1616 499.393,-32.3093 537.671,-22.127"/>
<polygon fill="midnightblue" stroke="midnightblue" points="538.72,-25.4696 547.485,-19.5164 536.921,-18.7048 538.72,-25.4696"/>
</g>
<!-- Node4&#45;&gt;Node12 -->
<g id="edge11" class="edge"><title>Node4&#45;&gt;Node12</title>
<path fill="none" stroke="midnightblue" d="M428.314,-56.4435C487.253,-46.7104 583.284,-30.8522 644.904,-20.6764"/>
<polygon fill="midnightblue" stroke="midnightblue" points="645.567,-24.1145 654.863,-19.0318 644.426,-17.208 645.567,-24.1145"/>
</g>
<!-- Node13 -->
<g id="node13" class="node"><title>Node13</title>
<polygon fill="white" stroke="#bfbfbf" points="0,-0.5 0,-19.5 119,-19.5 119,-0.5 0,-0.5"/>
<text text-anchor="middle" x="59.5" y="-7.5" font-family="Helvetica,sans-Serif" font-size="10.00">hpp/core/deprecated.hh</text>
</g>
<!-- Node4&#45;&gt;Node13 -->
<g id="edge12" class="edge"><title>Node4&#45;&gt;Node13</title>
<path fill="none" stroke="midnightblue" d="M326.27,-56.4435C270.159,-46.8851 179.37,-31.4195 119.552,-21.2298"/>
<polygon fill="midnightblue" stroke="midnightblue" points="119.94,-17.7455 109.495,-19.5164 118.765,-24.6461 119.94,-17.7455"/>
</g>
</g>
</svg>
