<?xml version="1.0" encoding="UTF-8" standalone="no"?>
<!DOCTYPE svg PUBLIC "-//W3C//DTD SVG 1.1//EN"
 "http://www.w3.org/Graphics/SVG/1.1/DTD/svg11.dtd">
<!-- Generated by graphviz version 2.38.0 (20140413.2041)
 -->
<!-- Title: cost.hh Pages: 1 -->
<svg width="760pt" height="207pt"
 viewBox="0.00 0.00 760.00 207.00" xmlns="http://www.w3.org/2000/svg" xmlns:xlink="http://www.w3.org/1999/xlink">
<g id="graph0" class="graph" transform="scale(1 1) rotate(0) translate(4 203)">
<title>cost.hh</title>
<polygon fill="white" stroke="none" points="-4,4 -4,-203 756,-203 756,4 -4,4"/>
<!-- Node1 -->
<g id="node1" class="node"><title>Node1</title>
<polygon fill="#bfbfbf" stroke="black" points="493,-179.5 493,-198.5 542,-198.5 542,-179.5 493,-179.5"/>
<text text-anchor="middle" x="517.5" y="-186.5" font-family="Helvetica,sans-Serif" font-size="10.00">cost.hh</text>
</g>
<!-- Node2 -->
<g id="node2" class="node"><title>Node2</title>
<g id="a_node2"><a doxygen="/local/devel/hpp/install/share/doc/hpp-constraints/doxygen-html/hpp-constraints.doxytag:../../hpp-constraints/doxygen-html/" xlink:href="../../hpp-constraints/doxygen-html/a00107.html" target="_top" xlink:title="hpp/constraints/differentiable\l&#45;function.hh">
<polygon fill="white" stroke="black" points="446.5,-112.5 446.5,-142.5 588.5,-142.5 588.5,-112.5 446.5,-112.5"/>
<text text-anchor="start" x="454.5" y="-130.5" font-family="Helvetica,sans-Serif" font-size="10.00">hpp/constraints/differentiable</text>
<text text-anchor="middle" x="517.5" y="-119.5" font-family="Helvetica,sans-Serif" font-size="10.00">&#45;function.hh</text>
</a>
</g>
</g>
<!-- Node1&#45;&gt;Node2 -->
<g id="edge1" class="edge"><title>Node1&#45;&gt;Node2</title>
<path fill="none" stroke="midnightblue" d="M517.5,-179.475C517.5,-172.471 517.5,-162.192 517.5,-152.696"/>
<polygon fill="midnightblue" stroke="midnightblue" points="521,-152.523 517.5,-142.523 514,-152.523 521,-152.523"/>
</g>
<!-- Node3 -->
<g id="node3" class="node"><title>Node3</title>
<g id="a_node3"><a xlink:href="a00001.html" target="_top" xlink:title="hpp/constraints/fwd.hh">
<polygon fill="white" stroke="black" points="318.5,-56.5 318.5,-75.5 434.5,-75.5 434.5,-56.5 318.5,-56.5"/>
<text text-anchor="middle" x="376.5" y="-63.5" font-family="Helvetica,sans-Serif" font-size="10.00">hpp/constraints/fwd.hh</text>
</a>
</g>
</g>
<!-- Node1&#45;&gt;Node3 -->
<g id="edge14" class="edge"><title>Node1&#45;&gt;Node3</title>
<path fill="none" stroke="midnightblue" d="M497.427,-179.354C480.387,-171.424 455.851,-158.564 437.5,-143 417.222,-125.801 398.853,-101.077 387.69,-84.549"/>
<polygon fill="midnightblue" stroke="midnightblue" points="390.41,-82.315 381.991,-75.8833 384.562,-86.1615 390.41,-82.315"/>
</g>
<!-- Node11 -->
<g id="node11" class="node"><title>Node11</title>
<polygon fill="white" stroke="#bfbfbf" points="655,-0.5 655,-19.5 752,-19.5 752,-0.5 655,-0.5"/>
<text text-anchor="middle" x="703.5" y="-7.5" font-family="Helvetica,sans-Serif" font-size="10.00">hpp/core/config.hh</text>
</g>
<!-- Node1&#45;&gt;Node11 -->
<g id="edge15" class="edge"><title>Node1&#45;&gt;Node11</title>
<path fill="none" stroke="midnightblue" d="M535.372,-179.446C552.071,-171.113 577.376,-157.595 597.5,-143 633.149,-117.145 643.884,-111.085 670.5,-76 681.485,-61.5204 690.53,-42.8311 696.355,-29.2119"/>
<polygon fill="midnightblue" stroke="midnightblue" points="699.759,-30.1342 700.312,-19.5538 693.282,-27.4806 699.759,-30.1342"/>
</g>
<!-- Node2&#45;&gt;Node3 -->
<g id="edge2" class="edge"><title>Node2&#45;&gt;Node3</title>
<path fill="none" stroke="midnightblue" d="M484.085,-112.399C460.533,-102.461 429.262,-89.2649 406.507,-79.6625"/>
<polygon fill="midnightblue" stroke="midnightblue" points="407.591,-76.3211 397.017,-75.6578 404.869,-82.7704 407.591,-76.3211"/>
</g>
<!-- Node10 -->
<g id="node10" class="node"><title>Node10</title>
<g id="a_node10"><a doxygen="/local/devel/hpp/install/share/doc/hpp-constraints/doxygen-html/hpp-constraints.doxytag:../../hpp-constraints/doxygen-html/" xlink:href="../../hpp-constraints/doxygen-html/a00001.html" target="_top" xlink:title="hpp/constraints/fwd.hh">
<polygon fill="white" stroke="black" points="521.5,-0.5 521.5,-19.5 637.5,-19.5 637.5,-0.5 521.5,-0.5"/>
<text text-anchor="middle" x="579.5" y="-7.5" font-family="Helvetica,sans-Serif" font-size="10.00">hpp/constraints/fwd.hh</text>
</a>
</g>
</g>
<!-- Node2&#45;&gt;Node10 -->
<g id="edge13" class="edge"><title>Node2&#45;&gt;Node10</title>
<path fill="none" stroke="midnightblue" d="M519.186,-112.475C521.43,-97.6618 526.36,-74.003 536.5,-56 542.834,-44.7549 552.617,-34.2075 561.253,-26.1544"/>
<polygon fill="midnightblue" stroke="midnightblue" points="563.579,-28.7702 568.729,-19.5116 558.929,-23.5374 563.579,-28.7702"/>
</g>
<!-- Node13 -->
<g id="node13" class="node"><title>Node13</title>
<g id="a_node13"><a xlink:href="a00142.html" target="_top" xlink:title="hpp/constraints/fwd.hh">
<polygon fill="white" stroke="black" points="545.5,-56.5 545.5,-75.5 661.5,-75.5 661.5,-56.5 545.5,-56.5"/>
<text text-anchor="middle" x="603.5" y="-63.5" font-family="Helvetica,sans-Serif" font-size="10.00">hpp/constraints/fwd.hh</text>
</a>
</g>
</g>
<!-- Node2&#45;&gt;Node13 -->
<g id="edge12" class="edge"><title>Node2&#45;&gt;Node13</title>
<path fill="none" stroke="midnightblue" d="M537.881,-112.399C551.408,-103.04 569.111,-90.7924 582.72,-81.3771"/>
<polygon fill="midnightblue" stroke="midnightblue" points="584.754,-84.2257 590.986,-75.6578 580.771,-78.4692 584.754,-84.2257"/>
</g>
<!-- Node4 -->
<g id="node4" class="node"><title>Node4</title>
<polygon fill="white" stroke="#bfbfbf" points="137.5,-0.5 137.5,-19.5 181.5,-19.5 181.5,-0.5 137.5,-0.5"/>
<text text-anchor="middle" x="159.5" y="-7.5" font-family="Helvetica,sans-Serif" font-size="10.00">vector</text>
</g>
<!-- Node3&#45;&gt;Node4 -->
<g id="edge3" class="edge"><title>Node3&#45;&gt;Node4</title>
<path fill="none" stroke="midnightblue" d="M338.967,-56.4444C303.37,-48.2137 248.164,-35.149 191.637,-20.2191"/>
<polygon fill="midnightblue" stroke="midnightblue" points="192.381,-16.7953 181.817,-17.6098 190.583,-23.5605 192.381,-16.7953"/>
</g>
<!-- Node5 -->
<g id="node5" class="node"><title>Node5</title>
<polygon fill="white" stroke="#bfbfbf" points="200,-0.5 200,-19.5 235,-19.5 235,-0.5 200,-0.5"/>
<text text-anchor="middle" x="217.5" y="-7.5" font-family="Helvetica,sans-Serif" font-size="10.00">map</text>
</g>
<!-- Node3&#45;&gt;Node5 -->
<g id="edge4" class="edge"><title>Node3&#45;&gt;Node5</title>
<path fill="none" stroke="midnightblue" d="M350.985,-56.426C326.081,-48.0446 286.874,-34.8156 244.725,-20.405"/>
<polygon fill="midnightblue" stroke="midnightblue" points="245.711,-17.0431 235.116,-17.1166 243.444,-23.666 245.711,-17.0431"/>
</g>
<!-- Node6 -->
<g id="node6" class="node"><title>Node6</title>
<polygon fill="white" stroke="#bfbfbf" points="253,-0.5 253,-19.5 296,-19.5 296,-0.5 253,-0.5"/>
<text text-anchor="middle" x="274.5" y="-7.5" font-family="Helvetica,sans-Serif" font-size="10.00">deque</text>
</g>
<!-- Node3&#45;&gt;Node6 -->
<g id="edge5" class="edge"><title>Node3&#45;&gt;Node6</title>
<path fill="none" stroke="midnightblue" d="M360.112,-56.324C343.829,-47.7034 318.633,-34.3643 299.784,-24.3855"/>
<polygon fill="midnightblue" stroke="midnightblue" points="301.323,-21.2402 290.847,-19.6545 298.048,-27.4267 301.323,-21.2402"/>
</g>
<!-- Node7 -->
<g id="node7" class="node"><title>Node7</title>
<polygon fill="white" stroke="#bfbfbf" points="314,-0.5 314,-19.5 343,-19.5 343,-0.5 314,-0.5"/>
<text text-anchor="middle" x="328.5" y="-7.5" font-family="Helvetica,sans-Serif" font-size="10.00">list</text>
</g>
<!-- Node3&#45;&gt;Node7 -->
<g id="edge6" class="edge"><title>Node3&#45;&gt;Node7</title>
<path fill="none" stroke="midnightblue" d="M368.574,-56.083C361.654,-48.2982 351.435,-36.8015 343.048,-27.3665"/>
<polygon fill="midnightblue" stroke="midnightblue" points="345.538,-24.8999 336.279,-19.7511 340.306,-29.5505 345.538,-24.8999"/>
</g>
<!-- Node8 -->
<g id="node8" class="node"><title>Node8</title>
<polygon fill="white" stroke="#bfbfbf" points="361.5,-0.5 361.5,-19.5 391.5,-19.5 391.5,-0.5 361.5,-0.5"/>
<text text-anchor="middle" x="376.5" y="-7.5" font-family="Helvetica,sans-Serif" font-size="10.00">set</text>
</g>
<!-- Node3&#45;&gt;Node8 -->
<g id="edge7" class="edge"><title>Node3&#45;&gt;Node8</title>
<path fill="none" stroke="midnightblue" d="M376.5,-56.083C376.5,-49.0059 376.5,-38.8611 376.5,-29.9865"/>
<polygon fill="midnightblue" stroke="midnightblue" points="380,-29.751 376.5,-19.7511 373,-29.7511 380,-29.751"/>
</g>
<!-- Node9 -->
<g id="node9" class="node"><title>Node9</title>
<g id="a_node9"><a doxygen="/local/devel/hpp/install/share/doc/hpp-util/doxygen-html/hpp-util.doxytag:../../hpp-util/doxygen-html/" xlink:href="../../hpp-util/doxygen-html/a00028.html" target="_top" xlink:title="hpp/util/pointer.hh">
<polygon fill="white" stroke="black" points="409.5,-0.5 409.5,-19.5 503.5,-19.5 503.5,-0.5 409.5,-0.5"/>
<text text-anchor="middle" x="456.5" y="-7.5" font-family="Helvetica,sans-Serif" font-size="10.00">hpp/util/pointer.hh</text>
</a>
</g>
</g>
<!-- Node3&#45;&gt;Node9 -->
<g id="edge8" class="edge"><title>Node3&#45;&gt;Node9</title>
<path fill="none" stroke="midnightblue" d="M389.353,-56.324C401.716,-47.979 420.63,-35.2122 435.237,-25.3524"/>
<polygon fill="midnightblue" stroke="midnightblue" points="437.348,-28.1503 443.679,-19.6545 433.432,-22.3483 437.348,-28.1503"/>
</g>
<!-- Node3&#45;&gt;Node10 -->
<g id="edge9" class="edge"><title>Node3&#45;&gt;Node10</title>
<path fill="none" stroke="midnightblue" d="M408.666,-56.4435C443.559,-47.1616 499.393,-32.3093 537.671,-22.127"/>
<polygon fill="midnightblue" stroke="midnightblue" points="538.72,-25.4696 547.485,-19.5164 536.921,-18.7048 538.72,-25.4696"/>
</g>
<!-- Node3&#45;&gt;Node11 -->
<g id="edge10" class="edge"><title>Node3&#45;&gt;Node11</title>
<path fill="none" stroke="midnightblue" d="M428.314,-56.4435C487.253,-46.7104 583.284,-30.8522 644.904,-20.6764"/>
<polygon fill="midnightblue" stroke="midnightblue" points="645.567,-24.1145 654.863,-19.0318 644.426,-17.208 645.567,-24.1145"/>
</g>
<!-- Node12 -->
<g id="node12" class="node"><title>Node12</title>
<polygon fill="white" stroke="#bfbfbf" points="0,-0.5 0,-19.5 119,-19.5 119,-0.5 0,-0.5"/>
<text text-anchor="middle" x="59.5" y="-7.5" font-family="Helvetica,sans-Serif" font-size="10.00">hpp/core/deprecated.hh</text>
</g>
<!-- Node3&#45;&gt;Node12 -->
<g id="edge11" class="edge"><title>Node3&#45;&gt;Node12</title>
<path fill="none" stroke="midnightblue" d="M326.27,-56.4435C270.159,-46.8851 179.37,-31.4195 119.552,-21.2298"/>
<polygon fill="midnightblue" stroke="midnightblue" points="119.94,-17.7455 109.495,-19.5164 118.765,-24.6461 119.94,-17.7455"/>
</g>
</g>
</svg>
