<?xml version="1.0" encoding="UTF-8" standalone="no"?>
<!DOCTYPE svg PUBLIC "-//W3C//DTD SVG 1.1//EN"
 "http://www.w3.org/Graphics/SVG/1.1/DTD/svg11.dtd">
<!-- Generated by graphviz version 2.38.0 (20140413.2041)
 -->
<!-- Title: path&#45;validation&#45;report.hh Pages: 1 -->
<svg width="760pt" height="207pt"
 viewBox="0.00 0.00 760.00 207.00" xmlns="http://www.w3.org/2000/svg" xmlns:xlink="http://www.w3.org/1999/xlink">
<g id="graph0" class="graph" transform="scale(1 1) rotate(0) translate(4 203)">
<title>path&#45;validation&#45;report.hh</title>
<polygon fill="white" stroke="none" points="-4,4 -4,-203 756,-203 756,4 -4,4"/>
<!-- Node1 -->
<g id="node1" class="node"><title>Node1</title>
<polygon fill="#bfbfbf" stroke="black" points="140,-179.5 140,-198.5 261,-198.5 261,-179.5 140,-179.5"/>
<text text-anchor="middle" x="200.5" y="-186.5" font-family="Helvetica,sans-Serif" font-size="10.00">path&#45;validation&#45;report.hh</text>
</g>
<!-- Node2 -->
<g id="node2" class="node"><title>Node2</title>
<g id="a_node2"><a xlink:href="a00210.html" target="_top" xlink:title="hpp/core/validation\l&#45;report.hh">
<polygon fill="white" stroke="black" points="151.5,-112.5 151.5,-142.5 249.5,-142.5 249.5,-112.5 151.5,-112.5"/>
<text text-anchor="start" x="159.5" y="-130.5" font-family="Helvetica,sans-Serif" font-size="10.00">hpp/core/validation</text>
<text text-anchor="middle" x="200.5" y="-119.5" font-family="Helvetica,sans-Serif" font-size="10.00">&#45;report.hh</text>
</a>
</g>
</g>
<!-- Node1&#45;&gt;Node2 -->
<g id="edge1" class="edge"><title>Node1&#45;&gt;Node2</title>
<path fill="none" stroke="midnightblue" d="M200.5,-179.475C200.5,-172.471 200.5,-162.192 200.5,-152.696"/>
<polygon fill="midnightblue" stroke="midnightblue" points="204,-152.523 200.5,-142.523 197,-152.523 204,-152.523"/>
</g>
<!-- Node3 -->
<g id="node3" class="node"><title>Node3</title>
<polygon fill="white" stroke="#bfbfbf" points="0,-0.5 0,-19.5 97,-19.5 97,-0.5 0,-0.5"/>
<text text-anchor="middle" x="48.5" y="-7.5" font-family="Helvetica,sans-Serif" font-size="10.00">hpp/core/config.hh</text>
</g>
<!-- Node2&#45;&gt;Node3 -->
<g id="edge2" class="edge"><title>Node2&#45;&gt;Node3</title>
<path fill="none" stroke="midnightblue" d="M181.862,-112.337C152.981,-90.392 97.6794,-48.3698 68.1785,-25.953"/>
<polygon fill="midnightblue" stroke="midnightblue" points="69.9889,-22.9329 59.9092,-19.6695 65.7537,-28.5064 69.9889,-22.9329"/>
</g>
<!-- Node4 -->
<g id="node4" class="node"><title>Node4</title>
<g id="a_node4"><a xlink:href="a00001.html" target="_top" xlink:title="hpp/core/fwd.hh">
<polygon fill="white" stroke="black" points="235.5,-56.5 235.5,-75.5 321.5,-75.5 321.5,-56.5 235.5,-56.5"/>
<text text-anchor="middle" x="278.5" y="-63.5" font-family="Helvetica,sans-Serif" font-size="10.00">hpp/core/fwd.hh</text>
</a>
</g>
</g>
<!-- Node2&#45;&gt;Node4 -->
<g id="edge3" class="edge"><title>Node2&#45;&gt;Node4</title>
<path fill="none" stroke="midnightblue" d="M218.985,-112.399C231.02,-103.218 246.7,-91.2579 258.943,-81.9182"/>
<polygon fill="midnightblue" stroke="midnightblue" points="261.322,-84.5056 267.15,-75.6578 257.077,-78.9401 261.322,-84.5056"/>
</g>
<!-- Node4&#45;&gt;Node3 -->
<g id="edge11" class="edge"><title>Node4&#45;&gt;Node3</title>
<path fill="none" stroke="midnightblue" d="M242.056,-56.4435C202.101,-47.0629 137.913,-31.9926 94.5153,-21.8036"/>
<polygon fill="midnightblue" stroke="midnightblue" points="95.309,-18.3948 84.7737,-19.5164 93.7089,-25.2095 95.309,-18.3948"/>
</g>
<!-- Node5 -->
<g id="node5" class="node"><title>Node5</title>
<polygon fill="white" stroke="#bfbfbf" points="114.5,-0.5 114.5,-19.5 158.5,-19.5 158.5,-0.5 114.5,-0.5"/>
<text text-anchor="middle" x="136.5" y="-7.5" font-family="Helvetica,sans-Serif" font-size="10.00">vector</text>
</g>
<!-- Node4&#45;&gt;Node5 -->
<g id="edge4" class="edge"><title>Node4&#45;&gt;Node5</title>
<path fill="none" stroke="midnightblue" d="M256,-56.4435C232.423,-47.4776 195.178,-33.314 168.536,-23.1827"/>
<polygon fill="midnightblue" stroke="midnightblue" points="169.486,-19.7995 158.895,-19.5164 166.998,-26.3424 169.486,-19.7995"/>
</g>
<!-- Node6 -->
<g id="node6" class="node"><title>Node6</title>
<polygon fill="white" stroke="#bfbfbf" points="177,-0.5 177,-19.5 212,-19.5 212,-0.5 177,-0.5"/>
<text text-anchor="middle" x="194.5" y="-7.5" font-family="Helvetica,sans-Serif" font-size="10.00">map</text>
</g>
<!-- Node4&#45;&gt;Node6 -->
<g id="edge5" class="edge"><title>Node4&#45;&gt;Node6</title>
<path fill="none" stroke="midnightblue" d="M265.004,-56.324C251.9,-47.9002 231.788,-34.9709 216.393,-25.0741"/>
<polygon fill="midnightblue" stroke="midnightblue" points="218.267,-22.118 207.963,-19.6545 214.482,-28.0063 218.267,-22.118"/>
</g>
<!-- Node7 -->
<g id="node7" class="node"><title>Node7</title>
<polygon fill="white" stroke="#bfbfbf" points="230,-0.5 230,-19.5 273,-19.5 273,-0.5 230,-0.5"/>
<text text-anchor="middle" x="251.5" y="-7.5" font-family="Helvetica,sans-Serif" font-size="10.00">deque</text>
</g>
<!-- Node4&#45;&gt;Node7 -->
<g id="edge6" class="edge"><title>Node4&#45;&gt;Node7</title>
<path fill="none" stroke="midnightblue" d="M274.041,-56.083C270.346,-48.6913 264.977,-37.9533 260.406,-28.8111"/>
<polygon fill="midnightblue" stroke="midnightblue" points="263.478,-27.1301 255.876,-19.7511 257.217,-30.2606 263.478,-27.1301"/>
</g>
<!-- Node8 -->
<g id="node8" class="node"><title>Node8</title>
<polygon fill="white" stroke="#bfbfbf" points="291,-0.5 291,-19.5 320,-19.5 320,-0.5 291,-0.5"/>
<text text-anchor="middle" x="305.5" y="-7.5" font-family="Helvetica,sans-Serif" font-size="10.00">list</text>
</g>
<!-- Node4&#45;&gt;Node8 -->
<g id="edge7" class="edge"><title>Node4&#45;&gt;Node8</title>
<path fill="none" stroke="midnightblue" d="M282.959,-56.083C286.654,-48.6913 292.023,-37.9533 296.594,-28.8111"/>
<polygon fill="midnightblue" stroke="midnightblue" points="299.783,-30.2606 301.124,-19.7511 293.522,-27.1301 299.783,-30.2606"/>
</g>
<!-- Node9 -->
<g id="node9" class="node"><title>Node9</title>
<polygon fill="white" stroke="#bfbfbf" points="338.5,-0.5 338.5,-19.5 368.5,-19.5 368.5,-0.5 338.5,-0.5"/>
<text text-anchor="middle" x="353.5" y="-7.5" font-family="Helvetica,sans-Serif" font-size="10.00">set</text>
</g>
<!-- Node4&#45;&gt;Node9 -->
<g id="edge8" class="edge"><title>Node4&#45;&gt;Node9</title>
<path fill="none" stroke="midnightblue" d="M290.55,-56.324C301.963,-48.1066 319.331,-35.6017 332.935,-25.8069"/>
<polygon fill="midnightblue" stroke="midnightblue" points="335.16,-28.5174 341.231,-19.8339 331.07,-22.8366 335.16,-28.5174"/>
</g>
<!-- Node10 -->
<g id="node10" class="node"><title>Node10</title>
<g id="a_node10"><a doxygen="/local/devel/hpp/install/share/doc/hpp-util/doxygen-html/hpp-util.doxytag:../../hpp-util/doxygen-html/" xlink:href="../../hpp-util/doxygen-html/a00028.html" target="_top" xlink:title="hpp/util/pointer.hh">
<polygon fill="white" stroke="black" points="386.5,-0.5 386.5,-19.5 480.5,-19.5 480.5,-0.5 386.5,-0.5"/>
<text text-anchor="middle" x="433.5" y="-7.5" font-family="Helvetica,sans-Serif" font-size="10.00">hpp/util/pointer.hh</text>
</a>
</g>
</g>
<!-- Node4&#45;&gt;Node10 -->
<g id="edge9" class="edge"><title>Node4&#45;&gt;Node10</title>
<path fill="none" stroke="midnightblue" d="M303.06,-56.4435C329.023,-47.3986 370.168,-33.064 399.297,-22.9158"/>
<polygon fill="midnightblue" stroke="midnightblue" points="400.763,-26.1116 409.055,-19.5164 398.46,-19.5013 400.763,-26.1116"/>
</g>
<!-- Node11 -->
<g id="node11" class="node"><title>Node11</title>
<g id="a_node11"><a doxygen="/local/devel/hpp/install/share/doc/hpp-constraints/doxygen-html/hpp-constraints.doxytag:../../hpp-constraints/doxygen-html/" xlink:href="../../hpp-constraints/doxygen-html/a00001.html" target="_top" xlink:title="hpp/constraints/fwd.hh">
<polygon fill="white" stroke="black" points="498.5,-0.5 498.5,-19.5 614.5,-19.5 614.5,-0.5 498.5,-0.5"/>
<text text-anchor="middle" x="556.5" y="-7.5" font-family="Helvetica,sans-Serif" font-size="10.00">hpp/constraints/fwd.hh</text>
</a>
</g>
</g>
<!-- Node4&#45;&gt;Node11 -->
<g id="edge10" class="edge"><title>Node4&#45;&gt;Node11</title>
<path fill="none" stroke="midnightblue" d="M321.632,-56.6217C370.346,-47.1594 449.689,-31.7475 502.485,-21.4921"/>
<polygon fill="midnightblue" stroke="midnightblue" points="503.198,-24.9192 512.347,-19.5765 501.863,-18.0476 503.198,-24.9192"/>
</g>
<!-- Node12 -->
<g id="node12" class="node"><title>Node12</title>
<polygon fill="white" stroke="#bfbfbf" points="633,-0.5 633,-19.5 752,-19.5 752,-0.5 633,-0.5"/>
<text text-anchor="middle" x="692.5" y="-7.5" font-family="Helvetica,sans-Serif" font-size="10.00">hpp/core/deprecated.hh</text>
</g>
<!-- Node4&#45;&gt;Node12 -->
<g id="edge12" class="edge"><title>Node4&#45;&gt;Node12</title>
<path fill="none" stroke="midnightblue" d="M321.634,-59.3739C393.151,-50.0455 536.906,-31.2949 622.92,-20.0756"/>
<polygon fill="midnightblue" stroke="midnightblue" points="623.394,-23.5435 632.858,-18.7794 622.489,-16.6023 623.394,-23.5435"/>
</g>
</g>
</svg>
