<?xml version="1.0" encoding="UTF-8" standalone="no"?>
<!DOCTYPE svg PUBLIC "-//W3C//DTD SVG 1.1//EN"
 "http://www.w3.org/Graphics/SVG/1.1/DTD/svg11.dtd">
<!-- Generated by graphviz version 2.38.0 (20140413.2041)
 -->
<!-- Title: weighed&#45;distance.hh Pages: 1 -->
<svg width="761pt" height="252pt"
 viewBox="0.00 0.00 760.50 252.00" xmlns="http://www.w3.org/2000/svg" xmlns:xlink="http://www.w3.org/1999/xlink">
<g id="graph0" class="graph" transform="scale(1 1) rotate(0) translate(4 248)">
<title>weighed&#45;distance.hh</title>
<polygon fill="white" stroke="none" points="-4,4 -4,-248 756.5,-248 756.5,4 -4,4"/>
<!-- Node1 -->
<g id="node1" class="node"><title>Node1</title>
<polygon fill="#bfbfbf" stroke="black" points="292,-224.5 292,-243.5 398,-243.5 398,-224.5 292,-224.5"/>
<text text-anchor="middle" x="345" y="-231.5" font-family="Helvetica,sans-Serif" font-size="10.00">weighed&#45;distance.hh</text>
</g>
<!-- Node2 -->
<g id="node2" class="node"><title>Node2</title>
<g id="a_node2"><a xlink:href="a00135.html" target="_top" xlink:title="hpp/core/distance.hh">
<polygon fill="white" stroke="black" points="291.5,-168.5 291.5,-187.5 398.5,-187.5 398.5,-168.5 291.5,-168.5"/>
<text text-anchor="middle" x="345" y="-175.5" font-family="Helvetica,sans-Serif" font-size="10.00">hpp/core/distance.hh</text>
</a>
</g>
</g>
<!-- Node1&#45;&gt;Node2 -->
<g id="edge1" class="edge"><title>Node1&#45;&gt;Node2</title>
<path fill="none" stroke="midnightblue" d="M345,-224.083C345,-217.006 345,-206.861 345,-197.986"/>
<polygon fill="midnightblue" stroke="midnightblue" points="348.5,-197.751 345,-187.751 341.5,-197.751 348.5,-197.751"/>
</g>
<!-- Node3 -->
<g id="node3" class="node"><title>Node3</title>
<g id="a_node3"><a doxygen="/local/devel/hpp/install/share/doc/hpp-pinocchio/doxygen-html/hpp-pinocchio.doxytag:../../hpp-pinocchio/doxygen-html/" xlink:href="../../hpp-pinocchio/doxygen-html/a00098.html" target="_top" xlink:title="hpp/pinocchio/fwd.hh">
<polygon fill="white" stroke="black" points="148.5,-56.5 148.5,-75.5 257.5,-75.5 257.5,-56.5 148.5,-56.5"/>
<text text-anchor="middle" x="203" y="-63.5" font-family="Helvetica,sans-Serif" font-size="10.00">hpp/pinocchio/fwd.hh</text>
</a>
</g>
</g>
<!-- Node2&#45;&gt;Node3 -->
<g id="edge2" class="edge"><title>Node2&#45;&gt;Node3</title>
<path fill="none" stroke="midnightblue" d="M320.175,-168.467C300.572,-160.92 273.241,-148.537 253,-132 236.517,-118.534 222.234,-98.6282 213.202,-84.3967"/>
<polygon fill="midnightblue" stroke="midnightblue" points="216.027,-82.3074 207.826,-75.5996 210.054,-85.9575 216.027,-82.3074"/>
</g>
<!-- Node4 -->
<g id="node4" class="node"><title>Node4</title>
<g id="a_node4"><a xlink:href="a00001.html" target="_top" xlink:title="hpp/core/fwd.hh">
<polygon fill="white" stroke="black" points="276,-56.5 276,-75.5 362,-75.5 362,-56.5 276,-56.5"/>
<text text-anchor="middle" x="319" y="-63.5" font-family="Helvetica,sans-Serif" font-size="10.00">hpp/core/fwd.hh</text>
</a>
</g>
</g>
<!-- Node2&#45;&gt;Node4 -->
<g id="edge3" class="edge"><title>Node2&#45;&gt;Node4</title>
<path fill="none" stroke="midnightblue" d="M350.921,-168.376C358.825,-155.724 370.956,-131.518 363,-112 358.2,-100.225 348.671,-89.8564 339.705,-82.0486"/>
<polygon fill="midnightblue" stroke="midnightblue" points="341.755,-79.2048 331.781,-75.6314 337.35,-84.6448 341.755,-79.2048"/>
</g>
<!-- Node12 -->
<g id="node12" class="node"><title>Node12</title>
<polygon fill="white" stroke="#bfbfbf" points="655.5,-0.5 655.5,-19.5 752.5,-19.5 752.5,-0.5 655.5,-0.5"/>
<text text-anchor="middle" x="704" y="-7.5" font-family="Helvetica,sans-Serif" font-size="10.00">hpp/core/config.hh</text>
</g>
<!-- Node2&#45;&gt;Node12 -->
<g id="edge13" class="edge"><title>Node2&#45;&gt;Node12</title>
<path fill="none" stroke="midnightblue" d="M363.796,-168.309C423.046,-140.912 606.129,-56.255 676.268,-23.8234"/>
<polygon fill="midnightblue" stroke="midnightblue" points="677.782,-26.979 685.39,-19.6051 674.845,-20.6254 677.782,-26.979"/>
</g>
<!-- Node14 -->
<g id="node14" class="node"><title>Node14</title>
<g id="a_node14"><a xlink:href="a00162.html" target="_top" xlink:title="hpp/core/node.hh">
<polygon fill="white" stroke="black" points="262,-112.5 262,-131.5 354,-131.5 354,-112.5 262,-112.5"/>
<text text-anchor="middle" x="308" y="-119.5" font-family="Helvetica,sans-Serif" font-size="10.00">hpp/core/node.hh</text>
</a>
</g>
</g>
<!-- Node2&#45;&gt;Node14 -->
<g id="edge14" class="edge"><title>Node2&#45;&gt;Node14</title>
<path fill="none" stroke="midnightblue" d="M338.89,-168.083C333.718,-160.534 326.154,-149.495 319.806,-140.23"/>
<polygon fill="midnightblue" stroke="midnightblue" points="322.536,-138.022 313.996,-131.751 316.761,-141.979 322.536,-138.022"/>
</g>
<!-- Node5 -->
<g id="node5" class="node"><title>Node5</title>
<polygon fill="white" stroke="#bfbfbf" points="0,-0.5 0,-19.5 44,-19.5 44,-0.5 0,-0.5"/>
<text text-anchor="middle" x="22" y="-7.5" font-family="Helvetica,sans-Serif" font-size="10.00">vector</text>
</g>
<!-- Node4&#45;&gt;Node5 -->
<g id="edge4" class="edge"><title>Node4&#45;&gt;Node5</title>
<path fill="none" stroke="midnightblue" d="M275.902,-57.6786C272.551,-57.1103 269.221,-56.5456 266,-56 174.483,-40.4958 148.31,-41.3422 54.2115,-20.0698"/>
<polygon fill="midnightblue" stroke="midnightblue" points="54.7992,-16.614 44.2708,-17.7983 53.2398,-23.4381 54.7992,-16.614"/>
</g>
<!-- Node6 -->
<g id="node6" class="node"><title>Node6</title>
<polygon fill="white" stroke="#bfbfbf" points="62.5,-0.5 62.5,-19.5 97.5,-19.5 97.5,-0.5 62.5,-0.5"/>
<text text-anchor="middle" x="80" y="-7.5" font-family="Helvetica,sans-Serif" font-size="10.00">map</text>
</g>
<!-- Node4&#45;&gt;Node6 -->
<g id="edge5" class="edge"><title>Node4&#45;&gt;Node6</title>
<path fill="none" stroke="midnightblue" d="M275.782,-57.5104C234.591,-50.0078 170.707,-37.4268 107.288,-20.1057"/>
<polygon fill="midnightblue" stroke="midnightblue" points="108.1,-16.6988 97.5284,-17.4007 106.23,-23.4445 108.1,-16.6988"/>
</g>
<!-- Node7 -->
<g id="node7" class="node"><title>Node7</title>
<polygon fill="white" stroke="#bfbfbf" points="115.5,-0.5 115.5,-19.5 158.5,-19.5 158.5,-0.5 115.5,-0.5"/>
<text text-anchor="middle" x="137" y="-7.5" font-family="Helvetica,sans-Serif" font-size="10.00">deque</text>
</g>
<!-- Node4&#45;&gt;Node7 -->
<g id="edge6" class="edge"><title>Node4&#45;&gt;Node7</title>
<path fill="none" stroke="midnightblue" d="M290.134,-56.488C261.463,-48.0262 215.996,-34.587 168.211,-20.3543"/>
<polygon fill="midnightblue" stroke="midnightblue" points="169.21,-17.0001 158.627,-17.4984 167.211,-23.7085 169.21,-17.0001"/>
</g>
<!-- Node8 -->
<g id="node8" class="node"><title>Node8</title>
<polygon fill="white" stroke="#bfbfbf" points="176.5,-0.5 176.5,-19.5 205.5,-19.5 205.5,-0.5 176.5,-0.5"/>
<text text-anchor="middle" x="191" y="-7.5" font-family="Helvetica,sans-Serif" font-size="10.00">list</text>
</g>
<!-- Node4&#45;&gt;Node8 -->
<g id="edge7" class="edge"><title>Node4&#45;&gt;Node8</title>
<path fill="none" stroke="midnightblue" d="M298.718,-56.4435C276.019,-46.8675 239.266,-31.3623 215.115,-21.1733"/>
<polygon fill="midnightblue" stroke="midnightblue" points="216.187,-17.8272 205.613,-17.1649 213.466,-24.2767 216.187,-17.8272"/>
</g>
<!-- Node9 -->
<g id="node9" class="node"><title>Node9</title>
<polygon fill="white" stroke="#bfbfbf" points="224,-0.5 224,-19.5 254,-19.5 254,-0.5 224,-0.5"/>
<text text-anchor="middle" x="239" y="-7.5" font-family="Helvetica,sans-Serif" font-size="10.00">set</text>
</g>
<!-- Node4&#45;&gt;Node9 -->
<g id="edge8" class="edge"><title>Node4&#45;&gt;Node9</title>
<path fill="none" stroke="midnightblue" d="M306.147,-56.324C293.784,-47.979 274.87,-35.2122 260.263,-25.3524"/>
<polygon fill="midnightblue" stroke="midnightblue" points="262.068,-22.3483 251.821,-19.6545 258.152,-28.1503 262.068,-22.3483"/>
</g>
<!-- Node10 -->
<g id="node10" class="node"><title>Node10</title>
<g id="a_node10"><a doxygen="/local/devel/hpp/install/share/doc/hpp-util/doxygen-html/hpp-util.doxytag:../../hpp-util/doxygen-html/" xlink:href="../../hpp-util/doxygen-html/a00028.html" target="_top" xlink:title="hpp/util/pointer.hh">
<polygon fill="white" stroke="black" points="272,-0.5 272,-19.5 366,-19.5 366,-0.5 272,-0.5"/>
<text text-anchor="middle" x="319" y="-7.5" font-family="Helvetica,sans-Serif" font-size="10.00">hpp/util/pointer.hh</text>
</a>
</g>
</g>
<!-- Node4&#45;&gt;Node10 -->
<g id="edge9" class="edge"><title>Node4&#45;&gt;Node10</title>
<path fill="none" stroke="midnightblue" d="M319,-56.083C319,-49.0059 319,-38.8611 319,-29.9865"/>
<polygon fill="midnightblue" stroke="midnightblue" points="322.5,-29.751 319,-19.7511 315.5,-29.7511 322.5,-29.751"/>
</g>
<!-- Node11 -->
<g id="node11" class="node"><title>Node11</title>
<g id="a_node11"><a doxygen="/local/devel/hpp/install/share/doc/hpp-constraints/doxygen-html/hpp-constraints.doxytag:../../hpp-constraints/doxygen-html/" xlink:href="../../hpp-constraints/doxygen-html/a00001.html" target="_top" xlink:title="hpp/constraints/fwd.hh">
<polygon fill="white" stroke="black" points="384,-0.5 384,-19.5 500,-19.5 500,-0.5 384,-0.5"/>
<text text-anchor="middle" x="442" y="-7.5" font-family="Helvetica,sans-Serif" font-size="10.00">hpp/constraints/fwd.hh</text>
</a>
</g>
</g>
<!-- Node4&#45;&gt;Node11 -->
<g id="edge10" class="edge"><title>Node4&#45;&gt;Node11</title>
<path fill="none" stroke="midnightblue" d="M338.49,-56.4435C358.642,-47.5961 390.323,-33.6875 413.331,-23.5865"/>
<polygon fill="midnightblue" stroke="midnightblue" points="414.852,-26.7411 422.601,-19.5164 412.038,-20.3316 414.852,-26.7411"/>
</g>
<!-- Node4&#45;&gt;Node12 -->
<g id="edge11" class="edge"><title>Node4&#45;&gt;Node12</title>
<path fill="none" stroke="midnightblue" d="M362.06,-58.2134C367.094,-57.4511 372.159,-56.6983 377,-56 493.663,-39.173 525.537,-37.5202 645.27,-20.2254"/>
<polygon fill="midnightblue" stroke="midnightblue" points="645.8,-23.6851 655.194,-18.7852 644.795,-16.7577 645.8,-23.6851"/>
</g>
<!-- Node13 -->
<g id="node13" class="node"><title>Node13</title>
<polygon fill="white" stroke="#bfbfbf" points="518.5,-0.5 518.5,-19.5 637.5,-19.5 637.5,-0.5 518.5,-0.5"/>
<text text-anchor="middle" x="578" y="-7.5" font-family="Helvetica,sans-Serif" font-size="10.00">hpp/core/deprecated.hh</text>
</g>
<!-- Node4&#45;&gt;Node13 -->
<g id="edge12" class="edge"><title>Node4&#45;&gt;Node13</title>
<path fill="none" stroke="midnightblue" d="M360.039,-56.4435C405.316,-47.0036 478.227,-31.802 527.106,-21.6111"/>
<polygon fill="midnightblue" stroke="midnightblue" points="528.078,-24.9839 537.153,-19.5164 526.649,-18.1312 528.078,-24.9839"/>
</g>
<!-- Node14&#45;&gt;Node3 -->
<g id="edge15" class="edge"><title>Node14&#45;&gt;Node3</title>
<path fill="none" stroke="midnightblue" d="M291.13,-112.324C274.291,-103.664 248.193,-90.2424 228.762,-80.249"/>
<polygon fill="midnightblue" stroke="midnightblue" points="230.322,-77.1155 219.828,-75.6545 227.12,-83.3405 230.322,-77.1155"/>
</g>
<!-- Node14&#45;&gt;Node4 -->
<g id="edge16" class="edge"><title>Node14&#45;&gt;Node4</title>
<path fill="none" stroke="midnightblue" d="M309.816,-112.083C311.274,-104.927 313.371,-94.6353 315.193,-85.6911"/>
<polygon fill="midnightblue" stroke="midnightblue" points="318.651,-86.2485 317.217,-75.7511 311.792,-84.8512 318.651,-86.2485"/>
</g>
<!-- Node14&#45;&gt;Node12 -->
<g id="edge17" class="edge"><title>Node14&#45;&gt;Node12</title>
<path fill="none" stroke="midnightblue" d="M318.925,-112.422C337.637,-98.2098 377.533,-69.9628 416,-56 510.619,-21.6555 542.367,-35.1803 645.303,-20.2067"/>
<polygon fill="midnightblue" stroke="midnightblue" points="646.127,-23.6219 655.491,-18.6661 645.08,-16.7006 646.127,-23.6219"/>
</g>
</g>
</svg>
