<?xml version="1.0" encoding="UTF-8" standalone="no"?>
<!DOCTYPE svg PUBLIC "-//W3C//DTD SVG 1.1//EN"
 "http://www.w3.org/Graphics/SVG/1.1/DTD/svg11.dtd">
<!-- Generated by graphviz version 2.38.0 (20140413.2041)
 -->
<!-- Title: node.hh Pages: 1 -->
<svg width="621pt" height="207pt"
 viewBox="0.00 0.00 621.00 207.00" xmlns="http://www.w3.org/2000/svg" xmlns:xlink="http://www.w3.org/1999/xlink">
<g id="graph0" class="graph" transform="scale(1 1) rotate(0) translate(4 203)">
<title>node.hh</title>
<polygon fill="white" stroke="none" points="-4,4 -4,-203 617,-203 617,4 -4,4"/>
<!-- Node1 -->
<g id="node1" class="node"><title>Node1</title>
<polygon fill="#bfbfbf" stroke="black" points="141.5,-179.5 141.5,-198.5 192.5,-198.5 192.5,-179.5 141.5,-179.5"/>
<text text-anchor="middle" x="167" y="-186.5" font-family="Helvetica,sans-Serif" font-size="10.00">node.hh</text>
</g>
<!-- Node2 -->
<g id="node2" class="node"><title>Node2</title>
<g id="a_node2"><a xlink:href="a00121.html" target="_top" xlink:title="connected&#45;component.hh">
<polygon fill="white" stroke="black" points="22,-123.5 22,-142.5 148,-142.5 148,-123.5 22,-123.5"/>
<text text-anchor="middle" x="85" y="-130.5" font-family="Helvetica,sans-Serif" font-size="10.00">connected&#45;component.hh</text>
</a>
</g>
</g>
<!-- Node1&#45;&gt;Node2 -->
<g id="edge1" class="edge"><title>Node1&#45;&gt;Node2</title>
<path fill="none" stroke="midnightblue" d="M145.167,-173.622C130.187,-163.757 110.803,-150.992 98.142,-142.655"/>
<polygon fill="midnightblue" stroke="midnightblue" points="143.549,-176.747 153.825,-179.324 147.399,-170.901 143.549,-176.747"/>
</g>
<!-- Node4 -->
<g id="node4" class="node"><title>Node4</title>
<g id="a_node4"><a xlink:href="a00135.html" target="_top" xlink:title="distance.hh">
<polygon fill="white" stroke="black" points="216.5,-123.5 216.5,-142.5 283.5,-142.5 283.5,-123.5 216.5,-123.5"/>
<text text-anchor="middle" x="250" y="-130.5" font-family="Helvetica,sans-Serif" font-size="10.00">distance.hh</text>
</a>
</g>
</g>
<!-- Node1&#45;&gt;Node4 -->
<g id="edge3" class="edge"><title>Node1&#45;&gt;Node4</title>
<path fill="none" stroke="midnightblue" d="M189.099,-173.622C204.262,-163.757 223.883,-150.992 236.698,-142.655"/>
<polygon fill="midnightblue" stroke="midnightblue" points="186.809,-170.937 180.335,-179.324 190.626,-176.804 186.809,-170.937"/>
</g>
<!-- Node3 -->
<g id="node3" class="node"><title>Node3</title>
<g id="a_node3"><a xlink:href="a00193.html" target="_top" xlink:title="roadmap.hh">
<polygon fill="white" stroke="black" points="0,-67.5 0,-86.5 68,-86.5 68,-67.5 0,-67.5"/>
<text text-anchor="middle" x="34" y="-74.5" font-family="Helvetica,sans-Serif" font-size="10.00">roadmap.hh</text>
</a>
</g>
</g>
<!-- Node2&#45;&gt;Node3 -->
<g id="edge2" class="edge"><title>Node2&#45;&gt;Node3</title>
<path fill="none" stroke="midnightblue" d="M69.6221,-115.718C60.6331,-106.2 49.6408,-94.5608 42.2649,-86.7511"/>
<polygon fill="midnightblue" stroke="midnightblue" points="67.1676,-118.216 76.5784,-123.083 72.2567,-113.41 67.1676,-118.216"/>
</g>
<!-- Node5 -->
<g id="node5" class="node"><title>Node5</title>
<g id="a_node5"><a xlink:href="a00189.html" target="_top" xlink:title="reeds&#45;shepp.hh">
<polygon fill="white" stroke="black" points="86.5,-67.5 86.5,-86.5 169.5,-86.5 169.5,-67.5 86.5,-67.5"/>
<text text-anchor="middle" x="128" y="-74.5" font-family="Helvetica,sans-Serif" font-size="10.00">reeds&#45;shepp.hh</text>
</a>
</g>
</g>
<!-- Node4&#45;&gt;Node5 -->
<g id="edge4" class="edge"><title>Node4&#45;&gt;Node5</title>
<path fill="none" stroke="midnightblue" d="M221.461,-119.368C198.614,-109.255 167.195,-95.3486 147.241,-86.5164"/>
<polygon fill="midnightblue" stroke="midnightblue" points="220.108,-122.597 230.669,-123.444 222.941,-116.196 220.108,-122.597"/>
</g>
<!-- Node6 -->
<g id="node6" class="node"><title>Node6</title>
<g id="a_node6"><a xlink:href="a00156.html" target="_top" xlink:title="kinodynamic&#45;distance.hh">
<polygon fill="white" stroke="black" points="187.5,-67.5 187.5,-86.5 312.5,-86.5 312.5,-67.5 187.5,-67.5"/>
<text text-anchor="middle" x="250" y="-74.5" font-family="Helvetica,sans-Serif" font-size="10.00">kinodynamic&#45;distance.hh</text>
</a>
</g>
</g>
<!-- Node4&#45;&gt;Node6 -->
<g id="edge5" class="edge"><title>Node4&#45;&gt;Node6</title>
<path fill="none" stroke="midnightblue" d="M250,-112.805C250,-103.91 250,-93.7798 250,-86.7511"/>
<polygon fill="midnightblue" stroke="midnightblue" points="246.5,-113.083 250,-123.083 253.5,-113.083 246.5,-113.083"/>
</g>
<!-- Node7 -->
<g id="node7" class="node"><title>Node7</title>
<g id="a_node7"><a xlink:href="a00205.html" target="_top" xlink:title="straight.hh">
<polygon fill="white" stroke="black" points="330,-67.5 330,-86.5 392,-86.5 392,-67.5 330,-67.5"/>
<text text-anchor="middle" x="361" y="-74.5" font-family="Helvetica,sans-Serif" font-size="10.00">straight.hh</text>
</a>
</g>
</g>
<!-- Node4&#45;&gt;Node7 -->
<g id="edge6" class="edge"><title>Node4&#45;&gt;Node7</title>
<path fill="none" stroke="midnightblue" d="M277.005,-118.862C297.588,-108.849 325.345,-95.3458 343.21,-86.6545"/>
<polygon fill="midnightblue" stroke="midnightblue" points="275.295,-115.802 267.834,-123.324 278.358,-122.097 275.295,-115.802"/>
</g>
<!-- Node9 -->
<g id="node9" class="node"><title>Node9</title>
<g id="a_node9"><a xlink:href="a00212.html" target="_top" xlink:title="weighed&#45;distance.hh">
<polygon fill="white" stroke="black" points="410,-67.5 410,-86.5 516,-86.5 516,-67.5 410,-67.5"/>
<text text-anchor="middle" x="463" y="-74.5" font-family="Helvetica,sans-Serif" font-size="10.00">weighed&#45;distance.hh</text>
</a>
</g>
</g>
<!-- Node4&#45;&gt;Node9 -->
<g id="edge8" class="edge"><title>Node4&#45;&gt;Node9</title>
<path fill="none" stroke="midnightblue" d="M293.551,-120.959C333.781,-110.76 392.703,-95.8217 429.407,-86.5164"/>
<polygon fill="midnightblue" stroke="midnightblue" points="292.584,-117.593 283.75,-123.444 294.304,-124.379 292.584,-117.593"/>
</g>
<!-- Node8 -->
<g id="node8" class="node"><title>Node8</title>
<g id="a_node8"><a xlink:href="a00147.html" target="_top" xlink:title="gradient&#45;based.hh">
<polygon fill="white" stroke="black" points="314,-6 314,-25 408,-25 408,-6 314,-6"/>
<text text-anchor="middle" x="361" y="-13" font-family="Helvetica,sans-Serif" font-size="10.00">gradient&#45;based.hh</text>
</a>
</g>
</g>
<!-- Node7&#45;&gt;Node8 -->
<g id="edge7" class="edge"><title>Node7&#45;&gt;Node8</title>
<path fill="none" stroke="midnightblue" d="M361,-57.3165C361,-46.4962 361,-33.398 361,-25.0091"/>
<polygon fill="midnightblue" stroke="midnightblue" points="357.5,-57.4751 361,-67.4751 364.5,-57.4751 357.5,-57.4751"/>
</g>
<!-- Node10 -->
<g id="node10" class="node"><title>Node10</title>
<g id="a_node10"><a xlink:href="a00149.html" target="_top" xlink:title="hermite.hh">
<polygon fill="white" stroke="black" points="429,-6 429,-25 491,-25 491,-6 429,-6"/>
<text text-anchor="middle" x="460" y="-13" font-family="Helvetica,sans-Serif" font-size="10.00">hermite.hh</text>
</a>
</g>
</g>
<!-- Node9&#45;&gt;Node10 -->
<g id="edge9" class="edge"><title>Node9&#45;&gt;Node10</title>
<path fill="none" stroke="midnightblue" d="M462.058,-57.3165C461.512,-46.4962 460.852,-33.398 460.429,-25.0091"/>
<polygon fill="midnightblue" stroke="midnightblue" points="458.571,-57.6641 462.57,-67.4751 465.562,-57.3115 458.571,-57.6641"/>
</g>
<!-- Node11 -->
<g id="node11" class="node"><title>Node11</title>
<g id="a_node11"><a xlink:href="a00152.html" target="_top" xlink:title="interpolated&#45;steering\l&#45;method.hh">
<polygon fill="white" stroke="black" points="509,-0.5 509,-30.5 613,-30.5 613,-0.5 509,-0.5"/>
<text text-anchor="start" x="517" y="-18.5" font-family="Helvetica,sans-Serif" font-size="10.00">interpolated&#45;steering</text>
<text text-anchor="middle" x="561" y="-7.5" font-family="Helvetica,sans-Serif" font-size="10.00">&#45;method.hh</text>
</a>
</g>
</g>
<!-- Node9&#45;&gt;Node11 -->
<g id="edge10" class="edge"><title>Node9&#45;&gt;Node11</title>
<path fill="none" stroke="midnightblue" d="M485.604,-62.2762C501.287,-52.7541 522.114,-40.1096 537.903,-30.523"/>
<polygon fill="midnightblue" stroke="midnightblue" points="483.772,-59.2935 477.041,-67.4751 487.405,-65.277 483.772,-59.2935"/>
</g>
</g>
</svg>
