<?xml version="1.0" encoding="UTF-8" standalone="no"?>
<!DOCTYPE svg PUBLIC "-//W3C//DTD SVG 1.1//EN"
 "http://www.w3.org/Graphics/SVG/1.1/DTD/svg11.dtd">
<!-- Generated by graphviz version 2.38.0 (20140413.2041)
 -->
<!-- Title: spline.hh Pages: 1 -->
<svg width="1893pt" height="352pt"
 viewBox="0.00 0.00 1893.00 352.00" xmlns="http://www.w3.org/2000/svg" xmlns:xlink="http://www.w3.org/1999/xlink">
<g id="graph0" class="graph" transform="scale(1 1) rotate(0) translate(4 348)">
<title>spline.hh</title>
<polygon fill="white" stroke="none" points="-4,4 -4,-348 1889,-348 1889,4 -4,4"/>
<!-- Node1 -->
<g id="node1" class="node"><title>Node1</title>
<polygon fill="#bfbfbf" stroke="black" points="836.5,-324.5 836.5,-343.5 892.5,-343.5 892.5,-324.5 836.5,-324.5"/>
<text text-anchor="middle" x="864.5" y="-331.5" font-family="Helvetica,sans-Serif" font-size="10.00">spline.hh</text>
</g>
<!-- Node2 -->
<g id="node2" class="node"><title>Node2</title>
<g id="a_node2"><a xlink:href="a00174.html" target="_top" xlink:title="hpp/core/path.hh">
<polygon fill="white" stroke="black" points="486,-263 486,-282 575,-282 575,-263 486,-263"/>
<text text-anchor="middle" x="530.5" y="-270" font-family="Helvetica,sans-Serif" font-size="10.00">hpp/core/path.hh</text>
</a>
</g>
</g>
<!-- Node1&#45;&gt;Node2 -->
<g id="edge1" class="edge"><title>Node1&#45;&gt;Node2</title>
<path fill="none" stroke="midnightblue" d="M836.311,-327.978C780.998,-318.125 657.377,-296.102 585.391,-283.279"/>
<polygon fill="midnightblue" stroke="midnightblue" points="585.619,-279.764 575.16,-281.456 584.391,-286.655 585.619,-279.764"/>
</g>
<!-- Node5 -->
<g id="node5" class="node"><title>Node5</title>
<g id="a_node5"><a xlink:href="a00001.html" target="_top" xlink:title="hpp/core/fwd.hh">
<polygon fill="white" stroke="black" points="289.5,-62 289.5,-81 375.5,-81 375.5,-62 289.5,-62"/>
<text text-anchor="middle" x="332.5" y="-69" font-family="Helvetica,sans-Serif" font-size="10.00">hpp/core/fwd.hh</text>
</a>
</g>
</g>
<!-- Node1&#45;&gt;Node5 -->
<g id="edge48" class="edge"><title>Node1&#45;&gt;Node5</title>
<path fill="none" stroke="midnightblue" d="M836.44,-333.039C719.703,-332.538 274.823,-323.824 193.5,-221 175.82,-198.645 204.229,-133.364 213.5,-123 230.782,-103.68 256.693,-91.5136 279.929,-83.9786"/>
<polygon fill="midnightblue" stroke="midnightblue" points="281.132,-87.2713 289.69,-81.0255 279.105,-80.5712 281.132,-87.2713"/>
</g>
<!-- Node13 -->
<g id="node13" class="node"><title>Node13</title>
<polygon fill="white" stroke="#bfbfbf" points="655,-0.5 655,-19.5 752,-19.5 752,-0.5 655,-0.5"/>
<text text-anchor="middle" x="703.5" y="-7.5" font-family="Helvetica,sans-Serif" font-size="10.00">hpp/core/config.hh</text>
</g>
<!-- Node1&#45;&gt;Node13 -->
<g id="edge50" class="edge"><title>Node1&#45;&gt;Node13</title>
<path fill="none" stroke="midnightblue" d="M859.258,-324.323C854.102,-315.466 846.324,-301.183 841.5,-288 828.72,-253.071 822.5,-243.694 822.5,-206.5 822.5,-206.5 822.5,-206.5 822.5,-137.5 822.5,-83.9419 765.209,-43.8054 730.131,-24.2499"/>
<polygon fill="midnightblue" stroke="midnightblue" points="731.78,-21.1629 721.316,-19.5056 728.462,-27.3269 731.78,-21.1629"/>
</g>
<!-- Node21 -->
<g id="node21" class="node"><title>Node21</title>
<g id="a_node21"><a doxygen="/local/devel/hpp/install/share/doc/hpp-pinocchio/doxygen-html/hpp-pinocchio.doxytag:../../hpp-pinocchio/doxygen-html/" xlink:href="../../hpp-pinocchio/doxygen-html/a00095.html" target="_top" xlink:title="hpp/pinocchio/device.hh">
<polygon fill="white" stroke="black" points="1526.5,-196 1526.5,-215 1648.5,-215 1648.5,-196 1526.5,-196"/>
<text text-anchor="middle" x="1587.5" y="-203" font-family="Helvetica,sans-Serif" font-size="10.00">hpp/pinocchio/device.hh</text>
</a>
</g>
</g>
<!-- Node1&#45;&gt;Node21 -->
<g id="edge27" class="edge"><title>Node1&#45;&gt;Node21</title>
<path fill="none" stroke="midnightblue" d="M890.771,-324.367C913.257,-316.445 946.086,-303.59 972.5,-288 991.568,-276.745 990.934,-265.203 1011.5,-257 1101.46,-221.116 1383.09,-210.636 1516.31,-207.651"/>
<polygon fill="midnightblue" stroke="midnightblue" points="1516.49,-211.148 1526.41,-207.432 1516.34,-204.149 1516.49,-211.148"/>
</g>
<!-- Node28 -->
<g id="node28" class="node"><title>Node28</title>
<g id="a_node28"><a doxygen="/local/devel/hpp/install/share/doc/hpp-pinocchio/doxygen-html/hpp-pinocchio.doxytag:../../hpp-pinocchio/doxygen-html/" xlink:href="../../hpp-pinocchio/doxygen-html/a00103.html" target="_top" xlink:title="hpp/pinocchio/liegroup\l&#45;element.hh">
<polygon fill="white" stroke="black" points="851,-257.5 851,-287.5 964,-287.5 964,-257.5 851,-257.5"/>
<text text-anchor="start" x="859" y="-275.5" font-family="Helvetica,sans-Serif" font-size="10.00">hpp/pinocchio/liegroup</text>
<text text-anchor="middle" x="907.5" y="-264.5" font-family="Helvetica,sans-Serif" font-size="10.00">&#45;element.hh</text>
</a>
</g>
</g>
<!-- Node1&#45;&gt;Node28 -->
<g id="edge39" class="edge"><title>Node1&#45;&gt;Node28</title>
<path fill="none" stroke="midnightblue" d="M870.661,-324.475C876.049,-317.019 884.12,-305.852 891.335,-295.869"/>
<polygon fill="midnightblue" stroke="midnightblue" points="894.345,-297.678 897.366,-287.523 888.672,-293.578 894.345,-297.678"/>
</g>
<!-- Node35 -->
<g id="node35" class="node"><title>Node35</title>
<g id="a_node35"><a xlink:href="a00142.html" target="_top" xlink:title="hpp/core/steering&#45;method\l/fwd.hh">
<polygon fill="white" stroke="black" points="1021,-257.5 1021,-287.5 1148,-287.5 1148,-257.5 1021,-257.5"/>
<text text-anchor="start" x="1029" y="-275.5" font-family="Helvetica,sans-Serif" font-size="10.00">hpp/core/steering&#45;method</text>
<text text-anchor="middle" x="1084.5" y="-264.5" font-family="Helvetica,sans-Serif" font-size="10.00">/fwd.hh</text>
</a>
</g>
</g>
<!-- Node1&#45;&gt;Node35 -->
<g id="edge49" class="edge"><title>Node1&#45;&gt;Node35</title>
<path fill="none" stroke="midnightblue" d="M892.811,-325.343C925.433,-316.52 980.016,-301.758 1022.61,-290.238"/>
<polygon fill="midnightblue" stroke="midnightblue" points="1023.59,-293.599 1032.33,-287.609 1021.76,-286.841 1023.59,-293.599"/>
</g>
<!-- Node3 -->
<g id="node3" class="node"><title>Node3</title>
<polygon fill="white" stroke="#bfbfbf" points="216.5,-196 216.5,-215 344.5,-215 344.5,-196 216.5,-196"/>
<text text-anchor="middle" x="280.5" y="-203" font-family="Helvetica,sans-Serif" font-size="10.00">boost/concept_check.hpp</text>
</g>
<!-- Node2&#45;&gt;Node3 -->
<g id="edge2" class="edge"><title>Node2&#45;&gt;Node3</title>
<path fill="none" stroke="midnightblue" d="M497.56,-262.936C452.78,-251.293 372.63,-230.454 323.258,-217.617"/>
<polygon fill="midnightblue" stroke="midnightblue" points="324.072,-214.212 313.513,-215.083 322.311,-220.987 324.072,-214.212"/>
</g>
<!-- Node4 -->
<g id="node4" class="node"><title>Node4</title>
<g id="a_node4"><a doxygen="/local/devel/hpp/install/share/doc/hpp-util/doxygen-html/hpp-util.doxytag:../../hpp-util/doxygen-html/" xlink:href="../../hpp-util/doxygen-html/a00022.html" target="_top" xlink:title="hpp/util/exception.hh">
<polygon fill="white" stroke="black" points="599,-196 599,-215 706,-215 706,-196 599,-196"/>
<text text-anchor="middle" x="652.5" y="-203" font-family="Helvetica,sans-Serif" font-size="10.00">hpp/util/exception.hh</text>
</a>
</g>
</g>
<!-- Node2&#45;&gt;Node4 -->
<g id="edge3" class="edge"><title>Node2&#45;&gt;Node4</title>
<path fill="none" stroke="midnightblue" d="M546.701,-262.869C567.3,-251.893 603.091,-232.824 627.277,-219.938"/>
<polygon fill="midnightblue" stroke="midnightblue" points="629.053,-222.958 636.232,-215.167 625.761,-216.78 629.053,-222.958"/>
</g>
<!-- Node2&#45;&gt;Node5 -->
<g id="edge4" class="edge"><title>Node2&#45;&gt;Node5</title>
<path fill="none" stroke="midnightblue" d="M485.735,-271.356C405.622,-270.044 242.789,-262.236 207.5,-221 165.081,-171.434 258.303,-111.91 306.275,-85.8352"/>
<polygon fill="midnightblue" stroke="midnightblue" points="308.028,-88.8667 315.212,-81.079 304.74,-82.6873 308.028,-88.8667"/>
</g>
<!-- Node2&#45;&gt;Node13 -->
<g id="edge14" class="edge"><title>Node2&#45;&gt;Node13</title>
<path fill="none" stroke="midnightblue" d="M575.117,-270.673C619.24,-267.663 686.508,-256.915 731.5,-221 767.531,-192.239 777.031,-167.637 765.5,-123 756.01,-86.2604 731.601,-48.7091 716.394,-27.7704"/>
<polygon fill="midnightblue" stroke="midnightblue" points="719.106,-25.5521 710.325,-19.6227 713.492,-29.7333 719.106,-25.5521"/>
</g>
<!-- Node14 -->
<g id="node14" class="node"><title>Node14</title>
<polygon fill="white" stroke="#bfbfbf" points="0,-0.5 0,-19.5 119,-19.5 119,-0.5 0,-0.5"/>
<text text-anchor="middle" x="59.5" y="-7.5" font-family="Helvetica,sans-Serif" font-size="10.00">hpp/core/deprecated.hh</text>
</g>
<!-- Node2&#45;&gt;Node14 -->
<g id="edge21" class="edge"><title>Node2&#45;&gt;Node14</title>
<path fill="none" stroke="midnightblue" d="M485.835,-269.354C405.588,-264.767 240.95,-251.803 193.5,-221 120.574,-173.659 79.5489,-71.1671 65.2938,-29.3381"/>
<polygon fill="midnightblue" stroke="midnightblue" points="68.5598,-28.0657 62.1099,-19.6603 61.9104,-30.2533 68.5598,-28.0657"/>
</g>
<!-- Node15 -->
<g id="node15" class="node"><title>Node15</title>
<g id="a_node15"><a xlink:href="a00123.html" target="_top" xlink:title="hpp/core/constraint\l&#45;set.hh">
<polygon fill="white" stroke="black" points="480.5,-190.5 480.5,-220.5 580.5,-220.5 580.5,-190.5 480.5,-190.5"/>
<text text-anchor="start" x="488.5" y="-208.5" font-family="Helvetica,sans-Serif" font-size="10.00">hpp/core/constraint</text>
<text text-anchor="middle" x="530.5" y="-197.5" font-family="Helvetica,sans-Serif" font-size="10.00">&#45;set.hh</text>
</a>
</g>
</g>
<!-- Node2&#45;&gt;Node15 -->
<g id="edge15" class="edge"><title>Node2&#45;&gt;Node15</title>
<path fill="none" stroke="midnightblue" d="M530.5,-262.734C530.5,-254.541 530.5,-241.923 530.5,-230.714"/>
<polygon fill="midnightblue" stroke="midnightblue" points="534,-230.589 530.5,-220.589 527,-230.589 534,-230.589"/>
</g>
<!-- Node18 -->
<g id="node18" class="node"><title>Node18</title>
<g id="a_node18"><a xlink:href="a00184.html" target="_top" xlink:title="hpp/core/projection\l&#45;error.hh">
<polygon fill="white" stroke="black" points="363,-190.5 363,-220.5 462,-220.5 462,-190.5 363,-190.5"/>
<text text-anchor="start" x="371" y="-208.5" font-family="Helvetica,sans-Serif" font-size="10.00">hpp/core/projection</text>
<text text-anchor="middle" x="412.5" y="-197.5" font-family="Helvetica,sans-Serif" font-size="10.00">&#45;error.hh</text>
</a>
</g>
</g>
<!-- Node2&#45;&gt;Node18 -->
<g id="edge22" class="edge"><title>Node2&#45;&gt;Node18</title>
<path fill="none" stroke="midnightblue" d="M514.586,-262.734C497.335,-253.231 469.28,-237.777 446.941,-225.472"/>
<polygon fill="midnightblue" stroke="midnightblue" points="448.525,-222.348 438.077,-220.589 445.147,-228.48 448.525,-222.348"/>
</g>
<!-- Node20 -->
<g id="node20" class="node"><title>Node20</title>
<g id="a_node20"><a xlink:href="a00208.html" target="_top" xlink:title="hpp/core/time&#45;parameterization.hh">
<polygon fill="white" stroke="black" points="592.5,-129 592.5,-148 756.5,-148 756.5,-129 592.5,-129"/>
<text text-anchor="middle" x="674.5" y="-136" font-family="Helvetica,sans-Serif" font-size="10.00">hpp/core/time&#45;parameterization.hh</text>
</a>
</g>
</g>
<!-- Node2&#45;&gt;Node20 -->
<g id="edge24" class="edge"><title>Node2&#45;&gt;Node20</title>
<path fill="none" stroke="midnightblue" d="M575.235,-265.477C624.098,-257.872 697.678,-243.061 714.5,-221 730.247,-200.349 709.154,-172.52 692.12,-155.307"/>
<polygon fill="midnightblue" stroke="midnightblue" points="694.364,-152.61 684.726,-148.21 689.516,-157.66 694.364,-152.61"/>
</g>
<!-- Node6 -->
<g id="node6" class="node"><title>Node6</title>
<polygon fill="white" stroke="#bfbfbf" points="531.5,-0.5 531.5,-19.5 575.5,-19.5 575.5,-0.5 531.5,-0.5"/>
<text text-anchor="middle" x="553.5" y="-7.5" font-family="Helvetica,sans-Serif" font-size="10.00">vector</text>
</g>
<!-- Node5&#45;&gt;Node6 -->
<g id="edge5" class="edge"><title>Node5&#45;&gt;Node6</title>
<path fill="none" stroke="midnightblue" d="M365.513,-61.9689C401.534,-52.6071 461.139,-36.9599 521.479,-20.2414"/>
<polygon fill="midnightblue" stroke="midnightblue" points="522.468,-23.5993 531.166,-17.5498 520.594,-16.8548 522.468,-23.5993"/>
</g>
<!-- Node7 -->
<g id="node7" class="node"><title>Node7</title>
<polygon fill="white" stroke="#bfbfbf" points="137,-0.5 137,-19.5 172,-19.5 172,-0.5 137,-0.5"/>
<text text-anchor="middle" x="154.5" y="-7.5" font-family="Helvetica,sans-Serif" font-size="10.00">map</text>
</g>
<!-- Node5&#45;&gt;Node7 -->
<g id="edge6" class="edge"><title>Node5&#45;&gt;Node7</title>
<path fill="none" stroke="midnightblue" d="M306.377,-61.9309C277.904,-52.5668 230.763,-36.994 181.632,-20.3581"/>
<polygon fill="midnightblue" stroke="midnightblue" points="182.706,-17.0268 172.112,-17.1297 180.458,-23.656 182.706,-17.0268"/>
</g>
<!-- Node8 -->
<g id="node8" class="node"><title>Node8</title>
<polygon fill="white" stroke="#bfbfbf" points="594,-0.5 594,-19.5 637,-19.5 637,-0.5 594,-0.5"/>
<text text-anchor="middle" x="615.5" y="-7.5" font-family="Helvetica,sans-Serif" font-size="10.00">deque</text>
</g>
<!-- Node5&#45;&gt;Node8 -->
<g id="edge7" class="edge"><title>Node5&#45;&gt;Node8</title>
<path fill="none" stroke="midnightblue" d="M375.55,-63.0215C423.85,-54.3768 504.714,-39.1455 583.754,-20.0065"/>
<polygon fill="midnightblue" stroke="midnightblue" points="585,-23.3049 593.883,-17.5295 583.338,-16.5052 585,-23.3049"/>
</g>
<!-- Node9 -->
<g id="node9" class="node"><title>Node9</title>
<polygon fill="white" stroke="#bfbfbf" points="190,-0.5 190,-19.5 219,-19.5 219,-0.5 190,-0.5"/>
<text text-anchor="middle" x="204.5" y="-7.5" font-family="Helvetica,sans-Serif" font-size="10.00">list</text>
</g>
<!-- Node5&#45;&gt;Node9 -->
<g id="edge8" class="edge"><title>Node5&#45;&gt;Node9</title>
<path fill="none" stroke="midnightblue" d="M314.161,-61.9751C291.581,-51.479 253.179,-33.6282 228.333,-22.0787"/>
<polygon fill="midnightblue" stroke="midnightblue" points="229.768,-18.8859 219.224,-17.8445 226.817,-25.2336 229.768,-18.8859"/>
</g>
<!-- Node10 -->
<g id="node10" class="node"><title>Node10</title>
<polygon fill="white" stroke="#bfbfbf" points="237.5,-0.5 237.5,-19.5 267.5,-19.5 267.5,-0.5 237.5,-0.5"/>
<text text-anchor="middle" x="252.5" y="-7.5" font-family="Helvetica,sans-Serif" font-size="10.00">set</text>
</g>
<!-- Node5&#45;&gt;Node10 -->
<g id="edge9" class="edge"><title>Node5&#45;&gt;Node10</title>
<path fill="none" stroke="midnightblue" d="M321.038,-61.9751C308.325,-52.5199 287.587,-37.0961 272.247,-25.6871"/>
<polygon fill="midnightblue" stroke="midnightblue" points="274.054,-22.6686 263.941,-19.5091 269.876,-28.2854 274.054,-22.6686"/>
</g>
<!-- Node11 -->
<g id="node11" class="node"><title>Node11</title>
<g id="a_node11"><a doxygen="/local/devel/hpp/install/share/doc/hpp-util/doxygen-html/hpp-util.doxytag:../../hpp-util/doxygen-html/" xlink:href="../../hpp-util/doxygen-html/a00028.html" target="_top" xlink:title="hpp/util/pointer.hh">
<polygon fill="white" stroke="black" points="285.5,-0.5 285.5,-19.5 379.5,-19.5 379.5,-0.5 285.5,-0.5"/>
<text text-anchor="middle" x="332.5" y="-7.5" font-family="Helvetica,sans-Serif" font-size="10.00">hpp/util/pointer.hh</text>
</a>
</g>
</g>
<!-- Node5&#45;&gt;Node11 -->
<g id="edge10" class="edge"><title>Node5&#45;&gt;Node11</title>
<path fill="none" stroke="midnightblue" d="M332.5,-61.9751C332.5,-53.5803 332.5,-40.4806 332.5,-29.6631"/>
<polygon fill="midnightblue" stroke="midnightblue" points="336,-29.5091 332.5,-19.5091 329,-29.5091 336,-29.5091"/>
</g>
<!-- Node12 -->
<g id="node12" class="node"><title>Node12</title>
<g id="a_node12"><a doxygen="/local/devel/hpp/install/share/doc/hpp-constraints/doxygen-html/hpp-constraints.doxytag:../../hpp-constraints/doxygen-html/" xlink:href="../../hpp-constraints/doxygen-html/a00001.html" target="_top" xlink:title="hpp/constraints/fwd.hh">
<polygon fill="white" stroke="black" points="397.5,-0.5 397.5,-19.5 513.5,-19.5 513.5,-0.5 397.5,-0.5"/>
<text text-anchor="middle" x="455.5" y="-7.5" font-family="Helvetica,sans-Serif" font-size="10.00">hpp/constraints/fwd.hh</text>
</a>
</g>
</g>
<!-- Node5&#45;&gt;Node12 -->
<g id="edge11" class="edge"><title>Node5&#45;&gt;Node12</title>
<path fill="none" stroke="midnightblue" d="M350.123,-61.9751C370.674,-52.0338 404.864,-35.4947 428.707,-23.961"/>
<polygon fill="midnightblue" stroke="midnightblue" points="430.432,-27.0145 437.91,-19.5091 427.384,-20.7131 430.432,-27.0145"/>
</g>
<!-- Node5&#45;&gt;Node13 -->
<g id="edge12" class="edge"><title>Node5&#45;&gt;Node13</title>
<path fill="none" stroke="midnightblue" d="M375.785,-63.5581C442.327,-52.8863 569.886,-32.4286 644.725,-20.4262"/>
<polygon fill="midnightblue" stroke="midnightblue" points="645.604,-23.8301 654.923,-18.7906 644.495,-16.9184 645.604,-23.8301"/>
</g>
<!-- Node5&#45;&gt;Node14 -->
<g id="edge13" class="edge"><title>Node5&#45;&gt;Node14</title>
<path fill="none" stroke="midnightblue" d="M293.386,-61.9751C244.631,-51.349 161.289,-33.1847 108.376,-21.6524"/>
<polygon fill="midnightblue" stroke="midnightblue" points="109.058,-18.2189 98.5417,-19.5091 107.567,-25.0584 109.058,-18.2189"/>
</g>
<!-- Node15&#45;&gt;Node8 -->
<g id="edge16" class="edge"><title>Node15&#45;&gt;Node8</title>
<path fill="none" stroke="midnightblue" d="M493.186,-190.359C477.347,-182.277 460.491,-170.419 451.5,-154 444.882,-141.916 446.275,-135.749 451.5,-123 474.521,-66.8255 543.459,-34.9407 584.259,-20.5073"/>
<polygon fill="midnightblue" stroke="midnightblue" points="585.635,-23.7365 593.98,-17.2096 583.386,-17.1075 585.635,-23.7365"/>
</g>
<!-- Node16 -->
<g id="node16" class="node"><title>Node16</title>
<g id="a_node16"><a xlink:href="a00124.html" target="_top" xlink:title="hpp/core/constraint.hh">
<polygon fill="white" stroke="black" points="461,-129 461,-148 574,-148 574,-129 461,-129"/>
<text text-anchor="middle" x="517.5" y="-136" font-family="Helvetica,sans-Serif" font-size="10.00">hpp/core/constraint.hh</text>
</a>
</g>
</g>
<!-- Node15&#45;&gt;Node16 -->
<g id="edge17" class="edge"><title>Node15&#45;&gt;Node16</title>
<path fill="none" stroke="midnightblue" d="M527.679,-190.396C525.793,-180.963 523.29,-168.448 521.238,-158.189"/>
<polygon fill="midnightblue" stroke="midnightblue" points="524.632,-157.314 519.239,-148.195 517.768,-158.687 524.632,-157.314"/>
</g>
<!-- Node16&#45;&gt;Node5 -->
<g id="edge20" class="edge"><title>Node16&#45;&gt;Node5</title>
<path fill="none" stroke="midnightblue" d="M492.933,-128.869C460.501,-117.473 403.235,-97.3528 366.616,-84.4869"/>
<polygon fill="midnightblue" stroke="midnightblue" points="367.468,-81.0765 356.874,-81.0637 365.148,-87.6807 367.468,-81.0765"/>
</g>
<!-- Node16&#45;&gt;Node13 -->
<g id="edge19" class="edge"><title>Node16&#45;&gt;Node13</title>
<path fill="none" stroke="midnightblue" d="M516.845,-128.785C516.11,-112.247 517.014,-76.1634 536.5,-56 551.616,-40.3582 603.113,-28.0077 644.97,-20.2333"/>
<polygon fill="midnightblue" stroke="midnightblue" points="645.608,-23.6747 654.827,-18.4524 644.364,-16.7862 645.608,-23.6747"/>
</g>
<!-- Node17 -->
<g id="node17" class="node"><title>Node17</title>
<polygon fill="white" stroke="#bfbfbf" points="545.5,-62 545.5,-81 597.5,-81 597.5,-62 545.5,-62"/>
<text text-anchor="middle" x="571.5" y="-69" font-family="Helvetica,sans-Serif" font-size="10.00">ostream</text>
</g>
<!-- Node16&#45;&gt;Node17 -->
<g id="edge18" class="edge"><title>Node16&#45;&gt;Node17</title>
<path fill="none" stroke="midnightblue" d="M524.783,-128.734C533.203,-118.598 547.25,-101.69 557.746,-89.0556"/>
<polygon fill="midnightblue" stroke="midnightblue" points="560.635,-91.0558 564.333,-81.1273 555.25,-86.5826 560.635,-91.0558"/>
</g>
<!-- Node19 -->
<g id="node19" class="node"><title>Node19</title>
<polygon fill="white" stroke="#bfbfbf" points="345,-129 345,-148 404,-148 404,-129 345,-129"/>
<text text-anchor="middle" x="374.5" y="-136" font-family="Helvetica,sans-Serif" font-size="10.00">exception</text>
</g>
<!-- Node18&#45;&gt;Node19 -->
<g id="edge23" class="edge"><title>Node18&#45;&gt;Node19</title>
<path fill="none" stroke="midnightblue" d="M404.255,-190.396C398.506,-180.562 390.798,-167.378 384.668,-156.892"/>
<polygon fill="midnightblue" stroke="midnightblue" points="387.652,-155.061 379.583,-148.195 381.608,-158.594 387.652,-155.061"/>
</g>
<!-- Node20&#45;&gt;Node5 -->
<g id="edge25" class="edge"><title>Node20&#45;&gt;Node5</title>
<path fill="none" stroke="midnightblue" d="M629.438,-128.936C566.466,-116.967 452.364,-95.2811 385.426,-82.5591"/>
<polygon fill="midnightblue" stroke="midnightblue" points="385.982,-79.1021 375.504,-80.6733 384.675,-85.979 385.982,-79.1021"/>
</g>
<!-- Node20&#45;&gt;Node13 -->
<g id="edge26" class="edge"><title>Node20&#45;&gt;Node13</title>
<path fill="none" stroke="midnightblue" d="M676.493,-128.805C681.15,-108.494 692.828,-57.5532 699.195,-29.7768"/>
<polygon fill="midnightblue" stroke="midnightblue" points="702.67,-30.285 701.493,-19.7557 695.847,-28.7207 702.67,-30.285"/>
</g>
<!-- Node22 -->
<g id="node22" class="node"><title>Node22</title>
<g id="a_node22"><a doxygen="/local/devel/hpp/install/share/doc/hpp-pinocchio/doxygen-html/hpp-pinocchio.doxytag:../../hpp-pinocchio/doxygen-html/" xlink:href="../../hpp-pinocchio/doxygen-html/a00098.html" target="_top" xlink:title="hpp/pinocchio/fwd.hh">
<polygon fill="white" stroke="black" points="1495,-0.5 1495,-19.5 1604,-19.5 1604,-0.5 1495,-0.5"/>
<text text-anchor="middle" x="1549.5" y="-7.5" font-family="Helvetica,sans-Serif" font-size="10.00">hpp/pinocchio/fwd.hh</text>
</a>
</g>
</g>
<!-- Node21&#45;&gt;Node22 -->
<g id="edge28" class="edge"><title>Node21&#45;&gt;Node22</title>
<path fill="none" stroke="midnightblue" d="M1585.82,-195.936C1580.09,-166.787 1561.28,-70.9675 1553.22,-29.9284"/>
<polygon fill="midnightblue" stroke="midnightblue" points="1556.61,-29.0449 1551.25,-19.9068 1549.74,-30.3939 1556.61,-29.0449"/>
</g>
<!-- Node23 -->
<g id="node23" class="node"><title>Node23</title>
<g id="a_node23"><a doxygen="/local/devel/hpp/install/share/doc/hpp-pinocchio/doxygen-html/hpp-pinocchio.doxytag:../../hpp-pinocchio/doxygen-html/" xlink:href="../../hpp-pinocchio/doxygen-html/a00097.html" target="_top" xlink:title="hpp/pinocchio/frame.hh">
<polygon fill="white" stroke="black" points="1651.5,-62 1651.5,-81 1769.5,-81 1769.5,-62 1651.5,-62"/>
<text text-anchor="middle" x="1710.5" y="-69" font-family="Helvetica,sans-Serif" font-size="10.00">hpp/pinocchio/frame.hh</text>
</a>
</g>
</g>
<!-- Node21&#45;&gt;Node23 -->
<g id="edge29" class="edge"><title>Node21&#45;&gt;Node23</title>
<path fill="none" stroke="midnightblue" d="M1648.59,-200.045C1680.01,-194.288 1715.75,-181.601 1735.5,-154 1749.51,-134.422 1735.62,-106.823 1723.64,-89.2981"/>
<polygon fill="midnightblue" stroke="midnightblue" points="1726.42,-87.1692 1717.7,-81.1479 1720.76,-91.2913 1726.42,-87.1692"/>
</g>
<!-- Node24 -->
<g id="node24" class="node"><title>Node24</title>
<g id="a_node24"><a doxygen="/local/devel/hpp/install/share/doc/hpp-pinocchio/doxygen-html/hpp-pinocchio.doxytag:../../hpp-pinocchio/doxygen-html/" xlink:href="../../hpp-pinocchio/doxygen-html/a00108.html" target="_top" xlink:title="hpp/pinocchio/pool.hh">
<polygon fill="white" stroke="black" points="1616,-129 1616,-148 1727,-148 1727,-129 1616,-129"/>
<text text-anchor="middle" x="1671.5" y="-136" font-family="Helvetica,sans-Serif" font-size="10.00">hpp/pinocchio/pool.hh</text>
</a>
</g>
</g>
<!-- Node21&#45;&gt;Node24 -->
<g id="edge31" class="edge"><title>Node21&#45;&gt;Node24</title>
<path fill="none" stroke="midnightblue" d="M1598.83,-195.734C1612.56,-185.111 1635.9,-167.049 1652.42,-154.264"/>
<polygon fill="midnightblue" stroke="midnightblue" points="1654.58,-157.015 1660.35,-148.127 1650.3,-151.479 1654.58,-157.015"/>
</g>
<!-- Node25 -->
<g id="node25" class="node"><title>Node25</title>
<g id="a_node25"><a doxygen="/local/devel/hpp/install/share/doc/hpp-pinocchio/doxygen-html/hpp-pinocchio.doxytag:../../hpp-pinocchio/doxygen-html/" xlink:href="../../hpp-pinocchio/doxygen-html/a00096.html" target="_top" xlink:title="hpp/pinocchio/extra\l&#45;config&#45;space.hh">
<polygon fill="white" stroke="black" points="1784,-123.5 1784,-153.5 1885,-153.5 1885,-123.5 1784,-123.5"/>
<text text-anchor="start" x="1792" y="-141.5" font-family="Helvetica,sans-Serif" font-size="10.00">hpp/pinocchio/extra</text>
<text text-anchor="middle" x="1834.5" y="-130.5" font-family="Helvetica,sans-Serif" font-size="10.00">&#45;config&#45;space.hh</text>
</a>
</g>
</g>
<!-- Node21&#45;&gt;Node25 -->
<g id="edge32" class="edge"><title>Node21&#45;&gt;Node25</title>
<path fill="none" stroke="midnightblue" d="M1620.04,-195.936C1659.14,-185.647 1725.52,-168.178 1774.1,-155.395"/>
<polygon fill="midnightblue" stroke="midnightblue" points="1775.09,-158.754 1783.87,-152.824 1773.31,-151.984 1775.09,-158.754"/>
</g>
<!-- Node26 -->
<g id="node26" class="node"><title>Node26</title>
<g id="a_node26"><a doxygen="/local/devel/hpp/install/share/doc/hpp-pinocchio/doxygen-html/hpp-pinocchio.doxytag:../../hpp-pinocchio/doxygen-html/" xlink:href="../../hpp-pinocchio/doxygen-html/a00093.html" target="_top" xlink:title="hpp/pinocchio/device\l&#45;data.hh">
<polygon fill="white" stroke="black" points="1413.5,-56.5 1413.5,-86.5 1521.5,-86.5 1521.5,-56.5 1413.5,-56.5"/>
<text text-anchor="start" x="1421.5" y="-74.5" font-family="Helvetica,sans-Serif" font-size="10.00">hpp/pinocchio/device</text>
<text text-anchor="middle" x="1467.5" y="-63.5" font-family="Helvetica,sans-Serif" font-size="10.00">&#45;data.hh</text>
</a>
</g>
</g>
<!-- Node21&#45;&gt;Node26 -->
<g id="edge34" class="edge"><title>Node21&#45;&gt;Node26</title>
<path fill="none" stroke="midnightblue" d="M1526.13,-199.413C1495.71,-193.428 1461.49,-180.726 1442.5,-154 1430.02,-136.433 1439.82,-112.481 1450.6,-95.0919"/>
<polygon fill="midnightblue" stroke="midnightblue" points="1453.58,-96.9286 1456.21,-86.6654 1447.76,-93.0484 1453.58,-96.9286"/>
</g>
<!-- Node27 -->
<g id="node27" class="node"><title>Node27</title>
<g id="a_node27"><a doxygen="/local/devel/hpp/install/share/doc/hpp-pinocchio/doxygen-html/hpp-pinocchio.doxytag:../../hpp-pinocchio/doxygen-html/" xlink:href="../../hpp-pinocchio/doxygen-html/a00094.html" target="_top" xlink:title="hpp/pinocchio/device\l&#45;sync.hh">
<polygon fill="white" stroke="black" points="1451.5,-123.5 1451.5,-153.5 1559.5,-153.5 1559.5,-123.5 1451.5,-123.5"/>
<text text-anchor="start" x="1459.5" y="-141.5" font-family="Helvetica,sans-Serif" font-size="10.00">hpp/pinocchio/device</text>
<text text-anchor="middle" x="1505.5" y="-130.5" font-family="Helvetica,sans-Serif" font-size="10.00">&#45;sync.hh</text>
</a>
</g>
</g>
<!-- Node21&#45;&gt;Node27 -->
<g id="edge36" class="edge"><title>Node21&#45;&gt;Node27</title>
<path fill="none" stroke="midnightblue" d="M1576.44,-195.734C1564.93,-186.611 1546.5,-172.004 1531.31,-159.963"/>
<polygon fill="midnightblue" stroke="midnightblue" points="1533.28,-157.058 1523.27,-153.589 1528.94,-162.544 1533.28,-157.058"/>
</g>
<!-- Node23&#45;&gt;Node22 -->
<g id="edge30" class="edge"><title>Node23&#45;&gt;Node22</title>
<path fill="none" stroke="midnightblue" d="M1687.43,-61.9751C1659.82,-51.7687 1613.38,-34.608 1582.1,-23.0492"/>
<polygon fill="midnightblue" stroke="midnightblue" points="1583.12,-19.6927 1572.52,-19.5091 1580.69,-26.2586 1583.12,-19.6927"/>
</g>
<!-- Node25&#45;&gt;Node22 -->
<g id="edge33" class="edge"><title>Node25&#45;&gt;Node22</title>
<path fill="none" stroke="midnightblue" d="M1828.91,-123.459C1820.75,-104.893 1803.75,-72.5939 1778.5,-56 1751.99,-38.577 1672.22,-25.6311 1614.27,-18.2045"/>
<polygon fill="midnightblue" stroke="midnightblue" points="1614.45,-14.6988 1604.09,-16.9267 1613.58,-21.6443 1614.45,-14.6988"/>
</g>
<!-- Node26&#45;&gt;Node22 -->
<g id="edge35" class="edge"><title>Node26&#45;&gt;Node22</title>
<path fill="none" stroke="midnightblue" d="M1486.93,-56.3993C1499.71,-47.1293 1516.39,-35.0254 1529.31,-25.6469"/>
<polygon fill="midnightblue" stroke="midnightblue" points="1531.53,-28.3635 1537.57,-19.6578 1527.42,-22.6979 1531.53,-28.3635"/>
</g>
<!-- Node27&#45;&gt;Node22 -->
<g id="edge37" class="edge"><title>Node27&#45;&gt;Node22</title>
<path fill="none" stroke="midnightblue" d="M1513.57,-123.279C1518.94,-113.356 1525.84,-99.6711 1530.5,-87 1537.52,-67.8943 1542.83,-45.1506 1546.03,-29.5536"/>
<polygon fill="midnightblue" stroke="midnightblue" points="1549.48,-30.1004 1547.97,-19.6139 1542.62,-28.754 1549.48,-30.1004"/>
</g>
<!-- Node27&#45;&gt;Node26 -->
<g id="edge38" class="edge"><title>Node27&#45;&gt;Node26</title>
<path fill="none" stroke="midnightblue" d="M1497.25,-123.396C1492.47,-115.219 1486.34,-104.725 1480.88,-95.393"/>
<polygon fill="midnightblue" stroke="midnightblue" points="1483.8,-93.443 1475.73,-86.5765 1477.75,-96.9759 1483.8,-93.443"/>
</g>
<!-- Node29 -->
<g id="node29" class="node"><title>Node29</title>
<g id="a_node29"><a doxygen="/local/devel/hpp/install/share/doc/hpp-pinocchio/doxygen-html/hpp-pinocchio.doxytag:../../hpp-pinocchio/doxygen-html/" xlink:href="../../hpp-pinocchio/doxygen-html/a00104.html" target="_top" xlink:title="hpp/pinocchio/liegroup\l&#45;space.hh">
<polygon fill="white" stroke="black" points="1048,-190.5 1048,-220.5 1161,-220.5 1161,-190.5 1048,-190.5"/>
<text text-anchor="start" x="1056" y="-208.5" font-family="Helvetica,sans-Serif" font-size="10.00">hpp/pinocchio/liegroup</text>
<text text-anchor="middle" x="1104.5" y="-197.5" font-family="Helvetica,sans-Serif" font-size="10.00">&#45;space.hh</text>
</a>
</g>
</g>
<!-- Node28&#45;&gt;Node29 -->
<g id="edge40" class="edge"><title>Node28&#45;&gt;Node29</title>
<path fill="none" stroke="midnightblue" d="M950.246,-257.396C980.192,-247.515 1020.39,-234.252 1052.24,-223.743"/>
<polygon fill="midnightblue" stroke="midnightblue" points="1053.44,-227.034 1061.84,-220.577 1051.24,-220.386 1053.44,-227.034"/>
</g>
<!-- Node29&#45;&gt;Node22 -->
<g id="edge47" class="edge"><title>Node29&#45;&gt;Node22</title>
<path fill="none" stroke="midnightblue" d="M1143.6,-190.414C1196,-170.764 1291.03,-132.384 1365.5,-87 1384.41,-75.4774 1384.92,-66.3476 1404.5,-56 1433.89,-40.4637 1469.52,-29.3131 1498.1,-21.998"/>
<polygon fill="midnightblue" stroke="midnightblue" points="1499.03,-25.3731 1507.9,-19.5696 1497.35,-18.5788 1499.03,-25.3731"/>
</g>
<!-- Node30 -->
<g id="node30" class="node"><title>Node30</title>
<g id="a_node30"><a doxygen="/local/devel/hpp/install/share/doc/hpp-pinocchio/doxygen-html/hpp-pinocchio.doxytag:../../hpp-pinocchio/doxygen-html/" xlink:href="../../hpp-pinocchio/doxygen-html/a00105.html" target="_top" xlink:title="hpp/pinocchio/liegroup.hh">
<polygon fill="white" stroke="black" points="1041,-129 1041,-148 1168,-148 1168,-129 1041,-129"/>
<text text-anchor="middle" x="1104.5" y="-136" font-family="Helvetica,sans-Serif" font-size="10.00">hpp/pinocchio/liegroup.hh</text>
</a>
</g>
</g>
<!-- Node29&#45;&gt;Node30 -->
<g id="edge41" class="edge"><title>Node29&#45;&gt;Node30</title>
<path fill="none" stroke="midnightblue" d="M1104.5,-190.396C1104.5,-181.064 1104.5,-168.714 1104.5,-158.517"/>
<polygon fill="midnightblue" stroke="midnightblue" points="1108,-158.195 1104.5,-148.195 1101,-158.195 1108,-158.195"/>
</g>
<!-- Node31 -->
<g id="node31" class="node"><title>Node31</title>
<g id="a_node31"><a doxygen="/local/devel/hpp/install/share/doc/hpp-pinocchio/doxygen-html/hpp-pinocchio.doxytag:../../hpp-pinocchio/doxygen-html/" xlink:href="../../hpp-pinocchio/doxygen-html/a00114.html" target="_top" xlink:title="hpp/pinocchio/liegroup\l/vector&#45;space.hh">
<polygon fill="white" stroke="black" points="1244,-56.5 1244,-86.5 1357,-86.5 1357,-56.5 1244,-56.5"/>
<text text-anchor="start" x="1252" y="-74.5" font-family="Helvetica,sans-Serif" font-size="10.00">hpp/pinocchio/liegroup</text>
<text text-anchor="middle" x="1300.5" y="-63.5" font-family="Helvetica,sans-Serif" font-size="10.00">/vector&#45;space.hh</text>
</a>
</g>
</g>
<!-- Node30&#45;&gt;Node31 -->
<g id="edge42" class="edge"><title>Node30&#45;&gt;Node31</title>
<path fill="none" stroke="midnightblue" d="M1130.53,-128.869C1160.45,-118.946 1210.31,-102.408 1248.32,-89.8051"/>
<polygon fill="midnightblue" stroke="midnightblue" points="1249.81,-92.998 1258.2,-86.5281 1247.61,-86.3538 1249.81,-92.998"/>
</g>
<!-- Node32 -->
<g id="node32" class="node"><title>Node32</title>
<g id="a_node32"><a doxygen="/local/devel/hpp/install/share/doc/hpp-pinocchio/doxygen-html/hpp-pinocchio.doxytag:../../hpp-pinocchio/doxygen-html/" xlink:href="../../hpp-pinocchio/doxygen-html/a00089.html" target="_top" xlink:title="hpp/pinocchio/liegroup\l/cartesian&#45;product.hh">
<polygon fill="white" stroke="black" points="982,-56.5 982,-86.5 1095,-86.5 1095,-56.5 982,-56.5"/>
<text text-anchor="start" x="990" y="-74.5" font-family="Helvetica,sans-Serif" font-size="10.00">hpp/pinocchio/liegroup</text>
<text text-anchor="middle" x="1038.5" y="-63.5" font-family="Helvetica,sans-Serif" font-size="10.00">/cartesian&#45;product.hh</text>
</a>
</g>
</g>
<!-- Node30&#45;&gt;Node32 -->
<g id="edge44" class="edge"><title>Node30&#45;&gt;Node32</title>
<path fill="none" stroke="midnightblue" d="M1095.6,-128.734C1086.51,-119.78 1072.05,-105.543 1059.96,-93.6346"/>
<polygon fill="midnightblue" stroke="midnightblue" points="1062.39,-91.1122 1052.81,-86.589 1057.47,-96.0996 1062.39,-91.1122"/>
</g>
<!-- Node33 -->
<g id="node33" class="node"><title>Node33</title>
<g id="a_node33"><a doxygen="/local/devel/hpp/install/share/doc/hpp-pinocchio/doxygen-html/hpp-pinocchio.doxytag:../../hpp-pinocchio/doxygen-html/" xlink:href="../../hpp-pinocchio/doxygen-html/a00111.html" target="_top" xlink:title="hpp/pinocchio/liegroup\l/special&#45;orthogonal.hh">
<polygon fill="white" stroke="black" points="1113,-56.5 1113,-86.5 1226,-86.5 1226,-56.5 1113,-56.5"/>
<text text-anchor="start" x="1121" y="-74.5" font-family="Helvetica,sans-Serif" font-size="10.00">hpp/pinocchio/liegroup</text>
<text text-anchor="middle" x="1169.5" y="-63.5" font-family="Helvetica,sans-Serif" font-size="10.00">/special&#45;orthogonal.hh</text>
</a>
</g>
</g>
<!-- Node30&#45;&gt;Node33 -->
<g id="edge45" class="edge"><title>Node30&#45;&gt;Node33</title>
<path fill="none" stroke="midnightblue" d="M1113.27,-128.734C1122.14,-119.865 1136.19,-105.811 1148.03,-93.9722"/>
<polygon fill="midnightblue" stroke="midnightblue" points="1150.81,-96.135 1155.41,-86.589 1145.87,-91.1852 1150.81,-96.135"/>
</g>
<!-- Node34 -->
<g id="node34" class="node"><title>Node34</title>
<g id="a_node34"><a doxygen="/local/devel/hpp/install/share/doc/hpp-pinocchio/doxygen-html/hpp-pinocchio.doxytag:../../hpp-pinocchio/doxygen-html/" xlink:href="../../hpp-pinocchio/doxygen-html/a00110.html" target="_top" xlink:title="hpp/pinocchio/liegroup\l/special&#45;euclidean.hh">
<polygon fill="white" stroke="black" points="851,-56.5 851,-86.5 964,-86.5 964,-56.5 851,-56.5"/>
<text text-anchor="start" x="859" y="-74.5" font-family="Helvetica,sans-Serif" font-size="10.00">hpp/pinocchio/liegroup</text>
<text text-anchor="middle" x="907.5" y="-63.5" font-family="Helvetica,sans-Serif" font-size="10.00">/special&#45;euclidean.hh</text>
</a>
</g>
</g>
<!-- Node30&#45;&gt;Node34 -->
<g id="edge46" class="edge"><title>Node30&#45;&gt;Node34</title>
<path fill="none" stroke="midnightblue" d="M1078.34,-128.869C1048.27,-118.946 998.146,-102.408 959.948,-89.8051"/>
<polygon fill="midnightblue" stroke="midnightblue" points="960.609,-86.3377 950.016,-86.5281 958.416,-92.9852 960.609,-86.3377"/>
</g>
<!-- Node31&#45;&gt;Node22 -->
<g id="edge43" class="edge"><title>Node31&#45;&gt;Node22</title>
<path fill="none" stroke="midnightblue" d="M1357,-56.9985C1401.41,-46.3873 1462.46,-31.7977 1503.82,-21.9163"/>
<polygon fill="midnightblue" stroke="midnightblue" points="1504.71,-25.3013 1513.62,-19.5729 1503.08,-18.4929 1504.71,-25.3013"/>
</g>
</g>
</svg>
