<?xml version="1.0" encoding="UTF-8" standalone="no"?>
<!DOCTYPE svg PUBLIC "-//W3C//DTD SVG 1.1//EN"
 "http://www.w3.org/Graphics/SVG/1.1/DTD/svg11.dtd">
<!-- Generated by graphviz version 2.38.0 (20140413.2041)
 -->
<!-- Title: time&#45;parameterization.hh Pages: 1 -->
<svg width="1261pt" height="330pt"
 viewBox="0.00 0.00 1261.30 330.00" xmlns="http://www.w3.org/2000/svg" xmlns:xlink="http://www.w3.org/1999/xlink">
<g id="graph0" class="graph" transform="scale(1 1) rotate(0) translate(4 326)">
<title>time&#45;parameterization.hh</title>
<polygon fill="white" stroke="none" points="-4,4 -4,-326 1257.3,-326 1257.3,4 -4,4"/>
<!-- Node1 -->
<g id="node1" class="node"><title>Node1</title>
<polygon fill="#bfbfbf" stroke="black" points="701,-302.5 701,-321.5 825,-321.5 825,-302.5 701,-302.5"/>
<text text-anchor="middle" x="763" y="-309.5" font-family="Helvetica,sans-Serif" font-size="10.00">time&#45;parameterization.hh</text>
</g>
<!-- Node2 -->
<g id="node2" class="node"><title>Node2</title>
<g id="a_node2"><a xlink:href="a00174.html" target="_top" xlink:title="path.hh">
<polygon fill="white" stroke="black" points="698.5,-246.5 698.5,-265.5 747.5,-265.5 747.5,-246.5 698.5,-246.5"/>
<text text-anchor="middle" x="723" y="-253.5" font-family="Helvetica,sans-Serif" font-size="10.00">path.hh</text>
</a>
</g>
</g>
<!-- Node1&#45;&gt;Node2 -->
<g id="edge1" class="edge"><title>Node1&#45;&gt;Node2</title>
<path fill="none" stroke="midnightblue" d="M750.3,-293.855C743.374,-284.505 735.094,-273.327 729.482,-265.751"/>
<polygon fill="midnightblue" stroke="midnightblue" points="747.63,-296.131 756.395,-302.083 753.255,-291.964 747.63,-296.131"/>
</g>
<!-- Node30 -->
<g id="node30" class="node"><title>Node30</title>
<g id="a_node30"><a xlink:href="a00177.html" target="_top" xlink:title="polynomial.hh">
<polygon fill="white" stroke="black" points="765.5,-246.5 765.5,-265.5 842.5,-265.5 842.5,-246.5 765.5,-246.5"/>
<text text-anchor="middle" x="804" y="-253.5" font-family="Helvetica,sans-Serif" font-size="10.00">polynomial.hh</text>
</a>
</g>
</g>
<!-- Node1&#45;&gt;Node30 -->
<g id="edge40" class="edge"><title>Node1&#45;&gt;Node30</title>
<path fill="none" stroke="midnightblue" d="M776.017,-293.855C783.117,-284.505 791.604,-273.327 797.356,-265.751"/>
<polygon fill="midnightblue" stroke="midnightblue" points="773.03,-292.002 769.77,-302.083 778.605,-296.235 773.03,-292.002"/>
</g>
<!-- Node3 -->
<g id="node3" class="node"><title>Node3</title>
<g id="a_node3"><a xlink:href="a00173.html" target="_top" xlink:title="path&#45;vector.hh">
<polygon fill="white" stroke="black" points="208.5,-129 208.5,-148 287.5,-148 287.5,-129 208.5,-129"/>
<text text-anchor="middle" x="248" y="-136" font-family="Helvetica,sans-Serif" font-size="10.00">path&#45;vector.hh</text>
</a>
</g>
</g>
<!-- Node2&#45;&gt;Node3 -->
<g id="edge2" class="edge"><title>Node2&#45;&gt;Node3</title>
<path fill="none" stroke="midnightblue" d="M687.852,-253.996C626.226,-251.418 495.23,-242.272 390,-210 340.003,-194.667 286.001,-163.259 261.479,-148.084"/>
<polygon fill="midnightblue" stroke="midnightblue" points="688.054,-257.506 698.181,-254.393 688.323,-250.512 688.054,-257.506"/>
</g>
<!-- Node10 -->
<g id="node10" class="node"><title>Node10</title>
<g id="a_node10"><a xlink:href="a00151.html" target="_top" xlink:title="interpolated&#45;path.hh">
<polygon fill="white" stroke="black" points="527,-190.5 527,-209.5 629,-209.5 629,-190.5 527,-190.5"/>
<text text-anchor="middle" x="578" y="-197.5" font-family="Helvetica,sans-Serif" font-size="10.00">interpolated&#45;path.hh</text>
</a>
</g>
</g>
<!-- Node2&#45;&gt;Node10 -->
<g id="edge10" class="edge"><title>Node2&#45;&gt;Node10</title>
<path fill="none" stroke="midnightblue" d="M690.525,-242.906C663.264,-232.754 625.008,-218.506 600.868,-209.516"/>
<polygon fill="midnightblue" stroke="midnightblue" points="689.432,-246.233 700.024,-246.444 691.875,-239.674 689.432,-246.233"/>
</g>
<!-- Node12 -->
<g id="node12" class="node"><title>Node12</title>
<g id="a_node12"><a xlink:href="a00204.html" target="_top" xlink:title="straight&#45;path.hh">
<polygon fill="white" stroke="black" points="399,-190.5 399,-209.5 483,-209.5 483,-190.5 399,-190.5"/>
<text text-anchor="middle" x="441" y="-197.5" font-family="Helvetica,sans-Serif" font-size="10.00">straight&#45;path.hh</text>
</a>
</g>
</g>
<!-- Node2&#45;&gt;Node12 -->
<g id="edge12" class="edge"><title>Node2&#45;&gt;Node12</title>
<path fill="none" stroke="midnightblue" d="M688.443,-248.383C636.64,-238.463 538.985,-219.763 483.096,-209.061"/>
<polygon fill="midnightblue" stroke="midnightblue" points="687.988,-251.859 698.468,-250.302 689.304,-244.984 687.988,-251.859"/>
</g>
<!-- Node16 -->
<g id="node16" class="node"><title>Node16</title>
<g id="a_node16"><a xlink:href="a00200.html" target="_top" xlink:title="spline.hh">
<polygon fill="white" stroke="black" points="842,-190.5 842,-209.5 898,-209.5 898,-190.5 842,-190.5"/>
<text text-anchor="middle" x="870" y="-197.5" font-family="Helvetica,sans-Serif" font-size="10.00">spline.hh</text>
</a>
</g>
</g>
<!-- Node2&#45;&gt;Node16 -->
<g id="edge17" class="edge"><title>Node2&#45;&gt;Node16</title>
<path fill="none" stroke="midnightblue" d="M755.923,-242.906C783.56,-232.754 822.344,-218.506 846.816,-209.516"/>
<polygon fill="midnightblue" stroke="midnightblue" points="754.472,-239.71 746.293,-246.444 756.886,-246.281 754.472,-239.71"/>
</g>
<!-- Node19 -->
<g id="node19" class="node"><title>Node19</title>
<g id="a_node19"><a xlink:href="a00203.html" target="_top" xlink:title="steering&#45;method.hh">
<polygon fill="white" stroke="black" points="673,-190.5 673,-209.5 773,-209.5 773,-190.5 673,-190.5"/>
<text text-anchor="middle" x="723" y="-197.5" font-family="Helvetica,sans-Serif" font-size="10.00">steering&#45;method.hh</text>
</a>
</g>
</g>
<!-- Node2&#45;&gt;Node19 -->
<g id="edge22" class="edge"><title>Node2&#45;&gt;Node19</title>
<path fill="none" stroke="midnightblue" d="M723,-235.805C723,-226.91 723,-216.78 723,-209.751"/>
<polygon fill="midnightblue" stroke="midnightblue" points="719.5,-236.083 723,-246.083 726.5,-236.083 719.5,-236.083"/>
</g>
<!-- Node28 -->
<g id="node28" class="node"><title>Node28</title>
<g id="a_node28"><a xlink:href="a00122.html" target="_top" xlink:title="constant&#45;curvature.hh">
<polygon fill="white" stroke="black" points="915.5,-190.5 915.5,-209.5 1026.5,-209.5 1026.5,-190.5 915.5,-190.5"/>
<text text-anchor="middle" x="971" y="-197.5" font-family="Helvetica,sans-Serif" font-size="10.00">constant&#45;curvature.hh</text>
</a>
</g>
</g>
<!-- Node2&#45;&gt;Node28 -->
<g id="edge38" class="edge"><title>Node2&#45;&gt;Node28</title>
<path fill="none" stroke="midnightblue" d="M757.611,-245.708C821.178,-230.556 884.877,-217.643 926.355,-209.534"/>
<polygon fill="midnightblue" stroke="midnightblue" points="756.731,-242.319 747.825,-248.058 758.366,-249.126 756.731,-242.319"/>
</g>
<!-- Node29 -->
<g id="node29" class="node"><title>Node29</title>
<g id="a_node29"><a xlink:href="a00206.html" target="_top" xlink:title="subchain&#45;path.hh">
<polygon fill="white" stroke="black" points="1044.5,-190.5 1044.5,-209.5 1135.5,-209.5 1135.5,-190.5 1044.5,-190.5"/>
<text text-anchor="middle" x="1090" y="-197.5" font-family="Helvetica,sans-Serif" font-size="10.00">subchain&#45;path.hh</text>
</a>
</g>
</g>
<!-- Node2&#45;&gt;Node29 -->
<g id="edge39" class="edge"><title>Node2&#45;&gt;Node29</title>
<path fill="none" stroke="midnightblue" d="M757.926,-245.831C880.39,-221.824 914.551,-227.621 1035,-210 1038.06,-209.552 1041.22,-209.075 1044.4,-208.584"/>
<polygon fill="midnightblue" stroke="midnightblue" points="756.905,-242.466 747.779,-247.848 758.269,-249.331 756.905,-242.466"/>
</g>
<!-- Node4 -->
<g id="node4" class="node"><title>Node4</title>
<g id="a_node4"><a xlink:href="a00136.html" target="_top" xlink:title="dubins&#45;path.hh">
<polygon fill="white" stroke="black" points="0,-62 0,-81 80,-81 80,-62 0,-62"/>
<text text-anchor="middle" x="40" y="-69" font-family="Helvetica,sans-Serif" font-size="10.00">dubins&#45;path.hh</text>
</a>
</g>
</g>
<!-- Node3&#45;&gt;Node4 -->
<g id="edge3" class="edge"><title>Node3&#45;&gt;Node4</title>
<path fill="none" stroke="midnightblue" d="M210.711,-125.847C169.512,-112.973 104.146,-92.5456 67.4037,-81.0637"/>
<polygon fill="midnightblue" stroke="midnightblue" points="209.79,-129.226 220.379,-128.869 211.878,-122.545 209.79,-129.226"/>
</g>
<!-- Node5 -->
<g id="node5" class="node"><title>Node5</title>
<g id="a_node5"><a xlink:href="a00116.html" target="_top" xlink:title="config&#45;optimization.hh">
<polygon fill="white" stroke="black" points="98,-62 98,-81 210,-81 210,-62 98,-62"/>
<text text-anchor="middle" x="154" y="-69" font-family="Helvetica,sans-Serif" font-size="10.00">config&#45;optimization.hh</text>
</a>
</g>
</g>
<!-- Node3&#45;&gt;Node5 -->
<g id="edge4" class="edge"><title>Node3&#45;&gt;Node5</title>
<path fill="none" stroke="midnightblue" d="M226.915,-122.92C208.331,-110.069 181.885,-91.7821 166.476,-81.1273"/>
<polygon fill="midnightblue" stroke="midnightblue" points="225.107,-125.925 235.323,-128.734 229.088,-120.167 225.107,-125.925"/>
</g>
<!-- Node6 -->
<g id="node6" class="node"><title>Node6</title>
<g id="a_node6"><a xlink:href="a00147.html" target="_top" xlink:title="gradient&#45;based.hh">
<polygon fill="white" stroke="black" points="366,-0.5 366,-19.5 460,-19.5 460,-0.5 366,-0.5"/>
<text text-anchor="middle" x="413" y="-7.5" font-family="Helvetica,sans-Serif" font-size="10.00">gradient&#45;based.hh</text>
</a>
</g>
</g>
<!-- Node3&#45;&gt;Node6 -->
<g id="edge5" class="edge"><title>Node3&#45;&gt;Node6</title>
<path fill="none" stroke="midnightblue" d="M244.617,-118.721C242.479,-100.558 242.419,-73.312 257,-56 283.42,-24.6308 330.201,-14.3831 365.664,-11.3809"/>
<polygon fill="midnightblue" stroke="midnightblue" points="241.166,-119.312 246.105,-128.685 248.09,-118.278 241.166,-119.312"/>
</g>
<!-- Node7 -->
<g id="node7" class="node"><title>Node7</title>
<g id="a_node7"><a xlink:href="a00198.html" target="_top" xlink:title="spline&#45;gradient&#45;based\l&#45;abstract.hh">
<polygon fill="white" stroke="black" points="868.5,-56.5 868.5,-86.5 977.5,-86.5 977.5,-56.5 868.5,-56.5"/>
<text text-anchor="start" x="876.5" y="-74.5" font-family="Helvetica,sans-Serif" font-size="10.00">spline&#45;gradient&#45;based</text>
<text text-anchor="middle" x="923" y="-63.5" font-family="Helvetica,sans-Serif" font-size="10.00">&#45;abstract.hh</text>
</a>
</g>
</g>
<!-- Node3&#45;&gt;Node7 -->
<g id="edge6" class="edge"><title>Node3&#45;&gt;Node7</title>
<path fill="none" stroke="midnightblue" d="M282.374,-126.118C286.919,-124.908 291.546,-123.822 296,-123 516.409,-82.3437 575.861,-108.021 799,-87 821.766,-84.8554 846.827,-82.0158 868.425,-79.4183"/>
<polygon fill="midnightblue" stroke="midnightblue" points="281.3,-122.785 272.655,-128.909 283.232,-129.513 281.3,-122.785"/>
</g>
<!-- Node8 -->
<g id="node8" class="node"><title>Node8</title>
<g id="a_node8"><a xlink:href="a00199.html" target="_top" xlink:title="spline&#45;gradient&#45;based.hh">
<polygon fill="white" stroke="black" points="820,-0.5 820,-19.5 942,-19.5 942,-0.5 820,-0.5"/>
<text text-anchor="middle" x="881" y="-7.5" font-family="Helvetica,sans-Serif" font-size="10.00">spline&#45;gradient&#45;based.hh</text>
</a>
</g>
</g>
<!-- Node3&#45;&gt;Node8 -->
<g id="edge8" class="edge"><title>Node3&#45;&gt;Node8</title>
<path fill="none" stroke="midnightblue" d="M282.884,-125.516C315.946,-113.914 363.004,-96.6974 380,-87 399.232,-76.0269 398.473,-64.3023 419,-56 490.16,-27.2182 711.244,-16.3533 819.719,-12.6777"/>
<polygon fill="midnightblue" stroke="midnightblue" points="281.41,-122.324 273.121,-128.922 283.716,-128.933 281.41,-122.324"/>
</g>
<!-- Node9 -->
<g id="node9" class="node"><title>Node9</title>
<g id="a_node9"><a xlink:href="a00188.html" target="_top" xlink:title="reeds&#45;shepp&#45;path.hh">
<polygon fill="white" stroke="black" points="266.5,-62 266.5,-81 371.5,-81 371.5,-62 266.5,-62"/>
<text text-anchor="middle" x="319" y="-69" font-family="Helvetica,sans-Serif" font-size="10.00">reeds&#45;shepp&#45;path.hh</text>
</a>
</g>
</g>
<!-- Node3&#45;&gt;Node9 -->
<g id="edge9" class="edge"><title>Node3&#45;&gt;Node9</title>
<path fill="none" stroke="midnightblue" d="M265.088,-121.856C279.046,-109.078 298.255,-91.4915 309.576,-81.1273"/>
<polygon fill="midnightblue" stroke="midnightblue" points="262.588,-119.4 257.575,-128.734 267.315,-124.563 262.588,-119.4"/>
</g>
<!-- Node7&#45;&gt;Node8 -->
<g id="edge7" class="edge"><title>Node7&#45;&gt;Node8</title>
<path fill="none" stroke="midnightblue" d="M907.191,-48.1041C900.191,-38.1868 892.369,-27.1062 887.111,-19.6578"/>
<polygon fill="midnightblue" stroke="midnightblue" points="904.42,-50.248 913.047,-56.3993 910.139,-46.2112 904.42,-50.248"/>
</g>
<!-- Node11 -->
<g id="node11" class="node"><title>Node11</title>
<g id="a_node11"><a xlink:href="a00152.html" target="_top" xlink:title="interpolated&#45;steering\l&#45;method.hh">
<polygon fill="white" stroke="black" points="469,-123.5 469,-153.5 573,-153.5 573,-123.5 469,-123.5"/>
<text text-anchor="start" x="477" y="-141.5" font-family="Helvetica,sans-Serif" font-size="10.00">interpolated&#45;steering</text>
<text text-anchor="middle" x="521" y="-130.5" font-family="Helvetica,sans-Serif" font-size="10.00">&#45;method.hh</text>
</a>
</g>
</g>
<!-- Node10&#45;&gt;Node11 -->
<g id="edge11" class="edge"><title>Node10&#45;&gt;Node11</title>
<path fill="none" stroke="midnightblue" d="M562.759,-183.091C553.936,-173.88 542.931,-162.393 534.434,-153.523"/>
<polygon fill="midnightblue" stroke="midnightblue" points="560.388,-185.675 569.833,-190.475 565.443,-180.833 560.388,-185.675"/>
</g>
<!-- Node13 -->
<g id="node13" class="node"><title>Node13</title>
<g id="a_node13"><a xlink:href="a00158.html" target="_top" xlink:title="kinodynamic&#45;path.hh">
<polygon fill="white" stroke="black" points="305.5,-129 305.5,-148 412.5,-148 412.5,-129 305.5,-129"/>
<text text-anchor="middle" x="359" y="-136" font-family="Helvetica,sans-Serif" font-size="10.00">kinodynamic&#45;path.hh</text>
</a>
</g>
</g>
<!-- Node12&#45;&gt;Node13 -->
<g id="edge13" class="edge"><title>Node12&#45;&gt;Node13</title>
<path fill="none" stroke="midnightblue" d="M420.733,-184.294C405.003,-172.88 383.748,-157.458 370.727,-148.009"/>
<polygon fill="midnightblue" stroke="midnightblue" points="419.102,-187.435 429.251,-190.475 423.213,-181.769 419.102,-187.435"/>
</g>
<!-- Node15 -->
<g id="node15" class="node"><title>Node15</title>
<g id="a_node15"><a xlink:href="a00205.html" target="_top" xlink:title="straight.hh">
<polygon fill="white" stroke="black" points="556,-62 556,-81 618,-81 618,-62 556,-62"/>
<text text-anchor="middle" x="587" y="-69" font-family="Helvetica,sans-Serif" font-size="10.00">straight.hh</text>
</a>
</g>
</g>
<!-- Node12&#45;&gt;Node15 -->
<g id="edge15" class="edge"><title>Node12&#45;&gt;Node15</title>
<path fill="none" stroke="midnightblue" d="M441.07,-180.05C442.116,-163.184 446.177,-138.803 460,-123 463.613,-118.87 528.327,-94.3364 563.946,-81.0456"/>
<polygon fill="midnightblue" stroke="midnightblue" points="437.563,-180.223 440.745,-190.329 444.56,-180.444 437.563,-180.223"/>
</g>
<!-- Node14 -->
<g id="node14" class="node"><title>Node14</title>
<g id="a_node14"><a xlink:href="a00157.html" target="_top" xlink:title="kinodynamic&#45;oriented\l&#45;path.hh">
<polygon fill="white" stroke="black" points="428.5,-56.5 428.5,-86.5 537.5,-86.5 537.5,-56.5 428.5,-56.5"/>
<text text-anchor="start" x="436.5" y="-74.5" font-family="Helvetica,sans-Serif" font-size="10.00">kinodynamic&#45;oriented</text>
<text text-anchor="middle" x="483" y="-63.5" font-family="Helvetica,sans-Serif" font-size="10.00">&#45;path.hh</text>
</a>
</g>
</g>
<!-- Node13&#45;&gt;Node14 -->
<g id="edge14" class="edge"><title>Node13&#45;&gt;Node14</title>
<path fill="none" stroke="midnightblue" d="M384.383,-124.194C405.241,-113.261 434.716,-97.8102 456.003,-86.6516"/>
<polygon fill="midnightblue" stroke="midnightblue" points="382.698,-121.126 375.466,-128.869 385.948,-127.326 382.698,-121.126"/>
</g>
<!-- Node15&#45;&gt;Node6 -->
<g id="edge16" class="edge"><title>Node15&#45;&gt;Node6</title>
<path fill="none" stroke="midnightblue" d="M553.284,-58.5346C550.82,-57.673 548.372,-56.8208 546,-56 508.681,-43.0883 465.334,-28.4976 438.532,-19.5235"/>
<polygon fill="midnightblue" stroke="midnightblue" points="552.143,-61.8435 562.738,-61.8577 554.464,-55.2395 552.143,-61.8435"/>
</g>
<!-- Node16&#45;&gt;Node7 -->
<g id="edge20" class="edge"><title>Node16&#45;&gt;Node7</title>
<path fill="none" stroke="midnightblue" d="M907.931,-189.324C956.307,-176.896 1034,-156.608 1036,-154 1058.85,-124.126 1012.25,-100.474 972.139,-86.5076"/>
<polygon fill="midnightblue" stroke="midnightblue" points="906.908,-185.973 898.091,-191.847 908.647,-192.753 906.908,-185.973"/>
</g>
<!-- Node16&#45;&gt;Node8 -->
<g id="edge21" class="edge"><title>Node16&#45;&gt;Node8</title>
<path fill="none" stroke="midnightblue" d="M908.32,-189.747C1017.44,-170.083 1054.31,-195.847 1154,-154 1207.98,-131.342 1280.75,-99.8785 1242,-56 1222.51,-33.927 1039.82,-20.132 942.064,-14.2686"/>
<polygon fill="midnightblue" stroke="midnightblue" points="907.413,-186.356 898.238,-191.655 908.715,-193.234 907.413,-186.356"/>
</g>
<!-- Node17 -->
<g id="node17" class="node"><title>Node17</title>
<g id="a_node17"><a xlink:href="a00148.html" target="_top" xlink:title="hermite.hh">
<polygon fill="white" stroke="black" points="891,-129 891,-148 953,-148 953,-129 891,-129"/>
<text text-anchor="middle" x="922" y="-136" font-family="Helvetica,sans-Serif" font-size="10.00">hermite.hh</text>
</a>
</g>
</g>
<!-- Node16&#45;&gt;Node17 -->
<g id="edge18" class="edge"><title>Node16&#45;&gt;Node17</title>
<path fill="none" stroke="midnightblue" d="M884.273,-182.669C894.076,-171.452 906.692,-157.016 914.563,-148.009"/>
<polygon fill="midnightblue" stroke="midnightblue" points="881.396,-180.642 877.45,-190.475 886.666,-185.249 881.396,-180.642"/>
</g>
<!-- Node18 -->
<g id="node18" class="node"><title>Node18</title>
<g id="a_node18"><a xlink:href="a00149.html" target="_top" xlink:title="hermite.hh">
<polygon fill="white" stroke="black" points="728,-62 728,-81 790,-81 790,-62 728,-62"/>
<text text-anchor="middle" x="759" y="-69" font-family="Helvetica,sans-Serif" font-size="10.00">hermite.hh</text>
</a>
</g>
</g>
<!-- Node17&#45;&gt;Node18 -->
<g id="edge19" class="edge"><title>Node17&#45;&gt;Node18</title>
<path fill="none" stroke="midnightblue" d="M890.915,-125.104C858.551,-112.198 808.72,-92.3272 780.475,-81.0637"/>
<polygon fill="midnightblue" stroke="midnightblue" points="889.77,-128.415 900.355,-128.869 892.363,-121.913 889.77,-128.415"/>
</g>
<!-- Node19&#45;&gt;Node11 -->
<g id="edge36" class="edge"><title>Node19&#45;&gt;Node11</title>
<path fill="none" stroke="midnightblue" d="M684.328,-187.609C651.376,-177.903 603.891,-163.916 568.607,-153.523"/>
<polygon fill="midnightblue" stroke="midnightblue" points="683.477,-191.007 694.058,-190.475 685.455,-184.292 683.477,-191.007"/>
</g>
<!-- Node19&#45;&gt;Node15 -->
<g id="edge27" class="edge"><title>Node19&#45;&gt;Node15</title>
<path fill="none" stroke="midnightblue" d="M676.398,-187.183C656.889,-180.247 635.252,-169.672 620,-154 599.559,-132.996 591.217,-97.6541 588.324,-81.2961"/>
<polygon fill="midnightblue" stroke="midnightblue" points="675.469,-190.563 686.062,-190.394 677.676,-183.92 675.469,-190.563"/>
</g>
<!-- Node19&#45;&gt;Node18 -->
<g id="edge35" class="edge"><title>Node19&#45;&gt;Node18</title>
<path fill="none" stroke="midnightblue" d="M727.267,-180.168C730.872,-164.72 736.341,-142.326 742,-123 746.367,-108.085 752.324,-90.9973 755.903,-81.0121"/>
<polygon fill="midnightblue" stroke="midnightblue" points="723.826,-179.516 724.995,-190.046 730.647,-181.085 723.826,-179.516"/>
</g>
<!-- Node20 -->
<g id="node20" class="node"><title>Node20</title>
<g id="a_node20"><a xlink:href="a00181.html" target="_top" xlink:title="problem.hh">
<polygon fill="white" stroke="black" points="629.5,-129 629.5,-148 694.5,-148 694.5,-129 629.5,-129"/>
<text text-anchor="middle" x="662" y="-136" font-family="Helvetica,sans-Serif" font-size="10.00">problem.hh</text>
</a>
</g>
</g>
<!-- Node19&#45;&gt;Node20 -->
<g id="edge23" class="edge"><title>Node19&#45;&gt;Node20</title>
<path fill="none" stroke="midnightblue" d="M706.929,-183.325C695.34,-172.02 680.139,-157.193 670.724,-148.009"/>
<polygon fill="midnightblue" stroke="midnightblue" points="704.658,-185.998 714.26,-190.475 709.546,-180.987 704.658,-185.998"/>
</g>
<!-- Node22 -->
<g id="node22" class="node"><title>Node22</title>
<g id="a_node22"><a xlink:href="a00201.html" target="_top" xlink:title="spline.hh">
<polygon fill="white" stroke="black" points="971,-129 971,-148 1027,-148 1027,-129 971,-129"/>
<text text-anchor="middle" x="999" y="-136" font-family="Helvetica,sans-Serif" font-size="10.00">spline.hh</text>
</a>
</g>
</g>
<!-- Node19&#45;&gt;Node22 -->
<g id="edge28" class="edge"><title>Node19&#45;&gt;Node22</title>
<path fill="none" stroke="midnightblue" d="M783.14,-190.871C831.914,-183.519 902.141,-171.2 962,-154 967.703,-152.361 973.749,-150.187 979.266,-148.023"/>
<polygon fill="midnightblue" stroke="midnightblue" points="782.448,-187.436 773.07,-192.365 783.475,-194.36 782.448,-187.436"/>
</g>
<!-- Node23 -->
<g id="node23" class="node"><title>Node23</title>
<g id="a_node23"><a xlink:href="a00112.html" target="_top" xlink:title="car&#45;like.hh">
<polygon fill="white" stroke="black" points="1083,-129 1083,-148 1145,-148 1145,-129 1083,-129"/>
<text text-anchor="middle" x="1114" y="-136" font-family="Helvetica,sans-Serif" font-size="10.00">car&#45;like.hh</text>
</a>
</g>
</g>
<!-- Node19&#45;&gt;Node23 -->
<g id="edge31" class="edge"><title>Node19&#45;&gt;Node23</title>
<path fill="none" stroke="midnightblue" d="M783.414,-191.062C846.535,-182.594 948.385,-168.436 1036,-154 1051.49,-151.447 1068.66,-148.293 1082.93,-145.578"/>
<polygon fill="midnightblue" stroke="midnightblue" points="782.689,-187.628 773.242,-192.423 783.617,-194.566 782.689,-187.628"/>
</g>
<!-- Node27 -->
<g id="node27" class="node"><title>Node27</title>
<g id="a_node27"><a xlink:href="a00202.html" target="_top" xlink:title="steering&#45;kinodynamic.hh">
<polygon fill="white" stroke="black" points="751,-129 751,-148 873,-148 873,-129 751,-129"/>
<text text-anchor="middle" x="812" y="-136" font-family="Helvetica,sans-Serif" font-size="10.00">steering&#45;kinodynamic.hh</text>
</a>
</g>
</g>
<!-- Node19&#45;&gt;Node27 -->
<g id="edge37" class="edge"><title>Node19&#45;&gt;Node27</title>
<path fill="none" stroke="midnightblue" d="M744.52,-184.613C761.638,-173.169 785.007,-157.546 799.272,-148.009"/>
<polygon fill="midnightblue" stroke="midnightblue" points="742.12,-182.008 735.752,-190.475 746.01,-187.827 742.12,-182.008"/>
</g>
<!-- Node20&#45;&gt;Node15 -->
<g id="edge24" class="edge"><title>Node20&#45;&gt;Node15</title>
<path fill="none" stroke="midnightblue" d="M643.95,-121.856C629.205,-109.078 608.913,-91.4915 596.955,-81.1273"/>
<polygon fill="midnightblue" stroke="midnightblue" points="642.036,-124.829 651.885,-128.734 646.621,-119.54 642.036,-124.829"/>
</g>
<!-- Node20&#45;&gt;Node18 -->
<g id="edge26" class="edge"><title>Node20&#45;&gt;Node18</title>
<path fill="none" stroke="midnightblue" d="M683.497,-123.095C702.686,-110.236 730.153,-91.8306 746.125,-81.1273"/>
<polygon fill="midnightblue" stroke="midnightblue" points="681.441,-120.259 675.082,-128.734 685.338,-126.075 681.441,-120.259"/>
</g>
<!-- Node21 -->
<g id="node21" class="node"><title>Node21</title>
<g id="a_node21"><a xlink:href="a00129.html" target="_top" xlink:title="dichotomy.hh">
<polygon fill="white" stroke="black" points="635.5,-62 635.5,-81 710.5,-81 710.5,-62 635.5,-62"/>
<text text-anchor="middle" x="673" y="-69" font-family="Helvetica,sans-Serif" font-size="10.00">dichotomy.hh</text>
</a>
</g>
</g>
<!-- Node20&#45;&gt;Node21 -->
<g id="edge25" class="edge"><title>Node20&#45;&gt;Node21</title>
<path fill="none" stroke="midnightblue" d="M665.209,-118.537C667.302,-106.17 669.934,-90.6198 671.54,-81.1273"/>
<polygon fill="midnightblue" stroke="midnightblue" points="661.701,-118.29 663.484,-128.734 668.603,-119.458 661.701,-118.29"/>
</g>
<!-- Node22&#45;&gt;Node7 -->
<g id="edge29" class="edge"><title>Node22&#45;&gt;Node7</title>
<path fill="none" stroke="midnightblue" d="M980.793,-121.928C968.224,-111.179 951.649,-97.0024 939.473,-86.589"/>
<polygon fill="midnightblue" stroke="midnightblue" points="978.876,-124.894 988.75,-128.734 983.426,-119.574 978.876,-124.894"/>
</g>
<!-- Node22&#45;&gt;Node8 -->
<g id="edge30" class="edge"><title>Node22&#45;&gt;Node8</title>
<path fill="none" stroke="midnightblue" d="M967.792,-125.175C965.835,-124.431 963.892,-123.701 962,-123 916.528,-106.15 887.069,-126.544 859,-87 844.053,-65.9417 862.924,-34.8255 874.004,-19.7808"/>
<polygon fill="midnightblue" stroke="midnightblue" points="966.941,-128.598 977.53,-128.93 969.459,-122.066 966.941,-128.598"/>
</g>
<!-- Node24 -->
<g id="node24" class="node"><title>Node24</title>
<g id="a_node24"><a xlink:href="a00137.html" target="_top" xlink:title="dubins.hh">
<polygon fill="white" stroke="black" points="995.5,-62 995.5,-81 1054.5,-81 1054.5,-62 995.5,-62"/>
<text text-anchor="middle" x="1025" y="-69" font-family="Helvetica,sans-Serif" font-size="10.00">dubins.hh</text>
</a>
</g>
</g>
<!-- Node23&#45;&gt;Node24 -->
<g id="edge32" class="edge"><title>Node23&#45;&gt;Node24</title>
<path fill="none" stroke="midnightblue" d="M1093.55,-122.568C1075.99,-109.738 1051.27,-91.6853 1036.81,-81.1273"/>
<polygon fill="midnightblue" stroke="midnightblue" points="1091.86,-125.662 1102,-128.734 1095.99,-120.009 1091.86,-125.662"/>
</g>
<!-- Node25 -->
<g id="node25" class="node"><title>Node25</title>
<g id="a_node25"><a xlink:href="a00190.html" target="_top" xlink:title="reeds&#45;shepp.hh">
<polygon fill="white" stroke="black" points="1072.5,-62 1072.5,-81 1155.5,-81 1155.5,-62 1072.5,-62"/>
<text text-anchor="middle" x="1114" y="-69" font-family="Helvetica,sans-Serif" font-size="10.00">reeds&#45;shepp.hh</text>
</a>
</g>
</g>
<!-- Node23&#45;&gt;Node25 -->
<g id="edge33" class="edge"><title>Node23&#45;&gt;Node25</title>
<path fill="none" stroke="midnightblue" d="M1114,-118.537C1114,-106.17 1114,-90.6198 1114,-81.1273"/>
<polygon fill="midnightblue" stroke="midnightblue" points="1110.5,-118.734 1114,-128.734 1117.5,-118.734 1110.5,-118.734"/>
</g>
<!-- Node26 -->
<g id="node26" class="node"><title>Node26</title>
<g id="a_node26"><a xlink:href="a00196.html" target="_top" xlink:title="snibud.hh">
<polygon fill="white" stroke="black" points="1173.5,-62 1173.5,-81 1232.5,-81 1232.5,-62 1173.5,-62"/>
<text text-anchor="middle" x="1203" y="-69" font-family="Helvetica,sans-Serif" font-size="10.00">snibud.hh</text>
</a>
</g>
</g>
<!-- Node23&#45;&gt;Node26 -->
<g id="edge34" class="edge"><title>Node23&#45;&gt;Node26</title>
<path fill="none" stroke="midnightblue" d="M1134.45,-122.568C1152.01,-109.738 1176.73,-91.6853 1191.19,-81.1273"/>
<polygon fill="midnightblue" stroke="midnightblue" points="1132.01,-120.009 1126,-128.734 1136.14,-125.662 1132.01,-120.009"/>
</g>
</g>
</svg>
