<?xml version="1.0" encoding="UTF-8" standalone="no"?>
<!DOCTYPE svg PUBLIC "-//W3C//DTD SVG 1.1//EN"
 "http://www.w3.org/Graphics/SVG/1.1/DTD/svg11.dtd">
<!-- Generated by graphviz version 2.38.0 (20140413.2041)
 -->
<!-- Title: reeds&#45;shepp.hh Pages: 1 -->
<svg width="1060pt" height="453pt"
 viewBox="0.00 0.00 1060.00 453.00" xmlns="http://www.w3.org/2000/svg" xmlns:xlink="http://www.w3.org/1999/xlink">
<g id="graph0" class="graph" transform="scale(1 1) rotate(0) translate(4 449)">
<title>reeds&#45;shepp.hh</title>
<polygon fill="white" stroke="none" points="-4,4 -4,-449 1056,-449 1056,4 -4,4"/>
<!-- Node1 -->
<g id="node1" class="node"><title>Node1</title>
<polygon fill="#bfbfbf" stroke="black" points="72.5,-425.5 72.5,-444.5 155.5,-444.5 155.5,-425.5 72.5,-425.5"/>
<text text-anchor="middle" x="114" y="-432.5" font-family="Helvetica,sans-Serif" font-size="10.00">reeds&#45;shepp.hh</text>
</g>
<!-- Node2 -->
<g id="node2" class="node"><title>Node2</title>
<g id="a_node2"><a doxygen="/local/devel/hpp/install/share/doc/hpp-util/doxygen-html/hpp-util.doxytag:../../hpp-util/doxygen-html/" xlink:href="../../hpp-util/doxygen-html/a00018.html" target="_top" xlink:title="hpp/util/debug.hh">
<polygon fill="white" stroke="black" points="106.5,-235.5 106.5,-254.5 197.5,-254.5 197.5,-235.5 106.5,-235.5"/>
<text text-anchor="middle" x="152" y="-242.5" font-family="Helvetica,sans-Serif" font-size="10.00">hpp/util/debug.hh</text>
</a>
</g>
</g>
<!-- Node1&#45;&gt;Node2 -->
<g id="edge1" class="edge"><title>Node1&#45;&gt;Node2</title>
<path fill="none" stroke="midnightblue" d="M115.732,-425.434C121.506,-396.867 140.19,-304.426 148.247,-264.57"/>
<polygon fill="midnightblue" stroke="midnightblue" points="151.708,-265.112 150.258,-254.617 144.846,-263.725 151.708,-265.112"/>
</g>
<!-- Node4 -->
<g id="node4" class="node"><title>Node4</title>
<g id="a_node4"><a doxygen="/local/devel/hpp/install/share/doc/hpp-util/doxygen-html/hpp-util.doxytag:../../hpp-util/doxygen-html/" xlink:href="../../hpp-util/doxygen-html/a00028.html" target="_top" xlink:title="hpp/util/pointer.hh">
<polygon fill="white" stroke="black" points="29,-0.5 29,-19.5 123,-19.5 123,-0.5 29,-0.5"/>
<text text-anchor="middle" x="76" y="-7.5" font-family="Helvetica,sans-Serif" font-size="10.00">hpp/util/pointer.hh</text>
</a>
</g>
</g>
<!-- Node1&#45;&gt;Node4 -->
<g id="edge3" class="edge"><title>Node1&#45;&gt;Node4</title>
<path fill="none" stroke="midnightblue" d="M97.1789,-425.427C65.4679,-407.927 0,-364.854 0,-307.5 0,-307.5 0,-307.5 0,-121 0,-81.2757 33.9641,-45.5045 56.4821,-26.1536"/>
<polygon fill="midnightblue" stroke="midnightblue" points="58.9755,-28.6337 64.4572,-19.5672 54.518,-23.2364 58.9755,-28.6337"/>
</g>
<!-- Node5 -->
<g id="node5" class="node"><title>Node5</title>
<g id="a_node5"><a xlink:href="a00001.html" target="_top" xlink:title="hpp/core/fwd.hh">
<polygon fill="white" stroke="black" points="393,-56.5 393,-75.5 479,-75.5 479,-56.5 393,-56.5"/>
<text text-anchor="middle" x="436" y="-63.5" font-family="Helvetica,sans-Serif" font-size="10.00">hpp/core/fwd.hh</text>
</a>
</g>
</g>
<!-- Node1&#45;&gt;Node5 -->
<g id="edge4" class="edge"><title>Node1&#45;&gt;Node5</title>
<path fill="none" stroke="midnightblue" d="M104.064,-425.274C83.4636,-406.159 38,-358.229 38,-307.5 38,-307.5 38,-307.5 38,-244 38,-94.918 274.024,-70.4811 382.556,-67.1249"/>
<polygon fill="midnightblue" stroke="midnightblue" points="382.744,-70.6213 392.649,-66.8624 382.562,-63.6237 382.744,-70.6213"/>
</g>
<!-- Node12 -->
<g id="node12" class="node"><title>Node12</title>
<polygon fill="white" stroke="#bfbfbf" points="908.5,-0.5 908.5,-19.5 1005.5,-19.5 1005.5,-0.5 908.5,-0.5"/>
<text text-anchor="middle" x="957" y="-7.5" font-family="Helvetica,sans-Serif" font-size="10.00">hpp/core/config.hh</text>
</g>
<!-- Node1&#45;&gt;Node12 -->
<g id="edge14" class="edge"><title>Node1&#45;&gt;Node12</title>
<path fill="none" stroke="midnightblue" d="M155.515,-432.841C337.046,-427.232 1052,-399.315 1052,-307.5 1052,-307.5 1052,-307.5 1052,-121 1052,-77.7385 1009.39,-43.0862 981.245,-24.9149"/>
<polygon fill="midnightblue" stroke="midnightblue" points="983.03,-21.9032 972.687,-19.6042 979.339,-27.851 983.03,-21.9032"/>
</g>
<!-- Node14 -->
<g id="node14" class="node"><title>Node14</title>
<g id="a_node14"><a xlink:href="a00112.html" target="_top" xlink:title="hpp/core/steering&#45;method\l/car&#45;like.hh">
<polygon fill="white" stroke="black" points="180.5,-358.5 180.5,-388.5 307.5,-388.5 307.5,-358.5 180.5,-358.5"/>
<text text-anchor="start" x="188.5" y="-376.5" font-family="Helvetica,sans-Serif" font-size="10.00">hpp/core/steering&#45;method</text>
<text text-anchor="middle" x="244" y="-365.5" font-family="Helvetica,sans-Serif" font-size="10.00">/car&#45;like.hh</text>
</a>
</g>
</g>
<!-- Node1&#45;&gt;Node14 -->
<g id="edge15" class="edge"><title>Node1&#45;&gt;Node14</title>
<path fill="none" stroke="midnightblue" d="M132.626,-425.475C151.22,-416.965 180.378,-403.619 204.196,-392.718"/>
<polygon fill="midnightblue" stroke="midnightblue" points="205.725,-395.867 213.362,-388.523 202.812,-389.502 205.725,-395.867"/>
</g>
<!-- Node3 -->
<g id="node3" class="node"><title>Node3</title>
<g id="a_node3"><a doxygen="/local/devel/hpp/install/share/doc/hpp-util/doxygen-html/hpp-util.doxytag:../../hpp-util/doxygen-html/" xlink:href="../../hpp-util/doxygen-html/a00025.html" target="_top" xlink:title="hpp/util/indent.hh">
<polygon fill="white" stroke="black" points="106.5,-174 106.5,-193 197.5,-193 197.5,-174 106.5,-174"/>
<text text-anchor="middle" x="152" y="-181" font-family="Helvetica,sans-Serif" font-size="10.00">hpp/util/indent.hh</text>
</a>
</g>
</g>
<!-- Node2&#45;&gt;Node3 -->
<g id="edge2" class="edge"><title>Node2&#45;&gt;Node3</title>
<path fill="none" stroke="midnightblue" d="M152,-235.475C152,-227.08 152,-213.981 152,-203.163"/>
<polygon fill="midnightblue" stroke="midnightblue" points="155.5,-203.009 152,-193.009 148.5,-203.009 155.5,-203.009"/>
</g>
<!-- Node5&#45;&gt;Node4 -->
<g id="edge10" class="edge"><title>Node5&#45;&gt;Node4</title>
<path fill="none" stroke="midnightblue" d="M392.933,-58.54C328.184,-48.8275 205.662,-30.4492 133.392,-19.6088"/>
<polygon fill="midnightblue" stroke="midnightblue" points="133.516,-16.0883 123.107,-18.0661 132.477,-23.0108 133.516,-16.0883"/>
</g>
<!-- Node6 -->
<g id="node6" class="node"><title>Node6</title>
<polygon fill="white" stroke="#bfbfbf" points="414,-0.5 414,-19.5 458,-19.5 458,-0.5 414,-0.5"/>
<text text-anchor="middle" x="436" y="-7.5" font-family="Helvetica,sans-Serif" font-size="10.00">vector</text>
</g>
<!-- Node5&#45;&gt;Node6 -->
<g id="edge5" class="edge"><title>Node5&#45;&gt;Node6</title>
<path fill="none" stroke="midnightblue" d="M436,-56.083C436,-49.0059 436,-38.8611 436,-29.9865"/>
<polygon fill="midnightblue" stroke="midnightblue" points="439.5,-29.751 436,-19.7511 432.5,-29.7511 439.5,-29.751"/>
</g>
<!-- Node7 -->
<g id="node7" class="node"><title>Node7</title>
<polygon fill="white" stroke="#bfbfbf" points="476.5,-0.5 476.5,-19.5 511.5,-19.5 511.5,-0.5 476.5,-0.5"/>
<text text-anchor="middle" x="494" y="-7.5" font-family="Helvetica,sans-Serif" font-size="10.00">map</text>
</g>
<!-- Node5&#45;&gt;Node7 -->
<g id="edge6" class="edge"><title>Node5&#45;&gt;Node7</title>
<path fill="none" stroke="midnightblue" d="M445.319,-56.324C453.893,-48.3414 466.812,-36.3128 477.188,-26.6529"/>
<polygon fill="midnightblue" stroke="midnightblue" points="479.578,-29.2098 484.512,-19.8339 474.808,-24.0865 479.578,-29.2098"/>
</g>
<!-- Node8 -->
<g id="node8" class="node"><title>Node8</title>
<polygon fill="white" stroke="#bfbfbf" points="718.5,-0.5 718.5,-19.5 761.5,-19.5 761.5,-0.5 718.5,-0.5"/>
<text text-anchor="middle" x="740" y="-7.5" font-family="Helvetica,sans-Serif" font-size="10.00">deque</text>
</g>
<!-- Node5&#45;&gt;Node8 -->
<g id="edge7" class="edge"><title>Node5&#45;&gt;Node8</title>
<path fill="none" stroke="midnightblue" d="M479.233,-57.3205C541.012,-46.3466 653.13,-26.4308 708.007,-16.6829"/>
<polygon fill="midnightblue" stroke="midnightblue" points="708.954,-20.0696 718.188,-14.8746 707.73,-13.1775 708.954,-20.0696"/>
</g>
<!-- Node9 -->
<g id="node9" class="node"><title>Node9</title>
<polygon fill="white" stroke="#bfbfbf" points="184.5,-0.5 184.5,-19.5 213.5,-19.5 213.5,-0.5 184.5,-0.5"/>
<text text-anchor="middle" x="199" y="-7.5" font-family="Helvetica,sans-Serif" font-size="10.00">list</text>
</g>
<!-- Node5&#45;&gt;Node9 -->
<g id="edge8" class="edge"><title>Node5&#45;&gt;Node9</title>
<path fill="none" stroke="midnightblue" d="M392.692,-57.8258C351.436,-50.5539 287.501,-38.1489 223.465,-19.7559"/>
<polygon fill="midnightblue" stroke="midnightblue" points="224.185,-16.3202 213.605,-16.8758 222.223,-23.0394 224.185,-16.3202"/>
</g>
<!-- Node10 -->
<g id="node10" class="node"><title>Node10</title>
<polygon fill="white" stroke="#bfbfbf" points="232,-0.5 232,-19.5 262,-19.5 262,-0.5 232,-0.5"/>
<text text-anchor="middle" x="247" y="-7.5" font-family="Helvetica,sans-Serif" font-size="10.00">set</text>
</g>
<!-- Node5&#45;&gt;Node10 -->
<g id="edge9" class="edge"><title>Node5&#45;&gt;Node10</title>
<path fill="none" stroke="midnightblue" d="M400.959,-56.4459C369.401,-48.521 321.589,-35.9693 271.807,-20.0473"/>
<polygon fill="midnightblue" stroke="midnightblue" points="272.753,-16.6747 262.161,-16.9271 270.598,-23.3349 272.753,-16.6747"/>
</g>
<!-- Node11 -->
<g id="node11" class="node"><title>Node11</title>
<g id="a_node11"><a doxygen="/local/devel/hpp/install/share/doc/hpp-constraints/doxygen-html/hpp-constraints.doxytag:../../hpp-constraints/doxygen-html/" xlink:href="../../hpp-constraints/doxygen-html/a00001.html" target="_top" xlink:title="hpp/constraints/fwd.hh">
<polygon fill="white" stroke="black" points="280,-0.5 280,-19.5 396,-19.5 396,-0.5 280,-0.5"/>
<text text-anchor="middle" x="338" y="-7.5" font-family="Helvetica,sans-Serif" font-size="10.00">hpp/constraints/fwd.hh</text>
</a>
</g>
</g>
<!-- Node5&#45;&gt;Node11 -->
<g id="edge11" class="edge"><title>Node5&#45;&gt;Node11</title>
<path fill="none" stroke="midnightblue" d="M420.255,-56.324C404.681,-47.7428 380.623,-34.486 362.541,-24.5224"/>
<polygon fill="midnightblue" stroke="midnightblue" points="364.154,-21.4152 353.706,-19.6545 360.776,-27.546 364.154,-21.4152"/>
</g>
<!-- Node5&#45;&gt;Node12 -->
<g id="edge12" class="edge"><title>Node5&#45;&gt;Node12</title>
<path fill="none" stroke="midnightblue" d="M479.079,-60.535C572.158,-50.8877 792.164,-28.0848 898.048,-17.1102"/>
<polygon fill="midnightblue" stroke="midnightblue" points="898.652,-20.5665 908.238,-16.0541 897.93,-13.6038 898.652,-20.5665"/>
</g>
<!-- Node13 -->
<g id="node13" class="node"><title>Node13</title>
<polygon fill="white" stroke="#bfbfbf" points="529.5,-0.5 529.5,-19.5 648.5,-19.5 648.5,-0.5 529.5,-0.5"/>
<text text-anchor="middle" x="589" y="-7.5" font-family="Helvetica,sans-Serif" font-size="10.00">hpp/core/deprecated.hh</text>
</g>
<!-- Node5&#45;&gt;Node13 -->
<g id="edge13" class="edge"><title>Node5&#45;&gt;Node13</title>
<path fill="none" stroke="midnightblue" d="M460.243,-56.4435C485.871,-47.3986 526.485,-33.064 555.238,-22.9158"/>
<polygon fill="midnightblue" stroke="midnightblue" points="556.605,-26.1452 564.87,-19.5164 554.275,-19.5442 556.605,-26.1452"/>
</g>
<!-- Node14&#45;&gt;Node2 -->
<g id="edge16" class="edge"><title>Node14&#45;&gt;Node2</title>
<path fill="none" stroke="midnightblue" d="M214.096,-358.393C199.059,-349.854 181.785,-337.587 171,-322 159.179,-304.916 154.7,-281.161 153.01,-264.779"/>
<polygon fill="midnightblue" stroke="midnightblue" points="156.498,-264.485 152.23,-254.788 149.519,-265.03 156.498,-264.485"/>
</g>
<!-- Node14&#45;&gt;Node4 -->
<g id="edge17" class="edge"><title>Node14&#45;&gt;Node4</title>
<path fill="none" stroke="midnightblue" d="M194.503,-358.43C144.947,-340.952 76,-305.877 76,-246 76,-246 76,-246 76,-121 76,-88.948 76,-51.6426 76,-29.7489"/>
<polygon fill="midnightblue" stroke="midnightblue" points="79.5001,-29.5577 76,-19.5578 72.5001,-29.5578 79.5001,-29.5577"/>
</g>
<!-- Node14&#45;&gt;Node5 -->
<g id="edge18" class="edge"><title>Node14&#45;&gt;Node5</title>
<path fill="none" stroke="midnightblue" d="M307.547,-367.403C368.521,-361.038 454.31,-347.702 475,-322 483.64,-311.268 476.186,-304.727 475,-291 471.531,-250.853 448.79,-132.269 439.723,-85.8934"/>
<polygon fill="midnightblue" stroke="midnightblue" points="443.137,-85.1181 437.777,-75.9793 436.268,-86.4661 443.137,-85.1181"/>
</g>
<!-- Node14&#45;&gt;Node12 -->
<g id="edge19" class="edge"><title>Node14&#45;&gt;Node12</title>
<path fill="none" stroke="midnightblue" d="M307.667,-368.731C492.15,-356.965 1014,-317.377 1014,-246 1014,-246 1014,-246 1014,-121 1014,-84.3005 988.679,-47.6567 971.79,-27.2973"/>
<polygon fill="midnightblue" stroke="midnightblue" points="974.348,-24.9037 965.167,-19.6161 969.046,-29.475 974.348,-24.9037"/>
</g>
<!-- Node15 -->
<g id="node15" class="node"><title>Node15</title>
<g id="a_node15"><a xlink:href="a00142.html" target="_top" xlink:title="hpp/core/steering&#45;method\l/fwd.hh">
<polygon fill="white" stroke="black" points="180.5,-291.5 180.5,-321.5 307.5,-321.5 307.5,-291.5 180.5,-291.5"/>
<text text-anchor="start" x="188.5" y="-309.5" font-family="Helvetica,sans-Serif" font-size="10.00">hpp/core/steering&#45;method</text>
<text text-anchor="middle" x="244" y="-298.5" font-family="Helvetica,sans-Serif" font-size="10.00">/fwd.hh</text>
</a>
</g>
</g>
<!-- Node14&#45;&gt;Node15 -->
<g id="edge20" class="edge"><title>Node14&#45;&gt;Node15</title>
<path fill="none" stroke="midnightblue" d="M244,-358.396C244,-350.645 244,-340.812 244,-331.86"/>
<polygon fill="midnightblue" stroke="midnightblue" points="247.5,-331.576 244,-321.577 240.5,-331.577 247.5,-331.576"/>
</g>
<!-- Node16 -->
<g id="node16" class="node"><title>Node16</title>
<g id="a_node16"><a xlink:href="a00203.html" target="_top" xlink:title="hpp/core/steering&#45;method.hh">
<polygon fill="white" stroke="black" points="326,-297 326,-316 466,-316 466,-297 326,-297"/>
<text text-anchor="middle" x="396" y="-304" font-family="Helvetica,sans-Serif" font-size="10.00">hpp/core/steering&#45;method.hh</text>
</a>
</g>
</g>
<!-- Node14&#45;&gt;Node16 -->
<g id="edge21" class="edge"><title>Node14&#45;&gt;Node16</title>
<path fill="none" stroke="midnightblue" d="M276.982,-358.396C303.77,-346.941 341.19,-330.938 366.881,-319.952"/>
<polygon fill="midnightblue" stroke="midnightblue" points="368.288,-323.157 376.107,-316.007 365.536,-316.721 368.288,-323.157"/>
</g>
<!-- Node16&#45;&gt;Node2 -->
<g id="edge22" class="edge"><title>Node16&#45;&gt;Node2</title>
<path fill="none" stroke="midnightblue" d="M361.041,-296.975C317.827,-286.437 244.213,-268.486 196.869,-256.941"/>
<polygon fill="midnightblue" stroke="midnightblue" points="197.439,-253.478 186.894,-254.509 195.781,-260.279 197.439,-253.478"/>
</g>
<!-- Node16&#45;&gt;Node5 -->
<g id="edge23" class="edge"><title>Node16&#45;&gt;Node5</title>
<path fill="none" stroke="midnightblue" d="M396.398,-296.895C397.804,-269.526 403.386,-182.163 420,-112 422.125,-103.024 425.425,-93.3508 428.477,-85.2819"/>
<polygon fill="midnightblue" stroke="midnightblue" points="431.807,-86.3785 432.227,-75.792 425.297,-83.8061 431.807,-86.3785"/>
</g>
<!-- Node17 -->
<g id="node17" class="node"><title>Node17</title>
<g id="a_node17"><a xlink:href="a00174.html" target="_top" xlink:title="hpp/core/path.hh">
<polygon fill="white" stroke="black" points="557.5,-235.5 557.5,-254.5 646.5,-254.5 646.5,-235.5 557.5,-235.5"/>
<text text-anchor="middle" x="602" y="-242.5" font-family="Helvetica,sans-Serif" font-size="10.00">hpp/core/path.hh</text>
</a>
</g>
</g>
<!-- Node16&#45;&gt;Node17 -->
<g id="edge24" class="edge"><title>Node16&#45;&gt;Node17</title>
<path fill="none" stroke="midnightblue" d="M425.515,-296.975C461.616,-286.548 522.848,-268.862 562.854,-257.307"/>
<polygon fill="midnightblue" stroke="midnightblue" points="563.904,-260.647 572.54,-254.509 561.961,-253.922 563.904,-260.647"/>
</g>
<!-- Node23 -->
<g id="node23" class="node"><title>Node23</title>
<g id="a_node23"><a xlink:href="a00184.html" target="_top" xlink:title="hpp/core/projection\l&#45;error.hh">
<polygon fill="white" stroke="black" points="268.5,-168.5 268.5,-198.5 367.5,-198.5 367.5,-168.5 268.5,-168.5"/>
<text text-anchor="start" x="276.5" y="-186.5" font-family="Helvetica,sans-Serif" font-size="10.00">hpp/core/projection</text>
<text text-anchor="middle" x="318" y="-175.5" font-family="Helvetica,sans-Serif" font-size="10.00">&#45;error.hh</text>
</a>
</g>
</g>
<!-- Node16&#45;&gt;Node23 -->
<g id="edge41" class="edge"><title>Node16&#45;&gt;Node23</title>
<path fill="none" stroke="midnightblue" d="M390.39,-296.798C378.402,-278.201 349.959,-234.077 332.507,-207.005"/>
<polygon fill="midnightblue" stroke="midnightblue" points="335.41,-205.048 327.05,-198.539 329.526,-208.841 335.41,-205.048"/>
</g>
<!-- Node17&#45;&gt;Node5 -->
<g id="edge27" class="edge"><title>Node17&#45;&gt;Node5</title>
<path fill="none" stroke="midnightblue" d="M564.529,-235.446C542.277,-228.726 514.822,-217.355 496,-199 478.836,-182.263 453.999,-117.361 442.408,-85.2301"/>
<polygon fill="midnightblue" stroke="midnightblue" points="445.668,-83.9522 439.015,-75.7068 439.074,-86.3015 445.668,-83.9522"/>
</g>
<!-- Node17&#45;&gt;Node12 -->
<g id="edge28" class="edge"><title>Node17&#45;&gt;Node12</title>
<path fill="none" stroke="midnightblue" d="M646.653,-241.589C737.452,-236.229 936.771,-221.955 957,-199 999.227,-151.082 976.898,-66.5735 964.032,-29.4111"/>
<polygon fill="midnightblue" stroke="midnightblue" points="967.272,-28.0769 960.57,-19.8707 960.692,-30.4649 967.272,-28.0769"/>
</g>
<!-- Node17&#45;&gt;Node13 -->
<g id="edge35" class="edge"><title>Node17&#45;&gt;Node13</title>
<path fill="none" stroke="midnightblue" d="M575.789,-235.414C559.15,-228.445 538.943,-216.809 529,-199 496.345,-140.509 548.574,-61.6951 575.071,-27.7238"/>
<polygon fill="midnightblue" stroke="midnightblue" points="577.951,-29.7275 581.479,-19.7374 572.491,-25.3467 577.951,-29.7275"/>
</g>
<!-- Node18 -->
<g id="node18" class="node"><title>Node18</title>
<polygon fill="white" stroke="#bfbfbf" points="538,-174 538,-193 666,-193 666,-174 538,-174"/>
<text text-anchor="middle" x="602" y="-181" font-family="Helvetica,sans-Serif" font-size="10.00">boost/concept_check.hpp</text>
</g>
<!-- Node17&#45;&gt;Node18 -->
<g id="edge25" class="edge"><title>Node17&#45;&gt;Node18</title>
<path fill="none" stroke="midnightblue" d="M602,-235.475C602,-227.08 602,-213.981 602,-203.163"/>
<polygon fill="midnightblue" stroke="midnightblue" points="605.5,-203.009 602,-193.009 598.5,-203.009 605.5,-203.009"/>
</g>
<!-- Node19 -->
<g id="node19" class="node"><title>Node19</title>
<g id="a_node19"><a doxygen="/local/devel/hpp/install/share/doc/hpp-util/doxygen-html/hpp-util.doxytag:../../hpp-util/doxygen-html/" xlink:href="../../hpp-util/doxygen-html/a00022.html" target="_top" xlink:title="hpp/util/exception.hh">
<polygon fill="white" stroke="black" points="684.5,-174 684.5,-193 791.5,-193 791.5,-174 684.5,-174"/>
<text text-anchor="middle" x="738" y="-181" font-family="Helvetica,sans-Serif" font-size="10.00">hpp/util/exception.hh</text>
</a>
</g>
</g>
<!-- Node17&#45;&gt;Node19 -->
<g id="edge26" class="edge"><title>Node17&#45;&gt;Node19</title>
<path fill="none" stroke="midnightblue" d="M621.485,-235.475C644.41,-225.445 682.685,-208.7 709.075,-197.155"/>
<polygon fill="midnightblue" stroke="midnightblue" points="710.792,-200.224 718.551,-193.009 707.986,-193.811 710.792,-200.224"/>
</g>
<!-- Node20 -->
<g id="node20" class="node"><title>Node20</title>
<g id="a_node20"><a xlink:href="a00123.html" target="_top" xlink:title="hpp/core/constraint\l&#45;set.hh">
<polygon fill="white" stroke="black" points="848,-168.5 848,-198.5 948,-198.5 948,-168.5 848,-168.5"/>
<text text-anchor="start" x="856" y="-186.5" font-family="Helvetica,sans-Serif" font-size="10.00">hpp/core/constraint</text>
<text text-anchor="middle" x="898" y="-175.5" font-family="Helvetica,sans-Serif" font-size="10.00">&#45;set.hh</text>
</a>
</g>
</g>
<!-- Node17&#45;&gt;Node20 -->
<g id="edge29" class="edge"><title>Node17&#45;&gt;Node20</title>
<path fill="none" stroke="midnightblue" d="M646.559,-235.784C693.328,-227.061 768.955,-212.673 834,-199 835.254,-198.736 836.522,-198.468 837.799,-198.195"/>
<polygon fill="midnightblue" stroke="midnightblue" points="838.691,-201.584 847.724,-196.046 837.21,-194.742 838.691,-201.584"/>
</g>
<!-- Node17&#45;&gt;Node23 -->
<g id="edge36" class="edge"><title>Node17&#45;&gt;Node23</title>
<path fill="none" stroke="midnightblue" d="M561.31,-235.475C513.228,-225.402 432.811,-208.554 377.681,-197.004"/>
<polygon fill="midnightblue" stroke="midnightblue" points="378.2,-193.536 367.695,-194.911 376.765,-200.388 378.2,-193.536"/>
</g>
<!-- Node25 -->
<g id="node25" class="node"><title>Node25</title>
<g id="a_node25"><a xlink:href="a00208.html" target="_top" xlink:title="hpp/core/time&#45;parameterization.hh">
<polygon fill="white" stroke="black" points="600,-112.5 600,-131.5 764,-131.5 764,-112.5 600,-112.5"/>
<text text-anchor="middle" x="682" y="-119.5" font-family="Helvetica,sans-Serif" font-size="10.00">hpp/core/time&#45;parameterization.hh</text>
</a>
</g>
</g>
<!-- Node17&#45;&gt;Node25 -->
<g id="edge38" class="edge"><title>Node17&#45;&gt;Node25</title>
<path fill="none" stroke="midnightblue" d="M646.771,-240.202C699.17,-234.721 781.197,-222.556 800,-199 808.595,-188.232 807.816,-179.346 800,-168 788.772,-151.702 770.792,-141.303 752.217,-134.669"/>
<polygon fill="midnightblue" stroke="midnightblue" points="753.073,-131.267 742.481,-131.531 750.926,-137.93 753.073,-131.267"/>
</g>
<!-- Node20&#45;&gt;Node8 -->
<g id="edge30" class="edge"><title>Node20&#45;&gt;Node8</title>
<path fill="none" stroke="midnightblue" d="M871.522,-168.377C855.998,-159.292 836.628,-146.496 822,-132 789.84,-100.131 762.677,-53.9104 749.167,-28.8224"/>
<polygon fill="midnightblue" stroke="midnightblue" points="752.144,-26.9624 744.384,-19.749 745.951,-30.2272 752.144,-26.9624"/>
</g>
<!-- Node21 -->
<g id="node21" class="node"><title>Node21</title>
<g id="a_node21"><a xlink:href="a00124.html" target="_top" xlink:title="hpp/core/constraint.hh">
<polygon fill="white" stroke="black" points="831.5,-112.5 831.5,-131.5 944.5,-131.5 944.5,-112.5 831.5,-112.5"/>
<text text-anchor="middle" x="888" y="-119.5" font-family="Helvetica,sans-Serif" font-size="10.00">hpp/core/constraint.hh</text>
</a>
</g>
</g>
<!-- Node20&#45;&gt;Node21 -->
<g id="edge31" class="edge"><title>Node20&#45;&gt;Node21</title>
<path fill="none" stroke="midnightblue" d="M895.63,-168.399C894.282,-160.377 892.577,-150.233 891.121,-141.569"/>
<polygon fill="midnightblue" stroke="midnightblue" points="894.564,-140.939 889.455,-131.658 887.661,-142.1 894.564,-140.939"/>
</g>
<!-- Node21&#45;&gt;Node5 -->
<g id="edge34" class="edge"><title>Node21&#45;&gt;Node5</title>
<path fill="none" stroke="midnightblue" d="M831.212,-114.216C743.15,-103.695 574.888,-83.5928 489.117,-73.3458"/>
<polygon fill="midnightblue" stroke="midnightblue" points="489.422,-69.8574 479.077,-72.1464 488.591,-76.808 489.422,-69.8574"/>
</g>
<!-- Node21&#45;&gt;Node12 -->
<g id="edge33" class="edge"><title>Node21&#45;&gt;Node12</title>
<path fill="none" stroke="midnightblue" d="M894.374,-112.166C900.784,-103.186 910.858,-88.8108 919,-76 929.057,-60.1756 939.774,-41.6781 947.254,-28.4708"/>
<polygon fill="midnightblue" stroke="midnightblue" points="950.428,-29.9663 952.278,-19.5343 944.326,-26.5357 950.428,-29.9663"/>
</g>
<!-- Node22 -->
<g id="node22" class="node"><title>Node22</title>
<polygon fill="white" stroke="#bfbfbf" points="858,-56.5 858,-75.5 910,-75.5 910,-56.5 858,-56.5"/>
<text text-anchor="middle" x="884" y="-63.5" font-family="Helvetica,sans-Serif" font-size="10.00">ostream</text>
</g>
<!-- Node21&#45;&gt;Node22 -->
<g id="edge32" class="edge"><title>Node21&#45;&gt;Node22</title>
<path fill="none" stroke="midnightblue" d="M887.339,-112.083C886.815,-105.006 886.064,-94.8611 885.406,-85.9865"/>
<polygon fill="midnightblue" stroke="midnightblue" points="888.877,-85.4652 884.648,-75.7511 881.897,-85.9823 888.877,-85.4652"/>
</g>
<!-- Node24 -->
<g id="node24" class="node"><title>Node24</title>
<polygon fill="white" stroke="#bfbfbf" points="288.5,-112.5 288.5,-131.5 347.5,-131.5 347.5,-112.5 288.5,-112.5"/>
<text text-anchor="middle" x="318" y="-119.5" font-family="Helvetica,sans-Serif" font-size="10.00">exception</text>
</g>
<!-- Node23&#45;&gt;Node24 -->
<g id="edge37" class="edge"><title>Node23&#45;&gt;Node24</title>
<path fill="none" stroke="midnightblue" d="M318,-168.399C318,-160.466 318,-150.458 318,-141.858"/>
<polygon fill="midnightblue" stroke="midnightblue" points="321.5,-141.658 318,-131.658 314.5,-141.658 321.5,-141.658"/>
</g>
<!-- Node25&#45;&gt;Node5 -->
<g id="edge39" class="edge"><title>Node25&#45;&gt;Node5</title>
<path fill="none" stroke="midnightblue" d="M643.021,-112.444C600.106,-103.023 531.054,-87.8656 484.631,-77.6752"/>
<polygon fill="midnightblue" stroke="midnightblue" points="485.315,-74.242 474.797,-75.5164 483.814,-81.0792 485.315,-74.242"/>
</g>
<!-- Node25&#45;&gt;Node12 -->
<g id="edge40" class="edge"><title>Node25&#45;&gt;Node12</title>
<path fill="none" stroke="midnightblue" d="M703.579,-112.368C752.074,-92.9703 869.826,-45.8696 926.082,-23.3673"/>
<polygon fill="midnightblue" stroke="midnightblue" points="927.537,-26.5551 935.521,-19.5914 924.937,-20.0557 927.537,-26.5551"/>
</g>
</g>
</svg>
