<?xml version="1.0" encoding="UTF-8" standalone="no"?>
<!DOCTYPE svg PUBLIC "-//W3C//DTD SVG 1.1//EN"
 "http://www.w3.org/Graphics/SVG/1.1/DTD/svg11.dtd">
<!-- Generated by graphviz version 2.38.0 (20140413.2041)
 -->
<!-- Title: steering&#45;method.hh Pages: 1 -->
<svg width="749pt" height="218pt"
 viewBox="0.00 0.00 749.00 218.00" xmlns="http://www.w3.org/2000/svg" xmlns:xlink="http://www.w3.org/1999/xlink">
<g id="graph0" class="graph" transform="scale(1 1) rotate(0) translate(4 214)">
<title>steering&#45;method.hh</title>
<polygon fill="white" stroke="none" points="-4,4 -4,-214 745,-214 745,4 -4,4"/>
<!-- Node1 -->
<g id="node1" class="node"><title>Node1</title>
<polygon fill="#bfbfbf" stroke="black" points="289,-190.5 289,-209.5 389,-209.5 389,-190.5 289,-190.5"/>
<text text-anchor="middle" x="339" y="-197.5" font-family="Helvetica,sans-Serif" font-size="10.00">steering&#45;method.hh</text>
</g>
<!-- Node2 -->
<g id="node2" class="node"><title>Node2</title>
<g id="a_node2"><a xlink:href="a00181.html" target="_top" xlink:title="problem.hh">
<polygon fill="white" stroke="black" points="141.5,-129 141.5,-148 206.5,-148 206.5,-129 141.5,-129"/>
<text text-anchor="middle" x="174" y="-136" font-family="Helvetica,sans-Serif" font-size="10.00">problem.hh</text>
</a>
</g>
</g>
<!-- Node1&#45;&gt;Node2 -->
<g id="edge1" class="edge"><title>Node1&#45;&gt;Node2</title>
<path fill="none" stroke="midnightblue" d="M305.952,-187.083C273.879,-175.517 226.002,-158.252 197.597,-148.009"/>
<polygon fill="midnightblue" stroke="midnightblue" points="304.765,-190.375 315.36,-190.475 307.14,-183.79 304.765,-190.375"/>
</g>
<!-- Node3 -->
<g id="node3" class="node"><title>Node3</title>
<g id="a_node3"><a xlink:href="a00205.html" target="_top" xlink:title="straight.hh">
<polygon fill="white" stroke="black" points="16,-62 16,-81 78,-81 78,-62 16,-62"/>
<text text-anchor="middle" x="47" y="-69" font-family="Helvetica,sans-Serif" font-size="10.00">straight.hh</text>
</a>
</g>
</g>
<!-- Node1&#45;&gt;Node3 -->
<g id="edge6" class="edge"><title>Node1&#45;&gt;Node3</title>
<path fill="none" stroke="midnightblue" d="M278.666,-194.638C235.688,-189.5 177.681,-178.32 132,-154 96.9904,-135.361 66.2284,-98.1681 53.3816,-81.2459"/>
<polygon fill="midnightblue" stroke="midnightblue" points="278.372,-198.127 288.699,-195.761 279.15,-191.17 278.372,-198.127"/>
</g>
<!-- Node6 -->
<g id="node6" class="node"><title>Node6</title>
<g id="a_node6"><a xlink:href="a00149.html" target="_top" xlink:title="hermite.hh">
<polygon fill="white" stroke="black" points="188,-62 188,-81 250,-81 250,-62 188,-62"/>
<text text-anchor="middle" x="219" y="-69" font-family="Helvetica,sans-Serif" font-size="10.00">hermite.hh</text>
</a>
</g>
</g>
<!-- Node1&#45;&gt;Node6 -->
<g id="edge15" class="edge"><title>Node1&#45;&gt;Node6</title>
<path fill="none" stroke="midnightblue" d="M323.656,-182.825C297.997,-155.776 247.232,-102.262 227.306,-81.2557"/>
<polygon fill="midnightblue" stroke="midnightblue" points="321.33,-185.459 330.752,-190.305 326.409,-180.641 321.33,-185.459"/>
</g>
<!-- Node7 -->
<g id="node7" class="node"><title>Node7</title>
<g id="a_node7"><a xlink:href="a00201.html" target="_top" xlink:title="spline.hh">
<polygon fill="white" stroke="black" points="311,-129 311,-148 367,-148 367,-129 311,-129"/>
<text text-anchor="middle" x="339" y="-136" font-family="Helvetica,sans-Serif" font-size="10.00">spline.hh</text>
</a>
</g>
</g>
<!-- Node1&#45;&gt;Node7 -->
<g id="edge7" class="edge"><title>Node1&#45;&gt;Node7</title>
<path fill="none" stroke="midnightblue" d="M339,-180.317C339,-169.496 339,-156.398 339,-148.009"/>
<polygon fill="midnightblue" stroke="midnightblue" points="335.5,-180.475 339,-190.475 342.5,-180.475 335.5,-180.475"/>
</g>
<!-- Node10 -->
<g id="node10" class="node"><title>Node10</title>
<g id="a_node10"><a xlink:href="a00112.html" target="_top" xlink:title="car&#45;like.hh">
<polygon fill="white" stroke="black" points="417,-129 417,-148 479,-148 479,-129 417,-129"/>
<text text-anchor="middle" x="448" y="-136" font-family="Helvetica,sans-Serif" font-size="10.00">car&#45;like.hh</text>
</a>
</g>
</g>
<!-- Node1&#45;&gt;Node10 -->
<g id="edge11" class="edge"><title>Node1&#45;&gt;Node10</title>
<path fill="none" stroke="midnightblue" d="M363.628,-185.556C384.722,-174.042 414.456,-157.811 432.412,-148.009"/>
<polygon fill="midnightblue" stroke="midnightblue" points="361.717,-182.612 354.617,-190.475 365.071,-188.756 361.717,-182.612"/>
</g>
<!-- Node14 -->
<g id="node14" class="node"><title>Node14</title>
<g id="a_node14"><a xlink:href="a00152.html" target="_top" xlink:title="interpolated&#45;steering\l&#45;method.hh">
<polygon fill="white" stroke="black" points="497,-123.5 497,-153.5 601,-153.5 601,-123.5 497,-123.5"/>
<text text-anchor="start" x="505" y="-141.5" font-family="Helvetica,sans-Serif" font-size="10.00">interpolated&#45;steering</text>
<text text-anchor="middle" x="549" y="-130.5" font-family="Helvetica,sans-Serif" font-size="10.00">&#45;method.hh</text>
</a>
</g>
</g>
<!-- Node1&#45;&gt;Node14 -->
<g id="edge16" class="edge"><title>Node1&#45;&gt;Node14</title>
<path fill="none" stroke="midnightblue" d="M378.761,-187.734C413.035,-178.023 462.668,-163.961 499.507,-153.523"/>
<polygon fill="midnightblue" stroke="midnightblue" points="377.755,-184.382 369.088,-190.475 379.663,-191.116 377.755,-184.382"/>
</g>
<!-- Node15 -->
<g id="node15" class="node"><title>Node15</title>
<g id="a_node15"><a xlink:href="a00202.html" target="_top" xlink:title="steering&#45;kinodynamic.hh">
<polygon fill="white" stroke="black" points="619,-129 619,-148 741,-148 741,-129 619,-129"/>
<text text-anchor="middle" x="680" y="-136" font-family="Helvetica,sans-Serif" font-size="10.00">steering&#45;kinodynamic.hh</text>
</a>
</g>
</g>
<!-- Node1&#45;&gt;Node15 -->
<g id="edge17" class="edge"><title>Node1&#45;&gt;Node15</title>
<path fill="none" stroke="midnightblue" d="M398.978,-189.741C453.972,-181.085 537.615,-167.501 610,-154 619.76,-152.18 630.256,-150.081 640.075,-148.056"/>
<polygon fill="midnightblue" stroke="midnightblue" points="398.388,-186.29 389.052,-191.299 399.474,-193.206 398.388,-186.29"/>
</g>
<!-- Node2&#45;&gt;Node3 -->
<g id="edge2" class="edge"><title>Node2&#45;&gt;Node3</title>
<path fill="none" stroke="midnightblue" d="M148.158,-124.274C123.004,-111.4 85.5076,-92.2086 63.9344,-81.1672"/>
<polygon fill="midnightblue" stroke="midnightblue" points="146.639,-127.428 157.135,-128.869 149.828,-121.197 146.639,-127.428"/>
</g>
<!-- Node5 -->
<g id="node5" class="node"><title>Node5</title>
<g id="a_node5"><a xlink:href="a00129.html" target="_top" xlink:title="dichotomy.hh">
<polygon fill="white" stroke="black" points="95.5,-62 95.5,-81 170.5,-81 170.5,-62 95.5,-62"/>
<text text-anchor="middle" x="133" y="-69" font-family="Helvetica,sans-Serif" font-size="10.00">dichotomy.hh</text>
</a>
</g>
</g>
<!-- Node2&#45;&gt;Node5 -->
<g id="edge4" class="edge"><title>Node2&#45;&gt;Node5</title>
<path fill="none" stroke="midnightblue" d="M162.983,-120.035C155.045,-107.45 144.674,-91.0072 138.442,-81.1273"/>
<polygon fill="midnightblue" stroke="midnightblue" points="160.175,-122.143 168.471,-128.734 166.096,-118.409 160.175,-122.143"/>
</g>
<!-- Node2&#45;&gt;Node6 -->
<g id="edge5" class="edge"><title>Node2&#45;&gt;Node6</title>
<path fill="none" stroke="midnightblue" d="M185.836,-120.404C194.58,-107.773 206.12,-91.1041 213.027,-81.1273"/>
<polygon fill="midnightblue" stroke="midnightblue" points="182.883,-118.52 180.069,-128.734 188.639,-122.504 182.883,-118.52"/>
</g>
<!-- Node4 -->
<g id="node4" class="node"><title>Node4</title>
<g id="a_node4"><a xlink:href="a00147.html" target="_top" xlink:title="gradient&#45;based.hh">
<polygon fill="white" stroke="black" points="0,-0.5 0,-19.5 94,-19.5 94,-0.5 0,-0.5"/>
<text text-anchor="middle" x="47" y="-7.5" font-family="Helvetica,sans-Serif" font-size="10.00">gradient&#45;based.hh</text>
</a>
</g>
</g>
<!-- Node3&#45;&gt;Node4 -->
<g id="edge3" class="edge"><title>Node3&#45;&gt;Node4</title>
<path fill="none" stroke="midnightblue" d="M47,-51.8165C47,-40.9962 47,-27.898 47,-19.5091"/>
<polygon fill="midnightblue" stroke="midnightblue" points="43.5001,-51.9751 47,-61.9751 50.5001,-51.9751 43.5001,-51.9751"/>
</g>
<!-- Node8 -->
<g id="node8" class="node"><title>Node8</title>
<g id="a_node8"><a xlink:href="a00198.html" target="_top" xlink:title="spline&#45;gradient&#45;based\l&#45;abstract.hh">
<polygon fill="white" stroke="black" points="268.5,-56.5 268.5,-86.5 377.5,-86.5 377.5,-56.5 268.5,-56.5"/>
<text text-anchor="start" x="276.5" y="-74.5" font-family="Helvetica,sans-Serif" font-size="10.00">spline&#45;gradient&#45;based</text>
<text text-anchor="middle" x="323" y="-63.5" font-family="Helvetica,sans-Serif" font-size="10.00">&#45;abstract.hh</text>
</a>
</g>
</g>
<!-- Node7&#45;&gt;Node8 -->
<g id="edge8" class="edge"><title>Node7&#45;&gt;Node8</title>
<path fill="none" stroke="midnightblue" d="M334.382,-118.739C331.858,-108.487 328.785,-96.0011 326.468,-86.589"/>
<polygon fill="midnightblue" stroke="midnightblue" points="331.053,-119.86 336.842,-128.734 337.85,-118.187 331.053,-119.86"/>
</g>
<!-- Node9 -->
<g id="node9" class="node"><title>Node9</title>
<g id="a_node9"><a xlink:href="a00199.html" target="_top" xlink:title="spline&#45;gradient&#45;based.hh">
<polygon fill="white" stroke="black" points="303,-0.5 303,-19.5 425,-19.5 425,-0.5 303,-0.5"/>
<text text-anchor="middle" x="364" y="-7.5" font-family="Helvetica,sans-Serif" font-size="10.00">spline&#45;gradient&#45;based.hh</text>
</a>
</g>
</g>
<!-- Node7&#45;&gt;Node9 -->
<g id="edge10" class="edge"><title>Node7&#45;&gt;Node9</title>
<path fill="none" stroke="midnightblue" d="M359.101,-122.236C369.245,-113.234 380.534,-100.896 386,-87 395.352,-63.224 379.501,-33.8776 370.133,-19.6065"/>
<polygon fill="midnightblue" stroke="midnightblue" points="356.781,-119.613 351.344,-128.707 361.265,-124.989 356.781,-119.613"/>
</g>
<!-- Node8&#45;&gt;Node9 -->
<g id="edge9" class="edge"><title>Node8&#45;&gt;Node9</title>
<path fill="none" stroke="midnightblue" d="M338.432,-48.1041C345.266,-38.1868 352.902,-27.1062 358.034,-19.6578"/>
<polygon fill="midnightblue" stroke="midnightblue" points="335.509,-46.179 332.716,-56.3993 341.273,-50.1509 335.509,-46.179"/>
</g>
<!-- Node11 -->
<g id="node11" class="node"><title>Node11</title>
<g id="a_node11"><a xlink:href="a00137.html" target="_top" xlink:title="dubins.hh">
<polygon fill="white" stroke="black" points="434.5,-62 434.5,-81 493.5,-81 493.5,-62 434.5,-62"/>
<text text-anchor="middle" x="464" y="-69" font-family="Helvetica,sans-Serif" font-size="10.00">dubins.hh</text>
</a>
</g>
</g>
<!-- Node10&#45;&gt;Node11 -->
<g id="edge12" class="edge"><title>Node10&#45;&gt;Node11</title>
<path fill="none" stroke="midnightblue" d="M452.575,-118.915C455.634,-106.488 459.516,-90.7166 461.876,-81.1273"/>
<polygon fill="midnightblue" stroke="midnightblue" points="449.15,-118.187 450.158,-128.734 455.947,-119.86 449.15,-118.187"/>
</g>
<!-- Node12 -->
<g id="node12" class="node"><title>Node12</title>
<g id="a_node12"><a xlink:href="a00190.html" target="_top" xlink:title="reeds&#45;shepp.hh">
<polygon fill="white" stroke="black" points="511.5,-62 511.5,-81 594.5,-81 594.5,-62 511.5,-62"/>
<text text-anchor="middle" x="553" y="-69" font-family="Helvetica,sans-Serif" font-size="10.00">reeds&#45;shepp.hh</text>
</a>
</g>
</g>
<!-- Node10&#45;&gt;Node12 -->
<g id="edge13" class="edge"><title>Node10&#45;&gt;Node12</title>
<path fill="none" stroke="midnightblue" d="M470.709,-123.442C491.503,-110.57 521.617,-91.9274 539.064,-81.1273"/>
<polygon fill="midnightblue" stroke="midnightblue" points="468.821,-120.494 462.161,-128.734 472.506,-126.446 468.821,-120.494"/>
</g>
<!-- Node13 -->
<g id="node13" class="node"><title>Node13</title>
<g id="a_node13"><a xlink:href="a00196.html" target="_top" xlink:title="snibud.hh">
<polygon fill="white" stroke="black" points="612.5,-62 612.5,-81 671.5,-81 671.5,-62 612.5,-62"/>
<text text-anchor="middle" x="642" y="-69" font-family="Helvetica,sans-Serif" font-size="10.00">snibud.hh</text>
</a>
</g>
</g>
<!-- Node10&#45;&gt;Node13 -->
<g id="edge14" class="edge"><title>Node10&#45;&gt;Node13</title>
<path fill="none" stroke="midnightblue" d="M480.673,-125.515C483.148,-124.65 485.611,-123.803 488,-123 539.167,-105.797 552.979,-104.631 604,-87 609.339,-85.1549 615.052,-83.047 620.384,-81.0207"/>
<polygon fill="midnightblue" stroke="midnightblue" points="479.452,-122.234 471.202,-128.881 481.797,-128.83 479.452,-122.234"/>
</g>
</g>
</svg>
