<?xml version="1.0" encoding="UTF-8" standalone="no"?>
<!DOCTYPE svg PUBLIC "-//W3C//DTD SVG 1.1//EN"
 "http://www.w3.org/Graphics/SVG/1.1/DTD/svg11.dtd">
<!-- Generated by graphviz version 2.38.0 (20140413.2041)
 -->
<!-- Title: path&#45;projector.hh Pages: 1 -->
<svg width="378pt" height="84pt"
 viewBox="0.00 0.00 378.00 84.00" xmlns="http://www.w3.org/2000/svg" xmlns:xlink="http://www.w3.org/1999/xlink">
<g id="graph0" class="graph" transform="scale(1 1) rotate(0) translate(4 80)">
<title>path&#45;projector.hh</title>
<polygon fill="white" stroke="none" points="-4,4 -4,-80 374,-80 374,4 -4,4"/>
<!-- Node1 -->
<g id="node1" class="node"><title>Node1</title>
<polygon fill="#bfbfbf" stroke="black" points="119,-56.5 119,-75.5 208,-75.5 208,-56.5 119,-56.5"/>
<text text-anchor="middle" x="163.5" y="-63.5" font-family="Helvetica,sans-Serif" font-size="10.00">path&#45;projector.hh</text>
</g>
<!-- Node2 -->
<g id="node2" class="node"><title>Node2</title>
<g id="a_node2"><a xlink:href="a00129.html" target="_top" xlink:title="dichotomy.hh">
<polygon fill="white" stroke="black" points="0,-0.5 0,-19.5 75,-19.5 75,-0.5 0,-0.5"/>
<text text-anchor="middle" x="37.5" y="-7.5" font-family="Helvetica,sans-Serif" font-size="10.00">dichotomy.hh</text>
</a>
</g>
</g>
<!-- Node1&#45;&gt;Node2 -->
<g id="edge1" class="edge"><title>Node1&#45;&gt;Node2</title>
<path fill="none" stroke="midnightblue" d="M134.34,-52.503C110.719,-42.3795 78.072,-28.388 57.3717,-19.5164"/>
<polygon fill="midnightblue" stroke="midnightblue" points="132.965,-55.7213 143.535,-56.4435 135.722,-49.2873 132.965,-55.7213"/>
</g>
<!-- Node3 -->
<g id="node3" class="node"><title>Node3</title>
<g id="a_node3"><a xlink:href="a00145.html" target="_top" xlink:title="global.hh">
<polygon fill="white" stroke="black" points="92.5,-0.5 92.5,-19.5 148.5,-19.5 148.5,-0.5 92.5,-0.5"/>
<text text-anchor="middle" x="120.5" y="-7.5" font-family="Helvetica,sans-Serif" font-size="10.00">global.hh</text>
</a>
</g>
</g>
<!-- Node1&#45;&gt;Node3 -->
<g id="edge2" class="edge"><title>Node1&#45;&gt;Node3</title>
<path fill="none" stroke="midnightblue" d="M150.078,-48.144C142.586,-38.7357 133.563,-27.4046 127.468,-19.7511"/>
<polygon fill="midnightblue" stroke="midnightblue" points="147.432,-50.4404 156.399,-56.083 152.908,-46.0799 147.432,-50.4404"/>
</g>
<!-- Node4 -->
<g id="node4" class="node"><title>Node4</title>
<g id="a_node4"><a xlink:href="a00183.html" target="_top" xlink:title="progressive.hh">
<polygon fill="white" stroke="black" points="166.5,-0.5 166.5,-19.5 246.5,-19.5 246.5,-0.5 166.5,-0.5"/>
<text text-anchor="middle" x="206.5" y="-7.5" font-family="Helvetica,sans-Serif" font-size="10.00">progressive.hh</text>
</a>
</g>
</g>
<!-- Node1&#45;&gt;Node4 -->
<g id="edge3" class="edge"><title>Node1&#45;&gt;Node4</title>
<path fill="none" stroke="midnightblue" d="M176.922,-48.144C184.414,-38.7357 193.437,-27.4046 199.532,-19.7511"/>
<polygon fill="midnightblue" stroke="midnightblue" points="174.092,-46.0799 170.601,-56.083 179.568,-50.4404 174.092,-46.0799"/>
</g>
<!-- Node5 -->
<g id="node5" class="node"><title>Node5</title>
<g id="a_node5"><a xlink:href="a00187.html" target="_top" xlink:title="recursive&#45;hermite.hh">
<polygon fill="white" stroke="black" points="265,-0.5 265,-19.5 370,-19.5 370,-0.5 265,-0.5"/>
<text text-anchor="middle" x="317.5" y="-7.5" font-family="Helvetica,sans-Serif" font-size="10.00">recursive&#45;hermite.hh</text>
</a>
</g>
</g>
<!-- Node1&#45;&gt;Node5 -->
<g id="edge4" class="edge"><title>Node1&#45;&gt;Node5</title>
<path fill="none" stroke="midnightblue" d="M197.611,-53.0392C226.587,-42.8786 267.462,-28.5457 293.212,-19.5164"/>
<polygon fill="midnightblue" stroke="midnightblue" points="196.18,-49.8317 187.902,-56.4435 198.497,-56.4373 196.18,-49.8317"/>
</g>
</g>
</svg>
