<?xml version="1.0" encoding="UTF-8" standalone="no"?>
<!DOCTYPE svg PUBLIC "-//W3C//DTD SVG 1.1//EN"
 "http://www.w3.org/Graphics/SVG/1.1/DTD/svg11.dtd">
<!-- Generated by graphviz version 2.38.0 (20140413.2041)
 -->
<!-- Title: plan&#45;and&#45;optimize.hh Pages: 1 -->
<svg width="759pt" height="196pt"
 viewBox="0.00 0.00 759.00 196.00" xmlns="http://www.w3.org/2000/svg" xmlns:xlink="http://www.w3.org/1999/xlink">
<g id="graph0" class="graph" transform="scale(1 1) rotate(0) translate(4 192)">
<title>plan&#45;and&#45;optimize.hh</title>
<polygon fill="white" stroke="none" points="-4,4 -4,-192 755,-192 755,4 -4,4"/>
<!-- Node1 -->
<g id="node1" class="node"><title>Node1</title>
<polygon fill="#bfbfbf" stroke="black" points="26.5,-168.5 26.5,-187.5 133.5,-187.5 133.5,-168.5 26.5,-168.5"/>
<text text-anchor="middle" x="80" y="-175.5" font-family="Helvetica,sans-Serif" font-size="10.00">plan&#45;and&#45;optimize.hh</text>
</g>
<!-- Node2 -->
<g id="node2" class="node"><title>Node2</title>
<polygon fill="white" stroke="#bfbfbf" points="0,-0.5 0,-19.5 44,-19.5 44,-0.5 0,-0.5"/>
<text text-anchor="middle" x="22" y="-7.5" font-family="Helvetica,sans-Serif" font-size="10.00">vector</text>
</g>
<!-- Node1&#45;&gt;Node2 -->
<g id="edge1" class="edge"><title>Node1&#45;&gt;Node2</title>
<path fill="none" stroke="midnightblue" d="M76.8817,-168.075C67.7124,-141.832 40.7086,-64.5453 28.3299,-29.1165"/>
<polygon fill="midnightblue" stroke="midnightblue" points="31.5963,-27.854 24.9937,-19.5681 24.9881,-30.1629 31.5963,-27.854"/>
</g>
<!-- Node3 -->
<g id="node3" class="node"><title>Node3</title>
<polygon fill="white" stroke="#bfbfbf" points="61.5,-0.5 61.5,-19.5 158.5,-19.5 158.5,-0.5 61.5,-0.5"/>
<text text-anchor="middle" x="110" y="-7.5" font-family="Helvetica,sans-Serif" font-size="10.00">hpp/core/config.hh</text>
</g>
<!-- Node1&#45;&gt;Node3 -->
<g id="edge2" class="edge"><title>Node1&#45;&gt;Node3</title>
<path fill="none" stroke="midnightblue" d="M81.6129,-168.075C86.3352,-141.945 100.203,-65.2106 106.643,-29.577"/>
<polygon fill="midnightblue" stroke="midnightblue" points="110.117,-30.0312 108.452,-19.5681 103.229,-28.7862 110.117,-30.0312"/>
</g>
<!-- Node4 -->
<g id="node4" class="node"><title>Node4</title>
<g id="a_node4"><a xlink:href="a00168.html" target="_top" xlink:title="hpp/core/path&#45;planner.hh">
<polygon fill="white" stroke="black" points="108,-112.5 108,-131.5 232,-131.5 232,-112.5 108,-112.5"/>
<text text-anchor="middle" x="170" y="-119.5" font-family="Helvetica,sans-Serif" font-size="10.00">hpp/core/path&#45;planner.hh</text>
</a>
</g>
</g>
<!-- Node1&#45;&gt;Node4 -->
<g id="edge3" class="edge"><title>Node1&#45;&gt;Node4</title>
<path fill="none" stroke="midnightblue" d="M94.4601,-168.324C108.5,-159.9 130.048,-146.971 146.543,-137.074"/>
<polygon fill="midnightblue" stroke="midnightblue" points="148.802,-139.801 155.576,-131.655 145.2,-133.798 148.802,-139.801"/>
</g>
<!-- Node4&#45;&gt;Node3 -->
<g id="edge14" class="edge"><title>Node4&#45;&gt;Node3</title>
<path fill="none" stroke="midnightblue" d="M165.292,-112.368C155.478,-94.376 132.664,-52.5503 119.615,-28.6267"/>
<polygon fill="midnightblue" stroke="midnightblue" points="122.547,-26.6944 114.686,-19.5914 116.402,-30.0464 122.547,-26.6944"/>
</g>
<!-- Node5 -->
<g id="node5" class="node"><title>Node5</title>
<g id="a_node5"><a xlink:href="a00001.html" target="_top" xlink:title="hpp/core/fwd.hh">
<polygon fill="white" stroke="black" points="316,-56.5 316,-75.5 402,-75.5 402,-56.5 316,-56.5"/>
<text text-anchor="middle" x="359" y="-63.5" font-family="Helvetica,sans-Serif" font-size="10.00">hpp/core/fwd.hh</text>
</a>
</g>
</g>
<!-- Node4&#45;&gt;Node5 -->
<g id="edge4" class="edge"><title>Node4&#45;&gt;Node5</title>
<path fill="none" stroke="midnightblue" d="M199.948,-112.444C232.158,-103.241 283.534,-88.5617 319.142,-78.3879"/>
<polygon fill="midnightblue" stroke="midnightblue" points="320.539,-81.629 329.192,-75.5164 318.616,-74.8984 320.539,-81.629"/>
</g>
<!-- Node5&#45;&gt;Node2 -->
<g id="edge5" class="edge"><title>Node5&#45;&gt;Node2</title>
<path fill="none" stroke="midnightblue" d="M315.929,-60.6934C258.131,-54.4749 152.189,-41.537 53.9694,-20.2077"/>
<polygon fill="midnightblue" stroke="midnightblue" points="54.7044,-16.7857 44.1852,-18.0489 53.1962,-23.6213 54.7044,-16.7857"/>
</g>
<!-- Node5&#45;&gt;Node3 -->
<g id="edge12" class="edge"><title>Node5&#45;&gt;Node3</title>
<path fill="none" stroke="midnightblue" d="M319.545,-56.4435C276.108,-47.0234 206.214,-31.8656 159.224,-21.6752"/>
<polygon fill="midnightblue" stroke="midnightblue" points="159.785,-18.2154 149.27,-19.5164 158.301,-25.0564 159.785,-18.2154"/>
</g>
<!-- Node6 -->
<g id="node6" class="node"><title>Node6</title>
<polygon fill="white" stroke="#bfbfbf" points="313.5,-0.5 313.5,-19.5 348.5,-19.5 348.5,-0.5 313.5,-0.5"/>
<text text-anchor="middle" x="331" y="-7.5" font-family="Helvetica,sans-Serif" font-size="10.00">map</text>
</g>
<!-- Node5&#45;&gt;Node6 -->
<g id="edge6" class="edge"><title>Node5&#45;&gt;Node6</title>
<path fill="none" stroke="midnightblue" d="M354.376,-56.083C350.544,-48.6913 344.976,-37.9533 340.235,-28.8111"/>
<polygon fill="midnightblue" stroke="midnightblue" points="343.248,-27.0175 335.538,-19.7511 337.034,-30.2398 343.248,-27.0175"/>
</g>
<!-- Node7 -->
<g id="node7" class="node"><title>Node7</title>
<polygon fill="white" stroke="#bfbfbf" points="366.5,-0.5 366.5,-19.5 409.5,-19.5 409.5,-0.5 366.5,-0.5"/>
<text text-anchor="middle" x="388" y="-7.5" font-family="Helvetica,sans-Serif" font-size="10.00">deque</text>
</g>
<!-- Node5&#45;&gt;Node7 -->
<g id="edge7" class="edge"><title>Node5&#45;&gt;Node7</title>
<path fill="none" stroke="midnightblue" d="M363.789,-56.083C367.758,-48.6913 373.525,-37.9533 378.435,-28.8111"/>
<polygon fill="midnightblue" stroke="midnightblue" points="381.653,-30.217 383.3,-19.7511 375.486,-26.9051 381.653,-30.217"/>
</g>
<!-- Node8 -->
<g id="node8" class="node"><title>Node8</title>
<polygon fill="white" stroke="#bfbfbf" points="427.5,-0.5 427.5,-19.5 456.5,-19.5 456.5,-0.5 427.5,-0.5"/>
<text text-anchor="middle" x="442" y="-7.5" font-family="Helvetica,sans-Serif" font-size="10.00">list</text>
</g>
<!-- Node5&#45;&gt;Node8 -->
<g id="edge8" class="edge"><title>Node5&#45;&gt;Node8</title>
<path fill="none" stroke="midnightblue" d="M372.335,-56.324C385.162,-47.979 404.785,-35.2122 419.94,-25.3524"/>
<polygon fill="midnightblue" stroke="midnightblue" points="422.224,-28.0417 428.698,-19.6545 418.407,-22.1742 422.224,-28.0417"/>
</g>
<!-- Node9 -->
<g id="node9" class="node"><title>Node9</title>
<polygon fill="white" stroke="#bfbfbf" points="475,-0.5 475,-19.5 505,-19.5 505,-0.5 475,-0.5"/>
<text text-anchor="middle" x="490" y="-7.5" font-family="Helvetica,sans-Serif" font-size="10.00">set</text>
</g>
<!-- Node5&#45;&gt;Node9 -->
<g id="edge9" class="edge"><title>Node5&#45;&gt;Node9</title>
<path fill="none" stroke="midnightblue" d="M379.757,-56.4435C402.965,-46.877 440.528,-31.3932 465.246,-21.2038"/>
<polygon fill="midnightblue" stroke="midnightblue" points="466.75,-24.3699 474.661,-17.323 464.082,-17.8982 466.75,-24.3699"/>
</g>
<!-- Node10 -->
<g id="node10" class="node"><title>Node10</title>
<g id="a_node10"><a doxygen="/local/devel/hpp/install/share/doc/hpp-util/doxygen-html/hpp-util.doxytag:../../hpp-util/doxygen-html/" xlink:href="../../hpp-util/doxygen-html/a00028.html" target="_top" xlink:title="hpp/util/pointer.hh">
<polygon fill="white" stroke="black" points="523,-0.5 523,-19.5 617,-19.5 617,-0.5 523,-0.5"/>
<text text-anchor="middle" x="570" y="-7.5" font-family="Helvetica,sans-Serif" font-size="10.00">hpp/util/pointer.hh</text>
</a>
</g>
</g>
<!-- Node5&#45;&gt;Node10 -->
<g id="edge10" class="edge"><title>Node5&#45;&gt;Node10</title>
<path fill="none" stroke="midnightblue" d="M392.434,-56.4435C428.856,-47.1221 487.23,-32.1828 527.029,-21.9972"/>
<polygon fill="midnightblue" stroke="midnightblue" points="527.903,-25.3866 536.723,-19.5164 526.167,-18.6051 527.903,-25.3866"/>
</g>
<!-- Node11 -->
<g id="node11" class="node"><title>Node11</title>
<g id="a_node11"><a doxygen="/local/devel/hpp/install/share/doc/hpp-constraints/doxygen-html/hpp-constraints.doxytag:../../hpp-constraints/doxygen-html/" xlink:href="../../hpp-constraints/doxygen-html/a00001.html" target="_top" xlink:title="hpp/constraints/fwd.hh">
<polygon fill="white" stroke="black" points="635,-0.5 635,-19.5 751,-19.5 751,-0.5 635,-0.5"/>
<text text-anchor="middle" x="693" y="-7.5" font-family="Helvetica,sans-Serif" font-size="10.00">hpp/constraints/fwd.hh</text>
</a>
</g>
</g>
<!-- Node5&#45;&gt;Node11 -->
<g id="edge11" class="edge"><title>Node5&#45;&gt;Node11</title>
<path fill="none" stroke="midnightblue" d="M402.322,-57.9958C460.412,-48.604 563.923,-31.8687 630.462,-21.1109"/>
<polygon fill="midnightblue" stroke="midnightblue" points="631.093,-24.5544 640.406,-19.5032 629.976,-17.6442 631.093,-24.5544"/>
</g>
<!-- Node12 -->
<g id="node12" class="node"><title>Node12</title>
<polygon fill="white" stroke="#bfbfbf" points="176.5,-0.5 176.5,-19.5 295.5,-19.5 295.5,-0.5 176.5,-0.5"/>
<text text-anchor="middle" x="236" y="-7.5" font-family="Helvetica,sans-Serif" font-size="10.00">hpp/core/deprecated.hh</text>
</g>
<!-- Node5&#45;&gt;Node12 -->
<g id="edge13" class="edge"><title>Node5&#45;&gt;Node12</title>
<path fill="none" stroke="midnightblue" d="M339.51,-56.4435C319.358,-47.5961 287.677,-33.6875 264.669,-23.5865"/>
<polygon fill="midnightblue" stroke="midnightblue" points="265.962,-20.3316 255.399,-19.5164 263.148,-26.7411 265.962,-20.3316"/>
</g>
</g>
</svg>
