<?xml version="1.0" encoding="UTF-8" standalone="no"?>
<!DOCTYPE svg PUBLIC "-//W3C//DTD SVG 1.1//EN"
 "http://www.w3.org/Graphics/SVG/1.1/DTD/svg11.dtd">
<!-- Generated by graphviz version 2.38.0 (20140413.2041)
 -->
<!-- Title: problem&#45;solver.hh Pages: 1 -->
<svg width="1900pt" height="151pt"
 viewBox="0.00 0.00 1899.50 151.00" xmlns="http://www.w3.org/2000/svg" xmlns:xlink="http://www.w3.org/1999/xlink">
<g id="graph0" class="graph" transform="scale(1 1) rotate(0) translate(4 147)">
<title>problem&#45;solver.hh</title>
<polygon fill="white" stroke="none" points="-4,4 -4,-147 1895.5,-147 1895.5,4 -4,4"/>
<!-- Node1 -->
<g id="node1" class="node"><title>Node1</title>
<polygon fill="#bfbfbf" stroke="black" points="753,-123.5 753,-142.5 847,-142.5 847,-123.5 753,-123.5"/>
<text text-anchor="middle" x="800" y="-130.5" font-family="Helvetica,sans-Serif" font-size="10.00">problem&#45;solver.hh</text>
</g>
<!-- Node2 -->
<g id="node2" class="node"><title>Node2</title>
<polygon fill="white" stroke="#bfbfbf" points="770.5,-6 770.5,-25 829.5,-25 829.5,-6 770.5,-6"/>
<text text-anchor="middle" x="800" y="-13" font-family="Helvetica,sans-Serif" font-size="10.00">stdexcept</text>
</g>
<!-- Node1&#45;&gt;Node2 -->
<g id="edge1" class="edge"><title>Node1&#45;&gt;Node2</title>
<path fill="none" stroke="midnightblue" d="M800,-123.319C800,-104.757 800,-60.8391 800,-35.4734"/>
<polygon fill="midnightblue" stroke="midnightblue" points="803.5,-35.282 800,-25.282 796.5,-35.282 803.5,-35.282"/>
</g>
<!-- Node3 -->
<g id="node3" class="node"><title>Node3</title>
<polygon fill="white" stroke="#bfbfbf" points="971.5,-67.5 971.5,-86.5 1068.5,-86.5 1068.5,-67.5 971.5,-67.5"/>
<text text-anchor="middle" x="1020" y="-74.5" font-family="Helvetica,sans-Serif" font-size="10.00">boost/function.hpp</text>
</g>
<!-- Node1&#45;&gt;Node3 -->
<g id="edge2" class="edge"><title>Node1&#45;&gt;Node3</title>
<path fill="none" stroke="midnightblue" d="M834.86,-123.444C872.916,-114.102 933.958,-99.1194 975.46,-88.9326"/>
<polygon fill="midnightblue" stroke="midnightblue" points="976.426,-92.2994 985.303,-86.5164 974.757,-85.5012 976.426,-92.2994"/>
</g>
<!-- Node4 -->
<g id="node4" class="node"><title>Node4</title>
<g id="a_node4"><a doxygen="/local/devel/hpp/install/share/doc/hpp-pinocchio/doxygen-html/hpp-pinocchio.doxytag:../../hpp-pinocchio/doxygen-html/" xlink:href="../../hpp-pinocchio/doxygen-html/a00098.html" target="_top" xlink:title="hpp/pinocchio/fwd.hh">
<polygon fill="white" stroke="black" points="1086.5,-67.5 1086.5,-86.5 1195.5,-86.5 1195.5,-67.5 1086.5,-67.5"/>
<text text-anchor="middle" x="1141" y="-74.5" font-family="Helvetica,sans-Serif" font-size="10.00">hpp/pinocchio/fwd.hh</text>
</a>
</g>
</g>
<!-- Node1&#45;&gt;Node4 -->
<g id="edge3" class="edge"><title>Node1&#45;&gt;Node4</title>
<path fill="none" stroke="midnightblue" d="M847.057,-124.548C906.838,-115.081 1010.26,-98.7037 1077.13,-88.1146"/>
<polygon fill="midnightblue" stroke="midnightblue" points="1077.8,-91.5524 1087.13,-86.5313 1076.7,-84.6386 1077.8,-91.5524"/>
</g>
<!-- Node5 -->
<g id="node5" class="node"><title>Node5</title>
<g id="a_node5"><a xlink:href="a00001.html" target="_top" xlink:title="hpp/core/fwd.hh">
<polygon fill="white" stroke="black" points="389,-67.5 389,-86.5 475,-86.5 475,-67.5 389,-67.5"/>
<text text-anchor="middle" x="432" y="-74.5" font-family="Helvetica,sans-Serif" font-size="10.00">hpp/core/fwd.hh</text>
</a>
</g>
</g>
<!-- Node1&#45;&gt;Node5 -->
<g id="edge4" class="edge"><title>Node1&#45;&gt;Node5</title>
<path fill="none" stroke="midnightblue" d="M752.644,-125.051C684,-114.978 557.23,-96.3761 485.365,-85.8307"/>
<polygon fill="midnightblue" stroke="midnightblue" points="485.576,-82.3242 475.173,-84.3352 484.559,-89.2501 485.576,-82.3242"/>
</g>
<!-- Node13 -->
<g id="node13" class="node"><title>Node13</title>
<polygon fill="white" stroke="#bfbfbf" points="655.5,-6 655.5,-25 752.5,-25 752.5,-6 655.5,-6"/>
<text text-anchor="middle" x="704" y="-13" font-family="Helvetica,sans-Serif" font-size="10.00">hpp/core/config.hh</text>
</g>
<!-- Node1&#45;&gt;Node13 -->
<g id="edge14" class="edge"><title>Node1&#45;&gt;Node13</title>
<path fill="none" stroke="midnightblue" d="M792.784,-123.319C776.87,-104.172 738.53,-58.0443 717.823,-33.1306"/>
<polygon fill="midnightblue" stroke="midnightblue" points="720.383,-30.7352 711.299,-25.282 715,-35.2096 720.383,-30.7352"/>
</g>
<!-- Node14 -->
<g id="node14" class="node"><title>Node14</title>
<polygon fill="white" stroke="#bfbfbf" points="418.5,-6 418.5,-25 537.5,-25 537.5,-6 418.5,-6"/>
<text text-anchor="middle" x="478" y="-13" font-family="Helvetica,sans-Serif" font-size="10.00">hpp/core/deprecated.hh</text>
</g>
<!-- Node1&#45;&gt;Node14 -->
<g id="edge15" class="edge"><title>Node1&#45;&gt;Node14</title>
<path fill="none" stroke="midnightblue" d="M776.061,-123.413C719.476,-103.116 577.33,-52.1291 511.912,-28.6642"/>
<polygon fill="midnightblue" stroke="midnightblue" points="512.691,-25.2254 502.097,-25.1434 510.328,-31.8143 512.691,-25.2254"/>
</g>
<!-- Node15 -->
<g id="node15" class="node"><title>Node15</title>
<g id="a_node15"><a xlink:href="a00125.html" target="_top" xlink:title="hpp/core/container.hh">
<polygon fill="white" stroke="black" points="843,-67.5 843,-86.5 953,-86.5 953,-67.5 843,-67.5"/>
<text text-anchor="middle" x="898" y="-74.5" font-family="Helvetica,sans-Serif" font-size="10.00">hpp/core/container.hh</text>
</a>
</g>
</g>
<!-- Node1&#45;&gt;Node15 -->
<g id="edge16" class="edge"><title>Node1&#45;&gt;Node15</title>
<path fill="none" stroke="midnightblue" d="M815.745,-123.324C831.319,-114.743 855.377,-101.486 873.459,-91.5224"/>
<polygon fill="midnightblue" stroke="midnightblue" points="875.224,-94.546 882.294,-86.6545 871.846,-88.4152 875.224,-94.546"/>
</g>
<!-- Node6 -->
<g id="node6" class="node"><title>Node6</title>
<polygon fill="white" stroke="#bfbfbf" points="246,-6 246,-25 290,-25 290,-6 246,-6"/>
<text text-anchor="middle" x="268" y="-13" font-family="Helvetica,sans-Serif" font-size="10.00">vector</text>
</g>
<!-- Node5&#45;&gt;Node6 -->
<g id="edge5" class="edge"><title>Node5&#45;&gt;Node6</title>
<path fill="none" stroke="midnightblue" d="M403.905,-67.4951C376.758,-59.0433 334.627,-45.3076 299,-31 297.622,-30.4464 296.217,-29.8627 294.804,-29.26"/>
<polygon fill="midnightblue" stroke="midnightblue" points="296.113,-26.0116 285.556,-25.1252 293.256,-32.402 296.113,-26.0116"/>
</g>
<!-- Node7 -->
<g id="node7" class="node"><title>Node7</title>
<polygon fill="white" stroke="#bfbfbf" points="555.5,-6 555.5,-25 590.5,-25 590.5,-6 555.5,-6"/>
<text text-anchor="middle" x="573" y="-13" font-family="Helvetica,sans-Serif" font-size="10.00">map</text>
</g>
<!-- Node5&#45;&gt;Node7 -->
<g id="edge6" class="edge"><title>Node5&#45;&gt;Node7</title>
<path fill="none" stroke="midnightblue" d="M455.92,-67.4857C479.226,-58.9743 515.503,-45.149 546,-31 546.845,-30.6081 547.7,-30.2021 548.561,-29.7856"/>
<polygon fill="midnightblue" stroke="midnightblue" points="550.425,-32.7635 557.737,-25.0968 547.24,-26.5301 550.425,-32.7635"/>
</g>
<!-- Node8 -->
<g id="node8" class="node"><title>Node8</title>
<polygon fill="white" stroke="#bfbfbf" points="308.5,-6 308.5,-25 351.5,-25 351.5,-6 308.5,-6"/>
<text text-anchor="middle" x="330" y="-13" font-family="Helvetica,sans-Serif" font-size="10.00">deque</text>
</g>
<!-- Node5&#45;&gt;Node8 -->
<g id="edge7" class="edge"><title>Node5&#45;&gt;Node8</title>
<path fill="none" stroke="midnightblue" d="M417.386,-67.4751C400.647,-57.7106 372.996,-41.5807 353.281,-30.0808"/>
<polygon fill="midnightblue" stroke="midnightblue" points="354.988,-27.0246 344.587,-25.0091 351.461,-33.0711 354.988,-27.0246"/>
</g>
<!-- Node9 -->
<g id="node9" class="node"><title>Node9</title>
<polygon fill="white" stroke="#bfbfbf" points="608.5,-6 608.5,-25 637.5,-25 637.5,-6 608.5,-6"/>
<text text-anchor="middle" x="623" y="-13" font-family="Helvetica,sans-Serif" font-size="10.00">list</text>
</g>
<!-- Node5&#45;&gt;Node9 -->
<g id="edge8" class="edge"><title>Node5&#45;&gt;Node9</title>
<path fill="none" stroke="midnightblue" d="M475.316,-67.8207C509.697,-60.5073 558.54,-48.2658 599,-31 599.705,-30.6991 600.414,-30.3803 601.125,-30.047"/>
<polygon fill="midnightblue" stroke="midnightblue" points="603.018,-33.0024 610.15,-25.1675 599.688,-26.8447 603.018,-33.0024"/>
</g>
<!-- Node10 -->
<g id="node10" class="node"><title>Node10</title>
<polygon fill="white" stroke="#bfbfbf" points="370,-6 370,-25 400,-25 400,-6 370,-6"/>
<text text-anchor="middle" x="385" y="-13" font-family="Helvetica,sans-Serif" font-size="10.00">set</text>
</g>
<!-- Node5&#45;&gt;Node10 -->
<g id="edge9" class="edge"><title>Node5&#45;&gt;Node10</title>
<path fill="none" stroke="midnightblue" d="M425.266,-67.4751C418.216,-58.5501 406.965,-44.3071 398.146,-33.1425"/>
<polygon fill="midnightblue" stroke="midnightblue" points="400.667,-30.6867 391.721,-25.0091 395.174,-35.0258 400.667,-30.6867"/>
</g>
<!-- Node11 -->
<g id="node11" class="node"><title>Node11</title>
<g id="a_node11"><a doxygen="/local/devel/hpp/install/share/doc/hpp-util/doxygen-html/hpp-util.doxytag:../../hpp-util/doxygen-html/" xlink:href="../../hpp-util/doxygen-html/a00028.html" target="_top" xlink:title="hpp/util/pointer.hh">
<polygon fill="white" stroke="black" points="0,-6 0,-25 94,-25 94,-6 0,-6"/>
<text text-anchor="middle" x="47" y="-13" font-family="Helvetica,sans-Serif" font-size="10.00">hpp/util/pointer.hh</text>
</a>
</g>
</g>
<!-- Node5&#45;&gt;Node11 -->
<g id="edge10" class="edge"><title>Node5&#45;&gt;Node11</title>
<path fill="none" stroke="midnightblue" d="M388.884,-71.7361C325.765,-65.1256 204.669,-51.0435 103,-31 97.8964,-29.9938 92.5654,-28.8012 87.3081,-27.5388"/>
<polygon fill="midnightblue" stroke="midnightblue" points="87.9181,-24.0837 77.368,-25.0558 86.2216,-30.875 87.9181,-24.0837"/>
</g>
<!-- Node12 -->
<g id="node12" class="node"><title>Node12</title>
<g id="a_node12"><a doxygen="/local/devel/hpp/install/share/doc/hpp-constraints/doxygen-html/hpp-constraints.doxytag:../../hpp-constraints/doxygen-html/" xlink:href="../../hpp-constraints/doxygen-html/a00001.html" target="_top" xlink:title="hpp/constraints/fwd.hh">
<polygon fill="white" stroke="black" points="112,-6 112,-25 228,-25 228,-6 112,-6"/>
<text text-anchor="middle" x="170" y="-13" font-family="Helvetica,sans-Serif" font-size="10.00">hpp/constraints/fwd.hh</text>
</a>
</g>
</g>
<!-- Node5&#45;&gt;Node12 -->
<g id="edge11" class="edge"><title>Node5&#45;&gt;Node12</title>
<path fill="none" stroke="midnightblue" d="M394.462,-67.4751C347.769,-56.8711 268.02,-38.7602 217.223,-27.2244"/>
<polygon fill="midnightblue" stroke="midnightblue" points="217.995,-23.8107 207.469,-25.0091 216.445,-30.6369 217.995,-23.8107"/>
</g>
<!-- Node5&#45;&gt;Node13 -->
<g id="edge12" class="edge"><title>Node5&#45;&gt;Node13</title>
<path fill="none" stroke="midnightblue" d="M475.143,-67.4253C518.438,-58.7036 586.987,-44.5762 646,-31 650.745,-29.9085 655.698,-28.7302 660.624,-27.5335"/>
<polygon fill="midnightblue" stroke="midnightblue" points="661.747,-30.8615 670.621,-25.0733 660.074,-24.0643 661.747,-30.8615"/>
</g>
<!-- Node5&#45;&gt;Node14 -->
<g id="edge13" class="edge"><title>Node5&#45;&gt;Node14</title>
<path fill="none" stroke="midnightblue" d="M438.591,-67.4751C445.491,-58.5501 456.502,-44.3071 465.134,-33.1425"/>
<polygon fill="midnightblue" stroke="midnightblue" points="468.074,-35.0612 471.422,-25.0091 462.536,-30.7798 468.074,-35.0612"/>
</g>
<!-- Node15&#45;&gt;Node2 -->
<g id="edge19" class="edge"><title>Node15&#45;&gt;Node2</title>
<path fill="none" stroke="midnightblue" d="M883.959,-67.4751C867.949,-57.7548 841.55,-41.7266 822.626,-30.2372"/>
<polygon fill="midnightblue" stroke="midnightblue" points="824.379,-27.2072 814.015,-25.0091 820.746,-33.1907 824.379,-27.2072"/>
</g>
<!-- Node15&#45;&gt;Node7 -->
<g id="edge17" class="edge"><title>Node15&#45;&gt;Node7</title>
<path fill="none" stroke="midnightblue" d="M842.866,-73.6125C781.79,-69.625 681.093,-59.0322 599,-31 597.789,-30.5866 596.57,-30.1177 595.355,-29.6077"/>
<polygon fill="midnightblue" stroke="midnightblue" points="596.849,-26.4421 586.334,-25.1389 593.741,-32.7145 596.849,-26.4421"/>
</g>
<!-- Node15&#45;&gt;Node9 -->
<g id="edge18" class="edge"><title>Node15&#45;&gt;Node9</title>
<path fill="none" stroke="midnightblue" d="M842.606,-71.915C790.694,-66.7394 711.625,-55.3574 647,-31 646.123,-30.6695 645.242,-30.3067 644.363,-29.9184"/>
<polygon fill="midnightblue" stroke="midnightblue" points="645.736,-26.6846 635.263,-25.0858 642.453,-32.867 645.736,-26.6846"/>
</g>
<!-- Node15&#45;&gt;Node13 -->
<g id="edge28" class="edge"><title>Node15&#45;&gt;Node13</title>
<path fill="none" stroke="midnightblue" d="M870.205,-67.4751C836.35,-57.092 779.029,-39.5116 741.345,-27.9538"/>
<polygon fill="midnightblue" stroke="midnightblue" points="742.331,-24.5952 731.744,-25.0091 740.278,-31.2875 742.331,-24.5952"/>
</g>
<!-- Node16 -->
<g id="node16" class="node"><title>Node16</title>
<polygon fill="white" stroke="#bfbfbf" points="1109.5,-0.5 1109.5,-30.5 1226.5,-30.5 1226.5,-0.5 1109.5,-0.5"/>
<text text-anchor="start" x="1117.5" y="-18.5" font-family="Helvetica,sans-Serif" font-size="10.00">boost/smart_ptr/shared</text>
<text text-anchor="middle" x="1168" y="-7.5" font-family="Helvetica,sans-Serif" font-size="10.00">_ptr.hpp</text>
</g>
<!-- Node15&#45;&gt;Node16 -->
<g id="edge20" class="edge"><title>Node15&#45;&gt;Node16</title>
<path fill="none" stroke="midnightblue" d="M936.684,-67.4751C978.994,-58.1514 1047.64,-43.0241 1099.18,-31.6656"/>
<polygon fill="midnightblue" stroke="midnightblue" points="1100.24,-35.0171 1109.25,-29.447 1098.73,-28.1812 1100.24,-35.0171"/>
</g>
<!-- Node17 -->
<g id="node17" class="node"><title>Node17</title>
<polygon fill="white" stroke="#bfbfbf" points="1244.5,-6 1244.5,-25 1387.5,-25 1387.5,-6 1244.5,-6"/>
<text text-anchor="middle" x="1316" y="-13" font-family="Helvetica,sans-Serif" font-size="10.00">boost/mpl/inherit_linearly.hpp</text>
</g>
<!-- Node15&#45;&gt;Node17 -->
<g id="edge21" class="edge"><title>Node15&#45;&gt;Node17</title>
<path fill="none" stroke="midnightblue" d="M953.315,-68.3162C956.592,-67.8687 959.839,-67.4273 963,-67 1084.28,-50.6073 1115.09,-49.9187 1236,-31 1244.13,-29.728 1252.71,-28.2833 1261.1,-26.8107"/>
<polygon fill="midnightblue" stroke="midnightblue" points="1261.98,-30.2091 1271.21,-25.0102 1260.76,-23.3175 1261.98,-30.2091"/>
</g>
<!-- Node18 -->
<g id="node18" class="node"><title>Node18</title>
<polygon fill="white" stroke="#bfbfbf" points="1405.5,-6 1405.5,-25 1502.5,-25 1502.5,-6 1405.5,-6"/>
<text text-anchor="middle" x="1454" y="-13" font-family="Helvetica,sans-Serif" font-size="10.00">boost/mpl/fold.hpp</text>
</g>
<!-- Node15&#45;&gt;Node18 -->
<g id="edge22" class="edge"><title>Node15&#45;&gt;Node18</title>
<path fill="none" stroke="midnightblue" d="M953.293,-68.1341C956.575,-67.7324 959.829,-67.3507 963,-67 1155.38,-45.7189 1206.11,-62.969 1397,-31 1402.6,-30.0619 1408.46,-28.8468 1414.2,-27.5195"/>
<polygon fill="midnightblue" stroke="midnightblue" points="1415.44,-30.8199 1424.32,-25.0446 1413.78,-24.0203 1415.44,-30.8199"/>
</g>
<!-- Node19 -->
<g id="node19" class="node"><title>Node19</title>
<polygon fill="white" stroke="#bfbfbf" points="1520.5,-6 1520.5,-25 1627.5,-25 1627.5,-6 1520.5,-6"/>
<text text-anchor="middle" x="1574" y="-13" font-family="Helvetica,sans-Serif" font-size="10.00">boost/mpl/inherit.hpp</text>
</g>
<!-- Node15&#45;&gt;Node19 -->
<g id="edge23" class="edge"><title>Node15&#45;&gt;Node19</title>
<path fill="none" stroke="midnightblue" d="M953.286,-68.0688C956.57,-67.6836 959.827,-67.3233 963,-67 1206.26,-42.2153 1270.14,-66.9635 1512,-31 1518.46,-30.0397 1525.24,-28.7508 1531.84,-27.3359"/>
<polygon fill="midnightblue" stroke="midnightblue" points="1533.03,-30.6557 1542.01,-25.0379 1531.49,-23.8278 1533.03,-30.6557"/>
</g>
<!-- Node20 -->
<g id="node20" class="node"><title>Node20</title>
<polygon fill="white" stroke="#bfbfbf" points="1646,-6 1646,-25 1754,-25 1754,-6 1646,-6"/>
<text text-anchor="middle" x="1700" y="-13" font-family="Helvetica,sans-Serif" font-size="10.00">boost/mpl/vector.hpp</text>
</g>
<!-- Node15&#45;&gt;Node20 -->
<g id="edge24" class="edge"><title>Node15&#45;&gt;Node20</title>
<path fill="none" stroke="midnightblue" d="M953.281,-68.0231C956.566,-67.6493 959.825,-67.3041 963,-67 1261.62,-38.4029 1339.94,-72.7983 1637,-31 1643.8,-30.0439 1650.94,-28.7174 1657.87,-27.2519"/>
<polygon fill="midnightblue" stroke="midnightblue" points="1658.83,-30.6254 1667.83,-25.0325 1657.3,-23.7933 1658.83,-30.6254"/>
</g>
<!-- Node21 -->
<g id="node21" class="node"><title>Node21</title>
<polygon fill="white" stroke="#bfbfbf" points="1772.5,-6 1772.5,-25 1891.5,-25 1891.5,-6 1772.5,-6"/>
<text text-anchor="middle" x="1832" y="-13" font-family="Helvetica,sans-Serif" font-size="10.00">boost/mpl/for_each.hpp</text>
</g>
<!-- Node15&#45;&gt;Node21 -->
<g id="edge25" class="edge"><title>Node15&#45;&gt;Node21</title>
<path fill="none" stroke="midnightblue" d="M953.278,-67.9914C956.564,-67.6256 959.823,-67.2908 963,-67 1317.43,-34.5578 1409.91,-75.7445 1763,-31 1770.77,-30.0154 1778.97,-28.6171 1786.89,-27.0735"/>
<polygon fill="midnightblue" stroke="midnightblue" points="1787.63,-30.494 1796.73,-25.0608 1786.23,-23.636 1787.63,-30.494"/>
</g>
<!-- Node22 -->
<g id="node22" class="node"><title>Node22</title>
<polygon fill="white" stroke="#bfbfbf" points="848,-0.5 848,-30.5 948,-30.5 948,-0.5 848,-0.5"/>
<text text-anchor="start" x="856" y="-18.5" font-family="Helvetica,sans-Serif" font-size="10.00">boost/type_traits/is</text>
<text text-anchor="middle" x="898" y="-7.5" font-family="Helvetica,sans-Serif" font-size="10.00">_pointer.hpp</text>
</g>
<!-- Node15&#45;&gt;Node22 -->
<g id="edge26" class="edge"><title>Node15&#45;&gt;Node22</title>
<path fill="none" stroke="midnightblue" d="M898,-67.4751C898,-60.471 898,-50.1919 898,-40.6956"/>
<polygon fill="midnightblue" stroke="midnightblue" points="901.5,-40.5229 898,-30.523 894.5,-40.523 901.5,-40.5229"/>
</g>
<!-- Node23 -->
<g id="node23" class="node"><title>Node23</title>
<polygon fill="white" stroke="#bfbfbf" points="966.5,-0.5 966.5,-30.5 1091.5,-30.5 1091.5,-0.5 966.5,-0.5"/>
<text text-anchor="start" x="974.5" y="-18.5" font-family="Helvetica,sans-Serif" font-size="10.00">boost/type_traits/remove</text>
<text text-anchor="middle" x="1029" y="-7.5" font-family="Helvetica,sans-Serif" font-size="10.00">_pointer.hpp</text>
</g>
<!-- Node15&#45;&gt;Node23 -->
<g id="edge27" class="edge"><title>Node15&#45;&gt;Node23</title>
<path fill="none" stroke="midnightblue" d="M916.769,-67.4751C935.506,-58.9648 964.889,-45.6193 988.89,-34.718"/>
<polygon fill="midnightblue" stroke="midnightblue" points="990.468,-37.8451 998.126,-30.523 987.574,-31.4717 990.468,-37.8451"/>
</g>
</g>
</svg>
