<?xml version="1.0" encoding="UTF-8" standalone="no"?>
<!DOCTYPE svg PUBLIC "-//W3C//DTD SVG 1.1//EN"
 "http://www.w3.org/Graphics/SVG/1.1/DTD/svg11.dtd">
<!-- Generated by graphviz version 2.38.0 (20140413.2041)
 -->
<!-- Title: parameter.hh Pages: 1 -->
<svg width="924pt" height="140pt"
 viewBox="0.00 0.00 923.50 140.00" xmlns="http://www.w3.org/2000/svg" xmlns:xlink="http://www.w3.org/1999/xlink">
<g id="graph0" class="graph" transform="scale(1 1) rotate(0) translate(4 136)">
<title>parameter.hh</title>
<polygon fill="white" stroke="none" points="-4,4 -4,-136 919.5,-136 919.5,4 -4,4"/>
<!-- Node1 -->
<g id="node1" class="node"><title>Node1</title>
<polygon fill="#bfbfbf" stroke="black" points="153,-112.5 153,-131.5 227,-131.5 227,-112.5 153,-112.5"/>
<text text-anchor="middle" x="190" y="-119.5" font-family="Helvetica,sans-Serif" font-size="10.00">parameter.hh</text>
</g>
<!-- Node2 -->
<g id="node2" class="node"><title>Node2</title>
<polygon fill="white" stroke="#bfbfbf" points="0,-56.5 0,-75.5 54,-75.5 54,-56.5 0,-56.5"/>
<text text-anchor="middle" x="27" y="-63.5" font-family="Helvetica,sans-Serif" font-size="10.00">iostream</text>
</g>
<!-- Node1&#45;&gt;Node2 -->
<g id="edge1" class="edge"><title>Node1&#45;&gt;Node2</title>
<path fill="none" stroke="midnightblue" d="M164.172,-112.444C136.751,-103.359 93.2225,-88.9388 62.5676,-78.7831"/>
<polygon fill="midnightblue" stroke="midnightblue" points="63.3003,-75.3389 52.707,-75.5164 61.0989,-81.9837 63.3003,-75.3389"/>
</g>
<!-- Node3 -->
<g id="node3" class="node"><title>Node3</title>
<polygon fill="white" stroke="#bfbfbf" points="72.5,-56.5 72.5,-75.5 113.5,-75.5 113.5,-56.5 72.5,-56.5"/>
<text text-anchor="middle" x="93" y="-63.5" font-family="Helvetica,sans-Serif" font-size="10.00">string</text>
</g>
<!-- Node1&#45;&gt;Node3 -->
<g id="edge2" class="edge"><title>Node1&#45;&gt;Node3</title>
<path fill="none" stroke="midnightblue" d="M174.415,-112.324C159.001,-103.743 135.188,-90.486 117.29,-80.5224"/>
<polygon fill="midnightblue" stroke="midnightblue" points="118.986,-77.4606 108.546,-75.6545 115.581,-83.5767 118.986,-77.4606"/>
</g>
<!-- Node4 -->
<g id="node4" class="node"><title>Node4</title>
<polygon fill="white" stroke="#bfbfbf" points="131.5,-56.5 131.5,-75.5 180.5,-75.5 180.5,-56.5 131.5,-56.5"/>
<text text-anchor="middle" x="156" y="-63.5" font-family="Helvetica,sans-Serif" font-size="10.00">cassert</text>
</g>
<!-- Node1&#45;&gt;Node4 -->
<g id="edge3" class="edge"><title>Node1&#45;&gt;Node4</title>
<path fill="none" stroke="midnightblue" d="M184.386,-112.083C179.633,-104.534 172.682,-93.4948 166.848,-84.2298"/>
<polygon fill="midnightblue" stroke="midnightblue" points="169.8,-82.3486 161.51,-75.7511 163.876,-86.0783 169.8,-82.3486"/>
</g>
<!-- Node5 -->
<g id="node5" class="node"><title>Node5</title>
<polygon fill="white" stroke="#bfbfbf" points="198.5,-56.5 198.5,-75.5 249.5,-75.5 249.5,-56.5 198.5,-56.5"/>
<text text-anchor="middle" x="224" y="-63.5" font-family="Helvetica,sans-Serif" font-size="10.00">typeinfo</text>
</g>
<!-- Node1&#45;&gt;Node5 -->
<g id="edge4" class="edge"><title>Node1&#45;&gt;Node5</title>
<path fill="none" stroke="midnightblue" d="M195.614,-112.083C200.367,-104.534 207.318,-93.4948 213.152,-84.2298"/>
<polygon fill="midnightblue" stroke="midnightblue" points="216.124,-86.0783 218.49,-75.7511 210.2,-82.3486 216.124,-86.0783"/>
</g>
<!-- Node6 -->
<g id="node6" class="node"><title>Node6</title>
<polygon fill="white" stroke="#bfbfbf" points="163.5,-0.5 163.5,-19.5 260.5,-19.5 260.5,-0.5 163.5,-0.5"/>
<text text-anchor="middle" x="212" y="-7.5" font-family="Helvetica,sans-Serif" font-size="10.00">hpp/core/config.hh</text>
</g>
<!-- Node1&#45;&gt;Node6 -->
<g id="edge5" class="edge"><title>Node1&#45;&gt;Node6</title>
<path fill="none" stroke="midnightblue" d="M213.788,-112.499C229.721,-105.413 249.463,-93.6052 259,-76 268.998,-57.5441 250.93,-38.2883 234.379,-25.5723"/>
<polygon fill="midnightblue" stroke="midnightblue" points="236.181,-22.5568 226.019,-19.5577 232.092,-28.239 236.181,-22.5568"/>
</g>
<!-- Node7 -->
<g id="node7" class="node"><title>Node7</title>
<g id="a_node7"><a xlink:href="a00001.html" target="_top" xlink:title="hpp/core/fwd.hh">
<polygon fill="white" stroke="black" points="399,-56.5 399,-75.5 485,-75.5 485,-56.5 399,-56.5"/>
<text text-anchor="middle" x="442" y="-63.5" font-family="Helvetica,sans-Serif" font-size="10.00">hpp/core/fwd.hh</text>
</a>
</g>
</g>
<!-- Node1&#45;&gt;Node7 -->
<g id="edge6" class="edge"><title>Node1&#45;&gt;Node7</title>
<path fill="none" stroke="midnightblue" d="M227.183,-113.032C270.897,-103.665 343.631,-88.0792 392.19,-77.6737"/>
<polygon fill="midnightblue" stroke="midnightblue" points="393.121,-81.0536 402.165,-75.536 391.654,-74.209 393.121,-81.0536"/>
</g>
<!-- Node7&#45;&gt;Node6 -->
<g id="edge14" class="edge"><title>Node7&#45;&gt;Node6</title>
<path fill="none" stroke="midnightblue" d="M405.556,-56.4435C365.601,-47.0629 301.413,-31.9926 258.015,-21.8036"/>
<polygon fill="midnightblue" stroke="midnightblue" points="258.809,-18.3948 248.274,-19.5164 257.209,-25.2095 258.809,-18.3948"/>
</g>
<!-- Node8 -->
<g id="node8" class="node"><title>Node8</title>
<polygon fill="white" stroke="#bfbfbf" points="278,-0.5 278,-19.5 322,-19.5 322,-0.5 278,-0.5"/>
<text text-anchor="middle" x="300" y="-7.5" font-family="Helvetica,sans-Serif" font-size="10.00">vector</text>
</g>
<!-- Node7&#45;&gt;Node8 -->
<g id="edge7" class="edge"><title>Node7&#45;&gt;Node8</title>
<path fill="none" stroke="midnightblue" d="M419.5,-56.4435C395.923,-47.4776 358.678,-33.314 332.036,-23.1827"/>
<polygon fill="midnightblue" stroke="midnightblue" points="332.986,-19.7995 322.395,-19.5164 330.498,-26.3424 332.986,-19.7995"/>
</g>
<!-- Node9 -->
<g id="node9" class="node"><title>Node9</title>
<polygon fill="white" stroke="#bfbfbf" points="340.5,-0.5 340.5,-19.5 375.5,-19.5 375.5,-0.5 340.5,-0.5"/>
<text text-anchor="middle" x="358" y="-7.5" font-family="Helvetica,sans-Serif" font-size="10.00">map</text>
</g>
<!-- Node7&#45;&gt;Node9 -->
<g id="edge8" class="edge"><title>Node7&#45;&gt;Node9</title>
<path fill="none" stroke="midnightblue" d="M428.504,-56.324C415.4,-47.9002 395.288,-34.9709 379.893,-25.0741"/>
<polygon fill="midnightblue" stroke="midnightblue" points="381.767,-22.118 371.463,-19.6545 377.982,-28.0063 381.767,-22.118"/>
</g>
<!-- Node10 -->
<g id="node10" class="node"><title>Node10</title>
<polygon fill="white" stroke="#bfbfbf" points="393.5,-0.5 393.5,-19.5 436.5,-19.5 436.5,-0.5 393.5,-0.5"/>
<text text-anchor="middle" x="415" y="-7.5" font-family="Helvetica,sans-Serif" font-size="10.00">deque</text>
</g>
<!-- Node7&#45;&gt;Node10 -->
<g id="edge9" class="edge"><title>Node7&#45;&gt;Node10</title>
<path fill="none" stroke="midnightblue" d="M437.541,-56.083C433.846,-48.6913 428.477,-37.9533 423.906,-28.8111"/>
<polygon fill="midnightblue" stroke="midnightblue" points="426.978,-27.1301 419.376,-19.7511 420.717,-30.2606 426.978,-27.1301"/>
</g>
<!-- Node11 -->
<g id="node11" class="node"><title>Node11</title>
<polygon fill="white" stroke="#bfbfbf" points="454.5,-0.5 454.5,-19.5 483.5,-19.5 483.5,-0.5 454.5,-0.5"/>
<text text-anchor="middle" x="469" y="-7.5" font-family="Helvetica,sans-Serif" font-size="10.00">list</text>
</g>
<!-- Node7&#45;&gt;Node11 -->
<g id="edge10" class="edge"><title>Node7&#45;&gt;Node11</title>
<path fill="none" stroke="midnightblue" d="M446.459,-56.083C450.154,-48.6913 455.523,-37.9533 460.094,-28.8111"/>
<polygon fill="midnightblue" stroke="midnightblue" points="463.283,-30.2606 464.624,-19.7511 457.022,-27.1301 463.283,-30.2606"/>
</g>
<!-- Node12 -->
<g id="node12" class="node"><title>Node12</title>
<polygon fill="white" stroke="#bfbfbf" points="502,-0.5 502,-19.5 532,-19.5 532,-0.5 502,-0.5"/>
<text text-anchor="middle" x="517" y="-7.5" font-family="Helvetica,sans-Serif" font-size="10.00">set</text>
</g>
<!-- Node7&#45;&gt;Node12 -->
<g id="edge11" class="edge"><title>Node7&#45;&gt;Node12</title>
<path fill="none" stroke="midnightblue" d="M454.05,-56.324C465.463,-48.1066 482.831,-35.6017 496.435,-25.8069"/>
<polygon fill="midnightblue" stroke="midnightblue" points="498.66,-28.5174 504.731,-19.8339 494.57,-22.8366 498.66,-28.5174"/>
</g>
<!-- Node13 -->
<g id="node13" class="node"><title>Node13</title>
<g id="a_node13"><a doxygen="/local/devel/hpp/install/share/doc/hpp-util/doxygen-html/hpp-util.doxytag:../../hpp-util/doxygen-html/" xlink:href="../../hpp-util/doxygen-html/a00028.html" target="_top" xlink:title="hpp/util/pointer.hh">
<polygon fill="white" stroke="black" points="550,-0.5 550,-19.5 644,-19.5 644,-0.5 550,-0.5"/>
<text text-anchor="middle" x="597" y="-7.5" font-family="Helvetica,sans-Serif" font-size="10.00">hpp/util/pointer.hh</text>
</a>
</g>
</g>
<!-- Node7&#45;&gt;Node13 -->
<g id="edge12" class="edge"><title>Node7&#45;&gt;Node13</title>
<path fill="none" stroke="midnightblue" d="M466.56,-56.4435C492.523,-47.3986 533.668,-33.064 562.797,-22.9158"/>
<polygon fill="midnightblue" stroke="midnightblue" points="564.263,-26.1116 572.555,-19.5164 561.96,-19.5013 564.263,-26.1116"/>
</g>
<!-- Node14 -->
<g id="node14" class="node"><title>Node14</title>
<g id="a_node14"><a doxygen="/local/devel/hpp/install/share/doc/hpp-constraints/doxygen-html/hpp-constraints.doxytag:../../hpp-constraints/doxygen-html/" xlink:href="../../hpp-constraints/doxygen-html/a00001.html" target="_top" xlink:title="hpp/constraints/fwd.hh">
<polygon fill="white" stroke="black" points="662,-0.5 662,-19.5 778,-19.5 778,-0.5 662,-0.5"/>
<text text-anchor="middle" x="720" y="-7.5" font-family="Helvetica,sans-Serif" font-size="10.00">hpp/constraints/fwd.hh</text>
</a>
</g>
</g>
<!-- Node7&#45;&gt;Node14 -->
<g id="edge13" class="edge"><title>Node7&#45;&gt;Node14</title>
<path fill="none" stroke="midnightblue" d="M485.132,-56.6217C533.846,-47.1594 613.189,-31.7475 665.985,-21.4921"/>
<polygon fill="midnightblue" stroke="midnightblue" points="666.698,-24.9192 675.847,-19.5765 665.363,-18.0476 666.698,-24.9192"/>
</g>
<!-- Node15 -->
<g id="node15" class="node"><title>Node15</title>
<polygon fill="white" stroke="#bfbfbf" points="796.5,-0.5 796.5,-19.5 915.5,-19.5 915.5,-0.5 796.5,-0.5"/>
<text text-anchor="middle" x="856" y="-7.5" font-family="Helvetica,sans-Serif" font-size="10.00">hpp/core/deprecated.hh</text>
</g>
<!-- Node7&#45;&gt;Node15 -->
<g id="edge15" class="edge"><title>Node7&#45;&gt;Node15</title>
<path fill="none" stroke="midnightblue" d="M485.134,-59.3739C556.651,-50.0455 700.406,-31.2949 786.42,-20.0756"/>
<polygon fill="midnightblue" stroke="midnightblue" points="786.894,-23.5435 796.358,-18.7794 785.989,-16.6023 786.894,-23.5435"/>
</g>
</g>
</svg>
