<?xml version="1.0" encoding="UTF-8" standalone="no"?>
<!DOCTYPE svg PUBLIC "-//W3C//DTD SVG 1.1//EN"
 "http://www.w3.org/Graphics/SVG/1.1/DTD/svg11.dtd">
<!-- Generated by graphviz version 2.38.0 (20140413.2041)
 -->
<!-- Title: weighed&#45;distance.hh Pages: 1 -->
<svg width="192pt" height="95pt"
 viewBox="0.00 0.00 192.00 95.00" xmlns="http://www.w3.org/2000/svg" xmlns:xlink="http://www.w3.org/1999/xlink">
<g id="graph0" class="graph" transform="scale(1 1) rotate(0) translate(4 91)">
<title>weighed&#45;distance.hh</title>
<polygon fill="white" stroke="none" points="-4,4 -4,-91 188,-91 188,4 -4,4"/>
<!-- Node1 -->
<g id="node1" class="node"><title>Node1</title>
<polygon fill="#bfbfbf" stroke="black" points="28,-67.5 28,-86.5 134,-86.5 134,-67.5 28,-67.5"/>
<text text-anchor="middle" x="81" y="-74.5" font-family="Helvetica,sans-Serif" font-size="10.00">weighed&#45;distance.hh</text>
</g>
<!-- Node2 -->
<g id="node2" class="node"><title>Node2</title>
<g id="a_node2"><a xlink:href="a00149.html" target="_top" xlink:title="hermite.hh">
<polygon fill="white" stroke="black" points="0,-6 0,-25 62,-25 62,-6 0,-6"/>
<text text-anchor="middle" x="31" y="-13" font-family="Helvetica,sans-Serif" font-size="10.00">hermite.hh</text>
</a>
</g>
</g>
<!-- Node1&#45;&gt;Node2 -->
<g id="edge1" class="edge"><title>Node1&#45;&gt;Node2</title>
<path fill="none" stroke="midnightblue" d="M67.2761,-59.6685C57.8504,-48.452 45.7194,-34.0161 38.1505,-25.0091"/>
<polygon fill="midnightblue" stroke="midnightblue" points="64.7232,-62.071 73.8362,-67.4751 70.0823,-57.5676 64.7232,-62.071"/>
</g>
<!-- Node3 -->
<g id="node3" class="node"><title>Node3</title>
<g id="a_node3"><a xlink:href="a00152.html" target="_top" xlink:title="interpolated&#45;steering\l&#45;method.hh">
<polygon fill="white" stroke="black" points="80,-0.5 80,-30.5 184,-30.5 184,-0.5 80,-0.5"/>
<text text-anchor="start" x="88" y="-18.5" font-family="Helvetica,sans-Serif" font-size="10.00">interpolated&#45;steering</text>
<text text-anchor="middle" x="132" y="-7.5" font-family="Helvetica,sans-Serif" font-size="10.00">&#45;method.hh</text>
</a>
</g>
</g>
<!-- Node1&#45;&gt;Node3 -->
<g id="edge2" class="edge"><title>Node1&#45;&gt;Node3</title>
<path fill="none" stroke="midnightblue" d="M94.8765,-59.8108C102.73,-50.6486 112.454,-39.3032 119.98,-30.523"/>
<polygon fill="midnightblue" stroke="midnightblue" points="92.1576,-57.6047 88.3071,-67.4751 97.4724,-62.1603 92.1576,-57.6047"/>
</g>
</g>
</svg>
