<?xml version="1.0" encoding="UTF-8" standalone="no"?>
<!DOCTYPE svg PUBLIC "-//W3C//DTD SVG 1.1//EN"
 "http://www.w3.org/Graphics/SVG/1.1/DTD/svg11.dtd">
<!-- Generated by graphviz version 2.38.0 (20140413.2041)
 -->
<!-- Title: hpp::core::AllCollisionsValidationReport Pages: 1 -->
<svg width="750pt" height="102pt"
 viewBox="0.00 0.00 750.00 101.50" xmlns="http://www.w3.org/2000/svg" xmlns:xlink="http://www.w3.org/1999/xlink">
<g id="graph0" class="graph" transform="scale(1 1) rotate(0) translate(4 97.5)">
<title>hpp::core::AllCollisionsValidationReport</title>
<polygon fill="white" stroke="none" points="-4,4 -4,-97.5 746,-97.5 746,4 -4,4"/>
<!-- Node1 -->
<g id="node1" class="node"><title>Node1</title>
<polygon fill="#bfbfbf" stroke="black" points="625,-18.5 625,-48.5 742,-48.5 742,-18.5 625,-18.5"/>
<text text-anchor="start" x="633" y="-36.5" font-family="Helvetica,sans-Serif" font-size="10.00">hpp::core::AllCollisions</text>
<text text-anchor="middle" x="683.5" y="-25.5" font-family="Helvetica,sans-Serif" font-size="10.00">ValidationReport</text>
</g>
<!-- Node2 -->
<g id="node2" class="node"><title>Node2</title>
<g id="a_node2"><a xlink:href="a00013.html" target="_top" xlink:title="Validate a configuration with respect to collision. ">
<polygon fill="white" stroke="black" points="368.5,-49.5 368.5,-79.5 511.5,-79.5 511.5,-49.5 368.5,-49.5"/>
<text text-anchor="start" x="376.5" y="-67.5" font-family="Helvetica,sans-Serif" font-size="10.00">hpp::core::CollisionValidation</text>
<text text-anchor="middle" x="440" y="-56.5" font-family="Helvetica,sans-Serif" font-size="10.00">Report</text>
</a>
</g>
</g>
<!-- Node2&#45;&gt;Node1 -->
<g id="edge1" class="edge"><title>Node2&#45;&gt;Node1</title>
<path fill="none" stroke="midnightblue" d="M521.821,-54.1255C555.603,-49.789 594.084,-44.8494 624.917,-40.8916"/>
<polygon fill="midnightblue" stroke="midnightblue" points="520.974,-50.7054 511.501,-55.4502 521.865,-57.6484 520.974,-50.7054"/>
</g>
<!-- Node3 -->
<g id="node3" class="node"><title>Node3</title>
<g id="a_node3"><a xlink:href="a00106.html" target="_top" xlink:title="Abstraction of validation report for paths and configurations. ">
<polygon fill="white" stroke="black" points="132,-74 132,-93 267,-93 267,-74 132,-74"/>
<text text-anchor="middle" x="199.5" y="-81" font-family="Helvetica,sans-Serif" font-size="10.00">hpp::core::ValidationReport</text>
</a>
</g>
</g>
<!-- Node3&#45;&gt;Node2 -->
<g id="edge2" class="edge"><title>Node3&#45;&gt;Node2</title>
<path fill="none" stroke="midnightblue" d="M277.383,-77.3751C306.52,-75.054 339.535,-72.4239 368.095,-70.1486"/>
<polygon fill="midnightblue" stroke="midnightblue" points="276.943,-73.899 267.253,-78.1822 277.499,-80.8769 276.943,-73.899"/>
</g>
<!-- Node4 -->
<g id="node4" class="node"><title>Node4</title>
<g id="a_node4"><a xlink:title="STL class. ">
<polygon fill="white" stroke="#bfbfbf" points="169.5,-36 169.5,-55 229.5,-55 229.5,-36 169.5,-36"/>
<text text-anchor="middle" x="199.5" y="-43" font-family="Helvetica,sans-Serif" font-size="10.00">std::string</text>
</a>
</g>
</g>
<!-- Node4&#45;&gt;Node2 -->
<g id="edge3" class="edge"><title>Node4&#45;&gt;Node2</title>
<path fill="none" stroke="#9a32cd" stroke-dasharray="5,2" d="M239.822,-43.3647C269.16,-42.2892 310.186,-41.879 346,-45.5 355.1,-46.42 364.625,-47.8342 373.963,-49.4849"/>
<polygon fill="#9a32cd" stroke="#9a32cd" points="239.421,-39.8781 229.573,-43.7848 239.708,-46.8722 239.421,-39.8781"/>
<text text-anchor="middle" x="315.5" y="-59.5" font-family="Helvetica,sans-Serif" font-size="10.00"> objectName1</text>
<text text-anchor="middle" x="315.5" y="-48.5" font-family="Helvetica,sans-Serif" font-size="10.00">objectName2</text>
</g>
<!-- Node5 -->
<g id="node5" class="node"><title>Node5</title>
<g id="a_node5"><a xlink:title="STL class. ">
<polygon fill="white" stroke="#bfbfbf" points="0,-30.5 0,-60.5 95,-60.5 95,-30.5 0,-30.5"/>
<text text-anchor="start" x="8" y="-48.5" font-family="Helvetica,sans-Serif" font-size="10.00">std::basic_string&lt;</text>
<text text-anchor="middle" x="47.5" y="-37.5" font-family="Helvetica,sans-Serif" font-size="10.00"> char &gt;</text>
</a>
</g>
</g>
<!-- Node5&#45;&gt;Node4 -->
<g id="edge4" class="edge"><title>Node5&#45;&gt;Node4</title>
<path fill="none" stroke="midnightblue" d="M105.314,-45.5C127.145,-45.5 151.164,-45.5 169.348,-45.5"/>
<polygon fill="midnightblue" stroke="midnightblue" points="105.139,-42.0001 95.1387,-45.5 105.139,-49.0001 105.139,-42.0001"/>
</g>
<!-- Node6 -->
<g id="node6" class="node"><title>Node6</title>
<polygon fill="white" stroke="#bfbfbf" points="364,-0.5 364,-30.5 516,-30.5 516,-0.5 364,-0.5"/>
<text text-anchor="start" x="372" y="-18.5" font-family="Helvetica,sans-Serif" font-size="10.00">std::vector&lt; CollisionValidation</text>
<text text-anchor="middle" x="440" y="-7.5" font-family="Helvetica,sans-Serif" font-size="10.00">ReportPtr_t &gt;</text>
</g>
<!-- Node6&#45;&gt;Node1 -->
<g id="edge5" class="edge"><title>Node6&#45;&gt;Node1</title>
<path fill="none" stroke="#9a32cd" stroke-dasharray="5,2" d="M526.371,-21.5541C552.271,-23.4224 580.801,-25.5121 607,-27.5 612.769,-27.9377 618.785,-28.4023 624.793,-28.8714"/>
<polygon fill="#9a32cd" stroke="#9a32cd" points="526.432,-18.0495 516.207,-20.8225 525.93,-25.0315 526.432,-18.0495"/>
<text text-anchor="middle" x="570.5" y="-30.5" font-family="Helvetica,sans-Serif" font-size="10.00"> collisionReports</text>
</g>
</g>
</svg>
