<?xml version="1.0" encoding="UTF-8" standalone="no"?>
<!DOCTYPE svg PUBLIC "-//W3C//DTD SVG 1.1//EN"
 "http://www.w3.org/Graphics/SVG/1.1/DTD/svg11.dtd">
<!-- Generated by graphviz version 2.38.0 (20140413.2041)
 -->
<!-- Title: path&#45;validation&#45;report.hh Pages: 1 -->
<svg width="337pt" height="151pt"
 viewBox="0.00 0.00 337.00 151.00" xmlns="http://www.w3.org/2000/svg" xmlns:xlink="http://www.w3.org/1999/xlink">
<g id="graph0" class="graph" transform="scale(1 1) rotate(0) translate(4 147)">
<title>path&#45;validation&#45;report.hh</title>
<polygon fill="white" stroke="none" points="-4,4 -4,-147 333,-147 333,4 -4,4"/>
<!-- Node1 -->
<g id="node1" class="node"><title>Node1</title>
<polygon fill="#bfbfbf" stroke="black" points="67.5,-123.5 67.5,-142.5 188.5,-142.5 188.5,-123.5 67.5,-123.5"/>
<text text-anchor="middle" x="128" y="-130.5" font-family="Helvetica,sans-Serif" font-size="10.00">path&#45;validation&#45;report.hh</text>
</g>
<!-- Node2 -->
<g id="node2" class="node"><title>Node2</title>
<g id="a_node2"><a xlink:href="a00113.html" target="_top" xlink:title="collision&#45;path&#45;validation\l&#45;report.hh">
<polygon fill="white" stroke="black" points="0,-56.5 0,-86.5 118,-86.5 118,-56.5 0,-56.5"/>
<text text-anchor="start" x="8" y="-74.5" font-family="Helvetica,sans-Serif" font-size="10.00">collision&#45;path&#45;validation</text>
<text text-anchor="middle" x="59" y="-63.5" font-family="Helvetica,sans-Serif" font-size="10.00">&#45;report.hh</text>
</a>
</g>
</g>
<!-- Node1&#45;&gt;Node2 -->
<g id="edge1" class="edge"><title>Node1&#45;&gt;Node2</title>
<path fill="none" stroke="midnightblue" d="M110.514,-116.921C99.6799,-107.579 85.8597,-95.6616 75.2619,-86.523"/>
<polygon fill="midnightblue" stroke="midnightblue" points="108.255,-119.595 118.114,-123.475 112.826,-114.294 108.255,-119.595"/>
</g>
<!-- Node3 -->
<g id="node3" class="node"><title>Node3</title>
<g id="a_node3"><a xlink:href="a00126.html" target="_top" xlink:title="continuous&#45;validation.hh">
<polygon fill="white" stroke="black" points="136,-62 136,-81 258,-81 258,-62 136,-62"/>
<text text-anchor="middle" x="197" y="-69" font-family="Helvetica,sans-Serif" font-size="10.00">continuous&#45;validation.hh</text>
</a>
</g>
</g>
<!-- Node1&#45;&gt;Node3 -->
<g id="edge2" class="edge"><title>Node1&#45;&gt;Node3</title>
<path fill="none" stroke="midnightblue" d="M145.801,-116.65C158.956,-105.306 176.38,-90.2811 187.132,-81.0091"/>
<polygon fill="midnightblue" stroke="midnightblue" points="143.174,-114.294 137.886,-123.475 147.745,-119.595 143.174,-114.294"/>
</g>
<!-- Node4 -->
<g id="node4" class="node"><title>Node4</title>
<g id="a_node4"><a xlink:href="a00128.html" target="_top" xlink:title="dichotomy.hh">
<polygon fill="white" stroke="black" points="69.5,-0.5 69.5,-19.5 144.5,-19.5 144.5,-0.5 69.5,-0.5"/>
<text text-anchor="middle" x="107" y="-7.5" font-family="Helvetica,sans-Serif" font-size="10.00">dichotomy.hh</text>
</a>
</g>
</g>
<!-- Node3&#45;&gt;Node4 -->
<g id="edge3" class="edge"><title>Node3&#45;&gt;Node4</title>
<path fill="none" stroke="midnightblue" d="M175.717,-56.4295C158.366,-44.9589 134.43,-29.1343 119.871,-19.5091"/>
<polygon fill="midnightblue" stroke="midnightblue" points="173.833,-59.3798 184.105,-61.9751 177.694,-53.5405 173.833,-59.3798"/>
</g>
<!-- Node5 -->
<g id="node5" class="node"><title>Node5</title>
<g id="a_node5"><a xlink:href="a00150.html" target="_top" xlink:title="initializer.hh">
<polygon fill="white" stroke="black" points="163,-0.5 163,-19.5 231,-19.5 231,-0.5 163,-0.5"/>
<text text-anchor="middle" x="197" y="-7.5" font-family="Helvetica,sans-Serif" font-size="10.00">initializer.hh</text>
</a>
</g>
</g>
<!-- Node3&#45;&gt;Node5 -->
<g id="edge4" class="edge"><title>Node3&#45;&gt;Node5</title>
<path fill="none" stroke="midnightblue" d="M197,-51.8165C197,-40.9962 197,-27.898 197,-19.5091"/>
<polygon fill="midnightblue" stroke="midnightblue" points="193.5,-51.9751 197,-61.9751 200.5,-51.9751 193.5,-51.9751"/>
</g>
<!-- Node6 -->
<g id="node6" class="node"><title>Node6</title>
<g id="a_node6"><a xlink:href="a00182.html" target="_top" xlink:title="progressive.hh">
<polygon fill="white" stroke="black" points="249,-0.5 249,-19.5 329,-19.5 329,-0.5 249,-0.5"/>
<text text-anchor="middle" x="289" y="-7.5" font-family="Helvetica,sans-Serif" font-size="10.00">progressive.hh</text>
</a>
</g>
</g>
<!-- Node3&#45;&gt;Node6 -->
<g id="edge5" class="edge"><title>Node3&#45;&gt;Node6</title>
<path fill="none" stroke="midnightblue" d="M218.756,-56.4295C236.492,-44.9589 260.96,-29.1343 275.843,-19.5091"/>
<polygon fill="midnightblue" stroke="midnightblue" points="216.678,-53.6055 210.181,-61.9751 220.479,-59.4834 216.678,-53.6055"/>
</g>
</g>
</svg>
