<?xml version="1.0" encoding="UTF-8" standalone="no"?>
<!DOCTYPE svg PUBLIC "-//W3C//DTD SVG 1.1//EN"
 "http://www.w3.org/Graphics/SVG/1.1/DTD/svg11.dtd">
<!-- Generated by graphviz version 2.38.0 (20140413.2041)
 -->
<!-- Title: solid&#45;solid&#45;collision.hh Pages: 1 -->
<svg width="1173pt" height="363pt"
 viewBox="0.00 0.00 1173.00 363.00" xmlns="http://www.w3.org/2000/svg" xmlns:xlink="http://www.w3.org/1999/xlink">
<g id="graph0" class="graph" transform="scale(1 1) rotate(0) translate(4 359)">
<title>solid&#45;solid&#45;collision.hh</title>
<polygon fill="white" stroke="none" points="-4,4 -4,-359 1169,-359 1169,4 -4,4"/>
<!-- Node1 -->
<g id="node1" class="node"><title>Node1</title>
<polygon fill="#bfbfbf" stroke="black" points="280,-335.5 280,-354.5 392,-354.5 392,-335.5 280,-335.5"/>
<text text-anchor="middle" x="336" y="-342.5" font-family="Helvetica,sans-Serif" font-size="10.00">solid&#45;solid&#45;collision.hh</text>
</g>
<!-- Node2 -->
<g id="node2" class="node"><title>Node2</title>
<g id="a_node2"><a xlink:href="a00111.html" target="_top" xlink:title="hpp/core/continuous\l&#45;validation/body&#45;pair\l&#45;collision.hh">
<polygon fill="white" stroke="black" points="284,-257.5 284,-298.5 388,-298.5 388,-257.5 284,-257.5"/>
<text text-anchor="start" x="292" y="-286.5" font-family="Helvetica,sans-Serif" font-size="10.00">hpp/core/continuous</text>
<text text-anchor="start" x="292" y="-275.5" font-family="Helvetica,sans-Serif" font-size="10.00">&#45;validation/body&#45;pair</text>
<text text-anchor="middle" x="336" y="-264.5" font-family="Helvetica,sans-Serif" font-size="10.00">&#45;collision.hh</text>
</a>
</g>
</g>
<!-- Node1&#45;&gt;Node2 -->
<g id="edge1" class="edge"><title>Node1&#45;&gt;Node2</title>
<path fill="none" stroke="midnightblue" d="M336,-335.234C336,-328.363 336,-318.38 336,-308.726"/>
<polygon fill="midnightblue" stroke="midnightblue" points="339.5,-308.542 336,-298.542 332.5,-308.542 339.5,-308.542"/>
</g>
<!-- Node3 -->
<g id="node3" class="node"><title>Node3</title>
<polygon fill="white" stroke="#bfbfbf" points="0,-112.5 0,-142.5 104,-142.5 104,-112.5 0,-112.5"/>
<text text-anchor="start" x="8" y="-130.5" font-family="Helvetica,sans-Serif" font-size="10.00">boost/icl/continuous</text>
<text text-anchor="middle" x="52" y="-119.5" font-family="Helvetica,sans-Serif" font-size="10.00">_interval.hpp</text>
</g>
<!-- Node2&#45;&gt;Node3 -->
<g id="edge2" class="edge"><title>Node2&#45;&gt;Node3</title>
<path fill="none" stroke="midnightblue" d="M298.58,-257.434C243.619,-228.695 141.757,-175.433 87.7595,-147.198"/>
<polygon fill="midnightblue" stroke="midnightblue" points="89.3704,-144.091 78.8869,-142.559 86.1268,-150.294 89.3704,-144.091"/>
</g>
<!-- Node4 -->
<g id="node4" class="node"><title>Node4</title>
<polygon fill="white" stroke="#bfbfbf" points="238,-112.5 238,-142.5 326,-142.5 326,-112.5 238,-112.5"/>
<text text-anchor="start" x="246" y="-130.5" font-family="Helvetica,sans-Serif" font-size="10.00">boost/icl/interval</text>
<text text-anchor="middle" x="282" y="-119.5" font-family="Helvetica,sans-Serif" font-size="10.00">_set.hpp</text>
</g>
<!-- Node2&#45;&gt;Node4 -->
<g id="edge3" class="edge"><title>Node2&#45;&gt;Node4</title>
<path fill="none" stroke="midnightblue" d="M328.829,-257.28C318.966,-230.157 301.236,-181.398 290.649,-152.286"/>
<polygon fill="midnightblue" stroke="midnightblue" points="293.807,-150.728 287.1,-142.526 287.229,-153.12 293.807,-150.728"/>
</g>
<!-- Node5 -->
<g id="node5" class="node"><title>Node5</title>
<g id="a_node5"><a xlink:href="a00114.html" target="_top" xlink:title="hpp/core/collision\l&#45;validation&#45;report.hh">
<polygon fill="white" stroke="black" points="330,-185 330,-215 432,-215 432,-185 330,-185"/>
<text text-anchor="start" x="338" y="-203" font-family="Helvetica,sans-Serif" font-size="10.00">hpp/core/collision</text>
<text text-anchor="middle" x="381" y="-192" font-family="Helvetica,sans-Serif" font-size="10.00">&#45;validation&#45;report.hh</text>
</a>
</g>
</g>
<!-- Node2&#45;&gt;Node5 -->
<g id="edge4" class="edge"><title>Node2&#45;&gt;Node5</title>
<path fill="none" stroke="midnightblue" d="M347.589,-257.428C353.631,-247.223 361.059,-234.679 367.375,-224.011"/>
<polygon fill="midnightblue" stroke="midnightblue" points="370.494,-225.613 372.577,-215.225 364.47,-222.047 370.494,-225.613"/>
</g>
<!-- Node20 -->
<g id="node20" class="node"><title>Node20</title>
<g id="a_node20"><a xlink:href="a00153.html" target="_top" xlink:title="hpp/core/continuous\l&#45;validation/interval\l&#45;validation.hh">
<polygon fill="white" stroke="black" points="611,-179.5 611,-220.5 715,-220.5 715,-179.5 611,-179.5"/>
<text text-anchor="start" x="619" y="-208.5" font-family="Helvetica,sans-Serif" font-size="10.00">hpp/core/continuous</text>
<text text-anchor="start" x="619" y="-197.5" font-family="Helvetica,sans-Serif" font-size="10.00">&#45;validation/interval</text>
<text text-anchor="middle" x="663" y="-186.5" font-family="Helvetica,sans-Serif" font-size="10.00">&#45;validation.hh</text>
</a>
</g>
</g>
<!-- Node2&#45;&gt;Node20 -->
<g id="edge20" class="edge"><title>Node2&#45;&gt;Node20</title>
<path fill="none" stroke="midnightblue" d="M388.176,-264.874C445.993,-251.436 539.182,-229.777 600.761,-215.465"/>
<polygon fill="midnightblue" stroke="midnightblue" points="601.792,-218.819 610.74,-213.146 600.207,-212.001 601.792,-218.819"/>
</g>
<!-- Node6 -->
<g id="node6" class="node"><title>Node6</title>
<g id="a_node6"><a doxygen="/local/devel/hpp/install/share/doc/hpp-pinocchio/doxygen-html/hpp-pinocchio.doxytag:../../hpp-pinocchio/doxygen-html/" xlink:href="../../hpp-pinocchio/doxygen-html/a00091.html" target="_top" xlink:title="hpp/pinocchio/collision\l&#45;object.hh">
<polygon fill="white" stroke="black" points="343.5,-112.5 343.5,-142.5 458.5,-142.5 458.5,-112.5 343.5,-112.5"/>
<text text-anchor="start" x="351.5" y="-130.5" font-family="Helvetica,sans-Serif" font-size="10.00">hpp/pinocchio/collision</text>
<text text-anchor="middle" x="401" y="-119.5" font-family="Helvetica,sans-Serif" font-size="10.00">&#45;object.hh</text>
</a>
</g>
</g>
<!-- Node5&#45;&gt;Node6 -->
<g id="edge5" class="edge"><title>Node5&#45;&gt;Node6</title>
<path fill="none" stroke="midnightblue" d="M385.047,-184.733C387.677,-175.464 391.17,-163.152 394.217,-152.411"/>
<polygon fill="midnightblue" stroke="midnightblue" points="397.597,-153.321 396.959,-142.746 390.862,-151.411 397.597,-153.321"/>
</g>
<!-- Node8 -->
<g id="node8" class="node"><title>Node8</title>
<g id="a_node8"><a xlink:href="a00210.html" target="_top" xlink:title="hpp/core/validation\l&#45;report.hh">
<polygon fill="white" stroke="black" points="122,-112.5 122,-142.5 220,-142.5 220,-112.5 122,-112.5"/>
<text text-anchor="start" x="130" y="-130.5" font-family="Helvetica,sans-Serif" font-size="10.00">hpp/core/validation</text>
<text text-anchor="middle" x="171" y="-119.5" font-family="Helvetica,sans-Serif" font-size="10.00">&#45;report.hh</text>
</a>
</g>
</g>
<!-- Node5&#45;&gt;Node8 -->
<g id="edge7" class="edge"><title>Node5&#45;&gt;Node8</title>
<path fill="none" stroke="midnightblue" d="M339.26,-184.987C305.803,-173.755 258.686,-157.937 222.818,-145.896"/>
<polygon fill="midnightblue" stroke="midnightblue" points="223.614,-142.471 213.02,-142.607 221.387,-149.108 223.614,-142.471"/>
</g>
<!-- Node19 -->
<g id="node19" class="node"><title>Node19</title>
<polygon fill="white" stroke="#bfbfbf" points="477,-118 477,-137 593,-137 593,-118 477,-118"/>
<text text-anchor="middle" x="535" y="-125" font-family="Helvetica,sans-Serif" font-size="10.00">hpp/fcl/collision_data.h</text>
</g>
<!-- Node5&#45;&gt;Node19 -->
<g id="edge19" class="edge"><title>Node5&#45;&gt;Node19</title>
<path fill="none" stroke="midnightblue" d="M411.794,-184.903C439.624,-172.162 480.234,-153.571 507.123,-141.262"/>
<polygon fill="midnightblue" stroke="midnightblue" points="508.724,-144.378 516.359,-137.034 505.81,-138.014 508.724,-144.378"/>
</g>
<!-- Node7 -->
<g id="node7" class="node"><title>Node7</title>
<g id="a_node7"><a doxygen="/local/devel/hpp/install/share/doc/hpp-pinocchio/doxygen-html/hpp-pinocchio.doxytag:../../hpp-pinocchio/doxygen-html/" xlink:href="../../hpp-pinocchio/doxygen-html/a00098.html" target="_top" xlink:title="hpp/pinocchio/fwd.hh">
<polygon fill="white" stroke="black" points="651.5,-56.5 651.5,-75.5 760.5,-75.5 760.5,-56.5 651.5,-56.5"/>
<text text-anchor="middle" x="706" y="-63.5" font-family="Helvetica,sans-Serif" font-size="10.00">hpp/pinocchio/fwd.hh</text>
</a>
</g>
</g>
<!-- Node6&#45;&gt;Node7 -->
<g id="edge6" class="edge"><title>Node6&#45;&gt;Node7</title>
<path fill="none" stroke="midnightblue" d="M458.723,-113.907C461.86,-113.254 464.967,-112.615 468,-112 529.755,-99.4817 600.756,-86.2008 649.021,-77.3389"/>
<polygon fill="midnightblue" stroke="midnightblue" points="649.759,-80.7621 658.964,-75.5168 648.497,-73.8767 649.759,-80.7621"/>
</g>
<!-- Node9 -->
<g id="node9" class="node"><title>Node9</title>
<polygon fill="white" stroke="#bfbfbf" points="183.5,-0.5 183.5,-19.5 280.5,-19.5 280.5,-0.5 183.5,-0.5"/>
<text text-anchor="middle" x="232" y="-7.5" font-family="Helvetica,sans-Serif" font-size="10.00">hpp/core/config.hh</text>
</g>
<!-- Node8&#45;&gt;Node9 -->
<g id="edge8" class="edge"><title>Node8&#45;&gt;Node9</title>
<path fill="none" stroke="midnightblue" d="M178.48,-112.337C189.62,-91.2433 210.558,-51.6 222.679,-28.6481"/>
<polygon fill="midnightblue" stroke="midnightblue" points="225.846,-30.1465 227.421,-19.6695 219.656,-26.8774 225.846,-30.1465"/>
</g>
<!-- Node10 -->
<g id="node10" class="node"><title>Node10</title>
<g id="a_node10"><a xlink:href="a00001.html" target="_top" xlink:title="hpp/core/fwd.hh">
<polygon fill="white" stroke="black" points="536,-56.5 536,-75.5 622,-75.5 622,-56.5 536,-56.5"/>
<text text-anchor="middle" x="579" y="-63.5" font-family="Helvetica,sans-Serif" font-size="10.00">hpp/core/fwd.hh</text>
</a>
</g>
</g>
<!-- Node8&#45;&gt;Node10 -->
<g id="edge9" class="edge"><title>Node8&#45;&gt;Node10</title>
<path fill="none" stroke="midnightblue" d="M220.274,-113.764C223.219,-113.133 226.144,-112.539 229,-112 333.362,-92.3159 456.873,-78.656 525.746,-71.8875"/>
<polygon fill="midnightblue" stroke="midnightblue" points="526.297,-75.3506 535.911,-70.8997 525.62,-68.3834 526.297,-75.3506"/>
</g>
<!-- Node10&#45;&gt;Node9 -->
<g id="edge17" class="edge"><title>Node10&#45;&gt;Node9</title>
<path fill="none" stroke="midnightblue" d="M535.754,-58.27C473.848,-48.6363 359.806,-30.8891 290.441,-20.0945"/>
<polygon fill="midnightblue" stroke="midnightblue" points="290.961,-16.6335 280.542,-18.5541 289.885,-23.5502 290.961,-16.6335"/>
</g>
<!-- Node11 -->
<g id="node11" class="node"><title>Node11</title>
<polygon fill="white" stroke="#bfbfbf" points="442,-0.5 442,-19.5 486,-19.5 486,-0.5 442,-0.5"/>
<text text-anchor="middle" x="464" y="-7.5" font-family="Helvetica,sans-Serif" font-size="10.00">vector</text>
</g>
<!-- Node10&#45;&gt;Node11 -->
<g id="edge10" class="edge"><title>Node10&#45;&gt;Node11</title>
<path fill="none" stroke="midnightblue" d="M560.778,-56.4435C542.104,-47.6751 512.844,-33.9355 491.383,-23.8579"/>
<polygon fill="midnightblue" stroke="midnightblue" points="492.676,-20.5988 482.137,-19.5164 489.701,-26.935 492.676,-20.5988"/>
</g>
<!-- Node12 -->
<g id="node12" class="node"><title>Node12</title>
<polygon fill="white" stroke="#bfbfbf" points="504.5,-0.5 504.5,-19.5 539.5,-19.5 539.5,-0.5 504.5,-0.5"/>
<text text-anchor="middle" x="522" y="-7.5" font-family="Helvetica,sans-Serif" font-size="10.00">map</text>
</g>
<!-- Node10&#45;&gt;Node12 -->
<g id="edge11" class="edge"><title>Node10&#45;&gt;Node12</title>
<path fill="none" stroke="midnightblue" d="M569.842,-56.324C561.499,-48.4196 548.968,-36.5482 538.823,-26.9377"/>
<polygon fill="midnightblue" stroke="midnightblue" points="540.991,-24.1705 531.325,-19.8339 536.177,-29.2522 540.991,-24.1705"/>
</g>
<!-- Node13 -->
<g id="node13" class="node"><title>Node13</title>
<polygon fill="white" stroke="#bfbfbf" points="557.5,-0.5 557.5,-19.5 600.5,-19.5 600.5,-0.5 557.5,-0.5"/>
<text text-anchor="middle" x="579" y="-7.5" font-family="Helvetica,sans-Serif" font-size="10.00">deque</text>
</g>
<!-- Node10&#45;&gt;Node13 -->
<g id="edge12" class="edge"><title>Node10&#45;&gt;Node13</title>
<path fill="none" stroke="midnightblue" d="M579,-56.083C579,-49.0059 579,-38.8611 579,-29.9865"/>
<polygon fill="midnightblue" stroke="midnightblue" points="582.5,-29.751 579,-19.7511 575.5,-29.7511 582.5,-29.751"/>
</g>
<!-- Node14 -->
<g id="node14" class="node"><title>Node14</title>
<polygon fill="white" stroke="#bfbfbf" points="618.5,-0.5 618.5,-19.5 647.5,-19.5 647.5,-0.5 618.5,-0.5"/>
<text text-anchor="middle" x="633" y="-7.5" font-family="Helvetica,sans-Serif" font-size="10.00">list</text>
</g>
<!-- Node10&#45;&gt;Node14 -->
<g id="edge13" class="edge"><title>Node10&#45;&gt;Node14</title>
<path fill="none" stroke="midnightblue" d="M587.917,-56.083C595.78,-48.2195 607.431,-36.5688 616.919,-27.0813"/>
<polygon fill="midnightblue" stroke="midnightblue" points="619.653,-29.2971 624.249,-19.7511 614.703,-24.3473 619.653,-29.2971"/>
</g>
<!-- Node15 -->
<g id="node15" class="node"><title>Node15</title>
<polygon fill="white" stroke="#bfbfbf" points="666,-0.5 666,-19.5 696,-19.5 696,-0.5 666,-0.5"/>
<text text-anchor="middle" x="681" y="-7.5" font-family="Helvetica,sans-Serif" font-size="10.00">set</text>
</g>
<!-- Node10&#45;&gt;Node15 -->
<g id="edge14" class="edge"><title>Node10&#45;&gt;Node15</title>
<path fill="none" stroke="midnightblue" d="M595.388,-56.324C612.057,-47.4994 638.065,-33.7302 657.044,-23.6827"/>
<polygon fill="midnightblue" stroke="midnightblue" points="658.782,-26.7228 665.982,-18.9507 655.507,-20.5363 658.782,-26.7228"/>
</g>
<!-- Node16 -->
<g id="node16" class="node"><title>Node16</title>
<g id="a_node16"><a doxygen="/local/devel/hpp/install/share/doc/hpp-util/doxygen-html/hpp-util.doxytag:../../hpp-util/doxygen-html/" xlink:href="../../hpp-util/doxygen-html/a00028.html" target="_top" xlink:title="hpp/util/pointer.hh">
<polygon fill="white" stroke="black" points="714,-0.5 714,-19.5 808,-19.5 808,-0.5 714,-0.5"/>
<text text-anchor="middle" x="761" y="-7.5" font-family="Helvetica,sans-Serif" font-size="10.00">hpp/util/pointer.hh</text>
</a>
</g>
</g>
<!-- Node10&#45;&gt;Node16 -->
<g id="edge15" class="edge"><title>Node10&#45;&gt;Node16</title>
<path fill="none" stroke="midnightblue" d="M607.838,-56.4435C638.856,-47.2406 688.329,-32.5617 722.618,-22.3879"/>
<polygon fill="midnightblue" stroke="midnightblue" points="723.705,-25.7164 732.296,-19.5164 721.714,-19.0055 723.705,-25.7164"/>
</g>
<!-- Node17 -->
<g id="node17" class="node"><title>Node17</title>
<g id="a_node17"><a doxygen="/local/devel/hpp/install/share/doc/hpp-constraints/doxygen-html/hpp-constraints.doxytag:../../hpp-constraints/doxygen-html/" xlink:href="../../hpp-constraints/doxygen-html/a00001.html" target="_top" xlink:title="hpp/constraints/fwd.hh">
<polygon fill="white" stroke="black" points="308,-0.5 308,-19.5 424,-19.5 424,-0.5 308,-0.5"/>
<text text-anchor="middle" x="366" y="-7.5" font-family="Helvetica,sans-Serif" font-size="10.00">hpp/constraints/fwd.hh</text>
</a>
</g>
</g>
<!-- Node10&#45;&gt;Node17 -->
<g id="edge16" class="edge"><title>Node10&#45;&gt;Node17</title>
<path fill="none" stroke="midnightblue" d="M545.25,-56.4435C508.482,-47.1221 449.554,-32.1828 409.378,-21.9972"/>
<polygon fill="midnightblue" stroke="midnightblue" points="410.146,-18.5813 399.593,-19.5164 408.426,-25.3666 410.146,-18.5813"/>
</g>
<!-- Node18 -->
<g id="node18" class="node"><title>Node18</title>
<polygon fill="white" stroke="#bfbfbf" points="843.5,-0.5 843.5,-19.5 962.5,-19.5 962.5,-0.5 843.5,-0.5"/>
<text text-anchor="middle" x="903" y="-7.5" font-family="Helvetica,sans-Serif" font-size="10.00">hpp/core/deprecated.hh</text>
</g>
<!-- Node10&#45;&gt;Node18 -->
<g id="edge18" class="edge"><title>Node10&#45;&gt;Node18</title>
<path fill="none" stroke="midnightblue" d="M622.025,-57.8292C678.396,-48.4339 777.604,-31.8994 841.789,-21.2019"/>
<polygon fill="midnightblue" stroke="midnightblue" points="842.489,-24.6336 851.777,-19.5371 841.338,-17.7288 842.489,-24.6336"/>
</g>
<!-- Node20&#45;&gt;Node3 -->
<g id="edge23" class="edge"><title>Node20&#45;&gt;Node3</title>
<path fill="none" stroke="midnightblue" d="M610.585,-194.061C488.896,-182.541 192.243,-154.129 114.362,-142.954"/>
<polygon fill="midnightblue" stroke="midnightblue" points="114.568,-139.445 104.151,-141.374 113.498,-146.362 114.568,-139.445"/>
</g>
<!-- Node20&#45;&gt;Node4 -->
<g id="edge24" class="edge"><title>Node20&#45;&gt;Node4</title>
<path fill="none" stroke="midnightblue" d="M610.822,-191.82C547.702,-182.757 438.086,-165.812 336.027,-143.345"/>
<polygon fill="midnightblue" stroke="midnightblue" points="336.697,-139.908 326.176,-141.153 335.177,-146.741 336.697,-139.908"/>
</g>
<!-- Node20&#45;&gt;Node6 -->
<g id="edge29" class="edge"><title>Node20&#45;&gt;Node6</title>
<path fill="none" stroke="midnightblue" d="M610.924,-184.987C568.38,-173.539 508.131,-157.327 463.083,-145.206"/>
<polygon fill="midnightblue" stroke="midnightblue" points="463.991,-141.826 453.426,-142.607 462.173,-148.585 463.991,-141.826"/>
</g>
<!-- Node20&#45;&gt;Node10 -->
<g id="edge33" class="edge"><title>Node20&#45;&gt;Node10</title>
<path fill="none" stroke="midnightblue" d="M650.424,-179.238C634.02,-153.46 605.581,-108.77 589.996,-84.2793"/>
<polygon fill="midnightblue" stroke="midnightblue" points="592.849,-82.2431 584.527,-75.6856 586.943,-86.0013 592.849,-82.2431"/>
</g>
<!-- Node20&#45;&gt;Node18 -->
<g id="edge32" class="edge"><title>Node20&#45;&gt;Node18</title>
<path fill="none" stroke="midnightblue" d="M715.096,-194.209C778.225,-187.205 879.023,-171.759 902,-143 928.141,-110.281 917.471,-57.0117 909.223,-29.2037"/>
<polygon fill="midnightblue" stroke="midnightblue" points="912.529,-28.0491 906.159,-19.5832 905.859,-30.1738 912.529,-28.0491"/>
</g>
<!-- Node20&#45;&gt;Node19 -->
<g id="edge25" class="edge"><title>Node20&#45;&gt;Node19</title>
<path fill="none" stroke="midnightblue" d="M627.345,-179.362C605.829,-167.511 578.957,-152.711 559.758,-142.137"/>
<polygon fill="midnightblue" stroke="midnightblue" points="561.195,-138.932 550.747,-137.173 557.818,-145.064 561.195,-138.932"/>
</g>
<!-- Node21 -->
<g id="node21" class="node"><title>Node21</title>
<polygon fill="white" stroke="#bfbfbf" points="949,-118 949,-137 989,-137 989,-118 949,-118"/>
<text text-anchor="middle" x="969" y="-125" font-family="Helvetica,sans-Serif" font-size="10.00">limits</text>
</g>
<!-- Node20&#45;&gt;Node21 -->
<g id="edge21" class="edge"><title>Node20&#45;&gt;Node21</title>
<path fill="none" stroke="midnightblue" d="M715.168,-191.444C770.508,-182.695 860.11,-166.419 935,-143 937.14,-142.331 939.329,-141.574 941.514,-140.767"/>
<polygon fill="midnightblue" stroke="midnightblue" points="942.917,-143.975 950.901,-137.011 940.317,-137.476 942.917,-143.975"/>
</g>
<!-- Node22 -->
<g id="node22" class="node"><title>Node22</title>
<polygon fill="white" stroke="#bfbfbf" points="1007.5,-118 1007.5,-137 1054.5,-137 1054.5,-118 1007.5,-118"/>
<text text-anchor="middle" x="1031" y="-125" font-family="Helvetica,sans-Serif" font-size="10.00">iterator</text>
</g>
<!-- Node20&#45;&gt;Node22 -->
<g id="edge22" class="edge"><title>Node20&#45;&gt;Node22</title>
<path fill="none" stroke="midnightblue" d="M715.27,-194.321C781.965,-187.433 900.383,-172.111 998,-143 1000.14,-142.361 1002.33,-141.617 1004.51,-140.811"/>
<polygon fill="midnightblue" stroke="midnightblue" points="1005.9,-144.025 1013.84,-137.005 1003.25,-137.544 1005.9,-144.025"/>
</g>
<!-- Node23 -->
<g id="node23" class="node"><title>Node23</title>
<polygon fill="white" stroke="#bfbfbf" points="1073,-118 1073,-137 1165,-137 1165,-118 1073,-118"/>
<text text-anchor="middle" x="1119" y="-125" font-family="Helvetica,sans-Serif" font-size="10.00">hpp/fcl/collision.h</text>
</g>
<!-- Node20&#45;&gt;Node23 -->
<g id="edge26" class="edge"><title>Node20&#45;&gt;Node23</title>
<path fill="none" stroke="midnightblue" d="M715.242,-193.713C792.097,-185.483 939.95,-167.922 1064,-143 1069.01,-141.993 1074.25,-140.799 1079.42,-139.536"/>
<polygon fill="midnightblue" stroke="midnightblue" points="1080.35,-142.91 1089.18,-137.053 1078.62,-136.126 1080.35,-142.91"/>
</g>
<!-- Node24 -->
<g id="node24" class="node"><title>Node24</title>
<g id="a_node24"><a doxygen="/local/devel/hpp/install/share/doc/hpp-pinocchio/doxygen-html/hpp-pinocchio.doxytag:../../hpp-pinocchio/doxygen-html/" xlink:href="../../hpp-pinocchio/doxygen-html/a00088.html" target="_top" xlink:title="hpp/pinocchio/body.hh">
<polygon fill="white" stroke="black" points="649,-118 649,-137 763,-137 763,-118 649,-118"/>
<text text-anchor="middle" x="706" y="-125" font-family="Helvetica,sans-Serif" font-size="10.00">hpp/pinocchio/body.hh</text>
</a>
</g>
</g>
<!-- Node20&#45;&gt;Node24 -->
<g id="edge27" class="edge"><title>Node20&#45;&gt;Node24</title>
<path fill="none" stroke="midnightblue" d="M674.978,-179.362C681.381,-168.864 689.196,-156.052 695.38,-145.912"/>
<polygon fill="midnightblue" stroke="midnightblue" points="698.491,-147.533 700.71,-137.173 692.515,-143.888 698.491,-147.533"/>
</g>
<!-- Node25 -->
<g id="node25" class="node"><title>Node25</title>
<g id="a_node25"><a doxygen="/local/devel/hpp/install/share/doc/hpp-pinocchio/doxygen-html/hpp-pinocchio.doxytag:../../hpp-pinocchio/doxygen-html/" xlink:href="../../hpp-pinocchio/doxygen-html/a00102.html" target="_top" xlink:title="hpp/pinocchio/joint.hh">
<polygon fill="white" stroke="black" points="781.5,-118 781.5,-137 892.5,-137 892.5,-118 781.5,-118"/>
<text text-anchor="middle" x="837" y="-125" font-family="Helvetica,sans-Serif" font-size="10.00">hpp/pinocchio/joint.hh</text>
</a>
</g>
</g>
<!-- Node20&#45;&gt;Node25 -->
<g id="edge30" class="edge"><title>Node20&#45;&gt;Node25</title>
<path fill="none" stroke="midnightblue" d="M711.469,-179.362C741.785,-167.078 779.924,-151.626 806.161,-140.995"/>
<polygon fill="midnightblue" stroke="midnightblue" points="807.64,-144.172 815.593,-137.173 805.011,-137.685 807.64,-144.172"/>
</g>
<!-- Node24&#45;&gt;Node7 -->
<g id="edge28" class="edge"><title>Node24&#45;&gt;Node7</title>
<path fill="none" stroke="midnightblue" d="M706,-117.975C706,-109.58 706,-96.4806 706,-85.6631"/>
<polygon fill="midnightblue" stroke="midnightblue" points="709.5,-85.5091 706,-75.5091 702.5,-85.5091 709.5,-85.5091"/>
</g>
<!-- Node25&#45;&gt;Node7 -->
<g id="edge31" class="edge"><title>Node25&#45;&gt;Node7</title>
<path fill="none" stroke="midnightblue" d="M818.231,-117.975C796.149,-107.945 759.281,-91.2002 733.861,-79.6546"/>
<polygon fill="midnightblue" stroke="midnightblue" points="735.287,-76.4579 724.734,-75.5091 732.392,-82.8313 735.287,-76.4579"/>
</g>
</g>
</svg>
