<?xml version="1.0" encoding="UTF-8" standalone="no"?>
<!DOCTYPE svg PUBLIC "-//W3C//DTD SVG 1.1//EN"
 "http://www.w3.org/Graphics/SVG/1.1/DTD/svg11.dtd">
<!-- Generated by graphviz version 2.38.0 (20140413.2041)
 -->
<!-- Title: k&#45;prm&#45;star.hh Pages: 1 -->
<svg width="761pt" height="196pt"
 viewBox="0.00 0.00 760.50 196.00" xmlns="http://www.w3.org/2000/svg" xmlns:xlink="http://www.w3.org/1999/xlink">
<g id="graph0" class="graph" transform="scale(1 1) rotate(0) translate(4 192)">
<title>k&#45;prm&#45;star.hh</title>
<polygon fill="white" stroke="none" points="-4,4 -4,-192 756.5,-192 756.5,4 -4,4"/>
<!-- Node1 -->
<g id="node1" class="node"><title>Node1</title>
<polygon fill="#bfbfbf" stroke="black" points="376,-168.5 376,-187.5 450,-187.5 450,-168.5 376,-168.5"/>
<text text-anchor="middle" x="413" y="-175.5" font-family="Helvetica,sans-Serif" font-size="10.00">k&#45;prm&#45;star.hh</text>
</g>
<!-- Node2 -->
<g id="node2" class="node"><title>Node2</title>
<g id="a_node2"><a xlink:href="a00168.html" target="_top" xlink:title="hpp/core/path&#45;planner.hh">
<polygon fill="white" stroke="black" points="351,-112.5 351,-131.5 475,-131.5 475,-112.5 351,-112.5"/>
<text text-anchor="middle" x="413" y="-119.5" font-family="Helvetica,sans-Serif" font-size="10.00">hpp/core/path&#45;planner.hh</text>
</a>
</g>
</g>
<!-- Node1&#45;&gt;Node2 -->
<g id="edge1" class="edge"><title>Node1&#45;&gt;Node2</title>
<path fill="none" stroke="midnightblue" d="M413,-168.083C413,-161.006 413,-150.861 413,-141.986"/>
<polygon fill="midnightblue" stroke="midnightblue" points="416.5,-141.751 413,-131.751 409.5,-141.751 416.5,-141.751"/>
</g>
<!-- Node3 -->
<g id="node3" class="node"><title>Node3</title>
<g id="a_node3"><a xlink:href="a00001.html" target="_top" xlink:title="hpp/core/fwd.hh">
<polygon fill="white" stroke="black" points="236,-56.5 236,-75.5 322,-75.5 322,-56.5 236,-56.5"/>
<text text-anchor="middle" x="279" y="-63.5" font-family="Helvetica,sans-Serif" font-size="10.00">hpp/core/fwd.hh</text>
</a>
</g>
</g>
<!-- Node2&#45;&gt;Node3 -->
<g id="edge2" class="edge"><title>Node2&#45;&gt;Node3</title>
<path fill="none" stroke="midnightblue" d="M391.767,-112.444C369.616,-103.517 334.681,-89.4387 309.564,-79.3168"/>
<polygon fill="midnightblue" stroke="midnightblue" points="310.717,-76.0079 300.133,-75.5164 308.1,-82.5006 310.717,-76.0079"/>
</g>
<!-- Node11 -->
<g id="node11" class="node"><title>Node11</title>
<polygon fill="white" stroke="#bfbfbf" points="655.5,-0.5 655.5,-19.5 752.5,-19.5 752.5,-0.5 655.5,-0.5"/>
<text text-anchor="middle" x="704" y="-7.5" font-family="Helvetica,sans-Serif" font-size="10.00">hpp/core/config.hh</text>
</g>
<!-- Node2&#45;&gt;Node11 -->
<g id="edge12" class="edge"><title>Node2&#45;&gt;Node11</title>
<path fill="none" stroke="midnightblue" d="M435.834,-112.368C487.257,-92.9302 612.27,-45.6744 671.652,-23.2278"/>
<polygon fill="midnightblue" stroke="midnightblue" points="673.155,-26.4013 681.272,-19.5914 670.68,-19.8535 673.155,-26.4013"/>
</g>
<!-- Node4 -->
<g id="node4" class="node"><title>Node4</title>
<polygon fill="white" stroke="#bfbfbf" points="0,-0.5 0,-19.5 44,-19.5 44,-0.5 0,-0.5"/>
<text text-anchor="middle" x="22" y="-7.5" font-family="Helvetica,sans-Serif" font-size="10.00">vector</text>
</g>
<!-- Node3&#45;&gt;Node4 -->
<g id="edge3" class="edge"><title>Node3&#45;&gt;Node4</title>
<path fill="none" stroke="midnightblue" d="M235.853,-57.5492C192.334,-49.781 123.033,-36.722 54.4065,-20.1846"/>
<polygon fill="midnightblue" stroke="midnightblue" points="54.8337,-16.6864 44.2894,-17.7196 53.1767,-23.4874 54.8337,-16.6864"/>
</g>
<!-- Node5 -->
<g id="node5" class="node"><title>Node5</title>
<polygon fill="white" stroke="#bfbfbf" points="62.5,-0.5 62.5,-19.5 97.5,-19.5 97.5,-0.5 62.5,-0.5"/>
<text text-anchor="middle" x="80" y="-7.5" font-family="Helvetica,sans-Serif" font-size="10.00">map</text>
</g>
<!-- Node3&#45;&gt;Node5 -->
<g id="edge4" class="edge"><title>Node3&#45;&gt;Node5</title>
<path fill="none" stroke="midnightblue" d="M242.652,-56.4285C209.545,-48.426 159.127,-35.7533 107.259,-20.2217"/>
<polygon fill="midnightblue" stroke="midnightblue" points="108.146,-16.8334 97.5609,-17.2888 106.12,-23.5337 108.146,-16.8334"/>
</g>
<!-- Node6 -->
<g id="node6" class="node"><title>Node6</title>
<polygon fill="white" stroke="#bfbfbf" points="115.5,-0.5 115.5,-19.5 158.5,-19.5 158.5,-0.5 115.5,-0.5"/>
<text text-anchor="middle" x="137" y="-7.5" font-family="Helvetica,sans-Serif" font-size="10.00">deque</text>
</g>
<!-- Node3&#45;&gt;Node6 -->
<g id="edge5" class="edge"><title>Node3&#45;&gt;Node6</title>
<path fill="none" stroke="midnightblue" d="M256.5,-56.4435C232.784,-47.4249 195.239,-33.1472 168.567,-23.0043"/>
<polygon fill="midnightblue" stroke="midnightblue" points="169.52,-19.6221 158.928,-19.339 167.031,-26.165 169.52,-19.6221"/>
</g>
<!-- Node7 -->
<g id="node7" class="node"><title>Node7</title>
<polygon fill="white" stroke="#bfbfbf" points="176.5,-0.5 176.5,-19.5 205.5,-19.5 205.5,-0.5 176.5,-0.5"/>
<text text-anchor="middle" x="191" y="-7.5" font-family="Helvetica,sans-Serif" font-size="10.00">list</text>
</g>
<!-- Node3&#45;&gt;Node7 -->
<g id="edge6" class="edge"><title>Node3&#45;&gt;Node7</title>
<path fill="none" stroke="midnightblue" d="M264.861,-56.324C251.134,-47.9002 230.064,-34.9709 213.936,-25.0741"/>
<polygon fill="midnightblue" stroke="midnightblue" points="215.457,-21.9016 205.104,-19.6545 211.796,-27.8678 215.457,-21.9016"/>
</g>
<!-- Node8 -->
<g id="node8" class="node"><title>Node8</title>
<polygon fill="white" stroke="#bfbfbf" points="224,-0.5 224,-19.5 254,-19.5 254,-0.5 224,-0.5"/>
<text text-anchor="middle" x="239" y="-7.5" font-family="Helvetica,sans-Serif" font-size="10.00">set</text>
</g>
<!-- Node3&#45;&gt;Node8 -->
<g id="edge7" class="edge"><title>Node3&#45;&gt;Node8</title>
<path fill="none" stroke="midnightblue" d="M272.395,-56.083C266.745,-48.4554 258.455,-37.2645 251.549,-27.9408"/>
<polygon fill="midnightblue" stroke="midnightblue" points="254.247,-25.7034 245.482,-19.7511 248.622,-29.87 254.247,-25.7034"/>
</g>
<!-- Node9 -->
<g id="node9" class="node"><title>Node9</title>
<g id="a_node9"><a doxygen="/local/devel/hpp/install/share/doc/hpp-util/doxygen-html/hpp-util.doxytag:../../hpp-util/doxygen-html/" xlink:href="../../hpp-util/doxygen-html/a00028.html" target="_top" xlink:title="hpp/util/pointer.hh">
<polygon fill="white" stroke="black" points="272,-0.5 272,-19.5 366,-19.5 366,-0.5 272,-0.5"/>
<text text-anchor="middle" x="319" y="-7.5" font-family="Helvetica,sans-Serif" font-size="10.00">hpp/util/pointer.hh</text>
</a>
</g>
</g>
<!-- Node3&#45;&gt;Node9 -->
<g id="edge8" class="edge"><title>Node3&#45;&gt;Node9</title>
<path fill="none" stroke="midnightblue" d="M285.605,-56.083C291.255,-48.4554 299.545,-37.2645 306.451,-27.9408"/>
<polygon fill="midnightblue" stroke="midnightblue" points="309.378,-29.87 312.518,-19.7511 303.753,-25.7034 309.378,-29.87"/>
</g>
<!-- Node10 -->
<g id="node10" class="node"><title>Node10</title>
<g id="a_node10"><a doxygen="/local/devel/hpp/install/share/doc/hpp-constraints/doxygen-html/hpp-constraints.doxytag:../../hpp-constraints/doxygen-html/" xlink:href="../../hpp-constraints/doxygen-html/a00001.html" target="_top" xlink:title="hpp/constraints/fwd.hh">
<polygon fill="white" stroke="black" points="384,-0.5 384,-19.5 500,-19.5 500,-0.5 384,-0.5"/>
<text text-anchor="middle" x="442" y="-7.5" font-family="Helvetica,sans-Serif" font-size="10.00">hpp/constraints/fwd.hh</text>
</a>
</g>
</g>
<!-- Node3&#45;&gt;Node10 -->
<g id="edge9" class="edge"><title>Node3&#45;&gt;Node10</title>
<path fill="none" stroke="midnightblue" d="M304.828,-56.4435C332.249,-47.3591 375.777,-32.9388 406.432,-22.7831"/>
<polygon fill="midnightblue" stroke="midnightblue" points="407.901,-25.9837 416.293,-19.5164 405.7,-19.3389 407.901,-25.9837"/>
</g>
<!-- Node3&#45;&gt;Node11 -->
<g id="edge10" class="edge"><title>Node3&#45;&gt;Node11</title>
<path fill="none" stroke="midnightblue" d="M322.121,-60.2214C389.103,-52.6903 522.443,-37.2666 645.247,-20.2094"/>
<polygon fill="midnightblue" stroke="midnightblue" points="645.779,-23.6692 655.199,-18.8202 644.811,-16.7364 645.779,-23.6692"/>
</g>
<!-- Node12 -->
<g id="node12" class="node"><title>Node12</title>
<polygon fill="white" stroke="#bfbfbf" points="518.5,-0.5 518.5,-19.5 637.5,-19.5 637.5,-0.5 518.5,-0.5"/>
<text text-anchor="middle" x="578" y="-7.5" font-family="Helvetica,sans-Serif" font-size="10.00">hpp/core/deprecated.hh</text>
</g>
<!-- Node3&#45;&gt;Node12 -->
<g id="edge11" class="edge"><title>Node3&#45;&gt;Node12</title>
<path fill="none" stroke="midnightblue" d="M322.158,-57.2056C374.487,-47.7549 462.857,-31.7951 520.813,-21.3281"/>
<polygon fill="midnightblue" stroke="midnightblue" points="521.69,-24.7263 530.909,-19.5047 520.446,-17.8378 521.69,-24.7263"/>
</g>
</g>
</svg>
