<?xml version="1.0" encoding="UTF-8" standalone="no"?>
<!DOCTYPE svg PUBLIC "-//W3C//DTD SVG 1.1//EN"
 "http://www.w3.org/Graphics/SVG/1.1/DTD/svg11.dtd">
<!-- Generated by graphviz version 2.38.0 (20140413.2041)
 -->
<!-- Title: linear&#45;constraint.hh Pages: 1 -->
<svg width="250pt" height="151pt"
 viewBox="0.00 0.00 250.00 151.00" xmlns="http://www.w3.org/2000/svg" xmlns:xlink="http://www.w3.org/1999/xlink">
<g id="graph0" class="graph" transform="scale(1 1) rotate(0) translate(4 147)">
<title>linear&#45;constraint.hh</title>
<polygon fill="white" stroke="none" points="-4,4 -4,-147 246,-147 246,4 -4,4"/>
<!-- Node1 -->
<g id="node1" class="node"><title>Node1</title>
<polygon fill="#bfbfbf" stroke="black" points="67.5,-123.5 67.5,-142.5 166.5,-142.5 166.5,-123.5 67.5,-123.5"/>
<text text-anchor="middle" x="117" y="-130.5" font-family="Helvetica,sans-Serif" font-size="10.00">linear&#45;constraint.hh</text>
</g>
<!-- Node2 -->
<g id="node2" class="node"><title>Node2</title>
<g id="a_node2"><a xlink:href="a00185.html" target="_top" xlink:title="quadratic&#45;program.hh">
<polygon fill="white" stroke="black" points="0,-62 0,-81 108,-81 108,-62 0,-62"/>
<text text-anchor="middle" x="54" y="-69" font-family="Helvetica,sans-Serif" font-size="10.00">quadratic&#45;program.hh</text>
</a>
</g>
</g>
<!-- Node1&#45;&gt;Node2 -->
<g id="edge1" class="edge"><title>Node1&#45;&gt;Node2</title>
<path fill="none" stroke="midnightblue" d="M100.402,-116.325C88.4331,-105.02 72.7335,-90.1928 63.0096,-81.0091"/>
<polygon fill="midnightblue" stroke="midnightblue" points="98.3003,-119.153 107.974,-123.475 103.107,-114.064 98.3003,-119.153"/>
</g>
<!-- Node3 -->
<g id="node3" class="node"><title>Node3</title>
<g id="a_node3"><a xlink:href="a00198.html" target="_top" xlink:title="spline&#45;gradient&#45;based\l&#45;abstract.hh">
<polygon fill="white" stroke="black" points="126.5,-56.5 126.5,-86.5 235.5,-86.5 235.5,-56.5 126.5,-56.5"/>
<text text-anchor="start" x="134.5" y="-74.5" font-family="Helvetica,sans-Serif" font-size="10.00">spline&#45;gradient&#45;based</text>
<text text-anchor="middle" x="181" y="-63.5" font-family="Helvetica,sans-Serif" font-size="10.00">&#45;abstract.hh</text>
</a>
</g>
</g>
<!-- Node1&#45;&gt;Node3 -->
<g id="edge2" class="edge"><title>Node1&#45;&gt;Node3</title>
<path fill="none" stroke="midnightblue" d="M133.515,-116.646C143.519,-107.346 156.183,-95.572 165.916,-86.523"/>
<polygon fill="midnightblue" stroke="midnightblue" points="131.11,-114.103 126.17,-123.475 135.877,-119.23 131.11,-114.103"/>
</g>
<!-- Node4 -->
<g id="node4" class="node"><title>Node4</title>
<g id="a_node4"><a xlink:href="a00199.html" target="_top" xlink:title="spline&#45;gradient&#45;based.hh">
<polygon fill="white" stroke="black" points="120,-0.5 120,-19.5 242,-19.5 242,-0.5 120,-0.5"/>
<text text-anchor="middle" x="181" y="-7.5" font-family="Helvetica,sans-Serif" font-size="10.00">spline&#45;gradient&#45;based.hh</text>
</a>
</g>
</g>
<!-- Node3&#45;&gt;Node4 -->
<g id="edge3" class="edge"><title>Node3&#45;&gt;Node4</title>
<path fill="none" stroke="midnightblue" d="M181,-46.2892C181,-36.857 181,-26.6548 181,-19.6578"/>
<polygon fill="midnightblue" stroke="midnightblue" points="177.5,-46.3993 181,-56.3993 184.5,-46.3994 177.5,-46.3993"/>
</g>
</g>
</svg>
