<?xml version="1.0" encoding="UTF-8" standalone="no"?>
<!DOCTYPE svg PUBLIC "-//W3C//DTD SVG 1.1//EN"
 "http://www.w3.org/Graphics/SVG/1.1/DTD/svg11.dtd">
<!-- Generated by graphviz version 2.38.0 (20140413.2041)
 -->
<!-- Title: reeds&#45;shepp&#45;path.hh Pages: 1 -->
<svg width="1316pt" height="386pt"
 viewBox="0.00 0.00 1316.25 386.00" xmlns="http://www.w3.org/2000/svg" xmlns:xlink="http://www.w3.org/1999/xlink">
<g id="graph0" class="graph" transform="scale(1 1) rotate(0) translate(4 382)">
<title>reeds&#45;shepp&#45;path.hh</title>
<polygon fill="white" stroke="none" points="-4,4 -4,-382 1312.25,-382 1312.25,4 -4,4"/>
<!-- Node1 -->
<g id="node1" class="node"><title>Node1</title>
<polygon fill="#bfbfbf" stroke="black" points="562.754,-358.5 562.754,-377.5 667.754,-377.5 667.754,-358.5 562.754,-358.5"/>
<text text-anchor="middle" x="615.254" y="-365.5" font-family="Helvetica,sans-Serif" font-size="10.00">reeds&#45;shepp&#45;path.hh</text>
</g>
<!-- Node2 -->
<g id="node2" class="node"><title>Node2</title>
<g id="a_node2"><a doxygen="/local/devel/hpp/install/share/doc/hpp-pinocchio/doxygen-html/hpp-pinocchio.doxytag:../../hpp-pinocchio/doxygen-html/" xlink:href="../../hpp-pinocchio/doxygen-html/a00095.html" target="_top" xlink:title="hpp/pinocchio/device.hh">
<polygon fill="white" stroke="black" points="226.254,-246.5 226.254,-265.5 348.254,-265.5 348.254,-246.5 226.254,-246.5"/>
<text text-anchor="middle" x="287.254" y="-253.5" font-family="Helvetica,sans-Serif" font-size="10.00">hpp/pinocchio/device.hh</text>
</a>
</g>
</g>
<!-- Node1&#45;&gt;Node2 -->
<g id="edge1" class="edge"><title>Node1&#45;&gt;Node2</title>
<path fill="none" stroke="midnightblue" d="M589.79,-358.46C531.663,-338.966 389.111,-291.159 322.556,-268.839"/>
<polygon fill="midnightblue" stroke="midnightblue" points="323.523,-265.472 312.929,-265.61 321.297,-272.108 323.523,-265.472"/>
</g>
<!-- Node9 -->
<g id="node9" class="node"><title>Node9</title>
<g id="a_node9"><a xlink:href="a00001.html" target="_top" xlink:title="hpp/core/fwd.hh">
<polygon fill="white" stroke="black" points="623.254,-56.5 623.254,-75.5 709.254,-75.5 709.254,-56.5 623.254,-56.5"/>
<text text-anchor="middle" x="666.254" y="-63.5" font-family="Helvetica,sans-Serif" font-size="10.00">hpp/core/fwd.hh</text>
</a>
</g>
</g>
<!-- Node1&#45;&gt;Node9 -->
<g id="edge13" class="edge"><title>Node1&#45;&gt;Node9</title>
<path fill="none" stroke="midnightblue" d="M621.372,-358.349C633.462,-340.377 659.254,-297.314 659.254,-257 659.254,-257 659.254,-257 659.254,-193.5 659.254,-155.144 662.502,-110.345 664.574,-85.6793"/>
<polygon fill="midnightblue" stroke="midnightblue" points="668.072,-85.8459 665.451,-75.5804 661.098,-85.2397 668.072,-85.8459"/>
</g>
<!-- Node17 -->
<g id="node17" class="node"><title>Node17</title>
<polygon fill="white" stroke="#bfbfbf" points="1111.75,-0.5 1111.75,-19.5 1208.75,-19.5 1208.75,-0.5 1111.75,-0.5"/>
<text text-anchor="middle" x="1160.25" y="-7.5" font-family="Helvetica,sans-Serif" font-size="10.00">hpp/core/config.hh</text>
</g>
<!-- Node1&#45;&gt;Node17 -->
<g id="edge23" class="edge"><title>Node1&#45;&gt;Node17</title>
<path fill="none" stroke="midnightblue" d="M667.911,-364.19C829.633,-354.864 1308.25,-321.792 1308.25,-257 1308.25,-257 1308.25,-257 1308.25,-126.5 1308.25,-71.352 1243.6,-38.6474 1199.76,-22.8099"/>
<polygon fill="midnightblue" stroke="midnightblue" points="1200.8,-19.4668 1190.2,-19.5036 1198.51,-26.0818 1200.8,-19.4668"/>
</g>
<!-- Node19 -->
<g id="node19" class="node"><title>Node19</title>
<g id="a_node19"><a xlink:href="a00173.html" target="_top" xlink:title="hpp/core/path&#45;vector.hh">
<polygon fill="white" stroke="black" points="511.754,-302.5 511.754,-321.5 630.754,-321.5 630.754,-302.5 511.754,-302.5"/>
<text text-anchor="middle" x="571.254" y="-309.5" font-family="Helvetica,sans-Serif" font-size="10.00">hpp/core/path&#45;vector.hh</text>
</a>
</g>
</g>
<!-- Node1&#45;&gt;Node19 -->
<g id="edge24" class="edge"><title>Node1&#45;&gt;Node19</title>
<path fill="none" stroke="midnightblue" d="M607.989,-358.083C601.71,-350.377 592.467,-339.033 584.824,-329.653"/>
<polygon fill="midnightblue" stroke="midnightblue" points="587.415,-327.293 578.385,-321.751 581.988,-331.714 587.415,-327.293"/>
</g>
<!-- Node3 -->
<g id="node3" class="node"><title>Node3</title>
<g id="a_node3"><a doxygen="/local/devel/hpp/install/share/doc/hpp-pinocchio/doxygen-html/hpp-pinocchio.doxytag:../../hpp-pinocchio/doxygen-html/" xlink:href="../../hpp-pinocchio/doxygen-html/a00098.html" target="_top" xlink:title="hpp/pinocchio/fwd.hh">
<polygon fill="white" stroke="black" points="102.754,-56.5 102.754,-75.5 211.754,-75.5 211.754,-56.5 102.754,-56.5"/>
<text text-anchor="middle" x="157.254" y="-63.5" font-family="Helvetica,sans-Serif" font-size="10.00">hpp/pinocchio/fwd.hh</text>
</a>
</g>
</g>
<!-- Node2&#45;&gt;Node3 -->
<g id="edge2" class="edge"><title>Node2&#45;&gt;Node3</title>
<path fill="none" stroke="midnightblue" d="M226.178,-250.132C163.45,-244.032 71.1604,-231.654 43.2544,-210 7.16283,-181.994 -14.8413,-148.78 12.2544,-112 30.7143,-86.9426 62.9932,-75.4267 92.4161,-70.2914"/>
<polygon fill="midnightblue" stroke="midnightblue" points="93.3175,-73.6946 102.677,-68.7293 92.2639,-66.7743 93.3175,-73.6946"/>
</g>
<!-- Node4 -->
<g id="node4" class="node"><title>Node4</title>
<g id="a_node4"><a doxygen="/local/devel/hpp/install/share/doc/hpp-pinocchio/doxygen-html/hpp-pinocchio.doxytag:../../hpp-pinocchio/doxygen-html/" xlink:href="../../hpp-pinocchio/doxygen-html/a00097.html" target="_top" xlink:title="hpp/pinocchio/frame.hh">
<polygon fill="white" stroke="black" points="185.254,-118 185.254,-137 303.254,-137 303.254,-118 185.254,-118"/>
<text text-anchor="middle" x="244.254" y="-125" font-family="Helvetica,sans-Serif" font-size="10.00">hpp/pinocchio/frame.hh</text>
</a>
</g>
</g>
<!-- Node2&#45;&gt;Node4 -->
<g id="edge3" class="edge"><title>Node2&#45;&gt;Node4</title>
<path fill="none" stroke="midnightblue" d="M293.809,-246.208C303.783,-231.67 320.486,-201.948 309.254,-179 301.422,-162.996 285.799,-150.602 271.833,-142.097"/>
<polygon fill="midnightblue" stroke="midnightblue" points="273.416,-138.972 262.993,-137.072 269.957,-145.057 273.416,-138.972"/>
</g>
<!-- Node5 -->
<g id="node5" class="node"><title>Node5</title>
<g id="a_node5"><a doxygen="/local/devel/hpp/install/share/doc/hpp-pinocchio/doxygen-html/hpp-pinocchio.doxytag:../../hpp-pinocchio/doxygen-html/" xlink:href="../../hpp-pinocchio/doxygen-html/a00108.html" target="_top" xlink:title="hpp/pinocchio/pool.hh">
<polygon fill="white" stroke="black" points="62.7544,-185 62.7544,-204 173.754,-204 173.754,-185 62.7544,-185"/>
<text text-anchor="middle" x="118.254" y="-192" font-family="Helvetica,sans-Serif" font-size="10.00">hpp/pinocchio/pool.hh</text>
</a>
</g>
</g>
<!-- Node2&#45;&gt;Node5 -->
<g id="edge5" class="edge"><title>Node2&#45;&gt;Node5</title>
<path fill="none" stroke="midnightblue" d="M263.041,-246.475C233.926,-236.225 184.887,-218.959 152.053,-207.399"/>
<polygon fill="midnightblue" stroke="midnightblue" points="153.018,-204.029 142.423,-204.009 150.693,-210.631 153.018,-204.029"/>
</g>
<!-- Node6 -->
<g id="node6" class="node"><title>Node6</title>
<g id="a_node6"><a doxygen="/local/devel/hpp/install/share/doc/hpp-pinocchio/doxygen-html/hpp-pinocchio.doxytag:../../hpp-pinocchio/doxygen-html/" xlink:href="../../hpp-pinocchio/doxygen-html/a00096.html" target="_top" xlink:title="hpp/pinocchio/extra\l&#45;config&#45;space.hh">
<polygon fill="white" stroke="black" points="321.754,-112.5 321.754,-142.5 422.754,-142.5 422.754,-112.5 321.754,-112.5"/>
<text text-anchor="start" x="329.754" y="-130.5" font-family="Helvetica,sans-Serif" font-size="10.00">hpp/pinocchio/extra</text>
<text text-anchor="middle" x="372.254" y="-119.5" font-family="Helvetica,sans-Serif" font-size="10.00">&#45;config&#45;space.hh</text>
</a>
</g>
</g>
<!-- Node2&#45;&gt;Node6 -->
<g id="edge6" class="edge"><title>Node2&#45;&gt;Node6</title>
<path fill="none" stroke="midnightblue" d="M295.311,-246.41C303.359,-237.62 315.853,-223.389 325.254,-210 338.514,-191.116 351.453,-168.254 360.386,-151.556"/>
<polygon fill="midnightblue" stroke="midnightblue" points="363.586,-152.991 365.155,-142.513 357.394,-149.726 363.586,-152.991"/>
</g>
<!-- Node7 -->
<g id="node7" class="node"><title>Node7</title>
<g id="a_node7"><a doxygen="/local/devel/hpp/install/share/doc/hpp-pinocchio/doxygen-html/hpp-pinocchio.doxytag:../../hpp-pinocchio/doxygen-html/" xlink:href="../../hpp-pinocchio/doxygen-html/a00093.html" target="_top" xlink:title="hpp/pinocchio/device\l&#45;data.hh">
<polygon fill="white" stroke="black" points="21.2544,-112.5 21.2544,-142.5 129.254,-142.5 129.254,-112.5 21.2544,-112.5"/>
<text text-anchor="start" x="29.2544" y="-130.5" font-family="Helvetica,sans-Serif" font-size="10.00">hpp/pinocchio/device</text>
<text text-anchor="middle" x="75.2544" y="-119.5" font-family="Helvetica,sans-Serif" font-size="10.00">&#45;data.hh</text>
</a>
</g>
</g>
<!-- Node2&#45;&gt;Node7 -->
<g id="edge8" class="edge"><title>Node2&#45;&gt;Node7</title>
<path fill="none" stroke="midnightblue" d="M226.116,-251.833C164.268,-247.198 74.7923,-236.074 53.2544,-210 39.5837,-193.45 48.7579,-169.159 59.1109,-151.403"/>
<polygon fill="midnightblue" stroke="midnightblue" points="62.1659,-153.119 64.5176,-142.788 56.2369,-149.398 62.1659,-153.119"/>
</g>
<!-- Node8 -->
<g id="node8" class="node"><title>Node8</title>
<g id="a_node8"><a doxygen="/local/devel/hpp/install/share/doc/hpp-pinocchio/doxygen-html/hpp-pinocchio.doxytag:../../hpp-pinocchio/doxygen-html/" xlink:href="../../hpp-pinocchio/doxygen-html/a00094.html" target="_top" xlink:title="hpp/pinocchio/device\l&#45;sync.hh">
<polygon fill="white" stroke="black" points="192.254,-179.5 192.254,-209.5 300.254,-209.5 300.254,-179.5 192.254,-179.5"/>
<text text-anchor="start" x="200.254" y="-197.5" font-family="Helvetica,sans-Serif" font-size="10.00">hpp/pinocchio/device</text>
<text text-anchor="middle" x="246.254" y="-186.5" font-family="Helvetica,sans-Serif" font-size="10.00">&#45;sync.hh</text>
</a>
</g>
</g>
<!-- Node2&#45;&gt;Node8 -->
<g id="edge10" class="edge"><title>Node2&#45;&gt;Node8</title>
<path fill="none" stroke="midnightblue" d="M281.38,-246.475C276.242,-239.019 268.547,-227.852 261.668,-217.869"/>
<polygon fill="midnightblue" stroke="midnightblue" points="264.473,-215.771 255.917,-209.523 258.709,-219.743 264.473,-215.771"/>
</g>
<!-- Node4&#45;&gt;Node3 -->
<g id="edge4" class="edge"><title>Node4&#45;&gt;Node3</title>
<path fill="none" stroke="midnightblue" d="M231.789,-117.975C217.835,-108.431 194.989,-92.8073 178.264,-81.3683"/>
<polygon fill="midnightblue" stroke="midnightblue" points="179.926,-78.2653 169.696,-75.5091 175.975,-84.0433 179.926,-78.2653"/>
</g>
<!-- Node6&#45;&gt;Node3 -->
<g id="edge7" class="edge"><title>Node6&#45;&gt;Node3</title>
<path fill="none" stroke="midnightblue" d="M321.575,-112.475C283.835,-102.03 232.984,-87.9576 197.894,-78.2469"/>
<polygon fill="midnightblue" stroke="midnightblue" points="198.563,-74.8004 187.992,-75.5064 196.696,-81.5468 198.563,-74.8004"/>
</g>
<!-- Node7&#45;&gt;Node3 -->
<g id="edge9" class="edge"><title>Node7&#45;&gt;Node3</title>
<path fill="none" stroke="midnightblue" d="M94.6872,-112.399C107.463,-103.129 124.144,-91.0254 137.069,-81.6469"/>
<polygon fill="midnightblue" stroke="midnightblue" points="139.284,-84.3635 145.323,-75.6578 135.173,-78.6979 139.284,-84.3635"/>
</g>
<!-- Node8&#45;&gt;Node3 -->
<g id="edge11" class="edge"><title>Node8&#45;&gt;Node3</title>
<path fill="none" stroke="midnightblue" d="M217.926,-179.337C203.425,-170.713 186.676,-158.384 176.254,-143 164.715,-125.965 160.179,-102.524 158.399,-86.1958"/>
<polygon fill="midnightblue" stroke="midnightblue" points="161.847,-85.4321 157.529,-75.7573 154.871,-86.0135 161.847,-85.4321"/>
</g>
<!-- Node8&#45;&gt;Node7 -->
<g id="edge12" class="edge"><title>Node8&#45;&gt;Node7</title>
<path fill="none" stroke="midnightblue" d="M209.15,-179.396C183.493,-169.643 149.166,-156.595 121.693,-146.152"/>
<polygon fill="midnightblue" stroke="midnightblue" points="122.878,-142.858 112.286,-142.577 120.39,-149.401 122.878,-142.858"/>
</g>
<!-- Node10 -->
<g id="node10" class="node"><title>Node10</title>
<polygon fill="white" stroke="#bfbfbf" points="496.254,-0.5 496.254,-19.5 540.254,-19.5 540.254,-0.5 496.254,-0.5"/>
<text text-anchor="middle" x="518.254" y="-7.5" font-family="Helvetica,sans-Serif" font-size="10.00">vector</text>
</g>
<!-- Node9&#45;&gt;Node10 -->
<g id="edge14" class="edge"><title>Node9&#45;&gt;Node10</title>
<path fill="none" stroke="midnightblue" d="M642.803,-56.4435C617.831,-47.3322 578.148,-32.8531 550.301,-22.6929"/>
<polygon fill="midnightblue" stroke="midnightblue" points="551.221,-19.3027 540.627,-19.1629 548.821,-25.8786 551.221,-19.3027"/>
</g>
<!-- Node11 -->
<g id="node11" class="node"><title>Node11</title>
<polygon fill="white" stroke="#bfbfbf" points="558.754,-0.5 558.754,-19.5 593.754,-19.5 593.754,-0.5 558.754,-0.5"/>
<text text-anchor="middle" x="576.254" y="-7.5" font-family="Helvetica,sans-Serif" font-size="10.00">map</text>
</g>
<!-- Node9&#45;&gt;Node11 -->
<g id="edge15" class="edge"><title>Node9&#45;&gt;Node11</title>
<path fill="none" stroke="midnightblue" d="M651.794,-56.324C637.755,-47.9002 616.206,-34.9709 599.711,-25.0741"/>
<polygon fill="midnightblue" stroke="midnightblue" points="601.054,-21.7983 590.679,-19.6545 597.453,-27.8007 601.054,-21.7983"/>
</g>
<!-- Node12 -->
<g id="node12" class="node"><title>Node12</title>
<polygon fill="white" stroke="#bfbfbf" points="431.754,-0.5 431.754,-19.5 474.754,-19.5 474.754,-0.5 431.754,-0.5"/>
<text text-anchor="middle" x="453.254" y="-7.5" font-family="Helvetica,sans-Serif" font-size="10.00">deque</text>
</g>
<!-- Node9&#45;&gt;Node12 -->
<g id="edge16" class="edge"><title>Node9&#45;&gt;Node12</title>
<path fill="none" stroke="midnightblue" d="M631.572,-56.4171C595.488,-47.4553 537.363,-32.9301 487.254,-20 486.375,-19.7731 485.483,-19.5421 484.583,-19.3084"/>
<polygon fill="midnightblue" stroke="midnightblue" points="485.388,-15.9013 474.827,-16.7538 483.614,-22.6729 485.388,-15.9013"/>
</g>
<!-- Node13 -->
<g id="node13" class="node"><title>Node13</title>
<polygon fill="white" stroke="#bfbfbf" points="611.754,-0.5 611.754,-19.5 640.754,-19.5 640.754,-0.5 611.754,-0.5"/>
<text text-anchor="middle" x="626.254" y="-7.5" font-family="Helvetica,sans-Serif" font-size="10.00">list</text>
</g>
<!-- Node9&#45;&gt;Node13 -->
<g id="edge17" class="edge"><title>Node9&#45;&gt;Node13</title>
<path fill="none" stroke="midnightblue" d="M659.649,-56.083C653.999,-48.4554 645.71,-37.2645 638.803,-27.9408"/>
<polygon fill="midnightblue" stroke="midnightblue" points="641.501,-25.7034 632.737,-19.7511 635.877,-29.87 641.501,-25.7034"/>
</g>
<!-- Node14 -->
<g id="node14" class="node"><title>Node14</title>
<polygon fill="white" stroke="#bfbfbf" points="659.254,-0.5 659.254,-19.5 689.254,-19.5 689.254,-0.5 659.254,-0.5"/>
<text text-anchor="middle" x="674.254" y="-7.5" font-family="Helvetica,sans-Serif" font-size="10.00">set</text>
</g>
<!-- Node9&#45;&gt;Node14 -->
<g id="edge18" class="edge"><title>Node9&#45;&gt;Node14</title>
<path fill="none" stroke="midnightblue" d="M667.575,-56.083C668.636,-48.9272 670.16,-38.6353 671.485,-29.6911"/>
<polygon fill="midnightblue" stroke="midnightblue" points="674.955,-30.1561 672.958,-19.7511 668.03,-29.1302 674.955,-30.1561"/>
</g>
<!-- Node15 -->
<g id="node15" class="node"><title>Node15</title>
<g id="a_node15"><a doxygen="/local/devel/hpp/install/share/doc/hpp-util/doxygen-html/hpp-util.doxytag:../../hpp-util/doxygen-html/" xlink:href="../../hpp-util/doxygen-html/a00028.html" target="_top" xlink:title="hpp/util/pointer.hh">
<polygon fill="white" stroke="black" points="707.254,-0.5 707.254,-19.5 801.254,-19.5 801.254,-0.5 707.254,-0.5"/>
<text text-anchor="middle" x="754.254" y="-7.5" font-family="Helvetica,sans-Serif" font-size="10.00">hpp/util/pointer.hh</text>
</a>
</g>
</g>
<!-- Node9&#45;&gt;Node15 -->
<g id="edge19" class="edge"><title>Node9&#45;&gt;Node15</title>
<path fill="none" stroke="midnightblue" d="M680.393,-56.324C694.121,-47.9002 715.191,-34.9709 731.319,-25.0741"/>
<polygon fill="midnightblue" stroke="midnightblue" points="733.458,-27.8678 740.151,-19.6545 729.797,-21.9016 733.458,-27.8678"/>
</g>
<!-- Node16 -->
<g id="node16" class="node"><title>Node16</title>
<g id="a_node16"><a doxygen="/local/devel/hpp/install/share/doc/hpp-constraints/doxygen-html/hpp-constraints.doxytag:../../hpp-constraints/doxygen-html/" xlink:href="../../hpp-constraints/doxygen-html/a00001.html" target="_top" xlink:title="hpp/constraints/fwd.hh">
<polygon fill="white" stroke="black" points="819.254,-0.5 819.254,-19.5 935.254,-19.5 935.254,-0.5 819.254,-0.5"/>
<text text-anchor="middle" x="877.254" y="-7.5" font-family="Helvetica,sans-Serif" font-size="10.00">hpp/constraints/fwd.hh</text>
</a>
</g>
</g>
<!-- Node9&#45;&gt;Node16 -->
<g id="edge20" class="edge"><title>Node9&#45;&gt;Node16</title>
<path fill="none" stroke="midnightblue" d="M699.688,-56.4435C736.111,-47.1221 794.485,-32.1828 834.284,-21.9972"/>
<polygon fill="midnightblue" stroke="midnightblue" points="835.157,-25.3866 843.977,-19.5164 833.422,-18.6051 835.157,-25.3866"/>
</g>
<!-- Node9&#45;&gt;Node17 -->
<g id="edge21" class="edge"><title>Node9&#45;&gt;Node17</title>
<path fill="none" stroke="midnightblue" d="M709.416,-60.6582C785.833,-52.9129 949.925,-36.0196 1088.25,-20 1092.48,-19.5109 1096.84,-18.9943 1101.23,-18.4661"/>
<polygon fill="midnightblue" stroke="midnightblue" points="1101.97,-21.9022 1111.47,-17.2195 1101.12,-14.9535 1101.97,-21.9022"/>
</g>
<!-- Node18 -->
<g id="node18" class="node"><title>Node18</title>
<polygon fill="white" stroke="#bfbfbf" points="960.754,-0.5 960.754,-19.5 1079.75,-19.5 1079.75,-0.5 960.754,-0.5"/>
<text text-anchor="middle" x="1020.25" y="-7.5" font-family="Helvetica,sans-Serif" font-size="10.00">hpp/core/deprecated.hh</text>
</g>
<!-- Node9&#45;&gt;Node18 -->
<g id="edge22" class="edge"><title>Node9&#45;&gt;Node18</title>
<path fill="none" stroke="midnightblue" d="M709.308,-58.4325C770.337,-49.123 882.53,-32.0087 954.153,-21.0833"/>
<polygon fill="midnightblue" stroke="midnightblue" points="955.057,-24.4859 964.415,-19.5179 954.001,-17.566 955.057,-24.4859"/>
</g>
<!-- Node19&#45;&gt;Node2 -->
<g id="edge25" class="edge"><title>Node19&#45;&gt;Node2</title>
<path fill="none" stroke="midnightblue" d="M526.254,-302.444C476.295,-292.944 395.653,-277.611 342.055,-267.42"/>
<polygon fill="midnightblue" stroke="midnightblue" points="342.522,-263.946 332.044,-265.516 341.215,-270.823 342.522,-263.946"/>
</g>
<!-- Node19&#45;&gt;Node9 -->
<g id="edge26" class="edge"><title>Node19&#45;&gt;Node9</title>
<path fill="none" stroke="midnightblue" d="M574.251,-302.173C583.844,-274.094 614.947,-184.426 645.254,-112 649.087,-102.84 653.722,-92.8143 657.661,-84.5553"/>
<polygon fill="midnightblue" stroke="midnightblue" points="660.82,-86.0614 662.02,-75.5347 654.518,-83.0156 660.82,-86.0614"/>
</g>
<!-- Node20 -->
<g id="node20" class="node"><title>Node20</title>
<g id="a_node20"><a xlink:href="a00174.html" target="_top" xlink:title="hpp/core/path.hh">
<polygon fill="white" stroke="black" points="880.754,-246.5 880.754,-265.5 969.754,-265.5 969.754,-246.5 880.754,-246.5"/>
<text text-anchor="middle" x="925.254" y="-253.5" font-family="Helvetica,sans-Serif" font-size="10.00">hpp/core/path.hh</text>
</a>
</g>
</g>
<!-- Node19&#45;&gt;Node20 -->
<g id="edge27" class="edge"><title>Node19&#45;&gt;Node20</title>
<path fill="none" stroke="midnightblue" d="M627.347,-302.444C693.967,-292.281 804.363,-275.441 870.425,-265.364"/>
<polygon fill="midnightblue" stroke="midnightblue" points="871.275,-268.775 880.633,-263.807 870.22,-261.855 871.275,-268.775"/>
</g>
<!-- Node20&#45;&gt;Node9 -->
<g id="edge30" class="edge"><title>Node20&#45;&gt;Node9</title>
<path fill="none" stroke="midnightblue" d="M880.713,-250.523C826.805,-244.253 740.253,-231.187 716.254,-210 697.218,-193.194 678.452,-120.379 670.379,-85.612"/>
<polygon fill="midnightblue" stroke="midnightblue" points="673.774,-84.7572 668.147,-75.7803 666.948,-86.307 673.774,-84.7572"/>
</g>
<!-- Node20&#45;&gt;Node17 -->
<g id="edge31" class="edge"><title>Node20&#45;&gt;Node17</title>
<path fill="none" stroke="midnightblue" d="M970.077,-252.446C1018.91,-248.319 1098.44,-237.613 1161.25,-210 1206.91,-189.932 1228.87,-187.563 1251.25,-143 1274.3,-97.1048 1216.86,-48.7962 1182.97,-25.3947"/>
<polygon fill="midnightblue" stroke="midnightblue" points="1184.78,-22.3954 1174.53,-19.7373 1180.89,-28.2109 1184.78,-22.3954"/>
</g>
<!-- Node20&#45;&gt;Node18 -->
<g id="edge38" class="edge"><title>Node20&#45;&gt;Node18</title>
<path fill="none" stroke="midnightblue" d="M970.006,-250.002C1017.49,-243.668 1087.9,-230.974 1104.25,-210 1112.73,-199.135 1109.44,-191.766 1104.25,-179 1095.86,-158.324 1081.17,-161.867 1069.25,-143 1045.84,-105.929 1031.18,-56.0016 1024.5,-29.4347"/>
<polygon fill="midnightblue" stroke="midnightblue" points="1027.87,-28.4856 1022.13,-19.5847 1021.07,-30.1266 1027.87,-28.4856"/>
</g>
<!-- Node21 -->
<g id="node21" class="node"><title>Node21</title>
<polygon fill="white" stroke="#bfbfbf" points="725.254,-185 725.254,-204 853.254,-204 853.254,-185 725.254,-185"/>
<text text-anchor="middle" x="789.254" y="-192" font-family="Helvetica,sans-Serif" font-size="10.00">boost/concept_check.hpp</text>
</g>
<!-- Node20&#45;&gt;Node21 -->
<g id="edge28" class="edge"><title>Node20&#45;&gt;Node21</title>
<path fill="none" stroke="midnightblue" d="M905.769,-246.475C882.844,-236.445 844.569,-219.7 818.179,-208.155"/>
<polygon fill="midnightblue" stroke="midnightblue" points="819.268,-204.811 808.704,-204.009 816.462,-211.224 819.268,-204.811"/>
</g>
<!-- Node22 -->
<g id="node22" class="node"><title>Node22</title>
<g id="a_node22"><a doxygen="/local/devel/hpp/install/share/doc/hpp-util/doxygen-html/hpp-util.doxytag:../../hpp-util/doxygen-html/" xlink:href="../../hpp-util/doxygen-html/a00022.html" target="_top" xlink:title="hpp/util/exception.hh">
<polygon fill="white" stroke="black" points="871.754,-185 871.754,-204 978.754,-204 978.754,-185 871.754,-185"/>
<text text-anchor="middle" x="925.254" y="-192" font-family="Helvetica,sans-Serif" font-size="10.00">hpp/util/exception.hh</text>
</a>
</g>
</g>
<!-- Node20&#45;&gt;Node22 -->
<g id="edge29" class="edge"><title>Node20&#45;&gt;Node22</title>
<path fill="none" stroke="midnightblue" d="M925.254,-246.475C925.254,-238.08 925.254,-224.981 925.254,-214.163"/>
<polygon fill="midnightblue" stroke="midnightblue" points="928.754,-214.009 925.254,-204.009 921.754,-214.009 928.754,-214.009"/>
</g>
<!-- Node23 -->
<g id="node23" class="node"><title>Node23</title>
<g id="a_node23"><a xlink:href="a00123.html" target="_top" xlink:title="hpp/core/constraint\l&#45;set.hh">
<polygon fill="white" stroke="black" points="486.254,-179.5 486.254,-209.5 586.254,-209.5 586.254,-179.5 486.254,-179.5"/>
<text text-anchor="start" x="494.254" y="-197.5" font-family="Helvetica,sans-Serif" font-size="10.00">hpp/core/constraint</text>
<text text-anchor="middle" x="536.254" y="-186.5" font-family="Helvetica,sans-Serif" font-size="10.00">&#45;set.hh</text>
</a>
</g>
</g>
<!-- Node20&#45;&gt;Node23 -->
<g id="edge32" class="edge"><title>Node20&#45;&gt;Node23</title>
<path fill="none" stroke="midnightblue" d="M880.631,-248.175C810.729,-237.483 675.292,-216.767 596.705,-204.746"/>
<polygon fill="midnightblue" stroke="midnightblue" points="596.889,-201.234 586.474,-203.181 595.83,-208.153 596.889,-201.234"/>
</g>
<!-- Node26 -->
<g id="node26" class="node"><title>Node26</title>
<g id="a_node26"><a xlink:href="a00184.html" target="_top" xlink:title="hpp/core/projection\l&#45;error.hh">
<polygon fill="white" stroke="black" points="996.754,-179.5 996.754,-209.5 1095.75,-209.5 1095.75,-179.5 996.754,-179.5"/>
<text text-anchor="start" x="1004.75" y="-197.5" font-family="Helvetica,sans-Serif" font-size="10.00">hpp/core/projection</text>
<text text-anchor="middle" x="1046.25" y="-186.5" font-family="Helvetica,sans-Serif" font-size="10.00">&#45;error.hh</text>
</a>
</g>
</g>
<!-- Node20&#45;&gt;Node26 -->
<g id="edge39" class="edge"><title>Node20&#45;&gt;Node26</title>
<path fill="none" stroke="midnightblue" d="M942.591,-246.475C959.744,-238.04 986.557,-224.855 1008.62,-214.008"/>
<polygon fill="midnightblue" stroke="midnightblue" points="1010.31,-217.077 1017.74,-209.523 1007.22,-210.795 1010.31,-217.077"/>
</g>
<!-- Node28 -->
<g id="node28" class="node"><title>Node28</title>
<g id="a_node28"><a xlink:href="a00208.html" target="_top" xlink:title="hpp/core/time&#45;parameterization.hh">
<polygon fill="white" stroke="black" points="1078.25,-118 1078.25,-137 1242.25,-137 1242.25,-118 1078.25,-118"/>
<text text-anchor="middle" x="1160.25" y="-125" font-family="Helvetica,sans-Serif" font-size="10.00">hpp/core/time&#45;parameterization.hh</text>
</a>
</g>
</g>
<!-- Node20&#45;&gt;Node28 -->
<g id="edge41" class="edge"><title>Node20&#45;&gt;Node28</title>
<path fill="none" stroke="midnightblue" d="M969.939,-251.012C1025.07,-245.193 1114.44,-232.533 1138.25,-210 1155.36,-193.819 1159.66,-165.849 1160.49,-147.26"/>
<polygon fill="midnightblue" stroke="midnightblue" points="1163.99,-147.139 1160.64,-137.087 1156.99,-147.034 1163.99,-147.139"/>
</g>
<!-- Node23&#45;&gt;Node12 -->
<g id="edge33" class="edge"><title>Node23&#45;&gt;Node12</title>
<path fill="none" stroke="midnightblue" d="M508.834,-179.43C494.952,-170.833 479.188,-158.5 470.254,-143 449.557,-107.091 449.518,-56.6976 451.349,-29.7472"/>
<polygon fill="midnightblue" stroke="midnightblue" points="454.84,-30.0019 452.193,-19.7429 447.865,-29.4131 454.84,-30.0019"/>
</g>
<!-- Node24 -->
<g id="node24" class="node"><title>Node24</title>
<g id="a_node24"><a xlink:href="a00124.html" target="_top" xlink:title="hpp/core/constraint.hh">
<polygon fill="white" stroke="black" points="479.754,-118 479.754,-137 592.754,-137 592.754,-118 479.754,-118"/>
<text text-anchor="middle" x="536.254" y="-125" font-family="Helvetica,sans-Serif" font-size="10.00">hpp/core/constraint.hh</text>
</a>
</g>
</g>
<!-- Node23&#45;&gt;Node24 -->
<g id="edge34" class="edge"><title>Node23&#45;&gt;Node24</title>
<path fill="none" stroke="midnightblue" d="M536.254,-179.396C536.254,-170.064 536.254,-157.714 536.254,-147.517"/>
<polygon fill="midnightblue" stroke="midnightblue" points="539.754,-147.195 536.254,-137.195 532.754,-147.195 539.754,-147.195"/>
</g>
<!-- Node24&#45;&gt;Node9 -->
<g id="edge37" class="edge"><title>Node24&#45;&gt;Node9</title>
<path fill="none" stroke="midnightblue" d="M554.88,-117.975C576.697,-107.99 613.058,-91.3476 638.272,-79.8075"/>
<polygon fill="midnightblue" stroke="midnightblue" points="640.027,-82.8534 647.663,-75.5091 637.114,-76.4884 640.027,-82.8534"/>
</g>
<!-- Node24&#45;&gt;Node17 -->
<g id="edge36" class="edge"><title>Node24&#45;&gt;Node17</title>
<path fill="none" stroke="midnightblue" d="M582.392,-117.96C694.695,-97.1733 981.981,-43.9977 1104.04,-21.4058"/>
<polygon fill="midnightblue" stroke="midnightblue" points="1104.73,-24.836 1113.93,-19.5744 1103.46,-17.953 1104.73,-24.836"/>
</g>
<!-- Node25 -->
<g id="node25" class="node"><title>Node25</title>
<polygon fill="white" stroke="#bfbfbf" points="510.254,-56.5 510.254,-75.5 562.254,-75.5 562.254,-56.5 510.254,-56.5"/>
<text text-anchor="middle" x="536.254" y="-63.5" font-family="Helvetica,sans-Serif" font-size="10.00">ostream</text>
</g>
<!-- Node24&#45;&gt;Node25 -->
<g id="edge35" class="edge"><title>Node24&#45;&gt;Node25</title>
<path fill="none" stroke="midnightblue" d="M536.254,-117.975C536.254,-109.58 536.254,-96.4806 536.254,-85.6631"/>
<polygon fill="midnightblue" stroke="midnightblue" points="539.754,-85.5091 536.254,-75.5091 532.754,-85.5091 539.754,-85.5091"/>
</g>
<!-- Node27 -->
<g id="node27" class="node"><title>Node27</title>
<polygon fill="white" stroke="#bfbfbf" points="962.754,-118 962.754,-137 1021.75,-137 1021.75,-118 962.754,-118"/>
<text text-anchor="middle" x="992.254" y="-125" font-family="Helvetica,sans-Serif" font-size="10.00">exception</text>
</g>
<!-- Node26&#45;&gt;Node27 -->
<g id="edge40" class="edge"><title>Node26&#45;&gt;Node27</title>
<path fill="none" stroke="midnightblue" d="M1034.54,-179.396C1026.12,-169.261 1014.74,-155.567 1005.91,-144.937"/>
<polygon fill="midnightblue" stroke="midnightblue" points="1008.56,-142.65 999.478,-137.195 1003.18,-147.123 1008.56,-142.65"/>
</g>
<!-- Node28&#45;&gt;Node9 -->
<g id="edge42" class="edge"><title>Node28&#45;&gt;Node9</title>
<path fill="none" stroke="midnightblue" d="M1089.48,-117.975C989.52,-105.936 809.224,-84.2201 719.694,-73.4366"/>
<polygon fill="midnightblue" stroke="midnightblue" points="719.844,-69.9294 709.497,-72.2084 719.007,-76.8792 719.844,-69.9294"/>
</g>
<!-- Node28&#45;&gt;Node17 -->
<g id="edge43" class="edge"><title>Node28&#45;&gt;Node17</title>
<path fill="none" stroke="midnightblue" d="M1160.25,-117.819C1160.25,-99.2568 1160.25,-55.3391 1160.25,-29.9734"/>
<polygon fill="midnightblue" stroke="midnightblue" points="1163.75,-29.782 1160.25,-19.782 1156.75,-29.782 1163.75,-29.782"/>
</g>
</g>
</svg>
