<?xml version="1.0" encoding="UTF-8" standalone="no"?>
<!DOCTYPE svg PUBLIC "-//W3C//DTD SVG 1.1//EN"
 "http://www.w3.org/Graphics/SVG/1.1/DTD/svg11.dtd">
<!-- Generated by graphviz version 2.38.0 (20140413.2041)
 -->
<!-- Title: straight&#45;path.hh Pages: 1 -->
<svg width="786pt" height="319pt"
 viewBox="0.00 0.00 786.00 319.00" xmlns="http://www.w3.org/2000/svg" xmlns:xlink="http://www.w3.org/1999/xlink">
<g id="graph0" class="graph" transform="scale(1 1) rotate(0) translate(4 315)">
<title>straight&#45;path.hh</title>
<polygon fill="white" stroke="none" points="-4,4 -4,-315 782,-315 782,4 -4,4"/>
<!-- Node1 -->
<g id="node1" class="node"><title>Node1</title>
<polygon fill="#bfbfbf" stroke="black" points="649.5,-291.5 649.5,-310.5 733.5,-310.5 733.5,-291.5 649.5,-291.5"/>
<text text-anchor="middle" x="691.5" y="-298.5" font-family="Helvetica,sans-Serif" font-size="10.00">straight&#45;path.hh</text>
</g>
<!-- Node2 -->
<g id="node2" class="node"><title>Node2</title>
<g id="a_node2"><a xlink:href="a00001.html" target="_top" xlink:title="hpp/core/fwd.hh">
<polygon fill="white" stroke="black" points="366.5,-56.5 366.5,-75.5 452.5,-75.5 452.5,-56.5 366.5,-56.5"/>
<text text-anchor="middle" x="409.5" y="-63.5" font-family="Helvetica,sans-Serif" font-size="10.00">hpp/core/fwd.hh</text>
</a>
</g>
</g>
<!-- Node1&#45;&gt;Node2 -->
<g id="edge1" class="edge"><title>Node1&#45;&gt;Node2</title>
<path fill="none" stroke="midnightblue" d="M692.123,-291.483C693.865,-260.367 695.089,-152.546 632.5,-112 581.39,-78.8906 510.952,-69.3402 463.009,-66.9807"/>
<polygon fill="midnightblue" stroke="midnightblue" points="462.968,-63.4763 452.835,-66.571 462.686,-70.4706 462.968,-63.4763"/>
</g>
<!-- Node10 -->
<g id="node10" class="node"><title>Node10</title>
<polygon fill="white" stroke="#bfbfbf" points="681,-0.5 681,-19.5 778,-19.5 778,-0.5 681,-0.5"/>
<text text-anchor="middle" x="729.5" y="-7.5" font-family="Helvetica,sans-Serif" font-size="10.00">hpp/core/config.hh</text>
</g>
<!-- Node1&#45;&gt;Node10 -->
<g id="edge11" class="edge"><title>Node1&#45;&gt;Node10</title>
<path fill="none" stroke="midnightblue" d="M696.468,-291.337C706.768,-272.532 729.5,-226.297 729.5,-184.5 729.5,-184.5 729.5,-184.5 729.5,-121 729.5,-88.948 729.5,-51.6426 729.5,-29.7489"/>
<polygon fill="midnightblue" stroke="midnightblue" points="733,-29.5577 729.5,-19.5578 726,-29.5578 733,-29.5577"/>
</g>
<!-- Node12 -->
<g id="node12" class="node"><title>Node12</title>
<g id="a_node12"><a xlink:href="a00174.html" target="_top" xlink:title="hpp/core/path.hh">
<polygon fill="white" stroke="black" points="387,-235.5 387,-254.5 476,-254.5 476,-235.5 387,-235.5"/>
<text text-anchor="middle" x="431.5" y="-242.5" font-family="Helvetica,sans-Serif" font-size="10.00">hpp/core/path.hh</text>
</a>
</g>
</g>
<!-- Node1&#45;&gt;Node12 -->
<g id="edge12" class="edge"><title>Node1&#45;&gt;Node12</title>
<path fill="none" stroke="midnightblue" d="M650.302,-291.444C604.851,-282.004 531.658,-266.802 482.591,-256.611"/>
<polygon fill="midnightblue" stroke="midnightblue" points="483.008,-253.123 472.505,-254.516 481.584,-259.977 483.008,-253.123"/>
</g>
<!-- Node3 -->
<g id="node3" class="node"><title>Node3</title>
<polygon fill="white" stroke="#bfbfbf" points="224.5,-0.5 224.5,-19.5 268.5,-19.5 268.5,-0.5 224.5,-0.5"/>
<text text-anchor="middle" x="246.5" y="-7.5" font-family="Helvetica,sans-Serif" font-size="10.00">vector</text>
</g>
<!-- Node2&#45;&gt;Node3 -->
<g id="edge2" class="edge"><title>Node2&#45;&gt;Node3</title>
<path fill="none" stroke="midnightblue" d="M383.672,-56.4435C355.122,-46.985 309.111,-31.7421 278.348,-21.551"/>
<polygon fill="midnightblue" stroke="midnightblue" points="279.141,-18.1266 268.548,-18.3042 276.94,-24.7715 279.141,-18.1266"/>
</g>
<!-- Node4 -->
<g id="node4" class="node"><title>Node4</title>
<polygon fill="white" stroke="#bfbfbf" points="287,-0.5 287,-19.5 322,-19.5 322,-0.5 287,-0.5"/>
<text text-anchor="middle" x="304.5" y="-7.5" font-family="Helvetica,sans-Serif" font-size="10.00">map</text>
</g>
<!-- Node2&#45;&gt;Node4 -->
<g id="edge3" class="edge"><title>Node2&#45;&gt;Node4</title>
<path fill="none" stroke="midnightblue" d="M392.63,-56.324C375.791,-47.6641 349.693,-34.2424 330.262,-24.249"/>
<polygon fill="midnightblue" stroke="midnightblue" points="331.822,-21.1155 321.328,-19.6545 328.62,-27.3405 331.822,-21.1155"/>
</g>
<!-- Node5 -->
<g id="node5" class="node"><title>Node5</title>
<polygon fill="white" stroke="#bfbfbf" points="163,-0.5 163,-19.5 206,-19.5 206,-0.5 163,-0.5"/>
<text text-anchor="middle" x="184.5" y="-7.5" font-family="Helvetica,sans-Serif" font-size="10.00">deque</text>
</g>
<!-- Node2&#45;&gt;Node5 -->
<g id="edge4" class="edge"><title>Node2&#45;&gt;Node5</title>
<path fill="none" stroke="midnightblue" d="M369.96,-56.4922C332.72,-48.3316 275.164,-35.3411 216.027,-20.0247"/>
<polygon fill="midnightblue" stroke="midnightblue" points="216.698,-16.5829 206.138,-17.4456 214.931,-23.3563 216.698,-16.5829"/>
</g>
<!-- Node6 -->
<g id="node6" class="node"><title>Node6</title>
<polygon fill="white" stroke="#bfbfbf" points="340,-0.5 340,-19.5 369,-19.5 369,-0.5 340,-0.5"/>
<text text-anchor="middle" x="354.5" y="-7.5" font-family="Helvetica,sans-Serif" font-size="10.00">list</text>
</g>
<!-- Node2&#45;&gt;Node6 -->
<g id="edge5" class="edge"><title>Node2&#45;&gt;Node6</title>
<path fill="none" stroke="midnightblue" d="M400.418,-56.083C392.329,-48.1409 380.305,-36.3354 370.59,-26.7973"/>
<polygon fill="midnightblue" stroke="midnightblue" points="373.001,-24.2595 363.413,-19.7511 368.097,-29.2545 373.001,-24.2595"/>
</g>
<!-- Node7 -->
<g id="node7" class="node"><title>Node7</title>
<polygon fill="white" stroke="#bfbfbf" points="387.5,-0.5 387.5,-19.5 417.5,-19.5 417.5,-0.5 387.5,-0.5"/>
<text text-anchor="middle" x="402.5" y="-7.5" font-family="Helvetica,sans-Serif" font-size="10.00">set</text>
</g>
<!-- Node2&#45;&gt;Node7 -->
<g id="edge6" class="edge"><title>Node2&#45;&gt;Node7</title>
<path fill="none" stroke="midnightblue" d="M408.344,-56.083C407.416,-48.9272 406.082,-38.6353 404.923,-29.6911"/>
<polygon fill="midnightblue" stroke="midnightblue" points="408.391,-29.2181 403.634,-19.7511 401.449,-30.1181 408.391,-29.2181"/>
</g>
<!-- Node8 -->
<g id="node8" class="node"><title>Node8</title>
<g id="a_node8"><a doxygen="/local/devel/hpp/install/share/doc/hpp-util/doxygen-html/hpp-util.doxytag:../../hpp-util/doxygen-html/" xlink:href="../../hpp-util/doxygen-html/a00028.html" target="_top" xlink:title="hpp/util/pointer.hh">
<polygon fill="white" stroke="black" points="435.5,-0.5 435.5,-19.5 529.5,-19.5 529.5,-0.5 435.5,-0.5"/>
<text text-anchor="middle" x="482.5" y="-7.5" font-family="Helvetica,sans-Serif" font-size="10.00">hpp/util/pointer.hh</text>
</a>
</g>
</g>
<!-- Node2&#45;&gt;Node8 -->
<g id="edge7" class="edge"><title>Node2&#45;&gt;Node8</title>
<path fill="none" stroke="midnightblue" d="M421.229,-56.324C432.337,-48.1066 449.242,-35.6017 462.483,-25.8069"/>
<polygon fill="midnightblue" stroke="midnightblue" points="464.6,-28.5948 470.558,-19.8339 460.437,-22.9671 464.6,-28.5948"/>
</g>
<!-- Node9 -->
<g id="node9" class="node"><title>Node9</title>
<g id="a_node9"><a doxygen="/local/devel/hpp/install/share/doc/hpp-constraints/doxygen-html/hpp-constraints.doxytag:../../hpp-constraints/doxygen-html/" xlink:href="../../hpp-constraints/doxygen-html/a00001.html" target="_top" xlink:title="hpp/constraints/fwd.hh">
<polygon fill="white" stroke="black" points="547.5,-0.5 547.5,-19.5 663.5,-19.5 663.5,-0.5 547.5,-0.5"/>
<text text-anchor="middle" x="605.5" y="-7.5" font-family="Helvetica,sans-Serif" font-size="10.00">hpp/constraints/fwd.hh</text>
</a>
</g>
</g>
<!-- Node2&#45;&gt;Node9 -->
<g id="edge8" class="edge"><title>Node2&#45;&gt;Node9</title>
<path fill="none" stroke="midnightblue" d="M440.557,-56.4435C474.103,-47.2011 527.697,-32.4356 564.641,-22.2572"/>
<polygon fill="midnightblue" stroke="midnightblue" points="565.877,-25.5469 574.589,-19.5164 564.018,-18.7984 565.877,-25.5469"/>
</g>
<!-- Node2&#45;&gt;Node10 -->
<g id="edge9" class="edge"><title>Node2&#45;&gt;Node10</title>
<path fill="none" stroke="midnightblue" d="M452.657,-57.7173C508.894,-48.2273 607.477,-31.5914 670.565,-20.9453"/>
<polygon fill="midnightblue" stroke="midnightblue" points="671.479,-24.3406 680.757,-19.2253 670.314,-17.4381 671.479,-24.3406"/>
</g>
<!-- Node11 -->
<g id="node11" class="node"><title>Node11</title>
<polygon fill="white" stroke="#bfbfbf" points="0,-0.5 0,-19.5 119,-19.5 119,-0.5 0,-0.5"/>
<text text-anchor="middle" x="59.5" y="-7.5" font-family="Helvetica,sans-Serif" font-size="10.00">hpp/core/deprecated.hh</text>
</g>
<!-- Node2&#45;&gt;Node11 -->
<g id="edge10" class="edge"><title>Node2&#45;&gt;Node11</title>
<path fill="none" stroke="midnightblue" d="M366.382,-57.4637C363.377,-56.9612 360.394,-56.4689 357.5,-56 279.137,-43.3034 188.986,-29.85 128.546,-20.9967"/>
<polygon fill="midnightblue" stroke="midnightblue" points="128.764,-17.4914 118.363,-19.5074 127.751,-24.4178 128.764,-17.4914"/>
</g>
<!-- Node12&#45;&gt;Node2 -->
<g id="edge15" class="edge"><title>Node12&#45;&gt;Node2</title>
<path fill="none" stroke="midnightblue" d="M430.439,-235.463C427.079,-208.428 416.614,-124.239 411.875,-86.109"/>
<polygon fill="midnightblue" stroke="midnightblue" points="415.309,-85.3603 410.602,-75.8684 408.363,-86.2237 415.309,-85.3603"/>
</g>
<!-- Node12&#45;&gt;Node10 -->
<g id="edge16" class="edge"><title>Node12&#45;&gt;Node10</title>
<path fill="none" stroke="midnightblue" d="M444.199,-235.483C456.982,-226.75 477.101,-212.562 493.5,-199 509.007,-186.175 509.248,-178.359 526.5,-168 569.154,-142.386 591.754,-160.552 632.5,-132 672.58,-103.914 704.648,-54.7062 719.874,-28.5333"/>
<polygon fill="midnightblue" stroke="midnightblue" points="722.982,-30.148 724.866,-19.7221 716.891,-26.6972 722.982,-30.148"/>
</g>
<!-- Node12&#45;&gt;Node11 -->
<g id="edge23" class="edge"><title>Node12&#45;&gt;Node11</title>
<path fill="none" stroke="midnightblue" d="M386.998,-241.993C291.443,-237.228 73.4807,-223.737 51.5,-199 9.03799,-151.213 36.1653,-66.635 51.3054,-29.4329"/>
<polygon fill="midnightblue" stroke="midnightblue" points="54.6741,-30.4544 55.3601,-19.8818 48.2307,-27.719 54.6741,-30.4544"/>
</g>
<!-- Node13 -->
<g id="node13" class="node"><title>Node13</title>
<polygon fill="white" stroke="#bfbfbf" points="535.5,-174 535.5,-193 663.5,-193 663.5,-174 535.5,-174"/>
<text text-anchor="middle" x="599.5" y="-181" font-family="Helvetica,sans-Serif" font-size="10.00">boost/concept_check.hpp</text>
</g>
<!-- Node12&#45;&gt;Node13 -->
<g id="edge13" class="edge"><title>Node12&#45;&gt;Node13</title>
<path fill="none" stroke="midnightblue" d="M455.57,-235.475C484.513,-225.225 533.262,-207.959 565.902,-196.399"/>
<polygon fill="midnightblue" stroke="midnightblue" points="567.217,-199.647 575.474,-193.009 564.88,-193.048 567.217,-199.647"/>
</g>
<!-- Node14 -->
<g id="node14" class="node"><title>Node14</title>
<g id="a_node14"><a doxygen="/local/devel/hpp/install/share/doc/hpp-util/doxygen-html/hpp-util.doxytag:../../hpp-util/doxygen-html/" xlink:href="../../hpp-util/doxygen-html/a00022.html" target="_top" xlink:title="hpp/util/exception.hh">
<polygon fill="white" stroke="black" points="178,-174 178,-193 285,-193 285,-174 178,-174"/>
<text text-anchor="middle" x="231.5" y="-181" font-family="Helvetica,sans-Serif" font-size="10.00">hpp/util/exception.hh</text>
</a>
</g>
</g>
<!-- Node12&#45;&gt;Node14 -->
<g id="edge14" class="edge"><title>Node12&#45;&gt;Node14</title>
<path fill="none" stroke="midnightblue" d="M402.845,-235.475C367.944,-225.092 308.85,-207.512 270,-195.954"/>
<polygon fill="midnightblue" stroke="midnightblue" points="270.685,-192.506 260.102,-193.009 268.689,-199.215 270.685,-192.506"/>
</g>
<!-- Node15 -->
<g id="node15" class="node"><title>Node15</title>
<g id="a_node15"><a xlink:href="a00123.html" target="_top" xlink:title="hpp/core/constraint\l&#45;set.hh">
<polygon fill="white" stroke="black" points="303.5,-168.5 303.5,-198.5 403.5,-198.5 403.5,-168.5 303.5,-168.5"/>
<text text-anchor="start" x="311.5" y="-186.5" font-family="Helvetica,sans-Serif" font-size="10.00">hpp/core/constraint</text>
<text text-anchor="middle" x="353.5" y="-175.5" font-family="Helvetica,sans-Serif" font-size="10.00">&#45;set.hh</text>
</a>
</g>
</g>
<!-- Node12&#45;&gt;Node15 -->
<g id="edge17" class="edge"><title>Node12&#45;&gt;Node15</title>
<path fill="none" stroke="midnightblue" d="M420.325,-235.475C409.859,-227.492 393.816,-215.254 380.073,-204.77"/>
<polygon fill="midnightblue" stroke="midnightblue" points="381.957,-201.805 371.883,-198.523 377.711,-207.371 381.957,-201.805"/>
</g>
<!-- Node18 -->
<g id="node18" class="node"><title>Node18</title>
<g id="a_node18"><a xlink:href="a00184.html" target="_top" xlink:title="hpp/core/projection\l&#45;error.hh">
<polygon fill="white" stroke="black" points="61,-168.5 61,-198.5 160,-198.5 160,-168.5 61,-168.5"/>
<text text-anchor="start" x="69" y="-186.5" font-family="Helvetica,sans-Serif" font-size="10.00">hpp/core/projection</text>
<text text-anchor="middle" x="110.5" y="-175.5" font-family="Helvetica,sans-Serif" font-size="10.00">&#45;error.hh</text>
</a>
</g>
</g>
<!-- Node12&#45;&gt;Node18 -->
<g id="edge24" class="edge"><title>Node12&#45;&gt;Node18</title>
<path fill="none" stroke="midnightblue" d="M386.632,-237.379C336.175,-229.7 251.591,-216.125 170.044,-199.241"/>
<polygon fill="midnightblue" stroke="midnightblue" points="170.622,-195.786 160.117,-197.166 169.189,-202.638 170.622,-195.786"/>
</g>
<!-- Node20 -->
<g id="node20" class="node"><title>Node20</title>
<g id="a_node20"><a xlink:href="a00208.html" target="_top" xlink:title="hpp/core/time&#45;parameterization.hh">
<polygon fill="white" stroke="black" points="459.5,-112.5 459.5,-131.5 623.5,-131.5 623.5,-112.5 459.5,-112.5"/>
<text text-anchor="middle" x="541.5" y="-119.5" font-family="Helvetica,sans-Serif" font-size="10.00">hpp/core/time&#45;parameterization.hh</text>
</a>
</g>
</g>
<!-- Node12&#45;&gt;Node20 -->
<g id="edge26" class="edge"><title>Node12&#45;&gt;Node20</title>
<path fill="none" stroke="midnightblue" d="M438.024,-235.254C448.952,-220.782 471.889,-191.153 493.5,-168 503.145,-157.666 514.682,-146.808 524.028,-138.347"/>
<polygon fill="midnightblue" stroke="midnightblue" points="526.45,-140.876 531.574,-131.602 521.785,-135.657 526.45,-140.876"/>
</g>
<!-- Node15&#45;&gt;Node5 -->
<g id="edge18" class="edge"><title>Node15&#45;&gt;Node5</title>
<path fill="none" stroke="midnightblue" d="M329.498,-168.432C314.579,-159.094 295.46,-146.011 280.5,-132 245.425,-99.1501 212.412,-52.9956 195.763,-28.2625"/>
<polygon fill="midnightblue" stroke="midnightblue" points="198.478,-26.0232 190.032,-19.6267 192.645,-29.8941 198.478,-26.0232"/>
</g>
<!-- Node16 -->
<g id="node16" class="node"><title>Node16</title>
<g id="a_node16"><a xlink:href="a00124.html" target="_top" xlink:title="hpp/core/constraint.hh">
<polygon fill="white" stroke="black" points="290,-112.5 290,-131.5 403,-131.5 403,-112.5 290,-112.5"/>
<text text-anchor="middle" x="346.5" y="-119.5" font-family="Helvetica,sans-Serif" font-size="10.00">hpp/core/constraint.hh</text>
</a>
</g>
</g>
<!-- Node15&#45;&gt;Node16 -->
<g id="edge19" class="edge"><title>Node15&#45;&gt;Node16</title>
<path fill="none" stroke="midnightblue" d="M351.841,-168.399C350.908,-160.466 349.73,-150.458 348.719,-141.858"/>
<polygon fill="midnightblue" stroke="midnightblue" points="352.163,-141.18 347.519,-131.658 345.211,-141.998 352.163,-141.18"/>
</g>
<!-- Node16&#45;&gt;Node2 -->
<g id="edge22" class="edge"><title>Node16&#45;&gt;Node2</title>
<path fill="none" stroke="midnightblue" d="M356.622,-112.324C366.026,-104.263 380.244,-92.0765 391.569,-82.3695"/>
<polygon fill="midnightblue" stroke="midnightblue" points="393.879,-84.9993 399.194,-75.8339 389.323,-79.6844 393.879,-84.9993"/>
</g>
<!-- Node16&#45;&gt;Node10 -->
<g id="edge21" class="edge"><title>Node16&#45;&gt;Node10</title>
<path fill="none" stroke="midnightblue" d="M376.235,-112.46C444.61,-92.8222 613.033,-44.45 689.989,-22.3477"/>
<polygon fill="midnightblue" stroke="midnightblue" points="691.139,-25.6591 699.784,-19.5345 689.207,-18.9311 691.139,-25.6591"/>
</g>
<!-- Node17 -->
<g id="node17" class="node"><title>Node17</title>
<polygon fill="white" stroke="#bfbfbf" points="296.5,-56.5 296.5,-75.5 348.5,-75.5 348.5,-56.5 296.5,-56.5"/>
<text text-anchor="middle" x="322.5" y="-63.5" font-family="Helvetica,sans-Serif" font-size="10.00">ostream</text>
</g>
<!-- Node16&#45;&gt;Node17 -->
<g id="edge20" class="edge"><title>Node16&#45;&gt;Node17</title>
<path fill="none" stroke="midnightblue" d="M342.537,-112.083C339.287,-104.77 334.581,-94.1814 330.546,-85.1034"/>
<polygon fill="midnightblue" stroke="midnightblue" points="333.649,-83.4677 326.389,-75.7511 327.252,-86.3107 333.649,-83.4677"/>
</g>
<!-- Node19 -->
<g id="node19" class="node"><title>Node19</title>
<polygon fill="white" stroke="#bfbfbf" points="81,-112.5 81,-131.5 140,-131.5 140,-112.5 81,-112.5"/>
<text text-anchor="middle" x="110.5" y="-119.5" font-family="Helvetica,sans-Serif" font-size="10.00">exception</text>
</g>
<!-- Node18&#45;&gt;Node19 -->
<g id="edge25" class="edge"><title>Node18&#45;&gt;Node19</title>
<path fill="none" stroke="midnightblue" d="M110.5,-168.399C110.5,-160.466 110.5,-150.458 110.5,-141.858"/>
<polygon fill="midnightblue" stroke="midnightblue" points="114,-141.658 110.5,-131.658 107,-141.658 114,-141.658"/>
</g>
<!-- Node20&#45;&gt;Node2 -->
<g id="edge27" class="edge"><title>Node20&#45;&gt;Node2</title>
<path fill="none" stroke="midnightblue" d="M520.584,-112.444C498.764,-103.517 464.35,-89.4387 439.608,-79.3168"/>
<polygon fill="midnightblue" stroke="midnightblue" points="440.899,-76.0634 430.318,-75.5164 438.248,-82.5422 440.899,-76.0634"/>
</g>
<!-- Node20&#45;&gt;Node10 -->
<g id="edge28" class="edge"><title>Node20&#45;&gt;Node10</title>
<path fill="none" stroke="midnightblue" d="M556.252,-112.368C588.787,-93.3318 666.921,-47.6153 706.17,-24.6505"/>
<polygon fill="midnightblue" stroke="midnightblue" points="707.953,-27.6625 714.816,-19.5914 704.418,-21.6207 707.953,-27.6625"/>
</g>
</g>
</svg>
