<?xml version="1.0" encoding="UTF-8" standalone="no"?>
<!DOCTYPE svg PUBLIC "-//W3C//DTD SVG 1.1//EN"
 "http://www.w3.org/Graphics/SVG/1.1/DTD/svg11.dtd">
<!-- Generated by graphviz version 2.38.0 (20140413.2041)
 -->
<!-- Title: path&#45;vector.hh Pages: 1 -->
<svg width="620pt" height="151pt"
 viewBox="0.00 0.00 619.50 151.00" xmlns="http://www.w3.org/2000/svg" xmlns:xlink="http://www.w3.org/1999/xlink">
<g id="graph0" class="graph" transform="scale(1 1) rotate(0) translate(4 147)">
<title>path&#45;vector.hh</title>
<polygon fill="white" stroke="none" points="-4,4 -4,-147 615.5,-147 615.5,4 -4,4"/>
<!-- Node1 -->
<g id="node1" class="node"><title>Node1</title>
<polygon fill="#bfbfbf" stroke="black" points="295.5,-123.5 295.5,-142.5 374.5,-142.5 374.5,-123.5 295.5,-123.5"/>
<text text-anchor="middle" x="335" y="-130.5" font-family="Helvetica,sans-Serif" font-size="10.00">path&#45;vector.hh</text>
</g>
<!-- Node2 -->
<g id="node2" class="node"><title>Node2</title>
<g id="a_node2"><a xlink:href="a00136.html" target="_top" xlink:title="dubins&#45;path.hh">
<polygon fill="white" stroke="black" points="0,-62 0,-81 80,-81 80,-62 0,-62"/>
<text text-anchor="middle" x="40" y="-69" font-family="Helvetica,sans-Serif" font-size="10.00">dubins&#45;path.hh</text>
</a>
</g>
</g>
<!-- Node1&#45;&gt;Node2 -->
<g id="edge1" class="edge"><title>Node1&#45;&gt;Node2</title>
<path fill="none" stroke="midnightblue" d="M285.211,-124.494C235.286,-116.592 156.362,-103.08 89,-87 81.8378,-85.2904 74.1691,-83.1651 67.0751,-81.0735"/>
<polygon fill="midnightblue" stroke="midnightblue" points="284.682,-127.953 295.103,-126.046 285.767,-121.038 284.682,-127.953"/>
</g>
<!-- Node3 -->
<g id="node3" class="node"><title>Node3</title>
<g id="a_node3"><a xlink:href="a00116.html" target="_top" xlink:title="config&#45;optimization.hh">
<polygon fill="white" stroke="black" points="98,-62 98,-81 210,-81 210,-62 98,-62"/>
<text text-anchor="middle" x="154" y="-69" font-family="Helvetica,sans-Serif" font-size="10.00">config&#45;optimization.hh</text>
</a>
</g>
</g>
<!-- Node1&#45;&gt;Node3 -->
<g id="edge2" class="edge"><title>Node1&#45;&gt;Node3</title>
<path fill="none" stroke="midnightblue" d="M299.202,-120.232C264.018,-108.666 211.179,-91.2966 179.885,-81.0091"/>
<polygon fill="midnightblue" stroke="midnightblue" points="298.474,-123.677 309.067,-123.475 300.66,-117.027 298.474,-123.677"/>
</g>
<!-- Node4 -->
<g id="node4" class="node"><title>Node4</title>
<g id="a_node4"><a xlink:href="a00147.html" target="_top" xlink:title="gradient&#45;based.hh">
<polygon fill="white" stroke="black" points="228,-62 228,-81 322,-81 322,-62 228,-62"/>
<text text-anchor="middle" x="275" y="-69" font-family="Helvetica,sans-Serif" font-size="10.00">gradient&#45;based.hh</text>
</a>
</g>
</g>
<!-- Node1&#45;&gt;Node4 -->
<g id="edge3" class="edge"><title>Node1&#45;&gt;Node4</title>
<path fill="none" stroke="midnightblue" d="M319.193,-116.325C307.793,-105.02 292.841,-90.1928 283.581,-81.0091"/>
<polygon fill="midnightblue" stroke="midnightblue" points="316.838,-118.919 326.403,-123.475 321.767,-113.948 316.838,-118.919"/>
</g>
<!-- Node5 -->
<g id="node5" class="node"><title>Node5</title>
<g id="a_node5"><a xlink:href="a00198.html" target="_top" xlink:title="spline&#45;gradient&#45;based\l&#45;abstract.hh">
<polygon fill="white" stroke="black" points="340.5,-56.5 340.5,-86.5 449.5,-86.5 449.5,-56.5 340.5,-56.5"/>
<text text-anchor="start" x="348.5" y="-74.5" font-family="Helvetica,sans-Serif" font-size="10.00">spline&#45;gradient&#45;based</text>
<text text-anchor="middle" x="395" y="-63.5" font-family="Helvetica,sans-Serif" font-size="10.00">&#45;abstract.hh</text>
</a>
</g>
</g>
<!-- Node1&#45;&gt;Node5 -->
<g id="edge4" class="edge"><title>Node1&#45;&gt;Node5</title>
<path fill="none" stroke="midnightblue" d="M350.762,-116.369C360.096,-107.113 371.824,-95.4824 380.859,-86.523"/>
<polygon fill="midnightblue" stroke="midnightblue" points="348.233,-113.948 343.597,-123.475 353.162,-118.919 348.233,-113.948"/>
</g>
<!-- Node6 -->
<g id="node6" class="node"><title>Node6</title>
<g id="a_node6"><a xlink:href="a00199.html" target="_top" xlink:title="spline&#45;gradient&#45;based.hh">
<polygon fill="white" stroke="black" points="375,-0.5 375,-19.5 497,-19.5 497,-0.5 375,-0.5"/>
<text text-anchor="middle" x="436" y="-7.5" font-family="Helvetica,sans-Serif" font-size="10.00">spline&#45;gradient&#45;based.hh</text>
</a>
</g>
</g>
<!-- Node1&#45;&gt;Node6 -->
<g id="edge6" class="edge"><title>Node1&#45;&gt;Node6</title>
<path fill="none" stroke="midnightblue" d="M384.577,-127.465C411.326,-122.2 442.216,-110.946 459,-87 473.875,-65.7774 454.498,-34.7382 443.155,-19.746"/>
<polygon fill="midnightblue" stroke="midnightblue" points="383.82,-124.044 374.567,-129.204 385.018,-130.941 383.82,-124.044"/>
</g>
<!-- Node7 -->
<g id="node7" class="node"><title>Node7</title>
<g id="a_node7"><a xlink:href="a00188.html" target="_top" xlink:title="reeds&#45;shepp&#45;path.hh">
<polygon fill="white" stroke="black" points="506.5,-62 506.5,-81 611.5,-81 611.5,-62 506.5,-62"/>
<text text-anchor="middle" x="559" y="-69" font-family="Helvetica,sans-Serif" font-size="10.00">reeds&#45;shepp&#45;path.hh</text>
</a>
</g>
</g>
<!-- Node1&#45;&gt;Node7 -->
<g id="edge7" class="edge"><title>Node1&#45;&gt;Node7</title>
<path fill="none" stroke="midnightblue" d="M376.805,-120.896C420.31,-109.34 487.488,-91.4952 526.966,-81.0091"/>
<polygon fill="midnightblue" stroke="midnightblue" points="375.86,-117.525 367.094,-123.475 377.657,-124.29 375.86,-117.525"/>
</g>
<!-- Node5&#45;&gt;Node6 -->
<g id="edge5" class="edge"><title>Node5&#45;&gt;Node6</title>
<path fill="none" stroke="midnightblue" d="M410.432,-48.1041C417.266,-38.1868 424.902,-27.1062 430.034,-19.6578"/>
<polygon fill="midnightblue" stroke="midnightblue" points="407.509,-46.179 404.716,-56.3993 413.273,-50.1509 407.509,-46.179"/>
</g>
</g>
</svg>
