<?xml version="1.0" encoding="UTF-8" standalone="no"?>
<!DOCTYPE svg PUBLIC "-//W3C//DTD SVG 1.1//EN"
 "http://www.w3.org/Graphics/SVG/1.1/DTD/svg11.dtd">
<!-- Generated by graphviz version 2.38.0 (20140413.2041)
 -->
<!-- Title: quadratic&#45;program.hh Pages: 1 -->
<svg width="869pt" height="207pt"
 viewBox="0.00 0.00 868.50 207.00" xmlns="http://www.w3.org/2000/svg" xmlns:xlink="http://www.w3.org/1999/xlink">
<g id="graph0" class="graph" transform="scale(1 1) rotate(0) translate(4 203)">
<title>quadratic&#45;program.hh</title>
<polygon fill="white" stroke="none" points="-4,4 -4,-203 864.5,-203 864.5,4 -4,4"/>
<!-- Node1 -->
<g id="node1" class="node"><title>Node1</title>
<polygon fill="#bfbfbf" stroke="black" points="272,-179.5 272,-198.5 380,-198.5 380,-179.5 272,-179.5"/>
<text text-anchor="middle" x="326" y="-186.5" font-family="Helvetica,sans-Serif" font-size="10.00">quadratic&#45;program.hh</text>
</g>
<!-- Node2 -->
<g id="node2" class="node"><title>Node2</title>
<g id="a_node2"><a xlink:href="a00001.html" target="_top" xlink:title="hpp/core/fwd.hh">
<polygon fill="white" stroke="black" points="236,-56.5 236,-75.5 322,-75.5 322,-56.5 236,-56.5"/>
<text text-anchor="middle" x="279" y="-63.5" font-family="Helvetica,sans-Serif" font-size="10.00">hpp/core/fwd.hh</text>
</a>
</g>
</g>
<!-- Node1&#45;&gt;Node2 -->
<g id="edge1" class="edge"><title>Node1&#45;&gt;Node2</title>
<path fill="none" stroke="midnightblue" d="M319.564,-179.48C313.245,-170.745 303.744,-156.556 298,-143 290.058,-124.257 284.908,-101.452 282,-85.7413"/>
<polygon fill="midnightblue" stroke="midnightblue" points="285.42,-84.9747 280.271,-75.715 278.522,-86.1644 285.42,-84.9747"/>
</g>
<!-- Node12 -->
<g id="node12" class="node"><title>Node12</title>
<g id="a_node12"><a xlink:href="a00159.html" target="_top" xlink:title="hpp/core/path&#45;optimization\l/linear&#45;constraint.hh">
<polygon fill="white" stroke="black" points="307.5,-112.5 307.5,-142.5 438.5,-142.5 438.5,-112.5 307.5,-112.5"/>
<text text-anchor="start" x="315.5" y="-130.5" font-family="Helvetica,sans-Serif" font-size="10.00">hpp/core/path&#45;optimization</text>
<text text-anchor="middle" x="373" y="-119.5" font-family="Helvetica,sans-Serif" font-size="10.00">/linear&#45;constraint.hh</text>
</a>
</g>
</g>
<!-- Node1&#45;&gt;Node12 -->
<g id="edge11" class="edge"><title>Node1&#45;&gt;Node12</title>
<path fill="none" stroke="midnightblue" d="M332.734,-179.475C338.683,-171.944 347.623,-160.626 355.569,-150.566"/>
<polygon fill="midnightblue" stroke="midnightblue" points="358.471,-152.54 361.923,-142.523 352.978,-148.201 358.471,-152.54"/>
</g>
<!-- Node3 -->
<g id="node3" class="node"><title>Node3</title>
<polygon fill="white" stroke="#bfbfbf" points="0,-0.5 0,-19.5 44,-19.5 44,-0.5 0,-0.5"/>
<text text-anchor="middle" x="22" y="-7.5" font-family="Helvetica,sans-Serif" font-size="10.00">vector</text>
</g>
<!-- Node2&#45;&gt;Node3 -->
<g id="edge2" class="edge"><title>Node2&#45;&gt;Node3</title>
<path fill="none" stroke="midnightblue" d="M235.853,-57.5492C192.334,-49.781 123.033,-36.722 54.4065,-20.1846"/>
<polygon fill="midnightblue" stroke="midnightblue" points="54.8337,-16.6864 44.2894,-17.7196 53.1767,-23.4874 54.8337,-16.6864"/>
</g>
<!-- Node4 -->
<g id="node4" class="node"><title>Node4</title>
<polygon fill="white" stroke="#bfbfbf" points="62.5,-0.5 62.5,-19.5 97.5,-19.5 97.5,-0.5 62.5,-0.5"/>
<text text-anchor="middle" x="80" y="-7.5" font-family="Helvetica,sans-Serif" font-size="10.00">map</text>
</g>
<!-- Node2&#45;&gt;Node4 -->
<g id="edge3" class="edge"><title>Node2&#45;&gt;Node4</title>
<path fill="none" stroke="midnightblue" d="M242.652,-56.4285C209.545,-48.426 159.127,-35.7533 107.259,-20.2217"/>
<polygon fill="midnightblue" stroke="midnightblue" points="108.146,-16.8334 97.5609,-17.2888 106.12,-23.5337 108.146,-16.8334"/>
</g>
<!-- Node5 -->
<g id="node5" class="node"><title>Node5</title>
<polygon fill="white" stroke="#bfbfbf" points="115.5,-0.5 115.5,-19.5 158.5,-19.5 158.5,-0.5 115.5,-0.5"/>
<text text-anchor="middle" x="137" y="-7.5" font-family="Helvetica,sans-Serif" font-size="10.00">deque</text>
</g>
<!-- Node2&#45;&gt;Node5 -->
<g id="edge4" class="edge"><title>Node2&#45;&gt;Node5</title>
<path fill="none" stroke="midnightblue" d="M256.5,-56.4435C232.784,-47.4249 195.239,-33.1472 168.567,-23.0043"/>
<polygon fill="midnightblue" stroke="midnightblue" points="169.52,-19.6221 158.928,-19.339 167.031,-26.165 169.52,-19.6221"/>
</g>
<!-- Node6 -->
<g id="node6" class="node"><title>Node6</title>
<polygon fill="white" stroke="#bfbfbf" points="176.5,-0.5 176.5,-19.5 205.5,-19.5 205.5,-0.5 176.5,-0.5"/>
<text text-anchor="middle" x="191" y="-7.5" font-family="Helvetica,sans-Serif" font-size="10.00">list</text>
</g>
<!-- Node2&#45;&gt;Node6 -->
<g id="edge5" class="edge"><title>Node2&#45;&gt;Node6</title>
<path fill="none" stroke="midnightblue" d="M264.861,-56.324C251.134,-47.9002 230.064,-34.9709 213.936,-25.0741"/>
<polygon fill="midnightblue" stroke="midnightblue" points="215.457,-21.9016 205.104,-19.6545 211.796,-27.8678 215.457,-21.9016"/>
</g>
<!-- Node7 -->
<g id="node7" class="node"><title>Node7</title>
<polygon fill="white" stroke="#bfbfbf" points="224,-0.5 224,-19.5 254,-19.5 254,-0.5 224,-0.5"/>
<text text-anchor="middle" x="239" y="-7.5" font-family="Helvetica,sans-Serif" font-size="10.00">set</text>
</g>
<!-- Node2&#45;&gt;Node7 -->
<g id="edge6" class="edge"><title>Node2&#45;&gt;Node7</title>
<path fill="none" stroke="midnightblue" d="M272.395,-56.083C266.745,-48.4554 258.455,-37.2645 251.549,-27.9408"/>
<polygon fill="midnightblue" stroke="midnightblue" points="254.247,-25.7034 245.482,-19.7511 248.622,-29.87 254.247,-25.7034"/>
</g>
<!-- Node8 -->
<g id="node8" class="node"><title>Node8</title>
<g id="a_node8"><a doxygen="/local/devel/hpp/install/share/doc/hpp-util/doxygen-html/hpp-util.doxytag:../../hpp-util/doxygen-html/" xlink:href="../../hpp-util/doxygen-html/a00028.html" target="_top" xlink:title="hpp/util/pointer.hh">
<polygon fill="white" stroke="black" points="272,-0.5 272,-19.5 366,-19.5 366,-0.5 272,-0.5"/>
<text text-anchor="middle" x="319" y="-7.5" font-family="Helvetica,sans-Serif" font-size="10.00">hpp/util/pointer.hh</text>
</a>
</g>
</g>
<!-- Node2&#45;&gt;Node8 -->
<g id="edge7" class="edge"><title>Node2&#45;&gt;Node8</title>
<path fill="none" stroke="midnightblue" d="M285.605,-56.083C291.255,-48.4554 299.545,-37.2645 306.451,-27.9408"/>
<polygon fill="midnightblue" stroke="midnightblue" points="309.378,-29.87 312.518,-19.7511 303.753,-25.7034 309.378,-29.87"/>
</g>
<!-- Node9 -->
<g id="node9" class="node"><title>Node9</title>
<g id="a_node9"><a doxygen="/local/devel/hpp/install/share/doc/hpp-constraints/doxygen-html/hpp-constraints.doxytag:../../hpp-constraints/doxygen-html/" xlink:href="../../hpp-constraints/doxygen-html/a00001.html" target="_top" xlink:title="hpp/constraints/fwd.hh">
<polygon fill="white" stroke="black" points="384,-0.5 384,-19.5 500,-19.5 500,-0.5 384,-0.5"/>
<text text-anchor="middle" x="442" y="-7.5" font-family="Helvetica,sans-Serif" font-size="10.00">hpp/constraints/fwd.hh</text>
</a>
</g>
</g>
<!-- Node2&#45;&gt;Node9 -->
<g id="edge8" class="edge"><title>Node2&#45;&gt;Node9</title>
<path fill="none" stroke="midnightblue" d="M304.828,-56.4435C332.249,-47.3591 375.777,-32.9388 406.432,-22.7831"/>
<polygon fill="midnightblue" stroke="midnightblue" points="407.901,-25.9837 416.293,-19.5164 405.7,-19.3389 407.901,-25.9837"/>
</g>
<!-- Node10 -->
<g id="node10" class="node"><title>Node10</title>
<polygon fill="white" stroke="#bfbfbf" points="517.5,-0.5 517.5,-19.5 614.5,-19.5 614.5,-0.5 517.5,-0.5"/>
<text text-anchor="middle" x="566" y="-7.5" font-family="Helvetica,sans-Serif" font-size="10.00">hpp/core/config.hh</text>
</g>
<!-- Node2&#45;&gt;Node10 -->
<g id="edge9" class="edge"><title>Node2&#45;&gt;Node10</title>
<path fill="none" stroke="midnightblue" d="M322.278,-56.8572C372.547,-47.3988 455.591,-31.7738 510.549,-21.4332"/>
<polygon fill="midnightblue" stroke="midnightblue" points="511.29,-24.8554 520.47,-19.5666 509.995,-17.9761 511.29,-24.8554"/>
</g>
<!-- Node11 -->
<g id="node11" class="node"><title>Node11</title>
<polygon fill="white" stroke="#bfbfbf" points="632.5,-0.5 632.5,-19.5 751.5,-19.5 751.5,-0.5 632.5,-0.5"/>
<text text-anchor="middle" x="692" y="-7.5" font-family="Helvetica,sans-Serif" font-size="10.00">hpp/core/deprecated.hh</text>
</g>
<!-- Node2&#45;&gt;Node11 -->
<g id="edge10" class="edge"><title>Node2&#45;&gt;Node11</title>
<path fill="none" stroke="midnightblue" d="M322.029,-59.3739C393.275,-50.0585 536.382,-31.3471 622.229,-20.1225"/>
<polygon fill="midnightblue" stroke="midnightblue" points="622.687,-23.5925 632.149,-18.8255 621.78,-16.6516 622.687,-23.5925"/>
</g>
<!-- Node12&#45;&gt;Node2 -->
<g id="edge12" class="edge"><title>Node12&#45;&gt;Node2</title>
<path fill="none" stroke="midnightblue" d="M350.723,-112.399C335.797,-102.951 316.219,-90.5589 301.29,-81.1089"/>
<polygon fill="midnightblue" stroke="midnightblue" points="302.999,-78.0489 292.678,-75.6578 299.255,-83.9636 302.999,-78.0489"/>
</g>
<!-- Node13 -->
<g id="node13" class="node"><title>Node13</title>
<g id="a_node13"><a doxygen="/local/devel/hpp/install/share/doc/hpp-util/doxygen-html/hpp-util.doxytag:../../hpp-util/doxygen-html/" xlink:href="../../hpp-util/doxygen-html/a00018.html" target="_top" xlink:title="hpp/util/debug.hh">
<polygon fill="white" stroke="black" points="574.5,-56.5 574.5,-75.5 665.5,-75.5 665.5,-56.5 574.5,-56.5"/>
<text text-anchor="middle" x="620" y="-63.5" font-family="Helvetica,sans-Serif" font-size="10.00">hpp/util/debug.hh</text>
</a>
</g>
</g>
<!-- Node12&#45;&gt;Node13 -->
<g id="edge13" class="edge"><title>Node12&#45;&gt;Node13</title>
<path fill="none" stroke="midnightblue" d="M431.223,-112.475C475.138,-101.896 534.506,-87.5946 574.859,-77.874"/>
<polygon fill="midnightblue" stroke="midnightblue" points="575.786,-81.251 584.688,-75.5064 574.146,-74.4457 575.786,-81.251"/>
</g>
<!-- Node14 -->
<g id="node14" class="node"><title>Node14</title>
<g id="a_node14"><a doxygen="/local/devel/hpp/install/share/doc/hpp-util/doxygen-html/hpp-util.doxytag:../../hpp-util/doxygen-html/" xlink:href="../../hpp-util/doxygen-html/a00025.html" target="_top" xlink:title="hpp/util/indent.hh">
<polygon fill="white" stroke="black" points="769.5,-0.5 769.5,-19.5 860.5,-19.5 860.5,-0.5 769.5,-0.5"/>
<text text-anchor="middle" x="815" y="-7.5" font-family="Helvetica,sans-Serif" font-size="10.00">hpp/util/indent.hh</text>
</a>
</g>
</g>
<!-- Node13&#45;&gt;Node14 -->
<g id="edge14" class="edge"><title>Node13&#45;&gt;Node14</title>
<path fill="none" stroke="midnightblue" d="M650.898,-56.4435C684.274,-47.2011 737.594,-32.4356 774.349,-22.2572"/>
<polygon fill="midnightblue" stroke="midnightblue" points="775.543,-25.5583 784.246,-19.5164 773.675,-18.8122 775.543,-25.5583"/>
</g>
</g>
</svg>
