<?xml version="1.0" encoding="UTF-8" standalone="no"?>
<!DOCTYPE svg PUBLIC "-//W3C//DTD SVG 1.1//EN"
 "http://www.w3.org/Graphics/SVG/1.1/DTD/svg11.dtd">
<!-- Generated by graphviz version 2.38.0 (20140413.2041)
 -->
<!-- Title: subchain&#45;path.hh Pages: 1 -->
<svg width="1222pt" height="341pt"
 viewBox="0.00 0.00 1221.54 341.00" xmlns="http://www.w3.org/2000/svg" xmlns:xlink="http://www.w3.org/1999/xlink">
<g id="graph0" class="graph" transform="scale(1 1) rotate(0) translate(4 337)">
<title>subchain&#45;path.hh</title>
<polygon fill="white" stroke="none" points="-4,4 -4,-337 1217.54,-337 1217.54,4 -4,4"/>
<!-- Node1 -->
<g id="node1" class="node"><title>Node1</title>
<polygon fill="#bfbfbf" stroke="black" points="632.043,-313.5 632.043,-332.5 723.043,-332.5 723.043,-313.5 632.043,-313.5"/>
<text text-anchor="middle" x="677.543" y="-320.5" font-family="Helvetica,sans-Serif" font-size="10.00">subchain&#45;path.hh</text>
</g>
<!-- Node2 -->
<g id="node2" class="node"><title>Node2</title>
<g id="a_node2"><a xlink:href="a00174.html" target="_top" xlink:title="hpp/core/path.hh">
<polygon fill="white" stroke="black" points="465.043,-257.5 465.043,-276.5 554.043,-276.5 554.043,-257.5 465.043,-257.5"/>
<text text-anchor="middle" x="509.543" y="-264.5" font-family="Helvetica,sans-Serif" font-size="10.00">hpp/core/path.hh</text>
</a>
</g>
</g>
<!-- Node1&#45;&gt;Node2 -->
<g id="edge1" class="edge"><title>Node1&#45;&gt;Node2</title>
<path fill="none" stroke="midnightblue" d="M650.923,-313.444C622.537,-304.32 577.406,-289.813 545.79,-279.651"/>
<polygon fill="midnightblue" stroke="midnightblue" points="546.63,-276.244 536.038,-276.516 544.487,-282.909 546.63,-276.244"/>
</g>
<!-- Node21 -->
<g id="node21" class="node"><title>Node21</title>
<g id="a_node21"><a doxygen="/local/devel/hpp/install/share/doc/hpp-constraints/doxygen-html/hpp-constraints.doxytag:../../hpp-constraints/doxygen-html/" xlink:href="../../hpp-constraints/doxygen-html/a00127.html" target="_top" xlink:title="hpp/constraints/matrix\l&#45;view.hh">
<polygon fill="white" stroke="black" points="814.043,-123.5 814.043,-153.5 927.043,-153.5 927.043,-123.5 814.043,-123.5"/>
<text text-anchor="start" x="822.043" y="-141.5" font-family="Helvetica,sans-Serif" font-size="10.00">hpp/constraints/matrix</text>
<text text-anchor="middle" x="870.543" y="-130.5" font-family="Helvetica,sans-Serif" font-size="10.00">&#45;view.hh</text>
</a>
</g>
</g>
<!-- Node1&#45;&gt;Node21 -->
<g id="edge27" class="edge"><title>Node1&#45;&gt;Node21</title>
<path fill="none" stroke="midnightblue" d="M686.593,-313.442C715.428,-286.176 805.732,-200.785 848.134,-160.69"/>
<polygon fill="midnightblue" stroke="midnightblue" points="850.607,-163.168 855.468,-153.755 845.797,-158.082 850.607,-163.168"/>
</g>
<!-- Node3 -->
<g id="node3" class="node"><title>Node3</title>
<polygon fill="white" stroke="#bfbfbf" points="445.543,-196 445.543,-215 573.543,-215 573.543,-196 445.543,-196"/>
<text text-anchor="middle" x="509.543" y="-203" font-family="Helvetica,sans-Serif" font-size="10.00">boost/concept_check.hpp</text>
</g>
<!-- Node2&#45;&gt;Node3 -->
<g id="edge2" class="edge"><title>Node2&#45;&gt;Node3</title>
<path fill="none" stroke="midnightblue" d="M509.543,-257.475C509.543,-249.08 509.543,-235.981 509.543,-225.163"/>
<polygon fill="midnightblue" stroke="midnightblue" points="513.043,-225.009 509.543,-215.009 506.043,-225.009 513.043,-225.009"/>
</g>
<!-- Node4 -->
<g id="node4" class="node"><title>Node4</title>
<g id="a_node4"><a doxygen="/local/devel/hpp/install/share/doc/hpp-util/doxygen-html/hpp-util.doxytag:../../hpp-util/doxygen-html/" xlink:href="../../hpp-util/doxygen-html/a00022.html" target="_top" xlink:title="hpp/util/exception.hh">
<polygon fill="white" stroke="black" points="592.043,-196 592.043,-215 699.043,-215 699.043,-196 592.043,-196"/>
<text text-anchor="middle" x="645.543" y="-203" font-family="Helvetica,sans-Serif" font-size="10.00">hpp/util/exception.hh</text>
</a>
</g>
</g>
<!-- Node2&#45;&gt;Node4 -->
<g id="edge3" class="edge"><title>Node2&#45;&gt;Node4</title>
<path fill="none" stroke="midnightblue" d="M529.028,-257.475C551.953,-247.445 590.228,-230.7 616.618,-219.155"/>
<polygon fill="midnightblue" stroke="midnightblue" points="618.335,-222.224 626.093,-215.009 615.529,-215.811 618.335,-222.224"/>
</g>
<!-- Node5 -->
<g id="node5" class="node"><title>Node5</title>
<g id="a_node5"><a xlink:href="a00001.html" target="_top" xlink:title="hpp/core/fwd.hh">
<polygon fill="white" stroke="black" points="445.543,-62 445.543,-81 531.543,-81 531.543,-62 445.543,-62"/>
<text text-anchor="middle" x="488.543" y="-69" font-family="Helvetica,sans-Serif" font-size="10.00">hpp/core/fwd.hh</text>
</a>
</g>
</g>
<!-- Node2&#45;&gt;Node5 -->
<g id="edge4" class="edge"><title>Node2&#45;&gt;Node5</title>
<path fill="none" stroke="midnightblue" d="M554.3,-265.218C622.896,-262.187 742.611,-248.612 707.543,-190 671.33,-129.475 592.071,-98.3367 539.504,-83.734"/>
<polygon fill="midnightblue" stroke="midnightblue" points="540.256,-80.3122 529.692,-81.1132 538.45,-87.0752 540.256,-80.3122"/>
</g>
<!-- Node13 -->
<g id="node13" class="node"><title>Node13</title>
<polygon fill="white" stroke="#bfbfbf" points="189.043,-0.5 189.043,-19.5 286.043,-19.5 286.043,-0.5 189.043,-0.5"/>
<text text-anchor="middle" x="237.543" y="-7.5" font-family="Helvetica,sans-Serif" font-size="10.00">hpp/core/config.hh</text>
</g>
<!-- Node2&#45;&gt;Node13 -->
<g id="edge14" class="edge"><title>Node2&#45;&gt;Node13</title>
<path fill="none" stroke="midnightblue" d="M488.434,-257.434C472.3,-249.941 450.522,-237.645 436.543,-221 406.395,-185.102 426.631,-159.761 397.543,-123 361.098,-76.9429 300.721,-41.9368 265.483,-24.1128"/>
<polygon fill="midnightblue" stroke="midnightblue" points="266.767,-20.843 256.252,-19.5462 263.663,-27.1173 266.767,-20.843"/>
</g>
<!-- Node14 -->
<g id="node14" class="node"><title>Node14</title>
<polygon fill="white" stroke="#bfbfbf" points="634.043,-0.5 634.043,-19.5 753.043,-19.5 753.043,-0.5 634.043,-0.5"/>
<text text-anchor="middle" x="693.543" y="-7.5" font-family="Helvetica,sans-Serif" font-size="10.00">hpp/core/deprecated.hh</text>
</g>
<!-- Node2&#45;&gt;Node14 -->
<g id="edge21" class="edge"><title>Node2&#45;&gt;Node14</title>
<path fill="none" stroke="midnightblue" d="M554.381,-263.146C611.225,-258.485 704.397,-247.005 725.543,-221 772.087,-163.76 726.348,-67.7443 704.131,-28.5073"/>
<polygon fill="midnightblue" stroke="midnightblue" points="707.122,-26.6877 699.06,-19.8133 701.075,-30.2147 707.122,-26.6877"/>
</g>
<!-- Node15 -->
<g id="node15" class="node"><title>Node15</title>
<g id="a_node15"><a xlink:href="a00123.html" target="_top" xlink:title="hpp/core/constraint\l&#45;set.hh">
<polygon fill="white" stroke="black" points="22.5426,-190.5 22.5426,-220.5 122.543,-220.5 122.543,-190.5 22.5426,-190.5"/>
<text text-anchor="start" x="30.5426" y="-208.5" font-family="Helvetica,sans-Serif" font-size="10.00">hpp/core/constraint</text>
<text text-anchor="middle" x="72.5426" y="-197.5" font-family="Helvetica,sans-Serif" font-size="10.00">&#45;set.hh</text>
</a>
</g>
</g>
<!-- Node2&#45;&gt;Node15 -->
<g id="edge15" class="edge"><title>Node2&#45;&gt;Node15</title>
<path fill="none" stroke="midnightblue" d="M464.83,-259.912C385.863,-249.16 221.675,-226.805 132.805,-214.705"/>
<polygon fill="midnightblue" stroke="midnightblue" points="133.255,-211.234 122.875,-213.353 132.311,-218.17 133.255,-211.234"/>
</g>
<!-- Node18 -->
<g id="node18" class="node"><title>Node18</title>
<g id="a_node18"><a xlink:href="a00184.html" target="_top" xlink:title="hpp/core/projection\l&#45;error.hh">
<polygon fill="white" stroke="black" points="290.043,-190.5 290.043,-220.5 389.043,-220.5 389.043,-190.5 290.043,-190.5"/>
<text text-anchor="start" x="298.043" y="-208.5" font-family="Helvetica,sans-Serif" font-size="10.00">hpp/core/projection</text>
<text text-anchor="middle" x="339.543" y="-197.5" font-family="Helvetica,sans-Serif" font-size="10.00">&#45;error.hh</text>
</a>
</g>
</g>
<!-- Node2&#45;&gt;Node18 -->
<g id="edge22" class="edge"><title>Node2&#45;&gt;Node18</title>
<path fill="none" stroke="midnightblue" d="M485.186,-257.475C460.225,-248.739 420.706,-234.907 389.128,-223.855"/>
<polygon fill="midnightblue" stroke="midnightblue" points="390.203,-220.523 379.608,-220.523 387.891,-227.13 390.203,-220.523"/>
</g>
<!-- Node20 -->
<g id="node20" class="node"><title>Node20</title>
<g id="a_node20"><a xlink:href="a00208.html" target="_top" xlink:title="hpp/core/time&#45;parameterization.hh">
<polygon fill="white" stroke="black" points="147.543,-129 147.543,-148 311.543,-148 311.543,-129 147.543,-129"/>
<text text-anchor="middle" x="229.543" y="-136" font-family="Helvetica,sans-Serif" font-size="10.00">hpp/core/time&#45;parameterization.hh</text>
</a>
</g>
</g>
<!-- Node2&#45;&gt;Node20 -->
<g id="edge24" class="edge"><title>Node2&#45;&gt;Node20</title>
<path fill="none" stroke="midnightblue" d="M465.034,-261.486C407.137,-254.904 309.913,-241.216 280.543,-221 258.026,-205.501 243.446,-176.479 235.864,-157.578"/>
<polygon fill="midnightblue" stroke="midnightblue" points="239.073,-156.167 232.283,-148.034 232.519,-158.626 239.073,-156.167"/>
</g>
<!-- Node6 -->
<g id="node6" class="node"><title>Node6</title>
<polygon fill="white" stroke="#bfbfbf" points="310.543,-0.5 310.543,-19.5 354.543,-19.5 354.543,-0.5 310.543,-0.5"/>
<text text-anchor="middle" x="332.543" y="-7.5" font-family="Helvetica,sans-Serif" font-size="10.00">vector</text>
</g>
<!-- Node5&#45;&gt;Node6 -->
<g id="edge5" class="edge"><title>Node5&#45;&gt;Node6</title>
<path fill="none" stroke="midnightblue" d="M466.192,-61.9751C439.548,-51.8129 394.828,-34.7564 364.528,-23.1996"/>
<polygon fill="midnightblue" stroke="midnightblue" points="365.443,-19.8026 354.852,-19.5091 362.948,-26.343 365.443,-19.8026"/>
</g>
<!-- Node7 -->
<g id="node7" class="node"><title>Node7</title>
<polygon fill="white" stroke="#bfbfbf" points="373.043,-0.5 373.043,-19.5 408.043,-19.5 408.043,-0.5 373.043,-0.5"/>
<text text-anchor="middle" x="390.543" y="-7.5" font-family="Helvetica,sans-Serif" font-size="10.00">map</text>
</g>
<!-- Node5&#45;&gt;Node7 -->
<g id="edge6" class="edge"><title>Node5&#45;&gt;Node7</title>
<path fill="none" stroke="midnightblue" d="M474.502,-61.9751C458.492,-52.2548 432.092,-36.2266 413.169,-24.7372"/>
<polygon fill="midnightblue" stroke="midnightblue" points="414.922,-21.7072 404.558,-19.5091 411.289,-27.6907 414.922,-21.7072"/>
</g>
<!-- Node8 -->
<g id="node8" class="node"><title>Node8</title>
<polygon fill="white" stroke="#bfbfbf" points="44.0426,-0.5 44.0426,-19.5 87.0426,-19.5 87.0426,-0.5 44.0426,-0.5"/>
<text text-anchor="middle" x="65.5426" y="-7.5" font-family="Helvetica,sans-Serif" font-size="10.00">deque</text>
</g>
<!-- Node5&#45;&gt;Node8 -->
<g id="edge7" class="edge"><title>Node5&#45;&gt;Node8</title>
<path fill="none" stroke="midnightblue" d="M445.262,-64.4121C360.168,-52.4426 172.838,-26.0923 97.6764,-15.52"/>
<polygon fill="midnightblue" stroke="midnightblue" points="97.8165,-12.0053 87.4264,-14.0782 96.8414,-18.9371 97.8165,-12.0053"/>
</g>
<!-- Node9 -->
<g id="node9" class="node"><title>Node9</title>
<polygon fill="white" stroke="#bfbfbf" points="426.043,-0.5 426.043,-19.5 455.043,-19.5 455.043,-0.5 426.043,-0.5"/>
<text text-anchor="middle" x="440.543" y="-7.5" font-family="Helvetica,sans-Serif" font-size="10.00">list</text>
</g>
<!-- Node5&#45;&gt;Node9 -->
<g id="edge8" class="edge"><title>Node5&#45;&gt;Node9</title>
<path fill="none" stroke="midnightblue" d="M481.665,-61.9751C474.394,-52.9617 462.747,-38.5246 453.702,-27.3118"/>
<polygon fill="midnightblue" stroke="midnightblue" points="456.41,-25.0946 447.407,-19.5091 450.962,-29.4898 456.41,-25.0946"/>
</g>
<!-- Node10 -->
<g id="node10" class="node"><title>Node10</title>
<polygon fill="white" stroke="#bfbfbf" points="473.543,-0.5 473.543,-19.5 503.543,-19.5 503.543,-0.5 473.543,-0.5"/>
<text text-anchor="middle" x="488.543" y="-7.5" font-family="Helvetica,sans-Serif" font-size="10.00">set</text>
</g>
<!-- Node5&#45;&gt;Node10 -->
<g id="edge9" class="edge"><title>Node5&#45;&gt;Node10</title>
<path fill="none" stroke="midnightblue" d="M488.543,-61.9751C488.543,-53.5803 488.543,-40.4806 488.543,-29.6631"/>
<polygon fill="midnightblue" stroke="midnightblue" points="492.043,-29.5091 488.543,-19.5091 485.043,-29.5091 492.043,-29.5091"/>
</g>
<!-- Node11 -->
<g id="node11" class="node"><title>Node11</title>
<g id="a_node11"><a doxygen="/local/devel/hpp/install/share/doc/hpp-util/doxygen-html/hpp-util.doxytag:../../hpp-util/doxygen-html/" xlink:href="../../hpp-util/doxygen-html/a00028.html" target="_top" xlink:title="hpp/util/pointer.hh">
<polygon fill="white" stroke="black" points="521.543,-0.5 521.543,-19.5 615.543,-19.5 615.543,-0.5 521.543,-0.5"/>
<text text-anchor="middle" x="568.543" y="-7.5" font-family="Helvetica,sans-Serif" font-size="10.00">hpp/util/pointer.hh</text>
</a>
</g>
</g>
<!-- Node5&#45;&gt;Node11 -->
<g id="edge10" class="edge"><title>Node5&#45;&gt;Node11</title>
<path fill="none" stroke="midnightblue" d="M500.005,-61.9751C512.718,-52.5199 533.455,-37.0961 548.795,-25.6871"/>
<polygon fill="midnightblue" stroke="midnightblue" points="551.167,-28.2854 557.102,-19.5091 546.989,-22.6686 551.167,-28.2854"/>
</g>
<!-- Node12 -->
<g id="node12" class="node"><title>Node12</title>
<g id="a_node12"><a doxygen="/local/devel/hpp/install/share/doc/hpp-constraints/doxygen-html/hpp-constraints.doxytag:../../hpp-constraints/doxygen-html/" xlink:href="../../hpp-constraints/doxygen-html/a00001.html" target="_top" xlink:title="hpp/constraints/fwd.hh">
<polygon fill="white" stroke="black" points="771.543,-0.5 771.543,-19.5 887.543,-19.5 887.543,-0.5 771.543,-0.5"/>
<text text-anchor="middle" x="829.543" y="-7.5" font-family="Helvetica,sans-Serif" font-size="10.00">hpp/constraints/fwd.hh</text>
</a>
</g>
</g>
<!-- Node5&#45;&gt;Node12 -->
<g id="edge11" class="edge"><title>Node5&#45;&gt;Node12</title>
<path fill="none" stroke="midnightblue" d="M531.731,-62.9643C592.246,-52.4052 702.473,-33.172 770.521,-21.2985"/>
<polygon fill="midnightblue" stroke="midnightblue" points="771.405,-24.6972 780.654,-19.5303 770.202,-17.8014 771.405,-24.6972"/>
</g>
<!-- Node5&#45;&gt;Node13 -->
<g id="edge12" class="edge"><title>Node5&#45;&gt;Node13</title>
<path fill="none" stroke="midnightblue" d="M455.417,-61.9472C447.596,-59.9629 439.282,-57.8817 431.543,-56 381.785,-43.9016 324.667,-30.74 285.359,-21.7949"/>
<polygon fill="midnightblue" stroke="midnightblue" points="286.043,-18.3611 275.516,-19.5583 284.492,-25.1871 286.043,-18.3611"/>
</g>
<!-- Node5&#45;&gt;Node14 -->
<g id="edge13" class="edge"><title>Node5&#45;&gt;Node14</title>
<path fill="none" stroke="midnightblue" d="M517.914,-61.9751C553.84,-51.5478 614.775,-33.8618 654.587,-22.3066"/>
<polygon fill="midnightblue" stroke="midnightblue" points="655.598,-25.6578 664.226,-19.5091 653.646,-18.9353 655.598,-25.6578"/>
</g>
<!-- Node15&#45;&gt;Node8 -->
<g id="edge16" class="edge"><title>Node15&#45;&gt;Node8</title>
<path fill="none" stroke="midnightblue" d="M43.632,-190.448C29.6934,-181.99 14.3386,-169.781 6.54264,-154 -15.6635,-109.048 25.8943,-53.6106 50.0259,-26.8862"/>
<polygon fill="midnightblue" stroke="midnightblue" points="52.6013,-29.2564 56.8656,-19.5577 47.4838,-24.4803 52.6013,-29.2564"/>
</g>
<!-- Node16 -->
<g id="node16" class="node"><title>Node16</title>
<g id="a_node16"><a xlink:href="a00124.html" target="_top" xlink:title="hpp/core/constraint.hh">
<polygon fill="white" stroke="black" points="16.0426,-129 16.0426,-148 129.043,-148 129.043,-129 16.0426,-129"/>
<text text-anchor="middle" x="72.5426" y="-136" font-family="Helvetica,sans-Serif" font-size="10.00">hpp/core/constraint.hh</text>
</a>
</g>
</g>
<!-- Node15&#45;&gt;Node16 -->
<g id="edge17" class="edge"><title>Node15&#45;&gt;Node16</title>
<path fill="none" stroke="midnightblue" d="M72.5426,-190.396C72.5426,-181.064 72.5426,-168.714 72.5426,-158.517"/>
<polygon fill="midnightblue" stroke="midnightblue" points="76.0427,-158.195 72.5426,-148.195 69.0427,-158.195 76.0427,-158.195"/>
</g>
<!-- Node16&#45;&gt;Node5 -->
<g id="edge20" class="edge"><title>Node16&#45;&gt;Node5</title>
<path fill="none" stroke="midnightblue" d="M109.103,-128.97C118.656,-126.877 128.962,-124.741 138.543,-123 243.109,-103.996 366.303,-87.6013 435.115,-78.9771"/>
<polygon fill="midnightblue" stroke="midnightblue" points="435.782,-82.4211 445.272,-77.7111 434.916,-75.4749 435.782,-82.4211"/>
</g>
<!-- Node16&#45;&gt;Node13 -->
<g id="edge19" class="edge"><title>Node16&#45;&gt;Node13</title>
<path fill="none" stroke="midnightblue" d="M83.8838,-128.805C111.672,-107.501 183.413,-52.4991 218.14,-25.8753"/>
<polygon fill="midnightblue" stroke="midnightblue" points="220.316,-28.6177 226.122,-19.7557 216.057,-23.0624 220.316,-28.6177"/>
</g>
<!-- Node17 -->
<g id="node17" class="node"><title>Node17</title>
<polygon fill="white" stroke="#bfbfbf" points="46.5426,-62 46.5426,-81 98.5426,-81 98.5426,-62 46.5426,-62"/>
<text text-anchor="middle" x="72.5426" y="-69" font-family="Helvetica,sans-Serif" font-size="10.00">ostream</text>
</g>
<!-- Node16&#45;&gt;Node17 -->
<g id="edge18" class="edge"><title>Node16&#45;&gt;Node17</title>
<path fill="none" stroke="midnightblue" d="M72.5426,-128.734C72.5426,-119.183 72.5426,-103.618 72.5426,-91.2829"/>
<polygon fill="midnightblue" stroke="midnightblue" points="76.0427,-91.1273 72.5426,-81.1273 69.0427,-91.1273 76.0427,-91.1273"/>
</g>
<!-- Node19 -->
<g id="node19" class="node"><title>Node19</title>
<polygon fill="white" stroke="#bfbfbf" points="330.043,-129 330.043,-148 389.043,-148 389.043,-129 330.043,-129"/>
<text text-anchor="middle" x="359.543" y="-136" font-family="Helvetica,sans-Serif" font-size="10.00">exception</text>
</g>
<!-- Node18&#45;&gt;Node19 -->
<g id="edge23" class="edge"><title>Node18&#45;&gt;Node19</title>
<path fill="none" stroke="midnightblue" d="M343.882,-190.396C346.816,-180.863 350.717,-168.182 353.893,-157.862"/>
<polygon fill="midnightblue" stroke="midnightblue" points="357.272,-158.782 356.867,-148.195 350.581,-156.723 357.272,-158.782"/>
</g>
<!-- Node20&#45;&gt;Node5 -->
<g id="edge25" class="edge"><title>Node20&#45;&gt;Node5</title>
<path fill="none" stroke="midnightblue" d="M263.669,-128.936C310.157,-117.268 393.442,-96.3669 444.566,-83.5367"/>
<polygon fill="midnightblue" stroke="midnightblue" points="445.494,-86.9124 454.341,-81.0834 443.79,-80.1229 445.494,-86.9124"/>
</g>
<!-- Node20&#45;&gt;Node13 -->
<g id="edge26" class="edge"><title>Node20&#45;&gt;Node13</title>
<path fill="none" stroke="midnightblue" d="M230.093,-128.805C231.377,-108.494 234.599,-57.5532 236.355,-29.7768"/>
<polygon fill="midnightblue" stroke="midnightblue" points="239.851,-29.9567 236.989,-19.7557 232.865,-29.5148 239.851,-29.9567"/>
</g>
<!-- Node21&#45;&gt;Node5 -->
<g id="edge28" class="edge"><title>Node21&#45;&gt;Node5</title>
<path fill="none" stroke="midnightblue" d="M813.766,-127.839C740.371,-115.35 613.509,-93.7639 541.848,-81.5703"/>
<polygon fill="midnightblue" stroke="midnightblue" points="542.134,-78.0687 531.689,-79.8416 540.96,-84.9695 542.134,-78.0687"/>
</g>
<!-- Node21&#45;&gt;Node12 -->
<g id="edge30" class="edge"><title>Node21&#45;&gt;Node12</title>
<path fill="none" stroke="midnightblue" d="M851.344,-123.454C840.662,-114.397 828.375,-101.603 822.543,-87 815.115,-68.404 818.896,-45.2783 823.241,-29.4514"/>
<polygon fill="midnightblue" stroke="midnightblue" points="826.613,-30.3929 826.208,-19.8058 819.923,-28.3348 826.613,-30.3929"/>
</g>
<!-- Node22 -->
<g id="node22" class="node"><title>Node22</title>
<g id="a_node22"><a xlink:href="a00142.html" target="_top" xlink:title="hpp/constraints/fwd.hh">
<polygon fill="white" stroke="black" points="831.543,-62 831.543,-81 947.543,-81 947.543,-62 831.543,-62"/>
<text text-anchor="middle" x="889.543" y="-69" font-family="Helvetica,sans-Serif" font-size="10.00">hpp/constraints/fwd.hh</text>
</a>
</g>
</g>
<!-- Node21&#45;&gt;Node22 -->
<g id="edge29" class="edge"><title>Node21&#45;&gt;Node22</title>
<path fill="none" stroke="midnightblue" d="M874.665,-123.396C877.452,-113.863 881.159,-101.182 884.175,-90.8624"/>
<polygon fill="midnightblue" stroke="midnightblue" points="887.555,-91.7749 887.001,-81.1945 880.836,-89.8109 887.555,-91.7749"/>
</g>
<!-- Node23 -->
<g id="node23" class="node"><title>Node23</title>
<g id="a_node23"><a doxygen="/local/devel/hpp/install/share/doc/hpp-constraints/doxygen-html/hpp-constraints.doxytag:../../hpp-constraints/doxygen-html/" xlink:href="../../hpp-constraints/doxygen-html/a00126.html" target="_top" xlink:title="hpp/constraints/impl\l/matrix&#45;view.hh">
<polygon fill="white" stroke="black" points="965.543,-56.5 965.543,-86.5 1069.54,-86.5 1069.54,-56.5 965.543,-56.5"/>
<text text-anchor="start" x="973.543" y="-74.5" font-family="Helvetica,sans-Serif" font-size="10.00">hpp/constraints/impl</text>
<text text-anchor="middle" x="1017.54" y="-63.5" font-family="Helvetica,sans-Serif" font-size="10.00">/matrix&#45;view.hh</text>
</a>
</g>
</g>
<!-- Node21&#45;&gt;Node23 -->
<g id="edge31" class="edge"><title>Node21&#45;&gt;Node23</title>
<path fill="none" stroke="midnightblue" d="M902.439,-123.396C924.11,-113.814 952.976,-101.05 976.379,-90.7016"/>
<polygon fill="midnightblue" stroke="midnightblue" points="977.978,-93.8217 985.708,-86.5765 975.147,-87.4196 977.978,-93.8217"/>
</g>
<!-- Node24 -->
<g id="node24" class="node"><title>Node24</title>
<g id="a_node24"><a doxygen="/local/devel/hpp/install/share/doc/hpp-constraints/doxygen-html/hpp-constraints.doxytag:../../hpp-constraints/doxygen-html/" xlink:href="../../hpp-constraints/doxygen-html/a00125.html" target="_top" xlink:title="hpp/constraints/impl\l/matrix&#45;view&#45;operation.hh">
<polygon fill="white" stroke="black" points="1087.54,-56.5 1087.54,-86.5 1213.54,-86.5 1213.54,-56.5 1087.54,-56.5"/>
<text text-anchor="start" x="1095.54" y="-74.5" font-family="Helvetica,sans-Serif" font-size="10.00">hpp/constraints/impl</text>
<text text-anchor="middle" x="1150.54" y="-63.5" font-family="Helvetica,sans-Serif" font-size="10.00">/matrix&#45;view&#45;operation.hh</text>
</a>
</g>
</g>
<!-- Node21&#45;&gt;Node24 -->
<g id="edge32" class="edge"><title>Node21&#45;&gt;Node24</title>
<path fill="none" stroke="midnightblue" d="M927.205,-124.346C971.364,-114.095 1032.92,-99.8062 1080.22,-88.8245"/>
<polygon fill="midnightblue" stroke="midnightblue" points="1081.14,-92.2047 1090.09,-86.534 1079.56,-85.386 1081.14,-92.2047"/>
</g>
</g>
</svg>
