<?xml version="1.0" encoding="UTF-8" standalone="no"?>
<!DOCTYPE svg PUBLIC "-//W3C//DTD SVG 1.1//EN"
 "http://www.w3.org/Graphics/SVG/1.1/DTD/svg11.dtd">
<!-- Generated by graphviz version 2.38.0 (20140413.2041)
 -->
<!-- Title: recursive&#45;hermite.hh Pages: 1 -->
<svg width="761pt" height="196pt"
 viewBox="0.00 0.00 760.50 196.00" xmlns="http://www.w3.org/2000/svg" xmlns:xlink="http://www.w3.org/1999/xlink">
<g id="graph0" class="graph" transform="scale(1 1) rotate(0) translate(4 192)">
<title>recursive&#45;hermite.hh</title>
<polygon fill="white" stroke="none" points="-4,4 -4,-192 756.5,-192 756.5,4 -4,4"/>
<!-- Node1 -->
<g id="node1" class="node"><title>Node1</title>
<polygon fill="#bfbfbf" stroke="black" points="508.5,-168.5 508.5,-187.5 613.5,-187.5 613.5,-168.5 508.5,-168.5"/>
<text text-anchor="middle" x="561" y="-175.5" font-family="Helvetica,sans-Serif" font-size="10.00">recursive&#45;hermite.hh</text>
</g>
<!-- Node2 -->
<g id="node2" class="node"><title>Node2</title>
<g id="a_node2"><a xlink:href="a00001.html" target="_top" xlink:title="hpp/core/fwd.hh">
<polygon fill="white" stroke="black" points="276,-56.5 276,-75.5 362,-75.5 362,-56.5 276,-56.5"/>
<text text-anchor="middle" x="319" y="-63.5" font-family="Helvetica,sans-Serif" font-size="10.00">hpp/core/fwd.hh</text>
</a>
</g>
</g>
<!-- Node1&#45;&gt;Node2 -->
<g id="edge1" class="edge"><title>Node1&#45;&gt;Node2</title>
<path fill="none" stroke="midnightblue" d="M542.011,-168.368C499.6,-149.091 396.998,-102.454 347.137,-79.7894"/>
<polygon fill="midnightblue" stroke="midnightblue" points="348.453,-76.5432 337.901,-75.5914 345.556,-82.9158 348.453,-76.5432"/>
</g>
<!-- Node10 -->
<g id="node10" class="node"><title>Node10</title>
<polygon fill="white" stroke="#bfbfbf" points="655.5,-0.5 655.5,-19.5 752.5,-19.5 752.5,-0.5 655.5,-0.5"/>
<text text-anchor="middle" x="704" y="-7.5" font-family="Helvetica,sans-Serif" font-size="10.00">hpp/core/config.hh</text>
</g>
<!-- Node1&#45;&gt;Node10 -->
<g id="edge11" class="edge"><title>Node1&#45;&gt;Node10</title>
<path fill="none" stroke="midnightblue" d="M580.791,-168.406C596.876,-160.672 619.382,-148.063 635,-132 665.091,-101.051 686.765,-54.4339 697.131,-29.0448"/>
<polygon fill="midnightblue" stroke="midnightblue" points="700.454,-30.1577 700.873,-19.5711 693.944,-27.5863 700.454,-30.1577"/>
</g>
<!-- Node12 -->
<g id="node12" class="node"><title>Node12</title>
<g id="a_node12"><a xlink:href="a00169.html" target="_top" xlink:title="hpp/core/path&#45;projector.hh">
<polygon fill="white" stroke="black" points="496,-112.5 496,-131.5 626,-131.5 626,-112.5 496,-112.5"/>
<text text-anchor="middle" x="561" y="-119.5" font-family="Helvetica,sans-Serif" font-size="10.00">hpp/core/path&#45;projector.hh</text>
</a>
</g>
</g>
<!-- Node1&#45;&gt;Node12 -->
<g id="edge12" class="edge"><title>Node1&#45;&gt;Node12</title>
<path fill="none" stroke="midnightblue" d="M561,-168.083C561,-161.006 561,-150.861 561,-141.986"/>
<polygon fill="midnightblue" stroke="midnightblue" points="564.5,-141.751 561,-131.751 557.5,-141.751 564.5,-141.751"/>
</g>
<!-- Node3 -->
<g id="node3" class="node"><title>Node3</title>
<polygon fill="white" stroke="#bfbfbf" points="0,-0.5 0,-19.5 44,-19.5 44,-0.5 0,-0.5"/>
<text text-anchor="middle" x="22" y="-7.5" font-family="Helvetica,sans-Serif" font-size="10.00">vector</text>
</g>
<!-- Node2&#45;&gt;Node3 -->
<g id="edge2" class="edge"><title>Node2&#45;&gt;Node3</title>
<path fill="none" stroke="midnightblue" d="M275.855,-59.2582C225.001,-52.1471 137.804,-38.8821 54.1842,-20.0597"/>
<polygon fill="midnightblue" stroke="midnightblue" points="54.7989,-16.6101 44.2709,-17.7979 53.2418,-23.4347 54.7989,-16.6101"/>
</g>
<!-- Node4 -->
<g id="node4" class="node"><title>Node4</title>
<polygon fill="white" stroke="#bfbfbf" points="62.5,-0.5 62.5,-19.5 97.5,-19.5 97.5,-0.5 62.5,-0.5"/>
<text text-anchor="middle" x="80" y="-7.5" font-family="Helvetica,sans-Serif" font-size="10.00">map</text>
</g>
<!-- Node2&#45;&gt;Node4 -->
<g id="edge3" class="edge"><title>Node2&#45;&gt;Node4</title>
<path fill="none" stroke="midnightblue" d="M275.782,-57.5104C234.591,-50.0078 170.707,-37.4268 107.288,-20.1057"/>
<polygon fill="midnightblue" stroke="midnightblue" points="108.1,-16.6988 97.5284,-17.4007 106.23,-23.4445 108.1,-16.6988"/>
</g>
<!-- Node5 -->
<g id="node5" class="node"><title>Node5</title>
<polygon fill="white" stroke="#bfbfbf" points="115.5,-0.5 115.5,-19.5 158.5,-19.5 158.5,-0.5 115.5,-0.5"/>
<text text-anchor="middle" x="137" y="-7.5" font-family="Helvetica,sans-Serif" font-size="10.00">deque</text>
</g>
<!-- Node2&#45;&gt;Node5 -->
<g id="edge4" class="edge"><title>Node2&#45;&gt;Node5</title>
<path fill="none" stroke="midnightblue" d="M290.134,-56.488C261.463,-48.0262 215.996,-34.587 168.211,-20.3543"/>
<polygon fill="midnightblue" stroke="midnightblue" points="169.21,-17.0001 158.627,-17.4984 167.211,-23.7085 169.21,-17.0001"/>
</g>
<!-- Node6 -->
<g id="node6" class="node"><title>Node6</title>
<polygon fill="white" stroke="#bfbfbf" points="176.5,-0.5 176.5,-19.5 205.5,-19.5 205.5,-0.5 176.5,-0.5"/>
<text text-anchor="middle" x="191" y="-7.5" font-family="Helvetica,sans-Serif" font-size="10.00">list</text>
</g>
<!-- Node2&#45;&gt;Node6 -->
<g id="edge5" class="edge"><title>Node2&#45;&gt;Node6</title>
<path fill="none" stroke="midnightblue" d="M298.718,-56.4435C276.019,-46.8675 239.266,-31.3623 215.115,-21.1733"/>
<polygon fill="midnightblue" stroke="midnightblue" points="216.187,-17.8272 205.613,-17.1649 213.466,-24.2767 216.187,-17.8272"/>
</g>
<!-- Node7 -->
<g id="node7" class="node"><title>Node7</title>
<polygon fill="white" stroke="#bfbfbf" points="224,-0.5 224,-19.5 254,-19.5 254,-0.5 224,-0.5"/>
<text text-anchor="middle" x="239" y="-7.5" font-family="Helvetica,sans-Serif" font-size="10.00">set</text>
</g>
<!-- Node2&#45;&gt;Node7 -->
<g id="edge6" class="edge"><title>Node2&#45;&gt;Node7</title>
<path fill="none" stroke="midnightblue" d="M306.147,-56.324C293.784,-47.979 274.87,-35.2122 260.263,-25.3524"/>
<polygon fill="midnightblue" stroke="midnightblue" points="262.068,-22.3483 251.821,-19.6545 258.152,-28.1503 262.068,-22.3483"/>
</g>
<!-- Node8 -->
<g id="node8" class="node"><title>Node8</title>
<g id="a_node8"><a doxygen="/local/devel/hpp/install/share/doc/hpp-util/doxygen-html/hpp-util.doxytag:../../hpp-util/doxygen-html/" xlink:href="../../hpp-util/doxygen-html/a00028.html" target="_top" xlink:title="hpp/util/pointer.hh">
<polygon fill="white" stroke="black" points="272,-0.5 272,-19.5 366,-19.5 366,-0.5 272,-0.5"/>
<text text-anchor="middle" x="319" y="-7.5" font-family="Helvetica,sans-Serif" font-size="10.00">hpp/util/pointer.hh</text>
</a>
</g>
</g>
<!-- Node2&#45;&gt;Node8 -->
<g id="edge7" class="edge"><title>Node2&#45;&gt;Node8</title>
<path fill="none" stroke="midnightblue" d="M319,-56.083C319,-49.0059 319,-38.8611 319,-29.9865"/>
<polygon fill="midnightblue" stroke="midnightblue" points="322.5,-29.751 319,-19.7511 315.5,-29.7511 322.5,-29.751"/>
</g>
<!-- Node9 -->
<g id="node9" class="node"><title>Node9</title>
<g id="a_node9"><a doxygen="/local/devel/hpp/install/share/doc/hpp-constraints/doxygen-html/hpp-constraints.doxytag:../../hpp-constraints/doxygen-html/" xlink:href="../../hpp-constraints/doxygen-html/a00001.html" target="_top" xlink:title="hpp/constraints/fwd.hh">
<polygon fill="white" stroke="black" points="384,-0.5 384,-19.5 500,-19.5 500,-0.5 384,-0.5"/>
<text text-anchor="middle" x="442" y="-7.5" font-family="Helvetica,sans-Serif" font-size="10.00">hpp/constraints/fwd.hh</text>
</a>
</g>
</g>
<!-- Node2&#45;&gt;Node9 -->
<g id="edge8" class="edge"><title>Node2&#45;&gt;Node9</title>
<path fill="none" stroke="midnightblue" d="M338.49,-56.4435C358.642,-47.5961 390.323,-33.6875 413.331,-23.5865"/>
<polygon fill="midnightblue" stroke="midnightblue" points="414.852,-26.7411 422.601,-19.5164 412.038,-20.3316 414.852,-26.7411"/>
</g>
<!-- Node2&#45;&gt;Node10 -->
<g id="edge9" class="edge"><title>Node2&#45;&gt;Node10</title>
<path fill="none" stroke="midnightblue" d="M362.021,-59.3803C422.841,-51.3734 537.707,-36.0236 645.153,-20.2513"/>
<polygon fill="midnightblue" stroke="midnightblue" points="645.809,-23.6925 655.192,-18.7731 644.789,-16.7672 645.809,-23.6925"/>
</g>
<!-- Node11 -->
<g id="node11" class="node"><title>Node11</title>
<polygon fill="white" stroke="#bfbfbf" points="518.5,-0.5 518.5,-19.5 637.5,-19.5 637.5,-0.5 518.5,-0.5"/>
<text text-anchor="middle" x="578" y="-7.5" font-family="Helvetica,sans-Serif" font-size="10.00">hpp/core/deprecated.hh</text>
</g>
<!-- Node2&#45;&gt;Node11 -->
<g id="edge10" class="edge"><title>Node2&#45;&gt;Node11</title>
<path fill="none" stroke="midnightblue" d="M360.039,-56.4435C405.316,-47.0036 478.227,-31.802 527.106,-21.6111"/>
<polygon fill="midnightblue" stroke="midnightblue" points="528.078,-24.9839 537.153,-19.5164 526.649,-18.1312 528.078,-24.9839"/>
</g>
<!-- Node12&#45;&gt;Node2 -->
<g id="edge14" class="edge"><title>Node12&#45;&gt;Node2</title>
<path fill="none" stroke="midnightblue" d="M522.654,-112.444C480.527,-103.043 412.794,-87.9291 367.128,-77.7393"/>
<polygon fill="midnightblue" stroke="midnightblue" points="367.688,-74.2784 357.166,-75.5164 366.164,-81.1103 367.688,-74.2784"/>
</g>
<!-- Node12&#45;&gt;Node10 -->
<g id="edge13" class="edge"><title>Node12&#45;&gt;Node10</title>
<path fill="none" stroke="midnightblue" d="M572.221,-112.368C596.551,-93.6531 654.404,-49.1509 684.718,-25.8324"/>
<polygon fill="midnightblue" stroke="midnightblue" points="687.039,-28.4628 692.831,-19.5914 682.771,-22.9144 687.039,-28.4628"/>
</g>
</g>
</svg>
