<?xml version="1.0" encoding="UTF-8" standalone="no"?>
<!DOCTYPE svg PUBLIC "-//W3C//DTD SVG 1.1//EN"
 "http://www.w3.org/Graphics/SVG/1.1/DTD/svg11.dtd">
<!-- Generated by graphviz version 2.38.0 (20140413.2041)
 -->
<!-- Title: projection&#45;error.hh Pages: 1 -->
<svg width="1285pt" height="330pt"
 viewBox="0.00 0.00 1285.00 330.00" xmlns="http://www.w3.org/2000/svg" xmlns:xlink="http://www.w3.org/1999/xlink">
<g id="graph0" class="graph" transform="scale(1 1) rotate(0) translate(4 326)">
<title>projection&#45;error.hh</title>
<polygon fill="white" stroke="none" points="-4,4 -4,-326 1281,-326 1281,4 -4,4"/>
<!-- Node1 -->
<g id="node1" class="node"><title>Node1</title>
<polygon fill="#bfbfbf" stroke="black" points="608.002,-302.5 608.002,-321.5 703.002,-321.5 703.002,-302.5 608.002,-302.5"/>
<text text-anchor="middle" x="655.502" y="-309.5" font-family="Helvetica,sans-Serif" font-size="10.00">projection&#45;error.hh</text>
</g>
<!-- Node2 -->
<g id="node2" class="node"><title>Node2</title>
<g id="a_node2"><a xlink:href="a00174.html" target="_top" xlink:title="path.hh">
<polygon fill="white" stroke="black" points="534.002,-246.5 534.002,-265.5 583.002,-265.5 583.002,-246.5 534.002,-246.5"/>
<text text-anchor="middle" x="558.502" y="-253.5" font-family="Helvetica,sans-Serif" font-size="10.00">path.hh</text>
</a>
</g>
</g>
<!-- Node1&#45;&gt;Node2 -->
<g id="edge1" class="edge"><title>Node1&#45;&gt;Node2</title>
<path fill="none" stroke="midnightblue" d="M631.167,-297.453C613.26,-287.483 589.449,-274.228 574.048,-265.655"/>
<polygon fill="midnightblue" stroke="midnightblue" points="629.478,-300.518 639.918,-302.324 632.883,-294.402 629.478,-300.518"/>
</g>
<!-- Node19 -->
<g id="node19" class="node"><title>Node19</title>
<g id="a_node19"><a xlink:href="a00203.html" target="_top" xlink:title="steering&#45;method.hh">
<polygon fill="white" stroke="black" points="791.502,-190.5 791.502,-209.5 891.502,-209.5 891.502,-190.5 791.502,-190.5"/>
<text text-anchor="middle" x="841.502" y="-197.5" font-family="Helvetica,sans-Serif" font-size="10.00">steering&#45;method.hh</text>
</a>
</g>
</g>
<!-- Node1&#45;&gt;Node19 -->
<g id="edge40" class="edge"><title>Node1&#45;&gt;Node19</title>
<path fill="none" stroke="midnightblue" d="M679.16,-297.009C718.203,-273.919 794.985,-228.51 826.975,-209.591"/>
<polygon fill="midnightblue" stroke="midnightblue" points="676.923,-294.265 670.097,-302.368 680.487,-300.291 676.923,-294.265"/>
</g>
<!-- Node3 -->
<g id="node3" class="node"><title>Node3</title>
<g id="a_node3"><a xlink:href="a00173.html" target="_top" xlink:title="path&#45;vector.hh">
<polygon fill="white" stroke="black" points="205.002,-129 205.002,-148 284.002,-148 284.002,-129 205.002,-129"/>
<text text-anchor="middle" x="244.502" y="-136" font-family="Helvetica,sans-Serif" font-size="10.00">path&#45;vector.hh</text>
</a>
</g>
</g>
<!-- Node2&#45;&gt;Node3 -->
<g id="edge2" class="edge"><title>Node2&#45;&gt;Node3</title>
<path fill="none" stroke="midnightblue" d="M523.853,-255.231C450.844,-254.921 284.918,-249.749 248.502,-210 232.934,-193.006 238.074,-162.951 241.904,-148.183"/>
<polygon fill="midnightblue" stroke="midnightblue" points="523.919,-258.731 533.924,-255.246 523.928,-251.731 523.919,-258.731"/>
</g>
<!-- Node10 -->
<g id="node10" class="node"><title>Node10</title>
<g id="a_node10"><a xlink:href="a00151.html" target="_top" xlink:title="interpolated&#45;path.hh">
<polygon fill="white" stroke="black" points="671.502,-190.5 671.502,-209.5 773.502,-209.5 773.502,-190.5 671.502,-190.5"/>
<text text-anchor="middle" x="722.502" y="-197.5" font-family="Helvetica,sans-Serif" font-size="10.00">interpolated&#45;path.hh</text>
</a>
</g>
</g>
<!-- Node2&#45;&gt;Node10 -->
<g id="edge10" class="edge"><title>Node2&#45;&gt;Node10</title>
<path fill="none" stroke="midnightblue" d="M592.953,-243.656C623.823,-233.492 668.429,-218.805 696.425,-209.587"/>
<polygon fill="midnightblue" stroke="midnightblue" points="591.459,-240.464 583.055,-246.916 593.648,-247.113 591.459,-240.464"/>
</g>
<!-- Node12 -->
<g id="node12" class="node"><title>Node12</title>
<g id="a_node12"><a xlink:href="a00204.html" target="_top" xlink:title="straight&#45;path.hh">
<polygon fill="white" stroke="black" points="569.502,-190.5 569.502,-209.5 653.502,-209.5 653.502,-190.5 569.502,-190.5"/>
<text text-anchor="middle" x="611.502" y="-197.5" font-family="Helvetica,sans-Serif" font-size="10.00">straight&#45;path.hh</text>
</a>
</g>
</g>
<!-- Node2&#45;&gt;Node12 -->
<g id="edge12" class="edge"><title>Node2&#45;&gt;Node12</title>
<path fill="none" stroke="midnightblue" d="M574.483,-238.718C583.825,-229.2 595.248,-217.561 602.913,-209.751"/>
<polygon fill="midnightblue" stroke="midnightblue" points="571.761,-236.494 567.254,-246.083 576.757,-241.398 571.761,-236.494"/>
</g>
<!-- Node16 -->
<g id="node16" class="node"><title>Node16</title>
<g id="a_node16"><a xlink:href="a00200.html" target="_top" xlink:title="spline.hh">
<polygon fill="white" stroke="black" points="257.502,-190.5 257.502,-209.5 313.502,-209.5 313.502,-190.5 257.502,-190.5"/>
<text text-anchor="middle" x="285.502" y="-197.5" font-family="Helvetica,sans-Serif" font-size="10.00">spline.hh</text>
</a>
</g>
</g>
<!-- Node2&#45;&gt;Node16 -->
<g id="edge17" class="edge"><title>Node2&#45;&gt;Node16</title>
<path fill="none" stroke="midnightblue" d="M523.739,-249.043C477.434,-240.962 393.036,-225.719 321.502,-210 318.985,-209.447 316.376,-208.847 313.765,-208.228"/>
<polygon fill="midnightblue" stroke="midnightblue" points="523.391,-252.535 533.842,-250.798 524.589,-245.638 523.391,-252.535"/>
</g>
<!-- Node2&#45;&gt;Node19 -->
<g id="edge22" class="edge"><title>Node2&#45;&gt;Node19</title>
<path fill="none" stroke="midnightblue" d="M593.033,-248.411C644.209,-238.646 740.211,-220.328 796.728,-209.544"/>
<polygon fill="midnightblue" stroke="midnightblue" points="592.288,-244.99 583.122,-250.302 593.601,-251.866 592.288,-244.99"/>
</g>
<!-- Node28 -->
<g id="node28" class="node"><title>Node28</title>
<g id="a_node28"><a xlink:href="a00122.html" target="_top" xlink:title="constant&#45;curvature.hh">
<polygon fill="white" stroke="black" points="331.002,-190.5 331.002,-209.5 442.002,-209.5 442.002,-190.5 331.002,-190.5"/>
<text text-anchor="middle" x="386.502" y="-197.5" font-family="Helvetica,sans-Serif" font-size="10.00">constant&#45;curvature.hh</text>
</a>
</g>
</g>
<!-- Node2&#45;&gt;Node28 -->
<g id="edge38" class="edge"><title>Node2&#45;&gt;Node28</title>
<path fill="none" stroke="midnightblue" d="M524.318,-244.268C491.824,-234.066 443.595,-218.925 413.654,-209.524"/>
<polygon fill="midnightblue" stroke="midnightblue" points="523.27,-247.607 533.859,-247.263 525.367,-240.928 523.27,-247.607"/>
</g>
<!-- Node29 -->
<g id="node29" class="node"><title>Node29</title>
<g id="a_node29"><a xlink:href="a00206.html" target="_top" xlink:title="subchain&#45;path.hh">
<polygon fill="white" stroke="black" points="460.002,-190.5 460.002,-209.5 551.002,-209.5 551.002,-190.5 460.002,-190.5"/>
<text text-anchor="middle" x="505.502" y="-197.5" font-family="Helvetica,sans-Serif" font-size="10.00">subchain&#45;path.hh</text>
</a>
</g>
</g>
<!-- Node2&#45;&gt;Node29 -->
<g id="edge39" class="edge"><title>Node2&#45;&gt;Node29</title>
<path fill="none" stroke="midnightblue" d="M542.521,-238.718C533.18,-229.2 521.756,-217.561 514.091,-209.751"/>
<polygon fill="midnightblue" stroke="midnightblue" points="540.248,-241.398 549.751,-246.083 545.244,-236.494 540.248,-241.398"/>
</g>
<!-- Node4 -->
<g id="node4" class="node"><title>Node4</title>
<g id="a_node4"><a xlink:href="a00136.html" target="_top" xlink:title="dubins&#45;path.hh">
<polygon fill="white" stroke="black" points="315.502,-62 315.502,-81 395.502,-81 395.502,-62 315.502,-62"/>
<text text-anchor="middle" x="355.502" y="-69" font-family="Helvetica,sans-Serif" font-size="10.00">dubins&#45;path.hh</text>
</a>
</g>
</g>
<!-- Node3&#45;&gt;Node4 -->
<g id="edge3" class="edge"><title>Node3&#45;&gt;Node4</title>
<path fill="none" stroke="midnightblue" d="M268.214,-123.615C290.205,-110.737 322.244,-91.9758 340.77,-81.1273"/>
<polygon fill="midnightblue" stroke="midnightblue" points="266.333,-120.66 259.472,-128.734 269.87,-126.701 266.333,-120.66"/>
</g>
<!-- Node5 -->
<g id="node5" class="node"><title>Node5</title>
<g id="a_node5"><a xlink:href="a00116.html" target="_top" xlink:title="config&#45;optimization.hh">
<polygon fill="white" stroke="black" points="23.5024,-62 23.5024,-81 135.502,-81 135.502,-62 23.5024,-62"/>
<text text-anchor="middle" x="79.5024" y="-69" font-family="Helvetica,sans-Serif" font-size="10.00">config&#45;optimization.hh</text>
</a>
</g>
</g>
<!-- Node3&#45;&gt;Node5 -->
<g id="edge4" class="edge"><title>Node3&#45;&gt;Node5</title>
<path fill="none" stroke="midnightblue" d="M213.036,-125.104C180.275,-112.198 129.833,-92.3272 101.241,-81.0637"/>
<polygon fill="midnightblue" stroke="midnightblue" points="212.005,-128.46 222.592,-128.869 214.57,-121.947 212.005,-128.46"/>
</g>
<!-- Node6 -->
<g id="node6" class="node"><title>Node6</title>
<g id="a_node6"><a xlink:href="a00147.html" target="_top" xlink:title="gradient&#45;based.hh">
<polygon fill="white" stroke="black" points="638.502,-0.5 638.502,-19.5 732.502,-19.5 732.502,-0.5 638.502,-0.5"/>
<text text-anchor="middle" x="685.502" y="-7.5" font-family="Helvetica,sans-Serif" font-size="10.00">gradient&#45;based.hh</text>
</a>
</g>
</g>
<!-- Node3&#45;&gt;Node6 -->
<g id="edge5" class="edge"><title>Node3&#45;&gt;Node6</title>
<path fill="none" stroke="midnightblue" d="M294.078,-127.008C326.705,-118.883 369.659,-105.81 404.502,-87 423.682,-76.646 422.724,-65.1594 442.502,-56 506.157,-26.5209 587.623,-16.3412 638.184,-12.8334"/>
<polygon fill="midnightblue" stroke="midnightblue" points="293.202,-123.619 284.305,-129.371 294.848,-130.423 293.202,-123.619"/>
</g>
<!-- Node7 -->
<g id="node7" class="node"><title>Node7</title>
<g id="a_node7"><a xlink:href="a00198.html" target="_top" xlink:title="spline&#45;gradient&#45;based\l&#45;abstract.hh">
<polygon fill="white" stroke="black" points="452.002,-56.5 452.002,-86.5 561.002,-86.5 561.002,-56.5 452.002,-56.5"/>
<text text-anchor="start" x="460.002" y="-74.5" font-family="Helvetica,sans-Serif" font-size="10.00">spline&#45;gradient&#45;based</text>
<text text-anchor="middle" x="506.502" y="-63.5" font-family="Helvetica,sans-Serif" font-size="10.00">&#45;abstract.hh</text>
</a>
</g>
</g>
<!-- Node3&#45;&gt;Node7 -->
<g id="edge6" class="edge"><title>Node3&#45;&gt;Node7</title>
<path fill="none" stroke="midnightblue" d="M288.78,-126.515C333.737,-115.362 403.436,-98.07 451.815,-86.0675"/>
<polygon fill="midnightblue" stroke="midnightblue" points="287.887,-123.131 279.024,-128.936 289.572,-129.925 287.887,-123.131"/>
</g>
<!-- Node8 -->
<g id="node8" class="node"><title>Node8</title>
<g id="a_node8"><a xlink:href="a00199.html" target="_top" xlink:title="spline&#45;gradient&#45;based.hh">
<polygon fill="white" stroke="black" points="273.502,-0.5 273.502,-19.5 395.502,-19.5 395.502,-0.5 273.502,-0.5"/>
<text text-anchor="middle" x="334.502" y="-7.5" font-family="Helvetica,sans-Serif" font-size="10.00">spline&#45;gradient&#45;based.hh</text>
</a>
</g>
</g>
<!-- Node3&#45;&gt;Node8 -->
<g id="edge8" class="edge"><title>Node3&#45;&gt;Node8</title>
<path fill="none" stroke="midnightblue" d="M220.981,-123.55C196.701,-107.366 164.69,-79.8499 182.502,-56 203.335,-28.1066 240.693,-16.7918 273.159,-12.4822"/>
<polygon fill="midnightblue" stroke="midnightblue" points="219.158,-126.539 229.469,-128.972 222.926,-120.639 219.158,-126.539"/>
</g>
<!-- Node9 -->
<g id="node9" class="node"><title>Node9</title>
<g id="a_node9"><a xlink:href="a00188.html" target="_top" xlink:title="reeds&#45;shepp&#45;path.hh">
<polygon fill="white" stroke="black" points="192.002,-62 192.002,-81 297.002,-81 297.002,-62 192.002,-62"/>
<text text-anchor="middle" x="244.502" y="-69" font-family="Helvetica,sans-Serif" font-size="10.00">reeds&#45;shepp&#45;path.hh</text>
</a>
</g>
</g>
<!-- Node3&#45;&gt;Node9 -->
<g id="edge9" class="edge"><title>Node3&#45;&gt;Node9</title>
<path fill="none" stroke="midnightblue" d="M244.502,-118.537C244.502,-106.17 244.502,-90.6198 244.502,-81.1273"/>
<polygon fill="midnightblue" stroke="midnightblue" points="241.002,-118.734 244.502,-128.734 248.002,-118.734 241.002,-118.734"/>
</g>
<!-- Node7&#45;&gt;Node8 -->
<g id="edge7" class="edge"><title>Node7&#45;&gt;Node8</title>
<path fill="none" stroke="midnightblue" d="M456.133,-53.0756C424.273,-42.0543 384.487,-28.2914 359.279,-19.5709"/>
<polygon fill="midnightblue" stroke="midnightblue" points="455.146,-56.4377 465.741,-56.3993 457.435,-49.8224 455.146,-56.4377"/>
</g>
<!-- Node11 -->
<g id="node11" class="node"><title>Node11</title>
<g id="a_node11"><a xlink:href="a00152.html" target="_top" xlink:title="interpolated&#45;steering\l&#45;method.hh">
<polygon fill="white" stroke="black" points="619.502,-123.5 619.502,-153.5 723.502,-153.5 723.502,-123.5 619.502,-123.5"/>
<text text-anchor="start" x="627.502" y="-141.5" font-family="Helvetica,sans-Serif" font-size="10.00">interpolated&#45;steering</text>
<text text-anchor="middle" x="671.502" y="-130.5" font-family="Helvetica,sans-Serif" font-size="10.00">&#45;method.hh</text>
</a>
</g>
</g>
<!-- Node10&#45;&gt;Node11 -->
<g id="edge11" class="edge"><title>Node10&#45;&gt;Node11</title>
<path fill="none" stroke="midnightblue" d="M708.626,-182.811C700.773,-173.649 691.048,-162.303 683.522,-153.523"/>
<polygon fill="midnightblue" stroke="midnightblue" points="706.03,-185.16 715.195,-190.475 711.345,-180.605 706.03,-185.16"/>
</g>
<!-- Node13 -->
<g id="node13" class="node"><title>Node13</title>
<g id="a_node13"><a xlink:href="a00158.html" target="_top" xlink:title="kinodynamic&#45;path.hh">
<polygon fill="white" stroke="black" points="456.002,-129 456.002,-148 563.002,-148 563.002,-129 456.002,-129"/>
<text text-anchor="middle" x="509.502" y="-136" font-family="Helvetica,sans-Serif" font-size="10.00">kinodynamic&#45;path.hh</text>
</a>
</g>
</g>
<!-- Node12&#45;&gt;Node13 -->
<g id="edge13" class="edge"><title>Node12&#45;&gt;Node13</title>
<path fill="none" stroke="midnightblue" d="M588.189,-185.401C568.466,-173.896 540.817,-157.767 524.089,-148.009"/>
<polygon fill="midnightblue" stroke="midnightblue" points="586.487,-188.46 596.888,-190.475 590.014,-182.413 586.487,-188.46"/>
</g>
<!-- Node15 -->
<g id="node15" class="node"><title>Node15</title>
<g id="a_node15"><a xlink:href="a00205.html" target="_top" xlink:title="straight.hh">
<polygon fill="white" stroke="black" points="916.502,-62 916.502,-81 978.502,-81 978.502,-62 916.502,-62"/>
<text text-anchor="middle" x="947.502" y="-69" font-family="Helvetica,sans-Serif" font-size="10.00">straight.hh</text>
</a>
</g>
</g>
<!-- Node12&#45;&gt;Node15 -->
<g id="edge15" class="edge"><title>Node12&#45;&gt;Node15</title>
<path fill="none" stroke="midnightblue" d="M604.902,-180.276C600.202,-163.213 596.863,-138.393 610.502,-123 654.594,-73.2413 842.834,-102.428 907.502,-87 913.825,-85.4916 920.528,-83.3068 926.602,-81.0889"/>
<polygon fill="midnightblue" stroke="midnightblue" points="601.681,-181.703 608.022,-190.192 608.359,-179.602 601.681,-181.703"/>
</g>
<!-- Node14 -->
<g id="node14" class="node"><title>Node14</title>
<g id="a_node14"><a xlink:href="a00157.html" target="_top" xlink:title="kinodynamic&#45;oriented\l&#45;path.hh">
<polygon fill="white" stroke="black" points="579.002,-56.5 579.002,-86.5 688.002,-86.5 688.002,-56.5 579.002,-56.5"/>
<text text-anchor="start" x="587.002" y="-74.5" font-family="Helvetica,sans-Serif" font-size="10.00">kinodynamic&#45;oriented</text>
<text text-anchor="middle" x="633.502" y="-63.5" font-family="Helvetica,sans-Serif" font-size="10.00">&#45;path.hh</text>
</a>
</g>
</g>
<!-- Node13&#45;&gt;Node14 -->
<g id="edge14" class="edge"><title>Node13&#45;&gt;Node14</title>
<path fill="none" stroke="midnightblue" d="M534.885,-124.194C555.743,-113.261 585.218,-97.8102 606.505,-86.6516"/>
<polygon fill="midnightblue" stroke="midnightblue" points="533.201,-121.126 525.969,-128.869 536.451,-127.326 533.201,-121.126"/>
</g>
<!-- Node15&#45;&gt;Node6 -->
<g id="edge16" class="edge"><title>Node15&#45;&gt;Node6</title>
<path fill="none" stroke="midnightblue" d="M916.065,-58.6134C913.187,-57.6743 910.302,-56.7867 907.502,-56 848.062,-39.301 778.032,-26.1592 732.757,-18.4923"/>
<polygon fill="midnightblue" stroke="midnightblue" points="915.091,-61.9797 925.686,-61.9317 917.373,-55.3623 915.091,-61.9797"/>
</g>
<!-- Node16&#45;&gt;Node7 -->
<g id="edge20" class="edge"><title>Node16&#45;&gt;Node7</title>
<path fill="none" stroke="midnightblue" d="M297.898,-181.957C311.147,-164.855 333.635,-138.84 358.502,-123 386.896,-104.913 422.507,-92.4999 451.682,-84.5072"/>
<polygon fill="midnightblue" stroke="midnightblue" points="294.746,-180.325 291.531,-190.42 300.34,-184.533 294.746,-180.325"/>
</g>
<!-- Node16&#45;&gt;Node8 -->
<g id="edge21" class="edge"><title>Node16&#45;&gt;Node8</title>
<path fill="none" stroke="midnightblue" d="M247.271,-193.771C157.007,-179.95 -56.5812,-137.779 14.5024,-56 47.3505,-18.2094 189.968,-11.2409 273.308,-10.4851"/>
<polygon fill="midnightblue" stroke="midnightblue" points="246.98,-197.266 257.387,-195.28 248.013,-190.343 246.98,-197.266"/>
</g>
<!-- Node17 -->
<g id="node17" class="node"><title>Node17</title>
<g id="a_node17"><a xlink:href="a00148.html" target="_top" xlink:title="hermite.hh">
<polygon fill="white" stroke="black" points="367.502,-129 367.502,-148 429.502,-148 429.502,-129 367.502,-129"/>
<text text-anchor="middle" x="398.502" y="-136" font-family="Helvetica,sans-Serif" font-size="10.00">hermite.hh</text>
</a>
</g>
</g>
<!-- Node16&#45;&gt;Node17 -->
<g id="edge18" class="edge"><title>Node16&#45;&gt;Node17</title>
<path fill="none" stroke="midnightblue" d="M310.739,-185.712C332.624,-174.188 363.643,-157.855 382.342,-148.009"/>
<polygon fill="midnightblue" stroke="midnightblue" points="308.91,-182.719 301.693,-190.475 312.172,-188.913 308.91,-182.719"/>
</g>
<!-- Node18 -->
<g id="node18" class="node"><title>Node18</title>
<g id="a_node18"><a xlink:href="a00149.html" target="_top" xlink:title="hermite.hh">
<polygon fill="white" stroke="black" points="744.502,-62 744.502,-81 806.502,-81 806.502,-62 744.502,-62"/>
<text text-anchor="middle" x="775.502" y="-69" font-family="Helvetica,sans-Serif" font-size="10.00">hermite.hh</text>
</a>
</g>
</g>
<!-- Node17&#45;&gt;Node18 -->
<g id="edge19" class="edge"><title>Node17&#45;&gt;Node18</title>
<path fill="none" stroke="midnightblue" d="M433.895,-126.156C438.12,-124.996 442.391,-123.912 446.502,-123 556.098,-98.7003 585.72,-105.136 696.502,-87 712.328,-84.4092 729.877,-81.22 744.408,-78.4929"/>
<polygon fill="midnightblue" stroke="midnightblue" points="432.856,-122.814 424.222,-128.954 434.8,-129.538 432.856,-122.814"/>
</g>
<!-- Node19&#45;&gt;Node11 -->
<g id="edge36" class="edge"><title>Node19&#45;&gt;Node11</title>
<path fill="none" stroke="midnightblue" d="M807.511,-187.103C779.85,-177.422 740.75,-163.737 711.568,-153.523"/>
<polygon fill="midnightblue" stroke="midnightblue" points="806.551,-190.475 817.146,-190.475 808.863,-183.868 806.551,-190.475"/>
</g>
<!-- Node19&#45;&gt;Node15 -->
<g id="edge27" class="edge"><title>Node19&#45;&gt;Node15</title>
<path fill="none" stroke="midnightblue" d="M880.729,-186.722C897.404,-179.64 915.686,-169.079 927.502,-154 944.756,-131.982 947.379,-97.1474 947.612,-81.1061"/>
<polygon fill="midnightblue" stroke="midnightblue" points="879.176,-183.572 871.158,-190.497 881.745,-190.084 879.176,-183.572"/>
</g>
<!-- Node19&#45;&gt;Node18 -->
<g id="edge35" class="edge"><title>Node19&#45;&gt;Node18</title>
<path fill="none" stroke="midnightblue" d="M833.905,-180.933C827.182,-165.347 816.855,-142.359 806.502,-123 798.449,-107.941 787.806,-91.1777 781.317,-81.2524"/>
<polygon fill="midnightblue" stroke="midnightblue" points="830.801,-182.577 837.941,-190.405 837.241,-179.833 830.801,-182.577"/>
</g>
<!-- Node20 -->
<g id="node20" class="node"><title>Node20</title>
<g id="a_node20"><a xlink:href="a00181.html" target="_top" xlink:title="problem.hh">
<polygon fill="white" stroke="black" points="854.002,-129 854.002,-148 919.002,-148 919.002,-129 854.002,-129"/>
<text text-anchor="middle" x="886.502" y="-136" font-family="Helvetica,sans-Serif" font-size="10.00">problem.hh</text>
</a>
</g>
</g>
<!-- Node19&#45;&gt;Node20 -->
<g id="edge23" class="edge"><title>Node19&#45;&gt;Node20</title>
<path fill="none" stroke="midnightblue" d="M854.104,-182.338C862.551,-171.169 873.322,-156.928 880.067,-148.009"/>
<polygon fill="midnightblue" stroke="midnightblue" points="851.19,-180.388 847.95,-190.475 856.773,-184.611 851.19,-180.388"/>
</g>
<!-- Node22 -->
<g id="node22" class="node"><title>Node22</title>
<g id="a_node22"><a xlink:href="a00201.html" target="_top" xlink:title="spline.hh">
<polygon fill="white" stroke="black" points="741.502,-129 741.502,-148 797.502,-148 797.502,-129 741.502,-129"/>
<text text-anchor="middle" x="769.502" y="-136" font-family="Helvetica,sans-Serif" font-size="10.00">spline.hh</text>
</a>
</g>
</g>
<!-- Node19&#45;&gt;Node22 -->
<g id="edge28" class="edge"><title>Node19&#45;&gt;Node22</title>
<path fill="none" stroke="midnightblue" d="M823.318,-183.973C809.547,-172.593 791.126,-157.369 779.799,-148.009"/>
<polygon fill="midnightblue" stroke="midnightblue" points="821.248,-186.803 831.187,-190.475 825.708,-181.407 821.248,-186.803"/>
</g>
<!-- Node23 -->
<g id="node23" class="node"><title>Node23</title>
<g id="a_node23"><a xlink:href="a00112.html" target="_top" xlink:title="car&#45;like.hh">
<polygon fill="white" stroke="black" points="1115.5,-129 1115.5,-148 1177.5,-148 1177.5,-129 1115.5,-129"/>
<text text-anchor="middle" x="1146.5" y="-136" font-family="Helvetica,sans-Serif" font-size="10.00">car&#45;like.hh</text>
</a>
</g>
</g>
<!-- Node19&#45;&gt;Node23 -->
<g id="edge31" class="edge"><title>Node19&#45;&gt;Node23</title>
<path fill="none" stroke="midnightblue" d="M902.012,-191.873C956.155,-184.753 1037.41,-172.232 1106.5,-154 1112.64,-152.379 1119.17,-150.211 1125.14,-148.046"/>
<polygon fill="midnightblue" stroke="midnightblue" points="901.36,-188.428 891.892,-193.182 902.259,-195.37 901.36,-188.428"/>
</g>
<!-- Node27 -->
<g id="node27" class="node"><title>Node27</title>
<g id="a_node27"><a xlink:href="a00202.html" target="_top" xlink:title="steering&#45;kinodynamic.hh">
<polygon fill="white" stroke="black" points="975.502,-129 975.502,-148 1097.5,-148 1097.5,-129 975.502,-129"/>
<text text-anchor="middle" x="1036.5" y="-136" font-family="Helvetica,sans-Serif" font-size="10.00">steering&#45;kinodynamic.hh</text>
</a>
</g>
</g>
<!-- Node19&#45;&gt;Node27 -->
<g id="edge37" class="edge"><title>Node19&#45;&gt;Node27</title>
<path fill="none" stroke="midnightblue" d="M879.098,-187.529C916.996,-175.965 974.611,-158.385 1008.62,-148.009"/>
<polygon fill="midnightblue" stroke="midnightblue" points="877.984,-184.209 869.441,-190.475 880.027,-190.904 877.984,-184.209"/>
</g>
<!-- Node20&#45;&gt;Node15 -->
<g id="edge24" class="edge"><title>Node20&#45;&gt;Node15</title>
<path fill="none" stroke="midnightblue" d="M901.86,-121.135C913.79,-108.423 929.861,-91.2978 939.406,-81.1273"/>
<polygon fill="midnightblue" stroke="midnightblue" points="899.02,-119.047 894.729,-128.734 904.124,-123.837 899.02,-119.047"/>
</g>
<!-- Node20&#45;&gt;Node18 -->
<g id="edge26" class="edge"><title>Node20&#45;&gt;Node18</title>
<path fill="none" stroke="midnightblue" d="M862.791,-123.615C840.799,-110.737 808.761,-91.9758 790.235,-81.1273"/>
<polygon fill="midnightblue" stroke="midnightblue" points="861.134,-126.701 871.532,-128.734 864.672,-120.66 861.134,-126.701"/>
</g>
<!-- Node21 -->
<g id="node21" class="node"><title>Node21</title>
<g id="a_node21"><a xlink:href="a00129.html" target="_top" xlink:title="dichotomy.hh">
<polygon fill="white" stroke="black" points="824.002,-62 824.002,-81 899.002,-81 899.002,-62 824.002,-62"/>
<text text-anchor="middle" x="861.502" y="-69" font-family="Helvetica,sans-Serif" font-size="10.00">dichotomy.hh</text>
</a>
</g>
</g>
<!-- Node20&#45;&gt;Node21 -->
<g id="edge25" class="edge"><title>Node20&#45;&gt;Node21</title>
<path fill="none" stroke="midnightblue" d="M879.499,-119.29C874.698,-106.808 868.546,-90.8135 864.821,-81.1273"/>
<polygon fill="midnightblue" stroke="midnightblue" points="876.274,-120.657 883.131,-128.734 882.808,-118.144 876.274,-120.657"/>
</g>
<!-- Node22&#45;&gt;Node7 -->
<g id="edge29" class="edge"><title>Node22&#45;&gt;Node7</title>
<path fill="none" stroke="midnightblue" d="M739.909,-125.435C737.42,-124.563 734.928,-123.738 732.502,-123 661.526,-101.399 641.875,-103.32 569.502,-87 566.765,-86.3828 563.962,-85.7478 561.131,-85.1045"/>
<polygon fill="midnightblue" stroke="midnightblue" points="738.755,-128.74 749.347,-128.944 741.194,-122.179 738.755,-128.74"/>
</g>
<!-- Node22&#45;&gt;Node8 -->
<g id="edge30" class="edge"><title>Node22&#45;&gt;Node8</title>
<path fill="none" stroke="midnightblue" d="M759.319,-120.066C747.062,-100.841 724.579,-70.6892 696.502,-56 645.578,-29.3575 484.9,-17.8736 395.694,-13.4459"/>
<polygon fill="midnightblue" stroke="midnightblue" points="756.427,-122.046 764.634,-128.748 762.398,-118.392 756.427,-122.046"/>
</g>
<!-- Node24 -->
<g id="node24" class="node"><title>Node24</title>
<g id="a_node24"><a xlink:href="a00137.html" target="_top" xlink:title="dubins.hh">
<polygon fill="white" stroke="black" points="1117,-62 1117,-81 1176,-81 1176,-62 1117,-62"/>
<text text-anchor="middle" x="1146.5" y="-69" font-family="Helvetica,sans-Serif" font-size="10.00">dubins.hh</text>
</a>
</g>
</g>
<!-- Node23&#45;&gt;Node24 -->
<g id="edge32" class="edge"><title>Node23&#45;&gt;Node24</title>
<path fill="none" stroke="midnightblue" d="M1146.5,-118.537C1146.5,-106.17 1146.5,-90.6198 1146.5,-81.1273"/>
<polygon fill="midnightblue" stroke="midnightblue" points="1143,-118.734 1146.5,-128.734 1150,-118.734 1143,-118.734"/>
</g>
<!-- Node25 -->
<g id="node25" class="node"><title>Node25</title>
<g id="a_node25"><a xlink:href="a00190.html" target="_top" xlink:title="reeds&#45;shepp.hh">
<polygon fill="white" stroke="black" points="1194,-62 1194,-81 1277,-81 1277,-62 1194,-62"/>
<text text-anchor="middle" x="1235.5" y="-69" font-family="Helvetica,sans-Serif" font-size="10.00">reeds&#45;shepp.hh</text>
</a>
</g>
</g>
<!-- Node23&#45;&gt;Node25 -->
<g id="edge33" class="edge"><title>Node23&#45;&gt;Node25</title>
<path fill="none" stroke="midnightblue" d="M1166.95,-122.568C1184.52,-109.738 1209.23,-91.6853 1223.69,-81.1273"/>
<polygon fill="midnightblue" stroke="midnightblue" points="1164.52,-120.009 1158.51,-128.734 1168.65,-125.662 1164.52,-120.009"/>
</g>
<!-- Node26 -->
<g id="node26" class="node"><title>Node26</title>
<g id="a_node26"><a xlink:href="a00196.html" target="_top" xlink:title="snibud.hh">
<polygon fill="white" stroke="black" points="1040,-62 1040,-81 1099,-81 1099,-62 1040,-62"/>
<text text-anchor="middle" x="1069.5" y="-69" font-family="Helvetica,sans-Serif" font-size="10.00">snibud.hh</text>
</a>
</g>
</g>
<!-- Node23&#45;&gt;Node26 -->
<g id="edge34" class="edge"><title>Node23&#45;&gt;Node26</title>
<path fill="none" stroke="midnightblue" d="M1128.39,-122.213C1113.22,-109.407 1092.11,-91.5884 1079.72,-81.1273"/>
<polygon fill="midnightblue" stroke="midnightblue" points="1126.22,-124.958 1136.12,-128.734 1130.73,-119.609 1126.22,-124.958"/>
</g>
</g>
</svg>
