<?xml version="1.0" encoding="UTF-8" standalone="no"?>
<!DOCTYPE svg PUBLIC "-//W3C//DTD SVG 1.1//EN"
 "http://www.w3.org/Graphics/SVG/1.1/DTD/svg11.dtd">
<!-- Generated by graphviz version 2.38.0 (20140413.2041)
 -->
<!-- Title: steering&#45;method.hh Pages: 1 -->
<svg width="1028pt" height="319pt"
 viewBox="0.00 0.00 1028.00 319.00" xmlns="http://www.w3.org/2000/svg" xmlns:xlink="http://www.w3.org/1999/xlink">
<g id="graph0" class="graph" transform="scale(1 1) rotate(0) translate(4 315)">
<title>steering&#45;method.hh</title>
<polygon fill="white" stroke="none" points="-4,4 -4,-315 1024,-315 1024,4 -4,4"/>
<!-- Node1 -->
<g id="node1" class="node"><title>Node1</title>
<polygon fill="#bfbfbf" stroke="black" points="319.5,-291.5 319.5,-310.5 419.5,-310.5 419.5,-291.5 319.5,-291.5"/>
<text text-anchor="middle" x="369.5" y="-298.5" font-family="Helvetica,sans-Serif" font-size="10.00">steering&#45;method.hh</text>
</g>
<!-- Node2 -->
<g id="node2" class="node"><title>Node2</title>
<g id="a_node2"><a doxygen="/local/devel/hpp/install/share/doc/hpp-util/doxygen-html/hpp-util.doxytag:../../hpp-util/doxygen-html/" xlink:href="../../hpp-util/doxygen-html/a00018.html" target="_top" xlink:title="hpp/util/debug.hh">
<polygon fill="white" stroke="black" points="36,-235.5 36,-254.5 127,-254.5 127,-235.5 36,-235.5"/>
<text text-anchor="middle" x="81.5" y="-242.5" font-family="Helvetica,sans-Serif" font-size="10.00">hpp/util/debug.hh</text>
</a>
</g>
</g>
<!-- Node1&#45;&gt;Node2 -->
<g id="edge1" class="edge"><title>Node1&#45;&gt;Node2</title>
<path fill="none" stroke="midnightblue" d="M323.866,-291.444C273.203,-281.944 191.425,-266.611 137.072,-256.42"/>
<polygon fill="midnightblue" stroke="midnightblue" points="137.395,-252.919 126.921,-254.516 136.105,-259.799 137.395,-252.919"/>
</g>
<!-- Node4 -->
<g id="node4" class="node"><title>Node4</title>
<g id="a_node4"><a xlink:href="a00001.html" target="_top" xlink:title="hpp/core/fwd.hh">
<polygon fill="white" stroke="black" points="259.5,-56.5 259.5,-75.5 345.5,-75.5 345.5,-56.5 259.5,-56.5"/>
<text text-anchor="middle" x="302.5" y="-63.5" font-family="Helvetica,sans-Serif" font-size="10.00">hpp/core/fwd.hh</text>
</a>
</g>
</g>
<!-- Node1&#45;&gt;Node4 -->
<g id="edge3" class="edge"><title>Node1&#45;&gt;Node4</title>
<path fill="none" stroke="midnightblue" d="M348.313,-291.456C316.903,-277.481 259.155,-246.451 235.5,-199 229.7,-187.366 232.745,-122.392 238.5,-112 246.072,-98.3269 259.768,-87.8537 272.552,-80.4664"/>
<polygon fill="midnightblue" stroke="midnightblue" points="274.43,-83.4314 281.6,-75.631 271.13,-77.2578 274.43,-83.4314"/>
</g>
<!-- Node14 -->
<g id="node14" class="node"><title>Node14</title>
<g id="a_node14"><a xlink:href="a00174.html" target="_top" xlink:title="hpp/core/path.hh">
<polygon fill="white" stroke="black" points="539,-235.5 539,-254.5 628,-254.5 628,-235.5 539,-235.5"/>
<text text-anchor="middle" x="583.5" y="-242.5" font-family="Helvetica,sans-Serif" font-size="10.00">hpp/core/path.hh</text>
</a>
</g>
</g>
<!-- Node1&#45;&gt;Node14 -->
<g id="edge13" class="edge"><title>Node1&#45;&gt;Node14</title>
<path fill="none" stroke="midnightblue" d="M403.409,-291.444C440.349,-282.122 499.554,-267.183 539.918,-256.997"/>
<polygon fill="midnightblue" stroke="midnightblue" points="540.91,-260.357 549.75,-254.516 539.197,-253.57 540.91,-260.357"/>
</g>
<!-- Node20 -->
<g id="node20" class="node"><title>Node20</title>
<g id="a_node20"><a xlink:href="a00184.html" target="_top" xlink:title="hpp/core/projection\l&#45;error.hh">
<polygon fill="white" stroke="black" points="921,-168.5 921,-198.5 1020,-198.5 1020,-168.5 921,-168.5"/>
<text text-anchor="start" x="929" y="-186.5" font-family="Helvetica,sans-Serif" font-size="10.00">hpp/core/projection</text>
<text text-anchor="middle" x="970.5" y="-175.5" font-family="Helvetica,sans-Serif" font-size="10.00">&#45;error.hh</text>
</a>
</g>
</g>
<!-- Node1&#45;&gt;Node20 -->
<g id="edge30" class="edge"><title>Node1&#45;&gt;Node20</title>
<path fill="none" stroke="midnightblue" d="M419.782,-292.036C473.519,-283.406 561.165,-268.987 636.5,-255 756.318,-232.754 788.73,-226.933 910.747,-199.354"/>
<polygon fill="midnightblue" stroke="midnightblue" points="911.88,-202.686 920.861,-197.065 910.335,-195.859 911.88,-202.686"/>
</g>
<!-- Node3 -->
<g id="node3" class="node"><title>Node3</title>
<g id="a_node3"><a doxygen="/local/devel/hpp/install/share/doc/hpp-util/doxygen-html/hpp-util.doxytag:../../hpp-util/doxygen-html/" xlink:href="../../hpp-util/doxygen-html/a00025.html" target="_top" xlink:title="hpp/util/indent.hh">
<polygon fill="white" stroke="black" points="36,-174 36,-193 127,-193 127,-174 36,-174"/>
<text text-anchor="middle" x="81.5" y="-181" font-family="Helvetica,sans-Serif" font-size="10.00">hpp/util/indent.hh</text>
</a>
</g>
</g>
<!-- Node2&#45;&gt;Node3 -->
<g id="edge2" class="edge"><title>Node2&#45;&gt;Node3</title>
<path fill="none" stroke="midnightblue" d="M81.5,-235.475C81.5,-227.08 81.5,-213.981 81.5,-203.163"/>
<polygon fill="midnightblue" stroke="midnightblue" points="85.0001,-203.009 81.5,-193.009 78.0001,-203.009 85.0001,-203.009"/>
</g>
<!-- Node5 -->
<g id="node5" class="node"><title>Node5</title>
<polygon fill="white" stroke="#bfbfbf" points="61.5,-0.5 61.5,-19.5 105.5,-19.5 105.5,-0.5 61.5,-0.5"/>
<text text-anchor="middle" x="83.5" y="-7.5" font-family="Helvetica,sans-Serif" font-size="10.00">vector</text>
</g>
<!-- Node4&#45;&gt;Node5 -->
<g id="edge4" class="edge"><title>Node4&#45;&gt;Node5</title>
<path fill="none" stroke="midnightblue" d="M264.558,-56.4766C228.574,-48.2692 172.771,-35.2224 115.725,-20.2362"/>
<polygon fill="midnightblue" stroke="midnightblue" points="116.378,-16.7887 105.816,-17.6164 114.589,-23.5561 116.378,-16.7887"/>
</g>
<!-- Node6 -->
<g id="node6" class="node"><title>Node6</title>
<polygon fill="white" stroke="#bfbfbf" points="124,-0.5 124,-19.5 159,-19.5 159,-0.5 124,-0.5"/>
<text text-anchor="middle" x="141.5" y="-7.5" font-family="Helvetica,sans-Serif" font-size="10.00">map</text>
</g>
<!-- Node4&#45;&gt;Node6 -->
<g id="edge5" class="edge"><title>Node4&#45;&gt;Node6</title>
<path fill="none" stroke="midnightblue" d="M276.59,-56.4614C251.303,-48.1067 211.499,-34.8997 168.836,-20.4304"/>
<polygon fill="midnightblue" stroke="midnightblue" points="169.707,-17.0298 159.113,-17.1274 167.456,-23.6578 169.707,-17.0298"/>
</g>
<!-- Node7 -->
<g id="node7" class="node"><title>Node7</title>
<polygon fill="white" stroke="#bfbfbf" points="0,-0.5 0,-19.5 43,-19.5 43,-0.5 0,-0.5"/>
<text text-anchor="middle" x="21.5" y="-7.5" font-family="Helvetica,sans-Serif" font-size="10.00">deque</text>
</g>
<!-- Node4&#45;&gt;Node7 -->
<g id="edge6" class="edge"><title>Node4&#45;&gt;Node7</title>
<path fill="none" stroke="midnightblue" d="M259.446,-57.8098C202.653,-48.2353 104.77,-31.4023 53.0974,-19.8851"/>
<polygon fill="midnightblue" stroke="midnightblue" points="53.6344,-16.4173 43.1041,-17.5845 52.064,-23.2388 53.6344,-16.4173"/>
</g>
<!-- Node8 -->
<g id="node8" class="node"><title>Node8</title>
<polygon fill="white" stroke="#bfbfbf" points="177,-0.5 177,-19.5 206,-19.5 206,-0.5 177,-0.5"/>
<text text-anchor="middle" x="191.5" y="-7.5" font-family="Helvetica,sans-Serif" font-size="10.00">list</text>
</g>
<!-- Node4&#45;&gt;Node8 -->
<g id="edge7" class="edge"><title>Node4&#45;&gt;Node8</title>
<path fill="none" stroke="midnightblue" d="M284.666,-56.324C265.832,-47.1614 236.04,-32.6683 215.232,-22.5452"/>
<polygon fill="midnightblue" stroke="midnightblue" points="216.624,-19.3303 206.1,-18.1029 213.562,-25.625 216.624,-19.3303"/>
</g>
<!-- Node9 -->
<g id="node9" class="node"><title>Node9</title>
<polygon fill="white" stroke="#bfbfbf" points="224.5,-0.5 224.5,-19.5 254.5,-19.5 254.5,-0.5 224.5,-0.5"/>
<text text-anchor="middle" x="239.5" y="-7.5" font-family="Helvetica,sans-Serif" font-size="10.00">set</text>
</g>
<!-- Node4&#45;&gt;Node9 -->
<g id="edge8" class="edge"><title>Node4&#45;&gt;Node9</title>
<path fill="none" stroke="midnightblue" d="M292.378,-56.324C282.974,-48.2631 268.756,-36.0765 257.431,-26.3695"/>
<polygon fill="midnightblue" stroke="midnightblue" points="259.677,-23.6844 249.806,-19.8339 255.121,-28.9993 259.677,-23.6844"/>
</g>
<!-- Node10 -->
<g id="node10" class="node"><title>Node10</title>
<g id="a_node10"><a doxygen="/local/devel/hpp/install/share/doc/hpp-util/doxygen-html/hpp-util.doxytag:../../hpp-util/doxygen-html/" xlink:href="../../hpp-util/doxygen-html/a00028.html" target="_top" xlink:title="hpp/util/pointer.hh">
<polygon fill="white" stroke="black" points="272.5,-0.5 272.5,-19.5 366.5,-19.5 366.5,-0.5 272.5,-0.5"/>
<text text-anchor="middle" x="319.5" y="-7.5" font-family="Helvetica,sans-Serif" font-size="10.00">hpp/util/pointer.hh</text>
</a>
</g>
</g>
<!-- Node4&#45;&gt;Node10 -->
<g id="edge9" class="edge"><title>Node4&#45;&gt;Node10</title>
<path fill="none" stroke="midnightblue" d="M305.307,-56.083C307.585,-48.8486 310.871,-38.4087 313.708,-29.3968"/>
<polygon fill="midnightblue" stroke="midnightblue" points="317.081,-30.3406 316.745,-19.7511 310.404,-28.2385 317.081,-30.3406"/>
</g>
<!-- Node11 -->
<g id="node11" class="node"><title>Node11</title>
<g id="a_node11"><a doxygen="/local/devel/hpp/install/share/doc/hpp-constraints/doxygen-html/hpp-constraints.doxytag:../../hpp-constraints/doxygen-html/" xlink:href="../../hpp-constraints/doxygen-html/a00001.html" target="_top" xlink:title="hpp/constraints/fwd.hh">
<polygon fill="white" stroke="black" points="384.5,-0.5 384.5,-19.5 500.5,-19.5 500.5,-0.5 384.5,-0.5"/>
<text text-anchor="middle" x="442.5" y="-7.5" font-family="Helvetica,sans-Serif" font-size="10.00">hpp/constraints/fwd.hh</text>
</a>
</g>
</g>
<!-- Node4&#45;&gt;Node11 -->
<g id="edge10" class="edge"><title>Node4&#45;&gt;Node11</title>
<path fill="none" stroke="midnightblue" d="M324.683,-56.4435C347.928,-47.4776 384.649,-33.314 410.915,-23.1827"/>
<polygon fill="midnightblue" stroke="midnightblue" points="412.35,-26.3807 420.42,-19.5164 409.831,-19.8497 412.35,-26.3807"/>
</g>
<!-- Node12 -->
<g id="node12" class="node"><title>Node12</title>
<polygon fill="white" stroke="#bfbfbf" points="518,-0.5 518,-19.5 615,-19.5 615,-0.5 518,-0.5"/>
<text text-anchor="middle" x="566.5" y="-7.5" font-family="Helvetica,sans-Serif" font-size="10.00">hpp/core/config.hh</text>
</g>
<!-- Node4&#45;&gt;Node12 -->
<g id="edge11" class="edge"><title>Node4&#45;&gt;Node12</title>
<path fill="none" stroke="midnightblue" d="M344.332,-56.4435C390.579,-46.9839 465.112,-31.7384 514.936,-21.5472"/>
<polygon fill="midnightblue" stroke="midnightblue" points="515.768,-24.9495 524.864,-19.5164 514.366,-18.0915 515.768,-24.9495"/>
</g>
<!-- Node13 -->
<g id="node13" class="node"><title>Node13</title>
<polygon fill="white" stroke="#bfbfbf" points="633,-0.5 633,-19.5 752,-19.5 752,-0.5 633,-0.5"/>
<text text-anchor="middle" x="692.5" y="-7.5" font-family="Helvetica,sans-Serif" font-size="10.00">hpp/core/deprecated.hh</text>
</g>
<!-- Node4&#45;&gt;Node13 -->
<g id="edge12" class="edge"><title>Node4&#45;&gt;Node13</title>
<path fill="none" stroke="midnightblue" d="M345.727,-59.0147C412.768,-49.7321 542.447,-31.7766 622.827,-20.647"/>
<polygon fill="midnightblue" stroke="midnightblue" points="623.436,-24.0962 632.861,-19.2577 622.476,-17.1624 623.436,-24.0962"/>
</g>
<!-- Node14&#45;&gt;Node4 -->
<g id="edge16" class="edge"><title>Node14&#45;&gt;Node4</title>
<path fill="none" stroke="midnightblue" d="M538.775,-244.356C458.662,-243.978 295.488,-238.266 257.5,-199 230.527,-171.12 234.374,-147.281 250.5,-112 256.277,-99.3602 267.552,-88.911 278.131,-81.2737"/>
<polygon fill="midnightblue" stroke="midnightblue" points="280.349,-84.0009 286.717,-75.5333 276.458,-78.1817 280.349,-84.0009"/>
</g>
<!-- Node14&#45;&gt;Node12 -->
<g id="edge17" class="edge"><title>Node14&#45;&gt;Node12</title>
<path fill="none" stroke="midnightblue" d="M582.875,-235.431C580.418,-201.754 571.388,-77.9939 567.894,-30.1018"/>
<polygon fill="midnightblue" stroke="midnightblue" points="571.368,-29.6145 567.149,-19.8958 564.386,-30.124 571.368,-29.6145"/>
</g>
<!-- Node14&#45;&gt;Node13 -->
<g id="edge24" class="edge"><title>Node14&#45;&gt;Node13</title>
<path fill="none" stroke="midnightblue" d="M587.509,-235.431C603.363,-201.541 661.896,-76.4204 683.986,-29.1998"/>
<polygon fill="midnightblue" stroke="midnightblue" points="687.271,-30.4367 688.338,-19.8958 680.931,-27.4705 687.271,-30.4367"/>
</g>
<!-- Node15 -->
<g id="node15" class="node"><title>Node15</title>
<polygon fill="white" stroke="#bfbfbf" points="649.5,-174 649.5,-193 777.5,-193 777.5,-174 649.5,-174"/>
<text text-anchor="middle" x="713.5" y="-181" font-family="Helvetica,sans-Serif" font-size="10.00">boost/concept_check.hpp</text>
</g>
<!-- Node14&#45;&gt;Node15 -->
<g id="edge14" class="edge"><title>Node14&#45;&gt;Node15</title>
<path fill="none" stroke="midnightblue" d="M602.126,-235.475C623.943,-225.49 660.304,-208.848 685.517,-197.307"/>
<polygon fill="midnightblue" stroke="midnightblue" points="687.272,-200.353 694.909,-193.009 684.359,-193.988 687.272,-200.353"/>
</g>
<!-- Node16 -->
<g id="node16" class="node"><title>Node16</title>
<g id="a_node16"><a doxygen="/local/devel/hpp/install/share/doc/hpp-util/doxygen-html/hpp-util.doxytag:../../hpp-util/doxygen-html/" xlink:href="../../hpp-util/doxygen-html/a00022.html" target="_top" xlink:title="hpp/util/exception.hh">
<polygon fill="white" stroke="black" points="796,-174 796,-193 903,-193 903,-174 796,-174"/>
<text text-anchor="middle" x="849.5" y="-181" font-family="Helvetica,sans-Serif" font-size="10.00">hpp/util/exception.hh</text>
</a>
</g>
</g>
<!-- Node14&#45;&gt;Node16 -->
<g id="edge15" class="edge"><title>Node14&#45;&gt;Node16</title>
<path fill="none" stroke="midnightblue" d="M622.437,-235.466C663.318,-226.484 729.458,-211.887 786.5,-199 791.769,-197.81 797.283,-196.555 802.764,-195.301"/>
<polygon fill="midnightblue" stroke="midnightblue" points="803.569,-198.707 812.534,-193.061 802.005,-191.884 803.569,-198.707"/>
</g>
<!-- Node17 -->
<g id="node17" class="node"><title>Node17</title>
<g id="a_node17"><a xlink:href="a00123.html" target="_top" xlink:title="hpp/core/constraint\l&#45;set.hh">
<polygon fill="white" stroke="black" points="266.5,-168.5 266.5,-198.5 366.5,-198.5 366.5,-168.5 266.5,-168.5"/>
<text text-anchor="start" x="274.5" y="-186.5" font-family="Helvetica,sans-Serif" font-size="10.00">hpp/core/constraint</text>
<text text-anchor="middle" x="316.5" y="-175.5" font-family="Helvetica,sans-Serif" font-size="10.00">&#45;set.hh</text>
</a>
</g>
</g>
<!-- Node14&#45;&gt;Node17 -->
<g id="edge18" class="edge"><title>Node14&#45;&gt;Node17</title>
<path fill="none" stroke="midnightblue" d="M545.245,-235.475C501.176,-225.654 428.212,-209.395 376.553,-197.883"/>
<polygon fill="midnightblue" stroke="midnightblue" points="377.042,-194.406 366.52,-195.647 375.519,-201.238 377.042,-194.406"/>
</g>
<!-- Node14&#45;&gt;Node20 -->
<g id="edge25" class="edge"><title>Node14&#45;&gt;Node20</title>
<path fill="none" stroke="midnightblue" d="M628.186,-239.452C689.781,-232.84 804.39,-219.305 910.951,-199.181"/>
<polygon fill="midnightblue" stroke="midnightblue" points="911.741,-202.593 920.905,-197.277 910.426,-195.718 911.741,-202.593"/>
</g>
<!-- Node22 -->
<g id="node22" class="node"><title>Node22</title>
<g id="a_node22"><a xlink:href="a00208.html" target="_top" xlink:title="hpp/core/time&#45;parameterization.hh">
<polygon fill="white" stroke="black" points="391.5,-112.5 391.5,-131.5 555.5,-131.5 555.5,-112.5 391.5,-112.5"/>
<text text-anchor="middle" x="473.5" y="-119.5" font-family="Helvetica,sans-Serif" font-size="10.00">hpp/core/time&#45;parameterization.hh</text>
</a>
</g>
</g>
<!-- Node14&#45;&gt;Node22 -->
<g id="edge27" class="edge"><title>Node14&#45;&gt;Node22</title>
<path fill="none" stroke="midnightblue" d="M575.589,-235.298C557.275,-215.153 511.733,-165.056 488.159,-139.125"/>
<polygon fill="midnightblue" stroke="midnightblue" points="490.656,-136.668 481.339,-131.623 485.476,-141.377 490.656,-136.668"/>
</g>
<!-- Node17&#45;&gt;Node7 -->
<g id="edge19" class="edge"><title>Node17&#45;&gt;Node7</title>
<path fill="none" stroke="midnightblue" d="M292.359,-168.465C236.684,-136.099 99.8621,-56.5563 44.9077,-24.6082"/>
<polygon fill="midnightblue" stroke="midnightblue" points="46.628,-21.5599 36.2237,-19.5597 43.1098,-27.6115 46.628,-21.5599"/>
</g>
<!-- Node18 -->
<g id="node18" class="node"><title>Node18</title>
<g id="a_node18"><a xlink:href="a00124.html" target="_top" xlink:title="hpp/core/constraint.hh">
<polygon fill="white" stroke="black" points="260,-112.5 260,-131.5 373,-131.5 373,-112.5 260,-112.5"/>
<text text-anchor="middle" x="316.5" y="-119.5" font-family="Helvetica,sans-Serif" font-size="10.00">hpp/core/constraint.hh</text>
</a>
</g>
</g>
<!-- Node17&#45;&gt;Node18 -->
<g id="edge20" class="edge"><title>Node17&#45;&gt;Node18</title>
<path fill="none" stroke="midnightblue" d="M316.5,-168.399C316.5,-160.466 316.5,-150.458 316.5,-141.858"/>
<polygon fill="midnightblue" stroke="midnightblue" points="320,-141.658 316.5,-131.658 313,-141.658 320,-141.658"/>
</g>
<!-- Node18&#45;&gt;Node4 -->
<g id="edge23" class="edge"><title>Node18&#45;&gt;Node4</title>
<path fill="none" stroke="midnightblue" d="M314.188,-112.083C312.333,-104.927 309.665,-94.6353 307.346,-85.6911"/>
<polygon fill="midnightblue" stroke="midnightblue" points="310.666,-84.5527 304.769,-75.7511 303.891,-86.3094 310.666,-84.5527"/>
</g>
<!-- Node18&#45;&gt;Node12 -->
<g id="edge22" class="edge"><title>Node18&#45;&gt;Node12</title>
<path fill="none" stroke="midnightblue" d="M324.016,-112.425C336.718,-98.4731 363.861,-70.9212 392.5,-56 413.679,-44.9654 471.744,-31.0375 515.009,-21.6218"/>
<polygon fill="midnightblue" stroke="midnightblue" points="515.787,-25.0346 524.826,-19.5071 514.313,-18.1915 515.787,-25.0346"/>
</g>
<!-- Node19 -->
<g id="node19" class="node"><title>Node19</title>
<polygon fill="white" stroke="#bfbfbf" points="401.5,-56.5 401.5,-75.5 453.5,-75.5 453.5,-56.5 401.5,-56.5"/>
<text text-anchor="middle" x="427.5" y="-63.5" font-family="Helvetica,sans-Serif" font-size="10.00">ostream</text>
</g>
<!-- Node18&#45;&gt;Node19 -->
<g id="edge21" class="edge"><title>Node18&#45;&gt;Node19</title>
<path fill="none" stroke="midnightblue" d="M334.334,-112.324C352.216,-103.625 379.975,-90.1202 400.546,-80.113"/>
<polygon fill="midnightblue" stroke="midnightblue" points="402.249,-83.1765 409.71,-75.6545 399.187,-76.8819 402.249,-83.1765"/>
</g>
<!-- Node21 -->
<g id="node21" class="node"><title>Node21</title>
<polygon fill="white" stroke="#bfbfbf" points="941,-112.5 941,-131.5 1000,-131.5 1000,-112.5 941,-112.5"/>
<text text-anchor="middle" x="970.5" y="-119.5" font-family="Helvetica,sans-Serif" font-size="10.00">exception</text>
</g>
<!-- Node20&#45;&gt;Node21 -->
<g id="edge26" class="edge"><title>Node20&#45;&gt;Node21</title>
<path fill="none" stroke="midnightblue" d="M970.5,-168.399C970.5,-160.466 970.5,-150.458 970.5,-141.858"/>
<polygon fill="midnightblue" stroke="midnightblue" points="974,-141.658 970.5,-131.658 967,-141.658 974,-141.658"/>
</g>
<!-- Node22&#45;&gt;Node4 -->
<g id="edge28" class="edge"><title>Node22&#45;&gt;Node4</title>
<path fill="none" stroke="midnightblue" d="M446.405,-112.444C417.512,-103.32 371.575,-88.8133 339.395,-78.6509"/>
<polygon fill="midnightblue" stroke="midnightblue" points="340.059,-75.1903 329.469,-75.5164 337.951,-81.8654 340.059,-75.1903"/>
</g>
<!-- Node22&#45;&gt;Node12 -->
<g id="edge29" class="edge"><title>Node22&#45;&gt;Node12</title>
<path fill="none" stroke="midnightblue" d="M480.798,-112.368C496.281,-94.0547 532.64,-51.0489 552.666,-27.3624"/>
<polygon fill="midnightblue" stroke="midnightblue" points="555.453,-29.4877 559.236,-19.5914 550.107,-24.9682 555.453,-29.4877"/>
</g>
</g>
</svg>
