<?xml version="1.0" encoding="UTF-8" standalone="no"?>
<!DOCTYPE svg PUBLIC "-//W3C//DTD SVG 1.1//EN"
 "http://www.w3.org/Graphics/SVG/1.1/DTD/svg11.dtd">
<!-- Generated by graphviz version 2.38.0 (20140413.2041)
 -->
<!-- Title: spline.hh Pages: 1 -->
<svg width="248pt" height="151pt"
 viewBox="0.00 0.00 248.00 151.00" xmlns="http://www.w3.org/2000/svg" xmlns:xlink="http://www.w3.org/1999/xlink">
<g id="graph0" class="graph" transform="scale(1 1) rotate(0) translate(4 147)">
<title>spline.hh</title>
<polygon fill="white" stroke="none" points="-4,4 -4,-147 244,-147 244,4 -4,4"/>
<!-- Node1 -->
<g id="node1" class="node"><title>Node1</title>
<polygon fill="#bfbfbf" stroke="black" points="107,-123.5 107,-142.5 163,-142.5 163,-123.5 107,-123.5"/>
<text text-anchor="middle" x="135" y="-130.5" font-family="Helvetica,sans-Serif" font-size="10.00">spline.hh</text>
</g>
<!-- Node2 -->
<g id="node2" class="node"><title>Node2</title>
<g id="a_node2"><a xlink:href="a00148.html" target="_top" xlink:title="hermite.hh">
<polygon fill="white" stroke="black" points="0,-62 0,-81 62,-81 62,-62 0,-62"/>
<text text-anchor="middle" x="31" y="-69" font-family="Helvetica,sans-Serif" font-size="10.00">hermite.hh</text>
</a>
</g>
</g>
<!-- Node1&#45;&gt;Node2 -->
<g id="edge1" class="edge"><title>Node1&#45;&gt;Node2</title>
<path fill="none" stroke="midnightblue" d="M111.23,-118.401C91.1201,-106.896 62.9284,-90.7667 45.873,-81.0091"/>
<polygon fill="midnightblue" stroke="midnightblue" points="109.681,-121.547 120.099,-123.475 113.158,-115.471 109.681,-121.547"/>
</g>
<!-- Node4 -->
<g id="node4" class="node"><title>Node4</title>
<g id="a_node4"><a xlink:href="a00198.html" target="_top" xlink:title="spline&#45;gradient&#45;based\l&#45;abstract.hh">
<polygon fill="white" stroke="black" points="80.5,-56.5 80.5,-86.5 189.5,-86.5 189.5,-56.5 80.5,-56.5"/>
<text text-anchor="start" x="88.5" y="-74.5" font-family="Helvetica,sans-Serif" font-size="10.00">spline&#45;gradient&#45;based</text>
<text text-anchor="middle" x="135" y="-63.5" font-family="Helvetica,sans-Serif" font-size="10.00">&#45;abstract.hh</text>
</a>
</g>
</g>
<!-- Node1&#45;&gt;Node4 -->
<g id="edge3" class="edge"><title>Node1&#45;&gt;Node4</title>
<path fill="none" stroke="midnightblue" d="M135,-113.235C135,-104.586 135,-94.4969 135,-86.523"/>
<polygon fill="midnightblue" stroke="midnightblue" points="131.5,-113.475 135,-123.475 138.5,-113.475 131.5,-113.475"/>
</g>
<!-- Node5 -->
<g id="node5" class="node"><title>Node5</title>
<g id="a_node5"><a xlink:href="a00199.html" target="_top" xlink:title="spline&#45;gradient&#45;based.hh">
<polygon fill="white" stroke="black" points="118,-0.5 118,-19.5 240,-19.5 240,-0.5 118,-0.5"/>
<text text-anchor="middle" x="179" y="-7.5" font-family="Helvetica,sans-Serif" font-size="10.00">spline&#45;gradient&#45;based.hh</text>
</a>
</g>
</g>
<!-- Node1&#45;&gt;Node5 -->
<g id="edge5" class="edge"><title>Node1&#45;&gt;Node5</title>
<path fill="none" stroke="midnightblue" d="M165.553,-118.559C178.329,-111.217 191.847,-100.774 199,-87 210.696,-64.4787 194.838,-34.5638 185.292,-19.8879"/>
<polygon fill="midnightblue" stroke="midnightblue" points="163.683,-115.588 156.483,-123.36 166.958,-121.775 163.683,-115.588"/>
</g>
<!-- Node3 -->
<g id="node3" class="node"><title>Node3</title>
<g id="a_node3"><a xlink:href="a00149.html" target="_top" xlink:title="hermite.hh">
<polygon fill="white" stroke="black" points="0,-0.5 0,-19.5 62,-19.5 62,-0.5 0,-0.5"/>
<text text-anchor="middle" x="31" y="-7.5" font-family="Helvetica,sans-Serif" font-size="10.00">hermite.hh</text>
</a>
</g>
</g>
<!-- Node2&#45;&gt;Node3 -->
<g id="edge2" class="edge"><title>Node2&#45;&gt;Node3</title>
<path fill="none" stroke="midnightblue" d="M31,-51.8165C31,-40.9962 31,-27.898 31,-19.5091"/>
<polygon fill="midnightblue" stroke="midnightblue" points="27.5001,-51.9751 31,-61.9751 34.5001,-51.9751 27.5001,-51.9751"/>
</g>
<!-- Node4&#45;&gt;Node5 -->
<g id="edge4" class="edge"><title>Node4&#45;&gt;Node5</title>
<path fill="none" stroke="midnightblue" d="M151.562,-48.1041C158.895,-38.1868 167.09,-27.1062 172.598,-19.6578"/>
<polygon fill="midnightblue" stroke="midnightblue" points="148.559,-46.2779 145.427,-56.3993 154.187,-50.44 148.559,-46.2779"/>
</g>
</g>
</svg>
