<?xml version="1.0" encoding="UTF-8" standalone="no"?>
<!DOCTYPE svg PUBLIC "-//W3C//DTD SVG 1.1//EN"
 "http://www.w3.org/Graphics/SVG/1.1/DTD/svg11.dtd">
<!-- Generated by graphviz version 2.38.0 (20140413.2041)
 -->
<!-- Title: spline.hh Pages: 1 -->
<svg width="996pt" height="375pt"
 viewBox="0.00 0.00 996.00 375.00" xmlns="http://www.w3.org/2000/svg" xmlns:xlink="http://www.w3.org/1999/xlink">
<g id="graph0" class="graph" transform="scale(1 1) rotate(0) translate(4 371)">
<title>spline.hh</title>
<polygon fill="white" stroke="none" points="-4,4 -4,-371 992,-371 992,4 -4,4"/>
<!-- Node1 -->
<g id="node1" class="node"><title>Node1</title>
<polygon fill="#bfbfbf" stroke="black" points="224,-347.5 224,-366.5 280,-366.5 280,-347.5 224,-347.5"/>
<text text-anchor="middle" x="252" y="-354.5" font-family="Helvetica,sans-Serif" font-size="10.00">spline.hh</text>
</g>
<!-- Node2 -->
<g id="node2" class="node"><title>Node2</title>
<g id="a_node2"><a doxygen="/local/devel/hpp/install/share/doc/hpp-util/doxygen-html/hpp-util.doxytag:../../hpp-util/doxygen-html/" xlink:href="../../hpp-util/doxygen-html/a00018.html" target="_top" xlink:title="hpp/util/debug.hh">
<polygon fill="white" stroke="black" points="132.5,-235.5 132.5,-254.5 223.5,-254.5 223.5,-235.5 132.5,-235.5"/>
<text text-anchor="middle" x="178" y="-242.5" font-family="Helvetica,sans-Serif" font-size="10.00">hpp/util/debug.hh</text>
</a>
</g>
</g>
<!-- Node1&#45;&gt;Node2 -->
<g id="edge1" class="edge"><title>Node1&#45;&gt;Node2</title>
<path fill="none" stroke="midnightblue" d="M246.193,-347.368C233.981,-329.215 205.448,-286.802 189.43,-262.99"/>
<polygon fill="midnightblue" stroke="midnightblue" points="192.266,-260.935 183.78,-254.591 186.457,-264.842 192.266,-260.935"/>
</g>
<!-- Node4 -->
<g id="node4" class="node"><title>Node4</title>
<g id="a_node4"><a doxygen="/local/devel/hpp/install/share/doc/hpp-util/doxygen-html/hpp-util.doxytag:../../hpp-util/doxygen-html/" xlink:href="../../hpp-util/doxygen-html/a00028.html" target="_top" xlink:title="hpp/util/pointer.hh">
<polygon fill="white" stroke="black" points="0,-0.5 0,-19.5 94,-19.5 94,-0.5 0,-0.5"/>
<text text-anchor="middle" x="47" y="-7.5" font-family="Helvetica,sans-Serif" font-size="10.00">hpp/util/pointer.hh</text>
</a>
</g>
</g>
<!-- Node1&#45;&gt;Node4 -->
<g id="edge3" class="edge"><title>Node1&#45;&gt;Node4</title>
<path fill="none" stroke="midnightblue" d="M223.954,-351.765C174.045,-342.466 75,-315.285 75,-246 75,-246 75,-246 75,-121 75,-87.7897 62.8656,-50.6338 54.5732,-29.1196"/>
<polygon fill="midnightblue" stroke="midnightblue" points="57.7462,-27.6284 50.7762,-19.649 51.2489,-30.2333 57.7462,-27.6284"/>
</g>
<!-- Node5 -->
<g id="node5" class="node"><title>Node5</title>
<g id="a_node5"><a xlink:href="a00001.html" target="_top" xlink:title="hpp/core/fwd.hh">
<polygon fill="white" stroke="black" points="289,-56.5 289,-75.5 375,-75.5 375,-56.5 289,-56.5"/>
<text text-anchor="middle" x="332" y="-63.5" font-family="Helvetica,sans-Serif" font-size="10.00">hpp/core/fwd.hh</text>
</a>
</g>
</g>
<!-- Node1&#45;&gt;Node5 -->
<g id="edge4" class="edge"><title>Node1&#45;&gt;Node5</title>
<path fill="none" stroke="midnightblue" d="M252,-347.442C252,-328.936 252,-283.812 252,-246 252,-246 252,-246 252,-182.5 252,-140.17 288.762,-102.154 312.446,-82.0552"/>
<polygon fill="midnightblue" stroke="midnightblue" points="314.672,-84.7563 320.196,-75.7156 310.239,-79.3382 314.672,-84.7563"/>
</g>
<!-- Node12 -->
<g id="node12" class="node"><title>Node12</title>
<polygon fill="white" stroke="#bfbfbf" points="655.5,-0.5 655.5,-19.5 752.5,-19.5 752.5,-0.5 655.5,-0.5"/>
<text text-anchor="middle" x="704" y="-7.5" font-family="Helvetica,sans-Serif" font-size="10.00">hpp/core/config.hh</text>
</g>
<!-- Node1&#45;&gt;Node12 -->
<g id="edge14" class="edge"><title>Node1&#45;&gt;Node12</title>
<path fill="none" stroke="midnightblue" d="M280.401,-354.81C415.661,-348.772 988,-318.916 988,-246 988,-246 988,-246 988,-121 988,-73.1122 845.816,-37.9205 762.657,-21.4333"/>
<polygon fill="midnightblue" stroke="midnightblue" points="763.306,-17.9941 752.821,-19.5158 761.967,-24.8648 763.306,-17.9941"/>
</g>
<!-- Node14 -->
<g id="node14" class="node"><title>Node14</title>
<g id="a_node14"><a xlink:href="a00203.html" target="_top" xlink:title="hpp/core/steering&#45;method.hh">
<polygon fill="white" stroke="black" points="280,-291.5 280,-310.5 420,-310.5 420,-291.5 280,-291.5"/>
<text text-anchor="middle" x="350" y="-298.5" font-family="Helvetica,sans-Serif" font-size="10.00">hpp/core/steering&#45;method.hh</text>
</a>
</g>
</g>
<!-- Node1&#45;&gt;Node14 -->
<g id="edge15" class="edge"><title>Node1&#45;&gt;Node14</title>
<path fill="none" stroke="midnightblue" d="M267.745,-347.324C283.319,-338.743 307.377,-325.486 325.459,-315.522"/>
<polygon fill="midnightblue" stroke="midnightblue" points="327.224,-318.546 334.294,-310.655 323.846,-312.415 327.224,-318.546"/>
</g>
<!-- Node3 -->
<g id="node3" class="node"><title>Node3</title>
<g id="a_node3"><a doxygen="/local/devel/hpp/install/share/doc/hpp-util/doxygen-html/hpp-util.doxytag:../../hpp-util/doxygen-html/" xlink:href="../../hpp-util/doxygen-html/a00025.html" target="_top" xlink:title="hpp/util/indent.hh">
<polygon fill="white" stroke="black" points="132.5,-174 132.5,-193 223.5,-193 223.5,-174 132.5,-174"/>
<text text-anchor="middle" x="178" y="-181" font-family="Helvetica,sans-Serif" font-size="10.00">hpp/util/indent.hh</text>
</a>
</g>
</g>
<!-- Node2&#45;&gt;Node3 -->
<g id="edge2" class="edge"><title>Node2&#45;&gt;Node3</title>
<path fill="none" stroke="midnightblue" d="M178,-235.475C178,-227.08 178,-213.981 178,-203.163"/>
<polygon fill="midnightblue" stroke="midnightblue" points="181.5,-203.009 178,-193.009 174.5,-203.009 181.5,-203.009"/>
</g>
<!-- Node5&#45;&gt;Node4 -->
<g id="edge10" class="edge"><title>Node5&#45;&gt;Node4</title>
<path fill="none" stroke="midnightblue" d="M288.715,-56.7986C238.726,-47.327 156.4,-31.7284 101.938,-21.4094"/>
<polygon fill="midnightblue" stroke="midnightblue" points="102.584,-17.9696 92.1075,-19.5467 101.281,-24.8472 102.584,-17.9696"/>
</g>
<!-- Node6 -->
<g id="node6" class="node"><title>Node6</title>
<polygon fill="white" stroke="#bfbfbf" points="246,-0.5 246,-19.5 290,-19.5 290,-0.5 246,-0.5"/>
<text text-anchor="middle" x="268" y="-7.5" font-family="Helvetica,sans-Serif" font-size="10.00">vector</text>
</g>
<!-- Node5&#45;&gt;Node6 -->
<g id="edge5" class="edge"><title>Node5&#45;&gt;Node6</title>
<path fill="none" stroke="midnightblue" d="M321.717,-56.324C312.164,-48.2631 297.72,-36.0765 286.216,-26.3695"/>
<polygon fill="midnightblue" stroke="midnightblue" points="288.37,-23.6076 278.47,-19.8339 283.856,-28.9577 288.37,-23.6076"/>
</g>
<!-- Node7 -->
<g id="node7" class="node"><title>Node7</title>
<polygon fill="white" stroke="#bfbfbf" points="308.5,-0.5 308.5,-19.5 343.5,-19.5 343.5,-0.5 308.5,-0.5"/>
<text text-anchor="middle" x="326" y="-7.5" font-family="Helvetica,sans-Serif" font-size="10.00">map</text>
</g>
<!-- Node5&#45;&gt;Node7 -->
<g id="edge6" class="edge"><title>Node5&#45;&gt;Node7</title>
<path fill="none" stroke="midnightblue" d="M331.009,-56.083C330.214,-48.9272 329.071,-38.6353 328.077,-29.6911"/>
<polygon fill="midnightblue" stroke="midnightblue" points="331.555,-29.3034 326.972,-19.7511 324.598,-30.0765 331.555,-29.3034"/>
</g>
<!-- Node8 -->
<g id="node8" class="node"><title>Node8</title>
<polygon fill="white" stroke="#bfbfbf" points="457.5,-0.5 457.5,-19.5 500.5,-19.5 500.5,-0.5 457.5,-0.5"/>
<text text-anchor="middle" x="479" y="-7.5" font-family="Helvetica,sans-Serif" font-size="10.00">deque</text>
</g>
<!-- Node5&#45;&gt;Node8 -->
<g id="edge7" class="edge"><title>Node5&#45;&gt;Node8</title>
<path fill="none" stroke="midnightblue" d="M355.293,-56.4435C380.24,-47.2792 419.97,-32.6846 447.651,-22.5161"/>
<polygon fill="midnightblue" stroke="midnightblue" points="449.074,-25.7219 457.254,-18.9883 446.66,-19.1512 449.074,-25.7219"/>
</g>
<!-- Node9 -->
<g id="node9" class="node"><title>Node9</title>
<polygon fill="white" stroke="#bfbfbf" points="361.5,-0.5 361.5,-19.5 390.5,-19.5 390.5,-0.5 361.5,-0.5"/>
<text text-anchor="middle" x="376" y="-7.5" font-family="Helvetica,sans-Serif" font-size="10.00">list</text>
</g>
<!-- Node5&#45;&gt;Node9 -->
<g id="edge8" class="edge"><title>Node5&#45;&gt;Node9</title>
<path fill="none" stroke="midnightblue" d="M339.266,-56.083C345.545,-48.3768 354.788,-37.0333 362.431,-27.6531"/>
<polygon fill="midnightblue" stroke="midnightblue" points="365.266,-29.7143 368.869,-19.7511 359.839,-25.2926 365.266,-29.7143"/>
</g>
<!-- Node10 -->
<g id="node10" class="node"><title>Node10</title>
<polygon fill="white" stroke="#bfbfbf" points="409,-0.5 409,-19.5 439,-19.5 439,-0.5 409,-0.5"/>
<text text-anchor="middle" x="424" y="-7.5" font-family="Helvetica,sans-Serif" font-size="10.00">set</text>
</g>
<!-- Node5&#45;&gt;Node10 -->
<g id="edge9" class="edge"><title>Node5&#45;&gt;Node10</title>
<path fill="none" stroke="midnightblue" d="M346.781,-56.324C361.267,-47.8215 383.573,-34.7288 400.493,-24.7975"/>
<polygon fill="midnightblue" stroke="midnightblue" points="402.403,-27.735 409.255,-19.6545 398.859,-21.6981 402.403,-27.735"/>
</g>
<!-- Node11 -->
<g id="node11" class="node"><title>Node11</title>
<g id="a_node11"><a doxygen="/local/devel/hpp/install/share/doc/hpp-constraints/doxygen-html/hpp-constraints.doxytag:../../hpp-constraints/doxygen-html/" xlink:href="../../hpp-constraints/doxygen-html/a00001.html" target="_top" xlink:title="hpp/constraints/fwd.hh">
<polygon fill="white" stroke="black" points="112,-0.5 112,-19.5 228,-19.5 228,-0.5 112,-0.5"/>
<text text-anchor="middle" x="170" y="-7.5" font-family="Helvetica,sans-Serif" font-size="10.00">hpp/constraints/fwd.hh</text>
</a>
</g>
</g>
<!-- Node5&#45;&gt;Node11 -->
<g id="edge11" class="edge"><title>Node5&#45;&gt;Node11</title>
<path fill="none" stroke="midnightblue" d="M306.331,-56.4435C279.077,-47.3591 235.816,-32.9388 205.349,-22.7831"/>
<polygon fill="midnightblue" stroke="midnightblue" points="206.143,-19.3584 195.549,-19.5164 203.929,-25.9992 206.143,-19.3584"/>
</g>
<!-- Node5&#45;&gt;Node12 -->
<g id="edge12" class="edge"><title>Node5&#45;&gt;Node12</title>
<path fill="none" stroke="midnightblue" d="M375.196,-58.9711C433.861,-50.7475 542.274,-35.4242 645.319,-20.0872"/>
<polygon fill="midnightblue" stroke="midnightblue" points="645.898,-23.5397 655.272,-18.6032 644.865,-16.6162 645.898,-23.5397"/>
</g>
<!-- Node13 -->
<g id="node13" class="node"><title>Node13</title>
<polygon fill="white" stroke="#bfbfbf" points="518.5,-0.5 518.5,-19.5 637.5,-19.5 637.5,-0.5 518.5,-0.5"/>
<text text-anchor="middle" x="578" y="-7.5" font-family="Helvetica,sans-Serif" font-size="10.00">hpp/core/deprecated.hh</text>
</g>
<!-- Node5&#45;&gt;Node13 -->
<g id="edge13" class="edge"><title>Node5&#45;&gt;Node13</title>
<path fill="none" stroke="midnightblue" d="M370.979,-56.4435C413.894,-47.0234 482.946,-31.8656 529.369,-21.6752"/>
<polygon fill="midnightblue" stroke="midnightblue" points="530.186,-25.0792 539.203,-19.5164 528.685,-18.242 530.186,-25.0792"/>
</g>
<!-- Node14&#45;&gt;Node2 -->
<g id="edge16" class="edge"><title>Node14&#45;&gt;Node2</title>
<path fill="none" stroke="midnightblue" d="M322.746,-291.444C293.559,-282.28 247.079,-267.688 214.691,-257.519"/>
<polygon fill="midnightblue" stroke="midnightblue" points="215.716,-254.173 205.126,-254.516 213.619,-260.851 215.716,-254.173"/>
</g>
<!-- Node14&#45;&gt;Node5 -->
<g id="edge17" class="edge"><title>Node14&#45;&gt;Node5</title>
<path fill="none" stroke="midnightblue" d="M346.839,-291.405C337.444,-264.811 310.896,-181.476 320,-112 321.156,-103.181 323.534,-93.6328 325.87,-85.6098"/>
<polygon fill="midnightblue" stroke="midnightblue" points="329.285,-86.4151 328.912,-75.8268 322.601,-84.3366 329.285,-86.4151"/>
</g>
<!-- Node15 -->
<g id="node15" class="node"><title>Node15</title>
<g id="a_node15"><a xlink:href="a00174.html" target="_top" xlink:title="hpp/core/path.hh">
<polygon fill="white" stroke="black" points="629.5,-235.5 629.5,-254.5 718.5,-254.5 718.5,-235.5 629.5,-235.5"/>
<text text-anchor="middle" x="674" y="-242.5" font-family="Helvetica,sans-Serif" font-size="10.00">hpp/core/path.hh</text>
</a>
</g>
</g>
<!-- Node14&#45;&gt;Node15 -->
<g id="edge18" class="edge"><title>Node14&#45;&gt;Node15</title>
<path fill="none" stroke="midnightblue" d="M401.339,-291.444C460.798,-281.534 558.354,-265.274 619.233,-255.128"/>
<polygon fill="midnightblue" stroke="midnightblue" points="620.127,-258.527 629.416,-253.431 618.977,-251.622 620.127,-258.527"/>
</g>
<!-- Node21 -->
<g id="node21" class="node"><title>Node21</title>
<g id="a_node21"><a xlink:href="a00184.html" target="_top" xlink:title="hpp/core/projection\l&#45;error.hh">
<polygon fill="white" stroke="black" points="860.5,-168.5 860.5,-198.5 959.5,-198.5 959.5,-168.5 860.5,-168.5"/>
<text text-anchor="start" x="868.5" y="-186.5" font-family="Helvetica,sans-Serif" font-size="10.00">hpp/core/projection</text>
<text text-anchor="middle" x="910" y="-175.5" font-family="Helvetica,sans-Serif" font-size="10.00">&#45;error.hh</text>
</a>
</g>
</g>
<!-- Node14&#45;&gt;Node21 -->
<g id="edge35" class="edge"><title>Node14&#45;&gt;Node21</title>
<path fill="none" stroke="midnightblue" d="M420.073,-296.852C496.486,-292.217 621.921,-281.078 727,-255 778.264,-242.277 834.601,-219.084 871.036,-202.783"/>
<polygon fill="midnightblue" stroke="midnightblue" points="872.639,-205.9 880.309,-198.591 869.755,-199.521 872.639,-205.9"/>
</g>
<!-- Node15&#45;&gt;Node5 -->
<g id="edge21" class="edge"><title>Node15&#45;&gt;Node5</title>
<path fill="none" stroke="midnightblue" d="M629.487,-244.345C549.3,-243.961 385.339,-238.254 347,-199 317.408,-168.702 322.551,-113.955 327.823,-85.4208"/>
<polygon fill="midnightblue" stroke="midnightblue" points="331.265,-86.0617 329.849,-75.5619 324.408,-84.6528 331.265,-86.0617"/>
</g>
<!-- Node15&#45;&gt;Node12 -->
<g id="edge22" class="edge"><title>Node15&#45;&gt;Node12</title>
<path fill="none" stroke="midnightblue" d="M715.955,-235.489C751.017,-227.424 797.004,-214.292 808,-199 845.104,-147.4 842.894,-109.12 808,-56 797.428,-39.9065 779.738,-29.5412 761.918,-22.8764"/>
<polygon fill="midnightblue" stroke="midnightblue" points="762.644,-19.4271 752.049,-19.5415 760.403,-26.0587 762.644,-19.4271"/>
</g>
<!-- Node15&#45;&gt;Node13 -->
<g id="edge29" class="edge"><title>Node15&#45;&gt;Node13</title>
<path fill="none" stroke="midnightblue" d="M698.977,-235.349C716.382,-228.134 738.917,-216.233 753,-199 778.238,-168.117 795.797,-146.033 775,-112 744.035,-61.3272 678.686,-35.0299 631.737,-22.1432"/>
<polygon fill="midnightblue" stroke="midnightblue" points="632.578,-18.7455 622.017,-19.593 630.801,-25.5163 632.578,-18.7455"/>
</g>
<!-- Node16 -->
<g id="node16" class="node"><title>Node16</title>
<polygon fill="white" stroke="#bfbfbf" points="474,-174 474,-193 602,-193 602,-174 474,-174"/>
<text text-anchor="middle" x="538" y="-181" font-family="Helvetica,sans-Serif" font-size="10.00">boost/concept_check.hpp</text>
</g>
<!-- Node15&#45;&gt;Node16 -->
<g id="edge19" class="edge"><title>Node15&#45;&gt;Node16</title>
<path fill="none" stroke="midnightblue" d="M654.515,-235.475C631.59,-225.445 593.315,-208.7 566.925,-197.155"/>
<polygon fill="midnightblue" stroke="midnightblue" points="568.014,-193.811 557.449,-193.009 565.208,-200.224 568.014,-193.811"/>
</g>
<!-- Node17 -->
<g id="node17" class="node"><title>Node17</title>
<g id="a_node17"><a doxygen="/local/devel/hpp/install/share/doc/hpp-util/doxygen-html/hpp-util.doxytag:../../hpp-util/doxygen-html/" xlink:href="../../hpp-util/doxygen-html/a00022.html" target="_top" xlink:title="hpp/util/exception.hh">
<polygon fill="white" stroke="black" points="620.5,-174 620.5,-193 727.5,-193 727.5,-174 620.5,-174"/>
<text text-anchor="middle" x="674" y="-181" font-family="Helvetica,sans-Serif" font-size="10.00">hpp/util/exception.hh</text>
</a>
</g>
</g>
<!-- Node15&#45;&gt;Node17 -->
<g id="edge20" class="edge"><title>Node15&#45;&gt;Node17</title>
<path fill="none" stroke="midnightblue" d="M674,-235.475C674,-227.08 674,-213.981 674,-203.163"/>
<polygon fill="midnightblue" stroke="midnightblue" points="677.5,-203.009 674,-193.009 670.5,-203.009 677.5,-203.009"/>
</g>
<!-- Node18 -->
<g id="node18" class="node"><title>Node18</title>
<g id="a_node18"><a xlink:href="a00123.html" target="_top" xlink:title="hpp/core/constraint\l&#45;set.hh">
<polygon fill="white" stroke="black" points="356,-168.5 356,-198.5 456,-198.5 456,-168.5 356,-168.5"/>
<text text-anchor="start" x="364" y="-186.5" font-family="Helvetica,sans-Serif" font-size="10.00">hpp/core/constraint</text>
<text text-anchor="middle" x="406" y="-175.5" font-family="Helvetica,sans-Serif" font-size="10.00">&#45;set.hh</text>
</a>
</g>
</g>
<!-- Node15&#45;&gt;Node18 -->
<g id="edge23" class="edge"><title>Node15&#45;&gt;Node18</title>
<path fill="none" stroke="midnightblue" d="M632.68,-235.471C592.524,-227.1 529.573,-213.762 465.984,-199.192"/>
<polygon fill="midnightblue" stroke="midnightblue" points="466.719,-195.77 456.188,-196.939 465.149,-202.592 466.719,-195.77"/>
</g>
<!-- Node15&#45;&gt;Node21 -->
<g id="edge30" class="edge"><title>Node15&#45;&gt;Node21</title>
<path fill="none" stroke="midnightblue" d="M707.813,-235.475C744.901,-226.125 805.141,-210.937 850.236,-199.568"/>
<polygon fill="midnightblue" stroke="midnightblue" points="851.351,-202.896 860.192,-197.058 849.639,-196.109 851.351,-202.896"/>
</g>
<!-- Node23 -->
<g id="node23" class="node"><title>Node23</title>
<g id="a_node23"><a xlink:href="a00208.html" target="_top" xlink:title="hpp/core/time&#45;parameterization.hh">
<polygon fill="white" stroke="black" points="602,-112.5 602,-131.5 766,-131.5 766,-112.5 602,-112.5"/>
<text text-anchor="middle" x="684" y="-119.5" font-family="Helvetica,sans-Serif" font-size="10.00">hpp/core/time&#45;parameterization.hh</text>
</a>
</g>
</g>
<!-- Node15&#45;&gt;Node23 -->
<g id="edge32" class="edge"><title>Node15&#45;&gt;Node23</title>
<path fill="none" stroke="midnightblue" d="M694.223,-235.495C708.771,-228.168 727.301,-216.063 736,-199 742.258,-186.725 741.728,-180.531 736,-168 730.223,-155.36 718.948,-144.911 708.369,-137.274"/>
<polygon fill="midnightblue" stroke="midnightblue" points="710.042,-134.182 699.783,-131.533 706.151,-140.001 710.042,-134.182"/>
</g>
<!-- Node18&#45;&gt;Node8 -->
<g id="edge24" class="edge"><title>Node18&#45;&gt;Node8</title>
<path fill="none" stroke="midnightblue" d="M408.803,-168.419C411.907,-153.967 417.485,-130.975 425,-112 437.152,-81.3198 456.243,-47.971 468.169,-28.3077"/>
<polygon fill="midnightblue" stroke="midnightblue" points="471.272,-29.9432 473.532,-19.5922 465.31,-26.2746 471.272,-29.9432"/>
</g>
<!-- Node19 -->
<g id="node19" class="node"><title>Node19</title>
<g id="a_node19"><a xlink:href="a00124.html" target="_top" xlink:title="hpp/core/constraint.hh">
<polygon fill="white" stroke="black" points="434.5,-112.5 434.5,-131.5 547.5,-131.5 547.5,-112.5 434.5,-112.5"/>
<text text-anchor="middle" x="491" y="-119.5" font-family="Helvetica,sans-Serif" font-size="10.00">hpp/core/constraint.hh</text>
</a>
</g>
</g>
<!-- Node18&#45;&gt;Node19 -->
<g id="edge25" class="edge"><title>Node18&#45;&gt;Node19</title>
<path fill="none" stroke="midnightblue" d="M426.144,-168.399C439.387,-159.129 456.678,-147.025 470.076,-137.647"/>
<polygon fill="midnightblue" stroke="midnightblue" points="472.447,-140.26 478.632,-131.658 468.432,-134.525 472.447,-140.26"/>
</g>
<!-- Node19&#45;&gt;Node5 -->
<g id="edge28" class="edge"><title>Node19&#45;&gt;Node5</title>
<path fill="none" stroke="midnightblue" d="M465.806,-112.444C439.057,-103.359 396.597,-88.9388 366.695,-78.7831"/>
<polygon fill="midnightblue" stroke="midnightblue" points="367.671,-75.4182 357.076,-75.5164 365.419,-82.0464 367.671,-75.4182"/>
</g>
<!-- Node19&#45;&gt;Node12 -->
<g id="edge27" class="edge"><title>Node19&#45;&gt;Node12</title>
<path fill="none" stroke="midnightblue" d="M507.714,-112.368C544.809,-93.2113 634.222,-47.0355 678.407,-24.2172"/>
<polygon fill="midnightblue" stroke="midnightblue" points="680.085,-27.2898 687.364,-19.5914 676.873,-21.0702 680.085,-27.2898"/>
</g>
<!-- Node20 -->
<g id="node20" class="node"><title>Node20</title>
<polygon fill="white" stroke="#bfbfbf" points="465,-56.5 465,-75.5 517,-75.5 517,-56.5 465,-56.5"/>
<text text-anchor="middle" x="491" y="-63.5" font-family="Helvetica,sans-Serif" font-size="10.00">ostream</text>
</g>
<!-- Node19&#45;&gt;Node20 -->
<g id="edge26" class="edge"><title>Node19&#45;&gt;Node20</title>
<path fill="none" stroke="midnightblue" d="M491,-112.083C491,-105.006 491,-94.8611 491,-85.9865"/>
<polygon fill="midnightblue" stroke="midnightblue" points="494.5,-85.751 491,-75.7511 487.5,-85.7511 494.5,-85.751"/>
</g>
<!-- Node22 -->
<g id="node22" class="node"><title>Node22</title>
<polygon fill="white" stroke="#bfbfbf" points="880.5,-112.5 880.5,-131.5 939.5,-131.5 939.5,-112.5 880.5,-112.5"/>
<text text-anchor="middle" x="910" y="-119.5" font-family="Helvetica,sans-Serif" font-size="10.00">exception</text>
</g>
<!-- Node21&#45;&gt;Node22 -->
<g id="edge31" class="edge"><title>Node21&#45;&gt;Node22</title>
<path fill="none" stroke="midnightblue" d="M910,-168.399C910,-160.466 910,-150.458 910,-141.858"/>
<polygon fill="midnightblue" stroke="midnightblue" points="913.5,-141.658 910,-131.658 906.5,-141.658 913.5,-141.658"/>
</g>
<!-- Node23&#45;&gt;Node5 -->
<g id="edge33" class="edge"><title>Node23&#45;&gt;Node5</title>
<path fill="none" stroke="midnightblue" d="M628.225,-112.444C561.52,-102.21 450.682,-85.2069 385.158,-75.1549"/>
<polygon fill="midnightblue" stroke="midnightblue" points="385.46,-71.6603 375.044,-73.6034 384.398,-78.5794 385.46,-71.6603"/>
</g>
<!-- Node23&#45;&gt;Node12 -->
<g id="edge34" class="edge"><title>Node23&#45;&gt;Node12</title>
<path fill="none" stroke="midnightblue" d="M685.569,-112.368C688.797,-94.617 696.242,-53.6664 700.619,-29.5974"/>
<polygon fill="midnightblue" stroke="midnightblue" points="704.093,-30.0562 702.438,-19.5914 697.205,-28.804 704.093,-30.0562"/>
</g>
</g>
</svg>
