<?xml version="1.0" encoding="UTF-8" standalone="no"?>
<!DOCTYPE svg PUBLIC "-//W3C//DTD SVG 1.1//EN"
 "http://www.w3.org/Graphics/SVG/1.1/DTD/svg11.dtd">
<!-- Generated by graphviz version 2.38.0 (20140413.2041)
 -->
<!-- Title: problem&#45;target.hh Pages: 1 -->
<svg width="216pt" height="84pt"
 viewBox="0.00 0.00 215.50 84.00" xmlns="http://www.w3.org/2000/svg" xmlns:xlink="http://www.w3.org/1999/xlink">
<g id="graph0" class="graph" transform="scale(1 1) rotate(0) translate(4 80)">
<title>problem&#45;target.hh</title>
<polygon fill="white" stroke="none" points="-4,4 -4,-80 211.5,-80 211.5,4 -4,4"/>
<!-- Node1 -->
<g id="node1" class="node"><title>Node1</title>
<polygon fill="#bfbfbf" stroke="black" points="66,-56.5 66,-75.5 158,-75.5 158,-56.5 66,-56.5"/>
<text text-anchor="middle" x="112" y="-63.5" font-family="Helvetica,sans-Serif" font-size="10.00">problem&#45;target.hh</text>
</g>
<!-- Node2 -->
<g id="node2" class="node"><title>Node2</title>
<g id="a_node2"><a xlink:href="a00146.html" target="_top" xlink:title="goal&#45;configurations.hh">
<polygon fill="white" stroke="black" points="0,-0.5 0,-19.5 112,-19.5 112,-0.5 0,-0.5"/>
<text text-anchor="middle" x="56" y="-7.5" font-family="Helvetica,sans-Serif" font-size="10.00">goal&#45;configurations.hh</text>
</a>
</g>
</g>
<!-- Node1&#45;&gt;Node2 -->
<g id="edge1" class="edge"><title>Node1&#45;&gt;Node2</title>
<path fill="none" stroke="midnightblue" d="M95.6701,-49.2533C85.735,-39.6731 73.4125,-27.7906 65.1611,-19.8339"/>
<polygon fill="midnightblue" stroke="midnightblue" points="93.3747,-51.902 103.003,-56.324 98.2336,-46.8631 93.3747,-51.902"/>
</g>
<!-- Node3 -->
<g id="node3" class="node"><title>Node3</title>
<g id="a_node3"><a xlink:href="a00207.html" target="_top" xlink:title="task&#45;target.hh">
<polygon fill="white" stroke="black" points="130.5,-0.5 130.5,-19.5 207.5,-19.5 207.5,-0.5 130.5,-0.5"/>
<text text-anchor="middle" x="169" y="-7.5" font-family="Helvetica,sans-Serif" font-size="10.00">task&#45;target.hh</text>
</a>
</g>
</g>
<!-- Node1&#45;&gt;Node3 -->
<g id="edge2" class="edge"><title>Node1&#45;&gt;Node3</title>
<path fill="none" stroke="midnightblue" d="M128.621,-49.2533C138.734,-39.6731 151.277,-27.7906 159.675,-19.8339"/>
<polygon fill="midnightblue" stroke="midnightblue" points="126.01,-46.9056 121.158,-56.324 130.825,-51.9873 126.01,-46.9056"/>
</g>
</g>
</svg>
