<?xml version="1.0" encoding="UTF-8" standalone="no"?>
<!DOCTYPE svg PUBLIC "-//W3C//DTD SVG 1.1//EN"
 "http://www.w3.org/Graphics/SVG/1.1/DTD/svg11.dtd">
<!-- Generated by graphviz version 2.38.0 (20140413.2041)
 -->
<!-- Title: polynomial.hh Pages: 1 -->
<svg width="762pt" height="207pt"
 viewBox="0.00 0.00 761.50 207.00" xmlns="http://www.w3.org/2000/svg" xmlns:xlink="http://www.w3.org/1999/xlink">
<g id="graph0" class="graph" transform="scale(1 1) rotate(0) translate(4 203)">
<title>polynomial.hh</title>
<polygon fill="white" stroke="none" points="-4,4 -4,-203 757.5,-203 757.5,4 -4,4"/>
<!-- Node1 -->
<g id="node1" class="node"><title>Node1</title>
<polygon fill="#bfbfbf" stroke="black" points="477.5,-179.5 477.5,-198.5 554.5,-198.5 554.5,-179.5 477.5,-179.5"/>
<text text-anchor="middle" x="516" y="-186.5" font-family="Helvetica,sans-Serif" font-size="10.00">polynomial.hh</text>
</g>
<!-- Node2 -->
<g id="node2" class="node"><title>Node2</title>
<g id="a_node2"><a doxygen="/local/devel/hpp/install/share/doc/hpp-constraints/doxygen-html/hpp-constraints.doxytag:../../hpp-constraints/doxygen-html/" xlink:href="../../hpp-constraints/doxygen-html/a00107.html" target="_top" xlink:title="hpp/constraints/differentiable\l&#45;function.hh">
<polygon fill="white" stroke="black" points="236,-112.5 236,-142.5 378,-142.5 378,-112.5 236,-112.5"/>
<text text-anchor="start" x="244" y="-130.5" font-family="Helvetica,sans-Serif" font-size="10.00">hpp/constraints/differentiable</text>
<text text-anchor="middle" x="307" y="-119.5" font-family="Helvetica,sans-Serif" font-size="10.00">&#45;function.hh</text>
</a>
</g>
</g>
<!-- Node1&#45;&gt;Node2 -->
<g id="edge1" class="edge"><title>Node1&#45;&gt;Node2</title>
<path fill="none" stroke="midnightblue" d="M486.055,-179.475C454.839,-170.588 405.103,-156.429 365.962,-145.286"/>
<polygon fill="midnightblue" stroke="midnightblue" points="366.833,-141.895 356.257,-142.523 364.917,-148.627 366.833,-141.895"/>
</g>
<!-- Node3 -->
<g id="node3" class="node"><title>Node3</title>
<g id="a_node3"><a xlink:href="a00001.html" target="_top" xlink:title="hpp/constraints/fwd.hh">
<polygon fill="white" stroke="black" points="342,-56.5 342,-75.5 458,-75.5 458,-56.5 342,-56.5"/>
<text text-anchor="middle" x="400" y="-63.5" font-family="Helvetica,sans-Serif" font-size="10.00">hpp/constraints/fwd.hh</text>
</a>
</g>
</g>
<!-- Node1&#45;&gt;Node3 -->
<g id="edge14" class="edge"><title>Node1&#45;&gt;Node3</title>
<path fill="none" stroke="midnightblue" d="M484.68,-179.388C465.047,-172.503 440.594,-160.971 425,-143 410.947,-126.804 404.752,-102.505 402.047,-85.7644"/>
<polygon fill="midnightblue" stroke="midnightblue" points="405.479,-85.0204 400.679,-75.5751 398.541,-85.952 405.479,-85.0204"/>
</g>
<!-- Node11 -->
<g id="node11" class="node"><title>Node11</title>
<polygon fill="white" stroke="#bfbfbf" points="656.5,-0.5 656.5,-19.5 753.5,-19.5 753.5,-0.5 656.5,-0.5"/>
<text text-anchor="middle" x="705" y="-7.5" font-family="Helvetica,sans-Serif" font-size="10.00">hpp/core/config.hh</text>
</g>
<!-- Node1&#45;&gt;Node11 -->
<g id="edge15" class="edge"><title>Node1&#45;&gt;Node11</title>
<path fill="none" stroke="midnightblue" d="M541.025,-179.35C560.427,-171.81 587.248,-159.492 607,-143 647.196,-109.438 680.112,-56.1836 695.537,-28.7014"/>
<polygon fill="midnightblue" stroke="midnightblue" points="698.665,-30.2768 700.41,-19.8266 692.529,-26.9078 698.665,-30.2768"/>
</g>
<!-- Node14 -->
<g id="node14" class="node"><title>Node14</title>
<g id="a_node14"><a xlink:href="a00208.html" target="_top" xlink:title="hpp/core/time&#45;parameterization.hh">
<polygon fill="white" stroke="black" points="434,-118 434,-137 598,-137 598,-118 434,-118"/>
<text text-anchor="middle" x="516" y="-125" font-family="Helvetica,sans-Serif" font-size="10.00">hpp/core/time&#45;parameterization.hh</text>
</a>
</g>
</g>
<!-- Node1&#45;&gt;Node14 -->
<g id="edge16" class="edge"><title>Node1&#45;&gt;Node14</title>
<path fill="none" stroke="midnightblue" d="M516,-179.475C516,-171.08 516,-157.981 516,-147.163"/>
<polygon fill="midnightblue" stroke="midnightblue" points="519.5,-147.009 516,-137.009 512.5,-147.009 519.5,-147.009"/>
</g>
<!-- Node15 -->
<g id="node15" class="node"><title>Node15</title>
<polygon fill="white" stroke="#bfbfbf" points="654,-118 654,-137 728,-137 728,-118 654,-118"/>
<text text-anchor="middle" x="691" y="-125" font-family="Helvetica,sans-Serif" font-size="10.00">path/math.hh</text>
</g>
<!-- Node1&#45;&gt;Node15 -->
<g id="edge19" class="edge"><title>Node1&#45;&gt;Node15</title>
<path fill="none" stroke="midnightblue" d="M541.073,-179.475C571.352,-169.18 622.44,-151.81 656.441,-140.25"/>
<polygon fill="midnightblue" stroke="midnightblue" points="657.632,-143.542 665.973,-137.009 655.379,-136.914 657.632,-143.542"/>
</g>
<!-- Node2&#45;&gt;Node3 -->
<g id="edge2" class="edge"><title>Node2&#45;&gt;Node3</title>
<path fill="none" stroke="midnightblue" d="M329.04,-112.399C343.808,-102.951 363.177,-90.5589 377.947,-81.1089"/>
<polygon fill="midnightblue" stroke="midnightblue" points="379.93,-83.9953 386.468,-75.6578 376.158,-78.0988 379.93,-83.9953"/>
</g>
<!-- Node10 -->
<g id="node10" class="node"><title>Node10</title>
<g id="a_node10"><a doxygen="/local/devel/hpp/install/share/doc/hpp-constraints/doxygen-html/hpp-constraints.doxytag:../../hpp-constraints/doxygen-html/" xlink:href="../../hpp-constraints/doxygen-html/a00001.html" target="_top" xlink:title="hpp/constraints/fwd.hh">
<polygon fill="white" stroke="black" points="0,-0.5 0,-19.5 116,-19.5 116,-0.5 0,-0.5"/>
<text text-anchor="middle" x="58" y="-7.5" font-family="Helvetica,sans-Serif" font-size="10.00">hpp/constraints/fwd.hh</text>
</a>
</g>
</g>
<!-- Node2&#45;&gt;Node10 -->
<g id="edge13" class="edge"><title>Node2&#45;&gt;Node10</title>
<path fill="none" stroke="midnightblue" d="M307.33,-112.384C306.892,-96.3458 303.577,-70.5222 288,-56 276.118,-44.9222 189.547,-30.1526 126.101,-20.6089"/>
<polygon fill="midnightblue" stroke="midnightblue" points="126.539,-17.1355 116.132,-19.1234 125.507,-24.0591 126.539,-17.1355"/>
</g>
<!-- Node13 -->
<g id="node13" class="node"><title>Node13</title>
<g id="a_node13"><a xlink:href="a00142.html" target="_top" xlink:title="hpp/constraints/fwd.hh">
<polygon fill="white" stroke="black" points="163,-56.5 163,-75.5 279,-75.5 279,-56.5 163,-56.5"/>
<text text-anchor="middle" x="221" y="-63.5" font-family="Helvetica,sans-Serif" font-size="10.00">hpp/constraints/fwd.hh</text>
</a>
</g>
</g>
<!-- Node2&#45;&gt;Node13 -->
<g id="edge12" class="edge"><title>Node2&#45;&gt;Node13</title>
<path fill="none" stroke="midnightblue" d="M286.619,-112.399C273.092,-103.04 255.389,-90.7924 241.78,-81.3771"/>
<polygon fill="midnightblue" stroke="midnightblue" points="243.729,-78.4692 233.514,-75.6578 239.746,-84.2257 243.729,-78.4692"/>
</g>
<!-- Node4 -->
<g id="node4" class="node"><title>Node4</title>
<polygon fill="white" stroke="#bfbfbf" points="541,-0.5 541,-19.5 585,-19.5 585,-0.5 541,-0.5"/>
<text text-anchor="middle" x="563" y="-7.5" font-family="Helvetica,sans-Serif" font-size="10.00">vector</text>
</g>
<!-- Node3&#45;&gt;Node4 -->
<g id="edge3" class="edge"><title>Node3&#45;&gt;Node4</title>
<path fill="none" stroke="midnightblue" d="M425.828,-56.4435C454.378,-46.985 500.389,-31.7421 531.152,-21.551"/>
<polygon fill="midnightblue" stroke="midnightblue" points="532.56,-24.7715 540.952,-18.3042 530.359,-18.1266 532.56,-24.7715"/>
</g>
<!-- Node5 -->
<g id="node5" class="node"><title>Node5</title>
<polygon fill="white" stroke="#bfbfbf" points="603.5,-0.5 603.5,-19.5 638.5,-19.5 638.5,-0.5 603.5,-0.5"/>
<text text-anchor="middle" x="621" y="-7.5" font-family="Helvetica,sans-Serif" font-size="10.00">map</text>
</g>
<!-- Node3&#45;&gt;Node5 -->
<g id="edge4" class="edge"><title>Node3&#45;&gt;Node5</title>
<path fill="none" stroke="midnightblue" d="M441.916,-56.4658C479.322,-48.5849 535.746,-36.0482 593.67,-19.8795"/>
<polygon fill="midnightblue" stroke="midnightblue" points="594.682,-23.2307 603.355,-17.1455 592.78,-16.494 594.682,-23.2307"/>
</g>
<!-- Node6 -->
<g id="node6" class="node"><title>Node6</title>
<polygon fill="white" stroke="#bfbfbf" points="134.5,-0.5 134.5,-19.5 177.5,-19.5 177.5,-0.5 134.5,-0.5"/>
<text text-anchor="middle" x="156" y="-7.5" font-family="Helvetica,sans-Serif" font-size="10.00">deque</text>
</g>
<!-- Node3&#45;&gt;Node6 -->
<g id="edge5" class="edge"><title>Node3&#45;&gt;Node6</title>
<path fill="none" stroke="midnightblue" d="M353.822,-56.4557C312.515,-48.5517 250.129,-35.975 187.603,-20.2569"/>
<polygon fill="midnightblue" stroke="midnightblue" points="188.123,-16.7781 177.569,-17.7075 186.399,-23.5625 188.123,-16.7781"/>
</g>
<!-- Node7 -->
<g id="node7" class="node"><title>Node7</title>
<polygon fill="white" stroke="#bfbfbf" points="195.5,-0.5 195.5,-19.5 224.5,-19.5 224.5,-0.5 195.5,-0.5"/>
<text text-anchor="middle" x="210" y="-7.5" font-family="Helvetica,sans-Serif" font-size="10.00">list</text>
</g>
<!-- Node3&#45;&gt;Node7 -->
<g id="edge6" class="edge"><title>Node3&#45;&gt;Node7</title>
<path fill="none" stroke="midnightblue" d="M364.743,-56.4668C332.992,-48.5562 284.888,-36.0148 234.428,-19.9014"/>
<polygon fill="midnightblue" stroke="midnightblue" points="235.238,-16.4849 224.646,-16.7417 233.086,-23.1461 235.238,-16.4849"/>
</g>
<!-- Node8 -->
<g id="node8" class="node"><title>Node8</title>
<polygon fill="white" stroke="#bfbfbf" points="243,-0.5 243,-19.5 273,-19.5 273,-0.5 243,-0.5"/>
<text text-anchor="middle" x="258" y="-7.5" font-family="Helvetica,sans-Serif" font-size="10.00">set</text>
</g>
<!-- Node3&#45;&gt;Node8 -->
<g id="edge7" class="edge"><title>Node3&#45;&gt;Node8</title>
<path fill="none" stroke="midnightblue" d="M377.5,-56.4435C351.704,-46.6337 309.546,-30.6019 282.816,-20.4369"/>
<polygon fill="midnightblue" stroke="midnightblue" points="283.984,-17.1367 273.393,-16.8536 281.496,-23.6795 283.984,-17.1367"/>
</g>
<!-- Node9 -->
<g id="node9" class="node"><title>Node9</title>
<g id="a_node9"><a doxygen="/local/devel/hpp/install/share/doc/hpp-util/doxygen-html/hpp-util.doxytag:../../hpp-util/doxygen-html/" xlink:href="../../hpp-util/doxygen-html/a00028.html" target="_top" xlink:title="hpp/util/pointer.hh">
<polygon fill="white" stroke="black" points="291,-0.5 291,-19.5 385,-19.5 385,-0.5 291,-0.5"/>
<text text-anchor="middle" x="338" y="-7.5" font-family="Helvetica,sans-Serif" font-size="10.00">hpp/util/pointer.hh</text>
</a>
</g>
</g>
<!-- Node3&#45;&gt;Node9 -->
<g id="edge8" class="edge"><title>Node3&#45;&gt;Node9</title>
<path fill="none" stroke="midnightblue" d="M390.039,-56.324C380.873,-48.3414 367.063,-36.3128 355.972,-26.6529"/>
<polygon fill="midnightblue" stroke="midnightblue" points="357.982,-23.7624 348.143,-19.8339 353.385,-29.041 357.982,-23.7624"/>
</g>
<!-- Node3&#45;&gt;Node10 -->
<g id="edge9" class="edge"><title>Node3&#45;&gt;Node10</title>
<path fill="none" stroke="midnightblue" d="M345.809,-56.4435C285.022,-46.8456 186.513,-31.2916 121.99,-21.1037"/>
<polygon fill="midnightblue" stroke="midnightblue" points="122.361,-17.619 111.937,-19.5164 121.269,-24.5333 122.361,-17.619"/>
</g>
<!-- Node3&#45;&gt;Node11 -->
<g id="edge10" class="edge"><title>Node3&#45;&gt;Node11</title>
<path fill="none" stroke="midnightblue" d="M448.328,-56.4435C502.204,-46.9049 589.307,-31.4834 646.864,-21.293"/>
<polygon fill="midnightblue" stroke="midnightblue" points="647.661,-24.7063 656.898,-19.5164 646.441,-17.8135 647.661,-24.7063"/>
</g>
<!-- Node12 -->
<g id="node12" class="node"><title>Node12</title>
<polygon fill="white" stroke="#bfbfbf" points="403.5,-0.5 403.5,-19.5 522.5,-19.5 522.5,-0.5 403.5,-0.5"/>
<text text-anchor="middle" x="463" y="-7.5" font-family="Helvetica,sans-Serif" font-size="10.00">hpp/core/deprecated.hh</text>
</g>
<!-- Node3&#45;&gt;Node12 -->
<g id="edge11" class="edge"><title>Node3&#45;&gt;Node12</title>
<path fill="none" stroke="midnightblue" d="M410.122,-56.324C419.526,-48.2631 433.744,-36.0765 445.069,-26.3695"/>
<polygon fill="midnightblue" stroke="midnightblue" points="447.379,-28.9993 452.694,-19.8339 442.823,-23.6844 447.379,-28.9993"/>
</g>
<!-- Node14&#45;&gt;Node3 -->
<g id="edge17" class="edge"><title>Node14&#45;&gt;Node3</title>
<path fill="none" stroke="midnightblue" d="M499.38,-117.975C480.085,-108.078 448.041,-91.6416 425.569,-80.1151"/>
<polygon fill="midnightblue" stroke="midnightblue" points="427.084,-76.9589 416.589,-75.5091 423.89,-83.1873 427.084,-76.9589"/>
</g>
<!-- Node14&#45;&gt;Node11 -->
<g id="edge18" class="edge"><title>Node14&#45;&gt;Node11</title>
<path fill="none" stroke="midnightblue" d="M526.495,-117.794C543.688,-103.764 579.229,-75.7351 612,-56 632.412,-43.7076 656.683,-32.0552 675.311,-23.6887"/>
<polygon fill="midnightblue" stroke="midnightblue" points="676.759,-26.875 684.487,-19.6271 673.926,-20.474 676.759,-26.875"/>
</g>
</g>
</svg>
