<?xml version="1.0" encoding="UTF-8" standalone="no"?>
<!DOCTYPE svg PUBLIC "-//W3C//DTD SVG 1.1//EN"
 "http://www.w3.org/Graphics/SVG/1.1/DTD/svg11.dtd">
<!-- Generated by graphviz version 2.38.0 (20140413.2041)
 -->
<!-- Title: hpp::core::Path Pages: 1 -->
<svg width="658pt" height="292pt"
 viewBox="0.00 0.00 658.00 291.50" xmlns="http://www.w3.org/2000/svg" xmlns:xlink="http://www.w3.org/1999/xlink">
<g id="graph0" class="graph" transform="scale(1 1) rotate(0) translate(4 287.5)">
<title>hpp::core::Path</title>
<polygon fill="white" stroke="none" points="-4,4 -4,-287.5 654,-287.5 654,4 -4,4"/>
<!-- Node1 -->
<g id="node1" class="node"><title>Node1</title>
<polygon fill="#bfbfbf" stroke="black" points="0,-132 0,-151 83,-151 83,-132 0,-132"/>
<text text-anchor="middle" x="41.5" y="-139" font-family="Helvetica,sans-Serif" font-size="10.00">hpp::core::Path</text>
</g>
<!-- Node2 -->
<g id="node2" class="node"><title>Node2</title>
<g id="a_node2"><a xlink:href="a00044.html" target="_top" xlink:title="Piecewise linear interpolation between two configurations. ">
<polygon fill="white" stroke="black" points="123.5,-264 123.5,-283 257.5,-283 257.5,-264 123.5,-264"/>
<text text-anchor="middle" x="190.5" y="-271" font-family="Helvetica,sans-Serif" font-size="10.00">hpp::core::InterpolatedPath</text>
</a>
</g>
</g>
<!-- Node1&#45;&gt;Node2 -->
<g id="edge1" class="edge"><title>Node1&#45;&gt;Node2</title>
<path fill="none" stroke="midnightblue" d="M50.1701,-160.332C61.4484,-185.627 84.9242,-230.201 119,-254.5 124.47,-258.401 130.697,-261.501 137.133,-263.964"/>
<polygon fill="midnightblue" stroke="midnightblue" points="53.3613,-158.893 46.2073,-151.078 46.9266,-161.648 53.3613,-158.893"/>
</g>
<!-- Node3 -->
<g id="node3" class="node"><title>Node3</title>
<g id="a_node3"><a xlink:href="a00095.html" target="_top" xlink:title="Base class for spline paths. ">
<polygon fill="white" stroke="black" points="119,-214.5 119,-244.5 262,-244.5 262,-214.5 119,-214.5"/>
<text text-anchor="start" x="127" y="-232.5" font-family="Helvetica,sans-Serif" font-size="10.00">hpp::core::path::Spline</text>
<text text-anchor="middle" x="190.5" y="-221.5" font-family="Helvetica,sans-Serif" font-size="10.00">&lt; _PolynomeBasis, _Order &gt;</text>
</a>
</g>
</g>
<!-- Node1&#45;&gt;Node3 -->
<g id="edge2" class="edge"><title>Node1&#45;&gt;Node3</title>
<path fill="none" stroke="midnightblue" d="M59.3773,-158.37C74.0782,-172.298 96.5096,-191.776 119,-204.5 125.556,-208.209 132.76,-211.52 139.982,-214.424"/>
<polygon fill="midnightblue" stroke="midnightblue" points="61.6738,-155.722 52.0542,-151.282 56.8052,-160.752 61.6738,-155.722"/>
</g>
<!-- Node4 -->
<g id="node4" class="node"><title>Node4</title>
<g id="a_node4"><a xlink:href="a00071.html" target="_top" xlink:title="Concatenation of several paths. ">
<polygon fill="white" stroke="black" points="134.5,-176 134.5,-195 246.5,-195 246.5,-176 134.5,-176"/>
<text text-anchor="middle" x="190.5" y="-183" font-family="Helvetica,sans-Serif" font-size="10.00">hpp::core::PathVector</text>
</a>
</g>
</g>
<!-- Node1&#45;&gt;Node4 -->
<g id="edge3" class="edge"><title>Node1&#45;&gt;Node4</title>
<path fill="none" stroke="midnightblue" d="M80.2415,-154.27C92.555,-158.319 106.321,-162.722 119,-166.5 129.812,-169.721 141.628,-172.999 152.442,-175.905"/>
<polygon fill="midnightblue" stroke="midnightblue" points="81.3194,-150.94 70.726,-151.117 79.1176,-157.585 81.3194,-150.94"/>
</g>
<!-- Node7 -->
<g id="node7" class="node"><title>Node7</title>
<g id="a_node7"><a xlink:href="a00021.html" target="_top" xlink:title="Path of constant curvature for a carlike robot. ">
<polygon fill="white" stroke="black" points="125.5,-126.5 125.5,-156.5 255.5,-156.5 255.5,-126.5 125.5,-126.5"/>
<text text-anchor="start" x="133.5" y="-144.5" font-family="Helvetica,sans-Serif" font-size="10.00">hpp::core::steeringMethod</text>
<text text-anchor="middle" x="190.5" y="-133.5" font-family="Helvetica,sans-Serif" font-size="10.00">::ConstantCurvature</text>
</a>
</g>
</g>
<!-- Node1&#45;&gt;Node7 -->
<g id="edge6" class="edge"><title>Node1&#45;&gt;Node7</title>
<path fill="none" stroke="midnightblue" d="M93.1674,-141.5C103.537,-141.5 114.579,-141.5 125.349,-141.5"/>
<polygon fill="midnightblue" stroke="midnightblue" points="93.0576,-138 83.0575,-141.5 93.0575,-145 93.0576,-138"/>
</g>
<!-- Node8 -->
<g id="node8" class="node"><title>Node8</title>
<g id="a_node8"><a xlink:href="a00101.html" target="_top" xlink:title="Linear interpolation between two configurations. ">
<polygon fill="white" stroke="black" points="132,-88 132,-107 249,-107 249,-88 132,-88"/>
<text text-anchor="middle" x="190.5" y="-95" font-family="Helvetica,sans-Serif" font-size="10.00">hpp::core::StraightPath</text>
</a>
</g>
</g>
<!-- Node1&#45;&gt;Node8 -->
<g id="edge7" class="edge"><title>Node1&#45;&gt;Node8</title>
<path fill="none" stroke="midnightblue" d="M81.8948,-128.913C93.7967,-125.171 106.913,-121.11 119,-117.5 130.703,-114.005 143.543,-110.319 155.021,-107.076"/>
<polygon fill="midnightblue" stroke="midnightblue" points="80.7144,-125.615 72.2319,-131.963 82.8217,-132.29 80.7144,-125.615"/>
</g>
<!-- Node11 -->
<g id="node11" class="node"><title>Node11</title>
<g id="a_node11"><a xlink:href="a00102.html" target="_top" xlink:title="Result of the selection of some configuration parameter of an original path. ">
<polygon fill="white" stroke="black" points="128.5,-50 128.5,-69 252.5,-69 252.5,-50 128.5,-50"/>
<text text-anchor="middle" x="190.5" y="-57" font-family="Helvetica,sans-Serif" font-size="10.00">hpp::core::SubchainPath</text>
</a>
</g>
</g>
<!-- Node1&#45;&gt;Node11 -->
<g id="edge10" class="edge"><title>Node1&#45;&gt;Node11</title>
<path fill="none" stroke="midnightblue" d="M58.6458,-124.655C73.1824,-110.415 95.7754,-90.4757 119,-78.5 126.436,-74.6657 134.724,-71.5455 142.93,-69.0262"/>
<polygon fill="midnightblue" stroke="midnightblue" points="56.0172,-122.334 51.4458,-131.892 60.9798,-127.271 56.0172,-122.334"/>
</g>
<!-- Node12 -->
<g id="node12" class="node"><title>Node12</title>
<g id="a_node12"><a xlink:href="a00095.html" target="_top" xlink:title="hpp::core::path::Spline\l\&lt; BernsteinBasis, 3 \&gt;">
<polygon fill="white" stroke="black" points="133,-0.5 133,-30.5 248,-30.5 248,-0.5 133,-0.5"/>
<text text-anchor="start" x="141" y="-18.5" font-family="Helvetica,sans-Serif" font-size="10.00">hpp::core::path::Spline</text>
<text text-anchor="middle" x="190.5" y="-7.5" font-family="Helvetica,sans-Serif" font-size="10.00">&lt; BernsteinBasis, 3 &gt;</text>
</a>
</g>
</g>
<!-- Node1&#45;&gt;Node12 -->
<g id="edge11" class="edge"><title>Node1&#45;&gt;Node12</title>
<path fill="none" stroke="midnightblue" d="M52.0278,-123.075C64.539,-100.58 88.536,-62.7897 119,-40.5 124.24,-36.6658 130.123,-33.3757 136.197,-30.5634"/>
<polygon fill="midnightblue" stroke="midnightblue" points="48.9048,-121.492 47.2444,-131.956 55.0678,-124.811 48.9048,-121.492"/>
</g>
<!-- Node5 -->
<g id="node5" class="node"><title>Node5</title>
<g id="a_node5"><a xlink:href="a00034.html" target="_top" xlink:title="Car like motion going only forward. ">
<polygon fill="white" stroke="black" points="311,-195 311,-214 425,-214 425,-195 311,-195"/>
<text text-anchor="middle" x="368" y="-202" font-family="Helvetica,sans-Serif" font-size="10.00">hpp::core::DubinsPath</text>
</a>
</g>
</g>
<!-- Node4&#45;&gt;Node5 -->
<g id="edge4" class="edge"><title>Node4&#45;&gt;Node5</title>
<path fill="none" stroke="midnightblue" d="M256.841,-192.574C274.624,-194.499 293.721,-196.567 310.939,-198.431"/>
<polygon fill="midnightblue" stroke="midnightblue" points="256.866,-189.056 246.548,-191.46 256.113,-196.016 256.866,-189.056"/>
</g>
<!-- Node6 -->
<g id="node6" class="node"><title>Node6</title>
<g id="a_node6"><a xlink:href="a00086.html" target="_top" xlink:title="Car like motion. ">
<polygon fill="white" stroke="black" points="298,-157 298,-176 438,-176 438,-157 298,-157"/>
<text text-anchor="middle" x="368" y="-164" font-family="Helvetica,sans-Serif" font-size="10.00">hpp::core::ReedsSheppPath</text>
</a>
</g>
</g>
<!-- Node4&#45;&gt;Node6 -->
<g id="edge5" class="edge"><title>Node4&#45;&gt;Node6</title>
<path fill="none" stroke="midnightblue" d="M256.665,-178.445C270.12,-176.988 284.335,-175.45 297.923,-173.978"/>
<polygon fill="midnightblue" stroke="midnightblue" points="256.113,-174.984 246.548,-179.54 256.866,-181.944 256.113,-174.984"/>
</g>
<!-- Node9 -->
<g id="node9" class="node"><title>Node9</title>
<g id="a_node9"><a xlink:href="a00051.html" target="_top" xlink:title="Kino&#45;dynamic straight path. ">
<polygon fill="white" stroke="black" points="298,-88 298,-107 438,-107 438,-88 298,-88"/>
<text text-anchor="middle" x="368" y="-95" font-family="Helvetica,sans-Serif" font-size="10.00">hpp::core::KinodynamicPath</text>
</a>
</g>
</g>
<!-- Node8&#45;&gt;Node9 -->
<g id="edge8" class="edge"><title>Node8&#45;&gt;Node9</title>
<path fill="none" stroke="midnightblue" d="M259.785,-97.5C272.27,-97.5 285.309,-97.5 297.82,-97.5"/>
<polygon fill="midnightblue" stroke="midnightblue" points="259.452,-94.0001 249.452,-97.5 259.452,-101 259.452,-94.0001"/>
</g>
<!-- Node10 -->
<g id="node10" class="node"><title>Node10</title>
<g id="a_node10"><a xlink:href="a00050.html" target="_top" xlink:title="This class is similar to KinodynamicPath &#160;exept that the orientation of the robot always follow the d...">
<polygon fill="white" stroke="black" points="474,-88 474,-107 650,-107 650,-88 474,-88"/>
<text text-anchor="middle" x="562" y="-95" font-family="Helvetica,sans-Serif" font-size="10.00">hpp::core::KinodynamicOrientedPath</text>
</a>
</g>
</g>
<!-- Node9&#45;&gt;Node10 -->
<g id="edge9" class="edge"><title>Node9&#45;&gt;Node10</title>
<path fill="none" stroke="midnightblue" d="M448.239,-97.5C456.684,-97.5 465.308,-97.5 473.837,-97.5"/>
<polygon fill="midnightblue" stroke="midnightblue" points="448.045,-94.0001 438.045,-97.5 448.045,-101 448.045,-94.0001"/>
</g>
<!-- Node13 -->
<g id="node13" class="node"><title>Node13</title>
<g id="a_node13"><a xlink:href="a00040.html" target="_top" xlink:title="hpp::core::path::Hermite">
<polygon fill="white" stroke="black" points="307,-6 307,-25 429,-25 429,-6 307,-6"/>
<text text-anchor="middle" x="368" y="-13" font-family="Helvetica,sans-Serif" font-size="10.00">hpp::core::path::Hermite</text>
</a>
</g>
</g>
<!-- Node12&#45;&gt;Node13 -->
<g id="edge12" class="edge"><title>Node12&#45;&gt;Node13</title>
<path fill="none" stroke="midnightblue" d="M258.753,-15.5C274.629,-15.5 291.453,-15.5 306.985,-15.5"/>
<polygon fill="midnightblue" stroke="midnightblue" points="258.48,-12.0001 248.48,-15.5 258.48,-19.0001 258.48,-12.0001"/>
</g>
</g>
</svg>
