<?xml version="1.0" encoding="UTF-8" standalone="no"?>
<!DOCTYPE svg PUBLIC "-//W3C//DTD SVG 1.1//EN"
 "http://www.w3.org/Graphics/SVG/1.1/DTD/svg11.dtd">
<!-- Generated by graphviz version 2.38.0 (20140413.2041)
 -->
<!-- Title: hpp::core::SteeringMethod Pages: 1 -->
<svg width="212pt" height="386pt"
 viewBox="0.00 0.00 211.50 386.00" xmlns="http://www.w3.org/2000/svg" xmlns:xlink="http://www.w3.org/1999/xlink">
<g id="graph0" class="graph" transform="scale(1 1) rotate(0) translate(4 382)">
<title>hpp::core::SteeringMethod</title>
<polygon fill="white" stroke="none" points="-4,4 -4,-382 207.5,-382 207.5,4 -4,4"/>
<!-- Node1 -->
<g id="node1" class="node"><title>Node1</title>
<polygon fill="#bfbfbf" stroke="black" points="30.5,-0.5 30.5,-19.5 161.5,-19.5 161.5,-0.5 30.5,-0.5"/>
<text text-anchor="middle" x="96" y="-7.5" font-family="Helvetica,sans-Serif" font-size="10.00">hpp::core::SteeringMethod</text>
</g>
<!-- Node2 -->
<g id="node2" class="node"><title>Node2</title>
<g id="a_node2"><a xlink:href="a00074.html" target="_top" xlink:title="Defines a path planning problem for one robot. ">
<polygon fill="white" stroke="black" points="46.5,-67.5 46.5,-86.5 145.5,-86.5 145.5,-67.5 46.5,-67.5"/>
<text text-anchor="middle" x="96" y="-74.5" font-family="Helvetica,sans-Serif" font-size="10.00">hpp::core::Problem</text>
</a>
</g>
</g>
<!-- Node2&#45;&gt;Node1 -->
<g id="edge1" class="edge"><title>Node2&#45;&gt;Node1</title>
<path fill="none" stroke="#9a32cd" stroke-dasharray="5,2" d="M96,-57.037C96,-44.6703 96,-29.1198 96,-19.6273"/>
<polygon fill="#9a32cd" stroke="#9a32cd" points="92.5001,-57.2338 96,-67.2338 99.5001,-57.2338 92.5001,-57.2338"/>
<text text-anchor="middle" x="117.5" y="-41" font-family="Helvetica,sans-Serif" font-size="10.00"> problem_</text>
</g>
<!-- Node3 -->
<g id="node3" class="node"><title>Node3</title>
<g id="a_node3"><a xlink:href="a00024.html" target="_top" xlink:title="hpp::core::Container\l\&lt; hpp::core::Parameter \&gt;">
<polygon fill="white" stroke="black" points="33,-134.5 33,-164.5 159,-164.5 159,-134.5 33,-134.5"/>
<text text-anchor="start" x="41" y="-152.5" font-family="Helvetica,sans-Serif" font-size="10.00">hpp::core::Container</text>
<text text-anchor="middle" x="96" y="-141.5" font-family="Helvetica,sans-Serif" font-size="10.00">&lt; hpp::core::Parameter &gt;</text>
</a>
</g>
</g>
<!-- Node3&#45;&gt;Node2 -->
<g id="edge2" class="edge"><title>Node3&#45;&gt;Node2</title>
<path fill="none" stroke="#9a32cd" stroke-dasharray="5,2" d="M96,-124.091C96,-111.214 96,-96.1974 96,-86.8932"/>
<polygon fill="#9a32cd" stroke="#9a32cd" points="92.5001,-124.233 96,-134.233 99.5001,-124.233 92.5001,-124.233"/>
<text text-anchor="middle" x="122" y="-108" font-family="Helvetica,sans-Serif" font-size="10.00"> parameters</text>
</g>
<!-- Node4 -->
<g id="node4" class="node"><title>Node4</title>
<polygon fill="white" stroke="#bfbfbf" points="36,-212.5 36,-242.5 156,-242.5 156,-212.5 36,-212.5"/>
<text text-anchor="start" x="44" y="-230.5" font-family="Helvetica,sans-Serif" font-size="10.00">std::map&lt; std::string,</text>
<text text-anchor="middle" x="96" y="-219.5" font-family="Helvetica,sans-Serif" font-size="10.00"> hpp::core::Parameter &gt;</text>
</g>
<!-- Node4&#45;&gt;Node3 -->
<g id="edge3" class="edge"><title>Node4&#45;&gt;Node3</title>
<path fill="none" stroke="#9a32cd" stroke-dasharray="5,2" d="M96,-202.09C96,-189.757 96,-175.224 96,-164.731"/>
<polygon fill="#9a32cd" stroke="#9a32cd" points="92.5001,-202.205 96,-212.205 99.5001,-202.205 92.5001,-202.205"/>
<text text-anchor="middle" x="107" y="-186" font-family="Helvetica,sans-Serif" font-size="10.00"> map</text>
</g>
<!-- Node5 -->
<g id="node5" class="node"><title>Node5</title>
<g id="a_node5"><a xlink:href="a00058.html" target="_top" xlink:title="hpp::core::Parameter">
<polygon fill="white" stroke="black" points="0,-290.5 0,-309.5 108,-309.5 108,-290.5 0,-290.5"/>
<text text-anchor="middle" x="54" y="-297.5" font-family="Helvetica,sans-Serif" font-size="10.00">hpp::core::Parameter</text>
</a>
</g>
</g>
<!-- Node5&#45;&gt;Node4 -->
<g id="edge4" class="edge"><title>Node5&#45;&gt;Node4</title>
<path fill="none" stroke="#9a32cd" stroke-dasharray="5,2" d="M62.2448,-281.118C65.4017,-274.662 69.169,-267.395 73,-261 76.6946,-254.833 81.1832,-248.313 85.211,-242.745"/>
<polygon fill="#9a32cd" stroke="#9a32cd" points="58.9889,-279.815 57.865,-290.35 65.3134,-282.815 58.9889,-279.815"/>
<text text-anchor="middle" x="94.5" y="-264" font-family="Helvetica,sans-Serif" font-size="10.00"> elements</text>
</g>
<!-- Node6 -->
<g id="node6" class="node"><title>Node6</title>
<g id="a_node6"><a xlink:title="STL class. ">
<polygon fill="white" stroke="#bfbfbf" points="126,-290.5 126,-309.5 186,-309.5 186,-290.5 126,-290.5"/>
<text text-anchor="middle" x="156" y="-297.5" font-family="Helvetica,sans-Serif" font-size="10.00">std::string</text>
</a>
</g>
</g>
<!-- Node6&#45;&gt;Node4 -->
<g id="edge5" class="edge"><title>Node6&#45;&gt;Node4</title>
<path fill="none" stroke="#9a32cd" stroke-dasharray="5,2" d="M141.866,-282.393C131.56,-270.283 117.746,-254.051 107.98,-242.576"/>
<polygon fill="#9a32cd" stroke="#9a32cd" points="139.496,-285.008 148.643,-290.355 144.827,-280.471 139.496,-285.008"/>
<text text-anchor="middle" x="143.5" y="-264" font-family="Helvetica,sans-Serif" font-size="10.00"> keys</text>
</g>
<!-- Node7 -->
<g id="node7" class="node"><title>Node7</title>
<g id="a_node7"><a xlink:title="STL class. ">
<polygon fill="white" stroke="#bfbfbf" points="108.5,-347.5 108.5,-377.5 203.5,-377.5 203.5,-347.5 108.5,-347.5"/>
<text text-anchor="start" x="116.5" y="-365.5" font-family="Helvetica,sans-Serif" font-size="10.00">std::basic_string&lt;</text>
<text text-anchor="middle" x="156" y="-354.5" font-family="Helvetica,sans-Serif" font-size="10.00"> char &gt;</text>
</a>
</g>
</g>
<!-- Node7&#45;&gt;Node6 -->
<g id="edge6" class="edge"><title>Node7&#45;&gt;Node6</title>
<path fill="none" stroke="midnightblue" d="M156,-337.352C156,-327.513 156,-316.775 156,-309.54"/>
<polygon fill="midnightblue" stroke="midnightblue" points="152.5,-337.468 156,-347.468 159.5,-337.468 152.5,-337.468"/>
</g>
</g>
</svg>
