<?xml version="1.0" encoding="UTF-8" standalone="no"?>
<!DOCTYPE svg PUBLIC "-//W3C//DTD SVG 1.1//EN"
 "http://www.w3.org/Graphics/SVG/1.1/DTD/svg11.dtd">
<!-- Generated by graphviz version 2.38.0 (20140413.2041)
 -->
<!-- Title: hpp::core::ContinuousValidation Pages: 1 -->
<svg width="514pt" height="88pt"
 viewBox="0.00 0.00 514.00 88.00" xmlns="http://www.w3.org/2000/svg" xmlns:xlink="http://www.w3.org/1999/xlink">
<g id="graph0" class="graph" transform="scale(1 1) rotate(0) translate(4 84)">
<title>hpp::core::ContinuousValidation</title>
<polygon fill="white" stroke="none" points="-4,4 -4,-84 510,-84 510,4 -4,4"/>
<!-- Node1 -->
<g id="node1" class="node"><title>Node1</title>
<polygon fill="#bfbfbf" stroke="black" points="162,-30 162,-49 317,-49 317,-30 162,-30"/>
<text text-anchor="middle" x="239.5" y="-37" font-family="Helvetica,sans-Serif" font-size="10.00">hpp::core::ContinuousValidation</text>
</g>
<!-- Node3 -->
<g id="node3" class="node"><title>Node3</title>
<g id="a_node3"><a xlink:href="a00027.html" target="_top" xlink:title="Continuous validation of a path. ">
<polygon fill="white" stroke="black" points="353,-49.5 353,-79.5 506,-79.5 506,-49.5 353,-49.5"/>
<text text-anchor="start" x="361" y="-67.5" font-family="Helvetica,sans-Serif" font-size="10.00">hpp::core::continuousValidation</text>
<text text-anchor="middle" x="429.5" y="-56.5" font-family="Helvetica,sans-Serif" font-size="10.00">::Dichotomy</text>
</a>
</g>
</g>
<!-- Node1&#45;&gt;Node3 -->
<g id="edge2" class="edge"><title>Node1&#45;&gt;Node3</title>
<path fill="none" stroke="midnightblue" d="M322.173,-50.3608C332.319,-51.71 342.659,-53.085 352.71,-54.4216"/>
<polygon fill="midnightblue" stroke="midnightblue" points="322.485,-46.8716 312.111,-49.0227 321.562,-53.8105 322.485,-46.8716"/>
</g>
<!-- Node4 -->
<g id="node4" class="node"><title>Node4</title>
<g id="a_node4"><a xlink:href="a00078.html" target="_top" xlink:title="Continuous validation of a path. ">
<polygon fill="white" stroke="black" points="353,-0.5 353,-30.5 506,-30.5 506,-0.5 353,-0.5"/>
<text text-anchor="start" x="361" y="-18.5" font-family="Helvetica,sans-Serif" font-size="10.00">hpp::core::continuousValidation</text>
<text text-anchor="middle" x="429.5" y="-7.5" font-family="Helvetica,sans-Serif" font-size="10.00">::Progressive</text>
</a>
</g>
</g>
<!-- Node1&#45;&gt;Node4 -->
<g id="edge3" class="edge"><title>Node1&#45;&gt;Node4</title>
<path fill="none" stroke="midnightblue" d="M325.04,-28.7076C334.286,-27.5273 343.656,-26.3312 352.786,-25.1656"/>
<polygon fill="midnightblue" stroke="midnightblue" points="324.549,-25.2419 315.073,-29.9801 325.435,-32.1855 324.549,-25.2419"/>
</g>
<!-- Node2 -->
<g id="node2" class="node"><title>Node2</title>
<g id="a_node2"><a xlink:href="a00068.html" target="_top" xlink:title="Abstraction of path validation. ">
<polygon fill="white" stroke="black" points="0,-30 0,-49 126,-49 126,-30 0,-30"/>
<text text-anchor="middle" x="63" y="-37" font-family="Helvetica,sans-Serif" font-size="10.00">hpp::core::PathValidation</text>
</a>
</g>
</g>
<!-- Node2&#45;&gt;Node1 -->
<g id="edge1" class="edge"><title>Node2&#45;&gt;Node1</title>
<path fill="none" stroke="midnightblue" d="M136.178,-39.5C144.607,-39.5 153.231,-39.5 161.72,-39.5"/>
<polygon fill="midnightblue" stroke="midnightblue" points="136.014,-36.0001 126.014,-39.5 136.013,-43.0001 136.014,-36.0001"/>
</g>
</g>
</svg>
