<?xml version="1.0" encoding="UTF-8" standalone="no"?>
<!DOCTYPE svg PUBLIC "-//W3C//DTD SVG 1.1//EN"
 "http://www.w3.org/Graphics/SVG/1.1/DTD/svg11.dtd">
<!-- Generated by graphviz version 2.38.0 (20140413.2041)
 -->
<!-- Title: hpp::core::Distance Pages: 1 -->
<svg width="304pt" height="116pt"
 viewBox="0.00 0.00 304.00 115.50" xmlns="http://www.w3.org/2000/svg" xmlns:xlink="http://www.w3.org/1999/xlink">
<g id="graph0" class="graph" transform="scale(1 1) rotate(0) translate(4 111.5)">
<title>hpp::core::Distance</title>
<polygon fill="white" stroke="none" points="-4,4 -4,-111.5 300,-111.5 300,4 -4,4"/>
<!-- Node1 -->
<g id="node1" class="node"><title>Node1</title>
<polygon fill="#bfbfbf" stroke="black" points="0,-38.5 0,-57.5 102,-57.5 102,-38.5 0,-38.5"/>
<text text-anchor="middle" x="51" y="-45.5" font-family="Helvetica,sans-Serif" font-size="10.00">hpp::core::Distance</text>
</g>
<!-- Node2 -->
<g id="node2" class="node"><title>Node2</title>
<g id="a_node2"><a xlink:href="a00085.html" target="_top" xlink:title="Reeds and Shepp distance. ">
<polygon fill="white" stroke="black" points="167,-77 167,-107 267,-107 267,-77 167,-77"/>
<text text-anchor="start" x="175" y="-95" font-family="Helvetica,sans-Serif" font-size="10.00">hpp::core::distance</text>
<text text-anchor="middle" x="217" y="-84" font-family="Helvetica,sans-Serif" font-size="10.00">::ReedsShepp</text>
</a>
</g>
</g>
<!-- Node1&#45;&gt;Node2 -->
<g id="edge1" class="edge"><title>Node1&#45;&gt;Node2</title>
<path fill="none" stroke="midnightblue" d="M97.4726,-60.2C119.019,-65.9808 144.795,-72.8962 166.798,-78.7995"/>
<polygon fill="midnightblue" stroke="midnightblue" points="98.151,-56.7583 87.5856,-57.5473 96.337,-63.5192 98.151,-56.7583"/>
</g>
<!-- Node3 -->
<g id="node3" class="node"><title>Node3</title>
<g id="a_node3"><a xlink:href="a00049.html" target="_top" xlink:title="This class computed the Distance between two states as the minimal time required to connect this two ...">
<polygon fill="white" stroke="black" points="138,-38.5 138,-57.5 296,-57.5 296,-38.5 138,-38.5"/>
<text text-anchor="middle" x="217" y="-45.5" font-family="Helvetica,sans-Serif" font-size="10.00">hpp::core::KinodynamicDistance</text>
</a>
</g>
</g>
<!-- Node1&#45;&gt;Node3 -->
<g id="edge2" class="edge"><title>Node1&#45;&gt;Node3</title>
<path fill="none" stroke="midnightblue" d="M112.113,-48C120.48,-48 129.174,-48 137.812,-48"/>
<polygon fill="midnightblue" stroke="midnightblue" points="112.097,-44.5001 102.097,-48 112.096,-51.5001 112.097,-44.5001"/>
</g>
<!-- Node4 -->
<g id="node4" class="node"><title>Node4</title>
<g id="a_node4"><a xlink:href="a00108.html" target="_top" xlink:title="Weighed distance between configurations. ">
<polygon fill="white" stroke="black" points="147,-0.5 147,-19.5 287,-19.5 287,-0.5 147,-0.5"/>
<text text-anchor="middle" x="217" y="-7.5" font-family="Helvetica,sans-Serif" font-size="10.00">hpp::core::WeighedDistance</text>
</a>
</g>
</g>
<!-- Node1&#45;&gt;Node4 -->
<g id="edge3" class="edge"><title>Node1&#45;&gt;Node4</title>
<path fill="none" stroke="midnightblue" d="M103.341,-36.1039C126.393,-30.7626 153.221,-24.5463 174.913,-19.5201"/>
<polygon fill="midnightblue" stroke="midnightblue" points="102.336,-32.744 93.3841,-38.411 103.916,-39.5633 102.336,-32.744"/>
</g>
</g>
</svg>
