<?xml version="1.0" encoding="UTF-8" standalone="no"?>
<!DOCTYPE svg PUBLIC "-//W3C//DTD SVG 1.1//EN"
 "http://www.w3.org/Graphics/SVG/1.1/DTD/svg11.dtd">
<!-- Generated by graphviz version 2.38.0 (20140413.2041)
 -->
<!-- Title: hpp::core::PathVector Pages: 1 -->
<svg width="280pt" height="140pt"
 viewBox="0.00 0.00 280.00 140.00" xmlns="http://www.w3.org/2000/svg" xmlns:xlink="http://www.w3.org/1999/xlink">
<g id="graph0" class="graph" transform="scale(1 1) rotate(0) translate(4 136)">
<title>hpp::core::PathVector</title>
<polygon fill="white" stroke="none" points="-4,4 -4,-136 276,-136 276,4 -4,4"/>
<!-- Node1 -->
<g id="node1" class="node"><title>Node1</title>
<polygon fill="#bfbfbf" stroke="black" points="73,-56.5 73,-75.5 185,-75.5 185,-56.5 73,-56.5"/>
<text text-anchor="middle" x="129" y="-63.5" font-family="Helvetica,sans-Serif" font-size="10.00">hpp::core::PathVector</text>
</g>
<!-- Node3 -->
<g id="node3" class="node"><title>Node3</title>
<g id="a_node3"><a xlink:href="a00034.html" target="_top" xlink:title="Car like motion going only forward. ">
<polygon fill="white" stroke="black" points="0,-0.5 0,-19.5 114,-19.5 114,-0.5 0,-0.5"/>
<text text-anchor="middle" x="57" y="-7.5" font-family="Helvetica,sans-Serif" font-size="10.00">hpp::core::DubinsPath</text>
</a>
</g>
</g>
<!-- Node1&#45;&gt;Node3 -->
<g id="edge2" class="edge"><title>Node1&#45;&gt;Node3</title>
<path fill="none" stroke="midnightblue" d="M109.134,-50.1008C96.1765,-40.3824 79.7026,-28.0269 68.7785,-19.8339"/>
<polygon fill="midnightblue" stroke="midnightblue" points="107.332,-53.1239 117.432,-56.324 111.532,-47.5239 107.332,-53.1239"/>
</g>
<!-- Node4 -->
<g id="node4" class="node"><title>Node4</title>
<g id="a_node4"><a xlink:href="a00086.html" target="_top" xlink:title="Car like motion. ">
<polygon fill="white" stroke="black" points="132,-0.5 132,-19.5 272,-19.5 272,-0.5 132,-0.5"/>
<text text-anchor="middle" x="202" y="-7.5" font-family="Helvetica,sans-Serif" font-size="10.00">hpp::core::ReedsSheppPath</text>
</a>
</g>
</g>
<!-- Node1&#45;&gt;Node4 -->
<g id="edge3" class="edge"><title>Node1&#45;&gt;Node4</title>
<path fill="none" stroke="midnightblue" d="M149.142,-50.1008C162.279,-40.3824 178.982,-28.0269 190.058,-19.8339"/>
<polygon fill="midnightblue" stroke="midnightblue" points="146.687,-47.5631 140.729,-56.324 150.85,-53.1907 146.687,-47.5631"/>
</g>
<!-- Node2 -->
<g id="node2" class="node"><title>Node2</title>
<g id="a_node2"><a xlink:href="a00064.html" target="_top" xlink:title="Abstraction of paths: mapping from time to configuration space. ">
<polygon fill="white" stroke="black" points="87.5,-112.5 87.5,-131.5 170.5,-131.5 170.5,-112.5 87.5,-112.5"/>
<text text-anchor="middle" x="129" y="-119.5" font-family="Helvetica,sans-Serif" font-size="10.00">hpp::core::Path</text>
</a>
</g>
</g>
<!-- Node2&#45;&gt;Node1 -->
<g id="edge1" class="edge"><title>Node2&#45;&gt;Node1</title>
<path fill="none" stroke="midnightblue" d="M129,-101.805C129,-92.9102 129,-82.7798 129,-75.7511"/>
<polygon fill="midnightblue" stroke="midnightblue" points="125.5,-102.083 129,-112.083 132.5,-102.083 125.5,-102.083"/>
</g>
</g>
</svg>
