<?xml version="1.0" encoding="UTF-8" standalone="no"?>
<!DOCTYPE svg PUBLIC "-//W3C//DTD SVG 1.1//EN"
 "http://www.w3.org/Graphics/SVG/1.1/DTD/svg11.dtd">
<!-- Generated by graphviz version 2.38.0 (20140413.2041)
 -->
<!-- Title: hpp::core::projection_error Pages: 1 -->
<svg width="182pt" height="174pt"
 viewBox="0.00 0.00 181.50 174.00" xmlns="http://www.w3.org/2000/svg" xmlns:xlink="http://www.w3.org/1999/xlink">
<g id="graph0" class="graph" transform="scale(1 1) rotate(0) translate(4 170)">
<title>hpp::core::projection_error</title>
<polygon fill="white" stroke="none" points="-4,4 -4,-170 177.5,-170 177.5,4 -4,4"/>
<!-- Node1 -->
<g id="node1" class="node"><title>Node1</title>
<polygon fill="#bfbfbf" stroke="black" points="16.5,-0.5 16.5,-30.5 121.5,-30.5 121.5,-0.5 16.5,-0.5"/>
<text text-anchor="start" x="24.5" y="-18.5" font-family="Helvetica,sans-Serif" font-size="10.00">hpp::core::projection</text>
<text text-anchor="middle" x="69" y="-7.5" font-family="Helvetica,sans-Serif" font-size="10.00">_error</text>
</g>
<!-- Node2 -->
<g id="node2" class="node"><title>Node2</title>
<g id="a_node2"><a xlink:title="STL class. ">
<polygon fill="white" stroke="#bfbfbf" points="0,-78.5 0,-97.5 78,-97.5 78,-78.5 0,-78.5"/>
<text text-anchor="middle" x="39" y="-85.5" font-family="Helvetica,sans-Serif" font-size="10.00">std::exception</text>
</a>
</g>
</g>
<!-- Node2&#45;&gt;Node1 -->
<g id="edge1" class="edge"><title>Node2&#45;&gt;Node1</title>
<path fill="none" stroke="midnightblue" d="M46.675,-68.9637C51.7535,-57.0293 58.3167,-41.6057 63.0101,-30.5762"/>
<polygon fill="midnightblue" stroke="midnightblue" points="43.3737,-67.7833 42.6786,-78.3553 49.8147,-70.5242 43.3737,-67.7833"/>
</g>
<!-- Node3 -->
<g id="node3" class="node"><title>Node3</title>
<g id="a_node3"><a xlink:title="STL class. ">
<polygon fill="white" stroke="#bfbfbf" points="96,-78.5 96,-97.5 156,-97.5 156,-78.5 96,-78.5"/>
<text text-anchor="middle" x="126" y="-85.5" font-family="Helvetica,sans-Serif" font-size="10.00">std::string</text>
</a>
</g>
</g>
<!-- Node3&#45;&gt;Node1 -->
<g id="edge2" class="edge"><title>Node3&#45;&gt;Node1</title>
<path fill="none" stroke="#9a32cd" stroke-dasharray="5,2" d="M112.573,-70.3927C102.782,-58.2828 89.6586,-42.0514 80.3807,-30.5762"/>
<polygon fill="#9a32cd" stroke="#9a32cd" points="110.002,-72.7795 119.011,-78.3553 115.445,-68.3785 110.002,-72.7795"/>
<text text-anchor="middle" x="116" y="-52" font-family="Helvetica,sans-Serif" font-size="10.00"> msg_</text>
</g>
<!-- Node4 -->
<g id="node4" class="node"><title>Node4</title>
<g id="a_node4"><a xlink:title="STL class. ">
<polygon fill="white" stroke="#bfbfbf" points="78.5,-135.5 78.5,-165.5 173.5,-165.5 173.5,-135.5 78.5,-135.5"/>
<text text-anchor="start" x="86.5" y="-153.5" font-family="Helvetica,sans-Serif" font-size="10.00">std::basic_string&lt;</text>
<text text-anchor="middle" x="126" y="-142.5" font-family="Helvetica,sans-Serif" font-size="10.00"> char &gt;</text>
</a>
</g>
</g>
<!-- Node4&#45;&gt;Node3 -->
<g id="edge3" class="edge"><title>Node4&#45;&gt;Node3</title>
<path fill="none" stroke="midnightblue" d="M126,-125.352C126,-115.513 126,-104.775 126,-97.5399"/>
<polygon fill="midnightblue" stroke="midnightblue" points="122.5,-125.468 126,-135.468 129.5,-125.468 122.5,-125.468"/>
</g>
</g>
</svg>
