<?xml version="1.0" encoding="UTF-8" standalone="no"?>
<!DOCTYPE svg PUBLIC "-//W3C//DTD SVG 1.1//EN"
 "http://www.w3.org/Graphics/SVG/1.1/DTD/svg11.dtd">
<!-- Generated by graphviz version 2.38.0 (20140413.2041)
 -->
<!-- Title: hpp::core::pathOptimization::SplineGradientBasedAbstract&lt; _PolynomeBasis, _SplineOrder &gt; Pages: 1 -->
<svg width="178pt" height="184pt"
 viewBox="0.00 0.00 178.00 184.00" xmlns="http://www.w3.org/2000/svg" xmlns:xlink="http://www.w3.org/1999/xlink">
<g id="graph0" class="graph" transform="scale(1 1) rotate(0) translate(4 180)">
<title>hpp::core::pathOptimization::SplineGradientBasedAbstract&lt; _PolynomeBasis, _SplineOrder &gt;</title>
<polygon fill="white" stroke="none" points="-4,4 -4,-180 174,-180 174,4 -4,4"/>
<!-- Node1 -->
<g id="node1" class="node"><title>Node1</title>
<polygon fill="#bfbfbf" stroke="black" points="0,-78.5 0,-119.5 170,-119.5 170,-78.5 0,-78.5"/>
<text text-anchor="start" x="8" y="-107.5" font-family="Helvetica,sans-Serif" font-size="10.00">hpp::core::pathOptimization</text>
<text text-anchor="start" x="8" y="-96.5" font-family="Helvetica,sans-Serif" font-size="10.00">::SplineGradientBasedAbstract</text>
<text text-anchor="middle" x="85" y="-85.5" font-family="Helvetica,sans-Serif" font-size="10.00">&lt; _PolynomeBasis, _SplineOrder &gt;</text>
</g>
<!-- Node3 -->
<g id="node3" class="node"><title>Node3</title>
<g id="a_node3"><a xlink:href="a00096.html" target="_top" xlink:title="hpp::core::pathOptimization\l::SplineGradientBased\&lt; \l_PolynomeBasis, _SplineOrder \&gt;">
<polygon fill="white" stroke="black" points="4.5,-0.5 4.5,-41.5 165.5,-41.5 165.5,-0.5 4.5,-0.5"/>
<text text-anchor="start" x="12.5" y="-29.5" font-family="Helvetica,sans-Serif" font-size="10.00">hpp::core::pathOptimization</text>
<text text-anchor="start" x="12.5" y="-18.5" font-family="Helvetica,sans-Serif" font-size="10.00">::SplineGradientBased&lt; </text>
<text text-anchor="middle" x="85" y="-7.5" font-family="Helvetica,sans-Serif" font-size="10.00">_PolynomeBasis, _SplineOrder &gt;</text>
</a>
</g>
</g>
<!-- Node1&#45;&gt;Node3 -->
<g id="edge2" class="edge"><title>Node1&#45;&gt;Node3</title>
<path fill="none" stroke="midnightblue" d="M85,-68.2965C85,-59.3009 85,-49.6532 85,-41.5056"/>
<polygon fill="midnightblue" stroke="midnightblue" points="81.5001,-68.4281 85,-78.4281 88.5001,-68.4281 81.5001,-68.4281"/>
</g>
<!-- Node2 -->
<g id="node2" class="node"><title>Node2</title>
<g id="a_node2"><a xlink:href="a00065.html" target="_top" xlink:title="Abstraction of path optimizer. ">
<polygon fill="white" stroke="black" points="22.5,-156.5 22.5,-175.5 147.5,-175.5 147.5,-156.5 22.5,-156.5"/>
<text text-anchor="middle" x="85" y="-163.5" font-family="Helvetica,sans-Serif" font-size="10.00">hpp::core::PathOptimizer</text>
</a>
</g>
</g>
<!-- Node2&#45;&gt;Node1 -->
<g id="edge1" class="edge"><title>Node2&#45;&gt;Node1</title>
<path fill="none" stroke="midnightblue" d="M85,-146.037C85,-137.708 85,-127.936 85,-119.542"/>
<polygon fill="midnightblue" stroke="midnightblue" points="81.5001,-146.234 85,-156.234 88.5001,-146.234 81.5001,-146.234"/>
</g>
</g>
</svg>
