<?xml version="1.0" encoding="UTF-8" standalone="no"?>
<!DOCTYPE svg PUBLIC "-//W3C//DTD SVG 1.1//EN"
 "http://www.w3.org/Graphics/SVG/1.1/DTD/svg11.dtd">
<!-- Generated by graphviz version 2.38.0 (20140413.2041)
 -->
<!-- Title: hpp::core::continuousValidation::BodyPairCollision Pages: 1 -->
<svg width="384pt" height="50pt"
 viewBox="0.00 0.00 384.00 50.00" xmlns="http://www.w3.org/2000/svg" xmlns:xlink="http://www.w3.org/1999/xlink">
<g id="graph0" class="graph" transform="scale(1 1) rotate(0) translate(4 46)">
<title>hpp::core::continuousValidation::BodyPairCollision</title>
<polygon fill="white" stroke="none" points="-4,4 -4,-46 380,-46 380,4 -4,4"/>
<!-- Node1 -->
<g id="node1" class="node"><title>Node1</title>
<polygon fill="#bfbfbf" stroke="black" points="223,-6 223,-36 376,-36 376,-6 223,-6"/>
<text text-anchor="start" x="231" y="-24" font-family="Helvetica,sans-Serif" font-size="10.00">hpp::core::continuousValidation</text>
<text text-anchor="middle" x="299.5" y="-13" font-family="Helvetica,sans-Serif" font-size="10.00">::BodyPairCollision</text>
</g>
<!-- Node2 -->
<g id="node2" class="node"><title>Node2</title>
<g id="a_node2"><a xlink:href="a00045.html" target="_top" xlink:title="hpp::core::continuousValidation\l::IntervalValidation\&lt; CollisionValidation\lReportPtr_t \&gt;">
<polygon fill="white" stroke="black" points="0,-0.5 0,-41.5 187,-41.5 187,-0.5 0,-0.5"/>
<text text-anchor="start" x="8" y="-29.5" font-family="Helvetica,sans-Serif" font-size="10.00">hpp::core::continuousValidation</text>
<text text-anchor="start" x="8" y="-18.5" font-family="Helvetica,sans-Serif" font-size="10.00">::IntervalValidation&lt; CollisionValidation</text>
<text text-anchor="middle" x="93.5" y="-7.5" font-family="Helvetica,sans-Serif" font-size="10.00">ReportPtr_t &gt;</text>
</a>
</g>
</g>
<!-- Node2&#45;&gt;Node1 -->
<g id="edge1" class="edge"><title>Node2&#45;&gt;Node1</title>
<path fill="none" stroke="midnightblue" d="M197.308,-21C205.888,-21 214.46,-21 222.782,-21"/>
<polygon fill="midnightblue" stroke="midnightblue" points="197.248,-17.5001 187.248,-21 197.248,-24.5001 197.248,-17.5001"/>
</g>
</g>
</svg>
