<?xml version="1.0" encoding="UTF-8" standalone="no"?>
<!DOCTYPE svg PUBLIC "-//W3C//DTD SVG 1.1//EN"
 "http://www.w3.org/Graphics/SVG/1.1/DTD/svg11.dtd">
<!-- Generated by graphviz version 2.38.0 (20140413.2041)
 -->
<!-- Title: hpp::core::pathOptimization::SplineGradientBasedAbstract&lt; _PolynomeBasis, _SplineOrder &gt; Pages: 1 -->
<svg width="286pt" height="128pt"
 viewBox="0.00 0.00 286.00 128.00" xmlns="http://www.w3.org/2000/svg" xmlns:xlink="http://www.w3.org/1999/xlink">
<g id="graph0" class="graph" transform="scale(1 1) rotate(0) translate(4 124)">
<title>hpp::core::pathOptimization::SplineGradientBasedAbstract&lt; _PolynomeBasis, _SplineOrder &gt;</title>
<polygon fill="white" stroke="none" points="-4,4 -4,-124 282,-124 282,4 -4,4"/>
<!-- Node1 -->
<g id="node1" class="node"><title>Node1</title>
<polygon fill="#bfbfbf" stroke="black" points="51.5,-0.5 51.5,-41.5 221.5,-41.5 221.5,-0.5 51.5,-0.5"/>
<text text-anchor="start" x="59.5" y="-29.5" font-family="Helvetica,sans-Serif" font-size="10.00">hpp::core::pathOptimization</text>
<text text-anchor="start" x="59.5" y="-18.5" font-family="Helvetica,sans-Serif" font-size="10.00">::SplineGradientBasedAbstract</text>
<text text-anchor="middle" x="136.5" y="-7.5" font-family="Helvetica,sans-Serif" font-size="10.00">&lt; _PolynomeBasis, _SplineOrder &gt;</text>
</g>
<!-- Node2 -->
<g id="node2" class="node"><title>Node2</title>
<g id="a_node2"><a xlink:href="a00065.html" target="_top" xlink:title="Abstraction of path optimizer. ">
<polygon fill="white" stroke="black" points="0,-95 0,-114 125,-114 125,-95 0,-95"/>
<text text-anchor="middle" x="62.5" y="-102" font-family="Helvetica,sans-Serif" font-size="10.00">hpp::core::PathOptimizer</text>
</a>
</g>
</g>
<!-- Node2&#45;&gt;Node1 -->
<g id="edge1" class="edge"><title>Node2&#45;&gt;Node1</title>
<path fill="none" stroke="midnightblue" d="M77.4422,-87.0434C89.3158,-73.9664 105.963,-55.6325 118.557,-41.7614"/>
<polygon fill="midnightblue" stroke="midnightblue" points="74.5503,-85.0218 70.4193,-94.7781 79.7328,-89.7273 74.5503,-85.0218"/>
</g>
<!-- Node3 -->
<g id="node3" class="node"><title>Node3</title>
<polygon fill="white" stroke="#bfbfbf" points="143,-89.5 143,-119.5 278,-119.5 278,-89.5 143,-89.5"/>
<text text-anchor="start" x="151" y="-107.5" font-family="Helvetica,sans-Serif" font-size="10.00">std::vector&lt; PathValidation</text>
<text text-anchor="middle" x="210.5" y="-96.5" font-family="Helvetica,sans-Serif" font-size="10.00">Ptr_t &gt;</text>
</g>
<!-- Node3&#45;&gt;Node1 -->
<g id="edge2" class="edge"><title>Node3&#45;&gt;Node1</title>
<path fill="none" stroke="#9a32cd" stroke-dasharray="5,2" d="M190.617,-81.6021C179.279,-69.115 165.191,-53.5984 154.231,-41.5278"/>
<polygon fill="#9a32cd" stroke="#9a32cd" points="188.297,-84.253 197.61,-89.3038 193.479,-79.5475 188.297,-84.253"/>
<text text-anchor="middle" x="207" y="-63" font-family="Helvetica,sans-Serif" font-size="10.00"> validations_</text>
</g>
</g>
</svg>
