<?xml version="1.0" encoding="UTF-8" standalone="no"?>
<!DOCTYPE svg PUBLIC "-//W3C//DTD SVG 1.1//EN"
 "http://www.w3.org/Graphics/SVG/1.1/DTD/svg11.dtd">
<!-- Generated by graphviz version 2.38.0 (20140413.2041)
 -->
<!-- Title: hpp::core::ValidationReport Pages: 1 -->
<svg width="491pt" height="137pt"
 viewBox="0.00 0.00 491.00 137.00" xmlns="http://www.w3.org/2000/svg" xmlns:xlink="http://www.w3.org/1999/xlink">
<g id="graph0" class="graph" transform="scale(1 1) rotate(0) translate(4 133)">
<title>hpp::core::ValidationReport</title>
<polygon fill="white" stroke="none" points="-4,4 -4,-133 487,-133 487,4 -4,4"/>
<!-- Node1 -->
<g id="node1" class="node"><title>Node1</title>
<polygon fill="#bfbfbf" stroke="black" points="0,-55 0,-74 135,-74 135,-55 0,-55"/>
<text text-anchor="middle" x="67.5" y="-62" font-family="Helvetica,sans-Serif" font-size="10.00">hpp::core::ValidationReport</text>
</g>
<!-- Node2 -->
<g id="node2" class="node"><title>Node2</title>
<g id="a_node2"><a xlink:href="a00013.html" target="_top" xlink:title="Validate a configuration with respect to collision. ">
<polygon fill="white" stroke="black" points="177,-98.5 177,-128.5 320,-128.5 320,-98.5 177,-98.5"/>
<text text-anchor="start" x="185" y="-116.5" font-family="Helvetica,sans-Serif" font-size="10.00">hpp::core::CollisionValidation</text>
<text text-anchor="middle" x="248.5" y="-105.5" font-family="Helvetica,sans-Serif" font-size="10.00">Report</text>
</a>
</g>
</g>
<!-- Node1&#45;&gt;Node2 -->
<g id="edge1" class="edge"><title>Node1&#45;&gt;Node2</title>
<path fill="none" stroke="midnightblue" d="M113.351,-76.7776C137.374,-83.3537 167.166,-91.5092 192.569,-98.463"/>
<polygon fill="midnightblue" stroke="midnightblue" points="114.007,-73.3286 103.438,-74.064 112.159,-80.0802 114.007,-73.3286"/>
</g>
<!-- Node4 -->
<g id="node4" class="node"><title>Node4</title>
<g id="a_node4"><a xlink:href="a00047.html" target="_top" xlink:title="report returned when a configuration is not within the bounds ">
<polygon fill="white" stroke="black" points="171,-49.5 171,-79.5 326,-79.5 326,-49.5 171,-49.5"/>
<text text-anchor="start" x="179" y="-67.5" font-family="Helvetica,sans-Serif" font-size="10.00">hpp::core::JointBoundValidation</text>
<text text-anchor="middle" x="248.5" y="-56.5" font-family="Helvetica,sans-Serif" font-size="10.00">Report</text>
</a>
</g>
</g>
<!-- Node1&#45;&gt;Node4 -->
<g id="edge3" class="edge"><title>Node1&#45;&gt;Node4</title>
<path fill="none" stroke="midnightblue" d="M145.356,-64.5C153.799,-64.5 162.396,-64.5 170.837,-64.5"/>
<polygon fill="midnightblue" stroke="midnightblue" points="145.153,-61.0001 135.153,-64.5 145.153,-68.0001 145.153,-61.0001"/>
</g>
<!-- Node5 -->
<g id="node5" class="node"><title>Node5</title>
<g id="a_node5"><a xlink:href="a00069.html" target="_top" xlink:title="Abstraction of path validation report. ">
<polygon fill="white" stroke="black" points="185.5,-0.5 185.5,-30.5 311.5,-30.5 311.5,-0.5 185.5,-0.5"/>
<text text-anchor="start" x="193.5" y="-18.5" font-family="Helvetica,sans-Serif" font-size="10.00">hpp::core::PathValidation</text>
<text text-anchor="middle" x="248.5" y="-7.5" font-family="Helvetica,sans-Serif" font-size="10.00">Report</text>
</a>
</g>
</g>
<!-- Node1&#45;&gt;Node5 -->
<g id="edge4" class="edge"><title>Node1&#45;&gt;Node5</title>
<path fill="none" stroke="midnightblue" d="M113.351,-52.2224C137.374,-45.6463 167.166,-37.4908 192.569,-30.537"/>
<polygon fill="midnightblue" stroke="midnightblue" points="112.159,-48.9198 103.438,-54.936 114.007,-55.6714 112.159,-48.9198"/>
</g>
<!-- Node3 -->
<g id="node3" class="node"><title>Node3</title>
<g id="a_node3"><a xlink:href="a00006.html" target="_top" xlink:title="Validate a configuration with respect to collision. ">
<polygon fill="white" stroke="black" points="364,-98.5 364,-128.5 481,-128.5 481,-98.5 364,-98.5"/>
<text text-anchor="start" x="372" y="-116.5" font-family="Helvetica,sans-Serif" font-size="10.00">hpp::core::AllCollisions</text>
<text text-anchor="middle" x="422.5" y="-105.5" font-family="Helvetica,sans-Serif" font-size="10.00">ValidationReport</text>
</a>
</g>
</g>
<!-- Node2&#45;&gt;Node3 -->
<g id="edge2" class="edge"><title>Node2&#45;&gt;Node3</title>
<path fill="none" stroke="midnightblue" d="M330.677,-113.5C341.867,-113.5 353.167,-113.5 363.815,-113.5"/>
<polygon fill="midnightblue" stroke="midnightblue" points="330.452,-110 320.452,-113.5 330.452,-117 330.452,-110"/>
</g>
<!-- Node6 -->
<g id="node6" class="node"><title>Node6</title>
<g id="a_node6"><a xlink:href="a00011.html" target="_top" xlink:title="Path validation report used for standard collision checking. ">
<polygon fill="white" stroke="black" points="362,-0.5 362,-30.5 483,-30.5 483,-0.5 362,-0.5"/>
<text text-anchor="start" x="370" y="-18.5" font-family="Helvetica,sans-Serif" font-size="10.00">hpp::core::CollisionPath</text>
<text text-anchor="middle" x="422.5" y="-7.5" font-family="Helvetica,sans-Serif" font-size="10.00">ValidationReport</text>
</a>
</g>
</g>
<!-- Node5&#45;&gt;Node6 -->
<g id="edge5" class="edge"><title>Node5&#45;&gt;Node6</title>
<path fill="none" stroke="midnightblue" d="M321.697,-15.5C335.052,-15.5 348.863,-15.5 361.795,-15.5"/>
<polygon fill="midnightblue" stroke="midnightblue" points="321.596,-12.0001 311.596,-15.5 321.596,-19.0001 321.596,-12.0001"/>
</g>
</g>
</svg>
