<?xml version="1.0" encoding="UTF-8" standalone="no"?>
<!DOCTYPE svg PUBLIC "-//W3C//DTD SVG 1.1//EN"
 "http://www.w3.org/Graphics/SVG/1.1/DTD/svg11.dtd">
<!-- Generated by graphviz version 2.38.0 (20140413.2041)
 -->
<!-- Title: hpp::core::path::Hermite Pages: 1 -->
<svg width="254pt" height="242pt"
 viewBox="0.00 0.00 253.50 242.00" xmlns="http://www.w3.org/2000/svg" xmlns:xlink="http://www.w3.org/1999/xlink">
<g id="graph0" class="graph" transform="scale(1 1) rotate(0) translate(4 238)">
<title>hpp::core::path::Hermite</title>
<polygon fill="white" stroke="none" points="-4,4 -4,-238 249.5,-238 249.5,4 -4,4"/>
<!-- Node1 -->
<g id="node1" class="node"><title>Node1</title>
<polygon fill="#bfbfbf" stroke="black" points="21.5,-0.5 21.5,-19.5 143.5,-19.5 143.5,-0.5 21.5,-0.5"/>
<text text-anchor="middle" x="82.5" y="-7.5" font-family="Helvetica,sans-Serif" font-size="10.00">hpp::core::path::Hermite</text>
</g>
<!-- Node2 -->
<g id="node2" class="node"><title>Node2</title>
<g id="a_node2"><a xlink:href="a00095.html" target="_top" xlink:title="hpp::core::path::Spline\l\&lt; BernsteinBasis, 3 \&gt;">
<polygon fill="white" stroke="black" points="25,-57.5 25,-87.5 140,-87.5 140,-57.5 25,-57.5"/>
<text text-anchor="start" x="33" y="-75.5" font-family="Helvetica,sans-Serif" font-size="10.00">hpp::core::path::Spline</text>
<text text-anchor="middle" x="82.5" y="-64.5" font-family="Helvetica,sans-Serif" font-size="10.00">&lt; BernsteinBasis, 3 &gt;</text>
</a>
</g>
</g>
<!-- Node2&#45;&gt;Node1 -->
<g id="edge1" class="edge"><title>Node2&#45;&gt;Node1</title>
<path fill="none" stroke="midnightblue" d="M82.5,-47.3524C82.5,-37.5132 82.5,-26.7753 82.5,-19.5399"/>
<polygon fill="midnightblue" stroke="midnightblue" points="79.0001,-47.468 82.5,-57.468 86.0001,-47.4681 79.0001,-47.468"/>
</g>
<!-- Node3 -->
<g id="node3" class="node"><title>Node3</title>
<g id="a_node3"><a xlink:href="a00064.html" target="_top" xlink:title="Abstraction of paths: mapping from time to configuration space. ">
<polygon fill="white" stroke="black" points="0,-141 0,-160 83,-160 83,-141 0,-141"/>
<text text-anchor="middle" x="41.5" y="-148" font-family="Helvetica,sans-Serif" font-size="10.00">hpp::core::Path</text>
</a>
</g>
</g>
<!-- Node3&#45;&gt;Node2 -->
<g id="edge2" class="edge"><title>Node3&#45;&gt;Node2</title>
<path fill="none" stroke="midnightblue" d="M50.955,-131.974C58.239,-118.472 68.1753,-100.053 74.9367,-87.5198"/>
<polygon fill="midnightblue" stroke="midnightblue" points="47.8708,-130.319 46.2032,-140.782 54.0315,-133.643 47.8708,-130.319"/>
</g>
<!-- Node4 -->
<g id="node4" class="node"><title>Node4</title>
<g id="a_node4"><a doxygen="/local/devel/hpp/install/share/doc/hpp-pinocchio/doxygen-html/hpp-pinocchio.doxytag:../../hpp-pinocchio/doxygen-html/" xlink:href="../../hpp-pinocchio/doxygen-html/a00076.html" target="_top" xlink:title="hpp::pinocchio::Liegroup\lElementBase\&lt; vector_type \&gt;">
<polygon fill="white" stroke="black" points="101.5,-135.5 101.5,-165.5 245.5,-165.5 245.5,-135.5 101.5,-135.5"/>
<text text-anchor="start" x="109.5" y="-153.5" font-family="Helvetica,sans-Serif" font-size="10.00">hpp::pinocchio::Liegroup</text>
<text text-anchor="middle" x="173.5" y="-142.5" font-family="Helvetica,sans-Serif" font-size="10.00">ElementBase&lt; vector_type &gt;</text>
</a>
</g>
</g>
<!-- Node4&#45;&gt;Node2 -->
<g id="edge3" class="edge"><title>Node4&#45;&gt;Node2</title>
<path fill="none" stroke="#9a32cd" stroke-dasharray="5,2" d="M148.659,-128.753C133.069,-115.734 113.372,-99.2835 99.5397,-87.7309"/>
<polygon fill="#9a32cd" stroke="#9a32cd" points="146.465,-131.481 156.384,-135.205 150.952,-126.108 146.465,-131.481"/>
<text text-anchor="middle" x="147.5" y="-109" font-family="Helvetica,sans-Serif" font-size="10.00"> base_</text>
</g>
<!-- Node5 -->
<g id="node5" class="node"><title>Node5</title>
<g id="a_node5"><a doxygen="/local/devel/hpp/install/share/doc/hpp-pinocchio/doxygen-html/hpp-pinocchio.doxytag:../../hpp-pinocchio/doxygen-html/" xlink:href="../../hpp-pinocchio/doxygen-html/a00077.html" target="_top" xlink:title="hpp::pinocchio::Liegroup\lElementConstBase\&lt; class \&gt;">
<polygon fill="white" stroke="black" points="102,-203.5 102,-233.5 245,-233.5 245,-203.5 102,-203.5"/>
<text text-anchor="start" x="110" y="-221.5" font-family="Helvetica,sans-Serif" font-size="10.00">hpp::pinocchio::Liegroup</text>
<text text-anchor="middle" x="173.5" y="-210.5" font-family="Helvetica,sans-Serif" font-size="10.00">ElementConstBase&lt; class &gt;</text>
</a>
</g>
</g>
<!-- Node5&#45;&gt;Node4 -->
<g id="edge4" class="edge"><title>Node5&#45;&gt;Node4</title>
<path fill="none" stroke="midnightblue" d="M173.5,-193.032C173.5,-183.861 173.5,-173.745 173.5,-165.793"/>
<polygon fill="midnightblue" stroke="midnightblue" points="170,-193.179 173.5,-203.179 177,-193.179 170,-193.179"/>
</g>
</g>
</svg>
