<?xml version="1.0" encoding="UTF-8" standalone="no"?>
<!DOCTYPE svg PUBLIC "-//W3C//DTD SVG 1.1//EN"
 "http://www.w3.org/Graphics/SVG/1.1/DTD/svg11.dtd">
<!-- Generated by graphviz version 2.38.0 (20140413.2041)
 -->
<!-- Title: hpp::core::steeringMethod::Straight Pages: 1 -->
<svg width="212pt" height="454pt"
 viewBox="0.00 0.00 211.50 454.00" xmlns="http://www.w3.org/2000/svg" xmlns:xlink="http://www.w3.org/1999/xlink">
<g id="graph0" class="graph" transform="scale(1 1) rotate(0) translate(4 450)">
<title>hpp::core::steeringMethod::Straight</title>
<polygon fill="white" stroke="none" points="-4,4 -4,-450 207.5,-450 207.5,4 -4,4"/>
<!-- Node1 -->
<g id="node1" class="node"><title>Node1</title>
<polygon fill="#bfbfbf" stroke="black" points="31,-0.5 31,-30.5 161,-30.5 161,-0.5 31,-0.5"/>
<text text-anchor="start" x="39" y="-18.5" font-family="Helvetica,sans-Serif" font-size="10.00">hpp::core::steeringMethod</text>
<text text-anchor="middle" x="96" y="-7.5" font-family="Helvetica,sans-Serif" font-size="10.00">::Straight</text>
</g>
<!-- Node2 -->
<g id="node2" class="node"><title>Node2</title>
<g id="a_node2"><a xlink:href="a00099.html" target="_top" xlink:title="Steering method. ">
<polygon fill="white" stroke="black" points="30.5,-68.5 30.5,-87.5 161.5,-87.5 161.5,-68.5 30.5,-68.5"/>
<text text-anchor="middle" x="96" y="-75.5" font-family="Helvetica,sans-Serif" font-size="10.00">hpp::core::SteeringMethod</text>
</a>
</g>
</g>
<!-- Node2&#45;&gt;Node1 -->
<g id="edge1" class="edge"><title>Node2&#45;&gt;Node1</title>
<path fill="none" stroke="midnightblue" d="M96,-58.2154C96,-49.3565 96,-38.9577 96,-30.7587"/>
<polygon fill="midnightblue" stroke="midnightblue" points="92.5001,-58.3318 96,-68.3318 99.5001,-58.3319 92.5001,-58.3318"/>
</g>
<!-- Node3 -->
<g id="node3" class="node"><title>Node3</title>
<g id="a_node3"><a xlink:href="a00074.html" target="_top" xlink:title="Defines a path planning problem for one robot. ">
<polygon fill="white" stroke="black" points="46.5,-135.5 46.5,-154.5 145.5,-154.5 145.5,-135.5 46.5,-135.5"/>
<text text-anchor="middle" x="96" y="-142.5" font-family="Helvetica,sans-Serif" font-size="10.00">hpp::core::Problem</text>
</a>
</g>
</g>
<!-- Node3&#45;&gt;Node2 -->
<g id="edge2" class="edge"><title>Node3&#45;&gt;Node2</title>
<path fill="none" stroke="#9a32cd" stroke-dasharray="5,2" d="M96,-125.037C96,-112.67 96,-97.1198 96,-87.6273"/>
<polygon fill="#9a32cd" stroke="#9a32cd" points="92.5001,-125.234 96,-135.234 99.5001,-125.234 92.5001,-125.234"/>
<text text-anchor="middle" x="117.5" y="-109" font-family="Helvetica,sans-Serif" font-size="10.00"> problem_</text>
</g>
<!-- Node4 -->
<g id="node4" class="node"><title>Node4</title>
<g id="a_node4"><a xlink:href="a00024.html" target="_top" xlink:title="hpp::core::Container\l\&lt; hpp::core::Parameter \&gt;">
<polygon fill="white" stroke="black" points="33,-202.5 33,-232.5 159,-232.5 159,-202.5 33,-202.5"/>
<text text-anchor="start" x="41" y="-220.5" font-family="Helvetica,sans-Serif" font-size="10.00">hpp::core::Container</text>
<text text-anchor="middle" x="96" y="-209.5" font-family="Helvetica,sans-Serif" font-size="10.00">&lt; hpp::core::Parameter &gt;</text>
</a>
</g>
</g>
<!-- Node4&#45;&gt;Node3 -->
<g id="edge3" class="edge"><title>Node4&#45;&gt;Node3</title>
<path fill="none" stroke="#9a32cd" stroke-dasharray="5,2" d="M96,-192.091C96,-179.214 96,-164.197 96,-154.893"/>
<polygon fill="#9a32cd" stroke="#9a32cd" points="92.5001,-192.233 96,-202.233 99.5001,-192.233 92.5001,-192.233"/>
<text text-anchor="middle" x="122" y="-176" font-family="Helvetica,sans-Serif" font-size="10.00"> parameters</text>
</g>
<!-- Node5 -->
<g id="node5" class="node"><title>Node5</title>
<polygon fill="white" stroke="#bfbfbf" points="36,-280.5 36,-310.5 156,-310.5 156,-280.5 36,-280.5"/>
<text text-anchor="start" x="44" y="-298.5" font-family="Helvetica,sans-Serif" font-size="10.00">std::map&lt; std::string,</text>
<text text-anchor="middle" x="96" y="-287.5" font-family="Helvetica,sans-Serif" font-size="10.00"> hpp::core::Parameter &gt;</text>
</g>
<!-- Node5&#45;&gt;Node4 -->
<g id="edge4" class="edge"><title>Node5&#45;&gt;Node4</title>
<path fill="none" stroke="#9a32cd" stroke-dasharray="5,2" d="M96,-270.09C96,-257.757 96,-243.224 96,-232.731"/>
<polygon fill="#9a32cd" stroke="#9a32cd" points="92.5001,-270.205 96,-280.205 99.5001,-270.205 92.5001,-270.205"/>
<text text-anchor="middle" x="107" y="-254" font-family="Helvetica,sans-Serif" font-size="10.00"> map</text>
</g>
<!-- Node6 -->
<g id="node6" class="node"><title>Node6</title>
<g id="a_node6"><a xlink:href="a00058.html" target="_top" xlink:title="hpp::core::Parameter">
<polygon fill="white" stroke="black" points="0,-358.5 0,-377.5 108,-377.5 108,-358.5 0,-358.5"/>
<text text-anchor="middle" x="54" y="-365.5" font-family="Helvetica,sans-Serif" font-size="10.00">hpp::core::Parameter</text>
</a>
</g>
</g>
<!-- Node6&#45;&gt;Node5 -->
<g id="edge5" class="edge"><title>Node6&#45;&gt;Node5</title>
<path fill="none" stroke="#9a32cd" stroke-dasharray="5,2" d="M62.2448,-349.118C65.4017,-342.662 69.169,-335.395 73,-329 76.6946,-322.833 81.1832,-316.313 85.211,-310.745"/>
<polygon fill="#9a32cd" stroke="#9a32cd" points="58.9889,-347.815 57.865,-358.35 65.3134,-350.815 58.9889,-347.815"/>
<text text-anchor="middle" x="94.5" y="-332" font-family="Helvetica,sans-Serif" font-size="10.00"> elements</text>
</g>
<!-- Node7 -->
<g id="node7" class="node"><title>Node7</title>
<g id="a_node7"><a xlink:title="STL class. ">
<polygon fill="white" stroke="#bfbfbf" points="126,-358.5 126,-377.5 186,-377.5 186,-358.5 126,-358.5"/>
<text text-anchor="middle" x="156" y="-365.5" font-family="Helvetica,sans-Serif" font-size="10.00">std::string</text>
</a>
</g>
</g>
<!-- Node7&#45;&gt;Node5 -->
<g id="edge6" class="edge"><title>Node7&#45;&gt;Node5</title>
<path fill="none" stroke="#9a32cd" stroke-dasharray="5,2" d="M141.866,-350.393C131.56,-338.283 117.746,-322.051 107.98,-310.576"/>
<polygon fill="#9a32cd" stroke="#9a32cd" points="139.496,-353.008 148.643,-358.355 144.827,-348.471 139.496,-353.008"/>
<text text-anchor="middle" x="143.5" y="-332" font-family="Helvetica,sans-Serif" font-size="10.00"> keys</text>
</g>
<!-- Node8 -->
<g id="node8" class="node"><title>Node8</title>
<g id="a_node8"><a xlink:title="STL class. ">
<polygon fill="white" stroke="#bfbfbf" points="108.5,-415.5 108.5,-445.5 203.5,-445.5 203.5,-415.5 108.5,-415.5"/>
<text text-anchor="start" x="116.5" y="-433.5" font-family="Helvetica,sans-Serif" font-size="10.00">std::basic_string&lt;</text>
<text text-anchor="middle" x="156" y="-422.5" font-family="Helvetica,sans-Serif" font-size="10.00"> char &gt;</text>
</a>
</g>
</g>
<!-- Node8&#45;&gt;Node7 -->
<g id="edge7" class="edge"><title>Node8&#45;&gt;Node7</title>
<path fill="none" stroke="midnightblue" d="M156,-405.352C156,-395.513 156,-384.775 156,-377.54"/>
<polygon fill="midnightblue" stroke="midnightblue" points="152.5,-405.468 156,-415.468 159.5,-405.468 152.5,-405.468"/>
</g>
</g>
</svg>
