<?xml version="1.0" encoding="UTF-8" standalone="no"?>
<!DOCTYPE svg PUBLIC "-//W3C//DTD SVG 1.1//EN"
 "http://www.w3.org/Graphics/SVG/1.1/DTD/svg11.dtd">
<!-- Generated by graphviz version 2.38.0 (20140413.2041)
 -->
<!-- Title: hpp::core::steeringMethod::CarLike Pages: 1 -->
<svg width="471pt" height="137pt"
 viewBox="0.00 0.00 471.00 137.00" xmlns="http://www.w3.org/2000/svg" xmlns:xlink="http://www.w3.org/1999/xlink">
<g id="graph0" class="graph" transform="scale(1 1) rotate(0) translate(4 133)">
<title>hpp::core::steeringMethod::CarLike</title>
<polygon fill="white" stroke="none" points="-4,4 -4,-133 467,-133 467,4 -4,4"/>
<!-- Node1 -->
<g id="node1" class="node"><title>Node1</title>
<polygon fill="#bfbfbf" stroke="black" points="167,-49.5 167,-79.5 297,-79.5 297,-49.5 167,-49.5"/>
<text text-anchor="start" x="175" y="-67.5" font-family="Helvetica,sans-Serif" font-size="10.00">hpp::core::steeringMethod</text>
<text text-anchor="middle" x="232" y="-56.5" font-family="Helvetica,sans-Serif" font-size="10.00">::CarLike</text>
</g>
<!-- Node3 -->
<g id="node3" class="node"><title>Node3</title>
<g id="a_node3"><a xlink:href="a00033.html" target="_top" xlink:title="Steering method that creates DubinsPath instances. ">
<polygon fill="white" stroke="black" points="333,-98.5 333,-128.5 463,-128.5 463,-98.5 333,-98.5"/>
<text text-anchor="start" x="341" y="-116.5" font-family="Helvetica,sans-Serif" font-size="10.00">hpp::core::steeringMethod</text>
<text text-anchor="middle" x="398" y="-105.5" font-family="Helvetica,sans-Serif" font-size="10.00">::Dubins</text>
</a>
</g>
</g>
<!-- Node1&#45;&gt;Node3 -->
<g id="edge2" class="edge"><title>Node1&#45;&gt;Node3</title>
<path fill="none" stroke="midnightblue" d="M293.134,-82.467C310.706,-87.717 329.723,-93.3989 346.623,-98.4484"/>
<polygon fill="midnightblue" stroke="midnightblue" points="294.127,-79.1108 283.544,-79.6014 292.123,-85.8178 294.127,-79.1108"/>
</g>
<!-- Node4 -->
<g id="node4" class="node"><title>Node4</title>
<g id="a_node4"><a xlink:href="a00084.html" target="_top" xlink:title="Steering method that creates ReedsSheppPath instances. ">
<polygon fill="white" stroke="black" points="333,-49.5 333,-79.5 463,-79.5 463,-49.5 333,-49.5"/>
<text text-anchor="start" x="341" y="-67.5" font-family="Helvetica,sans-Serif" font-size="10.00">hpp::core::steeringMethod</text>
<text text-anchor="middle" x="398" y="-56.5" font-family="Helvetica,sans-Serif" font-size="10.00">::ReedsShepp</text>
</a>
</g>
</g>
<!-- Node1&#45;&gt;Node4 -->
<g id="edge3" class="edge"><title>Node1&#45;&gt;Node4</title>
<path fill="none" stroke="midnightblue" d="M307.564,-64.5C316.004,-64.5 324.549,-64.5 332.839,-64.5"/>
<polygon fill="midnightblue" stroke="midnightblue" points="307.346,-61.0001 297.346,-64.5 307.346,-68.0001 307.346,-61.0001"/>
</g>
<!-- Node5 -->
<g id="node5" class="node"><title>Node5</title>
<g id="a_node5"><a xlink:href="a00092.html" target="_top" xlink:title="Steering method that creates backward Dubins paths. ">
<polygon fill="white" stroke="black" points="333,-0.5 333,-30.5 463,-30.5 463,-0.5 333,-0.5"/>
<text text-anchor="start" x="341" y="-18.5" font-family="Helvetica,sans-Serif" font-size="10.00">hpp::core::steeringMethod</text>
<text text-anchor="middle" x="398" y="-7.5" font-family="Helvetica,sans-Serif" font-size="10.00">::Snibud</text>
</a>
</g>
</g>
<!-- Node1&#45;&gt;Node5 -->
<g id="edge4" class="edge"><title>Node1&#45;&gt;Node5</title>
<path fill="none" stroke="midnightblue" d="M293.134,-46.533C310.706,-41.283 329.723,-35.6011 346.623,-30.5516"/>
<polygon fill="midnightblue" stroke="midnightblue" points="292.123,-43.1822 283.544,-49.3986 294.127,-49.8892 292.123,-43.1822"/>
</g>
<!-- Node2 -->
<g id="node2" class="node"><title>Node2</title>
<g id="a_node2"><a xlink:href="a00099.html" target="_top" xlink:title="Steering method. ">
<polygon fill="white" stroke="black" points="0,-55 0,-74 131,-74 131,-55 0,-55"/>
<text text-anchor="middle" x="65.5" y="-62" font-family="Helvetica,sans-Serif" font-size="10.00">hpp::core::SteeringMethod</text>
</a>
</g>
</g>
<!-- Node2&#45;&gt;Node1 -->
<g id="edge1" class="edge"><title>Node2&#45;&gt;Node1</title>
<path fill="none" stroke="midnightblue" d="M141.09,-64.5C149.712,-64.5 158.448,-64.5 166.913,-64.5"/>
<polygon fill="midnightblue" stroke="midnightblue" points="141.043,-61.0001 131.043,-64.5 141.043,-68.0001 141.043,-61.0001"/>
</g>
</g>
</svg>
