<?xml version="1.0" encoding="UTF-8" standalone="no"?>
<!DOCTYPE svg PUBLIC "-//W3C//DTD SVG 1.1//EN"
 "http://www.w3.org/Graphics/SVG/1.1/DTD/svg11.dtd">
<!-- Generated by graphviz version 2.38.0 (20140413.2041)
 -->
<!-- Title: Graphical Class Hierarchy Pages: 1 -->
<svg width="283pt" height="66pt"
 viewBox="0.00 0.00 283.00 66.00" xmlns="http://www.w3.org/2000/svg" xmlns:xlink="http://www.w3.org/1999/xlink">
<g id="graph0" class="graph" transform="scale(1 1) rotate(0) translate(4 62)">
<title>Graphical Class Hierarchy</title>
<polygon fill="white" stroke="none" points="-4,4 -4,-62 279,-62 279,4 -4,4"/>
<!-- Node1 -->
<g id="node1" class="node"><title>Node1</title>
<g id="a_node1"><a xlink:href="a00022.html" target="_top" xlink:title="Constraint applicable to a robot configuration. ">
<polygon fill="white" stroke="black" points="0,-19.5 0,-38.5 108,-38.5 108,-19.5 0,-19.5"/>
<text text-anchor="middle" x="54" y="-26.5" font-family="Helvetica,sans-Serif" font-size="10.00">hpp::core::Constraint</text>
</a>
</g>
</g>
<!-- Node2 -->
<g id="node2" class="node"><title>Node2</title>
<g id="a_node2"><a xlink:href="a00016.html" target="_top" xlink:title="Implicit non&#45;linear constraint. ">
<polygon fill="white" stroke="black" points="144,-38.5 144,-57.5 275,-57.5 275,-38.5 144,-38.5"/>
<text text-anchor="middle" x="209.5" y="-45.5" font-family="Helvetica,sans-Serif" font-size="10.00">hpp::core::ConfigProjector</text>
</a>
</g>
</g>
<!-- Node1&#45;&gt;Node2 -->
<g id="edge1" class="edge"><title>Node1&#45;&gt;Node2</title>
<path fill="none" stroke="midnightblue" d="M118.41,-36.8488C126.849,-37.8933 135.509,-38.9653 143.966,-40.0121"/>
<polygon fill="midnightblue" stroke="midnightblue" points="118.61,-33.347 108.256,-35.592 117.75,-40.2939 118.61,-33.347"/>
</g>
<!-- Node3 -->
<g id="node3" class="node"><title>Node3</title>
<g id="a_node3"><a xlink:href="a00023.html" target="_top" xlink:title="Set of constraints applicable to a robot configuration. ">
<polygon fill="white" stroke="black" points="148,-0.5 148,-19.5 271,-19.5 271,-0.5 148,-0.5"/>
<text text-anchor="middle" x="209.5" y="-7.5" font-family="Helvetica,sans-Serif" font-size="10.00">hpp::core::ConstraintSet</text>
</a>
</g>
</g>
<!-- Node1&#45;&gt;Node3 -->
<g id="edge2" class="edge"><title>Node1&#45;&gt;Node3</title>
<path fill="none" stroke="midnightblue" d="M118.333,-21.1607C128.134,-19.9476 138.237,-18.6971 147.974,-17.4918"/>
<polygon fill="midnightblue" stroke="midnightblue" points="117.75,-17.7061 108.256,-22.408 118.61,-24.653 117.75,-17.7061"/>
</g>
</g>
</svg>
