<?xml version="1.0" encoding="UTF-8" standalone="no"?>
<!DOCTYPE svg PUBLIC "-//W3C//DTD SVG 1.1//EN"
 "http://www.w3.org/Graphics/SVG/1.1/DTD/svg11.dtd">
<!-- Generated by graphviz version 2.38.0 (20140413.2041)
 -->
<!-- Title: Graphical Class Hierarchy Pages: 1 -->
<svg width="299pt" height="204pt"
 viewBox="0.00 0.00 299.00 203.50" xmlns="http://www.w3.org/2000/svg" xmlns:xlink="http://www.w3.org/1999/xlink">
<g id="graph0" class="graph" transform="scale(1 1) rotate(0) translate(4 199.5)">
<title>Graphical Class Hierarchy</title>
<polygon fill="white" stroke="none" points="-4,4 -4,-199.5 295,-199.5 295,4 -4,4"/>
<!-- Node1 -->
<g id="node1" class="node"><title>Node1</title>
<g id="a_node1"><a xlink:href="a00066.html" target="_top" xlink:title="Path planner. ">
<polygon fill="white" stroke="black" points="0,-94 0,-113 116,-113 116,-94 0,-94"/>
<text text-anchor="middle" x="58" y="-101" font-family="Helvetica,sans-Serif" font-size="10.00">hpp::core::PathPlanner</text>
</a>
</g>
</g>
<!-- Node2 -->
<g id="node2" class="node"><title>Node2</title>
<g id="a_node2"><a xlink:href="a00007.html" target="_top" xlink:title="Implementation of directional bi&#45;RRT algorithm maintaining only two connected components for respecti...">
<polygon fill="white" stroke="black" points="158.5,-176 158.5,-195 284.5,-195 284.5,-176 158.5,-176"/>
<text text-anchor="middle" x="221.5" y="-183" font-family="Helvetica,sans-Serif" font-size="10.00">hpp::core::BiRRTPlanner</text>
</a>
</g>
</g>
<!-- Node1&#45;&gt;Node2 -->
<g id="edge1" class="edge"><title>Node1&#45;&gt;Node2</title>
<path fill="none" stroke="midnightblue" d="M78.6042,-119.58C96.6845,-133.705 124.769,-153.913 152,-166.5 160.066,-170.228 169.013,-173.362 177.708,-175.942"/>
<polygon fill="midnightblue" stroke="midnightblue" points="80.5839,-116.683 70.5796,-113.195 76.2252,-122.16 80.5839,-116.683"/>
</g>
<!-- Node3 -->
<g id="node3" class="node"><title>Node3</title>
<g id="a_node3"><a xlink:href="a00029.html" target="_top" xlink:title="Generic implementation of RRT algorithm. ">
<polygon fill="white" stroke="black" points="154,-138 154,-157 289,-157 289,-138 154,-138"/>
<text text-anchor="middle" x="221.5" y="-145" font-family="Helvetica,sans-Serif" font-size="10.00">hpp::core::DiffusingPlanner</text>
</a>
</g>
</g>
<!-- Node1&#45;&gt;Node3 -->
<g id="edge2" class="edge"><title>Node1&#45;&gt;Node3</title>
<path fill="none" stroke="midnightblue" d="M103.955,-115.748C129.739,-122.772 161.626,-131.46 185.525,-137.971"/>
<polygon fill="midnightblue" stroke="midnightblue" points="104.611,-112.299 94.0431,-113.047 102.771,-119.053 104.611,-112.299"/>
</g>
<!-- Node4 -->
<g id="node4" class="node"><title>Node4</title>
<g id="a_node4"><a xlink:href="a00052.html" target="_top" xlink:title="k&#45;PRM* path planning algorithm as described in https://arxiv.org/pdf/1105.1186.pdf. ">
<polygon fill="white" stroke="black" points="164,-88.5 164,-118.5 279,-118.5 279,-88.5 164,-88.5"/>
<text text-anchor="start" x="172" y="-106.5" font-family="Helvetica,sans-Serif" font-size="10.00">hpp::core::pathPlanner</text>
<text text-anchor="middle" x="221.5" y="-95.5" font-family="Helvetica,sans-Serif" font-size="10.00">::kPrmStar</text>
</a>
</g>
</g>
<!-- Node1&#45;&gt;Node4 -->
<g id="edge3" class="edge"><title>Node1&#45;&gt;Node4</title>
<path fill="none" stroke="midnightblue" d="M126.66,-103.5C139.032,-103.5 151.824,-103.5 163.834,-103.5"/>
<polygon fill="midnightblue" stroke="midnightblue" points="126.394,-100 116.394,-103.5 126.394,-107 126.394,-100"/>
</g>
<!-- Node5 -->
<g id="node5" class="node"><title>Node5</title>
<g id="a_node5"><a xlink:href="a00072.html" target="_top" xlink:title="Path planner and optimizer. ">
<polygon fill="white" stroke="black" points="152,-50 152,-69 291,-69 291,-50 152,-50"/>
<text text-anchor="middle" x="221.5" y="-57" font-family="Helvetica,sans-Serif" font-size="10.00">hpp::core::PlanAndOptimize</text>
</a>
</g>
</g>
<!-- Node1&#45;&gt;Node5 -->
<g id="edge4" class="edge"><title>Node1&#45;&gt;Node5</title>
<path fill="none" stroke="midnightblue" d="M103.955,-91.2522C129.739,-84.2276 161.626,-75.54 185.525,-69.0287"/>
<polygon fill="midnightblue" stroke="midnightblue" points="102.771,-87.947 94.0431,-93.9527 104.611,-94.7009 102.771,-87.947"/>
</g>
<!-- Node6 -->
<g id="node6" class="node"><title>Node6</title>
<g id="a_node6"><a xlink:href="a00107.html" target="_top" xlink:title="Generic implementation of visibility&#45;PRM algorithm, based on guard nodes (which cannot see each other...">
<polygon fill="white" stroke="black" points="162.5,-0.5 162.5,-30.5 280.5,-30.5 280.5,-0.5 162.5,-0.5"/>
<text text-anchor="start" x="170.5" y="-18.5" font-family="Helvetica,sans-Serif" font-size="10.00">hpp::core::VisibilityPrm</text>
<text text-anchor="middle" x="221.5" y="-7.5" font-family="Helvetica,sans-Serif" font-size="10.00">Planner</text>
</a>
</g>
</g>
<!-- Node1&#45;&gt;Node6 -->
<g id="edge5" class="edge"><title>Node1&#45;&gt;Node6</title>
<path fill="none" stroke="midnightblue" d="M79.1598,-87.6998C97.4152,-73.9261 125.439,-54.0814 152,-40.5 159.101,-36.869 166.856,-33.511 174.512,-30.5117"/>
<polygon fill="midnightblue" stroke="midnightblue" points="76.8464,-85.0628 71.032,-93.9197 81.1006,-90.6218 76.8464,-85.0628"/>
</g>
</g>
</svg>
