<?xml version="1.0" encoding="UTF-8" standalone="no"?>
<!DOCTYPE svg PUBLIC "-//W3C//DTD SVG 1.1//EN"
 "http://www.w3.org/Graphics/SVG/1.1/DTD/svg11.dtd">
<!-- Generated by graphviz version 2.38.0 (20140413.2041)
 -->
<!-- Title: Graphical Class Hierarchy Pages: 1 -->
<svg width="225pt" height="50pt"
 viewBox="0.00 0.00 225.00 50.00" xmlns="http://www.w3.org/2000/svg" xmlns:xlink="http://www.w3.org/1999/xlink">
<g id="graph0" class="graph" transform="scale(1 1) rotate(0) translate(4 46)">
<title>Graphical Class Hierarchy</title>
<polygon fill="white" stroke="none" points="-4,4 -4,-46 221,-46 221,4 -4,4"/>
<!-- Node1 -->
<g id="node1" class="node"><title>Node1</title>
<polygon fill="white" stroke="#bfbfbf" points="0,-11.5 0,-30.5 62,-30.5 62,-11.5 0,-11.5"/>
<text text-anchor="middle" x="31" y="-18.5" font-family="Helvetica,sans-Serif" font-size="10.00">NumTraits</text>
</g>
<!-- Node2 -->
<g id="node2" class="node"><title>Node2</title>
<g id="a_node2"><a xlink:href="a00056.html" target="_top" xlink:title="Eigen::NumTraits\&lt; hpp\l::core::RelativeMotion\l::RelativeMotionType \&gt;">
<polygon fill="white" stroke="black" points="98,-0.5 98,-41.5 217,-41.5 217,-0.5 98,-0.5"/>
<text text-anchor="start" x="106" y="-29.5" font-family="Helvetica,sans-Serif" font-size="10.00">Eigen::NumTraits&lt; hpp</text>
<text text-anchor="start" x="106" y="-18.5" font-family="Helvetica,sans-Serif" font-size="10.00">::core::RelativeMotion</text>
<text text-anchor="middle" x="157.5" y="-7.5" font-family="Helvetica,sans-Serif" font-size="10.00">::RelativeMotionType &gt;</text>
</a>
</g>
</g>
<!-- Node1&#45;&gt;Node2 -->
<g id="edge1" class="edge"><title>Node1&#45;&gt;Node2</title>
<path fill="none" stroke="midnightblue" d="M72.1697,-21C80.3786,-21 89.176,-21 97.8785,-21"/>
<polygon fill="midnightblue" stroke="midnightblue" points="72.138,-17.5001 62.138,-21 72.1379,-24.5001 72.138,-17.5001"/>
</g>
</g>
</svg>
