<?xml version="1.0" encoding="UTF-8" standalone="no"?>
<!DOCTYPE svg PUBLIC "-//W3C//DTD SVG 1.1//EN"
 "http://www.w3.org/Graphics/SVG/1.1/DTD/svg11.dtd">
<!-- Generated by graphviz version 2.38.0 (20140413.2041)
 -->
<!-- Title: server.hxx Pages: 1 -->
<svg width="321pt" height="95pt"
 viewBox="0.00 0.00 320.50 95.00" xmlns="http://www.w3.org/2000/svg" xmlns:xlink="http://www.w3.org/1999/xlink">
<g id="graph0" class="graph" transform="scale(1 1) rotate(0) translate(4 91)">
<title>server.hxx</title>
<polygon fill="white" stroke="none" points="-4,4 -4,-91 316.5,-91 316.5,4 -4,4"/>
<!-- Node1 -->
<g id="node1" class="node"><title>Node1</title>
<polygon fill="#bfbfbf" stroke="black" points="99.5,-67.5 99.5,-86.5 161.5,-86.5 161.5,-67.5 99.5,-67.5"/>
<text text-anchor="middle" x="130.5" y="-74.5" font-family="Helvetica,sans-Serif" font-size="10.00">server.hxx</text>
</g>
<!-- Node2 -->
<g id="node2" class="node"><title>Node2</title>
<polygon fill="white" stroke="#bfbfbf" points="0,-6 0,-25 47,-25 47,-6 0,-6"/>
<text text-anchor="middle" x="23.5" y="-13" font-family="Helvetica,sans-Serif" font-size="10.00">errno.h</text>
</g>
<!-- Node1&#45;&gt;Node2 -->
<g id="edge1" class="edge"><title>Node1&#45;&gt;Node2</title>
<path fill="none" stroke="midnightblue" d="M115.17,-67.4751C97.5303,-57.6664 68.3404,-41.4346 47.6424,-29.925"/>
<polygon fill="midnightblue" stroke="midnightblue" points="49.2427,-26.8102 38.8021,-25.0091 45.8407,-32.9279 49.2427,-26.8102"/>
</g>
<!-- Node3 -->
<g id="node3" class="node"><title>Node3</title>
<polygon fill="white" stroke="#bfbfbf" points="65,-6 65,-25 122,-25 122,-6 65,-6"/>
<text text-anchor="middle" x="93.5" y="-13" font-family="Helvetica,sans-Serif" font-size="10.00">pthread.h</text>
</g>
<!-- Node1&#45;&gt;Node3 -->
<g id="edge2" class="edge"><title>Node1&#45;&gt;Node3</title>
<path fill="none" stroke="midnightblue" d="M125.199,-67.4751C119.759,-58.7268 111.141,-44.8691 104.264,-33.8093"/>
<polygon fill="midnightblue" stroke="midnightblue" points="107.044,-31.6528 98.7914,-25.0091 101.1,-35.3494 107.044,-31.6528"/>
</g>
<!-- Node4 -->
<g id="node4" class="node"><title>Node4</title>
<polygon fill="white" stroke="#bfbfbf" points="140.5,-6 140.5,-25 194.5,-25 194.5,-6 140.5,-6"/>
<text text-anchor="middle" x="167.5" y="-13" font-family="Helvetica,sans-Serif" font-size="10.00">iostream</text>
</g>
<!-- Node1&#45;&gt;Node4 -->
<g id="edge3" class="edge"><title>Node1&#45;&gt;Node4</title>
<path fill="none" stroke="midnightblue" d="M135.801,-67.4751C141.241,-58.7268 149.859,-44.8691 156.736,-33.8093"/>
<polygon fill="midnightblue" stroke="midnightblue" points="159.9,-35.3494 162.209,-25.0091 153.956,-31.6528 159.9,-35.3494"/>
</g>
<!-- Node5 -->
<g id="node5" class="node"><title>Node5</title>
<polygon fill="white" stroke="#bfbfbf" points="212.5,-0.5 212.5,-30.5 312.5,-30.5 312.5,-0.5 212.5,-0.5"/>
<text text-anchor="start" x="220.5" y="-18.5" font-family="Helvetica,sans-Serif" font-size="10.00">hpp/corba/template</text>
<text text-anchor="middle" x="262.5" y="-7.5" font-family="Helvetica,sans-Serif" font-size="10.00">/debug.hh</text>
</g>
<!-- Node1&#45;&gt;Node5 -->
<g id="edge4" class="edge"><title>Node1&#45;&gt;Node5</title>
<path fill="none" stroke="midnightblue" d="M149.412,-67.4751C168.292,-58.9648 197.899,-45.6193 222.084,-34.718"/>
<polygon fill="midnightblue" stroke="midnightblue" points="223.712,-37.8232 231.39,-30.523 220.835,-31.4416 223.712,-37.8232"/>
</g>
</g>
</svg>
