<?xml version="1.0" encoding="UTF-8" standalone="no"?>
<!DOCTYPE svg PUBLIC "-//W3C//DTD SVG 1.1//EN"
 "http://www.w3.org/Graphics/SVG/1.1/DTD/svg11.dtd">
<!-- Generated by graphviz version 2.38.0 (20140413.2041)
 -->
<!-- Title: configuration.hh Pages: 1 -->
<svg width="2942pt" height="263pt"
 viewBox="0.00 0.00 2941.50 263.00" xmlns="http://www.w3.org/2000/svg" xmlns:xlink="http://www.w3.org/1999/xlink">
<g id="graph0" class="graph" transform="scale(1 1) rotate(0) translate(4 259)">
<title>configuration.hh</title>
<polygon fill="white" stroke="none" points="-4,4 -4,-259 2937.5,-259 2937.5,4 -4,4"/>
<!-- Node1 -->
<g id="node1" class="node"><title>Node1</title>
<polygon fill="#bfbfbf" stroke="black" points="1366,-235.5 1366,-254.5 1452,-254.5 1452,-235.5 1366,-235.5"/>
<text text-anchor="middle" x="1409" y="-242.5" font-family="Helvetica,sans-Serif" font-size="10.00">configuration.hh</text>
</g>
<!-- Node2 -->
<g id="node2" class="node"><title>Node2</title>
<polygon fill="white" stroke="#bfbfbf" points="1334,-174 1334,-193 1386,-193 1386,-174 1334,-174"/>
<text text-anchor="middle" x="1360" y="-181" font-family="Helvetica,sans-Serif" font-size="10.00">QDialog</text>
</g>
<!-- Node1&#45;&gt;Node2 -->
<g id="edge1" class="edge"><title>Node1&#45;&gt;Node2</title>
<path fill="none" stroke="midnightblue" d="M1401.98,-235.475C1394.56,-226.462 1382.67,-212.025 1373.43,-200.812"/>
<polygon fill="midnightblue" stroke="midnightblue" points="1376.07,-198.503 1367.01,-193.009 1370.66,-202.953 1376.07,-198.503"/>
</g>
<!-- Node3 -->
<g id="node3" class="node"><title>Node3</title>
<g id="a_node3"><a xlink:href="a00080.html" target="_top" xlink:title="gepetto/viewer/config\l&#45;osg.h">
<polygon fill="white" stroke="black" points="1404,-168.5 1404,-198.5 1514,-198.5 1514,-168.5 1404,-168.5"/>
<text text-anchor="start" x="1412" y="-186.5" font-family="Helvetica,sans-Serif" font-size="10.00">gepetto/viewer/config</text>
<text text-anchor="middle" x="1459" y="-175.5" font-family="Helvetica,sans-Serif" font-size="10.00">&#45;osg.h</text>
</a>
</g>
</g>
<!-- Node1&#45;&gt;Node3 -->
<g id="edge2" class="edge"><title>Node1&#45;&gt;Node3</title>
<path fill="none" stroke="midnightblue" d="M1416.16,-235.475C1422.56,-227.869 1432.19,-216.399 1440.71,-206.265"/>
<polygon fill="midnightblue" stroke="midnightblue" points="1443.46,-208.43 1447.22,-198.523 1438.1,-203.927 1443.46,-208.43"/>
</g>
<!-- Node4 -->
<g id="node4" class="node"><title>Node4</title>
<polygon fill="white" stroke="#bfbfbf" points="0,-112.5 0,-131.5 68,-131.5 68,-112.5 0,-112.5"/>
<text text-anchor="middle" x="34" y="-119.5" font-family="Helvetica,sans-Serif" font-size="10.00">QMetaType</text>
</g>
<!-- Node3&#45;&gt;Node4 -->
<g id="edge3" class="edge"><title>Node3&#45;&gt;Node4</title>
<path fill="none" stroke="midnightblue" d="M1403.96,-169.313C1400.94,-168.813 1397.94,-168.369 1395,-168 816.987,-95.3378 660.829,-199.069 78.5176,-131.934"/>
<polygon fill="midnightblue" stroke="midnightblue" points="78.5147,-128.41 68.1768,-130.729 77.7044,-135.363 78.5147,-128.41"/>
</g>
<!-- Node5 -->
<g id="node5" class="node"><title>Node5</title>
<polygon fill="white" stroke="#bfbfbf" points="86.5,-112.5 86.5,-131.5 149.5,-131.5 149.5,-112.5 86.5,-112.5"/>
<text text-anchor="middle" x="118" y="-119.5" font-family="Helvetica,sans-Serif" font-size="10.00">osg/Shape</text>
</g>
<!-- Node3&#45;&gt;Node5 -->
<g id="edge4" class="edge"><title>Node3&#45;&gt;Node5</title>
<path fill="none" stroke="midnightblue" d="M1403.96,-169.319C1400.94,-168.818 1397.94,-168.372 1395,-168 853.115,-99.3812 706.23,-197.992 159.795,-131.806"/>
<polygon fill="midnightblue" stroke="midnightblue" points="160.034,-128.309 149.683,-130.568 159.184,-135.257 160.034,-128.309"/>
</g>
<!-- Node6 -->
<g id="node6" class="node"><title>Node6</title>
<polygon fill="white" stroke="#bfbfbf" points="168,-112.5 168,-131.5 272,-131.5 272,-112.5 168,-112.5"/>
<text text-anchor="middle" x="220" y="-119.5" font-family="Helvetica,sans-Serif" font-size="10.00">osg/ShapeDrawable</text>
</g>
<!-- Node3&#45;&gt;Node6 -->
<g id="edge5" class="edge"><title>Node3&#45;&gt;Node6</title>
<path fill="none" stroke="midnightblue" d="M1403.96,-169.331C1400.94,-168.827 1397.94,-168.377 1395,-168 907.014,-105.416 776.176,-175.257 282.444,-132.01"/>
<polygon fill="midnightblue" stroke="midnightblue" points="282.467,-128.499 272.197,-131.101 281.848,-135.472 282.467,-128.499"/>
</g>
<!-- Node7 -->
<g id="node7" class="node"><title>Node7</title>
<polygon fill="white" stroke="#bfbfbf" points="290,-112.5 290,-131.5 368,-131.5 368,-112.5 290,-112.5"/>
<text text-anchor="middle" x="329" y="-119.5" font-family="Helvetica,sans-Serif" font-size="10.00">osg/Geometry</text>
</g>
<!-- Node3&#45;&gt;Node7 -->
<g id="edge6" class="edge"><title>Node3&#45;&gt;Node7</title>
<path fill="none" stroke="midnightblue" d="M1403.96,-169.342C1400.94,-168.835 1397.94,-168.381 1395,-168 949.327,-110.153 828.735,-180.807 378.247,-131.951"/>
<polygon fill="midnightblue" stroke="midnightblue" points="378.543,-128.462 368.221,-130.85 377.779,-135.421 378.543,-128.462"/>
</g>
<!-- Node8 -->
<g id="node8" class="node"><title>Node8</title>
<polygon fill="white" stroke="#bfbfbf" points="386,-112.5 386,-131.5 450,-131.5 450,-112.5 386,-112.5"/>
<text text-anchor="middle" x="418" y="-119.5" font-family="Helvetica,sans-Serif" font-size="10.00">osg/Geode</text>
</g>
<!-- Node3&#45;&gt;Node8 -->
<g id="edge7" class="edge"><title>Node3&#45;&gt;Node8</title>
<path fill="none" stroke="midnightblue" d="M1403.96,-169.353C1400.94,-168.843 1397.94,-168.386 1395,-168 985.564,-114.212 873.738,-183.701 460.269,-131.906"/>
<polygon fill="midnightblue" stroke="midnightblue" points="460.496,-128.406 450.135,-130.619 459.614,-135.351 460.496,-128.406"/>
</g>
<!-- Node9 -->
<g id="node9" class="node"><title>Node9</title>
<polygon fill="white" stroke="#bfbfbf" points="467.5,-112.5 467.5,-131.5 616.5,-131.5 616.5,-112.5 467.5,-112.5"/>
<text text-anchor="middle" x="542" y="-119.5" font-family="Helvetica,sans-Serif" font-size="10.00">osg/PositionAttitudeTransform</text>
</g>
<!-- Node3&#45;&gt;Node9 -->
<g id="edge8" class="edge"><title>Node3&#45;&gt;Node9</title>
<path fill="none" stroke="midnightblue" d="M1403.95,-169.382C1400.93,-168.865 1397.94,-168.398 1395,-168 1059.26,-122.47 968.903,-157.538 626.828,-132.004"/>
<polygon fill="midnightblue" stroke="midnightblue" points="626.87,-128.498 616.634,-131.231 626.34,-135.478 626.87,-128.498"/>
</g>
<!-- Node10 -->
<g id="node10" class="node"><title>Node10</title>
<polygon fill="white" stroke="#bfbfbf" points="635,-112.5 635,-131.5 735,-131.5 735,-112.5 635,-112.5"/>
<text text-anchor="middle" x="685" y="-119.5" font-family="Helvetica,sans-Serif" font-size="10.00">osg/AutoTransform</text>
</g>
<!-- Node3&#45;&gt;Node10 -->
<g id="edge9" class="edge"><title>Node3&#45;&gt;Node10</title>
<path fill="none" stroke="midnightblue" d="M1403.95,-169.413C1400.93,-168.887 1397.93,-168.411 1395,-168 1108.46,-127.894 1032.82,-161.492 745,-132 744.898,-131.99 744.797,-131.979 744.695,-131.969"/>
<polygon fill="midnightblue" stroke="midnightblue" points="745.379,-128.524 735.046,-130.865 744.583,-135.479 745.379,-128.524"/>
</g>
<!-- Node11 -->
<g id="node11" class="node"><title>Node11</title>
<polygon fill="white" stroke="#bfbfbf" points="753.5,-112.5 753.5,-131.5 860.5,-131.5 860.5,-112.5 753.5,-112.5"/>
<text text-anchor="middle" x="807" y="-119.5" font-family="Helvetica,sans-Serif" font-size="10.00">osg/MatrixTransform</text>
</g>
<!-- Node3&#45;&gt;Node11 -->
<g id="edge10" class="edge"><title>Node3&#45;&gt;Node11</title>
<path fill="none" stroke="midnightblue" d="M1403.94,-169.459C1400.93,-168.922 1397.93,-168.43 1395,-168 1166.87,-134.54 1104.35,-155.929 870.756,-131.988"/>
<polygon fill="midnightblue" stroke="midnightblue" points="870.892,-128.483 860.583,-130.928 870.166,-135.445 870.892,-128.483"/>
</g>
<!-- Node12 -->
<g id="node12" class="node"><title>Node12</title>
<polygon fill="white" stroke="#bfbfbf" points="878.5,-112.5 878.5,-131.5 937.5,-131.5 937.5,-112.5 878.5,-112.5"/>
<text text-anchor="middle" x="908" y="-119.5" font-family="Helvetica,sans-Serif" font-size="10.00">osg/Node</text>
</g>
<!-- Node3&#45;&gt;Node12 -->
<g id="edge11" class="edge"><title>Node3&#45;&gt;Node12</title>
<path fill="none" stroke="midnightblue" d="M1403.94,-169.501C1400.92,-168.953 1397.93,-168.447 1395,-168 1200.81,-138.355 1146.21,-161.736 947.891,-131.89"/>
<polygon fill="midnightblue" stroke="midnightblue" points="948.138,-128.387 937.723,-130.332 947.078,-135.306 948.138,-128.387"/>
</g>
<!-- Node13 -->
<g id="node13" class="node"><title>Node13</title>
<polygon fill="white" stroke="#bfbfbf" points="956,-112.5 956,-131.5 1018,-131.5 1018,-112.5 956,-112.5"/>
<text text-anchor="middle" x="987" y="-119.5" font-family="Helvetica,sans-Serif" font-size="10.00">osg/Group</text>
</g>
<!-- Node3&#45;&gt;Node13 -->
<g id="edge12" class="edge"><title>Node3&#45;&gt;Node13</title>
<path fill="none" stroke="midnightblue" d="M1403.93,-169.563C1400.91,-168.999 1397.92,-168.473 1395,-168 1236.37,-142.353 1191.62,-157.015 1028.18,-131.817"/>
<polygon fill="midnightblue" stroke="midnightblue" points="1028.69,-128.354 1018.27,-130.263 1027.6,-135.27 1028.69,-128.354"/>
</g>
<!-- Node14 -->
<g id="node14" class="node"><title>Node14</title>
<polygon fill="white" stroke="#bfbfbf" points="1036.5,-112.5 1036.5,-131.5 1101.5,-131.5 1101.5,-112.5 1036.5,-112.5"/>
<text text-anchor="middle" x="1069" y="-119.5" font-family="Helvetica,sans-Serif" font-size="10.00">osg/Switch</text>
</g>
<!-- Node3&#45;&gt;Node14 -->
<g id="edge13" class="edge"><title>Node3&#45;&gt;Node14</title>
<path fill="none" stroke="midnightblue" d="M1403.91,-169.663C1400.9,-169.073 1397.92,-168.514 1395,-168 1272.88,-146.478 1238.18,-152.99 1111.59,-131.952"/>
<polygon fill="midnightblue" stroke="midnightblue" points="1111.95,-128.464 1101.51,-130.251 1110.78,-135.366 1111.95,-128.464"/>
</g>
<!-- Node15 -->
<g id="node15" class="node"><title>Node15</title>
<polygon fill="white" stroke="#bfbfbf" points="1120,-112.5 1120,-131.5 1202,-131.5 1202,-112.5 1120,-112.5"/>
<text text-anchor="middle" x="1161" y="-119.5" font-family="Helvetica,sans-Serif" font-size="10.00">osg/ClearNode</text>
</g>
<!-- Node3&#45;&gt;Node15 -->
<g id="edge14" class="edge"><title>Node3&#45;&gt;Node15</title>
<path fill="none" stroke="midnightblue" d="M1403.87,-169.888C1400.87,-169.24 1397.9,-168.607 1395,-168 1332.19,-154.849 1259.58,-141.114 1212.11,-132.33"/>
<polygon fill="midnightblue" stroke="midnightblue" points="1212.55,-128.852 1202.08,-130.479 1211.28,-135.736 1212.55,-128.852"/>
</g>
<!-- Node16 -->
<g id="node16" class="node"><title>Node16</title>
<polygon fill="white" stroke="#bfbfbf" points="1220.5,-112.5 1220.5,-131.5 1299.5,-131.5 1299.5,-112.5 1220.5,-112.5"/>
<text text-anchor="middle" x="1260" y="-119.5" font-family="Helvetica,sans-Serif" font-size="10.00">osg/LineWidth</text>
</g>
<!-- Node3&#45;&gt;Node16 -->
<g id="edge15" class="edge"><title>Node3&#45;&gt;Node16</title>
<path fill="none" stroke="midnightblue" d="M1412.09,-168.475C1377.31,-158.075 1330.5,-144.078 1298.03,-134.372"/>
<polygon fill="midnightblue" stroke="midnightblue" points="1299.03,-131.018 1288.45,-131.506 1297.03,-137.724 1299.03,-131.018"/>
</g>
<!-- Node17 -->
<g id="node17" class="node"><title>Node17</title>
<polygon fill="white" stroke="#bfbfbf" points="1318,-112.5 1318,-131.5 1400,-131.5 1400,-112.5 1318,-112.5"/>
<text text-anchor="middle" x="1359" y="-119.5" font-family="Helvetica,sans-Serif" font-size="10.00">osg/AlphaFunc</text>
</g>
<!-- Node3&#45;&gt;Node17 -->
<g id="edge16" class="edge"><title>Node3&#45;&gt;Node17</title>
<path fill="none" stroke="midnightblue" d="M1435.3,-168.399C1419.27,-158.862 1398.2,-146.325 1382.26,-136.842"/>
<polygon fill="midnightblue" stroke="midnightblue" points="1383.93,-133.763 1373.55,-131.658 1380.36,-139.779 1383.93,-133.763"/>
</g>
<!-- Node18 -->
<g id="node18" class="node"><title>Node18</title>
<polygon fill="white" stroke="#bfbfbf" points="1418,-112.5 1418,-131.5 1500,-131.5 1500,-112.5 1418,-112.5"/>
<text text-anchor="middle" x="1459" y="-119.5" font-family="Helvetica,sans-Serif" font-size="10.00">osg/BlendFunc</text>
</g>
<!-- Node3&#45;&gt;Node18 -->
<g id="edge17" class="edge"><title>Node3&#45;&gt;Node18</title>
<path fill="none" stroke="midnightblue" d="M1459,-168.399C1459,-160.466 1459,-150.458 1459,-141.858"/>
<polygon fill="midnightblue" stroke="midnightblue" points="1462.5,-141.658 1459,-131.658 1455.5,-141.658 1462.5,-141.658"/>
</g>
<!-- Node19 -->
<g id="node19" class="node"><title>Node19</title>
<polygon fill="white" stroke="#bfbfbf" points="1518,-112.5 1518,-131.5 1592,-131.5 1592,-112.5 1518,-112.5"/>
<text text-anchor="middle" x="1555" y="-119.5" font-family="Helvetica,sans-Serif" font-size="10.00">osg/StateSet</text>
</g>
<!-- Node3&#45;&gt;Node19 -->
<g id="edge18" class="edge"><title>Node3&#45;&gt;Node19</title>
<path fill="none" stroke="midnightblue" d="M1481.75,-168.399C1496.99,-158.951 1516.99,-146.559 1532.24,-137.109"/>
<polygon fill="midnightblue" stroke="midnightblue" points="1534.38,-139.901 1541.03,-131.658 1530.69,-133.951 1534.38,-139.901"/>
</g>
<!-- Node20 -->
<g id="node20" class="node"><title>Node20</title>
<polygon fill="white" stroke="#bfbfbf" points="1610,-112.5 1610,-131.5 1672,-131.5 1672,-112.5 1610,-112.5"/>
<text text-anchor="middle" x="1641" y="-119.5" font-family="Helvetica,sans-Serif" font-size="10.00">osg/Depth</text>
</g>
<!-- Node3&#45;&gt;Node20 -->
<g id="edge19" class="edge"><title>Node3&#45;&gt;Node20</title>
<path fill="none" stroke="midnightblue" d="M1502.13,-168.399C1533.58,-158.118 1575.69,-144.351 1605.27,-134.682"/>
<polygon fill="midnightblue" stroke="midnightblue" points="1606.37,-138.005 1614.78,-131.571 1604.19,-131.352 1606.37,-138.005"/>
</g>
<!-- Node21 -->
<g id="node21" class="node"><title>Node21</title>
<polygon fill="white" stroke="#bfbfbf" points="1690.5,-112.5 1690.5,-131.5 1749.5,-131.5 1749.5,-112.5 1690.5,-112.5"/>
<text text-anchor="middle" x="1720" y="-119.5" font-family="Helvetica,sans-Serif" font-size="10.00">osg/State</text>
</g>
<!-- Node3&#45;&gt;Node21 -->
<g id="edge20" class="edge"><title>Node3&#45;&gt;Node21</title>
<path fill="none" stroke="midnightblue" d="M1514.21,-169.992C1556.85,-160.319 1617.62,-146.51 1680.14,-132.191"/>
<polygon fill="midnightblue" stroke="midnightblue" points="1681.23,-135.534 1690.19,-129.889 1679.66,-128.711 1681.23,-135.534"/>
</g>
<!-- Node22 -->
<g id="node22" class="node"><title>Node22</title>
<polygon fill="white" stroke="#bfbfbf" points="1768,-112.5 1768,-131.5 1824,-131.5 1824,-112.5 1768,-112.5"/>
<text text-anchor="middle" x="1796" y="-119.5" font-family="Helvetica,sans-Serif" font-size="10.00">osg/Light</text>
</g>
<!-- Node3&#45;&gt;Node22 -->
<g id="edge21" class="edge"><title>Node3&#45;&gt;Node22</title>
<path fill="none" stroke="midnightblue" d="M1514.24,-174.419C1572.47,-165.626 1667.08,-150.569 1757.86,-132.119"/>
<polygon fill="midnightblue" stroke="midnightblue" points="1758.67,-135.526 1767.77,-130.089 1757.27,-128.668 1758.67,-135.526"/>
</g>
<!-- Node23 -->
<g id="node23" class="node"><title>Node23</title>
<polygon fill="white" stroke="#bfbfbf" points="1842.5,-112.5 1842.5,-131.5 1929.5,-131.5 1929.5,-112.5 1842.5,-112.5"/>
<text text-anchor="middle" x="1886" y="-119.5" font-family="Helvetica,sans-Serif" font-size="10.00">osg/LightSource</text>
</g>
<!-- Node3&#45;&gt;Node23 -->
<g id="edge22" class="edge"><title>Node3&#45;&gt;Node23</title>
<path fill="none" stroke="midnightblue" d="M1514.22,-175.641C1585.26,-166.682 1712.76,-150.157 1832.29,-132.063"/>
<polygon fill="midnightblue" stroke="midnightblue" points="1832.99,-135.497 1842.35,-130.534 1831.93,-128.577 1832.99,-135.497"/>
</g>
<!-- Node24 -->
<g id="node24" class="node"><title>Node24</title>
<polygon fill="white" stroke="#bfbfbf" points="1948,-112.5 1948,-131.5 2018,-131.5 2018,-112.5 1948,-112.5"/>
<text text-anchor="middle" x="1983" y="-119.5" font-family="Helvetica,sans-Serif" font-size="10.00">osg/Material</text>
</g>
<!-- Node3&#45;&gt;Node24 -->
<g id="edge23" class="edge"><title>Node3&#45;&gt;Node24</title>
<path fill="none" stroke="midnightblue" d="M1514.3,-178.435C1602.01,-171.602 1778.57,-156.283 1938,-132.016"/>
<polygon fill="midnightblue" stroke="midnightblue" points="1938.64,-135.459 1947.99,-130.48 1937.57,-128.54 1938.64,-135.459"/>
</g>
<!-- Node25 -->
<g id="node25" class="node"><title>Node25</title>
<polygon fill="white" stroke="#bfbfbf" points="2036,-112.5 2036,-131.5 2106,-131.5 2106,-112.5 2036,-112.5"/>
<text text-anchor="middle" x="2071" y="-119.5" font-family="Helvetica,sans-Serif" font-size="10.00">osg/Camera</text>
</g>
<!-- Node3&#45;&gt;Node25 -->
<g id="edge24" class="edge"><title>Node3&#45;&gt;Node25</title>
<path fill="none" stroke="midnightblue" d="M1514.07,-179.678C1614.07,-174.103 1832.28,-159.861 2025.92,-131.997"/>
<polygon fill="midnightblue" stroke="midnightblue" points="2026.61,-135.434 2036,-130.531 2025.6,-128.507 2026.61,-135.434"/>
</g>
<!-- Node26 -->
<g id="node26" class="node"><title>Node26</title>
<polygon fill="white" stroke="#bfbfbf" points="2124,-112.5 2124,-131.5 2198,-131.5 2198,-112.5 2124,-112.5"/>
<text text-anchor="middle" x="2161" y="-119.5" font-family="Helvetica,sans-Serif" font-size="10.00">osg/Viewport</text>
</g>
<!-- Node3&#45;&gt;Node26 -->
<g id="edge25" class="edge"><title>Node3&#45;&gt;Node26</title>
<path fill="none" stroke="midnightblue" d="M1514.09,-180.427C1625.5,-175.764 1885.67,-162.495 2113.75,-132.013"/>
<polygon fill="midnightblue" stroke="midnightblue" points="2114.46,-135.449 2123.9,-130.642 2113.53,-128.512 2114.46,-135.449"/>
</g>
<!-- Node27 -->
<g id="node27" class="node"><title>Node27</title>
<polygon fill="white" stroke="#bfbfbf" points="2216.5,-112.5 2216.5,-131.5 2311.5,-131.5 2311.5,-112.5 2216.5,-112.5"/>
<text text-anchor="middle" x="2264" y="-119.5" font-family="Helvetica,sans-Serif" font-size="10.00">osgViewer/Viewer</text>
</g>
<!-- Node3&#45;&gt;Node27 -->
<g id="edge26" class="edge"><title>Node3&#45;&gt;Node27</title>
<path fill="none" stroke="midnightblue" d="M1514.05,-180.466C1636.49,-175.579 1940.79,-161.425 2206.24,-131.975"/>
<polygon fill="midnightblue" stroke="midnightblue" points="2206.91,-135.422 2216.46,-130.832 2206.13,-128.465 2206.91,-135.422"/>
</g>
<!-- Node28 -->
<g id="node28" class="node"><title>Node28</title>
<polygon fill="white" stroke="#bfbfbf" points="2330,-112.5 2330,-131.5 2448,-131.5 2448,-112.5 2330,-112.5"/>
<text text-anchor="middle" x="2389" y="-119.5" font-family="Helvetica,sans-Serif" font-size="10.00">osgViewer/ViewerBase</text>
</g>
<!-- Node3&#45;&gt;Node28 -->
<g id="edge27" class="edge"><title>Node3&#45;&gt;Node28</title>
<path fill="none" stroke="midnightblue" d="M1514.07,-180.67C1649.37,-175.875 2009.1,-161.307 2319.59,-132.067"/>
<polygon fill="midnightblue" stroke="midnightblue" points="2320.07,-135.538 2329.69,-131.109 2319.41,-128.569 2320.07,-135.538"/>
</g>
<!-- Node29 -->
<g id="node29" class="node"><title>Node29</title>
<polygon fill="white" stroke="#bfbfbf" points="2466.5,-112.5 2466.5,-131.5 2575.5,-131.5 2575.5,-112.5 2466.5,-112.5"/>
<text text-anchor="middle" x="2521" y="-119.5" font-family="Helvetica,sans-Serif" font-size="10.00">osg/GraphicsContext</text>
</g>
<!-- Node3&#45;&gt;Node29 -->
<g id="edge28" class="edge"><title>Node3&#45;&gt;Node29</title>
<path fill="none" stroke="midnightblue" d="M1514.03,-181.437C1663.66,-178.178 2090.62,-166.43 2456.24,-131.978"/>
<polygon fill="midnightblue" stroke="midnightblue" points="2456.6,-135.46 2466.23,-131.03 2455.94,-128.491 2456.6,-135.46"/>
</g>
<!-- Node30 -->
<g id="node30" class="node"><title>Node30</title>
<polygon fill="white" stroke="#bfbfbf" points="2593.5,-112.5 2593.5,-131.5 2688.5,-131.5 2688.5,-112.5 2593.5,-112.5"/>
<text text-anchor="middle" x="2641" y="-119.5" font-family="Helvetica,sans-Serif" font-size="10.00">osg/PolygonMode</text>
</g>
<!-- Node3&#45;&gt;Node30 -->
<g id="edge29" class="edge"><title>Node3&#45;&gt;Node30</title>
<path fill="none" stroke="midnightblue" d="M1514.23,-182.259C1676.71,-181.075 2167.24,-174.091 2583.27,-132.063"/>
<polygon fill="midnightblue" stroke="midnightblue" points="2583.8,-135.527 2593.39,-131.032 2583.09,-128.563 2583.8,-135.527"/>
</g>
<!-- Node31 -->
<g id="node31" class="node"><title>Node31</title>
<g id="a_node31"><a xlink:href="a00084.html" target="_top" xlink:title="gepetto/viewer/fwd.h">
<polygon fill="white" stroke="black" points="2706.5,-112.5 2706.5,-131.5 2813.5,-131.5 2813.5,-112.5 2706.5,-112.5"/>
<text text-anchor="middle" x="2760" y="-119.5" font-family="Helvetica,sans-Serif" font-size="10.00">gepetto/viewer/fwd.h</text>
</a>
</g>
</g>
<!-- Node3&#45;&gt;Node31 -->
<g id="edge30" class="edge"><title>Node3&#45;&gt;Node31</title>
<path fill="none" stroke="midnightblue" d="M1514.09,-182.283C1686.91,-181.172 2233.85,-174.381 2696.06,-132.088"/>
<polygon fill="midnightblue" stroke="midnightblue" points="2696.64,-135.55 2706.27,-131.146 2695.99,-128.579 2696.64,-135.55"/>
</g>
<!-- Node32 -->
<g id="node32" class="node"><title>Node32</title>
<g id="a_node32"><a xlink:href="a00102.html" target="_top" xlink:title="gepetto/viewer/macros.h">
<polygon fill="white" stroke="black" points="2739,-56.5 2739,-75.5 2863,-75.5 2863,-56.5 2739,-56.5"/>
<text text-anchor="middle" x="2801" y="-63.5" font-family="Helvetica,sans-Serif" font-size="10.00">gepetto/viewer/macros.h</text>
</a>
</g>
</g>
<!-- Node3&#45;&gt;Node32 -->
<g id="edge35" class="edge"><title>Node3&#45;&gt;Node32</title>
<path fill="none" stroke="midnightblue" d="M1514.19,-182.569C1763.79,-182.618 2776.88,-179.857 2823,-132 2835.6,-118.928 2825.4,-98.3894 2815.09,-83.9034"/>
<polygon fill="midnightblue" stroke="midnightblue" points="2817.72,-81.584 2808.85,-75.7869 2812.17,-85.849 2817.72,-81.584"/>
</g>
<!-- Node31&#45;&gt;Node32 -->
<g id="edge31" class="edge"><title>Node31&#45;&gt;Node32</title>
<path fill="none" stroke="midnightblue" d="M2766.77,-112.083C2772.56,-104.455 2781.06,-93.2645 2788.14,-83.9408"/>
<polygon fill="midnightblue" stroke="midnightblue" points="2791.1,-85.8321 2794.36,-75.7511 2785.52,-81.5991 2791.1,-85.8321"/>
</g>
<!-- Node33 -->
<g id="node33" class="node"><title>Node33</title>
<polygon fill="white" stroke="#bfbfbf" points="2624,-0.5 2624,-19.5 2732,-19.5 2732,-0.5 2624,-0.5"/>
<text text-anchor="middle" x="2678" y="-7.5" font-family="Helvetica,sans-Serif" font-size="10.00">boost/shared_ptr.hpp</text>
</g>
<!-- Node32&#45;&gt;Node33 -->
<g id="edge32" class="edge"><title>Node32&#45;&gt;Node33</title>
<path fill="none" stroke="midnightblue" d="M2781.51,-56.4435C2761.36,-47.5961 2729.68,-33.6875 2706.67,-23.5865"/>
<polygon fill="midnightblue" stroke="midnightblue" points="2707.96,-20.3316 2697.4,-19.5164 2705.15,-26.7411 2707.96,-20.3316"/>
</g>
<!-- Node34 -->
<g id="node34" class="node"><title>Node34</title>
<polygon fill="white" stroke="#bfbfbf" points="2750,-0.5 2750,-19.5 2852,-19.5 2852,-0.5 2750,-0.5"/>
<text text-anchor="middle" x="2801" y="-7.5" font-family="Helvetica,sans-Serif" font-size="10.00">boost/weak_ptr.hpp</text>
</g>
<!-- Node32&#45;&gt;Node34 -->
<g id="edge33" class="edge"><title>Node32&#45;&gt;Node34</title>
<path fill="none" stroke="midnightblue" d="M2801,-56.083C2801,-49.0059 2801,-38.8611 2801,-29.9865"/>
<polygon fill="midnightblue" stroke="midnightblue" points="2804.5,-29.751 2801,-19.7511 2797.5,-29.7511 2804.5,-29.751"/>
</g>
<!-- Node35 -->
<g id="node35" class="node"><title>Node35</title>
<polygon fill="white" stroke="#bfbfbf" points="2870.5,-0.5 2870.5,-19.5 2933.5,-19.5 2933.5,-0.5 2870.5,-0.5"/>
<text text-anchor="middle" x="2902" y="-7.5" font-family="Helvetica,sans-Serif" font-size="10.00">osg/ref_ptr</text>
</g>
<!-- Node32&#45;&gt;Node35 -->
<g id="edge34" class="edge"><title>Node32&#45;&gt;Node35</title>
<path fill="none" stroke="midnightblue" d="M2817.23,-56.324C2833.35,-47.7034 2858.3,-34.3643 2876.96,-24.3855"/>
<polygon fill="midnightblue" stroke="midnightblue" points="2878.64,-27.456 2885.81,-19.6545 2875.34,-21.283 2878.64,-27.456"/>
</g>
</g>
</svg>
