<?xml version="1.0" encoding="UTF-8" standalone="no"?>
<!DOCTYPE svg PUBLIC "-//W3C//DTD SVG 1.1//EN"
 "http://www.w3.org/Graphics/SVG/1.1/DTD/svg11.dtd">
<!-- Generated by graphviz version 2.38.0 (20140413.2041)
 -->
<!-- Title: roadmap&#45;viewer.h Pages: 1 -->
<svg width="2943pt" height="520pt"
 viewBox="0.00 0.00 2942.50 520.00" xmlns="http://www.w3.org/2000/svg" xmlns:xlink="http://www.w3.org/1999/xlink">
<g id="graph0" class="graph" transform="scale(1 1) rotate(0) translate(4 516)">
<title>roadmap&#45;viewer.h</title>
<polygon fill="white" stroke="none" points="-4,4 -4,-516 2938.5,-516 2938.5,4 -4,4"/>
<!-- Node1 -->
<g id="node1" class="node"><title>Node1</title>
<polygon fill="#bfbfbf" stroke="black" points="1280,-492.5 1280,-511.5 1374,-511.5 1374,-492.5 1280,-492.5"/>
<text text-anchor="middle" x="1327" y="-499.5" font-family="Helvetica,sans-Serif" font-size="10.00">roadmap&#45;viewer.h</text>
</g>
<!-- Node2 -->
<g id="node2" class="node"><title>Node2</title>
<polygon fill="white" stroke="#bfbfbf" points="1111.5,-431 1111.5,-450 1216.5,-450 1216.5,-431 1111.5,-431"/>
<text text-anchor="middle" x="1164" y="-438" font-family="Helvetica,sans-Serif" font-size="10.00">OpenThreads/Mutex</text>
</g>
<!-- Node1&#45;&gt;Node2 -->
<g id="edge1" class="edge"><title>Node1&#45;&gt;Node2</title>
<path fill="none" stroke="midnightblue" d="M1303.65,-492.475C1275.69,-482.269 1228.67,-465.108 1197.01,-453.549"/>
<polygon fill="midnightblue" stroke="midnightblue" points="1197.9,-450.15 1187.31,-450.009 1195.5,-456.726 1197.9,-450.15"/>
</g>
<!-- Node3 -->
<g id="node3" class="node"><title>Node3</title>
<g id="a_node3"><a xlink:href="a00109.html" target="_top" xlink:title="gepetto/viewer/node.h">
<polygon fill="white" stroke="black" points="1270.5,-302.5 1270.5,-321.5 1383.5,-321.5 1383.5,-302.5 1270.5,-302.5"/>
<text text-anchor="middle" x="1327" y="-309.5" font-family="Helvetica,sans-Serif" font-size="10.00">gepetto/viewer/node.h</text>
</a>
</g>
</g>
<!-- Node1&#45;&gt;Node3 -->
<g id="edge2" class="edge"><title>Node1&#45;&gt;Node3</title>
<path fill="none" stroke="midnightblue" d="M1320.07,-492.398C1306.12,-474.48 1275.08,-431.3 1264,-389 1260.51,-375.672 1257.7,-370.251 1264,-358 1271.08,-344.247 1284.52,-333.766 1297.18,-326.394"/>
<polygon fill="midnightblue" stroke="midnightblue" points="1299,-329.389 1306.15,-321.573 1295.69,-323.222 1299,-329.389"/>
</g>
<!-- Node43 -->
<g id="node43" class="node"><title>Node43</title>
<g id="a_node43"><a xlink:href="a00086.html" target="_top" xlink:title="gepetto/viewer/group\l&#45;node.h">
<polygon fill="white" stroke="black" points="1273.5,-358.5 1273.5,-388.5 1380.5,-388.5 1380.5,-358.5 1273.5,-358.5"/>
<text text-anchor="start" x="1281.5" y="-376.5" font-family="Helvetica,sans-Serif" font-size="10.00">gepetto/viewer/group</text>
<text text-anchor="middle" x="1327" y="-365.5" font-family="Helvetica,sans-Serif" font-size="10.00">&#45;node.h</text>
</a>
</g>
</g>
<!-- Node1&#45;&gt;Node43 -->
<g id="edge49" class="edge"><title>Node1&#45;&gt;Node43</title>
<path fill="none" stroke="midnightblue" d="M1327,-492.305C1327,-473.298 1327,-427.47 1327,-398.9"/>
<polygon fill="midnightblue" stroke="midnightblue" points="1330.5,-398.888 1327,-388.888 1323.5,-398.888 1330.5,-398.888"/>
</g>
<!-- Node44 -->
<g id="node44" class="node"><title>Node44</title>
<g id="a_node44"><a xlink:href="a00100.html" target="_top" xlink:title="gepetto/viewer/leaf\l&#45;node&#45;xyzaxis.h">
<polygon fill="white" stroke="black" points="1391.5,-425.5 1391.5,-455.5 1490.5,-455.5 1490.5,-425.5 1391.5,-425.5"/>
<text text-anchor="start" x="1399.5" y="-443.5" font-family="Helvetica,sans-Serif" font-size="10.00">gepetto/viewer/leaf</text>
<text text-anchor="middle" x="1441" y="-432.5" font-family="Helvetica,sans-Serif" font-size="10.00">&#45;node&#45;xyzaxis.h</text>
</a>
</g>
</g>
<!-- Node1&#45;&gt;Node44 -->
<g id="edge51" class="edge"><title>Node1&#45;&gt;Node44</title>
<path fill="none" stroke="midnightblue" d="M1343.33,-492.475C1359.42,-484.078 1384.53,-470.973 1405.26,-460.153"/>
<polygon fill="midnightblue" stroke="midnightblue" points="1406.89,-463.253 1414.13,-455.523 1403.65,-457.047 1406.89,-463.253"/>
</g>
<!-- Node47 -->
<g id="node47" class="node"><title>Node47</title>
<g id="a_node47"><a xlink:href="a00097.html" target="_top" xlink:title="gepetto/viewer/leaf\l&#45;node&#45;line.h">
<polygon fill="white" stroke="black" points="1508.5,-425.5 1508.5,-455.5 1607.5,-455.5 1607.5,-425.5 1508.5,-425.5"/>
<text text-anchor="start" x="1516.5" y="-443.5" font-family="Helvetica,sans-Serif" font-size="10.00">gepetto/viewer/leaf</text>
<text text-anchor="middle" x="1558" y="-432.5" font-family="Helvetica,sans-Serif" font-size="10.00">&#45;node&#45;line.h</text>
</a>
</g>
</g>
<!-- Node1&#45;&gt;Node47 -->
<g id="edge55" class="edge"><title>Node1&#45;&gt;Node47</title>
<path fill="none" stroke="midnightblue" d="M1360.1,-492.475C1396.17,-483.184 1454.61,-468.131 1498.65,-456.786"/>
<polygon fill="midnightblue" stroke="midnightblue" points="1499.57,-460.163 1508.38,-454.28 1497.83,-453.385 1499.57,-460.163"/>
</g>
<!-- Node4 -->
<g id="node4" class="node"><title>Node4</title>
<polygon fill="white" stroke="#bfbfbf" points="1242,-174 1242,-193 1296,-193 1296,-174 1242,-174"/>
<text text-anchor="middle" x="1269" y="-181" font-family="Helvetica,sans-Serif" font-size="10.00">iostream</text>
</g>
<!-- Node3&#45;&gt;Node4 -->
<g id="edge3" class="edge"><title>Node3&#45;&gt;Node4</title>
<path fill="none" stroke="midnightblue" d="M1307.09,-302.41C1292.78,-295.04 1274.54,-282.916 1266,-266 1256.05,-246.301 1259.33,-220.379 1263.42,-203.113"/>
<polygon fill="midnightblue" stroke="midnightblue" points="1266.87,-203.735 1266.09,-193.17 1260.11,-201.919 1266.87,-203.735"/>
</g>
<!-- Node5 -->
<g id="node5" class="node"><title>Node5</title>
<g id="a_node5"><a xlink:href="a00084.html" target="_top" xlink:title="gepetto/viewer/fwd.h">
<polygon fill="white" stroke="black" points="82.5,-112.5 82.5,-131.5 189.5,-131.5 189.5,-112.5 82.5,-112.5"/>
<text text-anchor="middle" x="136" y="-119.5" font-family="Helvetica,sans-Serif" font-size="10.00">gepetto/viewer/fwd.h</text>
</a>
</g>
</g>
<!-- Node3&#45;&gt;Node5 -->
<g id="edge4" class="edge"><title>Node3&#45;&gt;Node5</title>
<path fill="none" stroke="midnightblue" d="M1273.12,-302.495C1078.1,-271.71 409.451,-166.164 199.562,-133.033"/>
<polygon fill="midnightblue" stroke="midnightblue" points="200.047,-129.567 189.623,-131.464 198.955,-136.481 200.047,-129.567"/>
</g>
<!-- Node10 -->
<g id="node10" class="node"><title>Node10</title>
<g id="a_node10"><a xlink:href="a00108.html" target="_top" xlink:title="gepetto/viewer/node\l&#45;visitor.h">
<polygon fill="white" stroke="black" points="1275,-235.5 1275,-265.5 1379,-265.5 1379,-235.5 1275,-235.5"/>
<text text-anchor="start" x="1283" y="-253.5" font-family="Helvetica,sans-Serif" font-size="10.00">gepetto/viewer/node</text>
<text text-anchor="middle" x="1327" y="-242.5" font-family="Helvetica,sans-Serif" font-size="10.00">&#45;visitor.h</text>
</a>
</g>
</g>
<!-- Node3&#45;&gt;Node10 -->
<g id="edge9" class="edge"><title>Node3&#45;&gt;Node10</title>
<path fill="none" stroke="midnightblue" d="M1327,-302.475C1327,-295.471 1327,-285.192 1327,-275.696"/>
<polygon fill="midnightblue" stroke="midnightblue" points="1330.5,-275.523 1327,-265.523 1323.5,-275.523 1330.5,-275.523"/>
</g>
<!-- Node11 -->
<g id="node11" class="node"><title>Node11</title>
<g id="a_node11"><a xlink:href="a00080.html" target="_top" xlink:title="gepetto/viewer/config\l&#45;osg.h">
<polygon fill="white" stroke="black" points="1352,-168.5 1352,-198.5 1462,-198.5 1462,-168.5 1352,-168.5"/>
<text text-anchor="start" x="1360" y="-186.5" font-family="Helvetica,sans-Serif" font-size="10.00">gepetto/viewer/config</text>
<text text-anchor="middle" x="1407" y="-175.5" font-family="Helvetica,sans-Serif" font-size="10.00">&#45;osg.h</text>
</a>
</g>
</g>
<!-- Node3&#45;&gt;Node11 -->
<g id="edge48" class="edge"><title>Node3&#45;&gt;Node11</title>
<path fill="none" stroke="midnightblue" d="M1344.69,-302.417C1358.58,-294.767 1377.29,-282.269 1388,-266 1399.2,-248.977 1403.84,-226.139 1405.73,-208.971"/>
<polygon fill="midnightblue" stroke="midnightblue" points="1409.25,-208.889 1406.62,-198.625 1402.28,-208.287 1409.25,-208.889"/>
</g>
<!-- Node39 -->
<g id="node39" class="node"><title>Node39</title>
<g id="a_node39"><a xlink:href="a00106.html" target="_top" xlink:title="gepetto/viewer/node\l&#45;property.h">
<polygon fill="white" stroke="black" points="1435,-235.5 1435,-265.5 1539,-265.5 1539,-235.5 1435,-235.5"/>
<text text-anchor="start" x="1443" y="-253.5" font-family="Helvetica,sans-Serif" font-size="10.00">gepetto/viewer/node</text>
<text text-anchor="middle" x="1487" y="-242.5" font-family="Helvetica,sans-Serif" font-size="10.00">&#45;property.h</text>
</a>
</g>
</g>
<!-- Node3&#45;&gt;Node39 -->
<g id="edge41" class="edge"><title>Node3&#45;&gt;Node39</title>
<path fill="none" stroke="midnightblue" d="M1349.92,-302.475C1373.21,-293.814 1409.97,-280.145 1439.56,-269.141"/>
<polygon fill="midnightblue" stroke="midnightblue" points="1441.14,-272.289 1449.29,-265.523 1438.7,-265.728 1441.14,-272.289"/>
</g>
<!-- Node6 -->
<g id="node6" class="node"><title>Node6</title>
<g id="a_node6"><a xlink:href="a00102.html" target="_top" xlink:title="gepetto/viewer/macros.h">
<polygon fill="white" stroke="black" points="115,-56.5 115,-75.5 239,-75.5 239,-56.5 115,-56.5"/>
<text text-anchor="middle" x="177" y="-63.5" font-family="Helvetica,sans-Serif" font-size="10.00">gepetto/viewer/macros.h</text>
</a>
</g>
</g>
<!-- Node5&#45;&gt;Node6 -->
<g id="edge5" class="edge"><title>Node5&#45;&gt;Node6</title>
<path fill="none" stroke="midnightblue" d="M142.77,-112.083C148.562,-104.455 157.058,-93.2645 164.138,-83.9408"/>
<polygon fill="midnightblue" stroke="midnightblue" points="167.096,-85.8321 170.356,-75.7511 161.521,-81.5991 167.096,-85.8321"/>
</g>
<!-- Node7 -->
<g id="node7" class="node"><title>Node7</title>
<polygon fill="white" stroke="#bfbfbf" points="0,-0.5 0,-19.5 108,-19.5 108,-0.5 0,-0.5"/>
<text text-anchor="middle" x="54" y="-7.5" font-family="Helvetica,sans-Serif" font-size="10.00">boost/shared_ptr.hpp</text>
</g>
<!-- Node6&#45;&gt;Node7 -->
<g id="edge6" class="edge"><title>Node6&#45;&gt;Node7</title>
<path fill="none" stroke="midnightblue" d="M157.51,-56.4435C137.358,-47.5961 105.677,-33.6875 82.6692,-23.5865"/>
<polygon fill="midnightblue" stroke="midnightblue" points="83.962,-20.3316 73.3985,-19.5164 81.148,-26.7411 83.962,-20.3316"/>
</g>
<!-- Node8 -->
<g id="node8" class="node"><title>Node8</title>
<polygon fill="white" stroke="#bfbfbf" points="126,-0.5 126,-19.5 228,-19.5 228,-0.5 126,-0.5"/>
<text text-anchor="middle" x="177" y="-7.5" font-family="Helvetica,sans-Serif" font-size="10.00">boost/weak_ptr.hpp</text>
</g>
<!-- Node6&#45;&gt;Node8 -->
<g id="edge7" class="edge"><title>Node6&#45;&gt;Node8</title>
<path fill="none" stroke="midnightblue" d="M177,-56.083C177,-49.0059 177,-38.8611 177,-29.9865"/>
<polygon fill="midnightblue" stroke="midnightblue" points="180.5,-29.751 177,-19.7511 173.5,-29.7511 180.5,-29.751"/>
</g>
<!-- Node9 -->
<g id="node9" class="node"><title>Node9</title>
<polygon fill="white" stroke="#bfbfbf" points="246.5,-0.5 246.5,-19.5 309.5,-19.5 309.5,-0.5 246.5,-0.5"/>
<text text-anchor="middle" x="278" y="-7.5" font-family="Helvetica,sans-Serif" font-size="10.00">osg/ref_ptr</text>
</g>
<!-- Node6&#45;&gt;Node9 -->
<g id="edge8" class="edge"><title>Node6&#45;&gt;Node9</title>
<path fill="none" stroke="midnightblue" d="M193.227,-56.324C209.351,-47.7034 234.3,-34.3643 252.964,-24.3855"/>
<polygon fill="midnightblue" stroke="midnightblue" points="254.644,-27.456 261.813,-19.6545 251.344,-21.283 254.644,-27.456"/>
</g>
<!-- Node10&#45;&gt;Node4 -->
<g id="edge10" class="edge"><title>Node10&#45;&gt;Node4</title>
<path fill="none" stroke="midnightblue" d="M1314.41,-235.396C1305.37,-225.261 1293.15,-211.567 1283.67,-200.937"/>
<polygon fill="midnightblue" stroke="midnightblue" points="1286.03,-198.326 1276.76,-193.195 1280.8,-202.986 1286.03,-198.326"/>
</g>
<!-- Node10&#45;&gt;Node11 -->
<g id="edge11" class="edge"><title>Node10&#45;&gt;Node11</title>
<path fill="none" stroke="midnightblue" d="M1344.36,-235.396C1355.26,-226.538 1369.51,-214.96 1381.66,-205.086"/>
<polygon fill="midnightblue" stroke="midnightblue" points="1384.12,-207.599 1389.68,-198.577 1379.71,-202.166 1384.12,-207.599"/>
</g>
<!-- Node11&#45;&gt;Node5 -->
<g id="edge39" class="edge"><title>Node11&#45;&gt;Node5</title>
<path fill="none" stroke="midnightblue" d="M1351.78,-170.006C1347.14,-169.226 1342.5,-168.54 1338,-168 837.338,-107.918 706.573,-173.133 204,-132 202.698,-131.893 201.383,-131.78 200.058,-131.659"/>
<polygon fill="midnightblue" stroke="midnightblue" points="200.07,-128.142 189.769,-130.62 199.366,-135.107 200.07,-128.142"/>
</g>
<!-- Node11&#45;&gt;Node6 -->
<g id="edge40" class="edge"><title>Node11&#45;&gt;Node6</title>
<path fill="none" stroke="midnightblue" d="M1351.78,-170.011C1347.13,-169.23 1342.5,-168.542 1338,-168 1216.48,-153.359 348.306,-182.917 237,-132 215.257,-122.054 197.769,-100.165 187.403,-84.5379"/>
<polygon fill="midnightblue" stroke="midnightblue" points="190.181,-82.3811 181.894,-75.7799 184.255,-86.1081 190.181,-82.3811"/>
</g>
<!-- Node12 -->
<g id="node12" class="node"><title>Node12</title>
<polygon fill="white" stroke="#bfbfbf" points="246,-112.5 246,-131.5 314,-131.5 314,-112.5 246,-112.5"/>
<text text-anchor="middle" x="280" y="-119.5" font-family="Helvetica,sans-Serif" font-size="10.00">QMetaType</text>
</g>
<!-- Node11&#45;&gt;Node12 -->
<g id="edge12" class="edge"><title>Node11&#45;&gt;Node12</title>
<path fill="none" stroke="midnightblue" d="M1351.78,-170.024C1347.13,-169.24 1342.5,-168.548 1338,-168 893.203,-113.784 772.859,-185.372 324.165,-131.908"/>
<polygon fill="midnightblue" stroke="midnightblue" points="324.527,-128.426 314.18,-130.704 323.689,-135.376 324.527,-128.426"/>
</g>
<!-- Node13 -->
<g id="node13" class="node"><title>Node13</title>
<polygon fill="white" stroke="#bfbfbf" points="332.5,-112.5 332.5,-131.5 395.5,-131.5 395.5,-112.5 332.5,-112.5"/>
<text text-anchor="middle" x="364" y="-119.5" font-family="Helvetica,sans-Serif" font-size="10.00">osg/Shape</text>
</g>
<!-- Node11&#45;&gt;Node13 -->
<g id="edge13" class="edge"><title>Node11&#45;&gt;Node13</title>
<path fill="none" stroke="midnightblue" d="M1351.78,-170.04C1347.13,-169.252 1342.49,-168.555 1338,-168 929.47,-117.559 818.401,-183.614 405.8,-131.823"/>
<polygon fill="midnightblue" stroke="midnightblue" points="406.048,-128.327 395.687,-130.538 405.166,-135.271 406.048,-128.327"/>
</g>
<!-- Node14 -->
<g id="node14" class="node"><title>Node14</title>
<polygon fill="white" stroke="#bfbfbf" points="414,-112.5 414,-131.5 518,-131.5 518,-112.5 414,-112.5"/>
<text text-anchor="middle" x="466" y="-119.5" font-family="Helvetica,sans-Serif" font-size="10.00">osg/ShapeDrawable</text>
</g>
<!-- Node11&#45;&gt;Node14 -->
<g id="edge14" class="edge"><title>Node11&#45;&gt;Node14</title>
<path fill="none" stroke="midnightblue" d="M1351.77,-170.068C1347.13,-169.275 1342.49,-168.568 1338,-168 983.37,-123.17 887.923,-165.574 528.371,-132.022"/>
<polygon fill="midnightblue" stroke="midnightblue" points="528.486,-128.518 518.201,-131.06 527.826,-135.487 528.486,-128.518"/>
</g>
<!-- Node15 -->
<g id="node15" class="node"><title>Node15</title>
<polygon fill="white" stroke="#bfbfbf" points="536,-112.5 536,-131.5 614,-131.5 614,-112.5 536,-112.5"/>
<text text-anchor="middle" x="575" y="-119.5" font-family="Helvetica,sans-Serif" font-size="10.00">osg/Geometry</text>
</g>
<!-- Node11&#45;&gt;Node15 -->
<g id="edge15" class="edge"><title>Node11&#45;&gt;Node15</title>
<path fill="none" stroke="midnightblue" d="M1351.77,-170.098C1347.13,-169.298 1342.49,-168.581 1338,-168 1025.84,-127.596 940.794,-168.506 624.609,-132.018"/>
<polygon fill="midnightblue" stroke="midnightblue" points="624.566,-128.489 614.226,-130.801 623.751,-135.441 624.566,-128.489"/>
</g>
<!-- Node16 -->
<g id="node16" class="node"><title>Node16</title>
<polygon fill="white" stroke="#bfbfbf" points="632,-112.5 632,-131.5 696,-131.5 696,-112.5 632,-112.5"/>
<text text-anchor="middle" x="664" y="-119.5" font-family="Helvetica,sans-Serif" font-size="10.00">osg/Geode</text>
</g>
<!-- Node11&#45;&gt;Node16 -->
<g id="edge16" class="edge"><title>Node11&#45;&gt;Node16</title>
<path fill="none" stroke="midnightblue" d="M1351.76,-170.129C1347.12,-169.322 1342.49,-168.596 1338,-168 1061.5,-131.309 985.288,-170.177 706.24,-132.116"/>
<polygon fill="midnightblue" stroke="midnightblue" points="706.612,-128.634 696.227,-130.729 705.652,-135.568 706.612,-128.634"/>
</g>
<!-- Node17 -->
<g id="node17" class="node"><title>Node17</title>
<polygon fill="white" stroke="#bfbfbf" points="713.5,-112.5 713.5,-131.5 862.5,-131.5 862.5,-112.5 713.5,-112.5"/>
<text text-anchor="middle" x="788" y="-119.5" font-family="Helvetica,sans-Serif" font-size="10.00">osg/PositionAttitudeTransform</text>
</g>
<!-- Node11&#45;&gt;Node17 -->
<g id="edge17" class="edge"><title>Node11&#45;&gt;Node17</title>
<path fill="none" stroke="midnightblue" d="M1351.75,-170.23C1347.11,-169.4 1342.48,-168.641 1338,-168 1135.58,-139.038 1080.56,-150.687 872.66,-132.025"/>
<polygon fill="midnightblue" stroke="midnightblue" points="872.92,-128.535 862.644,-131.114 872.285,-135.506 872.92,-128.535"/>
</g>
<!-- Node18 -->
<g id="node18" class="node"><title>Node18</title>
<polygon fill="white" stroke="#bfbfbf" points="881,-112.5 881,-131.5 981,-131.5 981,-112.5 881,-112.5"/>
<text text-anchor="middle" x="931" y="-119.5" font-family="Helvetica,sans-Serif" font-size="10.00">osg/AutoTransform</text>
</g>
<!-- Node11&#45;&gt;Node18 -->
<g id="edge18" class="edge"><title>Node11&#45;&gt;Node18</title>
<path fill="none" stroke="midnightblue" d="M1351.73,-170.357C1347.1,-169.5 1342.47,-168.7 1338,-168 1187.68,-144.495 1146.01,-151.411 991.53,-132.133"/>
<polygon fill="midnightblue" stroke="midnightblue" points="991.549,-128.607 981.189,-130.825 990.67,-135.552 991.549,-128.607"/>
</g>
<!-- Node19 -->
<g id="node19" class="node"><title>Node19</title>
<polygon fill="white" stroke="#bfbfbf" points="999.5,-112.5 999.5,-131.5 1106.5,-131.5 1106.5,-112.5 999.5,-112.5"/>
<text text-anchor="middle" x="1053" y="-119.5" font-family="Helvetica,sans-Serif" font-size="10.00">osg/MatrixTransform</text>
</g>
<!-- Node11&#45;&gt;Node19 -->
<g id="edge19" class="edge"><title>Node11&#45;&gt;Node19</title>
<path fill="none" stroke="midnightblue" d="M1351.69,-170.62C1347.06,-169.704 1342.45,-168.819 1338,-168 1296.74,-160.412 1187.45,-143.487 1116.82,-132.693"/>
<polygon fill="midnightblue" stroke="midnightblue" points="1117.11,-129.196 1106.7,-131.147 1116.05,-136.116 1117.11,-129.196"/>
</g>
<!-- Node20 -->
<g id="node20" class="node"><title>Node20</title>
<polygon fill="white" stroke="#bfbfbf" points="1124.5,-112.5 1124.5,-131.5 1183.5,-131.5 1183.5,-112.5 1124.5,-112.5"/>
<text text-anchor="middle" x="1154" y="-119.5" font-family="Helvetica,sans-Serif" font-size="10.00">osg/Node</text>
</g>
<!-- Node11&#45;&gt;Node20 -->
<g id="edge20" class="edge"><title>Node11&#45;&gt;Node20</title>
<path fill="none" stroke="midnightblue" d="M1351.79,-169.516C1304.11,-158.302 1236.36,-142.369 1193.81,-132.363"/>
<polygon fill="midnightblue" stroke="midnightblue" points="1194.36,-128.897 1183.83,-130.015 1192.76,-135.711 1194.36,-128.897"/>
</g>
<!-- Node21 -->
<g id="node21" class="node"><title>Node21</title>
<polygon fill="white" stroke="#bfbfbf" points="1202,-112.5 1202,-131.5 1264,-131.5 1264,-112.5 1202,-112.5"/>
<text text-anchor="middle" x="1233" y="-119.5" font-family="Helvetica,sans-Serif" font-size="10.00">osg/Group</text>
</g>
<!-- Node11&#45;&gt;Node21 -->
<g id="edge21" class="edge"><title>Node11&#45;&gt;Node21</title>
<path fill="none" stroke="midnightblue" d="M1365.76,-168.399C1335.83,-158.163 1295.79,-144.47 1267.53,-134.808"/>
<polygon fill="midnightblue" stroke="midnightblue" points="1268.66,-131.495 1258.06,-131.571 1266.39,-138.118 1268.66,-131.495"/>
</g>
<!-- Node22 -->
<g id="node22" class="node"><title>Node22</title>
<polygon fill="white" stroke="#bfbfbf" points="1282.5,-112.5 1282.5,-131.5 1347.5,-131.5 1347.5,-112.5 1282.5,-112.5"/>
<text text-anchor="middle" x="1315" y="-119.5" font-family="Helvetica,sans-Serif" font-size="10.00">osg/Switch</text>
</g>
<!-- Node11&#45;&gt;Node22 -->
<g id="edge22" class="edge"><title>Node11&#45;&gt;Node22</title>
<path fill="none" stroke="midnightblue" d="M1385.2,-168.399C1370.59,-158.951 1351.43,-146.559 1336.82,-137.109"/>
<polygon fill="midnightblue" stroke="midnightblue" points="1338.68,-134.15 1328.39,-131.658 1334.88,-140.027 1338.68,-134.15"/>
</g>
<!-- Node23 -->
<g id="node23" class="node"><title>Node23</title>
<polygon fill="white" stroke="#bfbfbf" points="1366,-112.5 1366,-131.5 1448,-131.5 1448,-112.5 1366,-112.5"/>
<text text-anchor="middle" x="1407" y="-119.5" font-family="Helvetica,sans-Serif" font-size="10.00">osg/ClearNode</text>
</g>
<!-- Node11&#45;&gt;Node23 -->
<g id="edge23" class="edge"><title>Node11&#45;&gt;Node23</title>
<path fill="none" stroke="midnightblue" d="M1407,-168.399C1407,-160.466 1407,-150.458 1407,-141.858"/>
<polygon fill="midnightblue" stroke="midnightblue" points="1410.5,-141.658 1407,-131.658 1403.5,-141.658 1410.5,-141.658"/>
</g>
<!-- Node24 -->
<g id="node24" class="node"><title>Node24</title>
<polygon fill="white" stroke="#bfbfbf" points="1466.5,-112.5 1466.5,-131.5 1545.5,-131.5 1545.5,-112.5 1466.5,-112.5"/>
<text text-anchor="middle" x="1506" y="-119.5" font-family="Helvetica,sans-Serif" font-size="10.00">osg/LineWidth</text>
</g>
<!-- Node11&#45;&gt;Node24 -->
<g id="edge24" class="edge"><title>Node11&#45;&gt;Node24</title>
<path fill="none" stroke="midnightblue" d="M1430.46,-168.399C1446.33,-158.862 1467.19,-146.325 1482.97,-136.842"/>
<polygon fill="midnightblue" stroke="midnightblue" points="1484.83,-139.809 1491.59,-131.658 1481.22,-133.809 1484.83,-139.809"/>
</g>
<!-- Node25 -->
<g id="node25" class="node"><title>Node25</title>
<polygon fill="white" stroke="#bfbfbf" points="1564,-112.5 1564,-131.5 1646,-131.5 1646,-112.5 1564,-112.5"/>
<text text-anchor="middle" x="1605" y="-119.5" font-family="Helvetica,sans-Serif" font-size="10.00">osg/AlphaFunc</text>
</g>
<!-- Node11&#45;&gt;Node25 -->
<g id="edge25" class="edge"><title>Node11&#45;&gt;Node25</title>
<path fill="none" stroke="midnightblue" d="M1453.67,-168.475C1488.13,-158.12 1534.46,-144.199 1566.74,-134.498"/>
<polygon fill="midnightblue" stroke="midnightblue" points="1568.12,-137.736 1576.69,-131.506 1566.11,-131.032 1568.12,-137.736"/>
</g>
<!-- Node26 -->
<g id="node26" class="node"><title>Node26</title>
<polygon fill="white" stroke="#bfbfbf" points="1664,-112.5 1664,-131.5 1746,-131.5 1746,-112.5 1664,-112.5"/>
<text text-anchor="middle" x="1705" y="-119.5" font-family="Helvetica,sans-Serif" font-size="10.00">osg/BlendFunc</text>
</g>
<!-- Node11&#45;&gt;Node26 -->
<g id="edge26" class="edge"><title>Node11&#45;&gt;Node26</title>
<path fill="none" stroke="midnightblue" d="M1462.3,-170.052C1465.58,-169.348 1468.83,-168.659 1472,-168 1534.38,-155.021 1606.42,-141.301 1653.69,-132.472"/>
<polygon fill="midnightblue" stroke="midnightblue" points="1654.49,-135.883 1663.68,-130.609 1653.21,-129.001 1654.49,-135.883"/>
</g>
<!-- Node27 -->
<g id="node27" class="node"><title>Node27</title>
<polygon fill="white" stroke="#bfbfbf" points="1764,-112.5 1764,-131.5 1838,-131.5 1838,-112.5 1764,-112.5"/>
<text text-anchor="middle" x="1801" y="-119.5" font-family="Helvetica,sans-Serif" font-size="10.00">osg/StateSet</text>
</g>
<!-- Node11&#45;&gt;Node27 -->
<g id="edge27" class="edge"><title>Node11&#45;&gt;Node27</title>
<path fill="none" stroke="midnightblue" d="M1462.25,-169.809C1465.54,-169.166 1468.81,-168.557 1472,-168 1593.73,-146.728 1628.09,-151.897 1753.86,-132.083"/>
<polygon fill="midnightblue" stroke="midnightblue" points="1754.56,-135.516 1763.88,-130.483 1753.45,-128.604 1754.56,-135.516"/>
</g>
<!-- Node28 -->
<g id="node28" class="node"><title>Node28</title>
<polygon fill="white" stroke="#bfbfbf" points="1856,-112.5 1856,-131.5 1918,-131.5 1918,-112.5 1856,-112.5"/>
<text text-anchor="middle" x="1887" y="-119.5" font-family="Helvetica,sans-Serif" font-size="10.00">osg/Depth</text>
</g>
<!-- Node11&#45;&gt;Node28 -->
<g id="edge28" class="edge"><title>Node11&#45;&gt;Node28</title>
<path fill="none" stroke="midnightblue" d="M1462.23,-169.692C1465.53,-169.078 1468.8,-168.508 1472,-168 1634.13,-142.236 1679.89,-157.793 1845.58,-132.039"/>
<polygon fill="midnightblue" stroke="midnightblue" points="1846.3,-135.469 1855.63,-130.45 1845.21,-128.555 1846.3,-135.469"/>
</g>
<!-- Node29 -->
<g id="node29" class="node"><title>Node29</title>
<polygon fill="white" stroke="#bfbfbf" points="1936.5,-112.5 1936.5,-131.5 1995.5,-131.5 1995.5,-112.5 1936.5,-112.5"/>
<text text-anchor="middle" x="1966" y="-119.5" font-family="Helvetica,sans-Serif" font-size="10.00">osg/State</text>
</g>
<!-- Node11&#45;&gt;Node29 -->
<g id="edge29" class="edge"><title>Node11&#45;&gt;Node29</title>
<path fill="none" stroke="midnightblue" d="M1462.22,-169.628C1465.52,-169.031 1468.8,-168.481 1472,-168 1669.37,-138.328 1724.74,-162.098 1926.26,-131.865"/>
<polygon fill="midnightblue" stroke="midnightblue" points="1926.92,-135.305 1936.28,-130.336 1925.86,-128.385 1926.92,-135.305"/>
</g>
<!-- Node30 -->
<g id="node30" class="node"><title>Node30</title>
<polygon fill="white" stroke="#bfbfbf" points="2014,-112.5 2014,-131.5 2070,-131.5 2070,-112.5 2014,-112.5"/>
<text text-anchor="middle" x="2042" y="-119.5" font-family="Helvetica,sans-Serif" font-size="10.00">osg/Light</text>
</g>
<!-- Node11&#45;&gt;Node30 -->
<g id="edge30" class="edge"><title>Node11&#45;&gt;Node30</title>
<path fill="none" stroke="midnightblue" d="M1462.21,-169.584C1465.52,-168.998 1468.8,-168.463 1472,-168 1703.78,-134.519 1768.58,-167.27 2003.93,-131.892"/>
<polygon fill="midnightblue" stroke="midnightblue" points="2004.46,-135.352 2013.82,-130.382 2003.4,-128.432 2004.46,-135.352"/>
</g>
<!-- Node31 -->
<g id="node31" class="node"><title>Node31</title>
<polygon fill="white" stroke="#bfbfbf" points="2088.5,-112.5 2088.5,-131.5 2175.5,-131.5 2175.5,-112.5 2088.5,-112.5"/>
<text text-anchor="middle" x="2132" y="-119.5" font-family="Helvetica,sans-Serif" font-size="10.00">osg/LightSource</text>
</g>
<!-- Node11&#45;&gt;Node31 -->
<g id="edge31" class="edge"><title>Node11&#45;&gt;Node31</title>
<path fill="none" stroke="midnightblue" d="M1462.21,-169.553C1465.51,-168.975 1468.79,-168.45 1472,-168 1736.36,-130.917 1808.73,-161.892 2078.3,-131.933"/>
<polygon fill="midnightblue" stroke="midnightblue" points="2078.84,-135.394 2088.38,-130.794 2078.05,-128.439 2078.84,-135.394"/>
</g>
<!-- Node32 -->
<g id="node32" class="node"><title>Node32</title>
<polygon fill="white" stroke="#bfbfbf" points="2194,-112.5 2194,-131.5 2264,-131.5 2264,-112.5 2194,-112.5"/>
<text text-anchor="middle" x="2229" y="-119.5" font-family="Helvetica,sans-Serif" font-size="10.00">osg/Material</text>
</g>
<!-- Node11&#45;&gt;Node32 -->
<g id="edge32" class="edge"><title>Node11&#45;&gt;Node32</title>
<path fill="none" stroke="midnightblue" d="M1462.2,-169.519C1465.51,-168.949 1468.79,-168.436 1472,-168 1783.03,-125.765 1868.4,-170.915 2183.2,-132.031"/>
<polygon fill="midnightblue" stroke="midnightblue" points="2184.05,-135.451 2193.54,-130.734 2183.18,-128.506 2184.05,-135.451"/>
</g>
<!-- Node33 -->
<g id="node33" class="node"><title>Node33</title>
<polygon fill="white" stroke="#bfbfbf" points="2282,-112.5 2282,-131.5 2352,-131.5 2352,-112.5 2282,-112.5"/>
<text text-anchor="middle" x="2317" y="-119.5" font-family="Helvetica,sans-Serif" font-size="10.00">osg/Camera</text>
</g>
<!-- Node11&#45;&gt;Node33 -->
<g id="edge33" class="edge"><title>Node11&#45;&gt;Node33</title>
<path fill="none" stroke="midnightblue" d="M1462.2,-169.498C1465.51,-168.934 1468.79,-168.427 1472,-168 1821.97,-121.463 1917.58,-174.833 2271.53,-131.98"/>
<polygon fill="midnightblue" stroke="midnightblue" points="2272.04,-135.444 2281.54,-130.751 2271.19,-128.496 2272.04,-135.444"/>
</g>
<!-- Node34 -->
<g id="node34" class="node"><title>Node34</title>
<polygon fill="white" stroke="#bfbfbf" points="2370,-112.5 2370,-131.5 2444,-131.5 2444,-112.5 2370,-112.5"/>
<text text-anchor="middle" x="2407" y="-119.5" font-family="Helvetica,sans-Serif" font-size="10.00">osg/Viewport</text>
</g>
<!-- Node11&#45;&gt;Node34 -->
<g id="edge34" class="edge"><title>Node11&#45;&gt;Node34</title>
<path fill="none" stroke="midnightblue" d="M1462.2,-169.481C1465.5,-168.921 1468.79,-168.42 1472,-168 1860.84,-117.172 1966.51,-177.088 2359.98,-131.916"/>
<polygon fill="midnightblue" stroke="midnightblue" points="2360.39,-135.392 2369.92,-130.759 2359.58,-128.439 2360.39,-135.392"/>
</g>
<!-- Node35 -->
<g id="node35" class="node"><title>Node35</title>
<polygon fill="white" stroke="#bfbfbf" points="2462.5,-112.5 2462.5,-131.5 2557.5,-131.5 2557.5,-112.5 2462.5,-112.5"/>
<text text-anchor="middle" x="2510" y="-119.5" font-family="Helvetica,sans-Serif" font-size="10.00">osgViewer/Viewer</text>
</g>
<!-- Node11&#45;&gt;Node35 -->
<g id="edge35" class="edge"><title>Node11&#45;&gt;Node35</title>
<path fill="none" stroke="midnightblue" d="M1462.2,-169.466C1465.5,-168.91 1468.79,-168.414 1472,-168 1901.44,-112.693 2017,-173.169 2452.45,-131.904"/>
<polygon fill="midnightblue" stroke="midnightblue" points="2452.85,-135.381 2462.47,-130.942 2452.18,-128.413 2452.85,-135.381"/>
</g>
<!-- Node36 -->
<g id="node36" class="node"><title>Node36</title>
<polygon fill="white" stroke="#bfbfbf" points="2576,-112.5 2576,-131.5 2694,-131.5 2694,-112.5 2576,-112.5"/>
<text text-anchor="middle" x="2635" y="-119.5" font-family="Helvetica,sans-Serif" font-size="10.00">osgViewer/ViewerBase</text>
</g>
<!-- Node11&#45;&gt;Node36 -->
<g id="edge36" class="edge"><title>Node11&#45;&gt;Node36</title>
<path fill="none" stroke="midnightblue" d="M1462.19,-169.452C1465.5,-168.899 1468.79,-168.407 1472,-168 1951.76,-107.144 2079.97,-171.107 2565.62,-132.021"/>
<polygon fill="midnightblue" stroke="midnightblue" points="2566.02,-135.5 2575.7,-131.199 2565.45,-128.523 2566.02,-135.5"/>
</g>
<!-- Node37 -->
<g id="node37" class="node"><title>Node37</title>
<polygon fill="white" stroke="#bfbfbf" points="2712.5,-112.5 2712.5,-131.5 2821.5,-131.5 2821.5,-112.5 2712.5,-112.5"/>
<text text-anchor="middle" x="2767" y="-119.5" font-family="Helvetica,sans-Serif" font-size="10.00">osg/GraphicsContext</text>
</g>
<!-- Node11&#45;&gt;Node37 -->
<g id="edge37" class="edge"><title>Node11&#45;&gt;Node37</title>
<path fill="none" stroke="midnightblue" d="M1462.19,-169.438C1465.5,-168.889 1468.79,-168.402 1472,-168 2011.8,-100.522 2155.85,-177.233 2702.12,-131.955"/>
<polygon fill="midnightblue" stroke="midnightblue" points="2702.56,-135.431 2712.23,-131.107 2701.97,-128.455 2702.56,-135.431"/>
</g>
<!-- Node38 -->
<g id="node38" class="node"><title>Node38</title>
<polygon fill="white" stroke="#bfbfbf" points="2839.5,-112.5 2839.5,-131.5 2934.5,-131.5 2934.5,-112.5 2839.5,-112.5"/>
<text text-anchor="middle" x="2887" y="-119.5" font-family="Helvetica,sans-Serif" font-size="10.00">osg/PolygonMode</text>
</g>
<!-- Node11&#45;&gt;Node38 -->
<g id="edge38" class="edge"><title>Node11&#45;&gt;Node38</title>
<path fill="none" stroke="midnightblue" d="M1462.19,-169.427C1465.5,-168.881 1468.79,-168.397 1472,-168 2068.28,-94.2952 2227.61,-187.009 2829.16,-132.037"/>
<polygon fill="midnightblue" stroke="midnightblue" points="2829.76,-135.497 2839.4,-131.092 2829.12,-128.527 2829.76,-135.497"/>
</g>
<!-- Node39&#45;&gt;Node4 -->
<g id="edge43" class="edge"><title>Node39&#45;&gt;Node4</title>
<path fill="none" stroke="midnightblue" d="M1434.85,-235.537C1399.47,-225.837 1351.71,-212.31 1310,-199 1307.39,-198.168 1304.7,-197.281 1302,-196.371"/>
<polygon fill="midnightblue" stroke="midnightblue" points="1302.93,-192.987 1292.33,-193.033 1300.64,-199.604 1302.93,-192.987"/>
</g>
<!-- Node39&#45;&gt;Node5 -->
<g id="edge46" class="edge"><title>Node39&#45;&gt;Node5</title>
<path fill="none" stroke="midnightblue" d="M1434.82,-235.979C1406.62,-227.51 1371.77,-215.125 1343,-199 1323.99,-188.345 1325.41,-175.648 1305,-168 1190.59,-125.13 327.783,-141.801 206,-132 204.031,-131.842 202.032,-131.667 200.014,-131.48"/>
<polygon fill="midnightblue" stroke="midnightblue" points="200.134,-127.974 189.832,-130.446 199.427,-134.938 200.134,-127.974"/>
</g>
<!-- Node39&#45;&gt;Node11 -->
<g id="edge47" class="edge"><title>Node39&#45;&gt;Node11</title>
<path fill="none" stroke="midnightblue" d="M1469.64,-235.396C1458.74,-226.538 1444.49,-214.96 1432.34,-205.086"/>
<polygon fill="midnightblue" stroke="midnightblue" points="1434.29,-202.166 1424.32,-198.577 1429.88,-207.599 1434.29,-202.166"/>
</g>
<!-- Node40 -->
<g id="node40" class="node"><title>Node40</title>
<polygon fill="white" stroke="#bfbfbf" points="1480.5,-174 1480.5,-193 1515.5,-193 1515.5,-174 1480.5,-174"/>
<text text-anchor="middle" x="1498" y="-181" font-family="Helvetica,sans-Serif" font-size="10.00">map</text>
</g>
<!-- Node39&#45;&gt;Node40 -->
<g id="edge42" class="edge"><title>Node39&#45;&gt;Node40</title>
<path fill="none" stroke="midnightblue" d="M1489.39,-235.396C1490.98,-225.963 1493.1,-213.448 1494.84,-203.189"/>
<polygon fill="midnightblue" stroke="midnightblue" points="1498.31,-203.638 1496.53,-193.195 1491.41,-202.47 1498.31,-203.638"/>
</g>
<!-- Node41 -->
<g id="node41" class="node"><title>Node41</title>
<polygon fill="white" stroke="#bfbfbf" points="1534,-174 1534,-193 1614,-193 1614,-174 1534,-174"/>
<text text-anchor="middle" x="1574" y="-181" font-family="Helvetica,sans-Serif" font-size="10.00">boost/bind.hpp</text>
</g>
<!-- Node39&#45;&gt;Node41 -->
<g id="edge44" class="edge"><title>Node39&#45;&gt;Node41</title>
<path fill="none" stroke="midnightblue" d="M1505.88,-235.396C1520.11,-224.759 1539.6,-210.203 1554.08,-199.381"/>
<polygon fill="midnightblue" stroke="midnightblue" points="1556.45,-201.984 1562.36,-193.195 1552.26,-196.376 1556.45,-201.984"/>
</g>
<!-- Node42 -->
<g id="node42" class="node"><title>Node42</title>
<polygon fill="white" stroke="#bfbfbf" points="1632.5,-174 1632.5,-193 1729.5,-193 1729.5,-174 1632.5,-174"/>
<text text-anchor="middle" x="1681" y="-181" font-family="Helvetica,sans-Serif" font-size="10.00">boost/function.hpp</text>
</g>
<!-- Node39&#45;&gt;Node42 -->
<g id="edge45" class="edge"><title>Node39&#45;&gt;Node42</title>
<path fill="none" stroke="midnightblue" d="M1529.1,-235.396C1564.04,-223.688 1613.16,-207.231 1645.98,-196.234"/>
<polygon fill="midnightblue" stroke="midnightblue" points="1647.24,-199.503 1655.61,-193.007 1645.02,-192.865 1647.24,-199.503"/>
</g>
<!-- Node43&#45;&gt;Node3 -->
<g id="edge50" class="edge"><title>Node43&#45;&gt;Node3</title>
<path fill="none" stroke="midnightblue" d="M1327,-358.399C1327,-350.466 1327,-340.458 1327,-331.858"/>
<polygon fill="midnightblue" stroke="midnightblue" points="1330.5,-331.658 1327,-321.658 1323.5,-331.658 1330.5,-331.658"/>
</g>
<!-- Node45 -->
<g id="node45" class="node"><title>Node45</title>
<g id="a_node45"><a xlink:href="a00105.html" target="_top" xlink:title="gepetto/viewer/node\l&#45;drawable.h">
<polygon fill="white" stroke="black" points="1506,-358.5 1506,-388.5 1610,-388.5 1610,-358.5 1506,-358.5"/>
<text text-anchor="start" x="1514" y="-376.5" font-family="Helvetica,sans-Serif" font-size="10.00">gepetto/viewer/node</text>
<text text-anchor="middle" x="1558" y="-365.5" font-family="Helvetica,sans-Serif" font-size="10.00">&#45;drawable.h</text>
</a>
</g>
</g>
<!-- Node44&#45;&gt;Node45 -->
<g id="edge52" class="edge"><title>Node44&#45;&gt;Node45</title>
<path fill="none" stroke="midnightblue" d="M1466.39,-425.396C1483.18,-416.069 1505.39,-403.728 1523.74,-393.534"/>
<polygon fill="midnightblue" stroke="midnightblue" points="1525.62,-396.493 1532.66,-388.577 1522.22,-390.373 1525.62,-396.493"/>
</g>
<!-- Node46 -->
<g id="node46" class="node"><title>Node46</title>
<polygon fill="white" stroke="#bfbfbf" points="1398.5,-364 1398.5,-383 1487.5,-383 1487.5,-364 1398.5,-364"/>
<text text-anchor="middle" x="1443" y="-371" font-family="Helvetica,sans-Serif" font-size="10.00">osgDB/ReadFile</text>
</g>
<!-- Node44&#45;&gt;Node46 -->
<g id="edge54" class="edge"><title>Node44&#45;&gt;Node46</title>
<path fill="none" stroke="midnightblue" d="M1441.43,-425.396C1441.72,-416.064 1442.1,-403.714 1442.41,-393.517"/>
<polygon fill="midnightblue" stroke="midnightblue" points="1445.92,-393.297 1442.73,-383.195 1438.93,-393.082 1445.92,-393.297"/>
</g>
<!-- Node45&#45;&gt;Node3 -->
<g id="edge53" class="edge"><title>Node45&#45;&gt;Node3</title>
<path fill="none" stroke="midnightblue" d="M1505.87,-359.073C1464.83,-348.501 1408.32,-333.946 1369.88,-324.044"/>
<polygon fill="midnightblue" stroke="midnightblue" points="1370.58,-320.612 1360.03,-321.507 1368.84,-327.391 1370.58,-320.612"/>
</g>
<!-- Node47&#45;&gt;Node45 -->
<g id="edge56" class="edge"><title>Node47&#45;&gt;Node45</title>
<path fill="none" stroke="midnightblue" d="M1558,-425.396C1558,-417.645 1558,-407.812 1558,-398.86"/>
<polygon fill="midnightblue" stroke="midnightblue" points="1561.5,-398.576 1558,-388.577 1554.5,-398.577 1561.5,-398.576"/>
</g>
</g>
</svg>
