<?xml version="1.0" encoding="UTF-8" standalone="no"?>
<!DOCTYPE svg PUBLIC "-//W3C//DTD SVG 1.1//EN"
 "http://www.w3.org/Graphics/SVG/1.1/DTD/svg11.dtd">
<!-- Generated by graphviz version 2.38.0 (20140413.2041)
 -->
<!-- Title: macros.h Pages: 1 -->
<svg width="2415pt" height="420pt"
 viewBox="0.00 0.00 2415.08 420.00" xmlns="http://www.w3.org/2000/svg" xmlns:xlink="http://www.w3.org/1999/xlink">
<g id="graph0" class="graph" transform="scale(1 1) rotate(0) translate(4 416)">
<title>macros.h</title>
<polygon fill="white" stroke="none" points="-4,4 -4,-416 2411.08,-416 2411.08,4 -4,4"/>
<!-- Node1 -->
<g id="node1" class="node"><title>Node1</title>
<polygon fill="#bfbfbf" stroke="black" points="769.5,-392.5 769.5,-411.5 826.5,-411.5 826.5,-392.5 769.5,-392.5"/>
<text text-anchor="middle" x="798" y="-399.5" font-family="Helvetica,sans-Serif" font-size="10.00">macros.h</text>
</g>
<!-- Node2 -->
<g id="node2" class="node"><title>Node2</title>
<g id="a_node2"><a xlink:href="a00085.html" target="_top" xlink:title="fwd.hh">
<polygon fill="white" stroke="black" points="689,-168.5 689,-187.5 735,-187.5 735,-168.5 689,-168.5"/>
<text text-anchor="middle" x="712" y="-175.5" font-family="Helvetica,sans-Serif" font-size="10.00">fwd.hh</text>
</a>
</g>
</g>
<!-- Node1&#45;&gt;Node2 -->
<g id="edge1" class="edge"><title>Node1&#45;&gt;Node2</title>
<path fill="none" stroke="midnightblue" d="M781.092,-385.061C754.52,-358.714 704.054,-303.09 685,-244 678.325,-223.299 693.986,-199.96 704.149,-187.66"/>
<polygon fill="midnightblue" stroke="midnightblue" points="778.899,-387.81 788.509,-392.269 783.777,-382.79 778.899,-387.81"/>
</g>
<!-- Node15 -->
<g id="node15" class="node"><title>Node15</title>
<g id="a_node15"><a xlink:href="a00084.html" target="_top" xlink:title="fwd.h">
<polygon fill="white" stroke="black" points="871.5,-336.5 871.5,-355.5 912.5,-355.5 912.5,-336.5 871.5,-336.5"/>
<text text-anchor="middle" x="892" y="-343.5" font-family="Helvetica,sans-Serif" font-size="10.00">fwd.h</text>
</a>
</g>
</g>
<!-- Node1&#45;&gt;Node15 -->
<g id="edge15" class="edge"><title>Node1&#45;&gt;Node15</title>
<path fill="none" stroke="midnightblue" d="M822.062,-387.177C839.359,-377.241 862.148,-364.149 876.935,-355.655"/>
<polygon fill="midnightblue" stroke="midnightblue" points="820.03,-384.308 813.103,-392.324 823.517,-390.378 820.03,-384.308"/>
</g>
<!-- Node36 -->
<g id="node36" class="node"><title>Node36</title>
<g id="a_node36"><a xlink:href="a00080.html" target="_top" xlink:title="config&#45;osg.h">
<polygon fill="white" stroke="black" points="763,-280.5 763,-299.5 833,-299.5 833,-280.5 763,-280.5"/>
<text text-anchor="middle" x="798" y="-287.5" font-family="Helvetica,sans-Serif" font-size="10.00">config&#45;osg.h</text>
</a>
</g>
</g>
<!-- Node1&#45;&gt;Node36 -->
<g id="edge69" class="edge"><title>Node1&#45;&gt;Node36</title>
<path fill="none" stroke="midnightblue" d="M798,-382.348C798,-358.254 798,-317.308 798,-299.591"/>
<polygon fill="midnightblue" stroke="midnightblue" points="794.5,-382.368 798,-392.368 801.5,-382.369 794.5,-382.368"/>
</g>
<!-- Node3 -->
<g id="node3" class="node"><title>Node3</title>
<g id="a_node3"><a xlink:href="a00076.html" target="_top" xlink:title="action&#45;search&#45;bar.hh">
<polygon fill="white" stroke="black" points="578.5,-112.5 578.5,-131.5 683.5,-131.5 683.5,-112.5 578.5,-112.5"/>
<text text-anchor="middle" x="631" y="-119.5" font-family="Helvetica,sans-Serif" font-size="10.00">action&#45;search&#45;bar.hh</text>
</a>
</g>
</g>
<!-- Node2&#45;&gt;Node3 -->
<g id="edge2" class="edge"><title>Node2&#45;&gt;Node3</title>
<path fill="none" stroke="midnightblue" d="M690.433,-162.622C675.636,-152.757 656.488,-139.992 643.982,-131.655"/>
<polygon fill="midnightblue" stroke="midnightblue" points="688.724,-165.689 698.986,-168.324 692.607,-159.865 688.724,-165.689"/>
</g>
<!-- Node4 -->
<g id="node4" class="node"><title>Node4</title>
<g id="a_node4"><a xlink:href="a00078.html" target="_top" xlink:title="bodytreewidget.hh">
<polygon fill="white" stroke="black" points="377,-56.5 377,-75.5 473,-75.5 473,-56.5 377,-56.5"/>
<text text-anchor="middle" x="425" y="-63.5" font-family="Helvetica,sans-Serif" font-size="10.00">bodytreewidget.hh</text>
</a>
</g>
</g>
<!-- Node2&#45;&gt;Node4 -->
<g id="edge3" class="edge"><title>Node2&#45;&gt;Node4</title>
<path fill="none" stroke="midnightblue" d="M678.508,-168.498C596.433,-159.954 259.654,-167.352 227,-132 181.646,-82.8988 304.877,-70.8149 376.985,-67.892"/>
<polygon fill="midnightblue" stroke="midnightblue" points="678.324,-172.005 688.703,-169.881 679.265,-165.069 678.324,-172.005"/>
</g>
<!-- Node5 -->
<g id="node5" class="node"><title>Node5</title>
<g id="a_node5"><a xlink:href="a00103.html" target="_top" xlink:title="mainwindow.hh">
<polygon fill="white" stroke="black" points="864,-56.5 864,-75.5 948,-75.5 948,-56.5 864,-56.5"/>
<text text-anchor="middle" x="906" y="-63.5" font-family="Helvetica,sans-Serif" font-size="10.00">mainwindow.hh</text>
</a>
</g>
</g>
<!-- Node2&#45;&gt;Node5 -->
<g id="edge4" class="edge"><title>Node2&#45;&gt;Node5</title>
<path fill="none" stroke="midnightblue" d="M712.653,-158.15C714.174,-143.605 718.601,-124 731,-112 766.503,-77.6388 824.561,-68.5249 863.982,-66.5984"/>
<polygon fill="midnightblue" stroke="midnightblue" points="709.137,-158.278 711.96,-168.489 716.121,-158.746 709.137,-158.278"/>
</g>
<!-- Node6 -->
<g id="node6" class="node"><title>Node6</title>
<g id="a_node6"><a xlink:href="a00104.html" target="_top" xlink:title="node&#45;action.hh">
<polygon fill="white" stroke="black" points="1042,-112.5 1042,-131.5 1122,-131.5 1122,-112.5 1042,-112.5"/>
<text text-anchor="middle" x="1082" y="-119.5" font-family="Helvetica,sans-Serif" font-size="10.00">node&#45;action.hh</text>
</a>
</g>
</g>
<!-- Node2&#45;&gt;Node6 -->
<g id="edge5" class="edge"><title>Node2&#45;&gt;Node6</title>
<path fill="none" stroke="midnightblue" d="M745.108,-172.829C803.407,-165.38 928.146,-148.971 1033,-132 1035.9,-131.53 1038.9,-131.026 1041.91,-130.506"/>
<polygon fill="midnightblue" stroke="midnightblue" points="744.493,-169.379 735.015,-174.114 745.377,-176.323 744.493,-169.379"/>
</g>
<!-- Node7 -->
<g id="node7" class="node"><title>Node7</title>
<g id="a_node7"><a xlink:href="a00110.html" target="_top" xlink:title="osgwidget.hh">
<polygon fill="white" stroke="black" points="133,-0.5 133,-19.5 207,-19.5 207,-0.5 133,-0.5"/>
<text text-anchor="middle" x="170" y="-7.5" font-family="Helvetica,sans-Serif" font-size="10.00">osgwidget.hh</text>
</a>
</g>
</g>
<!-- Node2&#45;&gt;Node7 -->
<g id="edge6" class="edge"><title>Node2&#45;&gt;Node7</title>
<path fill="none" stroke="midnightblue" d="M678.523,-168.278C561.438,-152.394 294.289,-192.981 214,-132 177.153,-104.014 171.126,-42.1739 170.169,-19.5261"/>
<polygon fill="midnightblue" stroke="midnightblue" points="678.283,-171.784 688.704,-169.875 679.368,-164.868 678.283,-171.784"/>
</g>
<!-- Node8 -->
<g id="node8" class="node"><title>Node8</title>
<g id="a_node8"><a xlink:href="a00128.html" target="_top" xlink:title="windows&#45;manager.hh">
<polygon fill="white" stroke="black" points="32.5,-56.5 32.5,-75.5 141.5,-75.5 141.5,-56.5 32.5,-56.5"/>
<text text-anchor="middle" x="87" y="-63.5" font-family="Helvetica,sans-Serif" font-size="10.00">windows&#45;manager.hh</text>
</a>
</g>
</g>
<!-- Node2&#45;&gt;Node8 -->
<g id="edge7" class="edge"><title>Node2&#45;&gt;Node8</title>
<path fill="none" stroke="midnightblue" d="M678.557,-168.238C549.199,-149.657 260.129,-177.515 156,-132 127.65,-119.608 103.727,-90.3619 93.0181,-75.6992"/>
<polygon fill="midnightblue" stroke="midnightblue" points="678.283,-171.738 688.709,-169.852 679.382,-164.825 678.283,-171.738"/>
</g>
<!-- Node9 -->
<g id="node9" class="node"><title>Node9</title>
<g id="a_node9"><a xlink:href="a00112.html" target="_top" xlink:title="pick&#45;handler.hh">
<polygon fill="white" stroke="black" points="740.5,-112.5 740.5,-131.5 823.5,-131.5 823.5,-112.5 740.5,-112.5"/>
<text text-anchor="middle" x="782" y="-119.5" font-family="Helvetica,sans-Serif" font-size="10.00">pick&#45;handler.hh</text>
</a>
</g>
</g>
<!-- Node2&#45;&gt;Node9 -->
<g id="edge9" class="edge"><title>Node2&#45;&gt;Node9</title>
<path fill="none" stroke="midnightblue" d="M731.314,-162.101C743.912,-152.382 759.928,-140.027 770.549,-131.834"/>
<polygon fill="midnightblue" stroke="midnightblue" points="729.027,-159.445 723.247,-168.324 733.302,-164.987 729.027,-159.445"/>
</g>
<!-- Node10 -->
<g id="node10" class="node"><title>Node10</title>
<g id="a_node10"><a xlink:href="a00115.html" target="_top" xlink:title="pythonwidget.hh">
<polygon fill="white" stroke="black" points="236,-112.5 236,-131.5 324,-131.5 324,-112.5 236,-112.5"/>
<text text-anchor="middle" x="280" y="-119.5" font-family="Helvetica,sans-Serif" font-size="10.00">pythonwidget.hh</text>
</a>
</g>
</g>
<!-- Node2&#45;&gt;Node10 -->
<g id="edge10" class="edge"><title>Node2&#45;&gt;Node10</title>
<path fill="none" stroke="midnightblue" d="M678.479,-168.009C525.887,-139.493 483.322,-152.539 333,-132 330.133,-131.608 327.184,-131.18 324.213,-130.728"/>
<polygon fill="midnightblue" stroke="midnightblue" points="678.214,-171.521 688.691,-169.948 679.52,-164.644 678.214,-171.521"/>
</g>
<!-- Node11 -->
<g id="node11" class="node"><title>Node11</title>
<g id="a_node11"><a xlink:href="a00118.html" target="_top" xlink:title="safeapplication.hh">
<polygon fill="white" stroke="black" points="342.5,-112.5 342.5,-131.5 437.5,-131.5 437.5,-112.5 342.5,-112.5"/>
<text text-anchor="middle" x="390" y="-119.5" font-family="Helvetica,sans-Serif" font-size="10.00">safeapplication.hh</text>
</a>
</g>
</g>
<!-- Node2&#45;&gt;Node11 -->
<g id="edge11" class="edge"><title>Node2&#45;&gt;Node11</title>
<path fill="none" stroke="midnightblue" d="M678.803,-167.949C575.891,-145.903 547.395,-147.682 447,-132 443.931,-131.521 440.77,-131.026 437.584,-130.525"/>
<polygon fill="midnightblue" stroke="midnightblue" points="678.149,-171.389 688.663,-170.085 679.631,-164.547 678.149,-171.389"/>
</g>
<!-- Node12 -->
<g id="node12" class="node"><title>Node12</title>
<g id="a_node12"><a xlink:href="a00119.html" target="_top" xlink:title="selection&#45;event.hh">
<polygon fill="white" stroke="black" points="842,-112.5 842,-131.5 938,-131.5 938,-112.5 842,-112.5"/>
<text text-anchor="middle" x="890" y="-119.5" font-family="Helvetica,sans-Serif" font-size="10.00">selection&#45;event.hh</text>
</a>
</g>
</g>
<!-- Node2&#45;&gt;Node12 -->
<g id="edge12" class="edge"><title>Node2&#45;&gt;Node12</title>
<path fill="none" stroke="midnightblue" d="M745.07,-166.968C778.625,-156.788 830.014,-141.198 861.731,-131.576"/>
<polygon fill="midnightblue" stroke="midnightblue" points="743.824,-163.688 735.27,-169.94 745.856,-170.387 743.824,-163.688"/>
</g>
<!-- Node13 -->
<g id="node13" class="node"><title>Node13</title>
<g id="a_node13"><a xlink:href="a00120.html" target="_top" xlink:title="selection&#45;handler.hh">
<polygon fill="white" stroke="black" points="456,-112.5 456,-131.5 560,-131.5 560,-112.5 456,-112.5"/>
<text text-anchor="middle" x="508" y="-119.5" font-family="Helvetica,sans-Serif" font-size="10.00">selection&#45;handler.hh</text>
</a>
</g>
</g>
<!-- Node2&#45;&gt;Node13 -->
<g id="edge13" class="edge"><title>Node2&#45;&gt;Node13</title>
<path fill="none" stroke="midnightblue" d="M679.263,-167.835C625.631,-153.319 574.065,-139.946 541.343,-131.531"/>
<polygon fill="midnightblue" stroke="midnightblue" points="678.374,-171.22 688.942,-170.461 680.207,-164.464 678.374,-171.22"/>
</g>
<!-- Node14 -->
<g id="node14" class="node"><title>Node14</title>
<g id="a_node14"><a xlink:href="a00124.html" target="_top" xlink:title="tree&#45;item.hh">
<polygon fill="white" stroke="black" points="956,-112.5 956,-131.5 1024,-131.5 1024,-112.5 956,-112.5"/>
<text text-anchor="middle" x="990" y="-119.5" font-family="Helvetica,sans-Serif" font-size="10.00">tree&#45;item.hh</text>
</a>
</g>
</g>
<!-- Node2&#45;&gt;Node14 -->
<g id="edge14" class="edge"><title>Node2&#45;&gt;Node14</title>
<path fill="none" stroke="midnightblue" d="M744.935,-170.877C790.421,-162.38 875.016,-146.424 947,-132 949.842,-131.431 952.787,-130.832 955.743,-130.225"/>
<polygon fill="midnightblue" stroke="midnightblue" points="744.23,-167.448 735.042,-172.723 745.514,-174.33 744.23,-167.448"/>
</g>
<!-- Node8&#45;&gt;Node7 -->
<g id="edge8" class="edge"><title>Node8&#45;&gt;Node7</title>
<path fill="none" stroke="midnightblue" d="M109.099,-50.6221C124.262,-40.7574 143.883,-27.9919 156.698,-19.6545"/>
<polygon fill="midnightblue" stroke="midnightblue" points="106.809,-47.9367 100.335,-56.324 110.626,-53.8042 106.809,-47.9367"/>
</g>
<!-- Node15&#45;&gt;Node2 -->
<g id="edge16" class="edge"><title>Node15&#45;&gt;Node2</title>
<path fill="none" stroke="midnightblue" d="M896.254,-326.392C901.041,-300.294 905.284,-252.795 881,-224 862.258,-201.776 776.988,-187.62 735.209,-181.898"/>
<polygon fill="midnightblue" stroke="midnightblue" points="892.773,-325.942 894.183,-336.442 899.629,-327.354 892.773,-325.942"/>
</g>
<!-- Node16 -->
<g id="node16" class="node"><title>Node16</title>
<g id="a_node16"><a xlink:href="a00109.html" target="_top" xlink:title="node.h">
<polygon fill="white" stroke="black" points="1200,-168.5 1200,-187.5 1246,-187.5 1246,-168.5 1200,-168.5"/>
<text text-anchor="middle" x="1223" y="-175.5" font-family="Helvetica,sans-Serif" font-size="10.00">node.h</text>
</a>
</g>
</g>
<!-- Node15&#45;&gt;Node16 -->
<g id="edge17" class="edge"><title>Node15&#45;&gt;Node16</title>
<path fill="none" stroke="midnightblue" d="M922.876,-340.777C1000.55,-329.456 1200.61,-295.73 1239,-244 1251.6,-227.015 1238.2,-201.327 1229.4,-187.896"/>
<polygon fill="midnightblue" stroke="midnightblue" points="922.161,-337.344 912.758,-342.226 923.153,-344.273 922.161,-337.344"/>
</g>
<!-- Node15&#45;&gt;Node36 -->
<g id="edge51" class="edge"><title>Node15&#45;&gt;Node36</title>
<path fill="none" stroke="midnightblue" d="M867.938,-331.177C850.641,-321.241 827.852,-308.149 813.065,-299.655"/>
<polygon fill="midnightblue" stroke="midnightblue" points="866.483,-334.378 876.897,-336.324 869.97,-328.308 866.483,-334.378"/>
</g>
<!-- Node39 -->
<g id="node39" class="node"><title>Node39</title>
<g id="a_node39"><a xlink:href="a00127.html" target="_top" xlink:title="windows&#45;manager.h">
<polygon fill="white" stroke="black" points="0,-112.5 0,-131.5 104,-131.5 104,-112.5 0,-112.5"/>
<text text-anchor="middle" x="52" y="-119.5" font-family="Helvetica,sans-Serif" font-size="10.00">windows&#45;manager.h</text>
</a>
</g>
</g>
<!-- Node15&#45;&gt;Node39 -->
<g id="edge68" class="edge"><title>Node15&#45;&gt;Node39</title>
<path fill="none" stroke="midnightblue" d="M861.372,-338.398C790.809,-323.054 611.452,-283.296 463,-244 317.391,-205.457 144.975,-152.18 79.2698,-131.595"/>
<polygon fill="midnightblue" stroke="midnightblue" points="860.846,-341.865 871.361,-340.564 862.33,-335.024 860.846,-341.865"/>
</g>
<!-- Node41 -->
<g id="node41" class="node"><title>Node41</title>
<g id="a_node41"><a xlink:href="a00106.html" target="_top" xlink:title="node&#45;property.h">
<polygon fill="white" stroke="black" points="1146,-224.5 1146,-243.5 1230,-243.5 1230,-224.5 1146,-224.5"/>
<text text-anchor="middle" x="1188" y="-231.5" font-family="Helvetica,sans-Serif" font-size="10.00">node&#45;property.h</text>
</a>
</g>
</g>
<!-- Node15&#45;&gt;Node41 -->
<g id="edge67" class="edge"><title>Node15&#45;&gt;Node41</title>
<path fill="none" stroke="midnightblue" d="M922.369,-333.714C981.679,-311.673 1111.74,-263.34 1164.78,-243.628"/>
<polygon fill="midnightblue" stroke="midnightblue" points="920.969,-330.501 912.814,-337.265 923.407,-337.062 920.969,-330.501"/>
</g>
<!-- Node16&#45;&gt;Node6 -->
<g id="edge27" class="edge"><title>Node16&#45;&gt;Node6</title>
<path fill="none" stroke="midnightblue" d="M1191.07,-164.772C1164.59,-154.629 1127.61,-140.467 1104.24,-131.516"/>
<polygon fill="midnightblue" stroke="midnightblue" points="1190.07,-168.136 1200.66,-168.444 1192.57,-161.599 1190.07,-168.136"/>
</g>
<!-- Node16&#45;&gt;Node9 -->
<g id="edge29" class="edge"><title>Node16&#45;&gt;Node9</title>
<path fill="none" stroke="midnightblue" d="M1189.59,-173.825C1122.06,-167.258 964.56,-151.181 833,-132 829.975,-131.559 826.854,-131.076 823.716,-130.571"/>
<polygon fill="midnightblue" stroke="midnightblue" points="1189.35,-177.318 1199.64,-174.796 1190.02,-170.35 1189.35,-177.318"/>
</g>
<!-- Node16&#45;&gt;Node12 -->
<g id="edge30" class="edge"><title>Node16&#45;&gt;Node12</title>
<path fill="none" stroke="midnightblue" d="M1189.92,-171.636C1130.76,-162.042 1006.61,-141.91 938.047,-130.791"/>
<polygon fill="midnightblue" stroke="midnightblue" points="1189.42,-175.1 1199.85,-173.246 1190.54,-168.19 1189.42,-175.1"/>
</g>
<!-- Node16&#45;&gt;Node14 -->
<g id="edge31" class="edge"><title>Node16&#45;&gt;Node14</title>
<path fill="none" stroke="midnightblue" d="M1189.92,-169.334C1146.02,-159.159 1068.87,-141.279 1024.34,-130.959"/>
<polygon fill="midnightblue" stroke="midnightblue" points="1189.28,-172.777 1199.81,-171.625 1190.86,-165.957 1189.28,-172.777"/>
</g>
<!-- Node17 -->
<g id="node17" class="node"><title>Node17</title>
<g id="a_node17"><a xlink:href="a00086.html" target="_top" xlink:title="group&#45;node.h">
<polygon fill="white" stroke="black" points="1326.5,-112.5 1326.5,-131.5 1399.5,-131.5 1399.5,-112.5 1326.5,-112.5"/>
<text text-anchor="middle" x="1363" y="-119.5" font-family="Helvetica,sans-Serif" font-size="10.00">group&#45;node.h</text>
</a>
</g>
</g>
<!-- Node16&#45;&gt;Node17 -->
<g id="edge18" class="edge"><title>Node16&#45;&gt;Node17</title>
<path fill="none" stroke="midnightblue" d="M1254.7,-164.772C1281,-154.629 1317.72,-140.467 1340.92,-131.516"/>
<polygon fill="midnightblue" stroke="midnightblue" points="1253.25,-161.579 1245.18,-168.444 1255.77,-168.11 1253.25,-161.579"/>
</g>
<!-- Node18 -->
<g id="node18" class="node"><title>Node18</title>
<g id="a_node18"><a xlink:href="a00126.html" target="_top" xlink:title="window&#45;manager.h">
<polygon fill="white" stroke="black" points="1161,-56.5 1161,-75.5 1259,-75.5 1259,-56.5 1161,-56.5"/>
<text text-anchor="middle" x="1210" y="-63.5" font-family="Helvetica,sans-Serif" font-size="10.00">window&#45;manager.h</text>
</a>
</g>
</g>
<!-- Node16&#45;&gt;Node18 -->
<g id="edge28" class="edge"><title>Node16&#45;&gt;Node18</title>
<path fill="none" stroke="midnightblue" d="M1233.49,-159.213C1239.87,-146.099 1245.93,-127.859 1241,-112 1236.6,-97.8686 1226.05,-84.2496 1218.48,-75.7661"/>
<polygon fill="midnightblue" stroke="midnightblue" points="1230.36,-157.649 1228.72,-168.117 1236.53,-160.955 1230.36,-157.649"/>
</g>
<!-- Node21 -->
<g id="node21" class="node"><title>Node21</title>
<g id="a_node21"><a xlink:href="a00117.html" target="_top" xlink:title="roadmap&#45;viewer.h">
<polygon fill="white" stroke="black" points="1381,-0.5 1381,-19.5 1475,-19.5 1475,-0.5 1381,-0.5"/>
<text text-anchor="middle" x="1428" y="-7.5" font-family="Helvetica,sans-Serif" font-size="10.00">roadmap&#45;viewer.h</text>
</a>
</g>
</g>
<!-- Node16&#45;&gt;Node21 -->
<g id="edge50" class="edge"><title>Node16&#45;&gt;Node21</title>
<path fill="none" stroke="midnightblue" d="M1235.96,-160.682C1256.33,-135.791 1297.98,-87.8758 1341,-56 1361.77,-40.6127 1388.55,-27.6336 1406.87,-19.6275"/>
<polygon fill="midnightblue" stroke="midnightblue" points="1233.24,-158.483 1229.67,-168.462 1238.68,-162.883 1233.24,-158.483"/>
</g>
<!-- Node23 -->
<g id="node23" class="node"><title>Node23</title>
<g id="a_node23"><a xlink:href="a00105.html" target="_top" xlink:title="node&#45;drawable.h">
<polygon fill="white" stroke="black" points="1841,-112.5 1841,-131.5 1929,-131.5 1929,-112.5 1841,-112.5"/>
<text text-anchor="middle" x="1885" y="-119.5" font-family="Helvetica,sans-Serif" font-size="10.00">node&#45;drawable.h</text>
</a>
</g>
</g>
<!-- Node16&#45;&gt;Node23 -->
<g id="edge32" class="edge"><title>Node16&#45;&gt;Node23</title>
<path fill="none" stroke="midnightblue" d="M1256.32,-174.282C1366.1,-165.327 1716.48,-136.746 1840.76,-126.608"/>
<polygon fill="midnightblue" stroke="midnightblue" points="1255.86,-170.808 1246.17,-175.11 1256.42,-177.785 1255.86,-170.808"/>
</g>
<!-- Node32 -->
<g id="node32" class="node"><title>Node32</title>
<g id="a_node32"><a xlink:href="a00091.html" target="_top" xlink:title="leaf&#45;node&#45;collada.h">
<polygon fill="white" stroke="black" points="1522,-112.5 1522,-131.5 1620,-131.5 1620,-112.5 1522,-112.5"/>
<text text-anchor="middle" x="1571" y="-119.5" font-family="Helvetica,sans-Serif" font-size="10.00">leaf&#45;node&#45;collada.h</text>
</a>
</g>
</g>
<!-- Node16&#45;&gt;Node32 -->
<g id="edge45" class="edge"><title>Node16&#45;&gt;Node32</title>
<path fill="none" stroke="midnightblue" d="M1256.04,-171.873C1317.56,-162.327 1449.92,-141.788 1521.92,-130.615"/>
<polygon fill="midnightblue" stroke="midnightblue" points="1255.45,-168.423 1246.1,-173.415 1256.52,-175.34 1255.45,-168.423"/>
</g>
<!-- Node33 -->
<g id="node33" class="node"><title>Node33</title>
<g id="a_node33"><a xlink:href="a00094.html" target="_top" xlink:title="leaf&#45;node&#45;face.h">
<polygon fill="white" stroke="black" points="1418,-112.5 1418,-131.5 1504,-131.5 1504,-112.5 1418,-112.5"/>
<text text-anchor="middle" x="1461" y="-119.5" font-family="Helvetica,sans-Serif" font-size="10.00">leaf&#45;node&#45;face.h</text>
</a>
</g>
</g>
<!-- Node16&#45;&gt;Node33 -->
<g id="edge47" class="edge"><title>Node16&#45;&gt;Node33</title>
<path fill="none" stroke="midnightblue" d="M1256.13,-169.483C1300,-159.529 1377.18,-142.018 1423.26,-131.564"/>
<polygon fill="midnightblue" stroke="midnightblue" points="1255.23,-166.098 1246.25,-171.724 1256.78,-172.924 1255.23,-166.098"/>
</g>
<!-- Node34 -->
<g id="node34" class="node"><title>Node34</title>
<g id="a_node34"><a xlink:href="a00095.html" target="_top" xlink:title="leaf&#45;node&#45;ground.h">
<polygon fill="white" stroke="black" points="1637.5,-112.5 1637.5,-131.5 1734.5,-131.5 1734.5,-112.5 1637.5,-112.5"/>
<text text-anchor="middle" x="1686" y="-119.5" font-family="Helvetica,sans-Serif" font-size="10.00">leaf&#45;node&#45;ground.h</text>
</a>
</g>
</g>
<!-- Node16&#45;&gt;Node34 -->
<g id="edge48" class="edge"><title>Node16&#45;&gt;Node34</title>
<path fill="none" stroke="midnightblue" d="M1256.74,-173.793C1326.41,-167.053 1491.23,-150.502 1629,-132 1631.68,-131.64 1634.43,-131.256 1637.2,-130.857"/>
<polygon fill="midnightblue" stroke="midnightblue" points="1256.01,-170.347 1246.39,-174.79 1256.68,-177.315 1256.01,-170.347"/>
</g>
<!-- Node35 -->
<g id="node35" class="node"><title>Node35</title>
<g id="a_node35"><a xlink:href="a00098.html" target="_top" xlink:title="leaf&#45;node&#45;mesh.h">
<polygon fill="white" stroke="black" points="1140,-112.5 1140,-131.5 1232,-131.5 1232,-112.5 1140,-112.5"/>
<text text-anchor="middle" x="1186" y="-119.5" font-family="Helvetica,sans-Serif" font-size="10.00">leaf&#45;node&#45;mesh.h</text>
</a>
</g>
</g>
<!-- Node16&#45;&gt;Node35 -->
<g id="edge49" class="edge"><title>Node16&#45;&gt;Node35</title>
<path fill="none" stroke="midnightblue" d="M1211.05,-159.566C1204.69,-150.275 1197.13,-139.248 1192,-131.751"/>
<polygon fill="midnightblue" stroke="midnightblue" points="1208.35,-161.812 1216.89,-168.083 1214.13,-157.855 1208.35,-161.812"/>
</g>
<!-- Node17&#45;&gt;Node4 -->
<g id="edge19" class="edge"><title>Node17&#45;&gt;Node4</title>
<path fill="none" stroke="midnightblue" d="M1316.38,-117.357C1293.65,-115.633 1265.9,-113.605 1241,-112 949.682,-93.2236 599.539,-75.561 473.304,-69.3505"/>
<polygon fill="midnightblue" stroke="midnightblue" points="1316.21,-120.854 1326.44,-118.125 1316.74,-113.874 1316.21,-120.854"/>
</g>
<!-- Node17&#45;&gt;Node5 -->
<g id="edge20" class="edge"><title>Node17&#45;&gt;Node5</title>
<path fill="none" stroke="midnightblue" d="M1316.27,-115.479C1227.01,-104.931 1033.51,-82.0673 948.041,-71.9676"/>
<polygon fill="midnightblue" stroke="midnightblue" points="1316.03,-118.975 1326.37,-116.672 1316.85,-112.023 1316.03,-118.975"/>
</g>
<!-- Node17&#45;&gt;Node18 -->
<g id="edge21" class="edge"><title>Node17&#45;&gt;Node18</title>
<path fill="none" stroke="midnightblue" d="M1329.11,-109.039C1300.32,-98.8786 1259.71,-84.5457 1234.13,-75.5164"/>
<polygon fill="midnightblue" stroke="midnightblue" points="1328.16,-112.416 1338.76,-112.444 1330.49,-105.815 1328.16,-112.416"/>
</g>
<!-- Node19 -->
<g id="node19" class="node"><title>Node19</title>
<g id="a_node19"><a xlink:href="a00096.html" target="_top" xlink:title="leaf&#45;node&#45;light.h">
<polygon fill="white" stroke="black" points="1787,-0.5 1787,-19.5 1873,-19.5 1873,-0.5 1787,-0.5"/>
<text text-anchor="middle" x="1830" y="-7.5" font-family="Helvetica,sans-Serif" font-size="10.00">leaf&#45;node&#45;light.h</text>
</a>
</g>
</g>
<!-- Node17&#45;&gt;Node19 -->
<g id="edge23" class="edge"><title>Node17&#45;&gt;Node19</title>
<path fill="none" stroke="midnightblue" d="M1363.14,-102.058C1364.34,-87.1661 1368.6,-67.1361 1382,-56 1412.74,-30.4611 1680.25,-17.0089 1786.63,-12.63"/>
<polygon fill="midnightblue" stroke="midnightblue" points="1359.64,-102.074 1362.71,-112.213 1366.63,-102.369 1359.64,-102.074"/>
</g>
<!-- Node20 -->
<g id="node20" class="node"><title>Node20</title>
<g id="a_node20"><a xlink:href="a00107.html" target="_top" xlink:title="node&#45;rod.h">
<polygon fill="white" stroke="black" points="2312,-0.5 2312,-19.5 2374,-19.5 2374,-0.5 2312,-0.5"/>
<text text-anchor="middle" x="2343" y="-7.5" font-family="Helvetica,sans-Serif" font-size="10.00">node&#45;rod.h</text>
</a>
</g>
</g>
<!-- Node17&#45;&gt;Node20 -->
<g id="edge24" class="edge"><title>Node17&#45;&gt;Node20</title>
<path fill="none" stroke="midnightblue" d="M1409.67,-111.831C1475.48,-98.8901 1587.86,-76.7459 1590,-76 1608.4,-69.5998 1610.22,-61.1657 1629,-56 1760.43,-19.8514 2191.39,-12.6093 2311.61,-11.279"/>
<polygon fill="midnightblue" stroke="midnightblue" points="1408.67,-108.461 1399.53,-113.824 1410.02,-115.329 1408.67,-108.461"/>
</g>
<!-- Node17&#45;&gt;Node21 -->
<g id="edge25" class="edge"><title>Node17&#45;&gt;Node21</title>
<path fill="none" stroke="midnightblue" d="M1352.84,-103.509C1346.31,-89.7822 1340.5,-70.6162 1349,-56 1359.55,-37.85 1380.46,-26.4129 1398.12,-19.6125"/>
<polygon fill="midnightblue" stroke="midnightblue" points="1349.76,-105.184 1357.52,-112.399 1355.96,-101.921 1349.76,-105.184"/>
</g>
<!-- Node22 -->
<g id="node22" class="node"><title>Node22</title>
<g id="a_node22"><a xlink:href="a00125.html" target="_top" xlink:title="urdf&#45;parser.h">
<polygon fill="white" stroke="black" points="1391.5,-56.5 1391.5,-75.5 1462.5,-75.5 1462.5,-56.5 1391.5,-56.5"/>
<text text-anchor="middle" x="1427" y="-63.5" font-family="Helvetica,sans-Serif" font-size="10.00">urdf&#45;parser.h</text>
</a>
</g>
</g>
<!-- Node17&#45;&gt;Node22 -->
<g id="edge26" class="edge"><title>Node17&#45;&gt;Node22</title>
<path fill="none" stroke="midnightblue" d="M1380.99,-105.82C1392.46,-96.1452 1406.91,-83.9481 1416.53,-75.8339"/>
<polygon fill="midnightblue" stroke="midnightblue" points="1378.67,-103.2 1373.28,-112.324 1383.18,-108.55 1378.67,-103.2"/>
</g>
<!-- Node18&#45;&gt;Node7 -->
<g id="edge22" class="edge"><title>Node18&#45;&gt;Node7</title>
<path fill="none" stroke="midnightblue" d="M1150.75,-61.9237C959.598,-51.9984 362.615,-21.0011 207.259,-12.9346"/>
<polygon fill="midnightblue" stroke="midnightblue" points="1150.72,-65.4265 1160.89,-62.4499 1151.08,-58.436 1150.72,-65.4265"/>
</g>
<!-- Node24 -->
<g id="node24" class="node"><title>Node24</title>
<g id="a_node24"><a xlink:href="a00088.html" target="_top" xlink:title="leaf&#45;node&#45;arrow.h">
<polygon fill="white" stroke="black" points="2067,-56.5 2067,-75.5 2159,-75.5 2159,-56.5 2067,-56.5"/>
<text text-anchor="middle" x="2113" y="-63.5" font-family="Helvetica,sans-Serif" font-size="10.00">leaf&#45;node&#45;arrow.h</text>
</a>
</g>
</g>
<!-- Node23&#45;&gt;Node24 -->
<g id="edge33" class="edge"><title>Node23&#45;&gt;Node24</title>
<path fill="none" stroke="midnightblue" d="M1931.07,-110.088C1974.15,-99.8865 2037.59,-84.8612 2077.04,-75.5164"/>
<polygon fill="midnightblue" stroke="midnightblue" points="1930.05,-106.733 1921.13,-112.444 1931.66,-113.545 1930.05,-106.733"/>
</g>
<!-- Node25 -->
<g id="node25" class="node"><title>Node25</title>
<g id="a_node25"><a xlink:href="a00089.html" target="_top" xlink:title="leaf&#45;node&#45;box.h">
<polygon fill="white" stroke="black" points="1739.5,-56.5 1739.5,-75.5 1822.5,-75.5 1822.5,-56.5 1739.5,-56.5"/>
<text text-anchor="middle" x="1781" y="-63.5" font-family="Helvetica,sans-Serif" font-size="10.00">leaf&#45;node&#45;box.h</text>
</a>
</g>
</g>
<!-- Node23&#45;&gt;Node25 -->
<g id="edge34" class="edge"><title>Node23&#45;&gt;Node25</title>
<path fill="none" stroke="midnightblue" d="M1859.17,-107.59C1839.94,-97.6052 1814.26,-84.2672 1797.67,-75.6545"/>
<polygon fill="midnightblue" stroke="midnightblue" points="1857.8,-110.822 1868.29,-112.324 1861.03,-104.61 1857.8,-110.822"/>
</g>
<!-- Node26 -->
<g id="node26" class="node"><title>Node26</title>
<g id="a_node26"><a xlink:href="a00090.html" target="_top" xlink:title="leaf&#45;node&#45;capsule.h">
<polygon fill="white" stroke="black" points="2292.5,-56.5 2292.5,-75.5 2393.5,-75.5 2393.5,-56.5 2292.5,-56.5"/>
<text text-anchor="middle" x="2343" y="-63.5" font-family="Helvetica,sans-Serif" font-size="10.00">leaf&#45;node&#45;capsule.h</text>
</a>
</g>
</g>
<!-- Node23&#45;&gt;Node26 -->
<g id="edge35" class="edge"><title>Node23&#45;&gt;Node26</title>
<path fill="none" stroke="midnightblue" d="M1939.61,-115.46C2016.38,-107.527 2160.52,-92.1041 2283,-76 2286.03,-75.6018 2289.14,-75.1783 2292.28,-74.7404"/>
<polygon fill="midnightblue" stroke="midnightblue" points="1938.82,-112.022 1929.24,-116.528 1939.54,-118.985 1938.82,-112.022"/>
</g>
<!-- Node27 -->
<g id="node27" class="node"><title>Node27</title>
<g id="a_node27"><a xlink:href="a00092.html" target="_top" xlink:title="leaf&#45;node&#45;cone.h">
<polygon fill="white" stroke="black" points="1840.5,-56.5 1840.5,-75.5 1929.5,-75.5 1929.5,-56.5 1840.5,-56.5"/>
<text text-anchor="middle" x="1885" y="-63.5" font-family="Helvetica,sans-Serif" font-size="10.00">leaf&#45;node&#45;cone.h</text>
</a>
</g>
</g>
<!-- Node23&#45;&gt;Node27 -->
<g id="edge37" class="edge"><title>Node23&#45;&gt;Node27</title>
<path fill="none" stroke="midnightblue" d="M1885,-101.805C1885,-92.9102 1885,-82.7798 1885,-75.7511"/>
<polygon fill="midnightblue" stroke="midnightblue" points="1881.5,-102.083 1885,-112.083 1888.5,-102.083 1881.5,-102.083"/>
</g>
<!-- Node28 -->
<g id="node28" class="node"><title>Node28</title>
<g id="a_node28"><a xlink:href="a00093.html" target="_top" xlink:title="leaf&#45;node&#45;cylinder.h">
<polygon fill="white" stroke="black" points="1947.5,-56.5 1947.5,-75.5 2048.5,-75.5 2048.5,-56.5 1947.5,-56.5"/>
<text text-anchor="middle" x="1998" y="-63.5" font-family="Helvetica,sans-Serif" font-size="10.00">leaf&#45;node&#45;cylinder.h</text>
</a>
</g>
</g>
<!-- Node23&#45;&gt;Node28 -->
<g id="edge38" class="edge"><title>Node23&#45;&gt;Node28</title>
<path fill="none" stroke="midnightblue" d="M1912,-108.096C1933.11,-98.0073 1961.86,-84.2697 1980.18,-75.5164"/>
<polygon fill="midnightblue" stroke="midnightblue" points="1910.42,-104.974 1902.91,-112.444 1913.44,-111.29 1910.42,-104.974"/>
</g>
<!-- Node29 -->
<g id="node29" class="node"><title>Node29</title>
<g id="a_node29"><a xlink:href="a00099.html" target="_top" xlink:title="leaf&#45;node&#45;sphere.h">
<polygon fill="white" stroke="black" points="2177.5,-56.5 2177.5,-75.5 2274.5,-75.5 2274.5,-56.5 2177.5,-56.5"/>
<text text-anchor="middle" x="2226" y="-63.5" font-family="Helvetica,sans-Serif" font-size="10.00">leaf&#45;node&#45;sphere.h</text>
</a>
</g>
</g>
<!-- Node23&#45;&gt;Node29 -->
<g id="edge39" class="edge"><title>Node23&#45;&gt;Node29</title>
<path fill="none" stroke="midnightblue" d="M1939.38,-112.389C2005.05,-101.989 2114.5,-84.6565 2177.45,-74.689"/>
<polygon fill="midnightblue" stroke="midnightblue" points="1938.56,-108.975 1929.23,-113.996 1939.65,-115.889 1938.56,-108.975"/>
</g>
<!-- Node30 -->
<g id="node30" class="node"><title>Node30</title>
<g id="a_node30"><a xlink:href="a00097.html" target="_top" xlink:title="leaf&#45;node&#45;line.h">
<polygon fill="white" stroke="black" points="1638.5,-56.5 1638.5,-75.5 1721.5,-75.5 1721.5,-56.5 1638.5,-56.5"/>
<text text-anchor="middle" x="1680" y="-63.5" font-family="Helvetica,sans-Serif" font-size="10.00">leaf&#45;node&#45;line.h</text>
</a>
</g>
</g>
<!-- Node23&#45;&gt;Node30 -->
<g id="edge41" class="edge"><title>Node23&#45;&gt;Node30</title>
<path fill="none" stroke="midnightblue" d="M1842.59,-109.829C1803.89,-99.6333 1747.51,-84.7823 1712.33,-75.5164"/>
<polygon fill="midnightblue" stroke="midnightblue" points="1841.96,-113.281 1852.52,-112.444 1843.74,-106.512 1841.96,-113.281"/>
</g>
<!-- Node31 -->
<g id="node31" class="node"><title>Node31</title>
<g id="a_node31"><a xlink:href="a00100.html" target="_top" xlink:title="leaf&#45;node&#45;xyzaxis.h">
<polygon fill="white" stroke="black" points="1480.5,-56.5 1480.5,-75.5 1581.5,-75.5 1581.5,-56.5 1480.5,-56.5"/>
<text text-anchor="middle" x="1531" y="-63.5" font-family="Helvetica,sans-Serif" font-size="10.00">leaf&#45;node&#45;xyzaxis.h</text>
</a>
</g>
</g>
<!-- Node23&#45;&gt;Node31 -->
<g id="edge43" class="edge"><title>Node23&#45;&gt;Node31</title>
<path fill="none" stroke="midnightblue" d="M1830.83,-112.737C1763.03,-102.395 1647.81,-84.8188 1581.69,-74.7323"/>
<polygon fill="midnightblue" stroke="midnightblue" points="1830.47,-116.222 1840.88,-114.27 1831.52,-109.302 1830.47,-116.222"/>
</g>
<!-- Node26&#45;&gt;Node20 -->
<g id="edge36" class="edge"><title>Node26&#45;&gt;Node20</title>
<path fill="none" stroke="midnightblue" d="M2343,-45.8045C2343,-36.9102 2343,-26.7798 2343,-19.7511"/>
<polygon fill="midnightblue" stroke="midnightblue" points="2339.5,-46.083 2343,-56.083 2346.5,-46.083 2339.5,-46.083"/>
</g>
<!-- Node29&#45;&gt;Node19 -->
<g id="edge40" class="edge"><title>Node29&#45;&gt;Node19</title>
<path fill="none" stroke="midnightblue" d="M2167.14,-55.9035C2054.99,-39.8184 1935.7,-24.3977 1873.26,-16.4558"/>
<polygon fill="midnightblue" stroke="midnightblue" points="2166.88,-59.4016 2177.28,-57.3615 2167.88,-52.473 2166.88,-59.4016"/>
</g>
<!-- Node30&#45;&gt;Node21 -->
<g id="edge42" class="edge"><title>Node30&#45;&gt;Node21</title>
<path fill="none" stroke="midnightblue" d="M1630.28,-54.3456C1582.66,-44.1405 1511.72,-28.94 1467.74,-19.5164"/>
<polygon fill="midnightblue" stroke="midnightblue" points="1629.56,-57.7705 1640.07,-56.4435 1631.03,-50.9259 1629.56,-57.7705"/>
</g>
<!-- Node31&#45;&gt;Node21 -->
<g id="edge44" class="edge"><title>Node31&#45;&gt;Node21</title>
<path fill="none" stroke="midnightblue" d="M1505.42,-51.5895C1486.38,-41.6052 1460.94,-28.2672 1444.51,-19.6545"/>
<polygon fill="midnightblue" stroke="midnightblue" points="1503.97,-54.7805 1514.45,-56.324 1507.22,-48.5808 1503.97,-54.7805"/>
</g>
<!-- Node32&#45;&gt;Node22 -->
<g id="edge46" class="edge"><title>Node32&#45;&gt;Node22</title>
<path fill="none" stroke="midnightblue" d="M1538.75,-108.906C1511.68,-98.7536 1473.68,-84.5063 1449.71,-75.5164"/>
<polygon fill="midnightblue" stroke="midnightblue" points="1537.59,-112.209 1548.18,-112.444 1540.05,-105.655 1537.59,-112.209"/>
</g>
<!-- Node36&#45;&gt;Node16 -->
<g id="edge60" class="edge"><title>Node36&#45;&gt;Node16</title>
<path fill="none" stroke="midnightblue" d="M840.732,-277.94C929.416,-254.986 1130.9,-202.837 1199.57,-185.065"/>
<polygon fill="midnightblue" stroke="midnightblue" points="839.799,-274.566 830.995,-280.46 841.553,-281.343 839.799,-274.566"/>
</g>
<!-- Node36&#45;&gt;Node20 -->
<g id="edge66" class="edge"><title>Node36&#45;&gt;Node20</title>
<path fill="none" stroke="midnightblue" d="M843.091,-279.917C921.699,-264.157 1080.81,-232.602 1137,-224 1416.77,-181.174 2214.24,-287.782 2402,-76 2420.1,-55.5871 2384.04,-31.9414 2360.71,-19.5638"/>
<polygon fill="midnightblue" stroke="midnightblue" points="842.122,-276.542 833.006,-281.941 843.5,-283.405 842.122,-276.542"/>
</g>
<!-- Node37 -->
<g id="node37" class="node"><title>Node37</title>
<g id="a_node37"><a xlink:href="a00108.html" target="_top" xlink:title="node&#45;visitor.h">
<polygon fill="white" stroke="black" points="524.5,-224.5 524.5,-243.5 599.5,-243.5 599.5,-224.5 524.5,-224.5"/>
<text text-anchor="middle" x="562" y="-231.5" font-family="Helvetica,sans-Serif" font-size="10.00">node&#45;visitor.h</text>
</a>
</g>
</g>
<!-- Node36&#45;&gt;Node37 -->
<g id="edge52" class="edge"><title>Node36&#45;&gt;Node37</title>
<path fill="none" stroke="midnightblue" d="M752.94,-278.69C708.341,-268.485 640.869,-253.046 599.219,-243.516"/>
<polygon fill="midnightblue" stroke="midnightblue" points="752.394,-282.155 762.923,-280.974 753.956,-275.332 752.394,-282.155"/>
</g>
<!-- Node38 -->
<g id="node38" class="node"><title>Node38</title>
<g id="a_node38"><a xlink:href="a00123.html" target="_top" xlink:title="transform&#45;writer.h">
<polygon fill="white" stroke="black" points="449.5,-168.5 449.5,-187.5 542.5,-187.5 542.5,-168.5 449.5,-168.5"/>
<text text-anchor="middle" x="496" y="-175.5" font-family="Helvetica,sans-Serif" font-size="10.00">transform&#45;writer.h</text>
</a>
</g>
</g>
<!-- Node36&#45;&gt;Node38 -->
<g id="edge64" class="edge"><title>Node36&#45;&gt;Node38</title>
<path fill="none" stroke="midnightblue" d="M753,-283.122C675.414,-272.808 523.866,-251.808 515,-244 498.589,-229.547 495.995,-201.783 495.804,-187.68"/>
<polygon fill="midnightblue" stroke="midnightblue" points="752.611,-286.6 762.984,-284.444 753.53,-279.661 752.611,-286.6"/>
</g>
<!-- Node36&#45;&gt;Node39 -->
<g id="edge63" class="edge"><title>Node36&#45;&gt;Node39</title>
<path fill="none" stroke="midnightblue" d="M752.886,-283.44C675.136,-273.677 521.983,-253.579 499,-244 446.817,-222.252 449.395,-189.233 397,-168 395.312,-167.316 200.08,-142.086 104.091,-129.71"/>
<polygon fill="midnightblue" stroke="midnightblue" points="752.527,-286.923 762.884,-284.691 753.396,-279.977 752.527,-286.923"/>
</g>
<!-- Node40 -->
<g id="node40" class="node"><title>Node40</title>
<g id="a_node40"><a xlink:href="a00077.html" target="_top" xlink:title="blender&#45;geom&#45;writer.h">
<polygon fill="white" stroke="black" points="561,-168.5 561,-187.5 671,-187.5 671,-168.5 561,-168.5"/>
<text text-anchor="middle" x="616" y="-175.5" font-family="Helvetica,sans-Serif" font-size="10.00">blender&#45;geom&#45;writer.h</text>
</a>
</g>
</g>
<!-- Node36&#45;&gt;Node40 -->
<g id="edge65" class="edge"><title>Node36&#45;&gt;Node40</title>
<path fill="none" stroke="midnightblue" d="M758.162,-277.246C735.684,-269.629 707.649,-258.43 685,-244 659.461,-227.729 634.989,-201.268 623.243,-187.671"/>
<polygon fill="midnightblue" stroke="midnightblue" points="757.148,-280.597 767.741,-280.391 759.332,-273.946 757.148,-280.597"/>
</g>
<!-- Node36&#45;&gt;Node41 -->
<g id="edge58" class="edge"><title>Node36&#45;&gt;Node41</title>
<path fill="none" stroke="midnightblue" d="M843.338,-283.263C907.623,-275.044 1028.92,-259.225 1132,-244 1136.48,-243.338 1141.16,-242.624 1145.82,-241.897"/>
<polygon fill="midnightblue" stroke="midnightblue" points="842.621,-279.826 833.145,-284.564 843.507,-286.77 842.621,-279.826"/>
</g>
<!-- Node42 -->
<g id="node42" class="node"><title>Node42</title>
<g id="a_node42"><a xlink:href="a00079.html" target="_top" xlink:title="color&#45;map.hh">
<polygon fill="white" stroke="black" points="694.5,-224.5 694.5,-243.5 767.5,-243.5 767.5,-224.5 694.5,-224.5"/>
<text text-anchor="middle" x="731" y="-231.5" font-family="Helvetica,sans-Serif" font-size="10.00">color&#45;map.hh</text>
</a>
</g>
</g>
<!-- Node36&#45;&gt;Node42 -->
<g id="edge61" class="edge"><title>Node36&#45;&gt;Node42</title>
<path fill="none" stroke="midnightblue" d="M779.165,-273.82C767.162,-264.145 752.028,-251.948 741.961,-243.834"/>
<polygon fill="midnightblue" stroke="midnightblue" points="777.253,-276.774 787.235,-280.324 781.646,-271.324 777.253,-276.774"/>
</g>
<!-- Node43 -->
<g id="node43" class="node"><title>Node43</title>
<g id="a_node43"><a xlink:href="a00081.html" target="_top" xlink:title="configuration.hh">
<polygon fill="white" stroke="black" points="786,-224.5 786,-243.5 872,-243.5 872,-224.5 786,-224.5"/>
<text text-anchor="middle" x="829" y="-231.5" font-family="Helvetica,sans-Serif" font-size="10.00">configuration.hh</text>
</a>
</g>
</g>
<!-- Node36&#45;&gt;Node43 -->
<g id="edge62" class="edge"><title>Node36&#45;&gt;Node43</title>
<path fill="none" stroke="midnightblue" d="M808.176,-271.275C813.474,-262.045 819.717,-251.17 823.976,-243.751"/>
<polygon fill="midnightblue" stroke="midnightblue" points="805.062,-269.668 803.119,-280.083 811.133,-273.153 805.062,-269.668"/>
</g>
<!-- Node37&#45;&gt;Node16 -->
<g id="edge53" class="edge"><title>Node37&#45;&gt;Node16</title>
<path fill="none" stroke="midnightblue" d="M610.086,-229.072C741.684,-218.321 1104.28,-188.699 1199.72,-180.901"/>
<polygon fill="midnightblue" stroke="midnightblue" points="609.594,-225.6 599.912,-229.903 610.164,-232.577 609.594,-225.6"/>
</g>
<!-- Node37&#45;&gt;Node38 -->
<g id="edge54" class="edge"><title>Node37&#45;&gt;Node38</title>
<path fill="none" stroke="midnightblue" d="M543.446,-217.82C531.622,-208.145 516.714,-195.948 506.797,-187.834"/>
<polygon fill="midnightblue" stroke="midnightblue" points="541.44,-220.7 551.396,-224.324 545.873,-215.283 541.44,-220.7"/>
</g>
<!-- Node37&#45;&gt;Node40 -->
<g id="edge57" class="edge"><title>Node37&#45;&gt;Node40</title>
<path fill="none" stroke="midnightblue" d="M577.998,-217.002C587.567,-207.433 599.361,-195.639 607.249,-187.751"/>
<polygon fill="midnightblue" stroke="midnightblue" points="575.513,-214.537 570.917,-224.083 580.463,-219.487 575.513,-214.537"/>
</g>
<!-- Node38&#45;&gt;Node39 -->
<g id="edge55" class="edge"><title>Node38&#45;&gt;Node39</title>
<path fill="none" stroke="midnightblue" d="M439.43,-168.587C437.938,-168.386 436.46,-168.19 435,-168 294.398,-149.649 258.7,-149.58 118,-132 113.525,-131.441 108.881,-130.843 104.225,-130.232"/>
<polygon fill="midnightblue" stroke="midnightblue" points="439.011,-172.062 449.396,-169.96 439.967,-165.128 439.011,-172.062"/>
</g>
<!-- Node39&#45;&gt;Node8 -->
<g id="edge56" class="edge"><title>Node39&#45;&gt;Node8</title>
<path fill="none" stroke="midnightblue" d="M63.3001,-103.566C69.3219,-94.2747 76.4686,-83.2484 81.328,-75.7511"/>
<polygon fill="midnightblue" stroke="midnightblue" points="60.2815,-101.788 57.7795,-112.083 66.1556,-105.595 60.2815,-101.788"/>
</g>
<!-- Node41&#45;&gt;Node16 -->
<g id="edge59" class="edge"><title>Node41&#45;&gt;Node16</title>
<path fill="none" stroke="midnightblue" d="M1199.3,-215.566C1205.32,-206.275 1212.47,-195.248 1217.33,-187.751"/>
<polygon fill="midnightblue" stroke="midnightblue" points="1196.28,-213.788 1193.78,-224.083 1202.16,-217.595 1196.28,-213.788"/>
</g>
</g>
</svg>
