<?xml version="1.0" encoding="UTF-8" standalone="no"?>
<!DOCTYPE svg PUBLIC "-//W3C//DTD SVG 1.1//EN"
 "http://www.w3.org/Graphics/SVG/1.1/DTD/svg11.dtd">
<!-- Generated by graphviz version 2.38.0 (20140413.2041)
 -->
<!-- Title: dialogloadenvironment.hh Pages: 1 -->
<svg width="178pt" height="252pt"
 viewBox="0.00 0.00 178.00 252.00" xmlns="http://www.w3.org/2000/svg" xmlns:xlink="http://www.w3.org/1999/xlink">
<g id="graph0" class="graph" transform="scale(1 1) rotate(0) translate(4 248)">
<title>dialogloadenvironment.hh</title>
<polygon fill="white" stroke="none" points="-4,4 -4,-248 174,-248 174,4 -4,4"/>
<!-- Node1 -->
<g id="node1" class="node"><title>Node1</title>
<polygon fill="#bfbfbf" stroke="black" points="43,-224.5 43,-243.5 170,-243.5 170,-224.5 43,-224.5"/>
<text text-anchor="middle" x="106.5" y="-231.5" font-family="Helvetica,sans-Serif" font-size="10.00">dialogloadenvironment.hh</text>
</g>
<!-- Node2 -->
<g id="node2" class="node"><title>Node2</title>
<g id="a_node2"><a xlink:href="a00113.html" target="_top" xlink:title="plugin&#45;interface.hh">
<polygon fill="white" stroke="black" points="17.5,-168.5 17.5,-187.5 113.5,-187.5 113.5,-168.5 17.5,-168.5"/>
<text text-anchor="middle" x="65.5" y="-175.5" font-family="Helvetica,sans-Serif" font-size="10.00">plugin&#45;interface.hh</text>
</a>
</g>
</g>
<!-- Node1&#45;&gt;Node2 -->
<g id="edge1" class="edge"><title>Node1&#45;&gt;Node2</title>
<path fill="none" stroke="midnightblue" d="M93.4828,-215.855C86.3833,-206.505 77.896,-195.327 72.1443,-187.751"/>
<polygon fill="midnightblue" stroke="midnightblue" points="90.895,-218.235 99.7297,-224.083 96.4701,-214.002 90.895,-218.235"/>
</g>
<!-- Node4 -->
<g id="node4" class="node"><title>Node4</title>
<g id="a_node4"><a xlink:href="a00103.html" target="_top" xlink:title="mainwindow.hh">
<polygon fill="white" stroke="black" points="44.5,-0.5 44.5,-19.5 128.5,-19.5 128.5,-0.5 44.5,-0.5"/>
<text text-anchor="middle" x="86.5" y="-7.5" font-family="Helvetica,sans-Serif" font-size="10.00">mainwindow.hh</text>
</a>
</g>
</g>
<!-- Node1&#45;&gt;Node4 -->
<g id="edge6" class="edge"><title>Node1&#45;&gt;Node4</title>
<path fill="none" stroke="midnightblue" d="M114.287,-214.481C126.978,-181.449 148.684,-110.704 127.5,-56 121.622,-40.8222 107.979,-27.6207 98.0406,-19.5103"/>
<polygon fill="midnightblue" stroke="midnightblue" points="110.88,-213.575 110.404,-224.159 117.376,-216.182 110.88,-213.575"/>
</g>
<!-- Node3 -->
<g id="node3" class="node"><title>Node3</title>
<g id="a_node3"><a xlink:href="a00114.html" target="_top" xlink:title="pluginmanagerdialog.hh">
<polygon fill="white" stroke="black" points="0,-112.5 0,-131.5 119,-131.5 119,-112.5 0,-112.5"/>
<text text-anchor="middle" x="59.5" y="-119.5" font-family="Helvetica,sans-Serif" font-size="10.00">pluginmanagerdialog.hh</text>
</a>
</g>
</g>
<!-- Node2&#45;&gt;Node3 -->
<g id="edge2" class="edge"><title>Node2&#45;&gt;Node3</title>
<path fill="none" stroke="midnightblue" d="M63.4001,-158.101C62.404,-149.136 61.262,-138.858 60.4723,-131.751"/>
<polygon fill="midnightblue" stroke="midnightblue" points="59.9262,-158.531 64.5092,-168.083 66.8834,-157.758 59.9262,-158.531"/>
</g>
<!-- Node3&#45;&gt;Node4 -->
<g id="edge3" class="edge"><title>Node3&#45;&gt;Node4</title>
<path fill="none" stroke="midnightblue" d="M49.8171,-103.315C43.8521,-89.9968 38.4083,-71.4547 44.5,-56 50.4566,-40.8879 64.1464,-27.8572 74.2863,-19.7638"/>
<polygon fill="midnightblue" stroke="midnightblue" points="46.717,-104.941 54.2977,-112.343 52.9873,-101.83 46.717,-104.941"/>
</g>
<!-- Node5 -->
<g id="node5" class="node"><title>Node5</title>
<g id="a_node5"><a xlink:href="a00121.html" target="_top" xlink:title="settings.hh">
<polygon fill="white" stroke="black" points="54,-56.5 54,-75.5 119,-75.5 119,-56.5 54,-56.5"/>
<text text-anchor="middle" x="86.5" y="-63.5" font-family="Helvetica,sans-Serif" font-size="10.00">settings.hh</text>
</a>
</g>
</g>
<!-- Node3&#45;&gt;Node5 -->
<g id="edge4" class="edge"><title>Node3&#45;&gt;Node5</title>
<path fill="none" stroke="midnightblue" d="M68.5086,-102.983C73.0916,-93.8168 78.4539,-83.0922 82.1245,-75.7511"/>
<polygon fill="midnightblue" stroke="midnightblue" points="65.3002,-101.573 63.9585,-112.083 71.5612,-104.704 65.3002,-101.573"/>
</g>
<!-- Node5&#45;&gt;Node4 -->
<g id="edge5" class="edge"><title>Node5&#45;&gt;Node4</title>
<path fill="none" stroke="midnightblue" d="M86.5,-45.8045C86.5,-36.9102 86.5,-26.7798 86.5,-19.7511"/>
<polygon fill="midnightblue" stroke="midnightblue" points="83.0001,-46.083 86.5,-56.083 90.0001,-46.083 83.0001,-46.083"/>
</g>
</g>
</svg>
