<?xml version="1.0" encoding="UTF-8" standalone="no"?>
<!DOCTYPE svg PUBLIC "-//W3C//DTD SVG 1.1//EN"
 "http://www.w3.org/Graphics/SVG/1.1/DTD/svg11.dtd">
<!-- Generated by graphviz version 2.38.0 (20140413.2041)
 -->
<!-- Title: pluginmanagerdialog.hh Pages: 1 -->
<svg width="131pt" height="140pt"
 viewBox="0.00 0.00 131.00 140.00" xmlns="http://www.w3.org/2000/svg" xmlns:xlink="http://www.w3.org/1999/xlink">
<g id="graph0" class="graph" transform="scale(1 1) rotate(0) translate(4 136)">
<title>pluginmanagerdialog.hh</title>
<polygon fill="white" stroke="none" points="-4,4 -4,-136 127,-136 127,4 -4,4"/>
<!-- Node1 -->
<g id="node1" class="node"><title>Node1</title>
<polygon fill="#bfbfbf" stroke="black" points="0,-112.5 0,-131.5 119,-131.5 119,-112.5 0,-112.5"/>
<text text-anchor="middle" x="59.5" y="-119.5" font-family="Helvetica,sans-Serif" font-size="10.00">pluginmanagerdialog.hh</text>
</g>
<!-- Node2 -->
<g id="node2" class="node"><title>Node2</title>
<g id="a_node2"><a xlink:href="a00103.html" target="_top" xlink:title="mainwindow.hh">
<polygon fill="white" stroke="black" points="17.5,-0.5 17.5,-19.5 101.5,-19.5 101.5,-0.5 17.5,-0.5"/>
<text text-anchor="middle" x="59.5" y="-7.5" font-family="Helvetica,sans-Serif" font-size="10.00">mainwindow.hh</text>
</a>
</g>
</g>
<!-- Node1&#45;&gt;Node2 -->
<g id="edge1" class="edge"><title>Node1&#45;&gt;Node2</title>
<path fill="none" stroke="midnightblue" d="M53.9601,-102.656C51.7923,-94.5656 49.5712,-84.8931 48.5,-76 46.0638,-55.7738 52.3335,-32.2498 56.3802,-19.7925"/>
<polygon fill="midnightblue" stroke="midnightblue" points="50.6563,-103.833 56.7701,-112.486 57.3868,-101.909 50.6563,-103.833"/>
</g>
<!-- Node3 -->
<g id="node3" class="node"><title>Node3</title>
<g id="a_node3"><a xlink:href="a00121.html" target="_top" xlink:title="settings.hh">
<polygon fill="white" stroke="black" points="58,-56.5 58,-75.5 123,-75.5 123,-56.5 58,-56.5"/>
<text text-anchor="middle" x="90.5" y="-63.5" font-family="Helvetica,sans-Serif" font-size="10.00">settings.hh</text>
</a>
</g>
</g>
<!-- Node1&#45;&gt;Node3 -->
<g id="edge2" class="edge"><title>Node1&#45;&gt;Node3</title>
<path fill="none" stroke="midnightblue" d="M69.6756,-103.275C74.9739,-94.0454 81.217,-83.1703 85.4762,-75.7511"/>
<polygon fill="midnightblue" stroke="midnightblue" points="66.5624,-101.668 64.619,-112.083 72.6331,-105.153 66.5624,-101.668"/>
</g>
<!-- Node3&#45;&gt;Node2 -->
<g id="edge3" class="edge"><title>Node3&#45;&gt;Node2</title>
<path fill="none" stroke="midnightblue" d="M80.3244,-47.2747C75.0261,-38.0454 68.783,-27.1703 64.5238,-19.7511"/>
<polygon fill="midnightblue" stroke="midnightblue" points="77.3669,-49.153 85.381,-56.083 83.4376,-45.6679 77.3669,-49.153"/>
</g>
</g>
</svg>
