<?xml version="1.0" encoding="UTF-8" standalone="no"?>
<!DOCTYPE svg PUBLIC "-//W3C//DTD SVG 1.1//EN"
 "http://www.w3.org/Graphics/SVG/1.1/DTD/svg11.dtd">
<!-- Generated by graphviz version 2.38.0 (20140413.2041)
 -->
<!-- Title: fwd.hh Pages: 1 -->
<svg width="1237pt" height="140pt"
 viewBox="0.00 0.00 1236.50 140.00" xmlns="http://www.w3.org/2000/svg" xmlns:xlink="http://www.w3.org/1999/xlink">
<g id="graph0" class="graph" transform="scale(1 1) rotate(0) translate(4 136)">
<title>fwd.hh</title>
<polygon fill="white" stroke="none" points="-4,4 -4,-136 1232.5,-136 1232.5,4 -4,4"/>
<!-- Node1 -->
<g id="node1" class="node"><title>Node1</title>
<polygon fill="#bfbfbf" stroke="black" points="564.5,-112.5 564.5,-131.5 610.5,-131.5 610.5,-112.5 564.5,-112.5"/>
<text text-anchor="middle" x="587.5" y="-119.5" font-family="Helvetica,sans-Serif" font-size="10.00">fwd.hh</text>
</g>
<!-- Node2 -->
<g id="node2" class="node"><title>Node2</title>
<g id="a_node2"><a xlink:href="a00076.html" target="_top" xlink:title="action&#45;search&#45;bar.hh">
<polygon fill="white" stroke="black" points="0,-56.5 0,-75.5 105,-75.5 105,-56.5 0,-56.5"/>
<text text-anchor="middle" x="52.5" y="-63.5" font-family="Helvetica,sans-Serif" font-size="10.00">action&#45;search&#45;bar.hh</text>
</a>
</g>
</g>
<!-- Node1&#45;&gt;Node2 -->
<g id="edge1" class="edge"><title>Node1&#45;&gt;Node2</title>
<path fill="none" stroke="midnightblue" d="M554.229,-118.402C476.912,-112.242 279.156,-95.7711 114.5,-76 111.476,-75.6369 108.372,-75.2456 105.242,-74.8366"/>
<polygon fill="midnightblue" stroke="midnightblue" points="554.079,-121.901 564.324,-119.203 554.632,-114.923 554.079,-121.901"/>
</g>
<!-- Node3 -->
<g id="node3" class="node"><title>Node3</title>
<g id="a_node3"><a xlink:href="a00078.html" target="_top" xlink:title="bodytreewidget.hh">
<polygon fill="white" stroke="black" points="123.5,-56.5 123.5,-75.5 219.5,-75.5 219.5,-56.5 123.5,-56.5"/>
<text text-anchor="middle" x="171.5" y="-63.5" font-family="Helvetica,sans-Serif" font-size="10.00">bodytreewidget.hh</text>
</a>
</g>
</g>
<!-- Node1&#45;&gt;Node3 -->
<g id="edge2" class="edge"><title>Node1&#45;&gt;Node3</title>
<path fill="none" stroke="midnightblue" d="M554.164,-117.181C490.693,-109.831 348.143,-92.9396 228.5,-76 225.623,-75.5927 222.667,-75.1622 219.686,-74.719"/>
<polygon fill="midnightblue" stroke="midnightblue" points="554.031,-120.689 564.366,-118.359 554.834,-113.735 554.031,-120.689"/>
</g>
<!-- Node4 -->
<g id="node4" class="node"><title>Node4</title>
<g id="a_node4"><a xlink:href="a00103.html" target="_top" xlink:title="mainwindow.hh">
<polygon fill="white" stroke="black" points="237.5,-56.5 237.5,-75.5 321.5,-75.5 321.5,-56.5 237.5,-56.5"/>
<text text-anchor="middle" x="279.5" y="-63.5" font-family="Helvetica,sans-Serif" font-size="10.00">mainwindow.hh</text>
</a>
</g>
</g>
<!-- Node1&#45;&gt;Node4 -->
<g id="edge3" class="edge"><title>Node1&#45;&gt;Node4</title>
<path fill="none" stroke="midnightblue" d="M554.452,-115.228C505.523,-106.679 410.925,-90.1374 330.5,-76 327.578,-75.4863 324.561,-74.9555 321.524,-74.4206"/>
<polygon fill="midnightblue" stroke="midnightblue" points="554.008,-118.703 564.461,-116.976 555.212,-111.808 554.008,-118.703"/>
</g>
<!-- Node5 -->
<g id="node5" class="node"><title>Node5</title>
<g id="a_node5"><a xlink:href="a00104.html" target="_top" xlink:title="node&#45;action.hh">
<polygon fill="white" stroke="black" points="339.5,-56.5 339.5,-75.5 419.5,-75.5 419.5,-56.5 339.5,-56.5"/>
<text text-anchor="middle" x="379.5" y="-63.5" font-family="Helvetica,sans-Serif" font-size="10.00">node&#45;action.hh</text>
</a>
</g>
</g>
<!-- Node1&#45;&gt;Node5 -->
<g id="edge4" class="edge"><title>Node1&#45;&gt;Node5</title>
<path fill="none" stroke="midnightblue" d="M554.679,-112.479C515.836,-102.395 451.529,-85.6997 412.575,-75.5868"/>
<polygon fill="midnightblue" stroke="midnightblue" points="553.887,-115.89 564.446,-115.015 555.646,-109.114 553.887,-115.89"/>
</g>
<!-- Node6 -->
<g id="node6" class="node"><title>Node6</title>
<g id="a_node6"><a xlink:href="a00110.html" target="_top" xlink:title="osgwidget.hh">
<polygon fill="white" stroke="black" points="451.5,-0.5 451.5,-19.5 525.5,-19.5 525.5,-0.5 451.5,-0.5"/>
<text text-anchor="middle" x="488.5" y="-7.5" font-family="Helvetica,sans-Serif" font-size="10.00">osgwidget.hh</text>
</a>
</g>
</g>
<!-- Node1&#45;&gt;Node6 -->
<g id="edge5" class="edge"><title>Node1&#45;&gt;Node6</title>
<path fill="none" stroke="midnightblue" d="M554.002,-118.558C525.719,-114.522 486.829,-103.892 467.5,-76 455.206,-58.26 471.007,-32.891 481.169,-19.7068"/>
<polygon fill="midnightblue" stroke="midnightblue" points="553.911,-122.073 564.26,-119.805 554.755,-115.124 553.911,-122.073"/>
</g>
<!-- Node7 -->
<g id="node7" class="node"><title>Node7</title>
<g id="a_node7"><a xlink:href="a00128.html" target="_top" xlink:title="windows&#45;manager.hh">
<polygon fill="white" stroke="black" points="476,-56.5 476,-75.5 585,-75.5 585,-56.5 476,-56.5"/>
<text text-anchor="middle" x="530.5" y="-63.5" font-family="Helvetica,sans-Serif" font-size="10.00">windows&#45;manager.hh</text>
</a>
</g>
</g>
<!-- Node1&#45;&gt;Node7 -->
<g id="edge6" class="edge"><title>Node1&#45;&gt;Node7</title>
<path fill="none" stroke="midnightblue" d="M570.879,-105.253C560.766,-95.6731 548.223,-83.7906 539.825,-75.8339"/>
<polygon fill="midnightblue" stroke="midnightblue" points="568.675,-107.987 578.342,-112.324 573.49,-102.906 568.675,-107.987"/>
</g>
<!-- Node8 -->
<g id="node8" class="node"><title>Node8</title>
<g id="a_node8"><a xlink:href="a00112.html" target="_top" xlink:title="pick&#45;handler.hh">
<polygon fill="white" stroke="black" points="603,-56.5 603,-75.5 686,-75.5 686,-56.5 603,-56.5"/>
<text text-anchor="middle" x="644.5" y="-63.5" font-family="Helvetica,sans-Serif" font-size="10.00">pick&#45;handler.hh</text>
</a>
</g>
</g>
<!-- Node1&#45;&gt;Node8 -->
<g id="edge8" class="edge"><title>Node1&#45;&gt;Node8</title>
<path fill="none" stroke="midnightblue" d="M604.121,-105.253C614.234,-95.6731 626.777,-83.7906 635.175,-75.8339"/>
<polygon fill="midnightblue" stroke="midnightblue" points="601.51,-102.906 596.658,-112.324 606.325,-107.987 601.51,-102.906"/>
</g>
<!-- Node9 -->
<g id="node9" class="node"><title>Node9</title>
<g id="a_node9"><a xlink:href="a00115.html" target="_top" xlink:title="pythonwidget.hh">
<polygon fill="white" stroke="black" points="704.5,-56.5 704.5,-75.5 792.5,-75.5 792.5,-56.5 704.5,-56.5"/>
<text text-anchor="middle" x="748.5" y="-63.5" font-family="Helvetica,sans-Serif" font-size="10.00">pythonwidget.hh</text>
</a>
</g>
</g>
<!-- Node1&#45;&gt;Node9 -->
<g id="edge9" class="edge"><title>Node1&#45;&gt;Node9</title>
<path fill="none" stroke="midnightblue" d="M620.288,-110.003C650.691,-99.8054 695.3,-84.8435 723.085,-75.5243"/>
<polygon fill="midnightblue" stroke="midnightblue" points="618.935,-106.765 610.567,-113.263 621.161,-113.401 618.935,-106.765"/>
</g>
<!-- Node10 -->
<g id="node10" class="node"><title>Node10</title>
<g id="a_node10"><a xlink:href="a00118.html" target="_top" xlink:title="safeapplication.hh">
<polygon fill="white" stroke="black" points="811,-56.5 811,-75.5 906,-75.5 906,-56.5 811,-56.5"/>
<text text-anchor="middle" x="858.5" y="-63.5" font-family="Helvetica,sans-Serif" font-size="10.00">safeapplication.hh</text>
</a>
</g>
</g>
<!-- Node1&#45;&gt;Node10 -->
<g id="edge10" class="edge"><title>Node1&#45;&gt;Node10</title>
<path fill="none" stroke="midnightblue" d="M620.679,-114.389C669.732,-104.614 761.615,-86.3056 815.685,-75.5313"/>
<polygon fill="midnightblue" stroke="midnightblue" points="619.729,-111.009 610.605,-116.396 621.097,-117.874 619.729,-111.009"/>
</g>
<!-- Node11 -->
<g id="node11" class="node"><title>Node11</title>
<g id="a_node11"><a xlink:href="a00119.html" target="_top" xlink:title="selection&#45;event.hh">
<polygon fill="white" stroke="black" points="924.5,-56.5 924.5,-75.5 1020.5,-75.5 1020.5,-56.5 924.5,-56.5"/>
<text text-anchor="middle" x="972.5" y="-63.5" font-family="Helvetica,sans-Serif" font-size="10.00">selection&#45;event.hh</text>
</a>
</g>
</g>
<!-- Node1&#45;&gt;Node11 -->
<g id="edge11" class="edge"><title>Node1&#45;&gt;Node11</title>
<path fill="none" stroke="midnightblue" d="M620.847,-116.652C680.166,-108.867 807.903,-91.8737 915.5,-76 918.374,-75.576 921.329,-75.1325 924.308,-74.6795"/>
<polygon fill="midnightblue" stroke="midnightblue" points="620.048,-113.227 610.587,-117.996 620.957,-120.167 620.048,-113.227"/>
</g>
<!-- Node12 -->
<g id="node12" class="node"><title>Node12</title>
<g id="a_node12"><a xlink:href="a00120.html" target="_top" xlink:title="selection&#45;handler.hh">
<polygon fill="white" stroke="black" points="1038.5,-56.5 1038.5,-75.5 1142.5,-75.5 1142.5,-56.5 1038.5,-56.5"/>
<text text-anchor="middle" x="1090.5" y="-63.5" font-family="Helvetica,sans-Serif" font-size="10.00">selection&#45;handler.hh</text>
</a>
</g>
</g>
<!-- Node1&#45;&gt;Node12 -->
<g id="edge12" class="edge"><title>Node1&#45;&gt;Node12</title>
<path fill="none" stroke="midnightblue" d="M620.6,-118.143C694.215,-111.678 877.028,-94.9997 1029.5,-76 1032.37,-75.6426 1035.31,-75.2605 1038.28,-74.8628"/>
<polygon fill="midnightblue" stroke="midnightblue" points="620.205,-114.665 610.548,-119.022 620.815,-121.638 620.205,-114.665"/>
</g>
<!-- Node13 -->
<g id="node13" class="node"><title>Node13</title>
<g id="a_node13"><a xlink:href="a00124.html" target="_top" xlink:title="tree&#45;item.hh">
<polygon fill="white" stroke="black" points="1160.5,-56.5 1160.5,-75.5 1228.5,-75.5 1228.5,-56.5 1160.5,-56.5"/>
<text text-anchor="middle" x="1194.5" y="-63.5" font-family="Helvetica,sans-Serif" font-size="10.00">tree&#45;item.hh</text>
</a>
</g>
</g>
<!-- Node1&#45;&gt;Node13 -->
<g id="edge13" class="edge"><title>Node1&#45;&gt;Node13</title>
<path fill="none" stroke="midnightblue" d="M620.832,-119.816C708.27,-116.391 951.301,-104.819 1151.5,-76 1154.37,-75.587 1157.33,-75.0984 1160.3,-74.5656"/>
<polygon fill="midnightblue" stroke="midnightblue" points="620.577,-116.323 610.718,-120.203 620.844,-123.318 620.577,-116.323"/>
</g>
<!-- Node7&#45;&gt;Node6 -->
<g id="edge7" class="edge"><title>Node7&#45;&gt;Node6</title>
<path fill="none" stroke="midnightblue" d="M517.39,-48.144C510.072,-38.7357 501.259,-27.4046 495.306,-19.7511"/>
<polygon fill="midnightblue" stroke="midnightblue" points="514.662,-50.3383 523.565,-56.083 520.188,-46.0406 514.662,-50.3383"/>
</g>
</g>
</svg>
