<?xml version="1.0" encoding="UTF-8" standalone="no"?>
<!DOCTYPE svg PUBLIC "-//W3C//DTD SVG 1.1//EN"
 "http://www.w3.org/Graphics/SVG/1.1/DTD/svg11.dtd">
<!-- Generated by graphviz version 2.38.0 (20140413.2041)
 -->
<!-- Title: node&#45;action.hh Pages: 1 -->
<svg width="3207pt" height="397pt"
 viewBox="0.00 0.00 3206.50 397.00" xmlns="http://www.w3.org/2000/svg" xmlns:xlink="http://www.w3.org/1999/xlink">
<g id="graph0" class="graph" transform="scale(1 1) rotate(0) translate(4 393)">
<title>node&#45;action.hh</title>
<polygon fill="white" stroke="none" points="-4,4 -4,-393 3202.5,-393 3202.5,4 -4,4"/>
<!-- Node1 -->
<g id="node1" class="node"><title>Node1</title>
<polygon fill="#bfbfbf" stroke="black" points="1075,-369.5 1075,-388.5 1155,-388.5 1155,-369.5 1075,-369.5"/>
<text text-anchor="middle" x="1115" y="-376.5" font-family="Helvetica,sans-Serif" font-size="10.00">node&#45;action.hh</text>
</g>
<!-- Node2 -->
<g id="node2" class="node"><title>Node2</title>
<g id="a_node2"><a xlink:href="a00085.html" target="_top" xlink:title="gepetto/gui/fwd.hh">
<polygon fill="white" stroke="black" points="157.5,-185 157.5,-204 254.5,-204 254.5,-185 157.5,-185"/>
<text text-anchor="middle" x="206" y="-192" font-family="Helvetica,sans-Serif" font-size="10.00">gepetto/gui/fwd.hh</text>
</a>
</g>
</g>
<!-- Node1&#45;&gt;Node2 -->
<g id="edge1" class="edge"><title>Node1&#45;&gt;Node2</title>
<path fill="none" stroke="midnightblue" d="M1074.77,-369.923C928.203,-340.497 422.822,-239.031 258.25,-205.99"/>
<polygon fill="midnightblue" stroke="midnightblue" points="258.861,-202.543 248.367,-204.006 257.483,-209.406 258.861,-202.543"/>
</g>
<!-- Node12 -->
<g id="node12" class="node"><title>Node12</title>
<polygon fill="white" stroke="#bfbfbf" points="1089,-313.5 1089,-332.5 1141,-332.5 1141,-313.5 1089,-313.5"/>
<text text-anchor="middle" x="1115" y="-320.5" font-family="Helvetica,sans-Serif" font-size="10.00">QAction</text>
</g>
<!-- Node1&#45;&gt;Node12 -->
<g id="edge12" class="edge"><title>Node1&#45;&gt;Node12</title>
<path fill="none" stroke="midnightblue" d="M1115,-369.083C1115,-362.006 1115,-351.861 1115,-342.986"/>
<polygon fill="midnightblue" stroke="midnightblue" points="1118.5,-342.751 1115,-332.751 1111.5,-342.751 1118.5,-342.751"/>
</g>
<!-- Node13 -->
<g id="node13" class="node"><title>Node13</title>
<g id="a_node13"><a xlink:href="a00109.html" target="_top" xlink:title="gepetto/viewer/node.h">
<polygon fill="white" stroke="black" points="1419.5,-313.5 1419.5,-332.5 1532.5,-332.5 1532.5,-313.5 1419.5,-313.5"/>
<text text-anchor="middle" x="1476" y="-320.5" font-family="Helvetica,sans-Serif" font-size="10.00">gepetto/viewer/node.h</text>
</a>
</g>
</g>
<!-- Node1&#45;&gt;Node13 -->
<g id="edge13" class="edge"><title>Node1&#45;&gt;Node13</title>
<path fill="none" stroke="midnightblue" d="M1155.01,-372.015C1216.38,-362.835 1334.44,-345.175 1409.01,-334.021"/>
<polygon fill="midnightblue" stroke="midnightblue" points="1409.86,-337.433 1419.23,-332.492 1408.82,-330.51 1409.86,-337.433"/>
</g>
<!-- Node3 -->
<g id="node3" class="node"><title>Node3</title>
<polygon fill="white" stroke="#bfbfbf" points="0,-118 0,-137 44,-137 44,-118 0,-118"/>
<text text-anchor="middle" x="22" y="-125" font-family="Helvetica,sans-Serif" font-size="10.00">vector</text>
</g>
<!-- Node2&#45;&gt;Node3 -->
<g id="edge2" class="edge"><title>Node2&#45;&gt;Node3</title>
<path fill="none" stroke="midnightblue" d="M176.585,-184.927C145.505,-175.607 95.243,-159.782 53,-143 51.6196,-142.452 50.2131,-141.872 48.7988,-141.273"/>
<polygon fill="midnightblue" stroke="midnightblue" points="50.105,-138.023 39.5463,-137.148 47.2552,-144.416 50.105,-138.023"/>
</g>
<!-- Node4 -->
<g id="node4" class="node"><title>Node4</title>
<polygon fill="white" stroke="#bfbfbf" points="62.5,-118 62.5,-137 117.5,-137 117.5,-118 62.5,-118"/>
<text text-anchor="middle" x="90" y="-125" font-family="Helvetica,sans-Serif" font-size="10.00">QtGlobal</text>
</g>
<!-- Node2&#45;&gt;Node4 -->
<g id="edge3" class="edge"><title>Node2&#45;&gt;Node4</title>
<path fill="none" stroke="midnightblue" d="M190.356,-184.734C170.789,-173.769 137.08,-154.881 114.181,-142.049"/>
<polygon fill="midnightblue" stroke="midnightblue" points="115.831,-138.962 105.396,-137.127 112.409,-145.069 115.831,-138.962"/>
</g>
<!-- Node5 -->
<g id="node5" class="node"><title>Node5</title>
<polygon fill="white" stroke="#bfbfbf" points="136,-118 136,-137 178,-137 178,-118 136,-118"/>
<text text-anchor="middle" x="157" y="-125" font-family="Helvetica,sans-Serif" font-size="10.00">QtGui</text>
</g>
<!-- Node2&#45;&gt;Node5 -->
<g id="edge4" class="edge"><title>Node2&#45;&gt;Node5</title>
<path fill="none" stroke="midnightblue" d="M199.392,-184.734C191.824,-174.695 179.249,-158.014 169.756,-145.421"/>
<polygon fill="midnightblue" stroke="midnightblue" points="172.318,-143.006 163.504,-137.127 166.728,-147.219 172.318,-143.006"/>
</g>
<!-- Node6 -->
<g id="node6" class="node"><title>Node6</title>
<g id="a_node6"><a xlink:href="a00102.html" target="_top" xlink:title="gepetto/viewer/macros.h">
<polygon fill="white" stroke="black" points="338,-56.5 338,-75.5 462,-75.5 462,-56.5 338,-56.5"/>
<text text-anchor="middle" x="400" y="-63.5" font-family="Helvetica,sans-Serif" font-size="10.00">gepetto/viewer/macros.h</text>
</a>
</g>
</g>
<!-- Node2&#45;&gt;Node6 -->
<g id="edge5" class="edge"><title>Node2&#45;&gt;Node6</title>
<path fill="none" stroke="midnightblue" d="M205.324,-184.765C204.553,-168.191 205.398,-132.051 225,-112 239.922,-96.7362 288.434,-84.9839 330.606,-77.3232"/>
<polygon fill="midnightblue" stroke="midnightblue" points="331.365,-80.7434 340.606,-75.56 330.15,-73.8497 331.365,-80.7434"/>
</g>
<!-- Node10 -->
<g id="node10" class="node"><title>Node10</title>
<g id="a_node10"><a xlink:href="a00084.html" target="_top" xlink:title="gepetto/viewer/fwd.h">
<polygon fill="white" stroke="black" points="346.5,-118 346.5,-137 453.5,-137 453.5,-118 346.5,-118"/>
<text text-anchor="middle" x="400" y="-125" font-family="Helvetica,sans-Serif" font-size="10.00">gepetto/viewer/fwd.h</text>
</a>
</g>
</g>
<!-- Node2&#45;&gt;Node10 -->
<g id="edge9" class="edge"><title>Node2&#45;&gt;Node10</title>
<path fill="none" stroke="midnightblue" d="M231.762,-184.869C265.918,-173.424 326.338,-153.181 364.715,-140.322"/>
<polygon fill="midnightblue" stroke="midnightblue" points="366.071,-143.559 374.441,-137.064 363.847,-136.922 366.071,-143.559"/>
</g>
<!-- Node11 -->
<g id="node11" class="node"><title>Node11</title>
<polygon fill="white" stroke="#bfbfbf" points="234,-112.5 234,-142.5 328,-142.5 328,-112.5 234,-112.5"/>
<text text-anchor="start" x="242" y="-130.5" font-family="Helvetica,sans-Serif" font-size="10.00">gepetto/gui/config</text>
<text text-anchor="middle" x="281" y="-119.5" font-family="Helvetica,sans-Serif" font-size="10.00">&#45;dep.hh</text>
</g>
<!-- Node2&#45;&gt;Node11 -->
<g id="edge11" class="edge"><title>Node2&#45;&gt;Node11</title>
<path fill="none" stroke="midnightblue" d="M216.115,-184.734C226.543,-175.696 243.184,-161.274 257.002,-149.298"/>
<polygon fill="midnightblue" stroke="midnightblue" points="259.479,-151.783 264.743,-142.589 254.894,-146.493 259.479,-151.783"/>
</g>
<!-- Node7 -->
<g id="node7" class="node"><title>Node7</title>
<polygon fill="white" stroke="#bfbfbf" points="223,-0.5 223,-19.5 331,-19.5 331,-0.5 223,-0.5"/>
<text text-anchor="middle" x="277" y="-7.5" font-family="Helvetica,sans-Serif" font-size="10.00">boost/shared_ptr.hpp</text>
</g>
<!-- Node6&#45;&gt;Node7 -->
<g id="edge6" class="edge"><title>Node6&#45;&gt;Node7</title>
<path fill="none" stroke="midnightblue" d="M380.51,-56.4435C360.358,-47.5961 328.677,-33.6875 305.669,-23.5865"/>
<polygon fill="midnightblue" stroke="midnightblue" points="306.962,-20.3316 296.399,-19.5164 304.148,-26.7411 306.962,-20.3316"/>
</g>
<!-- Node8 -->
<g id="node8" class="node"><title>Node8</title>
<polygon fill="white" stroke="#bfbfbf" points="349,-0.5 349,-19.5 451,-19.5 451,-0.5 349,-0.5"/>
<text text-anchor="middle" x="400" y="-7.5" font-family="Helvetica,sans-Serif" font-size="10.00">boost/weak_ptr.hpp</text>
</g>
<!-- Node6&#45;&gt;Node8 -->
<g id="edge7" class="edge"><title>Node6&#45;&gt;Node8</title>
<path fill="none" stroke="midnightblue" d="M400,-56.083C400,-49.0059 400,-38.8611 400,-29.9865"/>
<polygon fill="midnightblue" stroke="midnightblue" points="403.5,-29.751 400,-19.7511 396.5,-29.7511 403.5,-29.751"/>
</g>
<!-- Node9 -->
<g id="node9" class="node"><title>Node9</title>
<polygon fill="white" stroke="#bfbfbf" points="469.5,-0.5 469.5,-19.5 532.5,-19.5 532.5,-0.5 469.5,-0.5"/>
<text text-anchor="middle" x="501" y="-7.5" font-family="Helvetica,sans-Serif" font-size="10.00">osg/ref_ptr</text>
</g>
<!-- Node6&#45;&gt;Node9 -->
<g id="edge8" class="edge"><title>Node6&#45;&gt;Node9</title>
<path fill="none" stroke="midnightblue" d="M416.227,-56.324C432.351,-47.7034 457.3,-34.3643 475.964,-24.3855"/>
<polygon fill="midnightblue" stroke="midnightblue" points="477.644,-27.456 484.813,-19.6545 474.344,-21.283 477.644,-27.456"/>
</g>
<!-- Node10&#45;&gt;Node6 -->
<g id="edge10" class="edge"><title>Node10&#45;&gt;Node6</title>
<path fill="none" stroke="midnightblue" d="M400,-117.975C400,-109.58 400,-96.4806 400,-85.6631"/>
<polygon fill="midnightblue" stroke="midnightblue" points="403.5,-85.5091 400,-75.5091 396.5,-85.5091 403.5,-85.5091"/>
</g>
<!-- Node13&#45;&gt;Node10 -->
<g id="edge15" class="edge"><title>Node13&#45;&gt;Node10</title>
<path fill="none" stroke="midnightblue" d="M1419.45,-313.499C1264.81,-289.945 822.211,-220.445 458,-143 452.927,-141.921 447.625,-140.711 442.376,-139.462"/>
<polygon fill="midnightblue" stroke="midnightblue" points="442.966,-136.004 432.422,-137.037 441.309,-142.805 442.966,-136.004"/>
</g>
<!-- Node14 -->
<g id="node14" class="node"><title>Node14</title>
<polygon fill="white" stroke="#bfbfbf" points="1460,-185 1460,-204 1514,-204 1514,-185 1460,-185"/>
<text text-anchor="middle" x="1487" y="-192" font-family="Helvetica,sans-Serif" font-size="10.00">iostream</text>
</g>
<!-- Node13&#45;&gt;Node14 -->
<g id="edge14" class="edge"><title>Node13&#45;&gt;Node14</title>
<path fill="none" stroke="midnightblue" d="M1470.62,-313.443C1465.44,-304.678 1457.99,-290.467 1455,-277 1452.02,-263.549 1451.16,-259.232 1455,-246 1458.59,-233.611 1466.24,-221.349 1473.16,-212.011"/>
<polygon fill="midnightblue" stroke="midnightblue" points="1475.99,-214.072 1479.41,-204.045 1470.48,-209.75 1475.99,-214.072"/>
</g>
<!-- Node15 -->
<g id="node15" class="node"><title>Node15</title>
<g id="a_node15"><a xlink:href="a00108.html" target="_top" xlink:title="gepetto/viewer/node\l&#45;visitor.h">
<polygon fill="white" stroke="black" points="1464,-246.5 1464,-276.5 1568,-276.5 1568,-246.5 1464,-246.5"/>
<text text-anchor="start" x="1472" y="-264.5" font-family="Helvetica,sans-Serif" font-size="10.00">gepetto/viewer/node</text>
<text text-anchor="middle" x="1516" y="-253.5" font-family="Helvetica,sans-Serif" font-size="10.00">&#45;visitor.h</text>
</a>
</g>
</g>
<!-- Node13&#45;&gt;Node15 -->
<g id="edge16" class="edge"><title>Node13&#45;&gt;Node15</title>
<path fill="none" stroke="midnightblue" d="M1481.73,-313.475C1486.74,-306.019 1494.25,-294.852 1500.96,-284.869"/>
<polygon fill="midnightblue" stroke="midnightblue" points="1503.9,-286.775 1506.57,-276.523 1498.09,-282.869 1503.9,-286.775"/>
</g>
<!-- Node16 -->
<g id="node16" class="node"><title>Node16</title>
<g id="a_node16"><a xlink:href="a00080.html" target="_top" xlink:title="gepetto/viewer/config\l&#45;osg.h">
<polygon fill="white" stroke="black" points="1570,-179.5 1570,-209.5 1680,-209.5 1680,-179.5 1570,-179.5"/>
<text text-anchor="start" x="1578" y="-197.5" font-family="Helvetica,sans-Serif" font-size="10.00">gepetto/viewer/config</text>
<text text-anchor="middle" x="1625" y="-186.5" font-family="Helvetica,sans-Serif" font-size="10.00">&#45;osg.h</text>
</a>
</g>
</g>
<!-- Node13&#45;&gt;Node16 -->
<g id="edge55" class="edge"><title>Node13&#45;&gt;Node16</title>
<path fill="none" stroke="midnightblue" d="M1508,-313.377C1529.43,-306.341 1557.24,-294.643 1577,-277 1594.8,-261.11 1607.85,-237.005 1615.82,-219.127"/>
<polygon fill="midnightblue" stroke="midnightblue" points="1619.14,-220.253 1619.82,-209.68 1612.7,-217.525 1619.14,-220.253"/>
</g>
<!-- Node44 -->
<g id="node44" class="node"><title>Node44</title>
<g id="a_node44"><a xlink:href="a00106.html" target="_top" xlink:title="gepetto/viewer/node\l&#45;property.h">
<polygon fill="white" stroke="black" points="1624,-246.5 1624,-276.5 1728,-276.5 1728,-246.5 1624,-246.5"/>
<text text-anchor="start" x="1632" y="-264.5" font-family="Helvetica,sans-Serif" font-size="10.00">gepetto/viewer/node</text>
<text text-anchor="middle" x="1676" y="-253.5" font-family="Helvetica,sans-Serif" font-size="10.00">&#45;property.h</text>
</a>
</g>
</g>
<!-- Node13&#45;&gt;Node44 -->
<g id="edge48" class="edge"><title>Node13&#45;&gt;Node44</title>
<path fill="none" stroke="midnightblue" d="M1504.66,-313.475C1534.4,-304.626 1581.72,-290.549 1619.1,-279.428"/>
<polygon fill="midnightblue" stroke="midnightblue" points="1620.28,-282.729 1628.86,-276.523 1618.28,-276.02 1620.28,-282.729"/>
</g>
<!-- Node15&#45;&gt;Node14 -->
<g id="edge17" class="edge"><title>Node15&#45;&gt;Node14</title>
<path fill="none" stroke="midnightblue" d="M1509.71,-246.396C1505.41,-236.763 1499.68,-223.914 1495.05,-213.537"/>
<polygon fill="midnightblue" stroke="midnightblue" points="1498.15,-211.901 1490.88,-204.195 1491.76,-214.753 1498.15,-211.901"/>
</g>
<!-- Node15&#45;&gt;Node16 -->
<g id="edge18" class="edge"><title>Node15&#45;&gt;Node16</title>
<path fill="none" stroke="midnightblue" d="M1539.65,-246.396C1555.08,-237.197 1575.42,-225.066 1592.38,-214.955"/>
<polygon fill="midnightblue" stroke="midnightblue" points="1594.6,-217.704 1601.39,-209.577 1591.01,-211.692 1594.6,-217.704"/>
</g>
<!-- Node16&#45;&gt;Node6 -->
<g id="edge47" class="edge"><title>Node16&#45;&gt;Node6</title>
<path fill="none" stroke="midnightblue" d="M1569.78,-181.018C1565.13,-180.235 1560.5,-179.545 1556,-179 1439.56,-164.887 611.064,-183.533 501,-143 480.222,-135.348 479.631,-125.395 462,-112 448.365,-101.641 432.763,-90.319 420.621,-81.6234"/>
<polygon fill="midnightblue" stroke="midnightblue" points="422.642,-78.7661 412.469,-75.8071 418.576,-84.4644 422.642,-78.7661"/>
</g>
<!-- Node16&#45;&gt;Node10 -->
<g id="edge46" class="edge"><title>Node16&#45;&gt;Node10</title>
<path fill="none" stroke="midnightblue" d="M1569.78,-181.013C1565.13,-180.231 1560.5,-179.543 1556,-179 1075.67,-121.031 948.249,-201.679 468,-143 460.335,-142.063 452.255,-140.69 444.446,-139.155"/>
<polygon fill="midnightblue" stroke="midnightblue" points="444.896,-135.674 434.394,-137.07 443.474,-142.528 444.896,-135.674"/>
</g>
<!-- Node17 -->
<g id="node17" class="node"><title>Node17</title>
<polygon fill="white" stroke="#bfbfbf" points="510,-118 510,-137 578,-137 578,-118 510,-118"/>
<text text-anchor="middle" x="544" y="-125" font-family="Helvetica,sans-Serif" font-size="10.00">QMetaType</text>
</g>
<!-- Node16&#45;&gt;Node17 -->
<g id="edge19" class="edge"><title>Node16&#45;&gt;Node17</title>
<path fill="none" stroke="midnightblue" d="M1569.78,-181.033C1565.13,-180.247 1560.5,-179.552 1556,-179 1128.69,-126.542 1011.74,-219.125 588,-143 584.017,-142.284 579.9,-141.29 575.856,-140.154"/>
<polygon fill="midnightblue" stroke="midnightblue" points="576.658,-136.738 566.07,-137.117 574.583,-143.424 576.658,-136.738"/>
</g>
<!-- Node18 -->
<g id="node18" class="node"><title>Node18</title>
<polygon fill="white" stroke="#bfbfbf" points="596.5,-118 596.5,-137 659.5,-137 659.5,-118 596.5,-118"/>
<text text-anchor="middle" x="628" y="-125" font-family="Helvetica,sans-Serif" font-size="10.00">osg/Shape</text>
</g>
<!-- Node16&#45;&gt;Node18 -->
<g id="edge20" class="edge"><title>Node16&#45;&gt;Node18</title>
<path fill="none" stroke="midnightblue" d="M1569.77,-181.049C1565.13,-180.26 1560.49,-179.559 1556,-179 1164.48,-130.261 1056.43,-217.609 669,-143 665.483,-142.323 661.862,-141.399 658.295,-140.342"/>
<polygon fill="midnightblue" stroke="midnightblue" points="659.116,-136.927 648.523,-137.111 656.918,-143.573 659.116,-136.927"/>
</g>
<!-- Node19 -->
<g id="node19" class="node"><title>Node19</title>
<polygon fill="white" stroke="#bfbfbf" points="678,-118 678,-137 782,-137 782,-118 678,-118"/>
<text text-anchor="middle" x="730" y="-125" font-family="Helvetica,sans-Serif" font-size="10.00">osg/ShapeDrawable</text>
</g>
<!-- Node16&#45;&gt;Node19 -->
<g id="edge21" class="edge"><title>Node16&#45;&gt;Node19</title>
<path fill="none" stroke="midnightblue" d="M1569.77,-181.081C1565.13,-180.285 1560.49,-179.574 1556,-179 1218.37,-135.862 1128.04,-190.564 791,-143 784.492,-142.082 777.662,-140.79 771.022,-139.352"/>
<polygon fill="midnightblue" stroke="midnightblue" points="771.349,-135.836 760.819,-137.005 769.78,-142.658 771.349,-135.836"/>
</g>
<!-- Node20 -->
<g id="node20" class="node"><title>Node20</title>
<polygon fill="white" stroke="#bfbfbf" points="800,-118 800,-137 878,-137 878,-118 800,-118"/>
<text text-anchor="middle" x="839" y="-125" font-family="Helvetica,sans-Serif" font-size="10.00">osg/Geometry</text>
</g>
<!-- Node16&#45;&gt;Node20 -->
<g id="edge22" class="edge"><title>Node16&#45;&gt;Node20</title>
<path fill="none" stroke="midnightblue" d="M1569.77,-181.115C1565.12,-180.311 1560.49,-179.589 1556,-179 1260.77,-140.268 1180.29,-194.422 887,-143 882.439,-142.2 877.702,-141.107 873.058,-139.877"/>
<polygon fill="midnightblue" stroke="midnightblue" points="873.724,-136.426 863.146,-137.025 871.788,-143.154 873.724,-136.426"/>
</g>
<!-- Node21 -->
<g id="node21" class="node"><title>Node21</title>
<polygon fill="white" stroke="#bfbfbf" points="896,-118 896,-137 960,-137 960,-118 896,-118"/>
<text text-anchor="middle" x="928" y="-125" font-family="Helvetica,sans-Serif" font-size="10.00">osg/Geode</text>
</g>
<!-- Node16&#45;&gt;Node21 -->
<g id="edge23" class="edge"><title>Node16&#45;&gt;Node21</title>
<path fill="none" stroke="midnightblue" d="M1569.76,-181.151C1565.12,-180.34 1560.49,-179.606 1556,-179 1296.97,-144.03 1225.14,-195.079 969,-143 965.49,-142.286 961.873,-141.339 958.31,-140.27"/>
<polygon fill="midnightblue" stroke="midnightblue" points="959.133,-136.855 948.54,-137.024 956.926,-143.498 959.133,-136.855"/>
</g>
<!-- Node22 -->
<g id="node22" class="node"><title>Node22</title>
<polygon fill="white" stroke="#bfbfbf" points="977.5,-118 977.5,-137 1126.5,-137 1126.5,-118 977.5,-118"/>
<text text-anchor="middle" x="1052" y="-125" font-family="Helvetica,sans-Serif" font-size="10.00">osg/PositionAttitudeTransform</text>
</g>
<!-- Node16&#45;&gt;Node22 -->
<g id="edge24" class="edge"><title>Node16&#45;&gt;Node22</title>
<path fill="none" stroke="midnightblue" d="M1569.74,-181.271C1565.11,-180.433 1560.48,-179.66 1556,-179 1370.65,-151.685 1321.81,-166.956 1136,-143 1126.63,-141.792 1116.71,-140.285 1107.1,-138.703"/>
<polygon fill="midnightblue" stroke="midnightblue" points="1107.67,-135.251 1097.23,-137.037 1106.51,-142.153 1107.67,-135.251"/>
</g>
<!-- Node23 -->
<g id="node23" class="node"><title>Node23</title>
<polygon fill="white" stroke="#bfbfbf" points="1145,-118 1145,-137 1245,-137 1245,-118 1145,-118"/>
<text text-anchor="middle" x="1195" y="-125" font-family="Helvetica,sans-Serif" font-size="10.00">osg/AutoTransform</text>
</g>
<!-- Node16&#45;&gt;Node23 -->
<g id="edge25" class="edge"><title>Node16&#45;&gt;Node23</title>
<path fill="none" stroke="midnightblue" d="M1569.72,-181.436C1565.09,-180.561 1560.47,-179.735 1556,-179 1423.06,-157.125 1387.6,-166.866 1255,-143 1249.19,-141.954 1243.1,-140.687 1237.12,-139.342"/>
<polygon fill="midnightblue" stroke="midnightblue" points="1237.77,-135.899 1227.24,-137.031 1236.18,-142.715 1237.77,-135.899"/>
</g>
<!-- Node24 -->
<g id="node24" class="node"><title>Node24</title>
<polygon fill="white" stroke="#bfbfbf" points="1263.5,-118 1263.5,-137 1370.5,-137 1370.5,-118 1263.5,-118"/>
<text text-anchor="middle" x="1317" y="-125" font-family="Helvetica,sans-Serif" font-size="10.00">osg/MatrixTransform</text>
</g>
<!-- Node16&#45;&gt;Node24 -->
<g id="edge26" class="edge"><title>Node16&#45;&gt;Node24</title>
<path fill="none" stroke="midnightblue" d="M1569.64,-181.84C1565.03,-180.876 1560.43,-179.92 1556,-179 1477.82,-162.79 1458.02,-159.955 1380,-143 1374.58,-141.823 1368.91,-140.561 1363.29,-139.29"/>
<polygon fill="midnightblue" stroke="midnightblue" points="1363.81,-135.818 1353.28,-137.009 1362.25,-142.643 1363.81,-135.818"/>
</g>
<!-- Node25 -->
<g id="node25" class="node"><title>Node25</title>
<polygon fill="white" stroke="#bfbfbf" points="1388.5,-118 1388.5,-137 1447.5,-137 1447.5,-118 1388.5,-118"/>
<text text-anchor="middle" x="1418" y="-125" font-family="Helvetica,sans-Serif" font-size="10.00">osg/Node</text>
</g>
<!-- Node16&#45;&gt;Node25 -->
<g id="edge27" class="edge"><title>Node16&#45;&gt;Node25</title>
<path fill="none" stroke="midnightblue" d="M1575.12,-179.413C1541.56,-169.713 1496.41,-156.234 1457,-143 1454.6,-142.195 1452.13,-141.339 1449.65,-140.462"/>
<polygon fill="midnightblue" stroke="midnightblue" points="1450.78,-137.147 1440.19,-137.028 1448.39,-143.728 1450.78,-137.147"/>
</g>
<!-- Node26 -->
<g id="node26" class="node"><title>Node26</title>
<polygon fill="white" stroke="#bfbfbf" points="1466,-118 1466,-137 1528,-137 1528,-118 1466,-118"/>
<text text-anchor="middle" x="1497" y="-125" font-family="Helvetica,sans-Serif" font-size="10.00">osg/Group</text>
</g>
<!-- Node16&#45;&gt;Node26 -->
<g id="edge28" class="edge"><title>Node16&#45;&gt;Node26</title>
<path fill="none" stroke="midnightblue" d="M1597.23,-179.396C1575.06,-168.142 1544.26,-152.501 1522.67,-141.538"/>
<polygon fill="midnightblue" stroke="midnightblue" points="1524.25,-138.414 1513.75,-137.007 1521.08,-144.656 1524.25,-138.414"/>
</g>
<!-- Node27 -->
<g id="node27" class="node"><title>Node27</title>
<polygon fill="white" stroke="#bfbfbf" points="1546.5,-118 1546.5,-137 1611.5,-137 1611.5,-118 1546.5,-118"/>
<text text-anchor="middle" x="1579" y="-125" font-family="Helvetica,sans-Serif" font-size="10.00">osg/Switch</text>
</g>
<!-- Node16&#45;&gt;Node27 -->
<g id="edge29" class="edge"><title>Node16&#45;&gt;Node27</title>
<path fill="none" stroke="midnightblue" d="M1615.02,-179.396C1607.99,-169.462 1598.54,-156.108 1591.08,-145.572"/>
<polygon fill="midnightblue" stroke="midnightblue" points="1593.79,-143.335 1585.15,-137.195 1588.07,-147.379 1593.79,-143.335"/>
</g>
<!-- Node28 -->
<g id="node28" class="node"><title>Node28</title>
<polygon fill="white" stroke="#bfbfbf" points="1630,-118 1630,-137 1712,-137 1712,-118 1630,-118"/>
<text text-anchor="middle" x="1671" y="-125" font-family="Helvetica,sans-Serif" font-size="10.00">osg/ClearNode</text>
</g>
<!-- Node16&#45;&gt;Node28 -->
<g id="edge30" class="edge"><title>Node16&#45;&gt;Node28</title>
<path fill="none" stroke="midnightblue" d="M1634.98,-179.396C1642.01,-169.462 1651.46,-156.108 1658.92,-145.572"/>
<polygon fill="midnightblue" stroke="midnightblue" points="1661.93,-147.379 1664.85,-137.195 1656.21,-143.335 1661.93,-147.379"/>
</g>
<!-- Node29 -->
<g id="node29" class="node"><title>Node29</title>
<polygon fill="white" stroke="#bfbfbf" points="1730.5,-118 1730.5,-137 1809.5,-137 1809.5,-118 1730.5,-118"/>
<text text-anchor="middle" x="1770" y="-125" font-family="Helvetica,sans-Serif" font-size="10.00">osg/LineWidth</text>
</g>
<!-- Node16&#45;&gt;Node29 -->
<g id="edge31" class="edge"><title>Node16&#45;&gt;Node29</title>
<path fill="none" stroke="midnightblue" d="M1656.46,-179.396C1681.9,-167.991 1717.4,-152.079 1741.9,-141.098"/>
<polygon fill="midnightblue" stroke="midnightblue" points="1743.33,-144.291 1751.02,-137.007 1740.47,-137.904 1743.33,-144.291"/>
</g>
<!-- Node30 -->
<g id="node30" class="node"><title>Node30</title>
<polygon fill="white" stroke="#bfbfbf" points="1828,-118 1828,-137 1910,-137 1910,-118 1828,-118"/>
<text text-anchor="middle" x="1869" y="-125" font-family="Helvetica,sans-Serif" font-size="10.00">osg/AlphaFunc</text>
</g>
<!-- Node16&#45;&gt;Node30 -->
<g id="edge32" class="edge"><title>Node16&#45;&gt;Node30</title>
<path fill="none" stroke="midnightblue" d="M1680.3,-179.538C1719.17,-169.617 1772.36,-155.832 1819,-143 1822.61,-142.007 1826.36,-140.955 1830.12,-139.89"/>
<polygon fill="midnightblue" stroke="midnightblue" points="1831.31,-143.19 1839.96,-137.07 1829.38,-136.46 1831.31,-143.19"/>
</g>
<!-- Node31 -->
<g id="node31" class="node"><title>Node31</title>
<polygon fill="white" stroke="#bfbfbf" points="1928,-118 1928,-137 2010,-137 2010,-118 1928,-118"/>
<text text-anchor="middle" x="1969" y="-125" font-family="Helvetica,sans-Serif" font-size="10.00">osg/BlendFunc</text>
</g>
<!-- Node16&#45;&gt;Node31 -->
<g id="edge33" class="edge"><title>Node16&#45;&gt;Node31</title>
<path fill="none" stroke="midnightblue" d="M1680.27,-180.92C1683.56,-180.25 1686.82,-179.604 1690,-179 1791.22,-159.774 1818.44,-165.393 1919,-143 1923.22,-142.061 1927.6,-140.967 1931.95,-139.808"/>
<polygon fill="midnightblue" stroke="midnightblue" points="1933.22,-143.087 1941.91,-137.031 1931.34,-136.344 1933.22,-143.087"/>
</g>
<!-- Node32 -->
<g id="node32" class="node"><title>Node32</title>
<polygon fill="white" stroke="#bfbfbf" points="2028,-118 2028,-137 2102,-137 2102,-118 2028,-118"/>
<text text-anchor="middle" x="2065" y="-125" font-family="Helvetica,sans-Serif" font-size="10.00">osg/StateSet</text>
</g>
<!-- Node16&#45;&gt;Node32 -->
<g id="edge34" class="edge"><title>Node16&#45;&gt;Node32</title>
<path fill="none" stroke="midnightblue" d="M1680.24,-180.742C1683.53,-180.116 1686.81,-179.529 1690,-179 1835.12,-154.95 1875.05,-173.257 2019,-143 2022.94,-142.171 2027.03,-141.141 2031.07,-140.016"/>
<polygon fill="midnightblue" stroke="midnightblue" points="2032.31,-143.298 2040.89,-137.08 2030.3,-136.591 2032.31,-143.298"/>
</g>
<!-- Node33 -->
<g id="node33" class="node"><title>Node33</title>
<polygon fill="white" stroke="#bfbfbf" points="2120,-118 2120,-137 2182,-137 2182,-118 2120,-118"/>
<text text-anchor="middle" x="2151" y="-125" font-family="Helvetica,sans-Serif" font-size="10.00">osg/Depth</text>
</g>
<!-- Node16&#45;&gt;Node33 -->
<g id="edge35" class="edge"><title>Node16&#45;&gt;Node33</title>
<path fill="none" stroke="midnightblue" d="M1680.22,-180.652C1683.52,-180.049 1686.8,-179.491 1690,-179 1875.62,-150.492 1927.59,-183.347 2111,-143 2114.25,-142.286 2117.59,-141.375 2120.89,-140.358"/>
<polygon fill="midnightblue" stroke="midnightblue" points="2122.2,-143.609 2130.55,-137.082 2119.95,-136.98 2122.2,-143.609"/>
</g>
<!-- Node34 -->
<g id="node34" class="node"><title>Node34</title>
<polygon fill="white" stroke="#bfbfbf" points="2200.5,-118 2200.5,-137 2259.5,-137 2259.5,-118 2200.5,-118"/>
<text text-anchor="middle" x="2230" y="-125" font-family="Helvetica,sans-Serif" font-size="10.00">osg/State</text>
</g>
<!-- Node16&#45;&gt;Node34 -->
<g id="edge36" class="edge"><title>Node16&#45;&gt;Node34</title>
<path fill="none" stroke="midnightblue" d="M1680.22,-180.6C1683.52,-180.01 1686.8,-179.47 1690,-179 1910.88,-146.609 1972.84,-190.376 2191,-143 2194.08,-142.332 2197.24,-141.471 2200.36,-140.502"/>
<polygon fill="midnightblue" stroke="midnightblue" points="2201.78,-143.716 2210.09,-137.143 2199.49,-137.1 2201.78,-143.716"/>
</g>
<!-- Node35 -->
<g id="node35" class="node"><title>Node35</title>
<polygon fill="white" stroke="#bfbfbf" points="2278,-118 2278,-137 2334,-137 2334,-118 2278,-118"/>
<text text-anchor="middle" x="2306" y="-125" font-family="Helvetica,sans-Serif" font-size="10.00">osg/Light</text>
</g>
<!-- Node16&#45;&gt;Node35 -->
<g id="edge37" class="edge"><title>Node16&#45;&gt;Node35</title>
<path fill="none" stroke="midnightblue" d="M1680.21,-180.563C1683.51,-179.983 1686.79,-179.454 1690,-179 1945.28,-142.82 2017.26,-198.712 2269,-143 2272,-142.336 2275.08,-141.463 2278.12,-140.475"/>
<polygon fill="midnightblue" stroke="midnightblue" points="2279.34,-143.756 2287.53,-137.039 2276.94,-137.18 2279.34,-143.756"/>
</g>
<!-- Node36 -->
<g id="node36" class="node"><title>Node36</title>
<polygon fill="white" stroke="#bfbfbf" points="2352.5,-118 2352.5,-137 2439.5,-137 2439.5,-118 2352.5,-118"/>
<text text-anchor="middle" x="2396" y="-125" font-family="Helvetica,sans-Serif" font-size="10.00">osg/LightSource</text>
</g>
<!-- Node16&#45;&gt;Node36 -->
<g id="edge38" class="edge"><title>Node16&#45;&gt;Node36</title>
<path fill="none" stroke="midnightblue" d="M1680.21,-180.537C1683.51,-179.963 1686.79,-179.443 1690,-179 1977.93,-139.223 2056.1,-189.613 2343,-143 2348.22,-142.152 2353.67,-140.99 2359,-139.692"/>
<polygon fill="midnightblue" stroke="midnightblue" points="2360.22,-142.989 2369.01,-137.071 2358.45,-136.217 2360.22,-142.989"/>
</g>
<!-- Node37 -->
<g id="node37" class="node"><title>Node37</title>
<polygon fill="white" stroke="#bfbfbf" points="2458,-118 2458,-137 2528,-137 2528,-118 2458,-118"/>
<text text-anchor="middle" x="2493" y="-125" font-family="Helvetica,sans-Serif" font-size="10.00">osg/Material</text>
</g>
<!-- Node16&#45;&gt;Node37 -->
<g id="edge39" class="edge"><title>Node16&#45;&gt;Node37</title>
<path fill="none" stroke="midnightblue" d="M1680.2,-180.507C1683.51,-179.941 1686.79,-179.431 1690,-179 2024.71,-134.069 2116.92,-204.413 2449,-143 2452.98,-142.264 2457.09,-141.257 2461.14,-140.115"/>
<polygon fill="midnightblue" stroke="midnightblue" points="2462.41,-143.383 2470.92,-137.071 2460.33,-136.699 2462.41,-143.383"/>
</g>
<!-- Node38 -->
<g id="node38" class="node"><title>Node38</title>
<polygon fill="white" stroke="#bfbfbf" points="2546,-118 2546,-137 2616,-137 2616,-118 2546,-118"/>
<text text-anchor="middle" x="2581" y="-125" font-family="Helvetica,sans-Serif" font-size="10.00">osg/Camera</text>
</g>
<!-- Node16&#45;&gt;Node38 -->
<g id="edge40" class="edge"><title>Node16&#45;&gt;Node38</title>
<path fill="none" stroke="midnightblue" d="M1680.2,-180.489C1683.51,-179.927 1686.79,-179.423 1690,-179 2063.56,-129.79 2166.33,-210.607 2537,-143 2540.98,-142.274 2545.1,-141.273 2549.14,-140.134"/>
<polygon fill="midnightblue" stroke="midnightblue" points="2550.41,-143.403 2558.93,-137.093 2548.34,-136.718 2550.41,-143.403"/>
</g>
<!-- Node39 -->
<g id="node39" class="node"><title>Node39</title>
<polygon fill="white" stroke="#bfbfbf" points="2634,-118 2634,-137 2708,-137 2708,-118 2634,-118"/>
<text text-anchor="middle" x="2671" y="-125" font-family="Helvetica,sans-Serif" font-size="10.00">osg/Viewport</text>
</g>
<!-- Node16&#45;&gt;Node39 -->
<g id="edge41" class="edge"><title>Node16&#45;&gt;Node39</title>
<path fill="none" stroke="midnightblue" d="M1680.2,-180.473C1683.5,-179.915 1686.79,-179.416 1690,-179 2102.41,-125.509 2215.27,-214.144 2625,-143 2629.27,-142.259 2633.69,-141.225 2638.03,-140.046"/>
<polygon fill="midnightblue" stroke="midnightblue" points="2639.31,-143.316 2647.9,-137.105 2637.31,-136.608 2639.31,-143.316"/>
</g>
<!-- Node40 -->
<g id="node40" class="node"><title>Node40</title>
<polygon fill="white" stroke="#bfbfbf" points="2726.5,-118 2726.5,-137 2821.5,-137 2821.5,-118 2726.5,-118"/>
<text text-anchor="middle" x="2774" y="-125" font-family="Helvetica,sans-Serif" font-size="10.00">osgViewer/Viewer</text>
</g>
<!-- Node16&#45;&gt;Node40 -->
<g id="edge42" class="edge"><title>Node16&#45;&gt;Node40</title>
<path fill="none" stroke="midnightblue" d="M1680.2,-180.46C1683.5,-179.905 1686.79,-179.411 1690,-179 2143.03,-121.033 2264.88,-207.669 2717,-143 2723.02,-142.139 2729.33,-140.893 2735.46,-139.488"/>
<polygon fill="midnightblue" stroke="midnightblue" points="2736.66,-142.798 2745.54,-137.014 2734.99,-136 2736.66,-142.798"/>
</g>
<!-- Node41 -->
<g id="node41" class="node"><title>Node41</title>
<polygon fill="white" stroke="#bfbfbf" points="2840,-118 2840,-137 2958,-137 2958,-118 2840,-118"/>
<text text-anchor="middle" x="2899" y="-125" font-family="Helvetica,sans-Serif" font-size="10.00">osgViewer/ViewerBase</text>
</g>
<!-- Node16&#45;&gt;Node41 -->
<g id="edge43" class="edge"><title>Node16&#45;&gt;Node41</title>
<path fill="none" stroke="midnightblue" d="M1680.19,-180.447C1683.5,-179.895 1686.79,-179.405 1690,-179 2193.37,-115.487 2327.33,-204.148 2831,-143 2838.84,-142.049 2847.11,-140.637 2855.08,-139.063"/>
<polygon fill="midnightblue" stroke="midnightblue" points="2855.88,-142.47 2864.96,-137.004 2854.45,-135.618 2855.88,-142.47"/>
</g>
<!-- Node42 -->
<g id="node42" class="node"><title>Node42</title>
<polygon fill="white" stroke="#bfbfbf" points="2976.5,-118 2976.5,-137 3085.5,-137 3085.5,-118 2976.5,-118"/>
<text text-anchor="middle" x="3031" y="-125" font-family="Helvetica,sans-Serif" font-size="10.00">osg/GraphicsContext</text>
</g>
<!-- Node16&#45;&gt;Node42 -->
<g id="edge44" class="edge"><title>Node16&#45;&gt;Node42</title>
<path fill="none" stroke="midnightblue" d="M1680.19,-180.434C1683.5,-179.886 1686.79,-179.4 1690,-179 2253.43,-108.869 2403.68,-214.065 2967,-143 2974.23,-142.088 2981.84,-140.727 2989.19,-139.199"/>
<polygon fill="midnightblue" stroke="midnightblue" points="2989.98,-142.609 2998.99,-137.037 2988.47,-135.773 2989.98,-142.609"/>
</g>
<!-- Node43 -->
<g id="node43" class="node"><title>Node43</title>
<polygon fill="white" stroke="#bfbfbf" points="3103.5,-118 3103.5,-137 3198.5,-137 3198.5,-118 3103.5,-118"/>
<text text-anchor="middle" x="3151" y="-125" font-family="Helvetica,sans-Serif" font-size="10.00">osg/PolygonMode</text>
</g>
<!-- Node16&#45;&gt;Node43 -->
<g id="edge45" class="edge"><title>Node16&#45;&gt;Node43</title>
<path fill="none" stroke="midnightblue" d="M1680.19,-180.424C1683.5,-179.878 1686.79,-179.396 1690,-179 2309.96,-102.641 2476.42,-229.85 3095,-143 3100.93,-142.168 3107.13,-140.938 3113.15,-139.54"/>
<polygon fill="midnightblue" stroke="midnightblue" points="3114.2,-142.887 3123.05,-137.07 3112.5,-136.095 3114.2,-142.887"/>
</g>
<!-- Node44&#45;&gt;Node10 -->
<g id="edge53" class="edge"><title>Node44&#45;&gt;Node10</title>
<path fill="none" stroke="midnightblue" d="M1637.16,-246.489C1614.23,-237.486 1585.09,-224.736 1561,-210 1542.41,-198.625 1543.41,-186.659 1523,-179 1412.15,-137.397 575.253,-159.45 458,-143 451.727,-142.12 445.148,-140.835 438.766,-139.389"/>
<polygon fill="midnightblue" stroke="midnightblue" points="439.515,-135.969 428.972,-137.018 437.868,-142.773 439.515,-135.969"/>
</g>
<!-- Node44&#45;&gt;Node14 -->
<g id="edge50" class="edge"><title>Node44&#45;&gt;Node14</title>
<path fill="none" stroke="midnightblue" d="M1634.49,-246.474C1604.8,-236.408 1563.9,-222.474 1528,-210 1525.63,-209.176 1523.18,-208.322 1520.72,-207.458"/>
<polygon fill="midnightblue" stroke="midnightblue" points="1521.86,-204.15 1511.27,-204.132 1519.54,-210.753 1521.86,-204.15"/>
</g>
<!-- Node44&#45;&gt;Node16 -->
<g id="edge54" class="edge"><title>Node44&#45;&gt;Node16</title>
<path fill="none" stroke="midnightblue" d="M1664.93,-246.396C1658.32,-237.963 1649.77,-227.067 1642.28,-217.522"/>
<polygon fill="midnightblue" stroke="midnightblue" points="1644.97,-215.283 1636.04,-209.577 1639.46,-219.604 1644.97,-215.283"/>
</g>
<!-- Node45 -->
<g id="node45" class="node"><title>Node45</title>
<polygon fill="white" stroke="#bfbfbf" points="1698.5,-185 1698.5,-204 1733.5,-204 1733.5,-185 1698.5,-185"/>
<text text-anchor="middle" x="1716" y="-192" font-family="Helvetica,sans-Serif" font-size="10.00">map</text>
</g>
<!-- Node44&#45;&gt;Node45 -->
<g id="edge49" class="edge"><title>Node44&#45;&gt;Node45</title>
<path fill="none" stroke="midnightblue" d="M1684.68,-246.396C1690.73,-236.562 1698.84,-223.378 1705.3,-212.892"/>
<polygon fill="midnightblue" stroke="midnightblue" points="1708.39,-214.545 1710.65,-204.195 1702.43,-210.877 1708.39,-214.545"/>
</g>
<!-- Node46 -->
<g id="node46" class="node"><title>Node46</title>
<polygon fill="white" stroke="#bfbfbf" points="1752,-185 1752,-204 1832,-204 1832,-185 1752,-185"/>
<text text-anchor="middle" x="1792" y="-192" font-family="Helvetica,sans-Serif" font-size="10.00">boost/bind.hpp</text>
</g>
<!-- Node44&#45;&gt;Node46 -->
<g id="edge51" class="edge"><title>Node44&#45;&gt;Node46</title>
<path fill="none" stroke="midnightblue" d="M1701.17,-246.396C1720.98,-235.294 1748.42,-219.921 1767.94,-208.983"/>
<polygon fill="midnightblue" stroke="midnightblue" points="1769.81,-211.949 1776.82,-204.007 1766.38,-205.842 1769.81,-211.949"/>
</g>
<!-- Node47 -->
<g id="node47" class="node"><title>Node47</title>
<polygon fill="white" stroke="#bfbfbf" points="1850.5,-185 1850.5,-204 1947.5,-204 1947.5,-185 1850.5,-185"/>
<text text-anchor="middle" x="1899" y="-192" font-family="Helvetica,sans-Serif" font-size="10.00">boost/function.hpp</text>
</g>
<!-- Node44&#45;&gt;Node47 -->
<g id="edge52" class="edge"><title>Node44&#45;&gt;Node47</title>
<path fill="none" stroke="midnightblue" d="M1724.11,-246.476C1764.78,-234.622 1822.29,-217.858 1860.1,-206.838"/>
<polygon fill="midnightblue" stroke="midnightblue" points="1861.12,-210.187 1869.74,-204.029 1859.16,-203.467 1861.12,-210.187"/>
</g>
</g>
</svg>
