<?xml version="1.0" encoding="UTF-8" standalone="no"?>
<!DOCTYPE svg PUBLIC "-//W3C//DTD SVG 1.1//EN"
 "http://www.w3.org/Graphics/SVG/1.1/DTD/svg11.dtd">
<!-- Generated by graphviz version 2.38.0 (20140413.2041)
 -->
<!-- Title: node&#45;property.h Pages: 1 -->
<svg width="2943pt" height="263pt"
 viewBox="0.00 0.00 2942.50 263.00" xmlns="http://www.w3.org/2000/svg" xmlns:xlink="http://www.w3.org/1999/xlink">
<g id="graph0" class="graph" transform="scale(1 1) rotate(0) translate(4 259)">
<title>node&#45;property.h</title>
<polygon fill="white" stroke="none" points="-4,4 -4,-259 2938.5,-259 2938.5,4 -4,4"/>
<!-- Node1 -->
<g id="node1" class="node"><title>Node1</title>
<polygon fill="#bfbfbf" stroke="black" points="558,-235.5 558,-254.5 642,-254.5 642,-235.5 558,-235.5"/>
<text text-anchor="middle" x="600" y="-242.5" font-family="Helvetica,sans-Serif" font-size="10.00">node&#45;property.h</text>
</g>
<!-- Node2 -->
<g id="node2" class="node"><title>Node2</title>
<polygon fill="white" stroke="#bfbfbf" points="381.5,-174 381.5,-193 416.5,-193 416.5,-174 381.5,-174"/>
<text text-anchor="middle" x="399" y="-181" font-family="Helvetica,sans-Serif" font-size="10.00">map</text>
</g>
<!-- Node1&#45;&gt;Node2 -->
<g id="edge1" class="edge"><title>Node1&#45;&gt;Node2</title>
<path fill="none" stroke="midnightblue" d="M557.984,-236.089C522.181,-228.656 469.731,-216.111 426,-199 424.959,-198.593 423.908,-198.155 422.854,-197.694"/>
<polygon fill="midnightblue" stroke="midnightblue" points="424.07,-194.392 413.55,-193.136 420.99,-200.678 424.07,-194.392"/>
</g>
<!-- Node3 -->
<g id="node3" class="node"><title>Node3</title>
<polygon fill="white" stroke="#bfbfbf" points="435,-174 435,-193 489,-193 489,-174 435,-174"/>
<text text-anchor="middle" x="462" y="-181" font-family="Helvetica,sans-Serif" font-size="10.00">iostream</text>
</g>
<!-- Node1&#45;&gt;Node3 -->
<g id="edge2" class="edge"><title>Node1&#45;&gt;Node3</title>
<path fill="none" stroke="midnightblue" d="M580.228,-235.475C556.864,-225.401 517.786,-208.553 490.997,-197.002"/>
<polygon fill="midnightblue" stroke="midnightblue" points="492.304,-193.754 481.735,-193.009 489.532,-200.182 492.304,-193.754"/>
</g>
<!-- Node4 -->
<g id="node4" class="node"><title>Node4</title>
<polygon fill="white" stroke="#bfbfbf" points="507,-174 507,-193 587,-193 587,-174 507,-174"/>
<text text-anchor="middle" x="547" y="-181" font-family="Helvetica,sans-Serif" font-size="10.00">boost/bind.hpp</text>
</g>
<!-- Node1&#45;&gt;Node4 -->
<g id="edge3" class="edge"><title>Node1&#45;&gt;Node4</title>
<path fill="none" stroke="midnightblue" d="M592.406,-235.475C584.299,-226.373 571.265,-211.741 561.237,-200.483"/>
<polygon fill="midnightblue" stroke="midnightblue" points="563.844,-198.148 554.58,-193.009 558.617,-202.804 563.844,-198.148"/>
</g>
<!-- Node5 -->
<g id="node5" class="node"><title>Node5</title>
<polygon fill="white" stroke="#bfbfbf" points="605.5,-174 605.5,-193 702.5,-193 702.5,-174 605.5,-174"/>
<text text-anchor="middle" x="654" y="-181" font-family="Helvetica,sans-Serif" font-size="10.00">boost/function.hpp</text>
</g>
<!-- Node1&#45;&gt;Node5 -->
<g id="edge4" class="edge"><title>Node1&#45;&gt;Node5</title>
<path fill="none" stroke="midnightblue" d="M607.737,-235.475C615.997,-226.373 629.277,-211.741 639.494,-200.483"/>
<polygon fill="midnightblue" stroke="midnightblue" points="642.149,-202.766 646.277,-193.009 636.965,-198.062 642.149,-202.766"/>
</g>
<!-- Node6 -->
<g id="node6" class="node"><title>Node6</title>
<g id="a_node6"><a xlink:href="a00084.html" target="_top" xlink:title="gepetto/viewer/fwd.h">
<polygon fill="white" stroke="black" points="82.5,-112.5 82.5,-131.5 189.5,-131.5 189.5,-112.5 82.5,-112.5"/>
<text text-anchor="middle" x="136" y="-119.5" font-family="Helvetica,sans-Serif" font-size="10.00">gepetto/viewer/fwd.h</text>
</a>
</g>
</g>
<!-- Node1&#45;&gt;Node6 -->
<g id="edge5" class="edge"><title>Node1&#45;&gt;Node6</title>
<path fill="none" stroke="midnightblue" d="M642.105,-238.578C666.632,-233.018 695.665,-221.765 711,-199 718.698,-187.573 720.391,-178.081 711,-168 672.506,-126.676 260.186,-137.708 204,-132 202.7,-131.868 201.387,-131.731 200.065,-131.589"/>
<polygon fill="midnightblue" stroke="midnightblue" points="200.117,-128.073 189.786,-130.425 199.329,-135.028 200.117,-128.073"/>
</g>
<!-- Node11 -->
<g id="node11" class="node"><title>Node11</title>
<g id="a_node11"><a xlink:href="a00080.html" target="_top" xlink:title="gepetto/viewer/config\l&#45;osg.h">
<polygon fill="white" stroke="black" points="1402,-168.5 1402,-198.5 1512,-198.5 1512,-168.5 1402,-168.5"/>
<text text-anchor="start" x="1410" y="-186.5" font-family="Helvetica,sans-Serif" font-size="10.00">gepetto/viewer/config</text>
<text text-anchor="middle" x="1457" y="-175.5" font-family="Helvetica,sans-Serif" font-size="10.00">&#45;osg.h</text>
</a>
</g>
</g>
<!-- Node1&#45;&gt;Node11 -->
<g id="edge10" class="edge"><title>Node1&#45;&gt;Node11</title>
<path fill="none" stroke="midnightblue" d="M642.206,-241.07C780.968,-231.436 1223.76,-200.694 1391.63,-189.039"/>
<polygon fill="midnightblue" stroke="midnightblue" points="1392.07,-192.516 1401.81,-188.332 1391.59,-185.533 1392.07,-192.516"/>
</g>
<!-- Node7 -->
<g id="node7" class="node"><title>Node7</title>
<g id="a_node7"><a xlink:href="a00102.html" target="_top" xlink:title="gepetto/viewer/macros.h">
<polygon fill="white" stroke="black" points="115,-56.5 115,-75.5 239,-75.5 239,-56.5 115,-56.5"/>
<text text-anchor="middle" x="177" y="-63.5" font-family="Helvetica,sans-Serif" font-size="10.00">gepetto/viewer/macros.h</text>
</a>
</g>
</g>
<!-- Node6&#45;&gt;Node7 -->
<g id="edge6" class="edge"><title>Node6&#45;&gt;Node7</title>
<path fill="none" stroke="midnightblue" d="M142.77,-112.083C148.562,-104.455 157.058,-93.2645 164.138,-83.9408"/>
<polygon fill="midnightblue" stroke="midnightblue" points="167.096,-85.8321 170.356,-75.7511 161.521,-81.5991 167.096,-85.8321"/>
</g>
<!-- Node8 -->
<g id="node8" class="node"><title>Node8</title>
<polygon fill="white" stroke="#bfbfbf" points="0,-0.5 0,-19.5 108,-19.5 108,-0.5 0,-0.5"/>
<text text-anchor="middle" x="54" y="-7.5" font-family="Helvetica,sans-Serif" font-size="10.00">boost/shared_ptr.hpp</text>
</g>
<!-- Node7&#45;&gt;Node8 -->
<g id="edge7" class="edge"><title>Node7&#45;&gt;Node8</title>
<path fill="none" stroke="midnightblue" d="M157.51,-56.4435C137.358,-47.5961 105.677,-33.6875 82.6692,-23.5865"/>
<polygon fill="midnightblue" stroke="midnightblue" points="83.962,-20.3316 73.3985,-19.5164 81.148,-26.7411 83.962,-20.3316"/>
</g>
<!-- Node9 -->
<g id="node9" class="node"><title>Node9</title>
<polygon fill="white" stroke="#bfbfbf" points="126,-0.5 126,-19.5 228,-19.5 228,-0.5 126,-0.5"/>
<text text-anchor="middle" x="177" y="-7.5" font-family="Helvetica,sans-Serif" font-size="10.00">boost/weak_ptr.hpp</text>
</g>
<!-- Node7&#45;&gt;Node9 -->
<g id="edge8" class="edge"><title>Node7&#45;&gt;Node9</title>
<path fill="none" stroke="midnightblue" d="M177,-56.083C177,-49.0059 177,-38.8611 177,-29.9865"/>
<polygon fill="midnightblue" stroke="midnightblue" points="180.5,-29.751 177,-19.7511 173.5,-29.7511 180.5,-29.751"/>
</g>
<!-- Node10 -->
<g id="node10" class="node"><title>Node10</title>
<polygon fill="white" stroke="#bfbfbf" points="246.5,-0.5 246.5,-19.5 309.5,-19.5 309.5,-0.5 246.5,-0.5"/>
<text text-anchor="middle" x="278" y="-7.5" font-family="Helvetica,sans-Serif" font-size="10.00">osg/ref_ptr</text>
</g>
<!-- Node7&#45;&gt;Node10 -->
<g id="edge9" class="edge"><title>Node7&#45;&gt;Node10</title>
<path fill="none" stroke="midnightblue" d="M193.227,-56.324C209.351,-47.7034 234.3,-34.3643 252.964,-24.3855"/>
<polygon fill="midnightblue" stroke="midnightblue" points="254.644,-27.456 261.813,-19.6545 251.344,-21.283 254.644,-27.456"/>
</g>
<!-- Node11&#45;&gt;Node6 -->
<g id="edge38" class="edge"><title>Node11&#45;&gt;Node6</title>
<path fill="none" stroke="midnightblue" d="M1401.93,-182.073C1226.63,-180.331 666.014,-171.801 204,-132 202.699,-131.888 201.384,-131.769 200.059,-131.644"/>
<polygon fill="midnightblue" stroke="midnightblue" points="200.08,-128.127 189.772,-130.578 199.358,-135.09 200.08,-128.127"/>
</g>
<!-- Node11&#45;&gt;Node7 -->
<g id="edge39" class="edge"><title>Node11&#45;&gt;Node7</title>
<path fill="none" stroke="midnightblue" d="M1401.76,-181.388C1170.62,-176.583 290.448,-156.731 237,-132 215.301,-121.96 197.803,-100.091 187.423,-84.4945"/>
<polygon fill="midnightblue" stroke="midnightblue" points="190.203,-82.3426 181.905,-75.7558 184.284,-86.0799 190.203,-82.3426"/>
</g>
<!-- Node12 -->
<g id="node12" class="node"><title>Node12</title>
<polygon fill="white" stroke="#bfbfbf" points="246,-112.5 246,-131.5 314,-131.5 314,-112.5 246,-112.5"/>
<text text-anchor="middle" x="280" y="-119.5" font-family="Helvetica,sans-Serif" font-size="10.00">QMetaType</text>
</g>
<!-- Node11&#45;&gt;Node12 -->
<g id="edge11" class="edge"><title>Node11&#45;&gt;Node12</title>
<path fill="none" stroke="midnightblue" d="M1401.86,-181.228C1207.63,-176.565 555.014,-159.308 324.195,-131.904"/>
<polygon fill="midnightblue" stroke="midnightblue" points="324.535,-128.42 314.183,-130.675 323.682,-135.368 324.535,-128.42"/>
</g>
<!-- Node13 -->
<g id="node13" class="node"><title>Node13</title>
<polygon fill="white" stroke="#bfbfbf" points="332.5,-112.5 332.5,-131.5 395.5,-131.5 395.5,-112.5 332.5,-112.5"/>
<text text-anchor="middle" x="364" y="-119.5" font-family="Helvetica,sans-Serif" font-size="10.00">osg/Shape</text>
</g>
<!-- Node11&#45;&gt;Node13 -->
<g id="edge12" class="edge"><title>Node11&#45;&gt;Node13</title>
<path fill="none" stroke="midnightblue" d="M1401.95,-183.106C1246.62,-184.123 791.693,-182.339 405.656,-131.825"/>
<polygon fill="midnightblue" stroke="midnightblue" points="406.063,-128.348 395.691,-130.508 405.146,-135.288 406.063,-128.348"/>
</g>
<!-- Node14 -->
<g id="node14" class="node"><title>Node14</title>
<polygon fill="white" stroke="#bfbfbf" points="414,-112.5 414,-131.5 518,-131.5 518,-112.5 414,-112.5"/>
<text text-anchor="middle" x="466" y="-119.5" font-family="Helvetica,sans-Serif" font-size="10.00">osg/ShapeDrawable</text>
</g>
<!-- Node11&#45;&gt;Node14 -->
<g id="edge13" class="edge"><title>Node11&#45;&gt;Node14</title>
<path fill="none" stroke="midnightblue" d="M1401.83,-181.28C1259.09,-177.742 865.797,-165.576 528.176,-132.024"/>
<polygon fill="midnightblue" stroke="midnightblue" points="528.503,-128.54 518.204,-131.026 527.805,-135.505 528.503,-128.54"/>
</g>
<!-- Node15 -->
<g id="node15" class="node"><title>Node15</title>
<polygon fill="white" stroke="#bfbfbf" points="536,-112.5 536,-131.5 614,-131.5 614,-112.5 536,-112.5"/>
<text text-anchor="middle" x="575" y="-119.5" font-family="Helvetica,sans-Serif" font-size="10.00">osg/Geometry</text>
</g>
<!-- Node11&#45;&gt;Node15 -->
<g id="edge14" class="edge"><title>Node11&#45;&gt;Node15</title>
<path fill="none" stroke="midnightblue" d="M1401.64,-181.534C1269.06,-178.709 922.778,-168.296 624.379,-132.015"/>
<polygon fill="midnightblue" stroke="midnightblue" points="624.582,-128.514 614.23,-130.769 623.729,-135.461 624.582,-128.514"/>
</g>
<!-- Node16 -->
<g id="node16" class="node"><title>Node16</title>
<polygon fill="white" stroke="#bfbfbf" points="632,-112.5 632,-131.5 696,-131.5 696,-112.5 632,-112.5"/>
<text text-anchor="middle" x="664" y="-119.5" font-family="Helvetica,sans-Serif" font-size="10.00">osg/Geode</text>
</g>
<!-- Node11&#45;&gt;Node16 -->
<g id="edge15" class="edge"><title>Node11&#45;&gt;Node16</title>
<path fill="none" stroke="midnightblue" d="M1401.9,-181.711C1278.64,-179.321 971.263,-169.884 706.426,-132.17"/>
<polygon fill="midnightblue" stroke="midnightblue" points="706.628,-128.663 696.231,-130.701 705.629,-135.591 706.628,-128.663"/>
</g>
<!-- Node17 -->
<g id="node17" class="node"><title>Node17</title>
<polygon fill="white" stroke="#bfbfbf" points="713.5,-112.5 713.5,-131.5 862.5,-131.5 862.5,-112.5 713.5,-112.5"/>
<text text-anchor="middle" x="788" y="-119.5" font-family="Helvetica,sans-Serif" font-size="10.00">osg/PositionAttitudeTransform</text>
</g>
<!-- Node11&#45;&gt;Node17 -->
<g id="edge16" class="edge"><title>Node11&#45;&gt;Node17</title>
<path fill="none" stroke="midnightblue" d="M1401.72,-178.11C1299.59,-169.917 1074.21,-151.445 872.825,-132.061"/>
<polygon fill="midnightblue" stroke="midnightblue" points="872.937,-128.556 862.647,-131.079 872.264,-135.523 872.937,-128.556"/>
</g>
<!-- Node18 -->
<g id="node18" class="node"><title>Node18</title>
<polygon fill="white" stroke="#bfbfbf" points="881,-112.5 881,-131.5 981,-131.5 981,-112.5 881,-112.5"/>
<text text-anchor="middle" x="931" y="-119.5" font-family="Helvetica,sans-Serif" font-size="10.00">osg/AutoTransform</text>
</g>
<!-- Node11&#45;&gt;Node18 -->
<g id="edge17" class="edge"><title>Node11&#45;&gt;Node18</title>
<path fill="none" stroke="midnightblue" d="M1401.68,-177.245C1314.31,-168.779 1139.1,-151.124 991,-132 990.899,-131.987 990.798,-131.974 990.696,-131.961"/>
<polygon fill="midnightblue" stroke="midnightblue" points="991.446,-128.53 981.069,-130.667 990.514,-135.468 991.446,-128.53"/>
</g>
<!-- Node19 -->
<g id="node19" class="node"><title>Node19</title>
<polygon fill="white" stroke="#bfbfbf" points="999.5,-112.5 999.5,-131.5 1106.5,-131.5 1106.5,-112.5 999.5,-112.5"/>
<text text-anchor="middle" x="1053" y="-119.5" font-family="Helvetica,sans-Serif" font-size="10.00">osg/MatrixTransform</text>
</g>
<!-- Node11&#45;&gt;Node19 -->
<g id="edge18" class="edge"><title>Node11&#45;&gt;Node19</title>
<path fill="none" stroke="midnightblue" d="M1401.67,-174.352C1327.32,-163.401 1195.45,-143.98 1116.94,-132.416"/>
<polygon fill="midnightblue" stroke="midnightblue" points="1117.1,-128.902 1106.69,-130.908 1116.08,-135.828 1117.1,-128.902"/>
</g>
<!-- Node20 -->
<g id="node20" class="node"><title>Node20</title>
<polygon fill="white" stroke="#bfbfbf" points="1124.5,-112.5 1124.5,-131.5 1183.5,-131.5 1183.5,-112.5 1124.5,-112.5"/>
<text text-anchor="middle" x="1154" y="-119.5" font-family="Helvetica,sans-Serif" font-size="10.00">osg/Node</text>
</g>
<!-- Node11&#45;&gt;Node20 -->
<g id="edge19" class="edge"><title>Node11&#45;&gt;Node20</title>
<path fill="none" stroke="midnightblue" d="M1401.76,-172.562C1350.46,-163.19 1271.7,-148.442 1193.78,-132.101"/>
<polygon fill="midnightblue" stroke="midnightblue" points="1194.29,-128.632 1183.78,-129.995 1192.85,-135.482 1194.29,-128.632"/>
</g>
<!-- Node21 -->
<g id="node21" class="node"><title>Node21</title>
<polygon fill="white" stroke="#bfbfbf" points="1202,-112.5 1202,-131.5 1264,-131.5 1264,-112.5 1202,-112.5"/>
<text text-anchor="middle" x="1233" y="-119.5" font-family="Helvetica,sans-Serif" font-size="10.00">osg/Group</text>
</g>
<!-- Node11&#45;&gt;Node21 -->
<g id="edge20" class="edge"><title>Node11&#45;&gt;Node21</title>
<path fill="none" stroke="midnightblue" d="M1404.2,-168.475C1364.36,-157.891 1310.49,-143.582 1273.89,-133.861"/>
<polygon fill="midnightblue" stroke="midnightblue" points="1274.62,-130.433 1264.05,-131.248 1272.82,-137.198 1274.62,-130.433"/>
</g>
<!-- Node22 -->
<g id="node22" class="node"><title>Node22</title>
<polygon fill="white" stroke="#bfbfbf" points="1282.5,-112.5 1282.5,-131.5 1347.5,-131.5 1347.5,-112.5 1282.5,-112.5"/>
<text text-anchor="middle" x="1315" y="-119.5" font-family="Helvetica,sans-Serif" font-size="10.00">osg/Switch</text>
</g>
<!-- Node11&#45;&gt;Node22 -->
<g id="edge21" class="edge"><title>Node11&#45;&gt;Node22</title>
<path fill="none" stroke="midnightblue" d="M1423.35,-168.399C1399.52,-158.416 1367.85,-145.147 1344.91,-135.534"/>
<polygon fill="midnightblue" stroke="midnightblue" points="1346.24,-132.294 1335.66,-131.658 1343.53,-138.751 1346.24,-132.294"/>
</g>
<!-- Node23 -->
<g id="node23" class="node"><title>Node23</title>
<polygon fill="white" stroke="#bfbfbf" points="1366,-112.5 1366,-131.5 1448,-131.5 1448,-112.5 1366,-112.5"/>
<text text-anchor="middle" x="1407" y="-119.5" font-family="Helvetica,sans-Serif" font-size="10.00">osg/ClearNode</text>
</g>
<!-- Node11&#45;&gt;Node23 -->
<g id="edge22" class="edge"><title>Node11&#45;&gt;Node23</title>
<path fill="none" stroke="midnightblue" d="M1445.15,-168.399C1437.89,-159.753 1428.55,-148.642 1420.93,-139.576"/>
<polygon fill="midnightblue" stroke="midnightblue" points="1423.39,-137.062 1414.28,-131.658 1418.03,-141.565 1423.39,-137.062"/>
</g>
<!-- Node24 -->
<g id="node24" class="node"><title>Node24</title>
<polygon fill="white" stroke="#bfbfbf" points="1466.5,-112.5 1466.5,-131.5 1545.5,-131.5 1545.5,-112.5 1466.5,-112.5"/>
<text text-anchor="middle" x="1506" y="-119.5" font-family="Helvetica,sans-Serif" font-size="10.00">osg/LineWidth</text>
</g>
<!-- Node11&#45;&gt;Node24 -->
<g id="edge23" class="edge"><title>Node11&#45;&gt;Node24</title>
<path fill="none" stroke="midnightblue" d="M1468.61,-168.399C1475.73,-159.753 1484.88,-148.642 1492.35,-139.576"/>
<polygon fill="midnightblue" stroke="midnightblue" points="1495.21,-141.602 1498.87,-131.658 1489.81,-137.152 1495.21,-141.602"/>
</g>
<!-- Node25 -->
<g id="node25" class="node"><title>Node25</title>
<polygon fill="white" stroke="#bfbfbf" points="1564,-112.5 1564,-131.5 1646,-131.5 1646,-112.5 1564,-112.5"/>
<text text-anchor="middle" x="1605" y="-119.5" font-family="Helvetica,sans-Serif" font-size="10.00">osg/AlphaFunc</text>
</g>
<!-- Node11&#45;&gt;Node25 -->
<g id="edge24" class="edge"><title>Node11&#45;&gt;Node25</title>
<path fill="none" stroke="midnightblue" d="M1492.07,-168.399C1517.02,-158.372 1550.21,-145.028 1574.14,-135.405"/>
<polygon fill="midnightblue" stroke="midnightblue" points="1575.49,-138.635 1583.46,-131.658 1572.88,-132.141 1575.49,-138.635"/>
</g>
<!-- Node26 -->
<g id="node26" class="node"><title>Node26</title>
<polygon fill="white" stroke="#bfbfbf" points="1664,-112.5 1664,-131.5 1746,-131.5 1746,-112.5 1664,-112.5"/>
<text text-anchor="middle" x="1705" y="-119.5" font-family="Helvetica,sans-Serif" font-size="10.00">osg/BlendFunc</text>
</g>
<!-- Node11&#45;&gt;Node26 -->
<g id="edge25" class="edge"><title>Node11&#45;&gt;Node26</title>
<path fill="none" stroke="midnightblue" d="M1512.04,-169.295C1556.33,-158.668 1617.84,-143.91 1659.41,-133.937"/>
<polygon fill="midnightblue" stroke="midnightblue" points="1660.36,-137.309 1669.27,-131.572 1658.73,-130.502 1660.36,-137.309"/>
</g>
<!-- Node27 -->
<g id="node27" class="node"><title>Node27</title>
<polygon fill="white" stroke="#bfbfbf" points="1764,-112.5 1764,-131.5 1838,-131.5 1838,-112.5 1764,-112.5"/>
<text text-anchor="middle" x="1801" y="-119.5" font-family="Helvetica,sans-Serif" font-size="10.00">osg/StateSet</text>
</g>
<!-- Node11&#45;&gt;Node27 -->
<g id="edge26" class="edge"><title>Node11&#45;&gt;Node27</title>
<path fill="none" stroke="midnightblue" d="M1512.27,-173.564C1570.05,-164.126 1663.61,-148.571 1753.99,-132.149"/>
<polygon fill="midnightblue" stroke="midnightblue" points="1754.65,-135.587 1763.86,-130.351 1753.39,-128.701 1754.65,-135.587"/>
</g>
<!-- Node28 -->
<g id="node28" class="node"><title>Node28</title>
<polygon fill="white" stroke="#bfbfbf" points="1856,-112.5 1856,-131.5 1918,-131.5 1918,-112.5 1856,-112.5"/>
<text text-anchor="middle" x="1887" y="-119.5" font-family="Helvetica,sans-Serif" font-size="10.00">osg/Depth</text>
</g>
<!-- Node11&#45;&gt;Node28 -->
<g id="edge27" class="edge"><title>Node11&#45;&gt;Node28</title>
<path fill="none" stroke="midnightblue" d="M1512.14,-176.986C1585.92,-169.249 1720.98,-153.827 1845.52,-132.127"/>
<polygon fill="midnightblue" stroke="midnightblue" points="1846.37,-135.531 1855.61,-130.35 1845.16,-128.637 1846.37,-135.531"/>
</g>
<!-- Node29 -->
<g id="node29" class="node"><title>Node29</title>
<polygon fill="white" stroke="#bfbfbf" points="1936.5,-112.5 1936.5,-131.5 1995.5,-131.5 1995.5,-112.5 1936.5,-112.5"/>
<text text-anchor="middle" x="1966" y="-119.5" font-family="Helvetica,sans-Serif" font-size="10.00">osg/State</text>
</g>
<!-- Node11&#45;&gt;Node29 -->
<g id="edge28" class="edge"><title>Node11&#45;&gt;Node29</title>
<path fill="none" stroke="midnightblue" d="M1512.29,-178.717C1598.54,-172.34 1770.5,-157.734 1926.04,-131.962"/>
<polygon fill="midnightblue" stroke="midnightblue" points="1926.98,-135.354 1936.26,-130.249 1925.82,-128.451 1926.98,-135.354"/>
</g>
<!-- Node30 -->
<g id="node30" class="node"><title>Node30</title>
<polygon fill="white" stroke="#bfbfbf" points="2014,-112.5 2014,-131.5 2070,-131.5 2070,-112.5 2014,-112.5"/>
<text text-anchor="middle" x="2042" y="-119.5" font-family="Helvetica,sans-Serif" font-size="10.00">osg/Light</text>
</g>
<!-- Node11&#45;&gt;Node30 -->
<g id="edge29" class="edge"><title>Node11&#45;&gt;Node30</title>
<path fill="none" stroke="midnightblue" d="M1512.18,-180.096C1609.63,-175.266 1818.66,-162.289 2003.89,-131.954"/>
<polygon fill="midnightblue" stroke="midnightblue" points="2004.51,-135.398 2013.81,-130.309 2003.37,-128.493 2004.51,-135.398"/>
</g>
<!-- Node31 -->
<g id="node31" class="node"><title>Node31</title>
<polygon fill="white" stroke="#bfbfbf" points="2088.5,-112.5 2088.5,-131.5 2175.5,-131.5 2175.5,-112.5 2088.5,-112.5"/>
<text text-anchor="middle" x="2132" y="-119.5" font-family="Helvetica,sans-Serif" font-size="10.00">osg/LightSource</text>
</g>
<!-- Node11&#45;&gt;Node31 -->
<g id="edge30" class="edge"><title>Node11&#45;&gt;Node31</title>
<path fill="none" stroke="midnightblue" d="M1512.08,-179.645C1619.08,-173.748 1862.68,-158.606 2078.13,-131.994"/>
<polygon fill="midnightblue" stroke="midnightblue" points="2078.88,-135.428 2088.37,-130.719 2078.02,-128.482 2078.88,-135.428"/>
</g>
<!-- Node32 -->
<g id="node32" class="node"><title>Node32</title>
<polygon fill="white" stroke="#bfbfbf" points="2194,-112.5 2194,-131.5 2264,-131.5 2264,-112.5 2194,-112.5"/>
<text text-anchor="middle" x="2229" y="-119.5" font-family="Helvetica,sans-Serif" font-size="10.00">osg/Material</text>
</g>
<!-- Node11&#45;&gt;Node32 -->
<g id="edge31" class="edge"><title>Node11&#45;&gt;Node32</title>
<path fill="none" stroke="midnightblue" d="M1512.05,-181.17C1632.25,-177.729 1927.28,-166.365 2183.29,-132.063"/>
<polygon fill="midnightblue" stroke="midnightblue" points="2184.09,-135.487 2193.53,-130.676 2183.15,-128.55 2184.09,-135.487"/>
</g>
<!-- Node33 -->
<g id="node33" class="node"><title>Node33</title>
<polygon fill="white" stroke="#bfbfbf" points="2282,-112.5 2282,-131.5 2352,-131.5 2352,-112.5 2282,-112.5"/>
<text text-anchor="middle" x="2317" y="-119.5" font-family="Helvetica,sans-Serif" font-size="10.00">osg/Camera</text>
</g>
<!-- Node11&#45;&gt;Node33 -->
<g id="edge32" class="edge"><title>Node11&#45;&gt;Node33</title>
<path fill="none" stroke="midnightblue" d="M1512.18,-181.745C1642.64,-179.388 1980.38,-169.947 2271.21,-132.059"/>
<polygon fill="midnightblue" stroke="midnightblue" points="2272.07,-135.475 2281.53,-130.699 2271.16,-128.535 2272.07,-135.475"/>
</g>
<!-- Node34 -->
<g id="node34" class="node"><title>Node34</title>
<polygon fill="white" stroke="#bfbfbf" points="2370,-112.5 2370,-131.5 2444,-131.5 2444,-112.5 2370,-112.5"/>
<text text-anchor="middle" x="2407" y="-119.5" font-family="Helvetica,sans-Serif" font-size="10.00">osg/Viewport</text>
</g>
<!-- Node11&#45;&gt;Node34 -->
<g id="edge33" class="edge"><title>Node11&#45;&gt;Node34</title>
<path fill="none" stroke="midnightblue" d="M1512.01,-182.054C1651.99,-180.355 2033.14,-172.211 2359.78,-131.971"/>
<polygon fill="midnightblue" stroke="midnightblue" points="2360.42,-135.418 2369.91,-130.71 2359.56,-128.472 2360.42,-135.418"/>
</g>
<!-- Node35 -->
<g id="node35" class="node"><title>Node35</title>
<polygon fill="white" stroke="#bfbfbf" points="2462.5,-112.5 2462.5,-131.5 2557.5,-131.5 2557.5,-112.5 2462.5,-112.5"/>
<text text-anchor="middle" x="2510" y="-119.5" font-family="Helvetica,sans-Serif" font-size="10.00">osgViewer/Viewer</text>
</g>
<!-- Node11&#45;&gt;Node35 -->
<g id="edge34" class="edge"><title>Node11&#45;&gt;Node35</title>
<path fill="none" stroke="midnightblue" d="M1512.22,-181.751C1661.88,-179.282 2087.88,-169.346 2452.51,-131.922"/>
<polygon fill="midnightblue" stroke="midnightblue" points="2452.88,-135.402 2462.46,-130.892 2452.16,-128.44 2452.88,-135.402"/>
</g>
<!-- Node36 -->
<g id="node36" class="node"><title>Node36</title>
<polygon fill="white" stroke="#bfbfbf" points="2576,-112.5 2576,-131.5 2694,-131.5 2694,-112.5 2576,-112.5"/>
<text text-anchor="middle" x="2635" y="-119.5" font-family="Helvetica,sans-Serif" font-size="10.00">osgViewer/ViewerBase</text>
</g>
<!-- Node11&#45;&gt;Node36 -->
<g id="edge35" class="edge"><title>Node11&#45;&gt;Node36</title>
<path fill="none" stroke="midnightblue" d="M1512.26,-181.669C1673.16,-178.889 2155.39,-168.014 2565.71,-132.037"/>
<polygon fill="midnightblue" stroke="midnightblue" points="2566.04,-135.521 2575.7,-131.155 2565.43,-128.548 2566.04,-135.521"/>
</g>
<!-- Node37 -->
<g id="node37" class="node"><title>Node37</title>
<polygon fill="white" stroke="#bfbfbf" points="2712.5,-112.5 2712.5,-131.5 2821.5,-131.5 2821.5,-112.5 2712.5,-112.5"/>
<text text-anchor="middle" x="2767" y="-119.5" font-family="Helvetica,sans-Serif" font-size="10.00">osg/GraphicsContext</text>
</g>
<!-- Node11&#45;&gt;Node37 -->
<g id="edge36" class="edge"><title>Node11&#45;&gt;Node37</title>
<path fill="none" stroke="midnightblue" d="M1512.09,-182.214C1685.51,-180.901 2235.86,-173.58 2701.93,-131.992"/>
<polygon fill="midnightblue" stroke="midnightblue" points="2702.58,-135.448 2712.23,-131.066 2701.96,-128.476 2702.58,-135.448"/>
</g>
<!-- Node38 -->
<g id="node38" class="node"><title>Node38</title>
<polygon fill="white" stroke="#bfbfbf" points="2839.5,-112.5 2839.5,-131.5 2934.5,-131.5 2934.5,-112.5 2839.5,-112.5"/>
<text text-anchor="middle" x="2887" y="-119.5" font-family="Helvetica,sans-Serif" font-size="10.00">osg/PolygonMode</text>
</g>
<!-- Node11&#45;&gt;Node38 -->
<g id="edge37" class="edge"><title>Node11&#45;&gt;Node38</title>
<path fill="none" stroke="midnightblue" d="M1512.14,-182.895C1697.04,-183.706 2312.07,-182.256 2829.11,-132.064"/>
<polygon fill="midnightblue" stroke="midnightblue" points="2829.78,-135.515 2839.39,-131.058 2829.1,-128.549 2829.78,-135.515"/>
</g>
</g>
</svg>
