<?xml version="1.0" encoding="UTF-8" standalone="no"?>
<!DOCTYPE svg PUBLIC "-//W3C//DTD SVG 1.1//EN"
 "http://www.w3.org/Graphics/SVG/1.1/DTD/svg11.dtd">
<!-- Generated by graphviz version 2.38.0 (20140413.2041)
 -->
<!-- Title: node&#45;visitor.h Pages: 1 -->
<svg width="1983pt" height="252pt"
 viewBox="0.00 0.00 1983.10 252.00" xmlns="http://www.w3.org/2000/svg" xmlns:xlink="http://www.w3.org/1999/xlink">
<g id="graph0" class="graph" transform="scale(1 1) rotate(0) translate(4 248)">
<title>node&#45;visitor.h</title>
<polygon fill="white" stroke="none" points="-4,4 -4,-248 1979.1,-248 1979.1,4 -4,4"/>
<!-- Node1 -->
<g id="node1" class="node"><title>Node1</title>
<polygon fill="#bfbfbf" stroke="black" points="568,-224.5 568,-243.5 643,-243.5 643,-224.5 568,-224.5"/>
<text text-anchor="middle" x="605.5" y="-231.5" font-family="Helvetica,sans-Serif" font-size="10.00">node&#45;visitor.h</text>
</g>
<!-- Node2 -->
<g id="node2" class="node"><title>Node2</title>
<g id="a_node2"><a xlink:href="a00109.html" target="_top" xlink:title="node.h">
<polygon fill="white" stroke="black" points="582.5,-168.5 582.5,-187.5 628.5,-187.5 628.5,-168.5 582.5,-168.5"/>
<text text-anchor="middle" x="605.5" y="-175.5" font-family="Helvetica,sans-Serif" font-size="10.00">node.h</text>
</a>
</g>
</g>
<!-- Node1&#45;&gt;Node2 -->
<g id="edge1" class="edge"><title>Node1&#45;&gt;Node2</title>
<path fill="none" stroke="midnightblue" d="M605.5,-213.805C605.5,-204.91 605.5,-194.78 605.5,-187.751"/>
<polygon fill="midnightblue" stroke="midnightblue" points="602,-214.083 605.5,-224.083 609,-214.083 602,-214.083"/>
</g>
<!-- Node29 -->
<g id="node29" class="node"><title>Node29</title>
<g id="a_node29"><a xlink:href="a00123.html" target="_top" xlink:title="transform&#45;writer.h">
<polygon fill="white" stroke="black" points="240,-168.5 240,-187.5 333,-187.5 333,-168.5 240,-168.5"/>
<text text-anchor="middle" x="286.5" y="-175.5" font-family="Helvetica,sans-Serif" font-size="10.00">transform&#45;writer.h</text>
</a>
</g>
</g>
<!-- Node1&#45;&gt;Node29 -->
<g id="edge35" class="edge"><title>Node1&#45;&gt;Node29</title>
<path fill="none" stroke="midnightblue" d="M557.907,-224.943C497.321,-214.688 393.317,-197.082 333.174,-186.901"/>
<polygon fill="midnightblue" stroke="midnightblue" points="557.525,-228.429 567.969,-226.647 558.693,-221.527 557.525,-228.429"/>
</g>
<!-- Node32 -->
<g id="node32" class="node"><title>Node32</title>
<g id="a_node32"><a xlink:href="a00077.html" target="_top" xlink:title="blender&#45;geom&#45;writer.h">
<polygon fill="white" stroke="black" points="646.5,-168.5 646.5,-187.5 756.5,-187.5 756.5,-168.5 646.5,-168.5"/>
<text text-anchor="middle" x="701.5" y="-175.5" font-family="Helvetica,sans-Serif" font-size="10.00">blender&#45;geom&#45;writer.h</text>
</a>
</g>
</g>
<!-- Node1&#45;&gt;Node32 -->
<g id="edge39" class="edge"><title>Node1&#45;&gt;Node32</title>
<path fill="none" stroke="midnightblue" d="M630.074,-219.177C647.739,-209.241 671.013,-196.149 686.114,-187.655"/>
<polygon fill="midnightblue" stroke="midnightblue" points="627.924,-216.371 620.924,-224.324 631.356,-222.472 627.924,-216.371"/>
</g>
<!-- Node3 -->
<g id="node3" class="node"><title>Node3</title>
<g id="a_node3"><a xlink:href="a00086.html" target="_top" xlink:title="group&#45;node.h">
<polygon fill="white" stroke="black" points="893,-112.5 893,-131.5 966,-131.5 966,-112.5 893,-112.5"/>
<text text-anchor="middle" x="929.5" y="-119.5" font-family="Helvetica,sans-Serif" font-size="10.00">group&#45;node.h</text>
</a>
</g>
</g>
<!-- Node2&#45;&gt;Node3 -->
<g id="edge2" class="edge"><title>Node2&#45;&gt;Node3</title>
<path fill="none" stroke="midnightblue" d="M638.871,-167.937C747.344,-145.302 777.772,-150.068 883.5,-132 886.548,-131.479 889.705,-130.915 892.871,-130.331"/>
<polygon fill="midnightblue" stroke="midnightblue" points="637.89,-164.567 628.832,-170.063 639.34,-171.415 637.89,-164.567"/>
</g>
<!-- Node6 -->
<g id="node6" class="node"><title>Node6</title>
<g id="a_node6"><a xlink:href="a00126.html" target="_top" xlink:title="window&#45;manager.h">
<polygon fill="white" stroke="black" points="127.5,-56.5 127.5,-75.5 225.5,-75.5 225.5,-56.5 127.5,-56.5"/>
<text text-anchor="middle" x="176.5" y="-63.5" font-family="Helvetica,sans-Serif" font-size="10.00">window&#45;manager.h</text>
</a>
</g>
</g>
<!-- Node2&#45;&gt;Node6 -->
<g id="edge12" class="edge"><title>Node2&#45;&gt;Node6</title>
<path fill="none" stroke="midnightblue" d="M572.213,-176.206C472.524,-173.49 181.523,-162.952 153.5,-132 138.717,-115.672 157.067,-89.2366 168.557,-75.658"/>
<polygon fill="midnightblue" stroke="midnightblue" points="572.237,-179.708 582.326,-176.473 572.422,-172.711 572.237,-179.708"/>
</g>
<!-- Node10 -->
<g id="node10" class="node"><title>Node10</title>
<g id="a_node10"><a xlink:href="a00117.html" target="_top" xlink:title="roadmap&#45;viewer.h">
<polygon fill="white" stroke="black" points="1806.5,-0.5 1806.5,-19.5 1900.5,-19.5 1900.5,-0.5 1806.5,-0.5"/>
<text text-anchor="middle" x="1853.5" y="-7.5" font-family="Helvetica,sans-Serif" font-size="10.00">roadmap&#45;viewer.h</text>
</a>
</g>
</g>
<!-- Node2&#45;&gt;Node10 -->
<g id="edge34" class="edge"><title>Node2&#45;&gt;Node10</title>
<path fill="none" stroke="midnightblue" d="M638.927,-168.17C1028.97,-107.162 1134.67,-164.436 1524.5,-132 1722.71,-115.508 1836.95,-225.181 1968.5,-76 1993.07,-48.1338 1940.49,-29.5064 1898.57,-19.584"/>
<polygon fill="midnightblue" stroke="midnightblue" points="638.11,-164.756 628.779,-169.774 639.202,-171.67 638.11,-164.756"/>
</g>
<!-- Node12 -->
<g id="node12" class="node"><title>Node12</title>
<g id="a_node12"><a xlink:href="a00104.html" target="_top" xlink:title="node&#45;action.hh">
<polygon fill="white" stroke="black" points="162.5,-112.5 162.5,-131.5 242.5,-131.5 242.5,-112.5 162.5,-112.5"/>
<text text-anchor="middle" x="202.5" y="-119.5" font-family="Helvetica,sans-Serif" font-size="10.00">node&#45;action.hh</text>
</a>
</g>
</g>
<!-- Node2&#45;&gt;Node12 -->
<g id="edge11" class="edge"><title>Node2&#45;&gt;Node12</title>
<path fill="none" stroke="midnightblue" d="M572.127,-173.38C509.247,-166.421 368.979,-150.242 251.5,-132 248.594,-131.549 245.596,-131.059 242.581,-130.548"/>
<polygon fill="midnightblue" stroke="midnightblue" points="571.92,-176.878 582.243,-174.494 572.686,-169.92 571.92,-176.878"/>
</g>
<!-- Node13 -->
<g id="node13" class="node"><title>Node13</title>
<g id="a_node13"><a xlink:href="a00112.html" target="_top" xlink:title="pick&#45;handler.hh">
<polygon fill="white" stroke="black" points="261,-112.5 261,-131.5 344,-131.5 344,-112.5 261,-112.5"/>
<text text-anchor="middle" x="302.5" y="-119.5" font-family="Helvetica,sans-Serif" font-size="10.00">pick&#45;handler.hh</text>
</a>
</g>
</g>
<!-- Node2&#45;&gt;Node13 -->
<g id="edge13" class="edge"><title>Node2&#45;&gt;Node13</title>
<path fill="none" stroke="midnightblue" d="M572.195,-171.064C516.545,-161.147 404.789,-141.23 344.069,-130.408"/>
<polygon fill="midnightblue" stroke="midnightblue" points="571.768,-174.543 582.227,-172.852 572.996,-167.652 571.768,-174.543"/>
</g>
<!-- Node14 -->
<g id="node14" class="node"><title>Node14</title>
<g id="a_node14"><a xlink:href="a00119.html" target="_top" xlink:title="selection&#45;event.hh">
<polygon fill="white" stroke="black" points="362.5,-112.5 362.5,-131.5 458.5,-131.5 458.5,-112.5 362.5,-112.5"/>
<text text-anchor="middle" x="410.5" y="-119.5" font-family="Helvetica,sans-Serif" font-size="10.00">selection&#45;event.hh</text>
</a>
</g>
</g>
<!-- Node2&#45;&gt;Node14 -->
<g id="edge14" class="edge"><title>Node2&#45;&gt;Node14</title>
<path fill="none" stroke="midnightblue" d="M572.65,-167.903C535.983,-157.749 477.11,-141.446 441.297,-131.529"/>
<polygon fill="midnightblue" stroke="midnightblue" points="571.794,-171.298 582.365,-170.593 573.662,-164.552 571.794,-171.298"/>
</g>
<!-- Node15 -->
<g id="node15" class="node"><title>Node15</title>
<g id="a_node15"><a xlink:href="a00124.html" target="_top" xlink:title="tree&#45;item.hh">
<polygon fill="white" stroke="black" points="476.5,-112.5 476.5,-131.5 544.5,-131.5 544.5,-112.5 476.5,-112.5"/>
<text text-anchor="middle" x="510.5" y="-119.5" font-family="Helvetica,sans-Serif" font-size="10.00">tree&#45;item.hh</text>
</a>
</g>
</g>
<!-- Node2&#45;&gt;Node15 -->
<g id="edge15" class="edge"><title>Node2&#45;&gt;Node15</title>
<path fill="none" stroke="midnightblue" d="M581.182,-163.177C563.701,-153.241 540.67,-140.149 525.726,-131.655"/>
<polygon fill="midnightblue" stroke="midnightblue" points="579.813,-166.425 590.237,-168.324 583.273,-160.339 579.813,-166.425"/>
</g>
<!-- Node16 -->
<g id="node16" class="node"><title>Node16</title>
<g id="a_node16"><a xlink:href="a00105.html" target="_top" xlink:title="node&#45;drawable.h">
<polygon fill="white" stroke="black" points="1427.5,-112.5 1427.5,-131.5 1515.5,-131.5 1515.5,-112.5 1427.5,-112.5"/>
<text text-anchor="middle" x="1471.5" y="-119.5" font-family="Helvetica,sans-Serif" font-size="10.00">node&#45;drawable.h</text>
</a>
</g>
</g>
<!-- Node2&#45;&gt;Node16 -->
<g id="edge16" class="edge"><title>Node2&#45;&gt;Node16</title>
<path fill="none" stroke="midnightblue" d="M638.697,-168.224C810.592,-141.911 1280.75,-127.946 1427.32,-124.1"/>
<polygon fill="midnightblue" stroke="midnightblue" points="638.105,-164.774 628.785,-169.811 639.212,-171.686 638.105,-164.774"/>
</g>
<!-- Node25 -->
<g id="node25" class="node"><title>Node25</title>
<g id="a_node25"><a xlink:href="a00091.html" target="_top" xlink:title="leaf&#45;node&#45;collada.h">
<polygon fill="white" stroke="black" points="984.5,-112.5 984.5,-131.5 1082.5,-131.5 1082.5,-112.5 984.5,-112.5"/>
<text text-anchor="middle" x="1033.5" y="-119.5" font-family="Helvetica,sans-Serif" font-size="10.00">leaf&#45;node&#45;collada.h</text>
</a>
</g>
</g>
<!-- Node2&#45;&gt;Node25 -->
<g id="edge29" class="edge"><title>Node2&#45;&gt;Node25</title>
<path fill="none" stroke="midnightblue" d="M638.744,-168.052C787.168,-140.004 828.329,-150.946 974.5,-132 977.685,-131.587 980.965,-131.142 984.268,-130.679"/>
<polygon fill="midnightblue" stroke="midnightblue" points="637.973,-164.636 628.811,-169.956 639.291,-171.51 637.973,-164.636"/>
</g>
<!-- Node26 -->
<g id="node26" class="node"><title>Node26</title>
<g id="a_node26"><a xlink:href="a00094.html" target="_top" xlink:title="leaf&#45;node&#45;face.h">
<polygon fill="white" stroke="black" points="562.5,-112.5 562.5,-131.5 648.5,-131.5 648.5,-112.5 562.5,-112.5"/>
<text text-anchor="middle" x="605.5" y="-119.5" font-family="Helvetica,sans-Serif" font-size="10.00">leaf&#45;node&#45;face.h</text>
</a>
</g>
</g>
<!-- Node2&#45;&gt;Node26 -->
<g id="edge31" class="edge"><title>Node2&#45;&gt;Node26</title>
<path fill="none" stroke="midnightblue" d="M605.5,-157.805C605.5,-148.91 605.5,-138.78 605.5,-131.751"/>
<polygon fill="midnightblue" stroke="midnightblue" points="602,-158.083 605.5,-168.083 609,-158.083 602,-158.083"/>
</g>
<!-- Node27 -->
<g id="node27" class="node"><title>Node27</title>
<g id="a_node27"><a xlink:href="a00095.html" target="_top" xlink:title="leaf&#45;node&#45;ground.h">
<polygon fill="white" stroke="black" points="667,-112.5 667,-131.5 764,-131.5 764,-112.5 667,-112.5"/>
<text text-anchor="middle" x="715.5" y="-119.5" font-family="Helvetica,sans-Serif" font-size="10.00">leaf&#45;node&#45;ground.h</text>
</a>
</g>
</g>
<!-- Node2&#45;&gt;Node27 -->
<g id="edge32" class="edge"><title>Node2&#45;&gt;Node27</title>
<path fill="none" stroke="midnightblue" d="M632.262,-163.862C652.659,-153.849 680.166,-140.346 697.87,-131.655"/>
<polygon fill="midnightblue" stroke="midnightblue" points="630.608,-160.775 623.173,-168.324 633.692,-167.059 630.608,-160.775"/>
</g>
<!-- Node28 -->
<g id="node28" class="node"><title>Node28</title>
<g id="a_node28"><a xlink:href="a00098.html" target="_top" xlink:title="leaf&#45;node&#45;mesh.h">
<polygon fill="white" stroke="black" points="782.5,-112.5 782.5,-131.5 874.5,-131.5 874.5,-112.5 782.5,-112.5"/>
<text text-anchor="middle" x="828.5" y="-119.5" font-family="Helvetica,sans-Serif" font-size="10.00">leaf&#45;node&#45;mesh.h</text>
</a>
</g>
</g>
<!-- Node2&#45;&gt;Node28 -->
<g id="edge33" class="edge"><title>Node2&#45;&gt;Node28</title>
<path fill="none" stroke="midnightblue" d="M638.275,-167.88C696.503,-152.936 753.346,-139.827 789.968,-131.569"/>
<polygon fill="midnightblue" stroke="midnightblue" points="637.348,-164.505 628.54,-170.393 639.098,-171.283 637.348,-164.505"/>
</g>
<!-- Node4 -->
<g id="node4" class="node"><title>Node4</title>
<g id="a_node4"><a xlink:href="a00078.html" target="_top" xlink:title="bodytreewidget.hh">
<polygon fill="white" stroke="black" points="767.5,-56.5 767.5,-75.5 863.5,-75.5 863.5,-56.5 767.5,-56.5"/>
<text text-anchor="middle" x="815.5" y="-63.5" font-family="Helvetica,sans-Serif" font-size="10.00">bodytreewidget.hh</text>
</a>
</g>
</g>
<!-- Node3&#45;&gt;Node4 -->
<g id="edge3" class="edge"><title>Node3&#45;&gt;Node4</title>
<path fill="none" stroke="midnightblue" d="M902.258,-108.096C880.96,-98.0073 851.958,-84.2697 833.479,-75.5164"/>
<polygon fill="midnightblue" stroke="midnightblue" points="900.901,-111.326 911.436,-112.444 903.897,-105 900.901,-111.326"/>
</g>
<!-- Node5 -->
<g id="node5" class="node"><title>Node5</title>
<g id="a_node5"><a xlink:href="a00103.html" target="_top" xlink:title="mainwindow.hh">
<polygon fill="white" stroke="black" points="665.5,-56.5 665.5,-75.5 749.5,-75.5 749.5,-56.5 665.5,-56.5"/>
<text text-anchor="middle" x="707.5" y="-63.5" font-family="Helvetica,sans-Serif" font-size="10.00">mainwindow.hh</text>
</a>
</g>
</g>
<!-- Node3&#45;&gt;Node5 -->
<g id="edge4" class="edge"><title>Node3&#45;&gt;Node5</title>
<path fill="none" stroke="midnightblue" d="M884.375,-110.024C842.44,-99.8232 780.848,-84.8414 742.512,-75.5164"/>
<polygon fill="midnightblue" stroke="midnightblue" points="883.78,-113.481 894.323,-112.444 885.434,-106.679 883.78,-113.481"/>
</g>
<!-- Node3&#45;&gt;Node6 -->
<g id="edge5" class="edge"><title>Node3&#45;&gt;Node6</title>
<path fill="none" stroke="midnightblue" d="M882.797,-112.099C629.916,-80.0159 339.313,-70.5751 225.566,-67.9358"/>
<polygon fill="midnightblue" stroke="midnightblue" points="882.547,-115.596 892.912,-113.397 883.438,-108.653 882.547,-115.596"/>
</g>
<!-- Node8 -->
<g id="node8" class="node"><title>Node8</title>
<g id="a_node8"><a xlink:href="a00096.html" target="_top" xlink:title="leaf&#45;node&#45;light.h">
<polygon fill="white" stroke="black" points="915.5,-0.5 915.5,-19.5 1001.5,-19.5 1001.5,-0.5 915.5,-0.5"/>
<text text-anchor="middle" x="958.5" y="-7.5" font-family="Helvetica,sans-Serif" font-size="10.00">leaf&#45;node&#45;light.h</text>
</a>
</g>
</g>
<!-- Node3&#45;&gt;Node8 -->
<g id="edge7" class="edge"><title>Node3&#45;&gt;Node8</title>
<path fill="none" stroke="midnightblue" d="M920.186,-103.265C914.476,-89.9209 909.338,-71.3683 915.5,-56 921.613,-40.755 935.626,-27.7492 946.003,-19.698"/>
<polygon fill="midnightblue" stroke="midnightblue" points="917.033,-104.784 924.486,-112.314 923.356,-101.78 917.033,-104.784"/>
</g>
<!-- Node9 -->
<g id="node9" class="node"><title>Node9</title>
<g id="a_node9"><a xlink:href="a00107.html" target="_top" xlink:title="node&#45;rod.h">
<polygon fill="white" stroke="black" points="1086.5,-0.5 1086.5,-19.5 1148.5,-19.5 1148.5,-0.5 1086.5,-0.5"/>
<text text-anchor="middle" x="1117.5" y="-7.5" font-family="Helvetica,sans-Serif" font-size="10.00">node&#45;rod.h</text>
</a>
</g>
</g>
<!-- Node3&#45;&gt;Node9 -->
<g id="edge8" class="edge"><title>Node3&#45;&gt;Node9</title>
<path fill="none" stroke="midnightblue" d="M931.694,-102.547C934.393,-87.9396 940.363,-68.0546 953.5,-56 990.265,-22.2653 1049.96,-13.4597 1086.29,-11.3707"/>
<polygon fill="midnightblue" stroke="midnightblue" points="928.228,-102.062 930.204,-112.471 935.15,-103.102 928.228,-102.062"/>
</g>
<!-- Node3&#45;&gt;Node10 -->
<g id="edge9" class="edge"><title>Node3&#45;&gt;Node10</title>
<path fill="none" stroke="midnightblue" d="M939.211,-103.576C948.94,-88.0283 965.473,-66.1927 986.5,-56 1060.38,-20.1895 1636.5,-12.7391 1806.46,-11.3142"/>
<polygon fill="midnightblue" stroke="midnightblue" points="936.139,-101.895 934.054,-112.283 942.162,-105.463 936.139,-101.895"/>
</g>
<!-- Node11 -->
<g id="node11" class="node"><title>Node11</title>
<g id="a_node11"><a xlink:href="a00125.html" target="_top" xlink:title="urdf&#45;parser.h">
<polygon fill="white" stroke="black" points="996,-56.5 996,-75.5 1067,-75.5 1067,-56.5 996,-56.5"/>
<text text-anchor="middle" x="1031.5" y="-63.5" font-family="Helvetica,sans-Serif" font-size="10.00">urdf&#45;parser.h</text>
</a>
</g>
</g>
<!-- Node3&#45;&gt;Node11 -->
<g id="edge10" class="edge"><title>Node3&#45;&gt;Node11</title>
<path fill="none" stroke="midnightblue" d="M954.831,-107.59C973.69,-97.6052 998.884,-84.2672 1015.15,-75.6545"/>
<polygon fill="midnightblue" stroke="midnightblue" points="953.088,-104.552 945.888,-112.324 956.364,-110.738 953.088,-104.552"/>
</g>
<!-- Node7 -->
<g id="node7" class="node"><title>Node7</title>
<g id="a_node7"><a xlink:href="a00110.html" target="_top" xlink:title="osgwidget.hh">
<polygon fill="white" stroke="black" points="78.5,-0.5 78.5,-19.5 152.5,-19.5 152.5,-0.5 78.5,-0.5"/>
<text text-anchor="middle" x="115.5" y="-7.5" font-family="Helvetica,sans-Serif" font-size="10.00">osgwidget.hh</text>
</a>
</g>
</g>
<!-- Node6&#45;&gt;Node7 -->
<g id="edge6" class="edge"><title>Node6&#45;&gt;Node7</title>
<path fill="none" stroke="midnightblue" d="M159.033,-49.5372C148.156,-39.9087 134.556,-27.8694 125.479,-19.8339"/>
<polygon fill="midnightblue" stroke="midnightblue" points="156.892,-52.3162 166.699,-56.324 161.532,-47.0749 156.892,-52.3162"/>
</g>
<!-- Node17 -->
<g id="node17" class="node"><title>Node17</title>
<g id="a_node17"><a xlink:href="a00088.html" target="_top" xlink:title="leaf&#45;node&#45;arrow.h">
<polygon fill="white" stroke="black" points="1319.5,-56.5 1319.5,-75.5 1411.5,-75.5 1411.5,-56.5 1319.5,-56.5"/>
<text text-anchor="middle" x="1365.5" y="-63.5" font-family="Helvetica,sans-Serif" font-size="10.00">leaf&#45;node&#45;arrow.h</text>
</a>
</g>
</g>
<!-- Node16&#45;&gt;Node17 -->
<g id="edge17" class="edge"><title>Node16&#45;&gt;Node17</title>
<path fill="none" stroke="midnightblue" d="M1445.44,-107.726C1425.82,-97.7271 1399.47,-84.3065 1382.49,-75.6545"/>
<polygon fill="midnightblue" stroke="midnightblue" points="1443.97,-110.903 1454.47,-112.324 1447.15,-104.666 1443.97,-110.903"/>
</g>
<!-- Node18 -->
<g id="node18" class="node"><title>Node18</title>
<g id="a_node18"><a xlink:href="a00089.html" target="_top" xlink:title="leaf&#45;node&#45;box.h">
<polygon fill="white" stroke="black" points="1430,-56.5 1430,-75.5 1513,-75.5 1513,-56.5 1430,-56.5"/>
<text text-anchor="middle" x="1471.5" y="-63.5" font-family="Helvetica,sans-Serif" font-size="10.00">leaf&#45;node&#45;box.h</text>
</a>
</g>
</g>
<!-- Node16&#45;&gt;Node18 -->
<g id="edge18" class="edge"><title>Node16&#45;&gt;Node18</title>
<path fill="none" stroke="midnightblue" d="M1471.5,-101.805C1471.5,-92.9102 1471.5,-82.7798 1471.5,-75.7511"/>
<polygon fill="midnightblue" stroke="midnightblue" points="1468,-102.083 1471.5,-112.083 1475,-102.083 1468,-102.083"/>
</g>
<!-- Node19 -->
<g id="node19" class="node"><title>Node19</title>
<g id="a_node19"><a xlink:href="a00090.html" target="_top" xlink:title="leaf&#45;node&#45;capsule.h">
<polygon fill="white" stroke="black" points="1200,-56.5 1200,-75.5 1301,-75.5 1301,-56.5 1200,-56.5"/>
<text text-anchor="middle" x="1250.5" y="-63.5" font-family="Helvetica,sans-Serif" font-size="10.00">leaf&#45;node&#45;capsule.h</text>
</a>
</g>
</g>
<!-- Node16&#45;&gt;Node19 -->
<g id="edge19" class="edge"><title>Node16&#45;&gt;Node19</title>
<path fill="none" stroke="midnightblue" d="M1426.58,-110.024C1384.83,-99.8232 1323.52,-84.8414 1285.35,-75.5164"/>
<polygon fill="midnightblue" stroke="midnightblue" points="1425.94,-113.47 1436.48,-112.444 1427.6,-106.67 1425.94,-113.47"/>
</g>
<!-- Node20 -->
<g id="node20" class="node"><title>Node20</title>
<g id="a_node20"><a xlink:href="a00092.html" target="_top" xlink:title="leaf&#45;node&#45;cone.h">
<polygon fill="white" stroke="black" points="1531,-56.5 1531,-75.5 1620,-75.5 1620,-56.5 1531,-56.5"/>
<text text-anchor="middle" x="1575.5" y="-63.5" font-family="Helvetica,sans-Serif" font-size="10.00">leaf&#45;node&#45;cone.h</text>
</a>
</g>
</g>
<!-- Node16&#45;&gt;Node20 -->
<g id="edge21" class="edge"><title>Node16&#45;&gt;Node20</title>
<path fill="none" stroke="midnightblue" d="M1497.33,-107.59C1516.56,-97.6052 1542.24,-84.2672 1558.83,-75.6545"/>
<polygon fill="midnightblue" stroke="midnightblue" points="1495.47,-104.61 1488.21,-112.324 1498.7,-110.822 1495.47,-104.61"/>
</g>
<!-- Node21 -->
<g id="node21" class="node"><title>Node21</title>
<g id="a_node21"><a xlink:href="a00093.html" target="_top" xlink:title="leaf&#45;node&#45;cylinder.h">
<polygon fill="white" stroke="black" points="1638,-56.5 1638,-75.5 1739,-75.5 1739,-56.5 1638,-56.5"/>
<text text-anchor="middle" x="1688.5" y="-63.5" font-family="Helvetica,sans-Serif" font-size="10.00">leaf&#45;node&#45;cylinder.h</text>
</a>
</g>
</g>
<!-- Node16&#45;&gt;Node21 -->
<g id="edge22" class="edge"><title>Node16&#45;&gt;Node21</title>
<path fill="none" stroke="midnightblue" d="M1515.61,-110.024C1556.6,-99.8232 1616.8,-84.8414 1654.28,-75.5164"/>
<polygon fill="midnightblue" stroke="midnightblue" points="1514.74,-106.632 1505.88,-112.444 1516.43,-113.425 1514.74,-106.632"/>
</g>
<!-- Node22 -->
<g id="node22" class="node"><title>Node22</title>
<g id="a_node22"><a xlink:href="a00099.html" target="_top" xlink:title="leaf&#45;node&#45;sphere.h">
<polygon fill="white" stroke="black" points="1085,-56.5 1085,-75.5 1182,-75.5 1182,-56.5 1085,-56.5"/>
<text text-anchor="middle" x="1133.5" y="-63.5" font-family="Helvetica,sans-Serif" font-size="10.00">leaf&#45;node&#45;sphere.h</text>
</a>
</g>
</g>
<!-- Node16&#45;&gt;Node22 -->
<g id="edge23" class="edge"><title>Node16&#45;&gt;Node22</title>
<path fill="none" stroke="midnightblue" d="M1417.27,-112.336C1352.29,-101.955 1244.43,-84.7218 1182.07,-74.7602"/>
<polygon fill="midnightblue" stroke="midnightblue" points="1416.89,-115.819 1427.31,-113.94 1417.99,-108.907 1416.89,-115.819"/>
</g>
<!-- Node23 -->
<g id="node23" class="node"><title>Node23</title>
<g id="a_node23"><a xlink:href="a00097.html" target="_top" xlink:title="leaf&#45;node&#45;line.h">
<polygon fill="white" stroke="black" points="1757,-56.5 1757,-75.5 1840,-75.5 1840,-56.5 1757,-56.5"/>
<text text-anchor="middle" x="1798.5" y="-63.5" font-family="Helvetica,sans-Serif" font-size="10.00">leaf&#45;node&#45;line.h</text>
</a>
</g>
</g>
<!-- Node16&#45;&gt;Node23 -->
<g id="edge25" class="edge"><title>Node16&#45;&gt;Node23</title>
<path fill="none" stroke="midnightblue" d="M1525.71,-112.474C1581.58,-103.62 1671.19,-89.2359 1748.5,-76 1751.2,-75.5386 1753.97,-75.0569 1756.77,-74.5667"/>
<polygon fill="midnightblue" stroke="midnightblue" points="1525.01,-109.041 1515.68,-114.061 1526.1,-115.955 1525.01,-109.041"/>
</g>
<!-- Node24 -->
<g id="node24" class="node"><title>Node24</title>
<g id="a_node24"><a xlink:href="a00100.html" target="_top" xlink:title="leaf&#45;node&#45;xyzaxis.h">
<polygon fill="white" stroke="black" points="1858,-56.5 1858,-75.5 1959,-75.5 1959,-56.5 1858,-56.5"/>
<text text-anchor="middle" x="1908.5" y="-63.5" font-family="Helvetica,sans-Serif" font-size="10.00">leaf&#45;node&#45;xyzaxis.h</text>
</a>
</g>
</g>
<!-- Node16&#45;&gt;Node24 -->
<g id="edge27" class="edge"><title>Node16&#45;&gt;Node24</title>
<path fill="none" stroke="midnightblue" d="M1525.89,-115.094C1599.39,-106.981 1734.49,-91.6128 1849.5,-76 1852.27,-75.6237 1855.12,-75.2266 1857.99,-74.8173"/>
<polygon fill="midnightblue" stroke="midnightblue" points="1525.06,-111.664 1515.5,-116.237 1525.82,-118.622 1525.06,-111.664"/>
</g>
<!-- Node19&#45;&gt;Node9 -->
<g id="edge20" class="edge"><title>Node19&#45;&gt;Node9</title>
<path fill="none" stroke="midnightblue" d="M1220.05,-52.6377C1195.09,-42.504 1160.42,-28.4274 1138.48,-19.5164"/>
<polygon fill="midnightblue" stroke="midnightblue" points="1218.84,-55.9245 1229.43,-56.4435 1221.48,-49.4387 1218.84,-55.9245"/>
</g>
<!-- Node22&#45;&gt;Node8 -->
<g id="edge24" class="edge"><title>Node22&#45;&gt;Node8</title>
<path fill="none" stroke="midnightblue" d="M1096.03,-53.4363C1063.03,-43.2551 1015.74,-28.664 986.1,-19.5164"/>
<polygon fill="midnightblue" stroke="midnightblue" points="1095.18,-56.8393 1105.77,-56.4435 1097.25,-50.1505 1095.18,-56.8393"/>
</g>
<!-- Node23&#45;&gt;Node10 -->
<g id="edge26" class="edge"><title>Node23&#45;&gt;Node10</title>
<path fill="none" stroke="midnightblue" d="M1814.79,-49.0024C1824.54,-39.4329 1836.55,-27.6389 1844.59,-19.7511"/>
<polygon fill="midnightblue" stroke="midnightblue" points="1812.27,-46.5796 1807.58,-56.083 1817.17,-51.5746 1812.27,-46.5796"/>
</g>
<!-- Node24&#45;&gt;Node10 -->
<g id="edge28" class="edge"><title>Node24&#45;&gt;Node10</title>
<path fill="none" stroke="midnightblue" d="M1892.21,-49.0024C1882.46,-39.4329 1870.45,-27.6389 1862.41,-19.7511"/>
<polygon fill="midnightblue" stroke="midnightblue" points="1889.83,-51.5746 1899.42,-56.083 1894.73,-46.5796 1889.83,-51.5746"/>
</g>
<!-- Node25&#45;&gt;Node11 -->
<g id="edge30" class="edge"><title>Node25&#45;&gt;Node11</title>
<path fill="none" stroke="midnightblue" d="M1032.79,-101.805C1032.46,-92.9102 1032.08,-82.7798 1031.82,-75.7511"/>
<polygon fill="midnightblue" stroke="midnightblue" points="1029.3,-102.219 1033.17,-112.083 1036.3,-101.96 1029.3,-102.219"/>
</g>
<!-- Node30 -->
<g id="node30" class="node"><title>Node30</title>
<g id="a_node30"><a xlink:href="a00127.html" target="_top" xlink:title="windows&#45;manager.h">
<polygon fill="white" stroke="black" points="2.5,-112.5 2.5,-131.5 106.5,-131.5 106.5,-112.5 2.5,-112.5"/>
<text text-anchor="middle" x="54.5" y="-119.5" font-family="Helvetica,sans-Serif" font-size="10.00">windows&#45;manager.h</text>
</a>
</g>
</g>
<!-- Node29&#45;&gt;Node30 -->
<g id="edge36" class="edge"><title>Node29&#45;&gt;Node30</title>
<path fill="none" stroke="midnightblue" d="M239.897,-166.153C196.063,-155.95 131.322,-140.881 91.0891,-131.516"/>
<polygon fill="midnightblue" stroke="midnightblue" points="239.206,-169.585 249.739,-168.444 240.793,-162.768 239.206,-169.585"/>
</g>
<!-- Node31 -->
<g id="node31" class="node"><title>Node31</title>
<g id="a_node31"><a xlink:href="a00128.html" target="_top" xlink:title="windows&#45;manager.hh">
<polygon fill="white" stroke="black" points="0,-56.5 0,-75.5 109,-75.5 109,-56.5 0,-56.5"/>
<text text-anchor="middle" x="54.5" y="-63.5" font-family="Helvetica,sans-Serif" font-size="10.00">windows&#45;manager.hh</text>
</a>
</g>
</g>
<!-- Node30&#45;&gt;Node31 -->
<g id="edge37" class="edge"><title>Node30&#45;&gt;Node31</title>
<path fill="none" stroke="midnightblue" d="M54.5,-101.805C54.5,-92.9102 54.5,-82.7798 54.5,-75.7511"/>
<polygon fill="midnightblue" stroke="midnightblue" points="51.0001,-102.083 54.5,-112.083 58.0001,-102.083 51.0001,-102.083"/>
</g>
<!-- Node31&#45;&gt;Node7 -->
<g id="edge38" class="edge"><title>Node31&#45;&gt;Node7</title>
<path fill="none" stroke="midnightblue" d="M71.9672,-49.5372C82.8438,-39.9087 96.4439,-27.8694 105.521,-19.8339"/>
<polygon fill="midnightblue" stroke="midnightblue" points="69.4684,-47.0749 64.3007,-56.324 74.1083,-52.3162 69.4684,-47.0749"/>
</g>
</g>
</svg>
