<?xml version="1.0" encoding="UTF-8" standalone="no"?>
<!DOCTYPE svg PUBLIC "-//W3C//DTD SVG 1.1//EN"
 "http://www.w3.org/Graphics/SVG/1.1/DTD/svg11.dtd">
<!-- Generated by graphviz version 2.38.0 (20140413.2041)
 -->
<!-- Title: pluginmanagerdialog.hh Pages: 1 -->
<svg width="649pt" height="218pt"
 viewBox="0.00 0.00 648.80 218.00" xmlns="http://www.w3.org/2000/svg" xmlns:xlink="http://www.w3.org/1999/xlink">
<g id="graph0" class="graph" transform="scale(1 1) rotate(0) translate(4 214)">
<title>pluginmanagerdialog.hh</title>
<polygon fill="white" stroke="none" points="-4,4 -4,-214 644.801,-214 644.801,4 -4,4"/>
<!-- Node1 -->
<g id="node1" class="node"><title>Node1</title>
<polygon fill="#bfbfbf" stroke="black" points="270.301,-190.5 270.301,-209.5 389.301,-209.5 389.301,-190.5 270.301,-190.5"/>
<text text-anchor="middle" x="329.801" y="-197.5" font-family="Helvetica,sans-Serif" font-size="10.00">pluginmanagerdialog.hh</text>
</g>
<!-- Node2 -->
<g id="node2" class="node"><title>Node2</title>
<polygon fill="white" stroke="#bfbfbf" points="183.801,-0.5 183.801,-19.5 235.801,-19.5 235.801,-0.5 183.801,-0.5"/>
<text text-anchor="middle" x="209.801" y="-7.5" font-family="Helvetica,sans-Serif" font-size="10.00">QDialog</text>
</g>
<!-- Node1&#45;&gt;Node2 -->
<g id="edge1" class="edge"><title>Node1&#45;&gt;Node2</title>
<path fill="none" stroke="midnightblue" d="M270.048,-193.139C224.303,-187.184 160.346,-175.635 107.801,-154 57.6469,-133.35 31.5564,-134.733 5.80057,-87 -28.9525,-22.5921 105.589,-12.1379 173.197,-10.8665"/>
<polygon fill="midnightblue" stroke="midnightblue" points="173.483,-14.3632 183.437,-10.7345 173.393,-7.3638 173.483,-14.3632"/>
</g>
<!-- Node3 -->
<g id="node3" class="node"><title>Node3</title>
<polygon fill="white" stroke="#bfbfbf" points="227.301,-129 227.301,-148 270.301,-148 270.301,-129 227.301,-129"/>
<text text-anchor="middle" x="248.801" y="-136" font-family="Helvetica,sans-Serif" font-size="10.00">QMap</text>
</g>
<!-- Node1&#45;&gt;Node3 -->
<g id="edge2" class="edge"><title>Node1&#45;&gt;Node3</title>
<path fill="none" stroke="midnightblue" d="M318.195,-190.475C305.323,-181.02 284.326,-165.596 268.795,-154.187"/>
<polygon fill="midnightblue" stroke="midnightblue" points="270.516,-151.108 260.384,-148.009 266.372,-156.75 270.516,-151.108"/>
</g>
<!-- Node4 -->
<g id="node4" class="node"><title>Node4</title>
<polygon fill="white" stroke="#bfbfbf" points="288.301,-129 288.301,-148 371.301,-148 371.301,-129 288.301,-129"/>
<text text-anchor="middle" x="329.801" y="-136" font-family="Helvetica,sans-Serif" font-size="10.00">QSignalMapper</text>
</g>
<!-- Node1&#45;&gt;Node4 -->
<g id="edge3" class="edge"><title>Node1&#45;&gt;Node4</title>
<path fill="none" stroke="midnightblue" d="M329.801,-190.475C329.801,-182.08 329.801,-168.981 329.801,-158.163"/>
<polygon fill="midnightblue" stroke="midnightblue" points="333.301,-158.009 329.801,-148.009 326.301,-158.009 333.301,-158.009"/>
</g>
<!-- Node5 -->
<g id="node5" class="node"><title>Node5</title>
<polygon fill="white" stroke="#bfbfbf" points="389.301,-129 389.301,-148 426.301,-148 426.301,-129 389.301,-129"/>
<text text-anchor="middle" x="407.801" y="-136" font-family="Helvetica,sans-Serif" font-size="10.00">QDir</text>
</g>
<!-- Node1&#45;&gt;Node5 -->
<g id="edge4" class="edge"><title>Node1&#45;&gt;Node5</title>
<path fill="none" stroke="midnightblue" d="M340.976,-190.475C353.371,-181.02 373.591,-165.596 388.547,-154.187"/>
<polygon fill="midnightblue" stroke="midnightblue" points="390.818,-156.857 396.646,-148.009 386.572,-151.291 390.818,-156.857"/>
</g>
<!-- Node6 -->
<g id="node6" class="node"><title>Node6</title>
<polygon fill="white" stroke="#bfbfbf" points="444.801,-129 444.801,-148 524.801,-148 524.801,-129 444.801,-129"/>
<text text-anchor="middle" x="484.801" y="-136" font-family="Helvetica,sans-Serif" font-size="10.00">QPluginLoader</text>
</g>
<!-- Node1&#45;&gt;Node6 -->
<g id="edge5" class="edge"><title>Node1&#45;&gt;Node6</title>
<path fill="none" stroke="midnightblue" d="M352.008,-190.475C378.481,-180.313 422.914,-163.256 453.02,-151.7"/>
<polygon fill="midnightblue" stroke="midnightblue" points="454.553,-154.86 462.634,-148.009 452.044,-148.325 454.553,-154.86"/>
</g>
<!-- Node7 -->
<g id="node7" class="node"><title>Node7</title>
<polygon fill="white" stroke="#bfbfbf" points="542.801,-129 542.801,-148 640.801,-148 640.801,-129 542.801,-129"/>
<text text-anchor="middle" x="591.801" y="-136" font-family="Helvetica,sans-Serif" font-size="10.00">QTableWidgetItem</text>
</g>
<!-- Node1&#45;&gt;Node7 -->
<g id="edge6" class="edge"><title>Node1&#45;&gt;Node7</title>
<path fill="none" stroke="midnightblue" d="M370.131,-190.45C411.338,-181.633 477.137,-167.33 533.801,-154 538.54,-152.885 543.489,-151.692 548.413,-150.487"/>
<polygon fill="midnightblue" stroke="midnightblue" points="549.54,-153.814 558.409,-148.017 547.861,-147.018 549.54,-153.814"/>
</g>
<!-- Node8 -->
<g id="node8" class="node"><title>Node8</title>
<g id="a_node8"><a xlink:href="a00113.html" target="_top" xlink:title="gepetto/gui/plugin\l&#45;interface.hh">
<polygon fill="white" stroke="black" points="116.301,-123.5 116.301,-153.5 209.301,-153.5 209.301,-123.5 116.301,-123.5"/>
<text text-anchor="start" x="124.301" y="-141.5" font-family="Helvetica,sans-Serif" font-size="10.00">gepetto/gui/plugin</text>
<text text-anchor="middle" x="162.801" y="-130.5" font-family="Helvetica,sans-Serif" font-size="10.00">&#45;interface.hh</text>
</a>
</g>
</g>
<!-- Node1&#45;&gt;Node8 -->
<g id="edge7" class="edge"><title>Node1&#45;&gt;Node8</title>
<path fill="none" stroke="midnightblue" d="M305.874,-190.475C281.459,-181.776 242.866,-168.026 211.913,-156.998"/>
<polygon fill="midnightblue" stroke="midnightblue" points="212.754,-153.582 202.159,-153.523 210.404,-160.176 212.754,-153.582"/>
</g>
<!-- Node9 -->
<g id="node9" class="node"><title>Node9</title>
<polygon fill="white" stroke="#bfbfbf" points="424.801,-62 424.801,-81 466.801,-81 466.801,-62 424.801,-62"/>
<text text-anchor="middle" x="445.801" y="-69" font-family="Helvetica,sans-Serif" font-size="10.00">QtGui</text>
</g>
<!-- Node8&#45;&gt;Node9 -->
<g id="edge8" class="edge"><title>Node8&#45;&gt;Node9</title>
<path fill="none" stroke="midnightblue" d="M209.49,-125.14C212.635,-124.391 215.76,-123.67 218.801,-123 305.718,-103.832 331.188,-114.617 415.801,-87 417.426,-86.4694 419.077,-85.868 420.724,-85.2191"/>
<polygon fill="midnightblue" stroke="midnightblue" points="422.207,-88.3907 429.939,-81.1482 419.378,-81.9876 422.207,-88.3907"/>
</g>
<!-- Node10 -->
<g id="node10" class="node"><title>Node10</title>
<polygon fill="white" stroke="#bfbfbf" points="15.3006,-62 15.3006,-81 70.3006,-81 70.3006,-62 15.3006,-62"/>
<text text-anchor="middle" x="42.8006" y="-69" font-family="Helvetica,sans-Serif" font-size="10.00">QWidget</text>
</g>
<!-- Node8&#45;&gt;Node10 -->
<g id="edge9" class="edge"><title>Node8&#45;&gt;Node10</title>
<path fill="none" stroke="midnightblue" d="M136.762,-123.396C116.173,-112.243 87.6275,-96.7812 67.4165,-85.8336"/>
<polygon fill="midnightblue" stroke="midnightblue" points="68.9657,-82.6924 58.5058,-81.007 65.6317,-88.8474 68.9657,-82.6924"/>
</g>
<!-- Node11 -->
<g id="node11" class="node"><title>Node11</title>
<polygon fill="white" stroke="#bfbfbf" points="88.8006,-62 88.8006,-81 142.801,-81 142.801,-62 88.8006,-62"/>
<text text-anchor="middle" x="115.801" y="-69" font-family="Helvetica,sans-Serif" font-size="10.00">iostream</text>
</g>
<!-- Node8&#45;&gt;Node11 -->
<g id="edge10" class="edge"><title>Node8&#45;&gt;Node11</title>
<path fill="none" stroke="midnightblue" d="M152.602,-123.396C145.419,-113.462 135.763,-100.108 128.145,-89.5719"/>
<polygon fill="midnightblue" stroke="midnightblue" points="130.783,-87.2472 122.087,-81.1945 125.111,-91.3489 130.783,-87.2472"/>
</g>
<!-- Node12 -->
<g id="node12" class="node"><title>Node12</title>
<g id="a_node12"><a xlink:href="a00083.html" target="_top" xlink:title="gepetto/gui/dialog\l/dialogloadrobot.hh">
<polygon fill="white" stroke="black" points="160.801,-56.5 160.801,-86.5 258.801,-86.5 258.801,-56.5 160.801,-56.5"/>
<text text-anchor="start" x="168.801" y="-74.5" font-family="Helvetica,sans-Serif" font-size="10.00">gepetto/gui/dialog</text>
<text text-anchor="middle" x="209.801" y="-63.5" font-family="Helvetica,sans-Serif" font-size="10.00">/dialogloadrobot.hh</text>
</a>
</g>
</g>
<!-- Node8&#45;&gt;Node12 -->
<g id="edge11" class="edge"><title>Node8&#45;&gt;Node12</title>
<path fill="none" stroke="midnightblue" d="M172.999,-123.396C179.035,-115.049 186.816,-104.287 193.668,-94.8113"/>
<polygon fill="midnightblue" stroke="midnightblue" points="196.599,-96.7309 199.622,-86.5765 190.926,-92.6292 196.599,-96.7309"/>
</g>
<!-- Node14 -->
<g id="node14" class="node"><title>Node14</title>
<g id="a_node14"><a xlink:href="a00082.html" target="_top" xlink:title="gepetto/gui/dialog\l/dialogloadenvironment.hh">
<polygon fill="white" stroke="black" points="276.801,-56.5 276.801,-86.5 406.801,-86.5 406.801,-56.5 276.801,-56.5"/>
<text text-anchor="start" x="284.801" y="-74.5" font-family="Helvetica,sans-Serif" font-size="10.00">gepetto/gui/dialog</text>
<text text-anchor="middle" x="341.801" y="-63.5" font-family="Helvetica,sans-Serif" font-size="10.00">/dialogloadenvironment.hh</text>
</a>
</g>
</g>
<!-- Node8&#45;&gt;Node14 -->
<g id="edge14" class="edge"><title>Node8&#45;&gt;Node14</title>
<path fill="none" stroke="midnightblue" d="M201.641,-123.396C228.616,-113.601 264.745,-100.481 293.566,-90.0153"/>
<polygon fill="midnightblue" stroke="midnightblue" points="294.831,-93.2796 303.036,-86.5765 292.442,-86.7 294.831,-93.2796"/>
</g>
<!-- Node12&#45;&gt;Node2 -->
<g id="edge12" class="edge"><title>Node12&#45;&gt;Node2</title>
<path fill="none" stroke="midnightblue" d="M209.801,-56.3993C209.801,-48.4664 209.801,-38.458 209.801,-29.8583"/>
<polygon fill="midnightblue" stroke="midnightblue" points="213.301,-29.6577 209.801,-19.6578 206.301,-29.6578 213.301,-29.6577"/>
</g>
<!-- Node13 -->
<g id="node13" class="node"><title>Node13</title>
<polygon fill="white" stroke="#bfbfbf" points="279.301,-0.5 279.301,-19.5 352.301,-19.5 352.301,-0.5 279.301,-0.5"/>
<text text-anchor="middle" x="315.801" y="-7.5" font-family="Helvetica,sans-Serif" font-size="10.00">QComboBox</text>
</g>
<!-- Node12&#45;&gt;Node13 -->
<g id="edge13" class="edge"><title>Node12&#45;&gt;Node13</title>
<path fill="none" stroke="midnightblue" d="M234.921,-56.3993C252.071,-46.7728 274.665,-34.0902 291.613,-24.5772"/>
<polygon fill="midnightblue" stroke="midnightblue" points="293.37,-27.6047 300.377,-19.6578 289.943,-21.5006 293.37,-27.6047"/>
</g>
<!-- Node14&#45;&gt;Node2 -->
<g id="edge15" class="edge"><title>Node14&#45;&gt;Node2</title>
<path fill="none" stroke="midnightblue" d="M310.518,-56.3993C288.569,-46.5054 259.457,-33.3832 238.179,-23.7919"/>
<polygon fill="midnightblue" stroke="midnightblue" points="239.563,-20.5764 229.008,-19.6578 236.686,-26.958 239.563,-20.5764"/>
</g>
<!-- Node14&#45;&gt;Node13 -->
<g id="edge16" class="edge"><title>Node14&#45;&gt;Node13</title>
<path fill="none" stroke="midnightblue" d="M335.639,-56.3993C332.056,-48.1989 327.503,-37.7809 323.663,-28.9936"/>
<polygon fill="midnightblue" stroke="midnightblue" points="326.795,-27.4197 319.584,-19.6578 320.381,-30.2226 326.795,-27.4197"/>
</g>
</g>
</svg>
