<?xml version="1.0" encoding="UTF-8" standalone="no"?>
<!DOCTYPE svg PUBLIC "-//W3C//DTD SVG 1.1//EN"
 "http://www.w3.org/Graphics/SVG/1.1/DTD/svg11.dtd">
<!-- Generated by graphviz version 2.38.0 (20140413.2041)
 -->
<!-- Title: pick&#45;handler.hh Pages: 1 -->
<svg width="3092pt" height="408pt"
 viewBox="0.00 0.00 3092.00 408.00" xmlns="http://www.w3.org/2000/svg" xmlns:xlink="http://www.w3.org/1999/xlink">
<g id="graph0" class="graph" transform="scale(1 1) rotate(0) translate(4 404)">
<title>pick&#45;handler.hh</title>
<polygon fill="white" stroke="none" points="-4,4 -4,-404 3088,-404 3088,4 -4,4"/>
<!-- Node1 -->
<g id="node1" class="node"><title>Node1</title>
<polygon fill="#bfbfbf" stroke="black" points="1475,-380.5 1475,-399.5 1558,-399.5 1558,-380.5 1475,-380.5"/>
<text text-anchor="middle" x="1516.5" y="-387.5" font-family="Helvetica,sans-Serif" font-size="10.00">pick&#45;handler.hh</text>
</g>
<!-- Node2 -->
<g id="node2" class="node"><title>Node2</title>
<g id="a_node2"><a xlink:href="a00085.html" target="_top" xlink:title="gepetto/gui/fwd.hh">
<polygon fill="white" stroke="black" points="170,-185 170,-204 267,-204 267,-185 170,-185"/>
<text text-anchor="middle" x="218.5" y="-192" font-family="Helvetica,sans-Serif" font-size="10.00">gepetto/gui/fwd.hh</text>
</a>
</g>
</g>
<!-- Node1&#45;&gt;Node2 -->
<g id="edge1" class="edge"><title>Node1&#45;&gt;Node2</title>
<path fill="none" stroke="midnightblue" d="M1474.78,-382.781C1284.59,-354.429 499.412,-237.377 277.286,-204.264"/>
<polygon fill="midnightblue" stroke="midnightblue" points="277.545,-200.764 267.139,-202.751 276.513,-207.687 277.545,-200.764"/>
</g>
<!-- Node12 -->
<g id="node12" class="node"><title>Node12</title>
<polygon fill="white" stroke="#bfbfbf" points="1399,-319 1399,-338 1526,-338 1526,-319 1399,-319"/>
<text text-anchor="middle" x="1462.5" y="-326" font-family="Helvetica,sans-Serif" font-size="10.00">osgGA/GUIEventHandler</text>
</g>
<!-- Node1&#45;&gt;Node12 -->
<g id="edge12" class="edge"><title>Node1&#45;&gt;Node12</title>
<path fill="none" stroke="midnightblue" d="M1508.76,-380.475C1500.5,-371.373 1487.22,-356.741 1477.01,-345.483"/>
<polygon fill="midnightblue" stroke="midnightblue" points="1479.53,-343.062 1470.22,-338.009 1474.35,-347.766 1479.53,-343.062"/>
</g>
<!-- Node13 -->
<g id="node13" class="node"><title>Node13</title>
<g id="a_node13"><a xlink:href="a00109.html" target="_top" xlink:title="gepetto/viewer/node.h">
<polygon fill="white" stroke="black" points="1268,-319 1268,-338 1381,-338 1381,-319 1268,-319"/>
<text text-anchor="middle" x="1324.5" y="-326" font-family="Helvetica,sans-Serif" font-size="10.00">gepetto/viewer/node.h</text>
</a>
</g>
</g>
<!-- Node1&#45;&gt;Node13 -->
<g id="edge13" class="edge"><title>Node1&#45;&gt;Node13</title>
<path fill="none" stroke="midnightblue" d="M1488.99,-380.475C1455.63,-370.136 1399.24,-352.661 1361.94,-341.102"/>
<polygon fill="midnightblue" stroke="midnightblue" points="1362.55,-337.626 1351.96,-338.009 1360.47,-344.312 1362.55,-337.626"/>
</g>
<!-- Node47 -->
<g id="node47" class="node"><title>Node47</title>
<polygon fill="white" stroke="#bfbfbf" points="1544,-319 1544,-338 1597,-338 1597,-319 1544,-319"/>
<text text-anchor="middle" x="1570.5" y="-326" font-family="Helvetica,sans-Serif" font-size="10.00">QObject</text>
</g>
<!-- Node1&#45;&gt;Node47 -->
<g id="edge55" class="edge"><title>Node1&#45;&gt;Node47</title>
<path fill="none" stroke="midnightblue" d="M1524.24,-380.475C1532.5,-371.373 1545.78,-356.741 1555.99,-345.483"/>
<polygon fill="midnightblue" stroke="midnightblue" points="1558.65,-347.766 1562.78,-338.009 1553.47,-343.062 1558.65,-347.766"/>
</g>
<!-- Node48 -->
<g id="node48" class="node"><title>Node48</title>
<polygon fill="white" stroke="#bfbfbf" points="1615.5,-319 1615.5,-338 1689.5,-338 1689.5,-319 1615.5,-319"/>
<text text-anchor="middle" x="1652.5" y="-326" font-family="Helvetica,sans-Serif" font-size="10.00">QModelIndex</text>
</g>
<!-- Node1&#45;&gt;Node48 -->
<g id="edge56" class="edge"><title>Node1&#45;&gt;Node48</title>
<path fill="none" stroke="midnightblue" d="M1535.99,-380.475C1558.91,-370.445 1597.19,-353.7 1623.58,-342.155"/>
<polygon fill="midnightblue" stroke="midnightblue" points="1625.29,-345.224 1633.05,-338.009 1622.49,-338.811 1625.29,-345.224"/>
</g>
<!-- Node49 -->
<g id="node49" class="node"><title>Node49</title>
<g id="a_node49"><a xlink:href="a00116.html" target="_top" xlink:title="gepetto/gui/qt&#45;osg\l&#45;keyboard.hh">
<polygon fill="white" stroke="black" points="1708,-313.5 1708,-343.5 1803,-343.5 1803,-313.5 1708,-313.5"/>
<text text-anchor="start" x="1716" y="-331.5" font-family="Helvetica,sans-Serif" font-size="10.00">gepetto/gui/qt&#45;osg</text>
<text text-anchor="middle" x="1755.5" y="-320.5" font-family="Helvetica,sans-Serif" font-size="10.00">&#45;keyboard.hh</text>
</a>
</g>
</g>
<!-- Node1&#45;&gt;Node49 -->
<g id="edge57" class="edge"><title>Node1&#45;&gt;Node49</title>
<path fill="none" stroke="midnightblue" d="M1551.41,-380.443C1586.05,-371.933 1640.94,-358.409 1698,-344.117"/>
<polygon fill="midnightblue" stroke="midnightblue" points="1699.07,-347.456 1707.92,-341.629 1697.37,-340.666 1699.07,-347.456"/>
</g>
<!-- Node3 -->
<g id="node3" class="node"><title>Node3</title>
<polygon fill="white" stroke="#bfbfbf" points="283.5,-118 283.5,-137 327.5,-137 327.5,-118 283.5,-118"/>
<text text-anchor="middle" x="305.5" y="-125" font-family="Helvetica,sans-Serif" font-size="10.00">vector</text>
</g>
<!-- Node2&#45;&gt;Node3 -->
<g id="edge2" class="edge"><title>Node2&#45;&gt;Node3</title>
<path fill="none" stroke="midnightblue" d="M230.233,-184.734C244.452,-174.111 268.627,-156.049 285.739,-143.264"/>
<polygon fill="midnightblue" stroke="midnightblue" points="288.036,-145.916 293.953,-137.127 283.847,-140.309 288.036,-145.916"/>
</g>
<!-- Node4 -->
<g id="node4" class="node"><title>Node4</title>
<polygon fill="white" stroke="#bfbfbf" points="0,-118 0,-137 55,-137 55,-118 0,-118"/>
<text text-anchor="middle" x="27.5" y="-125" font-family="Helvetica,sans-Serif" font-size="10.00">QtGlobal</text>
</g>
<!-- Node2&#45;&gt;Node4 -->
<g id="edge3" class="edge"><title>Node2&#45;&gt;Node4</title>
<path fill="none" stroke="midnightblue" d="M190.799,-184.936C159.845,-175.247 108.32,-158.757 64.5,-143 62.601,-142.317 60.6529,-141.601 58.6918,-140.868"/>
<polygon fill="midnightblue" stroke="midnightblue" points="59.5343,-137.443 48.9438,-137.141 57.0343,-143.982 59.5343,-137.443"/>
</g>
<!-- Node5 -->
<g id="node5" class="node"><title>Node5</title>
<polygon fill="white" stroke="#bfbfbf" points="73.5,-118 73.5,-137 115.5,-137 115.5,-118 73.5,-118"/>
<text text-anchor="middle" x="94.5" y="-125" font-family="Helvetica,sans-Serif" font-size="10.00">QtGui</text>
</g>
<!-- Node2&#45;&gt;Node5 -->
<g id="edge4" class="edge"><title>Node2&#45;&gt;Node5</title>
<path fill="none" stroke="midnightblue" d="M202.034,-184.869C181.096,-173.893 144.719,-154.824 120.137,-141.938"/>
<polygon fill="midnightblue" stroke="midnightblue" points="121.516,-138.71 111.034,-137.167 118.266,-144.91 121.516,-138.71"/>
</g>
<!-- Node6 -->
<g id="node6" class="node"><title>Node6</title>
<g id="a_node6"><a xlink:href="a00102.html" target="_top" xlink:title="gepetto/viewer/macros.h">
<polygon fill="white" stroke="black" points="336.5,-56.5 336.5,-75.5 460.5,-75.5 460.5,-56.5 336.5,-56.5"/>
<text text-anchor="middle" x="398.5" y="-63.5" font-family="Helvetica,sans-Serif" font-size="10.00">gepetto/viewer/macros.h</text>
</a>
</g>
</g>
<!-- Node2&#45;&gt;Node6 -->
<g id="edge5" class="edge"><title>Node2&#45;&gt;Node6</title>
<path fill="none" stroke="midnightblue" d="M204.75,-184.812C182.197,-169.508 141.817,-137 162.5,-112 183.027,-87.1893 264.645,-75.9372 326.193,-70.9139"/>
<polygon fill="midnightblue" stroke="midnightblue" points="326.573,-74.395 336.272,-70.1316 326.031,-67.416 326.573,-74.395"/>
</g>
<!-- Node10 -->
<g id="node10" class="node"><title>Node10</title>
<g id="a_node10"><a xlink:href="a00084.html" target="_top" xlink:title="gepetto/viewer/fwd.h">
<polygon fill="white" stroke="black" points="345,-118 345,-137 452,-137 452,-118 345,-118"/>
<text text-anchor="middle" x="398.5" y="-125" font-family="Helvetica,sans-Serif" font-size="10.00">gepetto/viewer/fwd.h</text>
</a>
</g>
</g>
<!-- Node2&#45;&gt;Node10 -->
<g id="edge9" class="edge"><title>Node2&#45;&gt;Node10</title>
<path fill="none" stroke="midnightblue" d="M242.403,-184.869C273.959,-173.473 329.677,-153.353 365.306,-140.487"/>
<polygon fill="midnightblue" stroke="midnightblue" points="366.568,-143.752 374.785,-137.064 364.191,-137.168 366.568,-143.752"/>
</g>
<!-- Node11 -->
<g id="node11" class="node"><title>Node11</title>
<polygon fill="white" stroke="#bfbfbf" points="171.5,-112.5 171.5,-142.5 265.5,-142.5 265.5,-112.5 171.5,-112.5"/>
<text text-anchor="start" x="179.5" y="-130.5" font-family="Helvetica,sans-Serif" font-size="10.00">gepetto/gui/config</text>
<text text-anchor="middle" x="218.5" y="-119.5" font-family="Helvetica,sans-Serif" font-size="10.00">&#45;dep.hh</text>
</g>
<!-- Node2&#45;&gt;Node11 -->
<g id="edge11" class="edge"><title>Node2&#45;&gt;Node11</title>
<path fill="none" stroke="midnightblue" d="M218.5,-184.734C218.5,-176.541 218.5,-163.923 218.5,-152.714"/>
<polygon fill="midnightblue" stroke="midnightblue" points="222,-152.589 218.5,-142.589 215,-152.589 222,-152.589"/>
</g>
<!-- Node7 -->
<g id="node7" class="node"><title>Node7</title>
<polygon fill="white" stroke="#bfbfbf" points="221.5,-0.5 221.5,-19.5 329.5,-19.5 329.5,-0.5 221.5,-0.5"/>
<text text-anchor="middle" x="275.5" y="-7.5" font-family="Helvetica,sans-Serif" font-size="10.00">boost/shared_ptr.hpp</text>
</g>
<!-- Node6&#45;&gt;Node7 -->
<g id="edge6" class="edge"><title>Node6&#45;&gt;Node7</title>
<path fill="none" stroke="midnightblue" d="M379.01,-56.4435C358.858,-47.5961 327.177,-33.6875 304.169,-23.5865"/>
<polygon fill="midnightblue" stroke="midnightblue" points="305.462,-20.3316 294.899,-19.5164 302.648,-26.7411 305.462,-20.3316"/>
</g>
<!-- Node8 -->
<g id="node8" class="node"><title>Node8</title>
<polygon fill="white" stroke="#bfbfbf" points="347.5,-0.5 347.5,-19.5 449.5,-19.5 449.5,-0.5 347.5,-0.5"/>
<text text-anchor="middle" x="398.5" y="-7.5" font-family="Helvetica,sans-Serif" font-size="10.00">boost/weak_ptr.hpp</text>
</g>
<!-- Node6&#45;&gt;Node8 -->
<g id="edge7" class="edge"><title>Node6&#45;&gt;Node8</title>
<path fill="none" stroke="midnightblue" d="M398.5,-56.083C398.5,-49.0059 398.5,-38.8611 398.5,-29.9865"/>
<polygon fill="midnightblue" stroke="midnightblue" points="402,-29.751 398.5,-19.7511 395,-29.7511 402,-29.751"/>
</g>
<!-- Node9 -->
<g id="node9" class="node"><title>Node9</title>
<polygon fill="white" stroke="#bfbfbf" points="468,-0.5 468,-19.5 531,-19.5 531,-0.5 468,-0.5"/>
<text text-anchor="middle" x="499.5" y="-7.5" font-family="Helvetica,sans-Serif" font-size="10.00">osg/ref_ptr</text>
</g>
<!-- Node6&#45;&gt;Node9 -->
<g id="edge8" class="edge"><title>Node6&#45;&gt;Node9</title>
<path fill="none" stroke="midnightblue" d="M414.727,-56.324C430.851,-47.7034 455.8,-34.3643 474.464,-24.3855"/>
<polygon fill="midnightblue" stroke="midnightblue" points="476.144,-27.456 483.313,-19.6545 472.844,-21.283 476.144,-27.456"/>
</g>
<!-- Node10&#45;&gt;Node6 -->
<g id="edge10" class="edge"><title>Node10&#45;&gt;Node6</title>
<path fill="none" stroke="midnightblue" d="M398.5,-117.975C398.5,-109.58 398.5,-96.4806 398.5,-85.6631"/>
<polygon fill="midnightblue" stroke="midnightblue" points="402,-85.5091 398.5,-75.5091 395,-85.5091 402,-85.5091"/>
</g>
<!-- Node13&#45;&gt;Node10 -->
<g id="edge15" class="edge"><title>Node13&#45;&gt;Node10</title>
<path fill="none" stroke="midnightblue" d="M1283.57,-318.987C1159.62,-293.154 777.471,-213.133 461.5,-143 456.159,-141.814 450.567,-140.555 445.014,-139.292"/>
<polygon fill="midnightblue" stroke="midnightblue" points="445.651,-135.847 435.123,-137.031 444.091,-142.671 445.651,-135.847"/>
</g>
<!-- Node14 -->
<g id="node14" class="node"><title>Node14</title>
<polygon fill="white" stroke="#bfbfbf" points="1346.5,-185 1346.5,-204 1400.5,-204 1400.5,-185 1346.5,-185"/>
<text text-anchor="middle" x="1373.5" y="-192" font-family="Helvetica,sans-Serif" font-size="10.00">iostream</text>
</g>
<!-- Node13&#45;&gt;Node14 -->
<g id="edge14" class="edge"><title>Node13&#45;&gt;Node14</title>
<path fill="none" stroke="midnightblue" d="M1325.3,-318.634C1326.91,-303.331 1331.29,-271.182 1341.5,-246 1346.35,-234.046 1354.03,-221.796 1360.65,-212.356"/>
<polygon fill="midnightblue" stroke="midnightblue" points="1363.49,-214.409 1366.55,-204.267 1357.83,-210.285 1363.49,-214.409"/>
</g>
<!-- Node15 -->
<g id="node15" class="node"><title>Node15</title>
<g id="a_node15"><a xlink:href="a00108.html" target="_top" xlink:title="gepetto/viewer/node\l&#45;visitor.h">
<polygon fill="white" stroke="black" points="1350.5,-246.5 1350.5,-276.5 1454.5,-276.5 1454.5,-246.5 1350.5,-246.5"/>
<text text-anchor="start" x="1358.5" y="-264.5" font-family="Helvetica,sans-Serif" font-size="10.00">gepetto/viewer/node</text>
<text text-anchor="middle" x="1402.5" y="-253.5" font-family="Helvetica,sans-Serif" font-size="10.00">&#45;visitor.h</text>
</a>
</g>
</g>
<!-- Node13&#45;&gt;Node15 -->
<g id="edge16" class="edge"><title>Node13&#45;&gt;Node15</title>
<path fill="none" stroke="midnightblue" d="M1335.02,-318.734C1345.86,-309.696 1363.17,-295.274 1377.54,-283.298"/>
<polygon fill="midnightblue" stroke="midnightblue" points="1380.15,-285.68 1385.59,-276.589 1375.67,-280.302 1380.15,-285.68"/>
</g>
<!-- Node16 -->
<g id="node16" class="node"><title>Node16</title>
<g id="a_node16"><a xlink:href="a00080.html" target="_top" xlink:title="gepetto/viewer/config\l&#45;osg.h">
<polygon fill="white" stroke="red" points="1456.5,-179.5 1456.5,-209.5 1566.5,-209.5 1566.5,-179.5 1456.5,-179.5"/>
<text text-anchor="start" x="1464.5" y="-197.5" font-family="Helvetica,sans-Serif" font-size="10.00">gepetto/viewer/config</text>
<text text-anchor="middle" x="1511.5" y="-186.5" font-family="Helvetica,sans-Serif" font-size="10.00">&#45;osg.h</text>
</a>
</g>
</g>
<!-- Node13&#45;&gt;Node16 -->
<g id="edge54" class="edge"><title>Node13&#45;&gt;Node16</title>
<path fill="none" stroke="midnightblue" d="M1355.34,-318.955C1390.93,-308.643 1446.72,-290.951 1463.5,-277 1482.04,-261.589 1495.1,-237.05 1502.87,-218.921"/>
<polygon fill="midnightblue" stroke="midnightblue" points="1506.13,-220.19 1506.64,-209.607 1499.64,-217.561 1506.13,-220.19"/>
</g>
<!-- Node43 -->
<g id="node43" class="node"><title>Node43</title>
<g id="a_node43"><a xlink:href="a00106.html" target="_top" xlink:title="gepetto/viewer/node\l&#45;property.h">
<polygon fill="white" stroke="black" points="1510.5,-246.5 1510.5,-276.5 1614.5,-276.5 1614.5,-246.5 1510.5,-246.5"/>
<text text-anchor="start" x="1518.5" y="-264.5" font-family="Helvetica,sans-Serif" font-size="10.00">gepetto/viewer/node</text>
<text text-anchor="middle" x="1562.5" y="-253.5" font-family="Helvetica,sans-Serif" font-size="10.00">&#45;property.h</text>
</a>
</g>
</g>
<!-- Node13&#45;&gt;Node43 -->
<g id="edge47" class="edge"><title>Node13&#45;&gt;Node43</title>
<path fill="none" stroke="midnightblue" d="M1356.1,-318.869C1393.05,-308.777 1455.06,-291.844 1501.48,-279.165"/>
<polygon fill="midnightblue" stroke="midnightblue" points="1502.41,-282.539 1511.14,-276.528 1500.57,-275.786 1502.41,-282.539"/>
</g>
<!-- Node15&#45;&gt;Node14 -->
<g id="edge17" class="edge"><title>Node15&#45;&gt;Node14</title>
<path fill="none" stroke="midnightblue" d="M1396.21,-246.396C1391.91,-236.763 1386.18,-223.914 1381.55,-213.537"/>
<polygon fill="midnightblue" stroke="midnightblue" points="1384.65,-211.901 1377.38,-204.195 1378.26,-214.753 1384.65,-211.901"/>
</g>
<!-- Node15&#45;&gt;Node16 -->
<g id="edge18" class="edge"><title>Node15&#45;&gt;Node16</title>
<path fill="none" stroke="midnightblue" d="M1426.15,-246.396C1441.58,-237.197 1461.92,-225.066 1478.88,-214.955"/>
<polygon fill="midnightblue" stroke="midnightblue" points="1481.1,-217.704 1487.89,-209.577 1477.51,-211.692 1481.1,-217.704"/>
</g>
<!-- Node16&#45;&gt;Node6 -->
<g id="edge46" class="edge"><title>Node16&#45;&gt;Node6</title>
<path fill="none" stroke="midnightblue" d="M1566.57,-180.57C1569.59,-180.004 1572.58,-179.476 1575.5,-179 1654.86,-166.093 1881.55,-202.612 1935.5,-143 1944.74,-132.784 1945.1,-121.884 1935.5,-112 1909.7,-85.4292 772.875,-71.1022 471.297,-67.7647"/>
<polygon fill="midnightblue" stroke="midnightblue" points="470.962,-64.2609 460.925,-67.6506 470.885,-71.2604 470.962,-64.2609"/>
</g>
<!-- Node16&#45;&gt;Node10 -->
<g id="edge45" class="edge"><title>Node16&#45;&gt;Node10</title>
<path fill="none" stroke="midnightblue" d="M1456.28,-181.03C1451.63,-180.245 1447,-179.551 1442.5,-179 1009.44,-125.945 894.03,-200.186 461.5,-143 454.622,-142.091 447.393,-140.775 440.383,-139.303"/>
<polygon fill="midnightblue" stroke="midnightblue" points="440.858,-135.822 430.335,-137.062 439.334,-142.655 440.858,-135.822"/>
</g>
<!-- Node17 -->
<g id="node17" class="node"><title>Node17</title>
<polygon fill="white" stroke="#bfbfbf" points="1982.5,-118 1982.5,-137 2050.5,-137 2050.5,-118 1982.5,-118"/>
<text text-anchor="middle" x="2016.5" y="-125" font-family="Helvetica,sans-Serif" font-size="10.00">QMetaType</text>
</g>
<!-- Node16&#45;&gt;Node17 -->
<g id="edge19" class="edge"><title>Node16&#45;&gt;Node17</title>
<path fill="none" stroke="midnightblue" d="M1566.57,-180.54C1569.58,-179.982 1572.57,-179.463 1575.5,-179 1748.74,-151.563 1796.34,-176.531 1968.5,-143 1972.73,-142.176 1977.12,-141.129 1981.45,-139.975"/>
<polygon fill="midnightblue" stroke="midnightblue" points="1982.68,-143.263 1991.33,-137.146 1980.75,-136.533 1982.68,-143.263"/>
</g>
<!-- Node18 -->
<g id="node18" class="node"><title>Node18</title>
<polygon fill="white" stroke="#bfbfbf" points="2069,-118 2069,-137 2132,-137 2132,-118 2069,-118"/>
<text text-anchor="middle" x="2100.5" y="-125" font-family="Helvetica,sans-Serif" font-size="10.00">osg/Shape</text>
</g>
<!-- Node16&#45;&gt;Node18 -->
<g id="edge20" class="edge"><title>Node16&#45;&gt;Node18</title>
<path fill="none" stroke="midnightblue" d="M1566.56,-180.48C1569.58,-179.937 1572.57,-179.438 1575.5,-179 1788.83,-147.081 1848.4,-187.351 2059.5,-143 2062.93,-142.28 2066.46,-141.344 2069.95,-140.295"/>
<polygon fill="midnightblue" stroke="midnightblue" points="2071.14,-143.589 2079.53,-137.121 2068.93,-136.944 2071.14,-143.589"/>
</g>
<!-- Node19 -->
<g id="node19" class="node"><title>Node19</title>
<polygon fill="white" stroke="#bfbfbf" points="2150.5,-118 2150.5,-137 2254.5,-137 2254.5,-118 2150.5,-118"/>
<text text-anchor="middle" x="2202.5" y="-125" font-family="Helvetica,sans-Serif" font-size="10.00">osg/ShapeDrawable</text>
</g>
<!-- Node16&#45;&gt;Node19 -->
<g id="edge21" class="edge"><title>Node16&#45;&gt;Node19</title>
<path fill="none" stroke="midnightblue" d="M1566.55,-180.442C1569.57,-179.909 1572.57,-179.423 1575.5,-179 1824.99,-143.038 1892.21,-180.281 2141.5,-143 2147.86,-142.049 2154.53,-140.765 2161.03,-139.352"/>
<polygon fill="midnightblue" stroke="midnightblue" points="2162.08,-142.704 2171.04,-137.056 2160.51,-135.881 2162.08,-142.704"/>
</g>
<!-- Node20 -->
<g id="node20" class="node"><title>Node20</title>
<polygon fill="white" stroke="#bfbfbf" points="2272.5,-118 2272.5,-137 2350.5,-137 2350.5,-118 2272.5,-118"/>
<text text-anchor="middle" x="2311.5" y="-125" font-family="Helvetica,sans-Serif" font-size="10.00">osg/Geometry</text>
</g>
<!-- Node16&#45;&gt;Node20 -->
<g id="edge22" class="edge"><title>Node16&#45;&gt;Node20</title>
<path fill="none" stroke="midnightblue" d="M1566.55,-180.402C1569.57,-179.879 1572.57,-179.406 1575.5,-179 1878.8,-137.019 1961.87,-195.655 2263.5,-143 2268.06,-142.204 2272.8,-141.113 2277.44,-139.883"/>
<polygon fill="midnightblue" stroke="midnightblue" points="2278.71,-143.16 2287.36,-137.032 2276.78,-136.433 2278.71,-143.16"/>
</g>
<!-- Node21 -->
<g id="node21" class="node"><title>Node21</title>
<polygon fill="white" stroke="#bfbfbf" points="2368.5,-118 2368.5,-137 2432.5,-137 2432.5,-118 2368.5,-118"/>
<text text-anchor="middle" x="2400.5" y="-125" font-family="Helvetica,sans-Serif" font-size="10.00">osg/Geode</text>
</g>
<!-- Node16&#45;&gt;Node21 -->
<g id="edge23" class="edge"><title>Node16&#45;&gt;Node21</title>
<path fill="none" stroke="midnightblue" d="M1566.55,-180.379C1569.57,-179.862 1572.56,-179.397 1575.5,-179 1921.17,-132.28 2017.16,-209.872 2359.5,-143 2363.02,-142.313 2366.64,-141.383 2370.2,-140.324"/>
<polygon fill="midnightblue" stroke="midnightblue" points="2371.58,-143.554 2379.97,-137.088 2369.38,-136.909 2371.58,-143.554"/>
</g>
<!-- Node22 -->
<g id="node22" class="node"><title>Node22</title>
<polygon fill="white" stroke="#bfbfbf" points="2450,-118 2450,-137 2599,-137 2599,-118 2450,-118"/>
<text text-anchor="middle" x="2524.5" y="-125" font-family="Helvetica,sans-Serif" font-size="10.00">osg/PositionAttitudeTransform</text>
</g>
<!-- Node16&#45;&gt;Node22 -->
<g id="edge24" class="edge"><title>Node16&#45;&gt;Node22</title>
<path fill="none" stroke="midnightblue" d="M1566.54,-180.364C1569.56,-179.851 1572.56,-179.39 1575.5,-179 1957.36,-128.232 2058.49,-184.236 2441.5,-143 2451.43,-141.931 2461.96,-140.402 2472.07,-138.733"/>
<polygon fill="midnightblue" stroke="midnightblue" points="2472.74,-142.17 2482,-137.03 2471.55,-135.271 2472.74,-142.17"/>
</g>
<!-- Node23 -->
<g id="node23" class="node"><title>Node23</title>
<polygon fill="white" stroke="#bfbfbf" points="2617.5,-118 2617.5,-137 2717.5,-137 2717.5,-118 2617.5,-118"/>
<text text-anchor="middle" x="2667.5" y="-125" font-family="Helvetica,sans-Serif" font-size="10.00">osg/AutoTransform</text>
</g>
<!-- Node16&#45;&gt;Node23 -->
<g id="edge25" class="edge"><title>Node16&#45;&gt;Node23</title>
<path fill="none" stroke="midnightblue" d="M1566.54,-180.34C1569.56,-179.833 1572.56,-179.381 1575.5,-179 2031.08,-119.986 2153.47,-206.154 2608.5,-143 2614.88,-142.115 2621.57,-140.828 2628.06,-139.381"/>
<polygon fill="midnightblue" stroke="midnightblue" points="2629.1,-142.73 2638.02,-137.009 2627.48,-135.92 2629.1,-142.73"/>
</g>
<!-- Node24 -->
<g id="node24" class="node"><title>Node24</title>
<polygon fill="white" stroke="#bfbfbf" points="2736,-118 2736,-137 2843,-137 2843,-118 2736,-118"/>
<text text-anchor="middle" x="2789.5" y="-125" font-family="Helvetica,sans-Serif" font-size="10.00">osg/MatrixTransform</text>
</g>
<!-- Node16&#45;&gt;Node24 -->
<g id="edge26" class="edge"><title>Node16&#45;&gt;Node24</title>
<path fill="none" stroke="midnightblue" d="M1566.54,-180.327C1569.56,-179.824 1572.56,-179.375 1575.5,-179 2083.18,-114.158 2218.93,-208.71 2726.5,-143 2733.45,-142.1 2740.77,-140.775 2747.85,-139.287"/>
<polygon fill="midnightblue" stroke="midnightblue" points="2749,-142.617 2757.99,-137.02 2747.47,-135.786 2749,-142.617"/>
</g>
<!-- Node25 -->
<g id="node25" class="node"><title>Node25</title>
<polygon fill="white" stroke="#bfbfbf" points="2861,-118 2861,-137 2920,-137 2920,-118 2861,-118"/>
<text text-anchor="middle" x="2890.5" y="-125" font-family="Helvetica,sans-Serif" font-size="10.00">osg/Node</text>
</g>
<!-- Node16&#45;&gt;Node25 -->
<g id="edge27" class="edge"><title>Node16&#45;&gt;Node25</title>
<path fill="none" stroke="midnightblue" d="M1566.54,-180.316C1569.56,-179.816 1572.56,-179.371 1575.5,-179 1857.16,-143.467 2574.06,-198.386 2852.5,-143 2855.75,-142.353 2859.1,-141.454 2862.38,-140.419"/>
<polygon fill="midnightblue" stroke="midnightblue" points="2863.68,-143.67 2871.93,-137.015 2861.33,-137.076 2863.68,-143.67"/>
</g>
<!-- Node26 -->
<g id="node26" class="node"><title>Node26</title>
<polygon fill="white" stroke="#bfbfbf" points="2938.5,-118 2938.5,-137 3000.5,-137 3000.5,-118 2938.5,-118"/>
<text text-anchor="middle" x="2969.5" y="-125" font-family="Helvetica,sans-Serif" font-size="10.00">osg/Group</text>
</g>
<!-- Node16&#45;&gt;Node26 -->
<g id="edge28" class="edge"><title>Node16&#45;&gt;Node26</title>
<path fill="none" stroke="midnightblue" d="M1566.54,-180.31C1569.56,-179.812 1572.56,-179.368 1575.5,-179 1874.16,-141.566 2633.76,-199.01 2929.5,-143 2933.02,-142.334 2936.64,-141.4 2940.19,-140.324"/>
<polygon fill="midnightblue" stroke="midnightblue" points="2941.57,-143.552 2949.91,-137.019 2939.32,-136.924 2941.57,-143.552"/>
</g>
<!-- Node27 -->
<g id="node27" class="node"><title>Node27</title>
<polygon fill="white" stroke="#bfbfbf" points="3019,-118 3019,-137 3084,-137 3084,-118 3019,-118"/>
<text text-anchor="middle" x="3051.5" y="-125" font-family="Helvetica,sans-Serif" font-size="10.00">osg/Switch</text>
</g>
<!-- Node16&#45;&gt;Node27 -->
<g id="edge29" class="edge"><title>Node16&#45;&gt;Node27</title>
<path fill="none" stroke="midnightblue" d="M1566.54,-180.305C1569.56,-179.808 1572.56,-179.366 1575.5,-179 1891.82,-139.59 2695.81,-199.681 3009.5,-143 3013.4,-142.295 3017.43,-141.288 3021.38,-140.13"/>
<polygon fill="midnightblue" stroke="midnightblue" points="3022.48,-143.451 3030.9,-137.022 3020.31,-136.797 3022.48,-143.451"/>
</g>
<!-- Node28 -->
<g id="node28" class="node"><title>Node28</title>
<polygon fill="white" stroke="#bfbfbf" points="470.5,-118 470.5,-137 552.5,-137 552.5,-118 470.5,-118"/>
<text text-anchor="middle" x="511.5" y="-125" font-family="Helvetica,sans-Serif" font-size="10.00">osg/ClearNode</text>
</g>
<!-- Node16&#45;&gt;Node28 -->
<g id="edge30" class="edge"><title>Node16&#45;&gt;Node28</title>
<path fill="none" stroke="midnightblue" d="M1456.27,-181.051C1451.63,-180.261 1446.99,-179.56 1442.5,-179 1053.63,-130.537 948.28,-206.033 561.5,-143 556.574,-142.197 551.447,-141.066 546.435,-139.786"/>
<polygon fill="midnightblue" stroke="midnightblue" points="546.98,-136.305 536.408,-137.005 545.109,-143.05 546.98,-136.305"/>
</g>
<!-- Node29 -->
<g id="node29" class="node"><title>Node29</title>
<polygon fill="white" stroke="#bfbfbf" points="571,-118 571,-137 650,-137 650,-118 571,-118"/>
<text text-anchor="middle" x="610.5" y="-125" font-family="Helvetica,sans-Serif" font-size="10.00">osg/LineWidth</text>
</g>
<!-- Node16&#45;&gt;Node29 -->
<g id="edge31" class="edge"><title>Node16&#45;&gt;Node29</title>
<path fill="none" stroke="midnightblue" d="M1456.27,-181.076C1451.63,-180.281 1446.99,-179.572 1442.5,-179 1096.92,-135.036 1003.03,-200.848 659.5,-143 654.721,-142.195 649.751,-141.074 644.888,-139.807"/>
<polygon fill="midnightblue" stroke="midnightblue" points="645.729,-136.408 635.154,-137.059 643.827,-143.145 645.729,-136.408"/>
</g>
<!-- Node30 -->
<g id="node30" class="node"><title>Node30</title>
<polygon fill="white" stroke="#bfbfbf" points="668.5,-118 668.5,-137 750.5,-137 750.5,-118 668.5,-118"/>
<text text-anchor="middle" x="709.5" y="-125" font-family="Helvetica,sans-Serif" font-size="10.00">osg/AlphaFunc</text>
</g>
<!-- Node16&#45;&gt;Node30 -->
<g id="edge32" class="edge"><title>Node16&#45;&gt;Node30</title>
<path fill="none" stroke="midnightblue" d="M1456.27,-181.109C1451.63,-180.307 1446.99,-179.587 1442.5,-179 1141.08,-139.626 1059.22,-193.666 759.5,-143 754.632,-142.177 749.565,-141.045 744.605,-139.774"/>
<polygon fill="midnightblue" stroke="midnightblue" points="745.246,-136.319 734.674,-137.022 743.376,-143.065 745.246,-136.319"/>
</g>
<!-- Node31 -->
<g id="node31" class="node"><title>Node31</title>
<polygon fill="white" stroke="#bfbfbf" points="768.5,-118 768.5,-137 850.5,-137 850.5,-118 768.5,-118"/>
<text text-anchor="middle" x="809.5" y="-125" font-family="Helvetica,sans-Serif" font-size="10.00">osg/BlendFunc</text>
</g>
<!-- Node16&#45;&gt;Node31 -->
<g id="edge33" class="edge"><title>Node16&#45;&gt;Node31</title>
<path fill="none" stroke="midnightblue" d="M1456.26,-181.154C1451.62,-180.341 1446.99,-179.607 1442.5,-179 1185.24,-144.214 1115.28,-187.423 859.5,-143 854.689,-142.164 849.681,-141.036 844.774,-139.775"/>
<polygon fill="midnightblue" stroke="midnightblue" points="845.51,-136.347 834.939,-137.052 843.643,-143.093 845.51,-136.347"/>
</g>
<!-- Node32 -->
<g id="node32" class="node"><title>Node32</title>
<polygon fill="white" stroke="#bfbfbf" points="868.5,-118 868.5,-137 942.5,-137 942.5,-118 868.5,-118"/>
<text text-anchor="middle" x="905.5" y="-125" font-family="Helvetica,sans-Serif" font-size="10.00">osg/StateSet</text>
</g>
<!-- Node16&#45;&gt;Node32 -->
<g id="edge34" class="edge"><title>Node16&#45;&gt;Node32</title>
<path fill="none" stroke="midnightblue" d="M1456.25,-181.21C1451.61,-180.385 1446.98,-179.633 1442.5,-179 1225.84,-148.432 1166.4,-184.168 951.5,-143 947.337,-142.202 943.021,-141.153 938.776,-139.983"/>
<polygon fill="midnightblue" stroke="midnightblue" points="939.688,-136.603 929.105,-137.095 937.685,-143.31 939.688,-136.603"/>
</g>
<!-- Node33 -->
<g id="node33" class="node"><title>Node33</title>
<polygon fill="white" stroke="#bfbfbf" points="960.5,-118 960.5,-137 1022.5,-137 1022.5,-118 960.5,-118"/>
<text text-anchor="middle" x="991.5" y="-125" font-family="Helvetica,sans-Serif" font-size="10.00">osg/Depth</text>
</g>
<!-- Node16&#45;&gt;Node33 -->
<g id="edge35" class="edge"><title>Node16&#45;&gt;Node33</title>
<path fill="none" stroke="midnightblue" d="M1456.24,-181.28C1451.61,-180.44 1446.98,-179.665 1442.5,-179 1261.12,-152.097 1210.54,-182.581 1031.5,-143 1028.25,-142.283 1024.91,-141.369 1021.61,-140.351"/>
<polygon fill="midnightblue" stroke="midnightblue" points="1022.55,-136.974 1011.96,-137.074 1020.3,-143.602 1022.55,-136.974"/>
</g>
<!-- Node34 -->
<g id="node34" class="node"><title>Node34</title>
<polygon fill="white" stroke="#bfbfbf" points="1041,-118 1041,-137 1100,-137 1100,-118 1041,-118"/>
<text text-anchor="middle" x="1070.5" y="-125" font-family="Helvetica,sans-Serif" font-size="10.00">osg/State</text>
</g>
<!-- Node16&#45;&gt;Node34 -->
<g id="edge36" class="edge"><title>Node16&#45;&gt;Node34</title>
<path fill="none" stroke="midnightblue" d="M1456.23,-181.38C1451.59,-180.518 1446.97,-179.71 1442.5,-179 1295.48,-155.664 1254.38,-177.202 1109.5,-143 1106.5,-142.293 1103.42,-141.419 1100.37,-140.454"/>
<polygon fill="midnightblue" stroke="midnightblue" points="1101.44,-137.121 1090.85,-137.151 1099.15,-143.735 1101.44,-137.121"/>
</g>
<!-- Node35 -->
<g id="node35" class="node"><title>Node35</title>
<polygon fill="white" stroke="#bfbfbf" points="1118.5,-118 1118.5,-137 1174.5,-137 1174.5,-118 1118.5,-118"/>
<text text-anchor="middle" x="1146.5" y="-125" font-family="Helvetica,sans-Serif" font-size="10.00">osg/Light</text>
</g>
<!-- Node16&#45;&gt;Node35 -->
<g id="edge37" class="edge"><title>Node16&#45;&gt;Node35</title>
<path fill="none" stroke="midnightblue" d="M1456.2,-181.529C1451.58,-180.634 1446.96,-179.778 1442.5,-179 1328.01,-159.038 1295.94,-172.406 1183.5,-143 1180.84,-142.304 1178.11,-141.473 1175.4,-140.566"/>
<polygon fill="midnightblue" stroke="midnightblue" points="1176.39,-137.204 1165.8,-137.053 1173.99,-143.778 1176.39,-137.204"/>
</g>
<!-- Node36 -->
<g id="node36" class="node"><title>Node36</title>
<polygon fill="white" stroke="#bfbfbf" points="1193,-118 1193,-137 1280,-137 1280,-118 1193,-118"/>
<text text-anchor="middle" x="1236.5" y="-125" font-family="Helvetica,sans-Serif" font-size="10.00">osg/LightSource</text>
</g>
<!-- Node16&#45;&gt;Node36 -->
<g id="edge38" class="edge"><title>Node16&#45;&gt;Node36</title>
<path fill="none" stroke="midnightblue" d="M1456.15,-181.607C1411.14,-171.769 1346.06,-157.162 1289.5,-143 1285.34,-141.957 1281,-140.833 1276.68,-139.688"/>
<polygon fill="midnightblue" stroke="midnightblue" points="1277.28,-136.225 1266.71,-137.008 1275.46,-142.985 1277.28,-136.225"/>
</g>
<!-- Node37 -->
<g id="node37" class="node"><title>Node37</title>
<polygon fill="white" stroke="#bfbfbf" points="1298.5,-118 1298.5,-137 1368.5,-137 1368.5,-118 1298.5,-118"/>
<text text-anchor="middle" x="1333.5" y="-125" font-family="Helvetica,sans-Serif" font-size="10.00">osg/Material</text>
</g>
<!-- Node16&#45;&gt;Node37 -->
<g id="edge39" class="edge"><title>Node16&#45;&gt;Node37</title>
<path fill="none" stroke="midnightblue" d="M1472.88,-179.396C1441.09,-167.789 1396.52,-151.515 1366.41,-140.519"/>
<polygon fill="midnightblue" stroke="midnightblue" points="1367.39,-137.15 1356.8,-137.007 1364.99,-143.725 1367.39,-137.15"/>
</g>
<!-- Node38 -->
<g id="node38" class="node"><title>Node38</title>
<polygon fill="white" stroke="#bfbfbf" points="1386.5,-118 1386.5,-137 1456.5,-137 1456.5,-118 1386.5,-118"/>
<text text-anchor="middle" x="1421.5" y="-125" font-family="Helvetica,sans-Serif" font-size="10.00">osg/Camera</text>
</g>
<!-- Node16&#45;&gt;Node38 -->
<g id="edge40" class="edge"><title>Node16&#45;&gt;Node38</title>
<path fill="none" stroke="midnightblue" d="M1491.97,-179.396C1477.02,-168.597 1456.47,-153.756 1441.42,-142.887"/>
<polygon fill="midnightblue" stroke="midnightblue" points="1443.43,-140.025 1433.28,-137.007 1439.34,-145.699 1443.43,-140.025"/>
</g>
<!-- Node39 -->
<g id="node39" class="node"><title>Node39</title>
<polygon fill="white" stroke="#bfbfbf" points="1474.5,-118 1474.5,-137 1548.5,-137 1548.5,-118 1474.5,-118"/>
<text text-anchor="middle" x="1511.5" y="-125" font-family="Helvetica,sans-Serif" font-size="10.00">osg/Viewport</text>
</g>
<!-- Node16&#45;&gt;Node39 -->
<g id="edge41" class="edge"><title>Node16&#45;&gt;Node39</title>
<path fill="none" stroke="midnightblue" d="M1511.5,-179.396C1511.5,-170.064 1511.5,-157.714 1511.5,-147.517"/>
<polygon fill="midnightblue" stroke="midnightblue" points="1515,-147.195 1511.5,-137.195 1508,-147.195 1515,-147.195"/>
</g>
<!-- Node40 -->
<g id="node40" class="node"><title>Node40</title>
<polygon fill="white" stroke="#bfbfbf" points="1567,-118 1567,-137 1662,-137 1662,-118 1567,-118"/>
<text text-anchor="middle" x="1614.5" y="-125" font-family="Helvetica,sans-Serif" font-size="10.00">osgViewer/Viewer</text>
</g>
<!-- Node16&#45;&gt;Node40 -->
<g id="edge42" class="edge"><title>Node16&#45;&gt;Node40</title>
<path fill="none" stroke="midnightblue" d="M1533.85,-179.396C1551.12,-168.496 1574.92,-153.479 1592.18,-142.584"/>
<polygon fill="midnightblue" stroke="midnightblue" points="1594.43,-145.304 1601.02,-137.007 1590.69,-139.384 1594.43,-145.304"/>
</g>
<!-- Node41 -->
<g id="node41" class="node"><title>Node41</title>
<polygon fill="white" stroke="#bfbfbf" points="1680.5,-118 1680.5,-137 1798.5,-137 1798.5,-118 1680.5,-118"/>
<text text-anchor="middle" x="1739.5" y="-125" font-family="Helvetica,sans-Serif" font-size="10.00">osgViewer/ViewerBase</text>
</g>
<!-- Node16&#45;&gt;Node41 -->
<g id="edge43" class="edge"><title>Node16&#45;&gt;Node41</title>
<path fill="none" stroke="midnightblue" d="M1560.69,-179.476C1602.27,-167.622 1661.07,-150.858 1699.73,-139.838"/>
<polygon fill="midnightblue" stroke="midnightblue" points="1700.93,-143.136 1709.58,-137.029 1699.01,-136.404 1700.93,-143.136"/>
</g>
<!-- Node42 -->
<g id="node42" class="node"><title>Node42</title>
<polygon fill="white" stroke="#bfbfbf" points="1817,-118 1817,-137 1926,-137 1926,-118 1817,-118"/>
<text text-anchor="middle" x="1871.5" y="-125" font-family="Helvetica,sans-Serif" font-size="10.00">osg/GraphicsContext</text>
</g>
<!-- Node16&#45;&gt;Node42 -->
<g id="edge44" class="edge"><title>Node16&#45;&gt;Node42</title>
<path fill="none" stroke="midnightblue" d="M1566.61,-180.762C1569.61,-180.146 1572.59,-179.555 1575.5,-179 1678,-159.46 1705,-162.54 1807.5,-143 1813.38,-141.879 1819.54,-140.608 1825.62,-139.295"/>
<polygon fill="midnightblue" stroke="midnightblue" points="1826.7,-142.641 1835.71,-137.065 1825.19,-135.805 1826.7,-142.641"/>
</g>
<!-- Node43&#45;&gt;Node10 -->
<g id="edge52" class="edge"><title>Node43&#45;&gt;Node10</title>
<path fill="none" stroke="midnightblue" d="M1523.66,-246.489C1500.73,-237.486 1471.59,-224.736 1447.5,-210 1428.91,-198.625 1429.89,-186.701 1409.5,-179 1310.89,-141.756 565.991,-156.883 461.5,-143 454.623,-142.086 447.394,-140.768 440.384,-139.295"/>
<polygon fill="midnightblue" stroke="midnightblue" points="440.859,-135.815 430.337,-137.054 439.335,-142.647 440.859,-135.815"/>
</g>
<!-- Node43&#45;&gt;Node14 -->
<g id="edge49" class="edge"><title>Node43&#45;&gt;Node14</title>
<path fill="none" stroke="midnightblue" d="M1520.99,-246.474C1491.3,-236.408 1450.4,-222.474 1414.5,-210 1412.13,-209.176 1409.68,-208.322 1407.22,-207.458"/>
<polygon fill="midnightblue" stroke="midnightblue" points="1408.36,-204.15 1397.77,-204.132 1406.04,-210.753 1408.36,-204.15"/>
</g>
<!-- Node43&#45;&gt;Node16 -->
<g id="edge53" class="edge"><title>Node43&#45;&gt;Node16</title>
<path fill="none" stroke="midnightblue" d="M1551.43,-246.396C1544.82,-237.963 1536.27,-227.067 1528.78,-217.522"/>
<polygon fill="midnightblue" stroke="midnightblue" points="1531.47,-215.283 1522.54,-209.577 1525.96,-219.604 1531.47,-215.283"/>
</g>
<!-- Node44 -->
<g id="node44" class="node"><title>Node44</title>
<polygon fill="white" stroke="#bfbfbf" points="1585,-185 1585,-204 1620,-204 1620,-185 1585,-185"/>
<text text-anchor="middle" x="1602.5" y="-192" font-family="Helvetica,sans-Serif" font-size="10.00">map</text>
</g>
<!-- Node43&#45;&gt;Node44 -->
<g id="edge48" class="edge"><title>Node43&#45;&gt;Node44</title>
<path fill="none" stroke="midnightblue" d="M1571.18,-246.396C1577.23,-236.562 1585.34,-223.378 1591.8,-212.892"/>
<polygon fill="midnightblue" stroke="midnightblue" points="1594.89,-214.545 1597.15,-204.195 1588.93,-210.877 1594.89,-214.545"/>
</g>
<!-- Node45 -->
<g id="node45" class="node"><title>Node45</title>
<polygon fill="white" stroke="#bfbfbf" points="1638.5,-185 1638.5,-204 1718.5,-204 1718.5,-185 1638.5,-185"/>
<text text-anchor="middle" x="1678.5" y="-192" font-family="Helvetica,sans-Serif" font-size="10.00">boost/bind.hpp</text>
</g>
<!-- Node43&#45;&gt;Node45 -->
<g id="edge50" class="edge"><title>Node43&#45;&gt;Node45</title>
<path fill="none" stroke="midnightblue" d="M1587.67,-246.396C1607.48,-235.294 1634.92,-219.921 1654.44,-208.983"/>
<polygon fill="midnightblue" stroke="midnightblue" points="1656.31,-211.949 1663.32,-204.007 1652.88,-205.842 1656.31,-211.949"/>
</g>
<!-- Node46 -->
<g id="node46" class="node"><title>Node46</title>
<polygon fill="white" stroke="#bfbfbf" points="1737,-185 1737,-204 1834,-204 1834,-185 1737,-185"/>
<text text-anchor="middle" x="1785.5" y="-192" font-family="Helvetica,sans-Serif" font-size="10.00">boost/function.hpp</text>
</g>
<!-- Node43&#45;&gt;Node46 -->
<g id="edge51" class="edge"><title>Node43&#45;&gt;Node46</title>
<path fill="none" stroke="midnightblue" d="M1610.61,-246.476C1651.28,-234.622 1708.79,-217.858 1746.6,-206.838"/>
<polygon fill="midnightblue" stroke="midnightblue" points="1747.62,-210.187 1756.24,-204.029 1745.66,-203.467 1747.62,-210.187"/>
</g>
<!-- Node50 -->
<g id="node50" class="node"><title>Node50</title>
<polygon fill="white" stroke="#bfbfbf" points="1722,-252 1722,-271 1789,-271 1789,-252 1722,-252"/>
<text text-anchor="middle" x="1755.5" y="-259" font-family="Helvetica,sans-Serif" font-size="10.00">QKeyEvent</text>
</g>
<!-- Node49&#45;&gt;Node50 -->
<g id="edge58" class="edge"><title>Node49&#45;&gt;Node50</title>
<path fill="none" stroke="midnightblue" d="M1755.5,-313.396C1755.5,-304.064 1755.5,-291.714 1755.5,-281.517"/>
<polygon fill="midnightblue" stroke="midnightblue" points="1759,-281.195 1755.5,-271.195 1752,-281.195 1759,-281.195"/>
</g>
</g>
</svg>
