<?xml version="1.0" encoding="UTF-8" standalone="no"?>
<!DOCTYPE svg PUBLIC "-//W3C//DTD SVG 1.1//EN"
 "http://www.w3.org/Graphics/SVG/1.1/DTD/svg11.dtd">
<!-- Generated by graphviz version 2.38.0 (20140413.2041)
 -->
<!-- Title: pythonwidget.hh Pages: 1 -->
<svg width="775pt" height="263pt"
 viewBox="0.00 0.00 775.00 263.00" xmlns="http://www.w3.org/2000/svg" xmlns:xlink="http://www.w3.org/1999/xlink">
<g id="graph0" class="graph" transform="scale(1 1) rotate(0) translate(4 259)">
<title>pythonwidget.hh</title>
<polygon fill="white" stroke="none" points="-4,4 -4,-259 771,-259 771,4 -4,4"/>
<!-- Node1 -->
<g id="node1" class="node"><title>Node1</title>
<polygon fill="#bfbfbf" stroke="black" points="442,-235.5 442,-254.5 530,-254.5 530,-235.5 442,-235.5"/>
<text text-anchor="middle" x="486" y="-242.5" font-family="Helvetica,sans-Serif" font-size="10.00">pythonwidget.hh</text>
</g>
<!-- Node2 -->
<g id="node2" class="node"><title>Node2</title>
<g id="a_node2"><a xlink:href="a00085.html" target="_top" xlink:title="gepetto/gui/fwd.hh">
<polygon fill="white" stroke="black" points="157.5,-179.5 157.5,-198.5 254.5,-198.5 254.5,-179.5 157.5,-179.5"/>
<text text-anchor="middle" x="206" y="-186.5" font-family="Helvetica,sans-Serif" font-size="10.00">gepetto/gui/fwd.hh</text>
</a>
</g>
</g>
<!-- Node1&#45;&gt;Node2 -->
<g id="edge1" class="edge"><title>Node1&#45;&gt;Node2</title>
<path fill="none" stroke="midnightblue" d="M441.942,-235.503C392.75,-226.016 313.108,-210.656 260.154,-200.444"/>
<polygon fill="midnightblue" stroke="midnightblue" points="260.745,-196.994 250.263,-198.536 259.419,-203.867 260.745,-196.994"/>
</g>
<!-- Node11 -->
<g id="node11" class="node"><title>Node11</title>
<polygon fill="white" stroke="#bfbfbf" points="360,-112.5 360,-142.5 454,-142.5 454,-112.5 360,-112.5"/>
<text text-anchor="start" x="368" y="-130.5" font-family="Helvetica,sans-Serif" font-size="10.00">gepetto/gui/config</text>
<text text-anchor="middle" x="407" y="-119.5" font-family="Helvetica,sans-Serif" font-size="10.00">&#45;dep.hh</text>
</g>
<!-- Node1&#45;&gt;Node11 -->
<g id="edge12" class="edge"><title>Node1&#45;&gt;Node11</title>
<path fill="none" stroke="midnightblue" d="M441.73,-239.94C414.731,-234.918 382.204,-223.754 365,-199 353.852,-182.961 366.691,-163.881 381.022,-149.617"/>
<polygon fill="midnightblue" stroke="midnightblue" points="383.589,-152.009 388.533,-142.639 378.825,-146.881 383.589,-152.009"/>
</g>
<!-- Node12 -->
<g id="node12" class="node"><title>Node12</title>
<polygon fill="white" stroke="#bfbfbf" points="373.5,-179.5 373.5,-198.5 428.5,-198.5 428.5,-179.5 373.5,-179.5"/>
<text text-anchor="middle" x="401" y="-186.5" font-family="Helvetica,sans-Serif" font-size="10.00">QVariant</text>
</g>
<!-- Node1&#45;&gt;Node12 -->
<g id="edge13" class="edge"><title>Node1&#45;&gt;Node12</title>
<path fill="none" stroke="midnightblue" d="M472.343,-235.324C459.084,-226.9 438.732,-213.971 423.154,-204.074"/>
<polygon fill="midnightblue" stroke="midnightblue" points="424.94,-201.063 414.623,-198.655 421.187,-206.971 424.94,-201.063"/>
</g>
<!-- Node13 -->
<g id="node13" class="node"><title>Node13</title>
<polygon fill="white" stroke="#bfbfbf" points="447,-179.5 447,-198.5 525,-198.5 525,-179.5 447,-179.5"/>
<text text-anchor="middle" x="486" y="-186.5" font-family="Helvetica,sans-Serif" font-size="10.00">QDockWidget</text>
</g>
<!-- Node1&#45;&gt;Node13 -->
<g id="edge14" class="edge"><title>Node1&#45;&gt;Node13</title>
<path fill="none" stroke="midnightblue" d="M486,-235.083C486,-228.006 486,-217.861 486,-208.986"/>
<polygon fill="midnightblue" stroke="midnightblue" points="489.5,-208.751 486,-198.751 482.5,-208.751 489.5,-208.751"/>
</g>
<!-- Node14 -->
<g id="node14" class="node"><title>Node14</title>
<polygon fill="white" stroke="#bfbfbf" points="543.5,-179.5 543.5,-198.5 596.5,-198.5 596.5,-179.5 543.5,-179.5"/>
<text text-anchor="middle" x="570" y="-186.5" font-family="Helvetica,sans-Serif" font-size="10.00">QLayout</text>
</g>
<!-- Node1&#45;&gt;Node14 -->
<g id="edge15" class="edge"><title>Node1&#45;&gt;Node14</title>
<path fill="none" stroke="midnightblue" d="M499.496,-235.324C512.6,-226.9 532.712,-213.971 548.107,-204.074"/>
<polygon fill="midnightblue" stroke="midnightblue" points="550.018,-207.006 556.537,-198.655 546.233,-201.118 550.018,-207.006"/>
</g>
<!-- Node15 -->
<g id="node15" class="node"><title>Node15</title>
<polygon fill="white" stroke="#bfbfbf" points="614.5,-179.5 614.5,-198.5 689.5,-198.5 689.5,-179.5 614.5,-179.5"/>
<text text-anchor="middle" x="652" y="-186.5" font-family="Helvetica,sans-Serif" font-size="10.00">QPushButton</text>
</g>
<!-- Node1&#45;&gt;Node15 -->
<g id="edge16" class="edge"><title>Node1&#45;&gt;Node15</title>
<path fill="none" stroke="midnightblue" d="M512.303,-235.444C540.351,-226.32 584.944,-211.813 616.184,-201.651"/>
<polygon fill="midnightblue" stroke="midnightblue" points="617.393,-204.938 625.82,-198.516 615.228,-198.282 617.393,-204.938"/>
</g>
<!-- Node16 -->
<g id="node16" class="node"><title>Node16</title>
<polygon fill="white" stroke="#bfbfbf" points="707,-179.5 707,-198.5 767,-198.5 767,-179.5 707,-179.5"/>
<text text-anchor="middle" x="737" y="-186.5" font-family="Helvetica,sans-Serif" font-size="10.00">QSettings</text>
</g>
<!-- Node1&#45;&gt;Node16 -->
<g id="edge17" class="edge"><title>Node1&#45;&gt;Node16</title>
<path fill="none" stroke="midnightblue" d="M528.097,-235.421C569.011,-227.014 633.158,-213.646 696.919,-199.434"/>
<polygon fill="midnightblue" stroke="midnightblue" points="697.738,-202.837 706.732,-197.239 696.21,-196.006 697.738,-202.837"/>
</g>
<!-- Node3 -->
<g id="node3" class="node"><title>Node3</title>
<polygon fill="white" stroke="#bfbfbf" points="0,-118 0,-137 44,-137 44,-118 0,-118"/>
<text text-anchor="middle" x="22" y="-125" font-family="Helvetica,sans-Serif" font-size="10.00">vector</text>
</g>
<!-- Node2&#45;&gt;Node3 -->
<g id="edge2" class="edge"><title>Node2&#45;&gt;Node3</title>
<path fill="none" stroke="midnightblue" d="M171.481,-179.449C140.146,-171.311 92.8788,-158.092 53,-143 51.576,-142.461 50.1265,-141.885 48.6709,-141.284"/>
<polygon fill="midnightblue" stroke="midnightblue" points="49.7427,-137.932 39.1805,-137.1 46.9188,-144.337 49.7427,-137.932"/>
</g>
<!-- Node4 -->
<g id="node4" class="node"><title>Node4</title>
<polygon fill="white" stroke="#bfbfbf" points="62.5,-118 62.5,-137 117.5,-137 117.5,-118 62.5,-118"/>
<text text-anchor="middle" x="90" y="-125" font-family="Helvetica,sans-Serif" font-size="10.00">QtGlobal</text>
</g>
<!-- Node2&#45;&gt;Node4 -->
<g id="edge3" class="edge"><title>Node2&#45;&gt;Node4</title>
<path fill="none" stroke="midnightblue" d="M189.38,-179.475C170.085,-169.578 138.041,-153.142 115.569,-141.615"/>
<polygon fill="midnightblue" stroke="midnightblue" points="117.084,-138.459 106.589,-137.009 113.89,-144.687 117.084,-138.459"/>
</g>
<!-- Node5 -->
<g id="node5" class="node"><title>Node5</title>
<polygon fill="white" stroke="#bfbfbf" points="136,-118 136,-137 178,-137 178,-118 136,-118"/>
<text text-anchor="middle" x="157" y="-125" font-family="Helvetica,sans-Serif" font-size="10.00">QtGui</text>
</g>
<!-- Node2&#45;&gt;Node5 -->
<g id="edge4" class="edge"><title>Node2&#45;&gt;Node5</title>
<path fill="none" stroke="midnightblue" d="M198.979,-179.475C191.557,-170.462 179.667,-156.025 170.433,-144.812"/>
<polygon fill="midnightblue" stroke="midnightblue" points="173.066,-142.503 164.007,-137.009 167.663,-146.953 173.066,-142.503"/>
</g>
<!-- Node6 -->
<g id="node6" class="node"><title>Node6</title>
<g id="a_node6"><a xlink:href="a00102.html" target="_top" xlink:title="gepetto/viewer/macros.h">
<polygon fill="white" stroke="black" points="185,-56.5 185,-75.5 309,-75.5 309,-56.5 185,-56.5"/>
<text text-anchor="middle" x="247" y="-63.5" font-family="Helvetica,sans-Serif" font-size="10.00">gepetto/viewer/macros.h</text>
</a>
</g>
</g>
<!-- Node2&#45;&gt;Node6 -->
<g id="edge5" class="edge"><title>Node2&#45;&gt;Node6</title>
<path fill="none" stroke="midnightblue" d="M207.54,-179.391C210.228,-165.116 216.329,-135.765 225,-112 228.391,-102.707 233.112,-92.7882 237.311,-84.6341"/>
<polygon fill="midnightblue" stroke="midnightblue" points="240.445,-86.1963 242.051,-75.7239 234.265,-82.9088 240.445,-86.1963"/>
</g>
<!-- Node10 -->
<g id="node10" class="node"><title>Node10</title>
<g id="a_node10"><a xlink:href="a00084.html" target="_top" xlink:title="gepetto/viewer/fwd.h">
<polygon fill="white" stroke="black" points="234.5,-118 234.5,-137 341.5,-137 341.5,-118 234.5,-118"/>
<text text-anchor="middle" x="288" y="-125" font-family="Helvetica,sans-Serif" font-size="10.00">gepetto/viewer/fwd.h</text>
</a>
</g>
</g>
<!-- Node2&#45;&gt;Node10 -->
<g id="edge9" class="edge"><title>Node2&#45;&gt;Node10</title>
<path fill="none" stroke="midnightblue" d="M217.749,-179.475C230.779,-170.02 252.036,-154.596 267.759,-143.187"/>
<polygon fill="midnightblue" stroke="midnightblue" points="270.235,-145.715 276.273,-137.009 266.124,-140.049 270.235,-145.715"/>
</g>
<!-- Node2&#45;&gt;Node11 -->
<g id="edge11" class="edge"><title>Node2&#45;&gt;Node11</title>
<path fill="none" stroke="midnightblue" d="M234.798,-179.475C264.692,-170.626 312.247,-156.549 349.816,-145.428"/>
<polygon fill="midnightblue" stroke="midnightblue" points="351.033,-148.718 359.628,-142.523 349.046,-142.005 351.033,-148.718"/>
</g>
<!-- Node7 -->
<g id="node7" class="node"><title>Node7</title>
<polygon fill="white" stroke="#bfbfbf" points="70,-0.5 70,-19.5 178,-19.5 178,-0.5 70,-0.5"/>
<text text-anchor="middle" x="124" y="-7.5" font-family="Helvetica,sans-Serif" font-size="10.00">boost/shared_ptr.hpp</text>
</g>
<!-- Node6&#45;&gt;Node7 -->
<g id="edge6" class="edge"><title>Node6&#45;&gt;Node7</title>
<path fill="none" stroke="midnightblue" d="M227.51,-56.4435C207.358,-47.5961 175.677,-33.6875 152.669,-23.5865"/>
<polygon fill="midnightblue" stroke="midnightblue" points="153.962,-20.3316 143.399,-19.5164 151.148,-26.7411 153.962,-20.3316"/>
</g>
<!-- Node8 -->
<g id="node8" class="node"><title>Node8</title>
<polygon fill="white" stroke="#bfbfbf" points="196,-0.5 196,-19.5 298,-19.5 298,-0.5 196,-0.5"/>
<text text-anchor="middle" x="247" y="-7.5" font-family="Helvetica,sans-Serif" font-size="10.00">boost/weak_ptr.hpp</text>
</g>
<!-- Node6&#45;&gt;Node8 -->
<g id="edge7" class="edge"><title>Node6&#45;&gt;Node8</title>
<path fill="none" stroke="midnightblue" d="M247,-56.083C247,-49.0059 247,-38.8611 247,-29.9865"/>
<polygon fill="midnightblue" stroke="midnightblue" points="250.5,-29.751 247,-19.7511 243.5,-29.7511 250.5,-29.751"/>
</g>
<!-- Node9 -->
<g id="node9" class="node"><title>Node9</title>
<polygon fill="white" stroke="#bfbfbf" points="316.5,-0.5 316.5,-19.5 379.5,-19.5 379.5,-0.5 316.5,-0.5"/>
<text text-anchor="middle" x="348" y="-7.5" font-family="Helvetica,sans-Serif" font-size="10.00">osg/ref_ptr</text>
</g>
<!-- Node6&#45;&gt;Node9 -->
<g id="edge8" class="edge"><title>Node6&#45;&gt;Node9</title>
<path fill="none" stroke="midnightblue" d="M263.227,-56.324C279.351,-47.7034 304.3,-34.3643 322.964,-24.3855"/>
<polygon fill="midnightblue" stroke="midnightblue" points="324.644,-27.456 331.813,-19.6545 321.344,-21.283 324.644,-27.456"/>
</g>
<!-- Node10&#45;&gt;Node6 -->
<g id="edge10" class="edge"><title>Node10&#45;&gt;Node6</title>
<path fill="none" stroke="midnightblue" d="M282.126,-117.975C276.037,-109.138 266.355,-95.0886 258.697,-83.975"/>
<polygon fill="midnightblue" stroke="midnightblue" points="261.42,-81.7575 252.863,-75.5091 255.656,-85.7294 261.42,-81.7575"/>
</g>
</g>
</svg>
