<?xml version="1.0" encoding="UTF-8" standalone="no"?>
<!DOCTYPE svg PUBLIC "-//W3C//DTD SVG 1.1//EN"
 "http://www.w3.org/Graphics/SVG/1.1/DTD/svg11.dtd">
<!-- Generated by graphviz version 2.38.0 (20140413.2041)
 -->
<!-- Title: fwd.hh Pages: 1 -->
<svg width="462pt" height="207pt"
 viewBox="0.00 0.00 462.00 207.00" xmlns="http://www.w3.org/2000/svg" xmlns:xlink="http://www.w3.org/1999/xlink">
<g id="graph0" class="graph" transform="scale(1 1) rotate(0) translate(4 203)">
<title>fwd.hh</title>
<polygon fill="white" stroke="none" points="-4,4 -4,-203 458,-203 458,4 -4,4"/>
<!-- Node1 -->
<g id="node1" class="node"><title>Node1</title>
<polygon fill="#bfbfbf" stroke="black" points="158,-179.5 158,-198.5 204,-198.5 204,-179.5 158,-179.5"/>
<text text-anchor="middle" x="181" y="-186.5" font-family="Helvetica,sans-Serif" font-size="10.00">fwd.hh</text>
</g>
<!-- Node2 -->
<g id="node2" class="node"><title>Node2</title>
<polygon fill="white" stroke="#bfbfbf" points="0,-118 0,-137 44,-137 44,-118 0,-118"/>
<text text-anchor="middle" x="22" y="-125" font-family="Helvetica,sans-Serif" font-size="10.00">vector</text>
</g>
<!-- Node1&#45;&gt;Node2 -->
<g id="edge1" class="edge"><title>Node1&#45;&gt;Node2</title>
<path fill="none" stroke="midnightblue" d="M157.616,-180.555C131.754,-172.143 88.9807,-157.697 53,-143 51.6249,-142.438 50.2227,-141.848 48.8119,-141.24"/>
<polygon fill="midnightblue" stroke="midnightblue" points="50.1266,-137.994 39.5705,-137.088 47.2579,-144.379 50.1266,-137.994"/>
</g>
<!-- Node3 -->
<g id="node3" class="node"><title>Node3</title>
<polygon fill="white" stroke="#bfbfbf" points="62.5,-118 62.5,-137 117.5,-137 117.5,-118 62.5,-118"/>
<text text-anchor="middle" x="90" y="-125" font-family="Helvetica,sans-Serif" font-size="10.00">QtGlobal</text>
</g>
<!-- Node1&#45;&gt;Node3 -->
<g id="edge2" class="edge"><title>Node1&#45;&gt;Node3</title>
<path fill="none" stroke="midnightblue" d="M167.962,-179.475C153.231,-169.843 129.027,-154.017 111.491,-142.552"/>
<polygon fill="midnightblue" stroke="midnightblue" points="113.299,-139.552 103.014,-137.009 109.468,-145.411 113.299,-139.552"/>
</g>
<!-- Node4 -->
<g id="node4" class="node"><title>Node4</title>
<polygon fill="white" stroke="#bfbfbf" points="136,-118 136,-137 178,-137 178,-118 136,-118"/>
<text text-anchor="middle" x="157" y="-125" font-family="Helvetica,sans-Serif" font-size="10.00">QtGui</text>
</g>
<!-- Node1&#45;&gt;Node4 -->
<g id="edge3" class="edge"><title>Node1&#45;&gt;Node4</title>
<path fill="none" stroke="midnightblue" d="M177.561,-179.475C174.104,-170.904 168.668,-157.427 164.254,-146.483"/>
<polygon fill="midnightblue" stroke="midnightblue" points="167.419,-144.974 160.432,-137.009 160.927,-147.592 167.419,-144.974"/>
</g>
<!-- Node5 -->
<g id="node5" class="node"><title>Node5</title>
<g id="a_node5"><a xlink:href="a00102.html" target="_top" xlink:title="gepetto/viewer/macros.h">
<polygon fill="white" stroke="black" points="185,-56.5 185,-75.5 309,-75.5 309,-56.5 185,-56.5"/>
<text text-anchor="middle" x="247" y="-63.5" font-family="Helvetica,sans-Serif" font-size="10.00">gepetto/viewer/macros.h</text>
</a>
</g>
</g>
<!-- Node1&#45;&gt;Node5 -->
<g id="edge4" class="edge"><title>Node1&#45;&gt;Node5</title>
<path fill="none" stroke="midnightblue" d="M185.747,-179.298C196.545,-159.502 223.119,-110.782 237.458,-84.4932"/>
<polygon fill="midnightblue" stroke="midnightblue" points="240.581,-86.0781 242.296,-75.6232 234.435,-82.7261 240.581,-86.0781"/>
</g>
<!-- Node9 -->
<g id="node9" class="node"><title>Node9</title>
<g id="a_node9"><a xlink:href="a00084.html" target="_top" xlink:title="gepetto/viewer/fwd.h">
<polygon fill="white" stroke="black" points="234.5,-118 234.5,-137 341.5,-137 341.5,-118 234.5,-118"/>
<text text-anchor="middle" x="288" y="-125" font-family="Helvetica,sans-Serif" font-size="10.00">gepetto/viewer/fwd.h</text>
</a>
</g>
</g>
<!-- Node1&#45;&gt;Node9 -->
<g id="edge8" class="edge"><title>Node1&#45;&gt;Node9</title>
<path fill="none" stroke="midnightblue" d="M196.33,-179.475C213.97,-169.666 243.16,-153.435 263.858,-141.925"/>
<polygon fill="midnightblue" stroke="midnightblue" points="265.659,-144.928 272.698,-137.009 262.257,-138.81 265.659,-144.928"/>
</g>
<!-- Node10 -->
<g id="node10" class="node"><title>Node10</title>
<polygon fill="white" stroke="#bfbfbf" points="360,-112.5 360,-142.5 454,-142.5 454,-112.5 360,-112.5"/>
<text text-anchor="start" x="368" y="-130.5" font-family="Helvetica,sans-Serif" font-size="10.00">gepetto/gui/config</text>
<text text-anchor="middle" x="407" y="-119.5" font-family="Helvetica,sans-Serif" font-size="10.00">&#45;dep.hh</text>
</g>
<!-- Node1&#45;&gt;Node10 -->
<g id="edge10" class="edge"><title>Node1&#45;&gt;Node10</title>
<path fill="none" stroke="midnightblue" d="M204.335,-181.857C238.448,-172.875 302.991,-155.883 350.101,-143.48"/>
<polygon fill="midnightblue" stroke="midnightblue" points="351.093,-146.838 359.872,-140.908 349.311,-140.069 351.093,-146.838"/>
</g>
<!-- Node6 -->
<g id="node6" class="node"><title>Node6</title>
<polygon fill="white" stroke="#bfbfbf" points="70,-0.5 70,-19.5 178,-19.5 178,-0.5 70,-0.5"/>
<text text-anchor="middle" x="124" y="-7.5" font-family="Helvetica,sans-Serif" font-size="10.00">boost/shared_ptr.hpp</text>
</g>
<!-- Node5&#45;&gt;Node6 -->
<g id="edge5" class="edge"><title>Node5&#45;&gt;Node6</title>
<path fill="none" stroke="midnightblue" d="M227.51,-56.4435C207.358,-47.5961 175.677,-33.6875 152.669,-23.5865"/>
<polygon fill="midnightblue" stroke="midnightblue" points="153.962,-20.3316 143.399,-19.5164 151.148,-26.7411 153.962,-20.3316"/>
</g>
<!-- Node7 -->
<g id="node7" class="node"><title>Node7</title>
<polygon fill="white" stroke="#bfbfbf" points="196,-0.5 196,-19.5 298,-19.5 298,-0.5 196,-0.5"/>
<text text-anchor="middle" x="247" y="-7.5" font-family="Helvetica,sans-Serif" font-size="10.00">boost/weak_ptr.hpp</text>
</g>
<!-- Node5&#45;&gt;Node7 -->
<g id="edge6" class="edge"><title>Node5&#45;&gt;Node7</title>
<path fill="none" stroke="midnightblue" d="M247,-56.083C247,-49.0059 247,-38.8611 247,-29.9865"/>
<polygon fill="midnightblue" stroke="midnightblue" points="250.5,-29.751 247,-19.7511 243.5,-29.7511 250.5,-29.751"/>
</g>
<!-- Node8 -->
<g id="node8" class="node"><title>Node8</title>
<polygon fill="white" stroke="#bfbfbf" points="316.5,-0.5 316.5,-19.5 379.5,-19.5 379.5,-0.5 316.5,-0.5"/>
<text text-anchor="middle" x="348" y="-7.5" font-family="Helvetica,sans-Serif" font-size="10.00">osg/ref_ptr</text>
</g>
<!-- Node5&#45;&gt;Node8 -->
<g id="edge7" class="edge"><title>Node5&#45;&gt;Node8</title>
<path fill="none" stroke="midnightblue" d="M263.227,-56.324C279.351,-47.7034 304.3,-34.3643 322.964,-24.3855"/>
<polygon fill="midnightblue" stroke="midnightblue" points="324.644,-27.456 331.813,-19.6545 321.344,-21.283 324.644,-27.456"/>
</g>
<!-- Node9&#45;&gt;Node5 -->
<g id="edge9" class="edge"><title>Node9&#45;&gt;Node5</title>
<path fill="none" stroke="midnightblue" d="M282.126,-117.975C276.037,-109.138 266.355,-95.0886 258.697,-83.975"/>
<polygon fill="midnightblue" stroke="midnightblue" points="261.42,-81.7575 252.863,-75.5091 255.656,-85.7294 261.42,-81.7575"/>
</g>
</g>
</svg>
