<?xml version="1.0" encoding="UTF-8" standalone="no"?>
<!DOCTYPE svg PUBLIC "-//W3C//DTD SVG 1.1//EN"
 "http://www.w3.org/Graphics/SVG/1.1/DTD/svg11.dtd">
<!-- Generated by graphviz version 2.38.0 (20140413.2041)
 -->
<!-- Title: node&#45;drawable.h Pages: 1 -->
<svg width="882pt" height="140pt"
 viewBox="0.00 0.00 881.50 140.00" xmlns="http://www.w3.org/2000/svg" xmlns:xlink="http://www.w3.org/1999/xlink">
<g id="graph0" class="graph" transform="scale(1 1) rotate(0) translate(4 136)">
<title>node&#45;drawable.h</title>
<polygon fill="white" stroke="none" points="-4,4 -4,-136 877.5,-136 877.5,4 -4,4"/>
<!-- Node1 -->
<g id="node1" class="node"><title>Node1</title>
<polygon fill="#bfbfbf" stroke="black" points="387,-112.5 387,-131.5 475,-131.5 475,-112.5 387,-112.5"/>
<text text-anchor="middle" x="431" y="-119.5" font-family="Helvetica,sans-Serif" font-size="10.00">node&#45;drawable.h</text>
</g>
<!-- Node2 -->
<g id="node2" class="node"><title>Node2</title>
<g id="a_node2"><a xlink:href="a00088.html" target="_top" xlink:title="leaf&#45;node&#45;arrow.h">
<polygon fill="white" stroke="black" points="0,-56.5 0,-75.5 92,-75.5 92,-56.5 0,-56.5"/>
<text text-anchor="middle" x="46" y="-63.5" font-family="Helvetica,sans-Serif" font-size="10.00">leaf&#45;node&#45;arrow.h</text>
</a>
</g>
</g>
<!-- Node1&#45;&gt;Node2 -->
<g id="edge1" class="edge"><title>Node1&#45;&gt;Node2</title>
<path fill="none" stroke="midnightblue" d="M376.83,-114.064C311.399,-105.581 198.023,-90.5508 101,-76 98.1294,-75.5695 95.1763,-75.1163 92.1995,-74.6516"/>
<polygon fill="midnightblue" stroke="midnightblue" points="376.543,-117.556 386.91,-115.368 377.442,-110.613 376.543,-117.556"/>
</g>
<!-- Node3 -->
<g id="node3" class="node"><title>Node3</title>
<g id="a_node3"><a xlink:href="a00089.html" target="_top" xlink:title="leaf&#45;node&#45;box.h">
<polygon fill="white" stroke="black" points="110.5,-56.5 110.5,-75.5 193.5,-75.5 193.5,-56.5 110.5,-56.5"/>
<text text-anchor="middle" x="152" y="-63.5" font-family="Helvetica,sans-Serif" font-size="10.00">leaf&#45;node&#45;box.h</text>
</a>
</g>
</g>
<!-- Node1&#45;&gt;Node3 -->
<g id="edge2" class="edge"><title>Node1&#45;&gt;Node3</title>
<path fill="none" stroke="midnightblue" d="M376.792,-110.508C323.237,-100.143 242.464,-84.5091 193.723,-75.0755"/>
<polygon fill="midnightblue" stroke="midnightblue" points="376.309,-113.979 386.792,-112.444 377.639,-107.107 376.309,-113.979"/>
</g>
<!-- Node4 -->
<g id="node4" class="node"><title>Node4</title>
<g id="a_node4"><a xlink:href="a00090.html" target="_top" xlink:title="leaf&#45;node&#45;capsule.h">
<polygon fill="white" stroke="black" points="211.5,-56.5 211.5,-75.5 312.5,-75.5 312.5,-56.5 211.5,-56.5"/>
<text text-anchor="middle" x="262" y="-63.5" font-family="Helvetica,sans-Serif" font-size="10.00">leaf&#45;node&#45;capsule.h</text>
</a>
</g>
</g>
<!-- Node1&#45;&gt;Node4 -->
<g id="edge3" class="edge"><title>Node1&#45;&gt;Node4</title>
<path fill="none" stroke="midnightblue" d="M394.397,-109.304C362.553,-99.1294 317.158,-84.6246 288.653,-75.5164"/>
<polygon fill="midnightblue" stroke="midnightblue" points="393.631,-112.734 404.221,-112.444 395.761,-106.066 393.631,-112.734"/>
</g>
<!-- Node6 -->
<g id="node6" class="node"><title>Node6</title>
<g id="a_node6"><a xlink:href="a00092.html" target="_top" xlink:title="leaf&#45;node&#45;cone.h">
<polygon fill="white" stroke="black" points="330.5,-56.5 330.5,-75.5 419.5,-75.5 419.5,-56.5 330.5,-56.5"/>
<text text-anchor="middle" x="375" y="-63.5" font-family="Helvetica,sans-Serif" font-size="10.00">leaf&#45;node&#45;cone.h</text>
</a>
</g>
</g>
<!-- Node1&#45;&gt;Node6 -->
<g id="edge5" class="edge"><title>Node1&#45;&gt;Node6</title>
<path fill="none" stroke="midnightblue" d="M414.67,-105.253C404.735,-95.6731 392.412,-83.7906 384.161,-75.8339"/>
<polygon fill="midnightblue" stroke="midnightblue" points="412.375,-107.902 422.003,-112.324 417.234,-102.863 412.375,-107.902"/>
</g>
<!-- Node7 -->
<g id="node7" class="node"><title>Node7</title>
<g id="a_node7"><a xlink:href="a00093.html" target="_top" xlink:title="leaf&#45;node&#45;cylinder.h">
<polygon fill="white" stroke="black" points="437.5,-56.5 437.5,-75.5 538.5,-75.5 538.5,-56.5 437.5,-56.5"/>
<text text-anchor="middle" x="488" y="-63.5" font-family="Helvetica,sans-Serif" font-size="10.00">leaf&#45;node&#45;cylinder.h</text>
</a>
</g>
</g>
<!-- Node1&#45;&gt;Node7 -->
<g id="edge6" class="edge"><title>Node1&#45;&gt;Node7</title>
<path fill="none" stroke="midnightblue" d="M447.621,-105.253C457.734,-95.6731 470.277,-83.7906 478.675,-75.8339"/>
<polygon fill="midnightblue" stroke="midnightblue" points="445.01,-102.906 440.158,-112.324 449.825,-107.987 445.01,-102.906"/>
</g>
<!-- Node8 -->
<g id="node8" class="node"><title>Node8</title>
<g id="a_node8"><a xlink:href="a00099.html" target="_top" xlink:title="leaf&#45;node&#45;sphere.h">
<polygon fill="white" stroke="black" points="556.5,-56.5 556.5,-75.5 653.5,-75.5 653.5,-56.5 556.5,-56.5"/>
<text text-anchor="middle" x="605" y="-63.5" font-family="Helvetica,sans-Serif" font-size="10.00">leaf&#45;node&#45;sphere.h</text>
</a>
</g>
</g>
<!-- Node1&#45;&gt;Node8 -->
<g id="edge7" class="edge"><title>Node1&#45;&gt;Node8</title>
<path fill="none" stroke="midnightblue" d="M468.261,-109.436C501.067,-99.2551 548.083,-84.664 577.558,-75.5164"/>
<polygon fill="midnightblue" stroke="midnightblue" points="467.084,-106.137 458.571,-112.444 469.159,-112.822 467.084,-106.137"/>
</g>
<!-- Node10 -->
<g id="node10" class="node"><title>Node10</title>
<g id="a_node10"><a xlink:href="a00097.html" target="_top" xlink:title="leaf&#45;node&#45;line.h">
<polygon fill="white" stroke="black" points="671.5,-56.5 671.5,-75.5 754.5,-75.5 754.5,-56.5 671.5,-56.5"/>
<text text-anchor="middle" x="713" y="-63.5" font-family="Helvetica,sans-Serif" font-size="10.00">leaf&#45;node&#45;line.h</text>
</a>
</g>
</g>
<!-- Node1&#45;&gt;Node10 -->
<g id="edge9" class="edge"><title>Node1&#45;&gt;Node10</title>
<path fill="none" stroke="midnightblue" d="M485.18,-110.625C539.4,-100.242 621.664,-84.4899 671.086,-75.026"/>
<polygon fill="midnightblue" stroke="midnightblue" points="484.226,-107.244 475.062,-112.562 485.542,-114.119 484.226,-107.244"/>
</g>
<!-- Node12 -->
<g id="node12" class="node"><title>Node12</title>
<g id="a_node12"><a xlink:href="a00100.html" target="_top" xlink:title="leaf&#45;node&#45;xyzaxis.h">
<polygon fill="white" stroke="black" points="772.5,-56.5 772.5,-75.5 873.5,-75.5 873.5,-56.5 772.5,-56.5"/>
<text text-anchor="middle" x="823" y="-63.5" font-family="Helvetica,sans-Serif" font-size="10.00">leaf&#45;node&#45;xyzaxis.h</text>
</a>
</g>
</g>
<!-- Node1&#45;&gt;Node12 -->
<g id="edge11" class="edge"><title>Node1&#45;&gt;Node12</title>
<path fill="none" stroke="midnightblue" d="M485.362,-113.943C551.321,-105.314 665.887,-90.1113 764,-76 766.769,-75.6017 769.61,-75.1873 772.478,-74.7647"/>
<polygon fill="midnightblue" stroke="midnightblue" points="484.665,-110.504 475.203,-115.27 485.572,-117.445 484.665,-110.504"/>
</g>
<!-- Node5 -->
<g id="node5" class="node"><title>Node5</title>
<g id="a_node5"><a xlink:href="a00107.html" target="_top" xlink:title="node&#45;rod.h">
<polygon fill="white" stroke="black" points="231,-0.5 231,-19.5 293,-19.5 293,-0.5 231,-0.5"/>
<text text-anchor="middle" x="262" y="-7.5" font-family="Helvetica,sans-Serif" font-size="10.00">node&#45;rod.h</text>
</a>
</g>
</g>
<!-- Node4&#45;&gt;Node5 -->
<g id="edge4" class="edge"><title>Node4&#45;&gt;Node5</title>
<path fill="none" stroke="midnightblue" d="M262,-45.8045C262,-36.9102 262,-26.7798 262,-19.7511"/>
<polygon fill="midnightblue" stroke="midnightblue" points="258.5,-46.083 262,-56.083 265.5,-46.083 258.5,-46.083"/>
</g>
<!-- Node9 -->
<g id="node9" class="node"><title>Node9</title>
<g id="a_node9"><a xlink:href="a00096.html" target="_top" xlink:title="leaf&#45;node&#45;light.h">
<polygon fill="white" stroke="black" points="562,-0.5 562,-19.5 648,-19.5 648,-0.5 562,-0.5"/>
<text text-anchor="middle" x="605" y="-7.5" font-family="Helvetica,sans-Serif" font-size="10.00">leaf&#45;node&#45;light.h</text>
</a>
</g>
</g>
<!-- Node8&#45;&gt;Node9 -->
<g id="edge8" class="edge"><title>Node8&#45;&gt;Node9</title>
<path fill="none" stroke="midnightblue" d="M605,-45.8045C605,-36.9102 605,-26.7798 605,-19.7511"/>
<polygon fill="midnightblue" stroke="midnightblue" points="601.5,-46.083 605,-56.083 608.5,-46.083 601.5,-46.083"/>
</g>
<!-- Node11 -->
<g id="node11" class="node"><title>Node11</title>
<g id="a_node11"><a xlink:href="a00117.html" target="_top" xlink:title="roadmap&#45;viewer.h">
<polygon fill="white" stroke="black" points="721,-0.5 721,-19.5 815,-19.5 815,-0.5 721,-0.5"/>
<text text-anchor="middle" x="768" y="-7.5" font-family="Helvetica,sans-Serif" font-size="10.00">roadmap&#45;viewer.h</text>
</a>
</g>
</g>
<!-- Node10&#45;&gt;Node11 -->
<g id="edge10" class="edge"><title>Node10&#45;&gt;Node11</title>
<path fill="none" stroke="midnightblue" d="M729.294,-49.0024C739.041,-39.4329 751.053,-27.6389 759.087,-19.7511"/>
<polygon fill="midnightblue" stroke="midnightblue" points="726.766,-46.5796 722.082,-56.083 731.67,-51.5746 726.766,-46.5796"/>
</g>
<!-- Node12&#45;&gt;Node11 -->
<g id="edge12" class="edge"><title>Node12&#45;&gt;Node11</title>
<path fill="none" stroke="midnightblue" d="M806.706,-49.0024C796.959,-39.4329 784.947,-27.6389 776.913,-19.7511"/>
<polygon fill="midnightblue" stroke="midnightblue" points="804.33,-51.5746 813.918,-56.083 809.234,-46.5796 804.33,-51.5746"/>
</g>
</g>
</svg>
