<?xml version="1.0" encoding="UTF-8" standalone="no"?>
<!DOCTYPE svg PUBLIC "-//W3C//DTD SVG 1.1//EN"
 "http://www.w3.org/Graphics/SVG/1.1/DTD/svg11.dtd">
<!-- Generated by graphviz version 2.38.0 (20140413.2041)
 -->
<!-- Title: config&#45;osg.h Pages: 1 -->
<svg width="2942pt" height="196pt"
 viewBox="0.00 0.00 2941.50 196.00" xmlns="http://www.w3.org/2000/svg" xmlns:xlink="http://www.w3.org/1999/xlink">
<g id="graph0" class="graph" transform="scale(1 1) rotate(0) translate(4 192)">
<title>config&#45;osg.h</title>
<polygon fill="white" stroke="none" points="-4,4 -4,-192 2937.5,-192 2937.5,4 -4,4"/>
<!-- Node1 -->
<g id="node1" class="node"><title>Node1</title>
<polygon fill="#bfbfbf" stroke="black" points="1424,-168.5 1424,-187.5 1494,-187.5 1494,-168.5 1424,-168.5"/>
<text text-anchor="middle" x="1459" y="-175.5" font-family="Helvetica,sans-Serif" font-size="10.00">config&#45;osg.h</text>
</g>
<!-- Node2 -->
<g id="node2" class="node"><title>Node2</title>
<polygon fill="white" stroke="#bfbfbf" points="0,-112.5 0,-131.5 68,-131.5 68,-112.5 0,-112.5"/>
<text text-anchor="middle" x="34" y="-119.5" font-family="Helvetica,sans-Serif" font-size="10.00">QMetaType</text>
</g>
<!-- Node1&#45;&gt;Node2 -->
<g id="edge1" class="edge"><title>Node1&#45;&gt;Node2</title>
<path fill="none" stroke="midnightblue" d="M1423.73,-176.66C1235.75,-174.723 350.04,-164.021 78,-132 77.8984,-131.988 77.7966,-131.976 77.6948,-131.964"/>
<polygon fill="midnightblue" stroke="midnightblue" points="78.4185,-128.532 68.0176,-130.55 77.4067,-135.459 78.4185,-128.532"/>
</g>
<!-- Node3 -->
<g id="node3" class="node"><title>Node3</title>
<polygon fill="white" stroke="#bfbfbf" points="86.5,-112.5 86.5,-131.5 149.5,-131.5 149.5,-112.5 86.5,-112.5"/>
<text text-anchor="middle" x="118" y="-119.5" font-family="Helvetica,sans-Serif" font-size="10.00">osg/Shape</text>
</g>
<!-- Node1&#45;&gt;Node3 -->
<g id="edge2" class="edge"><title>Node1&#45;&gt;Node3</title>
<path fill="none" stroke="midnightblue" d="M1423.73,-176.645C1244.71,-174.713 434.799,-164.381 160.017,-131.818"/>
<polygon fill="midnightblue" stroke="midnightblue" points="160.037,-128.294 149.685,-130.551 159.185,-135.242 160.037,-128.294"/>
</g>
<!-- Node4 -->
<g id="node4" class="node"><title>Node4</title>
<polygon fill="white" stroke="#bfbfbf" points="168,-112.5 168,-131.5 272,-131.5 272,-112.5 168,-112.5"/>
<text text-anchor="middle" x="220" y="-119.5" font-family="Helvetica,sans-Serif" font-size="10.00">osg/ShapeDrawable</text>
</g>
<!-- Node1&#45;&gt;Node4 -->
<g id="edge3" class="edge"><title>Node1&#45;&gt;Node4</title>
<path fill="none" stroke="midnightblue" d="M1423.73,-177.045C1281.86,-176.933 738.903,-173.704 282.291,-132.01"/>
<polygon fill="midnightblue" stroke="midnightblue" points="282.477,-128.513 272.199,-131.081 281.836,-135.483 282.477,-128.513"/>
</g>
<!-- Node5 -->
<g id="node5" class="node"><title>Node5</title>
<polygon fill="white" stroke="#bfbfbf" points="290,-112.5 290,-131.5 368,-131.5 368,-112.5 290,-112.5"/>
<text text-anchor="middle" x="329" y="-119.5" font-family="Helvetica,sans-Serif" font-size="10.00">osg/Geometry</text>
</g>
<!-- Node1&#45;&gt;Node5 -->
<g id="edge4" class="edge"><title>Node1&#45;&gt;Node5</title>
<path fill="none" stroke="midnightblue" d="M1423.83,-177.369C1289.33,-178.398 794.621,-178.664 378.35,-131.977"/>
<polygon fill="midnightblue" stroke="midnightblue" points="378.554,-128.477 368.223,-130.83 377.766,-135.433 378.554,-128.477"/>
</g>
<!-- Node6 -->
<g id="node6" class="node"><title>Node6</title>
<polygon fill="white" stroke="#bfbfbf" points="386,-112.5 386,-131.5 450,-131.5 450,-112.5 386,-112.5"/>
<text text-anchor="middle" x="418" y="-119.5" font-family="Helvetica,sans-Serif" font-size="10.00">osg/Geode</text>
</g>
<!-- Node1&#45;&gt;Node6 -->
<g id="edge5" class="edge"><title>Node1&#45;&gt;Node6</title>
<path fill="none" stroke="midnightblue" d="M1423.79,-176.225C1271.9,-172.757 671.241,-157.758 460.189,-131.879"/>
<polygon fill="midnightblue" stroke="midnightblue" points="460.499,-128.391 450.137,-130.599 459.615,-135.335 460.499,-128.391"/>
</g>
<!-- Node7 -->
<g id="node7" class="node"><title>Node7</title>
<polygon fill="white" stroke="#bfbfbf" points="467.5,-112.5 467.5,-131.5 616.5,-131.5 616.5,-112.5 467.5,-112.5"/>
<text text-anchor="middle" x="542" y="-119.5" font-family="Helvetica,sans-Serif" font-size="10.00">osg/PositionAttitudeTransform</text>
</g>
<!-- Node1&#45;&gt;Node7 -->
<g id="edge6" class="edge"><title>Node1&#45;&gt;Node7</title>
<path fill="none" stroke="midnightblue" d="M1423.64,-175.758C1309.82,-171.619 942.579,-157.163 626.901,-132.026"/>
<polygon fill="midnightblue" stroke="midnightblue" points="626.883,-128.513 616.636,-131.203 626.324,-135.491 626.883,-128.513"/>
</g>
<!-- Node8 -->
<g id="node8" class="node"><title>Node8</title>
<polygon fill="white" stroke="#bfbfbf" points="635,-112.5 635,-131.5 735,-131.5 735,-112.5 635,-112.5"/>
<text text-anchor="middle" x="685" y="-119.5" font-family="Helvetica,sans-Serif" font-size="10.00">osg/AutoTransform</text>
</g>
<!-- Node1&#45;&gt;Node8 -->
<g id="edge7" class="edge"><title>Node1&#45;&gt;Node8</title>
<path fill="none" stroke="midnightblue" d="M1423.99,-175.86C1320.17,-172.251 1004.98,-159.64 745,-132 744.899,-131.989 744.797,-131.978 744.695,-131.967"/>
<polygon fill="midnightblue" stroke="midnightblue" points="745.389,-128.525 735.049,-130.836 744.573,-135.477 745.389,-128.525"/>
</g>
<!-- Node9 -->
<g id="node9" class="node"><title>Node9</title>
<polygon fill="white" stroke="#bfbfbf" points="753.5,-112.5 753.5,-131.5 860.5,-131.5 860.5,-112.5 753.5,-112.5"/>
<text text-anchor="middle" x="807" y="-119.5" font-family="Helvetica,sans-Serif" font-size="10.00">osg/MatrixTransform</text>
</g>
<!-- Node1&#45;&gt;Node9 -->
<g id="edge8" class="edge"><title>Node1&#45;&gt;Node9</title>
<path fill="none" stroke="midnightblue" d="M1423.74,-175.116C1333.58,-170.125 1087.11,-155.397 870.549,-131.985"/>
<polygon fill="midnightblue" stroke="midnightblue" points="870.906,-128.503 860.586,-130.899 870.148,-135.462 870.906,-128.503"/>
</g>
<!-- Node10 -->
<g id="node10" class="node"><title>Node10</title>
<polygon fill="white" stroke="#bfbfbf" points="878.5,-112.5 878.5,-131.5 937.5,-131.5 937.5,-112.5 878.5,-112.5"/>
<text text-anchor="middle" x="908" y="-119.5" font-family="Helvetica,sans-Serif" font-size="10.00">osg/Node</text>
</g>
<!-- Node1&#45;&gt;Node10 -->
<g id="edge9" class="edge"><title>Node1&#45;&gt;Node10</title>
<path fill="none" stroke="midnightblue" d="M1423.72,-175.592C1341.82,-171.961 1132.34,-160.598 947.618,-131.868"/>
<polygon fill="midnightblue" stroke="midnightblue" points="948.15,-128.408 937.727,-130.309 947.06,-135.323 948.15,-128.408"/>
</g>
<!-- Node11 -->
<g id="node11" class="node"><title>Node11</title>
<polygon fill="white" stroke="#bfbfbf" points="956,-112.5 956,-131.5 1018,-131.5 1018,-112.5 956,-112.5"/>
<text text-anchor="middle" x="987" y="-119.5" font-family="Helvetica,sans-Serif" font-size="10.00">osg/Group</text>
</g>
<!-- Node1&#45;&gt;Node11 -->
<g id="edge10" class="edge"><title>Node1&#45;&gt;Node11</title>
<path fill="none" stroke="midnightblue" d="M1423.91,-174.675C1351.81,-169.612 1181.65,-156.185 1028.34,-131.86"/>
<polygon fill="midnightblue" stroke="midnightblue" points="1028.7,-128.373 1018.27,-130.242 1027.59,-135.284 1028.7,-128.373"/>
</g>
<!-- Node12 -->
<g id="node12" class="node"><title>Node12</title>
<polygon fill="white" stroke="#bfbfbf" points="1036.5,-112.5 1036.5,-131.5 1101.5,-131.5 1101.5,-112.5 1036.5,-112.5"/>
<text text-anchor="middle" x="1069" y="-119.5" font-family="Helvetica,sans-Serif" font-size="10.00">osg/Switch</text>
</g>
<!-- Node1&#45;&gt;Node12 -->
<g id="edge11" class="edge"><title>Node1&#45;&gt;Node12</title>
<path fill="none" stroke="midnightblue" d="M1423.79,-173.418C1362.52,-166.976 1232.17,-152.343 1111.65,-131.974"/>
<polygon fill="midnightblue" stroke="midnightblue" points="1111.95,-128.476 1101.51,-130.243 1110.78,-135.376 1111.95,-128.476"/>
</g>
<!-- Node13 -->
<g id="node13" class="node"><title>Node13</title>
<polygon fill="white" stroke="#bfbfbf" points="1120,-112.5 1120,-131.5 1202,-131.5 1202,-112.5 1120,-112.5"/>
<text text-anchor="middle" x="1161" y="-119.5" font-family="Helvetica,sans-Serif" font-size="10.00">osg/ClearNode</text>
</g>
<!-- Node1&#45;&gt;Node13 -->
<g id="edge12" class="edge"><title>Node1&#45;&gt;Node13</title>
<path fill="none" stroke="midnightblue" d="M1423.94,-170.647C1371.58,-161.159 1272.66,-143.234 1212.21,-132.279"/>
<polygon fill="midnightblue" stroke="midnightblue" points="1212.58,-128.79 1202.12,-130.451 1211.33,-135.678 1212.58,-128.79"/>
</g>
<!-- Node14 -->
<g id="node14" class="node"><title>Node14</title>
<polygon fill="white" stroke="#bfbfbf" points="1220.5,-112.5 1220.5,-131.5 1299.5,-131.5 1299.5,-112.5 1220.5,-112.5"/>
<text text-anchor="middle" x="1260" y="-119.5" font-family="Helvetica,sans-Serif" font-size="10.00">osg/LineWidth</text>
</g>
<!-- Node1&#45;&gt;Node14 -->
<g id="edge13" class="edge"><title>Node1&#45;&gt;Node14</title>
<path fill="none" stroke="midnightblue" d="M1427.47,-168.444C1393.41,-159.201 1338.99,-144.436 1301.48,-134.257"/>
<polygon fill="midnightblue" stroke="midnightblue" points="1301.95,-130.758 1291.38,-131.516 1300.12,-137.513 1301.95,-130.758"/>
</g>
<!-- Node15 -->
<g id="node15" class="node"><title>Node15</title>
<polygon fill="white" stroke="#bfbfbf" points="1318,-112.5 1318,-131.5 1400,-131.5 1400,-112.5 1318,-112.5"/>
<text text-anchor="middle" x="1359" y="-119.5" font-family="Helvetica,sans-Serif" font-size="10.00">osg/AlphaFunc</text>
</g>
<!-- Node1&#45;&gt;Node15 -->
<g id="edge14" class="edge"><title>Node1&#45;&gt;Node15</title>
<path fill="none" stroke="midnightblue" d="M1442.93,-168.324C1427.04,-159.743 1402.49,-146.486 1384.04,-136.522"/>
<polygon fill="midnightblue" stroke="midnightblue" points="1385.49,-133.326 1375.03,-131.655 1382.16,-139.486 1385.49,-133.326"/>
</g>
<!-- Node16 -->
<g id="node16" class="node"><title>Node16</title>
<polygon fill="white" stroke="#bfbfbf" points="1418,-112.5 1418,-131.5 1500,-131.5 1500,-112.5 1418,-112.5"/>
<text text-anchor="middle" x="1459" y="-119.5" font-family="Helvetica,sans-Serif" font-size="10.00">osg/BlendFunc</text>
</g>
<!-- Node1&#45;&gt;Node16 -->
<g id="edge15" class="edge"><title>Node1&#45;&gt;Node16</title>
<path fill="none" stroke="midnightblue" d="M1459,-168.083C1459,-161.006 1459,-150.861 1459,-141.986"/>
<polygon fill="midnightblue" stroke="midnightblue" points="1462.5,-141.751 1459,-131.751 1455.5,-141.751 1462.5,-141.751"/>
</g>
<!-- Node17 -->
<g id="node17" class="node"><title>Node17</title>
<polygon fill="white" stroke="#bfbfbf" points="1518,-112.5 1518,-131.5 1592,-131.5 1592,-112.5 1518,-112.5"/>
<text text-anchor="middle" x="1555" y="-119.5" font-family="Helvetica,sans-Serif" font-size="10.00">osg/StateSet</text>
</g>
<!-- Node1&#45;&gt;Node17 -->
<g id="edge16" class="edge"><title>Node1&#45;&gt;Node17</title>
<path fill="none" stroke="midnightblue" d="M1474.42,-168.324C1489.54,-159.822 1512.82,-146.729 1530.47,-136.797"/>
<polygon fill="midnightblue" stroke="midnightblue" points="1532.61,-139.608 1539.61,-131.655 1529.18,-133.507 1532.61,-139.608"/>
</g>
<!-- Node18 -->
<g id="node18" class="node"><title>Node18</title>
<polygon fill="white" stroke="#bfbfbf" points="1610,-112.5 1610,-131.5 1672,-131.5 1672,-112.5 1610,-112.5"/>
<text text-anchor="middle" x="1641" y="-119.5" font-family="Helvetica,sans-Serif" font-size="10.00">osg/Depth</text>
</g>
<!-- Node1&#45;&gt;Node18 -->
<g id="edge17" class="edge"><title>Node1&#45;&gt;Node18</title>
<path fill="none" stroke="midnightblue" d="M1487.84,-168.444C1518.86,-159.241 1568.33,-144.562 1602.62,-134.388"/>
<polygon fill="midnightblue" stroke="midnightblue" points="1603.71,-137.716 1612.3,-131.516 1601.71,-131.006 1603.71,-137.716"/>
</g>
<!-- Node19 -->
<g id="node19" class="node"><title>Node19</title>
<polygon fill="white" stroke="#bfbfbf" points="1690.5,-112.5 1690.5,-131.5 1749.5,-131.5 1749.5,-112.5 1690.5,-112.5"/>
<text text-anchor="middle" x="1720" y="-119.5" font-family="Helvetica,sans-Serif" font-size="10.00">osg/State</text>
</g>
<!-- Node1&#45;&gt;Node19 -->
<g id="edge18" class="edge"><title>Node1&#45;&gt;Node19</title>
<path fill="none" stroke="midnightblue" d="M1494.05,-170.197C1535.89,-162.01 1608.22,-147.648 1680.07,-132.155"/>
<polygon fill="midnightblue" stroke="midnightblue" points="1681.17,-135.498 1690.21,-129.962 1679.69,-128.656 1681.17,-135.498"/>
</g>
<!-- Node20 -->
<g id="node20" class="node"><title>Node20</title>
<polygon fill="white" stroke="#bfbfbf" points="1768,-112.5 1768,-131.5 1824,-131.5 1824,-112.5 1768,-112.5"/>
<text text-anchor="middle" x="1796" y="-119.5" font-family="Helvetica,sans-Serif" font-size="10.00">osg/Light</text>
</g>
<!-- Node1&#45;&gt;Node20 -->
<g id="edge19" class="edge"><title>Node1&#45;&gt;Node20</title>
<path fill="none" stroke="midnightblue" d="M1494.28,-172.751C1548.72,-165.968 1656.66,-151.622 1757.71,-132.108"/>
<polygon fill="midnightblue" stroke="midnightblue" points="1758.63,-135.493 1767.78,-130.142 1757.29,-128.623 1758.63,-135.493"/>
</g>
<!-- Node21 -->
<g id="node21" class="node"><title>Node21</title>
<polygon fill="white" stroke="#bfbfbf" points="1842.5,-112.5 1842.5,-131.5 1929.5,-131.5 1929.5,-112.5 1842.5,-112.5"/>
<text text-anchor="middle" x="1886" y="-119.5" font-family="Helvetica,sans-Serif" font-size="10.00">osg/LightSource</text>
</g>
<!-- Node1&#45;&gt;Node21 -->
<g id="edge20" class="edge"><title>Node1&#45;&gt;Node21</title>
<path fill="none" stroke="midnightblue" d="M1494.14,-173.347C1558.81,-166.499 1701.26,-150.838 1832.15,-132.058"/>
<polygon fill="midnightblue" stroke="midnightblue" points="1832.96,-135.478 1842.35,-130.584 1831.96,-128.55 1832.96,-135.478"/>
</g>
<!-- Node22 -->
<g id="node22" class="node"><title>Node22</title>
<polygon fill="white" stroke="#bfbfbf" points="1948,-112.5 1948,-131.5 2018,-131.5 2018,-112.5 1948,-112.5"/>
<text text-anchor="middle" x="1983" y="-119.5" font-family="Helvetica,sans-Serif" font-size="10.00">osg/Material</text>
</g>
<!-- Node1&#45;&gt;Node22 -->
<g id="edge21" class="edge"><title>Node1&#45;&gt;Node22</title>
<path fill="none" stroke="midnightblue" d="M1494.09,-175.017C1572.08,-170.329 1765.86,-157.137 1938,-131.994"/>
<polygon fill="midnightblue" stroke="midnightblue" points="1938.62,-135.44 1948,-130.516 1937.59,-128.516 1938.62,-135.44"/>
</g>
<!-- Node23 -->
<g id="node23" class="node"><title>Node23</title>
<polygon fill="white" stroke="#bfbfbf" points="2036,-112.5 2036,-131.5 2106,-131.5 2106,-112.5 2036,-112.5"/>
<text text-anchor="middle" x="2071" y="-119.5" font-family="Helvetica,sans-Serif" font-size="10.00">osg/Camera</text>
</g>
<!-- Node1&#45;&gt;Node23 -->
<g id="edge22" class="edge"><title>Node1&#45;&gt;Node23</title>
<path fill="none" stroke="midnightblue" d="M1494.07,-175.72C1581.92,-172.193 1818.66,-160.723 2025.39,-132.068"/>
<polygon fill="midnightblue" stroke="midnightblue" points="2026.11,-135.502 2035.52,-130.646 2025.13,-128.569 2026.11,-135.502"/>
</g>
<!-- Node24 -->
<g id="node24" class="node"><title>Node24</title>
<polygon fill="white" stroke="#bfbfbf" points="2124,-112.5 2124,-131.5 2198,-131.5 2198,-112.5 2124,-112.5"/>
<text text-anchor="middle" x="2161" y="-119.5" font-family="Helvetica,sans-Serif" font-size="10.00">osg/Viewport</text>
</g>
<!-- Node1&#45;&gt;Node24 -->
<g id="edge23" class="edge"><title>Node1&#45;&gt;Node24</title>
<path fill="none" stroke="midnightblue" d="M1494.35,-176.125C1591.62,-173.388 1871.51,-163.3 2113.85,-131.984"/>
<polygon fill="midnightblue" stroke="midnightblue" points="2114.45,-135.436 2123.91,-130.669 2113.54,-128.495 2114.45,-135.436"/>
</g>
<!-- Node25 -->
<g id="node25" class="node"><title>Node25</title>
<polygon fill="white" stroke="#bfbfbf" points="2216.5,-112.5 2216.5,-131.5 2311.5,-131.5 2311.5,-112.5 2216.5,-112.5"/>
<text text-anchor="middle" x="2264" y="-119.5" font-family="Helvetica,sans-Serif" font-size="10.00">osgViewer/Viewer</text>
</g>
<!-- Node1&#45;&gt;Node25 -->
<g id="edge24" class="edge"><title>Node1&#45;&gt;Node25</title>
<path fill="none" stroke="midnightblue" d="M1494.15,-176.091C1600.09,-173.095 1925.71,-162.017 2206.49,-131.936"/>
<polygon fill="midnightblue" stroke="midnightblue" points="2206.89,-135.413 2216.46,-130.858 2206.14,-128.453 2206.89,-135.413"/>
</g>
<!-- Node26 -->
<g id="node26" class="node"><title>Node26</title>
<polygon fill="white" stroke="#bfbfbf" points="2330,-112.5 2330,-131.5 2448,-131.5 2448,-112.5 2330,-112.5"/>
<text text-anchor="middle" x="2389" y="-119.5" font-family="Helvetica,sans-Serif" font-size="10.00">osgViewer/ViewerBase</text>
</g>
<!-- Node1&#45;&gt;Node26 -->
<g id="edge25" class="edge"><title>Node1&#45;&gt;Node26</title>
<path fill="none" stroke="midnightblue" d="M1494.38,-176.161C1610.84,-173.185 1992.97,-161.728 2319.56,-132.059"/>
<polygon fill="midnightblue" stroke="midnightblue" points="2320.05,-135.529 2329.69,-131.131 2319.42,-128.558 2320.05,-135.529"/>
</g>
<!-- Node27 -->
<g id="node27" class="node"><title>Node27</title>
<polygon fill="white" stroke="#bfbfbf" points="2466.5,-112.5 2466.5,-131.5 2575.5,-131.5 2575.5,-112.5 2466.5,-112.5"/>
<text text-anchor="middle" x="2521" y="-119.5" font-family="Helvetica,sans-Serif" font-size="10.00">osg/GraphicsContext</text>
</g>
<!-- Node1&#45;&gt;Node27 -->
<g id="edge26" class="edge"><title>Node1&#45;&gt;Node27</title>
<path fill="none" stroke="midnightblue" d="M1494.44,-176.614C1622.49,-174.965 2073.36,-166.943 2456.06,-131.986"/>
<polygon fill="midnightblue" stroke="midnightblue" points="2456.59,-135.452 2466.23,-131.05 2455.95,-128.482 2456.59,-135.452"/>
</g>
<!-- Node28 -->
<g id="node28" class="node"><title>Node28</title>
<polygon fill="white" stroke="#bfbfbf" points="2593.5,-112.5 2593.5,-131.5 2688.5,-131.5 2688.5,-112.5 2593.5,-112.5"/>
<text text-anchor="middle" x="2641" y="-119.5" font-family="Helvetica,sans-Serif" font-size="10.00">osg/PolygonMode</text>
</g>
<!-- Node1&#45;&gt;Node28 -->
<g id="edge27" class="edge"><title>Node1&#45;&gt;Node28</title>
<path fill="none" stroke="midnightblue" d="M1494.13,-177.121C1631.88,-177.275 2148.56,-174.857 2583.14,-132.066"/>
<polygon fill="midnightblue" stroke="midnightblue" points="2583.79,-135.519 2593.39,-131.048 2583.09,-128.554 2583.79,-135.519"/>
</g>
<!-- Node29 -->
<g id="node29" class="node"><title>Node29</title>
<g id="a_node29"><a xlink:href="a00084.html" target="_top" xlink:title="gepetto/viewer/fwd.h">
<polygon fill="white" stroke="black" points="2706.5,-112.5 2706.5,-131.5 2813.5,-131.5 2813.5,-112.5 2706.5,-112.5"/>
<text text-anchor="middle" x="2760" y="-119.5" font-family="Helvetica,sans-Serif" font-size="10.00">gepetto/viewer/fwd.h</text>
</a>
</g>
</g>
<!-- Node1&#45;&gt;Node29 -->
<g id="edge28" class="edge"><title>Node1&#45;&gt;Node29</title>
<path fill="none" stroke="midnightblue" d="M1494.07,-177.109C1640.11,-177.271 2214.42,-175.041 2695.99,-132.086"/>
<polygon fill="midnightblue" stroke="midnightblue" points="2696.63,-135.542 2706.27,-131.161 2696,-128.571 2696.63,-135.542"/>
</g>
<!-- Node30 -->
<g id="node30" class="node"><title>Node30</title>
<g id="a_node30"><a xlink:href="a00102.html" target="_top" xlink:title="gepetto/viewer/macros.h">
<polygon fill="white" stroke="black" points="2739,-56.5 2739,-75.5 2863,-75.5 2863,-56.5 2739,-56.5"/>
<text text-anchor="middle" x="2801" y="-63.5" font-family="Helvetica,sans-Serif" font-size="10.00">gepetto/viewer/macros.h</text>
</a>
</g>
</g>
<!-- Node1&#45;&gt;Node30 -->
<g id="edge33" class="edge"><title>Node1&#45;&gt;Node30</title>
<path fill="none" stroke="midnightblue" d="M1494.12,-177.203C1703.11,-178.243 2775.43,-181.168 2823,-132 2835.62,-118.954 2825.42,-98.4099 2815.1,-83.9159"/>
<polygon fill="midnightblue" stroke="midnightblue" points="2817.73,-81.5904 2808.86,-75.7942 2812.18,-85.8559 2817.73,-81.5904"/>
</g>
<!-- Node29&#45;&gt;Node30 -->
<g id="edge29" class="edge"><title>Node29&#45;&gt;Node30</title>
<path fill="none" stroke="midnightblue" d="M2766.77,-112.083C2772.56,-104.455 2781.06,-93.2645 2788.14,-83.9408"/>
<polygon fill="midnightblue" stroke="midnightblue" points="2791.1,-85.8321 2794.36,-75.7511 2785.52,-81.5991 2791.1,-85.8321"/>
</g>
<!-- Node31 -->
<g id="node31" class="node"><title>Node31</title>
<polygon fill="white" stroke="#bfbfbf" points="2624,-0.5 2624,-19.5 2732,-19.5 2732,-0.5 2624,-0.5"/>
<text text-anchor="middle" x="2678" y="-7.5" font-family="Helvetica,sans-Serif" font-size="10.00">boost/shared_ptr.hpp</text>
</g>
<!-- Node30&#45;&gt;Node31 -->
<g id="edge30" class="edge"><title>Node30&#45;&gt;Node31</title>
<path fill="none" stroke="midnightblue" d="M2781.51,-56.4435C2761.36,-47.5961 2729.68,-33.6875 2706.67,-23.5865"/>
<polygon fill="midnightblue" stroke="midnightblue" points="2707.96,-20.3316 2697.4,-19.5164 2705.15,-26.7411 2707.96,-20.3316"/>
</g>
<!-- Node32 -->
<g id="node32" class="node"><title>Node32</title>
<polygon fill="white" stroke="#bfbfbf" points="2750,-0.5 2750,-19.5 2852,-19.5 2852,-0.5 2750,-0.5"/>
<text text-anchor="middle" x="2801" y="-7.5" font-family="Helvetica,sans-Serif" font-size="10.00">boost/weak_ptr.hpp</text>
</g>
<!-- Node30&#45;&gt;Node32 -->
<g id="edge31" class="edge"><title>Node30&#45;&gt;Node32</title>
<path fill="none" stroke="midnightblue" d="M2801,-56.083C2801,-49.0059 2801,-38.8611 2801,-29.9865"/>
<polygon fill="midnightblue" stroke="midnightblue" points="2804.5,-29.751 2801,-19.7511 2797.5,-29.7511 2804.5,-29.751"/>
</g>
<!-- Node33 -->
<g id="node33" class="node"><title>Node33</title>
<polygon fill="white" stroke="#bfbfbf" points="2870.5,-0.5 2870.5,-19.5 2933.5,-19.5 2933.5,-0.5 2870.5,-0.5"/>
<text text-anchor="middle" x="2902" y="-7.5" font-family="Helvetica,sans-Serif" font-size="10.00">osg/ref_ptr</text>
</g>
<!-- Node30&#45;&gt;Node33 -->
<g id="edge32" class="edge"><title>Node30&#45;&gt;Node33</title>
<path fill="none" stroke="midnightblue" d="M2817.23,-56.324C2833.35,-47.7034 2858.3,-34.3643 2876.96,-24.3855"/>
<polygon fill="midnightblue" stroke="midnightblue" points="2878.64,-27.456 2885.81,-19.6545 2875.34,-21.283 2878.64,-27.456"/>
</g>
</g>
</svg>
