<?xml version="1.0" encoding="UTF-8" standalone="no"?>
<!DOCTYPE svg PUBLIC "-//W3C//DTD SVG 1.1//EN"
 "http://www.w3.org/Graphics/SVG/1.1/DTD/svg11.dtd">
<!-- Generated by graphviz version 2.38.0 (20140413.2041)
 -->
<!-- Title: group&#45;node.h Pages: 1 -->
<svg width="708pt" height="140pt"
 viewBox="0.00 0.00 707.50 140.00" xmlns="http://www.w3.org/2000/svg" xmlns:xlink="http://www.w3.org/1999/xlink">
<g id="graph0" class="graph" transform="scale(1 1) rotate(0) translate(4 136)">
<title>group&#45;node.h</title>
<polygon fill="white" stroke="none" points="-4,4 -4,-136 703.5,-136 703.5,4 -4,4"/>
<!-- Node1 -->
<g id="node1" class="node"><title>Node1</title>
<polygon fill="#bfbfbf" stroke="black" points="338.5,-112.5 338.5,-131.5 411.5,-131.5 411.5,-112.5 338.5,-112.5"/>
<text text-anchor="middle" x="375" y="-119.5" font-family="Helvetica,sans-Serif" font-size="10.00">group&#45;node.h</text>
</g>
<!-- Node2 -->
<g id="node2" class="node"><title>Node2</title>
<g id="a_node2"><a xlink:href="a00078.html" target="_top" xlink:title="bodytreewidget.hh">
<polygon fill="white" stroke="black" points="0,-56.5 0,-75.5 96,-75.5 96,-56.5 0,-56.5"/>
<text text-anchor="middle" x="48" y="-63.5" font-family="Helvetica,sans-Serif" font-size="10.00">bodytreewidget.hh</text>
</a>
</g>
</g>
<!-- Node1&#45;&gt;Node2 -->
<g id="edge1" class="edge"><title>Node1&#45;&gt;Node2</title>
<path fill="none" stroke="midnightblue" d="M328.22,-113.275C266.55,-103.091 158.59,-85.2626 96.2125,-74.9617"/>
<polygon fill="midnightblue" stroke="midnightblue" points="328.004,-116.787 338.441,-114.963 329.145,-109.88 328.004,-116.787"/>
</g>
<!-- Node3 -->
<g id="node3" class="node"><title>Node3</title>
<g id="a_node3"><a xlink:href="a00103.html" target="_top" xlink:title="mainwindow.hh">
<polygon fill="white" stroke="black" points="114,-56.5 114,-75.5 198,-75.5 198,-56.5 114,-56.5"/>
<text text-anchor="middle" x="156" y="-63.5" font-family="Helvetica,sans-Serif" font-size="10.00">mainwindow.hh</text>
</a>
</g>
</g>
<!-- Node1&#45;&gt;Node3 -->
<g id="edge2" class="edge"><title>Node1&#45;&gt;Node3</title>
<path fill="none" stroke="midnightblue" d="M330.485,-110.024C289.116,-99.8232 228.357,-84.8414 190.539,-75.5164"/>
<polygon fill="midnightblue" stroke="midnightblue" points="329.752,-113.448 340.299,-112.444 331.428,-106.651 329.752,-113.448"/>
</g>
<!-- Node4 -->
<g id="node4" class="node"><title>Node4</title>
<g id="a_node4"><a xlink:href="a00126.html" target="_top" xlink:title="window&#45;manager.h">
<polygon fill="white" stroke="black" points="216,-56.5 216,-75.5 314,-75.5 314,-56.5 216,-56.5"/>
<text text-anchor="middle" x="265" y="-63.5" font-family="Helvetica,sans-Serif" font-size="10.00">window&#45;manager.h</text>
</a>
</g>
</g>
<!-- Node1&#45;&gt;Node4 -->
<g id="edge3" class="edge"><title>Node1&#45;&gt;Node4</title>
<path fill="none" stroke="midnightblue" d="M348.238,-107.862C327.841,-97.8492 300.334,-84.3458 282.63,-75.6545"/>
<polygon fill="midnightblue" stroke="midnightblue" points="346.808,-111.059 357.327,-112.324 349.892,-104.775 346.808,-111.059"/>
</g>
<!-- Node6 -->
<g id="node6" class="node"><title>Node6</title>
<g id="a_node6"><a xlink:href="a00096.html" target="_top" xlink:title="leaf&#45;node&#45;light.h">
<polygon fill="white" stroke="black" points="332,-56.5 332,-75.5 418,-75.5 418,-56.5 332,-56.5"/>
<text text-anchor="middle" x="375" y="-63.5" font-family="Helvetica,sans-Serif" font-size="10.00">leaf&#45;node&#45;light.h</text>
</a>
</g>
</g>
<!-- Node1&#45;&gt;Node6 -->
<g id="edge5" class="edge"><title>Node1&#45;&gt;Node6</title>
<path fill="none" stroke="midnightblue" d="M375,-101.805C375,-92.9102 375,-82.7798 375,-75.7511"/>
<polygon fill="midnightblue" stroke="midnightblue" points="371.5,-102.083 375,-112.083 378.5,-102.083 371.5,-102.083"/>
</g>
<!-- Node7 -->
<g id="node7" class="node"><title>Node7</title>
<g id="a_node7"><a xlink:href="a00107.html" target="_top" xlink:title="node&#45;rod.h">
<polygon fill="white" stroke="black" points="436,-56.5 436,-75.5 498,-75.5 498,-56.5 436,-56.5"/>
<text text-anchor="middle" x="467" y="-63.5" font-family="Helvetica,sans-Serif" font-size="10.00">node&#45;rod.h</text>
</a>
</g>
</g>
<!-- Node1&#45;&gt;Node7 -->
<g id="edge6" class="edge"><title>Node1&#45;&gt;Node7</title>
<path fill="none" stroke="midnightblue" d="M398.55,-107.177C415.479,-97.2407 437.783,-84.1492 452.255,-75.6545"/>
<polygon fill="midnightblue" stroke="midnightblue" points="396.634,-104.243 389.781,-112.324 400.177,-110.28 396.634,-104.243"/>
</g>
<!-- Node8 -->
<g id="node8" class="node"><title>Node8</title>
<g id="a_node8"><a xlink:href="a00117.html" target="_top" xlink:title="roadmap&#45;viewer.h">
<polygon fill="white" stroke="black" points="516,-56.5 516,-75.5 610,-75.5 610,-56.5 516,-56.5"/>
<text text-anchor="middle" x="563" y="-63.5" font-family="Helvetica,sans-Serif" font-size="10.00">roadmap&#45;viewer.h</text>
</a>
</g>
</g>
<!-- Node1&#45;&gt;Node8 -->
<g id="edge7" class="edge"><title>Node1&#45;&gt;Node8</title>
<path fill="none" stroke="midnightblue" d="M414.801,-109.568C450.266,-99.381 501.366,-84.7034 533.35,-75.5164"/>
<polygon fill="midnightblue" stroke="midnightblue" points="413.434,-106.319 404.789,-112.444 415.367,-113.047 413.434,-106.319"/>
</g>
<!-- Node9 -->
<g id="node9" class="node"><title>Node9</title>
<g id="a_node9"><a xlink:href="a00125.html" target="_top" xlink:title="urdf&#45;parser.h">
<polygon fill="white" stroke="black" points="628.5,-56.5 628.5,-75.5 699.5,-75.5 699.5,-56.5 628.5,-56.5"/>
<text text-anchor="middle" x="664" y="-63.5" font-family="Helvetica,sans-Serif" font-size="10.00">urdf&#45;parser.h</text>
</a>
</g>
</g>
<!-- Node1&#45;&gt;Node9 -->
<g id="edge8" class="edge"><title>Node1&#45;&gt;Node9</title>
<path fill="none" stroke="midnightblue" d="M421.835,-112.578C470.986,-103.689 550.481,-89.1695 619,-76 621.973,-75.4286 625.055,-74.8285 628.148,-74.2208"/>
<polygon fill="midnightblue" stroke="midnightblue" points="421.041,-109.165 411.822,-114.387 422.285,-116.053 421.041,-109.165"/>
</g>
<!-- Node5 -->
<g id="node5" class="node"><title>Node5</title>
<g id="a_node5"><a xlink:href="a00110.html" target="_top" xlink:title="osgwidget.hh">
<polygon fill="white" stroke="black" points="228,-0.5 228,-19.5 302,-19.5 302,-0.5 228,-0.5"/>
<text text-anchor="middle" x="265" y="-7.5" font-family="Helvetica,sans-Serif" font-size="10.00">osgwidget.hh</text>
</a>
</g>
</g>
<!-- Node4&#45;&gt;Node5 -->
<g id="edge4" class="edge"><title>Node4&#45;&gt;Node5</title>
<path fill="none" stroke="midnightblue" d="M265,-45.8045C265,-36.9102 265,-26.7798 265,-19.7511"/>
<polygon fill="midnightblue" stroke="midnightblue" points="261.5,-46.083 265,-56.083 268.5,-46.083 261.5,-46.083"/>
</g>
</g>
</svg>
