<?xml version="1.0" encoding="UTF-8" standalone="no"?>
<!DOCTYPE svg PUBLIC "-//W3C//DTD SVG 1.1//EN"
 "http://www.w3.org/Graphics/SVG/1.1/DTD/svg11.dtd">
<!-- Generated by graphviz version 2.38.0 (20140413.2041)
 -->
<!-- Title: config&#45;osg.h Pages: 1 -->
<svg width="1870pt" height="308pt"
 viewBox="0.00 0.00 1870.20 308.00" xmlns="http://www.w3.org/2000/svg" xmlns:xlink="http://www.w3.org/1999/xlink">
<g id="graph0" class="graph" transform="scale(1 1) rotate(0) translate(4 304)">
<title>config&#45;osg.h</title>
<polygon fill="white" stroke="none" points="-4,4 -4,-304 1866.2,-304 1866.2,4 -4,4"/>
<!-- Node1 -->
<g id="node1" class="node"><title>Node1</title>
<polygon fill="#bfbfbf" stroke="black" points="1492.2,-280.5 1492.2,-299.5 1562.2,-299.5 1562.2,-280.5 1492.2,-280.5"/>
<text text-anchor="middle" x="1527.2" y="-287.5" font-family="Helvetica,sans-Serif" font-size="10.00">config&#45;osg.h</text>
</g>
<!-- Node2 -->
<g id="node2" class="node"><title>Node2</title>
<g id="a_node2"><a xlink:href="a00108.html" target="_top" xlink:title="node&#45;visitor.h">
<polygon fill="white" stroke="black" points="1423.7,-224.5 1423.7,-243.5 1498.7,-243.5 1498.7,-224.5 1423.7,-224.5"/>
<text text-anchor="middle" x="1461.2" y="-231.5" font-family="Helvetica,sans-Serif" font-size="10.00">node&#45;visitor.h</text>
</a>
</g>
</g>
<!-- Node1&#45;&gt;Node2 -->
<g id="edge1" class="edge"><title>Node1&#45;&gt;Node2</title>
<path fill="none" stroke="midnightblue" d="M1508.65,-273.82C1496.82,-264.145 1481.92,-251.948 1472,-243.834"/>
<polygon fill="midnightblue" stroke="midnightblue" points="1506.64,-276.7 1516.6,-280.324 1511.07,-271.283 1506.64,-276.7"/>
</g>
<!-- Node3 -->
<g id="node3" class="node"><title>Node3</title>
<g id="a_node3"><a xlink:href="a00109.html" target="_top" xlink:title="node.h">
<polygon fill="white" stroke="black" points="810.201,-168.5 810.201,-187.5 856.201,-187.5 856.201,-168.5 810.201,-168.5"/>
<text text-anchor="middle" x="833.201" y="-175.5" font-family="Helvetica,sans-Serif" font-size="10.00">node.h</text>
</a>
</g>
</g>
<!-- Node1&#45;&gt;Node3 -->
<g id="edge43" class="edge"><title>Node1&#45;&gt;Node3</title>
<path fill="none" stroke="midnightblue" d="M1481.88,-281.817C1347.75,-260.556 955.874,-198.444 856.381,-182.674"/>
<polygon fill="midnightblue" stroke="midnightblue" points="1481.41,-285.285 1491.83,-283.394 1482.5,-278.371 1481.41,-285.285"/>
</g>
<!-- Node10 -->
<g id="node10" class="node"><title>Node10</title>
<g id="a_node10"><a xlink:href="a00107.html" target="_top" xlink:title="node&#45;rod.h">
<polygon fill="white" stroke="black" points="1266.2,-0.5 1266.2,-19.5 1328.2,-19.5 1328.2,-0.5 1266.2,-0.5"/>
<text text-anchor="middle" x="1297.2" y="-7.5" font-family="Helvetica,sans-Serif" font-size="10.00">node&#45;rod.h</text>
</a>
</g>
</g>
<!-- Node1&#45;&gt;Node10 -->
<g id="edge49" class="edge"><title>Node1&#45;&gt;Node10</title>
<path fill="none" stroke="midnightblue" d="M1482.01,-280.775C1458.85,-274.384 1431.88,-263.231 1414.2,-244 1390.78,-218.516 1390.94,-202.042 1397.2,-168 1406.63,-116.707 1462.69,-98.3077 1432.2,-56 1408.65,-23.3316 1360.36,-14.0209 1328.38,-11.5674"/>
<polygon fill="midnightblue" stroke="midnightblue" points="1481.45,-284.243 1492,-283.31 1483.17,-277.458 1481.45,-284.243"/>
</g>
<!-- Node30 -->
<g id="node30" class="node"><title>Node30</title>
<g id="a_node30"><a xlink:href="a00123.html" target="_top" xlink:title="transform&#45;writer.h">
<polygon fill="white" stroke="black" points="1534.7,-168.5 1534.7,-187.5 1627.7,-187.5 1627.7,-168.5 1534.7,-168.5"/>
<text text-anchor="middle" x="1581.2" y="-175.5" font-family="Helvetica,sans-Serif" font-size="10.00">transform&#45;writer.h</text>
</a>
</g>
</g>
<!-- Node1&#45;&gt;Node30 -->
<g id="edge47" class="edge"><title>Node1&#45;&gt;Node30</title>
<path fill="none" stroke="midnightblue" d="M1535.88,-271.32C1547.64,-247.37 1568.17,-205.548 1576.98,-187.591"/>
<polygon fill="midnightblue" stroke="midnightblue" points="1532.7,-269.849 1531.44,-280.368 1538.99,-272.934 1532.7,-269.849"/>
</g>
<!-- Node31 -->
<g id="node31" class="node"><title>Node31</title>
<g id="a_node31"><a xlink:href="a00127.html" target="_top" xlink:title="windows&#45;manager.h">
<polygon fill="white" stroke="black" points="1529.2,-112.5 1529.2,-131.5 1633.2,-131.5 1633.2,-112.5 1529.2,-112.5"/>
<text text-anchor="middle" x="1581.2" y="-119.5" font-family="Helvetica,sans-Serif" font-size="10.00">windows&#45;manager.h</text>
</a>
</g>
</g>
<!-- Node1&#45;&gt;Node31 -->
<g id="edge46" class="edge"><title>Node1&#45;&gt;Node31</title>
<path fill="none" stroke="midnightblue" d="M1551.61,-274.996C1578.13,-258.205 1619.02,-227.337 1636.2,-188 1646.44,-164.564 1617.72,-143.119 1598.02,-131.677"/>
<polygon fill="midnightblue" stroke="midnightblue" points="1549.58,-272.13 1542.89,-280.339 1553.24,-278.099 1549.58,-272.13"/>
</g>
<!-- Node33 -->
<g id="node33" class="node"><title>Node33</title>
<g id="a_node33"><a xlink:href="a00077.html" target="_top" xlink:title="blender&#45;geom&#45;writer.h">
<polygon fill="white" stroke="black" points="1406.2,-168.5 1406.2,-187.5 1516.2,-187.5 1516.2,-168.5 1406.2,-168.5"/>
<text text-anchor="middle" x="1461.2" y="-175.5" font-family="Helvetica,sans-Serif" font-size="10.00">blender&#45;geom&#45;writer.h</text>
</a>
</g>
</g>
<!-- Node1&#45;&gt;Node33 -->
<g id="edge48" class="edge"><title>Node1&#45;&gt;Node33</title>
<path fill="none" stroke="midnightblue" d="M1524.04,-270.381C1521.14,-256.798 1515.94,-238.334 1507.2,-224 1498.25,-209.309 1483.42,-196.009 1473.02,-187.742"/>
<polygon fill="midnightblue" stroke="midnightblue" points="1520.65,-271.278 1525.96,-280.446 1527.52,-269.967 1520.65,-271.278"/>
</g>
<!-- Node34 -->
<g id="node34" class="node"><title>Node34</title>
<g id="a_node34"><a xlink:href="a00106.html" target="_top" xlink:title="node&#45;property.h">
<polygon fill="white" stroke="black" points="901.201,-224.5 901.201,-243.5 985.201,-243.5 985.201,-224.5 901.201,-224.5"/>
<text text-anchor="middle" x="943.201" y="-231.5" font-family="Helvetica,sans-Serif" font-size="10.00">node&#45;property.h</text>
</a>
</g>
</g>
<!-- Node1&#45;&gt;Node34 -->
<g id="edge41" class="edge"><title>Node1&#45;&gt;Node34</title>
<path fill="none" stroke="midnightblue" d="M1481.88,-284.81C1371.9,-274.64 1092.08,-248.766 985.396,-238.902"/>
<polygon fill="midnightblue" stroke="midnightblue" points="1481.7,-288.308 1491.98,-285.744 1482.35,-281.338 1481.7,-288.308"/>
</g>
<!-- Node35 -->
<g id="node35" class="node"><title>Node35</title>
<g id="a_node35"><a xlink:href="a00079.html" target="_top" xlink:title="color&#45;map.hh">
<polygon fill="white" stroke="black" points="1684.7,-224.5 1684.7,-243.5 1757.7,-243.5 1757.7,-224.5 1684.7,-224.5"/>
<text text-anchor="middle" x="1721.2" y="-231.5" font-family="Helvetica,sans-Serif" font-size="10.00">color&#45;map.hh</text>
</a>
</g>
</g>
<!-- Node1&#45;&gt;Node35 -->
<g id="edge44" class="edge"><title>Node1&#45;&gt;Node35</title>
<path fill="none" stroke="midnightblue" d="M1567.8,-277.699C1604.42,-267.507 1657.46,-252.743 1690.6,-243.516"/>
<polygon fill="midnightblue" stroke="midnightblue" points="1566.64,-274.39 1557.94,-280.444 1568.51,-281.134 1566.64,-274.39"/>
</g>
<!-- Node36 -->
<g id="node36" class="node"><title>Node36</title>
<g id="a_node36"><a xlink:href="a00081.html" target="_top" xlink:title="configuration.hh">
<polygon fill="white" stroke="black" points="1776.2,-224.5 1776.2,-243.5 1862.2,-243.5 1862.2,-224.5 1776.2,-224.5"/>
<text text-anchor="middle" x="1819.2" y="-231.5" font-family="Helvetica,sans-Serif" font-size="10.00">configuration.hh</text>
</a>
</g>
</g>
<!-- Node1&#45;&gt;Node36 -->
<g id="edge45" class="edge"><title>Node1&#45;&gt;Node36</title>
<path fill="none" stroke="midnightblue" d="M1572.31,-280.657C1627.74,-270.406 1721.14,-253.135 1775.78,-243.029"/>
<polygon fill="midnightblue" stroke="midnightblue" points="1571.62,-277.226 1562.42,-282.486 1572.89,-284.109 1571.62,-277.226"/>
</g>
<!-- Node2&#45;&gt;Node3 -->
<g id="edge2" class="edge"><title>Node2&#45;&gt;Node3</title>
<path fill="none" stroke="midnightblue" d="M1413.18,-228.871C1286.75,-218 948.103,-188.88 856.383,-180.993"/>
<polygon fill="midnightblue" stroke="midnightblue" points="1413.07,-232.374 1423.33,-229.744 1413.67,-225.4 1413.07,-232.374"/>
</g>
<!-- Node2&#45;&gt;Node30 -->
<g id="edge36" class="edge"><title>Node2&#45;&gt;Node30</title>
<path fill="none" stroke="midnightblue" d="M1489.57,-220.232C1512.02,-210.131 1542.74,-196.309 1562.28,-187.516"/>
<polygon fill="midnightblue" stroke="midnightblue" points="1487.9,-217.148 1480.22,-224.444 1490.77,-223.532 1487.9,-217.148"/>
</g>
<!-- Node2&#45;&gt;Node33 -->
<g id="edge40" class="edge"><title>Node2&#45;&gt;Node33</title>
<path fill="none" stroke="midnightblue" d="M1461.2,-213.805C1461.2,-204.91 1461.2,-194.78 1461.2,-187.751"/>
<polygon fill="midnightblue" stroke="midnightblue" points="1457.7,-214.083 1461.2,-224.083 1464.7,-214.083 1457.7,-214.083"/>
</g>
<!-- Node4 -->
<g id="node4" class="node"><title>Node4</title>
<g id="a_node4"><a xlink:href="a00086.html" target="_top" xlink:title="group&#45;node.h">
<polygon fill="white" stroke="black" points="1120.7,-112.5 1120.7,-131.5 1193.7,-131.5 1193.7,-112.5 1120.7,-112.5"/>
<text text-anchor="middle" x="1157.2" y="-119.5" font-family="Helvetica,sans-Serif" font-size="10.00">group&#45;node.h</text>
</a>
</g>
</g>
<!-- Node3&#45;&gt;Node4 -->
<g id="edge3" class="edge"><title>Node3&#45;&gt;Node4</title>
<path fill="none" stroke="midnightblue" d="M866.325,-171.997C918.493,-164.037 1022.95,-147.772 1111.2,-132 1114.24,-131.456 1117.4,-130.875 1120.56,-130.28"/>
<polygon fill="midnightblue" stroke="midnightblue" points="865.669,-168.556 856.31,-173.521 866.723,-175.477 865.669,-168.556"/>
</g>
<!-- Node7 -->
<g id="node7" class="node"><title>Node7</title>
<g id="a_node7"><a xlink:href="a00126.html" target="_top" xlink:title="window&#45;manager.h">
<polygon fill="white" stroke="black" points="1325.2,-56.5 1325.2,-75.5 1423.2,-75.5 1423.2,-56.5 1325.2,-56.5"/>
<text text-anchor="middle" x="1374.2" y="-63.5" font-family="Helvetica,sans-Serif" font-size="10.00">window&#45;manager.h</text>
</a>
</g>
</g>
<!-- Node3&#45;&gt;Node7 -->
<g id="edge13" class="edge"><title>Node3&#45;&gt;Node7</title>
<path fill="none" stroke="midnightblue" d="M866.542,-175.611C931.841,-172.306 1080.81,-161.879 1202.2,-132 1260.17,-117.733 1325.22,-89.6262 1356.08,-75.5113"/>
<polygon fill="midnightblue" stroke="midnightblue" points="866.253,-172.121 856.434,-176.099 866.591,-179.113 866.253,-172.121"/>
</g>
<!-- Node11 -->
<g id="node11" class="node"><title>Node11</title>
<g id="a_node11"><a xlink:href="a00117.html" target="_top" xlink:title="roadmap&#45;viewer.h">
<polygon fill="white" stroke="black" points="289.201,-0.5 289.201,-19.5 383.201,-19.5 383.201,-0.5 289.201,-0.5"/>
<text text-anchor="middle" x="336.201" y="-7.5" font-family="Helvetica,sans-Serif" font-size="10.00">roadmap&#45;viewer.h</text>
</a>
</g>
</g>
<!-- Node3&#45;&gt;Node11 -->
<g id="edge35" class="edge"><title>Node3&#45;&gt;Node11</title>
<path fill="none" stroke="midnightblue" d="M799.671,-176.002C681.341,-172.286 283.722,-158.109 159.201,-132 87.5126,-116.969 46.2846,-135.951 4.2008,-76 -0.906272,-68.7247 -1.64727,-62.6942 4.2008,-56 40.6031,-14.3308 206.261,-9.74253 288.953,-10.1344"/>
<polygon fill="midnightblue" stroke="midnightblue" points="799.816,-179.508 809.92,-176.319 800.033,-172.511 799.816,-179.508"/>
</g>
<!-- Node13 -->
<g id="node13" class="node"><title>Node13</title>
<g id="a_node13"><a xlink:href="a00104.html" target="_top" xlink:title="node&#45;action.hh">
<polygon fill="white" stroke="black" points="168.201,-112.5 168.201,-131.5 248.201,-131.5 248.201,-112.5 168.201,-112.5"/>
<text text-anchor="middle" x="208.201" y="-119.5" font-family="Helvetica,sans-Serif" font-size="10.00">node&#45;action.hh</text>
</a>
</g>
</g>
<!-- Node3&#45;&gt;Node13 -->
<g id="edge12" class="edge"><title>Node3&#45;&gt;Node13</title>
<path fill="none" stroke="midnightblue" d="M799.82,-175.604C711.152,-171.635 462.48,-158.797 257.201,-132 254.285,-131.619 251.279,-131.181 248.259,-130.707"/>
<polygon fill="midnightblue" stroke="midnightblue" points="799.921,-179.112 810.065,-176.055 800.229,-172.119 799.921,-179.112"/>
</g>
<!-- Node14 -->
<g id="node14" class="node"><title>Node14</title>
<g id="a_node14"><a xlink:href="a00112.html" target="_top" xlink:title="pick&#45;handler.hh">
<polygon fill="white" stroke="black" points="266.701,-112.5 266.701,-131.5 349.701,-131.5 349.701,-112.5 266.701,-112.5"/>
<text text-anchor="middle" x="308.201" y="-119.5" font-family="Helvetica,sans-Serif" font-size="10.00">pick&#45;handler.hh</text>
</a>
</g>
</g>
<!-- Node3&#45;&gt;Node14 -->
<g id="edge14" class="edge"><title>Node3&#45;&gt;Node14</title>
<path fill="none" stroke="midnightblue" d="M799.815,-174.754C722.241,-169.333 523.883,-154.312 359.201,-132 356.172,-131.59 353.047,-131.129 349.907,-130.64"/>
<polygon fill="midnightblue" stroke="midnightblue" points="799.726,-178.256 809.944,-175.455 800.209,-171.272 799.726,-178.256"/>
</g>
<!-- Node15 -->
<g id="node15" class="node"><title>Node15</title>
<g id="a_node15"><a xlink:href="a00119.html" target="_top" xlink:title="selection&#45;event.hh">
<polygon fill="white" stroke="black" points="368.201,-112.5 368.201,-131.5 464.201,-131.5 464.201,-112.5 368.201,-112.5"/>
<text text-anchor="middle" x="416.201" y="-119.5" font-family="Helvetica,sans-Serif" font-size="10.00">selection&#45;event.hh</text>
</a>
</g>
</g>
<!-- Node3&#45;&gt;Node15 -->
<g id="edge15" class="edge"><title>Node3&#45;&gt;Node15</title>
<path fill="none" stroke="midnightblue" d="M799.772,-173.186C736.124,-165.844 593.175,-148.966 473.201,-132 470.324,-131.593 467.368,-131.163 464.386,-130.72"/>
<polygon fill="midnightblue" stroke="midnightblue" points="799.668,-176.697 810.002,-174.363 800.468,-169.743 799.668,-176.697"/>
</g>
<!-- Node16 -->
<g id="node16" class="node"><title>Node16</title>
<g id="a_node16"><a xlink:href="a00124.html" target="_top" xlink:title="tree&#45;item.hh">
<polygon fill="white" stroke="black" points="482.201,-112.5 482.201,-131.5 550.201,-131.5 550.201,-112.5 482.201,-112.5"/>
<text text-anchor="middle" x="516.201" y="-119.5" font-family="Helvetica,sans-Serif" font-size="10.00">tree&#45;item.hh</text>
</a>
</g>
</g>
<!-- Node3&#45;&gt;Node16 -->
<g id="edge16" class="edge"><title>Node3&#45;&gt;Node16</title>
<path fill="none" stroke="midnightblue" d="M800.137,-172.046C748.56,-164.21 645.873,-148.18 559.201,-132 556.352,-131.468 553.401,-130.896 550.442,-130.307"/>
<polygon fill="midnightblue" stroke="midnightblue" points="799.636,-175.51 810.047,-173.546 800.684,-168.588 799.636,-175.51"/>
</g>
<!-- Node17 -->
<g id="node17" class="node"><title>Node17</title>
<g id="a_node17"><a xlink:href="a00105.html" target="_top" xlink:title="node&#45;drawable.h">
<polygon fill="white" stroke="black" points="568.201,-112.5 568.201,-131.5 656.201,-131.5 656.201,-112.5 568.201,-112.5"/>
<text text-anchor="middle" x="612.201" y="-119.5" font-family="Helvetica,sans-Serif" font-size="10.00">node&#45;drawable.h</text>
</a>
</g>
</g>
<!-- Node3&#45;&gt;Node17 -->
<g id="edge17" class="edge"><title>Node3&#45;&gt;Node17</title>
<path fill="none" stroke="midnightblue" d="M800.16,-168.927C759.003,-158.87 689.002,-141.766 647.029,-131.51"/>
<polygon fill="midnightblue" stroke="midnightblue" points="799.423,-172.349 809.968,-171.323 801.084,-165.549 799.423,-172.349"/>
</g>
<!-- Node26 -->
<g id="node26" class="node"><title>Node26</title>
<g id="a_node26"><a xlink:href="a00091.html" target="_top" xlink:title="leaf&#45;node&#45;collada.h">
<polygon fill="white" stroke="black" points="674.201,-112.5 674.201,-131.5 772.201,-131.5 772.201,-112.5 674.201,-112.5"/>
<text text-anchor="middle" x="723.201" y="-119.5" font-family="Helvetica,sans-Serif" font-size="10.00">leaf&#45;node&#45;collada.h</text>
</a>
</g>
</g>
<!-- Node3&#45;&gt;Node26 -->
<g id="edge30" class="edge"><title>Node3&#45;&gt;Node26</title>
<path fill="none" stroke="midnightblue" d="M806.439,-163.862C786.042,-153.849 758.535,-140.346 740.83,-131.655"/>
<polygon fill="midnightblue" stroke="midnightblue" points="805.008,-167.059 815.527,-168.324 808.093,-160.775 805.008,-167.059"/>
</g>
<!-- Node27 -->
<g id="node27" class="node"><title>Node27</title>
<g id="a_node27"><a xlink:href="a00094.html" target="_top" xlink:title="leaf&#45;node&#45;face.h">
<polygon fill="white" stroke="black" points="790.201,-112.5 790.201,-131.5 876.201,-131.5 876.201,-112.5 790.201,-112.5"/>
<text text-anchor="middle" x="833.201" y="-119.5" font-family="Helvetica,sans-Serif" font-size="10.00">leaf&#45;node&#45;face.h</text>
</a>
</g>
</g>
<!-- Node3&#45;&gt;Node27 -->
<g id="edge32" class="edge"><title>Node3&#45;&gt;Node27</title>
<path fill="none" stroke="midnightblue" d="M833.201,-157.805C833.201,-148.91 833.201,-138.78 833.201,-131.751"/>
<polygon fill="midnightblue" stroke="midnightblue" points="829.701,-158.083 833.201,-168.083 836.701,-158.083 829.701,-158.083"/>
</g>
<!-- Node28 -->
<g id="node28" class="node"><title>Node28</title>
<g id="a_node28"><a xlink:href="a00095.html" target="_top" xlink:title="leaf&#45;node&#45;ground.h">
<polygon fill="white" stroke="black" points="894.701,-112.5 894.701,-131.5 991.701,-131.5 991.701,-112.5 894.701,-112.5"/>
<text text-anchor="middle" x="943.201" y="-119.5" font-family="Helvetica,sans-Serif" font-size="10.00">leaf&#45;node&#45;ground.h</text>
</a>
</g>
</g>
<!-- Node3&#45;&gt;Node28 -->
<g id="edge33" class="edge"><title>Node3&#45;&gt;Node28</title>
<path fill="none" stroke="midnightblue" d="M859.963,-163.862C880.36,-153.849 907.867,-140.346 925.571,-131.655"/>
<polygon fill="midnightblue" stroke="midnightblue" points="858.309,-160.775 850.874,-168.324 861.393,-167.059 858.309,-160.775"/>
</g>
<!-- Node29 -->
<g id="node29" class="node"><title>Node29</title>
<g id="a_node29"><a xlink:href="a00098.html" target="_top" xlink:title="leaf&#45;node&#45;mesh.h">
<polygon fill="white" stroke="black" points="1010.2,-112.5 1010.2,-131.5 1102.2,-131.5 1102.2,-112.5 1010.2,-112.5"/>
<text text-anchor="middle" x="1056.2" y="-119.5" font-family="Helvetica,sans-Serif" font-size="10.00">leaf&#45;node&#45;mesh.h</text>
</a>
</g>
</g>
<!-- Node3&#45;&gt;Node29 -->
<g id="edge34" class="edge"><title>Node3&#45;&gt;Node29</title>
<path fill="none" stroke="midnightblue" d="M866.086,-169.037C907.502,-159.008 978.378,-141.845 1020.9,-131.548"/>
<polygon fill="midnightblue" stroke="midnightblue" points="865.121,-165.669 856.226,-171.424 866.769,-172.473 865.121,-165.669"/>
</g>
<!-- Node5 -->
<g id="node5" class="node"><title>Node5</title>
<g id="a_node5"><a xlink:href="a00078.html" target="_top" xlink:title="bodytreewidget.hh">
<polygon fill="white" stroke="black" points="1071.2,-56.5 1071.2,-75.5 1167.2,-75.5 1167.2,-56.5 1071.2,-56.5"/>
<text text-anchor="middle" x="1119.2" y="-63.5" font-family="Helvetica,sans-Serif" font-size="10.00">bodytreewidget.hh</text>
</a>
</g>
</g>
<!-- Node4&#45;&gt;Node5 -->
<g id="edge4" class="edge"><title>Node4&#45;&gt;Node5</title>
<path fill="none" stroke="midnightblue" d="M1145.14,-103.855C1138.56,-94.5048 1130.69,-83.3265 1125.36,-75.7511"/>
<polygon fill="midnightblue" stroke="midnightblue" points="1142.31,-105.919 1150.93,-112.083 1148.03,-101.891 1142.31,-105.919"/>
</g>
<!-- Node6 -->
<g id="node6" class="node"><title>Node6</title>
<g id="a_node6"><a xlink:href="a00103.html" target="_top" xlink:title="mainwindow.hh">
<polygon fill="white" stroke="black" points="1185.2,-56.5 1185.2,-75.5 1269.2,-75.5 1269.2,-56.5 1185.2,-56.5"/>
<text text-anchor="middle" x="1227.2" y="-63.5" font-family="Helvetica,sans-Serif" font-size="10.00">mainwindow.hh</text>
</a>
</g>
</g>
<!-- Node4&#45;&gt;Node6 -->
<g id="edge5" class="edge"><title>Node4&#45;&gt;Node6</title>
<path fill="none" stroke="midnightblue" d="M1176.51,-106.101C1189.11,-96.3824 1205.13,-84.0269 1215.75,-75.8339"/>
<polygon fill="midnightblue" stroke="midnightblue" points="1174.23,-103.445 1168.45,-112.324 1178.5,-108.987 1174.23,-103.445"/>
</g>
<!-- Node4&#45;&gt;Node7 -->
<g id="edge6" class="edge"><title>Node4&#45;&gt;Node7</title>
<path fill="none" stroke="midnightblue" d="M1201.31,-110.024C1242.3,-99.8232 1302.5,-84.8414 1339.98,-75.5164"/>
<polygon fill="midnightblue" stroke="midnightblue" points="1200.44,-106.632 1191.59,-112.444 1202.13,-113.425 1200.44,-106.632"/>
</g>
<!-- Node9 -->
<g id="node9" class="node"><title>Node9</title>
<g id="a_node9"><a xlink:href="a00096.html" target="_top" xlink:title="leaf&#45;node&#45;light.h">
<polygon fill="white" stroke="black" points="838.201,-0.5 838.201,-19.5 924.201,-19.5 924.201,-0.5 838.201,-0.5"/>
<text text-anchor="middle" x="881.201" y="-7.5" font-family="Helvetica,sans-Serif" font-size="10.00">leaf&#45;node&#45;light.h</text>
</a>
</g>
</g>
<!-- Node4&#45;&gt;Node9 -->
<g id="edge8" class="edge"><title>Node4&#45;&gt;Node9</title>
<path fill="none" stroke="midnightblue" d="M1130.14,-108.146C1091.56,-89.8396 1024.77,-58.2115 1019.2,-56 982.543,-41.4558 939.131,-27.8767 910.923,-19.5182"/>
<polygon fill="midnightblue" stroke="midnightblue" points="1128.75,-111.361 1139.28,-112.487 1131.75,-105.037 1128.75,-111.361"/>
</g>
<!-- Node4&#45;&gt;Node10 -->
<g id="edge9" class="edge"><title>Node4&#45;&gt;Node10</title>
<path fill="none" stroke="midnightblue" d="M1203.56,-114.126C1228.82,-108.095 1258.79,-96.8558 1278.2,-76 1292.94,-60.1651 1296.31,-33.5138 1297.04,-19.775"/>
<polygon fill="midnightblue" stroke="midnightblue" points="1202.81,-110.707 1193.79,-116.262 1204.31,-117.546 1202.81,-110.707"/>
</g>
<!-- Node4&#45;&gt;Node11 -->
<g id="edge10" class="edge"><title>Node4&#45;&gt;Node11</title>
<path fill="none" stroke="midnightblue" d="M1114.6,-109.701C1086.86,-101.717 1050.2,-89.9724 1019.2,-76 1003.22,-68.7958 1001.95,-61.1889 985.201,-56 872.732,-21.1507 512.961,-13.2176 383.324,-11.4735"/>
<polygon fill="midnightblue" stroke="midnightblue" points="1113.81,-113.116 1124.39,-112.469 1115.72,-106.38 1113.81,-113.116"/>
</g>
<!-- Node12 -->
<g id="node12" class="node"><title>Node12</title>
<g id="a_node12"><a xlink:href="a00125.html" target="_top" xlink:title="urdf&#45;parser.h">
<polygon fill="white" stroke="black" points="905.701,-56.5 905.701,-75.5 976.701,-75.5 976.701,-56.5 905.701,-56.5"/>
<text text-anchor="middle" x="941.201" y="-63.5" font-family="Helvetica,sans-Serif" font-size="10.00">urdf&#45;parser.h</text>
</a>
</g>
</g>
<!-- Node4&#45;&gt;Node12 -->
<g id="edge11" class="edge"><title>Node4&#45;&gt;Node12</title>
<path fill="none" stroke="midnightblue" d="M1113.04,-109.959C1072.24,-99.7598 1012.49,-84.8217 975.267,-75.5164"/>
<polygon fill="midnightblue" stroke="midnightblue" points="1112.42,-113.414 1122.97,-112.444 1114.12,-106.623 1112.42,-113.414"/>
</g>
<!-- Node8 -->
<g id="node8" class="node"><title>Node8</title>
<g id="a_node8"><a xlink:href="a00110.html" target="_top" xlink:title="osgwidget.hh">
<polygon fill="white" stroke="black" points="1429.2,-0.5 1429.2,-19.5 1503.2,-19.5 1503.2,-0.5 1429.2,-0.5"/>
<text text-anchor="middle" x="1466.2" y="-7.5" font-family="Helvetica,sans-Serif" font-size="10.00">osgwidget.hh</text>
</a>
</g>
</g>
<!-- Node7&#45;&gt;Node8 -->
<g id="edge7" class="edge"><title>Node7&#45;&gt;Node8</title>
<path fill="none" stroke="midnightblue" d="M1397.75,-51.1774C1414.68,-41.2407 1436.98,-28.1492 1451.46,-19.6545"/>
<polygon fill="midnightblue" stroke="midnightblue" points="1395.83,-48.2435 1388.98,-56.324 1399.38,-54.2804 1395.83,-48.2435"/>
</g>
<!-- Node18 -->
<g id="node18" class="node"><title>Node18</title>
<g id="a_node18"><a xlink:href="a00088.html" target="_top" xlink:title="leaf&#45;node&#45;arrow.h">
<polygon fill="white" stroke="black" points="460.201,-56.5 460.201,-75.5 552.201,-75.5 552.201,-56.5 460.201,-56.5"/>
<text text-anchor="middle" x="506.201" y="-63.5" font-family="Helvetica,sans-Serif" font-size="10.00">leaf&#45;node&#45;arrow.h</text>
</a>
</g>
</g>
<!-- Node17&#45;&gt;Node18 -->
<g id="edge18" class="edge"><title>Node17&#45;&gt;Node18</title>
<path fill="none" stroke="midnightblue" d="M586.145,-107.726C566.517,-97.7271 540.173,-84.3065 523.189,-75.6545"/>
<polygon fill="midnightblue" stroke="midnightblue" points="584.671,-110.903 595.17,-112.324 587.848,-104.666 584.671,-110.903"/>
</g>
<!-- Node19 -->
<g id="node19" class="node"><title>Node19</title>
<g id="a_node19"><a xlink:href="a00089.html" target="_top" xlink:title="leaf&#45;node&#45;box.h">
<polygon fill="white" stroke="black" points="570.701,-56.5 570.701,-75.5 653.701,-75.5 653.701,-56.5 570.701,-56.5"/>
<text text-anchor="middle" x="612.201" y="-63.5" font-family="Helvetica,sans-Serif" font-size="10.00">leaf&#45;node&#45;box.h</text>
</a>
</g>
</g>
<!-- Node17&#45;&gt;Node19 -->
<g id="edge19" class="edge"><title>Node17&#45;&gt;Node19</title>
<path fill="none" stroke="midnightblue" d="M612.201,-101.805C612.201,-92.9102 612.201,-82.7798 612.201,-75.7511"/>
<polygon fill="midnightblue" stroke="midnightblue" points="608.701,-102.083 612.201,-112.083 615.701,-102.083 608.701,-102.083"/>
</g>
<!-- Node20 -->
<g id="node20" class="node"><title>Node20</title>
<g id="a_node20"><a xlink:href="a00090.html" target="_top" xlink:title="leaf&#45;node&#45;capsule.h">
<polygon fill="white" stroke="black" points="786.701,-56.5 786.701,-75.5 887.701,-75.5 887.701,-56.5 786.701,-56.5"/>
<text text-anchor="middle" x="837.201" y="-63.5" font-family="Helvetica,sans-Serif" font-size="10.00">leaf&#45;node&#45;capsule.h</text>
</a>
</g>
</g>
<!-- Node17&#45;&gt;Node20 -->
<g id="edge20" class="edge"><title>Node17&#45;&gt;Node20</title>
<path fill="none" stroke="midnightblue" d="M657.666,-110.088C700.174,-99.8865 762.779,-84.8612 801.716,-75.5164"/>
<polygon fill="midnightblue" stroke="midnightblue" points="656.76,-106.706 647.853,-112.444 658.393,-113.513 656.76,-106.706"/>
</g>
<!-- Node21 -->
<g id="node21" class="node"><title>Node21</title>
<g id="a_node21"><a xlink:href="a00092.html" target="_top" xlink:title="leaf&#45;node&#45;cone.h">
<polygon fill="white" stroke="black" points="13.7008,-56.5 13.7008,-75.5 102.701,-75.5 102.701,-56.5 13.7008,-56.5"/>
<text text-anchor="middle" x="58.2008" y="-63.5" font-family="Helvetica,sans-Serif" font-size="10.00">leaf&#45;node&#45;cone.h</text>
</a>
</g>
</g>
<!-- Node17&#45;&gt;Node21 -->
<g id="edge22" class="edge"><title>Node17&#45;&gt;Node21</title>
<path fill="none" stroke="midnightblue" d="M557.814,-111.935C359.234,-87.6926 306.124,-100.334 111.201,-76 108.515,-75.6647 105.758,-75.2899 102.979,-74.8888"/>
<polygon fill="midnightblue" stroke="midnightblue" points="557.643,-115.44 567.997,-113.195 558.503,-108.493 557.643,-115.44"/>
</g>
<!-- Node22 -->
<g id="node22" class="node"><title>Node22</title>
<g id="a_node22"><a xlink:href="a00093.html" target="_top" xlink:title="leaf&#45;node&#45;cylinder.h">
<polygon fill="white" stroke="black" points="120.701,-56.5 120.701,-75.5 221.701,-75.5 221.701,-56.5 120.701,-56.5"/>
<text text-anchor="middle" x="171.201" y="-63.5" font-family="Helvetica,sans-Serif" font-size="10.00">leaf&#45;node&#45;cylinder.h</text>
</a>
</g>
</g>
<!-- Node17&#45;&gt;Node22 -->
<g id="edge23" class="edge"><title>Node17&#45;&gt;Node22</title>
<path fill="none" stroke="midnightblue" d="M557.751,-111.871C411.779,-91.8203 372.775,-94.6662 230.201,-76 227.427,-75.6368 224.582,-75.2501 221.711,-74.849"/>
<polygon fill="midnightblue" stroke="midnightblue" points="557.599,-115.384 567.985,-113.29 558.56,-108.45 557.599,-115.384"/>
</g>
<!-- Node23 -->
<g id="node23" class="node"><title>Node23</title>
<g id="a_node23"><a xlink:href="a00099.html" target="_top" xlink:title="leaf&#45;node&#45;sphere.h">
<polygon fill="white" stroke="black" points="671.701,-56.5 671.701,-75.5 768.701,-75.5 768.701,-56.5 671.701,-56.5"/>
<text text-anchor="middle" x="720.201" y="-63.5" font-family="Helvetica,sans-Serif" font-size="10.00">leaf&#45;node&#45;sphere.h</text>
</a>
</g>
</g>
<!-- Node17&#45;&gt;Node23 -->
<g id="edge24" class="edge"><title>Node17&#45;&gt;Node23</title>
<path fill="none" stroke="midnightblue" d="M638.749,-107.726C658.747,-97.7271 685.588,-84.3065 702.892,-75.6545"/>
<polygon fill="midnightblue" stroke="midnightblue" points="636.932,-104.721 629.553,-112.324 640.062,-110.982 636.932,-104.721"/>
</g>
<!-- Node24 -->
<g id="node24" class="node"><title>Node24</title>
<g id="a_node24"><a xlink:href="a00097.html" target="_top" xlink:title="leaf&#45;node&#45;line.h">
<polygon fill="white" stroke="black" points="239.701,-56.5 239.701,-75.5 322.701,-75.5 322.701,-56.5 239.701,-56.5"/>
<text text-anchor="middle" x="281.201" y="-63.5" font-family="Helvetica,sans-Serif" font-size="10.00">leaf&#45;node&#45;line.h</text>
</a>
</g>
</g>
<!-- Node17&#45;&gt;Node24 -->
<g id="edge26" class="edge"><title>Node17&#45;&gt;Node24</title>
<path fill="none" stroke="midnightblue" d="M557.891,-111.802C456.288,-95.2526 429.195,-92.5539 331.201,-76 328.505,-75.5446 325.729,-75.0675 322.931,-74.5806"/>
<polygon fill="midnightblue" stroke="midnightblue" points="557.527,-115.289 567.961,-113.448 558.656,-108.381 557.527,-115.289"/>
</g>
<!-- Node25 -->
<g id="node25" class="node"><title>Node25</title>
<g id="a_node25"><a xlink:href="a00100.html" target="_top" xlink:title="leaf&#45;node&#45;xyzaxis.h">
<polygon fill="white" stroke="black" points="340.701,-56.5 340.701,-75.5 441.701,-75.5 441.701,-56.5 340.701,-56.5"/>
<text text-anchor="middle" x="391.201" y="-63.5" font-family="Helvetica,sans-Serif" font-size="10.00">leaf&#45;node&#45;xyzaxis.h</text>
</a>
</g>
</g>
<!-- Node17&#45;&gt;Node25 -->
<g id="edge28" class="edge"><title>Node17&#45;&gt;Node25</title>
<path fill="none" stroke="midnightblue" d="M567.279,-110.024C525.533,-99.8232 464.219,-84.8414 426.055,-75.5164"/>
<polygon fill="midnightblue" stroke="midnightblue" points="566.638,-113.47 577.183,-112.444 568.299,-106.67 566.638,-113.47"/>
</g>
<!-- Node20&#45;&gt;Node10 -->
<g id="edge21" class="edge"><title>Node20&#45;&gt;Node10</title>
<path fill="none" stroke="midnightblue" d="M898.007,-55.8033C1041.38,-37.0138 1199.97,-20.6772 1265.95,-14.0809"/>
<polygon fill="midnightblue" stroke="midnightblue" points="897.169,-52.3833 887.713,-57.1602 898.084,-59.3233 897.169,-52.3833"/>
</g>
<!-- Node23&#45;&gt;Node9 -->
<g id="edge25" class="edge"><title>Node23&#45;&gt;Node9</title>
<path fill="none" stroke="midnightblue" d="M755.466,-53.172C785.782,-43.0039 828.771,-28.5852 855.809,-19.5164"/>
<polygon fill="midnightblue" stroke="midnightblue" points="754.08,-49.9452 745.712,-56.4435 756.306,-56.5819 754.08,-49.9452"/>
</g>
<!-- Node24&#45;&gt;Node11 -->
<g id="edge27" class="edge"><title>Node24&#45;&gt;Node11</title>
<path fill="none" stroke="midnightblue" d="M297.495,-49.0024C307.241,-39.4329 319.254,-27.6389 327.288,-19.7511"/>
<polygon fill="midnightblue" stroke="midnightblue" points="294.967,-46.5796 290.283,-56.083 299.871,-51.5746 294.967,-46.5796"/>
</g>
<!-- Node25&#45;&gt;Node11 -->
<g id="edge29" class="edge"><title>Node25&#45;&gt;Node11</title>
<path fill="none" stroke="midnightblue" d="M374.907,-49.0024C365.16,-39.4329 353.148,-27.6389 345.114,-19.7511"/>
<polygon fill="midnightblue" stroke="midnightblue" points="372.531,-51.5746 382.119,-56.083 377.435,-46.5796 372.531,-51.5746"/>
</g>
<!-- Node26&#45;&gt;Node12 -->
<g id="edge31" class="edge"><title>Node26&#45;&gt;Node12</title>
<path fill="none" stroke="midnightblue" d="M767.512,-110.024C808.693,-99.8232 869.174,-84.8414 906.82,-75.5164"/>
<polygon fill="midnightblue" stroke="midnightblue" points="766.609,-106.642 757.744,-112.444 768.292,-113.436 766.609,-106.642"/>
</g>
<!-- Node30&#45;&gt;Node31 -->
<g id="edge37" class="edge"><title>Node30&#45;&gt;Node31</title>
<path fill="none" stroke="midnightblue" d="M1581.2,-157.805C1581.2,-148.91 1581.2,-138.78 1581.2,-131.751"/>
<polygon fill="midnightblue" stroke="midnightblue" points="1577.7,-158.083 1581.2,-168.083 1584.7,-158.083 1577.7,-158.083"/>
</g>
<!-- Node32 -->
<g id="node32" class="node"><title>Node32</title>
<g id="a_node32"><a xlink:href="a00128.html" target="_top" xlink:title="windows&#45;manager.hh">
<polygon fill="white" stroke="black" points="1495.7,-56.5 1495.7,-75.5 1604.7,-75.5 1604.7,-56.5 1495.7,-56.5"/>
<text text-anchor="middle" x="1550.2" y="-63.5" font-family="Helvetica,sans-Serif" font-size="10.00">windows&#45;manager.hh</text>
</a>
</g>
</g>
<!-- Node31&#45;&gt;Node32 -->
<g id="edge38" class="edge"><title>Node31&#45;&gt;Node32</title>
<path fill="none" stroke="midnightblue" d="M1571.03,-103.275C1565.73,-94.0454 1559.48,-83.1703 1555.22,-75.7511"/>
<polygon fill="midnightblue" stroke="midnightblue" points="1568.07,-105.153 1576.08,-112.083 1574.14,-101.668 1568.07,-105.153"/>
</g>
<!-- Node32&#45;&gt;Node8 -->
<g id="edge39" class="edge"><title>Node32&#45;&gt;Node8</title>
<path fill="none" stroke="midnightblue" d="M1528.27,-50.9005C1512.87,-40.9986 1492.75,-28.0705 1479.66,-19.6545"/>
<polygon fill="midnightblue" stroke="midnightblue" points="1526.4,-53.8605 1536.7,-56.324 1530.19,-47.9722 1526.4,-53.8605"/>
</g>
<!-- Node34&#45;&gt;Node3 -->
<g id="edge42" class="edge"><title>Node34&#45;&gt;Node3</title>
<path fill="none" stroke="midnightblue" d="M916.439,-219.862C896.042,-209.849 868.535,-196.346 850.83,-187.655"/>
<polygon fill="midnightblue" stroke="midnightblue" points="915.008,-223.059 925.527,-224.324 918.093,-216.775 915.008,-223.059"/>
</g>
</g>
</svg>
