<?xml version="1.0" encoding="UTF-8" standalone="no"?>
<!DOCTYPE svg PUBLIC "-//W3C//DTD SVG 1.1//EN"
 "http://www.w3.org/Graphics/SVG/1.1/DTD/svg11.dtd">
<!-- Generated by graphviz version 2.38.0 (20140413.2041)
 -->
<!-- Title: action&#45;search&#45;bar.hh Pages: 1 -->
<svg width="647pt" height="263pt"
 viewBox="0.00 0.00 646.50 263.00" xmlns="http://www.w3.org/2000/svg" xmlns:xlink="http://www.w3.org/1999/xlink">
<g id="graph0" class="graph" transform="scale(1 1) rotate(0) translate(4 259)">
<title>action&#45;search&#45;bar.hh</title>
<polygon fill="white" stroke="none" points="-4,4 -4,-259 642.5,-259 642.5,4 -4,4"/>
<!-- Node1 -->
<g id="node1" class="node"><title>Node1</title>
<polygon fill="#bfbfbf" stroke="black" points="107,-235.5 107,-254.5 212,-254.5 212,-235.5 107,-235.5"/>
<text text-anchor="middle" x="159.5" y="-242.5" font-family="Helvetica,sans-Serif" font-size="10.00">action&#45;search&#45;bar.hh</text>
</g>
<!-- Node2 -->
<g id="node2" class="node"><title>Node2</title>
<polygon fill="white" stroke="#bfbfbf" points="0,-179.5 0,-198.5 43,-198.5 43,-179.5 0,-179.5"/>
<text text-anchor="middle" x="21.5" y="-186.5" font-family="Helvetica,sans-Serif" font-size="10.00">QMap</text>
</g>
<!-- Node1&#45;&gt;Node2 -->
<g id="edge1" class="edge"><title>Node1&#45;&gt;Node2</title>
<path fill="none" stroke="midnightblue" d="M137.633,-235.444C114.721,-226.478 78.5247,-212.314 52.6335,-202.183"/>
<polygon fill="midnightblue" stroke="midnightblue" points="53.8521,-198.901 43.2642,-198.516 51.3012,-205.42 53.8521,-198.901"/>
</g>
<!-- Node3 -->
<g id="node3" class="node"><title>Node3</title>
<polygon fill="white" stroke="#bfbfbf" points="61.5,-179.5 61.5,-198.5 111.5,-198.5 111.5,-179.5 61.5,-179.5"/>
<text text-anchor="middle" x="86.5" y="-186.5" font-family="Helvetica,sans-Serif" font-size="10.00">QString</text>
</g>
<!-- Node1&#45;&gt;Node3 -->
<g id="edge2" class="edge"><title>Node1&#45;&gt;Node3</title>
<path fill="none" stroke="midnightblue" d="M147.771,-235.324C136.663,-227.107 119.758,-214.602 106.517,-204.807"/>
<polygon fill="midnightblue" stroke="midnightblue" points="108.563,-201.967 98.4421,-198.834 104.4,-207.595 108.563,-201.967"/>
</g>
<!-- Node4 -->
<g id="node4" class="node"><title>Node4</title>
<polygon fill="white" stroke="#bfbfbf" points="130,-179.5 130,-198.5 189,-198.5 189,-179.5 130,-179.5"/>
<text text-anchor="middle" x="159.5" y="-186.5" font-family="Helvetica,sans-Serif" font-size="10.00">QLineEdit</text>
</g>
<!-- Node1&#45;&gt;Node4 -->
<g id="edge3" class="edge"><title>Node1&#45;&gt;Node4</title>
<path fill="none" stroke="midnightblue" d="M159.5,-235.083C159.5,-228.006 159.5,-217.861 159.5,-208.986"/>
<polygon fill="midnightblue" stroke="midnightblue" points="163,-208.751 159.5,-198.751 156,-208.751 163,-208.751"/>
</g>
<!-- Node5 -->
<g id="node5" class="node"><title>Node5</title>
<polygon fill="white" stroke="#bfbfbf" points="207.5,-179.5 207.5,-198.5 299.5,-198.5 299.5,-179.5 207.5,-179.5"/>
<text text-anchor="middle" x="253.5" y="-186.5" font-family="Helvetica,sans-Serif" font-size="10.00">QStringListModel</text>
</g>
<!-- Node1&#45;&gt;Node5 -->
<g id="edge4" class="edge"><title>Node1&#45;&gt;Node5</title>
<path fill="none" stroke="midnightblue" d="M174.603,-235.324C189.403,-226.822 212.194,-213.729 229.482,-203.797"/>
<polygon fill="midnightblue" stroke="midnightblue" points="231.507,-206.671 238.435,-198.655 228.02,-200.601 231.507,-206.671"/>
</g>
<!-- Node6 -->
<g id="node6" class="node"><title>Node6</title>
<g id="a_node6"><a xlink:href="a00085.html" target="_top" xlink:title="gepetto/gui/fwd.hh">
<polygon fill="white" stroke="black" points="318,-179.5 318,-198.5 415,-198.5 415,-179.5 318,-179.5"/>
<text text-anchor="middle" x="366.5" y="-186.5" font-family="Helvetica,sans-Serif" font-size="10.00">gepetto/gui/fwd.hh</text>
</a>
</g>
</g>
<!-- Node1&#45;&gt;Node6 -->
<g id="edge5" class="edge"><title>Node1&#45;&gt;Node6</title>
<path fill="none" stroke="midnightblue" d="M192.3,-235.444C227.88,-226.162 284.814,-211.309 323.847,-201.127"/>
<polygon fill="midnightblue" stroke="midnightblue" points="325.061,-204.427 333.854,-198.516 323.294,-197.654 325.061,-204.427"/>
</g>
<!-- Node7 -->
<g id="node7" class="node"><title>Node7</title>
<polygon fill="white" stroke="#bfbfbf" points="184.5,-118 184.5,-137 228.5,-137 228.5,-118 184.5,-118"/>
<text text-anchor="middle" x="206.5" y="-125" font-family="Helvetica,sans-Serif" font-size="10.00">vector</text>
</g>
<!-- Node6&#45;&gt;Node7 -->
<g id="edge6" class="edge"><title>Node6&#45;&gt;Node7</title>
<path fill="none" stroke="midnightblue" d="M339.521,-179.477C313.214,-170.959 272.211,-157.129 237.5,-143 236.124,-142.44 234.722,-141.851 233.31,-141.244"/>
<polygon fill="midnightblue" stroke="midnightblue" points="234.624,-137.997 224.067,-137.096 231.758,-144.384 234.624,-137.997"/>
</g>
<!-- Node8 -->
<g id="node8" class="node"><title>Node8</title>
<polygon fill="white" stroke="#bfbfbf" points="247,-118 247,-137 302,-137 302,-118 247,-118"/>
<text text-anchor="middle" x="274.5" y="-125" font-family="Helvetica,sans-Serif" font-size="10.00">QtGlobal</text>
</g>
<!-- Node6&#45;&gt;Node8 -->
<g id="edge7" class="edge"><title>Node6&#45;&gt;Node8</title>
<path fill="none" stroke="midnightblue" d="M353.319,-179.475C338.426,-169.843 313.956,-154.017 296.227,-142.552"/>
<polygon fill="midnightblue" stroke="midnightblue" points="297.955,-139.501 287.657,-137.009 294.153,-145.379 297.955,-139.501"/>
</g>
<!-- Node9 -->
<g id="node9" class="node"><title>Node9</title>
<polygon fill="white" stroke="#bfbfbf" points="320.5,-118 320.5,-137 362.5,-137 362.5,-118 320.5,-118"/>
<text text-anchor="middle" x="341.5" y="-125" font-family="Helvetica,sans-Serif" font-size="10.00">QtGui</text>
</g>
<!-- Node6&#45;&gt;Node9 -->
<g id="edge8" class="edge"><title>Node6&#45;&gt;Node9</title>
<path fill="none" stroke="midnightblue" d="M362.918,-179.475C359.317,-170.904 353.654,-157.427 349.056,-146.483"/>
<polygon fill="midnightblue" stroke="midnightblue" points="352.176,-144.873 345.075,-137.009 345.722,-147.584 352.176,-144.873"/>
</g>
<!-- Node10 -->
<g id="node10" class="node"><title>Node10</title>
<g id="a_node10"><a xlink:href="a00102.html" target="_top" xlink:title="gepetto/viewer/macros.h">
<polygon fill="white" stroke="black" points="369.5,-56.5 369.5,-75.5 493.5,-75.5 493.5,-56.5 369.5,-56.5"/>
<text text-anchor="middle" x="431.5" y="-63.5" font-family="Helvetica,sans-Serif" font-size="10.00">gepetto/viewer/macros.h</text>
</a>
</g>
</g>
<!-- Node6&#45;&gt;Node10 -->
<g id="edge9" class="edge"><title>Node6&#45;&gt;Node10</title>
<path fill="none" stroke="midnightblue" d="M371.175,-179.298C381.809,-159.502 407.981,-110.782 422.103,-84.4932"/>
<polygon fill="midnightblue" stroke="midnightblue" points="425.219,-86.0889 426.868,-75.6232 419.052,-82.7762 425.219,-86.0889"/>
</g>
<!-- Node14 -->
<g id="node14" class="node"><title>Node14</title>
<g id="a_node14"><a xlink:href="a00084.html" target="_top" xlink:title="gepetto/viewer/fwd.h">
<polygon fill="white" stroke="black" points="419,-118 419,-137 526,-137 526,-118 419,-118"/>
<text text-anchor="middle" x="472.5" y="-125" font-family="Helvetica,sans-Serif" font-size="10.00">gepetto/viewer/fwd.h</text>
</a>
</g>
</g>
<!-- Node6&#45;&gt;Node14 -->
<g id="edge13" class="edge"><title>Node6&#45;&gt;Node14</title>
<path fill="none" stroke="midnightblue" d="M381.687,-179.475C399.162,-169.666 428.079,-153.435 448.583,-141.925"/>
<polygon fill="midnightblue" stroke="midnightblue" points="450.334,-144.956 457.341,-137.009 446.908,-138.852 450.334,-144.956"/>
</g>
<!-- Node15 -->
<g id="node15" class="node"><title>Node15</title>
<polygon fill="white" stroke="#bfbfbf" points="544.5,-112.5 544.5,-142.5 638.5,-142.5 638.5,-112.5 544.5,-112.5"/>
<text text-anchor="start" x="552.5" y="-130.5" font-family="Helvetica,sans-Serif" font-size="10.00">gepetto/gui/config</text>
<text text-anchor="middle" x="591.5" y="-119.5" font-family="Helvetica,sans-Serif" font-size="10.00">&#45;dep.hh</text>
</g>
<!-- Node6&#45;&gt;Node15 -->
<g id="edge15" class="edge"><title>Node6&#45;&gt;Node15</title>
<path fill="none" stroke="midnightblue" d="M398.737,-179.475C434.135,-170.114 491.653,-154.904 534.662,-143.53"/>
<polygon fill="midnightblue" stroke="midnightblue" points="535.658,-146.887 544.431,-140.947 533.869,-140.12 535.658,-146.887"/>
</g>
<!-- Node11 -->
<g id="node11" class="node"><title>Node11</title>
<polygon fill="white" stroke="#bfbfbf" points="254.5,-0.5 254.5,-19.5 362.5,-19.5 362.5,-0.5 254.5,-0.5"/>
<text text-anchor="middle" x="308.5" y="-7.5" font-family="Helvetica,sans-Serif" font-size="10.00">boost/shared_ptr.hpp</text>
</g>
<!-- Node10&#45;&gt;Node11 -->
<g id="edge10" class="edge"><title>Node10&#45;&gt;Node11</title>
<path fill="none" stroke="midnightblue" d="M412.01,-56.4435C391.858,-47.5961 360.177,-33.6875 337.169,-23.5865"/>
<polygon fill="midnightblue" stroke="midnightblue" points="338.462,-20.3316 327.899,-19.5164 335.648,-26.7411 338.462,-20.3316"/>
</g>
<!-- Node12 -->
<g id="node12" class="node"><title>Node12</title>
<polygon fill="white" stroke="#bfbfbf" points="380.5,-0.5 380.5,-19.5 482.5,-19.5 482.5,-0.5 380.5,-0.5"/>
<text text-anchor="middle" x="431.5" y="-7.5" font-family="Helvetica,sans-Serif" font-size="10.00">boost/weak_ptr.hpp</text>
</g>
<!-- Node10&#45;&gt;Node12 -->
<g id="edge11" class="edge"><title>Node10&#45;&gt;Node12</title>
<path fill="none" stroke="midnightblue" d="M431.5,-56.083C431.5,-49.0059 431.5,-38.8611 431.5,-29.9865"/>
<polygon fill="midnightblue" stroke="midnightblue" points="435,-29.751 431.5,-19.7511 428,-29.7511 435,-29.751"/>
</g>
<!-- Node13 -->
<g id="node13" class="node"><title>Node13</title>
<polygon fill="white" stroke="#bfbfbf" points="501,-0.5 501,-19.5 564,-19.5 564,-0.5 501,-0.5"/>
<text text-anchor="middle" x="532.5" y="-7.5" font-family="Helvetica,sans-Serif" font-size="10.00">osg/ref_ptr</text>
</g>
<!-- Node10&#45;&gt;Node13 -->
<g id="edge12" class="edge"><title>Node10&#45;&gt;Node13</title>
<path fill="none" stroke="midnightblue" d="M447.727,-56.324C463.851,-47.7034 488.8,-34.3643 507.464,-24.3855"/>
<polygon fill="midnightblue" stroke="midnightblue" points="509.144,-27.456 516.313,-19.6545 505.844,-21.283 509.144,-27.456"/>
</g>
<!-- Node14&#45;&gt;Node10 -->
<g id="edge14" class="edge"><title>Node14&#45;&gt;Node10</title>
<path fill="none" stroke="midnightblue" d="M466.626,-117.975C460.537,-109.138 450.855,-95.0886 443.197,-83.975"/>
<polygon fill="midnightblue" stroke="midnightblue" points="445.92,-81.7575 437.363,-75.5091 440.156,-85.7294 445.92,-81.7575"/>
</g>
</g>
</svg>
