<?xml version="1.0" encoding="UTF-8" standalone="no"?>
<!DOCTYPE svg PUBLIC "-//W3C//DTD SVG 1.1//EN"
 "http://www.w3.org/Graphics/SVG/1.1/DTD/svg11.dtd">
<!-- Generated by graphviz version 2.38.0 (20140413.2041)
 -->
<!-- Title: mainwindow.hh Pages: 1 -->
<svg width="1961pt" height="464pt"
 viewBox="0.00 0.00 1961.00 464.00" xmlns="http://www.w3.org/2000/svg" xmlns:xlink="http://www.w3.org/1999/xlink">
<g id="graph0" class="graph" transform="scale(1 1) rotate(0) translate(4 460)">
<title>mainwindow.hh</title>
<polygon fill="white" stroke="none" points="-4,4 -4,-460 1957,-460 1957,4 -4,4"/>
<!-- Node1 -->
<g id="node1" class="node"><title>Node1</title>
<polygon fill="#bfbfbf" stroke="black" points="1372.5,-436.5 1372.5,-455.5 1456.5,-455.5 1456.5,-436.5 1372.5,-436.5"/>
<text text-anchor="middle" x="1414.5" y="-443.5" font-family="Helvetica,sans-Serif" font-size="10.00">mainwindow.hh</text>
</g>
<!-- Node2 -->
<g id="node2" class="node"><title>Node2</title>
<g id="a_node2"><a xlink:href="a00085.html" target="_top" xlink:title="gepetto/gui/fwd.hh">
<polygon fill="white" stroke="black" points="148,-241 148,-260 245,-260 245,-241 148,-241"/>
<text text-anchor="middle" x="196.5" y="-248" font-family="Helvetica,sans-Serif" font-size="10.00">gepetto/gui/fwd.hh</text>
</a>
</g>
</g>
<!-- Node1&#45;&gt;Node2 -->
<g id="edge1" class="edge"><title>Node1&#45;&gt;Node2</title>
<path fill="none" stroke="midnightblue" d="M1372.42,-445.009C1266.62,-444.417 981.325,-439.009 747.5,-400 548.219,-366.754 316.791,-292.244 230.885,-263.307"/>
<polygon fill="midnightblue" stroke="midnightblue" points="231.97,-259.979 221.376,-260.089 229.726,-266.61 231.97,-259.979"/>
</g>
<!-- Node12 -->
<g id="node12" class="node"><title>Node12</title>
<polygon fill="white" stroke="#bfbfbf" points="1533.5,-375 1533.5,-394 1573.5,-394 1573.5,-375 1533.5,-375"/>
<text text-anchor="middle" x="1553.5" y="-382" font-family="Helvetica,sans-Serif" font-size="10.00">QList</text>
</g>
<!-- Node1&#45;&gt;Node12 -->
<g id="edge12" class="edge"><title>Node1&#45;&gt;Node12</title>
<path fill="none" stroke="midnightblue" d="M1437.04,-436.353C1459.43,-427.632 1494.62,-413.556 1524.5,-400 1525.5,-399.546 1526.52,-399.078 1527.54,-398.599"/>
<polygon fill="midnightblue" stroke="midnightblue" points="1529.26,-401.656 1536.73,-394.151 1526.21,-395.354 1529.26,-401.656"/>
</g>
<!-- Node13 -->
<g id="node13" class="node"><title>Node13</title>
<polygon fill="white" stroke="#bfbfbf" points="1592,-375 1592,-394 1701,-394 1701,-375 1592,-375"/>
<text text-anchor="middle" x="1646.5" y="-382" font-family="Helvetica,sans-Serif" font-size="10.00">QStandardItemModel</text>
</g>
<!-- Node1&#45;&gt;Node13 -->
<g id="edge13" class="edge"><title>Node1&#45;&gt;Node13</title>
<path fill="none" stroke="midnightblue" d="M1447.74,-436.475C1488.74,-425.959 1558.53,-408.062 1603.55,-396.514"/>
<polygon fill="midnightblue" stroke="midnightblue" points="1604.5,-399.884 1613.32,-394.009 1602.77,-393.103 1604.5,-399.884"/>
</g>
<!-- Node14 -->
<g id="node14" class="node"><title>Node14</title>
<polygon fill="white" stroke="#bfbfbf" points="1719.5,-375 1719.5,-394 1799.5,-394 1799.5,-375 1719.5,-375"/>
<text text-anchor="middle" x="1759.5" y="-382" font-family="Helvetica,sans-Serif" font-size="10.00">QMainWindow</text>
</g>
<!-- Node1&#45;&gt;Node14 -->
<g id="edge14" class="edge"><title>Node1&#45;&gt;Node14</title>
<path fill="none" stroke="midnightblue" d="M1456.83,-440.31C1514.41,-433.529 1620.45,-419.615 1709.5,-400 1713.72,-399.07 1718.11,-397.982 1722.45,-396.827"/>
<polygon fill="midnightblue" stroke="midnightblue" points="1723.72,-400.107 1732.42,-394.054 1721.85,-393.363 1723.72,-400.107"/>
</g>
<!-- Node15 -->
<g id="node15" class="node"><title>Node15</title>
<polygon fill="white" stroke="#bfbfbf" points="1817.5,-375 1817.5,-394 1887.5,-394 1887.5,-375 1817.5,-375"/>
<text text-anchor="middle" x="1852.5" y="-382" font-family="Helvetica,sans-Serif" font-size="10.00">QCheckBox</text>
</g>
<!-- Node1&#45;&gt;Node15 -->
<g id="edge15" class="edge"><title>Node1&#45;&gt;Node15</title>
<path fill="none" stroke="midnightblue" d="M1456.66,-443.018C1529.26,-438.978 1682.24,-427.707 1808.5,-400 1812.17,-399.194 1815.97,-398.199 1819.73,-397.11"/>
<polygon fill="midnightblue" stroke="midnightblue" points="1820.95,-400.396 1829.46,-394.078 1818.87,-393.713 1820.95,-400.396"/>
</g>
<!-- Node16 -->
<g id="node16" class="node"><title>Node16</title>
<polygon fill="white" stroke="#bfbfbf" points="1906,-375 1906,-394 1953,-394 1953,-375 1906,-375"/>
<text text-anchor="middle" x="1929.5" y="-382" font-family="Helvetica,sans-Serif" font-size="10.00">QLabel</text>
</g>
<!-- Node1&#45;&gt;Node16 -->
<g id="edge16" class="edge"><title>Node1&#45;&gt;Node16</title>
<path fill="none" stroke="midnightblue" d="M1456.54,-445.555C1541.23,-445.701 1737.85,-441.109 1896.5,-400 1898.8,-399.404 1901.14,-398.666 1903.47,-397.841"/>
<polygon fill="midnightblue" stroke="midnightblue" points="1904.78,-401.086 1912.75,-394.102 1902.16,-394.593 1904.78,-401.086"/>
</g>
<!-- Node17 -->
<g id="node17" class="node"><title>Node17</title>
<g id="a_node17"><a xlink:href="a00086.html" target="_top" xlink:title="gepetto/viewer/group\l&#45;node.h">
<polygon fill="white" stroke="black" points="757,-369.5 757,-399.5 864,-399.5 864,-369.5 757,-369.5"/>
<text text-anchor="start" x="765" y="-387.5" font-family="Helvetica,sans-Serif" font-size="10.00">gepetto/viewer/group</text>
<text text-anchor="middle" x="810.5" y="-376.5" font-family="Helvetica,sans-Serif" font-size="10.00">&#45;node.h</text>
</a>
</g>
</g>
<!-- Node1&#45;&gt;Node17 -->
<g id="edge17" class="edge"><title>Node1&#45;&gt;Node17</title>
<path fill="none" stroke="midnightblue" d="M1372.03,-440.816C1267.69,-430.537 998.29,-403.999 874.471,-391.802"/>
<polygon fill="midnightblue" stroke="midnightblue" points="874.675,-388.305 864.38,-390.808 873.989,-395.271 874.675,-388.305"/>
</g>
<!-- Node33 -->
<g id="node33" class="node"><title>Node33</title>
<g id="a_node33"><a xlink:href="a00101.html" target="_top" xlink:title="gepetto/gui/ledindicator.hh">
<polygon fill="white" stroke="black" points="873,-308 873,-327 1004,-327 1004,-308 873,-308"/>
<text text-anchor="middle" x="938.5" y="-315" font-family="Helvetica,sans-Serif" font-size="10.00">gepetto/gui/ledindicator.hh</text>
</a>
</g>
</g>
<!-- Node1&#45;&gt;Node33 -->
<g id="edge41" class="edge"><title>Node1&#45;&gt;Node33</title>
<path fill="none" stroke="midnightblue" d="M1372.36,-442.298C1290.22,-436.612 1111.72,-422.088 1054.5,-400 1014.97,-384.741 976.151,-353.15 954.961,-334.092"/>
<polygon fill="midnightblue" stroke="midnightblue" points="957.226,-331.42 947.493,-327.233 952.49,-336.575 957.226,-331.42"/>
</g>
<!-- Node35 -->
<g id="node35" class="node"><title>Node35</title>
<g id="a_node35"><a xlink:href="a00083.html" target="_top" xlink:title="gepetto/gui/dialog\l/dialogloadrobot.hh">
<polygon fill="white" stroke="black" points="1183.5,-168.5 1183.5,-198.5 1281.5,-198.5 1281.5,-168.5 1183.5,-168.5"/>
<text text-anchor="start" x="1191.5" y="-186.5" font-family="Helvetica,sans-Serif" font-size="10.00">gepetto/gui/dialog</text>
<text text-anchor="middle" x="1232.5" y="-175.5" font-family="Helvetica,sans-Serif" font-size="10.00">/dialogloadrobot.hh</text>
</a>
</g>
</g>
<!-- Node1&#45;&gt;Node35 -->
<g id="edge43" class="edge"><title>Node1&#45;&gt;Node35</title>
<path fill="none" stroke="midnightblue" d="M1408.13,-436.232C1402.24,-427.532 1393.89,-413.572 1390.5,-400 1379.78,-357.114 1377.23,-334.22 1407.5,-302 1443.3,-263.891 1488.7,-308.252 1519.5,-266 1527.62,-254.866 1528.36,-245.553 1519.5,-235 1491.04,-201.09 1367.35,-189.943 1291.94,-186.283"/>
<polygon fill="midnightblue" stroke="midnightblue" points="1291.79,-182.773 1281.64,-185.815 1291.47,-189.766 1291.79,-182.773"/>
</g>
<!-- Node38 -->
<g id="node38" class="node"><title>Node38</title>
<g id="a_node38"><a xlink:href="a00082.html" target="_top" xlink:title="gepetto/gui/dialog\l/dialogloadenvironment.hh">
<polygon fill="white" stroke="black" points="1030.5,-168.5 1030.5,-198.5 1160.5,-198.5 1160.5,-168.5 1030.5,-168.5"/>
<text text-anchor="start" x="1038.5" y="-186.5" font-family="Helvetica,sans-Serif" font-size="10.00">gepetto/gui/dialog</text>
<text text-anchor="middle" x="1095.5" y="-175.5" font-family="Helvetica,sans-Serif" font-size="10.00">/dialogloadenvironment.hh</text>
</a>
</g>
</g>
<!-- Node1&#45;&gt;Node38 -->
<g id="edge46" class="edge"><title>Node1&#45;&gt;Node38</title>
<path fill="none" stroke="midnightblue" d="M1372.66,-436.498C1299.42,-419.101 1149.85,-371.799 1087.5,-266 1077.28,-248.655 1080.81,-225.561 1086.01,-208.386"/>
<polygon fill="midnightblue" stroke="midnightblue" points="1089.45,-209.156 1089.36,-198.561 1082.82,-206.9 1089.45,-209.156"/>
</g>
<!-- Node39 -->
<g id="node39" class="node"><title>Node39</title>
<g id="a_node39"><a xlink:href="a00114.html" target="_top" xlink:title="gepetto/gui/dialog\l/pluginmanagerdialog.hh">
<polygon fill="white" stroke="black" points="1238.5,-302.5 1238.5,-332.5 1360.5,-332.5 1360.5,-302.5 1238.5,-302.5"/>
<text text-anchor="start" x="1246.5" y="-320.5" font-family="Helvetica,sans-Serif" font-size="10.00">gepetto/gui/dialog</text>
<text text-anchor="middle" x="1299.5" y="-309.5" font-family="Helvetica,sans-Serif" font-size="10.00">/pluginmanagerdialog.hh</text>
</a>
</g>
</g>
<!-- Node1&#45;&gt;Node39 -->
<g id="edge49" class="edge"><title>Node1&#45;&gt;Node39</title>
<path fill="none" stroke="midnightblue" d="M1401.41,-436.288C1389.26,-427.843 1371.06,-414.25 1357.5,-400 1340.33,-381.953 1324.19,-358.543 1313.32,-341.446"/>
<polygon fill="midnightblue" stroke="midnightblue" points="1316.11,-339.305 1307.85,-332.672 1310.17,-343.009 1316.11,-339.305"/>
</g>
<!-- Node46 -->
<g id="node46" class="node"><title>Node46</title>
<g id="a_node46"><a xlink:href="a00121.html" target="_top" xlink:title="gepetto/gui/settings.hh">
<polygon fill="white" stroke="black" points="1399.5,-375 1399.5,-394 1515.5,-394 1515.5,-375 1399.5,-375"/>
<text text-anchor="middle" x="1457.5" y="-382" font-family="Helvetica,sans-Serif" font-size="10.00">gepetto/gui/settings.hh</text>
</a>
</g>
</g>
<!-- Node1&#45;&gt;Node46 -->
<g id="edge62" class="edge"><title>Node1&#45;&gt;Node46</title>
<path fill="none" stroke="midnightblue" d="M1420.66,-436.475C1427.11,-427.55 1437.4,-413.307 1445.47,-402.143"/>
<polygon fill="midnightblue" stroke="midnightblue" points="1448.33,-404.164 1451.35,-394.009 1442.66,-400.064 1448.33,-404.164"/>
</g>
<!-- Node3 -->
<g id="node3" class="node"><title>Node3</title>
<polygon fill="white" stroke="#bfbfbf" points="261.5,-174 261.5,-193 305.5,-193 305.5,-174 261.5,-174"/>
<text text-anchor="middle" x="283.5" y="-181" font-family="Helvetica,sans-Serif" font-size="10.00">vector</text>
</g>
<!-- Node2&#45;&gt;Node3 -->
<g id="edge2" class="edge"><title>Node2&#45;&gt;Node3</title>
<path fill="none" stroke="midnightblue" d="M208.233,-240.734C222.452,-230.111 246.627,-212.049 263.739,-199.264"/>
<polygon fill="midnightblue" stroke="midnightblue" points="266.036,-201.916 271.953,-193.127 261.847,-196.309 266.036,-201.916"/>
</g>
<!-- Node4 -->
<g id="node4" class="node"><title>Node4</title>
<polygon fill="white" stroke="#bfbfbf" points="0,-174 0,-193 55,-193 55,-174 0,-174"/>
<text text-anchor="middle" x="27.5" y="-181" font-family="Helvetica,sans-Serif" font-size="10.00">QtGlobal</text>
</g>
<!-- Node2&#45;&gt;Node4 -->
<g id="edge3" class="edge"><title>Node2&#45;&gt;Node4</title>
<path fill="none" stroke="midnightblue" d="M174.058,-240.869C144.683,-229.571 93.0098,-209.696 59.5277,-196.818"/>
<polygon fill="midnightblue" stroke="midnightblue" points="60.3555,-193.387 49.7655,-193.064 57.8426,-199.92 60.3555,-193.387"/>
</g>
<!-- Node5 -->
<g id="node5" class="node"><title>Node5</title>
<polygon fill="white" stroke="#bfbfbf" points="459.5,-174 459.5,-193 501.5,-193 501.5,-174 459.5,-174"/>
<text text-anchor="middle" x="480.5" y="-181" font-family="Helvetica,sans-Serif" font-size="10.00">QtGui</text>
</g>
<!-- Node2&#45;&gt;Node5 -->
<g id="edge4" class="edge"><title>Node2&#45;&gt;Node5</title>
<path fill="none" stroke="midnightblue" d="M245.196,-243.565C297.037,-236.387 381.01,-222.279 450.5,-199 452.122,-198.457 453.769,-197.846 455.414,-197.19"/>
<polygon fill="midnightblue" stroke="midnightblue" points="456.904,-200.357 464.623,-193.1 454.063,-193.96 456.904,-200.357"/>
</g>
<!-- Node6 -->
<g id="node6" class="node"><title>Node6</title>
<g id="a_node6"><a xlink:href="a00102.html" target="_top" xlink:title="gepetto/viewer/macros.h">
<polygon fill="white" stroke="black" points="191.5,-56.5 191.5,-75.5 315.5,-75.5 315.5,-56.5 191.5,-56.5"/>
<text text-anchor="middle" x="253.5" y="-63.5" font-family="Helvetica,sans-Serif" font-size="10.00">gepetto/viewer/macros.h</text>
</a>
</g>
</g>
<!-- Node2&#45;&gt;Node6 -->
<g id="edge5" class="edge"><title>Node2&#45;&gt;Node6</title>
<path fill="none" stroke="midnightblue" d="M178.041,-240.853C162.687,-232.532 141.884,-218.359 132.5,-199 126.49,-186.602 127.116,-180.682 132.5,-168 150.157,-126.408 195.38,-96.4494 225.26,-80.4216"/>
<polygon fill="midnightblue" stroke="midnightblue" points="227.094,-83.4135 234.368,-75.7102 223.878,-77.1961 227.094,-83.4135"/>
</g>
<!-- Node10 -->
<g id="node10" class="node"><title>Node10</title>
<g id="a_node10"><a xlink:href="a00084.html" target="_top" xlink:title="gepetto/viewer/fwd.h">
<polygon fill="white" stroke="black" points="200,-112.5 200,-131.5 307,-131.5 307,-112.5 200,-112.5"/>
<text text-anchor="middle" x="253.5" y="-119.5" font-family="Helvetica,sans-Serif" font-size="10.00">gepetto/viewer/fwd.h</text>
</a>
</g>
</g>
<!-- Node2&#45;&gt;Node10 -->
<g id="edge9" class="edge"><title>Node2&#45;&gt;Node10</title>
<path fill="none" stroke="midnightblue" d="M182.911,-240.958C161.078,-226.144 122.385,-194.712 140.5,-168 152.008,-151.031 171.041,-140.46 190.237,-133.876"/>
<polygon fill="midnightblue" stroke="midnightblue" points="191.428,-137.171 199.945,-130.868 189.357,-130.485 191.428,-137.171"/>
</g>
<!-- Node11 -->
<g id="node11" class="node"><title>Node11</title>
<polygon fill="white" stroke="#bfbfbf" points="149.5,-168.5 149.5,-198.5 243.5,-198.5 243.5,-168.5 149.5,-168.5"/>
<text text-anchor="start" x="157.5" y="-186.5" font-family="Helvetica,sans-Serif" font-size="10.00">gepetto/gui/config</text>
<text text-anchor="middle" x="196.5" y="-175.5" font-family="Helvetica,sans-Serif" font-size="10.00">&#45;dep.hh</text>
</g>
<!-- Node2&#45;&gt;Node11 -->
<g id="edge11" class="edge"><title>Node2&#45;&gt;Node11</title>
<path fill="none" stroke="midnightblue" d="M196.5,-240.734C196.5,-232.541 196.5,-219.923 196.5,-208.714"/>
<polygon fill="midnightblue" stroke="midnightblue" points="200,-208.589 196.5,-198.589 193,-208.589 200,-208.589"/>
</g>
<!-- Node7 -->
<g id="node7" class="node"><title>Node7</title>
<polygon fill="white" stroke="#bfbfbf" points="76.5,-0.5 76.5,-19.5 184.5,-19.5 184.5,-0.5 76.5,-0.5"/>
<text text-anchor="middle" x="130.5" y="-7.5" font-family="Helvetica,sans-Serif" font-size="10.00">boost/shared_ptr.hpp</text>
</g>
<!-- Node6&#45;&gt;Node7 -->
<g id="edge6" class="edge"><title>Node6&#45;&gt;Node7</title>
<path fill="none" stroke="midnightblue" d="M234.01,-56.4435C213.858,-47.5961 182.177,-33.6875 159.169,-23.5865"/>
<polygon fill="midnightblue" stroke="midnightblue" points="160.462,-20.3316 149.899,-19.5164 157.648,-26.7411 160.462,-20.3316"/>
</g>
<!-- Node8 -->
<g id="node8" class="node"><title>Node8</title>
<polygon fill="white" stroke="#bfbfbf" points="202.5,-0.5 202.5,-19.5 304.5,-19.5 304.5,-0.5 202.5,-0.5"/>
<text text-anchor="middle" x="253.5" y="-7.5" font-family="Helvetica,sans-Serif" font-size="10.00">boost/weak_ptr.hpp</text>
</g>
<!-- Node6&#45;&gt;Node8 -->
<g id="edge7" class="edge"><title>Node6&#45;&gt;Node8</title>
<path fill="none" stroke="midnightblue" d="M253.5,-56.083C253.5,-49.0059 253.5,-38.8611 253.5,-29.9865"/>
<polygon fill="midnightblue" stroke="midnightblue" points="257,-29.751 253.5,-19.7511 250,-29.7511 257,-29.751"/>
</g>
<!-- Node9 -->
<g id="node9" class="node"><title>Node9</title>
<polygon fill="white" stroke="#bfbfbf" points="323,-0.5 323,-19.5 386,-19.5 386,-0.5 323,-0.5"/>
<text text-anchor="middle" x="354.5" y="-7.5" font-family="Helvetica,sans-Serif" font-size="10.00">osg/ref_ptr</text>
</g>
<!-- Node6&#45;&gt;Node9 -->
<g id="edge8" class="edge"><title>Node6&#45;&gt;Node9</title>
<path fill="none" stroke="midnightblue" d="M269.727,-56.324C285.851,-47.7034 310.8,-34.3643 329.464,-24.3855"/>
<polygon fill="midnightblue" stroke="midnightblue" points="331.144,-27.456 338.313,-19.6545 327.844,-21.283 331.144,-27.456"/>
</g>
<!-- Node10&#45;&gt;Node6 -->
<g id="edge10" class="edge"><title>Node10&#45;&gt;Node6</title>
<path fill="none" stroke="midnightblue" d="M253.5,-112.083C253.5,-105.006 253.5,-94.8611 253.5,-85.9865"/>
<polygon fill="midnightblue" stroke="midnightblue" points="257,-85.751 253.5,-75.7511 250,-85.7511 257,-85.751"/>
</g>
<!-- Node18 -->
<g id="node18" class="node"><title>Node18</title>
<g id="a_node18"><a xlink:href="a00109.html" target="_top" xlink:title="gepetto/viewer/node.h">
<polygon fill="white" stroke="black" points="725,-308 725,-327 838,-327 838,-308 725,-308"/>
<text text-anchor="middle" x="781.5" y="-315" font-family="Helvetica,sans-Serif" font-size="10.00">gepetto/viewer/node.h</text>
</a>
</g>
</g>
<!-- Node17&#45;&gt;Node18 -->
<g id="edge18" class="edge"><title>Node17&#45;&gt;Node18</title>
<path fill="none" stroke="midnightblue" d="M804.207,-369.396C799.91,-359.763 794.177,-346.914 789.547,-336.537"/>
<polygon fill="midnightblue" stroke="midnightblue" points="792.65,-334.901 785.379,-327.195 786.257,-337.753 792.65,-334.901"/>
</g>
<!-- Node18&#45;&gt;Node10 -->
<g id="edge20" class="edge"><title>Node18&#45;&gt;Node10</title>
<path fill="none" stroke="midnightblue" d="M724.792,-309.007C639.833,-296.054 476.281,-264.333 352.5,-199 333.224,-188.826 331.719,-181.362 314.5,-168 301.244,-157.713 286.061,-146.511 274.159,-137.856"/>
<polygon fill="midnightblue" stroke="midnightblue" points="275.935,-134.822 265.783,-131.792 271.83,-140.492 275.935,-134.822"/>
</g>
<!-- Node19 -->
<g id="node19" class="node"><title>Node19</title>
<polygon fill="white" stroke="#bfbfbf" points="853.5,-174 853.5,-193 907.5,-193 907.5,-174 853.5,-174"/>
<text text-anchor="middle" x="880.5" y="-181" font-family="Helvetica,sans-Serif" font-size="10.00">iostream</text>
</g>
<!-- Node18&#45;&gt;Node19 -->
<g id="edge19" class="edge"><title>Node18&#45;&gt;Node19</title>
<path fill="none" stroke="midnightblue" d="M804.309,-307.859C822.54,-299.777 847.313,-285.941 861.5,-266 874.696,-247.452 878.857,-221.079 880.098,-203.408"/>
<polygon fill="midnightblue" stroke="midnightblue" points="883.604,-203.369 880.559,-193.221 876.611,-203.053 883.604,-203.369"/>
</g>
<!-- Node20 -->
<g id="node20" class="node"><title>Node20</title>
<g id="a_node20"><a xlink:href="a00108.html" target="_top" xlink:title="gepetto/viewer/node\l&#45;visitor.h">
<polygon fill="white" stroke="black" points="748.5,-235.5 748.5,-265.5 852.5,-265.5 852.5,-235.5 748.5,-235.5"/>
<text text-anchor="start" x="756.5" y="-253.5" font-family="Helvetica,sans-Serif" font-size="10.00">gepetto/viewer/node</text>
<text text-anchor="middle" x="800.5" y="-242.5" font-family="Helvetica,sans-Serif" font-size="10.00">&#45;visitor.h</text>
</a>
</g>
</g>
<!-- Node18&#45;&gt;Node20 -->
<g id="edge21" class="edge"><title>Node18&#45;&gt;Node20</title>
<path fill="none" stroke="midnightblue" d="M784.062,-307.734C786.482,-299.456 790.222,-286.662 793.523,-275.367"/>
<polygon fill="midnightblue" stroke="midnightblue" points="796.935,-276.169 796.382,-265.589 790.217,-274.205 796.935,-276.169"/>
</g>
<!-- Node21 -->
<g id="node21" class="node"><title>Node21</title>
<g id="a_node21"><a xlink:href="a00080.html" target="_top" xlink:title="gepetto/viewer/config\l&#45;osg.h">
<polygon fill="white" stroke="red" points="725.5,-168.5 725.5,-198.5 835.5,-198.5 835.5,-168.5 725.5,-168.5"/>
<text text-anchor="start" x="733.5" y="-186.5" font-family="Helvetica,sans-Serif" font-size="10.00">gepetto/viewer/config</text>
<text text-anchor="middle" x="780.5" y="-175.5" font-family="Helvetica,sans-Serif" font-size="10.00">&#45;osg.h</text>
</a>
</g>
</g>
<!-- Node18&#45;&gt;Node21 -->
<g id="edge40" class="edge"><title>Node18&#45;&gt;Node21</title>
<path fill="none" stroke="midnightblue" d="M770.828,-307.76C760.558,-298.595 745.703,-283.159 739.5,-266 734.816,-253.043 734.893,-247.985 739.5,-235 743.278,-224.354 750.363,-214.317 757.595,-206.039"/>
<polygon fill="midnightblue" stroke="midnightblue" points="760.201,-208.376 764.469,-198.679 755.086,-203.598 760.201,-208.376"/>
</g>
<!-- Node29 -->
<g id="node29" class="node"><title>Node29</title>
<g id="a_node29"><a xlink:href="a00106.html" target="_top" xlink:title="gepetto/viewer/node\l&#45;property.h">
<polygon fill="white" stroke="black" points="588.5,-235.5 588.5,-265.5 692.5,-265.5 692.5,-235.5 588.5,-235.5"/>
<text text-anchor="start" x="596.5" y="-253.5" font-family="Helvetica,sans-Serif" font-size="10.00">gepetto/viewer/node</text>
<text text-anchor="middle" x="640.5" y="-242.5" font-family="Helvetica,sans-Serif" font-size="10.00">&#45;property.h</text>
</a>
</g>
</g>
<!-- Node18&#45;&gt;Node29 -->
<g id="edge33" class="edge"><title>Node18&#45;&gt;Node29</title>
<path fill="none" stroke="midnightblue" d="M762.776,-307.869C741.802,-298.199 707.201,-282.249 680.149,-269.778"/>
<polygon fill="midnightblue" stroke="midnightblue" points="681.477,-266.536 670.93,-265.528 678.546,-272.893 681.477,-266.536"/>
</g>
<!-- Node20&#45;&gt;Node19 -->
<g id="edge22" class="edge"><title>Node20&#45;&gt;Node19</title>
<path fill="none" stroke="midnightblue" d="M817.859,-235.396C830.827,-224.86 848.528,-210.477 861.806,-199.689"/>
<polygon fill="midnightblue" stroke="midnightblue" points="864.245,-202.217 869.799,-193.195 859.831,-196.784 864.245,-202.217"/>
</g>
<!-- Node20&#45;&gt;Node21 -->
<g id="edge23" class="edge"><title>Node20&#45;&gt;Node21</title>
<path fill="none" stroke="midnightblue" d="M796.16,-235.396C793.723,-227.474 790.617,-217.379 787.814,-208.271"/>
<polygon fill="midnightblue" stroke="midnightblue" points="791.117,-207.105 784.831,-198.577 784.427,-209.164 791.117,-207.105"/>
</g>
<!-- Node21&#45;&gt;Node6 -->
<g id="edge32" class="edge"><title>Node21&#45;&gt;Node6</title>
<path fill="none" stroke="midnightblue" d="M785.273,-168.286C789.612,-152.403 793.431,-126.96 779.5,-112 749.233,-79.4989 463.27,-70.4169 326.153,-67.9224"/>
<polygon fill="midnightblue" stroke="midnightblue" points="325.806,-64.4159 315.746,-67.7406 325.683,-71.4149 325.806,-64.4159"/>
</g>
<!-- Node21&#45;&gt;Node10 -->
<g id="edge31" class="edge"><title>Node21&#45;&gt;Node10</title>
<path fill="none" stroke="midnightblue" d="M725.241,-170.297C720.605,-169.453 715.979,-168.672 711.5,-168 540.405,-142.315 493.326,-152.089 317.22,-132.017"/>
<polygon fill="midnightblue" stroke="midnightblue" points="317.428,-128.517 307.092,-130.846 316.624,-135.471 317.428,-128.517"/>
</g>
<!-- Node22 -->
<g id="node22" class="node"><title>Node22</title>
<polygon fill="white" stroke="#bfbfbf" points="826.5,-112.5 826.5,-131.5 894.5,-131.5 894.5,-112.5 826.5,-112.5"/>
<text text-anchor="middle" x="860.5" y="-119.5" font-family="Helvetica,sans-Serif" font-size="10.00">QMetaType</text>
</g>
<!-- Node21&#45;&gt;Node22 -->
<g id="edge24" class="edge"><title>Node21&#45;&gt;Node22</title>
<path fill="none" stroke="midnightblue" d="M799.459,-168.399C811.923,-159.129 828.197,-147.025 840.807,-137.647"/>
<polygon fill="midnightblue" stroke="midnightblue" points="842.924,-140.434 848.859,-131.658 838.747,-134.817 842.924,-140.434"/>
</g>
<!-- Node23 -->
<g id="node23" class="node"><title>Node23</title>
<polygon fill="white" stroke="#bfbfbf" points="913,-112.5 913,-131.5 976,-131.5 976,-112.5 913,-112.5"/>
<text text-anchor="middle" x="944.5" y="-119.5" font-family="Helvetica,sans-Serif" font-size="10.00">osg/Shape</text>
</g>
<!-- Node21&#45;&gt;Node23 -->
<g id="edge25" class="edge"><title>Node21&#45;&gt;Node23</title>
<path fill="none" stroke="midnightblue" d="M819.366,-168.399C847.251,-158.283 884.439,-144.791 911.013,-135.149"/>
<polygon fill="midnightblue" stroke="midnightblue" points="912.43,-138.359 920.637,-131.658 910.042,-131.778 912.43,-138.359"/>
</g>
<!-- Node24 -->
<g id="node24" class="node"><title>Node24</title>
<polygon fill="white" stroke="#bfbfbf" points="994.5,-112.5 994.5,-131.5 1098.5,-131.5 1098.5,-112.5 994.5,-112.5"/>
<text text-anchor="middle" x="1046.5" y="-119.5" font-family="Helvetica,sans-Serif" font-size="10.00">osg/ShapeDrawable</text>
</g>
<!-- Node21&#45;&gt;Node24 -->
<g id="edge26" class="edge"><title>Node21&#45;&gt;Node24</title>
<path fill="none" stroke="midnightblue" d="M835.655,-169.991C838.647,-169.316 841.61,-168.649 844.5,-168 897.014,-156.202 957.239,-142.802 998.168,-133.716"/>
<polygon fill="midnightblue" stroke="midnightblue" points="999.138,-137.086 1008.14,-131.502 997.621,-130.252 999.138,-137.086"/>
</g>
<!-- Node25 -->
<g id="node25" class="node"><title>Node25</title>
<polygon fill="white" stroke="#bfbfbf" points="325.5,-112.5 325.5,-131.5 403.5,-131.5 403.5,-112.5 325.5,-112.5"/>
<text text-anchor="middle" x="364.5" y="-119.5" font-family="Helvetica,sans-Serif" font-size="10.00">osg/Geometry</text>
</g>
<!-- Node21&#45;&gt;Node25 -->
<g id="edge27" class="edge"><title>Node21&#45;&gt;Node25</title>
<path fill="none" stroke="midnightblue" d="M725.218,-170.439C720.587,-169.564 715.969,-168.737 711.5,-168 582.66,-146.748 546.543,-152.062 413.899,-132.123"/>
<polygon fill="midnightblue" stroke="midnightblue" points="414.17,-128.624 403.757,-130.577 413.116,-135.544 414.17,-128.624"/>
</g>
<!-- Node26 -->
<g id="node26" class="node"><title>Node26</title>
<polygon fill="white" stroke="#bfbfbf" points="421.5,-112.5 421.5,-131.5 485.5,-131.5 485.5,-112.5 421.5,-112.5"/>
<text text-anchor="middle" x="453.5" y="-119.5" font-family="Helvetica,sans-Serif" font-size="10.00">osg/Geode</text>
</g>
<!-- Node21&#45;&gt;Node26 -->
<g id="edge28" class="edge"><title>Node21&#45;&gt;Node26</title>
<path fill="none" stroke="midnightblue" d="M725.181,-170.654C720.558,-169.731 715.951,-168.835 711.5,-168 618.092,-150.481 591.579,-150.748 495.601,-132.333"/>
<polygon fill="midnightblue" stroke="midnightblue" points="496.26,-128.896 485.777,-130.43 494.929,-135.768 496.26,-128.896"/>
</g>
<!-- Node27 -->
<g id="node27" class="node"><title>Node27</title>
<polygon fill="white" stroke="#bfbfbf" points="503,-112.5 503,-131.5 652,-131.5 652,-112.5 503,-112.5"/>
<text text-anchor="middle" x="577.5" y="-119.5" font-family="Helvetica,sans-Serif" font-size="10.00">osg/PositionAttitudeTransform</text>
</g>
<!-- Node21&#45;&gt;Node27 -->
<g id="edge29" class="edge"><title>Node21&#45;&gt;Node27</title>
<path fill="none" stroke="midnightblue" d="M732.649,-168.475C697.168,-158.075 649.414,-144.078 616.299,-134.372"/>
<polygon fill="midnightblue" stroke="midnightblue" points="617.102,-130.96 606.522,-131.506 615.134,-137.678 617.102,-130.96"/>
</g>
<!-- Node28 -->
<g id="node28" class="node"><title>Node28</title>
<polygon fill="white" stroke="#bfbfbf" points="670.5,-112.5 670.5,-131.5 770.5,-131.5 770.5,-112.5 670.5,-112.5"/>
<text text-anchor="middle" x="720.5" y="-119.5" font-family="Helvetica,sans-Serif" font-size="10.00">osg/AutoTransform</text>
</g>
<!-- Node21&#45;&gt;Node28 -->
<g id="edge30" class="edge"><title>Node21&#45;&gt;Node28</title>
<path fill="none" stroke="midnightblue" d="M766.281,-168.399C757.292,-159.486 745.662,-147.952 736.373,-138.741"/>
<polygon fill="midnightblue" stroke="midnightblue" points="738.796,-136.214 729.231,-131.658 733.867,-141.184 738.796,-136.214"/>
</g>
<!-- Node29&#45;&gt;Node10 -->
<g id="edge38" class="edge"><title>Node29&#45;&gt;Node10</title>
<path fill="none" stroke="midnightblue" d="M655.63,-235.334C672.569,-217.794 695.437,-187.815 677.5,-168 651.927,-139.75 387.868,-137.075 317.314,-131.768"/>
<polygon fill="midnightblue" stroke="midnightblue" points="317.378,-128.258 307.096,-130.815 316.727,-135.228 317.378,-128.258"/>
</g>
<!-- Node29&#45;&gt;Node19 -->
<g id="edge35" class="edge"><title>Node29&#45;&gt;Node19</title>
<path fill="none" stroke="midnightblue" d="M692.626,-238.714C734.185,-229.609 793.642,-215.448 844.5,-199 846.636,-198.309 848.825,-197.553 851.018,-196.759"/>
<polygon fill="midnightblue" stroke="midnightblue" points="852.41,-199.974 860.5,-193.134 849.91,-193.436 852.41,-199.974"/>
</g>
<!-- Node29&#45;&gt;Node21 -->
<g id="edge39" class="edge"><title>Node29&#45;&gt;Node21</title>
<path fill="none" stroke="midnightblue" d="M670.878,-235.396C691.425,-225.856 718.764,-213.163 740.999,-202.84"/>
<polygon fill="midnightblue" stroke="midnightblue" points="742.585,-205.962 750.181,-198.577 739.637,-199.613 742.585,-205.962"/>
</g>
<!-- Node30 -->
<g id="node30" class="node"><title>Node30</title>
<polygon fill="white" stroke="#bfbfbf" points="634,-174 634,-193 669,-193 669,-174 634,-174"/>
<text text-anchor="middle" x="651.5" y="-181" font-family="Helvetica,sans-Serif" font-size="10.00">map</text>
</g>
<!-- Node29&#45;&gt;Node30 -->
<g id="edge34" class="edge"><title>Node29&#45;&gt;Node30</title>
<path fill="none" stroke="midnightblue" d="M642.887,-235.396C644.483,-225.963 646.601,-213.448 648.337,-203.189"/>
<polygon fill="midnightblue" stroke="midnightblue" points="651.811,-203.638 650.029,-193.195 644.909,-202.47 651.811,-203.638"/>
</g>
<!-- Node31 -->
<g id="node31" class="node"><title>Node31</title>
<polygon fill="white" stroke="#bfbfbf" points="361.5,-174 361.5,-193 441.5,-193 441.5,-174 361.5,-174"/>
<text text-anchor="middle" x="401.5" y="-181" font-family="Helvetica,sans-Serif" font-size="10.00">boost/bind.hpp</text>
</g>
<!-- Node29&#45;&gt;Node31 -->
<g id="edge36" class="edge"><title>Node29&#45;&gt;Node31</title>
<path fill="none" stroke="midnightblue" d="M588.379,-236.065C550.141,-226.108 496.998,-212.056 450.5,-199 446.961,-198.006 443.283,-196.954 439.605,-195.889"/>
<polygon fill="midnightblue" stroke="midnightblue" points="440.543,-192.517 429.963,-193.069 438.578,-199.235 440.543,-192.517"/>
</g>
<!-- Node32 -->
<g id="node32" class="node"><title>Node32</title>
<polygon fill="white" stroke="#bfbfbf" points="519,-174 519,-193 616,-193 616,-174 519,-174"/>
<text text-anchor="middle" x="567.5" y="-181" font-family="Helvetica,sans-Serif" font-size="10.00">boost/function.hpp</text>
</g>
<!-- Node29&#45;&gt;Node32 -->
<g id="edge37" class="edge"><title>Node29&#45;&gt;Node32</title>
<path fill="none" stroke="midnightblue" d="M624.66,-235.396C612.94,-224.96 596.982,-210.751 584.905,-199.998"/>
<polygon fill="midnightblue" stroke="midnightblue" points="587.061,-197.231 577.265,-193.195 582.406,-202.459 587.061,-197.231"/>
</g>
<!-- Node34 -->
<g id="node34" class="node"><title>Node34</title>
<polygon fill="white" stroke="#bfbfbf" points="947,-174 947,-193 1002,-193 1002,-174 947,-174"/>
<text text-anchor="middle" x="974.5" y="-181" font-family="Helvetica,sans-Serif" font-size="10.00">QWidget</text>
</g>
<!-- Node33&#45;&gt;Node34 -->
<g id="edge42" class="edge"><title>Node33&#45;&gt;Node34</title>
<path fill="none" stroke="midnightblue" d="M936.575,-307.656C933.645,-292.386 929.229,-260.284 937.5,-235 941.691,-222.188 950.507,-209.936 958.481,-200.709"/>
<polygon fill="midnightblue" stroke="midnightblue" points="961.229,-202.892 965.412,-193.157 956.072,-198.159 961.229,-202.892"/>
</g>
<!-- Node36 -->
<g id="node36" class="node"><title>Node36</title>
<polygon fill="white" stroke="#bfbfbf" points="1208.5,-112.5 1208.5,-131.5 1260.5,-131.5 1260.5,-112.5 1208.5,-112.5"/>
<text text-anchor="middle" x="1234.5" y="-119.5" font-family="Helvetica,sans-Serif" font-size="10.00">QDialog</text>
</g>
<!-- Node35&#45;&gt;Node36 -->
<g id="edge44" class="edge"><title>Node35&#45;&gt;Node36</title>
<path fill="none" stroke="midnightblue" d="M1232.97,-168.399C1233.24,-160.466 1233.58,-150.458 1233.87,-141.858"/>
<polygon fill="midnightblue" stroke="midnightblue" points="1237.37,-141.77 1234.21,-131.658 1230.37,-141.535 1237.37,-141.77"/>
</g>
<!-- Node37 -->
<g id="node37" class="node"><title>Node37</title>
<polygon fill="white" stroke="#bfbfbf" points="1117,-112.5 1117,-131.5 1190,-131.5 1190,-112.5 1117,-112.5"/>
<text text-anchor="middle" x="1153.5" y="-119.5" font-family="Helvetica,sans-Serif" font-size="10.00">QComboBox</text>
</g>
<!-- Node35&#45;&gt;Node37 -->
<g id="edge45" class="edge"><title>Node35&#45;&gt;Node37</title>
<path fill="none" stroke="midnightblue" d="M1213.78,-168.399C1201.59,-159.218 1185.71,-147.258 1173.31,-137.918"/>
<polygon fill="midnightblue" stroke="midnightblue" points="1175.09,-134.878 1165,-131.658 1170.88,-140.47 1175.09,-134.878"/>
</g>
<!-- Node38&#45;&gt;Node36 -->
<g id="edge47" class="edge"><title>Node38&#45;&gt;Node36</title>
<path fill="none" stroke="midnightblue" d="M1128.44,-168.399C1151.66,-158.461 1182.49,-145.265 1204.92,-135.662"/>
<polygon fill="midnightblue" stroke="midnightblue" points="1206.46,-138.811 1214.27,-131.658 1203.7,-132.375 1206.46,-138.811"/>
</g>
<!-- Node38&#45;&gt;Node37 -->
<g id="edge48" class="edge"><title>Node38&#45;&gt;Node37</title>
<path fill="none" stroke="midnightblue" d="M1109.25,-168.399C1117.85,-159.575 1128.95,-148.183 1137.89,-139.018"/>
<polygon fill="midnightblue" stroke="midnightblue" points="1140.59,-141.262 1145.06,-131.658 1135.57,-136.375 1140.59,-141.262"/>
</g>
<!-- Node39&#45;&gt;Node36 -->
<g id="edge50" class="edge"><title>Node39&#45;&gt;Node36</title>
<path fill="none" stroke="midnightblue" d="M1360.72,-306.442C1422.28,-295.706 1509.51,-278.549 1519.5,-266 1528.08,-255.223 1527.26,-246.385 1519.5,-235 1462.9,-151.942 1334.46,-130.478 1271.16,-124.932"/>
<polygon fill="midnightblue" stroke="midnightblue" points="1271.1,-121.416 1260.85,-124.12 1270.55,-128.395 1271.1,-121.416"/>
</g>
<!-- Node40 -->
<g id="node40" class="node"><title>Node40</title>
<polygon fill="white" stroke="#bfbfbf" points="1367,-241 1367,-260 1410,-260 1410,-241 1367,-241"/>
<text text-anchor="middle" x="1388.5" y="-248" font-family="Helvetica,sans-Serif" font-size="10.00">QMap</text>
</g>
<!-- Node39&#45;&gt;Node40 -->
<g id="edge51" class="edge"><title>Node39&#45;&gt;Node40</title>
<path fill="none" stroke="midnightblue" d="M1318.81,-302.396C1333.46,-291.697 1353.54,-277.033 1368.38,-266.193"/>
<polygon fill="midnightblue" stroke="midnightblue" points="1370.84,-268.731 1376.85,-260.007 1366.71,-263.078 1370.84,-268.731"/>
</g>
<!-- Node41 -->
<g id="node41" class="node"><title>Node41</title>
<polygon fill="white" stroke="#bfbfbf" points="1428,-241 1428,-260 1511,-260 1511,-241 1428,-241"/>
<text text-anchor="middle" x="1469.5" y="-248" font-family="Helvetica,sans-Serif" font-size="10.00">QSignalMapper</text>
</g>
<!-- Node39&#45;&gt;Node41 -->
<g id="edge52" class="edge"><title>Node39&#45;&gt;Node41</title>
<path fill="none" stroke="midnightblue" d="M1336.39,-302.396C1366.61,-290.84 1408.94,-274.656 1437.69,-263.663"/>
<polygon fill="midnightblue" stroke="midnightblue" points="1439.16,-266.848 1447.25,-260.007 1436.66,-260.309 1439.16,-266.848"/>
</g>
<!-- Node42 -->
<g id="node42" class="node"><title>Node42</title>
<polygon fill="white" stroke="#bfbfbf" points="1097,-241 1097,-260 1134,-260 1134,-241 1097,-241"/>
<text text-anchor="middle" x="1115.5" y="-248" font-family="Helvetica,sans-Serif" font-size="10.00">QDir</text>
</g>
<!-- Node39&#45;&gt;Node42 -->
<g id="edge53" class="edge"><title>Node39&#45;&gt;Node42</title>
<path fill="none" stroke="midnightblue" d="M1248.86,-302.413C1217.96,-293.253 1177.91,-280.366 1143.5,-266 1142.46,-265.568 1141.42,-265.112 1140.36,-264.638"/>
<polygon fill="midnightblue" stroke="midnightblue" points="1141.51,-261.304 1130.98,-260.093 1138.45,-267.604 1141.51,-261.304"/>
</g>
<!-- Node43 -->
<g id="node43" class="node"><title>Node43</title>
<polygon fill="white" stroke="#bfbfbf" points="1152.5,-241 1152.5,-260 1232.5,-260 1232.5,-241 1152.5,-241"/>
<text text-anchor="middle" x="1192.5" y="-248" font-family="Helvetica,sans-Serif" font-size="10.00">QPluginLoader</text>
</g>
<!-- Node39&#45;&gt;Node43 -->
<g id="edge54" class="edge"><title>Node39&#45;&gt;Node43</title>
<path fill="none" stroke="midnightblue" d="M1276.28,-302.396C1258.17,-291.395 1233.16,-276.2 1215.19,-265.282"/>
<polygon fill="midnightblue" stroke="midnightblue" points="1216.87,-262.208 1206.5,-260.007 1213.23,-268.19 1216.87,-262.208"/>
</g>
<!-- Node44 -->
<g id="node44" class="node"><title>Node44</title>
<polygon fill="white" stroke="#bfbfbf" points="1250.5,-241 1250.5,-260 1348.5,-260 1348.5,-241 1250.5,-241"/>
<text text-anchor="middle" x="1299.5" y="-248" font-family="Helvetica,sans-Serif" font-size="10.00">QTableWidgetItem</text>
</g>
<!-- Node39&#45;&gt;Node44 -->
<g id="edge55" class="edge"><title>Node39&#45;&gt;Node44</title>
<path fill="none" stroke="midnightblue" d="M1299.5,-302.396C1299.5,-293.064 1299.5,-280.714 1299.5,-270.517"/>
<polygon fill="midnightblue" stroke="midnightblue" points="1303,-270.195 1299.5,-260.195 1296,-270.195 1303,-270.195"/>
</g>
<!-- Node45 -->
<g id="node45" class="node"><title>Node45</title>
<g id="a_node45"><a xlink:href="a00113.html" target="_top" xlink:title="gepetto/gui/plugin\l&#45;interface.hh">
<polygon fill="white" stroke="black" points="947,-235.5 947,-265.5 1040,-265.5 1040,-235.5 947,-235.5"/>
<text text-anchor="start" x="955" y="-253.5" font-family="Helvetica,sans-Serif" font-size="10.00">gepetto/gui/plugin</text>
<text text-anchor="middle" x="993.5" y="-242.5" font-family="Helvetica,sans-Serif" font-size="10.00">&#45;interface.hh</text>
</a>
</g>
</g>
<!-- Node39&#45;&gt;Node45 -->
<g id="edge56" class="edge"><title>Node39&#45;&gt;Node45</title>
<path fill="none" stroke="midnightblue" d="M1238.31,-303.503C1183.42,-291.843 1103.51,-274.869 1050.08,-263.519"/>
<polygon fill="midnightblue" stroke="midnightblue" points="1050.6,-260.052 1040.1,-261.398 1049.15,-266.899 1050.6,-260.052"/>
</g>
<!-- Node45&#45;&gt;Node5 -->
<g id="edge57" class="edge"><title>Node45&#45;&gt;Node5</title>
<path fill="none" stroke="midnightblue" d="M946.775,-244.281C921.529,-241.483 889.814,-238.003 861.5,-235 705.117,-218.414 660.515,-242.88 509.5,-199 507.828,-198.514 506.136,-197.934 504.454,-197.289"/>
<polygon fill="midnightblue" stroke="midnightblue" points="505.687,-194.006 495.131,-193.101 502.818,-200.391 505.687,-194.006"/>
</g>
<!-- Node45&#45;&gt;Node19 -->
<g id="edge59" class="edge"><title>Node45&#45;&gt;Node19</title>
<path fill="none" stroke="midnightblue" d="M968.981,-235.396C949.768,-224.344 923.198,-209.061 904.199,-198.132"/>
<polygon fill="midnightblue" stroke="midnightblue" points="905.703,-194.959 895.289,-193.007 902.212,-201.027 905.703,-194.959"/>
</g>
<!-- Node45&#45;&gt;Node34 -->
<g id="edge58" class="edge"><title>Node45&#45;&gt;Node34</title>
<path fill="none" stroke="midnightblue" d="M989.377,-235.396C986.591,-225.863 982.884,-213.182 979.867,-202.862"/>
<polygon fill="midnightblue" stroke="midnightblue" points="983.207,-201.811 977.041,-193.195 976.488,-203.775 983.207,-201.811"/>
</g>
<!-- Node45&#45;&gt;Node35 -->
<g id="edge60" class="edge"><title>Node45&#45;&gt;Node35</title>
<path fill="none" stroke="midnightblue" d="M1040.15,-236.813C1078.18,-226.471 1132.12,-211.801 1173.2,-200.627"/>
<polygon fill="midnightblue" stroke="midnightblue" points="1174.36,-203.94 1183.09,-197.938 1172.52,-197.185 1174.36,-203.94"/>
</g>
<!-- Node45&#45;&gt;Node38 -->
<g id="edge61" class="edge"><title>Node45&#45;&gt;Node38</title>
<path fill="none" stroke="midnightblue" d="M1015.63,-235.396C1030.07,-226.197 1049.1,-214.066 1064.97,-203.955"/>
<polygon fill="midnightblue" stroke="midnightblue" points="1066.86,-206.902 1073.41,-198.577 1063.1,-200.999 1066.86,-206.902"/>
</g>
<!-- Node46&#45;&gt;Node39 -->
<g id="edge67" class="edge"><title>Node46&#45;&gt;Node39</title>
<path fill="none" stroke="midnightblue" d="M1436.52,-374.869C1412.81,-365.115 1373.56,-348.97 1343.14,-336.452"/>
<polygon fill="midnightblue" stroke="midnightblue" points="1344.18,-333.096 1333.6,-332.528 1341.52,-339.569 1344.18,-333.096"/>
</g>
<!-- Node47 -->
<g id="node47" class="node"><title>Node47</title>
<polygon fill="white" stroke="#bfbfbf" points="1568.5,-308 1568.5,-327 1620.5,-327 1620.5,-308 1568.5,-308"/>
<text text-anchor="middle" x="1594.5" y="-315" font-family="Helvetica,sans-Serif" font-size="10.00">ostream</text>
</g>
<!-- Node46&#45;&gt;Node47 -->
<g id="edge63" class="edge"><title>Node46&#45;&gt;Node47</title>
<path fill="none" stroke="midnightblue" d="M1475.69,-374.869C1499.03,-363.796 1539.73,-344.486 1566.89,-331.598"/>
<polygon fill="midnightblue" stroke="midnightblue" points="1568.7,-334.616 1576.23,-327.167 1565.7,-328.292 1568.7,-334.616"/>
</g>
<!-- Node48 -->
<g id="node48" class="node"><title>Node48</title>
<polygon fill="white" stroke="#bfbfbf" points="1639,-308 1639,-327 1680,-327 1680,-308 1639,-308"/>
<text text-anchor="middle" x="1659.5" y="-315" font-family="Helvetica,sans-Serif" font-size="10.00">string</text>
</g>
<!-- Node46&#45;&gt;Node48 -->
<g id="edge64" class="edge"><title>Node46&#45;&gt;Node48</title>
<path fill="none" stroke="midnightblue" d="M1492.65,-374.993C1527.81,-366.063 1583.18,-350.853 1629.5,-333 1630.88,-332.467 1632.29,-331.895 1633.7,-331.298"/>
<polygon fill="midnightblue" stroke="midnightblue" points="1635.24,-334.445 1642.9,-327.125 1632.34,-328.071 1635.24,-334.445"/>
</g>
<!-- Node49 -->
<g id="node49" class="node"><title>Node49</title>
<polygon fill="white" stroke="#bfbfbf" points="1416.5,-308 1416.5,-327 1466.5,-327 1466.5,-308 1416.5,-308"/>
<text text-anchor="middle" x="1441.5" y="-315" font-family="Helvetica,sans-Serif" font-size="10.00">QString</text>
</g>
<!-- Node46&#45;&gt;Node49 -->
<g id="edge65" class="edge"><title>Node46&#45;&gt;Node49</title>
<path fill="none" stroke="midnightblue" d="M1455.34,-374.734C1452.97,-365.085 1449.08,-349.3 1446.03,-336.906"/>
<polygon fill="midnightblue" stroke="midnightblue" points="1449.41,-336.001 1443.62,-327.127 1442.62,-337.674 1449.41,-336.001"/>
</g>
<!-- Node50 -->
<g id="node50" class="node"><title>Node50</title>
<polygon fill="white" stroke="#bfbfbf" points="1485,-308 1485,-327 1550,-327 1550,-308 1485,-308"/>
<text text-anchor="middle" x="1517.5" y="-315" font-family="Helvetica,sans-Serif" font-size="10.00">QStringList</text>
</g>
<!-- Node46&#45;&gt;Node50 -->
<g id="edge66" class="edge"><title>Node46&#45;&gt;Node50</title>
<path fill="none" stroke="midnightblue" d="M1465.59,-374.734C1475.04,-364.5 1490.86,-347.364 1502.55,-334.692"/>
<polygon fill="midnightblue" stroke="midnightblue" points="1505.33,-336.849 1509.54,-327.127 1500.18,-332.101 1505.33,-336.849"/>
</g>
</g>
</svg>
