<?xml version="1.0" encoding="UTF-8" standalone="no"?>
<!DOCTYPE svg PUBLIC "-//W3C//DTD SVG 1.1//EN"
 "http://www.w3.org/Graphics/SVG/1.1/DTD/svg11.dtd">
<!-- Generated by graphviz version 2.38.0 (20140413.2041)
 -->
<!-- Title: keyboard&#45;manipulator.h Pages: 1 -->
<svg width="598pt" height="84pt"
 viewBox="0.00 0.00 598.00 84.00" xmlns="http://www.w3.org/2000/svg" xmlns:xlink="http://www.w3.org/1999/xlink">
<g id="graph0" class="graph" transform="scale(1 1) rotate(0) translate(4 80)">
<title>keyboard&#45;manipulator.h</title>
<polygon fill="white" stroke="none" points="-4,4 -4,-80 594,-80 594,4 -4,4"/>
<!-- Node1 -->
<g id="node1" class="node"><title>Node1</title>
<polygon fill="#bfbfbf" stroke="black" points="258,-56.5 258,-75.5 376,-75.5 376,-56.5 258,-56.5"/>
<text text-anchor="middle" x="317" y="-63.5" font-family="Helvetica,sans-Serif" font-size="10.00">keyboard&#45;manipulator.h</text>
</g>
<!-- Node2 -->
<g id="node2" class="node"><title>Node2</title>
<polygon fill="white" stroke="#bfbfbf" points="0,-0.5 0,-19.5 150,-19.5 150,-0.5 0,-0.5"/>
<text text-anchor="middle" x="75" y="-7.5" font-family="Helvetica,sans-Serif" font-size="10.00">osgGA/FirstPersonManipulator</text>
</g>
<!-- Node1&#45;&gt;Node2 -->
<g id="edge1" class="edge"><title>Node1&#45;&gt;Node2</title>
<path fill="none" stroke="midnightblue" d="M278.654,-56.4435C236.527,-47.0431 168.794,-31.9291 123.128,-21.7393"/>
<polygon fill="midnightblue" stroke="midnightblue" points="123.688,-18.2784 113.166,-19.5164 122.164,-25.1103 123.688,-18.2784"/>
</g>
<!-- Node3 -->
<g id="node3" class="node"><title>Node3</title>
<polygon fill="white" stroke="#bfbfbf" points="168.5,-0.5 168.5,-19.5 263.5,-19.5 263.5,-0.5 168.5,-0.5"/>
<text text-anchor="middle" x="216" y="-7.5" font-family="Helvetica,sans-Serif" font-size="10.00">osgViewer/Viewer</text>
</g>
<!-- Node1&#45;&gt;Node3 -->
<g id="edge2" class="edge"><title>Node1&#45;&gt;Node3</title>
<path fill="none" stroke="midnightblue" d="M300.773,-56.324C284.649,-47.7034 259.7,-34.3643 241.036,-24.3855"/>
<polygon fill="midnightblue" stroke="midnightblue" points="242.656,-21.283 232.187,-19.6545 239.356,-27.456 242.656,-21.283"/>
</g>
<!-- Node4 -->
<g id="node4" class="node"><title>Node4</title>
<polygon fill="white" stroke="#bfbfbf" points="282,-0.5 282,-19.5 352,-19.5 352,-0.5 282,-0.5"/>
<text text-anchor="middle" x="317" y="-7.5" font-family="Helvetica,sans-Serif" font-size="10.00">osg/Camera</text>
</g>
<!-- Node1&#45;&gt;Node4 -->
<g id="edge3" class="edge"><title>Node1&#45;&gt;Node4</title>
<path fill="none" stroke="midnightblue" d="M317,-56.083C317,-49.0059 317,-38.8611 317,-29.9865"/>
<polygon fill="midnightblue" stroke="midnightblue" points="320.5,-29.751 317,-19.7511 313.5,-29.7511 320.5,-29.751"/>
</g>
<!-- Node5 -->
<g id="node5" class="node"><title>Node5</title>
<polygon fill="white" stroke="#bfbfbf" points="370,-0.5 370,-19.5 510,-19.5 510,-0.5 370,-0.5"/>
<text text-anchor="middle" x="440" y="-7.5" font-family="Helvetica,sans-Serif" font-size="10.00">osgViewer/GraphicsWindow</text>
</g>
<!-- Node1&#45;&gt;Node5 -->
<g id="edge4" class="edge"><title>Node1&#45;&gt;Node5</title>
<path fill="none" stroke="midnightblue" d="M336.49,-56.4435C356.642,-47.5961 388.323,-33.6875 411.331,-23.5865"/>
<polygon fill="midnightblue" stroke="midnightblue" points="412.852,-26.7411 420.601,-19.5164 410.038,-20.3316 412.852,-26.7411"/>
</g>
<!-- Node6 -->
<g id="node6" class="node"><title>Node6</title>
<polygon fill="white" stroke="#bfbfbf" points="528,-0.5 528,-19.5 590,-19.5 590,-0.5 528,-0.5"/>
<text text-anchor="middle" x="559" y="-7.5" font-family="Helvetica,sans-Serif" font-size="10.00">X11/Xlib.h</text>
</g>
<!-- Node1&#45;&gt;Node6 -->
<g id="edge5" class="edge"><title>Node1&#45;&gt;Node6</title>
<path fill="none" stroke="midnightblue" d="M355.354,-56.4811C393.927,-47.9081 455.384,-34.2335 517.946,-20.2326"/>
<polygon fill="midnightblue" stroke="midnightblue" points="518.999,-23.5836 527.993,-17.9835 517.469,-16.7527 518.999,-23.5836"/>
</g>
</g>
</svg>
