<?xml version="1.0" encoding="UTF-8" standalone="no"?>
<!DOCTYPE svg PUBLIC "-//W3C//DTD SVG 1.1//EN"
 "http://www.w3.org/Graphics/SVG/1.1/DTD/svg11.dtd">
<!-- Generated by graphviz version 2.38.0 (20140413.2041)
 -->
<!-- Title: windows&#45;manager.hh Pages: 1 -->
<svg width="3207pt" height="475pt"
 viewBox="0.00 0.00 3207.00 475.00" xmlns="http://www.w3.org/2000/svg" xmlns:xlink="http://www.w3.org/1999/xlink">
<g id="graph0" class="graph" transform="scale(1 1) rotate(0) translate(4 471)">
<title>windows&#45;manager.hh</title>
<polygon fill="white" stroke="none" points="-4,4 -4,-471 3203,-471 3203,4 -4,4"/>
<!-- Node1 -->
<g id="node1" class="node"><title>Node1</title>
<polygon fill="#bfbfbf" stroke="black" points="1008.5,-447.5 1008.5,-466.5 1117.5,-466.5 1117.5,-447.5 1008.5,-447.5"/>
<text text-anchor="middle" x="1063" y="-454.5" font-family="Helvetica,sans-Serif" font-size="10.00">windows&#45;manager.hh</text>
</g>
<!-- Node2 -->
<g id="node2" class="node"><title>Node2</title>
<g id="a_node2"><a xlink:href="a00085.html" target="_top" xlink:title="gepetto/gui/fwd.hh">
<polygon fill="white" stroke="black" points="220.5,-185 220.5,-204 317.5,-204 317.5,-185 220.5,-185"/>
<text text-anchor="middle" x="269" y="-192" font-family="Helvetica,sans-Serif" font-size="10.00">gepetto/gui/fwd.hh</text>
</a>
</g>
</g>
<!-- Node1&#45;&gt;Node2 -->
<g id="edge1" class="edge"><title>Node1&#45;&gt;Node2</title>
<path fill="none" stroke="midnightblue" d="M1026.65,-447.437C991.48,-438.942 936.778,-425.176 890,-411 661.83,-341.854 392.489,-242.044 301.135,-207.67"/>
<polygon fill="midnightblue" stroke="midnightblue" points="302.215,-204.337 291.623,-204.085 299.747,-210.887 302.215,-204.337"/>
</g>
<!-- Node12 -->
<g id="node12" class="node"><title>Node12</title>
<g id="a_node12"><a xlink:href="a00127.html" target="_top" xlink:title="gepetto/viewer/windows\l&#45;manager.h">
<polygon fill="white" stroke="black" points="899,-380.5 899,-410.5 1021,-410.5 1021,-380.5 899,-380.5"/>
<text text-anchor="start" x="907" y="-398.5" font-family="Helvetica,sans-Serif" font-size="10.00">gepetto/viewer/windows</text>
<text text-anchor="middle" x="960" y="-387.5" font-family="Helvetica,sans-Serif" font-size="10.00">&#45;manager.h</text>
</a>
</g>
</g>
<!-- Node1&#45;&gt;Node12 -->
<g id="edge12" class="edge"><title>Node1&#45;&gt;Node12</title>
<path fill="none" stroke="midnightblue" d="M1048.24,-447.475C1033.9,-439.191 1011.63,-426.325 993.049,-415.591"/>
<polygon fill="midnightblue" stroke="midnightblue" points="994.685,-412.494 984.275,-410.523 991.183,-418.556 994.685,-412.494"/>
</g>
<!-- Node47 -->
<g id="node47" class="node"><title>Node47</title>
<polygon fill="white" stroke="#bfbfbf" points="1039.5,-386 1039.5,-405 1086.5,-405 1086.5,-386 1039.5,-386"/>
<text text-anchor="middle" x="1063" y="-393" font-family="Helvetica,sans-Serif" font-size="10.00">QColor</text>
</g>
<!-- Node1&#45;&gt;Node47 -->
<g id="edge53" class="edge"><title>Node1&#45;&gt;Node47</title>
<path fill="none" stroke="midnightblue" d="M1063,-447.475C1063,-439.08 1063,-425.981 1063,-415.163"/>
<polygon fill="midnightblue" stroke="midnightblue" points="1066.5,-415.009 1063,-405.009 1059.5,-415.009 1066.5,-415.009"/>
</g>
<!-- Node48 -->
<g id="node48" class="node"><title>Node48</title>
<polygon fill="white" stroke="#bfbfbf" points="1104.5,-386 1104.5,-405 1157.5,-405 1157.5,-386 1104.5,-386"/>
<text text-anchor="middle" x="1131" y="-393" font-family="Helvetica,sans-Serif" font-size="10.00">QObject</text>
</g>
<!-- Node1&#45;&gt;Node48 -->
<g id="edge54" class="edge"><title>Node1&#45;&gt;Node48</title>
<path fill="none" stroke="midnightblue" d="M1072.74,-447.475C1083.35,-438.197 1100.52,-423.171 1113.48,-411.831"/>
<polygon fill="midnightblue" stroke="midnightblue" points="1116.05,-414.228 1121.28,-405.009 1111.44,-408.96 1116.05,-414.228"/>
</g>
<!-- Node49 -->
<g id="node49" class="node"><title>Node49</title>
<polygon fill="white" stroke="#bfbfbf" points="1175.5,-386 1175.5,-405 1240.5,-405 1240.5,-386 1175.5,-386"/>
<text text-anchor="middle" x="1208" y="-393" font-family="Helvetica,sans-Serif" font-size="10.00">QVector3D</text>
</g>
<!-- Node1&#45;&gt;Node49 -->
<g id="edge55" class="edge"><title>Node1&#45;&gt;Node49</title>
<path fill="none" stroke="midnightblue" d="M1083.77,-447.475C1108.43,-437.357 1149.75,-420.405 1177.9,-408.851"/>
<polygon fill="midnightblue" stroke="midnightblue" points="1179.34,-412.043 1187.26,-405.009 1176.68,-405.567 1179.34,-412.043"/>
</g>
<!-- Node3 -->
<g id="node3" class="node"><title>Node3</title>
<polygon fill="white" stroke="#bfbfbf" points="112,-118 112,-137 156,-137 156,-118 112,-118"/>
<text text-anchor="middle" x="134" y="-125" font-family="Helvetica,sans-Serif" font-size="10.00">vector</text>
</g>
<!-- Node2&#45;&gt;Node3 -->
<g id="edge2" class="edge"><title>Node2&#45;&gt;Node3</title>
<path fill="none" stroke="midnightblue" d="M251.073,-184.869C228.077,-173.796 187.971,-154.486 161.203,-141.598"/>
<polygon fill="midnightblue" stroke="midnightblue" points="162.53,-138.352 152.001,-137.167 159.493,-144.659 162.53,-138.352"/>
</g>
<!-- Node4 -->
<g id="node4" class="node"><title>Node4</title>
<polygon fill="white" stroke="#bfbfbf" points="174.5,-118 174.5,-137 229.5,-137 229.5,-118 174.5,-118"/>
<text text-anchor="middle" x="202" y="-125" font-family="Helvetica,sans-Serif" font-size="10.00">QtGlobal</text>
</g>
<!-- Node2&#45;&gt;Node4 -->
<g id="edge3" class="edge"><title>Node2&#45;&gt;Node4</title>
<path fill="none" stroke="midnightblue" d="M259.964,-184.734C249.315,-174.403 231.415,-157.037 218.319,-144.332"/>
<polygon fill="midnightblue" stroke="midnightblue" points="220.507,-141.578 210.893,-137.127 215.633,-146.603 220.507,-141.578"/>
</g>
<!-- Node5 -->
<g id="node5" class="node"><title>Node5</title>
<polygon fill="white" stroke="#bfbfbf" points="248,-118 248,-137 290,-137 290,-118 248,-118"/>
<text text-anchor="middle" x="269" y="-125" font-family="Helvetica,sans-Serif" font-size="10.00">QtGui</text>
</g>
<!-- Node2&#45;&gt;Node5 -->
<g id="edge4" class="edge"><title>Node2&#45;&gt;Node5</title>
<path fill="none" stroke="midnightblue" d="M269,-184.734C269,-175.183 269,-159.618 269,-147.283"/>
<polygon fill="midnightblue" stroke="midnightblue" points="272.5,-147.127 269,-137.127 265.5,-147.127 272.5,-147.127"/>
</g>
<!-- Node6 -->
<g id="node6" class="node"><title>Node6</title>
<g id="a_node6"><a xlink:href="a00102.html" target="_top" xlink:title="gepetto/viewer/macros.h">
<polygon fill="white" stroke="black" points="338,-56.5 338,-75.5 462,-75.5 462,-56.5 338,-56.5"/>
<text text-anchor="middle" x="400" y="-63.5" font-family="Helvetica,sans-Serif" font-size="10.00">gepetto/viewer/macros.h</text>
</a>
</g>
</g>
<!-- Node2&#45;&gt;Node6 -->
<g id="edge5" class="edge"><title>Node2&#45;&gt;Node6</title>
<path fill="none" stroke="midnightblue" d="M275.11,-184.79C286.307,-169.171 311.331,-135.811 337,-112 349.45,-100.452 364.955,-89.3423 377.467,-81.0509"/>
<polygon fill="midnightblue" stroke="midnightblue" points="379.474,-83.921 385.963,-75.5456 375.668,-78.0465 379.474,-83.921"/>
</g>
<!-- Node10 -->
<g id="node10" class="node"><title>Node10</title>
<g id="a_node10"><a xlink:href="a00084.html" target="_top" xlink:title="gepetto/viewer/fwd.h">
<polygon fill="white" stroke="black" points="346.5,-118 346.5,-137 453.5,-137 453.5,-118 346.5,-118"/>
<text text-anchor="middle" x="400" y="-125" font-family="Helvetica,sans-Serif" font-size="10.00">gepetto/viewer/fwd.h</text>
</a>
</g>
</g>
<!-- Node2&#45;&gt;Node10 -->
<g id="edge9" class="edge"><title>Node2&#45;&gt;Node10</title>
<path fill="none" stroke="midnightblue" d="M286.396,-184.869C308.613,-173.845 347.287,-154.655 373.26,-141.768"/>
<polygon fill="midnightblue" stroke="midnightblue" points="375.13,-144.747 382.532,-137.167 372.019,-138.477 375.13,-144.747"/>
</g>
<!-- Node11 -->
<g id="node11" class="node"><title>Node11</title>
<polygon fill="white" stroke="#bfbfbf" points="0,-112.5 0,-142.5 94,-142.5 94,-112.5 0,-112.5"/>
<text text-anchor="start" x="8" y="-130.5" font-family="Helvetica,sans-Serif" font-size="10.00">gepetto/gui/config</text>
<text text-anchor="middle" x="47" y="-119.5" font-family="Helvetica,sans-Serif" font-size="10.00">&#45;dep.hh</text>
</g>
<!-- Node2&#45;&gt;Node11 -->
<g id="edge11" class="edge"><title>Node2&#45;&gt;Node11</title>
<path fill="none" stroke="midnightblue" d="M239.52,-184.869C205.052,-174.776 147.211,-157.841 103.908,-145.162"/>
<polygon fill="midnightblue" stroke="midnightblue" points="104.652,-141.733 94.0709,-142.282 102.685,-148.451 104.652,-141.733"/>
</g>
<!-- Node7 -->
<g id="node7" class="node"><title>Node7</title>
<polygon fill="white" stroke="#bfbfbf" points="223,-0.5 223,-19.5 331,-19.5 331,-0.5 223,-0.5"/>
<text text-anchor="middle" x="277" y="-7.5" font-family="Helvetica,sans-Serif" font-size="10.00">boost/shared_ptr.hpp</text>
</g>
<!-- Node6&#45;&gt;Node7 -->
<g id="edge6" class="edge"><title>Node6&#45;&gt;Node7</title>
<path fill="none" stroke="midnightblue" d="M380.51,-56.4435C360.358,-47.5961 328.677,-33.6875 305.669,-23.5865"/>
<polygon fill="midnightblue" stroke="midnightblue" points="306.962,-20.3316 296.399,-19.5164 304.148,-26.7411 306.962,-20.3316"/>
</g>
<!-- Node8 -->
<g id="node8" class="node"><title>Node8</title>
<polygon fill="white" stroke="#bfbfbf" points="349,-0.5 349,-19.5 451,-19.5 451,-0.5 349,-0.5"/>
<text text-anchor="middle" x="400" y="-7.5" font-family="Helvetica,sans-Serif" font-size="10.00">boost/weak_ptr.hpp</text>
</g>
<!-- Node6&#45;&gt;Node8 -->
<g id="edge7" class="edge"><title>Node6&#45;&gt;Node8</title>
<path fill="none" stroke="midnightblue" d="M400,-56.083C400,-49.0059 400,-38.8611 400,-29.9865"/>
<polygon fill="midnightblue" stroke="midnightblue" points="403.5,-29.751 400,-19.7511 396.5,-29.7511 403.5,-29.751"/>
</g>
<!-- Node9 -->
<g id="node9" class="node"><title>Node9</title>
<polygon fill="white" stroke="#bfbfbf" points="469.5,-0.5 469.5,-19.5 532.5,-19.5 532.5,-0.5 469.5,-0.5"/>
<text text-anchor="middle" x="501" y="-7.5" font-family="Helvetica,sans-Serif" font-size="10.00">osg/ref_ptr</text>
</g>
<!-- Node6&#45;&gt;Node9 -->
<g id="edge8" class="edge"><title>Node6&#45;&gt;Node9</title>
<path fill="none" stroke="midnightblue" d="M416.227,-56.324C432.351,-47.7034 457.3,-34.3643 475.964,-24.3855"/>
<polygon fill="midnightblue" stroke="midnightblue" points="477.644,-27.456 484.813,-19.6545 474.344,-21.283 477.644,-27.456"/>
</g>
<!-- Node10&#45;&gt;Node6 -->
<g id="edge10" class="edge"><title>Node10&#45;&gt;Node6</title>
<path fill="none" stroke="midnightblue" d="M400,-117.975C400,-109.58 400,-96.4806 400,-85.6631"/>
<polygon fill="midnightblue" stroke="midnightblue" points="403.5,-85.5091 400,-75.5091 396.5,-85.5091 403.5,-85.5091"/>
</g>
<!-- Node12&#45;&gt;Node10 -->
<g id="edge15" class="edge"><title>Node12&#45;&gt;Node10</title>
<path fill="none" stroke="midnightblue" d="M972.219,-380.332C985.562,-363.058 1003.14,-333.621 988,-313 954.634,-267.561 577.668,-171.888 445.474,-139.492"/>
<polygon fill="midnightblue" stroke="midnightblue" points="446.196,-136.066 435.651,-137.091 444.534,-142.866 446.196,-136.066"/>
</g>
<!-- Node13 -->
<g id="node13" class="node"><title>Node13</title>
<polygon fill="white" stroke="#bfbfbf" points="723.5,-319 723.5,-338 828.5,-338 828.5,-319 723.5,-319"/>
<text text-anchor="middle" x="776" y="-326" font-family="Helvetica,sans-Serif" font-size="10.00">OpenThreads/Mutex</text>
</g>
<!-- Node12&#45;&gt;Node13 -->
<g id="edge13" class="edge"><title>Node12&#45;&gt;Node13</title>
<path fill="none" stroke="midnightblue" d="M920.075,-380.396C887.076,-368.739 840.749,-352.373 809.618,-341.376"/>
<polygon fill="midnightblue" stroke="midnightblue" points="810.676,-338.038 800.081,-338.007 808.344,-344.638 810.676,-338.038"/>
</g>
<!-- Node14 -->
<g id="node14" class="node"><title>Node14</title>
<polygon fill="white" stroke="#bfbfbf" points="847,-319 847,-338 979,-338 979,-319 847,-319"/>
<text text-anchor="middle" x="913" y="-326" font-family="Helvetica,sans-Serif" font-size="10.00">OpenThreads/ScopedLock</text>
</g>
<!-- Node12&#45;&gt;Node14 -->
<g id="edge14" class="edge"><title>Node12&#45;&gt;Node14</title>
<path fill="none" stroke="midnightblue" d="M949.802,-380.396C942.618,-370.462 932.963,-357.108 925.344,-346.572"/>
<polygon fill="midnightblue" stroke="midnightblue" points="927.983,-344.247 919.287,-338.195 922.31,-348.349 927.983,-344.247"/>
</g>
<!-- Node15 -->
<g id="node15" class="node"><title>Node15</title>
<g id="a_node15"><a xlink:href="a00080.html" target="_top" xlink:title="gepetto/viewer/config\l&#45;osg.h">
<polygon fill="white" stroke="black" points="1682,-179.5 1682,-209.5 1792,-209.5 1792,-179.5 1682,-179.5"/>
<text text-anchor="start" x="1690" y="-197.5" font-family="Helvetica,sans-Serif" font-size="10.00">gepetto/viewer/config</text>
<text text-anchor="middle" x="1737" y="-186.5" font-family="Helvetica,sans-Serif" font-size="10.00">&#45;osg.h</text>
</a>
</g>
</g>
<!-- Node12&#45;&gt;Node15 -->
<g id="edge16" class="edge"><title>Node12&#45;&gt;Node15</title>
<path fill="none" stroke="midnightblue" d="M1021.38,-381.272C1024.28,-380.807 1027.17,-380.379 1030,-380 1157.99,-362.86 1487.87,-385.948 1610,-344 1659.9,-326.861 1675.8,-318.795 1708,-277 1720.98,-260.153 1728.47,-237.006 1732.58,-219.684"/>
<polygon fill="midnightblue" stroke="midnightblue" points="1736.03,-220.273 1734.72,-209.76 1729.19,-218.799 1736.03,-220.273"/>
</g>
<!-- Node43 -->
<g id="node43" class="node"><title>Node43</title>
<g id="a_node43"><a xlink:href="a00123.html" target="_top" xlink:title="gepetto/viewer/transform\l&#45;writer.h">
<polygon fill="white" stroke="black" points="1476.5,-313.5 1476.5,-343.5 1601.5,-343.5 1601.5,-313.5 1476.5,-313.5"/>
<text text-anchor="start" x="1484.5" y="-331.5" font-family="Helvetica,sans-Serif" font-size="10.00">gepetto/viewer/transform</text>
<text text-anchor="middle" x="1539" y="-320.5" font-family="Helvetica,sans-Serif" font-size="10.00">&#45;writer.h</text>
</a>
</g>
</g>
<!-- Node12&#45;&gt;Node43 -->
<g id="edge46" class="edge"><title>Node12&#45;&gt;Node43</title>
<path fill="none" stroke="midnightblue" d="M1021.01,-381.467C1024.05,-380.943 1027.06,-380.45 1030,-380 1184.52,-356.398 1367.19,-341.378 1466.24,-334.296"/>
<polygon fill="midnightblue" stroke="midnightblue" points="1466.71,-337.772 1476.44,-333.574 1466.22,-330.789 1466.71,-337.772"/>
</g>
<!-- Node15&#45;&gt;Node6 -->
<g id="edge45" class="edge"><title>Node15&#45;&gt;Node6</title>
<path fill="none" stroke="midnightblue" d="M1792.37,-193.155C2015.94,-191.496 2842.02,-182.692 2880,-143 2889.52,-133.045 2889.65,-121.83 2880,-112 2836.71,-67.9129 876.472,-66.7093 472.387,-66.9303"/>
<polygon fill="midnightblue" stroke="midnightblue" points="472.286,-63.4302 462.288,-66.9363 472.29,-70.4302 472.286,-63.4302"/>
</g>
<!-- Node15&#45;&gt;Node10 -->
<g id="edge44" class="edge"><title>Node15&#45;&gt;Node10</title>
<path fill="none" stroke="midnightblue" d="M1681.83,-185.912C1660.94,-183.309 1636.91,-180.641 1615,-179 1104.18,-140.735 971.011,-208.76 463,-143 456.045,-142.1 448.732,-140.775 441.65,-139.287"/>
<polygon fill="midnightblue" stroke="midnightblue" points="442.031,-135.786 431.508,-137.02 440.504,-142.617 442.031,-135.786"/>
</g>
<!-- Node16 -->
<g id="node16" class="node"><title>Node16</title>
<polygon fill="white" stroke="#bfbfbf" points="2927,-118 2927,-137 2995,-137 2995,-118 2927,-118"/>
<text text-anchor="middle" x="2961" y="-125" font-family="Helvetica,sans-Serif" font-size="10.00">QMetaType</text>
</g>
<!-- Node15&#45;&gt;Node16 -->
<g id="edge17" class="edge"><title>Node15&#45;&gt;Node16</title>
<path fill="none" stroke="midnightblue" d="M1792.18,-192.96C1994.22,-190.699 2693.27,-180.298 2913,-143 2917.56,-142.225 2922.3,-141.146 2926.95,-139.923"/>
<polygon fill="midnightblue" stroke="midnightblue" points="2928.22,-143.201 2936.86,-137.078 2926.29,-136.473 2928.22,-143.201"/>
</g>
<!-- Node17 -->
<g id="node17" class="node"><title>Node17</title>
<polygon fill="white" stroke="#bfbfbf" points="3013.5,-118 3013.5,-137 3076.5,-137 3076.5,-118 3013.5,-118"/>
<text text-anchor="middle" x="3045" y="-125" font-family="Helvetica,sans-Serif" font-size="10.00">osg/Shape</text>
</g>
<!-- Node15&#45;&gt;Node17 -->
<g id="edge18" class="edge"><title>Node15&#45;&gt;Node17</title>
<path fill="none" stroke="midnightblue" d="M1792.09,-193.495C2004.01,-193.135 2766.6,-188.627 3004,-143 3007.52,-142.324 3011.14,-141.401 3014.71,-140.345"/>
<polygon fill="midnightblue" stroke="midnightblue" points="3016.08,-143.576 3024.48,-137.114 3013.88,-136.93 3016.08,-143.576"/>
</g>
<!-- Node18 -->
<g id="node18" class="node"><title>Node18</title>
<polygon fill="white" stroke="#bfbfbf" points="3095,-118 3095,-137 3199,-137 3199,-118 3095,-118"/>
<text text-anchor="middle" x="3147" y="-125" font-family="Helvetica,sans-Serif" font-size="10.00">osg/ShapeDrawable</text>
</g>
<!-- Node15&#45;&gt;Node18 -->
<g id="edge19" class="edge"><title>Node15&#45;&gt;Node18</title>
<path fill="none" stroke="midnightblue" d="M1792.11,-192.877C2012.34,-190.166 2829.69,-177.917 3086,-143 3092.51,-142.113 3099.35,-140.838 3105.99,-139.407"/>
<polygon fill="midnightblue" stroke="midnightblue" points="3107.23,-142.713 3116.19,-137.064 3105.66,-135.891 3107.23,-142.713"/>
</g>
<!-- Node19 -->
<g id="node19" class="node"><title>Node19</title>
<polygon fill="white" stroke="#bfbfbf" points="472,-118 472,-137 550,-137 550,-118 472,-118"/>
<text text-anchor="middle" x="511" y="-125" font-family="Helvetica,sans-Serif" font-size="10.00">osg/Geometry</text>
</g>
<!-- Node15&#45;&gt;Node19 -->
<g id="edge20" class="edge"><title>Node15&#45;&gt;Node19</title>
<path fill="none" stroke="midnightblue" d="M1681.83,-185.945C1660.93,-183.346 1636.91,-180.672 1615,-179 1146.76,-143.256 1022.33,-219.542 559,-143 554.432,-142.245 549.69,-141.178 545.044,-139.961"/>
<polygon fill="midnightblue" stroke="midnightblue" points="545.707,-136.511 535.129,-137.121 543.779,-143.24 545.707,-136.511"/>
</g>
<!-- Node20 -->
<g id="node20" class="node"><title>Node20</title>
<polygon fill="white" stroke="#bfbfbf" points="568,-118 568,-137 632,-137 632,-118 568,-118"/>
<text text-anchor="middle" x="600" y="-125" font-family="Helvetica,sans-Serif" font-size="10.00">osg/Geode</text>
</g>
<!-- Node15&#45;&gt;Node20 -->
<g id="edge21" class="edge"><title>Node15&#45;&gt;Node20</title>
<path fill="none" stroke="midnightblue" d="M1681.83,-185.978C1660.93,-183.383 1636.9,-180.703 1615,-179 1398.84,-162.192 852.816,-184.445 640,-143 636.561,-142.33 633.022,-141.411 629.54,-140.357"/>
<polygon fill="midnightblue" stroke="midnightblue" points="630.597,-137.02 620.002,-137.129 628.352,-143.65 630.597,-137.02"/>
</g>
<!-- Node21 -->
<g id="node21" class="node"><title>Node21</title>
<polygon fill="white" stroke="#bfbfbf" points="649.5,-118 649.5,-137 798.5,-137 798.5,-118 649.5,-118"/>
<text text-anchor="middle" x="724" y="-125" font-family="Helvetica,sans-Serif" font-size="10.00">osg/PositionAttitudeTransform</text>
</g>
<!-- Node15&#45;&gt;Node21 -->
<g id="edge22" class="edge"><title>Node15&#45;&gt;Node21</title>
<path fill="none" stroke="midnightblue" d="M1681.82,-186.068C1660.92,-183.484 1636.9,-180.787 1615,-179 1257.17,-149.794 1164.94,-181.613 808,-143 797.958,-141.914 787.3,-140.376 777.069,-138.705"/>
<polygon fill="midnightblue" stroke="midnightblue" points="777.462,-135.222 767.018,-137.001 776.292,-142.123 777.462,-135.222"/>
</g>
<!-- Node22 -->
<g id="node22" class="node"><title>Node22</title>
<polygon fill="white" stroke="#bfbfbf" points="817,-118 817,-137 917,-137 917,-118 817,-118"/>
<text text-anchor="middle" x="867" y="-125" font-family="Helvetica,sans-Serif" font-size="10.00">osg/AutoTransform</text>
</g>
<!-- Node15&#45;&gt;Node22 -->
<g id="edge23" class="edge"><title>Node15&#45;&gt;Node22</title>
<path fill="none" stroke="midnightblue" d="M1681.81,-186.158C1660.91,-183.583 1636.89,-180.871 1615,-179 1309.47,-152.891 1229.35,-187.791 926,-143 919.769,-142.08 913.234,-140.8 906.876,-139.378"/>
<polygon fill="midnightblue" stroke="midnightblue" points="907.639,-135.962 897.101,-137.059 906.022,-142.773 907.639,-135.962"/>
</g>
<!-- Node23 -->
<g id="node23" class="node"><title>Node23</title>
<polygon fill="white" stroke="#bfbfbf" points="935.5,-118 935.5,-137 1042.5,-137 1042.5,-118 935.5,-118"/>
<text text-anchor="middle" x="989" y="-125" font-family="Helvetica,sans-Serif" font-size="10.00">osg/MatrixTransform</text>
</g>
<!-- Node15&#45;&gt;Node23 -->
<g id="edge24" class="edge"><title>Node15&#45;&gt;Node23</title>
<path fill="none" stroke="midnightblue" d="M1681.8,-186.293C1660.9,-183.734 1636.88,-180.997 1615,-179 1364.86,-156.169 1299.48,-179.726 1051,-143 1044.54,-142.045 1037.76,-140.759 1031.16,-139.346"/>
<polygon fill="midnightblue" stroke="midnightblue" points="1031.51,-135.838 1020.98,-137.049 1029.97,-142.666 1031.51,-135.838"/>
</g>
<!-- Node24 -->
<g id="node24" class="node"><title>Node24</title>
<polygon fill="white" stroke="#bfbfbf" points="1060.5,-118 1060.5,-137 1119.5,-137 1119.5,-118 1060.5,-118"/>
<text text-anchor="middle" x="1090" y="-125" font-family="Helvetica,sans-Serif" font-size="10.00">osg/Node</text>
</g>
<!-- Node15&#45;&gt;Node24 -->
<g id="edge25" class="edge"><title>Node15&#45;&gt;Node24</title>
<path fill="none" stroke="midnightblue" d="M1681.79,-186.412C1660.89,-183.867 1636.87,-181.108 1615,-179 1399.41,-158.214 1340.61,-189.198 1129,-143 1125.92,-142.328 1122.76,-141.465 1119.64,-140.495"/>
<polygon fill="midnightblue" stroke="midnightblue" points="1120.51,-137.093 1109.92,-137.134 1118.22,-143.709 1120.51,-137.093"/>
</g>
<!-- Node25 -->
<g id="node25" class="node"><title>Node25</title>
<polygon fill="white" stroke="#bfbfbf" points="1138,-118 1138,-137 1200,-137 1200,-118 1138,-118"/>
<text text-anchor="middle" x="1169" y="-125" font-family="Helvetica,sans-Serif" font-size="10.00">osg/Group</text>
</g>
<!-- Node15&#45;&gt;Node25 -->
<g id="edge26" class="edge"><title>Node15&#45;&gt;Node25</title>
<path fill="none" stroke="midnightblue" d="M1681.77,-186.582C1660.87,-184.057 1636.85,-181.267 1615,-179 1434.81,-160.308 1385.86,-182.197 1209,-143 1205.75,-142.281 1202.41,-141.366 1199.11,-140.348"/>
<polygon fill="midnightblue" stroke="midnightblue" points="1200.05,-136.97 1189.46,-137.069 1197.8,-143.599 1200.05,-136.97"/>
</g>
<!-- Node26 -->
<g id="node26" class="node"><title>Node26</title>
<polygon fill="white" stroke="#bfbfbf" points="1218.5,-118 1218.5,-137 1283.5,-137 1283.5,-118 1218.5,-118"/>
<text text-anchor="middle" x="1251" y="-125" font-family="Helvetica,sans-Serif" font-size="10.00">osg/Switch</text>
</g>
<!-- Node15&#45;&gt;Node26 -->
<g id="edge27" class="edge"><title>Node15&#45;&gt;Node26</title>
<path fill="none" stroke="midnightblue" d="M1681.74,-186.85C1660.84,-184.356 1636.82,-181.517 1615,-179 1471.95,-162.502 1433.47,-174.69 1293,-143 1289.59,-142.23 1286.06,-141.277 1282.58,-140.231"/>
<polygon fill="midnightblue" stroke="midnightblue" points="1283.56,-136.87 1272.97,-137.108 1281.4,-143.528 1283.56,-136.87"/>
</g>
<!-- Node27 -->
<g id="node27" class="node"><title>Node27</title>
<polygon fill="white" stroke="#bfbfbf" points="1302,-118 1302,-137 1384,-137 1384,-118 1302,-118"/>
<text text-anchor="middle" x="1343" y="-125" font-family="Helvetica,sans-Serif" font-size="10.00">osg/ClearNode</text>
</g>
<!-- Node15&#45;&gt;Node27 -->
<g id="edge28" class="edge"><title>Node15&#45;&gt;Node27</title>
<path fill="none" stroke="midnightblue" d="M1681.86,-186.34C1599.15,-175.439 1446.9,-154.714 1393,-143 1388.61,-142.046 1384.04,-140.915 1379.52,-139.713"/>
<polygon fill="midnightblue" stroke="midnightblue" points="1380.39,-136.321 1369.81,-137.006 1378.51,-143.064 1380.39,-136.321"/>
</g>
<!-- Node28 -->
<g id="node28" class="node"><title>Node28</title>
<polygon fill="white" stroke="#bfbfbf" points="1402.5,-118 1402.5,-137 1481.5,-137 1481.5,-118 1402.5,-118"/>
<text text-anchor="middle" x="1442" y="-125" font-family="Helvetica,sans-Serif" font-size="10.00">osg/LineWidth</text>
</g>
<!-- Node15&#45;&gt;Node28 -->
<g id="edge29" class="edge"><title>Node15&#45;&gt;Node28</title>
<path fill="none" stroke="midnightblue" d="M1681.98,-183.597C1631.93,-174.257 1556.14,-159.292 1491,-143 1487.14,-142.035 1483.13,-140.963 1479.14,-139.851"/>
<polygon fill="midnightblue" stroke="midnightblue" points="1479.94,-136.438 1469.36,-137.044 1478,-143.167 1479.94,-136.438"/>
</g>
<!-- Node29 -->
<g id="node29" class="node"><title>Node29</title>
<polygon fill="white" stroke="#bfbfbf" points="1500,-118 1500,-137 1582,-137 1582,-118 1500,-118"/>
<text text-anchor="middle" x="1541" y="-125" font-family="Helvetica,sans-Serif" font-size="10.00">osg/AlphaFunc</text>
</g>
<!-- Node15&#45;&gt;Node29 -->
<g id="edge30" class="edge"><title>Node15&#45;&gt;Node29</title>
<path fill="none" stroke="midnightblue" d="M1694.47,-179.396C1659.17,-167.688 1609.54,-151.231 1576.38,-140.234"/>
<polygon fill="midnightblue" stroke="midnightblue" points="1577.25,-136.833 1566.65,-137.007 1575.04,-143.477 1577.25,-136.833"/>
</g>
<!-- Node30 -->
<g id="node30" class="node"><title>Node30</title>
<polygon fill="white" stroke="#bfbfbf" points="1600,-118 1600,-137 1682,-137 1682,-118 1600,-118"/>
<text text-anchor="middle" x="1641" y="-125" font-family="Helvetica,sans-Serif" font-size="10.00">osg/BlendFunc</text>
</g>
<!-- Node15&#45;&gt;Node30 -->
<g id="edge31" class="edge"><title>Node15&#45;&gt;Node30</title>
<path fill="none" stroke="midnightblue" d="M1716.17,-179.396C1700.22,-168.597 1678.3,-153.756 1662.25,-142.887"/>
<polygon fill="midnightblue" stroke="midnightblue" points="1663.81,-139.715 1653.56,-137.007 1659.88,-145.512 1663.81,-139.715"/>
</g>
<!-- Node31 -->
<g id="node31" class="node"><title>Node31</title>
<polygon fill="white" stroke="#bfbfbf" points="1700,-118 1700,-137 1774,-137 1774,-118 1700,-118"/>
<text text-anchor="middle" x="1737" y="-125" font-family="Helvetica,sans-Serif" font-size="10.00">osg/StateSet</text>
</g>
<!-- Node15&#45;&gt;Node31 -->
<g id="edge32" class="edge"><title>Node15&#45;&gt;Node31</title>
<path fill="none" stroke="midnightblue" d="M1737,-179.396C1737,-170.064 1737,-157.714 1737,-147.517"/>
<polygon fill="midnightblue" stroke="midnightblue" points="1740.5,-147.195 1737,-137.195 1733.5,-147.195 1740.5,-147.195"/>
</g>
<!-- Node32 -->
<g id="node32" class="node"><title>Node32</title>
<polygon fill="white" stroke="#bfbfbf" points="1792,-118 1792,-137 1854,-137 1854,-118 1792,-118"/>
<text text-anchor="middle" x="1823" y="-125" font-family="Helvetica,sans-Serif" font-size="10.00">osg/Depth</text>
</g>
<!-- Node15&#45;&gt;Node32 -->
<g id="edge33" class="edge"><title>Node15&#45;&gt;Node32</title>
<path fill="none" stroke="midnightblue" d="M1755.66,-179.396C1769.73,-168.759 1788.99,-154.203 1803.31,-143.381"/>
<polygon fill="midnightblue" stroke="midnightblue" points="1805.63,-146.016 1811.5,-137.195 1801.41,-140.432 1805.63,-146.016"/>
</g>
<!-- Node33 -->
<g id="node33" class="node"><title>Node33</title>
<polygon fill="white" stroke="#bfbfbf" points="1872.5,-118 1872.5,-137 1931.5,-137 1931.5,-118 1872.5,-118"/>
<text text-anchor="middle" x="1902" y="-125" font-family="Helvetica,sans-Serif" font-size="10.00">osg/State</text>
</g>
<!-- Node15&#45;&gt;Node33 -->
<g id="edge34" class="edge"><title>Node15&#45;&gt;Node33</title>
<path fill="none" stroke="midnightblue" d="M1772.8,-179.396C1802.01,-167.89 1842.86,-151.797 1870.76,-140.807"/>
<polygon fill="midnightblue" stroke="midnightblue" points="1872.38,-143.929 1880.41,-137.007 1869.82,-137.416 1872.38,-143.929"/>
</g>
<!-- Node34 -->
<g id="node34" class="node"><title>Node34</title>
<polygon fill="white" stroke="#bfbfbf" points="1950,-118 1950,-137 2006,-137 2006,-118 1950,-118"/>
<text text-anchor="middle" x="1978" y="-125" font-family="Helvetica,sans-Serif" font-size="10.00">osg/Light</text>
</g>
<!-- Node15&#45;&gt;Node34 -->
<g id="edge35" class="edge"><title>Node15&#45;&gt;Node34</title>
<path fill="none" stroke="midnightblue" d="M1792.09,-181.916C1833.45,-172.724 1891.28,-158.821 1941,-143 1943.27,-142.276 1945.61,-141.483 1947.95,-140.653"/>
<polygon fill="midnightblue" stroke="midnightblue" points="1949.28,-143.89 1957.43,-137.112 1946.84,-137.332 1949.28,-143.89"/>
</g>
<!-- Node35 -->
<g id="node35" class="node"><title>Node35</title>
<polygon fill="white" stroke="#bfbfbf" points="2024.5,-118 2024.5,-137 2111.5,-137 2111.5,-118 2024.5,-118"/>
<text text-anchor="middle" x="2068" y="-125" font-family="Helvetica,sans-Serif" font-size="10.00">osg/LightSource</text>
</g>
<!-- Node15&#45;&gt;Node35 -->
<g id="edge36" class="edge"><title>Node15&#45;&gt;Node35</title>
<path fill="none" stroke="midnightblue" d="M1792.15,-184.941C1848.44,-175.862 1938.22,-160.441 2015,-143 2019.46,-141.986 2024.12,-140.843 2028.73,-139.654"/>
<polygon fill="midnightblue" stroke="midnightblue" points="2029.91,-142.962 2038.68,-137.013 2028.12,-136.196 2029.91,-142.962"/>
</g>
<!-- Node36 -->
<g id="node36" class="node"><title>Node36</title>
<polygon fill="white" stroke="#bfbfbf" points="2130,-118 2130,-137 2200,-137 2200,-118 2130,-118"/>
<text text-anchor="middle" x="2165" y="-125" font-family="Helvetica,sans-Serif" font-size="10.00">osg/Material</text>
</g>
<!-- Node15&#45;&gt;Node36 -->
<g id="edge37" class="edge"><title>Node15&#45;&gt;Node36</title>
<path fill="none" stroke="midnightblue" d="M1792.26,-189.507C1867.39,-183.339 2005.63,-169.351 2121,-143 2124.67,-142.163 2128.46,-141.148 2132.21,-140.048"/>
<polygon fill="midnightblue" stroke="midnightblue" points="2133.44,-143.331 2141.94,-137.002 2131.35,-136.651 2133.44,-143.331"/>
</g>
<!-- Node37 -->
<g id="node37" class="node"><title>Node37</title>
<polygon fill="white" stroke="#bfbfbf" points="2218,-118 2218,-137 2288,-137 2288,-118 2218,-118"/>
<text text-anchor="middle" x="2253" y="-125" font-family="Helvetica,sans-Serif" font-size="10.00">osg/Camera</text>
</g>
<!-- Node15&#45;&gt;Node37 -->
<g id="edge38" class="edge"><title>Node15&#45;&gt;Node37</title>
<path fill="none" stroke="midnightblue" d="M1792.11,-191.386C1880.81,-187.14 2060.37,-175.062 2209,-143 2212.68,-142.207 2216.48,-141.22 2220.23,-140.137"/>
<polygon fill="midnightblue" stroke="midnightblue" points="2221.45,-143.423 2229.96,-137.11 2219.37,-136.739 2221.45,-143.423"/>
</g>
<!-- Node38 -->
<g id="node38" class="node"><title>Node38</title>
<polygon fill="white" stroke="#bfbfbf" points="2306,-118 2306,-137 2380,-137 2380,-118 2306,-118"/>
<text text-anchor="middle" x="2343" y="-125" font-family="Helvetica,sans-Serif" font-size="10.00">osg/Viewport</text>
</g>
<!-- Node15&#45;&gt;Node38 -->
<g id="edge39" class="edge"><title>Node15&#45;&gt;Node38</title>
<path fill="none" stroke="midnightblue" d="M1792.01,-192.456C1893.02,-189.676 2114.42,-179.563 2297,-143 2301.16,-142.168 2305.47,-141.097 2309.71,-139.916"/>
<polygon fill="midnightblue" stroke="midnightblue" points="2310.81,-143.241 2319.38,-137.017 2308.8,-136.536 2310.81,-143.241"/>
</g>
<!-- Node39 -->
<g id="node39" class="node"><title>Node39</title>
<polygon fill="white" stroke="#bfbfbf" points="2398.5,-118 2398.5,-137 2493.5,-137 2493.5,-118 2398.5,-118"/>
<text text-anchor="middle" x="2446" y="-125" font-family="Helvetica,sans-Serif" font-size="10.00">osgViewer/Viewer</text>
</g>
<!-- Node15&#45;&gt;Node39 -->
<g id="edge40" class="edge"><title>Node15&#45;&gt;Node39</title>
<path fill="none" stroke="midnightblue" d="M1792.34,-192.414C1905.24,-189.497 2169.99,-179.063 2389,-143 2394.81,-142.043 2400.89,-140.782 2406.83,-139.402"/>
<polygon fill="midnightblue" stroke="midnightblue" points="2407.74,-142.783 2416.62,-137 2406.07,-135.985 2407.74,-142.783"/>
</g>
<!-- Node40 -->
<g id="node40" class="node"><title>Node40</title>
<polygon fill="white" stroke="#bfbfbf" points="2512,-118 2512,-137 2630,-137 2630,-118 2512,-118"/>
<text text-anchor="middle" x="2571" y="-125" font-family="Helvetica,sans-Serif" font-size="10.00">osgViewer/ViewerBase</text>
</g>
<!-- Node15&#45;&gt;Node40 -->
<g id="edge41" class="edge"><title>Node15&#45;&gt;Node40</title>
<path fill="none" stroke="midnightblue" d="M1792.08,-192.59C1918.37,-189.911 2238.32,-179.748 2503,-143 2510.32,-141.984 2518.02,-140.626 2525.51,-139.146"/>
<polygon fill="midnightblue" stroke="midnightblue" points="2526.44,-142.527 2535.53,-137.075 2525.03,-135.672 2526.44,-142.527"/>
</g>
<!-- Node41 -->
<g id="node41" class="node"><title>Node41</title>
<polygon fill="white" stroke="#bfbfbf" points="2648.5,-118 2648.5,-137 2757.5,-137 2757.5,-118 2648.5,-118"/>
<text text-anchor="middle" x="2703" y="-125" font-family="Helvetica,sans-Serif" font-size="10.00">osg/GraphicsContext</text>
</g>
<!-- Node15&#45;&gt;Node41 -->
<g id="edge42" class="edge"><title>Node15&#45;&gt;Node41</title>
<path fill="none" stroke="midnightblue" d="M1792.22,-193.604C1933.73,-193.179 2320.59,-187.665 2639,-143 2645.9,-142.032 2653.15,-140.7 2660.2,-139.232"/>
<polygon fill="midnightblue" stroke="midnightblue" points="2661.29,-142.575 2670.31,-137.011 2659.79,-135.738 2661.29,-142.575"/>
</g>
<!-- Node42 -->
<g id="node42" class="node"><title>Node42</title>
<polygon fill="white" stroke="#bfbfbf" points="2775.5,-118 2775.5,-137 2870.5,-137 2870.5,-118 2775.5,-118"/>
<text text-anchor="middle" x="2823" y="-125" font-family="Helvetica,sans-Serif" font-size="10.00">osg/PolygonMode</text>
</g>
<!-- Node15&#45;&gt;Node42 -->
<g id="edge43" class="edge"><title>Node15&#45;&gt;Node42</title>
<path fill="none" stroke="midnightblue" d="M1792.18,-192.282C1977.47,-187.959 2576.4,-172.036 2767,-143 2772.85,-142.109 2778.98,-140.859 2784.94,-139.464"/>
<polygon fill="midnightblue" stroke="midnightblue" points="2785.89,-142.834 2794.74,-137.015 2784.19,-136.042 2785.89,-142.834"/>
</g>
<!-- Node43&#45;&gt;Node15 -->
<g id="edge49" class="edge"><title>Node43&#45;&gt;Node15</title>
<path fill="none" stroke="midnightblue" d="M1601.74,-314.004C1627.77,-306.232 1657.17,-294.439 1680,-277 1700.15,-261.615 1715.93,-237.072 1725.73,-218.934"/>
<polygon fill="midnightblue" stroke="midnightblue" points="1729.07,-220.107 1730.55,-209.616 1722.85,-216.891 1729.07,-220.107"/>
</g>
<!-- Node44 -->
<g id="node44" class="node"><title>Node44</title>
<polygon fill="white" stroke="#bfbfbf" points="1552,-185 1552,-204 1606,-204 1606,-185 1552,-185"/>
<text text-anchor="middle" x="1579" y="-192" font-family="Helvetica,sans-Serif" font-size="10.00">iostream</text>
</g>
<!-- Node43&#45;&gt;Node44 -->
<g id="edge47" class="edge"><title>Node43&#45;&gt;Node44</title>
<path fill="none" stroke="midnightblue" d="M1541.54,-313.466C1544.67,-297.072 1550.52,-269.233 1558,-246 1561.55,-234.982 1566.48,-223.006 1570.67,-213.483"/>
<polygon fill="midnightblue" stroke="midnightblue" points="1573.9,-214.828 1574.83,-204.273 1567.52,-211.947 1573.9,-214.828"/>
</g>
<!-- Node45 -->
<g id="node45" class="node"><title>Node45</title>
<polygon fill="white" stroke="#bfbfbf" points="1461,-252 1461,-271 1511,-271 1511,-252 1461,-252"/>
<text text-anchor="middle" x="1486" y="-259" font-family="Helvetica,sans-Serif" font-size="10.00">fstream</text>
</g>
<!-- Node43&#45;&gt;Node45 -->
<g id="edge48" class="edge"><title>Node43&#45;&gt;Node45</title>
<path fill="none" stroke="midnightblue" d="M1527.5,-313.396C1519.32,-303.361 1508.29,-289.838 1499.66,-279.253"/>
<polygon fill="midnightblue" stroke="midnightblue" points="1502.12,-276.733 1493.09,-271.195 1496.7,-281.157 1502.12,-276.733"/>
</g>
<!-- Node46 -->
<g id="node46" class="node"><title>Node46</title>
<g id="a_node46"><a xlink:href="a00108.html" target="_top" xlink:title="gepetto/viewer/node\l&#45;visitor.h">
<polygon fill="white" stroke="black" points="1567,-246.5 1567,-276.5 1671,-276.5 1671,-246.5 1567,-246.5"/>
<text text-anchor="start" x="1575" y="-264.5" font-family="Helvetica,sans-Serif" font-size="10.00">gepetto/viewer/node</text>
<text text-anchor="middle" x="1619" y="-253.5" font-family="Helvetica,sans-Serif" font-size="10.00">&#45;visitor.h</text>
</a>
</g>
</g>
<!-- Node43&#45;&gt;Node46 -->
<g id="edge50" class="edge"><title>Node43&#45;&gt;Node46</title>
<path fill="none" stroke="midnightblue" d="M1556.36,-313.396C1567.26,-304.538 1581.51,-292.96 1593.66,-283.086"/>
<polygon fill="midnightblue" stroke="midnightblue" points="1596.12,-285.599 1601.68,-276.577 1591.71,-280.166 1596.12,-285.599"/>
</g>
<!-- Node46&#45;&gt;Node15 -->
<g id="edge52" class="edge"><title>Node46&#45;&gt;Node15</title>
<path fill="none" stroke="midnightblue" d="M1644.6,-246.396C1661.54,-237.069 1683.94,-224.728 1702.45,-214.534"/>
<polygon fill="midnightblue" stroke="midnightblue" points="1704.38,-217.467 1711.45,-209.577 1701,-211.336 1704.38,-217.467"/>
</g>
<!-- Node46&#45;&gt;Node44 -->
<g id="edge51" class="edge"><title>Node46&#45;&gt;Node44</title>
<path fill="none" stroke="midnightblue" d="M1610.32,-246.396C1604.27,-236.562 1596.16,-223.378 1589.7,-212.892"/>
<polygon fill="midnightblue" stroke="midnightblue" points="1592.57,-210.877 1584.35,-204.195 1586.61,-214.545 1592.57,-210.877"/>
</g>
</g>
</svg>
