<?xml version="1.0" encoding="UTF-8" standalone="no"?>
<!DOCTYPE svg PUBLIC "-//W3C//DTD SVG 1.1//EN"
 "http://www.w3.org/Graphics/SVG/1.1/DTD/svg11.dtd">
<!-- Generated by graphviz version 2.38.0 (20140413.2041)
 -->
<!-- Title: settings.hh Pages: 1 -->
<svg width="662pt" height="285pt"
 viewBox="0.00 0.00 662.00 285.00" xmlns="http://www.w3.org/2000/svg" xmlns:xlink="http://www.w3.org/1999/xlink">
<g id="graph0" class="graph" transform="scale(1 1) rotate(0) translate(4 281)">
<title>settings.hh</title>
<polygon fill="white" stroke="none" points="-4,4 -4,-281 658,-281 658,4 -4,4"/>
<!-- Node1 -->
<g id="node1" class="node"><title>Node1</title>
<polygon fill="#bfbfbf" stroke="black" points="122.5,-257.5 122.5,-276.5 187.5,-276.5 187.5,-257.5 122.5,-257.5"/>
<text text-anchor="middle" x="155" y="-264.5" font-family="Helvetica,sans-Serif" font-size="10.00">settings.hh</text>
</g>
<!-- Node2 -->
<g id="node2" class="node"><title>Node2</title>
<polygon fill="white" stroke="#bfbfbf" points="0,-196 0,-215 52,-215 52,-196 0,-196"/>
<text text-anchor="middle" x="26" y="-203" font-family="Helvetica,sans-Serif" font-size="10.00">ostream</text>
</g>
<!-- Node1&#45;&gt;Node2 -->
<g id="edge1" class="edge"><title>Node1&#45;&gt;Node2</title>
<path fill="none" stroke="midnightblue" d="M136.517,-257.475C114.868,-247.49 78.7872,-230.848 53.7675,-219.307"/>
<polygon fill="midnightblue" stroke="midnightblue" points="54.9948,-216.019 44.4483,-215.009 52.063,-222.376 54.9948,-216.019"/>
</g>
<!-- Node3 -->
<g id="node3" class="node"><title>Node3</title>
<polygon fill="white" stroke="#bfbfbf" points="70.5,-196 70.5,-215 111.5,-215 111.5,-196 70.5,-196"/>
<text text-anchor="middle" x="91" y="-203" font-family="Helvetica,sans-Serif" font-size="10.00">string</text>
</g>
<!-- Node1&#45;&gt;Node3 -->
<g id="edge2" class="edge"><title>Node1&#45;&gt;Node3</title>
<path fill="none" stroke="midnightblue" d="M145.83,-257.475C135.85,-248.197 119.688,-233.171 107.491,-221.831"/>
<polygon fill="midnightblue" stroke="midnightblue" points="109.86,-219.255 100.153,-215.009 105.093,-224.381 109.86,-219.255"/>
</g>
<!-- Node4 -->
<g id="node4" class="node"><title>Node4</title>
<polygon fill="white" stroke="#bfbfbf" points="130,-196 130,-215 180,-215 180,-196 130,-196"/>
<text text-anchor="middle" x="155" y="-203" font-family="Helvetica,sans-Serif" font-size="10.00">QString</text>
</g>
<!-- Node1&#45;&gt;Node4 -->
<g id="edge3" class="edge"><title>Node1&#45;&gt;Node4</title>
<path fill="none" stroke="midnightblue" d="M155,-257.475C155,-249.08 155,-235.981 155,-225.163"/>
<polygon fill="midnightblue" stroke="midnightblue" points="158.5,-225.009 155,-215.009 151.5,-225.009 158.5,-225.009"/>
</g>
<!-- Node5 -->
<g id="node5" class="node"><title>Node5</title>
<polygon fill="white" stroke="#bfbfbf" points="198.5,-196 198.5,-215 263.5,-215 263.5,-196 198.5,-196"/>
<text text-anchor="middle" x="231" y="-203" font-family="Helvetica,sans-Serif" font-size="10.00">QStringList</text>
</g>
<!-- Node1&#45;&gt;Node5 -->
<g id="edge4" class="edge"><title>Node1&#45;&gt;Node5</title>
<path fill="none" stroke="midnightblue" d="M165.889,-257.475C177.966,-248.02 197.667,-232.596 212.24,-221.187"/>
<polygon fill="midnightblue" stroke="midnightblue" points="214.415,-223.929 220.131,-215.009 210.1,-218.418 214.415,-223.929"/>
</g>
<!-- Node6 -->
<g id="node6" class="node"><title>Node6</title>
<g id="a_node6"><a xlink:href="a00114.html" target="_top" xlink:title="gepetto/gui/dialog\l/pluginmanagerdialog.hh">
<polygon fill="white" stroke="black" points="282,-190.5 282,-220.5 404,-220.5 404,-190.5 282,-190.5"/>
<text text-anchor="start" x="290" y="-208.5" font-family="Helvetica,sans-Serif" font-size="10.00">gepetto/gui/dialog</text>
<text text-anchor="middle" x="343" y="-197.5" font-family="Helvetica,sans-Serif" font-size="10.00">/pluginmanagerdialog.hh</text>
</a>
</g>
</g>
<!-- Node1&#45;&gt;Node6 -->
<g id="edge5" class="edge"><title>Node1&#45;&gt;Node6</title>
<path fill="none" stroke="midnightblue" d="M181.936,-257.475C209.777,-248.664 253.997,-234.668 289.065,-223.57"/>
<polygon fill="midnightblue" stroke="midnightblue" points="290.214,-226.877 298.692,-220.523 288.102,-220.204 290.214,-226.877"/>
</g>
<!-- Node7 -->
<g id="node7" class="node"><title>Node7</title>
<polygon fill="white" stroke="#bfbfbf" points="197,-0.5 197,-19.5 249,-19.5 249,-0.5 197,-0.5"/>
<text text-anchor="middle" x="223" y="-7.5" font-family="Helvetica,sans-Serif" font-size="10.00">QDialog</text>
</g>
<!-- Node6&#45;&gt;Node7 -->
<g id="edge6" class="edge"><title>Node6&#45;&gt;Node7</title>
<path fill="none" stroke="midnightblue" d="M281.981,-191.867C221.212,-179.096 134.872,-160.362 120,-154 70.4733,-132.814 44.4722,-134.465 19,-87 -15.6071,-22.5135 118.859,-12.0996 186.423,-10.8525"/>
<polygon fill="midnightblue" stroke="midnightblue" points="186.7,-14.3494 196.656,-10.7242 186.612,-7.34997 186.7,-14.3494"/>
</g>
<!-- Node8 -->
<g id="node8" class="node"><title>Node8</title>
<polygon fill="white" stroke="#bfbfbf" points="240.5,-129 240.5,-148 283.5,-148 283.5,-129 240.5,-129"/>
<text text-anchor="middle" x="262" y="-136" font-family="Helvetica,sans-Serif" font-size="10.00">QMap</text>
</g>
<!-- Node6&#45;&gt;Node8 -->
<g id="edge7" class="edge"><title>Node6&#45;&gt;Node8</title>
<path fill="none" stroke="midnightblue" d="M325.424,-190.396C312.294,-179.86 294.372,-165.477 280.927,-154.689"/>
<polygon fill="midnightblue" stroke="midnightblue" points="282.825,-151.723 272.835,-148.195 278.443,-157.183 282.825,-151.723"/>
</g>
<!-- Node9 -->
<g id="node9" class="node"><title>Node9</title>
<polygon fill="white" stroke="#bfbfbf" points="301.5,-129 301.5,-148 384.5,-148 384.5,-129 301.5,-129"/>
<text text-anchor="middle" x="343" y="-136" font-family="Helvetica,sans-Serif" font-size="10.00">QSignalMapper</text>
</g>
<!-- Node6&#45;&gt;Node9 -->
<g id="edge8" class="edge"><title>Node6&#45;&gt;Node9</title>
<path fill="none" stroke="midnightblue" d="M343,-190.396C343,-181.064 343,-168.714 343,-158.517"/>
<polygon fill="midnightblue" stroke="midnightblue" points="346.5,-158.195 343,-148.195 339.5,-158.195 346.5,-158.195"/>
</g>
<!-- Node10 -->
<g id="node10" class="node"><title>Node10</title>
<polygon fill="white" stroke="#bfbfbf" points="402.5,-129 402.5,-148 439.5,-148 439.5,-129 402.5,-129"/>
<text text-anchor="middle" x="421" y="-136" font-family="Helvetica,sans-Serif" font-size="10.00">QDir</text>
</g>
<!-- Node6&#45;&gt;Node10 -->
<g id="edge9" class="edge"><title>Node6&#45;&gt;Node10</title>
<path fill="none" stroke="midnightblue" d="M359.925,-190.396C372.568,-179.86 389.827,-165.477 402.774,-154.689"/>
<polygon fill="midnightblue" stroke="midnightblue" points="405.125,-157.285 410.567,-148.195 400.644,-151.908 405.125,-157.285"/>
</g>
<!-- Node11 -->
<g id="node11" class="node"><title>Node11</title>
<polygon fill="white" stroke="#bfbfbf" points="458,-129 458,-148 538,-148 538,-129 458,-129"/>
<text text-anchor="middle" x="498" y="-136" font-family="Helvetica,sans-Serif" font-size="10.00">QPluginLoader</text>
</g>
<!-- Node6&#45;&gt;Node11 -->
<g id="edge10" class="edge"><title>Node6&#45;&gt;Node11</title>
<path fill="none" stroke="midnightblue" d="M376.633,-190.396C403.95,-178.941 442.108,-162.938 468.306,-151.952"/>
<polygon fill="midnightblue" stroke="midnightblue" points="469.846,-155.102 477.714,-148.007 467.139,-148.647 469.846,-155.102"/>
</g>
<!-- Node12 -->
<g id="node12" class="node"><title>Node12</title>
<polygon fill="white" stroke="#bfbfbf" points="556,-129 556,-148 654,-148 654,-129 556,-129"/>
<text text-anchor="middle" x="605" y="-136" font-family="Helvetica,sans-Serif" font-size="10.00">QTableWidgetItem</text>
</g>
<!-- Node6&#45;&gt;Node12 -->
<g id="edge11" class="edge"><title>Node6&#45;&gt;Node12</title>
<path fill="none" stroke="midnightblue" d="M399.728,-190.494C440.665,-180.378 497.254,-166.376 547,-154 551.605,-152.854 556.415,-151.656 561.21,-150.459"/>
<polygon fill="midnightblue" stroke="midnightblue" points="562.107,-153.843 570.961,-148.024 560.41,-147.051 562.107,-153.843"/>
</g>
<!-- Node13 -->
<g id="node13" class="node"><title>Node13</title>
<g id="a_node13"><a xlink:href="a00113.html" target="_top" xlink:title="gepetto/gui/plugin\l&#45;interface.hh">
<polygon fill="white" stroke="black" points="129.5,-123.5 129.5,-153.5 222.5,-153.5 222.5,-123.5 129.5,-123.5"/>
<text text-anchor="start" x="137.5" y="-141.5" font-family="Helvetica,sans-Serif" font-size="10.00">gepetto/gui/plugin</text>
<text text-anchor="middle" x="176" y="-130.5" font-family="Helvetica,sans-Serif" font-size="10.00">&#45;interface.hh</text>
</a>
</g>
</g>
<!-- Node6&#45;&gt;Node13 -->
<g id="edge12" class="edge"><title>Node6&#45;&gt;Node13</title>
<path fill="none" stroke="midnightblue" d="M306.763,-190.396C281.816,-180.686 248.475,-167.709 221.704,-157.289"/>
<polygon fill="midnightblue" stroke="midnightblue" points="222.754,-153.942 212.166,-153.577 220.215,-160.465 222.754,-153.942"/>
</g>
<!-- Node14 -->
<g id="node14" class="node"><title>Node14</title>
<polygon fill="white" stroke="#bfbfbf" points="438,-62 438,-81 480,-81 480,-62 438,-62"/>
<text text-anchor="middle" x="459" y="-69" font-family="Helvetica,sans-Serif" font-size="10.00">QtGui</text>
</g>
<!-- Node13&#45;&gt;Node14 -->
<g id="edge13" class="edge"><title>Node13&#45;&gt;Node14</title>
<path fill="none" stroke="midnightblue" d="M222.747,-124.911C225.534,-124.243 228.301,-123.6 231,-123 318.31,-103.585 343.959,-114.714 429,-87 430.626,-86.4701 432.276,-85.8692 433.924,-85.2208"/>
<polygon fill="midnightblue" stroke="midnightblue" points="435.406,-88.3926 443.14,-81.151 432.578,-81.9892 435.406,-88.3926"/>
</g>
<!-- Node15 -->
<g id="node15" class="node"><title>Node15</title>
<polygon fill="white" stroke="#bfbfbf" points="28.5,-62 28.5,-81 83.5,-81 83.5,-62 28.5,-62"/>
<text text-anchor="middle" x="56" y="-69" font-family="Helvetica,sans-Serif" font-size="10.00">QWidget</text>
</g>
<!-- Node13&#45;&gt;Node15 -->
<g id="edge14" class="edge"><title>Node13&#45;&gt;Node15</title>
<path fill="none" stroke="midnightblue" d="M149.962,-123.396C129.372,-112.243 100.827,-96.7812 80.6159,-85.8336"/>
<polygon fill="midnightblue" stroke="midnightblue" points="82.1652,-82.6924 71.7052,-81.007 78.8312,-88.8474 82.1652,-82.6924"/>
</g>
<!-- Node16 -->
<g id="node16" class="node"><title>Node16</title>
<polygon fill="white" stroke="#bfbfbf" points="102,-62 102,-81 156,-81 156,-62 102,-62"/>
<text text-anchor="middle" x="129" y="-69" font-family="Helvetica,sans-Serif" font-size="10.00">iostream</text>
</g>
<!-- Node13&#45;&gt;Node16 -->
<g id="edge15" class="edge"><title>Node13&#45;&gt;Node16</title>
<path fill="none" stroke="midnightblue" d="M165.802,-123.396C158.618,-113.462 148.963,-100.108 141.344,-89.5719"/>
<polygon fill="midnightblue" stroke="midnightblue" points="143.983,-87.2472 135.287,-81.1945 138.31,-91.3489 143.983,-87.2472"/>
</g>
<!-- Node17 -->
<g id="node17" class="node"><title>Node17</title>
<g id="a_node17"><a xlink:href="a00083.html" target="_top" xlink:title="gepetto/gui/dialog\l/dialogloadrobot.hh">
<polygon fill="white" stroke="black" points="174,-56.5 174,-86.5 272,-86.5 272,-56.5 174,-56.5"/>
<text text-anchor="start" x="182" y="-74.5" font-family="Helvetica,sans-Serif" font-size="10.00">gepetto/gui/dialog</text>
<text text-anchor="middle" x="223" y="-63.5" font-family="Helvetica,sans-Serif" font-size="10.00">/dialogloadrobot.hh</text>
</a>
</g>
</g>
<!-- Node13&#45;&gt;Node17 -->
<g id="edge16" class="edge"><title>Node13&#45;&gt;Node17</title>
<path fill="none" stroke="midnightblue" d="M186.198,-123.396C192.234,-115.049 200.015,-104.287 206.867,-94.8113"/>
<polygon fill="midnightblue" stroke="midnightblue" points="209.798,-96.7309 212.822,-86.5765 204.126,-92.6292 209.798,-96.7309"/>
</g>
<!-- Node19 -->
<g id="node19" class="node"><title>Node19</title>
<g id="a_node19"><a xlink:href="a00082.html" target="_top" xlink:title="gepetto/gui/dialog\l/dialogloadenvironment.hh">
<polygon fill="white" stroke="black" points="290,-56.5 290,-86.5 420,-86.5 420,-56.5 290,-56.5"/>
<text text-anchor="start" x="298" y="-74.5" font-family="Helvetica,sans-Serif" font-size="10.00">gepetto/gui/dialog</text>
<text text-anchor="middle" x="355" y="-63.5" font-family="Helvetica,sans-Serif" font-size="10.00">/dialogloadenvironment.hh</text>
</a>
</g>
</g>
<!-- Node13&#45;&gt;Node19 -->
<g id="edge19" class="edge"><title>Node13&#45;&gt;Node19</title>
<path fill="none" stroke="midnightblue" d="M214.84,-123.396C241.815,-113.601 277.945,-100.481 306.765,-90.0153"/>
<polygon fill="midnightblue" stroke="midnightblue" points="308.031,-93.2796 316.235,-86.5765 305.641,-86.7 308.031,-93.2796"/>
</g>
<!-- Node17&#45;&gt;Node7 -->
<g id="edge17" class="edge"><title>Node17&#45;&gt;Node7</title>
<path fill="none" stroke="midnightblue" d="M223,-56.3993C223,-48.4664 223,-38.458 223,-29.8583"/>
<polygon fill="midnightblue" stroke="midnightblue" points="226.5,-29.6577 223,-19.6578 219.5,-29.6578 226.5,-29.6577"/>
</g>
<!-- Node18 -->
<g id="node18" class="node"><title>Node18</title>
<polygon fill="white" stroke="#bfbfbf" points="292.5,-0.5 292.5,-19.5 365.5,-19.5 365.5,-0.5 292.5,-0.5"/>
<text text-anchor="middle" x="329" y="-7.5" font-family="Helvetica,sans-Serif" font-size="10.00">QComboBox</text>
</g>
<!-- Node17&#45;&gt;Node18 -->
<g id="edge18" class="edge"><title>Node17&#45;&gt;Node18</title>
<path fill="none" stroke="midnightblue" d="M248.121,-56.3993C265.27,-46.7728 287.865,-34.0902 304.812,-24.5772"/>
<polygon fill="midnightblue" stroke="midnightblue" points="306.569,-27.6047 313.576,-19.6578 303.143,-21.5006 306.569,-27.6047"/>
</g>
<!-- Node19&#45;&gt;Node7 -->
<g id="edge20" class="edge"><title>Node19&#45;&gt;Node7</title>
<path fill="none" stroke="midnightblue" d="M323.718,-56.3993C301.768,-46.5054 272.657,-33.3832 251.379,-23.7919"/>
<polygon fill="midnightblue" stroke="midnightblue" points="252.762,-20.5764 242.207,-19.6578 249.886,-26.958 252.762,-20.5764"/>
</g>
<!-- Node19&#45;&gt;Node18 -->
<g id="edge21" class="edge"><title>Node19&#45;&gt;Node18</title>
<path fill="none" stroke="midnightblue" d="M348.838,-56.3993C345.255,-48.1989 340.703,-37.7809 336.863,-28.9936"/>
<polygon fill="midnightblue" stroke="midnightblue" points="339.995,-27.4197 332.783,-19.6578 333.58,-30.2226 339.995,-27.4197"/>
</g>
</g>
</svg>
