<?xml version="1.0" encoding="UTF-8" standalone="no"?>
<!DOCTYPE svg PUBLIC "-//W3C//DTD SVG 1.1//EN"
 "http://www.w3.org/Graphics/SVG/1.1/DTD/svg11.dtd">
<!-- Generated by graphviz version 2.38.0 (20140413.2041)
 -->
<!-- Title: tree&#45;item.hh Pages: 1 -->
<svg width="2830pt" height="397pt"
 viewBox="0.00 0.00 2829.50 397.00" xmlns="http://www.w3.org/2000/svg" xmlns:xlink="http://www.w3.org/1999/xlink">
<g id="graph0" class="graph" transform="scale(1 1) rotate(0) translate(4 393)">
<title>tree&#45;item.hh</title>
<polygon fill="white" stroke="none" points="-4,4 -4,-393 2825.5,-393 2825.5,4 -4,4"/>
<!-- Node1 -->
<g id="node1" class="node"><title>Node1</title>
<polygon fill="#bfbfbf" stroke="black" points="785,-369.5 785,-388.5 853,-388.5 853,-369.5 785,-369.5"/>
<text text-anchor="middle" x="819" y="-376.5" font-family="Helvetica,sans-Serif" font-size="10.00">tree&#45;item.hh</text>
</g>
<!-- Node2 -->
<g id="node2" class="node"><title>Node2</title>
<g id="a_node2"><a xlink:href="a00085.html" target="_top" xlink:title="gepetto/gui/fwd.hh">
<polygon fill="white" stroke="black" points="157.5,-185 157.5,-204 254.5,-204 254.5,-185 157.5,-185"/>
<text text-anchor="middle" x="206" y="-192" font-family="Helvetica,sans-Serif" font-size="10.00">gepetto/gui/fwd.hh</text>
</a>
</g>
</g>
<!-- Node1&#45;&gt;Node2 -->
<g id="edge1" class="edge"><title>Node1&#45;&gt;Node2</title>
<path fill="none" stroke="midnightblue" d="M784.666,-377.466C721.395,-375.632 582.741,-367.624 472,-333 374.927,-302.65 270.868,-238.381 227.197,-209.764"/>
<polygon fill="midnightblue" stroke="midnightblue" points="228.858,-206.666 218.586,-204.068 224.996,-212.504 228.858,-206.666"/>
</g>
<!-- Node12 -->
<g id="node12" class="node"><title>Node12</title>
<polygon fill="white" stroke="#bfbfbf" points="481.5,-313.5 481.5,-332.5 564.5,-332.5 564.5,-313.5 481.5,-313.5"/>
<text text-anchor="middle" x="523" y="-320.5" font-family="Helvetica,sans-Serif" font-size="10.00">QStandardItem</text>
</g>
<!-- Node1&#45;&gt;Node12 -->
<g id="edge12" class="edge"><title>Node1&#45;&gt;Node12</title>
<path fill="none" stroke="midnightblue" d="M784.756,-371.753C733.111,-362.331 634.93,-344.42 574.593,-333.412"/>
<polygon fill="midnightblue" stroke="midnightblue" points="574.983,-329.926 564.517,-331.574 573.727,-336.812 574.983,-329.926"/>
</g>
<!-- Node13 -->
<g id="node13" class="node"><title>Node13</title>
<polygon fill="white" stroke="#bfbfbf" points="582.5,-313.5 582.5,-332.5 665.5,-332.5 665.5,-313.5 582.5,-313.5"/>
<text text-anchor="middle" x="624" y="-320.5" font-family="Helvetica,sans-Serif" font-size="10.00">QItemDelegate</text>
</g>
<!-- Node1&#45;&gt;Node13 -->
<g id="edge13" class="edge"><title>Node1&#45;&gt;Node13</title>
<path fill="none" stroke="midnightblue" d="M788.102,-369.444C754.726,-360.201 701.406,-345.436 664.651,-335.257"/>
<polygon fill="midnightblue" stroke="midnightblue" points="665.325,-331.812 654.754,-332.516 663.457,-338.558 665.325,-331.812"/>
</g>
<!-- Node14 -->
<g id="node14" class="node"><title>Node14</title>
<polygon fill="white" stroke="#bfbfbf" points="684,-313.5 684,-332.5 776,-332.5 776,-313.5 684,-313.5"/>
<text text-anchor="middle" x="730" y="-320.5" font-family="Helvetica,sans-Serif" font-size="10.00">QDoubleSpinBox</text>
</g>
<!-- Node1&#45;&gt;Node14 -->
<g id="edge14" class="edge"><title>Node1&#45;&gt;Node14</title>
<path fill="none" stroke="midnightblue" d="M804.701,-369.324C790.817,-360.9 769.508,-347.971 753.196,-338.074"/>
<polygon fill="midnightblue" stroke="midnightblue" points="754.629,-334.85 744.264,-332.655 750.998,-340.834 754.629,-334.85"/>
</g>
<!-- Node15 -->
<g id="node15" class="node"><title>Node15</title>
<polygon fill="white" stroke="#bfbfbf" points="794.5,-313.5 794.5,-332.5 843.5,-332.5 843.5,-313.5 794.5,-313.5"/>
<text text-anchor="middle" x="819" y="-320.5" font-family="Helvetica,sans-Serif" font-size="10.00">QSlider</text>
</g>
<!-- Node1&#45;&gt;Node15 -->
<g id="edge15" class="edge"><title>Node1&#45;&gt;Node15</title>
<path fill="none" stroke="midnightblue" d="M819,-369.083C819,-362.006 819,-351.861 819,-342.986"/>
<polygon fill="midnightblue" stroke="midnightblue" points="822.5,-342.751 819,-332.751 815.5,-342.751 822.5,-342.751"/>
</g>
<!-- Node16 -->
<g id="node16" class="node"><title>Node16</title>
<polygon fill="white" stroke="#bfbfbf" points="862,-313.5 862,-332.5 910,-332.5 910,-313.5 862,-313.5"/>
<text text-anchor="middle" x="886" y="-320.5" font-family="Helvetica,sans-Serif" font-size="10.00">QMenu</text>
</g>
<!-- Node1&#45;&gt;Node16 -->
<g id="edge16" class="edge"><title>Node1&#45;&gt;Node16</title>
<path fill="none" stroke="midnightblue" d="M829.765,-369.324C839.766,-361.263 854.887,-349.077 866.93,-339.369"/>
<polygon fill="midnightblue" stroke="midnightblue" points="869.45,-341.834 875.039,-332.834 865.057,-336.384 869.45,-341.834"/>
</g>
<!-- Node17 -->
<g id="node17" class="node"><title>Node17</title>
<polygon fill="white" stroke="#bfbfbf" points="928.5,-313.5 928.5,-332.5 1003.5,-332.5 1003.5,-313.5 928.5,-313.5"/>
<text text-anchor="middle" x="966" y="-320.5" font-family="Helvetica,sans-Serif" font-size="10.00">QPushButton</text>
</g>
<!-- Node1&#45;&gt;Node17 -->
<g id="edge17" class="edge"><title>Node1&#45;&gt;Node17</title>
<path fill="none" stroke="midnightblue" d="M842.293,-369.444C866.807,-360.438 905.596,-346.189 933.2,-336.049"/>
<polygon fill="midnightblue" stroke="midnightblue" points="934.637,-339.25 942.816,-332.516 932.223,-332.679 934.637,-339.25"/>
</g>
<!-- Node18 -->
<g id="node18" class="node"><title>Node18</title>
<polygon fill="white" stroke="#bfbfbf" points="1021.5,-313.5 1021.5,-332.5 1104.5,-332.5 1104.5,-313.5 1021.5,-313.5"/>
<text text-anchor="middle" x="1063" y="-320.5" font-family="Helvetica,sans-Serif" font-size="10.00">QSignalMapper</text>
</g>
<!-- Node1&#45;&gt;Node18 -->
<g id="edge18" class="edge"><title>Node1&#45;&gt;Node18</title>
<path fill="none" stroke="midnightblue" d="M853.184,-370.435C895.183,-361.14 966.721,-345.308 1014.42,-334.752"/>
<polygon fill="midnightblue" stroke="midnightblue" points="1015.21,-338.162 1024.22,-332.583 1013.7,-331.327 1015.21,-338.162"/>
</g>
<!-- Node19 -->
<g id="node19" class="node"><title>Node19</title>
<g id="a_node19"><a xlink:href="a00109.html" target="_top" xlink:title="gepetto/viewer/node.h">
<polygon fill="white" stroke="black" points="1291.5,-313.5 1291.5,-332.5 1404.5,-332.5 1404.5,-313.5 1291.5,-313.5"/>
<text text-anchor="middle" x="1348" y="-320.5" font-family="Helvetica,sans-Serif" font-size="10.00">gepetto/viewer/node.h</text>
</a>
</g>
</g>
<!-- Node1&#45;&gt;Node19 -->
<g id="edge19" class="edge"><title>Node1&#45;&gt;Node19</title>
<path fill="none" stroke="midnightblue" d="M853.302,-374.499C939.755,-365.673 1167.76,-342.398 1281.51,-330.788"/>
<polygon fill="midnightblue" stroke="midnightblue" points="1281.89,-334.266 1291.49,-329.769 1281.18,-327.303 1281.89,-334.266"/>
</g>
<!-- Node3 -->
<g id="node3" class="node"><title>Node3</title>
<polygon fill="white" stroke="#bfbfbf" points="0,-118 0,-137 44,-137 44,-118 0,-118"/>
<text text-anchor="middle" x="22" y="-125" font-family="Helvetica,sans-Serif" font-size="10.00">vector</text>
</g>
<!-- Node2&#45;&gt;Node3 -->
<g id="edge2" class="edge"><title>Node2&#45;&gt;Node3</title>
<path fill="none" stroke="midnightblue" d="M176.585,-184.927C145.505,-175.607 95.243,-159.782 53,-143 51.6196,-142.452 50.2131,-141.872 48.7988,-141.273"/>
<polygon fill="midnightblue" stroke="midnightblue" points="50.105,-138.023 39.5463,-137.148 47.2552,-144.416 50.105,-138.023"/>
</g>
<!-- Node4 -->
<g id="node4" class="node"><title>Node4</title>
<polygon fill="white" stroke="#bfbfbf" points="62.5,-118 62.5,-137 117.5,-137 117.5,-118 62.5,-118"/>
<text text-anchor="middle" x="90" y="-125" font-family="Helvetica,sans-Serif" font-size="10.00">QtGlobal</text>
</g>
<!-- Node2&#45;&gt;Node4 -->
<g id="edge3" class="edge"><title>Node2&#45;&gt;Node4</title>
<path fill="none" stroke="midnightblue" d="M190.356,-184.734C170.789,-173.769 137.08,-154.881 114.181,-142.049"/>
<polygon fill="midnightblue" stroke="midnightblue" points="115.831,-138.962 105.396,-137.127 112.409,-145.069 115.831,-138.962"/>
</g>
<!-- Node5 -->
<g id="node5" class="node"><title>Node5</title>
<polygon fill="white" stroke="#bfbfbf" points="136,-118 136,-137 178,-137 178,-118 136,-118"/>
<text text-anchor="middle" x="157" y="-125" font-family="Helvetica,sans-Serif" font-size="10.00">QtGui</text>
</g>
<!-- Node2&#45;&gt;Node5 -->
<g id="edge4" class="edge"><title>Node2&#45;&gt;Node5</title>
<path fill="none" stroke="midnightblue" d="M199.392,-184.734C191.824,-174.695 179.249,-158.014 169.756,-145.421"/>
<polygon fill="midnightblue" stroke="midnightblue" points="172.318,-143.006 163.504,-137.127 166.728,-147.219 172.318,-143.006"/>
</g>
<!-- Node6 -->
<g id="node6" class="node"><title>Node6</title>
<g id="a_node6"><a xlink:href="a00102.html" target="_top" xlink:title="gepetto/viewer/macros.h">
<polygon fill="white" stroke="black" points="338,-56.5 338,-75.5 462,-75.5 462,-56.5 338,-56.5"/>
<text text-anchor="middle" x="400" y="-63.5" font-family="Helvetica,sans-Serif" font-size="10.00">gepetto/viewer/macros.h</text>
</a>
</g>
</g>
<!-- Node2&#45;&gt;Node6 -->
<g id="edge5" class="edge"><title>Node2&#45;&gt;Node6</title>
<path fill="none" stroke="midnightblue" d="M205.324,-184.765C204.553,-168.191 205.398,-132.051 225,-112 239.922,-96.7362 288.434,-84.9839 330.606,-77.3232"/>
<polygon fill="midnightblue" stroke="midnightblue" points="331.365,-80.7434 340.606,-75.56 330.15,-73.8497 331.365,-80.7434"/>
</g>
<!-- Node10 -->
<g id="node10" class="node"><title>Node10</title>
<g id="a_node10"><a xlink:href="a00084.html" target="_top" xlink:title="gepetto/viewer/fwd.h">
<polygon fill="white" stroke="black" points="346.5,-118 346.5,-137 453.5,-137 453.5,-118 346.5,-118"/>
<text text-anchor="middle" x="400" y="-125" font-family="Helvetica,sans-Serif" font-size="10.00">gepetto/viewer/fwd.h</text>
</a>
</g>
</g>
<!-- Node2&#45;&gt;Node10 -->
<g id="edge9" class="edge"><title>Node2&#45;&gt;Node10</title>
<path fill="none" stroke="midnightblue" d="M231.762,-184.869C265.918,-173.424 326.338,-153.181 364.715,-140.322"/>
<polygon fill="midnightblue" stroke="midnightblue" points="366.071,-143.559 374.441,-137.064 363.847,-136.922 366.071,-143.559"/>
</g>
<!-- Node11 -->
<g id="node11" class="node"><title>Node11</title>
<polygon fill="white" stroke="#bfbfbf" points="234,-112.5 234,-142.5 328,-142.5 328,-112.5 234,-112.5"/>
<text text-anchor="start" x="242" y="-130.5" font-family="Helvetica,sans-Serif" font-size="10.00">gepetto/gui/config</text>
<text text-anchor="middle" x="281" y="-119.5" font-family="Helvetica,sans-Serif" font-size="10.00">&#45;dep.hh</text>
</g>
<!-- Node2&#45;&gt;Node11 -->
<g id="edge11" class="edge"><title>Node2&#45;&gt;Node11</title>
<path fill="none" stroke="midnightblue" d="M216.115,-184.734C226.543,-175.696 243.184,-161.274 257.002,-149.298"/>
<polygon fill="midnightblue" stroke="midnightblue" points="259.479,-151.783 264.743,-142.589 254.894,-146.493 259.479,-151.783"/>
</g>
<!-- Node7 -->
<g id="node7" class="node"><title>Node7</title>
<polygon fill="white" stroke="#bfbfbf" points="223,-0.5 223,-19.5 331,-19.5 331,-0.5 223,-0.5"/>
<text text-anchor="middle" x="277" y="-7.5" font-family="Helvetica,sans-Serif" font-size="10.00">boost/shared_ptr.hpp</text>
</g>
<!-- Node6&#45;&gt;Node7 -->
<g id="edge6" class="edge"><title>Node6&#45;&gt;Node7</title>
<path fill="none" stroke="midnightblue" d="M380.51,-56.4435C360.358,-47.5961 328.677,-33.6875 305.669,-23.5865"/>
<polygon fill="midnightblue" stroke="midnightblue" points="306.962,-20.3316 296.399,-19.5164 304.148,-26.7411 306.962,-20.3316"/>
</g>
<!-- Node8 -->
<g id="node8" class="node"><title>Node8</title>
<polygon fill="white" stroke="#bfbfbf" points="349,-0.5 349,-19.5 451,-19.5 451,-0.5 349,-0.5"/>
<text text-anchor="middle" x="400" y="-7.5" font-family="Helvetica,sans-Serif" font-size="10.00">boost/weak_ptr.hpp</text>
</g>
<!-- Node6&#45;&gt;Node8 -->
<g id="edge7" class="edge"><title>Node6&#45;&gt;Node8</title>
<path fill="none" stroke="midnightblue" d="M400,-56.083C400,-49.0059 400,-38.8611 400,-29.9865"/>
<polygon fill="midnightblue" stroke="midnightblue" points="403.5,-29.751 400,-19.7511 396.5,-29.7511 403.5,-29.751"/>
</g>
<!-- Node9 -->
<g id="node9" class="node"><title>Node9</title>
<polygon fill="white" stroke="#bfbfbf" points="469.5,-0.5 469.5,-19.5 532.5,-19.5 532.5,-0.5 469.5,-0.5"/>
<text text-anchor="middle" x="501" y="-7.5" font-family="Helvetica,sans-Serif" font-size="10.00">osg/ref_ptr</text>
</g>
<!-- Node6&#45;&gt;Node9 -->
<g id="edge8" class="edge"><title>Node6&#45;&gt;Node9</title>
<path fill="none" stroke="midnightblue" d="M416.227,-56.324C432.351,-47.7034 457.3,-34.3643 475.964,-24.3855"/>
<polygon fill="midnightblue" stroke="midnightblue" points="477.644,-27.456 484.813,-19.6545 474.344,-21.283 477.644,-27.456"/>
</g>
<!-- Node10&#45;&gt;Node6 -->
<g id="edge10" class="edge"><title>Node10&#45;&gt;Node6</title>
<path fill="none" stroke="midnightblue" d="M400,-117.975C400,-109.58 400,-96.4806 400,-85.6631"/>
<polygon fill="midnightblue" stroke="midnightblue" points="403.5,-85.5091 400,-75.5091 396.5,-85.5091 403.5,-85.5091"/>
</g>
<!-- Node19&#45;&gt;Node10 -->
<g id="edge21" class="edge"><title>Node19&#45;&gt;Node10</title>
<path fill="none" stroke="midnightblue" d="M1301.51,-313.44C1169.19,-288.906 779.337,-215.44 458,-143 453.064,-141.887 447.905,-140.672 442.786,-139.435"/>
<polygon fill="midnightblue" stroke="midnightblue" points="443.608,-136.033 433.062,-137.048 441.939,-142.831 443.608,-136.033"/>
</g>
<!-- Node20 -->
<g id="node20" class="node"><title>Node20</title>
<polygon fill="white" stroke="#bfbfbf" points="1332,-185 1332,-204 1386,-204 1386,-185 1332,-185"/>
<text text-anchor="middle" x="1359" y="-192" font-family="Helvetica,sans-Serif" font-size="10.00">iostream</text>
</g>
<!-- Node19&#45;&gt;Node20 -->
<g id="edge20" class="edge"><title>Node19&#45;&gt;Node20</title>
<path fill="none" stroke="midnightblue" d="M1342.62,-313.443C1337.44,-304.678 1329.99,-290.467 1327,-277 1324.02,-263.549 1323.16,-259.232 1327,-246 1330.59,-233.611 1338.24,-221.349 1345.16,-212.011"/>
<polygon fill="midnightblue" stroke="midnightblue" points="1347.99,-214.072 1351.41,-204.045 1342.48,-209.75 1347.99,-214.072"/>
</g>
<!-- Node21 -->
<g id="node21" class="node"><title>Node21</title>
<g id="a_node21"><a xlink:href="a00108.html" target="_top" xlink:title="gepetto/viewer/node\l&#45;visitor.h">
<polygon fill="white" stroke="black" points="1336,-246.5 1336,-276.5 1440,-276.5 1440,-246.5 1336,-246.5"/>
<text text-anchor="start" x="1344" y="-264.5" font-family="Helvetica,sans-Serif" font-size="10.00">gepetto/viewer/node</text>
<text text-anchor="middle" x="1388" y="-253.5" font-family="Helvetica,sans-Serif" font-size="10.00">&#45;visitor.h</text>
</a>
</g>
</g>
<!-- Node19&#45;&gt;Node21 -->
<g id="edge22" class="edge"><title>Node19&#45;&gt;Node21</title>
<path fill="none" stroke="midnightblue" d="M1353.73,-313.475C1358.74,-306.019 1366.25,-294.852 1372.96,-284.869"/>
<polygon fill="midnightblue" stroke="midnightblue" points="1375.9,-286.775 1378.57,-276.523 1370.09,-282.869 1375.9,-286.775"/>
</g>
<!-- Node22 -->
<g id="node22" class="node"><title>Node22</title>
<g id="a_node22"><a xlink:href="a00080.html" target="_top" xlink:title="gepetto/viewer/config\l&#45;osg.h">
<polygon fill="white" stroke="red" points="1442,-179.5 1442,-209.5 1552,-209.5 1552,-179.5 1442,-179.5"/>
<text text-anchor="start" x="1450" y="-197.5" font-family="Helvetica,sans-Serif" font-size="10.00">gepetto/viewer/config</text>
<text text-anchor="middle" x="1497" y="-186.5" font-family="Helvetica,sans-Serif" font-size="10.00">&#45;osg.h</text>
</a>
</g>
</g>
<!-- Node19&#45;&gt;Node22 -->
<g id="edge58" class="edge"><title>Node19&#45;&gt;Node22</title>
<path fill="none" stroke="midnightblue" d="M1380,-313.377C1401.43,-306.341 1429.24,-294.643 1449,-277 1466.8,-261.11 1479.85,-237.005 1487.82,-219.127"/>
<polygon fill="midnightblue" stroke="midnightblue" points="1491.14,-220.253 1491.82,-209.68 1484.7,-217.525 1491.14,-220.253"/>
</g>
<!-- Node47 -->
<g id="node47" class="node"><title>Node47</title>
<g id="a_node47"><a xlink:href="a00106.html" target="_top" xlink:title="gepetto/viewer/node\l&#45;property.h">
<polygon fill="white" stroke="black" points="1496,-246.5 1496,-276.5 1600,-276.5 1600,-246.5 1496,-246.5"/>
<text text-anchor="start" x="1504" y="-264.5" font-family="Helvetica,sans-Serif" font-size="10.00">gepetto/viewer/node</text>
<text text-anchor="middle" x="1548" y="-253.5" font-family="Helvetica,sans-Serif" font-size="10.00">&#45;property.h</text>
</a>
</g>
</g>
<!-- Node19&#45;&gt;Node47 -->
<g id="edge51" class="edge"><title>Node19&#45;&gt;Node47</title>
<path fill="none" stroke="midnightblue" d="M1376.66,-313.475C1406.4,-304.626 1453.72,-290.549 1491.1,-279.428"/>
<polygon fill="midnightblue" stroke="midnightblue" points="1492.28,-282.729 1500.86,-276.523 1490.28,-276.02 1492.28,-282.729"/>
</g>
<!-- Node21&#45;&gt;Node20 -->
<g id="edge23" class="edge"><title>Node21&#45;&gt;Node20</title>
<path fill="none" stroke="midnightblue" d="M1381.71,-246.396C1377.41,-236.763 1371.68,-223.914 1367.05,-213.537"/>
<polygon fill="midnightblue" stroke="midnightblue" points="1370.15,-211.901 1362.88,-204.195 1363.76,-214.753 1370.15,-211.901"/>
</g>
<!-- Node21&#45;&gt;Node22 -->
<g id="edge24" class="edge"><title>Node21&#45;&gt;Node22</title>
<path fill="none" stroke="midnightblue" d="M1411.65,-246.396C1427.08,-237.197 1447.42,-225.066 1464.38,-214.955"/>
<polygon fill="midnightblue" stroke="midnightblue" points="1466.6,-217.704 1473.39,-209.577 1463.01,-211.692 1466.6,-217.704"/>
</g>
<!-- Node22&#45;&gt;Node6 -->
<g id="edge50" class="edge"><title>Node22&#45;&gt;Node6</title>
<path fill="none" stroke="midnightblue" d="M1441.78,-181.041C1437.13,-180.253 1432.49,-179.556 1428,-179 1325.7,-166.356 597.643,-178.849 501,-143 480.24,-135.299 479.631,-125.395 462,-112 448.365,-101.641 432.763,-90.319 420.621,-81.6234"/>
<polygon fill="midnightblue" stroke="midnightblue" points="422.642,-78.7661 412.469,-75.8071 418.576,-84.4644 422.642,-78.7661"/>
</g>
<!-- Node22&#45;&gt;Node10 -->
<g id="edge49" class="edge"><title>Node22&#45;&gt;Node10</title>
<path fill="none" stroke="midnightblue" d="M1441.78,-181.034C1437.13,-180.248 1432.5,-179.553 1428,-179 1004.22,-126.909 891.7,-195.717 468,-143 460.337,-142.047 452.258,-140.664 444.45,-139.127"/>
<polygon fill="midnightblue" stroke="midnightblue" points="444.9,-135.646 434.397,-137.04 443.477,-142.5 444.9,-135.646"/>
</g>
<!-- Node23 -->
<g id="node23" class="node"><title>Node23</title>
<polygon fill="white" stroke="#bfbfbf" points="510,-118 510,-137 578,-137 578,-118 510,-118"/>
<text text-anchor="middle" x="544" y="-125" font-family="Helvetica,sans-Serif" font-size="10.00">QMetaType</text>
</g>
<!-- Node22&#45;&gt;Node23 -->
<g id="edge25" class="edge"><title>Node22&#45;&gt;Node23</title>
<path fill="none" stroke="midnightblue" d="M1441.77,-181.061C1437.13,-180.269 1432.49,-179.565 1428,-179 1057.24,-132.419 955.6,-210.114 588,-143 584.019,-142.273 579.904,-141.272 575.86,-140.132"/>
<polygon fill="midnightblue" stroke="midnightblue" points="576.663,-136.717 566.074,-137.092 574.585,-143.401 576.663,-136.717"/>
</g>
<!-- Node24 -->
<g id="node24" class="node"><title>Node24</title>
<polygon fill="white" stroke="#bfbfbf" points="596.5,-118 596.5,-137 659.5,-137 659.5,-118 596.5,-118"/>
<text text-anchor="middle" x="628" y="-125" font-family="Helvetica,sans-Serif" font-size="10.00">osg/Shape</text>
</g>
<!-- Node22&#45;&gt;Node24 -->
<g id="edge26" class="edge"><title>Node22&#45;&gt;Node24</title>
<path fill="none" stroke="midnightblue" d="M1441.77,-181.083C1437.13,-180.286 1432.49,-179.575 1428,-179 1093.02,-136.138 1000.4,-207.994 669,-143 665.485,-142.311 661.865,-141.379 658.3,-140.318"/>
<polygon fill="midnightblue" stroke="midnightblue" points="659.122,-136.904 648.528,-137.082 656.921,-143.549 659.122,-136.904"/>
</g>
<!-- Node25 -->
<g id="node25" class="node"><title>Node25</title>
<polygon fill="white" stroke="#bfbfbf" points="678,-118 678,-137 782,-137 782,-118 678,-118"/>
<text text-anchor="middle" x="730" y="-125" font-family="Helvetica,sans-Serif" font-size="10.00">osg/ShapeDrawable</text>
</g>
<!-- Node22&#45;&gt;Node25 -->
<g id="edge27" class="edge"><title>Node22&#45;&gt;Node25</title>
<path fill="none" stroke="midnightblue" d="M1441.76,-181.128C1437.12,-180.321 1432.49,-179.595 1428,-179 1146.9,-141.737 1071.59,-183.949 791,-143 784.568,-142.061 777.817,-140.771 771.246,-139.345"/>
<polygon fill="midnightblue" stroke="midnightblue" points="771.67,-135.852 761.141,-137.023 770.103,-142.674 771.67,-135.852"/>
</g>
<!-- Node26 -->
<g id="node26" class="node"><title>Node26</title>
<polygon fill="white" stroke="#bfbfbf" points="800,-118 800,-137 878,-137 878,-118 800,-118"/>
<text text-anchor="middle" x="839" y="-125" font-family="Helvetica,sans-Serif" font-size="10.00">osg/Geometry</text>
</g>
<!-- Node22&#45;&gt;Node26 -->
<g id="edge28" class="edge"><title>Node22&#45;&gt;Node26</title>
<path fill="none" stroke="midnightblue" d="M1441.76,-181.177C1437.12,-180.36 1432.49,-179.618 1428,-179 1189.27,-146.14 1124.09,-186.12 887,-143 882.544,-142.19 877.916,-141.109 873.371,-139.903"/>
<polygon fill="midnightblue" stroke="midnightblue" points="874.228,-136.508 863.65,-137.115 872.298,-143.236 874.228,-136.508"/>
</g>
<!-- Node27 -->
<g id="node27" class="node"><title>Node27</title>
<polygon fill="white" stroke="#bfbfbf" points="896,-118 896,-137 960,-137 960,-118 896,-118"/>
<text text-anchor="middle" x="928" y="-125" font-family="Helvetica,sans-Serif" font-size="10.00">osg/Geode</text>
</g>
<!-- Node22&#45;&gt;Node27 -->
<g id="edge29" class="edge"><title>Node22&#45;&gt;Node27</title>
<path fill="none" stroke="midnightblue" d="M1441.75,-181.235C1437.11,-180.405 1432.48,-179.644 1428,-179 1225.45,-149.899 1169.17,-185.476 969,-143 965.573,-142.273 962.041,-141.333 958.554,-140.281"/>
<polygon fill="midnightblue" stroke="midnightblue" points="959.569,-136.93 948.976,-137.104 957.366,-143.574 959.569,-136.93"/>
</g>
<!-- Node28 -->
<g id="node28" class="node"><title>Node28</title>
<polygon fill="white" stroke="#bfbfbf" points="977.5,-118 977.5,-137 1126.5,-137 1126.5,-118 977.5,-118"/>
<text text-anchor="middle" x="1052" y="-125" font-family="Helvetica,sans-Serif" font-size="10.00">osg/PositionAttitudeTransform</text>
</g>
<!-- Node22&#45;&gt;Node28 -->
<g id="edge30" class="edge"><title>Node22&#45;&gt;Node28</title>
<path fill="none" stroke="midnightblue" d="M1441.72,-181.453C1437.09,-180.575 1432.47,-179.743 1428,-179 1299.01,-157.535 1265.35,-162.127 1136,-143 1127.28,-141.71 1118.07,-140.236 1109.06,-138.732"/>
<polygon fill="midnightblue" stroke="midnightblue" points="1109.47,-135.251 1099.03,-137.03 1108.3,-142.153 1109.47,-135.251"/>
</g>
<!-- Node29 -->
<g id="node29" class="node"><title>Node29</title>
<polygon fill="white" stroke="#bfbfbf" points="1145,-118 1145,-137 1245,-137 1245,-118 1145,-118"/>
<text text-anchor="middle" x="1195" y="-125" font-family="Helvetica,sans-Serif" font-size="10.00">osg/AutoTransform</text>
</g>
<!-- Node22&#45;&gt;Node29 -->
<g id="edge31" class="edge"><title>Node22&#45;&gt;Node29</title>
<path fill="none" stroke="midnightblue" d="M1441.64,-181.856C1437.03,-180.889 1432.43,-179.927 1428,-179 1351.13,-162.924 1331.62,-160.226 1255,-143 1249.97,-141.868 1244.7,-140.65 1239.48,-139.417"/>
<polygon fill="midnightblue" stroke="midnightblue" points="1240.08,-135.962 1229.54,-137.047 1238.45,-142.771 1240.08,-135.962"/>
</g>
<!-- Node30 -->
<g id="node30" class="node"><title>Node30</title>
<polygon fill="white" stroke="#bfbfbf" points="1263.5,-118 1263.5,-137 1370.5,-137 1370.5,-118 1263.5,-118"/>
<text text-anchor="middle" x="1317" y="-125" font-family="Helvetica,sans-Serif" font-size="10.00">osg/MatrixTransform</text>
</g>
<!-- Node22&#45;&gt;Node30 -->
<g id="edge32" class="edge"><title>Node22&#45;&gt;Node30</title>
<path fill="none" stroke="midnightblue" d="M1457.94,-179.396C1425.8,-167.789 1380.73,-151.515 1350.28,-140.519"/>
<polygon fill="midnightblue" stroke="midnightblue" points="1351.15,-137.112 1340.56,-137.007 1348.77,-143.695 1351.15,-137.112"/>
</g>
<!-- Node31 -->
<g id="node31" class="node"><title>Node31</title>
<polygon fill="white" stroke="#bfbfbf" points="1388.5,-118 1388.5,-137 1447.5,-137 1447.5,-118 1388.5,-118"/>
<text text-anchor="middle" x="1418" y="-125" font-family="Helvetica,sans-Serif" font-size="10.00">osg/Node</text>
</g>
<!-- Node22&#45;&gt;Node31 -->
<g id="edge33" class="edge"><title>Node22&#45;&gt;Node31</title>
<path fill="none" stroke="midnightblue" d="M1479.86,-179.396C1467.05,-168.86 1449.57,-154.477 1436.46,-143.689"/>
<polygon fill="midnightblue" stroke="midnightblue" points="1438.51,-140.845 1428.57,-137.195 1434.07,-146.251 1438.51,-140.845"/>
</g>
<!-- Node32 -->
<g id="node32" class="node"><title>Node32</title>
<polygon fill="white" stroke="#bfbfbf" points="1466,-118 1466,-137 1528,-137 1528,-118 1466,-118"/>
<text text-anchor="middle" x="1497" y="-125" font-family="Helvetica,sans-Serif" font-size="10.00">osg/Group</text>
</g>
<!-- Node22&#45;&gt;Node32 -->
<g id="edge34" class="edge"><title>Node22&#45;&gt;Node32</title>
<path fill="none" stroke="midnightblue" d="M1497,-179.396C1497,-170.064 1497,-157.714 1497,-147.517"/>
<polygon fill="midnightblue" stroke="midnightblue" points="1500.5,-147.195 1497,-137.195 1493.5,-147.195 1500.5,-147.195"/>
</g>
<!-- Node33 -->
<g id="node33" class="node"><title>Node33</title>
<polygon fill="white" stroke="#bfbfbf" points="1546.5,-118 1546.5,-137 1611.5,-137 1611.5,-118 1546.5,-118"/>
<text text-anchor="middle" x="1579" y="-125" font-family="Helvetica,sans-Serif" font-size="10.00">osg/Switch</text>
</g>
<!-- Node22&#45;&gt;Node33 -->
<g id="edge35" class="edge"><title>Node22&#45;&gt;Node33</title>
<path fill="none" stroke="midnightblue" d="M1514.79,-179.396C1528.08,-168.86 1546.23,-154.477 1559.84,-143.689"/>
<polygon fill="midnightblue" stroke="midnightblue" points="1562.37,-146.149 1568.03,-137.195 1558.02,-140.664 1562.37,-146.149"/>
</g>
<!-- Node34 -->
<g id="node34" class="node"><title>Node34</title>
<polygon fill="white" stroke="#bfbfbf" points="1630,-118 1630,-137 1712,-137 1712,-118 1630,-118"/>
<text text-anchor="middle" x="1671" y="-125" font-family="Helvetica,sans-Serif" font-size="10.00">osg/ClearNode</text>
</g>
<!-- Node22&#45;&gt;Node34 -->
<g id="edge36" class="edge"><title>Node22&#45;&gt;Node34</title>
<path fill="none" stroke="midnightblue" d="M1534.76,-179.396C1565.83,-167.789 1609.39,-151.515 1638.83,-140.519"/>
<polygon fill="midnightblue" stroke="midnightblue" points="1640.08,-143.785 1648.23,-137.007 1637.63,-137.228 1640.08,-143.785"/>
</g>
<!-- Node35 -->
<g id="node35" class="node"><title>Node35</title>
<polygon fill="white" stroke="#bfbfbf" points="1730.5,-118 1730.5,-137 1809.5,-137 1809.5,-118 1730.5,-118"/>
<text text-anchor="middle" x="1770" y="-125" font-family="Helvetica,sans-Serif" font-size="10.00">osg/LineWidth</text>
</g>
<!-- Node22&#45;&gt;Node35 -->
<g id="edge37" class="edge"><title>Node22&#45;&gt;Node35</title>
<path fill="none" stroke="midnightblue" d="M1552.24,-181.143C1615.86,-166.894 1712.77,-145.144 1721,-143 1724.8,-142.01 1728.76,-140.928 1732.7,-139.816"/>
<polygon fill="midnightblue" stroke="midnightblue" points="1733.72,-143.162 1742.36,-137.025 1731.78,-136.437 1733.72,-143.162"/>
</g>
<!-- Node36 -->
<g id="node36" class="node"><title>Node36</title>
<polygon fill="white" stroke="#bfbfbf" points="1828,-118 1828,-137 1910,-137 1910,-118 1828,-118"/>
<text text-anchor="middle" x="1869" y="-125" font-family="Helvetica,sans-Serif" font-size="10.00">osg/AlphaFunc</text>
</g>
<!-- Node22&#45;&gt;Node36 -->
<g id="edge38" class="edge"><title>Node22&#45;&gt;Node36</title>
<path fill="none" stroke="midnightblue" d="M1552.26,-180.857C1555.55,-180.202 1558.81,-179.577 1562,-179 1675.49,-158.427 1706.21,-167.124 1819,-143 1823.39,-142.06 1827.97,-140.938 1832.48,-139.741"/>
<polygon fill="midnightblue" stroke="midnightblue" points="1833.5,-143.092 1842.19,-137.04 1831.62,-136.349 1833.5,-143.092"/>
</g>
<!-- Node37 -->
<g id="node37" class="node"><title>Node37</title>
<polygon fill="white" stroke="#bfbfbf" points="1928,-118 1928,-137 2010,-137 2010,-118 1928,-118"/>
<text text-anchor="middle" x="1969" y="-125" font-family="Helvetica,sans-Serif" font-size="10.00">osg/BlendFunc</text>
</g>
<!-- Node22&#45;&gt;Node37 -->
<g id="edge39" class="edge"><title>Node22&#45;&gt;Node37</title>
<path fill="none" stroke="midnightblue" d="M1552.23,-180.71C1555.53,-180.092 1558.8,-179.516 1562,-179 1719.43,-153.595 1762.44,-173.334 1919,-143 1923.69,-142.092 1928.57,-140.94 1933.37,-139.685"/>
<polygon fill="midnightblue" stroke="midnightblue" points="1934.31,-143.056 1943.01,-137.008 1932.44,-136.312 1934.31,-143.056"/>
</g>
<!-- Node38 -->
<g id="node38" class="node"><title>Node38</title>
<polygon fill="white" stroke="#bfbfbf" points="2028,-118 2028,-137 2102,-137 2102,-118 2028,-118"/>
<text text-anchor="middle" x="2065" y="-125" font-family="Helvetica,sans-Serif" font-size="10.00">osg/StateSet</text>
</g>
<!-- Node22&#45;&gt;Node38 -->
<g id="edge40" class="edge"><title>Node22&#45;&gt;Node38</title>
<path fill="none" stroke="midnightblue" d="M1552.22,-180.626C1555.52,-180.03 1558.8,-179.481 1562,-179 1763.48,-148.745 1819,-181.875 2019,-143 2023.16,-142.191 2027.48,-141.135 2031.72,-139.961"/>
<polygon fill="midnightblue" stroke="midnightblue" points="2032.81,-143.288 2041.39,-137.07 2030.81,-136.581 2032.81,-143.288"/>
</g>
<!-- Node39 -->
<g id="node39" class="node"><title>Node39</title>
<polygon fill="white" stroke="#bfbfbf" points="2120,-118 2120,-137 2182,-137 2182,-118 2120,-118"/>
<text text-anchor="middle" x="2151" y="-125" font-family="Helvetica,sans-Serif" font-size="10.00">osg/Depth</text>
</g>
<!-- Node22&#45;&gt;Node39 -->
<g id="edge41" class="edge"><title>Node22&#45;&gt;Node39</title>
<path fill="none" stroke="midnightblue" d="M1552.21,-180.576C1555.51,-179.992 1558.8,-179.46 1562,-179 1804.05,-144.278 1871.68,-193.166 2111,-143 2114.43,-142.281 2117.96,-141.331 2121.44,-140.259"/>
<polygon fill="midnightblue" stroke="midnightblue" points="2122.64,-143.549 2130.97,-137.011 2120.38,-136.923 2122.64,-143.549"/>
</g>
<!-- Node40 -->
<g id="node40" class="node"><title>Node40</title>
<polygon fill="white" stroke="#bfbfbf" points="2200.5,-118 2200.5,-137 2259.5,-137 2259.5,-118 2200.5,-118"/>
<text text-anchor="middle" x="2230" y="-125" font-family="Helvetica,sans-Serif" font-size="10.00">osg/State</text>
</g>
<!-- Node22&#45;&gt;Node40 -->
<g id="edge42" class="edge"><title>Node22&#45;&gt;Node40</title>
<path fill="none" stroke="midnightblue" d="M1552.21,-180.545C1555.51,-179.969 1558.79,-179.446 1562,-179 1839.34,-140.39 1916.94,-200.43 2191,-143 2194.25,-142.318 2197.59,-141.414 2200.89,-140.388"/>
<polygon fill="midnightblue" stroke="midnightblue" points="2202.2,-143.638 2210.5,-137.05 2199.9,-137.026 2202.2,-143.638"/>
</g>
<!-- Node41 -->
<g id="node41" class="node"><title>Node41</title>
<polygon fill="white" stroke="#bfbfbf" points="2278,-118 2278,-137 2334,-137 2334,-118 2278,-118"/>
<text text-anchor="middle" x="2306" y="-125" font-family="Helvetica,sans-Serif" font-size="10.00">osg/Light</text>
</g>
<!-- Node22&#45;&gt;Node41 -->
<g id="edge43" class="edge"><title>Node22&#45;&gt;Node41</title>
<path fill="none" stroke="midnightblue" d="M1552.2,-180.521C1555.51,-179.951 1558.79,-179.436 1562,-179 1873.76,-136.598 1961.43,-209.26 2269,-143 2272.01,-142.353 2275.09,-141.491 2278.12,-140.51"/>
<polygon fill="midnightblue" stroke="midnightblue" points="2279.34,-143.792 2287.54,-137.082 2276.95,-137.214 2279.34,-143.792"/>
</g>
<!-- Node42 -->
<g id="node42" class="node"><title>Node42</title>
<polygon fill="white" stroke="#bfbfbf" points="2352.5,-118 2352.5,-137 2439.5,-137 2439.5,-118 2352.5,-118"/>
<text text-anchor="middle" x="2396" y="-125" font-family="Helvetica,sans-Serif" font-size="10.00">osg/LightSource</text>
</g>
<!-- Node22&#45;&gt;Node42 -->
<g id="edge44" class="edge"><title>Node22&#45;&gt;Node42</title>
<path fill="none" stroke="midnightblue" d="M1552.2,-180.502C1555.51,-179.937 1558.79,-179.429 1562,-179 1906.42,-133 1999.77,-197.178 2343,-143 2348.42,-142.145 2354.08,-140.942 2359.59,-139.591"/>
<polygon fill="midnightblue" stroke="midnightblue" points="2360.51,-142.97 2369.29,-137.043 2358.73,-136.2 2360.51,-142.97"/>
</g>
<!-- Node43 -->
<g id="node43" class="node"><title>Node43</title>
<polygon fill="white" stroke="#bfbfbf" points="2458,-118 2458,-137 2528,-137 2528,-118 2458,-118"/>
<text text-anchor="middle" x="2493" y="-125" font-family="Helvetica,sans-Serif" font-size="10.00">osg/Material</text>
</g>
<!-- Node22&#45;&gt;Node43 -->
<g id="edge45" class="edge"><title>Node22&#45;&gt;Node43</title>
<path fill="none" stroke="midnightblue" d="M1552.2,-180.481C1555.5,-179.921 1558.79,-179.42 1562,-179 1953.22,-127.844 2060.79,-213.422 2449,-143 2452.98,-142.278 2457.1,-141.279 2461.14,-140.141"/>
<polygon fill="midnightblue" stroke="midnightblue" points="2462.42,-143.41 2470.93,-137.102 2460.34,-136.725 2462.42,-143.41"/>
</g>
<!-- Node44 -->
<g id="node44" class="node"><title>Node44</title>
<polygon fill="white" stroke="#bfbfbf" points="2546,-118 2546,-137 2616,-137 2616,-118 2546,-118"/>
<text text-anchor="middle" x="2581" y="-125" font-family="Helvetica,sans-Serif" font-size="10.00">osg/Camera</text>
</g>
<!-- Node22&#45;&gt;Node44 -->
<g id="edge46" class="edge"><title>Node22&#45;&gt;Node44</title>
<path fill="none" stroke="midnightblue" d="M1552.2,-180.467C1555.5,-179.911 1558.79,-179.414 1562,-179 1992.07,-123.563 2110.19,-219.618 2537,-143 2540.98,-142.285 2545.1,-141.291 2549.14,-140.155"/>
<polygon fill="midnightblue" stroke="midnightblue" points="2550.42,-143.425 2558.93,-137.118 2548.34,-136.739 2550.42,-143.425"/>
</g>
<!-- Node45 -->
<g id="node45" class="node"><title>Node45</title>
<polygon fill="white" stroke="#bfbfbf" points="2634,-118 2634,-137 2708,-137 2708,-118 2634,-118"/>
<text text-anchor="middle" x="2671" y="-125" font-family="Helvetica,sans-Serif" font-size="10.00">osg/Viewport</text>
</g>
<!-- Node22&#45;&gt;Node45 -->
<g id="edge47" class="edge"><title>Node22&#45;&gt;Node45</title>
<path fill="none" stroke="midnightblue" d="M1552.2,-180.456C1555.5,-179.902 1558.79,-179.409 1562,-179 2030.93,-119.282 2159.07,-222.792 2625,-143 2629.27,-142.269 2633.7,-141.24 2638.04,-140.065"/>
<polygon fill="midnightblue" stroke="midnightblue" points="2639.32,-143.336 2647.9,-137.127 2637.32,-136.627 2639.32,-143.336"/>
</g>
<!-- Node46 -->
<g id="node46" class="node"><title>Node46</title>
<polygon fill="white" stroke="#bfbfbf" points="2726.5,-118 2726.5,-137 2821.5,-137 2821.5,-118 2726.5,-118"/>
<text text-anchor="middle" x="2774" y="-125" font-family="Helvetica,sans-Serif" font-size="10.00">osgViewer/Viewer</text>
</g>
<!-- Node22&#45;&gt;Node46 -->
<g id="edge48" class="edge"><title>Node22&#45;&gt;Node46</title>
<path fill="none" stroke="midnightblue" d="M1552.19,-180.445C1555.5,-179.894 1558.79,-179.405 1562,-179 2071.55,-114.806 2208.45,-214.733 2717,-143 2723.02,-142.15 2729.33,-140.911 2735.46,-139.509"/>
<polygon fill="midnightblue" stroke="midnightblue" points="2736.66,-142.819 2745.54,-137.036 2734.99,-136.021 2736.66,-142.819"/>
</g>
<!-- Node47&#45;&gt;Node10 -->
<g id="edge56" class="edge"><title>Node47&#45;&gt;Node10</title>
<path fill="none" stroke="midnightblue" d="M1509.16,-246.489C1486.23,-237.486 1457.09,-224.736 1433,-210 1414.41,-198.625 1415.39,-186.706 1395,-179 1297.54,-142.166 561.144,-157.713 458,-143 451.944,-142.136 445.602,-140.901 439.427,-139.513"/>
<polygon fill="midnightblue" stroke="midnightblue" points="439.814,-136.006 429.273,-137.068 438.176,-142.811 439.814,-136.006"/>
</g>
<!-- Node47&#45;&gt;Node20 -->
<g id="edge53" class="edge"><title>Node47&#45;&gt;Node20</title>
<path fill="none" stroke="midnightblue" d="M1506.49,-246.474C1476.8,-236.408 1435.9,-222.474 1400,-210 1397.63,-209.176 1395.18,-208.322 1392.72,-207.458"/>
<polygon fill="midnightblue" stroke="midnightblue" points="1393.86,-204.15 1383.27,-204.132 1391.54,-210.753 1393.86,-204.15"/>
</g>
<!-- Node47&#45;&gt;Node22 -->
<g id="edge57" class="edge"><title>Node47&#45;&gt;Node22</title>
<path fill="none" stroke="midnightblue" d="M1536.93,-246.396C1530.32,-237.963 1521.77,-227.067 1514.28,-217.522"/>
<polygon fill="midnightblue" stroke="midnightblue" points="1516.97,-215.283 1508.04,-209.577 1511.46,-219.604 1516.97,-215.283"/>
</g>
<!-- Node48 -->
<g id="node48" class="node"><title>Node48</title>
<polygon fill="white" stroke="#bfbfbf" points="1570.5,-185 1570.5,-204 1605.5,-204 1605.5,-185 1570.5,-185"/>
<text text-anchor="middle" x="1588" y="-192" font-family="Helvetica,sans-Serif" font-size="10.00">map</text>
</g>
<!-- Node47&#45;&gt;Node48 -->
<g id="edge52" class="edge"><title>Node47&#45;&gt;Node48</title>
<path fill="none" stroke="midnightblue" d="M1556.68,-246.396C1562.73,-236.562 1570.84,-223.378 1577.3,-212.892"/>
<polygon fill="midnightblue" stroke="midnightblue" points="1580.39,-214.545 1582.65,-204.195 1574.43,-210.877 1580.39,-214.545"/>
</g>
<!-- Node49 -->
<g id="node49" class="node"><title>Node49</title>
<polygon fill="white" stroke="#bfbfbf" points="1624,-185 1624,-204 1704,-204 1704,-185 1624,-185"/>
<text text-anchor="middle" x="1664" y="-192" font-family="Helvetica,sans-Serif" font-size="10.00">boost/bind.hpp</text>
</g>
<!-- Node47&#45;&gt;Node49 -->
<g id="edge54" class="edge"><title>Node47&#45;&gt;Node49</title>
<path fill="none" stroke="midnightblue" d="M1573.17,-246.396C1592.98,-235.294 1620.42,-219.921 1639.94,-208.983"/>
<polygon fill="midnightblue" stroke="midnightblue" points="1641.81,-211.949 1648.82,-204.007 1638.38,-205.842 1641.81,-211.949"/>
</g>
<!-- Node50 -->
<g id="node50" class="node"><title>Node50</title>
<polygon fill="white" stroke="#bfbfbf" points="1722.5,-185 1722.5,-204 1819.5,-204 1819.5,-185 1722.5,-185"/>
<text text-anchor="middle" x="1771" y="-192" font-family="Helvetica,sans-Serif" font-size="10.00">boost/function.hpp</text>
</g>
<!-- Node47&#45;&gt;Node50 -->
<g id="edge55" class="edge"><title>Node47&#45;&gt;Node50</title>
<path fill="none" stroke="midnightblue" d="M1596.11,-246.476C1636.78,-234.622 1694.29,-217.858 1732.1,-206.838"/>
<polygon fill="midnightblue" stroke="midnightblue" points="1733.12,-210.187 1741.74,-204.029 1731.16,-203.467 1733.12,-210.187"/>
</g>
</g>
</svg>
