<?xml version="1.0" encoding="UTF-8" standalone="no"?>
<!DOCTYPE svg PUBLIC "-//W3C//DTD SVG 1.1//EN"
 "http://www.w3.org/Graphics/SVG/1.1/DTD/svg11.dtd">
<!-- Generated by graphviz version 2.38.0 (20140413.2041)
 -->
<!-- Title: gepetto::gui::Settings Pages: 1 -->
<svg width="279pt" height="229pt"
 viewBox="0.00 0.00 279.00 229.00" xmlns="http://www.w3.org/2000/svg" xmlns:xlink="http://www.w3.org/1999/xlink">
<g id="graph0" class="graph" transform="scale(1 1) rotate(0) translate(4 225)">
<title>gepetto::gui::Settings</title>
<polygon fill="white" stroke="none" points="-4,4 -4,-225 275,-225 275,4 -4,4"/>
<!-- Node1 -->
<g id="node1" class="node"><title>Node1</title>
<polygon fill="#bfbfbf" stroke="black" points="67,-0.5 67,-19.5 177,-19.5 177,-0.5 67,-0.5"/>
<text text-anchor="middle" x="122" y="-7.5" font-family="Helvetica,sans-Serif" font-size="10.00">gepetto::gui::Settings</text>
</g>
<!-- Node2 -->
<g id="node2" class="node"><title>Node2</title>
<g id="a_node2"><a xlink:href="a00052.html" target="_top" xlink:title="gepetto::gui::PluginManager">
<polygon fill="white" stroke="black" points="0,-133.5 0,-152.5 138,-152.5 138,-133.5 0,-133.5"/>
<text text-anchor="middle" x="69" y="-140.5" font-family="Helvetica,sans-Serif" font-size="10.00">gepetto::gui::PluginManager</text>
</a>
</g>
</g>
<!-- Node2&#45;&gt;Node1 -->
<g id="edge1" class="edge"><title>Node2&#45;&gt;Node1</title>
<path fill="none" stroke="#9a32cd" stroke-dasharray="5,2" d="M66.6528,-123.374C64.8281,-101.306 64.8576,-64.2311 81,-38 85.9135,-30.0156 94.1744,-23.9077 101.999,-19.5379"/>
<polygon fill="#9a32cd" stroke="#9a32cd" points="63.181,-123.827 67.7005,-133.41 70.1431,-123.1 63.181,-123.827"/>
<text text-anchor="middle" x="117" y="-74" font-family="Helvetica,sans-Serif" font-size="10.00"> pluginManager_</text>
</g>
<!-- Node3 -->
<g id="node3" class="node"><title>Node3</title>
<g id="a_node3"><a xlink:title="STL class. ">
<polygon fill="white" stroke="#bfbfbf" points="156,-133.5 156,-152.5 216,-152.5 216,-133.5 156,-133.5"/>
<text text-anchor="middle" x="186" y="-140.5" font-family="Helvetica,sans-Serif" font-size="10.00">std::string</text>
</a>
</g>
</g>
<!-- Node3&#45;&gt;Node1 -->
<g id="edge2" class="edge"><title>Node3&#45;&gt;Node1</title>
<path fill="none" stroke="#9a32cd" stroke-dasharray="5,2" d="M183.215,-123.251C179.279,-101.346 170.524,-64.7027 153,-38 148.301,-30.8397 141.196,-24.4595 134.973,-19.7015"/>
<polygon fill="#9a32cd" stroke="#9a32cd" points="179.78,-123.932 184.855,-133.233 186.687,-122.797 179.78,-123.932"/>
<text text-anchor="middle" x="226" y="-107" font-family="Helvetica,sans-Serif" font-size="10.00"> stateConf</text>
<text text-anchor="middle" x="226" y="-96" font-family="Helvetica,sans-Serif" font-size="10.00">captureFilename</text>
<text text-anchor="middle" x="226" y="-85" font-family="Helvetica,sans-Serif" font-size="10.00">captureDirectory</text>
<text text-anchor="middle" x="226" y="-74" font-family="Helvetica,sans-Serif" font-size="10.00">captureExtension</text>
<text text-anchor="middle" x="226" y="-63" font-family="Helvetica,sans-Serif" font-size="10.00">predifinedEnvConf</text>
<text text-anchor="middle" x="226" y="-52" font-family="Helvetica,sans-Serif" font-size="10.00">configurationFile</text>
<text text-anchor="middle" x="226" y="-41" font-family="Helvetica,sans-Serif" font-size="10.00">predifinedRobotConf</text>
</g>
<!-- Node4 -->
<g id="node4" class="node"><title>Node4</title>
<g id="a_node4"><a xlink:title="STL class. ">
<polygon fill="white" stroke="#bfbfbf" points="138.5,-190.5 138.5,-220.5 233.5,-220.5 233.5,-190.5 138.5,-190.5"/>
<text text-anchor="start" x="146.5" y="-208.5" font-family="Helvetica,sans-Serif" font-size="10.00">std::basic_string&lt;</text>
<text text-anchor="middle" x="186" y="-197.5" font-family="Helvetica,sans-Serif" font-size="10.00"> char &gt;</text>
</a>
</g>
</g>
<!-- Node4&#45;&gt;Node3 -->
<g id="edge3" class="edge"><title>Node4&#45;&gt;Node3</title>
<path fill="none" stroke="midnightblue" d="M186,-180.352C186,-170.513 186,-159.775 186,-152.54"/>
<polygon fill="midnightblue" stroke="midnightblue" points="182.5,-180.468 186,-190.468 189.5,-180.468 182.5,-180.468"/>
</g>
</g>
</svg>
