<?xml version="1.0" encoding="UTF-8" standalone="no"?>
<!DOCTYPE svg PUBLIC "-//W3C//DTD SVG 1.1//EN"
 "http://www.w3.org/Graphics/SVG/1.1/DTD/svg11.dtd">
<!-- Generated by graphviz version 2.38.0 (20140413.2041)
 -->
<!-- Title: shortcut&#45;factory.hh Pages: 1 -->
<svg width="447pt" height="84pt"
 viewBox="0.00 0.00 447.00 84.00" xmlns="http://www.w3.org/2000/svg" xmlns:xlink="http://www.w3.org/1999/xlink">
<g id="graph0" class="graph" transform="scale(1 1) rotate(0) translate(4 80)">
<title>shortcut&#45;factory.hh</title>
<polygon fill="white" stroke="none" points="-4,4 -4,-80 443,-80 443,4 -4,4"/>
<!-- Node1 -->
<g id="node1" class="node"><title>Node1</title>
<polygon fill="#bfbfbf" stroke="black" points="193,-56.5 193,-75.5 291,-75.5 291,-56.5 193,-56.5"/>
<text text-anchor="middle" x="242" y="-63.5" font-family="Helvetica,sans-Serif" font-size="10.00">shortcut&#45;factory.hh</text>
</g>
<!-- Node2 -->
<g id="node2" class="node"><title>Node2</title>
<polygon fill="white" stroke="#bfbfbf" points="0,-0.5 0,-19.5 52,-19.5 52,-0.5 0,-0.5"/>
<text text-anchor="middle" x="26" y="-7.5" font-family="Helvetica,sans-Serif" font-size="10.00">QAction</text>
</g>
<!-- Node1&#45;&gt;Node2 -->
<g id="edge1" class="edge"><title>Node1&#45;&gt;Node2</title>
<path fill="none" stroke="midnightblue" d="M207.28,-56.4556C172.822,-47.9561 118.238,-34.4406 62.119,-20.2695"/>
<polygon fill="midnightblue" stroke="midnightblue" points="62.9203,-16.862 52.3675,-17.8043 61.2047,-23.6486 62.9203,-16.862"/>
</g>
<!-- Node3 -->
<g id="node3" class="node"><title>Node3</title>
<polygon fill="white" stroke="#bfbfbf" points="70.5,-0.5 70.5,-19.5 137.5,-19.5 137.5,-0.5 70.5,-0.5"/>
<text text-anchor="middle" x="104" y="-7.5" font-family="Helvetica,sans-Serif" font-size="10.00">QKeyEvent</text>
</g>
<!-- Node1&#45;&gt;Node3 -->
<g id="edge2" class="edge"><title>Node1&#45;&gt;Node3</title>
<path fill="none" stroke="midnightblue" d="M220.133,-56.4435C197.221,-47.4776 161.025,-33.314 135.134,-23.1827"/>
<polygon fill="midnightblue" stroke="midnightblue" points="136.352,-19.9011 125.764,-19.5164 133.801,-26.4198 136.352,-19.9011"/>
</g>
<!-- Node4 -->
<g id="node4" class="node"><title>Node4</title>
<polygon fill="white" stroke="#bfbfbf" points="155.5,-0.5 155.5,-19.5 234.5,-19.5 234.5,-0.5 155.5,-0.5"/>
<text text-anchor="middle" x="195" y="-7.5" font-family="Helvetica,sans-Serif" font-size="10.00">QMouseEvent</text>
</g>
<!-- Node1&#45;&gt;Node4 -->
<g id="edge3" class="edge"><title>Node1&#45;&gt;Node4</title>
<path fill="none" stroke="midnightblue" d="M234.239,-56.083C227.463,-48.2982 217.457,-36.8015 209.245,-27.3665"/>
<polygon fill="midnightblue" stroke="midnightblue" points="211.822,-24.9963 202.617,-19.7511 206.542,-29.592 211.822,-24.9963"/>
</g>
<!-- Node5 -->
<g id="node5" class="node"><title>Node5</title>
<polygon fill="white" stroke="#bfbfbf" points="252.5,-0.5 252.5,-19.5 327.5,-19.5 327.5,-0.5 252.5,-0.5"/>
<text text-anchor="middle" x="290" y="-7.5" font-family="Helvetica,sans-Serif" font-size="10.00">QPushButton</text>
</g>
<!-- Node1&#45;&gt;Node5 -->
<g id="edge4" class="edge"><title>Node1&#45;&gt;Node5</title>
<path fill="none" stroke="midnightblue" d="M249.926,-56.083C256.846,-48.2982 267.065,-36.8015 275.452,-27.3665"/>
<polygon fill="midnightblue" stroke="midnightblue" points="278.194,-29.5505 282.221,-19.7511 272.962,-24.8999 278.194,-29.5505"/>
</g>
<!-- Node6 -->
<g id="node6" class="node"><title>Node6</title>
<polygon fill="white" stroke="#bfbfbf" points="345.5,-0.5 345.5,-19.5 380.5,-19.5 380.5,-0.5 345.5,-0.5"/>
<text text-anchor="middle" x="363" y="-7.5" font-family="Helvetica,sans-Serif" font-size="10.00">map</text>
</g>
<!-- Node1&#45;&gt;Node6 -->
<g id="edge5" class="edge"><title>Node1&#45;&gt;Node6</title>
<path fill="none" stroke="midnightblue" d="M261.173,-56.4435C281.374,-47.4283 313.349,-33.1583 336.075,-23.0161"/>
<polygon fill="midnightblue" stroke="midnightblue" points="337.783,-26.0867 345.488,-18.8151 334.93,-19.6944 337.783,-26.0867"/>
</g>
<!-- Node7 -->
<g id="node7" class="node"><title>Node7</title>
<polygon fill="white" stroke="#bfbfbf" points="399,-0.5 399,-19.5 439,-19.5 439,-0.5 399,-0.5"/>
<text text-anchor="middle" x="419" y="-7.5" font-family="Helvetica,sans-Serif" font-size="10.00">utility</text>
</g>
<!-- Node1&#45;&gt;Node7 -->
<g id="edge6" class="edge"><title>Node1&#45;&gt;Node7</title>
<path fill="none" stroke="midnightblue" d="M270.387,-56.4216C298.271,-47.9839 342.272,-34.638 389.025,-20.288"/>
<polygon fill="midnightblue" stroke="midnightblue" points="390.192,-23.5912 398.723,-17.3091 388.136,-16.8998 390.192,-23.5912"/>
</g>
</g>
</svg>
