<?xml version="1.0" encoding="UTF-8" standalone="no"?>
<!DOCTYPE svg PUBLIC "-//W3C//DTD SVG 1.1//EN"
 "http://www.w3.org/Graphics/SVG/1.1/DTD/svg11.dtd">
<!-- Generated by graphviz version 2.38.0 (20140413.2041)
 -->
<!-- Title: safeapplication.hh Pages: 1 -->
<svg width="462pt" height="263pt"
 viewBox="0.00 0.00 462.00 263.00" xmlns="http://www.w3.org/2000/svg" xmlns:xlink="http://www.w3.org/1999/xlink">
<g id="graph0" class="graph" transform="scale(1 1) rotate(0) translate(4 259)">
<title>safeapplication.hh</title>
<polygon fill="white" stroke="none" points="-4,4 -4,-259 458,-259 458,4 -4,4"/>
<!-- Node1 -->
<g id="node1" class="node"><title>Node1</title>
<polygon fill="#bfbfbf" stroke="black" points="134.5,-235.5 134.5,-254.5 229.5,-254.5 229.5,-235.5 134.5,-235.5"/>
<text text-anchor="middle" x="182" y="-242.5" font-family="Helvetica,sans-Serif" font-size="10.00">safeapplication.hh</text>
</g>
<!-- Node2 -->
<g id="node2" class="node"><title>Node2</title>
<polygon fill="white" stroke="#bfbfbf" points="63,-179.5 63,-198.5 115,-198.5 115,-179.5 63,-179.5"/>
<text text-anchor="middle" x="89" y="-186.5" font-family="Helvetica,sans-Serif" font-size="10.00">assert.h</text>
</g>
<!-- Node1&#45;&gt;Node2 -->
<g id="edge1" class="edge"><title>Node1&#45;&gt;Node2</title>
<path fill="none" stroke="midnightblue" d="M167.058,-235.324C152.415,-226.822 129.866,-213.729 112.762,-203.797"/>
<polygon fill="midnightblue" stroke="midnightblue" points="114.31,-200.649 103.905,-198.655 110.795,-206.703 114.31,-200.649"/>
</g>
<!-- Node3 -->
<g id="node3" class="node"><title>Node3</title>
<g id="a_node3"><a xlink:href="a00085.html" target="_top" xlink:title="gepetto/gui/fwd.hh">
<polygon fill="white" stroke="black" points="133.5,-179.5 133.5,-198.5 230.5,-198.5 230.5,-179.5 133.5,-179.5"/>
<text text-anchor="middle" x="182" y="-186.5" font-family="Helvetica,sans-Serif" font-size="10.00">gepetto/gui/fwd.hh</text>
</a>
</g>
</g>
<!-- Node1&#45;&gt;Node3 -->
<g id="edge2" class="edge"><title>Node1&#45;&gt;Node3</title>
<path fill="none" stroke="midnightblue" d="M182,-235.083C182,-228.006 182,-217.861 182,-208.986"/>
<polygon fill="midnightblue" stroke="midnightblue" points="185.5,-208.751 182,-198.751 178.5,-208.751 185.5,-208.751"/>
</g>
<!-- Node13 -->
<g id="node13" class="node"><title>Node13</title>
<polygon fill="white" stroke="#bfbfbf" points="249,-179.5 249,-198.5 321,-198.5 321,-179.5 249,-179.5"/>
<text text-anchor="middle" x="285" y="-186.5" font-family="Helvetica,sans-Serif" font-size="10.00">QApplication</text>
</g>
<!-- Node1&#45;&gt;Node13 -->
<g id="edge13" class="edge"><title>Node1&#45;&gt;Node13</title>
<path fill="none" stroke="midnightblue" d="M198.549,-235.324C214.992,-226.703 240.435,-213.364 259.468,-203.386"/>
<polygon fill="midnightblue" stroke="midnightblue" points="261.261,-206.398 268.492,-198.655 258.011,-200.198 261.261,-206.398"/>
</g>
<!-- Node4 -->
<g id="node4" class="node"><title>Node4</title>
<polygon fill="white" stroke="#bfbfbf" points="0,-118 0,-137 44,-137 44,-118 0,-118"/>
<text text-anchor="middle" x="22" y="-125" font-family="Helvetica,sans-Serif" font-size="10.00">vector</text>
</g>
<!-- Node3&#45;&gt;Node4 -->
<g id="edge3" class="edge"><title>Node3&#45;&gt;Node4</title>
<path fill="none" stroke="midnightblue" d="M155.021,-179.477C128.714,-170.959 87.7111,-157.129 53,-143 51.6242,-142.44 50.2215,-141.851 48.8102,-141.244"/>
<polygon fill="midnightblue" stroke="midnightblue" points="50.1239,-137.997 39.5674,-137.096 47.2575,-144.384 50.1239,-137.997"/>
</g>
<!-- Node5 -->
<g id="node5" class="node"><title>Node5</title>
<polygon fill="white" stroke="#bfbfbf" points="62.5,-118 62.5,-137 117.5,-137 117.5,-118 62.5,-118"/>
<text text-anchor="middle" x="90" y="-125" font-family="Helvetica,sans-Serif" font-size="10.00">QtGlobal</text>
</g>
<!-- Node3&#45;&gt;Node5 -->
<g id="edge4" class="edge"><title>Node3&#45;&gt;Node5</title>
<path fill="none" stroke="midnightblue" d="M168.819,-179.475C153.926,-169.843 129.456,-154.017 111.727,-142.552"/>
<polygon fill="midnightblue" stroke="midnightblue" points="113.455,-139.501 103.157,-137.009 109.653,-145.379 113.455,-139.501"/>
</g>
<!-- Node6 -->
<g id="node6" class="node"><title>Node6</title>
<polygon fill="white" stroke="#bfbfbf" points="136,-118 136,-137 178,-137 178,-118 136,-118"/>
<text text-anchor="middle" x="157" y="-125" font-family="Helvetica,sans-Serif" font-size="10.00">QtGui</text>
</g>
<!-- Node3&#45;&gt;Node6 -->
<g id="edge5" class="edge"><title>Node3&#45;&gt;Node6</title>
<path fill="none" stroke="midnightblue" d="M178.418,-179.475C174.817,-170.904 169.154,-157.427 164.556,-146.483"/>
<polygon fill="midnightblue" stroke="midnightblue" points="167.676,-144.873 160.575,-137.009 161.222,-147.584 167.676,-144.873"/>
</g>
<!-- Node7 -->
<g id="node7" class="node"><title>Node7</title>
<g id="a_node7"><a xlink:href="a00102.html" target="_top" xlink:title="gepetto/viewer/macros.h">
<polygon fill="white" stroke="black" points="185,-56.5 185,-75.5 309,-75.5 309,-56.5 185,-56.5"/>
<text text-anchor="middle" x="247" y="-63.5" font-family="Helvetica,sans-Serif" font-size="10.00">gepetto/viewer/macros.h</text>
</a>
</g>
</g>
<!-- Node3&#45;&gt;Node7 -->
<g id="edge6" class="edge"><title>Node3&#45;&gt;Node7</title>
<path fill="none" stroke="midnightblue" d="M186.675,-179.298C197.309,-159.502 223.481,-110.782 237.603,-84.4932"/>
<polygon fill="midnightblue" stroke="midnightblue" points="240.719,-86.0889 242.368,-75.6232 234.552,-82.7762 240.719,-86.0889"/>
</g>
<!-- Node11 -->
<g id="node11" class="node"><title>Node11</title>
<g id="a_node11"><a xlink:href="a00084.html" target="_top" xlink:title="gepetto/viewer/fwd.h">
<polygon fill="white" stroke="black" points="234.5,-118 234.5,-137 341.5,-137 341.5,-118 234.5,-118"/>
<text text-anchor="middle" x="288" y="-125" font-family="Helvetica,sans-Serif" font-size="10.00">gepetto/viewer/fwd.h</text>
</a>
</g>
</g>
<!-- Node3&#45;&gt;Node11 -->
<g id="edge10" class="edge"><title>Node3&#45;&gt;Node11</title>
<path fill="none" stroke="midnightblue" d="M197.187,-179.475C214.662,-169.666 243.579,-153.435 264.083,-141.925"/>
<polygon fill="midnightblue" stroke="midnightblue" points="265.834,-144.956 272.841,-137.009 262.408,-138.852 265.834,-144.956"/>
</g>
<!-- Node12 -->
<g id="node12" class="node"><title>Node12</title>
<polygon fill="white" stroke="#bfbfbf" points="360,-112.5 360,-142.5 454,-142.5 454,-112.5 360,-112.5"/>
<text text-anchor="start" x="368" y="-130.5" font-family="Helvetica,sans-Serif" font-size="10.00">gepetto/gui/config</text>
<text text-anchor="middle" x="407" y="-119.5" font-family="Helvetica,sans-Serif" font-size="10.00">&#45;dep.hh</text>
</g>
<!-- Node3&#45;&gt;Node12 -->
<g id="edge12" class="edge"><title>Node3&#45;&gt;Node12</title>
<path fill="none" stroke="midnightblue" d="M214.237,-179.475C249.635,-170.114 307.153,-154.904 350.162,-143.53"/>
<polygon fill="midnightblue" stroke="midnightblue" points="351.158,-146.887 359.931,-140.947 349.369,-140.12 351.158,-146.887"/>
</g>
<!-- Node8 -->
<g id="node8" class="node"><title>Node8</title>
<polygon fill="white" stroke="#bfbfbf" points="70,-0.5 70,-19.5 178,-19.5 178,-0.5 70,-0.5"/>
<text text-anchor="middle" x="124" y="-7.5" font-family="Helvetica,sans-Serif" font-size="10.00">boost/shared_ptr.hpp</text>
</g>
<!-- Node7&#45;&gt;Node8 -->
<g id="edge7" class="edge"><title>Node7&#45;&gt;Node8</title>
<path fill="none" stroke="midnightblue" d="M227.51,-56.4435C207.358,-47.5961 175.677,-33.6875 152.669,-23.5865"/>
<polygon fill="midnightblue" stroke="midnightblue" points="153.962,-20.3316 143.399,-19.5164 151.148,-26.7411 153.962,-20.3316"/>
</g>
<!-- Node9 -->
<g id="node9" class="node"><title>Node9</title>
<polygon fill="white" stroke="#bfbfbf" points="196,-0.5 196,-19.5 298,-19.5 298,-0.5 196,-0.5"/>
<text text-anchor="middle" x="247" y="-7.5" font-family="Helvetica,sans-Serif" font-size="10.00">boost/weak_ptr.hpp</text>
</g>
<!-- Node7&#45;&gt;Node9 -->
<g id="edge8" class="edge"><title>Node7&#45;&gt;Node9</title>
<path fill="none" stroke="midnightblue" d="M247,-56.083C247,-49.0059 247,-38.8611 247,-29.9865"/>
<polygon fill="midnightblue" stroke="midnightblue" points="250.5,-29.751 247,-19.7511 243.5,-29.7511 250.5,-29.751"/>
</g>
<!-- Node10 -->
<g id="node10" class="node"><title>Node10</title>
<polygon fill="white" stroke="#bfbfbf" points="316.5,-0.5 316.5,-19.5 379.5,-19.5 379.5,-0.5 316.5,-0.5"/>
<text text-anchor="middle" x="348" y="-7.5" font-family="Helvetica,sans-Serif" font-size="10.00">osg/ref_ptr</text>
</g>
<!-- Node7&#45;&gt;Node10 -->
<g id="edge9" class="edge"><title>Node7&#45;&gt;Node10</title>
<path fill="none" stroke="midnightblue" d="M263.227,-56.324C279.351,-47.7034 304.3,-34.3643 322.964,-24.3855"/>
<polygon fill="midnightblue" stroke="midnightblue" points="324.644,-27.456 331.813,-19.6545 321.344,-21.283 324.644,-27.456"/>
</g>
<!-- Node11&#45;&gt;Node7 -->
<g id="edge11" class="edge"><title>Node11&#45;&gt;Node7</title>
<path fill="none" stroke="midnightblue" d="M282.126,-117.975C276.037,-109.138 266.355,-95.0886 258.697,-83.975"/>
<polygon fill="midnightblue" stroke="midnightblue" points="261.42,-81.7575 252.863,-75.5091 255.656,-85.7294 261.42,-81.7575"/>
</g>
</g>
</svg>
