<?xml version="1.0" encoding="UTF-8" standalone="no"?>
<!DOCTYPE svg PUBLIC "-//W3C//DTD SVG 1.1//EN"
 "http://www.w3.org/Graphics/SVG/1.1/DTD/svg11.dtd">
<!-- Generated by graphviz version 2.38.0 (20140413.2041)
 -->
<!-- Title: windows&#45;manager.h Pages: 1 -->
<svg width="2836pt" height="397pt"
 viewBox="0.00 0.00 2836.14 397.00" xmlns="http://www.w3.org/2000/svg" xmlns:xlink="http://www.w3.org/1999/xlink">
<g id="graph0" class="graph" transform="scale(1 1) rotate(0) translate(4 393)">
<title>windows&#45;manager.h</title>
<polygon fill="white" stroke="none" points="-4,4 -4,-393 2832.14,-393 2832.14,4 -4,4"/>
<!-- Node1 -->
<g id="node1" class="node"><title>Node1</title>
<polygon fill="#bfbfbf" stroke="black" points="1223.5,-369.5 1223.5,-388.5 1327.5,-388.5 1327.5,-369.5 1223.5,-369.5"/>
<text text-anchor="middle" x="1275.5" y="-376.5" font-family="Helvetica,sans-Serif" font-size="10.00">windows&#45;manager.h</text>
</g>
<!-- Node2 -->
<g id="node2" class="node"><title>Node2</title>
<polygon fill="white" stroke="#bfbfbf" points="992,-308 992,-327 1097,-327 1097,-308 992,-308"/>
<text text-anchor="middle" x="1044.5" y="-315" font-family="Helvetica,sans-Serif" font-size="10.00">OpenThreads/Mutex</text>
</g>
<!-- Node1&#45;&gt;Node2 -->
<g id="edge1" class="edge"><title>Node1&#45;&gt;Node2</title>
<path fill="none" stroke="midnightblue" d="M1242.4,-369.475C1201.58,-358.959 1132.09,-341.062 1087.26,-329.514"/>
<polygon fill="midnightblue" stroke="midnightblue" points="1088.09,-326.114 1077.54,-327.009 1086.35,-332.893 1088.09,-326.114"/>
</g>
<!-- Node3 -->
<g id="node3" class="node"><title>Node3</title>
<polygon fill="white" stroke="#bfbfbf" points="1115.5,-308 1115.5,-327 1247.5,-327 1247.5,-308 1115.5,-308"/>
<text text-anchor="middle" x="1181.5" y="-315" font-family="Helvetica,sans-Serif" font-size="10.00">OpenThreads/ScopedLock</text>
</g>
<!-- Node1&#45;&gt;Node3 -->
<g id="edge2" class="edge"><title>Node1&#45;&gt;Node3</title>
<path fill="none" stroke="midnightblue" d="M1262.03,-369.475C1246.82,-359.843 1221.81,-344.017 1203.7,-332.552"/>
<polygon fill="midnightblue" stroke="midnightblue" points="1205.26,-329.4 1194.94,-327.009 1201.52,-335.315 1205.26,-329.4"/>
</g>
<!-- Node4 -->
<g id="node4" class="node"><title>Node4</title>
<g id="a_node4"><a xlink:href="a00084.html" target="_top" xlink:title="gepetto/viewer/fwd.h">
<polygon fill="white" stroke="black" points="0,-112.5 0,-131.5 107,-131.5 107,-112.5 0,-112.5"/>
<text text-anchor="middle" x="53.5" y="-119.5" font-family="Helvetica,sans-Serif" font-size="10.00">gepetto/viewer/fwd.h</text>
</a>
</g>
</g>
<!-- Node1&#45;&gt;Node4 -->
<g id="edge3" class="edge"><title>Node1&#45;&gt;Node4</title>
<path fill="none" stroke="midnightblue" d="M1276.16,-369.415C1276.86,-353.523 1275.84,-319.545 1256.5,-302 1251.12,-297.119 364.951,-168.201 117.191,-132.237"/>
<polygon fill="midnightblue" stroke="midnightblue" points="117.659,-128.769 107.26,-130.796 116.653,-135.696 117.659,-128.769"/>
</g>
<!-- Node9 -->
<g id="node9" class="node"><title>Node9</title>
<g id="a_node9"><a xlink:href="a00080.html" target="_top" xlink:title="gepetto/viewer/config\l&#45;osg.h">
<polygon fill="white" stroke="black" points="1379.5,-168.5 1379.5,-198.5 1489.5,-198.5 1489.5,-168.5 1379.5,-168.5"/>
<text text-anchor="start" x="1387.5" y="-186.5" font-family="Helvetica,sans-Serif" font-size="10.00">gepetto/viewer/config</text>
<text text-anchor="middle" x="1434.5" y="-175.5" font-family="Helvetica,sans-Serif" font-size="10.00">&#45;osg.h</text>
</a>
</g>
</g>
<!-- Node1&#45;&gt;Node9 -->
<g id="edge8" class="edge"><title>Node1&#45;&gt;Node9</title>
<path fill="none" stroke="midnightblue" d="M1278.03,-369.413C1286.31,-341.824 1313.11,-256.017 1332.5,-235 1345.39,-221.031 1362.99,-210.43 1379.95,-202.638"/>
<polygon fill="midnightblue" stroke="midnightblue" points="1381.49,-205.786 1389.27,-198.594 1378.7,-199.364 1381.49,-205.786"/>
</g>
<!-- Node37 -->
<g id="node37" class="node"><title>Node37</title>
<g id="a_node37"><a xlink:href="a00123.html" target="_top" xlink:title="gepetto/viewer/transform\l&#45;writer.h">
<polygon fill="white" stroke="black" points="1357,-302.5 1357,-332.5 1482,-332.5 1482,-302.5 1357,-302.5"/>
<text text-anchor="start" x="1365" y="-320.5" font-family="Helvetica,sans-Serif" font-size="10.00">gepetto/viewer/transform</text>
<text text-anchor="middle" x="1419.5" y="-309.5" font-family="Helvetica,sans-Serif" font-size="10.00">&#45;writer.h</text>
</a>
</g>
</g>
<!-- Node1&#45;&gt;Node37 -->
<g id="edge38" class="edge"><title>Node1&#45;&gt;Node37</title>
<path fill="none" stroke="midnightblue" d="M1296.13,-369.475C1316.91,-360.889 1349.6,-347.383 1376.11,-336.429"/>
<polygon fill="midnightblue" stroke="midnightblue" points="1377.66,-339.577 1385.56,-332.523 1374.98,-333.107 1377.66,-339.577"/>
</g>
<!-- Node5 -->
<g id="node5" class="node"><title>Node5</title>
<g id="a_node5"><a xlink:href="a00102.html" target="_top" xlink:title="gepetto/viewer/macros.h">
<polygon fill="white" stroke="black" points="1385.5,-56.5 1385.5,-75.5 1509.5,-75.5 1509.5,-56.5 1385.5,-56.5"/>
<text text-anchor="middle" x="1447.5" y="-63.5" font-family="Helvetica,sans-Serif" font-size="10.00">gepetto/viewer/macros.h</text>
</a>
</g>
</g>
<!-- Node4&#45;&gt;Node5 -->
<g id="edge4" class="edge"><title>Node4&#45;&gt;Node5</title>
<path fill="none" stroke="midnightblue" d="M107.071,-112.945C110.257,-112.591 113.418,-112.271 116.5,-112 595.578,-69.806 1174.86,-66.4706 1375.22,-66.7029"/>
<polygon fill="midnightblue" stroke="midnightblue" points="1375.32,-70.2029 1385.32,-66.7181 1375.33,-63.2029 1375.32,-70.2029"/>
</g>
<!-- Node6 -->
<g id="node6" class="node"><title>Node6</title>
<polygon fill="white" stroke="#bfbfbf" points="1270.5,-0.5 1270.5,-19.5 1378.5,-19.5 1378.5,-0.5 1270.5,-0.5"/>
<text text-anchor="middle" x="1324.5" y="-7.5" font-family="Helvetica,sans-Serif" font-size="10.00">boost/shared_ptr.hpp</text>
</g>
<!-- Node5&#45;&gt;Node6 -->
<g id="edge5" class="edge"><title>Node5&#45;&gt;Node6</title>
<path fill="none" stroke="midnightblue" d="M1428.01,-56.4435C1407.86,-47.5961 1376.18,-33.6875 1353.17,-23.5865"/>
<polygon fill="midnightblue" stroke="midnightblue" points="1354.46,-20.3316 1343.9,-19.5164 1351.65,-26.7411 1354.46,-20.3316"/>
</g>
<!-- Node7 -->
<g id="node7" class="node"><title>Node7</title>
<polygon fill="white" stroke="#bfbfbf" points="1396.5,-0.5 1396.5,-19.5 1498.5,-19.5 1498.5,-0.5 1396.5,-0.5"/>
<text text-anchor="middle" x="1447.5" y="-7.5" font-family="Helvetica,sans-Serif" font-size="10.00">boost/weak_ptr.hpp</text>
</g>
<!-- Node5&#45;&gt;Node7 -->
<g id="edge6" class="edge"><title>Node5&#45;&gt;Node7</title>
<path fill="none" stroke="midnightblue" d="M1447.5,-56.083C1447.5,-49.0059 1447.5,-38.8611 1447.5,-29.9865"/>
<polygon fill="midnightblue" stroke="midnightblue" points="1451,-29.751 1447.5,-19.7511 1444,-29.7511 1451,-29.751"/>
</g>
<!-- Node8 -->
<g id="node8" class="node"><title>Node8</title>
<polygon fill="white" stroke="#bfbfbf" points="1517,-0.5 1517,-19.5 1580,-19.5 1580,-0.5 1517,-0.5"/>
<text text-anchor="middle" x="1548.5" y="-7.5" font-family="Helvetica,sans-Serif" font-size="10.00">osg/ref_ptr</text>
</g>
<!-- Node5&#45;&gt;Node8 -->
<g id="edge7" class="edge"><title>Node5&#45;&gt;Node8</title>
<path fill="none" stroke="midnightblue" d="M1463.73,-56.324C1479.85,-47.7034 1504.8,-34.3643 1523.46,-24.3855"/>
<polygon fill="midnightblue" stroke="midnightblue" points="1525.14,-27.456 1532.31,-19.6545 1521.84,-21.283 1525.14,-27.456"/>
</g>
<!-- Node9&#45;&gt;Node4 -->
<g id="edge36" class="edge"><title>Node9&#45;&gt;Node4</title>
<path fill="none" stroke="midnightblue" d="M1379.49,-176.097C1352.42,-173.177 1319.29,-169.944 1289.5,-168 772.332,-134.246 637.841,-176.409 117.097,-131.929"/>
<polygon fill="midnightblue" stroke="midnightblue" points="117.333,-128.437 107.07,-131.066 116.733,-135.411 117.333,-128.437"/>
</g>
<!-- Node9&#45;&gt;Node5 -->
<g id="edge37" class="edge"><title>Node9&#45;&gt;Node5</title>
<path fill="none" stroke="midnightblue" d="M1489.53,-172.83C1502.29,-170.917 1515.84,-169.148 1528.5,-168 1600.18,-161.501 2773.32,-183.594 2823.5,-132 2829.7,-125.628 2829.68,-118.387 2823.5,-112 2777.86,-64.8384 1797.33,-65.4806 1519.99,-66.6123"/>
<polygon fill="midnightblue" stroke="midnightblue" points="1519.63,-63.1137 1509.65,-66.6561 1519.66,-70.1137 1519.63,-63.1137"/>
</g>
<!-- Node10 -->
<g id="node10" class="node"><title>Node10</title>
<polygon fill="white" stroke="#bfbfbf" points="125.5,-112.5 125.5,-131.5 193.5,-131.5 193.5,-112.5 125.5,-112.5"/>
<text text-anchor="middle" x="159.5" y="-119.5" font-family="Helvetica,sans-Serif" font-size="10.00">QMetaType</text>
</g>
<!-- Node9&#45;&gt;Node10 -->
<g id="edge9" class="edge"><title>Node9&#45;&gt;Node10</title>
<path fill="none" stroke="midnightblue" d="M1379.49,-176.129C1352.42,-173.216 1319.29,-169.98 1289.5,-168 810.486,-136.153 684.139,-188.998 203.651,-131.906"/>
<polygon fill="midnightblue" stroke="midnightblue" points="204.024,-128.425 193.679,-130.711 203.192,-135.376 204.024,-128.425"/>
</g>
<!-- Node11 -->
<g id="node11" class="node"><title>Node11</title>
<polygon fill="white" stroke="#bfbfbf" points="212,-112.5 212,-131.5 275,-131.5 275,-112.5 212,-112.5"/>
<text text-anchor="middle" x="243.5" y="-119.5" font-family="Helvetica,sans-Serif" font-size="10.00">osg/Shape</text>
</g>
<!-- Node9&#45;&gt;Node11 -->
<g id="edge10" class="edge"><title>Node9&#45;&gt;Node11</title>
<path fill="none" stroke="midnightblue" d="M1379.49,-176.164C1352.42,-173.259 1319.28,-170.021 1289.5,-168 846.947,-137.977 729.683,-187.385 285.407,-131.836"/>
<polygon fill="midnightblue" stroke="midnightblue" points="285.545,-128.326 275.186,-130.547 284.669,-135.271 285.545,-128.326"/>
</g>
<!-- Node12 -->
<g id="node12" class="node"><title>Node12</title>
<polygon fill="white" stroke="#bfbfbf" points="293.5,-112.5 293.5,-131.5 397.5,-131.5 397.5,-112.5 293.5,-112.5"/>
<text text-anchor="middle" x="345.5" y="-119.5" font-family="Helvetica,sans-Serif" font-size="10.00">osg/ShapeDrawable</text>
</g>
<!-- Node9&#45;&gt;Node12 -->
<g id="edge11" class="edge"><title>Node9&#45;&gt;Node12</title>
<path fill="none" stroke="midnightblue" d="M1379.48,-176.228C1352.41,-173.339 1319.28,-170.094 1289.5,-168 901.045,-140.682 799.283,-168.237 407.884,-132.023"/>
<polygon fill="midnightblue" stroke="midnightblue" points="407.981,-128.517 397.699,-131.072 407.331,-135.486 407.981,-128.517"/>
</g>
<!-- Node13 -->
<g id="node13" class="node"><title>Node13</title>
<polygon fill="white" stroke="#bfbfbf" points="415.5,-112.5 415.5,-131.5 493.5,-131.5 493.5,-112.5 415.5,-112.5"/>
<text text-anchor="middle" x="454.5" y="-119.5" font-family="Helvetica,sans-Serif" font-size="10.00">osg/Geometry</text>
</g>
<!-- Node9&#45;&gt;Node13 -->
<g id="edge12" class="edge"><title>Node9&#45;&gt;Node13</title>
<path fill="none" stroke="midnightblue" d="M1379.48,-176.292C1352.41,-173.418 1319.27,-170.168 1289.5,-168 943.606,-142.813 852.046,-171.8 503.838,-131.984"/>
<polygon fill="midnightblue" stroke="midnightblue" points="504.06,-128.486 493.725,-130.816 503.257,-135.44 504.06,-128.486"/>
</g>
<!-- Node14 -->
<g id="node14" class="node"><title>Node14</title>
<polygon fill="white" stroke="#bfbfbf" points="511.5,-112.5 511.5,-131.5 575.5,-131.5 575.5,-112.5 511.5,-112.5"/>
<text text-anchor="middle" x="543.5" y="-119.5" font-family="Helvetica,sans-Serif" font-size="10.00">osg/Geode</text>
</g>
<!-- Node9&#45;&gt;Node14 -->
<g id="edge13" class="edge"><title>Node9&#45;&gt;Node14</title>
<path fill="none" stroke="midnightblue" d="M1379.47,-176.36C1352.4,-173.502 1319.27,-170.246 1289.5,-168 979.571,-144.616 896.555,-173.994 585.925,-132.135"/>
<polygon fill="midnightblue" stroke="midnightblue" points="586.105,-128.627 575.725,-130.746 585.161,-135.563 586.105,-128.627"/>
</g>
<!-- Node15 -->
<g id="node15" class="node"><title>Node15</title>
<polygon fill="white" stroke="#bfbfbf" points="593,-112.5 593,-131.5 742,-131.5 742,-112.5 593,-112.5"/>
<text text-anchor="middle" x="667.5" y="-119.5" font-family="Helvetica,sans-Serif" font-size="10.00">osg/PositionAttitudeTransform</text>
</g>
<!-- Node9&#45;&gt;Node15 -->
<g id="edge14" class="edge"><title>Node9&#45;&gt;Node15</title>
<path fill="none" stroke="midnightblue" d="M1379.46,-176.566C1352.38,-173.757 1319.25,-170.482 1289.5,-168 1053.95,-148.347 991.93,-152.645 752.212,-132.025"/>
<polygon fill="midnightblue" stroke="midnightblue" points="752.405,-128.529 742.14,-131.153 751.801,-135.503 752.405,-128.529"/>
</g>
<!-- Node16 -->
<g id="node16" class="node"><title>Node16</title>
<polygon fill="white" stroke="#bfbfbf" points="760.5,-112.5 760.5,-131.5 860.5,-131.5 860.5,-112.5 760.5,-112.5"/>
<text text-anchor="middle" x="810.5" y="-119.5" font-family="Helvetica,sans-Serif" font-size="10.00">osg/AutoTransform</text>
</g>
<!-- Node9&#45;&gt;Node16 -->
<g id="edge15" class="edge"><title>Node9&#45;&gt;Node16</title>
<path fill="none" stroke="midnightblue" d="M1379.43,-176.808C1352.35,-174.056 1319.23,-170.76 1289.5,-168 1106.23,-150.983 1057.25,-154.023 870.822,-132.087"/>
<polygon fill="midnightblue" stroke="midnightblue" points="871.024,-128.586 860.681,-130.885 870.2,-135.537 871.024,-128.586"/>
</g>
<!-- Node17 -->
<g id="node17" class="node"><title>Node17</title>
<polygon fill="white" stroke="#bfbfbf" points="879,-112.5 879,-131.5 986,-131.5 986,-112.5 879,-112.5"/>
<text text-anchor="middle" x="932.5" y="-119.5" font-family="Helvetica,sans-Serif" font-size="10.00">osg/MatrixTransform</text>
</g>
<!-- Node9&#45;&gt;Node17 -->
<g id="edge16" class="edge"><title>Node9&#45;&gt;Node17</title>
<path fill="none" stroke="midnightblue" d="M1379.21,-176.691C1297.72,-168.01 1140.3,-150.789 996.578,-132.241"/>
<polygon fill="midnightblue" stroke="midnightblue" points="996.622,-128.718 986.255,-130.903 995.722,-135.66 996.622,-128.718"/>
</g>
<!-- Node18 -->
<g id="node18" class="node"><title>Node18</title>
<polygon fill="white" stroke="#bfbfbf" points="1004,-112.5 1004,-131.5 1063,-131.5 1063,-112.5 1004,-112.5"/>
<text text-anchor="middle" x="1033.5" y="-119.5" font-family="Helvetica,sans-Serif" font-size="10.00">osg/Node</text>
</g>
<!-- Node9&#45;&gt;Node18 -->
<g id="edge17" class="edge"><title>Node9&#45;&gt;Node18</title>
<path fill="none" stroke="midnightblue" d="M1379.37,-176.343C1310.2,-168.277 1187.79,-152.878 1073.25,-131.991"/>
<polygon fill="midnightblue" stroke="midnightblue" points="1073.72,-128.52 1063.25,-130.151 1072.45,-135.404 1073.72,-128.52"/>
</g>
<!-- Node19 -->
<g id="node19" class="node"><title>Node19</title>
<polygon fill="white" stroke="#bfbfbf" points="1081.5,-112.5 1081.5,-131.5 1143.5,-131.5 1143.5,-112.5 1081.5,-112.5"/>
<text text-anchor="middle" x="1112.5" y="-119.5" font-family="Helvetica,sans-Serif" font-size="10.00">osg/Group</text>
</g>
<!-- Node9&#45;&gt;Node19 -->
<g id="edge18" class="edge"><title>Node9&#45;&gt;Node19</title>
<path fill="none" stroke="midnightblue" d="M1379.25,-173.347C1324.46,-164.104 1237.9,-149.052 1153.88,-132.214"/>
<polygon fill="midnightblue" stroke="midnightblue" points="1154.41,-128.75 1143.91,-130.206 1153.03,-135.612 1154.41,-128.75"/>
</g>
<!-- Node20 -->
<g id="node20" class="node"><title>Node20</title>
<polygon fill="white" stroke="#bfbfbf" points="1162,-112.5 1162,-131.5 1227,-131.5 1227,-112.5 1162,-112.5"/>
<text text-anchor="middle" x="1194.5" y="-119.5" font-family="Helvetica,sans-Serif" font-size="10.00">osg/Switch</text>
</g>
<!-- Node9&#45;&gt;Node20 -->
<g id="edge19" class="edge"><title>Node9&#45;&gt;Node20</title>
<path fill="none" stroke="midnightblue" d="M1379.44,-168.849C1336.15,-158.118 1276.74,-143.388 1237.05,-133.549"/>
<polygon fill="midnightblue" stroke="midnightblue" points="1237.71,-130.106 1227.16,-131.097 1236.02,-136.901 1237.71,-130.106"/>
</g>
<!-- Node21 -->
<g id="node21" class="node"><title>Node21</title>
<polygon fill="white" stroke="#bfbfbf" points="1245.5,-112.5 1245.5,-131.5 1327.5,-131.5 1327.5,-112.5 1245.5,-112.5"/>
<text text-anchor="middle" x="1286.5" y="-119.5" font-family="Helvetica,sans-Serif" font-size="10.00">osg/ClearNode</text>
</g>
<!-- Node9&#45;&gt;Node21 -->
<g id="edge20" class="edge"><title>Node9&#45;&gt;Node21</title>
<path fill="none" stroke="midnightblue" d="M1399.43,-168.399C1374.48,-158.372 1341.29,-145.028 1317.36,-135.405"/>
<polygon fill="midnightblue" stroke="midnightblue" points="1318.62,-132.141 1308.04,-131.658 1316.01,-138.635 1318.62,-132.141"/>
</g>
<!-- Node22 -->
<g id="node22" class="node"><title>Node22</title>
<polygon fill="white" stroke="#bfbfbf" points="1346,-112.5 1346,-131.5 1425,-131.5 1425,-112.5 1346,-112.5"/>
<text text-anchor="middle" x="1385.5" y="-119.5" font-family="Helvetica,sans-Serif" font-size="10.00">osg/LineWidth</text>
</g>
<!-- Node9&#45;&gt;Node22 -->
<g id="edge21" class="edge"><title>Node9&#45;&gt;Node22</title>
<path fill="none" stroke="midnightblue" d="M1422.89,-168.399C1415.77,-159.753 1406.62,-148.642 1399.15,-139.576"/>
<polygon fill="midnightblue" stroke="midnightblue" points="1401.69,-137.152 1392.63,-131.658 1396.29,-141.602 1401.69,-137.152"/>
</g>
<!-- Node23 -->
<g id="node23" class="node"><title>Node23</title>
<polygon fill="white" stroke="#bfbfbf" points="1443.5,-112.5 1443.5,-131.5 1525.5,-131.5 1525.5,-112.5 1443.5,-112.5"/>
<text text-anchor="middle" x="1484.5" y="-119.5" font-family="Helvetica,sans-Serif" font-size="10.00">osg/AlphaFunc</text>
</g>
<!-- Node9&#45;&gt;Node23 -->
<g id="edge22" class="edge"><title>Node9&#45;&gt;Node23</title>
<path fill="none" stroke="midnightblue" d="M1446.35,-168.399C1453.61,-159.753 1462.95,-148.642 1470.57,-139.576"/>
<polygon fill="midnightblue" stroke="midnightblue" points="1473.47,-141.565 1477.22,-131.658 1468.11,-137.062 1473.47,-141.565"/>
</g>
<!-- Node24 -->
<g id="node24" class="node"><title>Node24</title>
<polygon fill="white" stroke="#bfbfbf" points="1543.5,-112.5 1543.5,-131.5 1625.5,-131.5 1625.5,-112.5 1543.5,-112.5"/>
<text text-anchor="middle" x="1584.5" y="-119.5" font-family="Helvetica,sans-Serif" font-size="10.00">osg/BlendFunc</text>
</g>
<!-- Node9&#45;&gt;Node24 -->
<g id="edge23" class="edge"><title>Node9&#45;&gt;Node24</title>
<path fill="none" stroke="midnightblue" d="M1470.05,-168.399C1495.33,-158.372 1528.97,-145.028 1553.23,-135.405"/>
<polygon fill="midnightblue" stroke="midnightblue" points="1554.67,-138.598 1562.67,-131.658 1552.09,-132.092 1554.67,-138.598"/>
</g>
<!-- Node25 -->
<g id="node25" class="node"><title>Node25</title>
<polygon fill="white" stroke="#bfbfbf" points="1643.5,-112.5 1643.5,-131.5 1717.5,-131.5 1717.5,-112.5 1643.5,-112.5"/>
<text text-anchor="middle" x="1680.5" y="-119.5" font-family="Helvetica,sans-Serif" font-size="10.00">osg/StateSet</text>
</g>
<!-- Node9&#45;&gt;Node25 -->
<g id="edge24" class="edge"><title>Node9&#45;&gt;Node25</title>
<path fill="none" stroke="midnightblue" d="M1489.71,-169.147C1533.68,-158.512 1594.46,-143.81 1635.51,-133.882"/>
<polygon fill="midnightblue" stroke="midnightblue" points="1636.34,-137.282 1645.24,-131.529 1634.7,-130.478 1636.34,-137.282"/>
</g>
<!-- Node26 -->
<g id="node26" class="node"><title>Node26</title>
<polygon fill="white" stroke="#bfbfbf" points="1735.5,-112.5 1735.5,-131.5 1797.5,-131.5 1797.5,-112.5 1735.5,-112.5"/>
<text text-anchor="middle" x="1766.5" y="-119.5" font-family="Helvetica,sans-Serif" font-size="10.00">osg/Depth</text>
</g>
<!-- Node9&#45;&gt;Node26 -->
<g id="edge25" class="edge"><title>Node9&#45;&gt;Node26</title>
<path fill="none" stroke="midnightblue" d="M1489.55,-173.823C1546.24,-164.698 1637.37,-149.502 1725.22,-132.18"/>
<polygon fill="midnightblue" stroke="midnightblue" points="1725.96,-135.603 1735.09,-130.224 1724.6,-128.736 1725.96,-135.603"/>
</g>
<!-- Node27 -->
<g id="node27" class="node"><title>Node27</title>
<polygon fill="white" stroke="#bfbfbf" points="1816,-112.5 1816,-131.5 1875,-131.5 1875,-112.5 1816,-112.5"/>
<text text-anchor="middle" x="1845.5" y="-119.5" font-family="Helvetica,sans-Serif" font-size="10.00">osg/State</text>
</g>
<!-- Node9&#45;&gt;Node27 -->
<g id="edge26" class="edge"><title>Node9&#45;&gt;Node27</title>
<path fill="none" stroke="midnightblue" d="M1489.64,-173.765C1502.39,-171.809 1515.91,-169.786 1528.5,-168 1648.72,-150.946 1682.19,-153.868 1805.9,-131.946"/>
<polygon fill="midnightblue" stroke="midnightblue" points="1806.52,-135.389 1815.75,-130.181 1805.29,-128.499 1806.52,-135.389"/>
</g>
<!-- Node28 -->
<g id="node28" class="node"><title>Node28</title>
<polygon fill="white" stroke="#bfbfbf" points="1893.5,-112.5 1893.5,-131.5 1949.5,-131.5 1949.5,-112.5 1893.5,-112.5"/>
<text text-anchor="middle" x="1921.5" y="-119.5" font-family="Helvetica,sans-Serif" font-size="10.00">osg/Light</text>
</g>
<!-- Node9&#45;&gt;Node28 -->
<g id="edge27" class="edge"><title>Node9&#45;&gt;Node28</title>
<path fill="none" stroke="midnightblue" d="M1489.6,-173.507C1502.36,-171.562 1515.89,-169.609 1528.5,-168 1683.01,-148.284 1726,-158.42 1883.27,-131.992"/>
<polygon fill="midnightblue" stroke="midnightblue" points="1884.03,-135.413 1893.3,-130.283 1882.86,-128.512 1884.03,-135.413"/>
</g>
<!-- Node29 -->
<g id="node29" class="node"><title>Node29</title>
<polygon fill="white" stroke="#bfbfbf" points="1968,-112.5 1968,-131.5 2055,-131.5 2055,-112.5 1968,-112.5"/>
<text text-anchor="middle" x="2011.5" y="-119.5" font-family="Helvetica,sans-Serif" font-size="10.00">osg/LightSource</text>
</g>
<!-- Node9&#45;&gt;Node29 -->
<g id="edge28" class="edge"><title>Node9&#45;&gt;Node29</title>
<path fill="none" stroke="midnightblue" d="M1489.58,-173.347C1502.34,-171.41 1515.87,-169.5 1528.5,-168 1715.69,-145.754 1766.51,-155.719 1957.77,-131.979"/>
<polygon fill="midnightblue" stroke="midnightblue" points="1958.38,-135.429 1967.87,-130.71 1957.51,-128.483 1958.38,-135.429"/>
</g>
<!-- Node30 -->
<g id="node30" class="node"><title>Node30</title>
<polygon fill="white" stroke="#bfbfbf" points="2073.5,-112.5 2073.5,-131.5 2143.5,-131.5 2143.5,-112.5 2073.5,-112.5"/>
<text text-anchor="middle" x="2108.5" y="-119.5" font-family="Helvetica,sans-Serif" font-size="10.00">osg/Material</text>
</g>
<!-- Node9&#45;&gt;Node30 -->
<g id="edge29" class="edge"><title>Node9&#45;&gt;Node30</title>
<path fill="none" stroke="midnightblue" d="M1489.57,-173.195C1502.32,-171.265 1515.86,-169.396 1528.5,-168 1762.57,-142.135 1826.16,-163.397 2063.08,-132.018"/>
<polygon fill="midnightblue" stroke="midnightblue" points="2063.58,-135.482 2073.03,-130.683 2062.65,-128.544 2063.58,-135.482"/>
</g>
<!-- Node31 -->
<g id="node31" class="node"><title>Node31</title>
<polygon fill="white" stroke="#bfbfbf" points="2161.5,-112.5 2161.5,-131.5 2231.5,-131.5 2231.5,-112.5 2161.5,-112.5"/>
<text text-anchor="middle" x="2196.5" y="-119.5" font-family="Helvetica,sans-Serif" font-size="10.00">osg/Camera</text>
</g>
<!-- Node9&#45;&gt;Node31 -->
<g id="edge30" class="edge"><title>Node9&#45;&gt;Node31</title>
<path fill="none" stroke="midnightblue" d="M1489.56,-173.107C1502.31,-171.181 1515.86,-169.337 1528.5,-168 1801.38,-139.148 1875.24,-167.225 2150.73,-132.045"/>
<polygon fill="midnightblue" stroke="midnightblue" points="2151.56,-135.466 2161.03,-130.712 2150.67,-128.524 2151.56,-135.466"/>
</g>
<!-- Node32 -->
<g id="node32" class="node"><title>Node32</title>
<polygon fill="white" stroke="#bfbfbf" points="2249.5,-112.5 2249.5,-131.5 2323.5,-131.5 2323.5,-112.5 2249.5,-112.5"/>
<text text-anchor="middle" x="2286.5" y="-119.5" font-family="Helvetica,sans-Serif" font-size="10.00">osg/Viewport</text>
</g>
<!-- Node9&#45;&gt;Node32 -->
<g id="edge31" class="edge"><title>Node9&#45;&gt;Node32</title>
<path fill="none" stroke="midnightblue" d="M1489.55,-173.041C1502.31,-171.118 1515.85,-169.292 1528.5,-168 1840.32,-136.151 1924.21,-169.779 2239.08,-131.984"/>
<polygon fill="midnightblue" stroke="midnightblue" points="2239.91,-135.408 2249.42,-130.727 2239.07,-128.459 2239.91,-135.408"/>
</g>
<!-- Node33 -->
<g id="node33" class="node"><title>Node33</title>
<polygon fill="white" stroke="#bfbfbf" points="2342,-112.5 2342,-131.5 2437,-131.5 2437,-112.5 2342,-112.5"/>
<text text-anchor="middle" x="2389.5" y="-119.5" font-family="Helvetica,sans-Serif" font-size="10.00">osgViewer/Viewer</text>
</g>
<!-- Node9&#45;&gt;Node33 -->
<g id="edge32" class="edge"><title>Node9&#45;&gt;Node33</title>
<path fill="none" stroke="midnightblue" d="M1489.55,-172.988C1502.3,-171.067 1515.85,-169.255 1528.5,-168 1881.14,-133.01 1974.89,-167.301 2331.87,-131.925"/>
<polygon fill="midnightblue" stroke="midnightblue" points="2332.36,-135.393 2341.97,-130.913 2331.67,-128.428 2332.36,-135.393"/>
</g>
<!-- Node34 -->
<g id="node34" class="node"><title>Node34</title>
<polygon fill="white" stroke="#bfbfbf" points="2455.5,-112.5 2455.5,-131.5 2573.5,-131.5 2573.5,-112.5 2455.5,-112.5"/>
<text text-anchor="middle" x="2514.5" y="-119.5" font-family="Helvetica,sans-Serif" font-size="10.00">osgViewer/ViewerBase</text>
</g>
<!-- Node9&#45;&gt;Node34 -->
<g id="edge33" class="edge"><title>Node9&#45;&gt;Node34</title>
<path fill="none" stroke="midnightblue" d="M1489.54,-172.936C1502.3,-171.018 1515.84,-169.22 1528.5,-168 1931.65,-129.128 2037.97,-166.217 2445.21,-132.024"/>
<polygon fill="midnightblue" stroke="midnightblue" points="2445.53,-135.51 2455.2,-131.177 2444.94,-128.535 2445.53,-135.51"/>
</g>
<!-- Node35 -->
<g id="node35" class="node"><title>Node35</title>
<polygon fill="white" stroke="#bfbfbf" points="2592,-112.5 2592,-131.5 2701,-131.5 2701,-112.5 2592,-112.5"/>
<text text-anchor="middle" x="2646.5" y="-119.5" font-family="Helvetica,sans-Serif" font-size="10.00">osg/GraphicsContext</text>
</g>
<!-- Node9&#45;&gt;Node35 -->
<g id="edge34" class="edge"><title>Node9&#45;&gt;Node35</title>
<path fill="none" stroke="midnightblue" d="M1489.54,-172.889C1502.29,-170.974 1515.84,-169.188 1528.5,-168 1991.86,-124.504 2113.83,-172.01 2581.67,-131.96"/>
<polygon fill="midnightblue" stroke="midnightblue" points="2582.07,-135.438 2591.73,-131.089 2581.47,-128.464 2582.07,-135.438"/>
</g>
<!-- Node36 -->
<g id="node36" class="node"><title>Node36</title>
<polygon fill="white" stroke="#bfbfbf" points="2719,-112.5 2719,-131.5 2814,-131.5 2814,-112.5 2719,-112.5"/>
<text text-anchor="middle" x="2766.5" y="-119.5" font-family="Helvetica,sans-Serif" font-size="10.00">osg/PolygonMode</text>
</g>
<!-- Node9&#45;&gt;Node36 -->
<g id="edge35" class="edge"><title>Node9&#45;&gt;Node36</title>
<path fill="none" stroke="midnightblue" d="M1489.53,-172.855C1502.29,-170.941 1515.84,-169.165 1528.5,-168 2048.54,-120.153 2185.55,-181.02 2708.82,-132.031"/>
<polygon fill="midnightblue" stroke="midnightblue" points="2709.27,-135.504 2718.89,-131.079 2708.61,-128.535 2709.27,-135.504"/>
</g>
<!-- Node37&#45;&gt;Node9 -->
<g id="edge41" class="edge"><title>Node37&#45;&gt;Node9</title>
<path fill="none" stroke="midnightblue" d="M1421.11,-302.374C1423.65,-279.945 1428.66,-235.924 1431.77,-208.486"/>
<polygon fill="midnightblue" stroke="midnightblue" points="1435.25,-208.856 1432.91,-198.525 1428.3,-208.066 1435.25,-208.856"/>
</g>
<!-- Node38 -->
<g id="node38" class="node"><title>Node38</title>
<polygon fill="white" stroke="#bfbfbf" points="1537.5,-174 1537.5,-193 1591.5,-193 1591.5,-174 1537.5,-174"/>
<text text-anchor="middle" x="1564.5" y="-181" font-family="Helvetica,sans-Serif" font-size="10.00">iostream</text>
</g>
<!-- Node37&#45;&gt;Node38 -->
<g id="edge39" class="edge"><title>Node37&#45;&gt;Node38</title>
<path fill="none" stroke="midnightblue" d="M1482.32,-309.784C1510.84,-303.302 1542.23,-290.647 1560.5,-266 1573.91,-247.906 1572.21,-220.849 1568.99,-202.942"/>
<polygon fill="midnightblue" stroke="midnightblue" points="1572.41,-202.195 1566.91,-193.138 1565.56,-203.646 1572.41,-202.195"/>
</g>
<!-- Node39 -->
<g id="node39" class="node"><title>Node39</title>
<polygon fill="white" stroke="#bfbfbf" points="1341.5,-241 1341.5,-260 1391.5,-260 1391.5,-241 1341.5,-241"/>
<text text-anchor="middle" x="1366.5" y="-248" font-family="Helvetica,sans-Serif" font-size="10.00">fstream</text>
</g>
<!-- Node37&#45;&gt;Node39 -->
<g id="edge40" class="edge"><title>Node37&#45;&gt;Node39</title>
<path fill="none" stroke="midnightblue" d="M1408,-302.396C1399.82,-292.361 1388.79,-278.838 1380.16,-268.253"/>
<polygon fill="midnightblue" stroke="midnightblue" points="1382.62,-265.733 1373.59,-260.195 1377.2,-270.157 1382.62,-265.733"/>
</g>
<!-- Node40 -->
<g id="node40" class="node"><title>Node40</title>
<g id="a_node40"><a xlink:href="a00108.html" target="_top" xlink:title="gepetto/viewer/node\l&#45;visitor.h">
<polygon fill="white" stroke="black" points="1447.5,-235.5 1447.5,-265.5 1551.5,-265.5 1551.5,-235.5 1447.5,-235.5"/>
<text text-anchor="start" x="1455.5" y="-253.5" font-family="Helvetica,sans-Serif" font-size="10.00">gepetto/viewer/node</text>
<text text-anchor="middle" x="1499.5" y="-242.5" font-family="Helvetica,sans-Serif" font-size="10.00">&#45;visitor.h</text>
</a>
</g>
</g>
<!-- Node37&#45;&gt;Node40 -->
<g id="edge42" class="edge"><title>Node37&#45;&gt;Node40</title>
<path fill="none" stroke="midnightblue" d="M1436.86,-302.396C1447.76,-293.538 1462.01,-281.96 1474.16,-272.086"/>
<polygon fill="midnightblue" stroke="midnightblue" points="1476.62,-274.599 1482.18,-265.577 1472.21,-269.166 1476.62,-274.599"/>
</g>
<!-- Node40&#45;&gt;Node9 -->
<g id="edge44" class="edge"><title>Node40&#45;&gt;Node9</title>
<path fill="none" stroke="midnightblue" d="M1485.4,-235.396C1476.71,-226.708 1465.4,-215.405 1455.66,-205.658"/>
<polygon fill="midnightblue" stroke="midnightblue" points="1458.12,-203.173 1448.58,-198.577 1453.17,-208.122 1458.12,-203.173"/>
</g>
<!-- Node40&#45;&gt;Node38 -->
<g id="edge43" class="edge"><title>Node40&#45;&gt;Node38</title>
<path fill="none" stroke="midnightblue" d="M1513.6,-235.396C1523.94,-225.06 1537.98,-211.024 1548.69,-200.309"/>
<polygon fill="midnightblue" stroke="midnightblue" points="1551.21,-202.741 1555.81,-193.195 1546.26,-197.791 1551.21,-202.741"/>
</g>
</g>
</svg>
