<?xml version="1.0" encoding="UTF-8" standalone="no"?>
<!DOCTYPE svg PUBLIC "-//W3C//DTD SVG 1.1//EN"
 "http://www.w3.org/Graphics/SVG/1.1/DTD/svg11.dtd">
<!-- Generated by graphviz version 2.38.0 (20140413.2041)
 -->
<!-- Title: window&#45;manager.h Pages: 1 -->
<svg width="2898pt" height="453pt"
 viewBox="0.00 0.00 2898.00 453.00" xmlns="http://www.w3.org/2000/svg" xmlns:xlink="http://www.w3.org/1999/xlink">
<g id="graph0" class="graph" transform="scale(1 1) rotate(0) translate(4 449)">
<title>window&#45;manager.h</title>
<polygon fill="white" stroke="none" points="-4,4 -4,-449 2894,-449 2894,4 -4,4"/>
<!-- Node1 -->
<g id="node1" class="node"><title>Node1</title>
<polygon fill="#bfbfbf" stroke="black" points="1423.5,-425.5 1423.5,-444.5 1521.5,-444.5 1521.5,-425.5 1423.5,-425.5"/>
<text text-anchor="middle" x="1472.5" y="-432.5" font-family="Helvetica,sans-Serif" font-size="10.00">window&#45;manager.h</text>
</g>
<!-- Node2 -->
<g id="node2" class="node"><title>Node2</title>
<polygon fill="white" stroke="#bfbfbf" points="1188.5,-364 1188.5,-383 1362.5,-383 1362.5,-364 1188.5,-364"/>
<text text-anchor="middle" x="1275.5" y="-371" font-family="Helvetica,sans-Serif" font-size="10.00">osgGA/KeySwitchMatrixManipulator</text>
</g>
<!-- Node1&#45;&gt;Node2 -->
<g id="edge1" class="edge"><title>Node1&#45;&gt;Node2</title>
<path fill="none" stroke="midnightblue" d="M1444.27,-425.475C1409.9,-415.092 1351.69,-397.512 1313.42,-385.954"/>
<polygon fill="midnightblue" stroke="midnightblue" points="1314.26,-382.55 1303.67,-383.009 1312.23,-389.251 1314.26,-382.55"/>
</g>
<!-- Node3 -->
<g id="node3" class="node"><title>Node3</title>
<polygon fill="white" stroke="#bfbfbf" points="0,-112.5 0,-131.5 95,-131.5 95,-112.5 0,-112.5"/>
<text text-anchor="middle" x="47.5" y="-119.5" font-family="Helvetica,sans-Serif" font-size="10.00">osgViewer/Viewer</text>
</g>
<!-- Node1&#45;&gt;Node3 -->
<g id="edge2" class="edge"><title>Node1&#45;&gt;Node3</title>
<path fill="none" stroke="midnightblue" d="M1454.64,-425.404C1440.6,-417.747 1421.62,-405.245 1410.5,-389 1390.77,-360.176 1390.5,-347.928 1390.5,-313 1390.5,-313 1390.5,-313 1390.5,-249.5 1390.5,-108.818 291.121,-148.09 105.068,-131.789"/>
<polygon fill="midnightblue" stroke="midnightblue" points="105.361,-128.301 95.0528,-130.747 104.637,-135.263 105.361,-128.301"/>
</g>
<!-- Node4 -->
<g id="node4" class="node"><title>Node4</title>
<polygon fill="white" stroke="#bfbfbf" points="1582.5,-364 1582.5,-383 1742.5,-383 1742.5,-364 1582.5,-364"/>
<text text-anchor="middle" x="1662.5" y="-371" font-family="Helvetica,sans-Serif" font-size="10.00">osgViewer/ViewerEventHandlers</text>
</g>
<!-- Node1&#45;&gt;Node4 -->
<g id="edge3" class="edge"><title>Node1&#45;&gt;Node4</title>
<path fill="none" stroke="midnightblue" d="M1499.72,-425.475C1532.74,-415.136 1588.54,-397.661 1625.45,-386.102"/>
<polygon fill="midnightblue" stroke="midnightblue" points="1626.83,-389.338 1635.33,-383.009 1624.74,-382.658 1626.83,-389.338"/>
</g>
<!-- Node5 -->
<g id="node5" class="node"><title>Node5</title>
<g id="a_node5"><a xlink:href="a00086.html" target="_top" xlink:title="gepetto/viewer/group\l&#45;node.h">
<polygon fill="white" stroke="black" points="1419,-358.5 1419,-388.5 1526,-388.5 1526,-358.5 1419,-358.5"/>
<text text-anchor="start" x="1427" y="-376.5" font-family="Helvetica,sans-Serif" font-size="10.00">gepetto/viewer/group</text>
<text text-anchor="middle" x="1472.5" y="-365.5" font-family="Helvetica,sans-Serif" font-size="10.00">&#45;node.h</text>
</a>
</g>
</g>
<!-- Node1&#45;&gt;Node5 -->
<g id="edge4" class="edge"><title>Node1&#45;&gt;Node5</title>
<path fill="none" stroke="midnightblue" d="M1472.5,-425.475C1472.5,-418.471 1472.5,-408.192 1472.5,-398.696"/>
<polygon fill="midnightblue" stroke="midnightblue" points="1476,-398.523 1472.5,-388.523 1469,-398.523 1476,-398.523"/>
</g>
<!-- Node6 -->
<g id="node6" class="node"><title>Node6</title>
<g id="a_node6"><a xlink:href="a00109.html" target="_top" xlink:title="gepetto/viewer/node.h">
<polygon fill="white" stroke="black" points="1498,-302.5 1498,-321.5 1611,-321.5 1611,-302.5 1498,-302.5"/>
<text text-anchor="middle" x="1554.5" y="-309.5" font-family="Helvetica,sans-Serif" font-size="10.00">gepetto/viewer/node.h</text>
</a>
</g>
</g>
<!-- Node1&#45;&gt;Node6 -->
<g id="edge52" class="edge"><title>Node1&#45;&gt;Node6</title>
<path fill="none" stroke="midnightblue" d="M1490.99,-425.356C1505.26,-417.746 1524.38,-405.332 1535.5,-389 1547.19,-371.828 1551.7,-348.09 1553.43,-331.736"/>
<polygon fill="midnightblue" stroke="midnightblue" points="1556.92,-332.015 1554.24,-321.764 1549.94,-331.448 1556.92,-332.015"/>
</g>
<!-- Node5&#45;&gt;Node6 -->
<g id="edge5" class="edge"><title>Node5&#45;&gt;Node6</title>
<path fill="none" stroke="midnightblue" d="M1491.93,-358.399C1504.71,-349.129 1521.39,-337.025 1534.31,-327.647"/>
<polygon fill="midnightblue" stroke="midnightblue" points="1536.53,-330.364 1542.57,-321.658 1532.42,-324.698 1536.53,-330.364"/>
</g>
<!-- Node7 -->
<g id="node7" class="node"><title>Node7</title>
<polygon fill="white" stroke="#bfbfbf" points="1569.5,-174 1569.5,-193 1623.5,-193 1623.5,-174 1569.5,-174"/>
<text text-anchor="middle" x="1596.5" y="-181" font-family="Helvetica,sans-Serif" font-size="10.00">iostream</text>
</g>
<!-- Node6&#45;&gt;Node7 -->
<g id="edge6" class="edge"><title>Node6&#45;&gt;Node7</title>
<path fill="none" stroke="midnightblue" d="M1569.16,-302.402C1580.91,-294.585 1596.53,-281.862 1603.5,-266 1612.4,-245.735 1607.87,-219.936 1602.96,-202.854"/>
<polygon fill="midnightblue" stroke="midnightblue" points="1606.2,-201.49 1599.82,-193.032 1599.53,-203.623 1606.2,-201.49"/>
</g>
<!-- Node8 -->
<g id="node8" class="node"><title>Node8</title>
<g id="a_node8"><a xlink:href="a00084.html" target="_top" xlink:title="gepetto/viewer/fwd.h">
<polygon fill="white" stroke="black" points="2745,-112.5 2745,-131.5 2852,-131.5 2852,-112.5 2745,-112.5"/>
<text text-anchor="middle" x="2798.5" y="-119.5" font-family="Helvetica,sans-Serif" font-size="10.00">gepetto/viewer/fwd.h</text>
</a>
</g>
</g>
<!-- Node6&#45;&gt;Node8 -->
<g id="edge7" class="edge"><title>Node6&#45;&gt;Node8</title>
<path fill="none" stroke="midnightblue" d="M1610.78,-302.495C1815.4,-271.572 2519.18,-165.212 2735.04,-132.59"/>
<polygon fill="midnightblue" stroke="midnightblue" points="2735.58,-136.048 2744.95,-131.093 2734.54,-129.127 2735.58,-136.048"/>
</g>
<!-- Node13 -->
<g id="node13" class="node"><title>Node13</title>
<g id="a_node13"><a xlink:href="a00108.html" target="_top" xlink:title="gepetto/viewer/node\l&#45;visitor.h">
<polygon fill="white" stroke="black" points="1490.5,-235.5 1490.5,-265.5 1594.5,-265.5 1594.5,-235.5 1490.5,-235.5"/>
<text text-anchor="start" x="1498.5" y="-253.5" font-family="Helvetica,sans-Serif" font-size="10.00">gepetto/viewer/node</text>
<text text-anchor="middle" x="1542.5" y="-242.5" font-family="Helvetica,sans-Serif" font-size="10.00">&#45;visitor.h</text>
</a>
</g>
</g>
<!-- Node6&#45;&gt;Node13 -->
<g id="edge12" class="edge"><title>Node6&#45;&gt;Node13</title>
<path fill="none" stroke="midnightblue" d="M1552.78,-302.475C1551.35,-295.396 1549.25,-284.97 1547.32,-275.39"/>
<polygon fill="midnightblue" stroke="midnightblue" points="1550.74,-274.634 1545.33,-265.523 1543.87,-276.018 1550.74,-274.634"/>
</g>
<!-- Node14 -->
<g id="node14" class="node"><title>Node14</title>
<g id="a_node14"><a xlink:href="a00080.html" target="_top" xlink:title="gepetto/viewer/config\l&#45;osg.h">
<polygon fill="white" stroke="black" points="1430.5,-168.5 1430.5,-198.5 1540.5,-198.5 1540.5,-168.5 1430.5,-168.5"/>
<text text-anchor="start" x="1438.5" y="-186.5" font-family="Helvetica,sans-Serif" font-size="10.00">gepetto/viewer/config</text>
<text text-anchor="middle" x="1485.5" y="-175.5" font-family="Helvetica,sans-Serif" font-size="10.00">&#45;osg.h</text>
</a>
</g>
</g>
<!-- Node6&#45;&gt;Node14 -->
<g id="edge51" class="edge"><title>Node6&#45;&gt;Node14</title>
<path fill="none" stroke="midnightblue" d="M1528.29,-302.414C1511.65,-295.445 1491.44,-283.809 1481.5,-266 1471.78,-248.586 1473.96,-225.678 1477.89,-208.585"/>
<polygon fill="midnightblue" stroke="midnightblue" points="1481.31,-209.356 1480.47,-198.794 1474.54,-207.57 1481.31,-209.356"/>
</g>
<!-- Node41 -->
<g id="node41" class="node"><title>Node41</title>
<g id="a_node41"><a xlink:href="a00106.html" target="_top" xlink:title="gepetto/viewer/node\l&#45;property.h">
<polygon fill="white" stroke="black" points="1650.5,-235.5 1650.5,-265.5 1754.5,-265.5 1754.5,-235.5 1650.5,-235.5"/>
<text text-anchor="start" x="1658.5" y="-253.5" font-family="Helvetica,sans-Serif" font-size="10.00">gepetto/viewer/node</text>
<text text-anchor="middle" x="1702.5" y="-242.5" font-family="Helvetica,sans-Serif" font-size="10.00">&#45;property.h</text>
</a>
</g>
</g>
<!-- Node6&#45;&gt;Node41 -->
<g id="edge44" class="edge"><title>Node6&#45;&gt;Node41</title>
<path fill="none" stroke="midnightblue" d="M1575.7,-302.475C1597.15,-293.852 1630.95,-280.264 1658.26,-269.285"/>
<polygon fill="midnightblue" stroke="midnightblue" points="1659.65,-272.501 1667.62,-265.523 1657.04,-266.006 1659.65,-272.501"/>
</g>
<!-- Node9 -->
<g id="node9" class="node"><title>Node9</title>
<g id="a_node9"><a xlink:href="a00102.html" target="_top" xlink:title="gepetto/viewer/macros.h">
<polygon fill="white" stroke="black" points="2695.5,-56.5 2695.5,-75.5 2819.5,-75.5 2819.5,-56.5 2695.5,-56.5"/>
<text text-anchor="middle" x="2757.5" y="-63.5" font-family="Helvetica,sans-Serif" font-size="10.00">gepetto/viewer/macros.h</text>
</a>
</g>
</g>
<!-- Node8&#45;&gt;Node9 -->
<g id="edge8" class="edge"><title>Node8&#45;&gt;Node9</title>
<path fill="none" stroke="midnightblue" d="M2791.73,-112.083C2785.94,-104.455 2777.44,-93.2645 2770.36,-83.9408"/>
<polygon fill="midnightblue" stroke="midnightblue" points="2772.98,-81.5991 2764.14,-75.7511 2767.4,-85.8321 2772.98,-81.5991"/>
</g>
<!-- Node10 -->
<g id="node10" class="node"><title>Node10</title>
<polygon fill="white" stroke="#bfbfbf" points="2580.5,-0.5 2580.5,-19.5 2688.5,-19.5 2688.5,-0.5 2580.5,-0.5"/>
<text text-anchor="middle" x="2634.5" y="-7.5" font-family="Helvetica,sans-Serif" font-size="10.00">boost/shared_ptr.hpp</text>
</g>
<!-- Node9&#45;&gt;Node10 -->
<g id="edge9" class="edge"><title>Node9&#45;&gt;Node10</title>
<path fill="none" stroke="midnightblue" d="M2738.01,-56.4435C2717.86,-47.5961 2686.18,-33.6875 2663.17,-23.5865"/>
<polygon fill="midnightblue" stroke="midnightblue" points="2664.46,-20.3316 2653.9,-19.5164 2661.65,-26.7411 2664.46,-20.3316"/>
</g>
<!-- Node11 -->
<g id="node11" class="node"><title>Node11</title>
<polygon fill="white" stroke="#bfbfbf" points="2706.5,-0.5 2706.5,-19.5 2808.5,-19.5 2808.5,-0.5 2706.5,-0.5"/>
<text text-anchor="middle" x="2757.5" y="-7.5" font-family="Helvetica,sans-Serif" font-size="10.00">boost/weak_ptr.hpp</text>
</g>
<!-- Node9&#45;&gt;Node11 -->
<g id="edge10" class="edge"><title>Node9&#45;&gt;Node11</title>
<path fill="none" stroke="midnightblue" d="M2757.5,-56.083C2757.5,-49.0059 2757.5,-38.8611 2757.5,-29.9865"/>
<polygon fill="midnightblue" stroke="midnightblue" points="2761,-29.751 2757.5,-19.7511 2754,-29.7511 2761,-29.751"/>
</g>
<!-- Node12 -->
<g id="node12" class="node"><title>Node12</title>
<polygon fill="white" stroke="#bfbfbf" points="2827,-0.5 2827,-19.5 2890,-19.5 2890,-0.5 2827,-0.5"/>
<text text-anchor="middle" x="2858.5" y="-7.5" font-family="Helvetica,sans-Serif" font-size="10.00">osg/ref_ptr</text>
</g>
<!-- Node9&#45;&gt;Node12 -->
<g id="edge11" class="edge"><title>Node9&#45;&gt;Node12</title>
<path fill="none" stroke="midnightblue" d="M2773.73,-56.324C2789.85,-47.7034 2814.8,-34.3643 2833.46,-24.3855"/>
<polygon fill="midnightblue" stroke="midnightblue" points="2835.14,-27.456 2842.31,-19.6545 2831.84,-21.283 2835.14,-27.456"/>
</g>
<!-- Node13&#45;&gt;Node7 -->
<g id="edge13" class="edge"><title>Node13&#45;&gt;Node7</title>
<path fill="none" stroke="midnightblue" d="M1554.22,-235.396C1562.64,-225.261 1574.01,-211.567 1582.84,-200.937"/>
<polygon fill="midnightblue" stroke="midnightblue" points="1585.58,-203.123 1589.28,-193.195 1580.19,-198.65 1585.58,-203.123"/>
</g>
<!-- Node13&#45;&gt;Node14 -->
<g id="edge14" class="edge"><title>Node13&#45;&gt;Node14</title>
<path fill="none" stroke="midnightblue" d="M1530.13,-235.396C1522.66,-226.878 1512.99,-215.847 1504.56,-206.233"/>
<polygon fill="midnightblue" stroke="midnightblue" points="1507.07,-203.787 1497.84,-198.577 1501.81,-208.403 1507.07,-203.787"/>
</g>
<!-- Node14&#45;&gt;Node3 -->
<g id="edge38" class="edge"><title>Node14&#45;&gt;Node3</title>
<path fill="none" stroke="midnightblue" d="M1430.32,-171.486C1421.71,-170.096 1412.88,-168.862 1404.5,-168 832.898,-109.256 681.814,-184.294 105.267,-131.913"/>
<polygon fill="midnightblue" stroke="midnightblue" points="105.306,-128.402 95.0282,-130.974 104.667,-135.373 105.306,-128.402"/>
</g>
<!-- Node14&#45;&gt;Node8 -->
<g id="edge42" class="edge"><title>Node14&#45;&gt;Node8</title>
<path fill="none" stroke="midnightblue" d="M1540.64,-170.801C1547.31,-169.694 1554.04,-168.719 1560.5,-168 2077.55,-110.439 2211.97,-174.184 2730.5,-132 2731.8,-131.894 2733.12,-131.781 2734.44,-131.661"/>
<polygon fill="midnightblue" stroke="midnightblue" points="2735.13,-135.109 2744.73,-130.625 2734.43,-128.144 2735.13,-135.109"/>
</g>
<!-- Node14&#45;&gt;Node9 -->
<g id="edge43" class="edge"><title>Node14&#45;&gt;Node9</title>
<path fill="none" stroke="midnightblue" d="M1540.64,-170.806C1547.31,-169.699 1554.04,-168.722 1560.5,-168 1686.11,-153.959 2582.53,-184.52 2697.5,-132 2719.25,-122.065 2736.73,-100.174 2747.1,-84.5431"/>
<polygon fill="midnightblue" stroke="midnightblue" points="2750.25,-86.1115 2752.61,-75.7828 2744.32,-82.3856 2750.25,-86.1115"/>
</g>
<!-- Node15 -->
<g id="node15" class="node"><title>Node15</title>
<polygon fill="white" stroke="#bfbfbf" points="2320.5,-112.5 2320.5,-131.5 2388.5,-131.5 2388.5,-112.5 2320.5,-112.5"/>
<text text-anchor="middle" x="2354.5" y="-119.5" font-family="Helvetica,sans-Serif" font-size="10.00">QMetaType</text>
</g>
<!-- Node14&#45;&gt;Node15 -->
<g id="edge15" class="edge"><title>Node14&#45;&gt;Node15</title>
<path fill="none" stroke="midnightblue" d="M1540.65,-170.909C1547.32,-169.783 1554.05,-168.774 1560.5,-168 1888.88,-128.591 1978.21,-173.424 2309.93,-131.981"/>
<polygon fill="midnightblue" stroke="midnightblue" points="2310.83,-135.394 2320.32,-130.665 2309.95,-128.449 2310.83,-135.394"/>
</g>
<!-- Node16 -->
<g id="node16" class="node"><title>Node16</title>
<polygon fill="white" stroke="#bfbfbf" points="2407,-112.5 2407,-131.5 2470,-131.5 2470,-112.5 2407,-112.5"/>
<text text-anchor="middle" x="2438.5" y="-119.5" font-family="Helvetica,sans-Serif" font-size="10.00">osg/Shape</text>
</g>
<!-- Node14&#45;&gt;Node16 -->
<g id="edge16" class="edge"><title>Node14&#45;&gt;Node16</title>
<path fill="none" stroke="midnightblue" d="M1540.65,-170.878C1547.32,-169.758 1554.05,-168.758 1560.5,-168 1926.96,-124.935 2026.48,-179.101 2396.62,-131.842"/>
<polygon fill="midnightblue" stroke="midnightblue" points="2397.34,-135.278 2406.81,-130.524 2396.45,-128.335 2397.34,-135.278"/>
</g>
<!-- Node17 -->
<g id="node17" class="node"><title>Node17</title>
<polygon fill="white" stroke="#bfbfbf" points="2488.5,-112.5 2488.5,-131.5 2592.5,-131.5 2592.5,-112.5 2488.5,-112.5"/>
<text text-anchor="middle" x="2540.5" y="-119.5" font-family="Helvetica,sans-Serif" font-size="10.00">osg/ShapeDrawable</text>
</g>
<!-- Node14&#45;&gt;Node17 -->
<g id="edge17" class="edge"><title>Node14&#45;&gt;Node17</title>
<path fill="none" stroke="midnightblue" d="M1540.65,-170.854C1547.31,-169.738 1554.04,-168.746 1560.5,-168 1963.28,-121.448 2070.78,-169.105 2478.31,-131.999"/>
<polygon fill="midnightblue" stroke="midnightblue" points="2478.66,-135.481 2488.3,-131.078 2478.02,-128.511 2478.66,-135.481"/>
</g>
<!-- Node18 -->
<g id="node18" class="node"><title>Node18</title>
<polygon fill="white" stroke="#bfbfbf" points="2610.5,-112.5 2610.5,-131.5 2688.5,-131.5 2688.5,-112.5 2610.5,-112.5"/>
<text text-anchor="middle" x="2649.5" y="-119.5" font-family="Helvetica,sans-Serif" font-size="10.00">osg/Geometry</text>
</g>
<!-- Node14&#45;&gt;Node18 -->
<g id="edge18" class="edge"><title>Node14&#45;&gt;Node18</title>
<path fill="none" stroke="midnightblue" d="M1540.64,-170.825C1547.31,-169.714 1554.04,-168.731 1560.5,-168 2017.13,-116.285 2139.56,-181.828 2600.03,-131.975"/>
<polygon fill="midnightblue" stroke="midnightblue" points="2600.72,-135.42 2610.28,-130.852 2599.96,-128.462 2600.72,-135.42"/>
</g>
<!-- Node19 -->
<g id="node19" class="node"><title>Node19</title>
<polygon fill="white" stroke="#bfbfbf" points="113.5,-112.5 113.5,-131.5 177.5,-131.5 177.5,-112.5 113.5,-112.5"/>
<text text-anchor="middle" x="145.5" y="-119.5" font-family="Helvetica,sans-Serif" font-size="10.00">osg/Geode</text>
</g>
<!-- Node14&#45;&gt;Node19 -->
<g id="edge19" class="edge"><title>Node14&#45;&gt;Node19</title>
<path fill="none" stroke="midnightblue" d="M1430.32,-171.5C1421.71,-170.108 1412.88,-168.869 1404.5,-168 868.668,-112.435 725.006,-198.736 187.661,-132.052"/>
<polygon fill="midnightblue" stroke="midnightblue" points="188.074,-128.576 177.717,-130.806 187.204,-135.522 188.074,-128.576"/>
</g>
<!-- Node20 -->
<g id="node20" class="node"><title>Node20</title>
<polygon fill="white" stroke="#bfbfbf" points="195,-112.5 195,-131.5 344,-131.5 344,-112.5 195,-112.5"/>
<text text-anchor="middle" x="269.5" y="-119.5" font-family="Helvetica,sans-Serif" font-size="10.00">osg/PositionAttitudeTransform</text>
</g>
<!-- Node14&#45;&gt;Node20 -->
<g id="edge20" class="edge"><title>Node14&#45;&gt;Node20</title>
<path fill="none" stroke="midnightblue" d="M1430.31,-171.535C1421.7,-170.139 1412.88,-168.889 1404.5,-168 943.014,-119.044 821.441,-164.268 354.179,-131.982"/>
<polygon fill="midnightblue" stroke="midnightblue" points="354.35,-128.486 344.13,-131.28 353.862,-135.469 354.35,-128.486"/>
</g>
<!-- Node21 -->
<g id="node21" class="node"><title>Node21</title>
<polygon fill="white" stroke="#bfbfbf" points="362.5,-112.5 362.5,-131.5 462.5,-131.5 462.5,-112.5 362.5,-112.5"/>
<text text-anchor="middle" x="412.5" y="-119.5" font-family="Helvetica,sans-Serif" font-size="10.00">osg/AutoTransform</text>
</g>
<!-- Node14&#45;&gt;Node21 -->
<g id="edge21" class="edge"><title>Node14&#45;&gt;Node21</title>
<path fill="none" stroke="midnightblue" d="M1430.31,-171.567C1421.7,-170.167 1412.88,-168.907 1404.5,-168 995.26,-123.691 886.354,-170.584 472.802,-132.003"/>
<polygon fill="midnightblue" stroke="midnightblue" points="472.949,-128.501 462.664,-131.046 472.291,-135.47 472.949,-128.501"/>
</g>
<!-- Node22 -->
<g id="node22" class="node"><title>Node22</title>
<polygon fill="white" stroke="#bfbfbf" points="481,-112.5 481,-131.5 588,-131.5 588,-112.5 481,-112.5"/>
<text text-anchor="middle" x="534.5" y="-119.5" font-family="Helvetica,sans-Serif" font-size="10.00">osg/MatrixTransform</text>
</g>
<!-- Node14&#45;&gt;Node22 -->
<g id="edge22" class="edge"><title>Node14&#45;&gt;Node22</title>
<path fill="none" stroke="midnightblue" d="M1430.31,-171.612C1421.7,-170.205 1412.88,-168.932 1404.5,-168 1050.55,-128.61 956.115,-165.17 598.349,-132.082"/>
<polygon fill="midnightblue" stroke="midnightblue" points="598.512,-128.582 588.229,-131.134 597.859,-135.551 598.512,-128.582"/>
</g>
<!-- Node23 -->
<g id="node23" class="node"><title>Node23</title>
<polygon fill="white" stroke="#bfbfbf" points="606,-112.5 606,-131.5 665,-131.5 665,-112.5 606,-112.5"/>
<text text-anchor="middle" x="635.5" y="-119.5" font-family="Helvetica,sans-Serif" font-size="10.00">osg/Node</text>
</g>
<!-- Node14&#45;&gt;Node23 -->
<g id="edge23" class="edge"><title>Node14&#45;&gt;Node23</title>
<path fill="none" stroke="midnightblue" d="M1430.3,-171.647C1421.69,-170.236 1412.87,-168.952 1404.5,-168 1085.05,-131.681 998.027,-175.775 675.316,-131.823"/>
<polygon fill="midnightblue" stroke="midnightblue" points="675.594,-128.328 665.209,-130.428 674.637,-135.262 675.594,-128.328"/>
</g>
<!-- Node24 -->
<g id="node24" class="node"><title>Node24</title>
<polygon fill="white" stroke="#bfbfbf" points="683.5,-112.5 683.5,-131.5 745.5,-131.5 745.5,-112.5 683.5,-112.5"/>
<text text-anchor="middle" x="714.5" y="-119.5" font-family="Helvetica,sans-Serif" font-size="10.00">osg/Group</text>
</g>
<!-- Node14&#45;&gt;Node24 -->
<g id="edge24" class="edge"><title>Node14&#45;&gt;Node24</title>
<path fill="none" stroke="midnightblue" d="M1430.3,-171.692C1421.69,-170.275 1412.87,-168.977 1404.5,-168 1120.49,-134.839 1042.88,-171.025 756.142,-131.992"/>
<polygon fill="midnightblue" stroke="midnightblue" points="756.237,-128.472 745.853,-130.571 755.28,-135.406 756.237,-128.472"/>
</g>
<!-- Node25 -->
<g id="node25" class="node"><title>Node25</title>
<polygon fill="white" stroke="#bfbfbf" points="764,-112.5 764,-131.5 829,-131.5 829,-112.5 764,-112.5"/>
<text text-anchor="middle" x="796.5" y="-119.5" font-family="Helvetica,sans-Serif" font-size="10.00">osg/Switch</text>
</g>
<!-- Node14&#45;&gt;Node25 -->
<g id="edge25" class="edge"><title>Node14&#45;&gt;Node25</title>
<path fill="none" stroke="midnightblue" d="M1430.29,-171.753C1421.68,-170.327 1412.87,-169.012 1404.5,-168 1157.56,-138.142 1089.97,-165.753 839.568,-131.926"/>
<polygon fill="midnightblue" stroke="midnightblue" points="839.816,-128.428 829.434,-130.538 838.866,-135.363 839.816,-128.428"/>
</g>
<!-- Node26 -->
<g id="node26" class="node"><title>Node26</title>
<polygon fill="white" stroke="#bfbfbf" points="847.5,-112.5 847.5,-131.5 929.5,-131.5 929.5,-112.5 847.5,-112.5"/>
<text text-anchor="middle" x="888.5" y="-119.5" font-family="Helvetica,sans-Serif" font-size="10.00">osg/ClearNode</text>
</g>
<!-- Node14&#45;&gt;Node26 -->
<g id="edge26" class="edge"><title>Node14&#45;&gt;Node26</title>
<path fill="none" stroke="midnightblue" d="M1430.28,-171.854C1421.67,-170.415 1412.86,-169.069 1404.5,-168 1201.67,-142.077 1146.26,-157.92 939.606,-132.012"/>
<polygon fill="midnightblue" stroke="midnightblue" points="940.011,-128.536 929.65,-130.747 939.129,-135.48 940.011,-128.536"/>
</g>
<!-- Node27 -->
<g id="node27" class="node"><title>Node27</title>
<polygon fill="white" stroke="#bfbfbf" points="948,-112.5 948,-131.5 1027,-131.5 1027,-112.5 948,-112.5"/>
<text text-anchor="middle" x="987.5" y="-119.5" font-family="Helvetica,sans-Serif" font-size="10.00">osg/LineWidth</text>
</g>
<!-- Node14&#45;&gt;Node27 -->
<g id="edge27" class="edge"><title>Node14&#45;&gt;Node27</title>
<path fill="none" stroke="midnightblue" d="M1430.26,-172.005C1421.65,-170.546 1412.85,-169.154 1404.5,-168 1244.89,-145.943 1200.94,-154.511 1036.98,-131.943"/>
<polygon fill="midnightblue" stroke="midnightblue" points="1037.42,-128.471 1027.03,-130.556 1036.45,-135.404 1037.42,-128.471"/>
</g>
<!-- Node28 -->
<g id="node28" class="node"><title>Node28</title>
<polygon fill="white" stroke="#bfbfbf" points="1045.5,-112.5 1045.5,-131.5 1127.5,-131.5 1127.5,-112.5 1045.5,-112.5"/>
<text text-anchor="middle" x="1086.5" y="-119.5" font-family="Helvetica,sans-Serif" font-size="10.00">osg/AlphaFunc</text>
</g>
<!-- Node14&#45;&gt;Node28 -->
<g id="edge28" class="edge"><title>Node14&#45;&gt;Node28</title>
<path fill="none" stroke="midnightblue" d="M1430.22,-172.272C1421.62,-170.777 1412.83,-169.304 1404.5,-168 1288.9,-149.897 1256.9,-150.598 1137.57,-132.107"/>
<polygon fill="midnightblue" stroke="midnightblue" points="1138.1,-128.647 1127.68,-130.562 1137.02,-135.564 1138.1,-128.647"/>
</g>
<!-- Node29 -->
<g id="node29" class="node"><title>Node29</title>
<polygon fill="white" stroke="#bfbfbf" points="1145.5,-112.5 1145.5,-131.5 1227.5,-131.5 1227.5,-112.5 1145.5,-112.5"/>
<text text-anchor="middle" x="1186.5" y="-119.5" font-family="Helvetica,sans-Serif" font-size="10.00">osg/BlendFunc</text>
</g>
<!-- Node14&#45;&gt;Node29 -->
<g id="edge29" class="edge"><title>Node14&#45;&gt;Node29</title>
<path fill="none" stroke="midnightblue" d="M1430.31,-171.517C1375.3,-160.571 1291.5,-143.896 1237.88,-133.224"/>
<polygon fill="midnightblue" stroke="midnightblue" points="1238.39,-129.758 1227.9,-131.238 1237.02,-136.623 1238.39,-129.758"/>
</g>
<!-- Node30 -->
<g id="node30" class="node"><title>Node30</title>
<polygon fill="white" stroke="#bfbfbf" points="1245.5,-112.5 1245.5,-131.5 1319.5,-131.5 1319.5,-112.5 1245.5,-112.5"/>
<text text-anchor="middle" x="1282.5" y="-119.5" font-family="Helvetica,sans-Serif" font-size="10.00">osg/StateSet</text>
</g>
<!-- Node14&#45;&gt;Node30 -->
<g id="edge30" class="edge"><title>Node14&#45;&gt;Node30</title>
<path fill="none" stroke="midnightblue" d="M1437.65,-168.475C1402.17,-158.075 1354.41,-144.078 1321.3,-134.372"/>
<polygon fill="midnightblue" stroke="midnightblue" points="1322.1,-130.96 1311.52,-131.506 1320.13,-137.678 1322.1,-130.96"/>
</g>
<!-- Node31 -->
<g id="node31" class="node"><title>Node31</title>
<polygon fill="white" stroke="#bfbfbf" points="1337.5,-112.5 1337.5,-131.5 1399.5,-131.5 1399.5,-112.5 1337.5,-112.5"/>
<text text-anchor="middle" x="1368.5" y="-119.5" font-family="Helvetica,sans-Serif" font-size="10.00">osg/Depth</text>
</g>
<!-- Node14&#45;&gt;Node31 -->
<g id="edge31" class="edge"><title>Node14&#45;&gt;Node31</title>
<path fill="none" stroke="midnightblue" d="M1457.77,-168.399C1438.67,-158.684 1413.44,-145.855 1394.68,-136.314"/>
<polygon fill="midnightblue" stroke="midnightblue" points="1396.02,-133.071 1385.52,-131.658 1392.85,-139.311 1396.02,-133.071"/>
</g>
<!-- Node32 -->
<g id="node32" class="node"><title>Node32</title>
<polygon fill="white" stroke="#bfbfbf" points="1418,-112.5 1418,-131.5 1477,-131.5 1477,-112.5 1418,-112.5"/>
<text text-anchor="middle" x="1447.5" y="-119.5" font-family="Helvetica,sans-Serif" font-size="10.00">osg/State</text>
</g>
<!-- Node14&#45;&gt;Node32 -->
<g id="edge32" class="edge"><title>Node14&#45;&gt;Node32</title>
<path fill="none" stroke="midnightblue" d="M1476.49,-168.399C1471.09,-159.932 1464.17,-149.099 1458.45,-140.139"/>
<polygon fill="midnightblue" stroke="midnightblue" points="1461.36,-138.202 1453.03,-131.658 1455.46,-141.97 1461.36,-138.202"/>
</g>
<!-- Node33 -->
<g id="node33" class="node"><title>Node33</title>
<polygon fill="white" stroke="#bfbfbf" points="1495.5,-112.5 1495.5,-131.5 1551.5,-131.5 1551.5,-112.5 1495.5,-112.5"/>
<text text-anchor="middle" x="1523.5" y="-119.5" font-family="Helvetica,sans-Serif" font-size="10.00">osg/Light</text>
</g>
<!-- Node14&#45;&gt;Node33 -->
<g id="edge33" class="edge"><title>Node14&#45;&gt;Node33</title>
<path fill="none" stroke="midnightblue" d="M1494.51,-168.399C1499.91,-159.932 1506.83,-149.099 1512.55,-140.139"/>
<polygon fill="midnightblue" stroke="midnightblue" points="1515.54,-141.97 1517.97,-131.658 1509.64,-138.202 1515.54,-141.97"/>
</g>
<!-- Node34 -->
<g id="node34" class="node"><title>Node34</title>
<polygon fill="white" stroke="#bfbfbf" points="1570,-112.5 1570,-131.5 1657,-131.5 1657,-112.5 1570,-112.5"/>
<text text-anchor="middle" x="1613.5" y="-119.5" font-family="Helvetica,sans-Serif" font-size="10.00">osg/LightSource</text>
</g>
<!-- Node14&#45;&gt;Node34 -->
<g id="edge34" class="edge"><title>Node14&#45;&gt;Node34</title>
<path fill="none" stroke="midnightblue" d="M1515.83,-168.399C1537.02,-158.55 1565.09,-145.501 1585.7,-135.922"/>
<polygon fill="midnightblue" stroke="midnightblue" points="1587.28,-139.047 1594.87,-131.658 1584.33,-132.699 1587.28,-139.047"/>
</g>
<!-- Node35 -->
<g id="node35" class="node"><title>Node35</title>
<polygon fill="white" stroke="#bfbfbf" points="1675.5,-112.5 1675.5,-131.5 1745.5,-131.5 1745.5,-112.5 1675.5,-112.5"/>
<text text-anchor="middle" x="1710.5" y="-119.5" font-family="Helvetica,sans-Serif" font-size="10.00">osg/Material</text>
</g>
<!-- Node14&#45;&gt;Node35 -->
<g id="edge35" class="edge"><title>Node14&#45;&gt;Node35</title>
<path fill="none" stroke="midnightblue" d="M1538.54,-168.475C1578.2,-157.986 1631.71,-143.837 1668.44,-134.122"/>
<polygon fill="midnightblue" stroke="midnightblue" points="1669.56,-137.447 1678.33,-131.506 1667.77,-130.679 1669.56,-137.447"/>
</g>
<!-- Node36 -->
<g id="node36" class="node"><title>Node36</title>
<polygon fill="white" stroke="#bfbfbf" points="1763.5,-112.5 1763.5,-131.5 1833.5,-131.5 1833.5,-112.5 1763.5,-112.5"/>
<text text-anchor="middle" x="1798.5" y="-119.5" font-family="Helvetica,sans-Serif" font-size="10.00">osg/Camera</text>
</g>
<!-- Node14&#45;&gt;Node36 -->
<g id="edge36" class="edge"><title>Node14&#45;&gt;Node36</title>
<path fill="none" stroke="midnightblue" d="M1540.79,-171.763C1547.43,-170.487 1554.12,-169.21 1560.5,-168 1643.55,-152.267 1666.77,-149.014 1753.43,-132.182"/>
<polygon fill="midnightblue" stroke="midnightblue" points="1754.3,-135.577 1763.45,-130.23 1752.96,-128.707 1754.3,-135.577"/>
</g>
<!-- Node37 -->
<g id="node37" class="node"><title>Node37</title>
<polygon fill="white" stroke="#bfbfbf" points="1851.5,-112.5 1851.5,-131.5 1925.5,-131.5 1925.5,-112.5 1851.5,-112.5"/>
<text text-anchor="middle" x="1888.5" y="-119.5" font-family="Helvetica,sans-Serif" font-size="10.00">osg/Viewport</text>
</g>
<!-- Node14&#45;&gt;Node37 -->
<g id="edge37" class="edge"><title>Node14&#45;&gt;Node37</title>
<path fill="none" stroke="midnightblue" d="M1540.72,-171.408C1547.38,-170.195 1554.08,-169.029 1560.5,-168 1682.09,-148.506 1716.05,-151.947 1841.4,-132.082"/>
<polygon fill="midnightblue" stroke="midnightblue" points="1842.06,-135.52 1851.38,-130.481 1840.95,-128.609 1842.06,-135.52"/>
</g>
<!-- Node38 -->
<g id="node38" class="node"><title>Node38</title>
<polygon fill="white" stroke="#bfbfbf" points="1943.5,-112.5 1943.5,-131.5 2061.5,-131.5 2061.5,-112.5 1943.5,-112.5"/>
<text text-anchor="middle" x="2002.5" y="-119.5" font-family="Helvetica,sans-Serif" font-size="10.00">osgViewer/ViewerBase</text>
</g>
<!-- Node14&#45;&gt;Node38 -->
<g id="edge39" class="edge"><title>Node14&#45;&gt;Node38</title>
<path fill="none" stroke="midnightblue" d="M1540.69,-171.213C1547.35,-170.034 1554.07,-168.929 1560.5,-168 1722.55,-144.59 1766.87,-150.703 1933.1,-132.119"/>
<polygon fill="midnightblue" stroke="midnightblue" points="1933.63,-135.58 1943.18,-130.978 1932.85,-128.624 1933.63,-135.58"/>
</g>
<!-- Node39 -->
<g id="node39" class="node"><title>Node39</title>
<polygon fill="white" stroke="#bfbfbf" points="2080,-112.5 2080,-131.5 2189,-131.5 2189,-112.5 2080,-112.5"/>
<text text-anchor="middle" x="2134.5" y="-119.5" font-family="Helvetica,sans-Serif" font-size="10.00">osg/GraphicsContext</text>
</g>
<!-- Node14&#45;&gt;Node39 -->
<g id="edge40" class="edge"><title>Node14&#45;&gt;Node39</title>
<path fill="none" stroke="midnightblue" d="M1540.67,-171.052C1547.33,-169.901 1554.06,-168.847 1560.5,-168 1782.49,-138.814 1842.77,-155.334 2069.49,-132.024"/>
<polygon fill="midnightblue" stroke="midnightblue" points="2070.14,-135.477 2079.72,-130.958 2069.41,-128.514 2070.14,-135.477"/>
</g>
<!-- Node40 -->
<g id="node40" class="node"><title>Node40</title>
<polygon fill="white" stroke="#bfbfbf" points="2207,-112.5 2207,-131.5 2302,-131.5 2302,-112.5 2207,-112.5"/>
<text text-anchor="middle" x="2254.5" y="-119.5" font-family="Helvetica,sans-Serif" font-size="10.00">osg/PolygonMode</text>
</g>
<!-- Node14&#45;&gt;Node40 -->
<g id="edge41" class="edge"><title>Node14&#45;&gt;Node40</title>
<path fill="none" stroke="midnightblue" d="M1540.66,-170.963C1547.32,-169.828 1554.05,-168.802 1560.5,-168 1839.03,-133.376 1914.39,-161.888 2196.75,-132.079"/>
<polygon fill="midnightblue" stroke="midnightblue" points="2197.32,-135.539 2206.89,-130.994 2196.57,-128.579 2197.32,-135.539"/>
</g>
<!-- Node41&#45;&gt;Node7 -->
<g id="edge46" class="edge"><title>Node41&#45;&gt;Node7</title>
<path fill="none" stroke="midnightblue" d="M1679.5,-235.396C1661.56,-224.395 1636.78,-209.2 1618.98,-198.282"/>
<polygon fill="midnightblue" stroke="midnightblue" points="1620.73,-195.251 1610.37,-193.007 1617.07,-201.218 1620.73,-195.251"/>
</g>
<!-- Node41&#45;&gt;Node8 -->
<g id="edge49" class="edge"><title>Node41&#45;&gt;Node8</title>
<path fill="none" stroke="midnightblue" d="M1715.09,-235.181C1734.24,-213.814 1770.28,-175.307 1787.5,-168 1884.03,-127.045 2626.02,-140.889 2730.5,-132 2731.8,-131.889 2733.12,-131.772 2734.44,-131.648"/>
<polygon fill="midnightblue" stroke="midnightblue" points="2735.14,-135.094 2744.73,-130.588 2734.42,-128.131 2735.14,-135.094"/>
</g>
<!-- Node41&#45;&gt;Node14 -->
<g id="edge50" class="edge"><title>Node41&#45;&gt;Node14</title>
<path fill="none" stroke="midnightblue" d="M1655.68,-235.476C1622.43,-225.515 1577.6,-212.086 1542.3,-201.512"/>
<polygon fill="midnightblue" stroke="midnightblue" points="1543.19,-198.128 1532.61,-198.611 1541.18,-204.833 1543.19,-198.128"/>
</g>
<!-- Node42 -->
<g id="node42" class="node"><title>Node42</title>
<polygon fill="white" stroke="#bfbfbf" points="1796,-174 1796,-193 1831,-193 1831,-174 1796,-174"/>
<text text-anchor="middle" x="1813.5" y="-181" font-family="Helvetica,sans-Serif" font-size="10.00">map</text>
</g>
<!-- Node41&#45;&gt;Node42 -->
<g id="edge45" class="edge"><title>Node41&#45;&gt;Node42</title>
<path fill="none" stroke="midnightblue" d="M1726.59,-235.396C1745.46,-224.344 1771.56,-209.061 1790.22,-198.132"/>
<polygon fill="midnightblue" stroke="midnightblue" points="1792.11,-201.081 1798.97,-193.007 1788.57,-195.04 1792.11,-201.081"/>
</g>
<!-- Node43 -->
<g id="node43" class="node"><title>Node43</title>
<polygon fill="white" stroke="#bfbfbf" points="1849.5,-174 1849.5,-193 1929.5,-193 1929.5,-174 1849.5,-174"/>
<text text-anchor="middle" x="1889.5" y="-181" font-family="Helvetica,sans-Serif" font-size="10.00">boost/bind.hpp</text>
</g>
<!-- Node41&#45;&gt;Node43 -->
<g id="edge47" class="edge"><title>Node41&#45;&gt;Node43</title>
<path fill="none" stroke="midnightblue" d="M1743.08,-235.396C1776.61,-223.739 1823.7,-207.373 1855.33,-196.376"/>
<polygon fill="midnightblue" stroke="midnightblue" points="1856.73,-199.596 1865.03,-193.007 1854.43,-192.984 1856.73,-199.596"/>
</g>
<!-- Node44 -->
<g id="node44" class="node"><title>Node44</title>
<polygon fill="white" stroke="#bfbfbf" points="1642,-174 1642,-193 1739,-193 1739,-174 1642,-174"/>
<text text-anchor="middle" x="1690.5" y="-181" font-family="Helvetica,sans-Serif" font-size="10.00">boost/function.hpp</text>
</g>
<!-- Node41&#45;&gt;Node44 -->
<g id="edge48" class="edge"><title>Node41&#45;&gt;Node44</title>
<path fill="none" stroke="midnightblue" d="M1699.9,-235.396C1698.15,-225.963 1695.84,-213.448 1693.95,-203.189"/>
<polygon fill="midnightblue" stroke="midnightblue" points="1697.36,-202.393 1692.11,-193.195 1690.48,-203.664 1697.36,-202.393"/>
</g>
</g>
</svg>
