<?xml version="1.0" encoding="UTF-8" standalone="no"?>
<!DOCTYPE svg PUBLIC "-//W3C//DTD SVG 1.1//EN"
 "http://www.w3.org/Graphics/SVG/1.1/DTD/svg11.dtd">
<!-- Generated by graphviz version 2.38.0 (20140413.2041)
 -->
<!-- Title: selection&#45;event.hh Pages: 1 -->
<svg width="3207pt" height="397pt"
 viewBox="0.00 0.00 3207.00 397.00" xmlns="http://www.w3.org/2000/svg" xmlns:xlink="http://www.w3.org/1999/xlink">
<g id="graph0" class="graph" transform="scale(1 1) rotate(0) translate(4 393)">
<title>selection&#45;event.hh</title>
<polygon fill="white" stroke="none" points="-4,4 -4,-393 3203,-393 3203,4 -4,4"/>
<!-- Node1 -->
<g id="node1" class="node"><title>Node1</title>
<polygon fill="#bfbfbf" stroke="black" points="1492,-369.5 1492,-388.5 1588,-388.5 1588,-369.5 1492,-369.5"/>
<text text-anchor="middle" x="1540" y="-376.5" font-family="Helvetica,sans-Serif" font-size="10.00">selection&#45;event.hh</text>
</g>
<!-- Node2 -->
<g id="node2" class="node"><title>Node2</title>
<polygon fill="white" stroke="#bfbfbf" points="1323,-313.5 1323,-332.5 1373,-332.5 1373,-313.5 1323,-313.5"/>
<text text-anchor="middle" x="1348" y="-320.5" font-family="Helvetica,sans-Serif" font-size="10.00">QString</text>
</g>
<!-- Node1&#45;&gt;Node2 -->
<g id="edge1" class="edge"><title>Node1&#45;&gt;Node2</title>
<path fill="none" stroke="midnightblue" d="M1509.58,-369.444C1475.07,-359.739 1418.92,-343.945 1382.72,-333.766"/>
<polygon fill="midnightblue" stroke="midnightblue" points="1383.65,-330.392 1373.08,-331.054 1381.76,-337.131 1383.65,-330.392"/>
</g>
<!-- Node3 -->
<g id="node3" class="node"><title>Node3</title>
<polygon fill="white" stroke="#bfbfbf" points="1391.5,-313.5 1391.5,-332.5 1456.5,-332.5 1456.5,-313.5 1391.5,-313.5"/>
<text text-anchor="middle" x="1424" y="-320.5" font-family="Helvetica,sans-Serif" font-size="10.00">QVector3D</text>
</g>
<!-- Node1&#45;&gt;Node3 -->
<g id="edge2" class="edge"><title>Node1&#45;&gt;Node3</title>
<path fill="none" stroke="midnightblue" d="M1521.62,-369.444C1502.78,-360.675 1473.27,-346.935 1451.62,-336.858"/>
<polygon fill="midnightblue" stroke="midnightblue" points="1452.84,-333.564 1442.29,-332.516 1449.88,-339.91 1452.84,-333.564"/>
</g>
<!-- Node4 -->
<g id="node4" class="node"><title>Node4</title>
<polygon fill="white" stroke="#bfbfbf" points="1474.5,-313.5 1474.5,-332.5 1527.5,-332.5 1527.5,-313.5 1474.5,-313.5"/>
<text text-anchor="middle" x="1501" y="-320.5" font-family="Helvetica,sans-Serif" font-size="10.00">QObject</text>
</g>
<!-- Node1&#45;&gt;Node4 -->
<g id="edge3" class="edge"><title>Node1&#45;&gt;Node4</title>
<path fill="none" stroke="midnightblue" d="M1533.56,-369.083C1528.05,-361.455 1519.97,-350.264 1513.24,-340.941"/>
<polygon fill="midnightblue" stroke="midnightblue" points="1516.01,-338.809 1507.32,-332.751 1510.34,-342.907 1516.01,-338.809"/>
</g>
<!-- Node5 -->
<g id="node5" class="node"><title>Node5</title>
<polygon fill="white" stroke="#bfbfbf" points="1546,-313.5 1546,-332.5 1612,-332.5 1612,-313.5 1546,-313.5"/>
<text text-anchor="middle" x="1579" y="-320.5" font-family="Helvetica,sans-Serif" font-size="10.00">QAtomicInt</text>
</g>
<!-- Node1&#45;&gt;Node5 -->
<g id="edge4" class="edge"><title>Node1&#45;&gt;Node5</title>
<path fill="none" stroke="midnightblue" d="M1546.44,-369.083C1551.95,-361.455 1560.03,-350.264 1566.76,-340.941"/>
<polygon fill="midnightblue" stroke="midnightblue" points="1569.66,-342.907 1572.68,-332.751 1563.99,-338.809 1569.66,-342.907"/>
</g>
<!-- Node6 -->
<g id="node6" class="node"><title>Node6</title>
<g id="a_node6"><a xlink:href="a00109.html" target="_top" xlink:title="gepetto/viewer/node.h">
<polygon fill="white" stroke="black" points="1630.5,-313.5 1630.5,-332.5 1743.5,-332.5 1743.5,-313.5 1630.5,-313.5"/>
<text text-anchor="middle" x="1687" y="-320.5" font-family="Helvetica,sans-Serif" font-size="10.00">gepetto/viewer/node.h</text>
</a>
</g>
</g>
<!-- Node1&#45;&gt;Node6 -->
<g id="edge5" class="edge"><title>Node1&#45;&gt;Node6</title>
<path fill="none" stroke="midnightblue" d="M1563.29,-369.444C1587.81,-360.438 1626.6,-346.189 1654.2,-336.049"/>
<polygon fill="midnightblue" stroke="midnightblue" points="1655.64,-339.25 1663.82,-332.516 1653.22,-332.679 1655.64,-339.25"/>
</g>
<!-- Node46 -->
<g id="node46" class="node"><title>Node46</title>
<g id="a_node46"><a xlink:href="a00085.html" target="_top" xlink:title="gepetto/gui/fwd.hh">
<polygon fill="white" stroke="black" points="2888.5,-185 2888.5,-204 2985.5,-204 2985.5,-185 2888.5,-185"/>
<text text-anchor="middle" x="2937" y="-192" font-family="Helvetica,sans-Serif" font-size="10.00">gepetto/gui/fwd.hh</text>
</a>
</g>
</g>
<!-- Node1&#45;&gt;Node46 -->
<g id="edge52" class="edge"><title>Node1&#45;&gt;Node46</title>
<path fill="none" stroke="midnightblue" d="M1588.09,-371.718C1799.54,-344.094 2646.46,-233.456 2878.15,-203.188"/>
<polygon fill="midnightblue" stroke="midnightblue" points="2878.93,-206.616 2888.39,-201.85 2878.02,-199.675 2878.93,-206.616"/>
</g>
<!-- Node7 -->
<g id="node7" class="node"><title>Node7</title>
<polygon fill="white" stroke="#bfbfbf" points="1450,-185 1450,-204 1504,-204 1504,-185 1450,-185"/>
<text text-anchor="middle" x="1477" y="-192" font-family="Helvetica,sans-Serif" font-size="10.00">iostream</text>
</g>
<!-- Node6&#45;&gt;Node7 -->
<g id="edge6" class="edge"><title>Node6&#45;&gt;Node7</title>
<path fill="none" stroke="midnightblue" d="M1630.23,-313.861C1584.23,-306.208 1524.17,-293.472 1506,-277 1488.12,-260.797 1481.26,-232.833 1478.63,-214.251"/>
<polygon fill="midnightblue" stroke="midnightblue" points="1482.08,-213.625 1477.48,-204.083 1475.13,-214.413 1482.08,-213.625"/>
</g>
<!-- Node8 -->
<g id="node8" class="node"><title>Node8</title>
<g id="a_node8"><a xlink:href="a00084.html" target="_top" xlink:title="gepetto/viewer/fwd.h">
<polygon fill="white" stroke="black" points="2745.5,-118 2745.5,-137 2852.5,-137 2852.5,-118 2745.5,-118"/>
<text text-anchor="middle" x="2799" y="-125" font-family="Helvetica,sans-Serif" font-size="10.00">gepetto/viewer/fwd.h</text>
</a>
</g>
</g>
<!-- Node6&#45;&gt;Node8 -->
<g id="edge7" class="edge"><title>Node6&#45;&gt;Node8</title>
<path fill="none" stroke="midnightblue" d="M1741.2,-313.497C1896.02,-289.04 2353.35,-215.609 2731,-143 2737.22,-141.803 2743.75,-140.488 2750.2,-139.152"/>
<polygon fill="midnightblue" stroke="midnightblue" points="2751.15,-142.53 2760.22,-137.052 2749.71,-135.679 2751.15,-142.53"/>
</g>
<!-- Node13 -->
<g id="node13" class="node"><title>Node13</title>
<g id="a_node13"><a xlink:href="a00108.html" target="_top" xlink:title="gepetto/viewer/node\l&#45;visitor.h">
<polygon fill="white" stroke="black" points="1515,-246.5 1515,-276.5 1619,-276.5 1619,-246.5 1515,-246.5"/>
<text text-anchor="start" x="1523" y="-264.5" font-family="Helvetica,sans-Serif" font-size="10.00">gepetto/viewer/node</text>
<text text-anchor="middle" x="1567" y="-253.5" font-family="Helvetica,sans-Serif" font-size="10.00">&#45;visitor.h</text>
</a>
</g>
</g>
<!-- Node6&#45;&gt;Node13 -->
<g id="edge12" class="edge"><title>Node6&#45;&gt;Node13</title>
<path fill="none" stroke="midnightblue" d="M1669.81,-313.475C1652.8,-305.04 1626.2,-291.855 1604.33,-281.008"/>
<polygon fill="midnightblue" stroke="midnightblue" points="1605.8,-277.83 1595.28,-276.523 1602.69,-284.101 1605.8,-277.83"/>
</g>
<!-- Node14 -->
<g id="node14" class="node"><title>Node14</title>
<g id="a_node14"><a xlink:href="a00080.html" target="_top" xlink:title="gepetto/viewer/config\l&#45;osg.h">
<polygon fill="white" stroke="black" points="1522,-179.5 1522,-209.5 1632,-209.5 1632,-179.5 1522,-179.5"/>
<text text-anchor="start" x="1530" y="-197.5" font-family="Helvetica,sans-Serif" font-size="10.00">gepetto/viewer/config</text>
<text text-anchor="middle" x="1577" y="-186.5" font-family="Helvetica,sans-Serif" font-size="10.00">&#45;osg.h</text>
</a>
</g>
</g>
<!-- Node6&#45;&gt;Node14 -->
<g id="edge51" class="edge"><title>Node6&#45;&gt;Node14</title>
<path fill="none" stroke="midnightblue" d="M1680.8,-313.276C1670.42,-298.835 1648.61,-269.25 1628,-246 1619.09,-235.947 1608.64,-225.404 1599.53,-216.568"/>
<polygon fill="midnightblue" stroke="midnightblue" points="1601.89,-213.986 1592.25,-209.595 1597.05,-219.041 1601.89,-213.986"/>
</g>
<!-- Node42 -->
<g id="node42" class="node"><title>Node42</title>
<g id="a_node42"><a xlink:href="a00106.html" target="_top" xlink:title="gepetto/viewer/node\l&#45;property.h">
<polygon fill="white" stroke="black" points="1675,-246.5 1675,-276.5 1779,-276.5 1779,-246.5 1675,-246.5"/>
<text text-anchor="start" x="1683" y="-264.5" font-family="Helvetica,sans-Serif" font-size="10.00">gepetto/viewer/node</text>
<text text-anchor="middle" x="1727" y="-253.5" font-family="Helvetica,sans-Serif" font-size="10.00">&#45;property.h</text>
</a>
</g>
</g>
<!-- Node6&#45;&gt;Node42 -->
<g id="edge44" class="edge"><title>Node6&#45;&gt;Node42</title>
<path fill="none" stroke="midnightblue" d="M1692.73,-313.475C1697.74,-306.019 1705.25,-294.852 1711.96,-284.869"/>
<polygon fill="midnightblue" stroke="midnightblue" points="1714.9,-286.775 1717.57,-276.523 1709.09,-282.869 1714.9,-286.775"/>
</g>
<!-- Node9 -->
<g id="node9" class="node"><title>Node9</title>
<g id="a_node9"><a xlink:href="a00102.html" target="_top" xlink:title="gepetto/viewer/macros.h">
<polygon fill="white" stroke="black" points="2737,-56.5 2737,-75.5 2861,-75.5 2861,-56.5 2737,-56.5"/>
<text text-anchor="middle" x="2799" y="-63.5" font-family="Helvetica,sans-Serif" font-size="10.00">gepetto/viewer/macros.h</text>
</a>
</g>
</g>
<!-- Node8&#45;&gt;Node9 -->
<g id="edge8" class="edge"><title>Node8&#45;&gt;Node9</title>
<path fill="none" stroke="midnightblue" d="M2799,-117.975C2799,-109.58 2799,-96.4806 2799,-85.6631"/>
<polygon fill="midnightblue" stroke="midnightblue" points="2802.5,-85.5091 2799,-75.5091 2795.5,-85.5091 2802.5,-85.5091"/>
</g>
<!-- Node10 -->
<g id="node10" class="node"><title>Node10</title>
<polygon fill="white" stroke="#bfbfbf" points="2622,-0.5 2622,-19.5 2730,-19.5 2730,-0.5 2622,-0.5"/>
<text text-anchor="middle" x="2676" y="-7.5" font-family="Helvetica,sans-Serif" font-size="10.00">boost/shared_ptr.hpp</text>
</g>
<!-- Node9&#45;&gt;Node10 -->
<g id="edge9" class="edge"><title>Node9&#45;&gt;Node10</title>
<path fill="none" stroke="midnightblue" d="M2779.51,-56.4435C2759.36,-47.5961 2727.68,-33.6875 2704.67,-23.5865"/>
<polygon fill="midnightblue" stroke="midnightblue" points="2705.96,-20.3316 2695.4,-19.5164 2703.15,-26.7411 2705.96,-20.3316"/>
</g>
<!-- Node11 -->
<g id="node11" class="node"><title>Node11</title>
<polygon fill="white" stroke="#bfbfbf" points="2748,-0.5 2748,-19.5 2850,-19.5 2850,-0.5 2748,-0.5"/>
<text text-anchor="middle" x="2799" y="-7.5" font-family="Helvetica,sans-Serif" font-size="10.00">boost/weak_ptr.hpp</text>
</g>
<!-- Node9&#45;&gt;Node11 -->
<g id="edge10" class="edge"><title>Node9&#45;&gt;Node11</title>
<path fill="none" stroke="midnightblue" d="M2799,-56.083C2799,-49.0059 2799,-38.8611 2799,-29.9865"/>
<polygon fill="midnightblue" stroke="midnightblue" points="2802.5,-29.751 2799,-19.7511 2795.5,-29.7511 2802.5,-29.751"/>
</g>
<!-- Node12 -->
<g id="node12" class="node"><title>Node12</title>
<polygon fill="white" stroke="#bfbfbf" points="2868.5,-0.5 2868.5,-19.5 2931.5,-19.5 2931.5,-0.5 2868.5,-0.5"/>
<text text-anchor="middle" x="2900" y="-7.5" font-family="Helvetica,sans-Serif" font-size="10.00">osg/ref_ptr</text>
</g>
<!-- Node9&#45;&gt;Node12 -->
<g id="edge11" class="edge"><title>Node9&#45;&gt;Node12</title>
<path fill="none" stroke="midnightblue" d="M2815.23,-56.324C2831.35,-47.7034 2856.3,-34.3643 2874.96,-24.3855"/>
<polygon fill="midnightblue" stroke="midnightblue" points="2876.64,-27.456 2883.81,-19.6545 2873.34,-21.283 2876.64,-27.456"/>
</g>
<!-- Node13&#45;&gt;Node7 -->
<g id="edge13" class="edge"><title>Node13&#45;&gt;Node7</title>
<path fill="none" stroke="midnightblue" d="M1547.47,-246.396C1532.52,-235.597 1511.97,-220.756 1496.92,-209.887"/>
<polygon fill="midnightblue" stroke="midnightblue" points="1498.93,-207.025 1488.78,-204.007 1494.84,-212.699 1498.93,-207.025"/>
</g>
<!-- Node13&#45;&gt;Node14 -->
<g id="edge14" class="edge"><title>Node13&#45;&gt;Node14</title>
<path fill="none" stroke="midnightblue" d="M1569.17,-246.396C1570.38,-238.56 1571.91,-228.596 1573.3,-219.565"/>
<polygon fill="midnightblue" stroke="midnightblue" points="1576.77,-219.992 1574.83,-209.577 1569.85,-218.928 1576.77,-219.992"/>
</g>
<!-- Node14&#45;&gt;Node8 -->
<g id="edge42" class="edge"><title>Node14&#45;&gt;Node8</title>
<path fill="none" stroke="midnightblue" d="M1632.04,-180.333C1635.06,-179.829 1638.06,-179.378 1641,-179 2121.75,-117.171 2249.87,-201.772 2731,-143 2738.66,-142.064 2746.74,-140.69 2754.55,-139.156"/>
<polygon fill="midnightblue" stroke="midnightblue" points="2755.53,-142.529 2764.61,-137.07 2754.1,-135.675 2755.53,-142.529"/>
</g>
<!-- Node14&#45;&gt;Node9 -->
<g id="edge43" class="edge"><title>Node14&#45;&gt;Node9</title>
<path fill="none" stroke="midnightblue" d="M1632.04,-180.337C1635.06,-179.831 1638.06,-179.379 1641,-179 1757.54,-163.95 2587.99,-184.305 2698,-143 2718.41,-135.339 2718.68,-125.23 2736,-112 2749.75,-101.496 2765.61,-90.175 2777.97,-81.5161"/>
<polygon fill="midnightblue" stroke="midnightblue" points="2780.07,-84.3186 2786.28,-75.7312 2776.07,-78.5745 2780.07,-84.3186"/>
</g>
<!-- Node15 -->
<g id="node15" class="node"><title>Node15</title>
<polygon fill="white" stroke="#bfbfbf" points="1097,-118 1097,-137 1165,-137 1165,-118 1097,-118"/>
<text text-anchor="middle" x="1131" y="-125" font-family="Helvetica,sans-Serif" font-size="10.00">QMetaType</text>
</g>
<!-- Node14&#45;&gt;Node15 -->
<g id="edge15" class="edge"><title>Node14&#45;&gt;Node15</title>
<path fill="none" stroke="midnightblue" d="M1521.92,-180.592C1518.91,-180.02 1515.92,-179.484 1513,-179 1363.53,-154.218 1322.01,-175.402 1174,-143 1170.51,-142.236 1166.9,-141.287 1163.33,-140.242"/>
<polygon fill="midnightblue" stroke="midnightblue" points="1164.09,-136.81 1153.5,-137.122 1161.97,-143.483 1164.09,-136.81"/>
</g>
<!-- Node16 -->
<g id="node16" class="node"><title>Node16</title>
<polygon fill="white" stroke="#bfbfbf" points="1183.5,-118 1183.5,-137 1246.5,-137 1246.5,-118 1183.5,-118"/>
<text text-anchor="middle" x="1215" y="-125" font-family="Helvetica,sans-Serif" font-size="10.00">osg/Shape</text>
</g>
<!-- Node14&#45;&gt;Node16 -->
<g id="edge16" class="edge"><title>Node14&#45;&gt;Node16</title>
<path fill="none" stroke="midnightblue" d="M1521.9,-180.709C1518.9,-180.108 1515.91,-179.533 1513,-179 1399.55,-158.239 1368.04,-170.366 1256,-143 1252.77,-142.212 1249.44,-141.266 1246.14,-140.241"/>
<polygon fill="midnightblue" stroke="midnightblue" points="1247.05,-136.854 1236.46,-137.001 1244.83,-143.492 1247.05,-136.854"/>
</g>
<!-- Node17 -->
<g id="node17" class="node"><title>Node17</title>
<polygon fill="white" stroke="#bfbfbf" points="1265,-118 1265,-137 1369,-137 1369,-118 1265,-118"/>
<text text-anchor="middle" x="1317" y="-125" font-family="Helvetica,sans-Serif" font-size="10.00">osg/ShapeDrawable</text>
</g>
<!-- Node14&#45;&gt;Node17 -->
<g id="edge17" class="edge"><title>Node14&#45;&gt;Node17</title>
<path fill="none" stroke="midnightblue" d="M1521.86,-179.715C1474.01,-167.753 1405.64,-150.659 1361.28,-139.57"/>
<polygon fill="midnightblue" stroke="midnightblue" points="1361.93,-136.124 1351.38,-137.094 1360.23,-142.915 1361.93,-136.124"/>
</g>
<!-- Node18 -->
<g id="node18" class="node"><title>Node18</title>
<polygon fill="white" stroke="#bfbfbf" points="1387,-118 1387,-137 1465,-137 1465,-118 1387,-118"/>
<text text-anchor="middle" x="1426" y="-125" font-family="Helvetica,sans-Serif" font-size="10.00">osg/Geometry</text>
</g>
<!-- Node14&#45;&gt;Node18 -->
<g id="edge18" class="edge"><title>Node14&#45;&gt;Node18</title>
<path fill="none" stroke="midnightblue" d="M1544.24,-179.396C1517.74,-167.991 1480.78,-152.079 1455.27,-141.098"/>
<polygon fill="midnightblue" stroke="midnightblue" points="1456.33,-137.746 1445.76,-137.007 1453.56,-144.176 1456.33,-137.746"/>
</g>
<!-- Node19 -->
<g id="node19" class="node"><title>Node19</title>
<polygon fill="white" stroke="#bfbfbf" points="1483,-118 1483,-137 1547,-137 1547,-118 1483,-118"/>
<text text-anchor="middle" x="1515" y="-125" font-family="Helvetica,sans-Serif" font-size="10.00">osg/Geode</text>
</g>
<!-- Node14&#45;&gt;Node19 -->
<g id="edge19" class="edge"><title>Node14&#45;&gt;Node19</title>
<path fill="none" stroke="midnightblue" d="M1563.55,-179.396C1553.78,-169.161 1540.56,-155.296 1530.38,-144.622"/>
<polygon fill="midnightblue" stroke="midnightblue" points="1532.73,-142.015 1523.29,-137.195 1527.66,-146.846 1532.73,-142.015"/>
</g>
<!-- Node20 -->
<g id="node20" class="node"><title>Node20</title>
<polygon fill="white" stroke="#bfbfbf" points="1564.5,-118 1564.5,-137 1713.5,-137 1713.5,-118 1564.5,-118"/>
<text text-anchor="middle" x="1639" y="-125" font-family="Helvetica,sans-Serif" font-size="10.00">osg/PositionAttitudeTransform</text>
</g>
<!-- Node14&#45;&gt;Node20 -->
<g id="edge20" class="edge"><title>Node14&#45;&gt;Node20</title>
<path fill="none" stroke="midnightblue" d="M1590.45,-179.396C1600.22,-169.161 1613.44,-155.296 1623.62,-144.622"/>
<polygon fill="midnightblue" stroke="midnightblue" points="1626.34,-146.846 1630.71,-137.195 1621.27,-142.015 1626.34,-146.846"/>
</g>
<!-- Node21 -->
<g id="node21" class="node"><title>Node21</title>
<polygon fill="white" stroke="#bfbfbf" points="1732,-118 1732,-137 1832,-137 1832,-118 1732,-118"/>
<text text-anchor="middle" x="1782" y="-125" font-family="Helvetica,sans-Serif" font-size="10.00">osg/AutoTransform</text>
</g>
<!-- Node14&#45;&gt;Node21 -->
<g id="edge21" class="edge"><title>Node14&#45;&gt;Node21</title>
<path fill="none" stroke="midnightblue" d="M1621.23,-179.476C1658.3,-167.723 1710.59,-151.143 1745.35,-140.12"/>
<polygon fill="midnightblue" stroke="midnightblue" points="1746.63,-143.387 1755.1,-137.029 1744.51,-136.715 1746.63,-143.387"/>
</g>
<!-- Node22 -->
<g id="node22" class="node"><title>Node22</title>
<polygon fill="white" stroke="#bfbfbf" points="1850.5,-118 1850.5,-137 1957.5,-137 1957.5,-118 1850.5,-118"/>
<text text-anchor="middle" x="1904" y="-125" font-family="Helvetica,sans-Serif" font-size="10.00">osg/MatrixTransform</text>
</g>
<!-- Node14&#45;&gt;Node22 -->
<g id="edge22" class="edge"><title>Node14&#45;&gt;Node22</title>
<path fill="none" stroke="midnightblue" d="M1632.12,-180.847C1635.12,-180.209 1638.1,-179.59 1641,-179 1729.51,-161.017 1752.52,-161.134 1841,-143 1846.71,-141.831 1852.69,-140.54 1858.6,-139.224"/>
<polygon fill="midnightblue" stroke="midnightblue" points="1859.43,-142.624 1868.42,-137.005 1857.89,-135.796 1859.43,-142.624"/>
</g>
<!-- Node23 -->
<g id="node23" class="node"><title>Node23</title>
<polygon fill="white" stroke="#bfbfbf" points="1975.5,-118 1975.5,-137 2034.5,-137 2034.5,-118 1975.5,-118"/>
<text text-anchor="middle" x="2005" y="-125" font-family="Helvetica,sans-Serif" font-size="10.00">osg/Node</text>
</g>
<!-- Node14&#45;&gt;Node23 -->
<g id="edge23" class="edge"><title>Node14&#45;&gt;Node23</title>
<path fill="none" stroke="midnightblue" d="M1632.08,-180.608C1635.09,-180.032 1638.08,-179.491 1641,-179 1784.32,-154.906 1824.6,-176.575 1966,-143 1969,-142.289 1972.08,-141.412 1975.13,-140.445"/>
<polygon fill="midnightblue" stroke="midnightblue" points="1976.35,-143.726 1984.65,-137.14 1974.05,-137.113 1976.35,-143.726"/>
</g>
<!-- Node24 -->
<g id="node24" class="node"><title>Node24</title>
<polygon fill="white" stroke="#bfbfbf" points="2053,-118 2053,-137 2115,-137 2115,-118 2053,-118"/>
<text text-anchor="middle" x="2084" y="-125" font-family="Helvetica,sans-Serif" font-size="10.00">osg/Group</text>
</g>
<!-- Node14&#45;&gt;Node24 -->
<g id="edge24" class="edge"><title>Node14&#45;&gt;Node24</title>
<path fill="none" stroke="midnightblue" d="M1632.07,-180.533C1635.08,-179.977 1638.07,-179.46 1641,-179 1818.2,-151.12 1867.73,-181.204 2043,-143 2046.42,-142.254 2049.95,-141.302 2053.44,-140.243"/>
<polygon fill="midnightblue" stroke="midnightblue" points="2054.63,-143.535 2063.01,-137.058 2052.42,-136.893 2054.63,-143.535"/>
</g>
<!-- Node25 -->
<g id="node25" class="node"><title>Node25</title>
<polygon fill="white" stroke="#bfbfbf" points="2133.5,-118 2133.5,-137 2198.5,-137 2198.5,-118 2133.5,-118"/>
<text text-anchor="middle" x="2166" y="-125" font-family="Helvetica,sans-Serif" font-size="10.00">osg/Switch</text>
</g>
<!-- Node14&#45;&gt;Node25 -->
<g id="edge25" class="edge"><title>Node14&#45;&gt;Node25</title>
<path fill="none" stroke="midnightblue" d="M1632.06,-180.48C1635.08,-179.938 1638.07,-179.439 1641,-179 1853.89,-147.13 1913.18,-186.485 2124,-143 2127.51,-142.277 2131.12,-141.339 2134.69,-140.289"/>
<polygon fill="midnightblue" stroke="midnightblue" points="2136.06,-143.524 2144.5,-137.115 2133.91,-136.864 2136.06,-143.524"/>
</g>
<!-- Node26 -->
<g id="node26" class="node"><title>Node26</title>
<polygon fill="white" stroke="#bfbfbf" points="2217,-118 2217,-137 2299,-137 2299,-118 2217,-118"/>
<text text-anchor="middle" x="2258" y="-125" font-family="Helvetica,sans-Serif" font-size="10.00">osg/ClearNode</text>
</g>
<!-- Node14&#45;&gt;Node26 -->
<g id="edge26" class="edge"><title>Node14&#45;&gt;Node26</title>
<path fill="none" stroke="midnightblue" d="M1632.05,-180.442C1635.07,-179.909 1638.07,-179.423 1641,-179 1890.49,-143.038 1958.58,-185.71 2207,-143 2211.9,-142.157 2217.01,-141.024 2222.01,-139.761"/>
<polygon fill="midnightblue" stroke="midnightblue" points="2223.31,-143.036 2232.04,-137.037 2221.47,-136.281 2223.31,-143.036"/>
</g>
<!-- Node27 -->
<g id="node27" class="node"><title>Node27</title>
<polygon fill="white" stroke="#bfbfbf" points="2317.5,-118 2317.5,-137 2396.5,-137 2396.5,-118 2317.5,-118"/>
<text text-anchor="middle" x="2357" y="-125" font-family="Helvetica,sans-Serif" font-size="10.00">osg/LineWidth</text>
</g>
<!-- Node14&#45;&gt;Node27 -->
<g id="edge27" class="edge"><title>Node14&#45;&gt;Node27</title>
<path fill="none" stroke="midnightblue" d="M1632.05,-180.408C1635.07,-179.884 1638.07,-179.409 1641,-179 1935.04,-138.055 2015.44,-193.464 2308,-143 2312.78,-142.176 2317.74,-141.044 2322.61,-139.772"/>
<polygon fill="midnightblue" stroke="midnightblue" points="2323.67,-143.109 2332.34,-137.02 2321.76,-136.373 2323.67,-143.109"/>
</g>
<!-- Node28 -->
<g id="node28" class="node"><title>Node28</title>
<polygon fill="white" stroke="#bfbfbf" points="2415,-118 2415,-137 2497,-137 2497,-118 2415,-118"/>
<text text-anchor="middle" x="2456" y="-125" font-family="Helvetica,sans-Serif" font-size="10.00">osg/AlphaFunc</text>
</g>
<!-- Node14&#45;&gt;Node28 -->
<g id="edge28" class="edge"><title>Node14&#45;&gt;Node28</title>
<path fill="none" stroke="midnightblue" d="M1632.05,-180.383C1635.07,-179.866 1638.06,-179.399 1641,-179 1977.84,-133.267 2069.52,-197.844 2405,-143 2410.09,-142.167 2415.4,-141.004 2420.59,-139.695"/>
<polygon fill="midnightblue" stroke="midnightblue" points="2421.59,-143.05 2430.32,-137.046 2419.75,-136.296 2421.59,-143.05"/>
</g>
<!-- Node29 -->
<g id="node29" class="node"><title>Node29</title>
<polygon fill="white" stroke="#bfbfbf" points="2515,-118 2515,-137 2597,-137 2597,-118 2515,-118"/>
<text text-anchor="middle" x="2556" y="-125" font-family="Helvetica,sans-Serif" font-size="10.00">osg/BlendFunc</text>
</g>
<!-- Node14&#45;&gt;Node29 -->
<g id="edge29" class="edge"><title>Node14&#45;&gt;Node29</title>
<path fill="none" stroke="midnightblue" d="M1632.04,-180.364C1635.06,-179.851 1638.06,-179.39 1641,-179 2022.42,-128.281 2126.26,-205.034 2506,-143 2510.93,-142.195 2516.05,-141.063 2521.06,-139.782"/>
<polygon fill="midnightblue" stroke="midnightblue" points="2522.39,-143.047 2531.09,-137.001 2520.52,-136.302 2522.39,-143.047"/>
</g>
<!-- Node30 -->
<g id="node30" class="node"><title>Node30</title>
<polygon fill="white" stroke="#bfbfbf" points="2615,-118 2615,-137 2689,-137 2689,-118 2615,-118"/>
<text text-anchor="middle" x="2652" y="-125" font-family="Helvetica,sans-Serif" font-size="10.00">osg/StateSet</text>
</g>
<!-- Node14&#45;&gt;Node30 -->
<g id="edge30" class="edge"><title>Node14&#45;&gt;Node30</title>
<path fill="none" stroke="midnightblue" d="M1632.04,-180.348C1635.06,-179.84 1638.06,-179.384 1641,-179 2066.56,-123.344 2183.1,-216.171 2606,-143 2610.27,-142.261 2614.69,-141.229 2619.03,-140.051"/>
<polygon fill="midnightblue" stroke="midnightblue" points="2620.31,-143.321 2628.9,-137.111 2618.32,-136.613 2620.31,-143.321"/>
</g>
<!-- Node31 -->
<g id="node31" class="node"><title>Node31</title>
<polygon fill="white" stroke="#bfbfbf" points="0,-118 0,-137 62,-137 62,-118 0,-118"/>
<text text-anchor="middle" x="31" y="-125" font-family="Helvetica,sans-Serif" font-size="10.00">osg/Depth</text>
</g>
<!-- Node14&#45;&gt;Node31 -->
<g id="edge31" class="edge"><title>Node14&#45;&gt;Node31</title>
<path fill="none" stroke="midnightblue" d="M1521.96,-180.305C1518.94,-179.807 1515.94,-179.366 1513,-179 1194.91,-139.392 385.994,-202.393 71,-143 67.4818,-142.337 63.8619,-141.405 60.305,-140.33"/>
<polygon fill="midnightblue" stroke="midnightblue" points="61.1786,-136.93 50.5842,-137.025 58.9256,-143.558 61.1786,-136.93"/>
</g>
<!-- Node32 -->
<g id="node32" class="node"><title>Node32</title>
<polygon fill="white" stroke="#bfbfbf" points="80.5,-118 80.5,-137 139.5,-137 139.5,-118 80.5,-118"/>
<text text-anchor="middle" x="110" y="-125" font-family="Helvetica,sans-Serif" font-size="10.00">osg/State</text>
</g>
<!-- Node14&#45;&gt;Node32 -->
<g id="edge32" class="edge"><title>Node14&#45;&gt;Node32</title>
<path fill="none" stroke="midnightblue" d="M1521.96,-180.31C1518.94,-179.811 1515.94,-179.368 1513,-179 1212.13,-141.319 446.693,-200.614 149,-143 145.563,-142.335 142.029,-141.402 138.558,-140.326"/>
<polygon fill="midnightblue" stroke="midnightblue" points="139.673,-137.008 129.078,-137.021 137.368,-143.618 139.673,-137.008"/>
</g>
<!-- Node33 -->
<g id="node33" class="node"><title>Node33</title>
<polygon fill="white" stroke="#bfbfbf" points="158,-118 158,-137 214,-137 214,-118 158,-118"/>
<text text-anchor="middle" x="186" y="-125" font-family="Helvetica,sans-Serif" font-size="10.00">osg/Light</text>
</g>
<!-- Node14&#45;&gt;Node33 -->
<g id="edge33" class="edge"><title>Node14&#45;&gt;Node33</title>
<path fill="none" stroke="midnightblue" d="M1521.96,-180.315C1518.94,-179.815 1515.94,-179.37 1513,-179 1228.47,-143.146 504.022,-200.17 223,-143 219.922,-142.374 216.768,-141.512 213.663,-140.517"/>
<polygon fill="midnightblue" stroke="midnightblue" points="214.657,-137.154 204.063,-137.018 212.259,-143.731 214.657,-137.154"/>
</g>
<!-- Node34 -->
<g id="node34" class="node"><title>Node34</title>
<polygon fill="white" stroke="#bfbfbf" points="232.5,-118 232.5,-137 319.5,-137 319.5,-118 232.5,-118"/>
<text text-anchor="middle" x="276" y="-125" font-family="Helvetica,sans-Serif" font-size="10.00">osg/LightSource</text>
</g>
<!-- Node14&#45;&gt;Node34 -->
<g id="edge34" class="edge"><title>Node14&#45;&gt;Node34</title>
<path fill="none" stroke="midnightblue" d="M1521.96,-180.324C1518.94,-179.822 1515.94,-179.374 1513,-179 990.748,-112.528 849.654,-221.009 329,-143 323.516,-142.178 317.791,-140.982 312.215,-139.624"/>
<polygon fill="midnightblue" stroke="midnightblue" points="312.989,-136.209 302.427,-137.051 311.208,-142.979 312.989,-136.209"/>
</g>
<!-- Node35 -->
<g id="node35" class="node"><title>Node35</title>
<polygon fill="white" stroke="#bfbfbf" points="338,-118 338,-137 408,-137 408,-118 338,-118"/>
<text text-anchor="middle" x="373" y="-125" font-family="Helvetica,sans-Serif" font-size="10.00">osg/Material</text>
</g>
<!-- Node14&#45;&gt;Node35 -->
<g id="edge35" class="edge"><title>Node14&#45;&gt;Node35</title>
<path fill="none" stroke="midnightblue" d="M1521.96,-180.333C1518.94,-179.828 1515.94,-179.378 1513,-179 1029.6,-116.874 896.88,-228.137 417,-143 413.016,-142.293 408.898,-141.304 404.853,-140.171"/>
<polygon fill="midnightblue" stroke="midnightblue" points="405.654,-136.755 395.066,-137.137 403.581,-143.441 405.654,-136.755"/>
</g>
<!-- Node36 -->
<g id="node36" class="node"><title>Node36</title>
<polygon fill="white" stroke="#bfbfbf" points="426,-118 426,-137 496,-137 496,-118 426,-118"/>
<text text-anchor="middle" x="461" y="-125" font-family="Helvetica,sans-Serif" font-size="10.00">osg/Camera</text>
</g>
<!-- Node14&#45;&gt;Node36 -->
<g id="edge36" class="edge"><title>Node14&#45;&gt;Node36</title>
<path fill="none" stroke="midnightblue" d="M1521.96,-180.343C1518.94,-179.836 1515.94,-179.382 1513,-179 1068.45,-121.22 946.28,-221.941 505,-143 501.017,-142.287 496.899,-141.295 492.855,-140.16"/>
<polygon fill="midnightblue" stroke="midnightblue" points="493.657,-136.744 483.069,-137.124 491.582,-143.43 493.657,-136.744"/>
</g>
<!-- Node37 -->
<g id="node37" class="node"><title>Node37</title>
<polygon fill="white" stroke="#bfbfbf" points="514,-118 514,-137 588,-137 588,-118 514,-118"/>
<text text-anchor="middle" x="551" y="-125" font-family="Helvetica,sans-Serif" font-size="10.00">osg/Viewport</text>
</g>
<!-- Node14&#45;&gt;Node37 -->
<g id="edge37" class="edge"><title>Node14&#45;&gt;Node37</title>
<path fill="none" stroke="midnightblue" d="M1521.96,-180.356C1518.94,-179.845 1515.94,-179.387 1513,-179 1109.07,-125.763 998.391,-212.861 597,-143 592.731,-142.257 588.308,-141.222 583.968,-140.043"/>
<polygon fill="midnightblue" stroke="midnightblue" points="584.686,-136.605 574.103,-137.102 582.686,-143.313 584.686,-136.605"/>
</g>
<!-- Node38 -->
<g id="node38" class="node"><title>Node38</title>
<polygon fill="white" stroke="#bfbfbf" points="606.5,-118 606.5,-137 701.5,-137 701.5,-118 606.5,-118"/>
<text text-anchor="middle" x="654" y="-125" font-family="Helvetica,sans-Serif" font-size="10.00">osgViewer/Viewer</text>
</g>
<!-- Node14&#45;&gt;Node38 -->
<g id="edge38" class="edge"><title>Node14&#45;&gt;Node38</title>
<path fill="none" stroke="midnightblue" d="M1521.96,-180.375C1518.94,-179.86 1515.94,-179.395 1513,-179 1159.39,-131.392 1063.96,-195.254 711,-143 705.047,-142.119 698.814,-140.875 692.745,-139.481"/>
<polygon fill="midnightblue" stroke="midnightblue" points="693.311,-136.017 682.765,-137.034 691.644,-142.815 693.311,-136.017"/>
</g>
<!-- Node39 -->
<g id="node39" class="node"><title>Node39</title>
<polygon fill="white" stroke="#bfbfbf" points="720,-118 720,-137 838,-137 838,-118 720,-118"/>
<text text-anchor="middle" x="779" y="-125" font-family="Helvetica,sans-Serif" font-size="10.00">osgViewer/ViewerBase</text>
</g>
<!-- Node14&#45;&gt;Node39 -->
<g id="edge39" class="edge"><title>Node14&#45;&gt;Node39</title>
<path fill="none" stroke="midnightblue" d="M1521.95,-180.408C1518.93,-179.884 1515.93,-179.409 1513,-179 1219.4,-138.104 1140.85,-182.029 847,-143 839.429,-141.994 831.446,-140.6 823.718,-139.071"/>
<polygon fill="midnightblue" stroke="midnightblue" points="824.264,-135.609 813.761,-137.004 822.841,-142.463 824.264,-135.609"/>
</g>
<!-- Node40 -->
<g id="node40" class="node"><title>Node40</title>
<polygon fill="white" stroke="#bfbfbf" points="856.5,-118 856.5,-137 965.5,-137 965.5,-118 856.5,-118"/>
<text text-anchor="middle" x="911" y="-125" font-family="Helvetica,sans-Serif" font-size="10.00">osg/GraphicsContext</text>
</g>
<!-- Node14&#45;&gt;Node40 -->
<g id="edge40" class="edge"><title>Node14&#45;&gt;Node40</title>
<path fill="none" stroke="midnightblue" d="M1521.94,-180.453C1518.93,-179.917 1515.93,-179.427 1513,-179 1275.42,-144.369 1211.52,-178.037 974,-143 967.286,-142.01 960.229,-140.678 953.365,-139.222"/>
<polygon fill="midnightblue" stroke="midnightblue" points="954.032,-135.785 943.51,-137.024 952.508,-142.617 954.032,-135.785"/>
</g>
<!-- Node41 -->
<g id="node41" class="node"><title>Node41</title>
<polygon fill="white" stroke="#bfbfbf" points="983.5,-118 983.5,-137 1078.5,-137 1078.5,-118 983.5,-118"/>
<text text-anchor="middle" x="1031" y="-125" font-family="Helvetica,sans-Serif" font-size="10.00">osg/PolygonMode</text>
</g>
<!-- Node14&#45;&gt;Node41 -->
<g id="edge41" class="edge"><title>Node14&#45;&gt;Node41</title>
<path fill="none" stroke="midnightblue" d="M1521.93,-180.516C1518.92,-179.964 1515.93,-179.453 1513,-179 1325.67,-149.987 1274.93,-174.474 1088,-143 1082.4,-142.057 1076.54,-140.839 1070.8,-139.511"/>
<polygon fill="midnightblue" stroke="midnightblue" points="1071.23,-136.011 1060.68,-137.035 1069.56,-142.811 1071.23,-136.011"/>
</g>
<!-- Node42&#45;&gt;Node7 -->
<g id="edge46" class="edge"><title>Node42&#45;&gt;Node7</title>
<path fill="none" stroke="midnightblue" d="M1674.95,-250.515C1631.24,-241.586 1567.4,-227.264 1513,-210 1510.72,-209.278 1508.39,-208.478 1506.05,-207.635"/>
<polygon fill="midnightblue" stroke="midnightblue" points="1507.2,-204.326 1496.61,-204.022 1504.7,-210.864 1507.2,-204.326"/>
</g>
<!-- Node42&#45;&gt;Node8 -->
<g id="edge49" class="edge"><title>Node42&#45;&gt;Node8</title>
<path fill="none" stroke="midnightblue" d="M1733.89,-246.443C1744.19,-227.221 1765.56,-193.472 1795,-179 1888.4,-133.08 2627.73,-155.9 2731,-143 2738.66,-142.043 2746.74,-140.659 2754.55,-139.121"/>
<polygon fill="midnightblue" stroke="midnightblue" points="2755.52,-142.494 2764.6,-137.033 2754.1,-135.64 2755.52,-142.494"/>
</g>
<!-- Node42&#45;&gt;Node14 -->
<g id="edge50" class="edge"><title>Node42&#45;&gt;Node14</title>
<path fill="none" stroke="midnightblue" d="M1694.45,-246.396C1672.24,-236.771 1642.62,-223.936 1618.69,-213.564"/>
<polygon fill="midnightblue" stroke="midnightblue" points="1620.05,-210.341 1609.48,-209.577 1617.27,-216.764 1620.05,-210.341"/>
</g>
<!-- Node43 -->
<g id="node43" class="node"><title>Node43</title>
<polygon fill="white" stroke="#bfbfbf" points="1804.5,-185 1804.5,-204 1839.5,-204 1839.5,-185 1804.5,-185"/>
<text text-anchor="middle" x="1822" y="-192" font-family="Helvetica,sans-Serif" font-size="10.00">map</text>
</g>
<!-- Node42&#45;&gt;Node43 -->
<g id="edge45" class="edge"><title>Node42&#45;&gt;Node43</title>
<path fill="none" stroke="midnightblue" d="M1747.61,-246.396C1763.4,-235.597 1785.09,-220.756 1800.97,-209.887"/>
<polygon fill="midnightblue" stroke="midnightblue" points="1803.29,-212.542 1809.57,-204.007 1799.34,-206.765 1803.29,-212.542"/>
</g>
<!-- Node44 -->
<g id="node44" class="node"><title>Node44</title>
<polygon fill="white" stroke="#bfbfbf" points="1858,-185 1858,-204 1938,-204 1938,-185 1858,-185"/>
<text text-anchor="middle" x="1898" y="-192" font-family="Helvetica,sans-Serif" font-size="10.00">boost/bind.hpp</text>
</g>
<!-- Node42&#45;&gt;Node44 -->
<g id="edge47" class="edge"><title>Node42&#45;&gt;Node44</title>
<path fill="none" stroke="midnightblue" d="M1764.1,-246.396C1794.51,-234.84 1837.08,-218.656 1866,-207.663"/>
<polygon fill="midnightblue" stroke="midnightblue" points="1867.52,-210.832 1875.62,-204.007 1865.03,-204.289 1867.52,-210.832"/>
</g>
<!-- Node45 -->
<g id="node45" class="node"><title>Node45</title>
<polygon fill="white" stroke="#bfbfbf" points="1650.5,-185 1650.5,-204 1747.5,-204 1747.5,-185 1650.5,-185"/>
<text text-anchor="middle" x="1699" y="-192" font-family="Helvetica,sans-Serif" font-size="10.00">boost/function.hpp</text>
</g>
<!-- Node42&#45;&gt;Node45 -->
<g id="edge48" class="edge"><title>Node42&#45;&gt;Node45</title>
<path fill="none" stroke="midnightblue" d="M1720.92,-246.396C1716.77,-236.763 1711.24,-223.914 1706.77,-213.537"/>
<polygon fill="midnightblue" stroke="midnightblue" points="1709.92,-211.994 1702.75,-204.195 1703.49,-214.763 1709.92,-211.994"/>
</g>
<!-- Node46&#45;&gt;Node8 -->
<g id="edge57" class="edge"><title>Node46&#45;&gt;Node8</title>
<path fill="none" stroke="midnightblue" d="M2918.67,-184.869C2895.06,-173.748 2853.81,-154.317 2826.45,-141.429"/>
<polygon fill="midnightblue" stroke="midnightblue" points="2827.94,-138.262 2817.4,-137.167 2824.96,-144.595 2827.94,-138.262"/>
</g>
<!-- Node46&#45;&gt;Node9 -->
<g id="edge56" class="edge"><title>Node46&#45;&gt;Node9</title>
<path fill="none" stroke="midnightblue" d="M2929.94,-184.897C2917.06,-169.449 2888.54,-136.35 2861,-112 2848.33,-100.798 2832.95,-89.6235 2820.68,-81.212"/>
<polygon fill="midnightblue" stroke="midnightblue" points="2822.63,-78.3022 2812.38,-75.6146 2818.72,-84.1065 2822.63,-78.3022"/>
</g>
<!-- Node47 -->
<g id="node47" class="node"><title>Node47</title>
<polygon fill="white" stroke="#bfbfbf" points="3155,-118 3155,-137 3199,-137 3199,-118 3155,-118"/>
<text text-anchor="middle" x="3177" y="-125" font-family="Helvetica,sans-Serif" font-size="10.00">vector</text>
</g>
<!-- Node46&#45;&gt;Node47 -->
<g id="edge53" class="edge"><title>Node46&#45;&gt;Node47</title>
<path fill="none" stroke="midnightblue" d="M2983.85,-184.98C3026.72,-176.528 3091.58,-162.086 3146,-143 3147.62,-142.432 3149.27,-141.808 3150.92,-141.147"/>
<polygon fill="midnightblue" stroke="midnightblue" points="3152.43,-144.306 3160.2,-137.104 3149.63,-137.888 3152.43,-144.306"/>
</g>
<!-- Node48 -->
<g id="node48" class="node"><title>Node48</title>
<polygon fill="white" stroke="#bfbfbf" points="2909.5,-118 2909.5,-137 2964.5,-137 2964.5,-118 2909.5,-118"/>
<text text-anchor="middle" x="2937" y="-125" font-family="Helvetica,sans-Serif" font-size="10.00">QtGlobal</text>
</g>
<!-- Node46&#45;&gt;Node48 -->
<g id="edge54" class="edge"><title>Node46&#45;&gt;Node48</title>
<path fill="none" stroke="midnightblue" d="M2937,-184.734C2937,-175.183 2937,-159.618 2937,-147.283"/>
<polygon fill="midnightblue" stroke="midnightblue" points="2940.5,-147.127 2937,-137.127 2933.5,-147.127 2940.5,-147.127"/>
</g>
<!-- Node49 -->
<g id="node49" class="node"><title>Node49</title>
<polygon fill="white" stroke="#bfbfbf" points="2983,-118 2983,-137 3025,-137 3025,-118 2983,-118"/>
<text text-anchor="middle" x="3004" y="-125" font-family="Helvetica,sans-Serif" font-size="10.00">QtGui</text>
</g>
<!-- Node46&#45;&gt;Node49 -->
<g id="edge55" class="edge"><title>Node46&#45;&gt;Node49</title>
<path fill="none" stroke="midnightblue" d="M2946.04,-184.734C2956.68,-174.403 2974.58,-157.037 2987.68,-144.332"/>
<polygon fill="midnightblue" stroke="midnightblue" points="2990.37,-146.603 2995.11,-137.127 2985.49,-141.578 2990.37,-146.603"/>
</g>
<!-- Node50 -->
<g id="node50" class="node"><title>Node50</title>
<polygon fill="white" stroke="#bfbfbf" points="3043,-112.5 3043,-142.5 3137,-142.5 3137,-112.5 3043,-112.5"/>
<text text-anchor="start" x="3051" y="-130.5" font-family="Helvetica,sans-Serif" font-size="10.00">gepetto/gui/config</text>
<text text-anchor="middle" x="3090" y="-119.5" font-family="Helvetica,sans-Serif" font-size="10.00">&#45;dep.hh</text>
</g>
<!-- Node46&#45;&gt;Node50 -->
<g id="edge58" class="edge"><title>Node46&#45;&gt;Node50</title>
<path fill="none" stroke="midnightblue" d="M2957.32,-184.869C2980.28,-175.115 3018.28,-158.97 3047.74,-146.452"/>
<polygon fill="midnightblue" stroke="midnightblue" points="3049.14,-149.66 3056.98,-142.528 3046.41,-143.217 3049.14,-149.66"/>
</g>
</g>
</svg>
