<?xml version="1.0" encoding="UTF-8" standalone="no"?>
<!DOCTYPE svg PUBLIC "-//W3C//DTD SVG 1.1//EN"
 "http://www.w3.org/Graphics/SVG/1.1/DTD/svg11.dtd">
<!-- Generated by graphviz version 2.38.0 (20140413.2041)
 -->
<!-- Title: gepetto::gui::MainWindow Pages: 1 -->
<svg width="310pt" height="296pt"
 viewBox="0.00 0.00 310.00 296.00" xmlns="http://www.w3.org/2000/svg" xmlns:xlink="http://www.w3.org/1999/xlink">
<g id="graph0" class="graph" transform="scale(1 1) rotate(0) translate(4 292)">
<title>gepetto::gui::MainWindow</title>
<polygon fill="white" stroke="none" points="-4,4 -4,-292 306,-292 306,4 -4,4"/>
<!-- Node1 -->
<g id="node1" class="node"><title>Node1</title>
<polygon fill="#bfbfbf" stroke="black" points="11,-0.5 11,-19.5 141,-19.5 141,-0.5 11,-0.5"/>
<text text-anchor="middle" x="76" y="-7.5" font-family="Helvetica,sans-Serif" font-size="10.00">gepetto::gui::MainWindow</text>
</g>
<!-- Node2 -->
<g id="node2" class="node"><title>Node2</title>
<polygon fill="white" stroke="#bfbfbf" points="0,-67.5 0,-86.5 80,-86.5 80,-67.5 0,-67.5"/>
<text text-anchor="middle" x="40" y="-74.5" font-family="Helvetica,sans-Serif" font-size="10.00">QMainWindow</text>
</g>
<!-- Node2&#45;&gt;Node1 -->
<g id="edge1" class="edge"><title>Node2&#45;&gt;Node1</title>
<path fill="none" stroke="midnightblue" d="M49.8787,-58.1635C56.8214,-45.6281 65.8035,-29.4104 71.2218,-19.6273"/>
<polygon fill="midnightblue" stroke="midnightblue" points="46.6384,-56.7901 44.8551,-67.2338 52.7619,-60.1817 46.6384,-56.7901"/>
</g>
<!-- Node3 -->
<g id="node3" class="node"><title>Node3</title>
<g id="a_node3"><a xlink:href="a00065.html" target="_top" xlink:title="Settings manager for the interface. ">
<polygon fill="white" stroke="black" points="98,-67.5 98,-86.5 208,-86.5 208,-67.5 98,-67.5"/>
<text text-anchor="middle" x="153" y="-74.5" font-family="Helvetica,sans-Serif" font-size="10.00">gepetto::gui::Settings</text>
</a>
</g>
</g>
<!-- Node3&#45;&gt;Node1 -->
<g id="edge2" class="edge"><title>Node3&#45;&gt;Node1</title>
<path fill="none" stroke="#9a32cd" stroke-dasharray="5,2" d="M134.891,-60.7134C119.721,-47.907 98.6124,-30.0884 86.22,-19.6273"/>
<polygon fill="#9a32cd" stroke="#9a32cd" points="132.716,-63.4577 142.615,-67.2338 137.232,-58.1088 132.716,-63.4577"/>
<text text-anchor="middle" x="140.5" y="-41" font-family="Helvetica,sans-Serif" font-size="10.00"> settings_</text>
</g>
<!-- Node4 -->
<g id="node4" class="node"><title>Node4</title>
<g id="a_node4"><a xlink:href="a00052.html" target="_top" xlink:title="gepetto::gui::PluginManager">
<polygon fill="white" stroke="black" points="31,-200.5 31,-219.5 169,-219.5 169,-200.5 31,-200.5"/>
<text text-anchor="middle" x="100" y="-207.5" font-family="Helvetica,sans-Serif" font-size="10.00">gepetto::gui::PluginManager</text>
</a>
</g>
</g>
<!-- Node4&#45;&gt;Node3 -->
<g id="edge3" class="edge"><title>Node4&#45;&gt;Node3</title>
<path fill="none" stroke="#9a32cd" stroke-dasharray="5,2" d="M97.6528,-190.374C95.8281,-168.306 95.8576,-131.231 112,-105 116.914,-97.0156 125.174,-90.9077 132.999,-86.5379"/>
<polygon fill="#9a32cd" stroke="#9a32cd" points="94.181,-190.827 98.7005,-200.41 101.143,-190.1 94.181,-190.827"/>
<text text-anchor="middle" x="148" y="-141" font-family="Helvetica,sans-Serif" font-size="10.00"> pluginManager_</text>
</g>
<!-- Node5 -->
<g id="node5" class="node"><title>Node5</title>
<g id="a_node5"><a xlink:title="STL class. ">
<polygon fill="white" stroke="#bfbfbf" points="187,-200.5 187,-219.5 247,-219.5 247,-200.5 187,-200.5"/>
<text text-anchor="middle" x="217" y="-207.5" font-family="Helvetica,sans-Serif" font-size="10.00">std::string</text>
</a>
</g>
</g>
<!-- Node5&#45;&gt;Node3 -->
<g id="edge4" class="edge"><title>Node5&#45;&gt;Node3</title>
<path fill="none" stroke="#9a32cd" stroke-dasharray="5,2" d="M214.215,-190.251C210.279,-168.346 201.524,-131.703 184,-105 179.301,-97.8397 172.196,-91.4595 165.973,-86.7015"/>
<polygon fill="#9a32cd" stroke="#9a32cd" points="210.78,-190.932 215.855,-200.233 217.687,-189.797 210.78,-190.932"/>
<text text-anchor="middle" x="257" y="-174" font-family="Helvetica,sans-Serif" font-size="10.00"> stateConf</text>
<text text-anchor="middle" x="257" y="-163" font-family="Helvetica,sans-Serif" font-size="10.00">captureFilename</text>
<text text-anchor="middle" x="257" y="-152" font-family="Helvetica,sans-Serif" font-size="10.00">captureDirectory</text>
<text text-anchor="middle" x="257" y="-141" font-family="Helvetica,sans-Serif" font-size="10.00">captureExtension</text>
<text text-anchor="middle" x="257" y="-130" font-family="Helvetica,sans-Serif" font-size="10.00">predifinedEnvConf</text>
<text text-anchor="middle" x="257" y="-119" font-family="Helvetica,sans-Serif" font-size="10.00">configurationFile</text>
<text text-anchor="middle" x="257" y="-108" font-family="Helvetica,sans-Serif" font-size="10.00">predifinedRobotConf</text>
</g>
<!-- Node6 -->
<g id="node6" class="node"><title>Node6</title>
<g id="a_node6"><a xlink:title="STL class. ">
<polygon fill="white" stroke="#bfbfbf" points="169.5,-257.5 169.5,-287.5 264.5,-287.5 264.5,-257.5 169.5,-257.5"/>
<text text-anchor="start" x="177.5" y="-275.5" font-family="Helvetica,sans-Serif" font-size="10.00">std::basic_string&lt;</text>
<text text-anchor="middle" x="217" y="-264.5" font-family="Helvetica,sans-Serif" font-size="10.00"> char &gt;</text>
</a>
</g>
</g>
<!-- Node6&#45;&gt;Node5 -->
<g id="edge5" class="edge"><title>Node6&#45;&gt;Node5</title>
<path fill="none" stroke="midnightblue" d="M217,-247.352C217,-237.513 217,-226.775 217,-219.54"/>
<polygon fill="midnightblue" stroke="midnightblue" points="213.5,-247.468 217,-257.468 220.5,-247.468 213.5,-247.468"/>
</g>
</g>
</svg>
