<?xml version="1.0" encoding="UTF-8" standalone="no"?>
<!DOCTYPE svg PUBLIC "-//W3C//DTD SVG 1.1//EN"
 "http://www.w3.org/Graphics/SVG/1.1/DTD/svg11.dtd">
<!-- Generated by graphviz version 2.38.0 (20140413.2041)
 -->
<!-- Title: gepetto::viewer::LeafNodeFace Pages: 1 -->
<svg width="161pt" height="355pt"
 viewBox="0.00 0.00 161.00 355.00" xmlns="http://www.w3.org/2000/svg" xmlns:xlink="http://www.w3.org/1999/xlink">
<g id="graph0" class="graph" transform="scale(1 1) rotate(0) translate(4 351)">
<title>gepetto::viewer::LeafNodeFace</title>
<polygon fill="white" stroke="none" points="-4,4 -4,-351 157,-351 157,4 -4,4"/>
<!-- Node1 -->
<g id="node1" class="node"><title>Node1</title>
<polygon fill="#bfbfbf" stroke="black" points="0,-0.5 0,-19.5 153,-19.5 153,-0.5 0,-0.5"/>
<text text-anchor="middle" x="76.5" y="-7.5" font-family="Helvetica,sans-Serif" font-size="10.00">gepetto::viewer::LeafNodeFace</text>
</g>
<!-- Node2 -->
<g id="node2" class="node"><title>Node2</title>
<g id="a_node2"><a xlink:href="a00042.html" target="_top" xlink:title="Abstract base class of 3D objects in a scene. ">
<polygon fill="white" stroke="black" points="20,-57.5 20,-76.5 133,-76.5 133,-57.5 20,-57.5"/>
<text text-anchor="middle" x="76.5" y="-64.5" font-family="Helvetica,sans-Serif" font-size="10.00">gepetto::viewer::Node</text>
</a>
</g>
</g>
<!-- Node2&#45;&gt;Node1 -->
<g id="edge1" class="edge"><title>Node2&#45;&gt;Node1</title>
<path fill="none" stroke="midnightblue" d="M76.5,-47.1166C76.5,-37.8173 76.5,-27.0557 76.5,-19.7149"/>
<polygon fill="midnightblue" stroke="midnightblue" points="73.0001,-47.4062 76.5,-57.4062 80.0001,-47.4063 73.0001,-47.4062"/>
</g>
<!-- Node3 -->
<g id="node3" class="node"><title>Node3</title>
<g id="a_node3"><a xlink:href="a00054.html" target="_top" xlink:title="gepetto::viewer::Properties">
<polygon fill="white" stroke="black" points="9.5,-114.5 9.5,-133.5 143.5,-133.5 143.5,-114.5 9.5,-114.5"/>
<text text-anchor="middle" x="76.5" y="-121.5" font-family="Helvetica,sans-Serif" font-size="10.00">gepetto::viewer::Properties</text>
</a>
</g>
</g>
<!-- Node3&#45;&gt;Node2 -->
<g id="edge2" class="edge"><title>Node3&#45;&gt;Node2</title>
<path fill="none" stroke="midnightblue" d="M76.5,-104.117C76.5,-94.8173 76.5,-84.0557 76.5,-76.7149"/>
<polygon fill="midnightblue" stroke="midnightblue" points="73.0001,-104.406 76.5,-114.406 80.0001,-104.406 73.0001,-104.406"/>
</g>
<!-- Node4 -->
<g id="node4" class="node"><title>Node4</title>
<polygon fill="white" stroke="#bfbfbf" points="21.5,-181.5 21.5,-211.5 131.5,-211.5 131.5,-181.5 21.5,-181.5"/>
<text text-anchor="start" x="29.5" y="-199.5" font-family="Helvetica,sans-Serif" font-size="10.00">std::map&lt; std::string,</text>
<text text-anchor="middle" x="76.5" y="-188.5" font-family="Helvetica,sans-Serif" font-size="10.00"> PropertyPtr_t &gt;</text>
</g>
<!-- Node4&#45;&gt;Node3 -->
<g id="edge3" class="edge"><title>Node4&#45;&gt;Node3</title>
<path fill="none" stroke="#9a32cd" stroke-dasharray="5,2" d="M76.5,-171.091C76.5,-158.214 76.5,-143.197 76.5,-133.893"/>
<polygon fill="#9a32cd" stroke="#9a32cd" points="73.0001,-171.233 76.5,-181.233 80.0001,-171.233 73.0001,-171.233"/>
<text text-anchor="middle" x="102.5" y="-155" font-family="Helvetica,sans-Serif" font-size="10.00"> properties_</text>
</g>
<!-- Node5 -->
<g id="node5" class="node"><title>Node5</title>
<g id="a_node5"><a xlink:title="STL class. ">
<polygon fill="white" stroke="#bfbfbf" points="46.5,-259.5 46.5,-278.5 106.5,-278.5 106.5,-259.5 46.5,-259.5"/>
<text text-anchor="middle" x="76.5" y="-266.5" font-family="Helvetica,sans-Serif" font-size="10.00">std::string</text>
</a>
</g>
</g>
<!-- Node5&#45;&gt;Node4 -->
<g id="edge4" class="edge"><title>Node5&#45;&gt;Node4</title>
<path fill="none" stroke="#9a32cd" stroke-dasharray="5,2" d="M76.5,-249.236C76.5,-237.408 76.5,-222.383 76.5,-211.576"/>
<polygon fill="#9a32cd" stroke="#9a32cd" points="73.0001,-249.355 76.5,-259.355 80.0001,-249.355 73.0001,-249.355"/>
<text text-anchor="middle" x="89" y="-233" font-family="Helvetica,sans-Serif" font-size="10.00"> keys</text>
</g>
<!-- Node6 -->
<g id="node6" class="node"><title>Node6</title>
<g id="a_node6"><a xlink:title="STL class. ">
<polygon fill="white" stroke="#bfbfbf" points="29,-316.5 29,-346.5 124,-346.5 124,-316.5 29,-316.5"/>
<text text-anchor="start" x="37" y="-334.5" font-family="Helvetica,sans-Serif" font-size="10.00">std::basic_string&lt;</text>
<text text-anchor="middle" x="76.5" y="-323.5" font-family="Helvetica,sans-Serif" font-size="10.00"> char &gt;</text>
</a>
</g>
</g>
<!-- Node6&#45;&gt;Node5 -->
<g id="edge5" class="edge"><title>Node6&#45;&gt;Node5</title>
<path fill="none" stroke="midnightblue" d="M76.5,-306.352C76.5,-296.513 76.5,-285.775 76.5,-278.54"/>
<polygon fill="midnightblue" stroke="midnightblue" points="73.0001,-306.468 76.5,-316.468 80.0001,-306.468 73.0001,-306.468"/>
</g>
</g>
</svg>
