<?xml version="1.0" encoding="UTF-8" standalone="no"?>
<!DOCTYPE svg PUBLIC "-//W3C//DTD SVG 1.1//EN"
 "http://www.w3.org/Graphics/SVG/1.1/DTD/svg11.dtd">
<!-- Generated by graphviz version 2.38.0 (20140413.2041)
 -->
<!-- Title: gepetto::viewer::Node Pages: 1 -->
<svg width="142pt" height="298pt"
 viewBox="0.00 0.00 142.00 298.00" xmlns="http://www.w3.org/2000/svg" xmlns:xlink="http://www.w3.org/1999/xlink">
<g id="graph0" class="graph" transform="scale(1 1) rotate(0) translate(4 294)">
<title>gepetto::viewer::Node</title>
<polygon fill="white" stroke="none" points="-4,4 -4,-294 138,-294 138,4 -4,4"/>
<!-- Node1 -->
<g id="node1" class="node"><title>Node1</title>
<polygon fill="#bfbfbf" stroke="black" points="10.5,-0.5 10.5,-19.5 123.5,-19.5 123.5,-0.5 10.5,-0.5"/>
<text text-anchor="middle" x="67" y="-7.5" font-family="Helvetica,sans-Serif" font-size="10.00">gepetto::viewer::Node</text>
</g>
<!-- Node2 -->
<g id="node2" class="node"><title>Node2</title>
<g id="a_node2"><a xlink:href="a00054.html" target="_top" xlink:title="gepetto::viewer::Properties">
<polygon fill="white" stroke="black" points="0,-57.5 0,-76.5 134,-76.5 134,-57.5 0,-57.5"/>
<text text-anchor="middle" x="67" y="-64.5" font-family="Helvetica,sans-Serif" font-size="10.00">gepetto::viewer::Properties</text>
</a>
</g>
</g>
<!-- Node2&#45;&gt;Node1 -->
<g id="edge1" class="edge"><title>Node2&#45;&gt;Node1</title>
<path fill="none" stroke="midnightblue" d="M67,-47.1166C67,-37.8173 67,-27.0557 67,-19.7149"/>
<polygon fill="midnightblue" stroke="midnightblue" points="63.5001,-47.4062 67,-57.4062 70.5001,-47.4063 63.5001,-47.4062"/>
</g>
<!-- Node3 -->
<g id="node3" class="node"><title>Node3</title>
<polygon fill="white" stroke="#bfbfbf" points="12,-124.5 12,-154.5 122,-154.5 122,-124.5 12,-124.5"/>
<text text-anchor="start" x="20" y="-142.5" font-family="Helvetica,sans-Serif" font-size="10.00">std::map&lt; std::string,</text>
<text text-anchor="middle" x="67" y="-131.5" font-family="Helvetica,sans-Serif" font-size="10.00"> PropertyPtr_t &gt;</text>
</g>
<!-- Node3&#45;&gt;Node2 -->
<g id="edge2" class="edge"><title>Node3&#45;&gt;Node2</title>
<path fill="none" stroke="#9a32cd" stroke-dasharray="5,2" d="M67,-114.091C67,-101.214 67,-86.1974 67,-76.8932"/>
<polygon fill="#9a32cd" stroke="#9a32cd" points="63.5001,-114.233 67,-124.233 70.5001,-114.233 63.5001,-114.233"/>
<text text-anchor="middle" x="93" y="-98" font-family="Helvetica,sans-Serif" font-size="10.00"> properties_</text>
</g>
<!-- Node4 -->
<g id="node4" class="node"><title>Node4</title>
<g id="a_node4"><a xlink:title="STL class. ">
<polygon fill="white" stroke="#bfbfbf" points="37,-202.5 37,-221.5 97,-221.5 97,-202.5 37,-202.5"/>
<text text-anchor="middle" x="67" y="-209.5" font-family="Helvetica,sans-Serif" font-size="10.00">std::string</text>
</a>
</g>
</g>
<!-- Node4&#45;&gt;Node3 -->
<g id="edge3" class="edge"><title>Node4&#45;&gt;Node3</title>
<path fill="none" stroke="#9a32cd" stroke-dasharray="5,2" d="M67,-192.236C67,-180.408 67,-165.383 67,-154.576"/>
<polygon fill="#9a32cd" stroke="#9a32cd" points="63.5001,-192.355 67,-202.355 70.5001,-192.355 63.5001,-192.355"/>
<text text-anchor="middle" x="79.5" y="-176" font-family="Helvetica,sans-Serif" font-size="10.00"> keys</text>
</g>
<!-- Node5 -->
<g id="node5" class="node"><title>Node5</title>
<g id="a_node5"><a xlink:title="STL class. ">
<polygon fill="white" stroke="#bfbfbf" points="19.5,-259.5 19.5,-289.5 114.5,-289.5 114.5,-259.5 19.5,-259.5"/>
<text text-anchor="start" x="27.5" y="-277.5" font-family="Helvetica,sans-Serif" font-size="10.00">std::basic_string&lt;</text>
<text text-anchor="middle" x="67" y="-266.5" font-family="Helvetica,sans-Serif" font-size="10.00"> char &gt;</text>
</a>
</g>
</g>
<!-- Node5&#45;&gt;Node4 -->
<g id="edge4" class="edge"><title>Node5&#45;&gt;Node4</title>
<path fill="none" stroke="midnightblue" d="M67,-249.352C67,-239.513 67,-228.775 67,-221.54"/>
<polygon fill="midnightblue" stroke="midnightblue" points="63.5001,-249.468 67,-259.468 70.5001,-249.468 63.5001,-249.468"/>
</g>
</g>
</svg>
