<?xml version="1.0" encoding="UTF-8" standalone="no"?>
<!DOCTYPE svg PUBLIC "-//W3C//DTD SVG 1.1//EN"
 "http://www.w3.org/Graphics/SVG/1.1/DTD/svg11.dtd">
<!-- Generated by graphviz version 2.38.0 (20140413.2041)
 -->
<!-- Title: gepetto::viewer::NodeDrawable Pages: 1 -->
<svg width="162pt" height="355pt"
 viewBox="0.00 0.00 162.00 355.00" xmlns="http://www.w3.org/2000/svg" xmlns:xlink="http://www.w3.org/1999/xlink">
<g id="graph0" class="graph" transform="scale(1 1) rotate(0) translate(4 351)">
<title>gepetto::viewer::NodeDrawable</title>
<polygon fill="white" stroke="none" points="-4,4 -4,-351 158,-351 158,4 -4,4"/>
<!-- Node1 -->
<g id="node1" class="node"><title>Node1</title>
<polygon fill="#bfbfbf" stroke="black" points="0,-0.5 0,-19.5 154,-19.5 154,-0.5 0,-0.5"/>
<text text-anchor="middle" x="77" y="-7.5" font-family="Helvetica,sans-Serif" font-size="10.00">gepetto::viewer::NodeDrawable</text>
</g>
<!-- Node2 -->
<g id="node2" class="node"><title>Node2</title>
<g id="a_node2"><a xlink:href="a00042.html" target="_top" xlink:title="Abstract base class of 3D objects in a scene. ">
<polygon fill="white" stroke="black" points="20.5,-57.5 20.5,-76.5 133.5,-76.5 133.5,-57.5 20.5,-57.5"/>
<text text-anchor="middle" x="77" y="-64.5" font-family="Helvetica,sans-Serif" font-size="10.00">gepetto::viewer::Node</text>
</a>
</g>
</g>
<!-- Node2&#45;&gt;Node1 -->
<g id="edge1" class="edge"><title>Node2&#45;&gt;Node1</title>
<path fill="none" stroke="midnightblue" d="M77,-47.1166C77,-37.8173 77,-27.0557 77,-19.7149"/>
<polygon fill="midnightblue" stroke="midnightblue" points="73.5001,-47.4062 77,-57.4062 80.5001,-47.4063 73.5001,-47.4062"/>
</g>
<!-- Node3 -->
<g id="node3" class="node"><title>Node3</title>
<g id="a_node3"><a xlink:href="a00054.html" target="_top" xlink:title="gepetto::viewer::Properties">
<polygon fill="white" stroke="black" points="10,-114.5 10,-133.5 144,-133.5 144,-114.5 10,-114.5"/>
<text text-anchor="middle" x="77" y="-121.5" font-family="Helvetica,sans-Serif" font-size="10.00">gepetto::viewer::Properties</text>
</a>
</g>
</g>
<!-- Node3&#45;&gt;Node2 -->
<g id="edge2" class="edge"><title>Node3&#45;&gt;Node2</title>
<path fill="none" stroke="midnightblue" d="M77,-104.117C77,-94.8173 77,-84.0557 77,-76.7149"/>
<polygon fill="midnightblue" stroke="midnightblue" points="73.5001,-104.406 77,-114.406 80.5001,-104.406 73.5001,-104.406"/>
</g>
<!-- Node4 -->
<g id="node4" class="node"><title>Node4</title>
<polygon fill="white" stroke="#bfbfbf" points="22,-181.5 22,-211.5 132,-211.5 132,-181.5 22,-181.5"/>
<text text-anchor="start" x="30" y="-199.5" font-family="Helvetica,sans-Serif" font-size="10.00">std::map&lt; std::string,</text>
<text text-anchor="middle" x="77" y="-188.5" font-family="Helvetica,sans-Serif" font-size="10.00"> PropertyPtr_t &gt;</text>
</g>
<!-- Node4&#45;&gt;Node3 -->
<g id="edge3" class="edge"><title>Node4&#45;&gt;Node3</title>
<path fill="none" stroke="#9a32cd" stroke-dasharray="5,2" d="M77,-171.091C77,-158.214 77,-143.197 77,-133.893"/>
<polygon fill="#9a32cd" stroke="#9a32cd" points="73.5001,-171.233 77,-181.233 80.5001,-171.233 73.5001,-171.233"/>
<text text-anchor="middle" x="103" y="-155" font-family="Helvetica,sans-Serif" font-size="10.00"> properties_</text>
</g>
<!-- Node5 -->
<g id="node5" class="node"><title>Node5</title>
<g id="a_node5"><a xlink:title="STL class. ">
<polygon fill="white" stroke="#bfbfbf" points="47,-259.5 47,-278.5 107,-278.5 107,-259.5 47,-259.5"/>
<text text-anchor="middle" x="77" y="-266.5" font-family="Helvetica,sans-Serif" font-size="10.00">std::string</text>
</a>
</g>
</g>
<!-- Node5&#45;&gt;Node4 -->
<g id="edge4" class="edge"><title>Node5&#45;&gt;Node4</title>
<path fill="none" stroke="#9a32cd" stroke-dasharray="5,2" d="M77,-249.236C77,-237.408 77,-222.383 77,-211.576"/>
<polygon fill="#9a32cd" stroke="#9a32cd" points="73.5001,-249.355 77,-259.355 80.5001,-249.355 73.5001,-249.355"/>
<text text-anchor="middle" x="89.5" y="-233" font-family="Helvetica,sans-Serif" font-size="10.00"> keys</text>
</g>
<!-- Node6 -->
<g id="node6" class="node"><title>Node6</title>
<g id="a_node6"><a xlink:title="STL class. ">
<polygon fill="white" stroke="#bfbfbf" points="29.5,-316.5 29.5,-346.5 124.5,-346.5 124.5,-316.5 29.5,-316.5"/>
<text text-anchor="start" x="37.5" y="-334.5" font-family="Helvetica,sans-Serif" font-size="10.00">std::basic_string&lt;</text>
<text text-anchor="middle" x="77" y="-323.5" font-family="Helvetica,sans-Serif" font-size="10.00"> char &gt;</text>
</a>
</g>
</g>
<!-- Node6&#45;&gt;Node5 -->
<g id="edge5" class="edge"><title>Node6&#45;&gt;Node5</title>
<path fill="none" stroke="midnightblue" d="M77,-306.352C77,-296.513 77,-285.775 77,-278.54"/>
<polygon fill="midnightblue" stroke="midnightblue" points="73.5001,-306.468 77,-316.468 80.5001,-306.468 73.5001,-306.468"/>
</g>
</g>
</svg>
