<?xml version="1.0" encoding="UTF-8" standalone="no"?>
<!DOCTYPE svg PUBLIC "-//W3C//DTD SVG 1.1//EN"
 "http://www.w3.org/Graphics/SVG/1.1/DTD/svg11.dtd">
<!-- Generated by graphviz version 2.38.0 (20140413.2041)
 -->
<!-- Title: gepetto::viewer::TransformWriter Pages: 1 -->
<svg width="312pt" height="356pt"
 viewBox="0.00 0.00 311.50 356.00" xmlns="http://www.w3.org/2000/svg" xmlns:xlink="http://www.w3.org/1999/xlink">
<g id="graph0" class="graph" transform="scale(1 1) rotate(0) translate(4 352)">
<title>gepetto::viewer::TransformWriter</title>
<polygon fill="white" stroke="none" points="-4,4 -4,-352 307.5,-352 307.5,4 -4,4"/>
<!-- Node1 -->
<g id="node1" class="node"><title>Node1</title>
<polygon fill="#bfbfbf" stroke="black" points="69.5,-0.5 69.5,-30.5 203.5,-30.5 203.5,-0.5 69.5,-0.5"/>
<text text-anchor="start" x="77.5" y="-18.5" font-family="Helvetica,sans-Serif" font-size="10.00">gepetto::viewer::Transform</text>
<text text-anchor="middle" x="136.5" y="-7.5" font-family="Helvetica,sans-Serif" font-size="10.00">Writer</text>
</g>
<!-- Node2 -->
<g id="node2" class="node"><title>Node2</title>
<polygon fill="white" stroke="#bfbfbf" points="-7.10543e-15,-78.5 -7.10543e-15,-97.5 89,-97.5 89,-78.5 -7.10543e-15,-78.5"/>
<text text-anchor="middle" x="44.5" y="-85.5" font-family="Helvetica,sans-Serif" font-size="10.00">osg::Referenced</text>
</g>
<!-- Node2&#45;&gt;Node1 -->
<g id="edge1" class="edge"><title>Node2&#45;&gt;Node1</title>
<path fill="none" stroke="midnightblue" d="M63.9098,-72.1262C79.9039,-59.8698 102.429,-42.6084 118.131,-30.5762"/>
<polygon fill="midnightblue" stroke="midnightblue" points="61.5896,-69.4947 55.781,-78.3553 65.8474,-75.0509 61.5896,-69.4947"/>
</g>
<!-- Node3 -->
<g id="node3" class="node"><title>Node3</title>
<g id="a_node3"><a xlink:title="STL class. ">
<polygon fill="white" stroke="#bfbfbf" points="106.5,-78.5 106.5,-97.5 166.5,-97.5 166.5,-78.5 106.5,-78.5"/>
<text text-anchor="middle" x="136.5" y="-85.5" font-family="Helvetica,sans-Serif" font-size="10.00">std::string</text>
</a>
</g>
</g>
<!-- Node3&#45;&gt;Node1 -->
<g id="edge2" class="edge"><title>Node3&#45;&gt;Node1</title>
<path fill="none" stroke="#9a32cd" stroke-dasharray="5,2" d="M136.5,-68.2362C136.5,-56.4079 136.5,-41.3829 136.5,-30.5762"/>
<polygon fill="#9a32cd" stroke="#9a32cd" points="133,-68.3553 136.5,-78.3553 140,-68.3554 133,-68.3553"/>
<text text-anchor="middle" x="159.5" y="-52" font-family="Helvetica,sans-Serif" font-size="10.00"> filename_</text>
</g>
<!-- Node4 -->
<g id="node4" class="node"><title>Node4</title>
<g id="a_node4"><a xlink:title="STL class. ">
<polygon fill="white" stroke="#bfbfbf" points="81,-135.5 81,-165.5 176,-165.5 176,-135.5 81,-135.5"/>
<text text-anchor="start" x="89" y="-153.5" font-family="Helvetica,sans-Serif" font-size="10.00">std::basic_string&lt;</text>
<text text-anchor="middle" x="128.5" y="-142.5" font-family="Helvetica,sans-Serif" font-size="10.00"> char &gt;</text>
</a>
</g>
</g>
<!-- Node4&#45;&gt;Node3 -->
<g id="edge3" class="edge"><title>Node4&#45;&gt;Node3</title>
<path fill="none" stroke="midnightblue" d="M131.693,-125.352C132.994,-115.513 134.414,-104.775 135.371,-97.5399"/>
<polygon fill="midnightblue" stroke="midnightblue" points="128.197,-125.095 130.355,-135.468 135.136,-126.013 128.197,-125.095"/>
</g>
<!-- Node5 -->
<g id="node5" class="node"><title>Node5</title>
<g id="a_node5"><a xlink:title="STL class. ">
<polygon fill="white" stroke="#bfbfbf" points="188.5,-78.5 188.5,-97.5 262.5,-97.5 262.5,-78.5 188.5,-78.5"/>
<text text-anchor="middle" x="225.5" y="-85.5" font-family="Helvetica,sans-Serif" font-size="10.00">std::ofstream</text>
</a>
</g>
</g>
<!-- Node5&#45;&gt;Node1 -->
<g id="edge4" class="edge"><title>Node5&#45;&gt;Node1</title>
<path fill="none" stroke="#9a32cd" stroke-dasharray="5,2" d="M210.236,-70.7551C203.288,-63.7292 194.779,-55.6187 186.5,-49 178.332,-42.4706 168.827,-36.0345 160.31,-30.6344"/>
<polygon fill="#9a32cd" stroke="#9a32cd" points="208.105,-73.5873 217.569,-78.3503 213.141,-68.7252 208.105,-73.5873"/>
<text text-anchor="middle" x="209.5" y="-52" font-family="Helvetica,sans-Serif" font-size="10.00"> file_</text>
</g>
<!-- Node6 -->
<g id="node6" class="node"><title>Node6</title>
<g id="a_node6"><a xlink:title="STL class. ">
<polygon fill="white" stroke="#bfbfbf" points="194,-135.5 194,-165.5 297,-165.5 297,-135.5 194,-135.5"/>
<text text-anchor="start" x="202" y="-153.5" font-family="Helvetica,sans-Serif" font-size="10.00">std::basic_ofstream</text>
<text text-anchor="middle" x="245.5" y="-142.5" font-family="Helvetica,sans-Serif" font-size="10.00">&lt; char &gt;</text>
</a>
</g>
</g>
<!-- Node6&#45;&gt;Node5 -->
<g id="edge5" class="edge"><title>Node6&#45;&gt;Node5</title>
<path fill="none" stroke="midnightblue" d="M237.621,-125.666C234.34,-115.742 230.74,-104.852 228.323,-97.5399"/>
<polygon fill="midnightblue" stroke="midnightblue" points="234.399,-127.072 240.861,-135.468 241.046,-124.875 234.399,-127.072"/>
</g>
<!-- Node7 -->
<g id="node7" class="node"><title>Node7</title>
<g id="a_node7"><a xlink:title="STL class. ">
<polygon fill="white" stroke="#bfbfbf" points="195.5,-203.5 195.5,-233.5 295.5,-233.5 295.5,-203.5 195.5,-203.5"/>
<text text-anchor="start" x="203.5" y="-221.5" font-family="Helvetica,sans-Serif" font-size="10.00">std::basic_ostream</text>
<text text-anchor="middle" x="245.5" y="-210.5" font-family="Helvetica,sans-Serif" font-size="10.00">&lt; Char &gt;</text>
</a>
</g>
</g>
<!-- Node7&#45;&gt;Node6 -->
<g id="edge6" class="edge"><title>Node7&#45;&gt;Node6</title>
<path fill="none" stroke="midnightblue" d="M245.5,-193.032C245.5,-183.861 245.5,-173.745 245.5,-165.793"/>
<polygon fill="midnightblue" stroke="midnightblue" points="242,-193.179 245.5,-203.179 249,-193.179 242,-193.179"/>
</g>
<!-- Node8 -->
<g id="node8" class="node"><title>Node8</title>
<g id="a_node8"><a xlink:title="STL class. ">
<polygon fill="white" stroke="#bfbfbf" points="187.5,-271.5 187.5,-290.5 303.5,-290.5 303.5,-271.5 187.5,-271.5"/>
<text text-anchor="middle" x="245.5" y="-278.5" font-family="Helvetica,sans-Serif" font-size="10.00">std::basic_ios&lt; Char &gt;</text>
</a>
</g>
</g>
<!-- Node8&#45;&gt;Node7 -->
<g id="edge7" class="edge"><title>Node8&#45;&gt;Node7</title>
<path fill="none" stroke="midnightblue" d="M245.5,-261.215C245.5,-252.356 245.5,-241.958 245.5,-233.759"/>
<polygon fill="midnightblue" stroke="midnightblue" points="242,-261.332 245.5,-271.332 249,-261.332 242,-261.332"/>
</g>
<!-- Node9 -->
<g id="node9" class="node"><title>Node9</title>
<g id="a_node9"><a xlink:title="STL class. ">
<polygon fill="white" stroke="#bfbfbf" points="208,-328.5 208,-347.5 283,-347.5 283,-328.5 208,-328.5"/>
<text text-anchor="middle" x="245.5" y="-335.5" font-family="Helvetica,sans-Serif" font-size="10.00">std::ios_base</text>
</a>
</g>
</g>
<!-- Node9&#45;&gt;Node8 -->
<g id="edge8" class="edge"><title>Node9&#45;&gt;Node8</title>
<path fill="none" stroke="midnightblue" d="M245.5,-318.117C245.5,-308.817 245.5,-298.056 245.5,-290.715"/>
<polygon fill="midnightblue" stroke="midnightblue" points="242,-318.406 245.5,-328.406 249,-318.406 242,-318.406"/>
</g>
</g>
</svg>
