<?xml version="1.0" encoding="UTF-8" standalone="no"?>
<!DOCTYPE svg PUBLIC "-//W3C//DTD SVG 1.1//EN"
 "http://www.w3.org/Graphics/SVG/1.1/DTD/svg11.dtd">
<!-- Generated by graphviz version 2.38.0 (20140413.2041)
 -->
<!-- Title: gepetto::viewer::WindowManager Pages: 1 -->
<svg width="170pt" height="412pt"
 viewBox="0.00 0.00 170.00 412.00" xmlns="http://www.w3.org/2000/svg" xmlns:xlink="http://www.w3.org/1999/xlink">
<g id="graph0" class="graph" transform="scale(1 1) rotate(0) translate(4 408)">
<title>gepetto::viewer::WindowManager</title>
<polygon fill="white" stroke="none" points="-4,4 -4,-408 166,-408 166,4 -4,4"/>
<!-- Node1 -->
<g id="node1" class="node"><title>Node1</title>
<polygon fill="#bfbfbf" stroke="black" points="0,-0.5 0,-19.5 162,-19.5 162,-0.5 0,-0.5"/>
<text text-anchor="middle" x="81" y="-7.5" font-family="Helvetica,sans-Serif" font-size="10.00">gepetto::viewer::WindowManager</text>
</g>
<!-- Node2 -->
<g id="node2" class="node"><title>Node2</title>
<g id="a_node2"><a xlink:href="a00021.html" target="_top" xlink:title="gepetto::viewer::GroupNode">
<polygon fill="white" stroke="black" points="11.5,-57.5 11.5,-76.5 150.5,-76.5 150.5,-57.5 11.5,-57.5"/>
<text text-anchor="middle" x="81" y="-64.5" font-family="Helvetica,sans-Serif" font-size="10.00">gepetto::viewer::GroupNode</text>
</a>
</g>
</g>
<!-- Node2&#45;&gt;Node1 -->
<g id="edge1" class="edge"><title>Node2&#45;&gt;Node1</title>
<path fill="none" stroke="midnightblue" d="M81,-47.1166C81,-37.8173 81,-27.0557 81,-19.7149"/>
<polygon fill="midnightblue" stroke="midnightblue" points="77.5001,-47.4062 81,-57.4062 84.5001,-47.4063 77.5001,-47.4062"/>
</g>
<!-- Node3 -->
<g id="node3" class="node"><title>Node3</title>
<g id="a_node3"><a xlink:href="a00042.html" target="_top" xlink:title="Abstract base class of 3D objects in a scene. ">
<polygon fill="white" stroke="black" points="24.5,-114.5 24.5,-133.5 137.5,-133.5 137.5,-114.5 24.5,-114.5"/>
<text text-anchor="middle" x="81" y="-121.5" font-family="Helvetica,sans-Serif" font-size="10.00">gepetto::viewer::Node</text>
</a>
</g>
</g>
<!-- Node3&#45;&gt;Node2 -->
<g id="edge2" class="edge"><title>Node3&#45;&gt;Node2</title>
<path fill="none" stroke="midnightblue" d="M81,-104.117C81,-94.8173 81,-84.0557 81,-76.7149"/>
<polygon fill="midnightblue" stroke="midnightblue" points="77.5001,-104.406 81,-114.406 84.5001,-104.406 77.5001,-104.406"/>
</g>
<!-- Node4 -->
<g id="node4" class="node"><title>Node4</title>
<g id="a_node4"><a xlink:href="a00054.html" target="_top" xlink:title="gepetto::viewer::Properties">
<polygon fill="white" stroke="black" points="14,-171.5 14,-190.5 148,-190.5 148,-171.5 14,-171.5"/>
<text text-anchor="middle" x="81" y="-178.5" font-family="Helvetica,sans-Serif" font-size="10.00">gepetto::viewer::Properties</text>
</a>
</g>
</g>
<!-- Node4&#45;&gt;Node3 -->
<g id="edge3" class="edge"><title>Node4&#45;&gt;Node3</title>
<path fill="none" stroke="midnightblue" d="M81,-161.117C81,-151.817 81,-141.056 81,-133.715"/>
<polygon fill="midnightblue" stroke="midnightblue" points="77.5001,-161.406 81,-171.406 84.5001,-161.406 77.5001,-161.406"/>
</g>
<!-- Node5 -->
<g id="node5" class="node"><title>Node5</title>
<polygon fill="white" stroke="#bfbfbf" points="26,-238.5 26,-268.5 136,-268.5 136,-238.5 26,-238.5"/>
<text text-anchor="start" x="34" y="-256.5" font-family="Helvetica,sans-Serif" font-size="10.00">std::map&lt; std::string,</text>
<text text-anchor="middle" x="81" y="-245.5" font-family="Helvetica,sans-Serif" font-size="10.00"> PropertyPtr_t &gt;</text>
</g>
<!-- Node5&#45;&gt;Node4 -->
<g id="edge4" class="edge"><title>Node5&#45;&gt;Node4</title>
<path fill="none" stroke="#9a32cd" stroke-dasharray="5,2" d="M81,-228.091C81,-215.214 81,-200.197 81,-190.893"/>
<polygon fill="#9a32cd" stroke="#9a32cd" points="77.5001,-228.233 81,-238.233 84.5001,-228.233 77.5001,-228.233"/>
<text text-anchor="middle" x="107" y="-212" font-family="Helvetica,sans-Serif" font-size="10.00"> properties_</text>
</g>
<!-- Node6 -->
<g id="node6" class="node"><title>Node6</title>
<g id="a_node6"><a xlink:title="STL class. ">
<polygon fill="white" stroke="#bfbfbf" points="51,-316.5 51,-335.5 111,-335.5 111,-316.5 51,-316.5"/>
<text text-anchor="middle" x="81" y="-323.5" font-family="Helvetica,sans-Serif" font-size="10.00">std::string</text>
</a>
</g>
</g>
<!-- Node6&#45;&gt;Node5 -->
<g id="edge5" class="edge"><title>Node6&#45;&gt;Node5</title>
<path fill="none" stroke="#9a32cd" stroke-dasharray="5,2" d="M81,-306.236C81,-294.408 81,-279.383 81,-268.576"/>
<polygon fill="#9a32cd" stroke="#9a32cd" points="77.5001,-306.355 81,-316.355 84.5001,-306.355 77.5001,-306.355"/>
<text text-anchor="middle" x="93.5" y="-290" font-family="Helvetica,sans-Serif" font-size="10.00"> keys</text>
</g>
<!-- Node7 -->
<g id="node7" class="node"><title>Node7</title>
<g id="a_node7"><a xlink:title="STL class. ">
<polygon fill="white" stroke="#bfbfbf" points="33.5,-373.5 33.5,-403.5 128.5,-403.5 128.5,-373.5 33.5,-373.5"/>
<text text-anchor="start" x="41.5" y="-391.5" font-family="Helvetica,sans-Serif" font-size="10.00">std::basic_string&lt;</text>
<text text-anchor="middle" x="81" y="-380.5" font-family="Helvetica,sans-Serif" font-size="10.00"> char &gt;</text>
</a>
</g>
</g>
<!-- Node7&#45;&gt;Node6 -->
<g id="edge6" class="edge"><title>Node7&#45;&gt;Node6</title>
<path fill="none" stroke="midnightblue" d="M81,-363.352C81,-353.513 81,-342.775 81,-335.54"/>
<polygon fill="midnightblue" stroke="midnightblue" points="77.5001,-363.468 81,-373.468 84.5001,-363.468 77.5001,-363.468"/>
</g>
</g>
</svg>
