<?xml version="1.0" encoding="UTF-8" standalone="no"?>
<!DOCTYPE svg PUBLIC "-//W3C//DTD SVG 1.1//EN"
 "http://www.w3.org/Graphics/SVG/1.1/DTD/svg11.dtd">
<!-- Generated by graphviz version 2.38.0 (20140413.2041)
 -->
<!-- Title: gepetto::viewer::PropertyTpl&lt; T &gt; Pages: 1 -->
<svg width="134pt" height="231pt"
 viewBox="0.00 0.00 134.00 231.00" xmlns="http://www.w3.org/2000/svg" xmlns:xlink="http://www.w3.org/1999/xlink">
<g id="graph0" class="graph" transform="scale(1 1) rotate(0) translate(4 227)">
<title>gepetto::viewer::PropertyTpl&lt; T &gt;</title>
<polygon fill="white" stroke="none" points="-4,4 -4,-227 130,-227 130,4 -4,4"/>
<!-- Node1 -->
<g id="node1" class="node"><title>Node1</title>
<polygon fill="#bfbfbf" stroke="black" points="0,-0.5 0,-30.5 126,-30.5 126,-0.5 0,-0.5"/>
<text text-anchor="start" x="8" y="-18.5" font-family="Helvetica,sans-Serif" font-size="10.00">gepetto::viewer::Property</text>
<text text-anchor="middle" x="63" y="-7.5" font-family="Helvetica,sans-Serif" font-size="10.00">Tpl&lt; T &gt;</text>
</g>
<!-- Node2 -->
<g id="node2" class="node"><title>Node2</title>
<g id="a_node2"><a xlink:href="a00055.html" target="_top" xlink:title="Abstract base class for runtime properties of Node. ">
<polygon fill="white" stroke="black" points="0,-68.5 0,-87.5 126,-87.5 126,-68.5 0,-68.5"/>
<text text-anchor="middle" x="63" y="-75.5" font-family="Helvetica,sans-Serif" font-size="10.00">gepetto::viewer::Property</text>
</a>
</g>
</g>
<!-- Node2&#45;&gt;Node1 -->
<g id="edge1" class="edge"><title>Node2&#45;&gt;Node1</title>
<path fill="none" stroke="midnightblue" d="M63,-58.2154C63,-49.3565 63,-38.9577 63,-30.7587"/>
<polygon fill="midnightblue" stroke="midnightblue" points="59.5001,-58.3318 63,-68.3318 66.5001,-58.3319 59.5001,-58.3318"/>
</g>
<!-- Node3 -->
<g id="node3" class="node"><title>Node3</title>
<g id="a_node3"><a xlink:title="STL class. ">
<polygon fill="white" stroke="#bfbfbf" points="33,-135.5 33,-154.5 93,-154.5 93,-135.5 33,-135.5"/>
<text text-anchor="middle" x="63" y="-142.5" font-family="Helvetica,sans-Serif" font-size="10.00">std::string</text>
</a>
</g>
</g>
<!-- Node3&#45;&gt;Node2 -->
<g id="edge2" class="edge"><title>Node3&#45;&gt;Node2</title>
<path fill="none" stroke="#9a32cd" stroke-dasharray="5,2" d="M63,-125.037C63,-112.67 63,-97.1198 63,-87.6273"/>
<polygon fill="#9a32cd" stroke="#9a32cd" points="59.5001,-125.234 63,-135.234 66.5001,-125.234 59.5001,-125.234"/>
<text text-anchor="middle" x="79.5" y="-109" font-family="Helvetica,sans-Serif" font-size="10.00"> name_</text>
</g>
<!-- Node4 -->
<g id="node4" class="node"><title>Node4</title>
<g id="a_node4"><a xlink:title="STL class. ">
<polygon fill="white" stroke="#bfbfbf" points="15.5,-192.5 15.5,-222.5 110.5,-222.5 110.5,-192.5 15.5,-192.5"/>
<text text-anchor="start" x="23.5" y="-210.5" font-family="Helvetica,sans-Serif" font-size="10.00">std::basic_string&lt;</text>
<text text-anchor="middle" x="63" y="-199.5" font-family="Helvetica,sans-Serif" font-size="10.00"> char &gt;</text>
</a>
</g>
</g>
<!-- Node4&#45;&gt;Node3 -->
<g id="edge3" class="edge"><title>Node4&#45;&gt;Node3</title>
<path fill="none" stroke="midnightblue" d="M63,-182.352C63,-172.513 63,-161.775 63,-154.54"/>
<polygon fill="midnightblue" stroke="midnightblue" points="59.5001,-182.468 63,-192.468 66.5001,-182.468 59.5001,-182.468"/>
</g>
</g>
</svg>
