<?xml version="1.0" encoding="UTF-8" standalone="no"?>
<!DOCTYPE svg PUBLIC "-//W3C//DTD SVG 1.1//EN"
 "http://www.w3.org/Graphics/SVG/1.1/DTD/svg11.dtd">
<!-- Generated by graphviz version 2.38.0 (20140413.2041)
 -->
<!-- Title: gepetto::viewer::LeafNodeLine Pages: 1 -->
<svg width="162pt" height="412pt"
 viewBox="0.00 0.00 162.00 412.00" xmlns="http://www.w3.org/2000/svg" xmlns:xlink="http://www.w3.org/1999/xlink">
<g id="graph0" class="graph" transform="scale(1 1) rotate(0) translate(4 408)">
<title>gepetto::viewer::LeafNodeLine</title>
<polygon fill="white" stroke="none" points="-4,4 -4,-408 158,-408 158,4 -4,4"/>
<!-- Node1 -->
<g id="node1" class="node"><title>Node1</title>
<polygon fill="#bfbfbf" stroke="black" points="2.5,-0.5 2.5,-19.5 151.5,-19.5 151.5,-0.5 2.5,-0.5"/>
<text text-anchor="middle" x="77" y="-7.5" font-family="Helvetica,sans-Serif" font-size="10.00">gepetto::viewer::LeafNodeLine</text>
</g>
<!-- Node2 -->
<g id="node2" class="node"><title>Node2</title>
<g id="a_node2"><a xlink:href="a00046.html" target="_top" xlink:title="Implementation of the drawable object in OSG render engine. ">
<polygon fill="white" stroke="black" points="0,-57.5 0,-76.5 154,-76.5 154,-57.5 0,-57.5"/>
<text text-anchor="middle" x="77" y="-64.5" font-family="Helvetica,sans-Serif" font-size="10.00">gepetto::viewer::NodeDrawable</text>
</a>
</g>
</g>
<!-- Node2&#45;&gt;Node1 -->
<g id="edge1" class="edge"><title>Node2&#45;&gt;Node1</title>
<path fill="none" stroke="midnightblue" d="M77,-47.1166C77,-37.8173 77,-27.0557 77,-19.7149"/>
<polygon fill="midnightblue" stroke="midnightblue" points="73.5001,-47.4062 77,-57.4062 80.5001,-47.4063 73.5001,-47.4062"/>
</g>
<!-- Node3 -->
<g id="node3" class="node"><title>Node3</title>
<g id="a_node3"><a xlink:href="a00042.html" target="_top" xlink:title="Abstract base class of 3D objects in a scene. ">
<polygon fill="white" stroke="black" points="20.5,-114.5 20.5,-133.5 133.5,-133.5 133.5,-114.5 20.5,-114.5"/>
<text text-anchor="middle" x="77" y="-121.5" font-family="Helvetica,sans-Serif" font-size="10.00">gepetto::viewer::Node</text>
</a>
</g>
</g>
<!-- Node3&#45;&gt;Node2 -->
<g id="edge2" class="edge"><title>Node3&#45;&gt;Node2</title>
<path fill="none" stroke="midnightblue" d="M77,-104.117C77,-94.8173 77,-84.0557 77,-76.7149"/>
<polygon fill="midnightblue" stroke="midnightblue" points="73.5001,-104.406 77,-114.406 80.5001,-104.406 73.5001,-104.406"/>
</g>
<!-- Node4 -->
<g id="node4" class="node"><title>Node4</title>
<g id="a_node4"><a xlink:href="a00054.html" target="_top" xlink:title="gepetto::viewer::Properties">
<polygon fill="white" stroke="black" points="10,-171.5 10,-190.5 144,-190.5 144,-171.5 10,-171.5"/>
<text text-anchor="middle" x="77" y="-178.5" font-family="Helvetica,sans-Serif" font-size="10.00">gepetto::viewer::Properties</text>
</a>
</g>
</g>
<!-- Node4&#45;&gt;Node3 -->
<g id="edge3" class="edge"><title>Node4&#45;&gt;Node3</title>
<path fill="none" stroke="midnightblue" d="M77,-161.117C77,-151.817 77,-141.056 77,-133.715"/>
<polygon fill="midnightblue" stroke="midnightblue" points="73.5001,-161.406 77,-171.406 80.5001,-161.406 73.5001,-161.406"/>
</g>
<!-- Node5 -->
<g id="node5" class="node"><title>Node5</title>
<polygon fill="white" stroke="#bfbfbf" points="22,-238.5 22,-268.5 132,-268.5 132,-238.5 22,-238.5"/>
<text text-anchor="start" x="30" y="-256.5" font-family="Helvetica,sans-Serif" font-size="10.00">std::map&lt; std::string,</text>
<text text-anchor="middle" x="77" y="-245.5" font-family="Helvetica,sans-Serif" font-size="10.00"> PropertyPtr_t &gt;</text>
</g>
<!-- Node5&#45;&gt;Node4 -->
<g id="edge4" class="edge"><title>Node5&#45;&gt;Node4</title>
<path fill="none" stroke="#9a32cd" stroke-dasharray="5,2" d="M77,-228.091C77,-215.214 77,-200.197 77,-190.893"/>
<polygon fill="#9a32cd" stroke="#9a32cd" points="73.5001,-228.233 77,-238.233 80.5001,-228.233 73.5001,-228.233"/>
<text text-anchor="middle" x="103" y="-212" font-family="Helvetica,sans-Serif" font-size="10.00"> properties_</text>
</g>
<!-- Node6 -->
<g id="node6" class="node"><title>Node6</title>
<g id="a_node6"><a xlink:title="STL class. ">
<polygon fill="white" stroke="#bfbfbf" points="47,-316.5 47,-335.5 107,-335.5 107,-316.5 47,-316.5"/>
<text text-anchor="middle" x="77" y="-323.5" font-family="Helvetica,sans-Serif" font-size="10.00">std::string</text>
</a>
</g>
</g>
<!-- Node6&#45;&gt;Node5 -->
<g id="edge5" class="edge"><title>Node6&#45;&gt;Node5</title>
<path fill="none" stroke="#9a32cd" stroke-dasharray="5,2" d="M77,-306.236C77,-294.408 77,-279.383 77,-268.576"/>
<polygon fill="#9a32cd" stroke="#9a32cd" points="73.5001,-306.355 77,-316.355 80.5001,-306.355 73.5001,-306.355"/>
<text text-anchor="middle" x="89.5" y="-290" font-family="Helvetica,sans-Serif" font-size="10.00"> keys</text>
</g>
<!-- Node7 -->
<g id="node7" class="node"><title>Node7</title>
<g id="a_node7"><a xlink:title="STL class. ">
<polygon fill="white" stroke="#bfbfbf" points="29.5,-373.5 29.5,-403.5 124.5,-403.5 124.5,-373.5 29.5,-373.5"/>
<text text-anchor="start" x="37.5" y="-391.5" font-family="Helvetica,sans-Serif" font-size="10.00">std::basic_string&lt;</text>
<text text-anchor="middle" x="77" y="-380.5" font-family="Helvetica,sans-Serif" font-size="10.00"> char &gt;</text>
</a>
</g>
</g>
<!-- Node7&#45;&gt;Node6 -->
<g id="edge6" class="edge"><title>Node7&#45;&gt;Node6</title>
<path fill="none" stroke="midnightblue" d="M77,-363.352C77,-353.513 77,-342.775 77,-335.54"/>
<polygon fill="midnightblue" stroke="midnightblue" points="73.5001,-363.468 77,-373.468 80.5001,-363.468 73.5001,-363.468"/>
</g>
</g>
</svg>
