<?xml version="1.0" encoding="UTF-8" standalone="no"?>
<!DOCTYPE svg PUBLIC "-//W3C//DTD SVG 1.1//EN"
 "http://www.w3.org/Graphics/SVG/1.1/DTD/svg11.dtd">
<!-- Generated by graphviz version 2.38.0 (20140413.2041)
 -->
<!-- Title: gepetto::viewer::GroupNode Pages: 1 -->
<svg width="147pt" height="355pt"
 viewBox="0.00 0.00 147.00 355.00" xmlns="http://www.w3.org/2000/svg" xmlns:xlink="http://www.w3.org/1999/xlink">
<g id="graph0" class="graph" transform="scale(1 1) rotate(0) translate(4 351)">
<title>gepetto::viewer::GroupNode</title>
<polygon fill="white" stroke="none" points="-4,4 -4,-351 143,-351 143,4 -4,4"/>
<!-- Node1 -->
<g id="node1" class="node"><title>Node1</title>
<polygon fill="#bfbfbf" stroke="black" points="0,-0.5 0,-19.5 139,-19.5 139,-0.5 0,-0.5"/>
<text text-anchor="middle" x="69.5" y="-7.5" font-family="Helvetica,sans-Serif" font-size="10.00">gepetto::viewer::GroupNode</text>
</g>
<!-- Node2 -->
<g id="node2" class="node"><title>Node2</title>
<g id="a_node2"><a xlink:href="a00042.html" target="_top" xlink:title="Abstract base class of 3D objects in a scene. ">
<polygon fill="white" stroke="black" points="13,-57.5 13,-76.5 126,-76.5 126,-57.5 13,-57.5"/>
<text text-anchor="middle" x="69.5" y="-64.5" font-family="Helvetica,sans-Serif" font-size="10.00">gepetto::viewer::Node</text>
</a>
</g>
</g>
<!-- Node2&#45;&gt;Node1 -->
<g id="edge1" class="edge"><title>Node2&#45;&gt;Node1</title>
<path fill="none" stroke="midnightblue" d="M69.5,-47.1166C69.5,-37.8173 69.5,-27.0557 69.5,-19.7149"/>
<polygon fill="midnightblue" stroke="midnightblue" points="66.0001,-47.4062 69.5,-57.4062 73.0001,-47.4063 66.0001,-47.4062"/>
</g>
<!-- Node3 -->
<g id="node3" class="node"><title>Node3</title>
<g id="a_node3"><a xlink:href="a00054.html" target="_top" xlink:title="gepetto::viewer::Properties">
<polygon fill="white" stroke="black" points="2.5,-114.5 2.5,-133.5 136.5,-133.5 136.5,-114.5 2.5,-114.5"/>
<text text-anchor="middle" x="69.5" y="-121.5" font-family="Helvetica,sans-Serif" font-size="10.00">gepetto::viewer::Properties</text>
</a>
</g>
</g>
<!-- Node3&#45;&gt;Node2 -->
<g id="edge2" class="edge"><title>Node3&#45;&gt;Node2</title>
<path fill="none" stroke="midnightblue" d="M69.5,-104.117C69.5,-94.8173 69.5,-84.0557 69.5,-76.7149"/>
<polygon fill="midnightblue" stroke="midnightblue" points="66.0001,-104.406 69.5,-114.406 73.0001,-104.406 66.0001,-104.406"/>
</g>
<!-- Node4 -->
<g id="node4" class="node"><title>Node4</title>
<polygon fill="white" stroke="#bfbfbf" points="14.5,-181.5 14.5,-211.5 124.5,-211.5 124.5,-181.5 14.5,-181.5"/>
<text text-anchor="start" x="22.5" y="-199.5" font-family="Helvetica,sans-Serif" font-size="10.00">std::map&lt; std::string,</text>
<text text-anchor="middle" x="69.5" y="-188.5" font-family="Helvetica,sans-Serif" font-size="10.00"> PropertyPtr_t &gt;</text>
</g>
<!-- Node4&#45;&gt;Node3 -->
<g id="edge3" class="edge"><title>Node4&#45;&gt;Node3</title>
<path fill="none" stroke="#9a32cd" stroke-dasharray="5,2" d="M69.5,-171.091C69.5,-158.214 69.5,-143.197 69.5,-133.893"/>
<polygon fill="#9a32cd" stroke="#9a32cd" points="66.0001,-171.233 69.5,-181.233 73.0001,-171.233 66.0001,-171.233"/>
<text text-anchor="middle" x="95.5" y="-155" font-family="Helvetica,sans-Serif" font-size="10.00"> properties_</text>
</g>
<!-- Node5 -->
<g id="node5" class="node"><title>Node5</title>
<g id="a_node5"><a xlink:title="STL class. ">
<polygon fill="white" stroke="#bfbfbf" points="39.5,-259.5 39.5,-278.5 99.5,-278.5 99.5,-259.5 39.5,-259.5"/>
<text text-anchor="middle" x="69.5" y="-266.5" font-family="Helvetica,sans-Serif" font-size="10.00">std::string</text>
</a>
</g>
</g>
<!-- Node5&#45;&gt;Node4 -->
<g id="edge4" class="edge"><title>Node5&#45;&gt;Node4</title>
<path fill="none" stroke="#9a32cd" stroke-dasharray="5,2" d="M69.5,-249.236C69.5,-237.408 69.5,-222.383 69.5,-211.576"/>
<polygon fill="#9a32cd" stroke="#9a32cd" points="66.0001,-249.355 69.5,-259.355 73.0001,-249.355 66.0001,-249.355"/>
<text text-anchor="middle" x="82" y="-233" font-family="Helvetica,sans-Serif" font-size="10.00"> keys</text>
</g>
<!-- Node6 -->
<g id="node6" class="node"><title>Node6</title>
<g id="a_node6"><a xlink:title="STL class. ">
<polygon fill="white" stroke="#bfbfbf" points="22,-316.5 22,-346.5 117,-346.5 117,-316.5 22,-316.5"/>
<text text-anchor="start" x="30" y="-334.5" font-family="Helvetica,sans-Serif" font-size="10.00">std::basic_string&lt;</text>
<text text-anchor="middle" x="69.5" y="-323.5" font-family="Helvetica,sans-Serif" font-size="10.00"> char &gt;</text>
</a>
</g>
</g>
<!-- Node6&#45;&gt;Node5 -->
<g id="edge5" class="edge"><title>Node6&#45;&gt;Node5</title>
<path fill="none" stroke="midnightblue" d="M69.5,-306.352C69.5,-296.513 69.5,-285.775 69.5,-278.54"/>
<polygon fill="midnightblue" stroke="midnightblue" points="66.0001,-306.468 69.5,-316.468 73.0001,-306.468 66.0001,-306.468"/>
</g>
</g>
</svg>
