<?xml version="1.0" encoding="UTF-8" standalone="no"?>
<!DOCTYPE svg PUBLIC "-//W3C//DTD SVG 1.1//EN"
 "http://www.w3.org/Graphics/SVG/1.1/DTD/svg11.dtd">
<!-- Generated by graphviz version 2.38.0 (20140413.2041)
 -->
<!-- Title: gepetto::viewer::BasicTransformWriter Pages: 1 -->
<svg width="312pt" height="424pt"
 viewBox="0.00 0.00 311.50 424.00" xmlns="http://www.w3.org/2000/svg" xmlns:xlink="http://www.w3.org/1999/xlink">
<g id="graph0" class="graph" transform="scale(1 1) rotate(0) translate(4 420)">
<title>gepetto::viewer::BasicTransformWriter</title>
<polygon fill="white" stroke="none" points="-4,4 -4,-420 307.5,-420 307.5,4 -4,4"/>
<!-- Node1 -->
<g id="node1" class="node"><title>Node1</title>
<polygon fill="#bfbfbf" stroke="black" points="57.5,-0.5 57.5,-30.5 215.5,-30.5 215.5,-0.5 57.5,-0.5"/>
<text text-anchor="start" x="65.5" y="-18.5" font-family="Helvetica,sans-Serif" font-size="10.00">gepetto::viewer::BasicTransform</text>
<text text-anchor="middle" x="136.5" y="-7.5" font-family="Helvetica,sans-Serif" font-size="10.00">Writer</text>
</g>
<!-- Node2 -->
<g id="node2" class="node"><title>Node2</title>
<g id="a_node2"><a xlink:href="a00068.html" target="_top" xlink:title="gepetto::viewer::Transform\lWriter">
<polygon fill="white" stroke="black" points="69.5,-68.5 69.5,-98.5 203.5,-98.5 203.5,-68.5 69.5,-68.5"/>
<text text-anchor="start" x="77.5" y="-86.5" font-family="Helvetica,sans-Serif" font-size="10.00">gepetto::viewer::Transform</text>
<text text-anchor="middle" x="136.5" y="-75.5" font-family="Helvetica,sans-Serif" font-size="10.00">Writer</text>
</a>
</g>
</g>
<!-- Node2&#45;&gt;Node1 -->
<g id="edge1" class="edge"><title>Node2&#45;&gt;Node1</title>
<path fill="none" stroke="midnightblue" d="M136.5,-58.0322C136.5,-48.8606 136.5,-38.7449 136.5,-30.7931"/>
<polygon fill="midnightblue" stroke="midnightblue" points="133,-58.1789 136.5,-68.179 140,-58.179 133,-58.1789"/>
</g>
<!-- Node3 -->
<g id="node3" class="node"><title>Node3</title>
<polygon fill="white" stroke="#bfbfbf" points="-7.10543e-15,-146.5 -7.10543e-15,-165.5 89,-165.5 89,-146.5 -7.10543e-15,-146.5"/>
<text text-anchor="middle" x="44.5" y="-153.5" font-family="Helvetica,sans-Serif" font-size="10.00">osg::Referenced</text>
</g>
<!-- Node3&#45;&gt;Node2 -->
<g id="edge2" class="edge"><title>Node3&#45;&gt;Node2</title>
<path fill="none" stroke="midnightblue" d="M63.9098,-140.126C79.9039,-127.87 102.429,-110.608 118.131,-98.5762"/>
<polygon fill="midnightblue" stroke="midnightblue" points="61.5896,-137.495 55.781,-146.355 65.8474,-143.051 61.5896,-137.495"/>
</g>
<!-- Node4 -->
<g id="node4" class="node"><title>Node4</title>
<g id="a_node4"><a xlink:title="STL class. ">
<polygon fill="white" stroke="#bfbfbf" points="106.5,-146.5 106.5,-165.5 166.5,-165.5 166.5,-146.5 106.5,-146.5"/>
<text text-anchor="middle" x="136.5" y="-153.5" font-family="Helvetica,sans-Serif" font-size="10.00">std::string</text>
</a>
</g>
</g>
<!-- Node4&#45;&gt;Node2 -->
<g id="edge3" class="edge"><title>Node4&#45;&gt;Node2</title>
<path fill="none" stroke="#9a32cd" stroke-dasharray="5,2" d="M136.5,-136.236C136.5,-124.408 136.5,-109.383 136.5,-98.5762"/>
<polygon fill="#9a32cd" stroke="#9a32cd" points="133,-136.355 136.5,-146.355 140,-136.355 133,-136.355"/>
<text text-anchor="middle" x="159.5" y="-120" font-family="Helvetica,sans-Serif" font-size="10.00"> filename_</text>
</g>
<!-- Node5 -->
<g id="node5" class="node"><title>Node5</title>
<g id="a_node5"><a xlink:title="STL class. ">
<polygon fill="white" stroke="#bfbfbf" points="81,-203.5 81,-233.5 176,-233.5 176,-203.5 81,-203.5"/>
<text text-anchor="start" x="89" y="-221.5" font-family="Helvetica,sans-Serif" font-size="10.00">std::basic_string&lt;</text>
<text text-anchor="middle" x="128.5" y="-210.5" font-family="Helvetica,sans-Serif" font-size="10.00"> char &gt;</text>
</a>
</g>
</g>
<!-- Node5&#45;&gt;Node4 -->
<g id="edge4" class="edge"><title>Node5&#45;&gt;Node4</title>
<path fill="none" stroke="midnightblue" d="M131.693,-193.352C132.994,-183.513 134.414,-172.775 135.371,-165.54"/>
<polygon fill="midnightblue" stroke="midnightblue" points="128.197,-193.095 130.355,-203.468 135.136,-194.013 128.197,-193.095"/>
</g>
<!-- Node6 -->
<g id="node6" class="node"><title>Node6</title>
<g id="a_node6"><a xlink:title="STL class. ">
<polygon fill="white" stroke="#bfbfbf" points="188.5,-146.5 188.5,-165.5 262.5,-165.5 262.5,-146.5 188.5,-146.5"/>
<text text-anchor="middle" x="225.5" y="-153.5" font-family="Helvetica,sans-Serif" font-size="10.00">std::ofstream</text>
</a>
</g>
</g>
<!-- Node6&#45;&gt;Node2 -->
<g id="edge5" class="edge"><title>Node6&#45;&gt;Node2</title>
<path fill="none" stroke="#9a32cd" stroke-dasharray="5,2" d="M210.236,-138.755C203.288,-131.729 194.779,-123.619 186.5,-117 178.332,-110.471 168.827,-104.034 160.31,-98.6344"/>
<polygon fill="#9a32cd" stroke="#9a32cd" points="208.105,-141.587 217.569,-146.35 213.141,-136.725 208.105,-141.587"/>
<text text-anchor="middle" x="209.5" y="-120" font-family="Helvetica,sans-Serif" font-size="10.00"> file_</text>
</g>
<!-- Node7 -->
<g id="node7" class="node"><title>Node7</title>
<g id="a_node7"><a xlink:title="STL class. ">
<polygon fill="white" stroke="#bfbfbf" points="194,-203.5 194,-233.5 297,-233.5 297,-203.5 194,-203.5"/>
<text text-anchor="start" x="202" y="-221.5" font-family="Helvetica,sans-Serif" font-size="10.00">std::basic_ofstream</text>
<text text-anchor="middle" x="245.5" y="-210.5" font-family="Helvetica,sans-Serif" font-size="10.00">&lt; char &gt;</text>
</a>
</g>
</g>
<!-- Node7&#45;&gt;Node6 -->
<g id="edge6" class="edge"><title>Node7&#45;&gt;Node6</title>
<path fill="none" stroke="midnightblue" d="M237.621,-193.666C234.34,-183.742 230.74,-172.852 228.323,-165.54"/>
<polygon fill="midnightblue" stroke="midnightblue" points="234.399,-195.072 240.861,-203.468 241.046,-192.875 234.399,-195.072"/>
</g>
<!-- Node8 -->
<g id="node8" class="node"><title>Node8</title>
<g id="a_node8"><a xlink:title="STL class. ">
<polygon fill="white" stroke="#bfbfbf" points="195.5,-271.5 195.5,-301.5 295.5,-301.5 295.5,-271.5 195.5,-271.5"/>
<text text-anchor="start" x="203.5" y="-289.5" font-family="Helvetica,sans-Serif" font-size="10.00">std::basic_ostream</text>
<text text-anchor="middle" x="245.5" y="-278.5" font-family="Helvetica,sans-Serif" font-size="10.00">&lt; Char &gt;</text>
</a>
</g>
</g>
<!-- Node8&#45;&gt;Node7 -->
<g id="edge7" class="edge"><title>Node8&#45;&gt;Node7</title>
<path fill="none" stroke="midnightblue" d="M245.5,-261.032C245.5,-251.861 245.5,-241.745 245.5,-233.793"/>
<polygon fill="midnightblue" stroke="midnightblue" points="242,-261.179 245.5,-271.179 249,-261.179 242,-261.179"/>
</g>
<!-- Node9 -->
<g id="node9" class="node"><title>Node9</title>
<g id="a_node9"><a xlink:title="STL class. ">
<polygon fill="white" stroke="#bfbfbf" points="187.5,-339.5 187.5,-358.5 303.5,-358.5 303.5,-339.5 187.5,-339.5"/>
<text text-anchor="middle" x="245.5" y="-346.5" font-family="Helvetica,sans-Serif" font-size="10.00">std::basic_ios&lt; Char &gt;</text>
</a>
</g>
</g>
<!-- Node9&#45;&gt;Node8 -->
<g id="edge8" class="edge"><title>Node9&#45;&gt;Node8</title>
<path fill="none" stroke="midnightblue" d="M245.5,-329.215C245.5,-320.356 245.5,-309.958 245.5,-301.759"/>
<polygon fill="midnightblue" stroke="midnightblue" points="242,-329.332 245.5,-339.332 249,-329.332 242,-329.332"/>
</g>
<!-- Node10 -->
<g id="node10" class="node"><title>Node10</title>
<g id="a_node10"><a xlink:title="STL class. ">
<polygon fill="white" stroke="#bfbfbf" points="208,-396.5 208,-415.5 283,-415.5 283,-396.5 208,-396.5"/>
<text text-anchor="middle" x="245.5" y="-403.5" font-family="Helvetica,sans-Serif" font-size="10.00">std::ios_base</text>
</a>
</g>
</g>
<!-- Node10&#45;&gt;Node9 -->
<g id="edge9" class="edge"><title>Node10&#45;&gt;Node9</title>
<path fill="none" stroke="midnightblue" d="M245.5,-386.117C245.5,-376.817 245.5,-366.056 245.5,-358.715"/>
<polygon fill="midnightblue" stroke="midnightblue" points="242,-386.406 245.5,-396.406 249,-386.406 242,-386.406"/>
</g>
</g>
</svg>
