<?xml version="1.0" encoding="UTF-8" standalone="no"?>
<!DOCTYPE svg PUBLIC "-//W3C//DTD SVG 1.1//EN"
 "http://www.w3.org/Graphics/SVG/1.1/DTD/svg11.dtd">
<!-- Generated by graphviz version 2.38.0 (20140413.2041)
 -->
<!-- Title: Graphical Class Hierarchy Pages: 1 -->
<svg width="234pt" height="225pt"
 viewBox="0.00 0.00 234.00 224.50" xmlns="http://www.w3.org/2000/svg" xmlns:xlink="http://www.w3.org/1999/xlink">
<g id="graph0" class="graph" transform="scale(1 1) rotate(0) translate(4 220.5)">
<title>Graphical Class Hierarchy</title>
<polygon fill="white" stroke="none" points="-4,4 -4,-220.5 230,-220.5 230,4 -4,4"/>
<!-- Node1 -->
<g id="node1" class="node"><title>Node1</title>
<polygon fill="white" stroke="#bfbfbf" points="0,-93.5 0,-112.5 52,-112.5 52,-93.5 0,-93.5"/>
<text text-anchor="middle" x="26" y="-100.5" font-family="Helvetica,sans-Serif" font-size="10.00">QDialog</text>
</g>
<!-- Node2 -->
<g id="node2" class="node"><title>Node2</title>
<g id="a_node2"><a xlink:href="a00015.html" target="_top" xlink:title="gepetto::gui::Configuration\lDialog">
<polygon fill="white" stroke="black" points="91.5,-186 91.5,-216 222.5,-216 222.5,-186 91.5,-186"/>
<text text-anchor="start" x="99.5" y="-204" font-family="Helvetica,sans-Serif" font-size="10.00">gepetto::gui::Configuration</text>
<text text-anchor="middle" x="157" y="-193" font-family="Helvetica,sans-Serif" font-size="10.00">Dialog</text>
</a>
</g>
</g>
<!-- Node1&#45;&gt;Node2 -->
<g id="edge1" class="edge"><title>Node1&#45;&gt;Node2</title>
<path fill="none" stroke="midnightblue" d="M38.0163,-121.404C48.8395,-138.051 66.7866,-162.163 88,-177 92.8217,-180.372 98.165,-183.316 103.676,-185.873"/>
<polygon fill="midnightblue" stroke="midnightblue" points="40.7709,-119.208 32.4962,-112.591 34.8387,-122.924 40.7709,-119.208"/>
</g>
<!-- Node3 -->
<g id="node3" class="node"><title>Node3</title>
<g id="a_node3"><a xlink:href="a00017.html" target="_top" xlink:title="gepetto::gui::DialogLoad\lEnvironment">
<polygon fill="white" stroke="black" points="96,-137 96,-167 218,-167 218,-137 96,-137"/>
<text text-anchor="start" x="104" y="-155" font-family="Helvetica,sans-Serif" font-size="10.00">gepetto::gui::DialogLoad</text>
<text text-anchor="middle" x="157" y="-144" font-family="Helvetica,sans-Serif" font-size="10.00">Environment</text>
</a>
</g>
</g>
<!-- Node1&#45;&gt;Node3 -->
<g id="edge2" class="edge"><title>Node1&#45;&gt;Node3</title>
<path fill="none" stroke="midnightblue" d="M58.8367,-116.397C68.1943,-120.24 78.475,-124.37 88,-128 95.838,-130.987 104.231,-134.055 112.352,-136.956"/>
<polygon fill="midnightblue" stroke="midnightblue" points="60.068,-113.119 49.4896,-112.529 57.3916,-119.587 60.068,-113.119"/>
</g>
<!-- Node4 -->
<g id="node4" class="node"><title>Node4</title>
<g id="a_node4"><a xlink:href="a00018.html" target="_top" xlink:title="gepetto::gui::DialogLoad\lRobot">
<polygon fill="white" stroke="black" points="96,-88 96,-118 218,-118 218,-88 96,-88"/>
<text text-anchor="start" x="104" y="-106" font-family="Helvetica,sans-Serif" font-size="10.00">gepetto::gui::DialogLoad</text>
<text text-anchor="middle" x="157" y="-95" font-family="Helvetica,sans-Serif" font-size="10.00">Robot</text>
</a>
</g>
</g>
<!-- Node1&#45;&gt;Node4 -->
<g id="edge3" class="edge"><title>Node1&#45;&gt;Node4</title>
<path fill="none" stroke="midnightblue" d="M62.4548,-103C72.8127,-103 84.4337,-103 95.8705,-103"/>
<polygon fill="midnightblue" stroke="midnightblue" points="62.1788,-99.5001 52.1787,-103 62.1787,-106.5 62.1788,-99.5001"/>
</g>
<!-- Node5 -->
<g id="node5" class="node"><title>Node5</title>
<g id="a_node5"><a xlink:href="a00053.html" target="_top" xlink:title="gepetto::gui::PluginManager\lDialog">
<polygon fill="white" stroke="black" points="88,-39 88,-69 226,-69 226,-39 88,-39"/>
<text text-anchor="start" x="96" y="-57" font-family="Helvetica,sans-Serif" font-size="10.00">gepetto::gui::PluginManager</text>
<text text-anchor="middle" x="157" y="-46" font-family="Helvetica,sans-Serif" font-size="10.00">Dialog</text>
</a>
</g>
</g>
<!-- Node1&#45;&gt;Node5 -->
<g id="edge4" class="edge"><title>Node1&#45;&gt;Node5</title>
<path fill="none" stroke="midnightblue" d="M60.3631,-89.7168C69.3224,-86.1926 79.0171,-82.4179 88,-79 96.5818,-75.7347 105.799,-72.2988 114.591,-69.0551"/>
<polygon fill="midnightblue" stroke="midnightblue" points="59.0146,-86.4862 50.9984,-93.4138 61.585,-92.9972 59.0146,-86.4862"/>
</g>
<!-- Node6 -->
<g id="node6" class="node"><title>Node6</title>
<g id="a_node6"><a xlink:href="a00071.html" target="_top" xlink:title="gepetto::gui::Vector3Dialog">
<polygon fill="white" stroke="black" points="89.5,-0.5 89.5,-19.5 224.5,-19.5 224.5,-0.5 89.5,-0.5"/>
<text text-anchor="middle" x="157" y="-7.5" font-family="Helvetica,sans-Serif" font-size="10.00">gepetto::gui::Vector3Dialog</text>
</a>
</g>
</g>
<!-- Node1&#45;&gt;Node6 -->
<g id="edge5" class="edge"><title>Node1&#45;&gt;Node6</title>
<path fill="none" stroke="midnightblue" d="M37.8955,-84.5879C48.6343,-67.9865 66.5253,-44.0812 88,-30 94.586,-25.6815 102.129,-22.2722 109.739,-19.5875"/>
<polygon fill="midnightblue" stroke="midnightblue" points="34.7316,-83.0481 32.4261,-93.389 40.6771,-86.7429 34.7316,-83.0481"/>
</g>
</g>
</svg>
