<?xml version="1.0" encoding="UTF-8" standalone="no"?>
<!DOCTYPE svg PUBLIC "-//W3C//DTD SVG 1.1//EN"
 "http://www.w3.org/Graphics/SVG/1.1/DTD/svg11.dtd">
<!-- Generated by graphviz version 2.38.0 (20140413.2041)
 -->
<!-- Title: Graphical Class Hierarchy Pages: 1 -->
<svg width="445pt" height="186pt"
 viewBox="0.00 0.00 445.00 186.00" xmlns="http://www.w3.org/2000/svg" xmlns:xlink="http://www.w3.org/1999/xlink">
<g id="graph0" class="graph" transform="scale(1 1) rotate(0) translate(4 182)">
<title>Graphical Class Hierarchy</title>
<polygon fill="white" stroke="none" points="-4,4 -4,-182 441,-182 441,4 -4,4"/>
<!-- Node1 -->
<g id="node1" class="node"><title>Node1</title>
<polygon fill="white" stroke="#bfbfbf" points="0,-79 0,-98 67,-98 67,-79 0,-79"/>
<text text-anchor="middle" x="33.5" y="-86" font-family="Helvetica,sans-Serif" font-size="10.00">Referenced</text>
</g>
<!-- Node2 -->
<g id="node2" class="node"><title>Node2</title>
<g id="a_node2"><a xlink:href="a00048.html" target="_top" xlink:title="gepetto::viewer::NodeVisitor">
<polygon fill="white" stroke="black" points="103,-104 103,-123 243,-123 243,-104 103,-104"/>
<text text-anchor="middle" x="173" y="-111" font-family="Helvetica,sans-Serif" font-size="10.00">gepetto::viewer::NodeVisitor</text>
</a>
</g>
</g>
<!-- Node1&#45;&gt;Node2 -->
<g id="edge1" class="edge"><title>Node1&#45;&gt;Node2</title>
<path fill="none" stroke="midnightblue" d="M77.0095,-96.229C90.4427,-98.6714 105.448,-101.4 119.495,-103.954"/>
<polygon fill="midnightblue" stroke="midnightblue" points="77.5504,-92.77 67.0856,-94.4247 76.2982,-99.6571 77.5504,-92.77"/>
</g>
<!-- Node5 -->
<g id="node5" class="node"><title>Node5</title>
<g id="a_node5"><a xlink:href="a00068.html" target="_top" xlink:title="gepetto::viewer::Transform\lWriter">
<polygon fill="white" stroke="black" points="106,-49.5 106,-79.5 240,-79.5 240,-49.5 106,-49.5"/>
<text text-anchor="start" x="114" y="-67.5" font-family="Helvetica,sans-Serif" font-size="10.00">gepetto::viewer::Transform</text>
<text text-anchor="middle" x="173" y="-56.5" font-family="Helvetica,sans-Serif" font-size="10.00">Writer</text>
</a>
</g>
</g>
<!-- Node1&#45;&gt;Node5 -->
<g id="edge4" class="edge"><title>Node1&#45;&gt;Node5</title>
<path fill="none" stroke="midnightblue" d="M77.0557,-81.0721C86.1974,-79.4765 96.0657,-77.754 105.863,-76.0439"/>
<polygon fill="midnightblue" stroke="midnightblue" points="76.3348,-77.6449 67.0856,-82.8123 77.5385,-84.5407 76.3348,-77.6449"/>
</g>
<!-- Node3 -->
<g id="node3" class="node"><title>Node3</title>
<g id="a_node3"><a xlink:href="a00010.html" target="_top" xlink:title="gepetto::viewer::Blender\lGeomWriterVisitor">
<polygon fill="white" stroke="black" points="297,-147.5 297,-177.5 419,-177.5 419,-147.5 297,-147.5"/>
<text text-anchor="start" x="305" y="-165.5" font-family="Helvetica,sans-Serif" font-size="10.00">gepetto::viewer::Blender</text>
<text text-anchor="middle" x="358" y="-154.5" font-family="Helvetica,sans-Serif" font-size="10.00">GeomWriterVisitor</text>
</a>
</g>
</g>
<!-- Node2&#45;&gt;Node3 -->
<g id="edge2" class="edge"><title>Node2&#45;&gt;Node3</title>
<path fill="none" stroke="midnightblue" d="M219.524,-125.69C244.141,-132.281 274.755,-140.478 300.842,-147.463"/>
<polygon fill="midnightblue" stroke="midnightblue" points="220.284,-122.27 209.719,-123.064 218.473,-129.031 220.284,-122.27"/>
</g>
<!-- Node4 -->
<g id="node4" class="node"><title>Node4</title>
<g id="a_node4"><a xlink:href="a00069.html" target="_top" xlink:title="gepetto::viewer::Transform\lWriterVisitor">
<polygon fill="white" stroke="black" points="291,-98.5 291,-128.5 425,-128.5 425,-98.5 291,-98.5"/>
<text text-anchor="start" x="299" y="-116.5" font-family="Helvetica,sans-Serif" font-size="10.00">gepetto::viewer::Transform</text>
<text text-anchor="middle" x="358" y="-105.5" font-family="Helvetica,sans-Serif" font-size="10.00">WriterVisitor</text>
</a>
</g>
</g>
<!-- Node2&#45;&gt;Node4 -->
<g id="edge3" class="edge"><title>Node2&#45;&gt;Node4</title>
<path fill="none" stroke="midnightblue" d="M253.525,-113.5C265.944,-113.5 278.662,-113.5 290.743,-113.5"/>
<polygon fill="midnightblue" stroke="midnightblue" points="253.184,-110 243.184,-113.5 253.184,-117 253.184,-110"/>
</g>
<!-- Node6 -->
<g id="node6" class="node"><title>Node6</title>
<g id="a_node6"><a xlink:href="a00008.html" target="_top" xlink:title="gepetto::viewer::BasicTransform\lWriter">
<polygon fill="white" stroke="black" points="279,-49.5 279,-79.5 437,-79.5 437,-49.5 279,-49.5"/>
<text text-anchor="start" x="287" y="-67.5" font-family="Helvetica,sans-Serif" font-size="10.00">gepetto::viewer::BasicTransform</text>
<text text-anchor="middle" x="358" y="-56.5" font-family="Helvetica,sans-Serif" font-size="10.00">Writer</text>
</a>
</g>
</g>
<!-- Node5&#45;&gt;Node6 -->
<g id="edge5" class="edge"><title>Node5&#45;&gt;Node6</title>
<path fill="none" stroke="midnightblue" d="M250.23,-64.5C259.695,-64.5 269.384,-64.5 278.877,-64.5"/>
<polygon fill="midnightblue" stroke="midnightblue" points="250.067,-61.0001 240.067,-64.5 250.067,-68.0001 250.067,-61.0001"/>
</g>
<!-- Node7 -->
<g id="node7" class="node"><title>Node7</title>
<g id="a_node7"><a xlink:href="a00075.html" target="_top" xlink:title="gepetto::viewer::YamlTransform\lWriter">
<polygon fill="white" stroke="black" points="280,-0.5 280,-30.5 436,-30.5 436,-0.5 280,-0.5"/>
<text text-anchor="start" x="288" y="-18.5" font-family="Helvetica,sans-Serif" font-size="10.00">gepetto::viewer::YamlTransform</text>
<text text-anchor="middle" x="358" y="-7.5" font-family="Helvetica,sans-Serif" font-size="10.00">Writer</text>
</a>
</g>
</g>
<!-- Node5&#45;&gt;Node7 -->
<g id="edge6" class="edge"><title>Node5&#45;&gt;Node7</title>
<path fill="none" stroke="midnightblue" d="M240.285,-46.7515C260.119,-41.4409 281.667,-35.6712 300.787,-30.5516"/>
<polygon fill="midnightblue" stroke="midnightblue" points="239.154,-43.4311 230.399,-49.3986 240.964,-50.1929 239.154,-43.4311"/>
</g>
</g>
</svg>
