<?xml version="1.0" encoding="UTF-8" standalone="no"?>
<!DOCTYPE svg PUBLIC "-//W3C//DTD SVG 1.1//EN"
 "http://www.w3.org/Graphics/SVG/1.1/DTD/svg11.dtd">
<!-- Generated by graphviz version 2.38.0 (20140413.2041)
 -->
<!-- Title: Graphical Class Hierarchy Pages: 1 -->
<svg width="320pt" height="78pt"
 viewBox="0.00 0.00 320.00 77.50" xmlns="http://www.w3.org/2000/svg" xmlns:xlink="http://www.w3.org/1999/xlink">
<g id="graph0" class="graph" transform="scale(1 1) rotate(0) translate(4 73.5)">
<title>Graphical Class Hierarchy</title>
<polygon fill="white" stroke="none" points="-4,4 -4,-73.5 316,-73.5 316,4 -4,4"/>
<!-- Node1 -->
<g id="node1" class="node"><title>Node1</title>
<polygon fill="white" stroke="#bfbfbf" points="31,-50 31,-69 103,-69 103,-50 31,-50"/>
<text text-anchor="middle" x="67" y="-57" font-family="Helvetica,sans-Serif" font-size="10.00">QApplication</text>
</g>
<!-- Node2 -->
<g id="node2" class="node"><title>Node2</title>
<g id="a_node2"><a xlink:href="a00061.html" target="_top" xlink:title="gepetto::gui::SafeApplication">
<polygon fill="white" stroke="black" points="170,-28 170,-47 312,-47 312,-28 170,-28"/>
<text text-anchor="middle" x="241" y="-35" font-family="Helvetica,sans-Serif" font-size="10.00">gepetto::gui::SafeApplication</text>
</a>
</g>
</g>
<!-- Node1&#45;&gt;Node2 -->
<g id="edge1" class="edge"><title>Node1&#45;&gt;Node2</title>
<path fill="none" stroke="midnightblue" d="M113.534,-53.6759C130.732,-51.4762 150.726,-48.9188 169.67,-46.4957"/>
<polygon fill="midnightblue" stroke="midnightblue" points="112.697,-50.2543 103.222,-54.9949 113.585,-57.1978 112.697,-50.2543"/>
</g>
<!-- Node3 -->
<g id="node3" class="node"><title>Node3</title>
<g id="a_node3"><a xlink:href="a00067.html" target="_top" xlink:title="gepetto::gui::SlotException\lCatch">
<polygon fill="white" stroke="black" points="0,-0.5 0,-30.5 134,-30.5 134,-0.5 0,-0.5"/>
<text text-anchor="start" x="8" y="-18.5" font-family="Helvetica,sans-Serif" font-size="10.00">gepetto::gui::SlotException</text>
<text text-anchor="middle" x="67" y="-7.5" font-family="Helvetica,sans-Serif" font-size="10.00">Catch</text>
</a>
</g>
</g>
<!-- Node3&#45;&gt;Node2 -->
<g id="edge2" class="edge"><title>Node3&#45;&gt;Node2</title>
<path fill="none" stroke="midnightblue" d="M144.024,-25.2239C152.626,-26.3243 161.364,-27.4419 169.886,-28.5319"/>
<polygon fill="midnightblue" stroke="midnightblue" points="144.371,-21.74 134.008,-23.9429 143.483,-28.6834 144.371,-21.74"/>
</g>
</g>
</svg>
