<?xml version="1.0" encoding="UTF-8" standalone="no"?>
<!DOCTYPE svg PUBLIC "-//W3C//DTD SVG 1.1//EN"
 "http://www.w3.org/Graphics/SVG/1.1/DTD/svg11.dtd">
<!-- Generated by graphviz version 2.38.0 (20140413.2041)
 -->
<!-- Title: sequence.hh Pages: 1 -->
<svg width="436pt" height="151pt"
 viewBox="0.00 0.00 435.50 151.00" xmlns="http://www.w3.org/2000/svg" xmlns:xlink="http://www.w3.org/1999/xlink">
<g id="graph0" class="graph" transform="scale(1 1) rotate(0) translate(4 147)">
<title>sequence.hh</title>
<polygon fill="white" stroke="none" points="-4,4 -4,-147 431.5,-147 431.5,4 -4,4"/>
<!-- Node1 -->
<g id="node1" class="node"><title>Node1</title>
<polygon fill="#bfbfbf" stroke="black" points="117.5,-123.5 117.5,-142.5 189.5,-142.5 189.5,-123.5 117.5,-123.5"/>
<text text-anchor="middle" x="153.5" y="-130.5" font-family="Helvetica,sans-Serif" font-size="10.00">sequence.hh</text>
</g>
<!-- Node2 -->
<g id="node2" class="node"><title>Node2</title>
<g id="a_node2"><a xlink:href="a00001.html" target="_top" xlink:title="hpp/manipulation/parser\l/parser.hh">
<polygon fill="white" stroke="black" points="93.5,-56.5 93.5,-86.5 213.5,-86.5 213.5,-56.5 93.5,-56.5"/>
<text text-anchor="start" x="101.5" y="-74.5" font-family="Helvetica,sans-Serif" font-size="10.00">hpp/manipulation/parser</text>
<text text-anchor="middle" x="153.5" y="-63.5" font-family="Helvetica,sans-Serif" font-size="10.00">/parser.hh</text>
</a>
</g>
</g>
<!-- Node1&#45;&gt;Node2 -->
<g id="edge1" class="edge"><title>Node1&#45;&gt;Node2</title>
<path fill="none" stroke="midnightblue" d="M153.5,-123.475C153.5,-116.471 153.5,-106.192 153.5,-96.6956"/>
<polygon fill="midnightblue" stroke="midnightblue" points="157,-96.5229 153.5,-86.523 150,-96.523 157,-96.5229"/>
</g>
<!-- Node3 -->
<g id="node3" class="node"><title>Node3</title>
<polygon fill="white" stroke="#bfbfbf" points="0,-0.5 0,-19.5 35,-19.5 35,-0.5 0,-0.5"/>
<text text-anchor="middle" x="17.5" y="-7.5" font-family="Helvetica,sans-Serif" font-size="10.00">map</text>
</g>
<!-- Node2&#45;&gt;Node3 -->
<g id="edge2" class="edge"><title>Node2&#45;&gt;Node3</title>
<path fill="none" stroke="midnightblue" d="M121.27,-56.3993C97.974,-46.2074 66.8481,-32.5898 44.78,-22.935"/>
<polygon fill="midnightblue" stroke="midnightblue" points="45.903,-19.6061 35.3386,-18.8044 43.0973,-26.0192 45.903,-19.6061"/>
</g>
<!-- Node4 -->
<g id="node4" class="node"><title>Node4</title>
<polygon fill="white" stroke="#bfbfbf" points="53,-0.5 53,-19.5 82,-19.5 82,-0.5 53,-0.5"/>
<text text-anchor="middle" x="67.5" y="-7.5" font-family="Helvetica,sans-Serif" font-size="10.00">list</text>
</g>
<!-- Node2&#45;&gt;Node4 -->
<g id="edge3" class="edge"><title>Node2&#45;&gt;Node4</title>
<path fill="none" stroke="midnightblue" d="M133.119,-56.3993C119.592,-47.0402 101.889,-34.7924 88.2804,-25.3771"/>
<polygon fill="midnightblue" stroke="midnightblue" points="90.2288,-22.4692 80.0138,-19.6578 86.246,-28.2257 90.2288,-22.4692"/>
</g>
<!-- Node5 -->
<g id="node5" class="node"><title>Node5</title>
<polygon fill="white" stroke="#bfbfbf" points="100,-0.5 100,-19.5 141,-19.5 141,-0.5 100,-0.5"/>
<text text-anchor="middle" x="120.5" y="-7.5" font-family="Helvetica,sans-Serif" font-size="10.00">string</text>
</g>
<!-- Node2&#45;&gt;Node5 -->
<g id="edge4" class="edge"><title>Node2&#45;&gt;Node5</title>
<path fill="none" stroke="midnightblue" d="M145.679,-56.3993C141.032,-48.0207 135.101,-37.3269 130.163,-28.4229"/>
<polygon fill="midnightblue" stroke="midnightblue" points="133.213,-26.7052 125.302,-19.6578 127.091,-30.1004 133.213,-26.7052"/>
</g>
<!-- Node6 -->
<g id="node6" class="node"><title>Node6</title>
<polygon fill="white" stroke="#bfbfbf" points="159.5,-0.5 159.5,-19.5 213.5,-19.5 213.5,-0.5 159.5,-0.5"/>
<text text-anchor="middle" x="186.5" y="-7.5" font-family="Helvetica,sans-Serif" font-size="10.00">iostream</text>
</g>
<!-- Node2&#45;&gt;Node6 -->
<g id="edge5" class="edge"><title>Node2&#45;&gt;Node6</title>
<path fill="none" stroke="midnightblue" d="M161.321,-56.3993C165.968,-48.0207 171.899,-37.3269 176.837,-28.4229"/>
<polygon fill="midnightblue" stroke="midnightblue" points="179.909,-30.1004 181.698,-19.6578 173.787,-26.7052 179.909,-30.1004"/>
</g>
<!-- Node7 -->
<g id="node7" class="node"><title>Node7</title>
<polygon fill="white" stroke="#bfbfbf" points="231.5,-0.5 231.5,-19.5 287.5,-19.5 287.5,-0.5 231.5,-0.5"/>
<text text-anchor="middle" x="259.5" y="-7.5" font-family="Helvetica,sans-Serif" font-size="10.00">tinyxml.h</text>
</g>
<!-- Node2&#45;&gt;Node7 -->
<g id="edge6" class="edge"><title>Node2&#45;&gt;Node7</title>
<path fill="none" stroke="midnightblue" d="M178.621,-56.3993C195.77,-46.7728 218.365,-34.0902 235.312,-24.5772"/>
<polygon fill="midnightblue" stroke="midnightblue" points="237.069,-27.6047 244.076,-19.6578 233.643,-21.5006 237.069,-27.6047"/>
</g>
<!-- Node8 -->
<g id="node8" class="node"><title>Node8</title>
<g id="a_node8"><a doxygen="/local/devel/hpp/install/share/doc/hpp-manipulation/doxygen-html/hpp-manipulation.doxytag:../../hpp-manipulation/doxygen-html/" xlink:href="../../hpp-manipulation/doxygen-html/a00001.html" target="_top" xlink:title="hpp/manipulation/fwd.hh">
<polygon fill="white" stroke="black" points="305.5,-0.5 305.5,-19.5 427.5,-19.5 427.5,-0.5 305.5,-0.5"/>
<text text-anchor="middle" x="366.5" y="-7.5" font-family="Helvetica,sans-Serif" font-size="10.00">hpp/manipulation/fwd.hh</text>
</a>
</g>
</g>
<!-- Node2&#45;&gt;Node8 -->
<g id="edge7" class="edge"><title>Node2&#45;&gt;Node8</title>
<path fill="none" stroke="midnightblue" d="M203.708,-56.4747C241.097,-46.0304 291.475,-31.9576 326.238,-22.2469"/>
<polygon fill="midnightblue" stroke="midnightblue" points="327.359,-25.5678 336.049,-19.5064 325.476,-18.8259 327.359,-25.5678"/>
</g>
</g>
</svg>
