<?xml version="1.0" encoding="UTF-8" standalone="no"?>
<!DOCTYPE svg PUBLIC "-//W3C//DTD SVG 1.1//EN"
 "http://www.w3.org/Graphics/SVG/1.1/DTD/svg11.dtd">
<!-- Generated by graphviz version 2.38.0 (20140413.2041)
 -->
<!-- Title: hpp::manipulation::srdf::PositionFactory Pages: 1 -->
<svg width="134pt" height="184pt"
 viewBox="0.00 0.00 134.00 184.00" xmlns="http://www.w3.org/2000/svg" xmlns:xlink="http://www.w3.org/1999/xlink">
<g id="graph0" class="graph" transform="scale(1 1) rotate(0) translate(4 180)">
<title>hpp::manipulation::srdf::PositionFactory</title>
<polygon fill="white" stroke="none" points="-4,4 -4,-180 130,-180 130,4 -4,4"/>
<!-- Node1 -->
<g id="node1" class="node"><title>Node1</title>
<polygon fill="#bfbfbf" stroke="black" points="9.5,-0.5 9.5,-30.5 116.5,-30.5 116.5,-0.5 9.5,-0.5"/>
<text text-anchor="start" x="17.5" y="-18.5" font-family="Helvetica,sans-Serif" font-size="10.00">hpp::manipulation::</text>
<text text-anchor="middle" x="63" y="-7.5" font-family="Helvetica,sans-Serif" font-size="10.00">srdf::PositionFactory</text>
</g>
<!-- Node2 -->
<g id="node2" class="node"><title>Node2</title>
<g id="a_node2"><a xlink:href="a00070.html" target="_top" xlink:title="hpp::manipulation::\lparser::SequenceFactory\l\&lt; float \&gt;">
<polygon fill="white" stroke="black" points="0,-67.5 0,-108.5 126,-108.5 126,-67.5 0,-67.5"/>
<text text-anchor="start" x="8" y="-96.5" font-family="Helvetica,sans-Serif" font-size="10.00">hpp::manipulation::</text>
<text text-anchor="start" x="8" y="-85.5" font-family="Helvetica,sans-Serif" font-size="10.00">parser::SequenceFactory</text>
<text text-anchor="middle" x="63" y="-74.5" font-family="Helvetica,sans-Serif" font-size="10.00">&lt; float &gt;</text>
</a>
</g>
</g>
<!-- Node2&#45;&gt;Node1 -->
<g id="edge1" class="edge"><title>Node2&#45;&gt;Node1</title>
<path fill="none" stroke="midnightblue" d="M63,-57.08C63,-48.0061 63,-38.4498 63,-30.8916"/>
<polygon fill="midnightblue" stroke="midnightblue" points="59.5001,-57.3618 63,-67.3618 66.5001,-57.3619 59.5001,-57.3618"/>
</g>
<!-- Node3 -->
<g id="node3" class="node"><title>Node3</title>
<g id="a_node3"><a xlink:href="a00065.html" target="_top" xlink:title="Class that catch XML Parser events for a specific tag and build the corresponding Object...">
<polygon fill="white" stroke="black" points="7.5,-145.5 7.5,-175.5 118.5,-175.5 118.5,-145.5 7.5,-145.5"/>
<text text-anchor="start" x="15.5" y="-163.5" font-family="Helvetica,sans-Serif" font-size="10.00">hpp::manipulation::</text>
<text text-anchor="middle" x="63" y="-152.5" font-family="Helvetica,sans-Serif" font-size="10.00">parser::ObjectFactory</text>
</a>
</g>
</g>
<!-- Node3&#45;&gt;Node2 -->
<g id="edge2" class="edge"><title>Node3&#45;&gt;Node2</title>
<path fill="none" stroke="midnightblue" d="M63,-134.982C63,-126.347 63,-116.762 63,-108.588"/>
<polygon fill="midnightblue" stroke="midnightblue" points="59.5001,-135.233 63,-145.233 66.5001,-135.233 59.5001,-135.233"/>
</g>
</g>
</svg>
