<?xml version="1.0" encoding="UTF-8" standalone="no"?>
<!DOCTYPE svg PUBLIC "-//W3C//DTD SVG 1.1//EN"
 "http://www.w3.org/Graphics/SVG/1.1/DTD/svg11.dtd">
<!-- Generated by graphviz version 2.38.0 (20140413.2041)
 -->
<!-- Title: hpp::manipulation::parser::IgnoreTagFactory Pages: 1 -->
<svg width="134pt" height="106pt"
 viewBox="0.00 0.00 134.00 106.00" xmlns="http://www.w3.org/2000/svg" xmlns:xlink="http://www.w3.org/1999/xlink">
<g id="graph0" class="graph" transform="scale(1 1) rotate(0) translate(4 102)">
<title>hpp::manipulation::parser::IgnoreTagFactory</title>
<polygon fill="white" stroke="none" points="-4,4 -4,-102 130,-102 130,4 -4,4"/>
<!-- Node1 -->
<g id="node1" class="node"><title>Node1</title>
<polygon fill="#bfbfbf" stroke="black" points="0,-0.5 0,-30.5 126,-30.5 126,-0.5 0,-0.5"/>
<text text-anchor="start" x="8" y="-18.5" font-family="Helvetica,sans-Serif" font-size="10.00">hpp::manipulation::</text>
<text text-anchor="middle" x="63" y="-7.5" font-family="Helvetica,sans-Serif" font-size="10.00">parser::IgnoreTagFactory</text>
</g>
<!-- Node2 -->
<g id="node2" class="node"><title>Node2</title>
<g id="a_node2"><a xlink:href="a00065.html" target="_top" xlink:title="Class that catch XML Parser events for a specific tag and build the corresponding Object...">
<polygon fill="white" stroke="black" points="7.5,-67.5 7.5,-97.5 118.5,-97.5 118.5,-67.5 7.5,-67.5"/>
<text text-anchor="start" x="15.5" y="-85.5" font-family="Helvetica,sans-Serif" font-size="10.00">hpp::manipulation::</text>
<text text-anchor="middle" x="63" y="-74.5" font-family="Helvetica,sans-Serif" font-size="10.00">parser::ObjectFactory</text>
</a>
</g>
</g>
<!-- Node2&#45;&gt;Node1 -->
<g id="edge1" class="edge"><title>Node2&#45;&gt;Node1</title>
<path fill="none" stroke="midnightblue" d="M63,-57.1081C63,-48.1539 63,-38.3227 63,-30.5765"/>
<polygon fill="midnightblue" stroke="midnightblue" points="59.5001,-57.3959 63,-67.396 66.5001,-57.396 59.5001,-57.3959"/>
</g>
</g>
</svg>
