<?xml version="1.0" encoding="UTF-8" standalone="no"?>
<!DOCTYPE svg PUBLIC "-//W3C//DTD SVG 1.1//EN"
 "http://www.w3.org/Graphics/SVG/1.1/DTD/svg11.dtd">
<!-- Generated by graphviz version 2.38.0 (20140413.2041)
 -->
<!-- Title: Graphical Class Hierarchy Pages: 1 -->
<svg width="225pt" height="88pt"
 viewBox="0.00 0.00 225.00 88.00" xmlns="http://www.w3.org/2000/svg" xmlns:xlink="http://www.w3.org/1999/xlink">
<g id="graph0" class="graph" transform="scale(1 1) rotate(0) translate(4 84)">
<title>Graphical Class Hierarchy</title>
<polygon fill="white" stroke="none" points="-4,4 -4,-84 221,-84 221,4 -4,4"/>
<!-- Node1 -->
<g id="node1" class="node"><title>Node1</title>
<polygon fill="white" stroke="#bfbfbf" points="0,-30 0,-49 78,-49 78,-30 0,-30"/>
<text text-anchor="middle" x="39" y="-37" font-family="Helvetica,sans-Serif" font-size="10.00">ObjectFactory</text>
</g>
<!-- Node2 -->
<g id="node2" class="node"><title>Node2</title>
<g id="a_node2"><a xlink:href="a00063.html" target="_top" xlink:title="Build an object of type hpp::manipulation::Handle. ">
<polygon fill="white" stroke="black" points="114,-49.5 114,-79.5 217,-79.5 217,-49.5 114,-49.5"/>
<text text-anchor="start" x="122" y="-67.5" font-family="Helvetica,sans-Serif" font-size="10.00">hpp::manipulation::</text>
<text text-anchor="middle" x="165.5" y="-56.5" font-family="Helvetica,sans-Serif" font-size="10.00">srdf::HandleFactory</text>
</a>
</g>
</g>
<!-- Node1&#45;&gt;Node2 -->
<g id="edge1" class="edge"><title>Node1&#45;&gt;Node2</title>
<path fill="none" stroke="midnightblue" d="M88.0999,-49.1586C96.5407,-50.8536 105.348,-52.6221 113.855,-54.3304"/>
<polygon fill="midnightblue" stroke="midnightblue" points="88.524,-45.674 78.0306,-47.1367 87.1458,-52.537 88.524,-45.674"/>
</g>
<!-- Node3 -->
<g id="node3" class="node"><title>Node3</title>
<g id="a_node3"><a xlink:href="a00068.html" target="_top" xlink:title="This class only check if the robot name and the attribute &quot;name&quot; of tag &quot;robot&quot; are the same...">
<polygon fill="white" stroke="black" points="116,-0.5 116,-30.5 215,-30.5 215,-0.5 116,-0.5"/>
<text text-anchor="start" x="124" y="-18.5" font-family="Helvetica,sans-Serif" font-size="10.00">hpp::manipulation::</text>
<text text-anchor="middle" x="165.5" y="-7.5" font-family="Helvetica,sans-Serif" font-size="10.00">srdf::RobotFactory</text>
</a>
</g>
</g>
<!-- Node1&#45;&gt;Node3 -->
<g id="edge2" class="edge"><title>Node1&#45;&gt;Node3</title>
<path fill="none" stroke="midnightblue" d="M88.0365,-30.2399C97.0976,-28.4932 106.583,-26.6647 115.668,-24.9133"/>
<polygon fill="midnightblue" stroke="midnightblue" points="87.1873,-26.8391 78.0306,-32.1688 88.5123,-33.7126 87.1873,-26.8391"/>
</g>
</g>
</svg>
