<?xml version="1.0" encoding="UTF-8" standalone="no"?>
<!DOCTYPE svg PUBLIC "-//W3C//DTD SVG 1.1//EN"
 "http://www.w3.org/Graphics/SVG/1.1/DTD/svg11.dtd">
<!-- Generated by graphviz version 2.38.0 (20140413.2041)
 -->
<!-- Title: dot.hh Pages: 1 -->
<svg width="403pt" height="420pt"
 viewBox="0.00 0.00 403.00 420.00" xmlns="http://www.w3.org/2000/svg" xmlns:xlink="http://www.w3.org/1999/xlink">
<g id="graph0" class="graph" transform="scale(1 1) rotate(0) translate(4 416)">
<title>dot.hh</title>
<polygon fill="white" stroke="none" points="-4,4 -4,-416 399,-416 399,4 -4,4"/>
<!-- Node1 -->
<g id="node1" class="node"><title>Node1</title>
<polygon fill="#bfbfbf" stroke="black" points="187.5,-392.5 187.5,-411.5 231.5,-411.5 231.5,-392.5 187.5,-392.5"/>
<text text-anchor="middle" x="209.5" y="-399.5" font-family="Helvetica,sans-Serif" font-size="10.00">dot.hh</text>
</g>
<!-- Node2 -->
<g id="node2" class="node"><title>Node2</title>
<g id="a_node2"><a xlink:href="a00067.html" target="_top" xlink:title="graph&#45;component.hh">
<polygon fill="white" stroke="black" points="157,-336.5 157,-355.5 262,-355.5 262,-336.5 157,-336.5"/>
<text text-anchor="middle" x="209.5" y="-343.5" font-family="Helvetica,sans-Serif" font-size="10.00">graph&#45;component.hh</text>
</a>
</g>
</g>
<!-- Node1&#45;&gt;Node2 -->
<g id="edge1" class="edge"><title>Node1&#45;&gt;Node2</title>
<path fill="none" stroke="midnightblue" d="M209.5,-381.805C209.5,-372.91 209.5,-362.78 209.5,-355.751"/>
<polygon fill="midnightblue" stroke="midnightblue" points="206,-382.083 209.5,-392.083 213,-382.083 206,-382.083"/>
</g>
<!-- Node3 -->
<g id="node3" class="node"><title>Node3</title>
<g id="a_node3"><a xlink:href="a00071.html" target="_top" xlink:title="graph.hh">
<polygon fill="white" stroke="black" points="136.5,-280.5 136.5,-299.5 190.5,-299.5 190.5,-280.5 136.5,-280.5"/>
<text text-anchor="middle" x="163.5" y="-287.5" font-family="Helvetica,sans-Serif" font-size="10.00">graph.hh</text>
</a>
</g>
</g>
<!-- Node2&#45;&gt;Node3 -->
<g id="edge2" class="edge"><title>Node2&#45;&gt;Node3</title>
<path fill="none" stroke="midnightblue" d="M195.386,-328.431C187.324,-318.967 177.541,-307.483 170.955,-299.751"/>
<polygon fill="midnightblue" stroke="midnightblue" points="192.755,-330.74 201.904,-336.083 198.084,-326.201 192.755,-330.74"/>
</g>
<!-- Node5 -->
<g id="node5" class="node"><title>Node5</title>
<g id="a_node5"><a xlink:href="a00088.html" target="_top" xlink:title="state.hh">
<polygon fill="white" stroke="black" points="137.5,-168.5 137.5,-187.5 189.5,-187.5 189.5,-168.5 137.5,-168.5"/>
<text text-anchor="middle" x="163.5" y="-175.5" font-family="Helvetica,sans-Serif" font-size="10.00">state.hh</text>
</a>
</g>
</g>
<!-- Node2&#45;&gt;Node5 -->
<g id="edge15" class="edge"><title>Node2&#45;&gt;Node5</title>
<path fill="none" stroke="midnightblue" d="M210.709,-326.399C211.621,-302.004 210.913,-258.282 197.5,-224 191.934,-209.775 180.526,-196.176 172.463,-187.723"/>
<polygon fill="midnightblue" stroke="midnightblue" points="207.211,-326.255 210.197,-336.421 214.202,-326.612 207.211,-326.255"/>
</g>
<!-- Node4 -->
<g id="node4" class="node"><title>Node4</title>
<g id="a_node4"><a xlink:href="a00061.html" target="_top" xlink:title="edge.hh">
<polygon fill="white" stroke="black" points="138,-224.5 138,-243.5 189,-243.5 189,-224.5 138,-224.5"/>
<text text-anchor="middle" x="163.5" y="-231.5" font-family="Helvetica,sans-Serif" font-size="10.00">edge.hh</text>
</a>
</g>
</g>
<!-- Node3&#45;&gt;Node4 -->
<g id="edge3" class="edge"><title>Node3&#45;&gt;Node4</title>
<path fill="none" stroke="midnightblue" d="M163.5,-269.805C163.5,-260.91 163.5,-250.78 163.5,-243.751"/>
<polygon fill="midnightblue" stroke="midnightblue" points="160,-270.083 163.5,-280.083 167,-270.083 160,-270.083"/>
</g>
<!-- Node6 -->
<g id="node6" class="node"><title>Node6</title>
<g id="a_node6"><a xlink:href="a00087.html" target="_top" xlink:title="state&#45;selector.hh">
<polygon fill="white" stroke="black" points="214,-112.5 214,-131.5 303,-131.5 303,-112.5 214,-112.5"/>
<text text-anchor="middle" x="258.5" y="-119.5" font-family="Helvetica,sans-Serif" font-size="10.00">state&#45;selector.hh</text>
</a>
</g>
</g>
<!-- Node3&#45;&gt;Node6 -->
<g id="edge12" class="edge"><title>Node3&#45;&gt;Node6</title>
<path fill="none" stroke="midnightblue" d="M177.039,-272.576C183.593,-264.266 191.353,-253.87 197.5,-244 222.497,-203.861 245.846,-152.16 254.724,-131.797"/>
<polygon fill="midnightblue" stroke="midnightblue" points="174.308,-270.388 170.764,-280.372 179.761,-274.777 174.308,-270.388"/>
</g>
<!-- Node11 -->
<g id="node11" class="node"><title>Node11</title>
<g id="a_node11"><a xlink:href="a00090.html" target="_top" xlink:title="statistics.hh">
<polygon fill="white" stroke="black" points="56.5,-112.5 56.5,-131.5 126.5,-131.5 126.5,-112.5 56.5,-112.5"/>
<text text-anchor="middle" x="91.5" y="-119.5" font-family="Helvetica,sans-Serif" font-size="10.00">statistics.hh</text>
</a>
</g>
</g>
<!-- Node3&#45;&gt;Node11 -->
<g id="edge13" class="edge"><title>Node3&#45;&gt;Node11</title>
<path fill="none" stroke="midnightblue" d="M148.516,-272.752C141.641,-264.607 133.848,-254.301 128.5,-244 108.053,-204.618 96.8368,-152.049 93.015,-131.623"/>
<polygon fill="midnightblue" stroke="midnightblue" points="145.978,-275.165 155.208,-280.367 151.236,-270.545 145.978,-275.165"/>
</g>
<!-- Node12 -->
<g id="node12" class="node"><title>Node12</title>
<g id="a_node12"><a xlink:href="a00079.html" target="_top" xlink:title="manipulation&#45;planner.hh">
<polygon fill="white" stroke="black" points="0,-56.5 0,-75.5 119,-75.5 119,-56.5 0,-56.5"/>
<text text-anchor="middle" x="59.5" y="-63.5" font-family="Helvetica,sans-Serif" font-size="10.00">manipulation&#45;planner.hh</text>
</a>
</g>
</g>
<!-- Node3&#45;&gt;Node12 -->
<g id="edge14" class="edge"><title>Node3&#45;&gt;Node12</title>
<path fill="none" stroke="midnightblue" d="M145.93,-273.671C117.944,-247.851 64.6519,-192.541 47.5,-132 41.8696,-112.126 50.0896,-88.0651 55.4664,-75.5302"/>
<polygon fill="midnightblue" stroke="midnightblue" points="143.651,-276.328 153.419,-280.432 148.341,-271.133 143.651,-276.328"/>
</g>
<!-- Node4&#45;&gt;Node5 -->
<g id="edge4" class="edge"><title>Node4&#45;&gt;Node5</title>
<path fill="none" stroke="midnightblue" d="M163.5,-213.805C163.5,-204.91 163.5,-194.78 163.5,-187.751"/>
<polygon fill="midnightblue" stroke="midnightblue" points="160,-214.083 163.5,-224.083 167,-214.083 160,-214.083"/>
</g>
<!-- Node5&#45;&gt;Node6 -->
<g id="edge5" class="edge"><title>Node5&#45;&gt;Node6</title>
<path fill="none" stroke="midnightblue" d="M187.818,-163.177C205.299,-153.241 228.33,-140.149 243.274,-131.655"/>
<polygon fill="midnightblue" stroke="midnightblue" points="185.727,-160.339 178.763,-168.324 189.187,-166.425 185.727,-160.339"/>
</g>
<!-- Node10 -->
<g id="node10" class="node"><title>Node10</title>
<g id="a_node10"><a xlink:href="a00002.html" target="_top" xlink:title="node.hh">
<polygon fill="white" stroke="black" points="145,-112.5 145,-131.5 196,-131.5 196,-112.5 145,-112.5"/>
<text text-anchor="middle" x="170.5" y="-119.5" font-family="Helvetica,sans-Serif" font-size="10.00">node.hh</text>
</a>
</g>
</g>
<!-- Node5&#45;&gt;Node10 -->
<g id="edge9" class="edge"><title>Node5&#45;&gt;Node10</title>
<path fill="none" stroke="midnightblue" d="M165.95,-158.101C167.112,-149.136 168.444,-138.858 169.366,-131.751"/>
<polygon fill="midnightblue" stroke="midnightblue" points="162.471,-157.716 164.656,-168.083 169.412,-158.616 162.471,-157.716"/>
</g>
<!-- Node5&#45;&gt;Node11 -->
<g id="edge10" class="edge"><title>Node5&#45;&gt;Node11</title>
<path fill="none" stroke="midnightblue" d="M143.634,-162.101C130.677,-152.382 114.203,-140.027 103.279,-131.834"/>
<polygon fill="midnightblue" stroke="midnightblue" points="141.832,-165.124 151.932,-168.324 146.032,-159.524 141.832,-165.124"/>
</g>
<!-- Node7 -->
<g id="node7" class="node"><title>Node7</title>
<g id="a_node7"><a xlink:href="a00074.html" target="_top" xlink:title="guided&#45;state&#45;selector.hh">
<polygon fill="white" stroke="black" points="167,-56.5 167,-75.5 288,-75.5 288,-56.5 167,-56.5"/>
<text text-anchor="middle" x="227.5" y="-63.5" font-family="Helvetica,sans-Serif" font-size="10.00">guided&#45;state&#45;selector.hh</text>
</a>
</g>
</g>
<!-- Node6&#45;&gt;Node7 -->
<g id="edge6" class="edge"><title>Node6&#45;&gt;Node7</title>
<path fill="none" stroke="midnightblue" d="M248.324,-103.275C243.026,-94.0454 236.783,-83.1703 232.524,-75.7511"/>
<polygon fill="midnightblue" stroke="midnightblue" points="245.367,-105.153 253.381,-112.083 251.438,-101.668 245.367,-105.153"/>
</g>
<!-- Node9 -->
<g id="node9" class="node"><title>Node9</title>
<g id="a_node9"><a xlink:href="a00080.html" target="_top" xlink:title="node&#45;selector.hh">
<polygon fill="white" stroke="black" points="306,-56.5 306,-75.5 395,-75.5 395,-56.5 306,-56.5"/>
<text text-anchor="middle" x="350.5" y="-63.5" font-family="Helvetica,sans-Serif" font-size="10.00">node&#45;selector.hh</text>
</a>
</g>
</g>
<!-- Node6&#45;&gt;Node9 -->
<g id="edge8" class="edge"><title>Node6&#45;&gt;Node9</title>
<path fill="none" stroke="midnightblue" d="M282.05,-107.177C298.979,-97.2407 321.283,-84.1492 335.755,-75.6545"/>
<polygon fill="midnightblue" stroke="midnightblue" points="280.134,-104.243 273.281,-112.324 283.677,-110.28 280.134,-104.243"/>
</g>
<!-- Node8 -->
<g id="node8" class="node"><title>Node8</title>
<g id="a_node8"><a xlink:href="a00073.html" target="_top" xlink:title="guided&#45;node&#45;selector.hh">
<polygon fill="white" stroke="black" points="167.5,-0.5 167.5,-19.5 287.5,-19.5 287.5,-0.5 167.5,-0.5"/>
<text text-anchor="middle" x="227.5" y="-7.5" font-family="Helvetica,sans-Serif" font-size="10.00">guided&#45;node&#45;selector.hh</text>
</a>
</g>
</g>
<!-- Node7&#45;&gt;Node8 -->
<g id="edge7" class="edge"><title>Node7&#45;&gt;Node8</title>
<path fill="none" stroke="midnightblue" d="M227.5,-45.8045C227.5,-36.9102 227.5,-26.7798 227.5,-19.7511"/>
<polygon fill="midnightblue" stroke="midnightblue" points="224,-46.083 227.5,-56.083 231,-46.083 224,-46.083"/>
</g>
<!-- Node11&#45;&gt;Node12 -->
<g id="edge11" class="edge"><title>Node11&#45;&gt;Node12</title>
<path fill="none" stroke="midnightblue" d="M80.9961,-103.275C75.5269,-94.0454 69.0824,-83.1703 64.6858,-75.7511"/>
<polygon fill="midnightblue" stroke="midnightblue" points="78.1068,-105.264 86.2159,-112.083 84.1288,-101.696 78.1068,-105.264"/>
</g>
</g>
</svg>
