<?xml version="1.0" encoding="UTF-8" standalone="no"?>
<!DOCTYPE svg PUBLIC "-//W3C//DTD SVG 1.1//EN"
 "http://www.w3.org/Graphics/SVG/1.1/DTD/svg11.dtd">
<!-- Generated by graphviz version 2.38.0 (20140413.2041)
 -->
<!-- Title: end&#45;effector&#45;trajectory.hh Pages: 1 -->
<svg width="938pt" height="431pt"
 viewBox="0.00 0.00 937.50 431.00" xmlns="http://www.w3.org/2000/svg" xmlns:xlink="http://www.w3.org/1999/xlink">
<g id="graph0" class="graph" transform="scale(1 1) rotate(0) translate(4 427)">
<title>end&#45;effector&#45;trajectory.hh</title>
<polygon fill="white" stroke="none" points="-4,4 -4,-427 933.5,-427 933.5,4 -4,4"/>
<!-- Node1 -->
<g id="node1" class="node"><title>Node1</title>
<polygon fill="#bfbfbf" stroke="black" points="705.5,-403.5 705.5,-422.5 830.5,-422.5 830.5,-403.5 705.5,-403.5"/>
<text text-anchor="middle" x="768" y="-410.5" font-family="Helvetica,sans-Serif" font-size="10.00">end&#45;effector&#45;trajectory.hh</text>
</g>
<!-- Node2 -->
<g id="node2" class="node"><title>Node2</title>
<g id="a_node2"><a doxygen="/local/devel/hpp/install/share/doc/hpp-core/doxygen-html/hpp-core.doxytag:../../hpp-core/doxygen-html/" xlink:href="../../hpp-core/doxygen-html/a00203.html" target="_top" xlink:title="hpp/core/steering&#45;method.hh">
<polygon fill="white" stroke="black" points="544,-347.5 544,-366.5 684,-366.5 684,-347.5 544,-347.5"/>
<text text-anchor="middle" x="614" y="-354.5" font-family="Helvetica,sans-Serif" font-size="10.00">hpp/core/steering&#45;method.hh</text>
</a>
</g>
</g>
<!-- Node1&#45;&gt;Node2 -->
<g id="edge1" class="edge"><title>Node1&#45;&gt;Node2</title>
<path fill="none" stroke="midnightblue" d="M743.598,-403.444C717.803,-394.399 676.923,-380.064 647.982,-369.916"/>
<polygon fill="midnightblue" stroke="midnightblue" points="648.882,-366.523 638.288,-366.516 646.566,-373.128 648.882,-366.523"/>
</g>
<!-- Node3 -->
<g id="node3" class="node"><title>Node3</title>
<g id="a_node3"><a xlink:href="a00001.html" target="_top" xlink:title="hpp/core/fwd.hh">
<polygon fill="white" stroke="black" points="521,-112.5 521,-131.5 607,-131.5 607,-112.5 521,-112.5"/>
<text text-anchor="middle" x="564" y="-119.5" font-family="Helvetica,sans-Serif" font-size="10.00">hpp/core/fwd.hh</text>
</a>
</g>
</g>
<!-- Node1&#45;&gt;Node3 -->
<g id="edge32" class="edge"><title>Node1&#45;&gt;Node3</title>
<path fill="none" stroke="midnightblue" d="M768,-403.442C768,-384.936 768,-339.812 768,-302 768,-302 768,-302 768,-238.5 768,-202.253 755.708,-190.129 727,-168 695.498,-143.717 651.686,-132.533 617.416,-127.384"/>
<polygon fill="midnightblue" stroke="midnightblue" points="617.494,-123.862 607.111,-125.972 616.543,-130.798 617.494,-123.862"/>
</g>
<!-- Node17 -->
<g id="node17" class="node"><title>Node17</title>
<polygon fill="white" stroke="#bfbfbf" points="796.5,-347.5 796.5,-366.5 929.5,-366.5 929.5,-347.5 796.5,-347.5"/>
<text text-anchor="middle" x="863" y="-354.5" font-family="Helvetica,sans-Serif" font-size="10.00">hpp/manipulation/config.hh</text>
</g>
<!-- Node1&#45;&gt;Node17 -->
<g id="edge33" class="edge"><title>Node1&#45;&gt;Node17</title>
<path fill="none" stroke="midnightblue" d="M783.263,-403.324C798.221,-394.822 821.255,-381.729 838.727,-371.797"/>
<polygon fill="midnightblue" stroke="midnightblue" points="840.81,-374.639 847.774,-366.655 837.351,-368.553 840.81,-374.639"/>
</g>
<!-- Node2&#45;&gt;Node3 -->
<g id="edge2" class="edge"><title>Node2&#45;&gt;Node3</title>
<path fill="none" stroke="midnightblue" d="M652.845,-347.364C672.377,-340.847 694.327,-329.704 706,-311 739.649,-257.083 743.544,-219.281 706,-168 685.824,-140.441 648.672,-129.341 617.43,-125.052"/>
<polygon fill="midnightblue" stroke="midnightblue" points="617.433,-121.528 607.094,-123.844 616.62,-128.481 617.433,-121.528"/>
</g>
<!-- Node5 -->
<g id="node5" class="node"><title>Node5</title>
<g id="a_node5"><a doxygen="/local/devel/hpp/install/share/doc/hpp-core/doxygen-html/hpp-core.doxytag:../../hpp-core/doxygen-html/" xlink:href="../../hpp-core/doxygen-html/a00001.html" target="_top" xlink:title="hpp/core/fwd.hh">
<polygon fill="white" stroke="black" points="337,-56.5 337,-75.5 423,-75.5 423,-56.5 337,-56.5"/>
<text text-anchor="middle" x="380" y="-63.5" font-family="Helvetica,sans-Serif" font-size="10.00">hpp/core/fwd.hh</text>
</a>
</g>
</g>
<!-- Node2&#45;&gt;Node5 -->
<g id="edge13" class="edge"><title>Node2&#45;&gt;Node5</title>
<path fill="none" stroke="midnightblue" d="M543.788,-351.808C420.957,-342.534 180,-314.864 180,-240.5 180,-240.5 180,-240.5 180,-177 180,-134.545 213.603,-133.857 250,-112 275.577,-96.6402 307.147,-85.5556 332.77,-78.2312"/>
<polygon fill="midnightblue" stroke="midnightblue" points="333.922,-81.5442 342.632,-75.512 332.062,-74.796 333.922,-81.5442"/>
</g>
<!-- Node6 -->
<g id="node6" class="node"><title>Node6</title>
<g id="a_node6"><a xlink:href="a00065.html" target="_top" xlink:title="hpp/core/fwd.hh">
<polygon fill="white" stroke="black" points="66,-112.5 66,-131.5 152,-131.5 152,-112.5 66,-112.5"/>
<text text-anchor="middle" x="109" y="-119.5" font-family="Helvetica,sans-Serif" font-size="10.00">hpp/core/fwd.hh</text>
</a>
</g>
</g>
<!-- Node2&#45;&gt;Node6 -->
<g id="edge5" class="edge"><title>Node2&#45;&gt;Node6</title>
<path fill="none" stroke="midnightblue" d="M543.895,-353.15C425.196,-347.713 194.675,-334.28 166,-311 113.928,-268.725 108.222,-180.459 108.374,-141.809"/>
<polygon fill="midnightblue" stroke="midnightblue" points="111.879,-141.575 108.565,-131.512 104.88,-141.446 111.879,-141.575"/>
</g>
<!-- Node11 -->
<g id="node11" class="node"><title>Node11</title>
<g id="a_node11"><a xlink:href="a00066.html" target="_top" xlink:title="hpp/core/fwd.hh">
<polygon fill="white" stroke="black" points="417,-112.5 417,-131.5 503,-131.5 503,-112.5 417,-112.5"/>
<text text-anchor="middle" x="460" y="-119.5" font-family="Helvetica,sans-Serif" font-size="10.00">hpp/core/fwd.hh</text>
</a>
</g>
</g>
<!-- Node2&#45;&gt;Node11 -->
<g id="edge10" class="edge"><title>Node2&#45;&gt;Node11</title>
<path fill="none" stroke="midnightblue" d="M623.459,-347.294C645.842,-325.61 698.272,-267.787 672,-224 652.698,-191.83 551.576,-153.713 496.256,-134.828"/>
<polygon fill="midnightblue" stroke="midnightblue" points="497.084,-131.413 486.489,-131.531 494.845,-138.045 497.084,-131.413"/>
</g>
<!-- Node12 -->
<g id="node12" class="node"><title>Node12</title>
<g id="a_node12"><a doxygen="/local/devel/hpp/install/share/doc/hpp-core/doxygen-html/hpp-core.doxytag:../../hpp-core/doxygen-html/" xlink:href="../../hpp-core/doxygen-html/a00174.html" target="_top" xlink:title="hpp/core/path.hh">
<polygon fill="white" stroke="black" points="434.5,-291.5 434.5,-310.5 523.5,-310.5 523.5,-291.5 434.5,-291.5"/>
<text text-anchor="middle" x="479" y="-298.5" font-family="Helvetica,sans-Serif" font-size="10.00">hpp/core/path.hh</text>
</a>
</g>
</g>
<!-- Node2&#45;&gt;Node12 -->
<g id="edge14" class="edge"><title>Node2&#45;&gt;Node12</title>
<path fill="none" stroke="midnightblue" d="M592.609,-347.444C570.293,-338.517 535.097,-324.439 509.792,-314.317"/>
<polygon fill="midnightblue" stroke="midnightblue" points="510.876,-310.981 500.291,-310.516 508.276,-317.48 510.876,-310.981"/>
</g>
<!-- Node15 -->
<g id="node15" class="node"><title>Node15</title>
<g id="a_node15"><a doxygen="/local/devel/hpp/install/share/doc/hpp-core/doxygen-html/hpp-core.doxytag:../../hpp-core/doxygen-html/" xlink:href="../../hpp-core/doxygen-html/a00184.html" target="_top" xlink:title="hpp/core/projection\l&#45;error.hh">
<polygon fill="white" stroke="black" points="564.5,-224.5 564.5,-254.5 663.5,-254.5 663.5,-224.5 564.5,-224.5"/>
<text text-anchor="start" x="572.5" y="-242.5" font-family="Helvetica,sans-Serif" font-size="10.00">hpp/core/projection</text>
<text text-anchor="middle" x="614" y="-231.5" font-family="Helvetica,sans-Serif" font-size="10.00">&#45;error.hh</text>
</a>
</g>
</g>
<!-- Node2&#45;&gt;Node15 -->
<g id="edge31" class="edge"><title>Node2&#45;&gt;Node15</title>
<path fill="none" stroke="midnightblue" d="M614,-347.319C614,-329.967 614,-290.457 614,-264.658"/>
<polygon fill="midnightblue" stroke="midnightblue" points="617.5,-264.545 614,-254.545 610.5,-264.545 617.5,-264.545"/>
</g>
<!-- Node4 -->
<g id="node4" class="node"><title>Node4</title>
<polygon fill="white" stroke="#bfbfbf" points="446.5,-56.5 446.5,-75.5 481.5,-75.5 481.5,-56.5 446.5,-56.5"/>
<text text-anchor="middle" x="464" y="-63.5" font-family="Helvetica,sans-Serif" font-size="10.00">map</text>
</g>
<!-- Node3&#45;&gt;Node4 -->
<g id="edge3" class="edge"><title>Node3&#45;&gt;Node4</title>
<path fill="none" stroke="midnightblue" d="M547.933,-112.324C532.042,-103.743 507.493,-90.486 489.042,-80.5224"/>
<polygon fill="midnightblue" stroke="midnightblue" points="490.489,-77.3264 480.027,-75.6545 487.163,-83.4857 490.489,-77.3264"/>
</g>
<!-- Node3&#45;&gt;Node5 -->
<g id="edge4" class="edge"><title>Node3&#45;&gt;Node5</title>
<path fill="none" stroke="midnightblue" d="M534.845,-112.444C503.487,-103.241 453.469,-88.5617 418.803,-78.3879"/>
<polygon fill="midnightblue" stroke="midnightblue" points="419.6,-74.9742 409.019,-75.5164 417.629,-81.6909 419.6,-74.9742"/>
</g>
<!-- Node7 -->
<g id="node7" class="node"><title>Node7</title>
<polygon fill="white" stroke="#bfbfbf" points="62,-56.5 62,-75.5 156,-75.5 156,-56.5 62,-56.5"/>
<text text-anchor="middle" x="109" y="-63.5" font-family="Helvetica,sans-Serif" font-size="10.00">hpp/util/pointer.hh</text>
</g>
<!-- Node6&#45;&gt;Node7 -->
<g id="edge6" class="edge"><title>Node6&#45;&gt;Node7</title>
<path fill="none" stroke="midnightblue" d="M109,-112.083C109,-105.006 109,-94.8611 109,-85.9865"/>
<polygon fill="midnightblue" stroke="midnightblue" points="112.5,-85.751 109,-75.7511 105.5,-85.7511 112.5,-85.751"/>
</g>
<!-- Node8 -->
<g id="node8" class="node"><title>Node8</title>
<g id="a_node8"><a doxygen="/local/devel/hpp/install/share/doc/hpp-statistics/doxygen-html/hpp-statistics.doxytag:../../hpp-statistics/doxygen-html/" xlink:href="../../hpp-statistics/doxygen-html/a00009.html" target="_top" xlink:title="hpp/statistics/distribution.hh">
<polygon fill="white" stroke="black" points="174.5,-56.5 174.5,-75.5 313.5,-75.5 313.5,-56.5 174.5,-56.5"/>
<text text-anchor="middle" x="244" y="-63.5" font-family="Helvetica,sans-Serif" font-size="10.00">hpp/statistics/distribution.hh</text>
</a>
</g>
</g>
<!-- Node6&#45;&gt;Node8 -->
<g id="edge7" class="edge"><title>Node6&#45;&gt;Node8</title>
<path fill="none" stroke="midnightblue" d="M130.391,-112.444C152.707,-103.517 187.903,-89.4387 213.208,-79.3168"/>
<polygon fill="midnightblue" stroke="midnightblue" points="214.724,-82.4801 222.709,-75.5164 212.124,-75.9807 214.724,-82.4801"/>
</g>
<!-- Node10 -->
<g id="node10" class="node"><title>Node10</title>
<polygon fill="white" stroke="#bfbfbf" points="0,-56.5 0,-75.5 44,-75.5 44,-56.5 0,-56.5"/>
<text text-anchor="middle" x="22" y="-63.5" font-family="Helvetica,sans-Serif" font-size="10.00">vector</text>
</g>
<!-- Node6&#45;&gt;Node10 -->
<g id="edge9" class="edge"><title>Node6&#45;&gt;Node10</title>
<path fill="none" stroke="midnightblue" d="M95.0219,-112.324C81.4504,-103.9 60.6198,-90.9709 44.675,-81.0741"/>
<polygon fill="midnightblue" stroke="midnightblue" points="46.2856,-77.9544 35.9434,-75.6545 42.594,-83.9019 46.2856,-77.9544"/>
</g>
<!-- Node9 -->
<g id="node9" class="node"><title>Node9</title>
<g id="a_node9"><a doxygen="/local/devel/hpp/install/share/doc/hpp-statistics/doxygen-html/hpp-statistics.doxytag:../../hpp-statistics/doxygen-html/" xlink:href="../../hpp-statistics/doxygen-html/a00010.html" target="_top" xlink:title="hpp/statistics/fwd.hh">
<polygon fill="white" stroke="black" points="190.5,-0.5 190.5,-19.5 297.5,-19.5 297.5,-0.5 190.5,-0.5"/>
<text text-anchor="middle" x="244" y="-7.5" font-family="Helvetica,sans-Serif" font-size="10.00">hpp/statistics/fwd.hh</text>
</a>
</g>
</g>
<!-- Node8&#45;&gt;Node9 -->
<g id="edge8" class="edge"><title>Node8&#45;&gt;Node9</title>
<path fill="none" stroke="midnightblue" d="M244,-56.083C244,-49.0059 244,-38.8611 244,-29.9865"/>
<polygon fill="midnightblue" stroke="midnightblue" points="247.5,-29.751 244,-19.7511 240.5,-29.7511 247.5,-29.751"/>
</g>
<!-- Node11&#45;&gt;Node4 -->
<g id="edge11" class="edge"><title>Node11&#45;&gt;Node4</title>
<path fill="none" stroke="midnightblue" d="M460.661,-112.083C461.185,-105.006 461.936,-94.8611 462.594,-85.9865"/>
<polygon fill="midnightblue" stroke="midnightblue" points="466.103,-85.9823 463.352,-75.7511 459.123,-85.4652 466.103,-85.9823"/>
</g>
<!-- Node11&#45;&gt;Node5 -->
<g id="edge12" class="edge"><title>Node11&#45;&gt;Node5</title>
<path fill="none" stroke="midnightblue" d="M447.147,-112.324C434.784,-103.979 415.87,-91.2122 401.263,-81.3524"/>
<polygon fill="midnightblue" stroke="midnightblue" points="403.068,-78.3483 392.821,-75.6545 399.152,-84.1503 403.068,-78.3483"/>
</g>
<!-- Node12&#45;&gt;Node3 -->
<g id="edge15" class="edge"><title>Node12&#45;&gt;Node3</title>
<path fill="none" stroke="midnightblue" d="M489.838,-291.284C510.137,-274.128 553.091,-233.654 567,-188 571.583,-172.956 570.294,-155.051 568.165,-141.846"/>
<polygon fill="midnightblue" stroke="midnightblue" points="571.528,-140.801 566.203,-131.642 564.654,-142.123 571.528,-140.801"/>
</g>
<!-- Node12&#45;&gt;Node5 -->
<g id="edge18" class="edge"><title>Node12&#45;&gt;Node5</title>
<path fill="none" stroke="midnightblue" d="M434.364,-298.691C392.33,-295.5 329.237,-285.481 284,-255 253.835,-234.674 247.953,-222.686 237,-188 219.73,-133.31 294.113,-96.5492 342.07,-78.9683"/>
<polygon fill="midnightblue" stroke="midnightblue" points="343.307,-82.2433 351.567,-75.6082 340.973,-75.6442 343.307,-82.2433"/>
</g>
<!-- Node12&#45;&gt;Node6 -->
<g id="edge16" class="edge"><title>Node12&#45;&gt;Node6</title>
<path fill="none" stroke="midnightblue" d="M434.404,-296.841C366.667,-291.36 241.734,-278.374 204,-255 159.321,-227.324 129.39,-170.108 116.381,-140.942"/>
<polygon fill="midnightblue" stroke="midnightblue" points="119.519,-139.38 112.358,-131.572 113.087,-142.142 119.519,-139.38"/>
</g>
<!-- Node12&#45;&gt;Node11 -->
<g id="edge17" class="edge"><title>Node12&#45;&gt;Node11</title>
<path fill="none" stroke="midnightblue" d="M483.334,-291.293C490.638,-276.877 506.16,-247.328 522,-224 533.542,-207.002 544.167,-207.376 551,-188 553.956,-179.617 555.69,-175.551 551,-168 541.283,-152.355 524.338,-141.985 507.684,-135.19"/>
<polygon fill="midnightblue" stroke="midnightblue" points="508.561,-131.782 497.968,-131.589 506.129,-138.346 508.561,-131.782"/>
</g>
<!-- Node13 -->
<g id="node13" class="node"><title>Node13</title>
<g id="a_node13"><a doxygen="/local/devel/hpp/install/share/doc/hpp-core/doxygen-html/hpp-core.doxytag:../../hpp-core/doxygen-html/" xlink:href="../../hpp-core/doxygen-html/a00123.html" target="_top" xlink:title="hpp/core/constraint\l&#45;set.hh">
<polygon fill="white" stroke="black" points="293,-224.5 293,-254.5 393,-254.5 393,-224.5 293,-224.5"/>
<text text-anchor="start" x="301" y="-242.5" font-family="Helvetica,sans-Serif" font-size="10.00">hpp/core/constraint</text>
<text text-anchor="middle" x="343" y="-231.5" font-family="Helvetica,sans-Serif" font-size="10.00">&#45;set.hh</text>
</a>
</g>
</g>
<!-- Node12&#45;&gt;Node13 -->
<g id="edge19" class="edge"><title>Node12&#45;&gt;Node13</title>
<path fill="none" stroke="midnightblue" d="M459.515,-291.475C439.976,-282.927 409.288,-269.501 384.311,-258.573"/>
<polygon fill="midnightblue" stroke="midnightblue" points="385.617,-255.325 375.053,-254.523 382.811,-261.738 385.617,-255.325"/>
</g>
<!-- Node12&#45;&gt;Node15 -->
<g id="edge25" class="edge"><title>Node12&#45;&gt;Node15</title>
<path fill="none" stroke="midnightblue" d="M498.342,-291.475C517.737,-282.927 548.199,-269.501 572.993,-258.573"/>
<polygon fill="midnightblue" stroke="midnightblue" points="574.444,-261.759 582.183,-254.523 571.621,-255.353 574.444,-261.759"/>
</g>
<!-- Node16 -->
<g id="node16" class="node"><title>Node16</title>
<g id="a_node16"><a doxygen="/local/devel/hpp/install/share/doc/hpp-core/doxygen-html/hpp-core.doxytag:../../hpp-core/doxygen-html/" xlink:href="../../hpp-core/doxygen-html/a00208.html" target="_top" xlink:title="hpp/core/time&#45;parameterization.hh">
<polygon fill="white" stroke="black" points="378,-168.5 378,-187.5 542,-187.5 542,-168.5 378,-168.5"/>
<text text-anchor="middle" x="460" y="-175.5" font-family="Helvetica,sans-Serif" font-size="10.00">hpp/core/time&#45;parameterization.hh</text>
</a>
</g>
</g>
<!-- Node12&#45;&gt;Node16 -->
<g id="edge26" class="edge"><title>Node12&#45;&gt;Node16</title>
<path fill="none" stroke="midnightblue" d="M477.634,-291.298C474.566,-271.763 467.076,-224.065 462.912,-197.547"/>
<polygon fill="midnightblue" stroke="midnightblue" points="466.363,-196.959 461.354,-187.623 459.448,-198.045 466.363,-196.959"/>
</g>
<!-- Node14 -->
<g id="node14" class="node"><title>Node14</title>
<g id="a_node14"><a doxygen="/local/devel/hpp/install/share/doc/hpp-core/doxygen-html/hpp-core.doxytag:../../hpp-core/doxygen-html/" xlink:href="../../hpp-core/doxygen-html/a00124.html" target="_top" xlink:title="hpp/core/constraint.hh">
<polygon fill="white" stroke="black" points="246.5,-168.5 246.5,-187.5 359.5,-187.5 359.5,-168.5 246.5,-168.5"/>
<text text-anchor="middle" x="303" y="-175.5" font-family="Helvetica,sans-Serif" font-size="10.00">hpp/core/constraint.hh</text>
</a>
</g>
</g>
<!-- Node13&#45;&gt;Node14 -->
<g id="edge20" class="edge"><title>Node13&#45;&gt;Node14</title>
<path fill="none" stroke="midnightblue" d="M333.521,-224.399C327.828,-215.932 320.546,-205.099 314.522,-196.139"/>
<polygon fill="midnightblue" stroke="midnightblue" points="317.304,-194.004 308.82,-187.658 311.495,-197.909 317.304,-194.004"/>
</g>
<!-- Node14&#45;&gt;Node3 -->
<g id="edge21" class="edge"><title>Node14&#45;&gt;Node3</title>
<path fill="none" stroke="midnightblue" d="M344.356,-168.444C390.078,-158.984 463.764,-143.738 513.022,-133.547"/>
<polygon fill="midnightblue" stroke="midnightblue" points="513.754,-136.97 522.837,-131.516 512.336,-130.115 513.754,-136.97"/>
</g>
<!-- Node14&#45;&gt;Node5 -->
<g id="edge24" class="edge"><title>Node14&#45;&gt;Node5</title>
<path fill="none" stroke="midnightblue" d="M309.042,-168.368C321.749,-150.215 351.439,-107.802 368.107,-83.9902"/>
<polygon fill="midnightblue" stroke="midnightblue" points="371.119,-85.7909 373.986,-75.5914 365.384,-81.7766 371.119,-85.7909"/>
</g>
<!-- Node14&#45;&gt;Node6 -->
<g id="edge22" class="edge"><title>Node14&#45;&gt;Node6</title>
<path fill="none" stroke="midnightblue" d="M272.26,-168.444C239.056,-159.201 186.009,-144.436 149.443,-134.257"/>
<polygon fill="midnightblue" stroke="midnightblue" points="150.168,-130.826 139.596,-131.516 148.291,-137.57 150.168,-130.826"/>
</g>
<!-- Node14&#45;&gt;Node11 -->
<g id="edge23" class="edge"><title>Node14&#45;&gt;Node11</title>
<path fill="none" stroke="midnightblue" d="M327.877,-168.444C354.289,-159.359 396.215,-144.939 425.742,-134.783"/>
<polygon fill="midnightblue" stroke="midnightblue" points="426.921,-138.079 435.239,-131.516 424.645,-131.459 426.921,-138.079"/>
</g>
<!-- Node16&#45;&gt;Node3 -->
<g id="edge27" class="edge"><title>Node16&#45;&gt;Node3</title>
<path fill="none" stroke="midnightblue" d="M476.709,-168.324C493.312,-159.703 519.002,-146.364 538.22,-136.386"/>
<polygon fill="midnightblue" stroke="midnightblue" points="540.07,-139.369 547.332,-131.655 536.844,-133.156 540.07,-139.369"/>
</g>
<!-- Node16&#45;&gt;Node5 -->
<g id="edge30" class="edge"><title>Node16&#45;&gt;Node5</title>
<path fill="none" stroke="midnightblue" d="M446.986,-168.326C435.474,-160.105 418.863,-146.834 408,-132 397.574,-117.764 390.034,-99.0448 385.423,-85.3526"/>
<polygon fill="midnightblue" stroke="midnightblue" points="388.702,-84.1134 382.354,-75.6311 382.027,-86.2209 388.702,-84.1134"/>
</g>
<!-- Node16&#45;&gt;Node6 -->
<g id="edge28" class="edge"><title>Node16&#45;&gt;Node6</title>
<path fill="none" stroke="midnightblue" d="M404.383,-168.444C337.96,-158.225 227.649,-141.254 162.277,-131.197"/>
<polygon fill="midnightblue" stroke="midnightblue" points="162.601,-127.705 152.185,-129.644 161.537,-134.624 162.601,-127.705"/>
</g>
<!-- Node16&#45;&gt;Node11 -->
<g id="edge29" class="edge"><title>Node16&#45;&gt;Node11</title>
<path fill="none" stroke="midnightblue" d="M460,-168.083C460,-161.006 460,-150.861 460,-141.986"/>
<polygon fill="midnightblue" stroke="midnightblue" points="463.5,-141.751 460,-131.751 456.5,-141.751 463.5,-141.751"/>
</g>
</g>
</svg>
