<?xml version="1.0" encoding="UTF-8" standalone="no"?>
<!DOCTYPE svg PUBLIC "-//W3C//DTD SVG 1.1//EN"
 "http://www.w3.org/Graphics/SVG/1.1/DTD/svg11.dtd">
<!-- Generated by graphviz version 2.38.0 (20140413.2041)
 -->
<!-- Title: constraint&#45;set.hh Pages: 1 -->
<svg width="562pt" height="364pt"
 viewBox="0.00 0.00 561.50 364.00" xmlns="http://www.w3.org/2000/svg" xmlns:xlink="http://www.w3.org/1999/xlink">
<g id="graph0" class="graph" transform="scale(1 1) rotate(0) translate(4 360)">
<title>constraint&#45;set.hh</title>
<polygon fill="white" stroke="none" points="-4,4 -4,-360 557.5,-360 557.5,4 -4,4"/>
<!-- Node1 -->
<g id="node1" class="node"><title>Node1</title>
<polygon fill="#bfbfbf" stroke="black" points="336,-336.5 336,-355.5 425,-355.5 425,-336.5 336,-336.5"/>
<text text-anchor="middle" x="380.5" y="-343.5" font-family="Helvetica,sans-Serif" font-size="10.00">constraint&#45;set.hh</text>
</g>
<!-- Node2 -->
<g id="node2" class="node"><title>Node2</title>
<g id="a_node2"><a xlink:href="a00071.html" target="_top" xlink:title="graph.hh">
<polygon fill="white" stroke="black" points="247.5,-280.5 247.5,-299.5 301.5,-299.5 301.5,-280.5 247.5,-280.5"/>
<text text-anchor="middle" x="274.5" y="-287.5" font-family="Helvetica,sans-Serif" font-size="10.00">graph.hh</text>
</a>
</g>
</g>
<!-- Node1&#45;&gt;Node2 -->
<g id="edge1" class="edge"><title>Node1&#45;&gt;Node2</title>
<path fill="none" stroke="midnightblue" d="M354.444,-331.726C334.816,-321.727 308.472,-308.307 291.488,-299.655"/>
<polygon fill="midnightblue" stroke="midnightblue" points="352.97,-334.903 363.469,-336.324 356.148,-328.666 352.97,-334.903"/>
</g>
<!-- Node12 -->
<g id="node12" class="node"><title>Node12</title>
<g id="a_node12"><a xlink:href="a00068.html" target="_top" xlink:title="graph&#45;node&#45;optimizer.hh">
<polygon fill="white" stroke="black" points="320,-280.5 320,-299.5 441,-299.5 441,-280.5 320,-280.5"/>
<text text-anchor="middle" x="380.5" y="-287.5" font-family="Helvetica,sans-Serif" font-size="10.00">graph&#45;node&#45;optimizer.hh</text>
</a>
</g>
</g>
<!-- Node1&#45;&gt;Node12 -->
<g id="edge14" class="edge"><title>Node1&#45;&gt;Node12</title>
<path fill="none" stroke="midnightblue" d="M380.5,-325.805C380.5,-316.91 380.5,-306.78 380.5,-299.751"/>
<polygon fill="midnightblue" stroke="midnightblue" points="377,-326.083 380.5,-336.083 384,-326.083 377,-326.083"/>
</g>
<!-- Node13 -->
<g id="node13" class="node"><title>Node13</title>
<g id="a_node13"><a xlink:href="a00081.html" target="_top" xlink:title="problem&#45;solver.hh">
<polygon fill="white" stroke="black" points="459.5,-280.5 459.5,-299.5 553.5,-299.5 553.5,-280.5 459.5,-280.5"/>
<text text-anchor="middle" x="506.5" y="-287.5" font-family="Helvetica,sans-Serif" font-size="10.00">problem&#45;solver.hh</text>
</a>
</g>
</g>
<!-- Node1&#45;&gt;Node13 -->
<g id="edge15" class="edge"><title>Node1&#45;&gt;Node13</title>
<path fill="none" stroke="midnightblue" d="M409.66,-332.503C433.281,-322.38 465.928,-308.388 486.628,-299.516"/>
<polygon fill="midnightblue" stroke="midnightblue" points="408.278,-329.287 400.465,-336.444 411.035,-335.721 408.278,-329.287"/>
</g>
<!-- Node3 -->
<g id="node3" class="node"><title>Node3</title>
<g id="a_node3"><a xlink:href="a00061.html" target="_top" xlink:title="edge.hh">
<polygon fill="white" stroke="black" points="216,-224.5 216,-243.5 267,-243.5 267,-224.5 216,-224.5"/>
<text text-anchor="middle" x="241.5" y="-231.5" font-family="Helvetica,sans-Serif" font-size="10.00">edge.hh</text>
</a>
</g>
</g>
<!-- Node2&#45;&gt;Node3 -->
<g id="edge2" class="edge"><title>Node2&#45;&gt;Node3</title>
<path fill="none" stroke="midnightblue" d="M263.668,-271.275C258.028,-262.045 251.382,-251.17 246.848,-243.751"/>
<polygon fill="midnightblue" stroke="midnightblue" points="260.85,-273.375 269.051,-280.083 266.823,-269.725 260.85,-273.375"/>
</g>
<!-- Node5 -->
<g id="node5" class="node"><title>Node5</title>
<g id="a_node5"><a xlink:href="a00087.html" target="_top" xlink:title="state&#45;selector.hh">
<polygon fill="white" stroke="black" points="100,-112.5 100,-131.5 189,-131.5 189,-112.5 100,-112.5"/>
<text text-anchor="middle" x="144.5" y="-119.5" font-family="Helvetica,sans-Serif" font-size="10.00">state&#45;selector.hh</text>
</a>
</g>
</g>
<!-- Node2&#45;&gt;Node5 -->
<g id="edge11" class="edge"><title>Node2&#45;&gt;Node5</title>
<path fill="none" stroke="midnightblue" d="M247.535,-275.475C233.966,-267.673 218.004,-256.858 206.5,-244 174.394,-208.113 154.086,-152.585 147.161,-131.507"/>
<polygon fill="midnightblue" stroke="midnightblue" points="246.013,-278.632 256.462,-280.383 249.385,-272.498 246.013,-278.632"/>
</g>
<!-- Node10 -->
<g id="node10" class="node"><title>Node10</title>
<g id="a_node10"><a xlink:href="a00090.html" target="_top" xlink:title="statistics.hh">
<polygon fill="white" stroke="black" points="276.5,-112.5 276.5,-131.5 346.5,-131.5 346.5,-112.5 276.5,-112.5"/>
<text text-anchor="middle" x="311.5" y="-119.5" font-family="Helvetica,sans-Serif" font-size="10.00">statistics.hh</text>
</a>
</g>
</g>
<!-- Node2&#45;&gt;Node10 -->
<g id="edge12" class="edge"><title>Node2&#45;&gt;Node10</title>
<path fill="none" stroke="midnightblue" d="M278.751,-269.93C286.777,-233.92 303.87,-157.231 309.59,-131.568"/>
<polygon fill="midnightblue" stroke="midnightblue" points="275.249,-269.553 276.489,-280.075 282.081,-271.076 275.249,-269.553"/>
</g>
<!-- Node11 -->
<g id="node11" class="node"><title>Node11</title>
<g id="a_node11"><a xlink:href="a00079.html" target="_top" xlink:title="manipulation&#45;planner.hh">
<polygon fill="white" stroke="black" points="284,-56.5 284,-75.5 403,-75.5 403,-56.5 284,-56.5"/>
<text text-anchor="middle" x="343.5" y="-63.5" font-family="Helvetica,sans-Serif" font-size="10.00">manipulation&#45;planner.hh</text>
</a>
</g>
</g>
<!-- Node2&#45;&gt;Node11 -->
<g id="edge13" class="edge"><title>Node2&#45;&gt;Node11</title>
<path fill="none" stroke="midnightblue" d="M286.748,-272.258C306.047,-244.696 342.656,-187.293 355.5,-132 360.122,-112.103 352.515,-88.4507 347.45,-75.8844"/>
<polygon fill="midnightblue" stroke="midnightblue" points="283.887,-270.242 280.927,-280.415 289.585,-274.309 283.887,-270.242"/>
</g>
<!-- Node4 -->
<g id="node4" class="node"><title>Node4</title>
<g id="a_node4"><a xlink:href="a00088.html" target="_top" xlink:title="state.hh">
<polygon fill="white" stroke="black" points="209.5,-168.5 209.5,-187.5 261.5,-187.5 261.5,-168.5 209.5,-168.5"/>
<text text-anchor="middle" x="235.5" y="-175.5" font-family="Helvetica,sans-Serif" font-size="10.00">state.hh</text>
</a>
</g>
</g>
<!-- Node3&#45;&gt;Node4 -->
<g id="edge3" class="edge"><title>Node3&#45;&gt;Node4</title>
<path fill="none" stroke="midnightblue" d="M239.4,-214.101C238.404,-205.136 237.262,-194.858 236.472,-187.751"/>
<polygon fill="midnightblue" stroke="midnightblue" points="235.926,-214.531 240.509,-224.083 242.883,-213.758 235.926,-214.531"/>
</g>
<!-- Node4&#45;&gt;Node5 -->
<g id="edge4" class="edge"><title>Node4&#45;&gt;Node5</title>
<path fill="none" stroke="midnightblue" d="M212.206,-163.177C195.461,-153.241 173.4,-140.149 159.084,-131.655"/>
<polygon fill="midnightblue" stroke="midnightblue" points="210.493,-166.231 220.879,-168.324 214.066,-160.211 210.493,-166.231"/>
</g>
<!-- Node9 -->
<g id="node9" class="node"><title>Node9</title>
<g id="a_node9"><a xlink:href="a00002.html" target="_top" xlink:title="node.hh">
<polygon fill="white" stroke="black" points="207,-112.5 207,-131.5 258,-131.5 258,-112.5 207,-112.5"/>
<text text-anchor="middle" x="232.5" y="-119.5" font-family="Helvetica,sans-Serif" font-size="10.00">node.hh</text>
</a>
</g>
</g>
<!-- Node4&#45;&gt;Node9 -->
<g id="edge8" class="edge"><title>Node4&#45;&gt;Node9</title>
<path fill="none" stroke="midnightblue" d="M234.434,-157.805C233.939,-148.91 233.377,-138.78 232.986,-131.751"/>
<polygon fill="midnightblue" stroke="midnightblue" points="230.955,-158.293 235.005,-168.083 237.944,-157.904 230.955,-158.293"/>
</g>
<!-- Node4&#45;&gt;Node10 -->
<g id="edge9" class="edge"><title>Node4&#45;&gt;Node10</title>
<path fill="none" stroke="midnightblue" d="M256.076,-162.38C269.812,-152.62 287.425,-140.106 299.067,-131.834"/>
<polygon fill="midnightblue" stroke="midnightblue" points="253.835,-159.679 247.711,-168.324 257.89,-165.385 253.835,-159.679"/>
</g>
<!-- Node6 -->
<g id="node6" class="node"><title>Node6</title>
<g id="a_node6"><a xlink:href="a00074.html" target="_top" xlink:title="guided&#45;state&#45;selector.hh">
<polygon fill="white" stroke="black" points="0,-56.5 0,-75.5 121,-75.5 121,-56.5 0,-56.5"/>
<text text-anchor="middle" x="60.5" y="-63.5" font-family="Helvetica,sans-Serif" font-size="10.00">guided&#45;state&#45;selector.hh</text>
</a>
</g>
</g>
<!-- Node5&#45;&gt;Node6 -->
<g id="edge5" class="edge"><title>Node5&#45;&gt;Node6</title>
<path fill="none" stroke="midnightblue" d="M122.568,-106.901C107.165,-96.9986 87.0542,-84.0705 73.9626,-75.6545"/>
<polygon fill="midnightblue" stroke="midnightblue" points="120.699,-109.86 131.004,-112.324 124.485,-103.972 120.699,-109.86"/>
</g>
<!-- Node8 -->
<g id="node8" class="node"><title>Node8</title>
<g id="a_node8"><a xlink:href="a00080.html" target="_top" xlink:title="node&#45;selector.hh">
<polygon fill="white" stroke="black" points="139,-56.5 139,-75.5 228,-75.5 228,-56.5 139,-56.5"/>
<text text-anchor="middle" x="183.5" y="-63.5" font-family="Helvetica,sans-Serif" font-size="10.00">node&#45;selector.hh</text>
</a>
</g>
</g>
<!-- Node5&#45;&gt;Node8 -->
<g id="edge7" class="edge"><title>Node5&#45;&gt;Node8</title>
<path fill="none" stroke="midnightblue" d="M156.882,-103.855C163.635,-94.5048 171.709,-83.3265 177.18,-75.7511"/>
<polygon fill="midnightblue" stroke="midnightblue" points="153.958,-101.927 150.94,-112.083 159.632,-106.025 153.958,-101.927"/>
</g>
<!-- Node7 -->
<g id="node7" class="node"><title>Node7</title>
<g id="a_node7"><a xlink:href="a00073.html" target="_top" xlink:title="guided&#45;node&#45;selector.hh">
<polygon fill="white" stroke="black" points="0.5,-0.5 0.5,-19.5 120.5,-19.5 120.5,-0.5 0.5,-0.5"/>
<text text-anchor="middle" x="60.5" y="-7.5" font-family="Helvetica,sans-Serif" font-size="10.00">guided&#45;node&#45;selector.hh</text>
</a>
</g>
</g>
<!-- Node6&#45;&gt;Node7 -->
<g id="edge6" class="edge"><title>Node6&#45;&gt;Node7</title>
<path fill="none" stroke="midnightblue" d="M60.5,-45.8045C60.5,-36.9102 60.5,-26.7798 60.5,-19.7511"/>
<polygon fill="midnightblue" stroke="midnightblue" points="57.0001,-46.083 60.5,-56.083 64.0001,-46.083 57.0001,-46.083"/>
</g>
<!-- Node10&#45;&gt;Node11 -->
<g id="edge10" class="edge"><title>Node10&#45;&gt;Node11</title>
<path fill="none" stroke="midnightblue" d="M322.004,-103.275C327.473,-94.0454 333.918,-83.1703 338.314,-75.7511"/>
<polygon fill="midnightblue" stroke="midnightblue" points="318.871,-101.696 316.784,-112.083 324.893,-105.264 318.871,-101.696"/>
</g>
</g>
</svg>
