<?xml version="1.0" encoding="UTF-8" standalone="no"?>
<!DOCTYPE svg PUBLIC "-//W3C//DTD SVG 1.1//EN"
 "http://www.w3.org/Graphics/SVG/1.1/DTD/svg11.dtd">
<!-- Generated by graphviz version 2.38.0 (20140413.2041)
 -->
<!-- Title: problem&#45;solver.hh Pages: 1 -->
<svg width="1046pt" height="386pt"
 viewBox="0.00 0.00 1045.50 386.00" xmlns="http://www.w3.org/2000/svg" xmlns:xlink="http://www.w3.org/1999/xlink">
<g id="graph0" class="graph" transform="scale(1 1) rotate(0) translate(4 382)">
<title>problem&#45;solver.hh</title>
<polygon fill="white" stroke="none" points="-4,4 -4,-382 1041.5,-382 1041.5,4 -4,4"/>
<!-- Node1 -->
<g id="node1" class="node"><title>Node1</title>
<polygon fill="#bfbfbf" stroke="black" points="454,-358.5 454,-377.5 548,-377.5 548,-358.5 454,-358.5"/>
<text text-anchor="middle" x="501" y="-365.5" font-family="Helvetica,sans-Serif" font-size="10.00">problem&#45;solver.hh</text>
</g>
<!-- Node2 -->
<g id="node2" class="node"><title>Node2</title>
<polygon fill="white" stroke="#bfbfbf" points="134.5,-56.5 134.5,-75.5 169.5,-75.5 169.5,-56.5 134.5,-56.5"/>
<text text-anchor="middle" x="152" y="-63.5" font-family="Helvetica,sans-Serif" font-size="10.00">map</text>
</g>
<!-- Node1&#45;&gt;Node2 -->
<g id="edge1" class="edge"><title>Node1&#45;&gt;Node2</title>
<path fill="none" stroke="midnightblue" d="M453.896,-364.391C365.175,-359.004 176.754,-345.174 116,-322 57.1293,-299.544 0,-303.508 0,-240.5 0,-240.5 0,-240.5 0,-177 0,-116.235 80.7106,-85.6186 124.506,-73.4787"/>
<polygon fill="midnightblue" stroke="midnightblue" points="125.487,-76.8397 134.266,-70.9092 123.705,-70.0704 125.487,-76.8397"/>
</g>
<!-- Node3 -->
<g id="node3" class="node"><title>Node3</title>
<polygon fill="white" stroke="#bfbfbf" points="742,-297 742,-316 864,-316 864,-297 742,-297"/>
<text text-anchor="middle" x="803" y="-304" font-family="Helvetica,sans-Serif" font-size="10.00">hpp/pinocchio/device.hh</text>
</g>
<!-- Node1&#45;&gt;Node3 -->
<g id="edge2" class="edge"><title>Node1&#45;&gt;Node3</title>
<path fill="none" stroke="midnightblue" d="M544.269,-358.475C598.428,-347.805 691.166,-329.534 749.661,-318.009"/>
<polygon fill="midnightblue" stroke="midnightblue" points="750.676,-321.376 759.811,-316.009 749.323,-314.508 750.676,-321.376"/>
</g>
<!-- Node4 -->
<g id="node4" class="node"><title>Node4</title>
<g id="a_node4"><a doxygen="/local/devel/hpp/install/share/doc/hpp-core/doxygen-html/hpp-core.doxytag:../../hpp-core/doxygen-html/" xlink:href="../../hpp-core/doxygen-html/a00179.html" target="_top" xlink:title="hpp/core/problem&#45;solver.hh">
<polygon fill="white" stroke="black" points="312,-168.5 312,-187.5 446,-187.5 446,-168.5 312,-168.5"/>
<text text-anchor="middle" x="379" y="-175.5" font-family="Helvetica,sans-Serif" font-size="10.00">hpp/core/problem&#45;solver.hh</text>
</a>
</g>
</g>
<!-- Node1&#45;&gt;Node4 -->
<g id="edge3" class="edge"><title>Node1&#45;&gt;Node4</title>
<path fill="none" stroke="midnightblue" d="M453.836,-364.036C379.04,-358.687 237.159,-345.711 193,-322 157.783,-303.09 147.275,-292.337 133,-255 128.08,-242.131 124.178,-234.583 133,-224 143.892,-210.935 233.626,-197.004 301.598,-188.162"/>
<polygon fill="midnightblue" stroke="midnightblue" points="302.408,-191.586 311.881,-186.841 301.516,-184.643 302.408,-191.586"/>
</g>
<!-- Node5 -->
<g id="node5" class="node"><title>Node5</title>
<g id="a_node5"><a xlink:href="a00001.html" target="_top" xlink:title="hpp/core/fwd.hh">
<polygon fill="white" stroke="black" points="109,-112.5 109,-131.5 195,-131.5 195,-112.5 109,-112.5"/>
<text text-anchor="middle" x="152" y="-119.5" font-family="Helvetica,sans-Serif" font-size="10.00">hpp/core/fwd.hh</text>
</a>
</g>
</g>
<!-- Node1&#45;&gt;Node5 -->
<g id="edge28" class="edge"><title>Node1&#45;&gt;Node5</title>
<path fill="none" stroke="midnightblue" d="M453.848,-366.925C368.768,-365.85 194.116,-359.049 148,-322 93.8874,-278.526 101.885,-234.435 122,-168 125.117,-157.705 131.452,-147.612 137.501,-139.602"/>
<polygon fill="midnightblue" stroke="midnightblue" points="140.228,-141.797 143.786,-131.818 134.781,-137.399 140.228,-141.797"/>
</g>
<!-- Node7 -->
<g id="node7" class="node"><title>Node7</title>
<g id="a_node7"><a xlink:href="a00065.html" target="_top" xlink:title="hpp/core/fwd.hh">
<polygon fill="white" stroke="black" points="431,-112.5 431,-131.5 517,-131.5 517,-112.5 431,-112.5"/>
<text text-anchor="middle" x="474" y="-119.5" font-family="Helvetica,sans-Serif" font-size="10.00">hpp/core/fwd.hh</text>
</a>
</g>
</g>
<!-- Node1&#45;&gt;Node7 -->
<g id="edge35" class="edge"><title>Node1&#45;&gt;Node7</title>
<path fill="none" stroke="midnightblue" d="M521.474,-358.45C538.141,-350.742 561.522,-338.147 578,-322 611.722,-288.955 640.852,-265.852 619,-224 595.703,-179.38 542.707,-150.467 507.65,-135.457"/>
<polygon fill="midnightblue" stroke="midnightblue" points="508.857,-132.168 498.278,-131.59 506.187,-138.639 508.857,-132.168"/>
</g>
<!-- Node13 -->
<g id="node13" class="node"><title>Node13</title>
<g id="a_node13"><a doxygen="/local/devel/hpp/install/share/doc/hpp-core/doxygen-html/hpp-core.doxytag:../../hpp-core/doxygen-html/" xlink:href="../../hpp-core/doxygen-html/a00125.html" target="_top" xlink:title="hpp/core/container.hh">
<polygon fill="white" stroke="black" points="621,-112.5 621,-131.5 731,-131.5 731,-112.5 621,-112.5"/>
<text text-anchor="middle" x="676" y="-119.5" font-family="Helvetica,sans-Serif" font-size="10.00">hpp/core/container.hh</text>
</a>
</g>
</g>
<!-- Node1&#45;&gt;Node13 -->
<g id="edge17" class="edge"><title>Node1&#45;&gt;Node13</title>
<path fill="none" stroke="midnightblue" d="M536.792,-358.383C559.095,-351.539 587.209,-340.056 607,-322 656.486,-276.851 660.805,-253.241 676,-188 679.564,-172.699 679.251,-154.817 678.225,-141.686"/>
<polygon fill="midnightblue" stroke="midnightblue" points="681.69,-141.159 677.218,-131.554 674.724,-141.851 681.69,-141.159"/>
</g>
<!-- Node14 -->
<g id="node14" class="node"><title>Node14</title>
<g id="a_node14"><a xlink:href="a00005.html" target="_top" xlink:title="hpp/manipulation/constraint\l&#45;set.hh">
<polygon fill="white" stroke="black" points="202,-291.5 202,-321.5 338,-321.5 338,-291.5 202,-291.5"/>
<text text-anchor="start" x="210" y="-309.5" font-family="Helvetica,sans-Serif" font-size="10.00">hpp/manipulation/constraint</text>
<text text-anchor="middle" x="270" y="-298.5" font-family="Helvetica,sans-Serif" font-size="10.00">&#45;set.hh</text>
</a>
</g>
</g>
<!-- Node1&#45;&gt;Node14 -->
<g id="edge18" class="edge"><title>Node1&#45;&gt;Node14</title>
<path fill="none" stroke="midnightblue" d="M467.903,-358.475C433.182,-349.532 377.73,-335.249 334.345,-324.074"/>
<polygon fill="midnightblue" stroke="midnightblue" points="334.999,-320.628 324.442,-321.523 333.253,-327.407 334.999,-320.628"/>
</g>
<!-- Node18 -->
<g id="node18" class="node"><title>Node18</title>
<polygon fill="white" stroke="#bfbfbf" points="882.5,-297 882.5,-316 1037.5,-316 1037.5,-297 882.5,-297"/>
<text text-anchor="middle" x="960" y="-304" font-family="Helvetica,sans-Serif" font-size="10.00">hpp/manipulation/deprecated.hh</text>
</g>
<!-- Node1&#45;&gt;Node18 -->
<g id="edge29" class="edge"><title>Node1&#45;&gt;Node18</title>
<path fill="none" stroke="midnightblue" d="M548.068,-361.99C618.749,-354.312 756.45,-338.753 873,-322 882.127,-320.688 891.774,-319.191 901.192,-317.668"/>
<polygon fill="midnightblue" stroke="midnightblue" points="901.983,-321.086 911.285,-316.014 900.851,-314.178 901.983,-321.086"/>
</g>
<!-- Node19 -->
<g id="node19" class="node"><title>Node19</title>
<g id="a_node19"><a xlink:href="a00059.html" target="_top" xlink:title="hpp/manipulation/device.hh">
<polygon fill="white" stroke="black" points="433.5,-297 433.5,-316 568.5,-316 568.5,-297 433.5,-297"/>
<text text-anchor="middle" x="501" y="-304" font-family="Helvetica,sans-Serif" font-size="10.00">hpp/manipulation/device.hh</text>
</a>
</g>
</g>
<!-- Node1&#45;&gt;Node19 -->
<g id="edge30" class="edge"><title>Node1&#45;&gt;Node19</title>
<path fill="none" stroke="midnightblue" d="M501,-358.475C501,-350.08 501,-336.981 501,-326.163"/>
<polygon fill="midnightblue" stroke="midnightblue" points="504.5,-326.009 501,-316.009 497.5,-326.009 504.5,-326.009"/>
</g>
<!-- Node4&#45;&gt;Node5 -->
<g id="edge4" class="edge"><title>Node4&#45;&gt;Node5</title>
<path fill="none" stroke="midnightblue" d="M343.031,-168.444C303.681,-159.083 240.513,-144.056 197.686,-133.868"/>
<polygon fill="midnightblue" stroke="midnightblue" points="198.339,-130.426 187.801,-131.516 196.719,-137.236 198.339,-130.426"/>
</g>
<!-- Node6 -->
<g id="node6" class="node"><title>Node6</title>
<g id="a_node6"><a doxygen="/local/devel/hpp/install/share/doc/hpp-core/doxygen-html/hpp-core.doxytag:../../hpp-core/doxygen-html/" xlink:href="../../hpp-core/doxygen-html/a00001.html" target="_top" xlink:title="hpp/core/fwd.hh">
<polygon fill="white" stroke="black" points="188,-56.5 188,-75.5 274,-75.5 274,-56.5 188,-56.5"/>
<text text-anchor="middle" x="231" y="-63.5" font-family="Helvetica,sans-Serif" font-size="10.00">hpp/core/fwd.hh</text>
</a>
</g>
</g>
<!-- Node4&#45;&gt;Node6 -->
<g id="edge15" class="edge"><title>Node4&#45;&gt;Node6</title>
<path fill="none" stroke="midnightblue" d="M377.333,-168.17C374.284,-154.356 366.538,-127.603 350,-112 331.877,-94.9009 306.619,-84.1335 284.034,-77.4378"/>
<polygon fill="midnightblue" stroke="midnightblue" points="284.785,-74.0144 274.214,-74.7255 282.921,-80.7617 284.785,-74.0144"/>
</g>
<!-- Node4&#45;&gt;Node7 -->
<g id="edge7" class="edge"><title>Node4&#45;&gt;Node7</title>
<path fill="none" stroke="midnightblue" d="M394.263,-168.324C409.221,-159.822 432.255,-146.729 449.727,-136.797"/>
<polygon fill="midnightblue" stroke="midnightblue" points="451.81,-139.639 458.774,-131.655 448.351,-133.553 451.81,-139.639"/>
</g>
<!-- Node12 -->
<g id="node12" class="node"><title>Node12</title>
<g id="a_node12"><a xlink:href="a00066.html" target="_top" xlink:title="hpp/core/fwd.hh">
<polygon fill="white" stroke="black" points="255,-112.5 255,-131.5 341,-131.5 341,-112.5 255,-112.5"/>
<text text-anchor="middle" x="298" y="-119.5" font-family="Helvetica,sans-Serif" font-size="10.00">hpp/core/fwd.hh</text>
</a>
</g>
</g>
<!-- Node4&#45;&gt;Node12 -->
<g id="edge12" class="edge"><title>Node4&#45;&gt;Node12</title>
<path fill="none" stroke="midnightblue" d="M365.986,-168.324C353.468,-159.979 334.318,-147.212 319.529,-137.352"/>
<polygon fill="midnightblue" stroke="midnightblue" points="321.244,-134.289 310.982,-131.655 317.361,-140.114 321.244,-134.289"/>
</g>
<!-- Node4&#45;&gt;Node13 -->
<g id="edge16" class="edge"><title>Node4&#45;&gt;Node13</title>
<path fill="none" stroke="midnightblue" d="M426.061,-168.444C478.415,-158.925 562.99,-143.547 619.04,-133.356"/>
<polygon fill="midnightblue" stroke="midnightblue" points="619.947,-136.749 629.16,-131.516 618.695,-129.862 619.947,-136.749"/>
</g>
<!-- Node5&#45;&gt;Node2 -->
<g id="edge5" class="edge"><title>Node5&#45;&gt;Node2</title>
<path fill="none" stroke="midnightblue" d="M152,-112.083C152,-105.006 152,-94.8611 152,-85.9865"/>
<polygon fill="midnightblue" stroke="midnightblue" points="155.5,-85.751 152,-75.7511 148.5,-85.7511 155.5,-85.751"/>
</g>
<!-- Node5&#45;&gt;Node6 -->
<g id="edge6" class="edge"><title>Node5&#45;&gt;Node6</title>
<path fill="none" stroke="midnightblue" d="M164.693,-112.324C176.901,-103.979 195.578,-91.2122 210.003,-81.3524"/>
<polygon fill="midnightblue" stroke="midnightblue" points="212.058,-84.1871 218.339,-75.6545 208.108,-78.4082 212.058,-84.1871"/>
</g>
<!-- Node8 -->
<g id="node8" class="node"><title>Node8</title>
<polygon fill="white" stroke="#bfbfbf" points="292,-56.5 292,-75.5 386,-75.5 386,-56.5 292,-56.5"/>
<text text-anchor="middle" x="339" y="-63.5" font-family="Helvetica,sans-Serif" font-size="10.00">hpp/util/pointer.hh</text>
</g>
<!-- Node7&#45;&gt;Node8 -->
<g id="edge8" class="edge"><title>Node7&#45;&gt;Node8</title>
<path fill="none" stroke="midnightblue" d="M452.609,-112.444C430.293,-103.517 395.097,-89.4387 369.792,-79.3168"/>
<polygon fill="midnightblue" stroke="midnightblue" points="370.876,-75.9807 360.291,-75.5164 368.276,-82.4801 370.876,-75.9807"/>
</g>
<!-- Node9 -->
<g id="node9" class="node"><title>Node9</title>
<g id="a_node9"><a doxygen="/local/devel/hpp/install/share/doc/hpp-statistics/doxygen-html/hpp-statistics.doxytag:../../hpp-statistics/doxygen-html/" xlink:href="../../hpp-statistics/doxygen-html/a00009.html" target="_top" xlink:title="hpp/statistics/distribution.hh">
<polygon fill="white" stroke="black" points="404.5,-56.5 404.5,-75.5 543.5,-75.5 543.5,-56.5 404.5,-56.5"/>
<text text-anchor="middle" x="474" y="-63.5" font-family="Helvetica,sans-Serif" font-size="10.00">hpp/statistics/distribution.hh</text>
</a>
</g>
</g>
<!-- Node7&#45;&gt;Node9 -->
<g id="edge9" class="edge"><title>Node7&#45;&gt;Node9</title>
<path fill="none" stroke="midnightblue" d="M474,-112.083C474,-105.006 474,-94.8611 474,-85.9865"/>
<polygon fill="midnightblue" stroke="midnightblue" points="477.5,-85.751 474,-75.7511 470.5,-85.7511 477.5,-85.751"/>
</g>
<!-- Node11 -->
<g id="node11" class="node"><title>Node11</title>
<polygon fill="white" stroke="#bfbfbf" points="562,-56.5 562,-75.5 606,-75.5 606,-56.5 562,-56.5"/>
<text text-anchor="middle" x="584" y="-63.5" font-family="Helvetica,sans-Serif" font-size="10.00">vector</text>
</g>
<!-- Node7&#45;&gt;Node11 -->
<g id="edge11" class="edge"><title>Node7&#45;&gt;Node11</title>
<path fill="none" stroke="midnightblue" d="M491.673,-112.324C509.394,-103.625 536.903,-90.1202 557.288,-80.113"/>
<polygon fill="midnightblue" stroke="midnightblue" points="558.936,-83.2031 566.37,-75.6545 555.851,-76.9195 558.936,-83.2031"/>
</g>
<!-- Node10 -->
<g id="node10" class="node"><title>Node10</title>
<g id="a_node10"><a doxygen="/local/devel/hpp/install/share/doc/hpp-statistics/doxygen-html/hpp-statistics.doxytag:../../hpp-statistics/doxygen-html/" xlink:href="../../hpp-statistics/doxygen-html/a00010.html" target="_top" xlink:title="hpp/statistics/fwd.hh">
<polygon fill="white" stroke="black" points="420.5,-0.5 420.5,-19.5 527.5,-19.5 527.5,-0.5 420.5,-0.5"/>
<text text-anchor="middle" x="474" y="-7.5" font-family="Helvetica,sans-Serif" font-size="10.00">hpp/statistics/fwd.hh</text>
</a>
</g>
</g>
<!-- Node9&#45;&gt;Node10 -->
<g id="edge10" class="edge"><title>Node9&#45;&gt;Node10</title>
<path fill="none" stroke="midnightblue" d="M474,-56.083C474,-49.0059 474,-38.8611 474,-29.9865"/>
<polygon fill="midnightblue" stroke="midnightblue" points="477.5,-29.751 474,-19.7511 470.5,-29.7511 477.5,-29.751"/>
</g>
<!-- Node12&#45;&gt;Node2 -->
<g id="edge13" class="edge"><title>Node12&#45;&gt;Node2</title>
<path fill="none" stroke="midnightblue" d="M274.866,-112.444C248.799,-102.802 206.483,-87.1514 178.946,-76.9664"/>
<polygon fill="midnightblue" stroke="midnightblue" points="180.12,-73.669 169.527,-73.4826 177.692,-80.2343 180.12,-73.669"/>
</g>
<!-- Node12&#45;&gt;Node6 -->
<g id="edge14" class="edge"><title>Node12&#45;&gt;Node6</title>
<path fill="none" stroke="midnightblue" d="M287.235,-112.324C277.234,-104.263 262.113,-92.0765 250.07,-82.3695"/>
<polygon fill="midnightblue" stroke="midnightblue" points="251.943,-79.3841 241.961,-75.8339 247.55,-84.8343 251.943,-79.3841"/>
</g>
<!-- Node14&#45;&gt;Node5 -->
<g id="edge25" class="edge"><title>Node14&#45;&gt;Node5</title>
<path fill="none" stroke="midnightblue" d="M201.991,-297.09C175.984,-290.186 148.802,-277.666 133,-255 108.813,-220.307 128.816,-167.918 142.261,-140.75"/>
<polygon fill="midnightblue" stroke="midnightblue" points="145.479,-142.149 146.987,-131.662 139.268,-138.919 145.479,-142.149"/>
</g>
<!-- Node14&#45;&gt;Node7 -->
<g id="edge26" class="edge"><title>Node14&#45;&gt;Node7</title>
<path fill="none" stroke="midnightblue" d="M269.055,-291.231C268.683,-273.014 270.987,-241.737 289,-224 342.793,-171.033 399.762,-239.458 455,-188 467.626,-176.238 472.019,-156.599 473.47,-141.98"/>
<polygon fill="midnightblue" stroke="midnightblue" points="476.989,-141.773 474.104,-131.579 470.002,-141.347 476.989,-141.773"/>
</g>
<!-- Node15 -->
<g id="node15" class="node"><title>Node15</title>
<g id="a_node15"><a doxygen="/local/devel/hpp/install/share/doc/hpp-core/doxygen-html/hpp-core.doxytag:../../hpp-core/doxygen-html/" xlink:href="../../hpp-core/doxygen-html/a00123.html" target="_top" xlink:title="hpp/core/constraint\l&#45;set.hh">
<polygon fill="white" stroke="black" points="142,-224.5 142,-254.5 242,-254.5 242,-224.5 142,-224.5"/>
<text text-anchor="start" x="150" y="-242.5" font-family="Helvetica,sans-Serif" font-size="10.00">hpp/core/constraint</text>
<text text-anchor="middle" x="192" y="-231.5" font-family="Helvetica,sans-Serif" font-size="10.00">&#45;set.hh</text>
</a>
</g>
</g>
<!-- Node14&#45;&gt;Node15 -->
<g id="edge19" class="edge"><title>Node14&#45;&gt;Node15</title>
<path fill="none" stroke="midnightblue" d="M253.075,-291.396C242.445,-282.538 228.552,-270.96 216.703,-261.086"/>
<polygon fill="midnightblue" stroke="midnightblue" points="218.815,-258.29 208.892,-254.577 214.333,-263.667 218.815,-258.29"/>
</g>
<!-- Node17 -->
<g id="node17" class="node"><title>Node17</title>
<polygon fill="white" stroke="#bfbfbf" points="298.5,-230 298.5,-249 431.5,-249 431.5,-230 298.5,-230"/>
<text text-anchor="middle" x="365" y="-237" font-family="Helvetica,sans-Serif" font-size="10.00">hpp/manipulation/config.hh</text>
</g>
<!-- Node14&#45;&gt;Node17 -->
<g id="edge27" class="edge"><title>Node14&#45;&gt;Node17</title>
<path fill="none" stroke="midnightblue" d="M290.614,-291.396C306.397,-280.597 328.087,-265.756 343.973,-254.887"/>
<polygon fill="midnightblue" stroke="midnightblue" points="346.29,-257.542 352.567,-249.007 342.337,-251.765 346.29,-257.542"/>
</g>
<!-- Node16 -->
<g id="node16" class="node"><title>Node16</title>
<g id="a_node16"><a doxygen="/local/devel/hpp/install/share/doc/hpp-core/doxygen-html/hpp-core.doxytag:../../hpp-core/doxygen-html/" xlink:href="../../hpp-core/doxygen-html/a00124.html" target="_top" xlink:title="hpp/core/constraint.hh">
<polygon fill="white" stroke="black" points="180.5,-168.5 180.5,-187.5 293.5,-187.5 293.5,-168.5 180.5,-168.5"/>
<text text-anchor="middle" x="237" y="-175.5" font-family="Helvetica,sans-Serif" font-size="10.00">hpp/core/constraint.hh</text>
</a>
</g>
</g>
<!-- Node15&#45;&gt;Node16 -->
<g id="edge20" class="edge"><title>Node15&#45;&gt;Node16</title>
<path fill="none" stroke="midnightblue" d="M202.664,-224.399C209.136,-215.842 217.434,-204.871 224.251,-195.857"/>
<polygon fill="midnightblue" stroke="midnightblue" points="227.211,-197.745 230.452,-187.658 221.628,-193.522 227.211,-197.745"/>
</g>
<!-- Node16&#45;&gt;Node5 -->
<g id="edge21" class="edge"><title>Node16&#45;&gt;Node5</title>
<path fill="none" stroke="midnightblue" d="M223.343,-168.324C210.084,-159.9 189.732,-146.971 174.154,-137.074"/>
<polygon fill="midnightblue" stroke="midnightblue" points="175.94,-134.063 165.623,-131.655 172.187,-139.971 175.94,-134.063"/>
</g>
<!-- Node16&#45;&gt;Node6 -->
<g id="edge24" class="edge"><title>Node16&#45;&gt;Node6</title>
<path fill="none" stroke="midnightblue" d="M236.529,-168.368C235.561,-150.617 233.327,-109.666 232.014,-85.5974"/>
<polygon fill="midnightblue" stroke="midnightblue" points="235.508,-85.3859 231.469,-75.5914 228.519,-85.7672 235.508,-85.3859"/>
</g>
<!-- Node16&#45;&gt;Node7 -->
<g id="edge22" class="edge"><title>Node16&#45;&gt;Node7</title>
<path fill="none" stroke="midnightblue" d="M274.553,-168.444C315.811,-159.043 382.144,-143.929 426.866,-133.739"/>
<polygon fill="midnightblue" stroke="midnightblue" points="427.65,-137.151 436.622,-131.516 426.095,-130.326 427.65,-137.151"/>
</g>
<!-- Node16&#45;&gt;Node12 -->
<g id="edge23" class="edge"><title>Node16&#45;&gt;Node12</title>
<path fill="none" stroke="midnightblue" d="M246.801,-168.324C255.818,-160.341 269.406,-148.313 280.318,-138.653"/>
<polygon fill="midnightblue" stroke="midnightblue" points="282.853,-141.083 288.021,-131.834 278.213,-135.842 282.853,-141.083"/>
</g>
<!-- Node19&#45;&gt;Node5 -->
<g id="edge33" class="edge"><title>Node19&#45;&gt;Node5</title>
<path fill="none" stroke="midnightblue" d="M497.323,-296.794C489.558,-279.6 469.724,-241.442 440,-224 335.967,-162.953 262.496,-266.6 171,-188 157.782,-176.645 153.5,-156.649 152.239,-141.825"/>
<polygon fill="midnightblue" stroke="midnightblue" points="155.73,-141.55 151.764,-131.726 148.737,-141.879 155.73,-141.55"/>
</g>
<!-- Node19&#45;&gt;Node13 -->
<g id="edge32" class="edge"><title>Node19&#45;&gt;Node13</title>
<path fill="none" stroke="midnightblue" d="M539.494,-296.96C564.869,-289.593 597.299,-276.63 619,-255 651.165,-222.94 666.401,-169.78 672.524,-141.703"/>
<polygon fill="midnightblue" stroke="midnightblue" points="676.006,-142.143 674.557,-131.647 669.145,-140.756 676.006,-142.143"/>
</g>
<!-- Node19&#45;&gt;Node17 -->
<g id="edge34" class="edge"><title>Node19&#45;&gt;Node17</title>
<path fill="none" stroke="midnightblue" d="M482.94,-296.869C459.773,-285.796 419.371,-266.486 392.405,-253.598"/>
<polygon fill="midnightblue" stroke="midnightblue" points="393.666,-250.322 383.134,-249.167 390.648,-256.637 393.666,-250.322"/>
</g>
<!-- Node20 -->
<g id="node20" class="node"><title>Node20</title>
<polygon fill="white" stroke="#bfbfbf" points="488,-224.5 488,-254.5 610,-254.5 610,-224.5 488,-224.5"/>
<text text-anchor="start" x="496" y="-242.5" font-family="Helvetica,sans-Serif" font-size="10.00">hpp/pinocchio/humanoid</text>
<text text-anchor="middle" x="549" y="-231.5" font-family="Helvetica,sans-Serif" font-size="10.00">&#45;robot.hh</text>
</g>
<!-- Node19&#45;&gt;Node20 -->
<g id="edge31" class="edge"><title>Node19&#45;&gt;Node20</title>
<path fill="none" stroke="midnightblue" d="M507.473,-296.734C513.898,-288.034 524.007,-274.345 532.642,-262.651"/>
<polygon fill="midnightblue" stroke="midnightblue" points="535.471,-264.713 538.596,-254.589 529.84,-260.554 535.471,-264.713"/>
</g>
</g>
</svg>
