<?xml version="1.0" encoding="UTF-8" standalone="no"?>
<!DOCTYPE svg PUBLIC "-//W3C//DTD SVG 1.1//EN"
 "http://www.w3.org/Graphics/SVG/1.1/DTD/svg11.dtd">
<!-- Generated by graphviz version 2.38.0 (20140413.2041)
 -->
<!-- Title: node.hh Pages: 1 -->
<svg width="1926pt" height="587pt"
 viewBox="0.00 0.00 1926.00 587.00" xmlns="http://www.w3.org/2000/svg" xmlns:xlink="http://www.w3.org/1999/xlink">
<g id="graph0" class="graph" transform="scale(1 1) rotate(0) translate(4 583)">
<title>node.hh</title>
<polygon fill="white" stroke="none" points="-4,4 -4,-583 1922,-583 1922,4 -4,4"/>
<!-- Node1 -->
<g id="node1" class="node"><title>Node1</title>
<polygon fill="#bfbfbf" stroke="black" points="922.5,-559.5 922.5,-578.5 973.5,-578.5 973.5,-559.5 922.5,-559.5"/>
<text text-anchor="middle" x="948" y="-566.5" font-family="Helvetica,sans-Serif" font-size="10.00">node.hh</text>
</g>
<!-- Node2 -->
<g id="node2" class="node"><title>Node2</title>
<g id="a_node2"><a xlink:href="a00088.html" target="_top" xlink:title="hpp/manipulation/graph\l/state.hh">
<polygon fill="white" stroke="black" points="889.5,-492.5 889.5,-522.5 1006.5,-522.5 1006.5,-492.5 889.5,-492.5"/>
<text text-anchor="start" x="897.5" y="-510.5" font-family="Helvetica,sans-Serif" font-size="10.00">hpp/manipulation/graph</text>
<text text-anchor="middle" x="948" y="-499.5" font-family="Helvetica,sans-Serif" font-size="10.00">/state.hh</text>
</a>
</g>
</g>
<!-- Node1&#45;&gt;Node2 -->
<g id="edge1" class="edge"><title>Node1&#45;&gt;Node2</title>
<path fill="none" stroke="midnightblue" d="M948,-559.475C948,-552.471 948,-542.192 948,-532.696"/>
<polygon fill="midnightblue" stroke="midnightblue" points="951.5,-532.523 948,-522.523 944.5,-532.523 951.5,-532.523"/>
</g>
<!-- Node3 -->
<g id="node3" class="node"><title>Node3</title>
<polygon fill="white" stroke="#bfbfbf" points="109.5,-431 109.5,-450 206.5,-450 206.5,-431 109.5,-431"/>
<text text-anchor="middle" x="158" y="-438" font-family="Helvetica,sans-Serif" font-size="10.00">boost/function.hpp</text>
</g>
<!-- Node2&#45;&gt;Node3 -->
<g id="edge2" class="edge"><title>Node2&#45;&gt;Node3</title>
<path fill="none" stroke="midnightblue" d="M889.237,-505.538C765.147,-502.822 467.526,-492.701 221,-456 214.287,-455.001 207.231,-453.664 200.367,-452.206"/>
<polygon fill="midnightblue" stroke="midnightblue" points="201.035,-448.769 190.512,-450.007 199.51,-455.601 201.035,-448.769"/>
</g>
<!-- Node4 -->
<g id="node4" class="node"><title>Node4</title>
<g id="a_node4"><a doxygen="/local/devel/hpp/install/share/doc/hpp-core/doxygen-html/hpp-core.doxytag:../../hpp-core/doxygen-html/" xlink:href="../../hpp-core/doxygen-html/a00123.html" target="_top" xlink:title="hpp/core/constraint\l&#45;set.hh">
<polygon fill="white" stroke="black" points="792,-224.5 792,-254.5 892,-254.5 892,-224.5 792,-224.5"/>
<text text-anchor="start" x="800" y="-242.5" font-family="Helvetica,sans-Serif" font-size="10.00">hpp/core/constraint</text>
<text text-anchor="middle" x="842" y="-231.5" font-family="Helvetica,sans-Serif" font-size="10.00">&#45;set.hh</text>
</a>
</g>
</g>
<!-- Node2&#45;&gt;Node4 -->
<g id="edge3" class="edge"><title>Node2&#45;&gt;Node4</title>
<path fill="none" stroke="midnightblue" d="M942.301,-492.199C924.97,-448.707 872.775,-317.728 851.342,-263.942"/>
<polygon fill="midnightblue" stroke="midnightblue" points="854.552,-262.543 847.599,-254.549 848.049,-265.134 854.552,-262.543"/>
</g>
<!-- Node6 -->
<g id="node6" class="node"><title>Node6</title>
<g id="a_node6"><a xlink:href="a00001.html" target="_top" xlink:title="hpp/core/fwd.hh">
<polygon fill="white" stroke="black" points="725,-112.5 725,-131.5 811,-131.5 811,-112.5 725,-112.5"/>
<text text-anchor="middle" x="768" y="-119.5" font-family="Helvetica,sans-Serif" font-size="10.00">hpp/core/fwd.hh</text>
</a>
</g>
</g>
<!-- Node2&#45;&gt;Node6 -->
<g id="edge27" class="edge"><title>Node2&#45;&gt;Node6</title>
<path fill="none" stroke="midnightblue" d="M949.14,-492.362C952.025,-449.972 956.9,-320.88 919,-224 907.666,-195.027 901.589,-187.06 877,-168 857.444,-152.841 832.059,-141.965 810.707,-134.708"/>
<polygon fill="midnightblue" stroke="midnightblue" points="811.497,-131.284 800.905,-131.529 809.337,-137.943 811.497,-131.284"/>
</g>
<!-- Node9 -->
<g id="node9" class="node"><title>Node9</title>
<g id="a_node9"><a xlink:href="a00065.html" target="_top" xlink:title="hpp/core/fwd.hh">
<polygon fill="white" stroke="black" points="877,-112.5 877,-131.5 963,-131.5 963,-112.5 877,-112.5"/>
<text text-anchor="middle" x="920" y="-119.5" font-family="Helvetica,sans-Serif" font-size="10.00">hpp/core/fwd.hh</text>
</a>
</g>
</g>
<!-- Node2&#45;&gt;Node9 -->
<g id="edge28" class="edge"><title>Node2&#45;&gt;Node9</title>
<path fill="none" stroke="midnightblue" d="M1006.86,-504.724C1217.01,-497.614 1918,-466.966 1918,-374.5 1918,-374.5 1918,-374.5 1918,-238.5 1918,-142.5 1179.89,-126.196 973.21,-123.513"/>
<polygon fill="midnightblue" stroke="midnightblue" points="973.246,-120.013 963.203,-123.388 973.159,-127.012 973.246,-120.013"/>
</g>
<!-- Node15 -->
<g id="node15" class="node"><title>Node15</title>
<g id="a_node15"><a doxygen="/local/devel/hpp/install/share/doc/hpp-core/doxygen-html/hpp-core.doxytag:../../hpp-core/doxygen-html/" xlink:href="../../hpp-core/doxygen-html/a00117.html" target="_top" xlink:title="hpp/core/config&#45;projector.hh">
<polygon fill="white" stroke="black" points="263.5,-364 263.5,-383 400.5,-383 400.5,-364 263.5,-364"/>
<text text-anchor="middle" x="332" y="-371" font-family="Helvetica,sans-Serif" font-size="10.00">hpp/core/config&#45;projector.hh</text>
</a>
</g>
</g>
<!-- Node2&#45;&gt;Node15 -->
<g id="edge17" class="edge"><title>Node2&#45;&gt;Node15</title>
<path fill="none" stroke="midnightblue" d="M889.493,-493.963C768.924,-468.127 494.668,-409.357 381.872,-385.187"/>
<polygon fill="midnightblue" stroke="midnightblue" points="382.301,-381.699 371.789,-383.026 380.834,-388.544 382.301,-381.699"/>
</g>
<!-- Node16 -->
<g id="node16" class="node"><title>Node16</title>
<g id="a_node16"><a doxygen="/local/devel/hpp/install/share/doc/hpp-constraints/doxygen-html/hpp-constraints.doxytag:../../hpp-constraints/doxygen-html/" xlink:href="../../hpp-constraints/doxygen-html/a00119.html" target="_top" xlink:title="hpp/constraints/implicit.hh">
<polygon fill="white" stroke="black" points="66.5,-168.5 66.5,-187.5 197.5,-187.5 197.5,-168.5 66.5,-168.5"/>
<text text-anchor="middle" x="132" y="-175.5" font-family="Helvetica,sans-Serif" font-size="10.00">hpp/constraints/implicit.hh</text>
</a>
</g>
</g>
<!-- Node2&#45;&gt;Node16 -->
<g id="edge19" class="edge"><title>Node2&#45;&gt;Node16</title>
<path fill="none" stroke="midnightblue" d="M889.349,-501.828C718.793,-487.463 235,-440.867 235,-374.5 235,-374.5 235,-374.5 235,-305.5 235,-255.236 185.494,-213.865 155.125,-193.215"/>
<polygon fill="midnightblue" stroke="midnightblue" points="157.037,-190.284 146.757,-187.717 153.193,-196.134 157.037,-190.284"/>
</g>
<!-- Node18 -->
<g id="node18" class="node"><title>Node18</title>
<polygon fill="white" stroke="#bfbfbf" points="1110.5,-230 1110.5,-249 1243.5,-249 1243.5,-230 1110.5,-230"/>
<text text-anchor="middle" x="1177" y="-237" font-family="Helvetica,sans-Serif" font-size="10.00">hpp/manipulation/config.hh</text>
</g>
<!-- Node2&#45;&gt;Node18 -->
<g id="edge25" class="edge"><title>Node2&#45;&gt;Node18</title>
<path fill="none" stroke="midnightblue" d="M1006.64,-506.373C1091.22,-502.785 1246.22,-482.838 1328,-389 1356.8,-355.957 1364.97,-326.304 1339,-291 1331.84,-281.266 1267.3,-263.262 1221.88,-251.59"/>
<polygon fill="midnightblue" stroke="midnightblue" points="1222.49,-248.134 1211.94,-249.056 1220.76,-254.917 1222.49,-248.134"/>
</g>
<!-- Node19 -->
<g id="node19" class="node"><title>Node19</title>
<polygon fill="white" stroke="#bfbfbf" points="1734.5,-230 1734.5,-249 1889.5,-249 1889.5,-230 1734.5,-230"/>
<text text-anchor="middle" x="1812" y="-237" font-family="Helvetica,sans-Serif" font-size="10.00">hpp/manipulation/deprecated.hh</text>
</g>
<!-- Node2&#45;&gt;Node19 -->
<g id="edge26" class="edge"><title>Node2&#45;&gt;Node19</title>
<path fill="none" stroke="midnightblue" d="M1006.85,-504.006C1122.93,-498.545 1377.33,-483.747 1460,-456 1600.98,-408.68 1744.72,-296.451 1794.09,-255.656"/>
<polygon fill="midnightblue" stroke="midnightblue" points="1796.5,-258.202 1801.94,-249.11 1792.02,-252.826 1796.5,-258.202"/>
</g>
<!-- Node20 -->
<g id="node20" class="node"><title>Node20</title>
<g id="a_node20"><a xlink:href="a00061.html" target="_top" xlink:title="hpp/manipulation/graph\l/edge.hh">
<polygon fill="white" stroke="black" points="770.5,-425.5 770.5,-455.5 887.5,-455.5 887.5,-425.5 770.5,-425.5"/>
<text text-anchor="start" x="778.5" y="-443.5" font-family="Helvetica,sans-Serif" font-size="10.00">hpp/manipulation/graph</text>
<text text-anchor="middle" x="829" y="-432.5" font-family="Helvetica,sans-Serif" font-size="10.00">/edge.hh</text>
</a>
</g>
</g>
<!-- Node2&#45;&gt;Node20 -->
<g id="edge29" class="edge"><title>Node2&#45;&gt;Node20</title>
<path fill="none" stroke="midnightblue" d="M922.179,-492.396C905.025,-483.026 882.304,-470.615 863.592,-460.395"/>
<polygon fill="midnightblue" stroke="midnightblue" points="865.225,-457.299 854.771,-455.577 861.869,-463.442 865.225,-457.299"/>
</g>
<!-- Node29 -->
<g id="node29" class="node"><title>Node29</title>
<g id="a_node29"><a xlink:href="a00067.html" target="_top" xlink:title="hpp/manipulation/graph\l/graph&#45;component.hh">
<polygon fill="white" stroke="black" points="1446.5,-291.5 1446.5,-321.5 1563.5,-321.5 1563.5,-291.5 1446.5,-291.5"/>
<text text-anchor="start" x="1454.5" y="-309.5" font-family="Helvetica,sans-Serif" font-size="10.00">hpp/manipulation/graph</text>
<text text-anchor="middle" x="1505" y="-298.5" font-family="Helvetica,sans-Serif" font-size="10.00">/graph&#45;component.hh</text>
</a>
</g>
</g>
<!-- Node2&#45;&gt;Node29 -->
<g id="edge80" class="edge"><title>Node2&#45;&gt;Node29</title>
<path fill="none" stroke="midnightblue" d="M1006.71,-507.294C1120.23,-507.731 1364.61,-502.995 1432,-456 1474.1,-426.642 1492.99,-365.932 1500.57,-331.931"/>
<polygon fill="midnightblue" stroke="midnightblue" points="1504.04,-332.405 1502.64,-321.904 1497.19,-330.986 1504.04,-332.405"/>
</g>
<!-- Node5 -->
<g id="node5" class="node"><title>Node5</title>
<g id="a_node5"><a doxygen="/local/devel/hpp/install/share/doc/hpp-core/doxygen-html/hpp-core.doxytag:../../hpp-core/doxygen-html/" xlink:href="../../hpp-core/doxygen-html/a00124.html" target="_top" xlink:title="hpp/core/constraint.hh">
<polygon fill="white" stroke="black" points="444.5,-168.5 444.5,-187.5 557.5,-187.5 557.5,-168.5 444.5,-168.5"/>
<text text-anchor="middle" x="501" y="-175.5" font-family="Helvetica,sans-Serif" font-size="10.00">hpp/core/constraint.hh</text>
</a>
</g>
</g>
<!-- Node4&#45;&gt;Node5 -->
<g id="edge4" class="edge"><title>Node4&#45;&gt;Node5</title>
<path fill="none" stroke="midnightblue" d="M791.684,-229.721C729.959,-218.95 625.476,-200.719 560.02,-189.298"/>
<polygon fill="midnightblue" stroke="midnightblue" points="560.315,-185.797 549.863,-187.526 559.112,-192.693 560.315,-185.797"/>
</g>
<!-- Node5&#45;&gt;Node6 -->
<g id="edge5" class="edge"><title>Node5&#45;&gt;Node6</title>
<path fill="none" stroke="midnightblue" d="M543.307,-168.444C590.08,-158.984 665.46,-143.738 715.85,-133.547"/>
<polygon fill="midnightblue" stroke="midnightblue" points="716.783,-136.929 725.891,-131.516 715.396,-130.068 716.783,-136.929"/>
</g>
<!-- Node8 -->
<g id="node8" class="node"><title>Node8</title>
<g id="a_node8"><a doxygen="/local/devel/hpp/install/share/doc/hpp-core/doxygen-html/hpp-core.doxytag:../../hpp-core/doxygen-html/" xlink:href="../../hpp-core/doxygen-html/a00001.html" target="_top" xlink:title="hpp/core/fwd.hh">
<polygon fill="white" stroke="black" points="334,-56.5 334,-75.5 420,-75.5 420,-56.5 334,-56.5"/>
<text text-anchor="middle" x="377" y="-63.5" font-family="Helvetica,sans-Serif" font-size="10.00">hpp/core/fwd.hh</text>
</a>
</g>
</g>
<!-- Node5&#45;&gt;Node8 -->
<g id="edge16" class="edge"><title>Node5&#45;&gt;Node8</title>
<path fill="none" stroke="midnightblue" d="M491.27,-168.368C470.354,-149.814 420.865,-105.913 394.402,-82.4376"/>
<polygon fill="midnightblue" stroke="midnightblue" points="396.488,-79.6093 386.685,-75.5914 391.843,-84.8459 396.488,-79.6093"/>
</g>
<!-- Node5&#45;&gt;Node9 -->
<g id="edge8" class="edge"><title>Node5&#45;&gt;Node9</title>
<path fill="none" stroke="midnightblue" d="M557.521,-169.26C560.728,-168.831 563.904,-168.408 567,-168 673.178,-153.993 797.421,-138.322 866.578,-129.663"/>
<polygon fill="midnightblue" stroke="midnightblue" points="867.295,-133.1 876.783,-128.386 866.426,-126.155 867.295,-133.1"/>
</g>
<!-- Node14 -->
<g id="node14" class="node"><title>Node14</title>
<g id="a_node14"><a xlink:href="a00066.html" target="_top" xlink:title="hpp/core/fwd.hh">
<polygon fill="white" stroke="black" points="299,-112.5 299,-131.5 385,-131.5 385,-112.5 299,-112.5"/>
<text text-anchor="middle" x="342" y="-119.5" font-family="Helvetica,sans-Serif" font-size="10.00">hpp/core/fwd.hh</text>
</a>
</g>
</g>
<!-- Node5&#45;&gt;Node14 -->
<g id="edge13" class="edge"><title>Node5&#45;&gt;Node14</title>
<path fill="none" stroke="midnightblue" d="M475.806,-168.444C449.057,-159.359 406.597,-144.939 376.695,-134.783"/>
<polygon fill="midnightblue" stroke="midnightblue" points="377.671,-131.418 367.076,-131.516 375.419,-138.046 377.671,-131.418"/>
</g>
<!-- Node7 -->
<g id="node7" class="node"><title>Node7</title>
<polygon fill="white" stroke="#bfbfbf" points="718.5,-56.5 718.5,-75.5 753.5,-75.5 753.5,-56.5 718.5,-56.5"/>
<text text-anchor="middle" x="736" y="-63.5" font-family="Helvetica,sans-Serif" font-size="10.00">map</text>
</g>
<!-- Node6&#45;&gt;Node7 -->
<g id="edge6" class="edge"><title>Node6&#45;&gt;Node7</title>
<path fill="none" stroke="midnightblue" d="M762.716,-112.083C758.289,-104.613 751.837,-93.7244 746.382,-84.5199"/>
<polygon fill="midnightblue" stroke="midnightblue" points="749.295,-82.5697 741.186,-75.7511 743.273,-86.1383 749.295,-82.5697"/>
</g>
<!-- Node6&#45;&gt;Node8 -->
<g id="edge7" class="edge"><title>Node6&#45;&gt;Node8</title>
<path fill="none" stroke="midnightblue" d="M724.662,-115.015C652.638,-105.068 508.506,-85.162 430.349,-74.3679"/>
<polygon fill="midnightblue" stroke="midnightblue" points="430.618,-70.872 420.234,-72.9709 429.661,-77.8061 430.618,-70.872"/>
</g>
<!-- Node10 -->
<g id="node10" class="node"><title>Node10</title>
<polygon fill="white" stroke="#bfbfbf" points="991,-56.5 991,-75.5 1085,-75.5 1085,-56.5 991,-56.5"/>
<text text-anchor="middle" x="1038" y="-63.5" font-family="Helvetica,sans-Serif" font-size="10.00">hpp/util/pointer.hh</text>
</g>
<!-- Node9&#45;&gt;Node10 -->
<g id="edge9" class="edge"><title>Node9&#45;&gt;Node10</title>
<path fill="none" stroke="midnightblue" d="M938.697,-112.444C957.944,-103.636 988.152,-89.8116 1010.2,-79.722"/>
<polygon fill="midnightblue" stroke="midnightblue" points="1011.75,-82.8603 1019.39,-75.5164 1008.84,-76.4951 1011.75,-82.8603"/>
</g>
<!-- Node11 -->
<g id="node11" class="node"><title>Node11</title>
<g id="a_node11"><a doxygen="/local/devel/hpp/install/share/doc/hpp-statistics/doxygen-html/hpp-statistics.doxytag:../../hpp-statistics/doxygen-html/" xlink:href="../../hpp-statistics/doxygen-html/a00009.html" target="_top" xlink:title="hpp/statistics/distribution.hh">
<polygon fill="white" stroke="black" points="771.5,-56.5 771.5,-75.5 910.5,-75.5 910.5,-56.5 771.5,-56.5"/>
<text text-anchor="middle" x="841" y="-63.5" font-family="Helvetica,sans-Serif" font-size="10.00">hpp/statistics/distribution.hh</text>
</a>
</g>
</g>
<!-- Node9&#45;&gt;Node11 -->
<g id="edge10" class="edge"><title>Node9&#45;&gt;Node11</title>
<path fill="none" stroke="midnightblue" d="M907.307,-112.324C895.099,-103.979 876.422,-91.2122 861.997,-81.3524"/>
<polygon fill="midnightblue" stroke="midnightblue" points="863.892,-78.4082 853.661,-75.6545 859.942,-84.1871 863.892,-78.4082"/>
</g>
<!-- Node13 -->
<g id="node13" class="node"><title>Node13</title>
<polygon fill="white" stroke="#bfbfbf" points="929,-56.5 929,-75.5 973,-75.5 973,-56.5 929,-56.5"/>
<text text-anchor="middle" x="951" y="-63.5" font-family="Helvetica,sans-Serif" font-size="10.00">vector</text>
</g>
<!-- Node9&#45;&gt;Node13 -->
<g id="edge12" class="edge"><title>Node9&#45;&gt;Node13</title>
<path fill="none" stroke="midnightblue" d="M925.119,-112.083C929.408,-104.613 935.658,-93.7244 940.942,-84.5199"/>
<polygon fill="midnightblue" stroke="midnightblue" points="944.033,-86.1662 945.976,-75.7511 937.962,-82.6811 944.033,-86.1662"/>
</g>
<!-- Node12 -->
<g id="node12" class="node"><title>Node12</title>
<g id="a_node12"><a doxygen="/local/devel/hpp/install/share/doc/hpp-statistics/doxygen-html/hpp-statistics.doxytag:../../hpp-statistics/doxygen-html/" xlink:href="../../hpp-statistics/doxygen-html/a00010.html" target="_top" xlink:title="hpp/statistics/fwd.hh">
<polygon fill="white" stroke="black" points="787.5,-0.5 787.5,-19.5 894.5,-19.5 894.5,-0.5 787.5,-0.5"/>
<text text-anchor="middle" x="841" y="-7.5" font-family="Helvetica,sans-Serif" font-size="10.00">hpp/statistics/fwd.hh</text>
</a>
</g>
</g>
<!-- Node11&#45;&gt;Node12 -->
<g id="edge11" class="edge"><title>Node11&#45;&gt;Node12</title>
<path fill="none" stroke="midnightblue" d="M841,-56.083C841,-49.0059 841,-38.8611 841,-29.9865"/>
<polygon fill="midnightblue" stroke="midnightblue" points="844.5,-29.751 841,-19.7511 837.5,-29.7511 844.5,-29.751"/>
</g>
<!-- Node14&#45;&gt;Node7 -->
<g id="edge14" class="edge"><title>Node14&#45;&gt;Node7</title>
<path fill="none" stroke="midnightblue" d="M385.292,-115.067C466.696,-103.91 640.459,-80.0945 708.173,-70.8138"/>
<polygon fill="midnightblue" stroke="midnightblue" points="708.668,-74.2788 718.1,-69.4533 707.717,-67.3437 708.668,-74.2788"/>
</g>
<!-- Node14&#45;&gt;Node8 -->
<g id="edge15" class="edge"><title>Node14&#45;&gt;Node8</title>
<path fill="none" stroke="midnightblue" d="M347.78,-112.083C352.672,-104.534 359.827,-93.4948 365.833,-84.2298"/>
<polygon fill="midnightblue" stroke="midnightblue" points="368.826,-86.0463 371.328,-75.7511 362.952,-82.239 368.826,-86.0463"/>
</g>
<!-- Node15&#45;&gt;Node5 -->
<g id="edge18" class="edge"><title>Node15&#45;&gt;Node5</title>
<path fill="none" stroke="midnightblue" d="M336.786,-363.687C350.246,-339.425 390.499,-270.379 437,-224 448.995,-212.036 464.494,-201.049 477.235,-192.925"/>
<polygon fill="midnightblue" stroke="midnightblue" points="479.272,-195.781 485.936,-187.544 475.59,-189.828 479.272,-195.781"/>
</g>
<!-- Node16&#45;&gt;Node6 -->
<g id="edge20" class="edge"><title>Node16&#45;&gt;Node6</title>
<path fill="none" stroke="midnightblue" d="M197.668,-171.424C323.98,-160.7 598.532,-137.389 714.543,-127.539"/>
<polygon fill="midnightblue" stroke="midnightblue" points="714.938,-131.018 724.606,-126.684 714.345,-124.043 714.938,-131.018"/>
</g>
<!-- Node16&#45;&gt;Node8 -->
<g id="edge23" class="edge"><title>Node16&#45;&gt;Node8</title>
<path fill="none" stroke="midnightblue" d="M151.225,-168.368C194.161,-149.091 298.035,-102.454 348.514,-79.7894"/>
<polygon fill="midnightblue" stroke="midnightblue" points="350.175,-82.8803 357.865,-75.5914 347.308,-76.4944 350.175,-82.8803"/>
</g>
<!-- Node16&#45;&gt;Node9 -->
<g id="edge21" class="edge"><title>Node16&#45;&gt;Node9</title>
<path fill="none" stroke="midnightblue" d="M197.567,-172.917C345.218,-163.689 700.212,-141.307 820,-132 835.109,-130.826 851.488,-129.412 866.533,-128.055"/>
<polygon fill="midnightblue" stroke="midnightblue" points="867.063,-131.522 876.704,-127.129 866.428,-124.551 867.063,-131.522"/>
</g>
<!-- Node16&#45;&gt;Node14 -->
<g id="edge22" class="edge"><title>Node16&#45;&gt;Node14</title>
<path fill="none" stroke="midnightblue" d="M165.275,-168.444C201.448,-159.142 259.377,-144.246 298.981,-134.062"/>
<polygon fill="midnightblue" stroke="midnightblue" points="300.067,-137.397 308.881,-131.516 298.324,-130.617 300.067,-137.397"/>
</g>
<!-- Node17 -->
<g id="node17" class="node"><title>Node17</title>
<g id="a_node17"><a doxygen="/local/devel/hpp/install/share/doc/hpp-constraints/doxygen-html/hpp-constraints.doxytag:../../hpp-constraints/doxygen-html/" xlink:href="../../hpp-constraints/doxygen-html/a00001.html" target="_top" xlink:title="hpp/constraints/fwd.hh">
<polygon fill="white" stroke="black" points="74,-112.5 74,-131.5 190,-131.5 190,-112.5 74,-112.5"/>
<text text-anchor="middle" x="132" y="-119.5" font-family="Helvetica,sans-Serif" font-size="10.00">hpp/constraints/fwd.hh</text>
</a>
</g>
</g>
<!-- Node16&#45;&gt;Node17 -->
<g id="edge24" class="edge"><title>Node16&#45;&gt;Node17</title>
<path fill="none" stroke="midnightblue" d="M132,-168.083C132,-161.006 132,-150.861 132,-141.986"/>
<polygon fill="midnightblue" stroke="midnightblue" points="135.5,-141.751 132,-131.751 128.5,-141.751 135.5,-141.751"/>
</g>
<!-- Node20&#45;&gt;Node4 -->
<g id="edge30" class="edge"><title>Node20&#45;&gt;Node4</title>
<path fill="none" stroke="midnightblue" d="M829.935,-425.188C832.137,-391.483 837.669,-306.798 840.41,-264.84"/>
<polygon fill="midnightblue" stroke="midnightblue" points="843.914,-264.889 841.074,-254.682 836.929,-264.432 843.914,-264.889"/>
</g>
<!-- Node20&#45;&gt;Node6 -->
<g id="edge56" class="edge"><title>Node20&#45;&gt;Node6</title>
<path fill="none" stroke="midnightblue" d="M841.133,-425.36C869.812,-390.128 936.772,-296.082 901,-224 879.742,-181.164 830.667,-151.599 798.444,-135.987"/>
<polygon fill="midnightblue" stroke="midnightblue" points="799.576,-132.652 789.034,-131.59 796.613,-138.994 799.576,-132.652"/>
</g>
<!-- Node20&#45;&gt;Node18 -->
<g id="edge55" class="edge"><title>Node20&#45;&gt;Node18</title>
<path fill="none" stroke="midnightblue" d="M887.653,-435.442C962.059,-427.036 1089.08,-401.227 1159,-322 1174.17,-304.807 1177.47,-277.727 1177.77,-259.553"/>
<polygon fill="midnightblue" stroke="midnightblue" points="1181.26,-259.278 1177.64,-249.323 1174.27,-259.366 1181.26,-259.278"/>
</g>
<!-- Node21 -->
<g id="node21" class="node"><title>Node21</title>
<g id="a_node21"><a doxygen="/local/devel/hpp/install/share/doc/hpp-core/doxygen-html/hpp-core.doxytag:../../hpp-core/doxygen-html/" xlink:href="../../hpp-core/doxygen-html/a00203.html" target="_top" xlink:title="hpp/core/steering&#45;method.hh">
<polygon fill="white" stroke="black" points="543,-364 543,-383 683,-383 683,-364 543,-364"/>
<text text-anchor="middle" x="613" y="-371" font-family="Helvetica,sans-Serif" font-size="10.00">hpp/core/steering&#45;method.hh</text>
</a>
</g>
</g>
<!-- Node20&#45;&gt;Node21 -->
<g id="edge31" class="edge"><title>Node20&#45;&gt;Node21</title>
<path fill="none" stroke="midnightblue" d="M782.397,-425.476C743.174,-413.673 687.772,-397.001 651.145,-385.979"/>
<polygon fill="midnightblue" stroke="midnightblue" points="651.926,-382.559 641.341,-383.029 649.909,-389.262 651.926,-382.559"/>
</g>
<!-- Node22 -->
<g id="node22" class="node"><title>Node22</title>
<g id="a_node22"><a doxygen="/local/devel/hpp/install/share/doc/hpp-core/doxygen-html/hpp-core.doxytag:../../hpp-core/doxygen-html/" xlink:href="../../hpp-core/doxygen-html/a00174.html" target="_top" xlink:title="hpp/core/path.hh">
<polygon fill="white" stroke="black" points="568.5,-297 568.5,-316 657.5,-316 657.5,-297 568.5,-297"/>
<text text-anchor="middle" x="613" y="-304" font-family="Helvetica,sans-Serif" font-size="10.00">hpp/core/path.hh</text>
</a>
</g>
</g>
<!-- Node20&#45;&gt;Node22 -->
<g id="edge54" class="edge"><title>Node20&#45;&gt;Node22</title>
<path fill="none" stroke="midnightblue" d="M805.884,-425.374C764.198,-399.899 676.933,-346.57 635.615,-321.32"/>
<polygon fill="midnightblue" stroke="midnightblue" points="637.426,-318.325 627.068,-316.097 633.776,-324.298 637.426,-318.325"/>
</g>
<!-- Node25 -->
<g id="node25" class="node"><title>Node25</title>
<g id="a_node25"><a doxygen="/local/devel/hpp/install/share/doc/hpp-core/doxygen-html/hpp-core.doxytag:../../hpp-core/doxygen-html/" xlink:href="../../hpp-core/doxygen-html/a00191.html" target="_top" xlink:title="hpp/core/relative&#45;motion.hh">
<polygon fill="white" stroke="black" points="292,-168.5 292,-187.5 426,-187.5 426,-168.5 292,-168.5"/>
<text text-anchor="middle" x="359" y="-175.5" font-family="Helvetica,sans-Serif" font-size="10.00">hpp/core/relative&#45;motion.hh</text>
</a>
</g>
</g>
<!-- Node20&#45;&gt;Node25 -->
<g id="edge49" class="edge"><title>Node20&#45;&gt;Node25</title>
<path fill="none" stroke="midnightblue" d="M770.283,-434.287C696.077,-426.877 573.28,-411.636 534,-389 450.985,-341.16 390.067,-238.168 368.023,-196.768"/>
<polygon fill="midnightblue" stroke="midnightblue" points="370.992,-194.891 363.267,-187.64 364.784,-198.126 370.992,-194.891"/>
</g>
<!-- Node26 -->
<g id="node26" class="node"><title>Node26</title>
<g id="a_node26"><a xlink:href="a00071.html" target="_top" xlink:title="hpp/manipulation/graph\l/graph.hh">
<polygon fill="white" stroke="black" points="1201.5,-358.5 1201.5,-388.5 1318.5,-388.5 1318.5,-358.5 1201.5,-358.5"/>
<text text-anchor="start" x="1209.5" y="-376.5" font-family="Helvetica,sans-Serif" font-size="10.00">hpp/manipulation/graph</text>
<text text-anchor="middle" x="1260" y="-365.5" font-family="Helvetica,sans-Serif" font-size="10.00">/graph.hh</text>
</a>
</g>
</g>
<!-- Node20&#45;&gt;Node26 -->
<g id="edge57" class="edge"><title>Node20&#45;&gt;Node26</title>
<path fill="none" stroke="midnightblue" d="M887.575,-430.666C966.644,-418.742 1107.27,-397.533 1191.25,-384.868"/>
<polygon fill="midnightblue" stroke="midnightblue" points="1191.84,-388.319 1201.21,-383.367 1190.8,-381.397 1191.84,-388.319"/>
</g>
<!-- Node21&#45;&gt;Node6 -->
<g id="edge32" class="edge"><title>Node21&#45;&gt;Node6</title>
<path fill="none" stroke="midnightblue" d="M624.322,-363.832C635.939,-354.492 653.966,-338.707 666,-322 694.121,-282.958 680.304,-260.2 712,-224 731.491,-201.739 753.822,-213.97 768,-188 775.689,-173.917 774.837,-155.426 772.559,-141.768"/>
<polygon fill="midnightblue" stroke="midnightblue" points="775.917,-140.721 770.467,-131.635 769.061,-142.136 775.917,-140.721"/>
</g>
<!-- Node21&#45;&gt;Node8 -->
<g id="edge35" class="edge"><title>Node21&#45;&gt;Node8</title>
<path fill="none" stroke="midnightblue" d="M542.98,-364.731C382.138,-345.941 0,-295.51 0,-240.5 0,-240.5 0,-240.5 0,-177 0,-140.822 17.7963,-130.308 49,-112 94.3692,-85.3814 242.531,-73.8226 323.306,-69.3959"/>
<polygon fill="midnightblue" stroke="midnightblue" points="323.962,-72.8662 333.763,-68.8421 323.592,-65.876 323.962,-72.8662"/>
</g>
<!-- Node21&#45;&gt;Node9 -->
<g id="edge33" class="edge"><title>Node21&#45;&gt;Node9</title>
<path fill="none" stroke="midnightblue" d="M627.733,-363.849C643.337,-354.404 668.377,-338.42 688,-322 734.522,-283.071 737.319,-263.913 783,-224 821.585,-190.287 870.754,-155.907 898.466,-137.23"/>
<polygon fill="midnightblue" stroke="midnightblue" points="900.632,-139.993 906.996,-131.522 896.738,-134.175 900.632,-139.993"/>
</g>
<!-- Node21&#45;&gt;Node14 -->
<g id="edge34" class="edge"><title>Node21&#45;&gt;Node14</title>
<path fill="none" stroke="midnightblue" d="M570.706,-363.956C495.424,-346.211 339.994,-297.524 275,-188 262.497,-166.931 288.124,-148.079 311.208,-136.173"/>
<polygon fill="midnightblue" stroke="midnightblue" points="313.033,-139.177 320.498,-131.659 309.974,-132.881 313.033,-139.177"/>
</g>
<!-- Node21&#45;&gt;Node22 -->
<g id="edge36" class="edge"><title>Node21&#45;&gt;Node22</title>
<path fill="none" stroke="midnightblue" d="M613,-363.734C613,-354.183 613,-338.618 613,-326.283"/>
<polygon fill="midnightblue" stroke="midnightblue" points="616.5,-326.127 613,-316.127 609.5,-326.127 616.5,-326.127"/>
</g>
<!-- Node23 -->
<g id="node23" class="node"><title>Node23</title>
<g id="a_node23"><a doxygen="/local/devel/hpp/install/share/doc/hpp-core/doxygen-html/hpp-core.doxytag:../../hpp-core/doxygen-html/" xlink:href="../../hpp-core/doxygen-html/a00184.html" target="_top" xlink:title="hpp/core/projection\l&#45;error.hh">
<polygon fill="white" stroke="black" points="446.5,-224.5 446.5,-254.5 545.5,-254.5 545.5,-224.5 446.5,-224.5"/>
<text text-anchor="start" x="454.5" y="-242.5" font-family="Helvetica,sans-Serif" font-size="10.00">hpp/core/projection</text>
<text text-anchor="middle" x="496" y="-231.5" font-family="Helvetica,sans-Serif" font-size="10.00">&#45;error.hh</text>
</a>
</g>
</g>
<!-- Node21&#45;&gt;Node23 -->
<g id="edge48" class="edge"><title>Node21&#45;&gt;Node23</title>
<path fill="none" stroke="midnightblue" d="M602.581,-363.653C591.347,-353.914 573.17,-337.567 559,-322 541.675,-302.967 523.919,-279.577 511.692,-262.744"/>
<polygon fill="midnightblue" stroke="midnightblue" points="514.513,-260.672 505.834,-254.597 508.83,-264.759 514.513,-260.672"/>
</g>
<!-- Node22&#45;&gt;Node4 -->
<g id="edge41" class="edge"><title>Node22&#45;&gt;Node4</title>
<path fill="none" stroke="midnightblue" d="M643.409,-296.869C678.813,-286.819 738.121,-269.985 782.727,-257.324"/>
<polygon fill="midnightblue" stroke="midnightblue" points="783.914,-260.626 792.578,-254.528 782.002,-253.892 783.914,-260.626"/>
</g>
<!-- Node22&#45;&gt;Node6 -->
<g id="edge37" class="edge"><title>Node22&#45;&gt;Node6</title>
<path fill="none" stroke="midnightblue" d="M617.616,-296.805C626.579,-280.616 647.784,-245.545 674,-224 702.566,-200.524 725.072,-216.188 749,-188 760.046,-174.987 764.674,-155.827 766.611,-141.678"/>
<polygon fill="midnightblue" stroke="midnightblue" points="770.104,-141.928 767.659,-131.619 763.142,-141.203 770.104,-141.928"/>
</g>
<!-- Node22&#45;&gt;Node8 -->
<g id="edge40" class="edge"><title>Node22&#45;&gt;Node8</title>
<path fill="none" stroke="midnightblue" d="M568.07,-303.035C447.494,-295.39 121.541,-267.606 57,-188 45.1331,-173.363 43.3589,-133.67 65,-112 100.298,-76.654 243.91,-68.8354 323.409,-67.2585"/>
<polygon fill="midnightblue" stroke="midnightblue" points="323.775,-70.7529 333.713,-67.082 323.655,-63.7539 323.775,-70.7529"/>
</g>
<!-- Node22&#45;&gt;Node9 -->
<g id="edge38" class="edge"><title>Node22&#45;&gt;Node9</title>
<path fill="none" stroke="midnightblue" d="M627.395,-296.942C676.344,-267.844 836.648,-172.55 896.863,-136.754"/>
<polygon fill="midnightblue" stroke="midnightblue" points="898.828,-139.658 905.636,-131.539 895.251,-133.64 898.828,-139.658"/>
</g>
<!-- Node22&#45;&gt;Node14 -->
<g id="edge39" class="edge"><title>Node22&#45;&gt;Node14</title>
<path fill="none" stroke="midnightblue" d="M609.529,-296.797C602.171,-279.607 583.248,-241.458 554,-224 501.835,-192.863 323.029,-233.699 283,-188 267.202,-169.964 293.103,-149.548 315.418,-136.488"/>
<polygon fill="midnightblue" stroke="midnightblue" points="317.283,-139.456 324.319,-131.535 313.879,-133.339 317.283,-139.456"/>
</g>
<!-- Node22&#45;&gt;Node23 -->
<g id="edge42" class="edge"><title>Node22&#45;&gt;Node23</title>
<path fill="none" stroke="midnightblue" d="M597.221,-296.734C580.116,-287.231 552.299,-271.777 530.149,-259.472"/>
<polygon fill="midnightblue" stroke="midnightblue" points="531.802,-256.386 521.36,-254.589 528.402,-262.505 531.802,-256.386"/>
</g>
<!-- Node24 -->
<g id="node24" class="node"><title>Node24</title>
<g id="a_node24"><a doxygen="/local/devel/hpp/install/share/doc/hpp-core/doxygen-html/hpp-core.doxytag:../../hpp-core/doxygen-html/" xlink:href="../../hpp-core/doxygen-html/a00208.html" target="_top" xlink:title="hpp/core/time&#45;parameterization.hh">
<polygon fill="white" stroke="black" points="576,-168.5 576,-187.5 740,-187.5 740,-168.5 576,-168.5"/>
<text text-anchor="middle" x="658" y="-175.5" font-family="Helvetica,sans-Serif" font-size="10.00">hpp/core/time&#45;parameterization.hh</text>
</a>
</g>
</g>
<!-- Node22&#45;&gt;Node24 -->
<g id="edge43" class="edge"><title>Node22&#45;&gt;Node24</title>
<path fill="none" stroke="midnightblue" d="M614.919,-296.769C618.356,-281.67 626.137,-249.82 636,-224 639.53,-214.759 644.266,-204.846 648.44,-196.682"/>
<polygon fill="midnightblue" stroke="midnightblue" points="651.578,-198.235 653.134,-187.755 645.382,-194.977 651.578,-198.235"/>
</g>
<!-- Node24&#45;&gt;Node6 -->
<g id="edge44" class="edge"><title>Node24&#45;&gt;Node6</title>
<path fill="none" stroke="midnightblue" d="M675.673,-168.324C693.394,-159.625 720.903,-146.12 741.288,-136.113"/>
<polygon fill="midnightblue" stroke="midnightblue" points="742.936,-139.203 750.37,-131.655 739.851,-132.919 742.936,-139.203"/>
</g>
<!-- Node24&#45;&gt;Node8 -->
<g id="edge47" class="edge"><title>Node24&#45;&gt;Node8</title>
<path fill="none" stroke="midnightblue" d="M635.95,-168.368C586.397,-148.97 466.076,-101.87 408.593,-79.3673"/>
<polygon fill="midnightblue" stroke="midnightblue" points="409.535,-75.9775 398.947,-75.5914 406.983,-82.4959 409.535,-75.9775"/>
</g>
<!-- Node24&#45;&gt;Node9 -->
<g id="edge45" class="edge"><title>Node24&#45;&gt;Node9</title>
<path fill="none" stroke="midnightblue" d="M699.515,-168.444C745.412,-158.984 819.38,-143.738 868.826,-133.547"/>
<polygon fill="midnightblue" stroke="midnightblue" points="869.592,-136.963 878.68,-131.516 868.179,-130.107 869.592,-136.963"/>
</g>
<!-- Node24&#45;&gt;Node14 -->
<g id="edge46" class="edge"><title>Node24&#45;&gt;Node14</title>
<path fill="none" stroke="midnightblue" d="M607.929,-168.444C549.856,-158.52 454.521,-142.228 395.162,-132.085"/>
<polygon fill="midnightblue" stroke="midnightblue" points="395.683,-128.623 385.236,-130.388 394.503,-135.523 395.683,-128.623"/>
</g>
<!-- Node25&#45;&gt;Node6 -->
<g id="edge50" class="edge"><title>Node25&#45;&gt;Node6</title>
<path fill="none" stroke="midnightblue" d="M423.807,-168.444C504.266,-157.821 639.986,-139.902 714.7,-130.037"/>
<polygon fill="midnightblue" stroke="midnightblue" points="715.369,-133.479 724.825,-128.7 714.453,-126.539 715.369,-133.479"/>
</g>
<!-- Node25&#45;&gt;Node8 -->
<g id="edge53" class="edge"><title>Node25&#45;&gt;Node8</title>
<path fill="none" stroke="midnightblue" d="M368.556,-168.45C377.088,-160.12 388.989,-146.604 394,-132 399.43,-116.175 393.438,-97.6772 387.119,-84.4703"/>
<polygon fill="midnightblue" stroke="midnightblue" points="390.167,-82.747 382.407,-75.5339 383.975,-86.0121 390.167,-82.747"/>
</g>
<!-- Node25&#45;&gt;Node9 -->
<g id="edge51" class="edge"><title>Node25&#45;&gt;Node9</title>
<path fill="none" stroke="midnightblue" d="M426.126,-168.957C429.125,-168.628 432.093,-168.307 435,-168 477.04,-163.561 749.321,-138.601 866.504,-127.886"/>
<polygon fill="midnightblue" stroke="midnightblue" points="867.04,-131.352 876.68,-126.956 866.402,-124.381 867.04,-131.352"/>
</g>
<!-- Node25&#45;&gt;Node14 -->
<g id="edge52" class="edge"><title>Node25&#45;&gt;Node14</title>
<path fill="none" stroke="midnightblue" d="M356.193,-168.083C353.915,-160.849 350.629,-150.409 347.792,-141.397"/>
<polygon fill="midnightblue" stroke="midnightblue" points="351.096,-140.239 344.755,-131.751 344.419,-142.341 351.096,-140.239"/>
</g>
<!-- Node26&#45;&gt;Node6 -->
<g id="edge65" class="edge"><title>Node26&#45;&gt;Node6</title>
<path fill="none" stroke="midnightblue" d="M1201.38,-368.264C1134.9,-362.233 1032.22,-348.794 1005,-322 955.12,-272.891 1021.35,-217.645 972,-168 951.223,-147.097 874.604,-134.598 821.422,-128.257"/>
<polygon fill="midnightblue" stroke="midnightblue" points="821.788,-124.776 811.452,-127.107 820.986,-131.73 821.788,-124.776"/>
</g>
<!-- Node26&#45;&gt;Node9 -->
<g id="edge66" class="edge"><title>Node26&#45;&gt;Node9</title>
<path fill="none" stroke="midnightblue" d="M1297.31,-358.359C1313.15,-350.277 1330.01,-338.419 1339,-322 1345.62,-309.916 1345.05,-303.379 1339,-291 1317.73,-247.466 1296.02,-246.296 1253,-224 1201.8,-197.462 1041.74,-154.329 963.684,-134.116"/>
<polygon fill="midnightblue" stroke="midnightblue" points="964.24,-130.645 953.683,-131.535 962.491,-137.423 964.24,-130.645"/>
</g>
<!-- Node26&#45;&gt;Node18 -->
<g id="edge59" class="edge"><title>Node26&#45;&gt;Node18</title>
<path fill="none" stroke="midnightblue" d="M1284.27,-358.329C1308.62,-342.271 1340.22,-315.181 1323,-291 1311.54,-274.907 1264.91,-260.611 1227.39,-251.374"/>
<polygon fill="midnightblue" stroke="midnightblue" points="1228.12,-247.95 1217.58,-249.021 1226.49,-254.757 1228.12,-247.95"/>
</g>
<!-- Node27 -->
<g id="node27" class="node"><title>Node27</title>
<polygon fill="white" stroke="#bfbfbf" points="1206.5,-297 1206.5,-316 1313.5,-316 1313.5,-297 1206.5,-297"/>
<text text-anchor="middle" x="1260" y="-304" font-family="Helvetica,sans-Serif" font-size="10.00">boost/tuple/tuple.hpp</text>
</g>
<!-- Node26&#45;&gt;Node27 -->
<g id="edge58" class="edge"><title>Node26&#45;&gt;Node27</title>
<path fill="none" stroke="midnightblue" d="M1260,-358.396C1260,-349.064 1260,-336.714 1260,-326.517"/>
<polygon fill="midnightblue" stroke="midnightblue" points="1263.5,-326.195 1260,-316.195 1256.5,-326.195 1263.5,-326.195"/>
</g>
<!-- Node28 -->
<g id="node28" class="node"><title>Node28</title>
<g id="a_node28"><a xlink:href="a00005.html" target="_top" xlink:title="hpp/manipulation/constraint\l&#45;set.hh">
<polygon fill="white" stroke="black" points="1014,-291.5 1014,-321.5 1150,-321.5 1150,-291.5 1014,-291.5"/>
<text text-anchor="start" x="1022" y="-309.5" font-family="Helvetica,sans-Serif" font-size="10.00">hpp/manipulation/constraint</text>
<text text-anchor="middle" x="1082" y="-298.5" font-family="Helvetica,sans-Serif" font-size="10.00">&#45;set.hh</text>
</a>
</g>
</g>
<!-- Node26&#45;&gt;Node28 -->
<g id="edge60" class="edge"><title>Node26&#45;&gt;Node28</title>
<path fill="none" stroke="midnightblue" d="M1221.38,-358.396C1194.55,-348.601 1158.62,-335.481 1129.97,-325.015"/>
<polygon fill="midnightblue" stroke="midnightblue" points="1131.14,-321.719 1120.55,-321.577 1128.74,-328.294 1131.14,-321.719"/>
</g>
<!-- Node26&#45;&gt;Node29 -->
<g id="edge67" class="edge"><title>Node26&#45;&gt;Node29</title>
<path fill="none" stroke="midnightblue" d="M1312.86,-358.476C1350.73,-348.43 1401.89,-334.856 1441.9,-324.242"/>
<polygon fill="midnightblue" stroke="midnightblue" points="1443.04,-327.558 1451.81,-321.611 1441.25,-320.792 1443.04,-327.558"/>
</g>
<!-- Node28&#45;&gt;Node4 -->
<g id="edge61" class="edge"><title>Node28&#45;&gt;Node4</title>
<path fill="none" stroke="midnightblue" d="M1030.22,-291.476C992.49,-281.258 941.288,-267.391 901.812,-256.699"/>
<polygon fill="midnightblue" stroke="midnightblue" points="902.611,-253.29 892.044,-254.054 900.782,-260.046 902.611,-253.29"/>
</g>
<!-- Node28&#45;&gt;Node6 -->
<g id="edge62" class="edge"><title>Node28&#45;&gt;Node6</title>
<path fill="none" stroke="midnightblue" d="M1078.88,-291.117C1071.92,-262.656 1052.27,-199.217 1010,-168 980.694,-146.356 883.071,-133.581 821.136,-127.462"/>
<polygon fill="midnightblue" stroke="midnightblue" points="821.431,-123.975 811.142,-126.502 820.761,-130.943 821.431,-123.975"/>
</g>
<!-- Node28&#45;&gt;Node9 -->
<g id="edge63" class="edge"><title>Node28&#45;&gt;Node9</title>
<path fill="none" stroke="midnightblue" d="M1082.63,-291.424C1083.07,-264.065 1080.08,-203.307 1048,-168 1028.84,-146.915 999.215,-135.709 973.289,-129.753"/>
<polygon fill="midnightblue" stroke="midnightblue" points="973.697,-126.263 963.193,-127.648 972.268,-133.116 973.697,-126.263"/>
</g>
<!-- Node28&#45;&gt;Node18 -->
<g id="edge64" class="edge"><title>Node28&#45;&gt;Node18</title>
<path fill="none" stroke="midnightblue" d="M1102.61,-291.396C1118.4,-280.597 1140.09,-265.756 1155.97,-254.887"/>
<polygon fill="midnightblue" stroke="midnightblue" points="1158.29,-257.542 1164.57,-249.007 1154.34,-251.765 1158.29,-257.542"/>
</g>
<!-- Node29&#45;&gt;Node6 -->
<g id="edge73" class="edge"><title>Node29&#45;&gt;Node6</title>
<path fill="none" stroke="midnightblue" d="M1450.94,-291.43C1416.13,-281.994 1370.06,-268.804 1330,-255 1295.12,-242.981 1288.06,-235.465 1253,-224 1157.1,-192.645 1131.71,-188.907 1033,-168 960.089,-152.556 875.013,-138.868 821.327,-130.756"/>
<polygon fill="midnightblue" stroke="midnightblue" points="821.759,-127.281 811.35,-129.258 820.719,-134.204 821.759,-127.281"/>
</g>
<!-- Node29&#45;&gt;Node9 -->
<g id="edge74" class="edge"><title>Node29&#45;&gt;Node9</title>
<path fill="none" stroke="midnightblue" d="M1563.7,-301.404C1598.16,-295.904 1639.92,-283.355 1666,-255 1692.56,-226.119 1707.91,-196.552 1681,-168 1656.74,-142.265 1142.34,-128.131 973.303,-124.169"/>
<polygon fill="midnightblue" stroke="midnightblue" points="973.226,-120.666 963.147,-123.933 973.063,-127.664 973.226,-120.666"/>
</g>
<!-- Node29&#45;&gt;Node18 -->
<g id="edge71" class="edge"><title>Node29&#45;&gt;Node18</title>
<path fill="none" stroke="midnightblue" d="M1446.43,-293.863C1441.55,-292.894 1436.69,-291.93 1432,-291 1362.28,-277.172 1281.83,-261.244 1230.24,-251.034"/>
<polygon fill="midnightblue" stroke="midnightblue" points="1230.81,-247.579 1220.32,-249.07 1229.45,-254.445 1230.81,-247.579"/>
</g>
<!-- Node29&#45;&gt;Node19 -->
<g id="edge72" class="edge"><title>Node29&#45;&gt;Node19</title>
<path fill="none" stroke="midnightblue" d="M1563.83,-293.044C1621.08,-280.923 1707.15,-262.7 1761.41,-251.211"/>
<polygon fill="midnightblue" stroke="midnightblue" points="1762.43,-254.573 1771.49,-249.077 1760.98,-247.725 1762.43,-254.573"/>
</g>
<!-- Node30 -->
<g id="node30" class="node"><title>Node30</title>
<polygon fill="white" stroke="#bfbfbf" points="1338.5,-230 1338.5,-249 1379.5,-249 1379.5,-230 1338.5,-230"/>
<text text-anchor="middle" x="1359" y="-237" font-family="Helvetica,sans-Serif" font-size="10.00">string</text>
</g>
<!-- Node29&#45;&gt;Node30 -->
<g id="edge68" class="edge"><title>Node29&#45;&gt;Node30</title>
<path fill="none" stroke="midnightblue" d="M1471.84,-291.479C1448.56,-281.532 1416.75,-267.739 1389,-255 1387.85,-254.47 1386.67,-253.925 1385.48,-253.371"/>
<polygon fill="midnightblue" stroke="midnightblue" points="1386.93,-250.182 1376.39,-249.051 1383.92,-256.505 1386.93,-250.182"/>
</g>
<!-- Node31 -->
<g id="node31" class="node"><title>Node31</title>
<polygon fill="white" stroke="#bfbfbf" points="1620,-168.5 1620,-187.5 1672,-187.5 1672,-168.5 1620,-168.5"/>
<text text-anchor="middle" x="1646" y="-175.5" font-family="Helvetica,sans-Serif" font-size="10.00">ostream</text>
</g>
<!-- Node29&#45;&gt;Node31 -->
<g id="edge69" class="edge"><title>Node29&#45;&gt;Node31</title>
<path fill="none" stroke="midnightblue" d="M1563.75,-300.725C1594.51,-294.89 1629.69,-282.231 1649,-255 1660.78,-238.388 1657.28,-214.21 1652.63,-197.61"/>
<polygon fill="midnightblue" stroke="midnightblue" points="1655.93,-196.422 1649.56,-187.952 1649.25,-198.542 1655.93,-196.422"/>
</g>
<!-- Node32 -->
<g id="node32" class="node"><title>Node32</title>
<polygon fill="white" stroke="#bfbfbf" points="1397.5,-230 1397.5,-249 1504.5,-249 1504.5,-230 1397.5,-230"/>
<text text-anchor="middle" x="1451" y="-237" font-family="Helvetica,sans-Serif" font-size="10.00">hpp/util/exception.hh</text>
</g>
<!-- Node29&#45;&gt;Node32 -->
<g id="edge70" class="edge"><title>Node29&#45;&gt;Node32</title>
<path fill="none" stroke="midnightblue" d="M1493.28,-291.396C1484.86,-281.261 1473.49,-267.567 1464.66,-256.937"/>
<polygon fill="midnightblue" stroke="midnightblue" points="1467.31,-254.65 1458.22,-249.195 1461.92,-259.123 1467.31,-254.65"/>
</g>
<!-- Node33 -->
<g id="node33" class="node"><title>Node33</title>
<g id="a_node33"><a xlink:href="a00060.html" target="_top" xlink:title="hpp/manipulation/graph\l/dot.hh">
<polygon fill="white" stroke="black" points="1522.5,-224.5 1522.5,-254.5 1639.5,-254.5 1639.5,-224.5 1522.5,-224.5"/>
<text text-anchor="start" x="1530.5" y="-242.5" font-family="Helvetica,sans-Serif" font-size="10.00">hpp/manipulation/graph</text>
<text text-anchor="middle" x="1581" y="-231.5" font-family="Helvetica,sans-Serif" font-size="10.00">/dot.hh</text>
</a>
</g>
</g>
<!-- Node29&#45;&gt;Node33 -->
<g id="edge75" class="edge"><title>Node29&#45;&gt;Node33</title>
<path fill="none" stroke="midnightblue" d="M1521.49,-291.396C1531.85,-282.538 1545.38,-270.96 1556.93,-261.086"/>
<polygon fill="midnightblue" stroke="midnightblue" points="1559.22,-263.736 1564.54,-254.577 1554.67,-258.416 1559.22,-263.736"/>
</g>
<!-- Node33&#45;&gt;Node7 -->
<g id="edge78" class="edge"><title>Node33&#45;&gt;Node7</title>
<path fill="none" stroke="midnightblue" d="M1526.57,-224.489C1467.54,-209.528 1370.41,-185.598 1286,-168 1147.23,-139.068 1111.63,-136.476 972,-112 882.241,-96.2658 856.134,-98.775 763.401,-75.757"/>
<polygon fill="midnightblue" stroke="midnightblue" points="764.157,-72.3383 753.606,-73.2934 762.45,-79.1269 764.157,-72.3383"/>
</g>
<!-- Node33&#45;&gt;Node31 -->
<g id="edge76" class="edge"><title>Node33&#45;&gt;Node31</title>
<path fill="none" stroke="midnightblue" d="M1596.4,-224.399C1606.24,-215.397 1618.99,-203.721 1629.11,-194.465"/>
<polygon fill="midnightblue" stroke="midnightblue" points="1631.53,-196.992 1636.54,-187.658 1626.8,-191.828 1631.53,-196.992"/>
</g>
<!-- Node34 -->
<g id="node34" class="node"><title>Node34</title>
<polygon fill="white" stroke="#bfbfbf" points="1499,-168.5 1499,-187.5 1551,-187.5 1551,-168.5 1499,-168.5"/>
<text text-anchor="middle" x="1525" y="-175.5" font-family="Helvetica,sans-Serif" font-size="10.00">sstream</text>
</g>
<!-- Node33&#45;&gt;Node34 -->
<g id="edge77" class="edge"><title>Node33&#45;&gt;Node34</title>
<path fill="none" stroke="midnightblue" d="M1567.73,-224.399C1559.42,-215.575 1548.7,-204.183 1540.08,-195.018"/>
<polygon fill="midnightblue" stroke="midnightblue" points="1542.55,-192.541 1533.15,-187.658 1537.45,-197.339 1542.55,-192.541"/>
</g>
<!-- Node35 -->
<g id="node35" class="node"><title>Node35</title>
<polygon fill="white" stroke="#bfbfbf" points="1569.5,-168.5 1569.5,-187.5 1598.5,-187.5 1598.5,-168.5 1569.5,-168.5"/>
<text text-anchor="middle" x="1584" y="-175.5" font-family="Helvetica,sans-Serif" font-size="10.00">list</text>
</g>
<!-- Node33&#45;&gt;Node35 -->
<g id="edge79" class="edge"><title>Node33&#45;&gt;Node35</title>
<path fill="none" stroke="midnightblue" d="M1581.71,-224.399C1582.11,-216.466 1582.62,-206.458 1583.05,-197.858"/>
<polygon fill="midnightblue" stroke="midnightblue" points="1586.56,-197.821 1583.56,-187.658 1579.56,-197.469 1586.56,-197.821"/>
</g>
</g>
</svg>
