<?xml version="1.0" encoding="UTF-8" standalone="no"?>
<!DOCTYPE svg PUBLIC "-//W3C//DTD SVG 1.1//EN"
 "http://www.w3.org/Graphics/SVG/1.1/DTD/svg11.dtd">
<!-- Generated by graphviz version 2.38.0 (20140413.2041)
 -->
<!-- Title: graph&#45;path&#45;validation.hh Pages: 1 -->
<svg width="536pt" height="308pt"
 viewBox="0.00 0.00 535.50 308.00" xmlns="http://www.w3.org/2000/svg" xmlns:xlink="http://www.w3.org/1999/xlink">
<g id="graph0" class="graph" transform="scale(1 1) rotate(0) translate(4 304)">
<title>graph&#45;path&#45;validation.hh</title>
<polygon fill="white" stroke="none" points="-4,4 -4,-304 531.5,-304 531.5,4 -4,4"/>
<!-- Node1 -->
<g id="node1" class="node"><title>Node1</title>
<polygon fill="#bfbfbf" stroke="black" points="239,-280.5 239,-299.5 359,-299.5 359,-280.5 239,-280.5"/>
<text text-anchor="middle" x="299" y="-287.5" font-family="Helvetica,sans-Serif" font-size="10.00">graph&#45;path&#45;validation.hh</text>
</g>
<!-- Node2 -->
<g id="node2" class="node"><title>Node2</title>
<g id="a_node2"><a doxygen="/local/devel/hpp/install/share/doc/hpp-core/doxygen-html/hpp-core.doxytag:../../hpp-core/doxygen-html/" xlink:href="../../hpp-core/doxygen-html/a00171.html" target="_top" xlink:title="hpp/core/path&#45;validation.hh">
<polygon fill="white" stroke="black" points="166,-224.5 166,-243.5 300,-243.5 300,-224.5 166,-224.5"/>
<text text-anchor="middle" x="233" y="-231.5" font-family="Helvetica,sans-Serif" font-size="10.00">hpp/core/path&#45;validation.hh</text>
</a>
</g>
</g>
<!-- Node1&#45;&gt;Node2 -->
<g id="edge1" class="edge"><title>Node1&#45;&gt;Node2</title>
<path fill="none" stroke="midnightblue" d="M288.396,-280.324C278.544,-272.263 263.649,-260.077 251.785,-250.369"/>
<polygon fill="midnightblue" stroke="midnightblue" points="253.753,-247.457 243.797,-243.834 249.32,-252.875 253.753,-247.457"/>
</g>
<!-- Node3 -->
<g id="node3" class="node"><title>Node3</title>
<g id="a_node3"><a xlink:href="a00001.html" target="_top" xlink:title="hpp/core/fwd.hh">
<polygon fill="white" stroke="black" points="0,-112.5 0,-131.5 86,-131.5 86,-112.5 0,-112.5"/>
<text text-anchor="middle" x="43" y="-119.5" font-family="Helvetica,sans-Serif" font-size="10.00">hpp/core/fwd.hh</text>
</a>
</g>
</g>
<!-- Node1&#45;&gt;Node3 -->
<g id="edge19" class="edge"><title>Node1&#45;&gt;Node3</title>
<path fill="none" stroke="midnightblue" d="M259.93,-280.445C230.589,-273.125 189.962,-261.05 157,-244 120.366,-225.051 110.729,-218.532 83,-188 69.9536,-173.635 58.7433,-154.433 51.5381,-140.629"/>
<polygon fill="midnightblue" stroke="midnightblue" points="54.6545,-139.036 47.0305,-131.679 48.4025,-142.184 54.6545,-139.036"/>
</g>
<!-- Node6 -->
<g id="node6" class="node"><title>Node6</title>
<g id="a_node6"><a xlink:href="a00065.html" target="_top" xlink:title="hpp/core/fwd.hh">
<polygon fill="white" stroke="black" points="320,-112.5 320,-131.5 406,-131.5 406,-112.5 320,-112.5"/>
<text text-anchor="middle" x="363" y="-119.5" font-family="Helvetica,sans-Serif" font-size="10.00">hpp/core/fwd.hh</text>
</a>
</g>
</g>
<!-- Node1&#45;&gt;Node6 -->
<g id="edge21" class="edge"><title>Node1&#45;&gt;Node6</title>
<path fill="none" stroke="midnightblue" d="M302.441,-280.075C312.559,-253.832 342.356,-176.545 356.015,-141.117"/>
<polygon fill="midnightblue" stroke="midnightblue" points="359.365,-142.158 359.697,-131.568 352.834,-139.64 359.365,-142.158"/>
</g>
<!-- Node13 -->
<g id="node13" class="node"><title>Node13</title>
<polygon fill="white" stroke="#bfbfbf" points="394.5,-224.5 394.5,-243.5 527.5,-243.5 527.5,-224.5 394.5,-224.5"/>
<text text-anchor="middle" x="461" y="-231.5" font-family="Helvetica,sans-Serif" font-size="10.00">hpp/manipulation/config.hh</text>
</g>
<!-- Node1&#45;&gt;Node13 -->
<g id="edge20" class="edge"><title>Node1&#45;&gt;Node13</title>
<path fill="none" stroke="midnightblue" d="M324.669,-280.444C351.923,-271.359 395.184,-256.939 425.651,-246.783"/>
<polygon fill="midnightblue" stroke="midnightblue" points="427.071,-249.999 435.451,-243.516 424.857,-243.358 427.071,-249.999"/>
</g>
<!-- Node2&#45;&gt;Node3 -->
<g id="edge2" class="edge"><title>Node2&#45;&gt;Node3</title>
<path fill="none" stroke="midnightblue" d="M198.68,-224.43C173.242,-217.134 138.384,-205.096 111,-188 89.6919,-174.697 69.4411,-153.915 56.6693,-139.443"/>
<polygon fill="midnightblue" stroke="midnightblue" points="59.2347,-137.059 50.0622,-131.756 53.9261,-141.621 59.2347,-137.059"/>
</g>
<!-- Node5 -->
<g id="node5" class="node"><title>Node5</title>
<g id="a_node5"><a doxygen="/local/devel/hpp/install/share/doc/hpp-core/doxygen-html/hpp-core.doxytag:../../hpp-core/doxygen-html/" xlink:href="../../hpp-core/doxygen-html/a00001.html" target="_top" xlink:title="hpp/core/fwd.hh">
<polygon fill="white" stroke="black" points="104,-56.5 104,-75.5 190,-75.5 190,-56.5 104,-56.5"/>
<text text-anchor="middle" x="147" y="-63.5" font-family="Helvetica,sans-Serif" font-size="10.00">hpp/core/fwd.hh</text>
</a>
</g>
</g>
<!-- Node2&#45;&gt;Node5 -->
<g id="edge13" class="edge"><title>Node2&#45;&gt;Node5</title>
<path fill="none" stroke="midnightblue" d="M244.365,-224.163C258.482,-212.032 279.708,-189.294 271,-168 253.666,-125.612 207.195,-95.9184 176.328,-80.157"/>
<polygon fill="midnightblue" stroke="midnightblue" points="177.816,-76.9889 167.299,-75.7142 174.726,-83.2697 177.816,-76.9889"/>
</g>
<!-- Node2&#45;&gt;Node6 -->
<g id="edge5" class="edge"><title>Node2&#45;&gt;Node6</title>
<path fill="none" stroke="midnightblue" d="M249.062,-224.473C264.024,-216.159 286.578,-202.655 304,-188 321.412,-173.354 338.582,-153.683 349.87,-139.83"/>
<polygon fill="midnightblue" stroke="midnightblue" points="352.875,-141.676 356.381,-131.678 347.406,-137.307 352.875,-141.676"/>
</g>
<!-- Node11 -->
<g id="node11" class="node"><title>Node11</title>
<g id="a_node11"><a xlink:href="a00066.html" target="_top" xlink:title="hpp/core/fwd.hh">
<polygon fill="white" stroke="black" points="104,-112.5 104,-131.5 190,-131.5 190,-112.5 104,-112.5"/>
<text text-anchor="middle" x="147" y="-119.5" font-family="Helvetica,sans-Serif" font-size="10.00">hpp/core/fwd.hh</text>
</a>
</g>
</g>
<!-- Node2&#45;&gt;Node11 -->
<g id="edge10" class="edge"><title>Node2&#45;&gt;Node11</title>
<path fill="none" stroke="midnightblue" d="M176.307,-224.495C154.65,-218.18 132.046,-207.176 119,-188 108.583,-172.689 120.137,-152.876 131.403,-139.169"/>
<polygon fill="midnightblue" stroke="midnightblue" points="134.169,-141.325 138.181,-131.519 128.929,-136.683 134.169,-141.325"/>
</g>
<!-- Node12 -->
<g id="node12" class="node"><title>Node12</title>
<g id="a_node12"><a doxygen="/local/devel/hpp/install/share/doc/hpp-core/doxygen-html/hpp-core.doxytag:../../hpp-core/doxygen-html/" xlink:href="../../hpp-core/doxygen-html/a00191.html" target="_top" xlink:title="hpp/core/relative&#45;motion.hh">
<polygon fill="white" stroke="black" points="128,-168.5 128,-187.5 262,-187.5 262,-168.5 128,-168.5"/>
<text text-anchor="middle" x="195" y="-175.5" font-family="Helvetica,sans-Serif" font-size="10.00">hpp/core/relative&#45;motion.hh</text>
</a>
</g>
</g>
<!-- Node2&#45;&gt;Node12 -->
<g id="edge14" class="edge"><title>Node2&#45;&gt;Node12</title>
<path fill="none" stroke="midnightblue" d="M226.725,-224.083C221.358,-216.455 213.482,-205.264 206.921,-195.941"/>
<polygon fill="midnightblue" stroke="midnightblue" points="209.775,-193.915 201.158,-187.751 204.051,-197.943 209.775,-193.915"/>
</g>
<!-- Node4 -->
<g id="node4" class="node"><title>Node4</title>
<polygon fill="white" stroke="#bfbfbf" points="38.5,-56.5 38.5,-75.5 73.5,-75.5 73.5,-56.5 38.5,-56.5"/>
<text text-anchor="middle" x="56" y="-63.5" font-family="Helvetica,sans-Serif" font-size="10.00">map</text>
</g>
<!-- Node3&#45;&gt;Node4 -->
<g id="edge3" class="edge"><title>Node3&#45;&gt;Node4</title>
<path fill="none" stroke="midnightblue" d="M45.1467,-112.083C46.8694,-104.927 49.3471,-94.6353 51.5003,-85.6911"/>
<polygon fill="midnightblue" stroke="midnightblue" points="54.9554,-86.2925 53.8933,-75.7511 48.1499,-84.6541 54.9554,-86.2925"/>
</g>
<!-- Node3&#45;&gt;Node5 -->
<g id="edge4" class="edge"><title>Node3&#45;&gt;Node5</title>
<path fill="none" stroke="midnightblue" d="M59.7094,-112.324C76.3119,-103.703 102.002,-90.3643 121.22,-80.3855"/>
<polygon fill="midnightblue" stroke="midnightblue" points="123.07,-83.3689 130.332,-75.6545 119.844,-77.1565 123.07,-83.3689"/>
</g>
<!-- Node7 -->
<g id="node7" class="node"><title>Node7</title>
<polygon fill="white" stroke="#bfbfbf" points="208,-56.5 208,-75.5 302,-75.5 302,-56.5 208,-56.5"/>
<text text-anchor="middle" x="255" y="-63.5" font-family="Helvetica,sans-Serif" font-size="10.00">hpp/util/pointer.hh</text>
</g>
<!-- Node6&#45;&gt;Node7 -->
<g id="edge6" class="edge"><title>Node6&#45;&gt;Node7</title>
<path fill="none" stroke="midnightblue" d="M345.648,-112.324C328.328,-103.664 301.485,-90.2424 281.498,-80.249"/>
<polygon fill="midnightblue" stroke="midnightblue" points="282.819,-76.9962 272.309,-75.6545 279.688,-83.2572 282.819,-76.9962"/>
</g>
<!-- Node8 -->
<g id="node8" class="node"><title>Node8</title>
<g id="a_node8"><a doxygen="/local/devel/hpp/install/share/doc/hpp-statistics/doxygen-html/hpp-statistics.doxytag:../../hpp-statistics/doxygen-html/" xlink:href="../../hpp-statistics/doxygen-html/a00009.html" target="_top" xlink:title="hpp/statistics/distribution.hh">
<polygon fill="white" stroke="black" points="320.5,-56.5 320.5,-75.5 459.5,-75.5 459.5,-56.5 320.5,-56.5"/>
<text text-anchor="middle" x="390" y="-63.5" font-family="Helvetica,sans-Serif" font-size="10.00">hpp/statistics/distribution.hh</text>
</a>
</g>
</g>
<!-- Node6&#45;&gt;Node8 -->
<g id="edge7" class="edge"><title>Node6&#45;&gt;Node8</title>
<path fill="none" stroke="midnightblue" d="M367.459,-112.083C371.154,-104.691 376.523,-93.9533 381.094,-84.8111"/>
<polygon fill="midnightblue" stroke="midnightblue" points="384.283,-86.2606 385.624,-75.7511 378.022,-83.1301 384.283,-86.2606"/>
</g>
<!-- Node10 -->
<g id="node10" class="node"><title>Node10</title>
<polygon fill="white" stroke="#bfbfbf" points="478,-56.5 478,-75.5 522,-75.5 522,-56.5 478,-56.5"/>
<text text-anchor="middle" x="500" y="-63.5" font-family="Helvetica,sans-Serif" font-size="10.00">vector</text>
</g>
<!-- Node6&#45;&gt;Node10 -->
<g id="edge9" class="edge"><title>Node6&#45;&gt;Node10</title>
<path fill="none" stroke="midnightblue" d="M384.708,-112.444C407.355,-103.517 443.072,-89.4387 468.752,-79.3168"/>
<polygon fill="midnightblue" stroke="midnightblue" points="470.374,-82.4397 478.394,-75.5164 467.807,-75.9273 470.374,-82.4397"/>
</g>
<!-- Node9 -->
<g id="node9" class="node"><title>Node9</title>
<g id="a_node9"><a doxygen="/local/devel/hpp/install/share/doc/hpp-statistics/doxygen-html/hpp-statistics.doxytag:../../hpp-statistics/doxygen-html/" xlink:href="../../hpp-statistics/doxygen-html/a00010.html" target="_top" xlink:title="hpp/statistics/fwd.hh">
<polygon fill="white" stroke="black" points="336.5,-0.5 336.5,-19.5 443.5,-19.5 443.5,-0.5 336.5,-0.5"/>
<text text-anchor="middle" x="390" y="-7.5" font-family="Helvetica,sans-Serif" font-size="10.00">hpp/statistics/fwd.hh</text>
</a>
</g>
</g>
<!-- Node8&#45;&gt;Node9 -->
<g id="edge8" class="edge"><title>Node8&#45;&gt;Node9</title>
<path fill="none" stroke="midnightblue" d="M390,-56.083C390,-49.0059 390,-38.8611 390,-29.9865"/>
<polygon fill="midnightblue" stroke="midnightblue" points="393.5,-29.751 390,-19.7511 386.5,-29.7511 393.5,-29.751"/>
</g>
<!-- Node11&#45;&gt;Node4 -->
<g id="edge11" class="edge"><title>Node11&#45;&gt;Node4</title>
<path fill="none" stroke="midnightblue" d="M132.379,-112.324C118.051,-103.822 95.9875,-90.7288 79.2513,-80.7975"/>
<polygon fill="midnightblue" stroke="midnightblue" points="80.9704,-77.7478 70.5844,-75.6545 77.3982,-83.7677 80.9704,-77.7478"/>
</g>
<!-- Node11&#45;&gt;Node5 -->
<g id="edge12" class="edge"><title>Node11&#45;&gt;Node5</title>
<path fill="none" stroke="midnightblue" d="M147,-112.083C147,-105.006 147,-94.8611 147,-85.9865"/>
<polygon fill="midnightblue" stroke="midnightblue" points="150.5,-85.751 147,-75.7511 143.5,-85.7511 150.5,-85.751"/>
</g>
<!-- Node12&#45;&gt;Node3 -->
<g id="edge15" class="edge"><title>Node12&#45;&gt;Node3</title>
<path fill="none" stroke="midnightblue" d="M170.915,-168.444C145.455,-159.399 105.106,-145.064 76.5409,-134.916"/>
<polygon fill="midnightblue" stroke="midnightblue" points="77.5669,-131.566 66.9722,-131.516 75.2235,-138.162 77.5669,-131.566"/>
</g>
<!-- Node12&#45;&gt;Node5 -->
<g id="edge18" class="edge"><title>Node12&#45;&gt;Node5</title>
<path fill="none" stroke="midnightblue" d="M198.085,-168.109C202.046,-155.125 207.46,-130.509 199,-112 193.223,-99.3602 181.948,-88.911 171.369,-81.2737"/>
<polygon fill="midnightblue" stroke="midnightblue" points="173.042,-78.1817 162.783,-75.5333 169.151,-84.0009 173.042,-78.1817"/>
</g>
<!-- Node12&#45;&gt;Node6 -->
<g id="edge16" class="edge"><title>Node12&#45;&gt;Node6</title>
<path fill="none" stroke="midnightblue" d="M221.62,-168.444C250.006,-159.32 295.137,-144.813 326.753,-134.651"/>
<polygon fill="midnightblue" stroke="midnightblue" points="328.055,-137.909 336.504,-131.516 325.913,-131.244 328.055,-137.909"/>
</g>
<!-- Node12&#45;&gt;Node11 -->
<g id="edge17" class="edge"><title>Node12&#45;&gt;Node11</title>
<path fill="none" stroke="midnightblue" d="M187.074,-168.083C180.154,-160.298 169.935,-148.801 161.548,-139.367"/>
<polygon fill="midnightblue" stroke="midnightblue" points="164.038,-136.9 154.779,-131.751 158.806,-141.55 164.038,-136.9"/>
</g>
</g>
</svg>
