<?xml version="1.0" encoding="UTF-8" standalone="no"?>
<!DOCTYPE svg PUBLIC "-//W3C//DTD SVG 1.1//EN"
 "http://www.w3.org/Graphics/SVG/1.1/DTD/svg11.dtd">
<!-- Generated by graphviz version 2.38.0 (20140413.2041)
 -->
<!-- Title: function.cc Pages: 1 -->
<svg width="564pt" height="263pt"
 viewBox="0.00 0.00 564.00 263.00" xmlns="http://www.w3.org/2000/svg" xmlns:xlink="http://www.w3.org/1999/xlink">
<g id="graph0" class="graph" transform="scale(1 1) rotate(0) translate(4 259)">
<title>function.cc</title>
<polygon fill="white" stroke="none" points="-4,4 -4,-259 560,-259 560,4 -4,4"/>
<!-- Node1 -->
<g id="node1" class="node"><title>Node1</title>
<polygon fill="#bfbfbf" stroke="black" points="323.5,-235.5 323.5,-254.5 388.5,-254.5 388.5,-235.5 323.5,-235.5"/>
<text text-anchor="middle" x="356" y="-242.5" font-family="Helvetica,sans-Serif" font-size="10.00">function.cc</text>
</g>
<!-- Node2 -->
<g id="node2" class="node"><title>Node2</title>
<g id="a_node2"><a doxygen="/local/devel/hpp/install/share/doc/hpp-constraints/doxygen-html/hpp-constraints.doxytag:../../hpp-constraints/doxygen-html/" xlink:href="../../hpp-constraints/doxygen-html/a00107.html" target="_top" xlink:title="hpp/constraints/differentiable\l&#45;function.hh">
<polygon fill="white" stroke="black" points="207,-168.5 207,-198.5 349,-198.5 349,-168.5 207,-168.5"/>
<text text-anchor="start" x="215" y="-186.5" font-family="Helvetica,sans-Serif" font-size="10.00">hpp/constraints/differentiable</text>
<text text-anchor="middle" x="278" y="-175.5" font-family="Helvetica,sans-Serif" font-size="10.00">&#45;function.hh</text>
</a>
</g>
</g>
<!-- Node1&#45;&gt;Node2 -->
<g id="edge1" class="edge"><title>Node1&#45;&gt;Node2</title>
<path fill="none" stroke="midnightblue" d="M344.825,-235.475C334.359,-227.492 318.316,-215.254 304.573,-204.77"/>
<polygon fill="midnightblue" stroke="midnightblue" points="306.457,-201.805 296.383,-198.523 302.211,-207.371 306.457,-201.805"/>
</g>
<!-- Node13 -->
<g id="node13" class="node"><title>Node13</title>
<polygon fill="white" stroke="#bfbfbf" points="367.5,-174 367.5,-193 500.5,-193 500.5,-174 367.5,-174"/>
<text text-anchor="middle" x="434" y="-181" font-family="Helvetica,sans-Serif" font-size="10.00">hpp/manipulation/config.hh</text>
</g>
<!-- Node1&#45;&gt;Node13 -->
<g id="edge15" class="edge"><title>Node1&#45;&gt;Node13</title>
<path fill="none" stroke="midnightblue" d="M367.175,-235.475C379.571,-226.02 399.79,-210.596 414.746,-199.187"/>
<polygon fill="midnightblue" stroke="midnightblue" points="417.017,-201.857 422.845,-193.009 412.772,-196.291 417.017,-201.857"/>
</g>
<!-- Node3 -->
<g id="node3" class="node"><title>Node3</title>
<g id="a_node3"><a xlink:href="a00001.html" target="_top" xlink:title="hpp/constraints/fwd.hh">
<polygon fill="white" stroke="black" points="134,-112.5 134,-131.5 250,-131.5 250,-112.5 134,-112.5"/>
<text text-anchor="middle" x="192" y="-119.5" font-family="Helvetica,sans-Serif" font-size="10.00">hpp/constraints/fwd.hh</text>
</a>
</g>
</g>
<!-- Node2&#45;&gt;Node3 -->
<g id="edge2" class="edge"><title>Node2&#45;&gt;Node3</title>
<path fill="none" stroke="midnightblue" d="M257.619,-168.399C244.092,-159.04 226.389,-146.792 212.78,-137.377"/>
<polygon fill="midnightblue" stroke="midnightblue" points="214.729,-134.469 204.514,-131.658 210.746,-140.226 214.729,-134.469"/>
</g>
<!-- Node5 -->
<g id="node5" class="node"><title>Node5</title>
<g id="a_node5"><a doxygen="/local/devel/hpp/install/share/doc/hpp-core/doxygen-html/hpp-core.doxytag:../../hpp-core/doxygen-html/" xlink:href="../../hpp-core/doxygen-html/a00001.html" target="_top" xlink:title="hpp/core/fwd.hh">
<polygon fill="white" stroke="black" points="135,-56.5 135,-75.5 221,-75.5 221,-56.5 135,-56.5"/>
<text text-anchor="middle" x="178" y="-63.5" font-family="Helvetica,sans-Serif" font-size="10.00">hpp/core/fwd.hh</text>
</a>
</g>
</g>
<!-- Node2&#45;&gt;Node5 -->
<g id="edge13" class="edge"><title>Node2&#45;&gt;Node5</title>
<path fill="none" stroke="midnightblue" d="M277.387,-168.355C276.051,-153.002 271.881,-128.479 259,-112 247.596,-97.4108 230.071,-86.8434 214.235,-79.6307"/>
<polygon fill="midnightblue" stroke="midnightblue" points="215.235,-76.2532 204.663,-75.5673 212.5,-82.6966 215.235,-76.2532"/>
</g>
<!-- Node6 -->
<g id="node6" class="node"><title>Node6</title>
<g id="a_node6"><a xlink:href="a00065.html" target="_top" xlink:title="hpp/constraints/fwd.hh">
<polygon fill="white" stroke="black" points="306,-112.5 306,-131.5 422,-131.5 422,-112.5 306,-112.5"/>
<text text-anchor="middle" x="364" y="-119.5" font-family="Helvetica,sans-Serif" font-size="10.00">hpp/constraints/fwd.hh</text>
</a>
</g>
</g>
<!-- Node2&#45;&gt;Node6 -->
<g id="edge5" class="edge"><title>Node2&#45;&gt;Node6</title>
<path fill="none" stroke="midnightblue" d="M298.381,-168.399C311.908,-159.04 329.611,-146.792 343.22,-137.377"/>
<polygon fill="midnightblue" stroke="midnightblue" points="345.254,-140.226 351.486,-131.658 341.271,-134.469 345.254,-140.226"/>
</g>
<!-- Node11 -->
<g id="node11" class="node"><title>Node11</title>
<g id="a_node11"><a xlink:href="a00066.html" target="_top" xlink:title="hpp/constraints/fwd.hh">
<polygon fill="white" stroke="black" points="0,-112.5 0,-131.5 116,-131.5 116,-112.5 0,-112.5"/>
<text text-anchor="middle" x="58" y="-119.5" font-family="Helvetica,sans-Serif" font-size="10.00">hpp/constraints/fwd.hh</text>
</a>
</g>
</g>
<!-- Node2&#45;&gt;Node11 -->
<g id="edge10" class="edge"><title>Node2&#45;&gt;Node11</title>
<path fill="none" stroke="midnightblue" d="M226.142,-168.475C187.358,-157.986 135.043,-143.837 99.1237,-134.122"/>
<polygon fill="midnightblue" stroke="midnightblue" points="100.019,-130.739 89.4521,-131.506 98.1915,-137.496 100.019,-130.739"/>
</g>
<!-- Node12 -->
<g id="node12" class="node"><title>Node12</title>
<g id="a_node12"><a doxygen="/local/devel/hpp/install/share/doc/hpp-constraints/doxygen-html/hpp-constraints.doxytag:../../hpp-constraints/doxygen-html/" xlink:href="../../hpp-constraints/doxygen-html/a00001.html" target="_top" xlink:title="hpp/constraints/fwd.hh">
<polygon fill="white" stroke="black" points="440,-112.5 440,-131.5 556,-131.5 556,-112.5 440,-112.5"/>
<text text-anchor="middle" x="498" y="-119.5" font-family="Helvetica,sans-Serif" font-size="10.00">hpp/constraints/fwd.hh</text>
</a>
</g>
</g>
<!-- Node2&#45;&gt;Node12 -->
<g id="edge14" class="edge"><title>Node2&#45;&gt;Node12</title>
<path fill="none" stroke="midnightblue" d="M329.858,-168.475C368.642,-157.986 420.957,-143.837 456.876,-134.122"/>
<polygon fill="midnightblue" stroke="midnightblue" points="457.808,-137.496 466.548,-131.506 455.981,-130.739 457.808,-137.496"/>
</g>
<!-- Node4 -->
<g id="node4" class="node"><title>Node4</title>
<polygon fill="white" stroke="#bfbfbf" points="54.5,-56.5 54.5,-75.5 89.5,-75.5 89.5,-56.5 54.5,-56.5"/>
<text text-anchor="middle" x="72" y="-63.5" font-family="Helvetica,sans-Serif" font-size="10.00">map</text>
</g>
<!-- Node3&#45;&gt;Node4 -->
<g id="edge3" class="edge"><title>Node3&#45;&gt;Node4</title>
<path fill="none" stroke="midnightblue" d="M172.986,-112.444C153.067,-103.48 121.605,-89.3221 99.0919,-79.1914"/>
<polygon fill="midnightblue" stroke="midnightblue" points="100.307,-75.9003 89.7518,-74.9883 97.4347,-82.2837 100.307,-75.9003"/>
</g>
<!-- Node3&#45;&gt;Node5 -->
<g id="edge4" class="edge"><title>Node3&#45;&gt;Node5</title>
<path fill="none" stroke="midnightblue" d="M189.688,-112.083C187.833,-104.927 185.165,-94.6353 182.846,-85.6911"/>
<polygon fill="midnightblue" stroke="midnightblue" points="186.166,-84.5527 180.269,-75.7511 179.391,-86.3094 186.166,-84.5527"/>
</g>
<!-- Node7 -->
<g id="node7" class="node"><title>Node7</title>
<polygon fill="white" stroke="#bfbfbf" points="239,-56.5 239,-75.5 333,-75.5 333,-56.5 239,-56.5"/>
<text text-anchor="middle" x="286" y="-63.5" font-family="Helvetica,sans-Serif" font-size="10.00">hpp/util/pointer.hh</text>
</g>
<!-- Node6&#45;&gt;Node7 -->
<g id="edge6" class="edge"><title>Node6&#45;&gt;Node7</title>
<path fill="none" stroke="midnightblue" d="M351.468,-112.324C339.414,-103.979 320.973,-91.2122 306.731,-81.3524"/>
<polygon fill="midnightblue" stroke="midnightblue" points="308.715,-78.469 298.501,-75.6545 304.731,-84.2243 308.715,-78.469"/>
</g>
<!-- Node8 -->
<g id="node8" class="node"><title>Node8</title>
<g id="a_node8"><a doxygen="/local/devel/hpp/install/share/doc/hpp-statistics/doxygen-html/hpp-statistics.doxytag:../../hpp-statistics/doxygen-html/" xlink:href="../../hpp-statistics/doxygen-html/a00009.html" target="_top" xlink:title="hpp/statistics/distribution.hh">
<polygon fill="white" stroke="black" points="351.5,-56.5 351.5,-75.5 490.5,-75.5 490.5,-56.5 351.5,-56.5"/>
<text text-anchor="middle" x="421" y="-63.5" font-family="Helvetica,sans-Serif" font-size="10.00">hpp/statistics/distribution.hh</text>
</a>
</g>
</g>
<!-- Node6&#45;&gt;Node8 -->
<g id="edge7" class="edge"><title>Node6&#45;&gt;Node8</title>
<path fill="none" stroke="midnightblue" d="M373.158,-112.324C381.501,-104.42 394.032,-92.5482 404.177,-82.9377"/>
<polygon fill="midnightblue" stroke="midnightblue" points="406.823,-85.2522 411.675,-75.8339 402.009,-80.1705 406.823,-85.2522"/>
</g>
<!-- Node10 -->
<g id="node10" class="node"><title>Node10</title>
<polygon fill="white" stroke="#bfbfbf" points="509,-56.5 509,-75.5 553,-75.5 553,-56.5 509,-56.5"/>
<text text-anchor="middle" x="531" y="-63.5" font-family="Helvetica,sans-Serif" font-size="10.00">vector</text>
</g>
<!-- Node6&#45;&gt;Node10 -->
<g id="edge9" class="edge"><title>Node6&#45;&gt;Node10</title>
<path fill="none" stroke="midnightblue" d="M390.462,-112.444C420.006,-102.89 467.8,-87.436 499.313,-77.2461"/>
<polygon fill="midnightblue" stroke="midnightblue" points="500.491,-80.5438 508.929,-74.1368 498.337,-73.8833 500.491,-80.5438"/>
</g>
<!-- Node9 -->
<g id="node9" class="node"><title>Node9</title>
<g id="a_node9"><a doxygen="/local/devel/hpp/install/share/doc/hpp-statistics/doxygen-html/hpp-statistics.doxytag:../../hpp-statistics/doxygen-html/" xlink:href="../../hpp-statistics/doxygen-html/a00010.html" target="_top" xlink:title="hpp/statistics/fwd.hh">
<polygon fill="white" stroke="black" points="367.5,-0.5 367.5,-19.5 474.5,-19.5 474.5,-0.5 367.5,-0.5"/>
<text text-anchor="middle" x="421" y="-7.5" font-family="Helvetica,sans-Serif" font-size="10.00">hpp/statistics/fwd.hh</text>
</a>
</g>
</g>
<!-- Node8&#45;&gt;Node9 -->
<g id="edge8" class="edge"><title>Node8&#45;&gt;Node9</title>
<path fill="none" stroke="midnightblue" d="M421,-56.083C421,-49.0059 421,-38.8611 421,-29.9865"/>
<polygon fill="midnightblue" stroke="midnightblue" points="424.5,-29.751 421,-19.7511 417.5,-29.7511 424.5,-29.751"/>
</g>
<!-- Node11&#45;&gt;Node4 -->
<g id="edge11" class="edge"><title>Node11&#45;&gt;Node4</title>
<path fill="none" stroke="midnightblue" d="M60.3118,-112.083C62.167,-104.927 64.8353,-94.6353 67.1542,-85.6911"/>
<polygon fill="midnightblue" stroke="midnightblue" points="70.6095,-86.3094 69.7312,-75.7511 63.8335,-84.5527 70.6095,-86.3094"/>
</g>
<!-- Node11&#45;&gt;Node5 -->
<g id="edge12" class="edge"><title>Node11&#45;&gt;Node5</title>
<path fill="none" stroke="midnightblue" d="M77.0144,-112.444C96.5876,-103.636 127.308,-89.8116 149.729,-79.722"/>
<polygon fill="midnightblue" stroke="midnightblue" points="151.392,-82.8119 159.075,-75.5164 148.519,-76.4284 151.392,-82.8119"/>
</g>
</g>
</svg>
