<?xml version="1.0" encoding="UTF-8" standalone="no"?>
<!DOCTYPE svg PUBLIC "-//W3C//DTD SVG 1.1//EN"
 "http://www.w3.org/Graphics/SVG/1.1/DTD/svg11.dtd">
<!-- Generated by graphviz version 2.38.0 (20140413.2041)
 -->
<!-- Title: random&#45;shortcut.hh Pages: 1 -->
<svg width="523pt" height="319pt"
 viewBox="0.00 0.00 523.00 319.00" xmlns="http://www.w3.org/2000/svg" xmlns:xlink="http://www.w3.org/1999/xlink">
<g id="graph0" class="graph" transform="scale(1 1) rotate(0) translate(4 315)">
<title>random&#45;shortcut.hh</title>
<polygon fill="white" stroke="none" points="-4,4 -4,-315 519,-315 519,4 -4,4"/>
<!-- Node1 -->
<g id="node1" class="node"><title>Node1</title>
<polygon fill="#bfbfbf" stroke="black" points="91.5,-291.5 91.5,-310.5 192.5,-310.5 192.5,-291.5 91.5,-291.5"/>
<text text-anchor="middle" x="142" y="-298.5" font-family="Helvetica,sans-Serif" font-size="10.00">random&#45;shortcut.hh</text>
</g>
<!-- Node2 -->
<g id="node2" class="node"><title>Node2</title>
<g id="a_node2"><a doxygen="/local/devel/hpp/install/share/doc/hpp-core/doxygen-html/hpp-core.doxytag:../../hpp-core/doxygen-html/" xlink:href="../../hpp-core/doxygen-html/a00186.html" target="_top" xlink:title="hpp/core/path&#45;optimization\l/random&#45;shortcut.hh">
<polygon fill="white" stroke="black" points="76.5,-224.5 76.5,-254.5 207.5,-254.5 207.5,-224.5 76.5,-224.5"/>
<text text-anchor="start" x="84.5" y="-242.5" font-family="Helvetica,sans-Serif" font-size="10.00">hpp/core/path&#45;optimization</text>
<text text-anchor="middle" x="142" y="-231.5" font-family="Helvetica,sans-Serif" font-size="10.00">/random&#45;shortcut.hh</text>
</a>
</g>
</g>
<!-- Node1&#45;&gt;Node2 -->
<g id="edge1" class="edge"><title>Node1&#45;&gt;Node2</title>
<path fill="none" stroke="midnightblue" d="M142,-291.475C142,-284.471 142,-274.192 142,-264.696"/>
<polygon fill="midnightblue" stroke="midnightblue" points="145.5,-264.523 142,-254.523 138.5,-264.523 145.5,-264.523"/>
</g>
<!-- Node4 -->
<g id="node4" class="node"><title>Node4</title>
<g id="a_node4"><a xlink:href="a00001.html" target="_top" xlink:title="hpp/core/fwd.hh">
<polygon fill="white" stroke="black" points="0,-112.5 0,-131.5 86,-131.5 86,-112.5 0,-112.5"/>
<text text-anchor="middle" x="43" y="-119.5" font-family="Helvetica,sans-Serif" font-size="10.00">hpp/core/fwd.hh</text>
</a>
</g>
</g>
<!-- Node1&#45;&gt;Node4 -->
<g id="edge15" class="edge"><title>Node1&#45;&gt;Node4</title>
<path fill="none" stroke="midnightblue" d="M117.207,-291.424C100.39,-284.303 79.0931,-272.484 67,-255 43.1168,-220.47 40.9678,-169.125 41.7871,-141.763"/>
<polygon fill="midnightblue" stroke="midnightblue" points="45.2902,-141.777 42.2653,-131.623 38.298,-141.447 45.2902,-141.777"/>
</g>
<!-- Node13 -->
<g id="node13" class="node"><title>Node13</title>
<polygon fill="white" stroke="#bfbfbf" points="225.5,-230 225.5,-249 358.5,-249 358.5,-230 225.5,-230"/>
<text text-anchor="middle" x="292" y="-237" font-family="Helvetica,sans-Serif" font-size="10.00">hpp/manipulation/config.hh</text>
</g>
<!-- Node1&#45;&gt;Node13 -->
<g id="edge16" class="edge"><title>Node1&#45;&gt;Node13</title>
<path fill="none" stroke="midnightblue" d="M163.491,-291.475C189.11,-281.313 232.11,-264.256 261.245,-252.7"/>
<polygon fill="midnightblue" stroke="midnightblue" points="262.544,-255.95 270.549,-249.009 259.963,-249.443 262.544,-255.95"/>
</g>
<!-- Node3 -->
<g id="node3" class="node"><title>Node3</title>
<g id="a_node3"><a doxygen="/local/devel/hpp/install/share/doc/hpp-core/doxygen-html/hpp-core.doxytag:../../hpp-core/doxygen-html/" xlink:href="../../hpp-core/doxygen-html/a00167.html" target="_top" xlink:title="hpp/core/path&#45;optimizer.hh">
<polygon fill="white" stroke="black" points="81,-168.5 81,-187.5 213,-187.5 213,-168.5 81,-168.5"/>
<text text-anchor="middle" x="147" y="-175.5" font-family="Helvetica,sans-Serif" font-size="10.00">hpp/core/path&#45;optimizer.hh</text>
</a>
</g>
</g>
<!-- Node2&#45;&gt;Node3 -->
<g id="edge2" class="edge"><title>Node2&#45;&gt;Node3</title>
<path fill="none" stroke="midnightblue" d="M143.185,-224.399C143.852,-216.466 144.693,-206.458 145.415,-197.858"/>
<polygon fill="midnightblue" stroke="midnightblue" points="148.923,-197.916 146.272,-187.658 141.947,-197.33 148.923,-197.916"/>
</g>
<!-- Node3&#45;&gt;Node4 -->
<g id="edge3" class="edge"><title>Node3&#45;&gt;Node4</title>
<path fill="none" stroke="midnightblue" d="M130.291,-168.324C113.688,-159.703 87.9979,-146.364 68.7795,-136.386"/>
<polygon fill="midnightblue" stroke="midnightblue" points="70.1558,-133.156 59.6679,-131.655 66.93,-139.369 70.1558,-133.156"/>
</g>
<!-- Node6 -->
<g id="node6" class="node"><title>Node6</title>
<g id="a_node6"><a doxygen="/local/devel/hpp/install/share/doc/hpp-core/doxygen-html/hpp-core.doxytag:../../hpp-core/doxygen-html/" xlink:href="../../hpp-core/doxygen-html/a00001.html" target="_top" xlink:title="hpp/core/fwd.hh">
<polygon fill="white" stroke="black" points="97,-56.5 97,-75.5 183,-75.5 183,-56.5 97,-56.5"/>
<text text-anchor="middle" x="140" y="-63.5" font-family="Helvetica,sans-Serif" font-size="10.00">hpp/core/fwd.hh</text>
</a>
</g>
</g>
<!-- Node3&#45;&gt;Node6 -->
<g id="edge14" class="edge"><title>Node3&#45;&gt;Node6</title>
<path fill="none" stroke="midnightblue" d="M162.693,-168.403C181.8,-156.718 210.219,-134.666 199,-112 192.397,-98.6595 179.735,-88.1941 167.829,-80.7262"/>
<polygon fill="midnightblue" stroke="midnightblue" points="169.391,-77.5866 158.984,-75.6018 165.882,-83.6435 169.391,-77.5866"/>
</g>
<!-- Node7 -->
<g id="node7" class="node"><title>Node7</title>
<g id="a_node7"><a xlink:href="a00065.html" target="_top" xlink:title="hpp/core/fwd.hh">
<polygon fill="white" stroke="black" points="292,-112.5 292,-131.5 378,-131.5 378,-112.5 292,-112.5"/>
<text text-anchor="middle" x="335" y="-119.5" font-family="Helvetica,sans-Serif" font-size="10.00">hpp/core/fwd.hh</text>
</a>
</g>
</g>
<!-- Node3&#45;&gt;Node7 -->
<g id="edge6" class="edge"><title>Node3&#45;&gt;Node7</title>
<path fill="none" stroke="midnightblue" d="M176.789,-168.444C208.829,-159.241 259.933,-144.562 295.353,-134.388"/>
<polygon fill="midnightblue" stroke="midnightblue" points="296.705,-137.641 305.35,-131.516 294.773,-130.913 296.705,-137.641"/>
</g>
<!-- Node12 -->
<g id="node12" class="node"><title>Node12</title>
<g id="a_node12"><a xlink:href="a00066.html" target="_top" xlink:title="hpp/core/fwd.hh">
<polygon fill="white" stroke="black" points="104,-112.5 104,-131.5 190,-131.5 190,-112.5 104,-112.5"/>
<text text-anchor="middle" x="147" y="-119.5" font-family="Helvetica,sans-Serif" font-size="10.00">hpp/core/fwd.hh</text>
</a>
</g>
</g>
<!-- Node3&#45;&gt;Node12 -->
<g id="edge11" class="edge"><title>Node3&#45;&gt;Node12</title>
<path fill="none" stroke="midnightblue" d="M147,-168.083C147,-161.006 147,-150.861 147,-141.986"/>
<polygon fill="midnightblue" stroke="midnightblue" points="150.5,-141.751 147,-131.751 143.5,-141.751 150.5,-141.751"/>
</g>
<!-- Node5 -->
<g id="node5" class="node"><title>Node5</title>
<polygon fill="white" stroke="#bfbfbf" points="31.5,-56.5 31.5,-75.5 66.5,-75.5 66.5,-56.5 31.5,-56.5"/>
<text text-anchor="middle" x="49" y="-63.5" font-family="Helvetica,sans-Serif" font-size="10.00">map</text>
</g>
<!-- Node4&#45;&gt;Node5 -->
<g id="edge4" class="edge"><title>Node4&#45;&gt;Node5</title>
<path fill="none" stroke="midnightblue" d="M43.9908,-112.083C44.7859,-104.927 45.9294,-94.6353 46.9232,-85.6911"/>
<polygon fill="midnightblue" stroke="midnightblue" points="50.4018,-86.0765 48.0277,-75.7511 43.4447,-85.3034 50.4018,-86.0765"/>
</g>
<!-- Node4&#45;&gt;Node6 -->
<g id="edge5" class="edge"><title>Node4&#45;&gt;Node6</title>
<path fill="none" stroke="midnightblue" d="M58.5847,-112.324C73.9991,-103.743 97.8122,-90.486 115.71,-80.5224"/>
<polygon fill="midnightblue" stroke="midnightblue" points="117.419,-83.5767 124.454,-75.6545 114.014,-77.4606 117.419,-83.5767"/>
</g>
<!-- Node8 -->
<g id="node8" class="node"><title>Node8</title>
<polygon fill="white" stroke="#bfbfbf" points="421,-56.5 421,-75.5 515,-75.5 515,-56.5 421,-56.5"/>
<text text-anchor="middle" x="468" y="-63.5" font-family="Helvetica,sans-Serif" font-size="10.00">hpp/util/pointer.hh</text>
</g>
<!-- Node7&#45;&gt;Node8 -->
<g id="edge7" class="edge"><title>Node7&#45;&gt;Node8</title>
<path fill="none" stroke="midnightblue" d="M356.074,-112.444C378.06,-103.517 412.734,-89.4387 437.664,-79.3168"/>
<polygon fill="midnightblue" stroke="midnightblue" points="439.076,-82.5213 447.024,-75.5164 436.442,-76.0355 439.076,-82.5213"/>
</g>
<!-- Node9 -->
<g id="node9" class="node"><title>Node9</title>
<g id="a_node9"><a doxygen="/local/devel/hpp/install/share/doc/hpp-statistics/doxygen-html/hpp-statistics.doxytag:../../hpp-statistics/doxygen-html/" xlink:href="../../hpp-statistics/doxygen-html/a00009.html" target="_top" xlink:title="hpp/statistics/distribution.hh">
<polygon fill="white" stroke="black" points="201.5,-56.5 201.5,-75.5 340.5,-75.5 340.5,-56.5 201.5,-56.5"/>
<text text-anchor="middle" x="271" y="-63.5" font-family="Helvetica,sans-Serif" font-size="10.00">hpp/statistics/distribution.hh</text>
</a>
</g>
</g>
<!-- Node7&#45;&gt;Node9 -->
<g id="edge8" class="edge"><title>Node7&#45;&gt;Node9</title>
<path fill="none" stroke="midnightblue" d="M324.717,-112.324C315.164,-104.263 300.72,-92.0765 289.216,-82.3695"/>
<polygon fill="midnightblue" stroke="midnightblue" points="291.37,-79.6076 281.47,-75.8339 286.856,-84.9577 291.37,-79.6076"/>
</g>
<!-- Node11 -->
<g id="node11" class="node"><title>Node11</title>
<polygon fill="white" stroke="#bfbfbf" points="359,-56.5 359,-75.5 403,-75.5 403,-56.5 359,-56.5"/>
<text text-anchor="middle" x="381" y="-63.5" font-family="Helvetica,sans-Serif" font-size="10.00">vector</text>
</g>
<!-- Node7&#45;&gt;Node11 -->
<g id="edge10" class="edge"><title>Node7&#45;&gt;Node11</title>
<path fill="none" stroke="midnightblue" d="M342.596,-112.083C349.227,-104.298 359.021,-92.8015 367.058,-83.3665"/>
<polygon fill="midnightblue" stroke="midnightblue" points="369.725,-85.6332 373.545,-75.7511 364.396,-81.0939 369.725,-85.6332"/>
</g>
<!-- Node10 -->
<g id="node10" class="node"><title>Node10</title>
<g id="a_node10"><a doxygen="/local/devel/hpp/install/share/doc/hpp-statistics/doxygen-html/hpp-statistics.doxytag:../../hpp-statistics/doxygen-html/" xlink:href="../../hpp-statistics/doxygen-html/a00010.html" target="_top" xlink:title="hpp/statistics/fwd.hh">
<polygon fill="white" stroke="black" points="217.5,-0.5 217.5,-19.5 324.5,-19.5 324.5,-0.5 217.5,-0.5"/>
<text text-anchor="middle" x="271" y="-7.5" font-family="Helvetica,sans-Serif" font-size="10.00">hpp/statistics/fwd.hh</text>
</a>
</g>
</g>
<!-- Node9&#45;&gt;Node10 -->
<g id="edge9" class="edge"><title>Node9&#45;&gt;Node10</title>
<path fill="none" stroke="midnightblue" d="M271,-56.083C271,-49.0059 271,-38.8611 271,-29.9865"/>
<polygon fill="midnightblue" stroke="midnightblue" points="274.5,-29.751 271,-19.7511 267.5,-29.7511 274.5,-29.751"/>
</g>
<!-- Node12&#45;&gt;Node5 -->
<g id="edge12" class="edge"><title>Node12&#45;&gt;Node5</title>
<path fill="none" stroke="midnightblue" d="M131.255,-112.324C115.681,-103.743 91.6227,-90.486 73.5407,-80.5224"/>
<polygon fill="midnightblue" stroke="midnightblue" points="75.1539,-77.4152 64.7063,-75.6545 71.7756,-83.546 75.1539,-77.4152"/>
</g>
<!-- Node12&#45;&gt;Node6 -->
<g id="edge13" class="edge"><title>Node12&#45;&gt;Node6</title>
<path fill="none" stroke="midnightblue" d="M145.844,-112.083C144.916,-104.927 143.582,-94.6353 142.423,-85.6911"/>
<polygon fill="midnightblue" stroke="midnightblue" points="145.891,-85.2181 141.134,-75.7511 138.949,-86.1181 145.891,-85.2181"/>
</g>
</g>
</svg>
