<?xml version="1.0" encoding="UTF-8" standalone="no"?>
<!DOCTYPE svg PUBLIC "-//W3C//DTD SVG 1.1//EN"
 "http://www.w3.org/Graphics/SVG/1.1/DTD/svg11.dtd">
<!-- Generated by graphviz version 2.38.0 (20140413.2041)
 -->
<!-- Title: cross&#45;state&#45;optimization.hh Pages: 1 -->
<svg width="1430pt" height="565pt"
 viewBox="0.00 0.00 1430.00 565.00" xmlns="http://www.w3.org/2000/svg" xmlns:xlink="http://www.w3.org/1999/xlink">
<g id="graph0" class="graph" transform="scale(1 1) rotate(0) translate(4 561)">
<title>cross&#45;state&#45;optimization.hh</title>
<polygon fill="white" stroke="none" points="-4,4 -4,-561 1426,-561 1426,4 -4,4"/>
<!-- Node1 -->
<g id="node1" class="node"><title>Node1</title>
<polygon fill="#bfbfbf" stroke="black" points="421,-537.5 421,-556.5 555,-556.5 555,-537.5 421,-537.5"/>
<text text-anchor="middle" x="488" y="-544.5" font-family="Helvetica,sans-Serif" font-size="10.00">cross&#45;state&#45;optimization.hh</text>
</g>
<!-- Node2 -->
<g id="node2" class="node"><title>Node2</title>
<g id="a_node2"><a doxygen="/local/devel/hpp/install/share/doc/hpp-core/doxygen-html/hpp-core.doxytag:../../hpp-core/doxygen-html/" xlink:href="../../hpp-core/doxygen-html/a00203.html" target="_top" xlink:title="hpp/core/steering&#45;method.hh">
<polygon fill="white" stroke="black" points="776,-353 776,-372 916,-372 916,-353 776,-353"/>
<text text-anchor="middle" x="846" y="-360" font-family="Helvetica,sans-Serif" font-size="10.00">hpp/core/steering&#45;method.hh</text>
</a>
</g>
</g>
<!-- Node1&#45;&gt;Node2 -->
<g id="edge1" class="edge"><title>Node1&#45;&gt;Node2</title>
<path fill="none" stroke="midnightblue" d="M518.247,-537.41C567.718,-522.653 668.124,-489.703 745,-445 777.577,-426.057 810.697,-397.079 829.746,-379.264"/>
<polygon fill="midnightblue" stroke="midnightblue" points="832.389,-381.581 837.231,-372.157 827.569,-376.504 832.389,-381.581"/>
</g>
<!-- Node3 -->
<g id="node3" class="node"><title>Node3</title>
<g id="a_node3"><a xlink:href="a00001.html" target="_top" xlink:title="hpp/core/fwd.hh">
<polygon fill="white" stroke="black" points="458,-112.5 458,-131.5 544,-131.5 544,-112.5 458,-112.5"/>
<text text-anchor="middle" x="501" y="-119.5" font-family="Helvetica,sans-Serif" font-size="10.00">hpp/core/fwd.hh</text>
</a>
</g>
</g>
<!-- Node1&#45;&gt;Node3 -->
<g id="edge33" class="edge"><title>Node1&#45;&gt;Node3</title>
<path fill="none" stroke="midnightblue" d="M420.914,-544.034C287.152,-538.284 0,-515.985 0,-430.5 0,-430.5 0,-430.5 0,-238.5 0,-190.1 38.5286,-187.101 83,-168 147.383,-140.346 350.324,-128.86 447.765,-124.846"/>
<polygon fill="midnightblue" stroke="midnightblue" points="448.133,-128.334 457.984,-124.437 447.852,-121.34 448.133,-128.334"/>
</g>
<!-- Node11 -->
<g id="node11" class="node"><title>Node11</title>
<g id="a_node11"><a xlink:href="a00066.html" target="_top" xlink:title="hpp/core/fwd.hh">
<polygon fill="white" stroke="black" points="1108,-112.5 1108,-131.5 1194,-131.5 1194,-112.5 1108,-112.5"/>
<text text-anchor="middle" x="1151" y="-119.5" font-family="Helvetica,sans-Serif" font-size="10.00">hpp/core/fwd.hh</text>
</a>
</g>
</g>
<!-- Node1&#45;&gt;Node11 -->
<g id="edge56" class="edge"><title>Node1&#45;&gt;Node11</title>
<path fill="none" stroke="midnightblue" d="M555.171,-544.752C769.329,-539.893 1422,-517.913 1422,-430.5 1422,-430.5 1422,-430.5 1422,-361.5 1422,-237.592 1260.38,-162.823 1186.76,-135.195"/>
<polygon fill="midnightblue" stroke="midnightblue" points="1187.58,-131.767 1176.98,-131.609 1185.17,-138.339 1187.58,-131.767"/>
</g>
<!-- Node17 -->
<g id="node17" class="node"><title>Node17</title>
<polygon fill="white" stroke="#bfbfbf" points="320.5,-353 320.5,-372 453.5,-372 453.5,-353 320.5,-353"/>
<text text-anchor="middle" x="387" y="-360" font-family="Helvetica,sans-Serif" font-size="10.00">hpp/manipulation/config.hh</text>
</g>
<!-- Node1&#45;&gt;Node17 -->
<g id="edge32" class="edge"><title>Node1&#45;&gt;Node17</title>
<path fill="none" stroke="midnightblue" d="M483.129,-537.198C467.43,-508.831 417.959,-419.44 396.779,-381.169"/>
<polygon fill="midnightblue" stroke="midnightblue" points="399.727,-379.269 391.823,-372.214 393.602,-382.658 399.727,-379.269"/>
</g>
<!-- Node18 -->
<g id="node18" class="node"><title>Node18</title>
<g id="a_node18"><a xlink:href="a00003.html" target="_top" xlink:title="hpp/manipulation/problem.hh">
<polygon fill="white" stroke="black" points="214.5,-481.5 214.5,-500.5 355.5,-500.5 355.5,-481.5 214.5,-481.5"/>
<text text-anchor="middle" x="285" y="-488.5" font-family="Helvetica,sans-Serif" font-size="10.00">hpp/manipulation/problem.hh</text>
</a>
</g>
</g>
<!-- Node1&#45;&gt;Node18 -->
<g id="edge34" class="edge"><title>Node1&#45;&gt;Node18</title>
<path fill="none" stroke="midnightblue" d="M455.834,-537.444C420.941,-528.162 365.107,-513.309 326.829,-503.127"/>
<polygon fill="midnightblue" stroke="midnightblue" points="327.579,-499.705 317.015,-500.516 325.78,-506.47 327.579,-499.705"/>
</g>
<!-- Node25 -->
<g id="node25" class="node"><title>Node25</title>
<g id="a_node25"><a xlink:href="a00072.html" target="_top" xlink:title="hpp/manipulation/steering\l&#45;method/graph.hh">
<polygon fill="white" stroke="black" points="608,-414.5 608,-444.5 736,-444.5 736,-414.5 608,-414.5"/>
<text text-anchor="start" x="616" y="-432.5" font-family="Helvetica,sans-Serif" font-size="10.00">hpp/manipulation/steering</text>
<text text-anchor="middle" x="672" y="-421.5" font-family="Helvetica,sans-Serif" font-size="10.00">&#45;method/graph.hh</text>
</a>
</g>
</g>
<!-- Node1&#45;&gt;Node25 -->
<g id="edge57" class="edge"><title>Node1&#45;&gt;Node25</title>
<path fill="none" stroke="midnightblue" d="M501.83,-537.319C531.201,-518.882 600.421,-475.431 640.951,-449.99"/>
<polygon fill="midnightblue" stroke="midnightblue" points="643.016,-452.826 649.625,-444.545 639.294,-446.897 643.016,-452.826"/>
</g>
<!-- Node2&#45;&gt;Node3 -->
<g id="edge2" class="edge"><title>Node2&#45;&gt;Node3</title>
<path fill="none" stroke="midnightblue" d="M833.41,-352.951C818.669,-342.932 793.527,-325.812 772,-311 678.438,-246.623 567.186,-169.154 521.814,-137.52"/>
<polygon fill="midnightblue" stroke="midnightblue" points="523.607,-134.503 513.402,-131.654 519.602,-140.245 523.607,-134.503"/>
</g>
<!-- Node5 -->
<g id="node5" class="node"><title>Node5</title>
<g id="a_node5"><a doxygen="/local/devel/hpp/install/share/doc/hpp-core/doxygen-html/hpp-core.doxytag:../../hpp-core/doxygen-html/" xlink:href="../../hpp-core/doxygen-html/a00001.html" target="_top" xlink:title="hpp/core/fwd.hh">
<polygon fill="white" stroke="black" points="987,-56.5 987,-75.5 1073,-75.5 1073,-56.5 987,-56.5"/>
<text text-anchor="middle" x="1030" y="-63.5" font-family="Helvetica,sans-Serif" font-size="10.00">hpp/core/fwd.hh</text>
</a>
</g>
</g>
<!-- Node2&#45;&gt;Node5 -->
<g id="edge13" class="edge"><title>Node2&#45;&gt;Node5</title>
<path fill="none" stroke="midnightblue" d="M916.092,-354.562C970.313,-347.668 1046.59,-334.601 1110,-311 1184.24,-283.369 1221.5,-265.261 1239,-188 1246.59,-154.503 1249.51,-136.065 1225,-112 1205.17,-92.528 1133.97,-79.8193 1083.35,-73.0251"/>
<polygon fill="midnightblue" stroke="midnightblue" points="1083.58,-69.5247 1073.21,-71.7049 1082.67,-76.4661 1083.58,-69.5247"/>
</g>
<!-- Node6 -->
<g id="node6" class="node"><title>Node6</title>
<g id="a_node6"><a xlink:href="a00065.html" target="_top" xlink:title="hpp/core/fwd.hh">
<polygon fill="white" stroke="black" points="695,-112.5 695,-131.5 781,-131.5 781,-112.5 695,-112.5"/>
<text text-anchor="middle" x="738" y="-119.5" font-family="Helvetica,sans-Serif" font-size="10.00">hpp/core/fwd.hh</text>
</a>
</g>
</g>
<!-- Node2&#45;&gt;Node6 -->
<g id="edge5" class="edge"><title>Node2&#45;&gt;Node6</title>
<path fill="none" stroke="midnightblue" d="M836.538,-352.696C805.286,-323.37 706.481,-228.567 691,-188 687.831,-179.695 687.509,-176.175 691,-168 696.147,-155.947 706.281,-145.576 715.826,-137.839"/>
<polygon fill="midnightblue" stroke="midnightblue" points="718.04,-140.553 723.922,-131.741 713.828,-134.962 718.04,-140.553"/>
</g>
<!-- Node2&#45;&gt;Node11 -->
<g id="edge10" class="edge"><title>Node2&#45;&gt;Node11</title>
<path fill="none" stroke="midnightblue" d="M916.274,-353.05C988.251,-341.388 1100.3,-314.581 1178,-255 1212.54,-228.509 1244.1,-206.076 1223,-168 1214.91,-153.405 1199.9,-142.918 1185.66,-135.761"/>
<polygon fill="midnightblue" stroke="midnightblue" points="1187.05,-132.546 1176.5,-131.528 1184.11,-138.9 1187.05,-132.546"/>
</g>
<!-- Node12 -->
<g id="node12" class="node"><title>Node12</title>
<g id="a_node12"><a doxygen="/local/devel/hpp/install/share/doc/hpp-core/doxygen-html/hpp-core.doxytag:../../hpp-core/doxygen-html/" xlink:href="../../hpp-core/doxygen-html/a00174.html" target="_top" xlink:title="hpp/core/path.hh">
<polygon fill="white" stroke="black" points="916.5,-291.5 916.5,-310.5 1005.5,-310.5 1005.5,-291.5 916.5,-291.5"/>
<text text-anchor="middle" x="961" y="-298.5" font-family="Helvetica,sans-Serif" font-size="10.00">hpp/core/path.hh</text>
</a>
</g>
</g>
<!-- Node2&#45;&gt;Node12 -->
<g id="edge14" class="edge"><title>Node2&#45;&gt;Node12</title>
<path fill="none" stroke="midnightblue" d="M862.477,-352.975C881.605,-343.078 913.373,-326.642 935.652,-315.115"/>
<polygon fill="midnightblue" stroke="midnightblue" points="937.281,-318.213 944.554,-310.509 934.064,-311.996 937.281,-318.213"/>
</g>
<!-- Node15 -->
<g id="node15" class="node"><title>Node15</title>
<g id="a_node15"><a doxygen="/local/devel/hpp/install/share/doc/hpp-core/doxygen-html/hpp-core.doxytag:../../hpp-core/doxygen-html/" xlink:href="../../hpp-core/doxygen-html/a00184.html" target="_top" xlink:title="hpp/core/projection\l&#45;error.hh">
<polygon fill="white" stroke="black" points="776.5,-224.5 776.5,-254.5 875.5,-254.5 875.5,-224.5 776.5,-224.5"/>
<text text-anchor="start" x="784.5" y="-242.5" font-family="Helvetica,sans-Serif" font-size="10.00">hpp/core/projection</text>
<text text-anchor="middle" x="826" y="-231.5" font-family="Helvetica,sans-Serif" font-size="10.00">&#45;error.hh</text>
</a>
</g>
</g>
<!-- Node2&#45;&gt;Node15 -->
<g id="edge31" class="edge"><title>Node2&#45;&gt;Node15</title>
<path fill="none" stroke="midnightblue" d="M844.562,-352.798C841.541,-334.524 834.447,-291.604 829.956,-264.433"/>
<polygon fill="midnightblue" stroke="midnightblue" points="833.405,-263.835 828.321,-254.539 826.498,-264.976 833.405,-263.835"/>
</g>
<!-- Node4 -->
<g id="node4" class="node"><title>Node4</title>
<polygon fill="white" stroke="#bfbfbf" points="493.5,-56.5 493.5,-75.5 528.5,-75.5 528.5,-56.5 493.5,-56.5"/>
<text text-anchor="middle" x="511" y="-63.5" font-family="Helvetica,sans-Serif" font-size="10.00">map</text>
</g>
<!-- Node3&#45;&gt;Node4 -->
<g id="edge3" class="edge"><title>Node3&#45;&gt;Node4</title>
<path fill="none" stroke="midnightblue" d="M502.651,-112.083C503.976,-104.927 505.882,-94.6353 507.539,-85.6911"/>
<polygon fill="midnightblue" stroke="midnightblue" points="511,-86.2212 509.379,-75.7511 504.117,-84.9466 511,-86.2212"/>
</g>
<!-- Node3&#45;&gt;Node5 -->
<g id="edge4" class="edge"><title>Node3&#45;&gt;Node5</title>
<path fill="none" stroke="midnightblue" d="M544.29,-116.581C640.529,-106.757 871.984,-83.1302 976.812,-72.4294"/>
<polygon fill="midnightblue" stroke="midnightblue" points="977.261,-75.9019 986.853,-71.4044 976.55,-68.9381 977.261,-75.9019"/>
</g>
<!-- Node7 -->
<g id="node7" class="node"><title>Node7</title>
<polygon fill="white" stroke="#bfbfbf" points="556,-56.5 556,-75.5 650,-75.5 650,-56.5 556,-56.5"/>
<text text-anchor="middle" x="603" y="-63.5" font-family="Helvetica,sans-Serif" font-size="10.00">hpp/util/pointer.hh</text>
</g>
<!-- Node6&#45;&gt;Node7 -->
<g id="edge6" class="edge"><title>Node6&#45;&gt;Node7</title>
<path fill="none" stroke="midnightblue" d="M716.609,-112.444C694.293,-103.517 659.097,-89.4387 633.792,-79.3168"/>
<polygon fill="midnightblue" stroke="midnightblue" points="634.876,-75.9807 624.291,-75.5164 632.276,-82.4801 634.876,-75.9807"/>
</g>
<!-- Node8 -->
<g id="node8" class="node"><title>Node8</title>
<g id="a_node8"><a doxygen="/local/devel/hpp/install/share/doc/hpp-statistics/doxygen-html/hpp-statistics.doxytag:../../hpp-statistics/doxygen-html/" xlink:href="../../hpp-statistics/doxygen-html/a00009.html" target="_top" xlink:title="hpp/statistics/distribution.hh">
<polygon fill="white" stroke="black" points="668.5,-56.5 668.5,-75.5 807.5,-75.5 807.5,-56.5 668.5,-56.5"/>
<text text-anchor="middle" x="738" y="-63.5" font-family="Helvetica,sans-Serif" font-size="10.00">hpp/statistics/distribution.hh</text>
</a>
</g>
</g>
<!-- Node6&#45;&gt;Node8 -->
<g id="edge7" class="edge"><title>Node6&#45;&gt;Node8</title>
<path fill="none" stroke="midnightblue" d="M738,-112.083C738,-105.006 738,-94.8611 738,-85.9865"/>
<polygon fill="midnightblue" stroke="midnightblue" points="741.5,-85.751 738,-75.7511 734.5,-85.7511 741.5,-85.751"/>
</g>
<!-- Node10 -->
<g id="node10" class="node"><title>Node10</title>
<polygon fill="white" stroke="#bfbfbf" points="826,-56.5 826,-75.5 870,-75.5 870,-56.5 826,-56.5"/>
<text text-anchor="middle" x="848" y="-63.5" font-family="Helvetica,sans-Serif" font-size="10.00">vector</text>
</g>
<!-- Node6&#45;&gt;Node10 -->
<g id="edge9" class="edge"><title>Node6&#45;&gt;Node10</title>
<path fill="none" stroke="midnightblue" d="M755.673,-112.324C773.394,-103.625 800.903,-90.1202 821.288,-80.113"/>
<polygon fill="midnightblue" stroke="midnightblue" points="822.936,-83.2031 830.37,-75.6545 819.851,-76.9195 822.936,-83.2031"/>
</g>
<!-- Node9 -->
<g id="node9" class="node"><title>Node9</title>
<g id="a_node9"><a doxygen="/local/devel/hpp/install/share/doc/hpp-statistics/doxygen-html/hpp-statistics.doxytag:../../hpp-statistics/doxygen-html/" xlink:href="../../hpp-statistics/doxygen-html/a00010.html" target="_top" xlink:title="hpp/statistics/fwd.hh">
<polygon fill="white" stroke="black" points="684.5,-0.5 684.5,-19.5 791.5,-19.5 791.5,-0.5 684.5,-0.5"/>
<text text-anchor="middle" x="738" y="-7.5" font-family="Helvetica,sans-Serif" font-size="10.00">hpp/statistics/fwd.hh</text>
</a>
</g>
</g>
<!-- Node8&#45;&gt;Node9 -->
<g id="edge8" class="edge"><title>Node8&#45;&gt;Node9</title>
<path fill="none" stroke="midnightblue" d="M738,-56.083C738,-49.0059 738,-38.8611 738,-29.9865"/>
<polygon fill="midnightblue" stroke="midnightblue" points="741.5,-29.751 738,-19.7511 734.5,-29.7511 741.5,-29.751"/>
</g>
<!-- Node11&#45;&gt;Node4 -->
<g id="edge11" class="edge"><title>Node11&#45;&gt;Node4</title>
<path fill="none" stroke="midnightblue" d="M1107.87,-120.307C1008.38,-118.159 755.407,-109.563 547,-76 544.291,-75.5637 541.487,-75.0235 538.694,-74.4259"/>
<polygon fill="midnightblue" stroke="midnightblue" points="539.357,-70.9864 528.821,-72.0941 537.748,-77.7989 539.357,-70.9864"/>
</g>
<!-- Node11&#45;&gt;Node5 -->
<g id="edge12" class="edge"><title>Node11&#45;&gt;Node5</title>
<path fill="none" stroke="midnightblue" d="M1131.83,-112.444C1112.09,-103.636 1081.11,-89.8116 1058.51,-79.722"/>
<polygon fill="midnightblue" stroke="midnightblue" points="1059.64,-76.3957 1049.08,-75.5164 1056.79,-82.788 1059.64,-76.3957"/>
</g>
<!-- Node12&#45;&gt;Node3 -->
<g id="edge15" class="edge"><title>Node12&#45;&gt;Node3</title>
<path fill="none" stroke="midnightblue" d="M952.753,-291.305C934.638,-272.29 892.323,-228.35 884,-224 806.669,-183.58 775.391,-210.18 691,-188 634.137,-173.055 569.738,-149.592 532.409,-135.32"/>
<polygon fill="midnightblue" stroke="midnightblue" points="533.216,-131.88 522.627,-131.553 530.701,-138.413 533.216,-131.88"/>
</g>
<!-- Node12&#45;&gt;Node5 -->
<g id="edge18" class="edge"><title>Node12&#45;&gt;Node5</title>
<path fill="none" stroke="midnightblue" d="M1005.5,-300.352C1052.21,-298.667 1125.95,-289.992 1178,-255 1207.77,-234.986 1212.55,-222.314 1223,-188 1233.18,-154.588 1228.77,-135.58 1203,-112 1170.67,-82.4114 1121.36,-71.7736 1083.65,-68.1826"/>
<polygon fill="midnightblue" stroke="midnightblue" points="1083.59,-64.6666 1073.34,-67.3467 1083.02,-71.6437 1083.59,-64.6666"/>
</g>
<!-- Node12&#45;&gt;Node6 -->
<g id="edge16" class="edge"><title>Node12&#45;&gt;Node6</title>
<path fill="none" stroke="midnightblue" d="M957.738,-291.065C951.801,-275.788 937.973,-244.331 918,-224 905.901,-211.684 810.005,-160.671 763.338,-136.204"/>
<polygon fill="midnightblue" stroke="midnightblue" points="764.92,-133.082 754.437,-131.547 761.675,-139.284 764.92,-133.082"/>
</g>
<!-- Node12&#45;&gt;Node11 -->
<g id="edge17" class="edge"><title>Node12&#45;&gt;Node11</title>
<path fill="none" stroke="midnightblue" d="M1005.56,-295.775C1043.82,-290.601 1099.39,-279.302 1142,-255 1178.31,-234.293 1192.15,-226.677 1208,-188 1211.37,-179.775 1211.88,-175.999 1208,-168 1201.6,-154.8 1189.25,-144.303 1177.67,-136.779"/>
<polygon fill="midnightblue" stroke="midnightblue" points="1179.45,-133.768 1169.08,-131.61 1175.84,-139.765 1179.45,-133.768"/>
</g>
<!-- Node13 -->
<g id="node13" class="node"><title>Node13</title>
<g id="a_node13"><a doxygen="/local/devel/hpp/install/share/doc/hpp-core/doxygen-html/hpp-core.doxytag:../../hpp-core/doxygen-html/" xlink:href="../../hpp-core/doxygen-html/a00123.html" target="_top" xlink:title="hpp/core/constraint\l&#45;set.hh">
<polygon fill="white" stroke="black" points="1033,-224.5 1033,-254.5 1133,-254.5 1133,-224.5 1033,-224.5"/>
<text text-anchor="start" x="1041" y="-242.5" font-family="Helvetica,sans-Serif" font-size="10.00">hpp/core/constraint</text>
<text text-anchor="middle" x="1083" y="-231.5" font-family="Helvetica,sans-Serif" font-size="10.00">&#45;set.hh</text>
</a>
</g>
</g>
<!-- Node12&#45;&gt;Node13 -->
<g id="edge19" class="edge"><title>Node12&#45;&gt;Node13</title>
<path fill="none" stroke="midnightblue" d="M978.48,-291.475C995.775,-283.04 1022.81,-269.855 1045.05,-259.008"/>
<polygon fill="midnightblue" stroke="midnightblue" points="1046.79,-262.052 1054.25,-254.523 1043.72,-255.761 1046.79,-262.052"/>
</g>
<!-- Node12&#45;&gt;Node15 -->
<g id="edge25" class="edge"><title>Node12&#45;&gt;Node15</title>
<path fill="none" stroke="midnightblue" d="M941.658,-291.475C922.263,-282.927 891.801,-269.501 867.007,-258.573"/>
<polygon fill="midnightblue" stroke="midnightblue" points="868.379,-255.353 857.817,-254.523 865.556,-261.759 868.379,-255.353"/>
</g>
<!-- Node16 -->
<g id="node16" class="node"><title>Node16</title>
<g id="a_node16"><a doxygen="/local/devel/hpp/install/share/doc/hpp-core/doxygen-html/hpp-core.doxytag:../../hpp-core/doxygen-html/" xlink:href="../../hpp-core/doxygen-html/a00208.html" target="_top" xlink:title="hpp/core/time&#45;parameterization.hh">
<polygon fill="white" stroke="black" points="870,-168.5 870,-187.5 1034,-187.5 1034,-168.5 870,-168.5"/>
<text text-anchor="middle" x="952" y="-175.5" font-family="Helvetica,sans-Serif" font-size="10.00">hpp/core/time&#45;parameterization.hh</text>
</a>
</g>
</g>
<!-- Node12&#45;&gt;Node16 -->
<g id="edge26" class="edge"><title>Node12&#45;&gt;Node16</title>
<path fill="none" stroke="midnightblue" d="M960.481,-291.103C959.638,-276.907 957.876,-248.258 956,-224 955.334,-215.389 954.501,-205.861 953.768,-197.797"/>
<polygon fill="midnightblue" stroke="midnightblue" points="957.233,-197.257 952.826,-187.622 950.263,-197.902 957.233,-197.257"/>
</g>
<!-- Node14 -->
<g id="node14" class="node"><title>Node14</title>
<g id="a_node14"><a doxygen="/local/devel/hpp/install/share/doc/hpp-core/doxygen-html/hpp-core.doxytag:../../hpp-core/doxygen-html/" xlink:href="../../hpp-core/doxygen-html/a00124.html" target="_top" xlink:title="hpp/core/constraint.hh">
<polygon fill="white" stroke="black" points="1052.5,-168.5 1052.5,-187.5 1165.5,-187.5 1165.5,-168.5 1052.5,-168.5"/>
<text text-anchor="middle" x="1109" y="-175.5" font-family="Helvetica,sans-Serif" font-size="10.00">hpp/core/constraint.hh</text>
</a>
</g>
</g>
<!-- Node13&#45;&gt;Node14 -->
<g id="edge20" class="edge"><title>Node13&#45;&gt;Node14</title>
<path fill="none" stroke="midnightblue" d="M1089.16,-224.399C1092.74,-216.199 1097.3,-205.781 1101.14,-196.994"/>
<polygon fill="midnightblue" stroke="midnightblue" points="1104.42,-198.223 1105.22,-187.658 1098.01,-195.42 1104.42,-198.223"/>
</g>
<!-- Node14&#45;&gt;Node3 -->
<g id="edge21" class="edge"><title>Node14&#45;&gt;Node3</title>
<path fill="none" stroke="midnightblue" d="M1052.5,-169.096C1049.29,-168.709 1046.1,-168.34 1043,-168 864.372,-148.419 651.787,-133.082 554.456,-126.5"/>
<polygon fill="midnightblue" stroke="midnightblue" points="554.495,-122.995 544.283,-125.816 554.025,-129.979 554.495,-122.995"/>
</g>
<!-- Node14&#45;&gt;Node5 -->
<g id="edge24" class="edge"><title>Node14&#45;&gt;Node5</title>
<path fill="none" stroke="midnightblue" d="M1102.8,-168.368C1089.76,-150.215 1059.3,-107.802 1042.2,-83.9902"/>
<polygon fill="midnightblue" stroke="midnightblue" points="1044.85,-81.6721 1036.17,-75.5914 1039.16,-85.7555 1044.85,-81.6721"/>
</g>
<!-- Node14&#45;&gt;Node6 -->
<g id="edge22" class="edge"><title>Node14&#45;&gt;Node6</title>
<path fill="none" stroke="midnightblue" d="M1052.25,-168.74C981.295,-158.412 860.749,-140.866 791.399,-130.772"/>
<polygon fill="midnightblue" stroke="midnightblue" points="791.538,-127.256 781.138,-129.279 790.529,-134.183 791.538,-127.256"/>
</g>
<!-- Node14&#45;&gt;Node11 -->
<g id="edge23" class="edge"><title>Node14&#45;&gt;Node11</title>
<path fill="none" stroke="midnightblue" d="M1115.94,-168.083C1121.93,-160.377 1130.75,-149.033 1138.05,-139.653"/>
<polygon fill="midnightblue" stroke="midnightblue" points="1140.82,-141.793 1144.19,-131.751 1135.29,-137.496 1140.82,-141.793"/>
</g>
<!-- Node16&#45;&gt;Node3 -->
<g id="edge27" class="edge"><title>Node16&#45;&gt;Node3</title>
<path fill="none" stroke="midnightblue" d="M880.538,-168.444C789.787,-157.578 635.279,-139.078 554.225,-129.373"/>
<polygon fill="midnightblue" stroke="midnightblue" points="554.584,-125.891 544.239,-128.177 553.752,-132.841 554.584,-125.891"/>
</g>
<!-- Node16&#45;&gt;Node5 -->
<g id="edge30" class="edge"><title>Node16&#45;&gt;Node5</title>
<path fill="none" stroke="midnightblue" d="M958.121,-168.368C970.993,-150.215 1001.07,-107.802 1017.95,-83.9902"/>
<polygon fill="midnightblue" stroke="midnightblue" points="1020.98,-85.7733 1023.91,-75.5914 1015.27,-81.7243 1020.98,-85.7733"/>
</g>
<!-- Node16&#45;&gt;Node6 -->
<g id="edge28" class="edge"><title>Node16&#45;&gt;Node6</title>
<path fill="none" stroke="midnightblue" d="M918.091,-168.444C881.151,-159.122 821.946,-144.183 781.582,-133.997"/>
<polygon fill="midnightblue" stroke="midnightblue" points="782.303,-130.57 771.75,-131.516 780.59,-137.357 782.303,-130.57"/>
</g>
<!-- Node16&#45;&gt;Node11 -->
<g id="edge29" class="edge"><title>Node16&#45;&gt;Node11</title>
<path fill="none" stroke="midnightblue" d="M983.532,-168.444C1017.59,-159.201 1072.01,-144.436 1109.52,-134.257"/>
<polygon fill="midnightblue" stroke="midnightblue" points="1110.88,-137.513 1119.62,-131.516 1109.05,-130.758 1110.88,-137.513"/>
</g>
<!-- Node18&#45;&gt;Node3 -->
<g id="edge49" class="edge"><title>Node18&#45;&gt;Node3</title>
<path fill="none" stroke="midnightblue" d="M214.325,-483.666C157.62,-477.182 83.985,-465.146 62,-445 34.1603,-419.49 38,-401.26 38,-363.5 38,-363.5 38,-363.5 38,-238.5 38,-154.882 325.892,-131.319 447.647,-125.093"/>
<polygon fill="midnightblue" stroke="midnightblue" points="448.042,-128.577 457.858,-124.591 447.698,-121.586 448.042,-128.577"/>
</g>
<!-- Node18&#45;&gt;Node6 -->
<g id="edge55" class="edge"><title>Node18&#45;&gt;Node6</title>
<path fill="none" stroke="midnightblue" d="M229.874,-481.454C206.481,-475.117 180.794,-464.107 164,-445 117.909,-392.559 90.7493,-346.582 133,-291 200.829,-201.769 550.078,-147.488 684.854,-129.586"/>
<polygon fill="midnightblue" stroke="midnightblue" points="685.483,-133.034 694.942,-128.261 684.571,-126.093 685.483,-133.034"/>
</g>
<!-- Node19 -->
<g id="node19" class="node"><title>Node19</title>
<g id="a_node19"><a doxygen="/local/devel/hpp/install/share/doc/hpp-core/doxygen-html/hpp-core.doxytag:../../hpp-core/doxygen-html/" xlink:href="../../hpp-core/doxygen-html/a00181.html" target="_top" xlink:title="hpp/core/problem.hh">
<polygon fill="white" stroke="black" points="456.5,-420 456.5,-439 561.5,-439 561.5,-420 456.5,-420"/>
<text text-anchor="middle" x="509" y="-427" font-family="Helvetica,sans-Serif" font-size="10.00">hpp/core/problem.hh</text>
</a>
</g>
</g>
<!-- Node18&#45;&gt;Node19 -->
<g id="edge35" class="edge"><title>Node18&#45;&gt;Node19</title>
<path fill="none" stroke="midnightblue" d="M317.094,-481.475C356.599,-470.982 423.779,-453.137 467.261,-441.587"/>
<polygon fill="midnightblue" stroke="midnightblue" points="468.199,-444.959 476.966,-439.009 466.402,-438.194 468.199,-444.959"/>
</g>
<!-- Node22 -->
<g id="node22" class="node"><title>Node22</title>
<g id="a_node22"><a doxygen="/local/devel/hpp/install/share/doc/hpp-core/doxygen-html/hpp-core.doxytag:../../hpp-core/doxygen-html/" xlink:href="../../hpp-core/doxygen-html/a00179.html" target="_top" xlink:title="hpp/core/problem&#45;solver.hh">
<polygon fill="white" stroke="black" points="510,-353 510,-372 644,-372 644,-353 510,-353"/>
<text text-anchor="middle" x="577" y="-360" font-family="Helvetica,sans-Serif" font-size="10.00">hpp/core/problem&#45;solver.hh</text>
</a>
</g>
</g>
<!-- Node18&#45;&gt;Node22 -->
<g id="edge43" class="edge"><title>Node18&#45;&gt;Node22</title>
<path fill="none" stroke="midnightblue" d="M302.324,-481.397C331.771,-466.88 393.596,-436.868 447,-414 479.565,-400.055 517.369,-385.555 543.787,-375.689"/>
<polygon fill="midnightblue" stroke="midnightblue" points="545.166,-378.91 553.32,-372.145 542.727,-372.349 545.166,-378.91"/>
</g>
<!-- Node23 -->
<g id="node23" class="node"><title>Node23</title>
<g id="a_node23"><a xlink:href="a00059.html" target="_top" xlink:title="hpp/manipulation/device.hh">
<polygon fill="white" stroke="black" points="173.5,-420 173.5,-439 308.5,-439 308.5,-420 173.5,-420"/>
<text text-anchor="middle" x="241" y="-427" font-family="Helvetica,sans-Serif" font-size="10.00">hpp/manipulation/device.hh</text>
</a>
</g>
</g>
<!-- Node18&#45;&gt;Node23 -->
<g id="edge50" class="edge"><title>Node18&#45;&gt;Node23</title>
<path fill="none" stroke="midnightblue" d="M278.696,-481.475C272.096,-472.55 261.563,-458.307 253.307,-447.143"/>
<polygon fill="midnightblue" stroke="midnightblue" points="256.052,-444.968 247.292,-439.009 250.424,-449.131 256.052,-444.968"/>
</g>
<!-- Node19&#45;&gt;Node2 -->
<g id="edge36" class="edge"><title>Node19&#45;&gt;Node2</title>
<path fill="none" stroke="midnightblue" d="M553.403,-419.936C614.86,-408.082 725.737,-386.696 791.937,-373.928"/>
<polygon fill="midnightblue" stroke="midnightblue" points="792.61,-377.362 801.766,-372.032 791.284,-370.489 792.61,-377.362"/>
</g>
<!-- Node20 -->
<g id="node20" class="node"><title>Node20</title>
<g id="a_node20"><a doxygen="/local/devel/hpp/install/share/doc/hpp-core/doxygen-html/hpp-core.doxytag:../../hpp-core/doxygen-html/" xlink:href="../../hpp-core/doxygen-html/a00125.html" target="_top" xlink:title="hpp/core/container.hh">
<polygon fill="white" stroke="black" points="142,-291.5 142,-310.5 252,-310.5 252,-291.5 142,-291.5"/>
<text text-anchor="middle" x="197" y="-298.5" font-family="Helvetica,sans-Serif" font-size="10.00">hpp/core/container.hh</text>
</a>
</g>
</g>
<!-- Node19&#45;&gt;Node20 -->
<g id="edge37" class="edge"><title>Node19&#45;&gt;Node20</title>
<path fill="none" stroke="midnightblue" d="M506.719,-419.922C501.729,-402.957 488.143,-365.193 462,-347 453.798,-341.292 337.908,-323.073 262.126,-311.642"/>
<polygon fill="midnightblue" stroke="midnightblue" points="262.584,-308.172 252.175,-310.146 261.543,-315.094 262.584,-308.172"/>
</g>
<!-- Node21 -->
<g id="node21" class="node"><title>Node21</title>
<g id="a_node21"><a doxygen="/local/devel/hpp/install/share/doc/hpp-core/doxygen-html/hpp-core.doxytag:../../hpp-core/doxygen-html/" xlink:href="../../hpp-core/doxygen-html/a00165.html" target="_top" xlink:title="hpp/core/parameter.hh">
<polygon fill="white" stroke="black" points="700,-168.5 700,-187.5 814,-187.5 814,-168.5 700,-168.5"/>
<text text-anchor="middle" x="757" y="-175.5" font-family="Helvetica,sans-Serif" font-size="10.00">hpp/core/parameter.hh</text>
</a>
</g>
</g>
<!-- Node19&#45;&gt;Node21 -->
<g id="edge38" class="edge"><title>Node19&#45;&gt;Node21</title>
<path fill="none" stroke="midnightblue" d="M561.42,-419.974C591.074,-412.911 627.255,-400.274 653,-378 711.223,-327.625 741.51,-236.531 752.311,-197.532"/>
<polygon fill="midnightblue" stroke="midnightblue" points="755.766,-198.158 754.948,-187.595 749,-196.362 755.766,-198.158"/>
</g>
<!-- Node21&#45;&gt;Node3 -->
<g id="edge39" class="edge"><title>Node21&#45;&gt;Node3</title>
<path fill="none" stroke="midnightblue" d="M716.436,-168.444C671.684,-159.004 599.617,-143.802 551.305,-133.611"/>
<polygon fill="midnightblue" stroke="midnightblue" points="551.881,-130.156 541.374,-131.516 550.436,-137.005 551.881,-130.156"/>
</g>
<!-- Node21&#45;&gt;Node5 -->
<g id="edge42" class="edge"><title>Node21&#45;&gt;Node5</title>
<path fill="none" stroke="midnightblue" d="M778.422,-168.368C826.565,-148.97 943.46,-101.87 999.307,-79.3673"/>
<polygon fill="midnightblue" stroke="midnightblue" points="1000.71,-82.5752 1008.68,-75.5914 998.094,-76.0824 1000.71,-82.5752"/>
</g>
<!-- Node21&#45;&gt;Node6 -->
<g id="edge40" class="edge"><title>Node21&#45;&gt;Node6</title>
<path fill="none" stroke="midnightblue" d="M753.863,-168.083C751.317,-160.849 747.644,-150.409 744.473,-141.397"/>
<polygon fill="midnightblue" stroke="midnightblue" points="747.7,-140.023 741.079,-131.751 741.097,-142.346 747.7,-140.023"/>
</g>
<!-- Node21&#45;&gt;Node11 -->
<g id="edge41" class="edge"><title>Node21&#45;&gt;Node11</title>
<path fill="none" stroke="midnightblue" d="M814.291,-169.148C890.425,-158.713 1023.92,-140.418 1097.88,-130.28"/>
<polygon fill="midnightblue" stroke="midnightblue" points="1098.48,-133.731 1107.91,-128.905 1097.53,-126.796 1098.48,-133.731"/>
</g>
<!-- Node22&#45;&gt;Node3 -->
<g id="edge44" class="edge"><title>Node22&#45;&gt;Node3</title>
<path fill="none" stroke="midnightblue" d="M554.353,-352.99C520.069,-338.718 456.217,-306.368 430,-255 412.423,-220.56 411.362,-201.878 430,-168 437.887,-153.663 452.486,-143.253 466.403,-136.079"/>
<polygon fill="midnightblue" stroke="midnightblue" points="468.292,-139.058 475.839,-131.622 465.302,-132.728 468.292,-139.058"/>
</g>
<!-- Node22&#45;&gt;Node5 -->
<g id="edge47" class="edge"><title>Node22&#45;&gt;Node5</title>
<path fill="none" stroke="midnightblue" d="M542.134,-352.983C515.855,-345.27 480.02,-331.871 454,-311 430.341,-292.023 424.084,-283.938 415,-255 395.435,-192.671 393.807,-146.948 449,-112 460.088,-104.979 835.111,-79.7625 976.649,-70.4702"/>
<polygon fill="midnightblue" stroke="midnightblue" points="977.077,-73.9497 986.827,-69.803 976.619,-66.9647 977.077,-73.9497"/>
</g>
<!-- Node22&#45;&gt;Node6 -->
<g id="edge45" class="edge"><title>Node22&#45;&gt;Node6</title>
<path fill="none" stroke="midnightblue" d="M576.262,-352.924C574.201,-323.332 571.403,-224.246 620,-168 636.493,-148.911 661.998,-137.89 685.082,-131.542"/>
<polygon fill="midnightblue" stroke="midnightblue" points="685.951,-134.933 694.794,-129.098 684.242,-128.145 685.951,-134.933"/>
</g>
<!-- Node22&#45;&gt;Node11 -->
<g id="edge46" class="edge"><title>Node22&#45;&gt;Node11</title>
<path fill="none" stroke="midnightblue" d="M585.44,-352.673C610.357,-327.271 686.891,-253.9 767,-224 852.273,-192.173 1113.53,-255.129 1175,-188 1187.38,-174.481 1176.52,-154.027 1165.7,-139.684"/>
<polygon fill="midnightblue" stroke="midnightblue" points="1168.2,-137.21 1159.17,-131.659 1162.77,-141.626 1168.2,-137.21"/>
</g>
<!-- Node22&#45;&gt;Node20 -->
<g id="edge48" class="edge"><title>Node22&#45;&gt;Node20</title>
<path fill="none" stroke="midnightblue" d="M530.777,-352.997C519.416,-350.97 507.277,-348.858 496,-347 415.7,-333.773 323.002,-320.063 262.372,-311.306"/>
<polygon fill="midnightblue" stroke="midnightblue" points="262.577,-307.799 252.18,-309.837 261.579,-314.728 262.577,-307.799"/>
</g>
<!-- Node23&#45;&gt;Node3 -->
<g id="edge53" class="edge"><title>Node23&#45;&gt;Node3</title>
<path fill="none" stroke="midnightblue" d="M221.156,-419.938C185.438,-403.032 114,-361.751 114,-302 114,-302 114,-302 114,-238.5 114,-169.711 341.353,-138.518 447.541,-127.7"/>
<polygon fill="midnightblue" stroke="midnightblue" points="448.128,-131.159 457.733,-126.687 447.435,-124.194 448.128,-131.159"/>
</g>
<!-- Node23&#45;&gt;Node17 -->
<g id="edge54" class="edge"><title>Node23&#45;&gt;Node17</title>
<path fill="none" stroke="midnightblue" d="M260.388,-419.869C285.476,-408.699 329.393,-389.147 358.339,-376.26"/>
<polygon fill="midnightblue" stroke="midnightblue" points="359.82,-379.432 367.532,-372.167 356.973,-373.037 359.82,-379.432"/>
</g>
<!-- Node23&#45;&gt;Node20 -->
<g id="edge52" class="edge"><title>Node23&#45;&gt;Node20</title>
<path fill="none" stroke="midnightblue" d="M220.201,-419.988C203.511,-411.909 181.238,-398.011 171,-378 161.124,-358.697 172.836,-334.807 183.555,-319.021"/>
<polygon fill="midnightblue" stroke="midnightblue" points="186.516,-320.902 189.581,-310.76 180.86,-316.777 186.516,-320.902"/>
</g>
<!-- Node24 -->
<g id="node24" class="node"><title>Node24</title>
<polygon fill="white" stroke="#bfbfbf" points="180,-347.5 180,-377.5 302,-377.5 302,-347.5 180,-347.5"/>
<text text-anchor="start" x="188" y="-365.5" font-family="Helvetica,sans-Serif" font-size="10.00">hpp/pinocchio/humanoid</text>
<text text-anchor="middle" x="241" y="-354.5" font-family="Helvetica,sans-Serif" font-size="10.00">&#45;robot.hh</text>
</g>
<!-- Node23&#45;&gt;Node24 -->
<g id="edge51" class="edge"><title>Node23&#45;&gt;Node24</title>
<path fill="none" stroke="midnightblue" d="M241,-419.734C241,-411.541 241,-398.923 241,-387.714"/>
<polygon fill="midnightblue" stroke="midnightblue" points="244.5,-387.589 241,-377.589 237.5,-387.589 244.5,-387.589"/>
</g>
<!-- Node25&#45;&gt;Node2 -->
<g id="edge59" class="edge"><title>Node25&#45;&gt;Node2</title>
<path fill="none" stroke="midnightblue" d="M709.755,-414.396C740.826,-402.789 784.391,-386.515 813.826,-375.519"/>
<polygon fill="midnightblue" stroke="midnightblue" points="815.085,-378.785 823.227,-372.007 812.635,-372.228 815.085,-378.785"/>
</g>
<!-- Node25&#45;&gt;Node3 -->
<g id="edge61" class="edge"><title>Node25&#45;&gt;Node3</title>
<path fill="none" stroke="midnightblue" d="M670.32,-414.453C667.973,-397.806 662.846,-369.493 653,-347 615.82,-262.065 545.676,-175.01 515.454,-139.543"/>
<polygon fill="midnightblue" stroke="midnightblue" points="517.852,-136.964 508.675,-131.67 512.548,-141.532 517.852,-136.964"/>
</g>
<!-- Node25&#45;&gt;Node6 -->
<g id="edge62" class="edge"><title>Node25&#45;&gt;Node6</title>
<path fill="none" stroke="midnightblue" d="M677.103,-414.133C680.371,-404.143 684.307,-390.441 686,-378 698.582,-285.518 645.801,-252.704 685,-168 690.92,-155.207 702.468,-144.722 713.278,-137.1"/>
<polygon fill="midnightblue" stroke="midnightblue" points="715.214,-140.016 721.666,-131.613 711.382,-134.158 715.214,-140.016"/>
</g>
<!-- Node25&#45;&gt;Node11 -->
<g id="edge63" class="edge"><title>Node25&#45;&gt;Node11</title>
<path fill="none" stroke="midnightblue" d="M736.198,-427.268C849.39,-421.454 1084.34,-392.436 1210,-255 1237.6,-224.814 1261.42,-202.841 1240,-168 1230.45,-152.465 1213.69,-142.096 1197.27,-135.272"/>
<polygon fill="midnightblue" stroke="midnightblue" points="1198.29,-131.916 1187.7,-131.651 1195.82,-138.463 1198.29,-131.916"/>
</g>
<!-- Node25&#45;&gt;Node17 -->
<g id="edge60" class="edge"><title>Node25&#45;&gt;Node17</title>
<path fill="none" stroke="midnightblue" d="M610.51,-414.476C557.652,-402.421 482.524,-385.286 434.267,-374.28"/>
<polygon fill="midnightblue" stroke="midnightblue" points="434.923,-370.84 424.395,-372.029 433.366,-377.665 434.923,-370.84"/>
</g>
<!-- Node25&#45;&gt;Node22 -->
<g id="edge58" class="edge"><title>Node25&#45;&gt;Node22</title>
<path fill="none" stroke="midnightblue" d="M651.386,-414.396C635.603,-403.597 613.913,-388.756 598.027,-377.887"/>
<polygon fill="midnightblue" stroke="midnightblue" points="599.663,-374.765 589.433,-372.007 595.71,-380.542 599.663,-374.765"/>
</g>
</g>
</svg>
