<?xml version="1.0" encoding="UTF-8" standalone="no"?>
<!DOCTYPE svg PUBLIC "-//W3C//DTD SVG 1.1//EN"
 "http://www.w3.org/Graphics/SVG/1.1/DTD/svg11.dtd">
<!-- Generated by graphviz version 2.38.0 (20140413.2041)
 -->
<!-- Title: hpp::manipulation::Device Pages: 1 -->
<svg width="843pt" height="176pt"
 viewBox="0.00 0.00 843.00 175.50" xmlns="http://www.w3.org/2000/svg" xmlns:xlink="http://www.w3.org/1999/xlink">
<g id="graph0" class="graph" transform="scale(1 1) rotate(0) translate(4 171.5)">
<title>hpp::manipulation::Device</title>
<polygon fill="white" stroke="none" points="-4,4 -4,-171.5 839,-171.5 839,4 -4,4"/>
<!-- Node1 -->
<g id="node1" class="node"><title>Node1</title>
<polygon fill="#bfbfbf" stroke="black" points="736,-72.5 736,-102.5 835,-102.5 835,-72.5 736,-72.5"/>
<text text-anchor="start" x="744" y="-90.5" font-family="Helvetica,sans-Serif" font-size="10.00">hpp::manipulation::</text>
<text text-anchor="middle" x="785.5" y="-79.5" font-family="Helvetica,sans-Serif" font-size="10.00">Device</text>
</g>
<!-- Node2 -->
<g id="node2" class="node"><title>Node2</title>
<polygon fill="white" stroke="#bfbfbf" points="494,-148 494,-167 628,-167 628,-148 494,-148"/>
<text text-anchor="middle" x="561" y="-155" font-family="Helvetica,sans-Serif" font-size="10.00">pinocchio::HumanoidRobot</text>
</g>
<!-- Node2&#45;&gt;Node1 -->
<g id="edge1" class="edge"><title>Node2&#45;&gt;Node1</title>
<path fill="none" stroke="midnightblue" d="M622.734,-145.808C651.959,-139.4 687.245,-130.508 718,-119.5 731.028,-114.837 744.899,-108.413 756.583,-102.544"/>
<polygon fill="midnightblue" stroke="midnightblue" points="621.709,-142.448 612.667,-147.97 623.179,-149.292 621.709,-142.448"/>
</g>
<!-- Node3 -->
<g id="node3" class="node"><title>Node3</title>
<g id="a_node3"><a doxygen="/local/devel/hpp/install/share/doc/hpp-core/doxygen-html/hpp-core.doxytag:../../hpp-core/doxygen-html/" xlink:href="../../hpp-core/doxygen-html/a00024.html" target="_top" xlink:title="hpp::core::Container\l\&lt; JointAndShapes_t \&gt;">
<polygon fill="white" stroke="black" points="504,-98.5 504,-128.5 618,-128.5 618,-98.5 504,-98.5"/>
<text text-anchor="start" x="512" y="-116.5" font-family="Helvetica,sans-Serif" font-size="10.00">hpp::core::Container</text>
<text text-anchor="middle" x="561" y="-105.5" font-family="Helvetica,sans-Serif" font-size="10.00">&lt; JointAndShapes_t &gt;</text>
</a>
</g>
</g>
<!-- Node3&#45;&gt;Node1 -->
<g id="edge2" class="edge"><title>Node3&#45;&gt;Node1</title>
<path fill="none" stroke="#9a32cd" stroke-dasharray="5,2" d="M628.169,-105.768C662.758,-101.726 704.346,-96.8663 735.929,-93.1757"/>
<polygon fill="#9a32cd" stroke="#9a32cd" points="627.672,-102.302 618.146,-106.939 628.485,-109.255 627.672,-102.302"/>
<text text-anchor="middle" x="682" y="-107.5" font-family="Helvetica,sans-Serif" font-size="10.00"> jointAndShapes</text>
</g>
<!-- Node4 -->
<g id="node4" class="node"><title>Node4</title>
<polygon fill="white" stroke="#bfbfbf" points="260,-104 260,-123 436,-123 436,-104 260,-104"/>
<text text-anchor="middle" x="348" y="-111" font-family="Helvetica,sans-Serif" font-size="10.00">std::map&lt; Key, JointAndShapes_t &gt;</text>
</g>
<!-- Node4&#45;&gt;Node3 -->
<g id="edge3" class="edge"><title>Node4&#45;&gt;Node3</title>
<path fill="none" stroke="#9a32cd" stroke-dasharray="5,2" d="M446.044,-113.5C465.877,-113.5 486.112,-113.5 503.919,-113.5"/>
<polygon fill="#9a32cd" stroke="#9a32cd" points="446.04,-110 436.04,-113.5 446.04,-117 446.04,-110"/>
<text text-anchor="middle" x="465" y="-116.5" font-family="Helvetica,sans-Serif" font-size="10.00"> map</text>
</g>
<!-- Node5 -->
<g id="node5" class="node"><title>Node5</title>
<g id="a_node5"><a xlink:title="STL class. ">
<polygon fill="white" stroke="#bfbfbf" points="108,-104 108,-123 181,-123 181,-104 108,-104"/>
<text text-anchor="middle" x="144.5" y="-111" font-family="Helvetica,sans-Serif" font-size="10.00">std::list&lt; T &gt;</text>
</a>
</g>
</g>
<!-- Node5&#45;&gt;Node4 -->
<g id="edge4" class="edge"><title>Node5&#45;&gt;Node4</title>
<path fill="none" stroke="#9a32cd" stroke-dasharray="5,2" d="M191.27,-113.5C211.597,-113.5 236.228,-113.5 259.844,-113.5"/>
<polygon fill="#9a32cd" stroke="#9a32cd" points="191.06,-110 181.06,-113.5 191.06,-117 191.06,-110"/>
<text text-anchor="middle" x="220.5" y="-116.5" font-family="Helvetica,sans-Serif" font-size="10.00"> elements</text>
</g>
<!-- Node6 -->
<g id="node6" class="node"><title>Node6</title>
<polygon fill="white" stroke="#bfbfbf" points="0,-104 0,-123 29,-123 29,-104 0,-104"/>
<text text-anchor="middle" x="14.5" y="-111" font-family="Helvetica,sans-Serif" font-size="10.00">T</text>
</g>
<!-- Node6&#45;&gt;Node5 -->
<g id="edge5" class="edge"><title>Node6&#45;&gt;Node5</title>
<path fill="none" stroke="#9a32cd" stroke-dasharray="5,2" d="M39.241,-113.5C58.529,-113.5 86.0307,-113.5 107.946,-113.5"/>
<polygon fill="#9a32cd" stroke="#9a32cd" points="39.1983,-110 29.1982,-113.5 39.1982,-117 39.1983,-110"/>
<text text-anchor="middle" x="68.5" y="-116.5" font-family="Helvetica,sans-Serif" font-size="10.00"> elements</text>
</g>
<!-- Node7 -->
<g id="node7" class="node"><title>Node7</title>
<g id="a_node7"><a doxygen="/local/devel/hpp/install/share/doc/hpp-core/doxygen-html/hpp-core.doxytag:../../hpp-core/doxygen-html/" xlink:href="../../hpp-core/doxygen-html/a00024.html" target="_top" xlink:title="hpp::core::Container\l\&lt; HandlePtr_t \&gt;">
<polygon fill="white" stroke="black" points="508.5,-49.5 508.5,-79.5 613.5,-79.5 613.5,-49.5 508.5,-49.5"/>
<text text-anchor="start" x="516.5" y="-67.5" font-family="Helvetica,sans-Serif" font-size="10.00">hpp::core::Container</text>
<text text-anchor="middle" x="561" y="-56.5" font-family="Helvetica,sans-Serif" font-size="10.00">&lt; HandlePtr_t &gt;</text>
</a>
</g>
</g>
<!-- Node7&#45;&gt;Node1 -->
<g id="edge6" class="edge"><title>Node7&#45;&gt;Node1</title>
<path fill="none" stroke="#9a32cd" stroke-dasharray="5,2" d="M624.115,-65.948C652.789,-67.1631 687.225,-69.3964 718,-73.5 723.847,-74.2797 729.947,-75.2889 735.978,-76.4082"/>
<polygon fill="#9a32cd" stroke="#9a32cd" points="623.959,-62.4393 613.829,-65.5449 623.685,-69.434 623.959,-62.4393"/>
<text text-anchor="middle" x="682" y="-76.5" font-family="Helvetica,sans-Serif" font-size="10.00"> handles</text>
</g>
<!-- Node8 -->
<g id="node8" class="node"><title>Node8</title>
<polygon fill="white" stroke="#bfbfbf" points="274,-55 274,-74 422,-74 422,-55 274,-55"/>
<text text-anchor="middle" x="348" y="-62" font-family="Helvetica,sans-Serif" font-size="10.00">std::map&lt; Key, HandlePtr_t &gt;</text>
</g>
<!-- Node8&#45;&gt;Node7 -->
<g id="edge7" class="edge"><title>Node8&#45;&gt;Node7</title>
<path fill="none" stroke="#9a32cd" stroke-dasharray="5,2" d="M432.291,-64.5C457.898,-64.5 485.334,-64.5 508.187,-64.5"/>
<polygon fill="#9a32cd" stroke="#9a32cd" points="432.205,-61.0001 422.205,-64.5 432.205,-68.0001 432.205,-61.0001"/>
<text text-anchor="middle" x="465" y="-67.5" font-family="Helvetica,sans-Serif" font-size="10.00"> map</text>
</g>
<!-- Node9 -->
<g id="node9" class="node"><title>Node9</title>
<g id="a_node9"><a doxygen="/local/devel/hpp/install/share/doc/hpp-core/doxygen-html/hpp-core.doxytag:../../hpp-core/doxygen-html/" xlink:href="../../hpp-core/doxygen-html/a00024.html" target="_top" xlink:title="hpp::core::Container\l\&lt; GripperPtr_t \&gt;">
<polygon fill="white" stroke="black" points="508.5,-0.5 508.5,-30.5 613.5,-30.5 613.5,-0.5 508.5,-0.5"/>
<text text-anchor="start" x="516.5" y="-18.5" font-family="Helvetica,sans-Serif" font-size="10.00">hpp::core::Container</text>
<text text-anchor="middle" x="561" y="-7.5" font-family="Helvetica,sans-Serif" font-size="10.00">&lt; GripperPtr_t &gt;</text>
</a>
</g>
</g>
<!-- Node9&#45;&gt;Node1 -->
<g id="edge8" class="edge"><title>Node9&#45;&gt;Node1</title>
<path fill="none" stroke="#9a32cd" stroke-dasharray="5,2" d="M623.593,-26.3792C652.728,-32.463 687.691,-41.1374 718,-52.5 732.293,-57.8584 747.412,-65.6296 759.616,-72.4889"/>
<polygon fill="#9a32cd" stroke="#9a32cd" points="624.045,-22.8995 613.548,-24.3351 622.649,-29.7589 624.045,-22.8995"/>
<text text-anchor="middle" x="682" y="-55.5" font-family="Helvetica,sans-Serif" font-size="10.00"> grippers</text>
</g>
<!-- Node10 -->
<g id="node10" class="node"><title>Node10</title>
<polygon fill="white" stroke="#bfbfbf" points="273.5,-6 273.5,-25 422.5,-25 422.5,-6 273.5,-6"/>
<text text-anchor="middle" x="348" y="-13" font-family="Helvetica,sans-Serif" font-size="10.00">std::map&lt; Key, GripperPtr_t &gt;</text>
</g>
<!-- Node10&#45;&gt;Node9 -->
<g id="edge9" class="edge"><title>Node10&#45;&gt;Node9</title>
<path fill="none" stroke="#9a32cd" stroke-dasharray="5,2" d="M432.578,-15.5C458.157,-15.5 485.535,-15.5 508.332,-15.5"/>
<polygon fill="#9a32cd" stroke="#9a32cd" points="432.501,-12.0001 422.501,-15.5 432.501,-19.0001 432.501,-12.0001"/>
<text text-anchor="middle" x="465" y="-18.5" font-family="Helvetica,sans-Serif" font-size="10.00"> map</text>
</g>
</g>
</svg>
