<?xml version="1.0" encoding="UTF-8" standalone="no"?>
<!DOCTYPE svg PUBLIC "-//W3C//DTD SVG 1.1//EN"
 "http://www.w3.org/Graphics/SVG/1.1/DTD/svg11.dtd">
<!-- Generated by graphviz version 2.38.0 (20140413.2041)
 -->
<!-- Title: roadmap&#45;node.hh Pages: 1 -->
<svg width="648pt" height="386pt"
 viewBox="0.00 0.00 647.50 386.00" xmlns="http://www.w3.org/2000/svg" xmlns:xlink="http://www.w3.org/1999/xlink">
<g id="graph0" class="graph" transform="scale(1 1) rotate(0) translate(4 382)">
<title>roadmap&#45;node.hh</title>
<polygon fill="white" stroke="none" points="-4,4 -4,-382 643.5,-382 643.5,4 -4,4"/>
<!-- Node1 -->
<g id="node1" class="node"><title>Node1</title>
<polygon fill="#bfbfbf" stroke="black" points="266,-358.5 266,-377.5 358,-377.5 358,-358.5 266,-358.5"/>
<text text-anchor="middle" x="312" y="-365.5" font-family="Helvetica,sans-Serif" font-size="10.00">roadmap&#45;node.hh</text>
</g>
<!-- Node2 -->
<g id="node2" class="node"><title>Node2</title>
<g id="a_node2"><a doxygen="/local/devel/hpp/install/share/doc/hpp-core/doxygen-html/hpp-core.doxytag:../../hpp-core/doxygen-html/" xlink:href="../../hpp-core/doxygen-html/a00162.html" target="_top" xlink:title="hpp/core/node.hh">
<polygon fill="white" stroke="black" points="141,-168.5 141,-187.5 233,-187.5 233,-168.5 141,-168.5"/>
<text text-anchor="middle" x="187" y="-175.5" font-family="Helvetica,sans-Serif" font-size="10.00">hpp/core/node.hh</text>
</a>
</g>
</g>
<!-- Node1&#45;&gt;Node2 -->
<g id="edge1" class="edge"><title>Node1&#45;&gt;Node2</title>
<path fill="none" stroke="midnightblue" d="M272.707,-358.447C246.571,-351.493 212.338,-339.861 186,-322 153.161,-299.73 141.014,-292.12 127,-255 122.134,-242.11 120.838,-236.323 127,-224 133.728,-210.543 146.606,-200.067 158.712,-192.621"/>
<polygon fill="midnightblue" stroke="midnightblue" points="160.733,-195.498 167.704,-187.52 157.279,-189.41 160.733,-195.498"/>
</g>
<!-- Node3 -->
<g id="node3" class="node"><title>Node3</title>
<g id="a_node3"><a xlink:href="a00001.html" target="_top" xlink:title="hpp/core/fwd.hh">
<polygon fill="white" stroke="black" points="0,-112.5 0,-131.5 86,-131.5 86,-112.5 0,-112.5"/>
<text text-anchor="middle" x="43" y="-119.5" font-family="Helvetica,sans-Serif" font-size="10.00">hpp/core/fwd.hh</text>
</a>
</g>
</g>
<!-- Node1&#45;&gt;Node3 -->
<g id="edge14" class="edge"><title>Node1&#45;&gt;Node3</title>
<path fill="none" stroke="midnightblue" d="M265.982,-363.817C229.795,-359.298 179.7,-348.375 144,-322 82.0378,-276.223 55.3975,-181.503 46.5901,-141.486"/>
<polygon fill="midnightblue" stroke="midnightblue" points="49.9839,-140.615 44.5251,-131.535 43.1299,-142.038 49.9839,-140.615"/>
</g>
<!-- Node6 -->
<g id="node6" class="node"><title>Node6</title>
<g id="a_node6"><a xlink:href="a00065.html" target="_top" xlink:title="hpp/core/fwd.hh">
<polygon fill="white" stroke="black" points="291,-112.5 291,-131.5 377,-131.5 377,-112.5 291,-112.5"/>
<text text-anchor="middle" x="334" y="-119.5" font-family="Helvetica,sans-Serif" font-size="10.00">hpp/core/fwd.hh</text>
</a>
</g>
</g>
<!-- Node1&#45;&gt;Node6 -->
<g id="edge17" class="edge"><title>Node1&#45;&gt;Node6</title>
<path fill="none" stroke="midnightblue" d="M328.589,-358.333C357.111,-342.367 414.539,-305.283 437,-255 458.858,-206.066 395.804,-159.148 358.81,-136.725"/>
<polygon fill="midnightblue" stroke="midnightblue" points="360.428,-133.617 350.034,-131.566 356.88,-139.651 360.428,-133.617"/>
</g>
<!-- Node12 -->
<g id="node12" class="node"><title>Node12</title>
<polygon fill="white" stroke="#bfbfbf" points="484.5,-297 484.5,-316 639.5,-316 639.5,-297 484.5,-297"/>
<text text-anchor="middle" x="562" y="-304" font-family="Helvetica,sans-Serif" font-size="10.00">hpp/manipulation/deprecated.hh</text>
</g>
<!-- Node1&#45;&gt;Node12 -->
<g id="edge15" class="edge"><title>Node1&#45;&gt;Node12</title>
<path fill="none" stroke="midnightblue" d="M347.819,-358.475C392.188,-347.915 467.836,-329.911 516.332,-318.369"/>
<polygon fill="midnightblue" stroke="midnightblue" points="517.33,-321.729 526.248,-316.009 515.709,-314.92 517.33,-321.729"/>
</g>
<!-- Node13 -->
<g id="node13" class="node"><title>Node13</title>
<polygon fill="white" stroke="#bfbfbf" points="294.5,-230 294.5,-249 427.5,-249 427.5,-230 294.5,-230"/>
<text text-anchor="middle" x="361" y="-237" font-family="Helvetica,sans-Serif" font-size="10.00">hpp/manipulation/config.hh</text>
</g>
<!-- Node1&#45;&gt;Node13 -->
<g id="edge16" class="edge"><title>Node1&#45;&gt;Node13</title>
<path fill="none" stroke="midnightblue" d="M319.232,-358.251C326.06,-349.565 336.107,-335.615 342,-322 350.816,-301.634 355.876,-276.555 358.523,-259.639"/>
<polygon fill="midnightblue" stroke="midnightblue" points="362.038,-259.785 359.987,-249.39 355.108,-258.795 362.038,-259.785"/>
</g>
<!-- Node14 -->
<g id="node14" class="node"><title>Node14</title>
<g id="a_node14"><a xlink:href="a00006.html" target="_top" xlink:title="hpp/manipulation/connected\l&#45;component.hh">
<polygon fill="white" stroke="black" points="195,-291.5 195,-321.5 333,-321.5 333,-291.5 195,-291.5"/>
<text text-anchor="start" x="203" y="-309.5" font-family="Helvetica,sans-Serif" font-size="10.00">hpp/manipulation/connected</text>
<text text-anchor="middle" x="264" y="-298.5" font-family="Helvetica,sans-Serif" font-size="10.00">&#45;component.hh</text>
</a>
</g>
</g>
<!-- Node1&#45;&gt;Node14 -->
<g id="edge18" class="edge"><title>Node1&#45;&gt;Node14</title>
<path fill="none" stroke="midnightblue" d="M305.123,-358.475C299.047,-350.944 289.917,-339.626 281.801,-329.566"/>
<polygon fill="midnightblue" stroke="midnightblue" points="284.316,-327.108 275.313,-321.523 278.867,-331.504 284.316,-327.108"/>
</g>
<!-- Node2&#45;&gt;Node3 -->
<g id="edge2" class="edge"><title>Node2&#45;&gt;Node3</title>
<path fill="none" stroke="midnightblue" d="M164.183,-168.444C140.168,-159.438 102.171,-145.189 75.1308,-135.049"/>
<polygon fill="midnightblue" stroke="midnightblue" points="76.3027,-131.751 65.7105,-131.516 73.8448,-138.305 76.3027,-131.751"/>
</g>
<!-- Node5 -->
<g id="node5" class="node"><title>Node5</title>
<g id="a_node5"><a doxygen="/local/devel/hpp/install/share/doc/hpp-core/doxygen-html/hpp-core.doxytag:../../hpp-core/doxygen-html/" xlink:href="../../hpp-core/doxygen-html/a00001.html" target="_top" xlink:title="hpp/core/fwd.hh">
<polygon fill="white" stroke="black" points="112,-56.5 112,-75.5 198,-75.5 198,-56.5 112,-56.5"/>
<text text-anchor="middle" x="155" y="-63.5" font-family="Helvetica,sans-Serif" font-size="10.00">hpp/core/fwd.hh</text>
</a>
</g>
</g>
<!-- Node2&#45;&gt;Node5 -->
<g id="edge13" class="edge"><title>Node2&#45;&gt;Node5</title>
<path fill="none" stroke="midnightblue" d="M191.607,-168.273C197.697,-155.492 206.797,-131.128 199,-112 194.2,-100.225 184.671,-89.8564 175.705,-82.0486"/>
<polygon fill="midnightblue" stroke="midnightblue" points="177.755,-79.2048 167.781,-75.6314 173.35,-84.6448 177.755,-79.2048"/>
</g>
<!-- Node2&#45;&gt;Node6 -->
<g id="edge5" class="edge"><title>Node2&#45;&gt;Node6</title>
<path fill="none" stroke="midnightblue" d="M210.293,-168.444C234.807,-159.438 273.596,-145.189 301.2,-135.049"/>
<polygon fill="midnightblue" stroke="midnightblue" points="302.637,-138.25 310.816,-131.516 300.223,-131.679 302.637,-138.25"/>
</g>
<!-- Node11 -->
<g id="node11" class="node"><title>Node11</title>
<g id="a_node11"><a xlink:href="a00066.html" target="_top" xlink:title="hpp/core/fwd.hh">
<polygon fill="white" stroke="black" points="104,-112.5 104,-131.5 190,-131.5 190,-112.5 104,-112.5"/>
<text text-anchor="middle" x="147" y="-119.5" font-family="Helvetica,sans-Serif" font-size="10.00">hpp/core/fwd.hh</text>
</a>
</g>
</g>
<!-- Node2&#45;&gt;Node11 -->
<g id="edge10" class="edge"><title>Node2&#45;&gt;Node11</title>
<path fill="none" stroke="midnightblue" d="M180.395,-168.083C174.745,-160.455 166.455,-149.264 159.549,-139.941"/>
<polygon fill="midnightblue" stroke="midnightblue" points="162.247,-137.703 153.482,-131.751 156.622,-141.87 162.247,-137.703"/>
</g>
<!-- Node4 -->
<g id="node4" class="node"><title>Node4</title>
<polygon fill="white" stroke="#bfbfbf" points="46.5,-56.5 46.5,-75.5 81.5,-75.5 81.5,-56.5 46.5,-56.5"/>
<text text-anchor="middle" x="64" y="-63.5" font-family="Helvetica,sans-Serif" font-size="10.00">map</text>
</g>
<!-- Node3&#45;&gt;Node4 -->
<g id="edge3" class="edge"><title>Node3&#45;&gt;Node4</title>
<path fill="none" stroke="midnightblue" d="M46.4677,-112.083C49.3117,-104.77 53.4295,-94.1814 56.9598,-85.1034"/>
<polygon fill="midnightblue" stroke="midnightblue" points="60.2343,-86.3397 60.5968,-75.7511 53.7103,-83.8025 60.2343,-86.3397"/>
</g>
<!-- Node3&#45;&gt;Node5 -->
<g id="edge4" class="edge"><title>Node3&#45;&gt;Node5</title>
<path fill="none" stroke="midnightblue" d="M60.9947,-112.324C79.0377,-103.625 107.047,-90.1202 127.803,-80.113"/>
<polygon fill="midnightblue" stroke="midnightblue" points="129.562,-83.1502 137.05,-75.6545 126.522,-76.8449 129.562,-83.1502"/>
</g>
<!-- Node7 -->
<g id="node7" class="node"><title>Node7</title>
<polygon fill="white" stroke="#bfbfbf" points="287,-56.5 287,-75.5 381,-75.5 381,-56.5 287,-56.5"/>
<text text-anchor="middle" x="334" y="-63.5" font-family="Helvetica,sans-Serif" font-size="10.00">hpp/util/pointer.hh</text>
</g>
<!-- Node6&#45;&gt;Node7 -->
<g id="edge6" class="edge"><title>Node6&#45;&gt;Node7</title>
<path fill="none" stroke="midnightblue" d="M334,-112.083C334,-105.006 334,-94.8611 334,-85.9865"/>
<polygon fill="midnightblue" stroke="midnightblue" points="337.5,-85.751 334,-75.7511 330.5,-85.7511 337.5,-85.751"/>
</g>
<!-- Node8 -->
<g id="node8" class="node"><title>Node8</title>
<g id="a_node8"><a doxygen="/local/devel/hpp/install/share/doc/hpp-statistics/doxygen-html/hpp-statistics.doxytag:../../hpp-statistics/doxygen-html/" xlink:href="../../hpp-statistics/doxygen-html/a00009.html" target="_top" xlink:title="hpp/statistics/distribution.hh">
<polygon fill="white" stroke="black" points="399.5,-56.5 399.5,-75.5 538.5,-75.5 538.5,-56.5 399.5,-56.5"/>
<text text-anchor="middle" x="469" y="-63.5" font-family="Helvetica,sans-Serif" font-size="10.00">hpp/statistics/distribution.hh</text>
</a>
</g>
</g>
<!-- Node6&#45;&gt;Node8 -->
<g id="edge7" class="edge"><title>Node6&#45;&gt;Node8</title>
<path fill="none" stroke="midnightblue" d="M355.391,-112.444C377.707,-103.517 412.903,-89.4387 438.208,-79.3168"/>
<polygon fill="midnightblue" stroke="midnightblue" points="439.724,-82.4801 447.709,-75.5164 437.124,-75.9807 439.724,-82.4801"/>
</g>
<!-- Node10 -->
<g id="node10" class="node"><title>Node10</title>
<polygon fill="white" stroke="#bfbfbf" points="225,-56.5 225,-75.5 269,-75.5 269,-56.5 225,-56.5"/>
<text text-anchor="middle" x="247" y="-63.5" font-family="Helvetica,sans-Serif" font-size="10.00">vector</text>
</g>
<!-- Node6&#45;&gt;Node10 -->
<g id="edge9" class="edge"><title>Node6&#45;&gt;Node10</title>
<path fill="none" stroke="midnightblue" d="M320.022,-112.324C306.45,-103.9 285.62,-90.9709 269.675,-81.0741"/>
<polygon fill="midnightblue" stroke="midnightblue" points="271.286,-77.9544 260.943,-75.6545 267.594,-83.9019 271.286,-77.9544"/>
</g>
<!-- Node9 -->
<g id="node9" class="node"><title>Node9</title>
<g id="a_node9"><a doxygen="/local/devel/hpp/install/share/doc/hpp-statistics/doxygen-html/hpp-statistics.doxytag:../../hpp-statistics/doxygen-html/" xlink:href="../../hpp-statistics/doxygen-html/a00010.html" target="_top" xlink:title="hpp/statistics/fwd.hh">
<polygon fill="white" stroke="black" points="415.5,-0.5 415.5,-19.5 522.5,-19.5 522.5,-0.5 415.5,-0.5"/>
<text text-anchor="middle" x="469" y="-7.5" font-family="Helvetica,sans-Serif" font-size="10.00">hpp/statistics/fwd.hh</text>
</a>
</g>
</g>
<!-- Node8&#45;&gt;Node9 -->
<g id="edge8" class="edge"><title>Node8&#45;&gt;Node9</title>
<path fill="none" stroke="midnightblue" d="M469,-56.083C469,-49.0059 469,-38.8611 469,-29.9865"/>
<polygon fill="midnightblue" stroke="midnightblue" points="472.5,-29.751 469,-19.7511 465.5,-29.7511 472.5,-29.751"/>
</g>
<!-- Node11&#45;&gt;Node4 -->
<g id="edge11" class="edge"><title>Node11&#45;&gt;Node4</title>
<path fill="none" stroke="midnightblue" d="M133.665,-112.324C120.838,-103.979 101.215,-91.2122 86.0602,-81.3524"/>
<polygon fill="midnightblue" stroke="midnightblue" points="87.5932,-78.1742 77.3023,-75.6545 83.7757,-84.0417 87.5932,-78.1742"/>
</g>
<!-- Node11&#45;&gt;Node5 -->
<g id="edge12" class="edge"><title>Node11&#45;&gt;Node5</title>
<path fill="none" stroke="midnightblue" d="M148.321,-112.083C149.381,-104.927 150.906,-94.6353 152.231,-85.6911"/>
<polygon fill="midnightblue" stroke="midnightblue" points="155.7,-86.1561 153.704,-75.7511 148.776,-85.1302 155.7,-86.1561"/>
</g>
<!-- Node14&#45;&gt;Node3 -->
<g id="edge26" class="edge"><title>Node14&#45;&gt;Node3</title>
<path fill="none" stroke="midnightblue" d="M200.252,-291.395C175.512,-283.641 148.114,-272.026 127,-255 88.1879,-223.703 61.8491,-169.427 50.0496,-141.213"/>
<polygon fill="midnightblue" stroke="midnightblue" points="53.2305,-139.742 46.2435,-131.777 46.7388,-142.361 53.2305,-139.742"/>
</g>
<!-- Node14&#45;&gt;Node6 -->
<g id="edge27" class="edge"><title>Node14&#45;&gt;Node6</title>
<path fill="none" stroke="midnightblue" d="M266.739,-291.398C270.138,-274.941 276.538,-247.043 285,-224 296.15,-193.638 313.437,-160.195 324.217,-140.426"/>
<polygon fill="midnightblue" stroke="midnightblue" points="327.289,-142.103 329.063,-131.658 321.163,-138.717 327.289,-142.103"/>
</g>
<!-- Node14&#45;&gt;Node13 -->
<g id="edge25" class="edge"><title>Node14&#45;&gt;Node13</title>
<path fill="none" stroke="midnightblue" d="M285.048,-291.396C301.314,-280.496 323.724,-265.479 339.983,-254.584"/>
<polygon fill="midnightblue" stroke="midnightblue" points="341.946,-257.481 348.305,-249.007 338.049,-251.666 341.946,-257.481"/>
</g>
<!-- Node15 -->
<g id="node15" class="node"><title>Node15</title>
<g id="a_node15"><a doxygen="/local/devel/hpp/install/share/doc/hpp-core/doxygen-html/hpp-core.doxytag:../../hpp-core/doxygen-html/" xlink:href="../../hpp-core/doxygen-html/a00121.html" target="_top" xlink:title="hpp/core/connected\l&#45;component.hh">
<polygon fill="white" stroke="black" points="136,-224.5 136,-254.5 238,-254.5 238,-224.5 136,-224.5"/>
<text text-anchor="start" x="144" y="-242.5" font-family="Helvetica,sans-Serif" font-size="10.00">hpp/core/connected</text>
<text text-anchor="middle" x="187" y="-231.5" font-family="Helvetica,sans-Serif" font-size="10.00">&#45;component.hh</text>
</a>
</g>
</g>
<!-- Node14&#45;&gt;Node15 -->
<g id="edge19" class="edge"><title>Node14&#45;&gt;Node15</title>
<path fill="none" stroke="midnightblue" d="M247.292,-291.396C236.798,-282.538 223.084,-270.96 211.387,-261.086"/>
<polygon fill="midnightblue" stroke="midnightblue" points="213.574,-258.353 203.675,-254.577 209.059,-263.702 213.574,-258.353"/>
</g>
<!-- Node15&#45;&gt;Node2 -->
<g id="edge24" class="edge"><title>Node15&#45;&gt;Node2</title>
<path fill="none" stroke="midnightblue" d="M187,-224.399C187,-216.466 187,-206.458 187,-197.858"/>
<polygon fill="midnightblue" stroke="midnightblue" points="190.5,-197.658 187,-187.658 183.5,-197.658 190.5,-197.658"/>
</g>
<!-- Node15&#45;&gt;Node3 -->
<g id="edge20" class="edge"><title>Node15&#45;&gt;Node3</title>
<path fill="none" stroke="midnightblue" d="M169.343,-224.337C141.982,-202.392 89.591,-160.37 61.6427,-137.953"/>
<polygon fill="midnightblue" stroke="midnightblue" points="63.7994,-135.196 53.8087,-131.669 59.4195,-140.657 63.7994,-135.196"/>
</g>
<!-- Node15&#45;&gt;Node5 -->
<g id="edge23" class="edge"><title>Node15&#45;&gt;Node5</title>
<path fill="none" stroke="midnightblue" d="M209.777,-224.436C221.789,-215.619 235.377,-203.072 242,-188 245.576,-179.862 243.98,-176.666 242,-168 235.845,-141.063 232.551,-133.34 215,-112 204.916,-99.7389 190.828,-88.9497 178.837,-81.0115"/>
<polygon fill="midnightblue" stroke="midnightblue" points="180.497,-77.9196 170.177,-75.5197 176.748,-83.8311 180.497,-77.9196"/>
</g>
<!-- Node15&#45;&gt;Node6 -->
<g id="edge21" class="edge"><title>Node15&#45;&gt;Node6</title>
<path fill="none" stroke="midnightblue" d="M216.592,-224.482C234.397,-215.347 257.019,-202.462 275,-188 292.73,-173.74 309.847,-154.005 321.035,-140.031"/>
<polygon fill="midnightblue" stroke="midnightblue" points="324.073,-141.829 327.478,-131.796 318.56,-137.515 324.073,-141.829"/>
</g>
<!-- Node15&#45;&gt;Node11 -->
<g id="edge22" class="edge"><title>Node15&#45;&gt;Node11</title>
<path fill="none" stroke="midnightblue" d="M164.223,-224.436C152.211,-215.619 138.623,-203.072 132,-188 125.317,-172.792 130.832,-154.22 136.974,-140.828"/>
<polygon fill="midnightblue" stroke="midnightblue" points="140.184,-142.238 141.602,-131.739 133.946,-139.062 140.184,-142.238"/>
</g>
</g>
</svg>
