<?xml version="1.0" encoding="UTF-8" standalone="no"?>
<!DOCTYPE svg PUBLIC "-//W3C//DTD SVG 1.1//EN"
 "http://www.w3.org/Graphics/SVG/1.1/DTD/svg11.dtd">
<!-- Generated by graphviz version 2.38.0 (20140413.2041)
 -->
<!-- Title: handle.hh Pages: 1 -->
<svg width="427pt" height="140pt"
 viewBox="0.00 0.00 427.00 140.00" xmlns="http://www.w3.org/2000/svg" xmlns:xlink="http://www.w3.org/1999/xlink">
<g id="graph0" class="graph" transform="scale(1 1) rotate(0) translate(4 136)">
<title>handle.hh</title>
<polygon fill="white" stroke="none" points="-4,4 -4,-136 423,-136 423,4 -4,4"/>
<!-- Node1 -->
<g id="node1" class="node"><title>Node1</title>
<polygon fill="#bfbfbf" stroke="black" points="177,-112.5 177,-131.5 236,-131.5 236,-112.5 177,-112.5"/>
<text text-anchor="middle" x="206.5" y="-119.5" font-family="Helvetica,sans-Serif" font-size="10.00">handle.hh</text>
</g>
<!-- Node2 -->
<g id="node2" class="node"><title>Node2</title>
<polygon fill="white" stroke="#bfbfbf" points="0,-56.5 0,-75.5 127,-75.5 127,-56.5 0,-56.5"/>
<text text-anchor="middle" x="63.5" y="-63.5" font-family="Helvetica,sans-Serif" font-size="10.00">pinocchio/spatial/se3.hpp</text>
</g>
<!-- Node1&#45;&gt;Node2 -->
<g id="edge1" class="edge"><title>Node1&#45;&gt;Node2</title>
<path fill="none" stroke="midnightblue" d="M183.841,-112.444C160.098,-103.478 122.591,-89.314 95.7616,-79.1827"/>
<polygon fill="midnightblue" stroke="midnightblue" points="96.6445,-75.7749 86.0528,-75.5164 94.1715,-82.3235 96.6445,-75.7749"/>
</g>
<!-- Node3 -->
<g id="node3" class="node"><title>Node3</title>
<g id="a_node3"><a xlink:href="a00001.html" target="_top" xlink:title="hpp/manipulation/fwd.hh">
<polygon fill="white" stroke="black" points="145.5,-56.5 145.5,-75.5 267.5,-75.5 267.5,-56.5 145.5,-56.5"/>
<text text-anchor="middle" x="206.5" y="-63.5" font-family="Helvetica,sans-Serif" font-size="10.00">hpp/manipulation/fwd.hh</text>
</a>
</g>
</g>
<!-- Node1&#45;&gt;Node3 -->
<g id="edge2" class="edge"><title>Node1&#45;&gt;Node3</title>
<path fill="none" stroke="midnightblue" d="M206.5,-112.083C206.5,-105.006 206.5,-94.8611 206.5,-85.9865"/>
<polygon fill="midnightblue" stroke="midnightblue" points="210,-85.751 206.5,-75.7511 203,-85.7511 210,-85.751"/>
</g>
<!-- Node6 -->
<g id="node6" class="node"><title>Node6</title>
<polygon fill="white" stroke="#bfbfbf" points="286,-56.5 286,-75.5 419,-75.5 419,-56.5 286,-56.5"/>
<text text-anchor="middle" x="352.5" y="-63.5" font-family="Helvetica,sans-Serif" font-size="10.00">hpp/manipulation/config.hh</text>
</g>
<!-- Node1&#45;&gt;Node6 -->
<g id="edge5" class="edge"><title>Node1&#45;&gt;Node6</title>
<path fill="none" stroke="midnightblue" d="M229.634,-112.444C253.982,-103.438 292.507,-89.1891 319.923,-79.049"/>
<polygon fill="midnightblue" stroke="midnightblue" points="321.309,-82.2681 329.474,-75.5164 318.881,-75.7028 321.309,-82.2681"/>
</g>
<!-- Node4 -->
<g id="node4" class="node"><title>Node4</title>
<polygon fill="white" stroke="#bfbfbf" points="149,-0.5 149,-19.5 184,-19.5 184,-0.5 149,-0.5"/>
<text text-anchor="middle" x="166.5" y="-7.5" font-family="Helvetica,sans-Serif" font-size="10.00">map</text>
</g>
<!-- Node3&#45;&gt;Node4 -->
<g id="edge3" class="edge"><title>Node3&#45;&gt;Node4</title>
<path fill="none" stroke="midnightblue" d="M199.895,-56.083C194.245,-48.4554 185.955,-37.2645 179.049,-27.9408"/>
<polygon fill="midnightblue" stroke="midnightblue" points="181.747,-25.7034 172.982,-19.7511 176.122,-29.87 181.747,-25.7034"/>
</g>
<!-- Node5 -->
<g id="node5" class="node"><title>Node5</title>
<g id="a_node5"><a doxygen="/local/devel/hpp/install/share/doc/hpp-core/doxygen-html/hpp-core.doxytag:../../hpp-core/doxygen-html/" xlink:href="../../hpp-core/doxygen-html/a00001.html" target="_top" xlink:title="hpp/core/fwd.hh">
<polygon fill="white" stroke="black" points="202.5,-0.5 202.5,-19.5 288.5,-19.5 288.5,-0.5 202.5,-0.5"/>
<text text-anchor="middle" x="245.5" y="-7.5" font-family="Helvetica,sans-Serif" font-size="10.00">hpp/core/fwd.hh</text>
</a>
</g>
</g>
<!-- Node3&#45;&gt;Node5 -->
<g id="edge4" class="edge"><title>Node3&#45;&gt;Node5</title>
<path fill="none" stroke="midnightblue" d="M212.94,-56.083C218.449,-48.4554 226.531,-37.2645 233.265,-27.9408"/>
<polygon fill="midnightblue" stroke="midnightblue" points="236.162,-29.9071 239.18,-19.7511 230.487,-25.8087 236.162,-29.9071"/>
</g>
</g>
</svg>
