<?xml version="1.0" encoding="UTF-8" standalone="no"?>
<!DOCTYPE svg PUBLIC "-//W3C//DTD SVG 1.1//EN"
 "http://www.w3.org/Graphics/SVG/1.1/DTD/svg11.dtd">
<!-- Generated by graphviz version 2.38.0 (20140413.2041)
 -->
<!-- Title: weighed&#45;distance.hh Pages: 1 -->
<svg width="530pt" height="364pt"
 viewBox="0.00 0.00 530.00 364.00" xmlns="http://www.w3.org/2000/svg" xmlns:xlink="http://www.w3.org/1999/xlink">
<g id="graph0" class="graph" transform="scale(1 1) rotate(0) translate(4 360)">
<title>weighed&#45;distance.hh</title>
<polygon fill="white" stroke="none" points="-4,4 -4,-360 526,-360 526,4 -4,4"/>
<!-- Node1 -->
<g id="node1" class="node"><title>Node1</title>
<polygon fill="#bfbfbf" stroke="black" points="245,-336.5 245,-355.5 351,-355.5 351,-336.5 245,-336.5"/>
<text text-anchor="middle" x="298" y="-343.5" font-family="Helvetica,sans-Serif" font-size="10.00">weighed&#45;distance.hh</text>
</g>
<!-- Node2 -->
<g id="node2" class="node"><title>Node2</title>
<g id="a_node2"><a doxygen="/local/devel/hpp/install/share/doc/hpp-core/doxygen-html/hpp-core.doxytag:../../hpp-core/doxygen-html/" xlink:href="../../hpp-core/doxygen-html/a00212.html" target="_top" xlink:title="hpp/core/weighed&#45;distance.hh">
<polygon fill="white" stroke="black" points="150,-280.5 150,-299.5 296,-299.5 296,-280.5 150,-280.5"/>
<text text-anchor="middle" x="223" y="-287.5" font-family="Helvetica,sans-Serif" font-size="10.00">hpp/core/weighed&#45;distance.hh</text>
</a>
</g>
</g>
<!-- Node1&#45;&gt;Node2 -->
<g id="edge1" class="edge"><title>Node1&#45;&gt;Node2</title>
<path fill="none" stroke="midnightblue" d="M285.95,-336.324C274.537,-328.107 257.169,-315.602 243.565,-305.807"/>
<polygon fill="midnightblue" stroke="midnightblue" points="245.43,-302.837 235.269,-299.834 241.34,-308.517 245.43,-302.837"/>
</g>
<!-- Node4 -->
<g id="node4" class="node"><title>Node4</title>
<g id="a_node4"><a xlink:href="a00001.html" target="_top" xlink:title="hpp/core/fwd.hh">
<polygon fill="white" stroke="black" points="0,-112.5 0,-131.5 86,-131.5 86,-112.5 0,-112.5"/>
<text text-anchor="middle" x="43" y="-119.5" font-family="Helvetica,sans-Serif" font-size="10.00">hpp/core/fwd.hh</text>
</a>
</g>
</g>
<!-- Node1&#45;&gt;Node4 -->
<g id="edge20" class="edge"><title>Node1&#45;&gt;Node4</title>
<path fill="none" stroke="midnightblue" d="M244.903,-340.14C212.043,-334.795 170.62,-323.57 141,-300 87.4474,-257.386 58.6435,-177.106 47.9376,-141.182"/>
<polygon fill="midnightblue" stroke="midnightblue" points="51.2982,-140.203 45.1888,-131.548 44.5669,-142.124 51.2982,-140.203"/>
</g>
<!-- Node7 -->
<g id="node7" class="node"><title>Node7</title>
<g id="a_node7"><a xlink:href="a00065.html" target="_top" xlink:title="hpp/core/fwd.hh">
<polygon fill="white" stroke="black" points="291,-112.5 291,-131.5 377,-131.5 377,-112.5 291,-112.5"/>
<text text-anchor="middle" x="334" y="-119.5" font-family="Helvetica,sans-Serif" font-size="10.00">hpp/core/fwd.hh</text>
</a>
</g>
</g>
<!-- Node1&#45;&gt;Node7 -->
<g id="edge22" class="edge"><title>Node1&#45;&gt;Node7</title>
<path fill="none" stroke="midnightblue" d="M299.411,-336.297C304.708,-303.633 323.481,-187.866 330.926,-141.957"/>
<polygon fill="midnightblue" stroke="midnightblue" points="334.413,-142.315 332.559,-131.884 327.504,-141.195 334.413,-142.315"/>
</g>
<!-- Node14 -->
<g id="node14" class="node"><title>Node14</title>
<polygon fill="white" stroke="#bfbfbf" points="365.5,-280.5 365.5,-299.5 498.5,-299.5 498.5,-280.5 365.5,-280.5"/>
<text text-anchor="middle" x="432" y="-287.5" font-family="Helvetica,sans-Serif" font-size="10.00">hpp/manipulation/config.hh</text>
</g>
<!-- Node1&#45;&gt;Node14 -->
<g id="edge21" class="edge"><title>Node1&#45;&gt;Node14</title>
<path fill="none" stroke="midnightblue" d="M319.233,-336.444C341.384,-327.517 376.319,-313.439 401.436,-303.317"/>
<polygon fill="midnightblue" stroke="midnightblue" points="402.9,-306.501 410.867,-299.516 400.283,-300.008 402.9,-306.501"/>
</g>
<!-- Node3 -->
<g id="node3" class="node"><title>Node3</title>
<g id="a_node3"><a doxygen="/local/devel/hpp/install/share/doc/hpp-core/doxygen-html/hpp-core.doxytag:../../hpp-core/doxygen-html/" xlink:href="../../hpp-core/doxygen-html/a00135.html" target="_top" xlink:title="hpp/core/distance.hh">
<polygon fill="white" stroke="black" points="145.5,-224.5 145.5,-243.5 252.5,-243.5 252.5,-224.5 145.5,-224.5"/>
<text text-anchor="middle" x="199" y="-231.5" font-family="Helvetica,sans-Serif" font-size="10.00">hpp/core/distance.hh</text>
</a>
</g>
</g>
<!-- Node2&#45;&gt;Node3 -->
<g id="edge2" class="edge"><title>Node2&#45;&gt;Node3</title>
<path fill="none" stroke="midnightblue" d="M219.037,-280.083C215.787,-272.77 211.081,-262.181 207.046,-253.103"/>
<polygon fill="midnightblue" stroke="midnightblue" points="210.149,-251.468 202.889,-243.751 203.752,-254.311 210.149,-251.468"/>
</g>
<!-- Node3&#45;&gt;Node4 -->
<g id="edge3" class="edge"><title>Node3&#45;&gt;Node4</title>
<path fill="none" stroke="midnightblue" d="M183.629,-224.399C168.413,-215.713 144.619,-201.663 125,-188 102.023,-171.998 76.9887,-151.703 60.7038,-138.084"/>
<polygon fill="midnightblue" stroke="midnightblue" points="62.9454,-135.396 53.0427,-131.63 58.435,-140.749 62.9454,-135.396"/>
</g>
<!-- Node6 -->
<g id="node6" class="node"><title>Node6</title>
<g id="a_node6"><a doxygen="/local/devel/hpp/install/share/doc/hpp-core/doxygen-html/hpp-core.doxytag:../../hpp-core/doxygen-html/" xlink:href="../../hpp-core/doxygen-html/a00001.html" target="_top" xlink:title="hpp/core/fwd.hh">
<polygon fill="white" stroke="black" points="104,-56.5 104,-75.5 190,-75.5 190,-56.5 104,-56.5"/>
<text text-anchor="middle" x="147" y="-63.5" font-family="Helvetica,sans-Serif" font-size="10.00">hpp/core/fwd.hh</text>
</a>
</g>
</g>
<!-- Node3&#45;&gt;Node6 -->
<g id="edge14" class="edge"><title>Node3&#45;&gt;Node6</title>
<path fill="none" stroke="midnightblue" d="M211.497,-224.302C221.874,-216.251 235.887,-203.245 242,-188 245.308,-179.75 243.98,-176.666 242,-168 235.845,-141.063 233.172,-132.814 215,-112 203.653,-99.0031 187.698,-88.1821 174.094,-80.4109"/>
<polygon fill="midnightblue" stroke="midnightblue" points="175.593,-77.2417 165.138,-75.5288 172.243,-83.3879 175.593,-77.2417"/>
</g>
<!-- Node3&#45;&gt;Node7 -->
<g id="edge6" class="edge"><title>Node3&#45;&gt;Node7</title>
<path fill="none" stroke="midnightblue" d="M216.866,-224.369C232.915,-216.178 256.7,-202.925 275,-188 292.632,-173.619 309.765,-153.905 320.984,-139.969"/>
<polygon fill="midnightblue" stroke="midnightblue" points="324.012,-141.781 327.449,-131.759 318.512,-137.451 324.012,-141.781"/>
</g>
<!-- Node12 -->
<g id="node12" class="node"><title>Node12</title>
<g id="a_node12"><a xlink:href="a00066.html" target="_top" xlink:title="hpp/core/fwd.hh">
<polygon fill="white" stroke="black" points="104,-112.5 104,-131.5 190,-131.5 190,-112.5 104,-112.5"/>
<text text-anchor="middle" x="147" y="-119.5" font-family="Helvetica,sans-Serif" font-size="10.00">hpp/core/fwd.hh</text>
</a>
</g>
</g>
<!-- Node3&#45;&gt;Node12 -->
<g id="edge11" class="edge"><title>Node3&#45;&gt;Node12</title>
<path fill="none" stroke="midnightblue" d="M176.212,-224.471C160.674,-217.316 141.293,-205.435 132,-188 124.11,-173.197 129.95,-154.336 136.509,-140.749"/>
<polygon fill="midnightblue" stroke="midnightblue" points="139.601,-142.39 141.226,-131.921 133.427,-139.091 139.601,-142.39"/>
</g>
<!-- Node13 -->
<g id="node13" class="node"><title>Node13</title>
<g id="a_node13"><a doxygen="/local/devel/hpp/install/share/doc/hpp-core/doxygen-html/hpp-core.doxytag:../../hpp-core/doxygen-html/" xlink:href="../../hpp-core/doxygen-html/a00162.html" target="_top" xlink:title="hpp/core/node.hh">
<polygon fill="white" stroke="black" points="141,-168.5 141,-187.5 233,-187.5 233,-168.5 141,-168.5"/>
<text text-anchor="middle" x="187" y="-175.5" font-family="Helvetica,sans-Serif" font-size="10.00">hpp/core/node.hh</text>
</a>
</g>
</g>
<!-- Node3&#45;&gt;Node13 -->
<g id="edge15" class="edge"><title>Node3&#45;&gt;Node13</title>
<path fill="none" stroke="midnightblue" d="M197.018,-224.083C195.428,-216.927 193.141,-206.635 191.154,-197.691"/>
<polygon fill="midnightblue" stroke="midnightblue" points="194.531,-196.754 188.945,-187.751 187.697,-198.272 194.531,-196.754"/>
</g>
<!-- Node5 -->
<g id="node5" class="node"><title>Node5</title>
<polygon fill="white" stroke="#bfbfbf" points="38.5,-56.5 38.5,-75.5 73.5,-75.5 73.5,-56.5 38.5,-56.5"/>
<text text-anchor="middle" x="56" y="-63.5" font-family="Helvetica,sans-Serif" font-size="10.00">map</text>
</g>
<!-- Node4&#45;&gt;Node5 -->
<g id="edge4" class="edge"><title>Node4&#45;&gt;Node5</title>
<path fill="none" stroke="midnightblue" d="M45.1467,-112.083C46.8694,-104.927 49.3471,-94.6353 51.5003,-85.6911"/>
<polygon fill="midnightblue" stroke="midnightblue" points="54.9554,-86.2925 53.8933,-75.7511 48.1499,-84.6541 54.9554,-86.2925"/>
</g>
<!-- Node4&#45;&gt;Node6 -->
<g id="edge5" class="edge"><title>Node4&#45;&gt;Node6</title>
<path fill="none" stroke="midnightblue" d="M59.7094,-112.324C76.3119,-103.703 102.002,-90.3643 121.22,-80.3855"/>
<polygon fill="midnightblue" stroke="midnightblue" points="123.07,-83.3689 130.332,-75.6545 119.844,-77.1565 123.07,-83.3689"/>
</g>
<!-- Node8 -->
<g id="node8" class="node"><title>Node8</title>
<polygon fill="white" stroke="#bfbfbf" points="208,-56.5 208,-75.5 302,-75.5 302,-56.5 208,-56.5"/>
<text text-anchor="middle" x="255" y="-63.5" font-family="Helvetica,sans-Serif" font-size="10.00">hpp/util/pointer.hh</text>
</g>
<!-- Node7&#45;&gt;Node8 -->
<g id="edge7" class="edge"><title>Node7&#45;&gt;Node8</title>
<path fill="none" stroke="midnightblue" d="M321.307,-112.324C309.099,-103.979 290.422,-91.2122 275.997,-81.3524"/>
<polygon fill="midnightblue" stroke="midnightblue" points="277.892,-78.4082 267.661,-75.6545 273.942,-84.1871 277.892,-78.4082"/>
</g>
<!-- Node9 -->
<g id="node9" class="node"><title>Node9</title>
<g id="a_node9"><a doxygen="/local/devel/hpp/install/share/doc/hpp-statistics/doxygen-html/hpp-statistics.doxytag:../../hpp-statistics/doxygen-html/" xlink:href="../../hpp-statistics/doxygen-html/a00009.html" target="_top" xlink:title="hpp/statistics/distribution.hh">
<polygon fill="white" stroke="black" points="320.5,-56.5 320.5,-75.5 459.5,-75.5 459.5,-56.5 320.5,-56.5"/>
<text text-anchor="middle" x="390" y="-63.5" font-family="Helvetica,sans-Serif" font-size="10.00">hpp/statistics/distribution.hh</text>
</a>
</g>
</g>
<!-- Node7&#45;&gt;Node9 -->
<g id="edge8" class="edge"><title>Node7&#45;&gt;Node9</title>
<path fill="none" stroke="midnightblue" d="M342.997,-112.324C351.194,-104.42 363.506,-92.5482 373.472,-82.9377"/>
<polygon fill="midnightblue" stroke="midnightblue" points="376.07,-85.2947 380.839,-75.8339 371.211,-80.2558 376.07,-85.2947"/>
</g>
<!-- Node11 -->
<g id="node11" class="node"><title>Node11</title>
<polygon fill="white" stroke="#bfbfbf" points="478,-56.5 478,-75.5 522,-75.5 522,-56.5 478,-56.5"/>
<text text-anchor="middle" x="500" y="-63.5" font-family="Helvetica,sans-Serif" font-size="10.00">vector</text>
</g>
<!-- Node7&#45;&gt;Node11 -->
<g id="edge10" class="edge"><title>Node7&#45;&gt;Node11</title>
<path fill="none" stroke="midnightblue" d="M360.303,-112.444C389.588,-102.917 436.911,-87.5228 468.238,-77.3321"/>
<polygon fill="midnightblue" stroke="midnightblue" points="469.377,-80.6422 477.804,-74.2203 467.212,-73.9855 469.377,-80.6422"/>
</g>
<!-- Node10 -->
<g id="node10" class="node"><title>Node10</title>
<g id="a_node10"><a doxygen="/local/devel/hpp/install/share/doc/hpp-statistics/doxygen-html/hpp-statistics.doxytag:../../hpp-statistics/doxygen-html/" xlink:href="../../hpp-statistics/doxygen-html/a00010.html" target="_top" xlink:title="hpp/statistics/fwd.hh">
<polygon fill="white" stroke="black" points="336.5,-0.5 336.5,-19.5 443.5,-19.5 443.5,-0.5 336.5,-0.5"/>
<text text-anchor="middle" x="390" y="-7.5" font-family="Helvetica,sans-Serif" font-size="10.00">hpp/statistics/fwd.hh</text>
</a>
</g>
</g>
<!-- Node9&#45;&gt;Node10 -->
<g id="edge9" class="edge"><title>Node9&#45;&gt;Node10</title>
<path fill="none" stroke="midnightblue" d="M390,-56.083C390,-49.0059 390,-38.8611 390,-29.9865"/>
<polygon fill="midnightblue" stroke="midnightblue" points="393.5,-29.751 390,-19.7511 386.5,-29.7511 393.5,-29.751"/>
</g>
<!-- Node12&#45;&gt;Node5 -->
<g id="edge12" class="edge"><title>Node12&#45;&gt;Node5</title>
<path fill="none" stroke="midnightblue" d="M132.379,-112.324C118.051,-103.822 95.9875,-90.7288 79.2513,-80.7975"/>
<polygon fill="midnightblue" stroke="midnightblue" points="80.9704,-77.7478 70.5844,-75.6545 77.3982,-83.7677 80.9704,-77.7478"/>
</g>
<!-- Node12&#45;&gt;Node6 -->
<g id="edge13" class="edge"><title>Node12&#45;&gt;Node6</title>
<path fill="none" stroke="midnightblue" d="M147,-112.083C147,-105.006 147,-94.8611 147,-85.9865"/>
<polygon fill="midnightblue" stroke="midnightblue" points="150.5,-85.751 147,-75.7511 143.5,-85.7511 150.5,-85.751"/>
</g>
<!-- Node13&#45;&gt;Node4 -->
<g id="edge16" class="edge"><title>Node13&#45;&gt;Node4</title>
<path fill="none" stroke="midnightblue" d="M164.183,-168.444C140.168,-159.438 102.171,-145.189 75.1308,-135.049"/>
<polygon fill="midnightblue" stroke="midnightblue" points="76.3027,-131.751 65.7105,-131.516 73.8448,-138.305 76.3027,-131.751"/>
</g>
<!-- Node13&#45;&gt;Node6 -->
<g id="edge19" class="edge"><title>Node13&#45;&gt;Node6</title>
<path fill="none" stroke="midnightblue" d="M191.815,-168.182C198.166,-155.289 207.587,-130.786 199,-112 193.223,-99.3602 181.948,-88.911 171.369,-81.2737"/>
<polygon fill="midnightblue" stroke="midnightblue" points="173.042,-78.1817 162.783,-75.5333 169.151,-84.0009 173.042,-78.1817"/>
</g>
<!-- Node13&#45;&gt;Node7 -->
<g id="edge17" class="edge"><title>Node13&#45;&gt;Node7</title>
<path fill="none" stroke="midnightblue" d="M210.293,-168.444C234.807,-159.438 273.596,-145.189 301.2,-135.049"/>
<polygon fill="midnightblue" stroke="midnightblue" points="302.637,-138.25 310.816,-131.516 300.223,-131.679 302.637,-138.25"/>
</g>
<!-- Node13&#45;&gt;Node12 -->
<g id="edge18" class="edge"><title>Node13&#45;&gt;Node12</title>
<path fill="none" stroke="midnightblue" d="M180.395,-168.083C174.745,-160.455 166.455,-149.264 159.549,-139.941"/>
<polygon fill="midnightblue" stroke="midnightblue" points="162.247,-137.703 153.482,-131.751 156.622,-141.87 162.247,-137.703"/>
</g>
</g>
</svg>
