<?xml version="1.0" encoding="UTF-8" standalone="no"?>
<!DOCTYPE svg PUBLIC "-//W3C//DTD SVG 1.1//EN"
 "http://www.w3.org/Graphics/SVG/1.1/DTD/svg11.dtd">
<!-- Generated by graphviz version 2.38.0 (20140413.2041)
 -->
<!-- Title: enforce&#45;transition&#45;semantic.hh Pages: 1 -->
<svg width="1439pt" height="565pt"
 viewBox="0.00 0.00 1439.00 565.00" xmlns="http://www.w3.org/2000/svg" xmlns:xlink="http://www.w3.org/1999/xlink">
<g id="graph0" class="graph" transform="scale(1 1) rotate(0) translate(4 561)">
<title>enforce&#45;transition&#45;semantic.hh</title>
<polygon fill="white" stroke="none" points="-4,4 -4,-561 1435,-561 1435,4 -4,4"/>
<!-- Node1 -->
<g id="node1" class="node"><title>Node1</title>
<polygon fill="#bfbfbf" stroke="black" points="500,-526.5 500,-556.5 592,-556.5 592,-526.5 500,-526.5"/>
<text text-anchor="start" x="508" y="-544.5" font-family="Helvetica,sans-Serif" font-size="10.00">enforce&#45;transition</text>
<text text-anchor="middle" x="546" y="-533.5" font-family="Helvetica,sans-Serif" font-size="10.00">&#45;semantic.hh</text>
</g>
<!-- Node2 -->
<g id="node2" class="node"><title>Node2</title>
<g id="a_node2"><a doxygen="/local/devel/hpp/install/share/doc/hpp-core/doxygen-html/hpp-core.doxytag:../../hpp-core/doxygen-html/" xlink:href="../../hpp-core/doxygen-html/a00167.html" target="_top" xlink:title="hpp/core/path&#45;optimizer.hh">
<polygon fill="white" stroke="black" points="142,-179.5 142,-198.5 274,-198.5 274,-179.5 142,-179.5"/>
<text text-anchor="middle" x="208" y="-186.5" font-family="Helvetica,sans-Serif" font-size="10.00">hpp/core/path&#45;optimizer.hh</text>
</a>
</g>
</g>
<!-- Node1&#45;&gt;Node2 -->
<g id="edge1" class="edge"><title>Node1&#45;&gt;Node2</title>
<path fill="none" stroke="midnightblue" d="M499.645,-536.753C395.494,-527.06 152,-496.727 152,-425 152,-425 152,-425 152,-311 152,-270.718 177.878,-229.287 194.451,-206.884"/>
<polygon fill="midnightblue" stroke="midnightblue" points="197.372,-208.826 200.679,-198.761 191.817,-204.567 197.372,-208.826"/>
</g>
<!-- Node12 -->
<g id="node12" class="node"><title>Node12</title>
<g id="a_node12"><a xlink:href="a00003.html" target="_top" xlink:title="hpp/manipulation/problem.hh">
<polygon fill="white" stroke="black" points="870.5,-470.5 870.5,-489.5 1011.5,-489.5 1011.5,-470.5 870.5,-470.5"/>
<text text-anchor="middle" x="941" y="-477.5" font-family="Helvetica,sans-Serif" font-size="10.00">hpp/manipulation/problem.hh</text>
</a>
</g>
</g>
<!-- Node1&#45;&gt;Node12 -->
<g id="edge14" class="edge"><title>Node1&#45;&gt;Node12</title>
<path fill="none" stroke="midnightblue" d="M592.085,-533.558C661.757,-523.063 794.26,-503.104 874.416,-491.03"/>
<polygon fill="midnightblue" stroke="midnightblue" points="875.037,-494.476 884.404,-489.525 873.995,-487.554 875.037,-494.476"/>
</g>
<!-- Node3 -->
<g id="node3" class="node"><title>Node3</title>
<g id="a_node3"><a xlink:href="a00001.html" target="_top" xlink:title="hpp/core/fwd.hh">
<polygon fill="white" stroke="black" points="743,-118 743,-137 829,-137 829,-118 743,-118"/>
<text text-anchor="middle" x="786" y="-125" font-family="Helvetica,sans-Serif" font-size="10.00">hpp/core/fwd.hh</text>
</a>
</g>
</g>
<!-- Node2&#45;&gt;Node3 -->
<g id="edge2" class="edge"><title>Node2&#45;&gt;Node3</title>
<path fill="none" stroke="midnightblue" d="M274.391,-182.44C388.258,-172.81 616.234,-153.092 696,-143 707.899,-141.495 720.639,-139.61 732.681,-137.702"/>
<polygon fill="midnightblue" stroke="midnightblue" points="733.283,-141.151 742.598,-136.102 732.168,-134.24 733.283,-141.151"/>
</g>
<!-- Node5 -->
<g id="node5" class="node"><title>Node5</title>
<g id="a_node5"><a doxygen="/local/devel/hpp/install/share/doc/hpp-core/doxygen-html/hpp-core.doxytag:../../hpp-core/doxygen-html/" xlink:href="../../hpp-core/doxygen-html/a00001.html" target="_top" xlink:title="hpp/core/fwd.hh">
<polygon fill="white" stroke="black" points="501,-56.5 501,-75.5 587,-75.5 587,-56.5 501,-56.5"/>
<text text-anchor="middle" x="544" y="-63.5" font-family="Helvetica,sans-Serif" font-size="10.00">hpp/core/fwd.hh</text>
</a>
</g>
</g>
<!-- Node2&#45;&gt;Node5 -->
<g id="edge13" class="edge"><title>Node2&#45;&gt;Node5</title>
<path fill="none" stroke="midnightblue" d="M214.342,-179.229C226.577,-163.028 255.155,-128.556 288,-112 352.735,-79.3705 437.034,-69.9722 490.851,-67.4979"/>
<polygon fill="midnightblue" stroke="midnightblue" points="491.01,-70.9944 500.863,-67.1014 490.733,-63.9999 491.01,-70.9944"/>
</g>
<!-- Node6 -->
<g id="node6" class="node"><title>Node6</title>
<g id="a_node6"><a xlink:href="a00065.html" target="_top" xlink:title="hpp/core/fwd.hh">
<polygon fill="white" stroke="black" points="150,-118 150,-137 236,-137 236,-118 150,-118"/>
<text text-anchor="middle" x="193" y="-125" font-family="Helvetica,sans-Serif" font-size="10.00">hpp/core/fwd.hh</text>
</a>
</g>
</g>
<!-- Node2&#45;&gt;Node6 -->
<g id="edge5" class="edge"><title>Node2&#45;&gt;Node6</title>
<path fill="none" stroke="midnightblue" d="M205.851,-179.475C203.712,-170.992 200.362,-157.704 197.619,-146.822"/>
<polygon fill="midnightblue" stroke="midnightblue" points="200.984,-145.85 195.145,-137.009 194.196,-147.561 200.984,-145.85"/>
</g>
<!-- Node11 -->
<g id="node11" class="node"><title>Node11</title>
<g id="a_node11"><a xlink:href="a00066.html" target="_top" xlink:title="hpp/core/fwd.hh">
<polygon fill="white" stroke="black" points="601,-118 601,-137 687,-137 687,-118 601,-118"/>
<text text-anchor="middle" x="644" y="-125" font-family="Helvetica,sans-Serif" font-size="10.00">hpp/core/fwd.hh</text>
</a>
</g>
</g>
<!-- Node2&#45;&gt;Node11 -->
<g id="edge10" class="edge"><title>Node2&#45;&gt;Node11</title>
<path fill="none" stroke="midnightblue" d="M270.468,-179.475C356.501,-167.734 509.966,-146.791 590.81,-135.759"/>
<polygon fill="midnightblue" stroke="midnightblue" points="591.338,-139.219 600.773,-134.399 590.392,-132.283 591.338,-139.219"/>
</g>
<!-- Node4 -->
<g id="node4" class="node"><title>Node4</title>
<polygon fill="white" stroke="#bfbfbf" points="697.5,-56.5 697.5,-75.5 732.5,-75.5 732.5,-56.5 697.5,-56.5"/>
<text text-anchor="middle" x="715" y="-63.5" font-family="Helvetica,sans-Serif" font-size="10.00">map</text>
</g>
<!-- Node3&#45;&gt;Node4 -->
<g id="edge3" class="edge"><title>Node3&#45;&gt;Node4</title>
<path fill="none" stroke="midnightblue" d="M775.827,-117.975C764.65,-108.608 746.483,-93.3839 732.909,-82.0081"/>
<polygon fill="midnightblue" stroke="midnightblue" points="735.066,-79.2496 725.154,-75.5091 730.57,-84.6148 735.066,-79.2496"/>
</g>
<!-- Node3&#45;&gt;Node5 -->
<g id="edge4" class="edge"><title>Node3&#45;&gt;Node5</title>
<path fill="none" stroke="midnightblue" d="M752.559,-117.931C744.827,-115.967 736.63,-113.898 729,-112 681.502,-100.182 627.055,-86.9796 589.59,-77.9485"/>
<polygon fill="midnightblue" stroke="midnightblue" points="590.034,-74.4556 579.493,-75.5165 588.395,-81.2609 590.034,-74.4556"/>
</g>
<!-- Node7 -->
<g id="node7" class="node"><title>Node7</title>
<polygon fill="white" stroke="#bfbfbf" points="146,-56.5 146,-75.5 240,-75.5 240,-56.5 146,-56.5"/>
<text text-anchor="middle" x="193" y="-63.5" font-family="Helvetica,sans-Serif" font-size="10.00">hpp/util/pointer.hh</text>
</g>
<!-- Node6&#45;&gt;Node7 -->
<g id="edge6" class="edge"><title>Node6&#45;&gt;Node7</title>
<path fill="none" stroke="midnightblue" d="M193,-117.975C193,-109.58 193,-96.4806 193,-85.6631"/>
<polygon fill="midnightblue" stroke="midnightblue" points="196.5,-85.5091 193,-75.5091 189.5,-85.5091 196.5,-85.5091"/>
</g>
<!-- Node8 -->
<g id="node8" class="node"><title>Node8</title>
<g id="a_node8"><a doxygen="/local/devel/hpp/install/share/doc/hpp-statistics/doxygen-html/hpp-statistics.doxytag:../../hpp-statistics/doxygen-html/" xlink:href="../../hpp-statistics/doxygen-html/a00009.html" target="_top" xlink:title="hpp/statistics/distribution.hh">
<polygon fill="white" stroke="black" points="258.5,-56.5 258.5,-75.5 397.5,-75.5 397.5,-56.5 258.5,-56.5"/>
<text text-anchor="middle" x="328" y="-63.5" font-family="Helvetica,sans-Serif" font-size="10.00">hpp/statistics/distribution.hh</text>
</a>
</g>
</g>
<!-- Node6&#45;&gt;Node8 -->
<g id="edge7" class="edge"><title>Node6&#45;&gt;Node8</title>
<path fill="none" stroke="midnightblue" d="M212.342,-117.975C235.099,-107.945 273.092,-91.2002 299.288,-79.6546"/>
<polygon fill="midnightblue" stroke="midnightblue" points="300.955,-82.7449 308.694,-75.5091 298.131,-76.3395 300.955,-82.7449"/>
</g>
<!-- Node10 -->
<g id="node10" class="node"><title>Node10</title>
<polygon fill="white" stroke="#bfbfbf" points="84,-56.5 84,-75.5 128,-75.5 128,-56.5 84,-56.5"/>
<text text-anchor="middle" x="106" y="-63.5" font-family="Helvetica,sans-Serif" font-size="10.00">vector</text>
</g>
<!-- Node6&#45;&gt;Node10 -->
<g id="edge9" class="edge"><title>Node6&#45;&gt;Node10</title>
<path fill="none" stroke="midnightblue" d="M180.535,-117.975C166.581,-108.431 143.735,-92.8073 127.009,-81.3683"/>
<polygon fill="midnightblue" stroke="midnightblue" points="128.672,-78.2653 118.442,-75.5091 124.72,-84.0433 128.672,-78.2653"/>
</g>
<!-- Node9 -->
<g id="node9" class="node"><title>Node9</title>
<g id="a_node9"><a doxygen="/local/devel/hpp/install/share/doc/hpp-statistics/doxygen-html/hpp-statistics.doxytag:../../hpp-statistics/doxygen-html/" xlink:href="../../hpp-statistics/doxygen-html/a00010.html" target="_top" xlink:title="hpp/statistics/fwd.hh">
<polygon fill="white" stroke="black" points="274.5,-0.5 274.5,-19.5 381.5,-19.5 381.5,-0.5 274.5,-0.5"/>
<text text-anchor="middle" x="328" y="-7.5" font-family="Helvetica,sans-Serif" font-size="10.00">hpp/statistics/fwd.hh</text>
</a>
</g>
</g>
<!-- Node8&#45;&gt;Node9 -->
<g id="edge8" class="edge"><title>Node8&#45;&gt;Node9</title>
<path fill="none" stroke="midnightblue" d="M328,-56.083C328,-49.0059 328,-38.8611 328,-29.9865"/>
<polygon fill="midnightblue" stroke="midnightblue" points="331.5,-29.751 328,-19.7511 324.5,-29.7511 331.5,-29.751"/>
</g>
<!-- Node11&#45;&gt;Node4 -->
<g id="edge11" class="edge"><title>Node11&#45;&gt;Node4</title>
<path fill="none" stroke="midnightblue" d="M654.173,-117.975C665.35,-108.608 683.517,-93.3839 697.091,-82.0081"/>
<polygon fill="midnightblue" stroke="midnightblue" points="699.43,-84.6148 704.846,-75.5091 694.934,-79.2496 699.43,-84.6148"/>
</g>
<!-- Node11&#45;&gt;Node5 -->
<g id="edge12" class="edge"><title>Node11&#45;&gt;Node5</title>
<path fill="none" stroke="midnightblue" d="M629.672,-117.975C613.336,-108.255 586.398,-92.2266 567.088,-80.7372"/>
<polygon fill="midnightblue" stroke="midnightblue" points="568.685,-77.6146 558.301,-75.5091 565.105,-83.6303 568.685,-77.6146"/>
</g>
<!-- Node12&#45;&gt;Node3 -->
<g id="edge51" class="edge"><title>Node12&#45;&gt;Node3</title>
<path fill="none" stroke="midnightblue" d="M996.347,-470.47C1051.49,-458.458 1128,-430.677 1128,-369 1128,-369 1128,-369 1128,-249.5 1128,-209.207 1105.7,-199.478 1071,-179 1032.64,-156.362 910.733,-140.86 839.389,-133.467"/>
<polygon fill="midnightblue" stroke="midnightblue" points="839.549,-129.965 829.246,-132.435 838.84,-136.929 839.549,-129.965"/>
</g>
<!-- Node12&#45;&gt;Node6 -->
<g id="edge57" class="edge"><title>Node12&#45;&gt;Node6</title>
<path fill="none" stroke="midnightblue" d="M870.143,-477.786C657.269,-473.21 38,-452.703 38,-369 38,-369 38,-369 38,-249.5 38,-191.138 107.123,-156.764 153.048,-140.366"/>
<polygon fill="midnightblue" stroke="midnightblue" points="154.42,-143.596 162.746,-137.044 152.152,-136.973 154.42,-143.596"/>
</g>
<!-- Node13 -->
<g id="node13" class="node"><title>Node13</title>
<g id="a_node13"><a doxygen="/local/devel/hpp/install/share/doc/hpp-core/doxygen-html/hpp-core.doxytag:../../hpp-core/doxygen-html/" xlink:href="../../hpp-core/doxygen-html/a00181.html" target="_top" xlink:title="hpp/core/problem.hh">
<polygon fill="white" stroke="black" points="841.5,-414.5 841.5,-433.5 946.5,-433.5 946.5,-414.5 841.5,-414.5"/>
<text text-anchor="middle" x="894" y="-421.5" font-family="Helvetica,sans-Serif" font-size="10.00">hpp/core/problem.hh</text>
</a>
</g>
</g>
<!-- Node12&#45;&gt;Node13 -->
<g id="edge15" class="edge"><title>Node12&#45;&gt;Node13</title>
<path fill="none" stroke="midnightblue" d="M933.239,-470.083C926.463,-462.298 916.457,-450.801 908.245,-441.367"/>
<polygon fill="midnightblue" stroke="midnightblue" points="910.822,-438.996 901.617,-433.751 905.542,-443.592 910.822,-438.996"/>
</g>
<!-- Node22 -->
<g id="node22" class="node"><title>Node22</title>
<g id="a_node22"><a doxygen="/local/devel/hpp/install/share/doc/hpp-core/doxygen-html/hpp-core.doxytag:../../hpp-core/doxygen-html/" xlink:href="../../hpp-core/doxygen-html/a00179.html" target="_top" xlink:title="hpp/core/problem&#45;solver.hh">
<polygon fill="white" stroke="black" points="928,-179.5 928,-198.5 1062,-198.5 1062,-179.5 928,-179.5"/>
<text text-anchor="middle" x="995" y="-186.5" font-family="Helvetica,sans-Serif" font-size="10.00">hpp/core/problem&#45;solver.hh</text>
</a>
</g>
</g>
<!-- Node12&#45;&gt;Node22 -->
<g id="edge45" class="edge"><title>Node12&#45;&gt;Node22</title>
<path fill="none" stroke="midnightblue" d="M946.701,-470.288C957.967,-452.205 982,-408.946 982,-369 982,-369 982,-369 982,-311 982,-274.687 987.86,-232.592 991.711,-208.847"/>
<polygon fill="midnightblue" stroke="midnightblue" points="995.199,-209.213 993.406,-198.771 988.296,-208.052 995.199,-209.213"/>
</g>
<!-- Node23 -->
<g id="node23" class="node"><title>Node23</title>
<g id="a_node23"><a xlink:href="a00059.html" target="_top" xlink:title="hpp/manipulation/device.hh">
<polygon fill="white" stroke="black" points="1156.5,-179.5 1156.5,-198.5 1291.5,-198.5 1291.5,-179.5 1156.5,-179.5"/>
<text text-anchor="middle" x="1224" y="-186.5" font-family="Helvetica,sans-Serif" font-size="10.00">hpp/manipulation/device.hh</text>
</a>
</g>
</g>
<!-- Node12&#45;&gt;Node23 -->
<g id="edge52" class="edge"><title>Node12&#45;&gt;Node23</title>
<path fill="none" stroke="midnightblue" d="M1011.75,-477.458C1086.91,-471.611 1195,-449.252 1195,-369 1195,-369 1195,-369 1195,-311 1195,-273.703 1208.19,-231.676 1216.78,-208.265"/>
<polygon fill="midnightblue" stroke="midnightblue" points="1220.16,-209.226 1220.44,-198.635 1213.62,-206.737 1220.16,-209.226"/>
</g>
<!-- Node14 -->
<g id="node14" class="node"><title>Node14</title>
<g id="a_node14"><a doxygen="/local/devel/hpp/install/share/doc/hpp-core/doxygen-html/hpp-core.doxytag:../../hpp-core/doxygen-html/" xlink:href="../../hpp-core/doxygen-html/a00203.html" target="_top" xlink:title="hpp/core/steering&#45;method.hh">
<polygon fill="white" stroke="black" points="635,-358.5 635,-377.5 775,-377.5 775,-358.5 635,-358.5"/>
<text text-anchor="middle" x="705" y="-365.5" font-family="Helvetica,sans-Serif" font-size="10.00">hpp/core/steering&#45;method.hh</text>
</a>
</g>
</g>
<!-- Node13&#45;&gt;Node14 -->
<g id="edge16" class="edge"><title>Node13&#45;&gt;Node14</title>
<path fill="none" stroke="midnightblue" d="M864.052,-414.444C831.842,-405.241 780.466,-390.562 744.858,-380.388"/>
<polygon fill="midnightblue" stroke="midnightblue" points="745.384,-376.898 734.808,-377.516 743.461,-383.629 745.384,-376.898"/>
</g>
<!-- Node20 -->
<g id="node20" class="node"><title>Node20</title>
<g id="a_node20"><a doxygen="/local/devel/hpp/install/share/doc/hpp-core/doxygen-html/hpp-core.doxytag:../../hpp-core/doxygen-html/" xlink:href="../../hpp-core/doxygen-html/a00125.html" target="_top" xlink:title="hpp/core/container.hh">
<polygon fill="white" stroke="black" points="1029,-118 1029,-137 1139,-137 1139,-118 1029,-118"/>
<text text-anchor="middle" x="1084" y="-125" font-family="Helvetica,sans-Serif" font-size="10.00">hpp/core/container.hh</text>
</a>
</g>
</g>
<!-- Node13&#45;&gt;Node20 -->
<g id="edge39" class="edge"><title>Node13&#45;&gt;Node20</title>
<path fill="none" stroke="midnightblue" d="M946.524,-416.371C1004.58,-405.76 1090,-378.945 1090,-313 1090,-313 1090,-313 1090,-249.5 1090,-213.169 1087.27,-170.778 1085.49,-147.045"/>
<polygon fill="midnightblue" stroke="midnightblue" points="1088.98,-146.701 1084.71,-137.001 1082,-147.242 1088.98,-146.701"/>
</g>
<!-- Node21 -->
<g id="node21" class="node"><title>Node21</title>
<g id="a_node21"><a doxygen="/local/devel/hpp/install/share/doc/hpp-core/doxygen-html/hpp-core.doxytag:../../hpp-core/doxygen-html/" xlink:href="../../hpp-core/doxygen-html/a00165.html" target="_top" xlink:title="hpp/core/parameter.hh">
<polygon fill="white" stroke="black" points="720,-179.5 720,-198.5 834,-198.5 834,-179.5 720,-179.5"/>
<text text-anchor="middle" x="777" y="-186.5" font-family="Helvetica,sans-Serif" font-size="10.00">hpp/core/parameter.hh</text>
</a>
</g>
</g>
<!-- Node13&#45;&gt;Node21 -->
<g id="edge40" class="edge"><title>Node13&#45;&gt;Node21</title>
<path fill="none" stroke="midnightblue" d="M889.697,-414.431C872.644,-380.47 809.586,-254.894 785.99,-207.903"/>
<polygon fill="midnightblue" stroke="midnightblue" points="789.082,-206.262 781.467,-198.896 782.827,-209.403 789.082,-206.262"/>
</g>
<!-- Node14&#45;&gt;Node3 -->
<g id="edge17" class="edge"><title>Node14&#45;&gt;Node3</title>
<path fill="none" stroke="midnightblue" d="M718.86,-358.191C751.845,-336.235 834.18,-275.309 860,-199 862.849,-190.58 864.152,-186.86 860,-179 851.012,-161.985 833.428,-149.621 817.656,-141.387"/>
<polygon fill="midnightblue" stroke="midnightblue" points="819.182,-138.237 808.658,-137.012 816.121,-144.533 819.182,-138.237"/>
</g>
<!-- Node14&#45;&gt;Node5 -->
<g id="edge20" class="edge"><title>Node14&#45;&gt;Node5</title>
<path fill="none" stroke="midnightblue" d="M634.824,-362.813C456.503,-351.24 0,-315.374 0,-251.5 0,-251.5 0,-251.5 0,-188 0,-116.81 73.0482,-133.227 141,-112 204.96,-92.0197 396.638,-76.8715 490.723,-70.4172"/>
<polygon fill="midnightblue" stroke="midnightblue" points="491.14,-73.8971 500.88,-69.7282 490.666,-66.9131 491.14,-73.8971"/>
</g>
<!-- Node14&#45;&gt;Node6 -->
<g id="edge18" class="edge"><title>Node14&#45;&gt;Node6</title>
<path fill="none" stroke="midnightblue" d="M634.864,-367.781C529.595,-365.937 327.678,-350.477 183,-266 143.08,-242.691 105.376,-220.371 126,-179 134.05,-162.853 149.995,-150.508 164.311,-142.067"/>
<polygon fill="midnightblue" stroke="midnightblue" points="166.305,-144.966 173.385,-137.083 162.935,-138.83 166.305,-144.966"/>
</g>
<!-- Node14&#45;&gt;Node11 -->
<g id="edge19" class="edge"><title>Node14&#45;&gt;Node11</title>
<path fill="none" stroke="midnightblue" d="M714.14,-358.472C735.797,-337.197 786.699,-280.231 763,-235 749.954,-210.102 732.35,-217.284 711,-199 691.274,-182.106 671.065,-160.063 658.075,-145.156"/>
<polygon fill="midnightblue" stroke="midnightblue" points="660.491,-142.599 651.318,-137.297 655.183,-147.162 660.491,-142.599"/>
</g>
<!-- Node15 -->
<g id="node15" class="node"><title>Node15</title>
<g id="a_node15"><a doxygen="/local/devel/hpp/install/share/doc/hpp-core/doxygen-html/hpp-core.doxytag:../../hpp-core/doxygen-html/" xlink:href="../../hpp-core/doxygen-html/a00174.html" target="_top" xlink:title="hpp/core/path.hh">
<polygon fill="white" stroke="black" points="523.5,-302.5 523.5,-321.5 612.5,-321.5 612.5,-302.5 523.5,-302.5"/>
<text text-anchor="middle" x="568" y="-309.5" font-family="Helvetica,sans-Serif" font-size="10.00">hpp/core/path.hh</text>
</a>
</g>
</g>
<!-- Node14&#45;&gt;Node15 -->
<g id="edge21" class="edge"><title>Node14&#45;&gt;Node15</title>
<path fill="none" stroke="midnightblue" d="M683.292,-358.444C660.645,-349.517 624.928,-335.439 599.248,-325.317"/>
<polygon fill="midnightblue" stroke="midnightblue" points="600.193,-321.927 589.606,-321.516 597.626,-328.44 600.193,-321.927"/>
</g>
<!-- Node18 -->
<g id="node18" class="node"><title>Node18</title>
<g id="a_node18"><a doxygen="/local/devel/hpp/install/share/doc/hpp-core/doxygen-html/hpp-core.doxytag:../../hpp-core/doxygen-html/" xlink:href="../../hpp-core/doxygen-html/a00184.html" target="_top" xlink:title="hpp/core/projection\l&#45;error.hh">
<polygon fill="white" stroke="black" points="655.5,-235.5 655.5,-265.5 754.5,-265.5 754.5,-235.5 655.5,-235.5"/>
<text text-anchor="start" x="663.5" y="-253.5" font-family="Helvetica,sans-Serif" font-size="10.00">hpp/core/projection</text>
<text text-anchor="middle" x="705" y="-242.5" font-family="Helvetica,sans-Serif" font-size="10.00">&#45;error.hh</text>
</a>
</g>
</g>
<!-- Node14&#45;&gt;Node18 -->
<g id="edge38" class="edge"><title>Node14&#45;&gt;Node18</title>
<path fill="none" stroke="midnightblue" d="M705,-358.319C705,-340.967 705,-301.457 705,-275.658"/>
<polygon fill="midnightblue" stroke="midnightblue" points="708.5,-275.545 705,-265.545 701.5,-275.545 708.5,-275.545"/>
</g>
<!-- Node15&#45;&gt;Node3 -->
<g id="edge22" class="edge"><title>Node15&#45;&gt;Node3</title>
<path fill="none" stroke="midnightblue" d="M576.669,-302.285C596.102,-282.788 641.779,-237.179 646,-235 725.088,-194.169 786,-267.36 843,-199 859.212,-179.557 832.553,-156.716 810.493,-142.422"/>
<polygon fill="midnightblue" stroke="midnightblue" points="812.109,-139.307 801.761,-137.032 808.432,-145.263 812.109,-139.307"/>
</g>
<!-- Node15&#45;&gt;Node5 -->
<g id="edge25" class="edge"><title>Node15&#45;&gt;Node5</title>
<path fill="none" stroke="midnightblue" d="M523.461,-310.051C480.367,-307.163 414.868,-297.394 368,-266 337.779,-245.757 331.953,-233.686 321,-199 296.546,-121.559 417.451,-87.6988 490.883,-74.4632"/>
<polygon fill="midnightblue" stroke="midnightblue" points="491.652,-77.8824 500.91,-72.7301 490.46,-70.9846 491.652,-77.8824"/>
</g>
<!-- Node15&#45;&gt;Node6 -->
<g id="edge23" class="edge"><title>Node15&#45;&gt;Node6</title>
<path fill="none" stroke="midnightblue" d="M523.495,-306.9C421.48,-296.424 176.203,-264.741 133,-199 119.036,-177.751 145.245,-155.841 167.308,-142.202"/>
<polygon fill="midnightblue" stroke="midnightblue" points="169.22,-145.138 176.075,-137.059 165.678,-139.1 169.22,-145.138"/>
</g>
<!-- Node15&#45;&gt;Node11 -->
<g id="edge24" class="edge"><title>Node15&#45;&gt;Node11</title>
<path fill="none" stroke="midnightblue" d="M573.225,-302.084C581.572,-287.861 598.456,-259.177 613,-235 622.666,-218.932 628.786,-216.692 635,-199 640.936,-182.098 643.034,-161.691 643.738,-147.192"/>
<polygon fill="midnightblue" stroke="midnightblue" points="647.242,-147.112 644.05,-137.01 640.245,-146.898 647.242,-147.112"/>
</g>
<!-- Node16 -->
<g id="node16" class="node"><title>Node16</title>
<g id="a_node16"><a doxygen="/local/devel/hpp/install/share/doc/hpp-core/doxygen-html/hpp-core.doxytag:../../hpp-core/doxygen-html/" xlink:href="../../hpp-core/doxygen-html/a00123.html" target="_top" xlink:title="hpp/core/constraint\l&#45;set.hh">
<polygon fill="white" stroke="black" points="377,-235.5 377,-265.5 477,-265.5 477,-235.5 377,-235.5"/>
<text text-anchor="start" x="385" y="-253.5" font-family="Helvetica,sans-Serif" font-size="10.00">hpp/core/constraint</text>
<text text-anchor="middle" x="427" y="-242.5" font-family="Helvetica,sans-Serif" font-size="10.00">&#45;set.hh</text>
</a>
</g>
</g>
<!-- Node15&#45;&gt;Node16 -->
<g id="edge26" class="edge"><title>Node15&#45;&gt;Node16</title>
<path fill="none" stroke="midnightblue" d="M547.798,-302.475C527.452,-293.889 495.445,-280.383 469.488,-269.429"/>
<polygon fill="midnightblue" stroke="midnightblue" points="470.805,-266.186 460.231,-265.523 468.083,-272.636 470.805,-266.186"/>
</g>
<!-- Node15&#45;&gt;Node18 -->
<g id="edge32" class="edge"><title>Node15&#45;&gt;Node18</title>
<path fill="none" stroke="midnightblue" d="M587.629,-302.475C607.311,-293.927 638.224,-280.501 663.386,-269.573"/>
<polygon fill="midnightblue" stroke="midnightblue" points="664.934,-272.717 672.712,-265.523 662.145,-266.296 664.934,-272.717"/>
</g>
<!-- Node19 -->
<g id="node19" class="node"><title>Node19</title>
<g id="a_node19"><a doxygen="/local/devel/hpp/install/share/doc/hpp-core/doxygen-html/hpp-core.doxytag:../../hpp-core/doxygen-html/" xlink:href="../../hpp-core/doxygen-html/a00208.html" target="_top" xlink:title="hpp/core/time&#45;parameterization.hh">
<polygon fill="white" stroke="black" points="462,-179.5 462,-198.5 626,-198.5 626,-179.5 462,-179.5"/>
<text text-anchor="middle" x="544" y="-186.5" font-family="Helvetica,sans-Serif" font-size="10.00">hpp/core/time&#45;parameterization.hh</text>
</a>
</g>
</g>
<!-- Node15&#45;&gt;Node19 -->
<g id="edge33" class="edge"><title>Node15&#45;&gt;Node19</title>
<path fill="none" stroke="midnightblue" d="M566.274,-302.298C562.399,-282.763 552.938,-235.065 547.679,-208.547"/>
<polygon fill="midnightblue" stroke="midnightblue" points="551.089,-207.751 545.71,-198.623 544.223,-209.113 551.089,-207.751"/>
</g>
<!-- Node17 -->
<g id="node17" class="node"><title>Node17</title>
<g id="a_node17"><a doxygen="/local/devel/hpp/install/share/doc/hpp-core/doxygen-html/hpp-core.doxytag:../../hpp-core/doxygen-html/" xlink:href="../../hpp-core/doxygen-html/a00124.html" target="_top" xlink:title="hpp/core/constraint.hh">
<polygon fill="white" stroke="black" points="330.5,-179.5 330.5,-198.5 443.5,-198.5 443.5,-179.5 330.5,-179.5"/>
<text text-anchor="middle" x="387" y="-186.5" font-family="Helvetica,sans-Serif" font-size="10.00">hpp/core/constraint.hh</text>
</a>
</g>
</g>
<!-- Node16&#45;&gt;Node17 -->
<g id="edge27" class="edge"><title>Node16&#45;&gt;Node17</title>
<path fill="none" stroke="midnightblue" d="M417.521,-235.399C411.828,-226.932 404.546,-216.099 398.522,-207.139"/>
<polygon fill="midnightblue" stroke="midnightblue" points="401.304,-205.004 392.82,-198.658 395.495,-208.909 401.304,-205.004"/>
</g>
<!-- Node17&#45;&gt;Node3 -->
<g id="edge28" class="edge"><title>Node17&#45;&gt;Node3</title>
<path fill="none" stroke="midnightblue" d="M443.706,-180.004C505.711,-171.2 607.986,-156.498 696,-143 707.977,-141.163 720.84,-139.128 732.988,-137.178"/>
<polygon fill="midnightblue" stroke="midnightblue" points="733.673,-140.612 742.989,-135.565 732.559,-133.702 733.673,-140.612"/>
</g>
<!-- Node17&#45;&gt;Node5 -->
<g id="edge31" class="edge"><title>Node17&#45;&gt;Node5</title>
<path fill="none" stroke="midnightblue" d="M398.291,-179.298C424.882,-158.804 491.694,-107.312 524.797,-81.7996"/>
<polygon fill="midnightblue" stroke="midnightblue" points="527.027,-84.4999 532.811,-75.6232 522.754,-78.9554 527.027,-84.4999"/>
</g>
<!-- Node17&#45;&gt;Node6 -->
<g id="edge29" class="edge"><title>Node17&#45;&gt;Node6</title>
<path fill="none" stroke="midnightblue" d="M359.205,-179.475C325.35,-169.092 268.029,-151.512 230.345,-139.954"/>
<polygon fill="midnightblue" stroke="midnightblue" points="231.331,-136.595 220.744,-137.009 229.278,-143.288 231.331,-136.595"/>
</g>
<!-- Node17&#45;&gt;Node11 -->
<g id="edge30" class="edge"><title>Node17&#45;&gt;Node11</title>
<path fill="none" stroke="midnightblue" d="M423.822,-179.475C469.529,-168.893 547.525,-150.836 597.366,-139.297"/>
<polygon fill="midnightblue" stroke="midnightblue" points="598.294,-142.674 607.246,-137.009 596.715,-135.855 598.294,-142.674"/>
</g>
<!-- Node19&#45;&gt;Node3 -->
<g id="edge34" class="edge"><title>Node19&#45;&gt;Node3</title>
<path fill="none" stroke="midnightblue" d="M578.673,-179.475C621.532,-168.937 694.543,-150.986 741.499,-139.441"/>
<polygon fill="midnightblue" stroke="midnightblue" points="742.516,-142.796 751.392,-137.009 740.845,-135.998 742.516,-142.796"/>
</g>
<!-- Node19&#45;&gt;Node5 -->
<g id="edge37" class="edge"><title>Node19&#45;&gt;Node5</title>
<path fill="none" stroke="midnightblue" d="M544,-179.298C544,-159.85 544,-112.49 544,-85.9036"/>
<polygon fill="midnightblue" stroke="midnightblue" points="547.5,-85.6231 544,-75.6232 540.5,-85.6232 547.5,-85.6231"/>
</g>
<!-- Node19&#45;&gt;Node6 -->
<g id="edge35" class="edge"><title>Node19&#45;&gt;Node6</title>
<path fill="none" stroke="midnightblue" d="M493.71,-179.475C427.899,-168.319 313.074,-148.854 245.965,-137.478"/>
<polygon fill="midnightblue" stroke="midnightblue" points="246.465,-134.013 236.02,-135.793 245.295,-140.915 246.465,-134.013"/>
</g>
<!-- Node19&#45;&gt;Node11 -->
<g id="edge36" class="edge"><title>Node19&#45;&gt;Node11</title>
<path fill="none" stroke="midnightblue" d="M558.328,-179.475C574.664,-169.755 601.602,-153.727 620.912,-142.237"/>
<polygon fill="midnightblue" stroke="midnightblue" points="622.895,-145.13 629.699,-137.009 619.315,-139.115 622.895,-145.13"/>
</g>
<!-- Node21&#45;&gt;Node3 -->
<g id="edge41" class="edge"><title>Node21&#45;&gt;Node3</title>
<path fill="none" stroke="midnightblue" d="M778.289,-179.475C779.559,-171.08 781.541,-157.981 783.177,-147.163"/>
<polygon fill="midnightblue" stroke="midnightblue" points="786.678,-147.42 784.713,-137.009 779.757,-146.373 786.678,-147.42"/>
</g>
<!-- Node21&#45;&gt;Node5 -->
<g id="edge44" class="edge"><title>Node21&#45;&gt;Node5</title>
<path fill="none" stroke="midnightblue" d="M768.702,-179.256C751.561,-161.361 712.477,-121.449 696,-112 665.435,-94.4714 627.425,-83.2203 597.062,-76.3519"/>
<polygon fill="midnightblue" stroke="midnightblue" points="597.594,-72.8861 587.079,-74.188 596.111,-79.7272 597.594,-72.8861"/>
</g>
<!-- Node21&#45;&gt;Node6 -->
<g id="edge42" class="edge"><title>Node21&#45;&gt;Node6</title>
<path fill="none" stroke="midnightblue" d="M719.94,-182.187C606.916,-170.671 356.033,-145.11 246.216,-133.922"/>
<polygon fill="midnightblue" stroke="midnightblue" points="246.342,-130.417 236.038,-132.885 245.632,-137.381 246.342,-130.417"/>
</g>
<!-- Node21&#45;&gt;Node11 -->
<g id="edge43" class="edge"><title>Node21&#45;&gt;Node11</title>
<path fill="none" stroke="midnightblue" d="M757.944,-179.475C735.525,-169.445 698.095,-152.7 672.287,-141.155"/>
<polygon fill="midnightblue" stroke="midnightblue" points="673.578,-137.898 663.02,-137.009 670.719,-144.288 673.578,-137.898"/>
</g>
<!-- Node22&#45;&gt;Node3 -->
<g id="edge46" class="edge"><title>Node22&#45;&gt;Node3</title>
<path fill="none" stroke="midnightblue" d="M965.055,-179.475C928.428,-169.048 866.305,-151.362 825.716,-139.807"/>
<polygon fill="midnightblue" stroke="midnightblue" points="826.465,-136.381 815.889,-137.009 824.549,-143.113 826.465,-136.381"/>
</g>
<!-- Node22&#45;&gt;Node5 -->
<g id="edge49" class="edge"><title>Node22&#45;&gt;Node5</title>
<path fill="none" stroke="midnightblue" d="M980.879,-179.361C954.074,-163.379 893.522,-129.258 838,-112 756.364,-86.6258 657.355,-75.2505 597.588,-70.3801"/>
<polygon fill="midnightblue" stroke="midnightblue" points="597.502,-66.8627 587.259,-69.5715 596.956,-73.8413 597.502,-66.8627"/>
</g>
<!-- Node22&#45;&gt;Node6 -->
<g id="edge47" class="edge"><title>Node22&#45;&gt;Node6</title>
<path fill="none" stroke="midnightblue" d="M927.658,-183.004C771.505,-171.419 387.311,-142.916 246.146,-132.443"/>
<polygon fill="midnightblue" stroke="midnightblue" points="246.243,-128.941 236.012,-131.691 245.725,-135.921 246.243,-128.941"/>
</g>
<!-- Node22&#45;&gt;Node11 -->
<g id="edge48" class="edge"><title>Node22&#45;&gt;Node11</title>
<path fill="none" stroke="midnightblue" d="M944.71,-179.475C878.899,-168.319 764.074,-148.854 696.965,-137.478"/>
<polygon fill="midnightblue" stroke="midnightblue" points="697.465,-134.013 687.02,-135.793 696.295,-140.915 697.465,-134.013"/>
</g>
<!-- Node22&#45;&gt;Node20 -->
<g id="edge50" class="edge"><title>Node22&#45;&gt;Node20</title>
<path fill="none" stroke="midnightblue" d="M1007.75,-179.475C1022.03,-169.931 1045.4,-154.307 1062.51,-142.868"/>
<polygon fill="midnightblue" stroke="midnightblue" points="1064.9,-145.477 1071.27,-137.009 1061.01,-139.657 1064.9,-145.477"/>
</g>
<!-- Node23&#45;&gt;Node3 -->
<g id="edge55" class="edge"><title>Node23&#45;&gt;Node3</title>
<path fill="none" stroke="midnightblue" d="M1161.25,-179.475C1074.7,-167.719 920.244,-146.736 839.115,-135.715"/>
<polygon fill="midnightblue" stroke="midnightblue" points="839.499,-132.236 829.119,-134.357 838.557,-139.172 839.499,-132.236"/>
</g>
<!-- Node23&#45;&gt;Node20 -->
<g id="edge54" class="edge"><title>Node23&#45;&gt;Node20</title>
<path fill="none" stroke="midnightblue" d="M1203.94,-179.475C1180.24,-169.401 1140.59,-152.553 1113.42,-141.002"/>
<polygon fill="midnightblue" stroke="midnightblue" points="1114.59,-137.699 1104.02,-137.009 1111.86,-144.142 1114.59,-137.699"/>
</g>
<!-- Node24 -->
<g id="node24" class="node"><title>Node24</title>
<polygon fill="white" stroke="#bfbfbf" points="1309,-112.5 1309,-142.5 1431,-142.5 1431,-112.5 1309,-112.5"/>
<text text-anchor="start" x="1317" y="-130.5" font-family="Helvetica,sans-Serif" font-size="10.00">hpp/pinocchio/humanoid</text>
<text text-anchor="middle" x="1370" y="-119.5" font-family="Helvetica,sans-Serif" font-size="10.00">&#45;robot.hh</text>
</g>
<!-- Node23&#45;&gt;Node24 -->
<g id="edge53" class="edge"><title>Node23&#45;&gt;Node24</title>
<path fill="none" stroke="midnightblue" d="M1244.92,-179.475C1265.99,-170.889 1299.13,-157.383 1326.01,-146.429"/>
<polygon fill="midnightblue" stroke="midnightblue" points="1327.65,-149.538 1335.59,-142.523 1325.01,-143.056 1327.65,-149.538"/>
</g>
<!-- Node25 -->
<g id="node25" class="node"><title>Node25</title>
<polygon fill="white" stroke="#bfbfbf" points="1157.5,-118 1157.5,-137 1290.5,-137 1290.5,-118 1157.5,-118"/>
<text text-anchor="middle" x="1224" y="-125" font-family="Helvetica,sans-Serif" font-size="10.00">hpp/manipulation/config.hh</text>
</g>
<!-- Node23&#45;&gt;Node25 -->
<g id="edge56" class="edge"><title>Node23&#45;&gt;Node25</title>
<path fill="none" stroke="midnightblue" d="M1224,-179.475C1224,-171.08 1224,-157.981 1224,-147.163"/>
<polygon fill="midnightblue" stroke="midnightblue" points="1227.5,-147.009 1224,-137.009 1220.5,-147.009 1227.5,-147.009"/>
</g>
</g>
</svg>
