<?xml version="1.0" encoding="UTF-8" standalone="no"?>
<!DOCTYPE svg PUBLIC "-//W3C//DTD SVG 1.1//EN"
 "http://www.w3.org/Graphics/SVG/1.1/DTD/svg11.dtd">
<!-- Generated by graphviz version 2.38.0 (20140413.2041)
 -->
<!-- Title: constraint&#45;set.hh Pages: 1 -->
<svg width="523pt" height="319pt"
 viewBox="0.00 0.00 523.00 319.00" xmlns="http://www.w3.org/2000/svg" xmlns:xlink="http://www.w3.org/1999/xlink">
<g id="graph0" class="graph" transform="scale(1 1) rotate(0) translate(4 315)">
<title>constraint&#45;set.hh</title>
<polygon fill="white" stroke="none" points="-4,4 -4,-315 519,-315 519,4 -4,4"/>
<!-- Node1 -->
<g id="node1" class="node"><title>Node1</title>
<polygon fill="#bfbfbf" stroke="black" points="175.5,-291.5 175.5,-310.5 264.5,-310.5 264.5,-291.5 175.5,-291.5"/>
<text text-anchor="middle" x="220" y="-298.5" font-family="Helvetica,sans-Serif" font-size="10.00">constraint&#45;set.hh</text>
</g>
<!-- Node2 -->
<g id="node2" class="node"><title>Node2</title>
<g id="a_node2"><a doxygen="/local/devel/hpp/install/share/doc/hpp-core/doxygen-html/hpp-core.doxytag:../../hpp-core/doxygen-html/" xlink:href="../../hpp-core/doxygen-html/a00123.html" target="_top" xlink:title="hpp/core/constraint\l&#45;set.hh">
<polygon fill="white" stroke="black" points="128,-224.5 128,-254.5 228,-254.5 228,-224.5 128,-224.5"/>
<text text-anchor="start" x="136" y="-242.5" font-family="Helvetica,sans-Serif" font-size="10.00">hpp/core/constraint</text>
<text text-anchor="middle" x="178" y="-231.5" font-family="Helvetica,sans-Serif" font-size="10.00">&#45;set.hh</text>
</a>
</g>
</g>
<!-- Node1&#45;&gt;Node2 -->
<g id="edge1" class="edge"><title>Node1&#45;&gt;Node2</title>
<path fill="none" stroke="midnightblue" d="M213.982,-291.475C208.719,-284.019 200.837,-272.852 193.79,-262.869"/>
<polygon fill="midnightblue" stroke="midnightblue" points="196.525,-260.674 187.899,-254.523 190.806,-264.711 196.525,-260.674"/>
</g>
<!-- Node4 -->
<g id="node4" class="node"><title>Node4</title>
<g id="a_node4"><a xlink:href="a00001.html" target="_top" xlink:title="hpp/core/fwd.hh">
<polygon fill="white" stroke="black" points="0,-112.5 0,-131.5 86,-131.5 86,-112.5 0,-112.5"/>
<text text-anchor="middle" x="43" y="-119.5" font-family="Helvetica,sans-Serif" font-size="10.00">hpp/core/fwd.hh</text>
</a>
</g>
</g>
<!-- Node1&#45;&gt;Node4 -->
<g id="edge15" class="edge"><title>Node1&#45;&gt;Node4</title>
<path fill="none" stroke="midnightblue" d="M187.946,-291.439C166.486,-284.431 138.674,-272.74 119,-255 83.1121,-222.639 59.7336,-169.217 49.2923,-141.292"/>
<polygon fill="midnightblue" stroke="midnightblue" points="52.4952,-139.855 45.8192,-131.628 45.9077,-142.222 52.4952,-139.855"/>
</g>
<!-- Node7 -->
<g id="node7" class="node"><title>Node7</title>
<g id="a_node7"><a xlink:href="a00065.html" target="_top" xlink:title="hpp/core/fwd.hh">
<polygon fill="white" stroke="black" points="246,-112.5 246,-131.5 332,-131.5 332,-112.5 246,-112.5"/>
<text text-anchor="middle" x="289" y="-119.5" font-family="Helvetica,sans-Serif" font-size="10.00">hpp/core/fwd.hh</text>
</a>
</g>
</g>
<!-- Node1&#45;&gt;Node7 -->
<g id="edge16" class="edge"><title>Node1&#45;&gt;Node7</title>
<path fill="none" stroke="midnightblue" d="M223.328,-291.463C233.913,-264.311 266.97,-179.512 281.742,-141.618"/>
<polygon fill="midnightblue" stroke="midnightblue" points="285.172,-142.457 285.543,-131.868 278.65,-139.914 285.172,-142.457"/>
</g>
<!-- Node13 -->
<g id="node13" class="node"><title>Node13</title>
<polygon fill="white" stroke="#bfbfbf" points="288.5,-230 288.5,-249 421.5,-249 421.5,-230 288.5,-230"/>
<text text-anchor="middle" x="355" y="-237" font-family="Helvetica,sans-Serif" font-size="10.00">hpp/manipulation/config.hh</text>
</g>
<!-- Node1&#45;&gt;Node13 -->
<g id="edge17" class="edge"><title>Node1&#45;&gt;Node13</title>
<path fill="none" stroke="midnightblue" d="M239.342,-291.475C262.099,-281.445 300.092,-264.7 326.288,-253.155"/>
<polygon fill="midnightblue" stroke="midnightblue" points="327.955,-256.245 335.694,-249.009 325.131,-249.839 327.955,-256.245"/>
</g>
<!-- Node3 -->
<g id="node3" class="node"><title>Node3</title>
<g id="a_node3"><a doxygen="/local/devel/hpp/install/share/doc/hpp-core/doxygen-html/hpp-core.doxytag:../../hpp-core/doxygen-html/" xlink:href="../../hpp-core/doxygen-html/a00124.html" target="_top" xlink:title="hpp/core/constraint.hh">
<polygon fill="white" stroke="black" points="118.5,-168.5 118.5,-187.5 231.5,-187.5 231.5,-168.5 118.5,-168.5"/>
<text text-anchor="middle" x="175" y="-175.5" font-family="Helvetica,sans-Serif" font-size="10.00">hpp/core/constraint.hh</text>
</a>
</g>
</g>
<!-- Node2&#45;&gt;Node3 -->
<g id="edge2" class="edge"><title>Node2&#45;&gt;Node3</title>
<path fill="none" stroke="midnightblue" d="M177.289,-224.399C176.889,-216.466 176.384,-206.458 175.951,-197.858"/>
<polygon fill="midnightblue" stroke="midnightblue" points="179.436,-197.469 175.437,-187.658 172.445,-197.821 179.436,-197.469"/>
</g>
<!-- Node3&#45;&gt;Node4 -->
<g id="edge3" class="edge"><title>Node3&#45;&gt;Node4</title>
<path fill="none" stroke="midnightblue" d="M154.084,-168.444C132.264,-159.517 97.8502,-145.439 73.1078,-135.317"/>
<polygon fill="midnightblue" stroke="midnightblue" points="74.3987,-132.063 63.8179,-131.516 71.7482,-138.542 74.3987,-132.063"/>
</g>
<!-- Node6 -->
<g id="node6" class="node"><title>Node6</title>
<g id="a_node6"><a doxygen="/local/devel/hpp/install/share/doc/hpp-core/doxygen-html/hpp-core.doxytag:../../hpp-core/doxygen-html/" xlink:href="../../hpp-core/doxygen-html/a00001.html" target="_top" xlink:title="hpp/core/fwd.hh">
<polygon fill="white" stroke="black" points="97,-56.5 97,-75.5 183,-75.5 183,-56.5 97,-56.5"/>
<text text-anchor="middle" x="140" y="-63.5" font-family="Helvetica,sans-Serif" font-size="10.00">hpp/core/fwd.hh</text>
</a>
</g>
</g>
<!-- Node3&#45;&gt;Node6 -->
<g id="edge14" class="edge"><title>Node3&#45;&gt;Node6</title>
<path fill="none" stroke="midnightblue" d="M182.629,-168.346C192.838,-155.657 208.605,-131.406 199,-112 192.397,-98.6595 179.735,-88.1941 167.829,-80.7262"/>
<polygon fill="midnightblue" stroke="midnightblue" points="169.391,-77.5866 158.984,-75.6018 165.882,-83.6435 169.391,-77.5866"/>
</g>
<!-- Node3&#45;&gt;Node7 -->
<g id="edge6" class="edge"><title>Node3&#45;&gt;Node7</title>
<path fill="none" stroke="midnightblue" d="M193.064,-168.444C211.575,-159.675 240.581,-145.935 261.855,-135.858"/>
<polygon fill="midnightblue" stroke="midnightblue" points="263.482,-138.96 271.021,-131.516 260.485,-132.634 263.482,-138.96"/>
</g>
<!-- Node12 -->
<g id="node12" class="node"><title>Node12</title>
<g id="a_node12"><a xlink:href="a00066.html" target="_top" xlink:title="hpp/core/fwd.hh">
<polygon fill="white" stroke="black" points="104,-112.5 104,-131.5 190,-131.5 190,-112.5 104,-112.5"/>
<text text-anchor="middle" x="147" y="-119.5" font-family="Helvetica,sans-Serif" font-size="10.00">hpp/core/fwd.hh</text>
</a>
</g>
</g>
<!-- Node3&#45;&gt;Node12 -->
<g id="edge11" class="edge"><title>Node3&#45;&gt;Node12</title>
<path fill="none" stroke="midnightblue" d="M170.376,-168.083C166.544,-160.691 160.976,-149.953 156.235,-140.811"/>
<polygon fill="midnightblue" stroke="midnightblue" points="159.248,-139.018 151.538,-131.751 153.034,-142.24 159.248,-139.018"/>
</g>
<!-- Node5 -->
<g id="node5" class="node"><title>Node5</title>
<polygon fill="white" stroke="#bfbfbf" points="37.5,-56.5 37.5,-75.5 72.5,-75.5 72.5,-56.5 37.5,-56.5"/>
<text text-anchor="middle" x="55" y="-63.5" font-family="Helvetica,sans-Serif" font-size="10.00">map</text>
</g>
<!-- Node4&#45;&gt;Node5 -->
<g id="edge4" class="edge"><title>Node4&#45;&gt;Node5</title>
<path fill="none" stroke="midnightblue" d="M44.9816,-112.083C46.5717,-104.927 48.8588,-94.6353 50.8464,-85.6911"/>
<polygon fill="midnightblue" stroke="midnightblue" points="54.3026,-86.2722 53.0553,-75.7511 47.4693,-84.7537 54.3026,-86.2722"/>
</g>
<!-- Node4&#45;&gt;Node6 -->
<g id="edge5" class="edge"><title>Node4&#45;&gt;Node6</title>
<path fill="none" stroke="midnightblue" d="M58.5847,-112.324C73.9991,-103.743 97.8122,-90.486 115.71,-80.5224"/>
<polygon fill="midnightblue" stroke="midnightblue" points="117.419,-83.5767 124.454,-75.6545 114.014,-77.4606 117.419,-83.5767"/>
</g>
<!-- Node8 -->
<g id="node8" class="node"><title>Node8</title>
<polygon fill="white" stroke="#bfbfbf" points="201,-56.5 201,-75.5 295,-75.5 295,-56.5 201,-56.5"/>
<text text-anchor="middle" x="248" y="-63.5" font-family="Helvetica,sans-Serif" font-size="10.00">hpp/util/pointer.hh</text>
</g>
<!-- Node7&#45;&gt;Node8 -->
<g id="edge7" class="edge"><title>Node7&#45;&gt;Node8</title>
<path fill="none" stroke="midnightblue" d="M282.23,-112.083C276.438,-104.455 267.942,-93.2645 260.862,-83.9408"/>
<polygon fill="midnightblue" stroke="midnightblue" points="263.479,-81.5991 254.644,-75.7511 257.904,-85.8321 263.479,-81.5991"/>
</g>
<!-- Node9 -->
<g id="node9" class="node"><title>Node9</title>
<g id="a_node9"><a doxygen="/local/devel/hpp/install/share/doc/hpp-statistics/doxygen-html/hpp-statistics.doxytag:../../hpp-statistics/doxygen-html/" xlink:href="../../hpp-statistics/doxygen-html/a00009.html" target="_top" xlink:title="hpp/statistics/distribution.hh">
<polygon fill="white" stroke="black" points="313.5,-56.5 313.5,-75.5 452.5,-75.5 452.5,-56.5 313.5,-56.5"/>
<text text-anchor="middle" x="383" y="-63.5" font-family="Helvetica,sans-Serif" font-size="10.00">hpp/statistics/distribution.hh</text>
</a>
</g>
</g>
<!-- Node7&#45;&gt;Node9 -->
<g id="edge8" class="edge"><title>Node7&#45;&gt;Node9</title>
<path fill="none" stroke="midnightblue" d="M304.103,-112.324C318.903,-103.822 341.694,-90.7288 358.982,-80.7975"/>
<polygon fill="midnightblue" stroke="midnightblue" points="361.007,-83.6707 367.935,-75.6545 357.52,-77.6009 361.007,-83.6707"/>
</g>
<!-- Node11 -->
<g id="node11" class="node"><title>Node11</title>
<polygon fill="white" stroke="#bfbfbf" points="471,-56.5 471,-75.5 515,-75.5 515,-56.5 471,-56.5"/>
<text text-anchor="middle" x="493" y="-63.5" font-family="Helvetica,sans-Serif" font-size="10.00">vector</text>
</g>
<!-- Node7&#45;&gt;Node11 -->
<g id="edge10" class="edge"><title>Node7&#45;&gt;Node11</title>
<path fill="none" stroke="midnightblue" d="M322.888,-112.485C355.841,-104.138 407.549,-90.8671 461.023,-76.217"/>
<polygon fill="midnightblue" stroke="midnightblue" points="461.956,-79.5903 470.67,-73.564 460.1,-72.8409 461.956,-79.5903"/>
</g>
<!-- Node10 -->
<g id="node10" class="node"><title>Node10</title>
<g id="a_node10"><a doxygen="/local/devel/hpp/install/share/doc/hpp-statistics/doxygen-html/hpp-statistics.doxytag:../../hpp-statistics/doxygen-html/" xlink:href="../../hpp-statistics/doxygen-html/a00010.html" target="_top" xlink:title="hpp/statistics/fwd.hh">
<polygon fill="white" stroke="black" points="329.5,-0.5 329.5,-19.5 436.5,-19.5 436.5,-0.5 329.5,-0.5"/>
<text text-anchor="middle" x="383" y="-7.5" font-family="Helvetica,sans-Serif" font-size="10.00">hpp/statistics/fwd.hh</text>
</a>
</g>
</g>
<!-- Node9&#45;&gt;Node10 -->
<g id="edge9" class="edge"><title>Node9&#45;&gt;Node10</title>
<path fill="none" stroke="midnightblue" d="M383,-56.083C383,-49.0059 383,-38.8611 383,-29.9865"/>
<polygon fill="midnightblue" stroke="midnightblue" points="386.5,-29.751 383,-19.7511 379.5,-29.7511 386.5,-29.751"/>
</g>
<!-- Node12&#45;&gt;Node5 -->
<g id="edge12" class="edge"><title>Node12&#45;&gt;Node5</title>
<path fill="none" stroke="midnightblue" d="M132.219,-112.324C117.733,-103.822 95.4269,-90.7288 78.5068,-80.7975"/>
<polygon fill="midnightblue" stroke="midnightblue" points="80.1406,-77.6981 69.7447,-75.6545 76.5972,-83.735 80.1406,-77.6981"/>
</g>
<!-- Node12&#45;&gt;Node6 -->
<g id="edge13" class="edge"><title>Node12&#45;&gt;Node6</title>
<path fill="none" stroke="midnightblue" d="M145.844,-112.083C144.916,-104.927 143.582,-94.6353 142.423,-85.6911"/>
<polygon fill="midnightblue" stroke="midnightblue" points="145.891,-85.2181 141.134,-75.7511 138.949,-86.1181 145.891,-85.2181"/>
</g>
</g>
</svg>
