<?xml version="1.0" encoding="UTF-8" standalone="no"?>
<!DOCTYPE svg PUBLIC "-//W3C//DTD SVG 1.1//EN"
 "http://www.w3.org/Graphics/SVG/1.1/DTD/svg11.dtd">
<!-- Generated by graphviz version 2.38.0 (20140413.2041)
 -->
<!-- Title: problem.hh Pages: 1 -->
<svg width="1319pt" height="498pt"
 viewBox="0.00 0.00 1318.50 498.00" xmlns="http://www.w3.org/2000/svg" xmlns:xlink="http://www.w3.org/1999/xlink">
<g id="graph0" class="graph" transform="scale(1 1) rotate(0) translate(4 494)">
<title>problem.hh</title>
<polygon fill="white" stroke="none" points="-4,4 -4,-494 1314.5,-494 1314.5,4 -4,4"/>
<!-- Node1 -->
<g id="node1" class="node"><title>Node1</title>
<polygon fill="#bfbfbf" stroke="black" points="403.5,-470.5 403.5,-489.5 468.5,-489.5 468.5,-470.5 403.5,-470.5"/>
<text text-anchor="middle" x="436" y="-477.5" font-family="Helvetica,sans-Serif" font-size="10.00">problem.hh</text>
</g>
<!-- Node2 -->
<g id="node2" class="node"><title>Node2</title>
<g id="a_node2"><a doxygen="/local/devel/hpp/install/share/doc/hpp-core/doxygen-html/hpp-core.doxytag:../../hpp-core/doxygen-html/" xlink:href="../../hpp-core/doxygen-html/a00181.html" target="_top" xlink:title="hpp/core/problem.hh">
<polygon fill="white" stroke="black" points="529.5,-414.5 529.5,-433.5 634.5,-433.5 634.5,-414.5 529.5,-414.5"/>
<text text-anchor="middle" x="582" y="-421.5" font-family="Helvetica,sans-Serif" font-size="10.00">hpp/core/problem.hh</text>
</a>
</g>
</g>
<!-- Node1&#45;&gt;Node2 -->
<g id="edge1" class="edge"><title>Node1&#45;&gt;Node2</title>
<path fill="none" stroke="midnightblue" d="M459.134,-470.444C483.482,-461.438 522.007,-447.189 549.423,-437.049"/>
<polygon fill="midnightblue" stroke="midnightblue" points="550.809,-440.268 558.974,-433.516 548.381,-433.703 550.809,-440.268"/>
</g>
<!-- Node4 -->
<g id="node4" class="node"><title>Node4</title>
<g id="a_node4"><a xlink:href="a00001.html" target="_top" xlink:title="hpp/core/fwd.hh">
<polygon fill="white" stroke="black" points="541,-118 541,-137 627,-137 627,-118 541,-118"/>
<text text-anchor="middle" x="584" y="-125" font-family="Helvetica,sans-Serif" font-size="10.00">hpp/core/fwd.hh</text>
</a>
</g>
</g>
<!-- Node1&#45;&gt;Node4 -->
<g id="edge45" class="edge"><title>Node1&#45;&gt;Node4</title>
<path fill="none" stroke="midnightblue" d="M420.313,-470.396C393.33,-454.314 341,-416.943 341,-369 341,-369 341,-369 341,-249.5 341,-217.049 336.582,-201.465 360,-179 384.085,-155.894 472.497,-141.41 530.78,-134.153"/>
<polygon fill="midnightblue" stroke="midnightblue" points="531.425,-137.601 540.932,-132.924 530.584,-130.652 531.425,-137.601"/>
</g>
<!-- Node7 -->
<g id="node7" class="node"><title>Node7</title>
<g id="a_node7"><a xlink:href="a00065.html" target="_top" xlink:title="hpp/core/fwd.hh">
<polygon fill="white" stroke="black" points="1063,-118 1063,-137 1149,-137 1149,-118 1063,-118"/>
<text text-anchor="middle" x="1106" y="-125" font-family="Helvetica,sans-Serif" font-size="10.00">hpp/core/fwd.hh</text>
</a>
</g>
</g>
<!-- Node1&#45;&gt;Node7 -->
<g id="edge51" class="edge"><title>Node1&#45;&gt;Node7</title>
<path fill="none" stroke="midnightblue" d="M468.607,-478.253C623.899,-474.272 1281,-452.493 1281,-369 1281,-369 1281,-369 1281,-249.5 1281,-187.733 1206.33,-155.031 1154.54,-139.778"/>
<polygon fill="midnightblue" stroke="midnightblue" points="1155.41,-136.387 1144.84,-137.043 1153.51,-143.125 1155.41,-136.387"/>
</g>
<!-- Node20 -->
<g id="node20" class="node"><title>Node20</title>
<g id="a_node20"><a doxygen="/local/devel/hpp/install/share/doc/hpp-core/doxygen-html/hpp-core.doxytag:../../hpp-core/doxygen-html/" xlink:href="../../hpp-core/doxygen-html/a00179.html" target="_top" xlink:title="hpp/core/problem&#45;solver.hh">
<polygon fill="white" stroke="black" points="369,-179.5 369,-198.5 503,-198.5 503,-179.5 369,-179.5"/>
<text text-anchor="middle" x="436" y="-186.5" font-family="Helvetica,sans-Serif" font-size="10.00">hpp/core/problem&#45;solver.hh</text>
</a>
</g>
</g>
<!-- Node1&#45;&gt;Node20 -->
<g id="edge39" class="edge"><title>Node1&#45;&gt;Node20</title>
<path fill="none" stroke="midnightblue" d="M436,-470.442C436,-451.936 436,-406.812 436,-369 436,-369 436,-369 436,-311 436,-274.714 436,-232.307 436,-208.559"/>
<polygon fill="midnightblue" stroke="midnightblue" points="439.5,-208.509 436,-198.509 432.5,-208.509 439.5,-208.509"/>
</g>
<!-- Node21 -->
<g id="node21" class="node"><title>Node21</title>
<g id="a_node21"><a xlink:href="a00059.html" target="_top" xlink:title="hpp/manipulation/device.hh">
<polygon fill="white" stroke="black" points="139.5,-179.5 139.5,-198.5 274.5,-198.5 274.5,-179.5 139.5,-179.5"/>
<text text-anchor="middle" x="207" y="-186.5" font-family="Helvetica,sans-Serif" font-size="10.00">hpp/manipulation/device.hh</text>
</a>
</g>
</g>
<!-- Node1&#45;&gt;Node21 -->
<g id="edge46" class="edge"><title>Node1&#45;&gt;Node21</title>
<path fill="none" stroke="midnightblue" d="M403.421,-475.907C346.749,-468.542 236,-444.49 236,-369 236,-369 236,-369 236,-311 236,-273.703 222.809,-231.676 214.22,-208.265"/>
<polygon fill="midnightblue" stroke="midnightblue" points="217.383,-206.737 210.556,-198.635 210.841,-209.226 217.383,-206.737"/>
</g>
<!-- Node3 -->
<g id="node3" class="node"><title>Node3</title>
<g id="a_node3"><a doxygen="/local/devel/hpp/install/share/doc/hpp-core/doxygen-html/hpp-core.doxytag:../../hpp-core/doxygen-html/" xlink:href="../../hpp-core/doxygen-html/a00203.html" target="_top" xlink:title="hpp/core/steering&#45;method.hh">
<polygon fill="white" stroke="black" points="577,-358.5 577,-377.5 717,-377.5 717,-358.5 577,-358.5"/>
<text text-anchor="middle" x="647" y="-365.5" font-family="Helvetica,sans-Serif" font-size="10.00">hpp/core/steering&#45;method.hh</text>
</a>
</g>
</g>
<!-- Node2&#45;&gt;Node3 -->
<g id="edge2" class="edge"><title>Node2&#45;&gt;Node3</title>
<path fill="none" stroke="midnightblue" d="M592.443,-414.324C602.146,-406.263 616.815,-394.077 628.5,-384.369"/>
<polygon fill="midnightblue" stroke="midnightblue" points="630.911,-386.916 636.367,-377.834 626.438,-381.532 630.911,-386.916"/>
</g>
<!-- Node18 -->
<g id="node18" class="node"><title>Node18</title>
<g id="a_node18"><a doxygen="/local/devel/hpp/install/share/doc/hpp-core/doxygen-html/hpp-core.doxytag:../../hpp-core/doxygen-html/" xlink:href="../../hpp-core/doxygen-html/a00125.html" target="_top" xlink:title="hpp/core/container.hh">
<polygon fill="white" stroke="black" points="292,-118 292,-137 402,-137 402,-118 292,-118"/>
<text text-anchor="middle" x="347" y="-125" font-family="Helvetica,sans-Serif" font-size="10.00">hpp/core/container.hh</text>
</a>
</g>
</g>
<!-- Node2&#45;&gt;Node18 -->
<g id="edge33" class="edge"><title>Node2&#45;&gt;Node18</title>
<path fill="none" stroke="midnightblue" d="M564.505,-414.467C515.608,-389.498 377.781,-311.198 327,-199 319.157,-181.672 327.295,-160.539 335.424,-145.955"/>
<polygon fill="midnightblue" stroke="midnightblue" points="338.645,-147.394 340.853,-137.032 332.665,-143.756 338.645,-147.394"/>
</g>
<!-- Node19 -->
<g id="node19" class="node"><title>Node19</title>
<g id="a_node19"><a doxygen="/local/devel/hpp/install/share/doc/hpp-core/doxygen-html/hpp-core.doxytag:../../hpp-core/doxygen-html/" xlink:href="../../hpp-core/doxygen-html/a00165.html" target="_top" xlink:title="hpp/core/parameter.hh">
<polygon fill="white" stroke="black" points="1025,-179.5 1025,-198.5 1139,-198.5 1139,-179.5 1025,-179.5"/>
<text text-anchor="middle" x="1082" y="-186.5" font-family="Helvetica,sans-Serif" font-size="10.00">hpp/core/parameter.hh</text>
</a>
</g>
</g>
<!-- Node2&#45;&gt;Node19 -->
<g id="edge34" class="edge"><title>Node2&#45;&gt;Node19</title>
<path fill="none" stroke="midnightblue" d="M612.659,-414.45C642.031,-406.017 687.46,-392.341 726,-378 784.579,-356.203 799.178,-350.115 855,-322 899.459,-299.608 908.957,-291.006 952,-266 989.246,-244.362 1032.4,-219.094 1058.43,-203.833"/>
<polygon fill="midnightblue" stroke="midnightblue" points="1060.34,-206.767 1067.2,-198.689 1056.8,-200.729 1060.34,-206.767"/>
</g>
<!-- Node3&#45;&gt;Node4 -->
<g id="edge3" class="edge"><title>Node3&#45;&gt;Node4</title>
<path fill="none" stroke="midnightblue" d="M608.155,-358.364C588.623,-351.847 566.673,-340.704 555,-322 519.807,-265.609 555.361,-182.367 574.068,-146.272"/>
<polygon fill="midnightblue" stroke="midnightblue" points="577.382,-147.498 579.031,-137.032 571.216,-144.186 577.382,-147.498"/>
</g>
<!-- Node6 -->
<g id="node6" class="node"><title>Node6</title>
<g id="a_node6"><a doxygen="/local/devel/hpp/install/share/doc/hpp-core/doxygen-html/hpp-core.doxytag:../../hpp-core/doxygen-html/" xlink:href="../../hpp-core/doxygen-html/a00001.html" target="_top" xlink:title="hpp/core/fwd.hh">
<polygon fill="white" stroke="black" points="786,-56.5 786,-75.5 872,-75.5 872,-56.5 786,-56.5"/>
<text text-anchor="middle" x="829" y="-63.5" font-family="Helvetica,sans-Serif" font-size="10.00">hpp/core/fwd.hh</text>
</a>
</g>
</g>
<!-- Node3&#45;&gt;Node6 -->
<g id="edge14" class="edge"><title>Node3&#45;&gt;Node6</title>
<path fill="none" stroke="midnightblue" d="M717.121,-367.964C874.669,-368.243 1243,-357.556 1243,-251.5 1243,-251.5 1243,-251.5 1243,-188 1243,-137.324 1204,-133.252 1158,-112 1110.17,-89.9037 962.904,-76.4194 882.591,-70.5143"/>
<polygon fill="midnightblue" stroke="midnightblue" points="882.419,-66.9929 872.193,-69.7646 881.915,-73.9748 882.419,-66.9929"/>
</g>
<!-- Node3&#45;&gt;Node7 -->
<g id="edge6" class="edge"><title>Node3&#45;&gt;Node7</title>
<path fill="none" stroke="midnightblue" d="M717.107,-359.518C804.067,-348.219 955.231,-321.882 1073,-266 1118.38,-244.469 1141.34,-243.822 1164,-199 1175.09,-177.068 1151.47,-155.841 1131.11,-142.51"/>
<polygon fill="midnightblue" stroke="midnightblue" points="1132.76,-139.415 1122.42,-137.134 1129.08,-145.369 1132.76,-139.415"/>
</g>
<!-- Node12 -->
<g id="node12" class="node"><title>Node12</title>
<g id="a_node12"><a xlink:href="a00066.html" target="_top" xlink:title="hpp/core/fwd.hh">
<polygon fill="white" stroke="black" points="673,-118 673,-137 759,-137 759,-118 673,-118"/>
<text text-anchor="middle" x="716" y="-125" font-family="Helvetica,sans-Serif" font-size="10.00">hpp/core/fwd.hh</text>
</a>
</g>
</g>
<!-- Node3&#45;&gt;Node12 -->
<g id="edge11" class="edge"><title>Node3&#45;&gt;Node12</title>
<path fill="none" stroke="midnightblue" d="M637.679,-358.302C616.143,-337.105 566.369,-281.137 588,-235 608.685,-190.88 657.625,-158.688 688.643,-141.844"/>
<polygon fill="midnightblue" stroke="midnightblue" points="690.42,-144.865 697.643,-137.114 687.163,-138.669 690.42,-144.865"/>
</g>
<!-- Node13 -->
<g id="node13" class="node"><title>Node13</title>
<g id="a_node13"><a doxygen="/local/devel/hpp/install/share/doc/hpp-core/doxygen-html/hpp-core.doxytag:../../hpp-core/doxygen-html/" xlink:href="../../hpp-core/doxygen-html/a00174.html" target="_top" xlink:title="hpp/core/path.hh">
<polygon fill="white" stroke="black" points="757.5,-302.5 757.5,-321.5 846.5,-321.5 846.5,-302.5 757.5,-302.5"/>
<text text-anchor="middle" x="802" y="-309.5" font-family="Helvetica,sans-Serif" font-size="10.00">hpp/core/path.hh</text>
</a>
</g>
</g>
<!-- Node3&#45;&gt;Node13 -->
<g id="edge15" class="edge"><title>Node3&#45;&gt;Node13</title>
<path fill="none" stroke="midnightblue" d="M671.56,-358.444C697.523,-349.399 738.668,-335.064 767.797,-324.916"/>
<polygon fill="midnightblue" stroke="midnightblue" points="769.263,-328.112 777.555,-321.516 766.96,-321.501 769.263,-328.112"/>
</g>
<!-- Node16 -->
<g id="node16" class="node"><title>Node16</title>
<g id="a_node16"><a doxygen="/local/devel/hpp/install/share/doc/hpp-core/doxygen-html/hpp-core.doxytag:../../hpp-core/doxygen-html/" xlink:href="../../hpp-core/doxygen-html/a00184.html" target="_top" xlink:title="hpp/core/projection\l&#45;error.hh">
<polygon fill="white" stroke="black" points="597.5,-235.5 597.5,-265.5 696.5,-265.5 696.5,-235.5 597.5,-235.5"/>
<text text-anchor="start" x="605.5" y="-253.5" font-family="Helvetica,sans-Serif" font-size="10.00">hpp/core/projection</text>
<text text-anchor="middle" x="647" y="-242.5" font-family="Helvetica,sans-Serif" font-size="10.00">&#45;error.hh</text>
</a>
</g>
</g>
<!-- Node3&#45;&gt;Node16 -->
<g id="edge32" class="edge"><title>Node3&#45;&gt;Node16</title>
<path fill="none" stroke="midnightblue" d="M647,-358.319C647,-340.967 647,-301.457 647,-275.658"/>
<polygon fill="midnightblue" stroke="midnightblue" points="650.5,-275.545 647,-265.545 643.5,-275.545 650.5,-275.545"/>
</g>
<!-- Node5 -->
<g id="node5" class="node"><title>Node5</title>
<polygon fill="white" stroke="#bfbfbf" points="632.5,-56.5 632.5,-75.5 667.5,-75.5 667.5,-56.5 632.5,-56.5"/>
<text text-anchor="middle" x="650" y="-63.5" font-family="Helvetica,sans-Serif" font-size="10.00">map</text>
</g>
<!-- Node4&#45;&gt;Node5 -->
<g id="edge4" class="edge"><title>Node4&#45;&gt;Node5</title>
<path fill="none" stroke="midnightblue" d="M593.456,-117.975C603.748,-108.697 620.416,-93.6706 632.994,-82.331"/>
<polygon fill="midnightblue" stroke="midnightblue" points="635.478,-84.8046 640.561,-75.5091 630.79,-79.6054 635.478,-84.8046"/>
</g>
<!-- Node4&#45;&gt;Node6 -->
<g id="edge5" class="edge"><title>Node4&#45;&gt;Node6</title>
<path fill="none" stroke="midnightblue" d="M619.103,-117.975C662.493,-107.437 736.409,-89.4863 783.947,-77.9415"/>
<polygon fill="midnightblue" stroke="midnightblue" points="785.071,-81.2703 793.963,-75.5091 783.419,-74.468 785.071,-81.2703"/>
</g>
<!-- Node8 -->
<g id="node8" class="node"><title>Node8</title>
<polygon fill="white" stroke="#bfbfbf" points="1059,-56.5 1059,-75.5 1153,-75.5 1153,-56.5 1059,-56.5"/>
<text text-anchor="middle" x="1106" y="-63.5" font-family="Helvetica,sans-Serif" font-size="10.00">hpp/util/pointer.hh</text>
</g>
<!-- Node7&#45;&gt;Node8 -->
<g id="edge7" class="edge"><title>Node7&#45;&gt;Node8</title>
<path fill="none" stroke="midnightblue" d="M1106,-117.975C1106,-109.58 1106,-96.4806 1106,-85.6631"/>
<polygon fill="midnightblue" stroke="midnightblue" points="1109.5,-85.5091 1106,-75.5091 1102.5,-85.5091 1109.5,-85.5091"/>
</g>
<!-- Node9 -->
<g id="node9" class="node"><title>Node9</title>
<g id="a_node9"><a doxygen="/local/devel/hpp/install/share/doc/hpp-statistics/doxygen-html/hpp-statistics.doxytag:../../hpp-statistics/doxygen-html/" xlink:href="../../hpp-statistics/doxygen-html/a00009.html" target="_top" xlink:title="hpp/statistics/distribution.hh">
<polygon fill="white" stroke="black" points="1171.5,-56.5 1171.5,-75.5 1310.5,-75.5 1310.5,-56.5 1171.5,-56.5"/>
<text text-anchor="middle" x="1241" y="-63.5" font-family="Helvetica,sans-Serif" font-size="10.00">hpp/statistics/distribution.hh</text>
</a>
</g>
</g>
<!-- Node7&#45;&gt;Node9 -->
<g id="edge8" class="edge"><title>Node7&#45;&gt;Node9</title>
<path fill="none" stroke="midnightblue" d="M1125.34,-117.975C1148.1,-107.945 1186.09,-91.2002 1212.29,-79.6546"/>
<polygon fill="midnightblue" stroke="midnightblue" points="1213.95,-82.7449 1221.69,-75.5091 1211.13,-76.3395 1213.95,-82.7449"/>
</g>
<!-- Node11 -->
<g id="node11" class="node"><title>Node11</title>
<polygon fill="white" stroke="#bfbfbf" points="997,-56.5 997,-75.5 1041,-75.5 1041,-56.5 997,-56.5"/>
<text text-anchor="middle" x="1019" y="-63.5" font-family="Helvetica,sans-Serif" font-size="10.00">vector</text>
</g>
<!-- Node7&#45;&gt;Node11 -->
<g id="edge10" class="edge"><title>Node7&#45;&gt;Node11</title>
<path fill="none" stroke="midnightblue" d="M1093.54,-117.975C1079.58,-108.431 1056.74,-92.8073 1040.01,-81.3683"/>
<polygon fill="midnightblue" stroke="midnightblue" points="1041.67,-78.2653 1031.44,-75.5091 1037.72,-84.0433 1041.67,-78.2653"/>
</g>
<!-- Node10 -->
<g id="node10" class="node"><title>Node10</title>
<g id="a_node10"><a doxygen="/local/devel/hpp/install/share/doc/hpp-statistics/doxygen-html/hpp-statistics.doxytag:../../hpp-statistics/doxygen-html/" xlink:href="../../hpp-statistics/doxygen-html/a00010.html" target="_top" xlink:title="hpp/statistics/fwd.hh">
<polygon fill="white" stroke="black" points="1187.5,-0.5 1187.5,-19.5 1294.5,-19.5 1294.5,-0.5 1187.5,-0.5"/>
<text text-anchor="middle" x="1241" y="-7.5" font-family="Helvetica,sans-Serif" font-size="10.00">hpp/statistics/fwd.hh</text>
</a>
</g>
</g>
<!-- Node9&#45;&gt;Node10 -->
<g id="edge9" class="edge"><title>Node9&#45;&gt;Node10</title>
<path fill="none" stroke="midnightblue" d="M1241,-56.083C1241,-49.0059 1241,-38.8611 1241,-29.9865"/>
<polygon fill="midnightblue" stroke="midnightblue" points="1244.5,-29.751 1241,-19.7511 1237.5,-29.7511 1244.5,-29.751"/>
</g>
<!-- Node12&#45;&gt;Node5 -->
<g id="edge12" class="edge"><title>Node12&#45;&gt;Node5</title>
<path fill="none" stroke="midnightblue" d="M706.544,-117.975C696.252,-108.697 679.584,-93.6706 667.006,-82.331"/>
<polygon fill="midnightblue" stroke="midnightblue" points="669.21,-79.6054 659.439,-75.5091 664.522,-84.8046 669.21,-79.6054"/>
</g>
<!-- Node12&#45;&gt;Node6 -->
<g id="edge13" class="edge"><title>Node12&#45;&gt;Node6</title>
<path fill="none" stroke="midnightblue" d="M732.19,-117.975C750.902,-108.122 781.923,-91.7883 803.799,-80.2697"/>
<polygon fill="midnightblue" stroke="midnightblue" points="805.622,-83.2651 812.84,-75.5091 802.361,-77.0713 805.622,-83.2651"/>
</g>
<!-- Node13&#45;&gt;Node4 -->
<g id="edge16" class="edge"><title>Node13&#45;&gt;Node4</title>
<path fill="none" stroke="midnightblue" d="M789.122,-302.465C776.154,-293.717 755.726,-279.519 739,-266 723.096,-253.145 720.753,-248.039 705,-235 684.457,-217.997 677.297,-216.296 657,-199 636.18,-181.259 613.765,-159.107 599.346,-144.42"/>
<polygon fill="midnightblue" stroke="midnightblue" points="601.704,-141.825 592.22,-137.103 596.69,-146.709 601.704,-141.825"/>
</g>
<!-- Node13&#45;&gt;Node6 -->
<g id="edge19" class="edge"><title>Node13&#45;&gt;Node6</title>
<path fill="none" stroke="midnightblue" d="M836.08,-302.439C880.433,-289.091 954.992,-258.446 978,-199 1000.68,-140.412 916.017,-98.4712 865.025,-79.0774"/>
<polygon fill="midnightblue" stroke="midnightblue" points="866.216,-75.7864 855.623,-75.6102 863.794,-82.3541 866.216,-75.7864"/>
</g>
<!-- Node13&#45;&gt;Node7 -->
<g id="edge17" class="edge"><title>Node13&#45;&gt;Node7</title>
<path fill="none" stroke="midnightblue" d="M846.683,-303.733C932.653,-288.678 1115.49,-251.089 1148,-199 1159.76,-180.165 1141.64,-158.137 1125.66,-143.783"/>
<polygon fill="midnightblue" stroke="midnightblue" points="1127.56,-140.812 1117.67,-137.033 1123.05,-146.16 1127.56,-140.812"/>
</g>
<!-- Node13&#45;&gt;Node12 -->
<g id="edge18" class="edge"><title>Node13&#45;&gt;Node12</title>
<path fill="none" stroke="midnightblue" d="M796.714,-302.447C786.935,-287.199 764.663,-255.044 739,-235 709.861,-212.24 683.692,-230.295 664,-199 651.286,-178.795 673.711,-156.864 692.965,-142.919"/>
<polygon fill="midnightblue" stroke="midnightblue" points="695.177,-145.646 701.451,-137.108 691.222,-139.87 695.177,-145.646"/>
</g>
<!-- Node14 -->
<g id="node14" class="node"><title>Node14</title>
<g id="a_node14"><a doxygen="/local/devel/hpp/install/share/doc/hpp-core/doxygen-html/hpp-core.doxytag:../../hpp-core/doxygen-html/" xlink:href="../../hpp-core/doxygen-html/a00123.html" target="_top" xlink:title="hpp/core/constraint\l&#45;set.hh">
<polygon fill="white" stroke="black" points="791,-235.5 791,-265.5 891,-265.5 891,-235.5 791,-235.5"/>
<text text-anchor="start" x="799" y="-253.5" font-family="Helvetica,sans-Serif" font-size="10.00">hpp/core/constraint</text>
<text text-anchor="middle" x="841" y="-242.5" font-family="Helvetica,sans-Serif" font-size="10.00">&#45;set.hh</text>
</a>
</g>
</g>
<!-- Node13&#45;&gt;Node14 -->
<g id="edge20" class="edge"><title>Node13&#45;&gt;Node14</title>
<path fill="none" stroke="midnightblue" d="M807.588,-302.475C812.425,-295.094 819.647,-284.077 826.14,-274.171"/>
<polygon fill="midnightblue" stroke="midnightblue" points="829.254,-275.805 831.808,-265.523 823.399,-271.968 829.254,-275.805"/>
</g>
<!-- Node13&#45;&gt;Node16 -->
<g id="edge26" class="edge"><title>Node13&#45;&gt;Node16</title>
<path fill="none" stroke="midnightblue" d="M779.792,-302.475C757.23,-293.814 721.622,-280.145 692.957,-269.141"/>
<polygon fill="midnightblue" stroke="midnightblue" points="694.121,-265.839 683.53,-265.523 691.612,-272.374 694.121,-265.839"/>
</g>
<!-- Node17 -->
<g id="node17" class="node"><title>Node17</title>
<g id="a_node17"><a doxygen="/local/devel/hpp/install/share/doc/hpp-core/doxygen-html/hpp-core.doxytag:../../hpp-core/doxygen-html/" xlink:href="../../hpp-core/doxygen-html/a00208.html" target="_top" xlink:title="hpp/core/time&#45;parameterization.hh">
<polygon fill="white" stroke="black" points="805,-179.5 805,-198.5 969,-198.5 969,-179.5 805,-179.5"/>
<text text-anchor="middle" x="887" y="-186.5" font-family="Helvetica,sans-Serif" font-size="10.00">hpp/core/time&#45;parameterization.hh</text>
</a>
</g>
</g>
<!-- Node13&#45;&gt;Node17 -->
<g id="edge27" class="edge"><title>Node13&#45;&gt;Node17</title>
<path fill="none" stroke="midnightblue" d="M845.067,-302.486C865.396,-296.074 887.823,-284.991 900,-266 911.249,-248.456 904.008,-224.142 896.606,-207.782"/>
<polygon fill="midnightblue" stroke="midnightblue" points="899.711,-206.165 892.14,-198.754 893.437,-209.269 899.711,-206.165"/>
</g>
<!-- Node15 -->
<g id="node15" class="node"><title>Node15</title>
<g id="a_node15"><a doxygen="/local/devel/hpp/install/share/doc/hpp-core/doxygen-html/hpp-core.doxytag:../../hpp-core/doxygen-html/" xlink:href="../../hpp-core/doxygen-html/a00124.html" target="_top" xlink:title="hpp/core/constraint.hh">
<polygon fill="white" stroke="black" points="673.5,-179.5 673.5,-198.5 786.5,-198.5 786.5,-179.5 673.5,-179.5"/>
<text text-anchor="middle" x="730" y="-186.5" font-family="Helvetica,sans-Serif" font-size="10.00">hpp/core/constraint.hh</text>
</a>
</g>
</g>
<!-- Node14&#45;&gt;Node15 -->
<g id="edge21" class="edge"><title>Node14&#45;&gt;Node15</title>
<path fill="none" stroke="midnightblue" d="M814.695,-235.399C796.736,-225.773 773.076,-213.09 755.329,-203.577"/>
<polygon fill="midnightblue" stroke="midnightblue" points="756.619,-200.297 746.151,-198.658 753.312,-206.467 756.619,-200.297"/>
</g>
<!-- Node15&#45;&gt;Node4 -->
<g id="edge22" class="edge"><title>Node15&#45;&gt;Node4</title>
<path fill="none" stroke="midnightblue" d="M709.082,-179.475C684.254,-169.357 642.657,-152.405 614.306,-140.851"/>
<polygon fill="midnightblue" stroke="midnightblue" points="615.461,-137.542 604.879,-137.009 612.819,-144.024 615.461,-137.542"/>
</g>
<!-- Node15&#45;&gt;Node6 -->
<g id="edge25" class="edge"><title>Node15&#45;&gt;Node6</title>
<path fill="none" stroke="midnightblue" d="M737.349,-179.427C745.051,-170.412 757.471,-155.788 768,-143 784.541,-122.91 803.226,-99.5254 815.508,-84.0579"/>
<polygon fill="midnightblue" stroke="midnightblue" points="818.465,-85.9612 821.934,-75.9504 812.979,-81.6128 818.465,-85.9612"/>
</g>
<!-- Node15&#45;&gt;Node7 -->
<g id="edge23" class="edge"><title>Node15&#45;&gt;Node7</title>
<path fill="none" stroke="midnightblue" d="M783.872,-179.475C855.482,-168.143 981.269,-148.238 1052.63,-136.946"/>
<polygon fill="midnightblue" stroke="midnightblue" points="1053.42,-140.365 1062.75,-135.344 1052.32,-133.451 1053.42,-140.365"/>
</g>
<!-- Node15&#45;&gt;Node12 -->
<g id="edge24" class="edge"><title>Node15&#45;&gt;Node12</title>
<path fill="none" stroke="midnightblue" d="M727.994,-179.475C725.998,-170.992 722.872,-157.704 720.311,-146.822"/>
<polygon fill="midnightblue" stroke="midnightblue" points="723.7,-145.942 718.002,-137.009 716.886,-147.545 723.7,-145.942"/>
</g>
<!-- Node17&#45;&gt;Node4 -->
<g id="edge28" class="edge"><title>Node17&#45;&gt;Node4</title>
<path fill="none" stroke="midnightblue" d="M843.587,-179.475C789.137,-168.783 695.819,-150.458 637.152,-138.937"/>
<polygon fill="midnightblue" stroke="midnightblue" points="637.819,-135.502 627.332,-137.009 636.47,-142.37 637.819,-135.502"/>
</g>
<!-- Node17&#45;&gt;Node6 -->
<g id="edge31" class="edge"><title>Node17&#45;&gt;Node6</title>
<path fill="none" stroke="midnightblue" d="M882.829,-179.298C873.381,-159.589 850.192,-111.211 837.552,-84.842"/>
<polygon fill="midnightblue" stroke="midnightblue" points="840.612,-83.1279 833.133,-75.6232 834.3,-86.1536 840.612,-83.1279"/>
</g>
<!-- Node17&#45;&gt;Node7 -->
<g id="edge29" class="edge"><title>Node17&#45;&gt;Node7</title>
<path fill="none" stroke="midnightblue" d="M918.377,-179.475C956.919,-169.004 1022.41,-151.212 1064.92,-139.66"/>
<polygon fill="midnightblue" stroke="midnightblue" points="1065.95,-143.009 1074.68,-137.009 1064.11,-136.253 1065.95,-143.009"/>
</g>
<!-- Node17&#45;&gt;Node12 -->
<g id="edge30" class="edge"><title>Node17&#45;&gt;Node12</title>
<path fill="none" stroke="midnightblue" d="M862.5,-179.475C833.04,-169.225 783.421,-151.959 750.198,-140.399"/>
<polygon fill="midnightblue" stroke="midnightblue" points="751.05,-136.99 740.455,-137.009 748.749,-143.601 751.05,-136.99"/>
</g>
<!-- Node19&#45;&gt;Node4 -->
<g id="edge35" class="edge"><title>Node19&#45;&gt;Node4</title>
<path fill="none" stroke="midnightblue" d="M1024.7,-183.149C944.018,-176.019 792.408,-161.524 664,-143 655.271,-141.741 646.037,-140.232 637.064,-138.671"/>
<polygon fill="midnightblue" stroke="midnightblue" points="637.545,-135.202 627.086,-136.897 636.319,-142.094 637.545,-135.202"/>
</g>
<!-- Node19&#45;&gt;Node6 -->
<g id="edge38" class="edge"><title>Node19&#45;&gt;Node6</title>
<path fill="none" stroke="midnightblue" d="M1076.51,-179.416C1065.89,-163.526 1040.9,-129.553 1011,-112 971.489,-88.8024 920.402,-77.5101 882.415,-72.0443"/>
<polygon fill="midnightblue" stroke="midnightblue" points="882.446,-68.517 872.068,-70.6521 881.512,-75.4545 882.446,-68.517"/>
</g>
<!-- Node19&#45;&gt;Node7 -->
<g id="edge36" class="edge"><title>Node19&#45;&gt;Node7</title>
<path fill="none" stroke="midnightblue" d="M1085.44,-179.475C1088.9,-170.904 1094.33,-157.427 1098.75,-146.483"/>
<polygon fill="midnightblue" stroke="midnightblue" points="1102.07,-147.592 1102.57,-137.009 1095.58,-144.974 1102.07,-147.592"/>
</g>
<!-- Node19&#45;&gt;Node12 -->
<g id="edge37" class="edge"><title>Node19&#45;&gt;Node12</title>
<path fill="none" stroke="midnightblue" d="M1029.56,-179.475C960.232,-168.204 838.736,-148.453 769.084,-137.13"/>
<polygon fill="midnightblue" stroke="midnightblue" points="769.628,-133.672 759.196,-135.522 768.505,-140.582 769.628,-133.672"/>
</g>
<!-- Node20&#45;&gt;Node4 -->
<g id="edge40" class="edge"><title>Node20&#45;&gt;Node4</title>
<path fill="none" stroke="midnightblue" d="M457.205,-179.475C482.372,-169.357 524.54,-152.405 553.279,-140.851"/>
<polygon fill="midnightblue" stroke="midnightblue" points="554.862,-143.987 562.835,-137.009 552.251,-137.492 554.862,-143.987"/>
</g>
<!-- Node20&#45;&gt;Node6 -->
<g id="edge43" class="edge"><title>Node20&#45;&gt;Node6</title>
<path fill="none" stroke="midnightblue" d="M443.982,-179.175C459.284,-162.885 494.569,-128.269 532,-112 574.768,-93.4114 702.725,-78.8332 775.975,-71.7339"/>
<polygon fill="midnightblue" stroke="midnightblue" points="776.312,-75.2178 785.933,-70.7822 775.646,-68.2495 776.312,-75.2178"/>
</g>
<!-- Node20&#45;&gt;Node7 -->
<g id="edge41" class="edge"><title>Node20&#45;&gt;Node7</title>
<path fill="none" stroke="midnightblue" d="M503,-182.05C636.161,-170.225 931.67,-143.982 1052.72,-133.232"/>
<polygon fill="midnightblue" stroke="midnightblue" points="1053.2,-136.703 1062.85,-132.332 1052.58,-129.73 1053.2,-136.703"/>
</g>
<!-- Node20&#45;&gt;Node12 -->
<g id="edge42" class="edge"><title>Node20&#45;&gt;Node12</title>
<path fill="none" stroke="midnightblue" d="M476.117,-179.475C526.122,-168.849 611.601,-150.685 665.871,-139.152"/>
<polygon fill="midnightblue" stroke="midnightblue" points="666.903,-142.511 675.957,-137.009 665.448,-135.664 666.903,-142.511"/>
</g>
<!-- Node20&#45;&gt;Node18 -->
<g id="edge44" class="edge"><title>Node20&#45;&gt;Node18</title>
<path fill="none" stroke="midnightblue" d="M423.248,-179.475C408.973,-169.931 385.603,-154.307 368.492,-142.868"/>
<polygon fill="midnightblue" stroke="midnightblue" points="369.986,-139.657 359.728,-137.009 366.096,-145.477 369.986,-139.657"/>
</g>
<!-- Node21&#45;&gt;Node4 -->
<g id="edge49" class="edge"><title>Node21&#45;&gt;Node4</title>
<path fill="none" stroke="midnightblue" d="M261.015,-179.475C332.913,-168.128 459.278,-148.184 530.775,-136.9"/>
<polygon fill="midnightblue" stroke="midnightblue" points="531.581,-140.317 540.913,-135.3 530.489,-133.402 531.581,-140.317"/>
</g>
<!-- Node21&#45;&gt;Node18 -->
<g id="edge48" class="edge"><title>Node21&#45;&gt;Node18</title>
<path fill="none" stroke="midnightblue" d="M227.059,-179.475C250.762,-169.401 290.406,-152.553 317.583,-141.002"/>
<polygon fill="midnightblue" stroke="midnightblue" points="319.144,-144.142 326.979,-137.009 316.406,-137.699 319.144,-144.142"/>
</g>
<!-- Node22 -->
<g id="node22" class="node"><title>Node22</title>
<polygon fill="white" stroke="#bfbfbf" points="0,-112.5 0,-142.5 122,-142.5 122,-112.5 0,-112.5"/>
<text text-anchor="start" x="8" y="-130.5" font-family="Helvetica,sans-Serif" font-size="10.00">hpp/pinocchio/humanoid</text>
<text text-anchor="middle" x="61" y="-119.5" font-family="Helvetica,sans-Serif" font-size="10.00">&#45;robot.hh</text>
</g>
<!-- Node21&#45;&gt;Node22 -->
<g id="edge47" class="edge"><title>Node21&#45;&gt;Node22</title>
<path fill="none" stroke="midnightblue" d="M186.082,-179.475C165.014,-170.889 131.872,-157.383 104.994,-146.429"/>
<polygon fill="midnightblue" stroke="midnightblue" points="105.991,-143.056 95.4093,-142.523 103.349,-149.538 105.991,-143.056"/>
</g>
<!-- Node23 -->
<g id="node23" class="node"><title>Node23</title>
<polygon fill="white" stroke="#bfbfbf" points="140.5,-118 140.5,-137 273.5,-137 273.5,-118 140.5,-118"/>
<text text-anchor="middle" x="207" y="-125" font-family="Helvetica,sans-Serif" font-size="10.00">hpp/manipulation/config.hh</text>
</g>
<!-- Node21&#45;&gt;Node23 -->
<g id="edge50" class="edge"><title>Node21&#45;&gt;Node23</title>
<path fill="none" stroke="midnightblue" d="M207,-179.475C207,-171.08 207,-157.981 207,-147.163"/>
<polygon fill="midnightblue" stroke="midnightblue" points="210.5,-147.009 207,-137.009 203.5,-147.009 210.5,-147.009"/>
</g>
</g>
</svg>
