<?xml version="1.0" encoding="UTF-8" standalone="no"?>
<!DOCTYPE svg PUBLIC "-//W3C//DTD SVG 1.1//EN"
 "http://www.w3.org/Graphics/SVG/1.1/DTD/svg11.dtd">
<!-- Generated by graphviz version 2.38.0 (20140413.2041)
 -->
<!-- Title: state.hh Pages: 1 -->
<svg width="395pt" height="196pt"
 viewBox="0.00 0.00 395.00 196.00" xmlns="http://www.w3.org/2000/svg" xmlns:xlink="http://www.w3.org/1999/xlink">
<g id="graph0" class="graph" transform="scale(1 1) rotate(0) translate(4 192)">
<title>state.hh</title>
<polygon fill="white" stroke="none" points="-4,4 -4,-192 391,-192 391,4 -4,4"/>
<!-- Node1 -->
<g id="node1" class="node"><title>Node1</title>
<polygon fill="#bfbfbf" stroke="black" points="222.5,-168.5 222.5,-187.5 274.5,-187.5 274.5,-168.5 222.5,-168.5"/>
<text text-anchor="middle" x="248.5" y="-175.5" font-family="Helvetica,sans-Serif" font-size="10.00">state.hh</text>
</g>
<!-- Node2 -->
<g id="node2" class="node"><title>Node2</title>
<g id="a_node2"><a xlink:href="a00087.html" target="_top" xlink:title="state&#45;selector.hh">
<polygon fill="white" stroke="black" points="116,-112.5 116,-131.5 205,-131.5 205,-112.5 116,-112.5"/>
<text text-anchor="middle" x="160.5" y="-119.5" font-family="Helvetica,sans-Serif" font-size="10.00">state&#45;selector.hh</text>
</a>
</g>
</g>
<!-- Node1&#45;&gt;Node2 -->
<g id="edge1" class="edge"><title>Node1&#45;&gt;Node2</title>
<path fill="none" stroke="midnightblue" d="M225.523,-162.901C209.387,-152.999 188.319,-140.071 174.604,-131.655"/>
<polygon fill="midnightblue" stroke="midnightblue" points="224.007,-166.077 234.361,-168.324 227.669,-160.111 224.007,-166.077"/>
</g>
<!-- Node6 -->
<g id="node6" class="node"><title>Node6</title>
<g id="a_node6"><a xlink:href="a00002.html" target="_top" xlink:title="node.hh">
<polygon fill="white" stroke="black" points="223,-112.5 223,-131.5 274,-131.5 274,-112.5 223,-112.5"/>
<text text-anchor="middle" x="248.5" y="-119.5" font-family="Helvetica,sans-Serif" font-size="10.00">node.hh</text>
</a>
</g>
</g>
<!-- Node1&#45;&gt;Node6 -->
<g id="edge5" class="edge"><title>Node1&#45;&gt;Node6</title>
<path fill="none" stroke="midnightblue" d="M248.5,-157.805C248.5,-148.91 248.5,-138.78 248.5,-131.751"/>
<polygon fill="midnightblue" stroke="midnightblue" points="245,-158.083 248.5,-168.083 252,-158.083 245,-158.083"/>
</g>
<!-- Node7 -->
<g id="node7" class="node"><title>Node7</title>
<g id="a_node7"><a xlink:href="a00090.html" target="_top" xlink:title="statistics.hh">
<polygon fill="white" stroke="black" points="292.5,-112.5 292.5,-131.5 362.5,-131.5 362.5,-112.5 292.5,-112.5"/>
<text text-anchor="middle" x="327.5" y="-119.5" font-family="Helvetica,sans-Serif" font-size="10.00">statistics.hh</text>
</a>
</g>
</g>
<!-- Node1&#45;&gt;Node7 -->
<g id="edge6" class="edge"><title>Node1&#45;&gt;Node7</title>
<path fill="none" stroke="midnightblue" d="M269.534,-162.622C283.966,-152.757 302.641,-139.992 314.839,-131.655"/>
<polygon fill="midnightblue" stroke="midnightblue" points="267.473,-159.791 261.193,-168.324 271.423,-165.57 267.473,-159.791"/>
</g>
<!-- Node3 -->
<g id="node3" class="node"><title>Node3</title>
<g id="a_node3"><a xlink:href="a00074.html" target="_top" xlink:title="guided&#45;state&#45;selector.hh">
<polygon fill="white" stroke="black" points="0,-56.5 0,-75.5 121,-75.5 121,-56.5 0,-56.5"/>
<text text-anchor="middle" x="60.5" y="-63.5" font-family="Helvetica,sans-Serif" font-size="10.00">guided&#45;state&#45;selector.hh</text>
</a>
</g>
</g>
<!-- Node2&#45;&gt;Node3 -->
<g id="edge2" class="edge"><title>Node2&#45;&gt;Node3</title>
<path fill="none" stroke="midnightblue" d="M135.412,-107.453C116.951,-97.4835 92.4034,-84.2279 76.5269,-75.6545"/>
<polygon fill="midnightblue" stroke="midnightblue" points="133.971,-110.652 144.433,-112.324 137.297,-104.493 133.971,-110.652"/>
</g>
<!-- Node5 -->
<g id="node5" class="node"><title>Node5</title>
<g id="a_node5"><a xlink:href="a00080.html" target="_top" xlink:title="node&#45;selector.hh">
<polygon fill="white" stroke="black" points="139,-56.5 139,-75.5 228,-75.5 228,-56.5 139,-56.5"/>
<text text-anchor="middle" x="183.5" y="-63.5" font-family="Helvetica,sans-Serif" font-size="10.00">node&#45;selector.hh</text>
</a>
</g>
</g>
<!-- Node2&#45;&gt;Node5 -->
<g id="edge4" class="edge"><title>Node2&#45;&gt;Node5</title>
<path fill="none" stroke="midnightblue" d="M168.299,-102.69C172.175,-93.589 176.679,-83.0141 179.773,-75.7511"/>
<polygon fill="midnightblue" stroke="midnightblue" points="164.997,-101.511 164.298,-112.083 171.437,-104.254 164.997,-101.511"/>
</g>
<!-- Node4 -->
<g id="node4" class="node"><title>Node4</title>
<g id="a_node4"><a xlink:href="a00073.html" target="_top" xlink:title="guided&#45;node&#45;selector.hh">
<polygon fill="white" stroke="black" points="0.5,-0.5 0.5,-19.5 120.5,-19.5 120.5,-0.5 0.5,-0.5"/>
<text text-anchor="middle" x="60.5" y="-7.5" font-family="Helvetica,sans-Serif" font-size="10.00">guided&#45;node&#45;selector.hh</text>
</a>
</g>
</g>
<!-- Node3&#45;&gt;Node4 -->
<g id="edge3" class="edge"><title>Node3&#45;&gt;Node4</title>
<path fill="none" stroke="midnightblue" d="M60.5,-45.8045C60.5,-36.9102 60.5,-26.7798 60.5,-19.7511"/>
<polygon fill="midnightblue" stroke="midnightblue" points="57.0001,-46.083 60.5,-56.083 64.0001,-46.083 57.0001,-46.083"/>
</g>
<!-- Node8 -->
<g id="node8" class="node"><title>Node8</title>
<g id="a_node8"><a xlink:href="a00079.html" target="_top" xlink:title="manipulation&#45;planner.hh">
<polygon fill="white" stroke="black" points="268,-56.5 268,-75.5 387,-75.5 387,-56.5 268,-56.5"/>
<text text-anchor="middle" x="327.5" y="-63.5" font-family="Helvetica,sans-Serif" font-size="10.00">manipulation&#45;planner.hh</text>
</a>
</g>
</g>
<!-- Node7&#45;&gt;Node8 -->
<g id="edge7" class="edge"><title>Node7&#45;&gt;Node8</title>
<path fill="none" stroke="midnightblue" d="M327.5,-101.805C327.5,-92.9102 327.5,-82.7798 327.5,-75.7511"/>
<polygon fill="midnightblue" stroke="midnightblue" points="324,-102.083 327.5,-112.083 331,-102.083 324,-102.083"/>
</g>
</g>
</svg>
