<?xml version="1.0" encoding="UTF-8" standalone="no"?>
<!DOCTYPE svg PUBLIC "-//W3C//DTD SVG 1.1//EN"
 "http://www.w3.org/Graphics/SVG/1.1/DTD/svg11.dtd">
<!-- Generated by graphviz version 2.38.0 (20140413.2041)
 -->
<!-- Title: edge.hh Pages: 1 -->
<svg width="1652pt" height="453pt"
 viewBox="0.00 0.00 1652.00 453.00" xmlns="http://www.w3.org/2000/svg" xmlns:xlink="http://www.w3.org/1999/xlink">
<g id="graph0" class="graph" transform="scale(1 1) rotate(0) translate(4 449)">
<title>edge.hh</title>
<polygon fill="white" stroke="none" points="-4,4 -4,-449 1648,-449 1648,4 -4,4"/>
<!-- Node1 -->
<g id="node1" class="node"><title>Node1</title>
<polygon fill="#bfbfbf" stroke="black" points="618.5,-425.5 618.5,-444.5 669.5,-444.5 669.5,-425.5 618.5,-425.5"/>
<text text-anchor="middle" x="644" y="-432.5" font-family="Helvetica,sans-Serif" font-size="10.00">edge.hh</text>
</g>
<!-- Node2 -->
<g id="node2" class="node"><title>Node2</title>
<g id="a_node2"><a doxygen="/local/devel/hpp/install/share/doc/hpp-core/doxygen-html/hpp-core.doxytag:../../hpp-core/doxygen-html/" xlink:href="../../hpp-core/doxygen-html/a00123.html" target="_top" xlink:title="hpp/core/constraint\l&#45;set.hh">
<polygon fill="white" stroke="black" points="594,-224.5 594,-254.5 694,-254.5 694,-224.5 594,-224.5"/>
<text text-anchor="start" x="602" y="-242.5" font-family="Helvetica,sans-Serif" font-size="10.00">hpp/core/constraint</text>
<text text-anchor="middle" x="644" y="-231.5" font-family="Helvetica,sans-Serif" font-size="10.00">&#45;set.hh</text>
</a>
</g>
</g>
<!-- Node1&#45;&gt;Node2 -->
<g id="edge1" class="edge"><title>Node1&#45;&gt;Node2</title>
<path fill="none" stroke="midnightblue" d="M644,-425.436C644,-397.513 644,-308.411 644,-264.889"/>
<polygon fill="midnightblue" stroke="midnightblue" points="647.5,-264.63 644,-254.63 640.5,-264.63 647.5,-264.63"/>
</g>
<!-- Node4 -->
<g id="node4" class="node"><title>Node4</title>
<g id="a_node4"><a xlink:href="a00001.html" target="_top" xlink:title="hpp/core/fwd.hh">
<polygon fill="white" stroke="black" points="759,-112.5 759,-131.5 845,-131.5 845,-112.5 759,-112.5"/>
<text text-anchor="middle" x="802" y="-119.5" font-family="Helvetica,sans-Serif" font-size="10.00">hpp/core/fwd.hh</text>
</a>
</g>
</g>
<!-- Node1&#45;&gt;Node4 -->
<g id="edge40" class="edge"><title>Node1&#45;&gt;Node4</title>
<path fill="none" stroke="midnightblue" d="M669.724,-433.529C826.247,-430.331 1644,-408.778 1644,-307.5 1644,-307.5 1644,-307.5 1644,-238.5 1644,-197.926 1622.18,-186.37 1586,-168 1521.28,-135.139 1021.75,-125.81 855.567,-123.602"/>
<polygon fill="midnightblue" stroke="midnightblue" points="855.156,-120.096 845.111,-123.466 855.065,-127.096 855.156,-120.096"/>
</g>
<!-- Node13 -->
<g id="node13" class="node"><title>Node13</title>
<g id="a_node13"><a doxygen="/local/devel/hpp/install/share/doc/hpp-core/doxygen-html/hpp-core.doxytag:../../hpp-core/doxygen-html/" xlink:href="../../hpp-core/doxygen-html/a00203.html" target="_top" xlink:title="hpp/core/steering&#45;method.hh">
<polygon fill="white" stroke="black" points="122,-364 122,-383 262,-383 262,-364 122,-364"/>
<text text-anchor="middle" x="192" y="-371" font-family="Helvetica,sans-Serif" font-size="10.00">hpp/core/steering&#45;method.hh</text>
</a>
</g>
</g>
<!-- Node1&#45;&gt;Node13 -->
<g id="edge15" class="edge"><title>Node1&#45;&gt;Node13</title>
<path fill="none" stroke="midnightblue" d="M618.403,-430.631C551.622,-421.84 370.127,-397.948 266.731,-384.337"/>
<polygon fill="midnightblue" stroke="midnightblue" points="267.04,-380.848 256.669,-383.013 266.126,-387.788 267.04,-380.848"/>
</g>
<!-- Node14 -->
<g id="node14" class="node"><title>Node14</title>
<g id="a_node14"><a doxygen="/local/devel/hpp/install/share/doc/hpp-core/doxygen-html/hpp-core.doxytag:../../hpp-core/doxygen-html/" xlink:href="../../hpp-core/doxygen-html/a00174.html" target="_top" xlink:title="hpp/core/path.hh">
<polygon fill="white" stroke="black" points="301.5,-297 301.5,-316 390.5,-316 390.5,-297 301.5,-297"/>
<text text-anchor="middle" x="346" y="-304" font-family="Helvetica,sans-Serif" font-size="10.00">hpp/core/path.hh</text>
</a>
</g>
</g>
<!-- Node1&#45;&gt;Node14 -->
<g id="edge38" class="edge"><title>Node1&#45;&gt;Node14</title>
<path fill="none" stroke="midnightblue" d="M623.517,-425.305C571.824,-403.361 435.909,-345.666 375.578,-320.056"/>
<polygon fill="midnightblue" stroke="midnightblue" points="376.805,-316.774 366.232,-316.088 374.069,-323.218 376.805,-316.774"/>
</g>
<!-- Node17 -->
<g id="node17" class="node"><title>Node17</title>
<g id="a_node17"><a doxygen="/local/devel/hpp/install/share/doc/hpp-core/doxygen-html/hpp-core.doxytag:../../hpp-core/doxygen-html/" xlink:href="../../hpp-core/doxygen-html/a00191.html" target="_top" xlink:title="hpp/core/relative&#45;motion.hh">
<polygon fill="white" stroke="black" points="324,-168.5 324,-187.5 458,-187.5 458,-168.5 324,-168.5"/>
<text text-anchor="middle" x="391" y="-175.5" font-family="Helvetica,sans-Serif" font-size="10.00">hpp/core/relative&#45;motion.hh</text>
</a>
</g>
</g>
<!-- Node1&#45;&gt;Node17 -->
<g id="edge33" class="edge"><title>Node1&#45;&gt;Node17</title>
<path fill="none" stroke="midnightblue" d="M635.291,-425.222C598.417,-388.057 454.841,-243.345 406.776,-194.901"/>
<polygon fill="midnightblue" stroke="midnightblue" points="409.2,-192.375 399.672,-187.741 404.231,-197.305 409.2,-192.375"/>
</g>
<!-- Node18 -->
<g id="node18" class="node"><title>Node18</title>
<polygon fill="white" stroke="#bfbfbf" points="836.5,-230 836.5,-249 969.5,-249 969.5,-230 836.5,-230"/>
<text text-anchor="middle" x="903" y="-237" font-family="Helvetica,sans-Serif" font-size="10.00">hpp/manipulation/config.hh</text>
</g>
<!-- Node1&#45;&gt;Node18 -->
<g id="edge39" class="edge"><title>Node1&#45;&gt;Node18</title>
<path fill="none" stroke="midnightblue" d="M669.699,-429.755C719.453,-420.125 828.958,-391.791 885,-322 899.357,-304.12 902.843,-277.202 903.411,-259.253"/>
<polygon fill="midnightblue" stroke="midnightblue" points="906.911,-259.182 903.454,-249.167 899.911,-259.152 906.911,-259.182"/>
</g>
<!-- Node19 -->
<g id="node19" class="node"><title>Node19</title>
<g id="a_node19"><a xlink:href="a00071.html" target="_top" xlink:title="hpp/manipulation/graph\l/graph.hh">
<polygon fill="white" stroke="black" points="932.5,-358.5 932.5,-388.5 1049.5,-388.5 1049.5,-358.5 932.5,-358.5"/>
<text text-anchor="start" x="940.5" y="-376.5" font-family="Helvetica,sans-Serif" font-size="10.00">hpp/manipulation/graph</text>
<text text-anchor="middle" x="991" y="-365.5" font-family="Helvetica,sans-Serif" font-size="10.00">/graph.hh</text>
</a>
</g>
</g>
<!-- Node1&#45;&gt;Node19 -->
<g id="edge41" class="edge"><title>Node1&#45;&gt;Node19</title>
<path fill="none" stroke="midnightblue" d="M669.737,-430.066C718.34,-422.572 826.929,-405.518 918,-389 919.47,-388.733 920.956,-388.461 922.454,-388.185"/>
<polygon fill="midnightblue" stroke="midnightblue" points="923.279,-391.591 932.462,-386.306 921.988,-384.711 923.279,-391.591"/>
</g>
<!-- Node3 -->
<g id="node3" class="node"><title>Node3</title>
<g id="a_node3"><a doxygen="/local/devel/hpp/install/share/doc/hpp-core/doxygen-html/hpp-core.doxytag:../../hpp-core/doxygen-html/" xlink:href="../../hpp-core/doxygen-html/a00124.html" target="_top" xlink:title="hpp/core/constraint.hh">
<polygon fill="white" stroke="black" points="476.5,-168.5 476.5,-187.5 589.5,-187.5 589.5,-168.5 476.5,-168.5"/>
<text text-anchor="middle" x="533" y="-175.5" font-family="Helvetica,sans-Serif" font-size="10.00">hpp/core/constraint.hh</text>
</a>
</g>
</g>
<!-- Node2&#45;&gt;Node3 -->
<g id="edge2" class="edge"><title>Node2&#45;&gt;Node3</title>
<path fill="none" stroke="midnightblue" d="M617.695,-224.399C599.736,-214.773 576.076,-202.09 558.329,-192.577"/>
<polygon fill="midnightblue" stroke="midnightblue" points="559.619,-189.297 549.151,-187.658 556.312,-195.467 559.619,-189.297"/>
</g>
<!-- Node3&#45;&gt;Node4 -->
<g id="edge3" class="edge"><title>Node3&#45;&gt;Node4</title>
<path fill="none" stroke="midnightblue" d="M575.624,-168.444C622.747,-158.984 698.692,-143.738 749.459,-133.547"/>
<polygon fill="midnightblue" stroke="midnightblue" points="750.46,-136.916 759.576,-131.516 749.082,-130.053 750.46,-136.916"/>
</g>
<!-- Node6 -->
<g id="node6" class="node"><title>Node6</title>
<g id="a_node6"><a doxygen="/local/devel/hpp/install/share/doc/hpp-core/doxygen-html/hpp-core.doxytag:../../hpp-core/doxygen-html/" xlink:href="../../hpp-core/doxygen-html/a00001.html" target="_top" xlink:title="hpp/core/fwd.hh">
<polygon fill="white" stroke="black" points="259,-56.5 259,-75.5 345,-75.5 345,-56.5 259,-56.5"/>
<text text-anchor="middle" x="302" y="-63.5" font-family="Helvetica,sans-Serif" font-size="10.00">hpp/core/fwd.hh</text>
</a>
</g>
</g>
<!-- Node3&#45;&gt;Node6 -->
<g id="edge14" class="edge"><title>Node3&#45;&gt;Node6</title>
<path fill="none" stroke="midnightblue" d="M514.874,-168.368C474.475,-149.131 376.86,-102.648 329.156,-79.9314"/>
<polygon fill="midnightblue" stroke="midnightblue" points="330.575,-76.7308 320.042,-75.5914 327.566,-83.0508 330.575,-76.7308"/>
</g>
<!-- Node7 -->
<g id="node7" class="node"><title>Node7</title>
<g id="a_node7"><a xlink:href="a00065.html" target="_top" xlink:title="hpp/core/fwd.hh">
<polygon fill="white" stroke="black" points="586,-112.5 586,-131.5 672,-131.5 672,-112.5 586,-112.5"/>
<text text-anchor="middle" x="629" y="-119.5" font-family="Helvetica,sans-Serif" font-size="10.00">hpp/core/fwd.hh</text>
</a>
</g>
</g>
<!-- Node3&#45;&gt;Node7 -->
<g id="edge6" class="edge"><title>Node3&#45;&gt;Node7</title>
<path fill="none" stroke="midnightblue" d="M548.424,-168.324C563.54,-159.822 586.815,-146.729 604.471,-136.797"/>
<polygon fill="midnightblue" stroke="midnightblue" points="606.614,-139.608 613.614,-131.655 603.183,-133.507 606.614,-139.608"/>
</g>
<!-- Node12 -->
<g id="node12" class="node"><title>Node12</title>
<g id="a_node12"><a xlink:href="a00066.html" target="_top" xlink:title="hpp/core/fwd.hh">
<polygon fill="white" stroke="black" points="259,-112.5 259,-131.5 345,-131.5 345,-112.5 259,-112.5"/>
<text text-anchor="middle" x="302" y="-119.5" font-family="Helvetica,sans-Serif" font-size="10.00">hpp/core/fwd.hh</text>
</a>
</g>
</g>
<!-- Node3&#45;&gt;Node12 -->
<g id="edge11" class="edge"><title>Node3&#45;&gt;Node12</title>
<path fill="none" stroke="midnightblue" d="M496.397,-168.444C456.269,-159.063 391.802,-143.993 348.215,-133.804"/>
<polygon fill="midnightblue" stroke="midnightblue" points="348.966,-130.385 338.431,-131.516 347.372,-137.201 348.966,-130.385"/>
</g>
<!-- Node5 -->
<g id="node5" class="node"><title>Node5</title>
<polygon fill="white" stroke="#bfbfbf" points="784.5,-56.5 784.5,-75.5 819.5,-75.5 819.5,-56.5 784.5,-56.5"/>
<text text-anchor="middle" x="802" y="-63.5" font-family="Helvetica,sans-Serif" font-size="10.00">map</text>
</g>
<!-- Node4&#45;&gt;Node5 -->
<g id="edge4" class="edge"><title>Node4&#45;&gt;Node5</title>
<path fill="none" stroke="midnightblue" d="M802,-112.083C802,-105.006 802,-94.8611 802,-85.9865"/>
<polygon fill="midnightblue" stroke="midnightblue" points="805.5,-85.751 802,-75.7511 798.5,-85.7511 805.5,-85.751"/>
</g>
<!-- Node4&#45;&gt;Node6 -->
<g id="edge5" class="edge"><title>Node4&#45;&gt;Node6</title>
<path fill="none" stroke="midnightblue" d="M758.938,-116.349C667.653,-106.491 454.927,-83.5161 355.28,-72.7543"/>
<polygon fill="midnightblue" stroke="midnightblue" points="355.454,-69.2528 345.136,-71.6587 354.703,-76.2123 355.454,-69.2528"/>
</g>
<!-- Node8 -->
<g id="node8" class="node"><title>Node8</title>
<polygon fill="white" stroke="#bfbfbf" points="447,-56.5 447,-75.5 541,-75.5 541,-56.5 447,-56.5"/>
<text text-anchor="middle" x="494" y="-63.5" font-family="Helvetica,sans-Serif" font-size="10.00">hpp/util/pointer.hh</text>
</g>
<!-- Node7&#45;&gt;Node8 -->
<g id="edge7" class="edge"><title>Node7&#45;&gt;Node8</title>
<path fill="none" stroke="midnightblue" d="M607.609,-112.444C585.293,-103.517 550.097,-89.4387 524.792,-79.3168"/>
<polygon fill="midnightblue" stroke="midnightblue" points="525.876,-75.9807 515.291,-75.5164 523.276,-82.4801 525.876,-75.9807"/>
</g>
<!-- Node9 -->
<g id="node9" class="node"><title>Node9</title>
<g id="a_node9"><a doxygen="/local/devel/hpp/install/share/doc/hpp-statistics/doxygen-html/hpp-statistics.doxytag:../../hpp-statistics/doxygen-html/" xlink:href="../../hpp-statistics/doxygen-html/a00009.html" target="_top" xlink:title="hpp/statistics/distribution.hh">
<polygon fill="white" stroke="black" points="559.5,-56.5 559.5,-75.5 698.5,-75.5 698.5,-56.5 559.5,-56.5"/>
<text text-anchor="middle" x="629" y="-63.5" font-family="Helvetica,sans-Serif" font-size="10.00">hpp/statistics/distribution.hh</text>
</a>
</g>
</g>
<!-- Node7&#45;&gt;Node9 -->
<g id="edge8" class="edge"><title>Node7&#45;&gt;Node9</title>
<path fill="none" stroke="midnightblue" d="M629,-112.083C629,-105.006 629,-94.8611 629,-85.9865"/>
<polygon fill="midnightblue" stroke="midnightblue" points="632.5,-85.751 629,-75.7511 625.5,-85.7511 632.5,-85.751"/>
</g>
<!-- Node11 -->
<g id="node11" class="node"><title>Node11</title>
<polygon fill="white" stroke="#bfbfbf" points="717,-56.5 717,-75.5 761,-75.5 761,-56.5 717,-56.5"/>
<text text-anchor="middle" x="739" y="-63.5" font-family="Helvetica,sans-Serif" font-size="10.00">vector</text>
</g>
<!-- Node7&#45;&gt;Node11 -->
<g id="edge10" class="edge"><title>Node7&#45;&gt;Node11</title>
<path fill="none" stroke="midnightblue" d="M646.673,-112.324C664.394,-103.625 691.903,-90.1202 712.288,-80.113"/>
<polygon fill="midnightblue" stroke="midnightblue" points="713.936,-83.2031 721.37,-75.6545 710.851,-76.9195 713.936,-83.2031"/>
</g>
<!-- Node10 -->
<g id="node10" class="node"><title>Node10</title>
<g id="a_node10"><a doxygen="/local/devel/hpp/install/share/doc/hpp-statistics/doxygen-html/hpp-statistics.doxytag:../../hpp-statistics/doxygen-html/" xlink:href="../../hpp-statistics/doxygen-html/a00010.html" target="_top" xlink:title="hpp/statistics/fwd.hh">
<polygon fill="white" stroke="black" points="575.5,-0.5 575.5,-19.5 682.5,-19.5 682.5,-0.5 575.5,-0.5"/>
<text text-anchor="middle" x="629" y="-7.5" font-family="Helvetica,sans-Serif" font-size="10.00">hpp/statistics/fwd.hh</text>
</a>
</g>
</g>
<!-- Node9&#45;&gt;Node10 -->
<g id="edge9" class="edge"><title>Node9&#45;&gt;Node10</title>
<path fill="none" stroke="midnightblue" d="M629,-56.083C629,-49.0059 629,-38.8611 629,-29.9865"/>
<polygon fill="midnightblue" stroke="midnightblue" points="632.5,-29.751 629,-19.7511 625.5,-29.7511 632.5,-29.751"/>
</g>
<!-- Node12&#45;&gt;Node5 -->
<g id="edge12" class="edge"><title>Node12&#45;&gt;Node5</title>
<path fill="none" stroke="midnightblue" d="M345.268,-119.417C428.272,-115.812 615.353,-104.943 770,-76 771.454,-75.728 772.937,-75.4202 774.429,-75.0866"/>
<polygon fill="midnightblue" stroke="midnightblue" points="775.358,-78.462 784.193,-72.6148 773.64,-71.6761 775.358,-78.462"/>
</g>
<!-- Node12&#45;&gt;Node6 -->
<g id="edge13" class="edge"><title>Node12&#45;&gt;Node6</title>
<path fill="none" stroke="midnightblue" d="M302,-112.083C302,-105.006 302,-94.8611 302,-85.9865"/>
<polygon fill="midnightblue" stroke="midnightblue" points="305.5,-85.751 302,-75.7511 298.5,-85.7511 305.5,-85.751"/>
</g>
<!-- Node13&#45;&gt;Node4 -->
<g id="edge16" class="edge"><title>Node13&#45;&gt;Node4</title>
<path fill="none" stroke="midnightblue" d="M241.542,-363.969C284.132,-355.801 346.765,-341.787 399,-322 486.38,-288.9 499.216,-261.041 585,-224 630.292,-204.444 645.118,-208.479 690,-188 722.751,-173.056 758.349,-151.376 780.42,-137.234"/>
<polygon fill="midnightblue" stroke="midnightblue" points="782.512,-140.049 789.003,-131.676 778.707,-134.173 782.512,-140.049"/>
</g>
<!-- Node13&#45;&gt;Node6 -->
<g id="edge19" class="edge"><title>Node13&#45;&gt;Node6</title>
<path fill="none" stroke="midnightblue" d="M151.751,-363.881C95.45,-349.189 0,-313.514 0,-240.5 0,-240.5 0,-240.5 0,-177 0,-124.667 162.132,-89.9688 248.805,-75.1588"/>
<polygon fill="midnightblue" stroke="midnightblue" points="249.448,-78.5999 258.731,-73.4933 248.289,-71.6965 249.448,-78.5999"/>
</g>
<!-- Node13&#45;&gt;Node7 -->
<g id="edge17" class="edge"><title>Node13&#45;&gt;Node7</title>
<path fill="none" stroke="midnightblue" d="M183.137,-363.98C158.481,-339.292 93.4277,-266.754 133,-224 203.401,-147.938 512.549,-246.651 598,-188 613.594,-177.297 621.583,-156.545 625.51,-141.358"/>
<polygon fill="midnightblue" stroke="midnightblue" points="628.947,-142.028 627.702,-131.507 622.114,-140.508 628.947,-142.028"/>
</g>
<!-- Node13&#45;&gt;Node12 -->
<g id="edge18" class="edge"><title>Node13&#45;&gt;Node12</title>
<path fill="none" stroke="midnightblue" d="M159.542,-363.995C138.54,-356.623 112.806,-343.638 100,-322 64.786,-262.5 70.0535,-213.627 122,-168 156.769,-137.461 209.2,-127.026 248.522,-123.749"/>
<polygon fill="midnightblue" stroke="midnightblue" points="248.997,-127.224 258.727,-123.033 248.506,-120.242 248.997,-127.224"/>
</g>
<!-- Node13&#45;&gt;Node14 -->
<g id="edge20" class="edge"><title>Node13&#45;&gt;Node14</title>
<path fill="none" stroke="midnightblue" d="M212.45,-363.869C239.028,-352.65 285.64,-332.977 316.166,-320.092"/>
<polygon fill="midnightblue" stroke="midnightblue" points="317.613,-323.28 325.465,-316.167 314.891,-316.831 317.613,-323.28"/>
</g>
<!-- Node15 -->
<g id="node15" class="node"><title>Node15</title>
<g id="a_node15"><a doxygen="/local/devel/hpp/install/share/doc/hpp-core/doxygen-html/hpp-core.doxytag:../../hpp-core/doxygen-html/" xlink:href="../../hpp-core/doxygen-html/a00184.html" target="_top" xlink:title="hpp/core/projection\l&#45;error.hh">
<polygon fill="white" stroke="black" points="142.5,-224.5 142.5,-254.5 241.5,-254.5 241.5,-224.5 142.5,-224.5"/>
<text text-anchor="start" x="150.5" y="-242.5" font-family="Helvetica,sans-Serif" font-size="10.00">hpp/core/projection</text>
<text text-anchor="middle" x="192" y="-231.5" font-family="Helvetica,sans-Serif" font-size="10.00">&#45;error.hh</text>
</a>
</g>
</g>
<!-- Node13&#45;&gt;Node15 -->
<g id="edge32" class="edge"><title>Node13&#45;&gt;Node15</title>
<path fill="none" stroke="midnightblue" d="M192,-363.839C192,-344.019 192,-294.769 192,-264.844"/>
<polygon fill="midnightblue" stroke="midnightblue" points="195.5,-264.783 192,-254.783 188.5,-264.783 195.5,-264.783"/>
</g>
<!-- Node14&#45;&gt;Node2 -->
<g id="edge25" class="edge"><title>Node14&#45;&gt;Node2</title>
<path fill="none" stroke="midnightblue" d="M385.265,-296.936C435.987,-285.872 524.781,-266.504 583.988,-253.59"/>
<polygon fill="midnightblue" stroke="midnightblue" points="584.929,-256.967 593.954,-251.416 583.438,-250.128 584.929,-256.967"/>
</g>
<!-- Node14&#45;&gt;Node4 -->
<g id="edge21" class="edge"><title>Node14&#45;&gt;Node4</title>
<path fill="none" stroke="midnightblue" d="M367.538,-296.915C390.905,-287.4 429.141,-271.244 461,-255 485.311,-242.604 488.802,-234.476 514,-224 571.735,-199.997 590.877,-208.346 650,-188 694.62,-172.645 744.622,-150.202 774.689,-136.11"/>
<polygon fill="midnightblue" stroke="midnightblue" points="776.537,-139.108 784.085,-131.673 773.548,-132.778 776.537,-139.108"/>
</g>
<!-- Node14&#45;&gt;Node6 -->
<g id="edge24" class="edge"><title>Node14&#45;&gt;Node6</title>
<path fill="none" stroke="midnightblue" d="M334.871,-296.743C322.343,-286.813 301.455,-270.046 284,-255 268.511,-241.649 267.88,-233.924 250,-224 198.33,-195.32 157.685,-235.106 122,-188 80.8543,-133.686 187.82,-95.6978 254.063,-78.0943"/>
<polygon fill="midnightblue" stroke="midnightblue" points="255.113,-81.438 263.918,-75.545 253.36,-74.6611 255.113,-81.438"/>
</g>
<!-- Node14&#45;&gt;Node7 -->
<g id="edge22" class="edge"><title>Node14&#45;&gt;Node7</title>
<path fill="none" stroke="midnightblue" d="M356.783,-296.96C378.224,-280.399 428.27,-243.809 476,-224 541.72,-196.725 587.702,-243.685 632,-188 642.312,-175.037 639.827,-155.601 635.822,-141.358"/>
<polygon fill="midnightblue" stroke="midnightblue" points="639.088,-140.086 632.649,-131.672 632.436,-142.265 639.088,-140.086"/>
</g>
<!-- Node14&#45;&gt;Node12 -->
<g id="edge23" class="edge"><title>Node14&#45;&gt;Node12</title>
<path fill="none" stroke="midnightblue" d="M341.937,-296.786C333.604,-279.921 312.901,-242.822 284,-224 226.187,-186.35 175.755,-242.147 133,-188 99.4834,-145.553 187.348,-130.802 248.581,-125.692"/>
<polygon fill="midnightblue" stroke="midnightblue" points="249.21,-129.154 258.913,-124.898 248.674,-122.174 249.21,-129.154"/>
</g>
<!-- Node14&#45;&gt;Node15 -->
<g id="edge26" class="edge"><title>Node14&#45;&gt;Node15</title>
<path fill="none" stroke="midnightblue" d="M325.55,-296.869C302.442,-287.115 264.189,-270.97 234.532,-258.452"/>
<polygon fill="midnightblue" stroke="midnightblue" points="235.81,-255.192 225.236,-254.528 233.088,-261.641 235.81,-255.192"/>
</g>
<!-- Node16 -->
<g id="node16" class="node"><title>Node16</title>
<g id="a_node16"><a doxygen="/local/devel/hpp/install/share/doc/hpp-core/doxygen-html/hpp-core.doxytag:../../hpp-core/doxygen-html/" xlink:href="../../hpp-core/doxygen-html/a00208.html" target="_top" xlink:title="hpp/core/time&#45;parameterization.hh">
<polygon fill="white" stroke="black" points="142,-168.5 142,-187.5 306,-187.5 306,-168.5 142,-168.5"/>
<text text-anchor="middle" x="224" y="-175.5" font-family="Helvetica,sans-Serif" font-size="10.00">hpp/core/time&#45;parameterization.hh</text>
</a>
</g>
</g>
<!-- Node14&#45;&gt;Node16 -->
<g id="edge27" class="edge"><title>Node14&#45;&gt;Node16</title>
<path fill="none" stroke="midnightblue" d="M345.725,-296.781C344.766,-280.551 340.532,-245.415 322,-224 308.438,-208.328 288.279,-197.795 269.765,-190.888"/>
<polygon fill="midnightblue" stroke="midnightblue" points="270.872,-187.567 260.277,-187.598 268.579,-194.181 270.872,-187.567"/>
</g>
<!-- Node16&#45;&gt;Node4 -->
<g id="edge28" class="edge"><title>Node16&#45;&gt;Node4</title>
<path fill="none" stroke="midnightblue" d="M306.338,-168.833C309.261,-168.55 312.155,-168.272 315,-168 472.73,-152.913 659.282,-135.91 748.823,-127.801"/>
<polygon fill="midnightblue" stroke="midnightblue" points="749.351,-131.267 758.995,-126.88 748.72,-124.296 749.351,-131.267"/>
</g>
<!-- Node16&#45;&gt;Node6 -->
<g id="edge31" class="edge"><title>Node16&#45;&gt;Node6</title>
<path fill="none" stroke="midnightblue" d="M226.044,-168.362C229.439,-155.269 237.166,-130.016 250,-112 258.334,-100.301 270.32,-89.6591 280.684,-81.6647"/>
<polygon fill="midnightblue" stroke="midnightblue" points="282.925,-84.3609 288.893,-75.607 278.769,-78.7284 282.925,-84.3609"/>
</g>
<!-- Node16&#45;&gt;Node7 -->
<g id="edge29" class="edge"><title>Node16&#45;&gt;Node7</title>
<path fill="none" stroke="midnightblue" d="M288.173,-168.444C367.738,-157.835 501.879,-139.95 575.924,-130.077"/>
<polygon fill="midnightblue" stroke="midnightblue" points="576.512,-133.53 585.961,-128.738 575.586,-126.591 576.512,-133.53"/>
</g>
<!-- Node16&#45;&gt;Node12 -->
<g id="edge30" class="edge"><title>Node16&#45;&gt;Node12</title>
<path fill="none" stroke="midnightblue" d="M236.532,-168.324C248.586,-159.979 267.027,-147.212 281.269,-137.352"/>
<polygon fill="midnightblue" stroke="midnightblue" points="283.269,-140.224 289.499,-131.655 279.285,-134.469 283.269,-140.224"/>
</g>
<!-- Node17&#45;&gt;Node4 -->
<g id="edge34" class="edge"><title>Node17&#45;&gt;Node4</title>
<path fill="none" stroke="midnightblue" d="M456.124,-168.444C537.084,-157.806 673.725,-139.854 748.74,-129.998"/>
<polygon fill="midnightblue" stroke="midnightblue" points="749.445,-133.435 758.904,-128.662 748.533,-126.495 749.445,-133.435"/>
</g>
<!-- Node17&#45;&gt;Node6 -->
<g id="edge37" class="edge"><title>Node17&#45;&gt;Node6</title>
<path fill="none" stroke="midnightblue" d="M387.272,-168.425C381.371,-155.412 368.997,-130.265 354,-112 344.767,-100.755 332.539,-90.0173 322.261,-81.8532"/>
<polygon fill="midnightblue" stroke="midnightblue" points="324.254,-78.9706 314.195,-75.6458 319.985,-84.5182 324.254,-78.9706"/>
</g>
<!-- Node17&#45;&gt;Node7 -->
<g id="edge35" class="edge"><title>Node17&#45;&gt;Node7</title>
<path fill="none" stroke="midnightblue" d="M428.712,-168.444C470.143,-159.043 536.757,-143.929 581.667,-133.739"/>
<polygon fill="midnightblue" stroke="midnightblue" points="582.487,-137.142 591.465,-131.516 580.938,-130.316 582.487,-137.142"/>
</g>
<!-- Node17&#45;&gt;Node12 -->
<g id="edge36" class="edge"><title>Node17&#45;&gt;Node12</title>
<path fill="none" stroke="midnightblue" d="M376.701,-168.324C362.817,-159.9 341.508,-146.971 325.196,-137.074"/>
<polygon fill="midnightblue" stroke="midnightblue" points="326.629,-133.85 316.264,-131.655 322.998,-139.834 326.629,-133.85"/>
</g>
<!-- Node19&#45;&gt;Node4 -->
<g id="edge49" class="edge"><title>Node19&#45;&gt;Node4</title>
<path fill="none" stroke="midnightblue" d="M1049.73,-370.015C1186.23,-362.883 1518.39,-337.262 1586,-255 1594.75,-244.356 1588.56,-237.537 1586,-224 1581.02,-197.726 1585.64,-183.705 1564,-168 1507,-126.636 1019.22,-122.939 855.401,-122.875"/>
<polygon fill="midnightblue" stroke="midnightblue" points="855.087,-119.375 845.087,-122.875 855.087,-126.375 855.087,-119.375"/>
</g>
<!-- Node19&#45;&gt;Node7 -->
<g id="edge50" class="edge"><title>Node19&#45;&gt;Node7</title>
<path fill="none" stroke="midnightblue" d="M932.441,-368.176C865.008,-362.018 759.806,-348.417 731,-322 697.615,-291.383 722.92,-264.684 703,-224 687.085,-191.494 660.569,-158.548 643.974,-139.484"/>
<polygon fill="midnightblue" stroke="midnightblue" points="646.374,-136.914 637.121,-131.753 641.136,-141.558 646.374,-136.914"/>
</g>
<!-- Node19&#45;&gt;Node18 -->
<g id="edge43" class="edge"><title>Node19&#45;&gt;Node18</title>
<path fill="none" stroke="midnightblue" d="M1012.93,-358.32C1035.36,-342.025 1064.7,-314.504 1048,-291 1036.62,-274.993 990.315,-260.684 953.05,-251.42"/>
<polygon fill="midnightblue" stroke="midnightblue" points="953.851,-248.013 943.308,-249.06 952.202,-254.816 953.851,-248.013"/>
</g>
<!-- Node20 -->
<g id="node20" class="node"><title>Node20</title>
<polygon fill="white" stroke="#bfbfbf" points="932.5,-297 932.5,-316 1039.5,-316 1039.5,-297 932.5,-297"/>
<text text-anchor="middle" x="986" y="-304" font-family="Helvetica,sans-Serif" font-size="10.00">boost/tuple/tuple.hpp</text>
</g>
<!-- Node19&#45;&gt;Node20 -->
<g id="edge42" class="edge"><title>Node19&#45;&gt;Node20</title>
<path fill="none" stroke="midnightblue" d="M989.915,-358.396C989.189,-348.963 988.227,-336.448 987.438,-326.189"/>
<polygon fill="midnightblue" stroke="midnightblue" points="990.926,-325.897 986.669,-316.195 983.946,-326.434 990.926,-325.897"/>
</g>
<!-- Node21 -->
<g id="node21" class="node"><title>Node21</title>
<g id="a_node21"><a xlink:href="a00005.html" target="_top" xlink:title="hpp/manipulation/constraint\l&#45;set.hh">
<polygon fill="white" stroke="black" points="740,-291.5 740,-321.5 876,-321.5 876,-291.5 740,-291.5"/>
<text text-anchor="start" x="748" y="-309.5" font-family="Helvetica,sans-Serif" font-size="10.00">hpp/manipulation/constraint</text>
<text text-anchor="middle" x="808" y="-298.5" font-family="Helvetica,sans-Serif" font-size="10.00">&#45;set.hh</text>
</a>
</g>
</g>
<!-- Node19&#45;&gt;Node21 -->
<g id="edge44" class="edge"><title>Node19&#45;&gt;Node21</title>
<path fill="none" stroke="midnightblue" d="M951.292,-358.396C923.714,-348.601 886.777,-335.481 857.312,-325.015"/>
<polygon fill="midnightblue" stroke="midnightblue" points="858.226,-321.625 847.631,-321.577 855.883,-328.222 858.226,-321.625"/>
</g>
<!-- Node22 -->
<g id="node22" class="node"><title>Node22</title>
<g id="a_node22"><a xlink:href="a00067.html" target="_top" xlink:title="hpp/manipulation/graph\l/graph&#45;component.hh">
<polygon fill="white" stroke="black" points="1096.5,-291.5 1096.5,-321.5 1213.5,-321.5 1213.5,-291.5 1096.5,-291.5"/>
<text text-anchor="start" x="1104.5" y="-309.5" font-family="Helvetica,sans-Serif" font-size="10.00">hpp/manipulation/graph</text>
<text text-anchor="middle" x="1155" y="-298.5" font-family="Helvetica,sans-Serif" font-size="10.00">/graph&#45;component.hh</text>
</a>
</g>
</g>
<!-- Node19&#45;&gt;Node22 -->
<g id="edge51" class="edge"><title>Node19&#45;&gt;Node22</title>
<path fill="none" stroke="midnightblue" d="M1026.59,-358.396C1051.09,-348.686 1083.83,-335.709 1110.12,-325.289"/>
<polygon fill="midnightblue" stroke="midnightblue" points="1111.48,-328.515 1119.48,-321.577 1108.9,-322.007 1111.48,-328.515"/>
</g>
<!-- Node21&#45;&gt;Node2 -->
<g id="edge45" class="edge"><title>Node21&#45;&gt;Node2</title>
<path fill="none" stroke="midnightblue" d="M772.414,-291.396C747.915,-281.686 715.173,-268.709 688.883,-258.289"/>
<polygon fill="midnightblue" stroke="midnightblue" points="690.102,-255.007 679.516,-254.577 687.523,-261.515 690.102,-255.007"/>
</g>
<!-- Node21&#45;&gt;Node4 -->
<g id="edge46" class="edge"><title>Node21&#45;&gt;Node4</title>
<path fill="none" stroke="midnightblue" d="M812.309,-291.291C819.297,-266.167 831.414,-212.363 822,-168 820.003,-158.591 815.899,-148.762 811.925,-140.698"/>
<polygon fill="midnightblue" stroke="midnightblue" points="814.887,-138.81 807.13,-131.593 808.693,-142.072 814.887,-138.81"/>
</g>
<!-- Node21&#45;&gt;Node7 -->
<g id="edge47" class="edge"><title>Node21&#45;&gt;Node7</title>
<path fill="none" stroke="midnightblue" d="M800.294,-291.101C785.368,-264.238 750.235,-205.789 708,-168 693.388,-154.926 674.356,-143.945 658.634,-136.104"/>
<polygon fill="midnightblue" stroke="midnightblue" points="659.87,-132.815 649.341,-131.636 656.837,-139.123 659.87,-132.815"/>
</g>
<!-- Node21&#45;&gt;Node18 -->
<g id="edge48" class="edge"><title>Node21&#45;&gt;Node18</title>
<path fill="none" stroke="midnightblue" d="M828.614,-291.396C844.397,-280.597 866.087,-265.756 881.973,-254.887"/>
<polygon fill="midnightblue" stroke="midnightblue" points="884.29,-257.542 890.567,-249.007 880.337,-251.765 884.29,-257.542"/>
</g>
<!-- Node22&#45;&gt;Node4 -->
<g id="edge57" class="edge"><title>Node22&#45;&gt;Node4</title>
<path fill="none" stroke="midnightblue" d="M1112.74,-291.296C1093.29,-283.097 1071.02,-271.16 1055,-255 1024.63,-224.37 1046.04,-194.493 1012,-168 988.021,-149.335 909.446,-136.196 855.518,-129.112"/>
<polygon fill="midnightblue" stroke="midnightblue" points="855.783,-125.617 845.419,-127.818 854.893,-132.561 855.783,-125.617"/>
</g>
<!-- Node22&#45;&gt;Node7 -->
<g id="edge58" class="edge"><title>Node22&#45;&gt;Node7</title>
<path fill="none" stroke="midnightblue" d="M1118.88,-291.396C1094.84,-281.742 1062.7,-268.322 1035,-255 1009.01,-242.503 1004.67,-234.961 978,-224 874.782,-181.583 747.547,-149.556 678.787,-133.817"/>
<polygon fill="midnightblue" stroke="midnightblue" points="679.198,-130.321 668.671,-131.522 677.649,-137.147 679.198,-130.321"/>
</g>
<!-- Node22&#45;&gt;Node18 -->
<g id="edge55" class="edge"><title>Node22&#45;&gt;Node18</title>
<path fill="none" stroke="midnightblue" d="M1100.63,-291.476C1054.28,-279.521 988.574,-262.573 945.87,-251.558"/>
<polygon fill="midnightblue" stroke="midnightblue" points="946.622,-248.137 936.065,-249.029 944.874,-254.915 946.622,-248.137"/>
</g>
<!-- Node23 -->
<g id="node23" class="node"><title>Node23</title>
<polygon fill="white" stroke="#bfbfbf" points="1401.5,-230 1401.5,-249 1442.5,-249 1442.5,-230 1401.5,-230"/>
<text text-anchor="middle" x="1422" y="-237" font-family="Helvetica,sans-Serif" font-size="10.00">string</text>
</g>
<!-- Node22&#45;&gt;Node23 -->
<g id="edge52" class="edge"><title>Node22&#45;&gt;Node23</title>
<path fill="none" stroke="midnightblue" d="M1213.91,-295.681C1261.26,-287.075 1329.18,-273.112 1387,-255 1389.14,-254.329 1391.33,-253.579 1393.53,-252.784"/>
<polygon fill="midnightblue" stroke="midnightblue" points="1394.92,-255.996 1402.97,-249.105 1392.38,-249.473 1394.92,-255.996"/>
</g>
<!-- Node24 -->
<g id="node24" class="node"><title>Node24</title>
<polygon fill="white" stroke="#bfbfbf" points="1366,-168.5 1366,-187.5 1418,-187.5 1418,-168.5 1366,-168.5"/>
<text text-anchor="middle" x="1392" y="-175.5" font-family="Helvetica,sans-Serif" font-size="10.00">ostream</text>
</g>
<!-- Node22&#45;&gt;Node24 -->
<g id="edge53" class="edge"><title>Node22&#45;&gt;Node24</title>
<path fill="none" stroke="midnightblue" d="M1213.94,-303.109C1256.6,-298.596 1313.48,-286.519 1353,-255 1371.26,-240.437 1381.81,-215.026 1387.23,-197.628"/>
<polygon fill="midnightblue" stroke="midnightblue" points="1390.73,-198.121 1390.08,-187.546 1383.99,-196.218 1390.73,-198.121"/>
</g>
<!-- Node25 -->
<g id="node25" class="node"><title>Node25</title>
<polygon fill="white" stroke="#bfbfbf" points="1064.5,-230 1064.5,-249 1171.5,-249 1171.5,-230 1064.5,-230"/>
<text text-anchor="middle" x="1118" y="-237" font-family="Helvetica,sans-Serif" font-size="10.00">hpp/util/exception.hh</text>
</g>
<!-- Node22&#45;&gt;Node25 -->
<g id="edge54" class="edge"><title>Node22&#45;&gt;Node25</title>
<path fill="none" stroke="midnightblue" d="M1146.97,-291.396C1141.37,-281.562 1133.87,-268.378 1127.9,-257.892"/>
<polygon fill="midnightblue" stroke="midnightblue" points="1130.94,-256.154 1122.95,-249.195 1124.85,-259.617 1130.94,-256.154"/>
</g>
<!-- Node26 -->
<g id="node26" class="node"><title>Node26</title>
<polygon fill="white" stroke="#bfbfbf" points="1189.5,-230 1189.5,-249 1344.5,-249 1344.5,-230 1189.5,-230"/>
<text text-anchor="middle" x="1267" y="-237" font-family="Helvetica,sans-Serif" font-size="10.00">hpp/manipulation/deprecated.hh</text>
</g>
<!-- Node22&#45;&gt;Node26 -->
<g id="edge56" class="edge"><title>Node22&#45;&gt;Node26</title>
<path fill="none" stroke="midnightblue" d="M1179.3,-291.396C1198.35,-280.344 1224.68,-265.061 1243.51,-254.132"/>
<polygon fill="midnightblue" stroke="midnightblue" points="1245.45,-257.054 1252.34,-249.007 1241.94,-250.999 1245.45,-257.054"/>
</g>
<!-- Node27 -->
<g id="node27" class="node"><title>Node27</title>
<g id="a_node27"><a xlink:href="a00060.html" target="_top" xlink:title="hpp/manipulation/graph\l/dot.hh">
<polygon fill="white" stroke="black" points="1460.5,-224.5 1460.5,-254.5 1577.5,-254.5 1577.5,-224.5 1460.5,-224.5"/>
<text text-anchor="start" x="1468.5" y="-242.5" font-family="Helvetica,sans-Serif" font-size="10.00">hpp/manipulation/graph</text>
<text text-anchor="middle" x="1519" y="-231.5" font-family="Helvetica,sans-Serif" font-size="10.00">/dot.hh</text>
</a>
</g>
</g>
<!-- Node22&#45;&gt;Node27 -->
<g id="edge59" class="edge"><title>Node22&#45;&gt;Node27</title>
<path fill="none" stroke="midnightblue" d="M1213.54,-296.241C1271.18,-286.959 1361.97,-271.901 1450.48,-255.052"/>
<polygon fill="midnightblue" stroke="midnightblue" points="1451.26,-258.467 1460.43,-253.15 1449.95,-251.591 1451.26,-258.467"/>
</g>
<!-- Node27&#45;&gt;Node5 -->
<g id="edge62" class="edge"><title>Node27&#45;&gt;Node5</title>
<path fill="none" stroke="midnightblue" d="M1538.68,-224.396C1557.09,-209.515 1579.6,-185.802 1564,-168 1514.44,-111.438 961.367,-76.1771 829.912,-68.5586"/>
<polygon fill="midnightblue" stroke="midnightblue" points="830.029,-65.0597 819.846,-67.9817 829.629,-72.0482 830.029,-65.0597"/>
</g>
<!-- Node27&#45;&gt;Node24 -->
<g id="edge60" class="edge"><title>Node27&#45;&gt;Node24</title>
<path fill="none" stroke="midnightblue" d="M1488.9,-224.399C1467.88,-214.55 1440.03,-201.501 1419.58,-191.922"/>
<polygon fill="midnightblue" stroke="midnightblue" points="1421.02,-188.731 1410.48,-187.658 1418.05,-195.07 1421.02,-188.731"/>
</g>
<!-- Node28 -->
<g id="node28" class="node"><title>Node28</title>
<polygon fill="white" stroke="#bfbfbf" points="1456,-168.5 1456,-187.5 1508,-187.5 1508,-168.5 1456,-168.5"/>
<text text-anchor="middle" x="1482" y="-175.5" font-family="Helvetica,sans-Serif" font-size="10.00">sstream</text>
</g>
<!-- Node27&#45;&gt;Node28 -->
<g id="edge61" class="edge"><title>Node27&#45;&gt;Node28</title>
<path fill="none" stroke="midnightblue" d="M1510.23,-224.399C1505.02,-216.021 1498.37,-205.327 1492.83,-196.423"/>
<polygon fill="midnightblue" stroke="midnightblue" points="1495.64,-194.302 1487.38,-187.658 1489.69,-197.998 1495.64,-194.302"/>
</g>
<!-- Node29 -->
<g id="node29" class="node"><title>Node29</title>
<polygon fill="white" stroke="#bfbfbf" points="1526.5,-168.5 1526.5,-187.5 1555.5,-187.5 1555.5,-168.5 1526.5,-168.5"/>
<text text-anchor="middle" x="1541" y="-175.5" font-family="Helvetica,sans-Serif" font-size="10.00">list</text>
</g>
<!-- Node27&#45;&gt;Node29 -->
<g id="edge63" class="edge"><title>Node27&#45;&gt;Node29</title>
<path fill="none" stroke="midnightblue" d="M1524.21,-224.399C1527.21,-216.288 1531.01,-206.007 1534.24,-197.281"/>
<polygon fill="midnightblue" stroke="midnightblue" points="1537.61,-198.251 1537.8,-187.658 1531.05,-195.823 1537.61,-198.251"/>
</g>
</g>
</svg>
