<?xml version="1.0" encoding="UTF-8" standalone="no"?>
<!DOCTYPE svg PUBLIC "-//W3C//DTD SVG 1.1//EN"
 "http://www.w3.org/Graphics/SVG/1.1/DTD/svg11.dtd">
<!-- Generated by graphviz version 2.38.0 (20140413.2041)
 -->
<!-- Title: state.hh Pages: 1 -->
<svg width="530pt" height="252pt"
 viewBox="0.00 0.00 530.00 252.00" xmlns="http://www.w3.org/2000/svg" xmlns:xlink="http://www.w3.org/1999/xlink">
<g id="graph0" class="graph" transform="scale(1 1) rotate(0) translate(4 248)">
<title>state.hh</title>
<polygon fill="white" stroke="none" points="-4,4 -4,-248 526,-248 526,4 -4,4"/>
<!-- Node1 -->
<g id="node1" class="node"><title>Node1</title>
<polygon fill="#bfbfbf" stroke="black" points="230,-224.5 230,-243.5 282,-243.5 282,-224.5 230,-224.5"/>
<text text-anchor="middle" x="256" y="-231.5" font-family="Helvetica,sans-Serif" font-size="10.00">state.hh</text>
</g>
<!-- Node2 -->
<g id="node2" class="node"><title>Node2</title>
<g id="a_node2"><a doxygen="/local/devel/hpp/install/share/doc/hpp-core/doxygen-html/hpp-core.doxytag:../../hpp-core/doxygen-html/" xlink:href="../../hpp-core/doxygen-html/a00180.html" target="_top" xlink:title="hpp/core/problem&#45;target.hh">
<polygon fill="white" stroke="black" points="94.5,-168.5 94.5,-187.5 227.5,-187.5 227.5,-168.5 94.5,-168.5"/>
<text text-anchor="middle" x="161" y="-175.5" font-family="Helvetica,sans-Serif" font-size="10.00">hpp/core/problem&#45;target.hh</text>
</a>
</g>
</g>
<!-- Node1&#45;&gt;Node2 -->
<g id="edge1" class="edge"><title>Node1&#45;&gt;Node2</title>
<path fill="none" stroke="midnightblue" d="M240.737,-224.324C225.779,-215.822 202.745,-202.729 185.273,-192.797"/>
<polygon fill="midnightblue" stroke="midnightblue" points="186.649,-189.553 176.226,-187.655 183.19,-195.639 186.649,-189.553"/>
</g>
<!-- Node3 -->
<g id="node3" class="node"><title>Node3</title>
<g id="a_node3"><a xlink:href="a00001.html" target="_top" xlink:title="hpp/core/fwd.hh">
<polygon fill="white" stroke="black" points="0,-112.5 0,-131.5 86,-131.5 86,-112.5 0,-112.5"/>
<text text-anchor="middle" x="43" y="-119.5" font-family="Helvetica,sans-Serif" font-size="10.00">hpp/core/fwd.hh</text>
</a>
</g>
</g>
<!-- Node1&#45;&gt;Node3 -->
<g id="edge15" class="edge"><title>Node1&#45;&gt;Node3</title>
<path fill="none" stroke="midnightblue" d="M229.766,-231.899C193.898,-229.194 128.994,-219.89 85,-188 68.7184,-176.198 57.1185,-155.978 50.2914,-141.217"/>
<polygon fill="midnightblue" stroke="midnightblue" points="53.3341,-139.433 46.165,-131.632 46.9046,-142.201 53.3341,-139.433"/>
</g>
<!-- Node5 -->
<g id="node5" class="node"><title>Node5</title>
<g id="a_node5"><a doxygen="/local/devel/hpp/install/share/doc/hpp-core/doxygen-html/hpp-core.doxytag:../../hpp-core/doxygen-html/" xlink:href="../../hpp-core/doxygen-html/a00001.html" target="_top" xlink:title="hpp/core/fwd.hh">
<polygon fill="white" stroke="black" points="104,-56.5 104,-75.5 190,-75.5 190,-56.5 104,-56.5"/>
<text text-anchor="middle" x="147" y="-63.5" font-family="Helvetica,sans-Serif" font-size="10.00">hpp/core/fwd.hh</text>
</a>
</g>
</g>
<!-- Node1&#45;&gt;Node5 -->
<g id="edge14" class="edge"><title>Node1&#45;&gt;Node5</title>
<path fill="none" stroke="midnightblue" d="M255.101,-224.432C252.486,-203.216 243.186,-147.396 215,-112 204.396,-98.6831 188.75,-87.9479 175.139,-80.3073"/>
<polygon fill="midnightblue" stroke="midnightblue" points="176.6,-77.1206 166.127,-75.5183 173.315,-83.3019 176.6,-77.1206"/>
</g>
<!-- Node6 -->
<g id="node6" class="node"><title>Node6</title>
<g id="a_node6"><a xlink:href="a00065.html" target="_top" xlink:title="hpp/core/fwd.hh">
<polygon fill="white" stroke="black" points="284,-112.5 284,-131.5 370,-131.5 370,-112.5 284,-112.5"/>
<text text-anchor="middle" x="327" y="-119.5" font-family="Helvetica,sans-Serif" font-size="10.00">hpp/core/fwd.hh</text>
</a>
</g>
</g>
<!-- Node1&#45;&gt;Node6 -->
<g id="edge16" class="edge"><title>Node1&#45;&gt;Node6</title>
<path fill="none" stroke="midnightblue" d="M261.571,-224.368C273.236,-206.296 300.423,-164.176 315.829,-140.307"/>
<polygon fill="midnightblue" stroke="midnightblue" points="318.972,-141.891 321.455,-131.591 313.091,-138.095 318.972,-141.891"/>
</g>
<!-- Node12 -->
<g id="node12" class="node"><title>Node12</title>
<polygon fill="white" stroke="#bfbfbf" points="322.5,-168.5 322.5,-187.5 455.5,-187.5 455.5,-168.5 322.5,-168.5"/>
<text text-anchor="middle" x="389" y="-175.5" font-family="Helvetica,sans-Serif" font-size="10.00">hpp/manipulation/config.hh</text>
</g>
<!-- Node1&#45;&gt;Node12 -->
<g id="edge17" class="edge"><title>Node1&#45;&gt;Node12</title>
<path fill="none" stroke="midnightblue" d="M277.074,-224.444C299.06,-215.517 333.734,-201.439 358.664,-191.317"/>
<polygon fill="midnightblue" stroke="midnightblue" points="360.076,-194.521 368.024,-187.516 357.442,-188.035 360.076,-194.521"/>
</g>
<!-- Node2&#45;&gt;Node3 -->
<g id="edge2" class="edge"><title>Node2&#45;&gt;Node3</title>
<path fill="none" stroke="midnightblue" d="M142.303,-168.444C123.056,-159.636 92.8475,-145.812 70.7999,-135.722"/>
<polygon fill="midnightblue" stroke="midnightblue" points="72.1595,-132.495 61.61,-131.516 69.2466,-138.86 72.1595,-132.495"/>
</g>
<!-- Node2&#45;&gt;Node5 -->
<g id="edge13" class="edge"><title>Node2&#45;&gt;Node5</title>
<path fill="none" stroke="midnightblue" d="M172.127,-168.468C186.523,-156.32 208.672,-133.162 199,-112 193.223,-99.3602 181.948,-88.911 171.369,-81.2737"/>
<polygon fill="midnightblue" stroke="midnightblue" points="173.042,-78.1817 162.783,-75.5333 169.151,-84.0009 173.042,-78.1817"/>
</g>
<!-- Node2&#45;&gt;Node6 -->
<g id="edge5" class="edge"><title>Node2&#45;&gt;Node6</title>
<path fill="none" stroke="midnightblue" d="M187.303,-168.444C215.351,-159.32 259.944,-144.813 291.184,-134.651"/>
<polygon fill="midnightblue" stroke="midnightblue" points="292.393,-137.938 300.82,-131.516 290.228,-131.282 292.393,-137.938"/>
</g>
<!-- Node11 -->
<g id="node11" class="node"><title>Node11</title>
<g id="a_node11"><a xlink:href="a00066.html" target="_top" xlink:title="hpp/core/fwd.hh">
<polygon fill="white" stroke="black" points="104,-112.5 104,-131.5 190,-131.5 190,-112.5 104,-112.5"/>
<text text-anchor="middle" x="147" y="-119.5" font-family="Helvetica,sans-Serif" font-size="10.00">hpp/core/fwd.hh</text>
</a>
</g>
</g>
<!-- Node2&#45;&gt;Node11 -->
<g id="edge10" class="edge"><title>Node2&#45;&gt;Node11</title>
<path fill="none" stroke="midnightblue" d="M158.688,-168.083C156.833,-160.927 154.165,-150.635 151.846,-141.691"/>
<polygon fill="midnightblue" stroke="midnightblue" points="155.166,-140.553 149.269,-131.751 148.391,-142.309 155.166,-140.553"/>
</g>
<!-- Node4 -->
<g id="node4" class="node"><title>Node4</title>
<polygon fill="white" stroke="#bfbfbf" points="38.5,-56.5 38.5,-75.5 73.5,-75.5 73.5,-56.5 38.5,-56.5"/>
<text text-anchor="middle" x="56" y="-63.5" font-family="Helvetica,sans-Serif" font-size="10.00">map</text>
</g>
<!-- Node3&#45;&gt;Node4 -->
<g id="edge3" class="edge"><title>Node3&#45;&gt;Node4</title>
<path fill="none" stroke="midnightblue" d="M45.1467,-112.083C46.8694,-104.927 49.3471,-94.6353 51.5003,-85.6911"/>
<polygon fill="midnightblue" stroke="midnightblue" points="54.9554,-86.2925 53.8933,-75.7511 48.1499,-84.6541 54.9554,-86.2925"/>
</g>
<!-- Node3&#45;&gt;Node5 -->
<g id="edge4" class="edge"><title>Node3&#45;&gt;Node5</title>
<path fill="none" stroke="midnightblue" d="M59.7094,-112.324C76.3119,-103.703 102.002,-90.3643 121.22,-80.3855"/>
<polygon fill="midnightblue" stroke="midnightblue" points="123.07,-83.3689 130.332,-75.6545 119.844,-77.1565 123.07,-83.3689"/>
</g>
<!-- Node7 -->
<g id="node7" class="node"><title>Node7</title>
<polygon fill="white" stroke="#bfbfbf" points="208,-56.5 208,-75.5 302,-75.5 302,-56.5 208,-56.5"/>
<text text-anchor="middle" x="255" y="-63.5" font-family="Helvetica,sans-Serif" font-size="10.00">hpp/util/pointer.hh</text>
</g>
<!-- Node6&#45;&gt;Node7 -->
<g id="edge6" class="edge"><title>Node6&#45;&gt;Node7</title>
<path fill="none" stroke="midnightblue" d="M315.432,-112.324C304.58,-104.185 288.119,-91.8395 275.117,-82.0874"/>
<polygon fill="midnightblue" stroke="midnightblue" points="276.879,-79.0339 266.779,-75.8339 272.679,-84.6339 276.879,-79.0339"/>
</g>
<!-- Node8 -->
<g id="node8" class="node"><title>Node8</title>
<g id="a_node8"><a doxygen="/local/devel/hpp/install/share/doc/hpp-statistics/doxygen-html/hpp-statistics.doxytag:../../hpp-statistics/doxygen-html/" xlink:href="../../hpp-statistics/doxygen-html/a00009.html" target="_top" xlink:title="hpp/statistics/distribution.hh">
<polygon fill="white" stroke="black" points="320.5,-56.5 320.5,-75.5 459.5,-75.5 459.5,-56.5 320.5,-56.5"/>
<text text-anchor="middle" x="390" y="-63.5" font-family="Helvetica,sans-Serif" font-size="10.00">hpp/statistics/distribution.hh</text>
</a>
</g>
</g>
<!-- Node6&#45;&gt;Node8 -->
<g id="edge7" class="edge"><title>Node6&#45;&gt;Node8</title>
<path fill="none" stroke="midnightblue" d="M337.122,-112.324C346.526,-104.263 360.744,-92.0765 372.069,-82.3695"/>
<polygon fill="midnightblue" stroke="midnightblue" points="374.379,-84.9993 379.694,-75.8339 369.823,-79.6844 374.379,-84.9993"/>
</g>
<!-- Node10 -->
<g id="node10" class="node"><title>Node10</title>
<polygon fill="white" stroke="#bfbfbf" points="478,-56.5 478,-75.5 522,-75.5 522,-56.5 478,-56.5"/>
<text text-anchor="middle" x="500" y="-63.5" font-family="Helvetica,sans-Serif" font-size="10.00">vector</text>
</g>
<!-- Node6&#45;&gt;Node10 -->
<g id="edge9" class="edge"><title>Node6&#45;&gt;Node10</title>
<path fill="none" stroke="midnightblue" d="M354.412,-112.444C385.276,-102.81 435.365,-87.1752 467.996,-76.9896"/>
<polygon fill="midnightblue" stroke="midnightblue" points="469.428,-80.2093 477.931,-73.8886 467.342,-73.5273 469.428,-80.2093"/>
</g>
<!-- Node9 -->
<g id="node9" class="node"><title>Node9</title>
<g id="a_node9"><a doxygen="/local/devel/hpp/install/share/doc/hpp-statistics/doxygen-html/hpp-statistics.doxytag:../../hpp-statistics/doxygen-html/" xlink:href="../../hpp-statistics/doxygen-html/a00010.html" target="_top" xlink:title="hpp/statistics/fwd.hh">
<polygon fill="white" stroke="black" points="336.5,-0.5 336.5,-19.5 443.5,-19.5 443.5,-0.5 336.5,-0.5"/>
<text text-anchor="middle" x="390" y="-7.5" font-family="Helvetica,sans-Serif" font-size="10.00">hpp/statistics/fwd.hh</text>
</a>
</g>
</g>
<!-- Node8&#45;&gt;Node9 -->
<g id="edge8" class="edge"><title>Node8&#45;&gt;Node9</title>
<path fill="none" stroke="midnightblue" d="M390,-56.083C390,-49.0059 390,-38.8611 390,-29.9865"/>
<polygon fill="midnightblue" stroke="midnightblue" points="393.5,-29.751 390,-19.7511 386.5,-29.7511 393.5,-29.751"/>
</g>
<!-- Node11&#45;&gt;Node4 -->
<g id="edge11" class="edge"><title>Node11&#45;&gt;Node4</title>
<path fill="none" stroke="midnightblue" d="M132.379,-112.324C118.051,-103.822 95.9875,-90.7288 79.2513,-80.7975"/>
<polygon fill="midnightblue" stroke="midnightblue" points="80.9704,-77.7478 70.5844,-75.6545 77.3982,-83.7677 80.9704,-77.7478"/>
</g>
<!-- Node11&#45;&gt;Node5 -->
<g id="edge12" class="edge"><title>Node11&#45;&gt;Node5</title>
<path fill="none" stroke="midnightblue" d="M147,-112.083C147,-105.006 147,-94.8611 147,-85.9865"/>
<polygon fill="midnightblue" stroke="midnightblue" points="150.5,-85.751 147,-75.7511 143.5,-85.7511 150.5,-85.751"/>
</g>
</g>
</svg>
