<?xml version="1.0" encoding="UTF-8" standalone="no"?>
<!DOCTYPE svg PUBLIC "-//W3C//DTD SVG 1.1//EN"
 "http://www.w3.org/Graphics/SVG/1.1/DTD/svg11.dtd">
<!-- Generated by graphviz version 2.38.0 (20140413.2041)
 -->
<!-- Title: small&#45;steps.hh Pages: 1 -->
<svg width="555pt" height="252pt"
 viewBox="0.00 0.00 555.00 252.00" xmlns="http://www.w3.org/2000/svg" xmlns:xlink="http://www.w3.org/1999/xlink">
<g id="graph0" class="graph" transform="scale(1 1) rotate(0) translate(4 248)">
<title>small&#45;steps.hh</title>
<polygon fill="white" stroke="none" points="-4,4 -4,-248 551,-248 551,4 -4,4"/>
<!-- Node1 -->
<g id="node1" class="node"><title>Node1</title>
<polygon fill="#bfbfbf" stroke="black" points="143,-224.5 143,-243.5 223,-243.5 223,-224.5 143,-224.5"/>
<text text-anchor="middle" x="183" y="-231.5" font-family="Helvetica,sans-Serif" font-size="10.00">small&#45;steps.hh</text>
</g>
<!-- Node2 -->
<g id="node2" class="node"><title>Node2</title>
<g id="a_node2"><a xlink:href="a00001.html" target="_top" xlink:title="hpp/manipulation/fwd.hh">
<polygon fill="white" stroke="black" points="0,-112.5 0,-131.5 122,-131.5 122,-112.5 0,-112.5"/>
<text text-anchor="middle" x="61" y="-119.5" font-family="Helvetica,sans-Serif" font-size="10.00">hpp/manipulation/fwd.hh</text>
</a>
</g>
</g>
<!-- Node1&#45;&gt;Node2 -->
<g id="edge1" class="edge"><title>Node1&#45;&gt;Node2</title>
<path fill="none" stroke="midnightblue" d="M164.342,-224.481C148.256,-216.545 125.004,-203.607 108,-188 92.8289,-174.075 79.5023,-154.549 70.9514,-140.539"/>
<polygon fill="midnightblue" stroke="midnightblue" points="73.9259,-138.693 65.8306,-131.858 67.8966,-142.249 73.9259,-138.693"/>
</g>
<!-- Node5 -->
<g id="node5" class="node"><title>Node5</title>
<polygon fill="white" stroke="#bfbfbf" points="267.5,-168.5 267.5,-187.5 400.5,-187.5 400.5,-168.5 267.5,-168.5"/>
<text text-anchor="middle" x="334" y="-175.5" font-family="Helvetica,sans-Serif" font-size="10.00">hpp/manipulation/config.hh</text>
</g>
<!-- Node1&#45;&gt;Node5 -->
<g id="edge4" class="edge"><title>Node1&#45;&gt;Node5</title>
<path fill="none" stroke="midnightblue" d="M206.926,-224.444C232.219,-215.399 272.302,-201.064 300.68,-190.916"/>
<polygon fill="midnightblue" stroke="midnightblue" points="301.948,-194.179 310.186,-187.516 299.591,-187.588 301.948,-194.179"/>
</g>
<!-- Node6 -->
<g id="node6" class="node"><title>Node6</title>
<g id="a_node6"><a doxygen="/local/devel/hpp/install/share/doc/hpp-core/doxygen-html/hpp-core.doxytag:../../hpp-core/doxygen-html/" xlink:href="../../hpp-core/doxygen-html/a00167.html" target="_top" xlink:title="hpp/core/path&#45;optimizer.hh">
<polygon fill="white" stroke="black" points="117,-168.5 117,-187.5 249,-187.5 249,-168.5 117,-168.5"/>
<text text-anchor="middle" x="183" y="-175.5" font-family="Helvetica,sans-Serif" font-size="10.00">hpp/core/path&#45;optimizer.hh</text>
</a>
</g>
</g>
<!-- Node1&#45;&gt;Node6 -->
<g id="edge5" class="edge"><title>Node1&#45;&gt;Node6</title>
<path fill="none" stroke="midnightblue" d="M183,-224.083C183,-217.006 183,-206.861 183,-197.986"/>
<polygon fill="midnightblue" stroke="midnightblue" points="186.5,-197.751 183,-187.751 179.5,-197.751 186.5,-197.751"/>
</g>
<!-- Node3 -->
<g id="node3" class="node"><title>Node3</title>
<polygon fill="white" stroke="#bfbfbf" points="54.5,-56.5 54.5,-75.5 89.5,-75.5 89.5,-56.5 54.5,-56.5"/>
<text text-anchor="middle" x="72" y="-63.5" font-family="Helvetica,sans-Serif" font-size="10.00">map</text>
</g>
<!-- Node2&#45;&gt;Node3 -->
<g id="edge2" class="edge"><title>Node2&#45;&gt;Node3</title>
<path fill="none" stroke="midnightblue" d="M62.8164,-112.083C64.2741,-104.927 66.3706,-94.6353 68.1925,-85.6911"/>
<polygon fill="midnightblue" stroke="midnightblue" points="71.6508,-86.2485 70.2174,-75.7511 64.7917,-84.8512 71.6508,-86.2485"/>
</g>
<!-- Node4 -->
<g id="node4" class="node"><title>Node4</title>
<g id="a_node4"><a doxygen="/local/devel/hpp/install/share/doc/hpp-core/doxygen-html/hpp-core.doxytag:../../hpp-core/doxygen-html/" xlink:href="../../hpp-core/doxygen-html/a00001.html" target="_top" xlink:title="hpp/core/fwd.hh">
<polygon fill="white" stroke="black" points="129,-56.5 129,-75.5 215,-75.5 215,-56.5 129,-56.5"/>
<text text-anchor="middle" x="172" y="-63.5" font-family="Helvetica,sans-Serif" font-size="10.00">hpp/core/fwd.hh</text>
</a>
</g>
</g>
<!-- Node2&#45;&gt;Node4 -->
<g id="edge3" class="edge"><title>Node2&#45;&gt;Node4</title>
<path fill="none" stroke="midnightblue" d="M78.8341,-112.324C96.7159,-103.625 124.475,-90.1202 145.046,-80.113"/>
<polygon fill="midnightblue" stroke="midnightblue" points="146.749,-83.1765 154.21,-75.6545 143.687,-76.8819 146.749,-83.1765"/>
</g>
<!-- Node6&#45;&gt;Node2 -->
<g id="edge6" class="edge"><title>Node6&#45;&gt;Node2</title>
<path fill="none" stroke="midnightblue" d="M163.669,-168.444C143.68,-159.596 112.257,-145.687 89.4361,-135.586"/>
<polygon fill="midnightblue" stroke="midnightblue" points="90.8018,-132.363 80.2408,-131.516 87.9685,-138.764 90.8018,-132.363"/>
</g>
<!-- Node6&#45;&gt;Node4 -->
<g id="edge15" class="edge"><title>Node6&#45;&gt;Node4</title>
<path fill="none" stroke="midnightblue" d="M198.799,-168.35C218.023,-156.605 246.572,-134.487 235,-112 227.923,-98.2475 214.479,-87.7663 201.822,-80.3942"/>
<polygon fill="midnightblue" stroke="midnightblue" points="203.313,-77.2221 192.847,-75.5733 200.001,-83.3888 203.313,-77.2221"/>
</g>
<!-- Node7 -->
<g id="node7" class="node"><title>Node7</title>
<g id="a_node7"><a xlink:href="a00065.html" target="_top" xlink:title="hpp/core/fwd.hh">
<polygon fill="white" stroke="black" points="326,-112.5 326,-131.5 412,-131.5 412,-112.5 326,-112.5"/>
<text text-anchor="middle" x="369" y="-119.5" font-family="Helvetica,sans-Serif" font-size="10.00">hpp/core/fwd.hh</text>
</a>
</g>
</g>
<!-- Node6&#45;&gt;Node7 -->
<g id="edge7" class="edge"><title>Node6&#45;&gt;Node7</title>
<path fill="none" stroke="midnightblue" d="M212.472,-168.444C244.171,-159.241 294.732,-144.562 329.775,-134.388"/>
<polygon fill="midnightblue" stroke="midnightblue" points="331.038,-137.666 339.666,-131.516 329.086,-130.943 331.038,-137.666"/>
</g>
<!-- Node12 -->
<g id="node12" class="node"><title>Node12</title>
<g id="a_node12"><a xlink:href="a00066.html" target="_top" xlink:title="hpp/core/fwd.hh">
<polygon fill="white" stroke="black" points="140,-112.5 140,-131.5 226,-131.5 226,-112.5 140,-112.5"/>
<text text-anchor="middle" x="183" y="-119.5" font-family="Helvetica,sans-Serif" font-size="10.00">hpp/core/fwd.hh</text>
</a>
</g>
</g>
<!-- Node6&#45;&gt;Node12 -->
<g id="edge12" class="edge"><title>Node6&#45;&gt;Node12</title>
<path fill="none" stroke="midnightblue" d="M183,-168.083C183,-161.006 183,-150.861 183,-141.986"/>
<polygon fill="midnightblue" stroke="midnightblue" points="186.5,-141.751 183,-131.751 179.5,-141.751 186.5,-141.751"/>
</g>
<!-- Node8 -->
<g id="node8" class="node"><title>Node8</title>
<polygon fill="white" stroke="#bfbfbf" points="453,-56.5 453,-75.5 547,-75.5 547,-56.5 453,-56.5"/>
<text text-anchor="middle" x="500" y="-63.5" font-family="Helvetica,sans-Serif" font-size="10.00">hpp/util/pointer.hh</text>
</g>
<!-- Node7&#45;&gt;Node8 -->
<g id="edge8" class="edge"><title>Node7&#45;&gt;Node8</title>
<path fill="none" stroke="midnightblue" d="M389.757,-112.444C411.316,-103.557 445.263,-89.5632 469.794,-79.4514"/>
<polygon fill="midnightblue" stroke="midnightblue" points="471.428,-82.5634 479.34,-75.5164 468.761,-76.0917 471.428,-82.5634"/>
</g>
<!-- Node9 -->
<g id="node9" class="node"><title>Node9</title>
<g id="a_node9"><a doxygen="/local/devel/hpp/install/share/doc/hpp-statistics/doxygen-html/hpp-statistics.doxytag:../../hpp-statistics/doxygen-html/" xlink:href="../../hpp-statistics/doxygen-html/a00009.html" target="_top" xlink:title="hpp/statistics/distribution.hh">
<polygon fill="white" stroke="black" points="233.5,-56.5 233.5,-75.5 372.5,-75.5 372.5,-56.5 233.5,-56.5"/>
<text text-anchor="middle" x="303" y="-63.5" font-family="Helvetica,sans-Serif" font-size="10.00">hpp/statistics/distribution.hh</text>
</a>
</g>
</g>
<!-- Node7&#45;&gt;Node9 -->
<g id="edge9" class="edge"><title>Node7&#45;&gt;Node9</title>
<path fill="none" stroke="midnightblue" d="M358.396,-112.324C348.544,-104.263 333.649,-92.0765 321.785,-82.3695"/>
<polygon fill="midnightblue" stroke="midnightblue" points="323.753,-79.4575 313.797,-75.8339 319.32,-84.8752 323.753,-79.4575"/>
</g>
<!-- Node11 -->
<g id="node11" class="node"><title>Node11</title>
<polygon fill="white" stroke="#bfbfbf" points="391,-56.5 391,-75.5 435,-75.5 435,-56.5 391,-56.5"/>
<text text-anchor="middle" x="413" y="-63.5" font-family="Helvetica,sans-Serif" font-size="10.00">vector</text>
</g>
<!-- Node7&#45;&gt;Node11 -->
<g id="edge11" class="edge"><title>Node7&#45;&gt;Node11</title>
<path fill="none" stroke="midnightblue" d="M376.266,-112.083C382.545,-104.377 391.788,-93.0333 399.431,-83.6531"/>
<polygon fill="midnightblue" stroke="midnightblue" points="402.266,-85.7143 405.869,-75.7511 396.839,-81.2926 402.266,-85.7143"/>
</g>
<!-- Node10 -->
<g id="node10" class="node"><title>Node10</title>
<g id="a_node10"><a doxygen="/local/devel/hpp/install/share/doc/hpp-statistics/doxygen-html/hpp-statistics.doxytag:../../hpp-statistics/doxygen-html/" xlink:href="../../hpp-statistics/doxygen-html/a00010.html" target="_top" xlink:title="hpp/statistics/fwd.hh">
<polygon fill="white" stroke="black" points="249.5,-0.5 249.5,-19.5 356.5,-19.5 356.5,-0.5 249.5,-0.5"/>
<text text-anchor="middle" x="303" y="-7.5" font-family="Helvetica,sans-Serif" font-size="10.00">hpp/statistics/fwd.hh</text>
</a>
</g>
</g>
<!-- Node9&#45;&gt;Node10 -->
<g id="edge10" class="edge"><title>Node9&#45;&gt;Node10</title>
<path fill="none" stroke="midnightblue" d="M303,-56.083C303,-49.0059 303,-38.8611 303,-29.9865"/>
<polygon fill="midnightblue" stroke="midnightblue" points="306.5,-29.751 303,-19.7511 299.5,-29.7511 306.5,-29.751"/>
</g>
<!-- Node12&#45;&gt;Node3 -->
<g id="edge13" class="edge"><title>Node12&#45;&gt;Node3</title>
<path fill="none" stroke="midnightblue" d="M165.166,-112.324C147.284,-103.625 119.525,-90.1202 98.9544,-80.113"/>
<polygon fill="midnightblue" stroke="midnightblue" points="100.313,-76.8819 89.7898,-75.6545 97.251,-83.1765 100.313,-76.8819"/>
</g>
<!-- Node12&#45;&gt;Node4 -->
<g id="edge14" class="edge"><title>Node12&#45;&gt;Node4</title>
<path fill="none" stroke="midnightblue" d="M181.184,-112.083C179.726,-104.927 177.629,-94.6353 175.807,-85.6911"/>
<polygon fill="midnightblue" stroke="midnightblue" points="179.208,-84.8512 173.783,-75.7511 172.349,-86.2485 179.208,-84.8512"/>
</g>
</g>
</svg>
