<?xml version="1.0" encoding="UTF-8" standalone="no"?>
<!DOCTYPE svg PUBLIC "-//W3C//DTD SVG 1.1//EN"
 "http://www.w3.org/Graphics/SVG/1.1/DTD/svg11.dtd">
<!-- Generated by graphviz version 2.38.0 (20140413.2041)
 -->
<!-- Title: hpp::manipulation::graph::helper::ObjectDef_t Pages: 1 -->
<svg width="197pt" height="252pt"
 viewBox="0.00 0.00 196.50 252.00" xmlns="http://www.w3.org/2000/svg" xmlns:xlink="http://www.w3.org/1999/xlink">
<g id="graph0" class="graph" transform="scale(1 1) rotate(0) translate(4 248)">
<title>hpp::manipulation::graph::helper::ObjectDef_t</title>
<polygon fill="white" stroke="none" points="-4,4 -4,-248 192.5,-248 192.5,4 -4,4"/>
<!-- Node1 -->
<g id="node1" class="node"><title>Node1</title>
<polygon fill="#bfbfbf" stroke="black" points="0,-0.5 0,-30.5 131,-30.5 131,-0.5 0,-0.5"/>
<text text-anchor="start" x="8" y="-18.5" font-family="Helvetica,sans-Serif" font-size="10.00">hpp::manipulation::</text>
<text text-anchor="middle" x="65.5" y="-7.5" font-family="Helvetica,sans-Serif" font-size="10.00">graph::helper::ObjectDef_t</text>
</g>
<!-- Node2 -->
<g id="node2" class="node"><title>Node2</title>
<g id="a_node2"><a xlink:title="STL class. ">
<polygon fill="white" stroke="#bfbfbf" points="18.5,-156.5 18.5,-175.5 78.5,-175.5 78.5,-156.5 18.5,-156.5"/>
<text text-anchor="middle" x="48.5" y="-163.5" font-family="Helvetica,sans-Serif" font-size="10.00">std::string</text>
</a>
</g>
</g>
<!-- Node2&#45;&gt;Node1 -->
<g id="edge1" class="edge"><title>Node2&#45;&gt;Node1</title>
<path fill="none" stroke="#9a32cd" stroke-dasharray="5,2" d="M45.5719,-146.3C44.0199,-135.442 42.2772,-121.483 41.5,-109 40.9477,-100.128 40.0852,-97.7756 41.5,-89 44.8764,-68.0568 53.4073,-44.9723 59.3307,-30.604"/>
<polygon fill="#9a32cd" stroke="#9a32cd" points="42.1274,-146.931 47.0718,-156.302 49.0499,-145.893 42.1274,-146.931"/>
<text text-anchor="middle" x="55.5" y="-96.5" font-family="Helvetica,sans-Serif" font-size="10.00"> name</text>
</g>
<!-- Node4 -->
<g id="node4" class="node"><title>Node4</title>
<polygon fill="white" stroke="#bfbfbf" points="78.5,-89.5 78.5,-108.5 188.5,-108.5 188.5,-89.5 78.5,-89.5"/>
<text text-anchor="middle" x="133.5" y="-96.5" font-family="Helvetica,sans-Serif" font-size="10.00">std::list&lt; std::string &gt;</text>
</g>
<!-- Node2&#45;&gt;Node4 -->
<g id="edge4" class="edge"><title>Node2&#45;&gt;Node4</title>
<path fill="none" stroke="#9a32cd" stroke-dasharray="5,2" d="M68.0267,-150.068C84.8047,-137.238 108.412,-119.185 122.218,-108.627"/>
<polygon fill="#9a32cd" stroke="#9a32cd" points="65.781,-147.379 59.9635,-156.234 70.0332,-152.94 65.781,-147.379"/>
<text text-anchor="middle" x="117" y="-130" font-family="Helvetica,sans-Serif" font-size="10.00"> elements</text>
</g>
<!-- Node3 -->
<g id="node3" class="node"><title>Node3</title>
<g id="a_node3"><a xlink:title="STL class. ">
<polygon fill="white" stroke="#bfbfbf" points="1,-213.5 1,-243.5 96,-243.5 96,-213.5 1,-213.5"/>
<text text-anchor="start" x="9" y="-231.5" font-family="Helvetica,sans-Serif" font-size="10.00">std::basic_string&lt;</text>
<text text-anchor="middle" x="48.5" y="-220.5" font-family="Helvetica,sans-Serif" font-size="10.00"> char &gt;</text>
</a>
</g>
</g>
<!-- Node3&#45;&gt;Node2 -->
<g id="edge2" class="edge"><title>Node3&#45;&gt;Node2</title>
<path fill="none" stroke="midnightblue" d="M48.5,-203.352C48.5,-193.513 48.5,-182.775 48.5,-175.54"/>
<polygon fill="midnightblue" stroke="midnightblue" points="45.0001,-203.468 48.5,-213.468 52.0001,-203.468 45.0001,-203.468"/>
</g>
<!-- Node4&#45;&gt;Node1 -->
<g id="edge3" class="edge"><title>Node4&#45;&gt;Node1</title>
<path fill="none" stroke="#9a32cd" stroke-dasharray="5,2" d="M119.622,-81.3673C107.151,-66.4199 89.0372,-44.71 77.2622,-30.5974"/>
<polygon fill="#9a32cd" stroke="#9a32cd" points="117.129,-83.842 126.223,-89.2781 122.504,-79.3574 117.129,-83.842"/>
<text text-anchor="middle" x="127" y="-63" font-family="Helvetica,sans-Serif" font-size="10.00"> shapes</text>
<text text-anchor="middle" x="127" y="-52" font-family="Helvetica,sans-Serif" font-size="10.00">handles</text>
</g>
</g>
</svg>
