<?xml version="1.0" encoding="UTF-8" standalone="no"?>
<!DOCTYPE svg PUBLIC "-//W3C//DTD SVG 1.1//EN"
 "http://www.w3.org/Graphics/SVG/1.1/DTD/svg11.dtd">
<!-- Generated by graphviz version 2.38.0 (20140413.2041)
 -->
<!-- Title: hpp::manipulation::steeringMethod::CrossStateOptimization Pages: 1 -->
<svg width="147pt" height="173pt"
 viewBox="0.00 0.00 147.00 173.00" xmlns="http://www.w3.org/2000/svg" xmlns:xlink="http://www.w3.org/1999/xlink">
<g id="graph0" class="graph" transform="scale(1 1) rotate(0) translate(4 169)">
<title>hpp::manipulation::steeringMethod::CrossStateOptimization</title>
<polygon fill="white" stroke="none" points="-4,4 -4,-169 143,-169 143,4 -4,4"/>
<!-- Node1 -->
<g id="node1" class="node"><title>Node1</title>
<polygon fill="#bfbfbf" stroke="black" points="0,-0.5 0,-41.5 139,-41.5 139,-0.5 0,-0.5"/>
<text text-anchor="start" x="8" y="-29.5" font-family="Helvetica,sans-Serif" font-size="10.00">hpp::manipulation::</text>
<text text-anchor="start" x="8" y="-18.5" font-family="Helvetica,sans-Serif" font-size="10.00">steeringMethod::CrossState</text>
<text text-anchor="middle" x="69.5" y="-7.5" font-family="Helvetica,sans-Serif" font-size="10.00">Optimization</text>
</g>
<!-- Node2 -->
<g id="node2" class="node"><title>Node2</title>
<g id="a_node2"><a xlink:href="a00053.html" target="_top" xlink:title="hpp::manipulation::\lSteeringMethod">
<polygon fill="white" stroke="black" points="20,-78.5 20,-108.5 119,-108.5 119,-78.5 20,-78.5"/>
<text text-anchor="start" x="28" y="-96.5" font-family="Helvetica,sans-Serif" font-size="10.00">hpp::manipulation::</text>
<text text-anchor="middle" x="69.5" y="-85.5" font-family="Helvetica,sans-Serif" font-size="10.00">SteeringMethod</text>
</a>
</g>
</g>
<!-- Node2&#45;&gt;Node1 -->
<g id="edge1" class="edge"><title>Node2&#45;&gt;Node1</title>
<path fill="none" stroke="midnightblue" d="M69.5,-67.9815C69.5,-59.3468 69.5,-49.7625 69.5,-41.5884"/>
<polygon fill="midnightblue" stroke="midnightblue" points="66.0001,-68.2332 69.5,-78.2333 73.0001,-68.2333 66.0001,-68.2332"/>
</g>
<!-- Node3 -->
<g id="node3" class="node"><title>Node3</title>
<g id="a_node3"><a doxygen="/local/devel/hpp/install/share/doc/hpp-core/doxygen-html/hpp-core.doxytag:../../hpp-core/doxygen-html/" xlink:href="../../hpp-core/doxygen-html/a00099.html" target="_top" xlink:title="hpp::core::SteeringMethod">
<polygon fill="white" stroke="black" points="4,-145.5 4,-164.5 135,-164.5 135,-145.5 4,-145.5"/>
<text text-anchor="middle" x="69.5" y="-152.5" font-family="Helvetica,sans-Serif" font-size="10.00">hpp::core::SteeringMethod</text>
</a>
</g>
</g>
<!-- Node3&#45;&gt;Node2 -->
<g id="edge2" class="edge"><title>Node3&#45;&gt;Node2</title>
<path fill="none" stroke="midnightblue" d="M69.5,-135.235C69.5,-126.586 69.5,-116.497 69.5,-108.523"/>
<polygon fill="midnightblue" stroke="midnightblue" points="66.0001,-135.475 69.5,-145.475 73.0001,-135.475 66.0001,-135.475"/>
</g>
</g>
</svg>
