<?xml version="1.0" encoding="UTF-8" standalone="no"?>
<!DOCTYPE svg PUBLIC "-//W3C//DTD SVG 1.1//EN"
 "http://www.w3.org/Graphics/SVG/1.1/DTD/svg11.dtd">
<!-- Generated by graphviz version 2.38.0 (20140413.2041)
 -->
<!-- Title: hpp::manipulation::pathOptimization::RandomShortcut Pages: 1 -->
<svg width="178pt" height="162pt"
 viewBox="0.00 0.00 178.00 162.00" xmlns="http://www.w3.org/2000/svg" xmlns:xlink="http://www.w3.org/1999/xlink">
<g id="graph0" class="graph" transform="scale(1 1) rotate(0) translate(4 158)">
<title>hpp::manipulation::pathOptimization::RandomShortcut</title>
<polygon fill="white" stroke="none" points="-4,4 -4,-158 174,-158 174,4 -4,4"/>
<!-- Node1 -->
<g id="node1" class="node"><title>Node1</title>
<polygon fill="#bfbfbf" stroke="black" points="0,-0.5 0,-30.5 170,-30.5 170,-0.5 0,-0.5"/>
<text text-anchor="start" x="8" y="-18.5" font-family="Helvetica,sans-Serif" font-size="10.00">hpp::manipulation::</text>
<text text-anchor="middle" x="85" y="-7.5" font-family="Helvetica,sans-Serif" font-size="10.00">pathOptimization::RandomShortcut</text>
</g>
<!-- Node2 -->
<g id="node2" class="node"><title>Node2</title>
<g id="a_node2"><a doxygen="/local/devel/hpp/install/share/doc/hpp-core/doxygen-html/hpp-core.doxytag:../../hpp-core/doxygen-html/" xlink:href="../../hpp-core/doxygen-html/a00082.html" target="_top" xlink:title="hpp::core::pathOptimization\l::RandomShortcut">
<polygon fill="white" stroke="black" points="16.5,-67.5 16.5,-97.5 153.5,-97.5 153.5,-67.5 16.5,-67.5"/>
<text text-anchor="start" x="24.5" y="-85.5" font-family="Helvetica,sans-Serif" font-size="10.00">hpp::core::pathOptimization</text>
<text text-anchor="middle" x="85" y="-74.5" font-family="Helvetica,sans-Serif" font-size="10.00">::RandomShortcut</text>
</a>
</g>
</g>
<!-- Node2&#45;&gt;Node1 -->
<g id="edge1" class="edge"><title>Node2&#45;&gt;Node1</title>
<path fill="none" stroke="midnightblue" d="M85,-57.1081C85,-48.1539 85,-38.3227 85,-30.5765"/>
<polygon fill="midnightblue" stroke="midnightblue" points="81.5001,-57.3959 85,-67.396 88.5001,-57.396 81.5001,-57.3959"/>
</g>
<!-- Node3 -->
<g id="node3" class="node"><title>Node3</title>
<g id="a_node3"><a doxygen="/local/devel/hpp/install/share/doc/hpp-core/doxygen-html/hpp-core.doxytag:../../hpp-core/doxygen-html/" xlink:href="../../hpp-core/doxygen-html/a00065.html" target="_top" xlink:title="hpp::core::PathOptimizer">
<polygon fill="white" stroke="black" points="22.5,-134.5 22.5,-153.5 147.5,-153.5 147.5,-134.5 22.5,-134.5"/>
<text text-anchor="middle" x="85" y="-141.5" font-family="Helvetica,sans-Serif" font-size="10.00">hpp::core::PathOptimizer</text>
</a>
</g>
</g>
<!-- Node3&#45;&gt;Node2 -->
<g id="edge2" class="edge"><title>Node3&#45;&gt;Node2</title>
<path fill="none" stroke="midnightblue" d="M85,-124.235C85,-115.586 85,-105.497 85,-97.523"/>
<polygon fill="midnightblue" stroke="midnightblue" points="81.5001,-124.475 85,-134.475 88.5001,-124.475 81.5001,-124.475"/>
</g>
</g>
</svg>
