<?xml version="1.0" encoding="UTF-8" standalone="no"?>
<!DOCTYPE svg PUBLIC "-//W3C//DTD SVG 1.1//EN"
 "http://www.w3.org/Graphics/SVG/1.1/DTD/svg11.dtd">
<!-- Generated by graphviz version 2.38.0 (20140413.2041)
 -->
<!-- Title: hpp::manipulation::graph::Graph Pages: 1 -->
<svg width="282pt" height="321pt"
 viewBox="0.00 0.00 281.50 321.00" xmlns="http://www.w3.org/2000/svg" xmlns:xlink="http://www.w3.org/1999/xlink">
<g id="graph0" class="graph" transform="scale(1 1) rotate(0) translate(4 317)">
<title>hpp::manipulation::graph::Graph</title>
<polygon fill="white" stroke="none" points="-4,4 -4,-317 277.5,-317 277.5,4 -4,4"/>
<!-- Node1 -->
<g id="node1" class="node"><title>Node1</title>
<polygon fill="#bfbfbf" stroke="black" points="31,-0.5 31,-30.5 130,-30.5 130,-0.5 31,-0.5"/>
<text text-anchor="start" x="39" y="-18.5" font-family="Helvetica,sans-Serif" font-size="10.00">hpp::manipulation::</text>
<text text-anchor="middle" x="80.5" y="-7.5" font-family="Helvetica,sans-Serif" font-size="10.00">graph::Graph</text>
</g>
<!-- Node2 -->
<g id="node2" class="node"><title>Node2</title>
<g id="a_node2"><a xlink:href="a00025.html" target="_top" xlink:title="Define common methods of the graph components. ">
<polygon fill="white" stroke="black" points="19,-68.5 19,-98.5 142,-98.5 142,-68.5 19,-68.5"/>
<text text-anchor="start" x="27" y="-86.5" font-family="Helvetica,sans-Serif" font-size="10.00">hpp::manipulation::</text>
<text text-anchor="middle" x="80.5" y="-75.5" font-family="Helvetica,sans-Serif" font-size="10.00">graph::GraphComponent</text>
</a>
</g>
</g>
<!-- Node2&#45;&gt;Node1 -->
<g id="edge1" class="edge"><title>Node2&#45;&gt;Node1</title>
<path fill="none" stroke="midnightblue" d="M80.5,-58.0322C80.5,-48.8606 80.5,-38.7449 80.5,-30.7931"/>
<polygon fill="midnightblue" stroke="midnightblue" points="77.0001,-58.1789 80.5,-68.179 84.0001,-58.179 77.0001,-58.1789"/>
</g>
<!-- Node3 -->
<g id="node3" class="node"><title>Node3</title>
<polygon fill="white" stroke="#bfbfbf" points="141.5,-153 141.5,-172 273.5,-172 273.5,-153 141.5,-153"/>
<text text-anchor="middle" x="207.5" y="-160" font-family="Helvetica,sans-Serif" font-size="10.00">std::vector&lt; segments_t &gt;</text>
</g>
<!-- Node3&#45;&gt;Node2 -->
<g id="edge2" class="edge"><title>Node3&#45;&gt;Node2</title>
<path fill="none" stroke="#9a32cd" stroke-dasharray="5,2" d="M184.718,-147.687C161.818,-133.803 126.699,-112.511 103.665,-98.5446"/>
<polygon fill="#9a32cd" stroke="#9a32cd" points="183.058,-150.774 193.424,-152.965 186.687,-144.788 183.058,-150.774"/>
<text text-anchor="middle" x="183.5" y="-120" font-family="Helvetica,sans-Serif" font-size="10.00"> passiveDofs_</text>
</g>
<!-- Node4 -->
<g id="node4" class="node"><title>Node4</title>
<g id="a_node4"><a xlink:title="STL class. ">
<polygon fill="white" stroke="#bfbfbf" points="0,-226.5 0,-245.5 87,-245.5 87,-226.5 0,-226.5"/>
<text text-anchor="middle" x="43.5" y="-233.5" font-family="Helvetica,sans-Serif" font-size="10.00">std::vector&lt; T &gt;</text>
</a>
</g>
</g>
<!-- Node4&#45;&gt;Node2 -->
<g id="edge5" class="edge"><title>Node4&#45;&gt;Node2</title>
<path fill="none" stroke="#9a32cd" stroke-dasharray="5,2" d="M38.0673,-216.715C33.5372,-198.385 28.9348,-169.576 36.5,-146 42.3565,-127.749 55.8442,-110.313 66.3539,-98.6975"/>
<polygon fill="#9a32cd" stroke="#9a32cd" points="34.701,-217.675 40.7014,-226.407 41.4559,-215.839 34.701,-217.675"/>
<text text-anchor="start" x="36.5" y="-171" font-family="Helvetica,sans-Serif" font-size="10.00"> numericalConstraints</text>
<text text-anchor="middle" x="84.5" y="-160" font-family="Helvetica,sans-Serif" font-size="10.00">_</text>
<text text-anchor="middle" x="84.5" y="-149" font-family="Helvetica,sans-Serif" font-size="10.00">lockedJoints_</text>
</g>
<!-- Node4&#45;&gt;Node3 -->
<g id="edge3" class="edge"><title>Node4&#45;&gt;Node3</title>
<path fill="none" stroke="#9a32cd" stroke-dasharray="5,2" d="M72.4822,-222.364C105.702,-207.882 159.243,-184.539 187.903,-172.044"/>
<polygon fill="#9a32cd" stroke="#9a32cd" points="71.0502,-219.171 63.2822,-226.375 73.8477,-225.587 71.0502,-219.171"/>
<text text-anchor="middle" x="151" y="-200" font-family="Helvetica,sans-Serif" font-size="10.00"> elements</text>
</g>
<!-- Node5 -->
<g id="node5" class="node"><title>Node5</title>
<polygon fill="white" stroke="#bfbfbf" points="29,-293.5 29,-312.5 58,-312.5 58,-293.5 29,-293.5"/>
<text text-anchor="middle" x="43.5" y="-300.5" font-family="Helvetica,sans-Serif" font-size="10.00">T</text>
</g>
<!-- Node5&#45;&gt;Node4 -->
<g id="edge4" class="edge"><title>Node5&#45;&gt;Node4</title>
<path fill="none" stroke="#9a32cd" stroke-dasharray="5,2" d="M43.5,-283.037C43.5,-270.67 43.5,-255.12 43.5,-245.627"/>
<polygon fill="#9a32cd" stroke="#9a32cd" points="40.0001,-283.234 43.5,-293.234 47.0001,-283.234 40.0001,-283.234"/>
<text text-anchor="middle" x="65" y="-267" font-family="Helvetica,sans-Serif" font-size="10.00"> elements</text>
</g>
</g>
</svg>
