<?xml version="1.0" encoding="UTF-8" standalone="no"?>
<!DOCTYPE svg PUBLIC "-//W3C//DTD SVG 1.1//EN"
 "http://www.w3.org/Graphics/SVG/1.1/DTD/svg11.dtd">
<!-- Generated by graphviz version 2.38.0 (20140413.2041)
 -->
<!-- Title: hpp::manipulation::graph::Histogram Pages: 1 -->
<svg width="252pt" height="106pt"
 viewBox="0.00 0.00 251.50 106.00" xmlns="http://www.w3.org/2000/svg" xmlns:xlink="http://www.w3.org/1999/xlink">
<g id="graph0" class="graph" transform="scale(1 1) rotate(0) translate(4 102)">
<title>hpp::manipulation::graph::Histogram</title>
<polygon fill="white" stroke="none" points="-4,4 -4,-102 247.5,-102 247.5,4 -4,4"/>
<!-- Node1 -->
<g id="node1" class="node"><title>Node1</title>
<polygon fill="#bfbfbf" stroke="black" points="70.5,-67.5 70.5,-97.5 169.5,-97.5 169.5,-67.5 70.5,-67.5"/>
<text text-anchor="start" x="78.5" y="-85.5" font-family="Helvetica,sans-Serif" font-size="10.00">hpp::manipulation::</text>
<text text-anchor="middle" x="120" y="-74.5" font-family="Helvetica,sans-Serif" font-size="10.00">graph::Histogram</text>
</g>
<!-- Node2 -->
<g id="node2" class="node"><title>Node2</title>
<g id="a_node2"><a xlink:href="a00034.html" target="_top" xlink:title="hpp::manipulation::\lgraph::LeafHistogram">
<polygon fill="white" stroke="black" points="0,-0.5 0,-30.5 110,-30.5 110,-0.5 0,-0.5"/>
<text text-anchor="start" x="8" y="-18.5" font-family="Helvetica,sans-Serif" font-size="10.00">hpp::manipulation::</text>
<text text-anchor="middle" x="55" y="-7.5" font-family="Helvetica,sans-Serif" font-size="10.00">graph::LeafHistogram</text>
</a>
</g>
</g>
<!-- Node1&#45;&gt;Node2 -->
<g id="edge1" class="edge"><title>Node1&#45;&gt;Node2</title>
<path fill="none" stroke="midnightblue" d="M98.8115,-60.3115C89.0612,-50.5612 77.759,-39.259 69.0765,-30.5765"/>
<polygon fill="midnightblue" stroke="midnightblue" points="96.35,-62.7998 105.896,-67.396 101.3,-57.85 96.35,-62.7998"/>
</g>
<!-- Node3 -->
<g id="node3" class="node"><title>Node3</title>
<g id="a_node3"><a xlink:href="a00051.html" target="_top" xlink:title="hpp::manipulation::\lgraph::StateHistogram">
<polygon fill="white" stroke="black" points="128.5,-0.5 128.5,-30.5 243.5,-30.5 243.5,-0.5 128.5,-0.5"/>
<text text-anchor="start" x="136.5" y="-18.5" font-family="Helvetica,sans-Serif" font-size="10.00">hpp::manipulation::</text>
<text text-anchor="middle" x="186" y="-7.5" font-family="Helvetica,sans-Serif" font-size="10.00">graph::StateHistogram</text>
</a>
</g>
</g>
<!-- Node1&#45;&gt;Node3 -->
<g id="edge2" class="edge"><title>Node1&#45;&gt;Node3</title>
<path fill="none" stroke="midnightblue" d="M141.515,-60.3115C151.415,-50.5612 162.891,-39.259 171.707,-30.5765"/>
<polygon fill="midnightblue" stroke="midnightblue" points="138.99,-57.8853 134.321,-67.396 143.902,-62.8728 138.99,-57.8853"/>
</g>
</g>
</svg>
