<?xml version="1.0" encoding="UTF-8" standalone="no"?>
<!DOCTYPE svg PUBLIC "-//W3C//DTD SVG 1.1//EN"
 "http://www.w3.org/Graphics/SVG/1.1/DTD/svg11.dtd">
<!-- Generated by graphviz version 2.38.0 (20140413.2041)
 -->
<!-- Title: hpp::manipulation::steeringMethod::Graph Pages: 1 -->
<svg width="256pt" height="252pt"
 viewBox="0.00 0.00 256.00 252.00" xmlns="http://www.w3.org/2000/svg" xmlns:xlink="http://www.w3.org/1999/xlink">
<g id="graph0" class="graph" transform="scale(1 1) rotate(0) translate(4 248)">
<title>hpp::manipulation::steeringMethod::Graph</title>
<polygon fill="white" stroke="none" points="-4,4 -4,-248 252,-248 252,4 -4,4"/>
<!-- Node1 -->
<g id="node1" class="node"><title>Node1</title>
<polygon fill="#bfbfbf" stroke="black" points="48.5,-0.5 48.5,-30.5 164.5,-30.5 164.5,-0.5 48.5,-0.5"/>
<text text-anchor="start" x="56.5" y="-18.5" font-family="Helvetica,sans-Serif" font-size="10.00">hpp::manipulation::</text>
<text text-anchor="middle" x="106.5" y="-7.5" font-family="Helvetica,sans-Serif" font-size="10.00">steeringMethod::Graph</text>
</g>
<!-- Node2 -->
<g id="node2" class="node"><title>Node2</title>
<g id="a_node2"><a xlink:href="a00053.html" target="_top" xlink:title="hpp::manipulation::\lSteeringMethod">
<polygon fill="white" stroke="black" points="57,-68.5 57,-98.5 156,-98.5 156,-68.5 57,-68.5"/>
<text text-anchor="start" x="65" y="-86.5" font-family="Helvetica,sans-Serif" font-size="10.00">hpp::manipulation::</text>
<text text-anchor="middle" x="106.5" y="-75.5" font-family="Helvetica,sans-Serif" font-size="10.00">SteeringMethod</text>
</a>
</g>
</g>
<!-- Node2&#45;&gt;Node1 -->
<g id="edge1" class="edge"><title>Node2&#45;&gt;Node1</title>
<path fill="none" stroke="midnightblue" d="M106.5,-58.0322C106.5,-48.8606 106.5,-38.7449 106.5,-30.7931"/>
<polygon fill="midnightblue" stroke="midnightblue" points="103,-58.1789 106.5,-68.179 110,-58.179 103,-58.1789"/>
</g>
<!-- Node3 -->
<g id="node3" class="node"><title>Node3</title>
<g id="a_node3"><a doxygen="/local/devel/hpp/install/share/doc/hpp-core/doxygen-html/hpp-core.doxytag:../../hpp-core/doxygen-html/" xlink:href="../../hpp-core/doxygen-html/a00099.html" target="_top" xlink:title="hpp::core::SteeringMethod">
<polygon fill="white" stroke="black" points="0,-152 0,-171 131,-171 131,-152 0,-152"/>
<text text-anchor="middle" x="65.5" y="-159" font-family="Helvetica,sans-Serif" font-size="10.00">hpp::core::SteeringMethod</text>
</a>
</g>
</g>
<!-- Node3&#45;&gt;Node2 -->
<g id="edge2" class="edge"><title>Node3&#45;&gt;Node2</title>
<path fill="none" stroke="midnightblue" d="M74.955,-142.974C82.239,-129.472 92.1753,-111.053 98.9367,-98.5198"/>
<polygon fill="midnightblue" stroke="midnightblue" points="71.8708,-141.319 70.2032,-151.782 78.0315,-144.643 71.8708,-141.319"/>
</g>
<!-- Node4 -->
<g id="node4" class="node"><title>Node4</title>
<g id="a_node4"><a doxygen="/local/devel/hpp/install/share/doc/hpp-core/doxygen-html/hpp-core.doxytag:../../hpp-core/doxygen-html/" xlink:href="../../hpp-core/doxygen-html/a00074.html" target="_top" xlink:title="hpp::core::Problem">
<polygon fill="white" stroke="black" points="91,-224.5 91,-243.5 190,-243.5 190,-224.5 91,-224.5"/>
<text text-anchor="middle" x="140.5" y="-231.5" font-family="Helvetica,sans-Serif" font-size="10.00">hpp::core::Problem</text>
</a>
</g>
</g>
<!-- Node4&#45;&gt;Node3 -->
<g id="edge3" class="edge"><title>Node4&#45;&gt;Node3</title>
<path fill="none" stroke="#9a32cd" stroke-dasharray="5,2" d="M123.683,-217.192C108.577,-202.993 86.956,-182.669 74.7717,-171.215"/>
<polygon fill="#9a32cd" stroke="#9a32cd" points="121.62,-220.056 131.304,-224.355 126.414,-214.956 121.62,-220.056"/>
<text text-anchor="middle" x="131" y="-198" font-family="Helvetica,sans-Serif" font-size="10.00"> problem_</text>
</g>
<!-- Node5 -->
<g id="node5" class="node"><title>Node5</title>
<g id="a_node5"><a xlink:href="a00040.html" target="_top" xlink:title="hpp::manipulation::\lProblem">
<polygon fill="white" stroke="black" points="149,-146.5 149,-176.5 248,-176.5 248,-146.5 149,-146.5"/>
<text text-anchor="start" x="157" y="-164.5" font-family="Helvetica,sans-Serif" font-size="10.00">hpp::manipulation::</text>
<text text-anchor="middle" x="198.5" y="-153.5" font-family="Helvetica,sans-Serif" font-size="10.00">Problem</text>
</a>
</g>
</g>
<!-- Node4&#45;&gt;Node5 -->
<g id="edge5" class="edge"><title>Node4&#45;&gt;Node5</title>
<path fill="none" stroke="midnightblue" d="M154.163,-216.393C164.126,-204.283 177.479,-188.051 186.92,-176.576"/>
<polygon fill="midnightblue" stroke="midnightblue" points="151.262,-214.409 147.612,-224.355 156.668,-218.856 151.262,-214.409"/>
</g>
<!-- Node5&#45;&gt;Node2 -->
<g id="edge4" class="edge"><title>Node5&#45;&gt;Node2</title>
<path fill="none" stroke="#9a32cd" stroke-dasharray="5,2" d="M173.386,-139.753C157.625,-126.734 137.712,-110.284 123.727,-98.7309"/>
<polygon fill="#9a32cd" stroke="#9a32cd" points="171.257,-142.535 181.196,-146.205 175.715,-137.138 171.257,-142.535"/>
<text text-anchor="middle" x="179" y="-120" font-family="Helvetica,sans-Serif" font-size="10.00"> problem_</text>
</g>
</g>
</svg>
