<?xml version="1.0" encoding="UTF-8" standalone="no"?>
<!DOCTYPE svg PUBLIC "-//W3C//DTD SVG 1.1//EN"
 "http://www.w3.org/Graphics/SVG/1.1/DTD/svg11.dtd">
<!-- Generated by graphviz version 2.38.0 (20140413.2041)
 -->
<!-- Title: hpp::manipulation::graph::StateSelector Pages: 1 -->
<svg width="863pt" height="135pt"
 viewBox="0.00 0.00 863.00 135.00" xmlns="http://www.w3.org/2000/svg" xmlns:xlink="http://www.w3.org/1999/xlink">
<g id="graph0" class="graph" transform="scale(1 1) rotate(0) translate(4 131)">
<title>hpp::manipulation::graph::StateSelector</title>
<polygon fill="white" stroke="none" points="-4,4 -4,-131 859,-131 859,4 -4,4"/>
<!-- Node1 -->
<g id="node1" class="node"><title>Node1</title>
<polygon fill="#bfbfbf" stroke="black" points="749,-33 749,-63 855,-63 855,-33 749,-33"/>
<text text-anchor="start" x="757" y="-51" font-family="Helvetica,sans-Serif" font-size="10.00">hpp::manipulation::</text>
<text text-anchor="middle" x="802" y="-40" font-family="Helvetica,sans-Serif" font-size="10.00">graph::StateSelector</text>
</g>
<!-- Node2 -->
<g id="node2" class="node"><title>Node2</title>
<g id="a_node2"><a xlink:href="a00025.html" target="_top" xlink:title="Define common methods of the graph components. ">
<polygon fill="white" stroke="black" points="513,-77 513,-107 636,-107 636,-77 513,-77"/>
<text text-anchor="start" x="521" y="-95" font-family="Helvetica,sans-Serif" font-size="10.00">hpp::manipulation::</text>
<text text-anchor="middle" x="574.5" y="-84" font-family="Helvetica,sans-Serif" font-size="10.00">graph::GraphComponent</text>
</a>
</g>
</g>
<!-- Node2&#45;&gt;Node1 -->
<g id="edge1" class="edge"><title>Node2&#45;&gt;Node1</title>
<path fill="none" stroke="midnightblue" d="M646.128,-79.2403C672.76,-74.3208 703.303,-68.5491 731,-63 736.728,-61.8524 742.712,-60.6207 748.665,-59.3743"/>
<polygon fill="midnightblue" stroke="midnightblue" points="645.328,-75.8287 636.127,-81.0818 646.595,-82.713 645.328,-75.8287"/>
</g>
<!-- Node3 -->
<g id="node3" class="node"><title>Node3</title>
<polygon fill="white" stroke="#bfbfbf" points="274,-49.5 274,-68.5 406,-68.5 406,-49.5 274,-49.5"/>
<text text-anchor="middle" x="340" y="-56.5" font-family="Helvetica,sans-Serif" font-size="10.00">std::vector&lt; segments_t &gt;</text>
</g>
<!-- Node3&#45;&gt;Node2 -->
<g id="edge2" class="edge"><title>Node3&#45;&gt;Node2</title>
<path fill="none" stroke="#9a32cd" stroke-dasharray="5,2" d="M416.062,-69.6539C447.363,-74.0967 483.24,-79.1889 512.833,-83.3891"/>
<polygon fill="#9a32cd" stroke="#9a32cd" points="416.466,-66.1763 406.073,-68.2362 415.482,-73.1068 416.466,-66.1763"/>
<text text-anchor="middle" x="456" y="-83" font-family="Helvetica,sans-Serif" font-size="10.00"> passiveDofs_</text>
</g>
<!-- Node4 -->
<g id="node4" class="node"><title>Node4</title>
<g id="a_node4"><a xlink:title="STL class. ">
<polygon fill="white" stroke="#bfbfbf" points="108,-77.5 108,-96.5 195,-96.5 195,-77.5 108,-77.5"/>
<text text-anchor="middle" x="151.5" y="-84.5" font-family="Helvetica,sans-Serif" font-size="10.00">std::vector&lt; T &gt;</text>
</a>
</g>
</g>
<!-- Node4&#45;&gt;Node2 -->
<g id="edge5" class="edge"><title>Node4&#45;&gt;Node2</title>
<path fill="none" stroke="#9a32cd" stroke-dasharray="5,2" d="M205.263,-90.6861C207.879,-90.8068 210.469,-90.9129 213,-91 318.397,-94.6267 441.228,-93.9124 512.882,-93.0005"/>
<polygon fill="#9a32cd" stroke="#9a32cd" points="205.29,-87.1829 195.121,-90.1572 204.926,-94.1734 205.29,-87.1829"/>
<text text-anchor="start" x="292" y="-119" font-family="Helvetica,sans-Serif" font-size="10.00"> numericalConstraints</text>
<text text-anchor="middle" x="340" y="-108" font-family="Helvetica,sans-Serif" font-size="10.00">_</text>
<text text-anchor="middle" x="340" y="-97" font-family="Helvetica,sans-Serif" font-size="10.00">lockedJoints_</text>
</g>
<!-- Node4&#45;&gt;Node3 -->
<g id="edge3" class="edge"><title>Node4&#45;&gt;Node3</title>
<path fill="none" stroke="#9a32cd" stroke-dasharray="5,2" d="M205.361,-79.0638C227.197,-75.7855 252.695,-71.9573 275.531,-68.5288"/>
<polygon fill="#9a32cd" stroke="#9a32cd" points="204.656,-75.6302 195.287,-80.5762 205.696,-82.5527 204.656,-75.6302"/>
<text text-anchor="middle" x="234.5" y="-81" font-family="Helvetica,sans-Serif" font-size="10.00"> elements</text>
</g>
<!-- Node5 -->
<g id="node5" class="node"><title>Node5</title>
<polygon fill="white" stroke="#bfbfbf" points="0,-77.5 0,-96.5 29,-96.5 29,-77.5 0,-77.5"/>
<text text-anchor="middle" x="14.5" y="-84.5" font-family="Helvetica,sans-Serif" font-size="10.00">T</text>
</g>
<!-- Node5&#45;&gt;Node4 -->
<g id="edge4" class="edge"><title>Node5&#45;&gt;Node4</title>
<path fill="none" stroke="#9a32cd" stroke-dasharray="5,2" d="M39.3102,-87C58.2389,-87 85.2045,-87 107.839,-87"/>
<polygon fill="#9a32cd" stroke="#9a32cd" points="39.1875,-83.5001 29.1874,-87 39.1874,-90.5001 39.1875,-83.5001"/>
<text text-anchor="middle" x="68.5" y="-90" font-family="Helvetica,sans-Serif" font-size="10.00"> elements</text>
</g>
<!-- Node6 -->
<g id="node6" class="node"><title>Node6</title>
<polygon fill="white" stroke="#bfbfbf" points="506,-38.5 506,-57.5 643,-57.5 643,-38.5 506,-38.5"/>
<text text-anchor="middle" x="574.5" y="-45.5" font-family="Helvetica,sans-Serif" font-size="10.00">std::list&lt; WeighedState_t &gt;</text>
</g>
<!-- Node6&#45;&gt;Node1 -->
<g id="edge6" class="edge"><title>Node6&#45;&gt;Node1</title>
<path fill="none" stroke="#9a32cd" stroke-dasharray="5,2" d="M653.249,-48C684.814,-48 720.442,-48 748.803,-48"/>
<polygon fill="#9a32cd" stroke="#9a32cd" points="653.157,-44.5001 643.157,-48 653.157,-51.5001 653.157,-44.5001"/>
<text text-anchor="middle" x="696" y="-51" font-family="Helvetica,sans-Serif" font-size="10.00"> orderedStates_</text>
</g>
<!-- Node7 -->
<g id="node7" class="node"><title>Node7</title>
<polygon fill="white" stroke="#bfbfbf" points="512,-0.5 512,-19.5 637,-19.5 637,-0.5 512,-0.5"/>
<text text-anchor="middle" x="574.5" y="-7.5" font-family="Helvetica,sans-Serif" font-size="10.00">std::vector&lt; StatePtr_t &gt;</text>
</g>
<!-- Node7&#45;&gt;Node1 -->
<g id="edge7" class="edge"><title>Node7&#45;&gt;Node1</title>
<path fill="none" stroke="#9a32cd" stroke-dasharray="5,2" d="M647.243,-19.629C673.638,-23.4299 703.735,-28.0676 731,-33 736.748,-34.0399 742.745,-35.2035 748.706,-36.4104"/>
<polygon fill="#9a32cd" stroke="#9a32cd" points="647.716,-16.1611 637.323,-18.2143 646.728,-23.091 647.716,-16.1611"/>
<text text-anchor="middle" x="696" y="-36" font-family="Helvetica,sans-Serif" font-size="10.00"> waypoints_</text>
</g>
</g>
</svg>
