<?xml version="1.0" encoding="UTF-8" standalone="no"?>
<!DOCTYPE svg PUBLIC "-//W3C//DTD SVG 1.1//EN"
 "http://www.w3.org/Graphics/SVG/1.1/DTD/svg11.dtd">
<!-- Generated by graphviz version 2.38.0 (20140413.2041)
 -->
<!-- Title: hpp::manipulation::SteeringMethod Pages: 1 -->
<svg width="449pt" height="99pt"
 viewBox="0.00 0.00 449.00 98.50" xmlns="http://www.w3.org/2000/svg" xmlns:xlink="http://www.w3.org/1999/xlink">
<g id="graph0" class="graph" transform="scale(1 1) rotate(0) translate(4 94.5)">
<title>hpp::manipulation::SteeringMethod</title>
<polygon fill="white" stroke="none" points="-4,4 -4,-94.5 445,-94.5 445,4 -4,4"/>
<!-- Node1 -->
<g id="node1" class="node"><title>Node1</title>
<polygon fill="#bfbfbf" stroke="black" points="167,-27.5 167,-57.5 266,-57.5 266,-27.5 167,-27.5"/>
<text text-anchor="start" x="175" y="-45.5" font-family="Helvetica,sans-Serif" font-size="10.00">hpp::manipulation::</text>
<text text-anchor="middle" x="216.5" y="-34.5" font-family="Helvetica,sans-Serif" font-size="10.00">SteeringMethod</text>
</g>
<!-- Node3 -->
<g id="node3" class="node"><title>Node3</title>
<g id="a_node3"><a xlink:href="a00014.html" target="_top" xlink:title="Optimization&#45;based steering method. ">
<polygon fill="white" stroke="black" points="302,-49 302,-90 441,-90 441,-49 302,-49"/>
<text text-anchor="start" x="310" y="-78" font-family="Helvetica,sans-Serif" font-size="10.00">hpp::manipulation::</text>
<text text-anchor="start" x="310" y="-67" font-family="Helvetica,sans-Serif" font-size="10.00">steeringMethod::CrossState</text>
<text text-anchor="middle" x="371.5" y="-56" font-family="Helvetica,sans-Serif" font-size="10.00">Optimization</text>
</a>
</g>
</g>
<!-- Node1&#45;&gt;Node3 -->
<g id="edge2" class="edge"><title>Node1&#45;&gt;Node3</title>
<path fill="none" stroke="midnightblue" d="M276.318,-52.8797C284.65,-54.3499 293.277,-55.8724 301.775,-57.3721"/>
<polygon fill="midnightblue" stroke="midnightblue" points="276.787,-49.4084 266.331,-51.1172 275.57,-56.3019 276.787,-49.4084"/>
</g>
<!-- Node4 -->
<g id="node4" class="node"><title>Node4</title>
<g id="a_node4"><a xlink:href="a00024.html" target="_top" xlink:title="hpp::manipulation::\lsteeringMethod::Graph">
<polygon fill="white" stroke="black" points="313.5,-0.5 313.5,-30.5 429.5,-30.5 429.5,-0.5 313.5,-0.5"/>
<text text-anchor="start" x="321.5" y="-18.5" font-family="Helvetica,sans-Serif" font-size="10.00">hpp::manipulation::</text>
<text text-anchor="middle" x="371.5" y="-7.5" font-family="Helvetica,sans-Serif" font-size="10.00">steeringMethod::Graph</text>
</a>
</g>
</g>
<!-- Node1&#45;&gt;Node4 -->
<g id="edge3" class="edge"><title>Node1&#45;&gt;Node4</title>
<path fill="none" stroke="midnightblue" d="M276.35,-32.1147C288.488,-29.9728 301.252,-27.7202 313.329,-25.589"/>
<polygon fill="midnightblue" stroke="midnightblue" points="275.57,-28.6981 266.331,-33.8828 276.787,-35.5916 275.57,-28.6981"/>
</g>
<!-- Node2 -->
<g id="node2" class="node"><title>Node2</title>
<g id="a_node2"><a doxygen="/local/devel/hpp/install/share/doc/hpp-core/doxygen-html/hpp-core.doxytag:../../hpp-core/doxygen-html/" xlink:href="../../hpp-core/doxygen-html/a00099.html" target="_top" xlink:title="hpp::core::SteeringMethod">
<polygon fill="white" stroke="black" points="0,-33 0,-52 131,-52 131,-33 0,-33"/>
<text text-anchor="middle" x="65.5" y="-40" font-family="Helvetica,sans-Serif" font-size="10.00">hpp::core::SteeringMethod</text>
</a>
</g>
</g>
<!-- Node2&#45;&gt;Node1 -->
<g id="edge1" class="edge"><title>Node2&#45;&gt;Node1</title>
<path fill="none" stroke="midnightblue" d="M141.529,-42.5C150.16,-42.5 158.782,-42.5 166.931,-42.5"/>
<polygon fill="midnightblue" stroke="midnightblue" points="141.42,-39.0001 131.42,-42.5 141.42,-46.0001 141.42,-39.0001"/>
</g>
</g>
</svg>
