<?xml version="1.0" encoding="UTF-8" standalone="no"?>
<!DOCTYPE svg PUBLIC "-//W3C//DTD SVG 1.1//EN"
 "http://www.w3.org/Graphics/SVG/1.1/DTD/svg11.dtd">
<!-- Generated by graphviz version 2.38.0 (20140413.2041)
 -->
<!-- Title: hpp::manipulation::pathOptimization::SplineGradientBased&lt; _PolynomeBasis, _SplineOrder &gt; Pages: 1 -->
<svg width="770pt" height="50pt"
 viewBox="0.00 0.00 770.00 50.00" xmlns="http://www.w3.org/2000/svg" xmlns:xlink="http://www.w3.org/1999/xlink">
<g id="graph0" class="graph" transform="scale(1 1) rotate(0) translate(4 46)">
<title>hpp::manipulation::pathOptimization::SplineGradientBased&lt; _PolynomeBasis, _SplineOrder &gt;</title>
<polygon fill="white" stroke="none" points="-4,4 -4,-46 766,-46 766,4 -4,4"/>
<!-- Node1 -->
<g id="node1" class="node"><title>Node1</title>
<polygon fill="#bfbfbf" stroke="black" points="564,-0.5 564,-41.5 762,-41.5 762,-0.5 564,-0.5"/>
<text text-anchor="start" x="572" y="-29.5" font-family="Helvetica,sans-Serif" font-size="10.00">hpp::manipulation::</text>
<text text-anchor="start" x="572" y="-18.5" font-family="Helvetica,sans-Serif" font-size="10.00">pathOptimization::SplineGradient</text>
<text text-anchor="middle" x="663" y="-7.5" font-family="Helvetica,sans-Serif" font-size="10.00">Based&lt; _PolynomeBasis, _SplineOrder &gt;</text>
</g>
<!-- Node2 -->
<g id="node2" class="node"><title>Node2</title>
<g id="a_node2"><a doxygen="/local/devel/hpp/install/share/doc/hpp-core/doxygen-html/hpp-core.doxytag:../../hpp-core/doxygen-html/" xlink:href="../../hpp-core/doxygen-html/a00096.html" target="_top" xlink:title="hpp::core::pathOptimization\l::SplineGradientBased\&lt; \l_PolynomeBasis, _SplineOrder \&gt;">
<polygon fill="white" stroke="black" points="367,-0.5 367,-41.5 528,-41.5 528,-0.5 367,-0.5"/>
<text text-anchor="start" x="375" y="-29.5" font-family="Helvetica,sans-Serif" font-size="10.00">hpp::core::pathOptimization</text>
<text text-anchor="start" x="375" y="-18.5" font-family="Helvetica,sans-Serif" font-size="10.00">::SplineGradientBased&lt; </text>
<text text-anchor="middle" x="447.5" y="-7.5" font-family="Helvetica,sans-Serif" font-size="10.00">_PolynomeBasis, _SplineOrder &gt;</text>
</a>
</g>
</g>
<!-- Node2&#45;&gt;Node1 -->
<g id="edge1" class="edge"><title>Node2&#45;&gt;Node1</title>
<path fill="none" stroke="midnightblue" d="M538.468,-21C546.872,-21 555.417,-21 563.89,-21"/>
<polygon fill="midnightblue" stroke="midnightblue" points="538.303,-17.5001 528.303,-21 538.303,-24.5001 538.303,-17.5001"/>
</g>
<!-- Node3 -->
<g id="node3" class="node"><title>Node3</title>
<g id="a_node3"><a doxygen="/local/devel/hpp/install/share/doc/hpp-core/doxygen-html/hpp-core.doxytag:../../hpp-core/doxygen-html/" xlink:href="../../hpp-core/doxygen-html/a00097.html" target="_top" xlink:title="hpp::core::pathOptimization\l::SplineGradientBasedAbstract\l\&lt; _PolynomeBasis, _SplineOrder \&gt;">
<polygon fill="white" stroke="black" points="161,-0.5 161,-41.5 331,-41.5 331,-0.5 161,-0.5"/>
<text text-anchor="start" x="169" y="-29.5" font-family="Helvetica,sans-Serif" font-size="10.00">hpp::core::pathOptimization</text>
<text text-anchor="start" x="169" y="-18.5" font-family="Helvetica,sans-Serif" font-size="10.00">::SplineGradientBasedAbstract</text>
<text text-anchor="middle" x="246" y="-7.5" font-family="Helvetica,sans-Serif" font-size="10.00">&lt; _PolynomeBasis, _SplineOrder &gt;</text>
</a>
</g>
</g>
<!-- Node3&#45;&gt;Node2 -->
<g id="edge2" class="edge"><title>Node3&#45;&gt;Node2</title>
<path fill="none" stroke="midnightblue" d="M341.057,-21C349.636,-21 358.272,-21 366.708,-21"/>
<polygon fill="midnightblue" stroke="midnightblue" points="341.028,-17.5001 331.028,-21 341.028,-24.5001 341.028,-17.5001"/>
</g>
<!-- Node4 -->
<g id="node4" class="node"><title>Node4</title>
<g id="a_node4"><a doxygen="/local/devel/hpp/install/share/doc/hpp-core/doxygen-html/hpp-core.doxytag:../../hpp-core/doxygen-html/" xlink:href="../../hpp-core/doxygen-html/a00065.html" target="_top" xlink:title="hpp::core::PathOptimizer">
<polygon fill="white" stroke="black" points="0,-11.5 0,-30.5 125,-30.5 125,-11.5 0,-11.5"/>
<text text-anchor="middle" x="62.5" y="-18.5" font-family="Helvetica,sans-Serif" font-size="10.00">hpp::core::PathOptimizer</text>
</a>
</g>
</g>
<!-- Node4&#45;&gt;Node3 -->
<g id="edge3" class="edge"><title>Node4&#45;&gt;Node3</title>
<path fill="none" stroke="midnightblue" d="M135.336,-21C143.755,-21 152.401,-21 160.966,-21"/>
<polygon fill="midnightblue" stroke="midnightblue" points="135.201,-17.5001 125.201,-21 135.201,-24.5001 135.201,-17.5001"/>
</g>
</g>
</svg>
