<?xml version="1.0" encoding="UTF-8" standalone="no"?>
<!DOCTYPE svg PUBLIC "-//W3C//DTD SVG 1.1//EN"
 "http://www.w3.org/Graphics/SVG/1.1/DTD/svg11.dtd">
<!-- Generated by graphviz version 2.38.0 (20140413.2041)
 -->
<!-- Title: hpp::manipulation::WeighedLeafConnectedComp Pages: 1 -->
<svg width="246pt" height="330pt"
 viewBox="0.00 0.00 245.50 330.00" xmlns="http://www.w3.org/2000/svg" xmlns:xlink="http://www.w3.org/1999/xlink">
<g id="graph0" class="graph" transform="scale(1 1) rotate(0) translate(4 326)">
<title>hpp::manipulation::WeighedLeafConnectedComp</title>
<polygon fill="white" stroke="none" points="-4,4 -4,-326 241.5,-326 241.5,4 -4,4"/>
<!-- Node1 -->
<g id="node1" class="node"><title>Node1</title>
<polygon fill="#bfbfbf" stroke="black" points="85,-0.5 85,-30.5 232,-30.5 232,-0.5 85,-0.5"/>
<text text-anchor="start" x="93" y="-18.5" font-family="Helvetica,sans-Serif" font-size="10.00">hpp::manipulation::</text>
<text text-anchor="middle" x="158.5" y="-7.5" font-family="Helvetica,sans-Serif" font-size="10.00">WeighedLeafConnectedComp</text>
</g>
<!-- Node2 -->
<g id="node2" class="node"><title>Node2</title>
<g id="a_node2"><a xlink:href="a00033.html" target="_top" xlink:title="Set of configurations accessible to each others by a single transition, with the same right hand side...">
<polygon fill="white" stroke="black" points="14,-78.5 14,-108.5 123,-108.5 123,-78.5 14,-78.5"/>
<text text-anchor="start" x="22" y="-96.5" font-family="Helvetica,sans-Serif" font-size="10.00">hpp::manipulation::</text>
<text text-anchor="middle" x="68.5" y="-85.5" font-family="Helvetica,sans-Serif" font-size="10.00">LeafConnectedComp</text>
</a>
</g>
</g>
<!-- Node2&#45;&gt;Node1 -->
<g id="edge1" class="edge"><title>Node2&#45;&gt;Node1</title>
<path fill="none" stroke="midnightblue" d="M93.4938,-71.3941C108.843,-58.4322 128.092,-42.1775 141.648,-30.7309"/>
<polygon fill="midnightblue" stroke="midnightblue" points="90.8105,-69.079 85.4283,-78.205 95.3268,-74.4273 90.8105,-69.079"/>
</g>
<!-- Node3 -->
<g id="node3" class="node"><title>Node3</title>
<polygon fill="white" stroke="#bfbfbf" points="0,-156.5 0,-186.5 137,-186.5 137,-156.5 0,-156.5"/>
<text text-anchor="start" x="8" y="-174.5" font-family="Helvetica,sans-Serif" font-size="10.00">std::vector&lt; RoadmapNode</text>
<text text-anchor="middle" x="68.5" y="-163.5" font-family="Helvetica,sans-Serif" font-size="10.00">Ptr_t &gt;</text>
</g>
<!-- Node3&#45;&gt;Node2 -->
<g id="edge2" class="edge"><title>Node3&#45;&gt;Node2</title>
<path fill="none" stroke="#9a32cd" stroke-dasharray="5,2" d="M68.5,-146.09C68.5,-133.757 68.5,-119.224 68.5,-108.731"/>
<polygon fill="#9a32cd" stroke="#9a32cd" points="65.0001,-146.205 68.5,-156.205 72.0001,-146.205 65.0001,-146.205"/>
<text text-anchor="middle" x="86" y="-130" font-family="Helvetica,sans-Serif" font-size="10.00"> nodes_</text>
</g>
<!-- Node4 -->
<g id="node4" class="node"><title>Node4</title>
<g id="a_node4"><a xlink:href="a00044.html" target="_top" xlink:title="hpp::manipulation::\lRoadmapNode">
<polygon fill="white" stroke="black" points="19,-234.5 19,-264.5 118,-264.5 118,-234.5 19,-234.5"/>
<text text-anchor="start" x="27" y="-252.5" font-family="Helvetica,sans-Serif" font-size="10.00">hpp::manipulation::</text>
<text text-anchor="middle" x="68.5" y="-241.5" font-family="Helvetica,sans-Serif" font-size="10.00">RoadmapNode</text>
</a>
</g>
</g>
<!-- Node4&#45;&gt;Node3 -->
<g id="edge3" class="edge"><title>Node4&#45;&gt;Node3</title>
<path fill="none" stroke="#9a32cd" stroke-dasharray="5,2" d="M68.5,-224.09C68.5,-211.757 68.5,-197.224 68.5,-186.731"/>
<polygon fill="#9a32cd" stroke="#9a32cd" points="65.0001,-224.205 68.5,-234.205 72.0001,-224.205 65.0001,-224.205"/>
<text text-anchor="middle" x="90" y="-208" font-family="Helvetica,sans-Serif" font-size="10.00"> elements</text>
</g>
<!-- Node5 -->
<g id="node5" class="node"><title>Node5</title>
<g id="a_node5"><a doxygen="/local/devel/hpp/install/share/doc/hpp-core/doxygen-html/hpp-core.doxytag:../../hpp-core/doxygen-html/" xlink:href="../../hpp-core/doxygen-html/a00055.html" target="_top" xlink:title="hpp::core::Node">
<polygon fill="white" stroke="black" points="25.5,-302.5 25.5,-321.5 111.5,-321.5 111.5,-302.5 25.5,-302.5"/>
<text text-anchor="middle" x="68.5" y="-309.5" font-family="Helvetica,sans-Serif" font-size="10.00">hpp::core::Node</text>
</a>
</g>
</g>
<!-- Node5&#45;&gt;Node4 -->
<g id="edge4" class="edge"><title>Node5&#45;&gt;Node4</title>
<path fill="none" stroke="midnightblue" d="M68.5,-292.215C68.5,-283.356 68.5,-272.958 68.5,-264.759"/>
<polygon fill="midnightblue" stroke="midnightblue" points="65.0001,-292.332 68.5,-302.332 72.0001,-292.332 65.0001,-292.332"/>
</g>
<!-- Node6 -->
<g id="node6" class="node"><title>Node6</title>
<polygon fill="white" stroke="#bfbfbf" points="141.5,-78.5 141.5,-108.5 237.5,-108.5 237.5,-78.5 141.5,-78.5"/>
<text text-anchor="start" x="149.5" y="-96.5" font-family="Helvetica,sans-Serif" font-size="10.00">std::vector&lt; graph</text>
<text text-anchor="middle" x="189.5" y="-85.5" font-family="Helvetica,sans-Serif" font-size="10.00">::EdgePtr_t &gt;</text>
</g>
<!-- Node6&#45;&gt;Node1 -->
<g id="edge5" class="edge"><title>Node6&#45;&gt;Node1</title>
<path fill="none" stroke="#9a32cd" stroke-dasharray="5,2" d="M179.847,-68.8345C174.753,-56.3454 168.671,-41.4356 164.305,-30.7309"/>
<polygon fill="#9a32cd" stroke="#9a32cd" points="176.651,-70.2675 183.669,-78.205 183.133,-67.6237 176.651,-70.2675"/>
<text text-anchor="middle" x="194" y="-52" font-family="Helvetica,sans-Serif" font-size="10.00"> edges_</text>
</g>
</g>
</svg>
