<?xml version="1.0" encoding="UTF-8" standalone="no"?>
<!DOCTYPE svg PUBLIC "-//W3C//DTD SVG 1.1//EN"
 "http://www.w3.org/Graphics/SVG/1.1/DTD/svg11.dtd">
<!-- Generated by graphviz version 2.38.0 (20140413.2041)
 -->
<!-- Title: hpp::manipulation::graph::GraphComponent Pages: 1 -->
<svg width="282pt" height="253pt"
 viewBox="0.00 0.00 281.50 253.00" xmlns="http://www.w3.org/2000/svg" xmlns:xlink="http://www.w3.org/1999/xlink">
<g id="graph0" class="graph" transform="scale(1 1) rotate(0) translate(4 249)">
<title>hpp::manipulation::graph::GraphComponent</title>
<polygon fill="white" stroke="none" points="-4,4 -4,-249 277.5,-249 277.5,4 -4,4"/>
<!-- Node1 -->
<g id="node1" class="node"><title>Node1</title>
<polygon fill="#bfbfbf" stroke="black" points="19,-0.5 19,-30.5 142,-30.5 142,-0.5 19,-0.5"/>
<text text-anchor="start" x="27" y="-18.5" font-family="Helvetica,sans-Serif" font-size="10.00">hpp::manipulation::</text>
<text text-anchor="middle" x="80.5" y="-7.5" font-family="Helvetica,sans-Serif" font-size="10.00">graph::GraphComponent</text>
</g>
<!-- Node2 -->
<g id="node2" class="node"><title>Node2</title>
<polygon fill="white" stroke="#bfbfbf" points="141.5,-85 141.5,-104 273.5,-104 273.5,-85 141.5,-85"/>
<text text-anchor="middle" x="207.5" y="-92" font-family="Helvetica,sans-Serif" font-size="10.00">std::vector&lt; segments_t &gt;</text>
</g>
<!-- Node2&#45;&gt;Node1 -->
<g id="edge1" class="edge"><title>Node2&#45;&gt;Node1</title>
<path fill="none" stroke="#9a32cd" stroke-dasharray="5,2" d="M184.718,-79.687C161.818,-65.8028 126.699,-44.5106 103.665,-30.5446"/>
<polygon fill="#9a32cd" stroke="#9a32cd" points="183.058,-82.7738 193.424,-84.9655 186.687,-76.788 183.058,-82.7738"/>
<text text-anchor="middle" x="183.5" y="-52" font-family="Helvetica,sans-Serif" font-size="10.00"> passiveDofs_</text>
</g>
<!-- Node3 -->
<g id="node3" class="node"><title>Node3</title>
<g id="a_node3"><a xlink:title="STL class. ">
<polygon fill="white" stroke="#bfbfbf" points="0,-158.5 0,-177.5 87,-177.5 87,-158.5 0,-158.5"/>
<text text-anchor="middle" x="43.5" y="-165.5" font-family="Helvetica,sans-Serif" font-size="10.00">std::vector&lt; T &gt;</text>
</a>
</g>
</g>
<!-- Node3&#45;&gt;Node1 -->
<g id="edge4" class="edge"><title>Node3&#45;&gt;Node1</title>
<path fill="none" stroke="#9a32cd" stroke-dasharray="5,2" d="M38.0673,-148.715C33.5372,-130.385 28.9348,-101.576 36.5,-78 42.3565,-59.7493 55.8442,-42.3125 66.3539,-30.6975"/>
<polygon fill="#9a32cd" stroke="#9a32cd" points="34.701,-149.675 40.7014,-158.407 41.4559,-147.839 34.701,-149.675"/>
<text text-anchor="start" x="36.5" y="-103" font-family="Helvetica,sans-Serif" font-size="10.00"> numericalConstraints</text>
<text text-anchor="middle" x="84.5" y="-92" font-family="Helvetica,sans-Serif" font-size="10.00">_</text>
<text text-anchor="middle" x="84.5" y="-81" font-family="Helvetica,sans-Serif" font-size="10.00">lockedJoints_</text>
</g>
<!-- Node3&#45;&gt;Node2 -->
<g id="edge2" class="edge"><title>Node3&#45;&gt;Node2</title>
<path fill="none" stroke="#9a32cd" stroke-dasharray="5,2" d="M72.4822,-154.364C105.702,-139.882 159.243,-116.539 187.903,-104.044"/>
<polygon fill="#9a32cd" stroke="#9a32cd" points="71.0502,-151.171 63.2822,-158.375 73.8477,-157.587 71.0502,-151.171"/>
<text text-anchor="middle" x="151" y="-132" font-family="Helvetica,sans-Serif" font-size="10.00"> elements</text>
</g>
<!-- Node4 -->
<g id="node4" class="node"><title>Node4</title>
<polygon fill="white" stroke="#bfbfbf" points="29,-225.5 29,-244.5 58,-244.5 58,-225.5 29,-225.5"/>
<text text-anchor="middle" x="43.5" y="-232.5" font-family="Helvetica,sans-Serif" font-size="10.00">T</text>
</g>
<!-- Node4&#45;&gt;Node3 -->
<g id="edge3" class="edge"><title>Node4&#45;&gt;Node3</title>
<path fill="none" stroke="#9a32cd" stroke-dasharray="5,2" d="M43.5,-215.037C43.5,-202.67 43.5,-187.12 43.5,-177.627"/>
<polygon fill="#9a32cd" stroke="#9a32cd" points="40.0001,-215.234 43.5,-225.234 47.0001,-215.234 40.0001,-215.234"/>
<text text-anchor="middle" x="65" y="-199" font-family="Helvetica,sans-Serif" font-size="10.00"> elements</text>
</g>
</g>
</svg>
