<?xml version="1.0" encoding="UTF-8" standalone="no"?>
<!DOCTYPE svg PUBLIC "-//W3C//DTD SVG 1.1//EN"
 "http://www.w3.org/Graphics/SVG/1.1/DTD/svg11.dtd">
<!-- Generated by graphviz version 2.38.0 (20140413.2041)
 -->
<!-- Title: hpp::manipulation::steeringMethod::CrossStateOptimization Pages: 1 -->
<svg width="256pt" height="263pt"
 viewBox="0.00 0.00 256.00 263.00" xmlns="http://www.w3.org/2000/svg" xmlns:xlink="http://www.w3.org/1999/xlink">
<g id="graph0" class="graph" transform="scale(1 1) rotate(0) translate(4 259)">
<title>hpp::manipulation::steeringMethod::CrossStateOptimization</title>
<polygon fill="white" stroke="none" points="-4,4 -4,-259 252,-259 252,4 -4,4"/>
<!-- Node1 -->
<g id="node1" class="node"><title>Node1</title>
<polygon fill="#bfbfbf" stroke="black" points="37,-0.5 37,-41.5 176,-41.5 176,-0.5 37,-0.5"/>
<text text-anchor="start" x="45" y="-29.5" font-family="Helvetica,sans-Serif" font-size="10.00">hpp::manipulation::</text>
<text text-anchor="start" x="45" y="-18.5" font-family="Helvetica,sans-Serif" font-size="10.00">steeringMethod::CrossState</text>
<text text-anchor="middle" x="106.5" y="-7.5" font-family="Helvetica,sans-Serif" font-size="10.00">Optimization</text>
</g>
<!-- Node2 -->
<g id="node2" class="node"><title>Node2</title>
<g id="a_node2"><a xlink:href="a00053.html" target="_top" xlink:title="hpp::manipulation::\lSteeringMethod">
<polygon fill="white" stroke="black" points="57,-79.5 57,-109.5 156,-109.5 156,-79.5 57,-79.5"/>
<text text-anchor="start" x="65" y="-97.5" font-family="Helvetica,sans-Serif" font-size="10.00">hpp::manipulation::</text>
<text text-anchor="middle" x="106.5" y="-86.5" font-family="Helvetica,sans-Serif" font-size="10.00">SteeringMethod</text>
</a>
</g>
</g>
<!-- Node2&#45;&gt;Node1 -->
<g id="edge1" class="edge"><title>Node2&#45;&gt;Node1</title>
<path fill="none" stroke="midnightblue" d="M106.5,-69.1008C106.5,-60.0979 106.5,-50.0235 106.5,-41.5096"/>
<polygon fill="midnightblue" stroke="midnightblue" points="103,-69.3739 106.5,-79.3739 110,-69.3739 103,-69.3739"/>
</g>
<!-- Node3 -->
<g id="node3" class="node"><title>Node3</title>
<g id="a_node3"><a doxygen="/local/devel/hpp/install/share/doc/hpp-core/doxygen-html/hpp-core.doxytag:../../hpp-core/doxygen-html/" xlink:href="../../hpp-core/doxygen-html/a00099.html" target="_top" xlink:title="hpp::core::SteeringMethod">
<polygon fill="white" stroke="black" points="0,-163 0,-182 131,-182 131,-163 0,-163"/>
<text text-anchor="middle" x="65.5" y="-170" font-family="Helvetica,sans-Serif" font-size="10.00">hpp::core::SteeringMethod</text>
</a>
</g>
</g>
<!-- Node3&#45;&gt;Node2 -->
<g id="edge2" class="edge"><title>Node3&#45;&gt;Node2</title>
<path fill="none" stroke="midnightblue" d="M74.955,-153.974C82.239,-140.472 92.1753,-122.053 98.9367,-109.52"/>
<polygon fill="midnightblue" stroke="midnightblue" points="71.8708,-152.319 70.2032,-162.782 78.0315,-155.643 71.8708,-152.319"/>
</g>
<!-- Node4 -->
<g id="node4" class="node"><title>Node4</title>
<g id="a_node4"><a doxygen="/local/devel/hpp/install/share/doc/hpp-core/doxygen-html/hpp-core.doxytag:../../hpp-core/doxygen-html/" xlink:href="../../hpp-core/doxygen-html/a00074.html" target="_top" xlink:title="hpp::core::Problem">
<polygon fill="white" stroke="black" points="91,-235.5 91,-254.5 190,-254.5 190,-235.5 91,-235.5"/>
<text text-anchor="middle" x="140.5" y="-242.5" font-family="Helvetica,sans-Serif" font-size="10.00">hpp::core::Problem</text>
</a>
</g>
</g>
<!-- Node4&#45;&gt;Node3 -->
<g id="edge3" class="edge"><title>Node4&#45;&gt;Node3</title>
<path fill="none" stroke="#9a32cd" stroke-dasharray="5,2" d="M123.683,-228.192C108.577,-213.993 86.956,-193.669 74.7717,-182.215"/>
<polygon fill="#9a32cd" stroke="#9a32cd" points="121.62,-231.056 131.304,-235.355 126.414,-225.956 121.62,-231.056"/>
<text text-anchor="middle" x="131" y="-209" font-family="Helvetica,sans-Serif" font-size="10.00"> problem_</text>
</g>
<!-- Node5 -->
<g id="node5" class="node"><title>Node5</title>
<g id="a_node5"><a xlink:href="a00040.html" target="_top" xlink:title="hpp::manipulation::\lProblem">
<polygon fill="white" stroke="black" points="149,-157.5 149,-187.5 248,-187.5 248,-157.5 149,-157.5"/>
<text text-anchor="start" x="157" y="-175.5" font-family="Helvetica,sans-Serif" font-size="10.00">hpp::manipulation::</text>
<text text-anchor="middle" x="198.5" y="-164.5" font-family="Helvetica,sans-Serif" font-size="10.00">Problem</text>
</a>
</g>
</g>
<!-- Node4&#45;&gt;Node5 -->
<g id="edge5" class="edge"><title>Node4&#45;&gt;Node5</title>
<path fill="none" stroke="midnightblue" d="M154.163,-227.393C164.126,-215.283 177.479,-199.051 186.92,-187.576"/>
<polygon fill="midnightblue" stroke="midnightblue" points="151.262,-225.409 147.612,-235.355 156.668,-229.856 151.262,-225.409"/>
</g>
<!-- Node5&#45;&gt;Node2 -->
<g id="edge4" class="edge"><title>Node5&#45;&gt;Node2</title>
<path fill="none" stroke="#9a32cd" stroke-dasharray="5,2" d="M173.386,-150.753C157.625,-137.734 137.712,-121.284 123.727,-109.731"/>
<polygon fill="#9a32cd" stroke="#9a32cd" points="171.257,-153.535 181.196,-157.205 175.715,-148.138 171.257,-153.535"/>
<text text-anchor="middle" x="179" y="-131" font-family="Helvetica,sans-Serif" font-size="10.00"> problem_</text>
</g>
</g>
</svg>
