<?xml version="1.0" encoding="UTF-8" standalone="no"?>
<!DOCTYPE svg PUBLIC "-//W3C//DTD SVG 1.1//EN"
 "http://www.w3.org/Graphics/SVG/1.1/DTD/svg11.dtd">
<!-- Generated by graphviz version 2.38.0 (20140413.2041)
 -->
<!-- Title: hpp::manipulation::graph::Edge Pages: 1 -->
<svg width="244pt" height="173pt"
 viewBox="0.00 0.00 243.50 173.00" xmlns="http://www.w3.org/2000/svg" xmlns:xlink="http://www.w3.org/1999/xlink">
<g id="graph0" class="graph" transform="scale(1 1) rotate(0) translate(4 169)">
<title>hpp::manipulation::graph::Edge</title>
<polygon fill="white" stroke="none" points="-4,4 -4,-169 239.5,-169 239.5,4 -4,4"/>
<!-- Node1 -->
<g id="node1" class="node"><title>Node1</title>
<polygon fill="#bfbfbf" stroke="black" points="67,-67.5 67,-97.5 166,-97.5 166,-67.5 67,-67.5"/>
<text text-anchor="start" x="75" y="-85.5" font-family="Helvetica,sans-Serif" font-size="10.00">hpp::manipulation::</text>
<text text-anchor="middle" x="116.5" y="-74.5" font-family="Helvetica,sans-Serif" font-size="10.00">graph::Edge</text>
</g>
<!-- Node3 -->
<g id="node3" class="node"><title>Node3</title>
<g id="a_node3"><a xlink:href="a00035.html" target="_top" xlink:title="Edge that find intersection of level set. ">
<polygon fill="white" stroke="black" points="0,-0.5 0,-30.5 107,-30.5 107,-0.5 0,-0.5"/>
<text text-anchor="start" x="8" y="-18.5" font-family="Helvetica,sans-Serif" font-size="10.00">hpp::manipulation::</text>
<text text-anchor="middle" x="53.5" y="-7.5" font-family="Helvetica,sans-Serif" font-size="10.00">graph::LevelSetEdge</text>
</a>
</g>
</g>
<!-- Node1&#45;&gt;Node3 -->
<g id="edge2" class="edge"><title>Node1&#45;&gt;Node3</title>
<path fill="none" stroke="midnightblue" d="M95.685,-60.0243C86.2986,-50.3398 75.4763,-39.1739 67.1434,-30.5765"/>
<polygon fill="midnightblue" stroke="midnightblue" points="93.3569,-62.6512 102.83,-67.396 98.3834,-57.7793 93.3569,-62.6512"/>
</g>
<!-- Node4 -->
<g id="node4" class="node"><title>Node4</title>
<g id="a_node4"><a xlink:href="a00055.html" target="_top" xlink:title="Edge with waypoint. ">
<polygon fill="white" stroke="black" points="125.5,-0.5 125.5,-30.5 235.5,-30.5 235.5,-0.5 125.5,-0.5"/>
<text text-anchor="start" x="133.5" y="-18.5" font-family="Helvetica,sans-Serif" font-size="10.00">hpp::manipulation::</text>
<text text-anchor="middle" x="180.5" y="-7.5" font-family="Helvetica,sans-Serif" font-size="10.00">graph::WaypointEdge</text>
</a>
</g>
</g>
<!-- Node1&#45;&gt;Node4 -->
<g id="edge3" class="edge"><title>Node1&#45;&gt;Node4</title>
<path fill="none" stroke="midnightblue" d="M137.645,-60.0243C147.181,-50.3398 158.175,-39.1739 166.64,-30.5765"/>
<polygon fill="midnightblue" stroke="midnightblue" points="134.909,-57.8146 130.387,-67.396 139.897,-62.7259 134.909,-57.8146"/>
</g>
<!-- Node2 -->
<g id="node2" class="node"><title>Node2</title>
<g id="a_node2"><a xlink:href="a00025.html" target="_top" xlink:title="Define common methods of the graph components. ">
<polygon fill="white" stroke="black" points="55,-134.5 55,-164.5 178,-164.5 178,-134.5 55,-134.5"/>
<text text-anchor="start" x="63" y="-152.5" font-family="Helvetica,sans-Serif" font-size="10.00">hpp::manipulation::</text>
<text text-anchor="middle" x="116.5" y="-141.5" font-family="Helvetica,sans-Serif" font-size="10.00">graph::GraphComponent</text>
</a>
</g>
</g>
<!-- Node2&#45;&gt;Node1 -->
<g id="edge1" class="edge"><title>Node2&#45;&gt;Node1</title>
<path fill="none" stroke="midnightblue" d="M116.5,-124.108C116.5,-115.154 116.5,-105.323 116.5,-97.5765"/>
<polygon fill="midnightblue" stroke="midnightblue" points="113,-124.396 116.5,-134.396 120,-124.396 113,-124.396"/>
</g>
</g>
</svg>
