<?xml version="1.0" encoding="UTF-8" standalone="no"?>
<!DOCTYPE svg PUBLIC "-//W3C//DTD SVG 1.1//EN"
 "http://www.w3.org/Graphics/SVG/1.1/DTD/svg11.dtd">
<!-- Generated by graphviz version 2.38.0 (20140413.2041)
 -->
<!-- Title: manipulation Pages: 1 -->
<svg width="438pt" height="183pt"
 viewBox="0.00 0.00 438.00 183.00" xmlns="http://www.w3.org/2000/svg" xmlns:xlink="http://www.w3.org/1999/xlink">
<g id="graph0" class="graph" transform="scale(1 1) rotate(0) translate(4 179)">
<title>manipulation</title>
<polygon fill="white" stroke="none" points="-4,4 -4,-179 434,-179 434,4 -4,4"/>
<g id="clust1" class="cluster"><title>clusterdir_766a2b2ecef16448f861b8cf84e3a157</title>
<g id="a_clust1"><a xlink:href="dir_766a2b2ecef16448f861b8cf84e3a157.html" target="_top" xlink:title="hpp">
<polygon fill="#ddddee" stroke="black" points="8,-8 8,-167 422,-167 422,-8 8,-8"/>
<text text-anchor="middle" x="215" y="-155" font-family="Helvetica,sans-Serif" font-size="10.00">hpp</text>
</a>
</g>
</g>
<g id="clust2" class="cluster"><title>clusterdir_2b880ef3746c98d927fd3117f25fec4b</title>
<g id="a_clust2"><a xlink:href="dir_2b880ef3746c98d927fd3117f25fec4b.html" target="_top">
<polygon fill="#eeeeff" stroke="black" points="16,-16 16,-140 414,-140 414,-16 16,-16"/>
</a>
</g>
</g>
<!-- dir_2b880ef3746c98d927fd3117f25fec4b -->
<g id="node1" class="node"><title>dir_2b880ef3746c98d927fd3117f25fec4b</title>
<text text-anchor="middle" x="370" y="-111.5" font-family="Helvetica,sans-Serif" font-size="10.00">manipulation</text>
</g>
<!-- dir_7e75e2a5afaf8abfbbf2cd9b204daad1 -->
<g id="node2" class="node"><title>dir_7e75e2a5afaf8abfbbf2cd9b204daad1</title>
<g id="a_node2"><a xlink:href="dir_7e75e2a5afaf8abfbbf2cd9b204daad1.html" target="_top" xlink:title="graph">
<polygon fill="white" stroke="black" points="195,-60 141,-60 141,-24 195,-24 195,-60"/>
<text text-anchor="middle" x="168" y="-39.5" font-family="Helvetica,sans-Serif" font-size="10.00">graph</text>
</a>
</g>
</g>
<!-- dir_2b880ef3746c98d927fd3117f25fec4b&#45;&gt;dir_7e75e2a5afaf8abfbbf2cd9b204daad1 -->
<g id="edge3" class="edge"><title>dir_2b880ef3746c98d927fd3117f25fec4b&#45;&gt;dir_7e75e2a5afaf8abfbbf2cd9b204daad1</title>
<path fill="none" stroke="black" d="M334.031,-98.9513C331.319,-97.9384 328.619,-96.9447 326,-96 284.864,-81.1626 237.227,-65.3708 205.104,-54.9236"/>
<polygon fill="black" stroke="black" points="205.84,-51.4827 195.248,-51.7274 203.681,-58.1414 205.84,-51.4827"/>
<g id="a_edge3&#45;headlabel"><a xlink:href="dir_000002_000004.html" target="_top" xlink:title="16">
<text text-anchor="middle" x="210.135" y="-47.3906" font-family="Helvetica,sans-Serif" font-size="10.00">16</text>
</a>
</g>
</g>
<!-- dir_8397681547b407ccc2b62dc91071649b -->
<g id="node3" class="node"><title>dir_8397681547b407ccc2b62dc91071649b</title>
<g id="a_node3"><a xlink:href="dir_8397681547b407ccc2b62dc91071649b.html" target="_top" xlink:title="path&#45;optimization">
<polygon fill="white" stroke="black" points="316.5,-132 225.5,-132 225.5,-96 316.5,-96 316.5,-132"/>
<text text-anchor="middle" x="271" y="-111.5" font-family="Helvetica,sans-Serif" font-size="10.00">path&#45;optimization</text>
</a>
</g>
</g>
<!-- dir_7989b42d5936c054a838a840bc8532ee -->
<g id="node4" class="node"><title>dir_7989b42d5936c054a838a840bc8532ee</title>
<g id="a_node4"><a xlink:href="dir_7989b42d5936c054a838a840bc8532ee.html" target="_top" xlink:title="problem&#45;target">
<polygon fill="white" stroke="black" points="207.5,-132 128.5,-132 128.5,-96 207.5,-96 207.5,-132"/>
<text text-anchor="middle" x="168" y="-111.5" font-family="Helvetica,sans-Serif" font-size="10.00">problem&#45;target</text>
</a>
</g>
</g>
<!-- dir_7989b42d5936c054a838a840bc8532ee&#45;&gt;dir_7e75e2a5afaf8abfbbf2cd9b204daad1 -->
<g id="edge2" class="edge"><title>dir_7989b42d5936c054a838a840bc8532ee&#45;&gt;dir_7e75e2a5afaf8abfbbf2cd9b204daad1</title>
<path fill="none" stroke="black" d="M168,-95.6966C168,-87.9827 168,-78.7125 168,-70.1124"/>
<polygon fill="black" stroke="black" points="171.5,-70.1043 168,-60.1043 164.5,-70.1044 171.5,-70.1043"/>
<g id="a_edge2&#45;headlabel"><a xlink:href="dir_000011_000004.html" target="_top" xlink:title="1">
<text text-anchor="middle" x="174.339" y="-71.199" font-family="Helvetica,sans-Serif" font-size="10.00">1</text>
</a>
</g>
</g>
<!-- dir_3d1b00fcf13313a8e485ad68bdfae658 -->
<g id="node5" class="node"><title>dir_3d1b00fcf13313a8e485ad68bdfae658</title>
<g id="a_node5"><a xlink:href="dir_3d1b00fcf13313a8e485ad68bdfae658.html" target="_top" xlink:title="steering&#45;method">
<polygon fill="white" stroke="black" points="110,-132 24,-132 24,-96 110,-96 110,-132"/>
<text text-anchor="middle" x="67" y="-111.5" font-family="Helvetica,sans-Serif" font-size="10.00">steering&#45;method</text>
</a>
</g>
</g>
<!-- dir_3d1b00fcf13313a8e485ad68bdfae658&#45;&gt;dir_7e75e2a5afaf8abfbbf2cd9b204daad1 -->
<g id="edge1" class="edge"><title>dir_3d1b00fcf13313a8e485ad68bdfae658&#45;&gt;dir_7e75e2a5afaf8abfbbf2cd9b204daad1</title>
<path fill="none" stroke="black" d="M91.7074,-95.8761C104.669,-86.8931 120.728,-75.7625 134.765,-66.0341"/>
<polygon fill="black" stroke="black" points="136.972,-68.7628 143.198,-60.1898 132.985,-63.0095 136.972,-68.7628"/>
<g id="a_edge1&#45;headlabel"><a xlink:href="dir_000003_000004.html" target="_top" xlink:title="1">
<text text-anchor="middle" x="135.635" y="-70.6439" font-family="Helvetica,sans-Serif" font-size="10.00">1</text>
</a>
</g>
</g>
</g>
</svg>
