<?xml version="1.0" encoding="UTF-8" standalone="no"?>
<!DOCTYPE svg PUBLIC "-//W3C//DTD SVG 1.1//EN"
 "http://www.w3.org/Graphics/SVG/1.1/DTD/svg11.dtd">
<!-- Generated by graphviz version 2.38.0 (20140413.2041)
 -->
<!-- Title: steering&#45;method Pages: 1 -->
<svg width="126pt" height="151pt"
 viewBox="0.00 0.00 126.00 151.00" xmlns="http://www.w3.org/2000/svg" xmlns:xlink="http://www.w3.org/1999/xlink">
<g id="graph0" class="graph" transform="scale(1 1) rotate(0) translate(4 147)">
<title>steering&#45;method</title>
<polygon fill="white" stroke="none" points="-4,4 -4,-147 122,-147 122,4 -4,4"/>
<g id="clust1" class="cluster"><title>clusterdir_2b880ef3746c98d927fd3117f25fec4b</title>
<g id="a_clust1"><a xlink:href="dir_2b880ef3746c98d927fd3117f25fec4b.html" target="_top" xlink:title="manipulation">
<polygon fill="#ddddee" stroke="black" points="8,-64 8,-135 110,-135 110,-64 8,-64"/>
<text text-anchor="middle" x="59" y="-123" font-family="Helvetica,sans-Serif" font-size="10.00">manipulation</text>
</a>
</g>
</g>
<!-- dir_3d1b00fcf13313a8e485ad68bdfae658 -->
<g id="node1" class="node"><title>dir_3d1b00fcf13313a8e485ad68bdfae658</title>
<g id="a_node1"><a xlink:href="dir_3d1b00fcf13313a8e485ad68bdfae658.html" target="_top" xlink:title="steering&#45;method">
<polygon fill="#eeeeff" stroke="black" points="102,-108 16,-108 16,-72 102,-72 102,-108"/>
<text text-anchor="middle" x="59" y="-87.5" font-family="Helvetica,sans-Serif" font-size="10.00">steering&#45;method</text>
</a>
</g>
</g>
<!-- dir_7e75e2a5afaf8abfbbf2cd9b204daad1 -->
<g id="node2" class="node"><title>dir_7e75e2a5afaf8abfbbf2cd9b204daad1</title>
<g id="a_node2"><a xlink:href="dir_7e75e2a5afaf8abfbbf2cd9b204daad1.html" target="_top" xlink:title="graph">
<polygon fill="none" stroke="black" points="86,-36 32,-36 32,-0 86,-0 86,-36"/>
<text text-anchor="middle" x="59" y="-15.5" font-family="Helvetica,sans-Serif" font-size="10.00">graph</text>
</a>
</g>
</g>
<!-- dir_3d1b00fcf13313a8e485ad68bdfae658&#45;&gt;dir_7e75e2a5afaf8abfbbf2cd9b204daad1 -->
<g id="edge1" class="edge"><title>dir_3d1b00fcf13313a8e485ad68bdfae658&#45;&gt;dir_7e75e2a5afaf8abfbbf2cd9b204daad1</title>
<path fill="none" stroke="black" d="M59,-71.6966C59,-63.9827 59,-54.7125 59,-46.1124"/>
<polygon fill="black" stroke="black" points="62.5001,-46.1043 59,-36.1043 55.5001,-46.1044 62.5001,-46.1043"/>
<g id="a_edge1&#45;headlabel"><a xlink:href="dir_000003_000004.html" target="_top" xlink:title="1">
<text text-anchor="middle" x="65.3393" y="-47.199" font-family="Helvetica,sans-Serif" font-size="10.00">1</text>
</a>
</g>
</g>
</g>
</svg>
