<?xml version="1.0" encoding="UTF-8" standalone="no"?>
<!DOCTYPE svg PUBLIC "-//W3C//DTD SVG 1.1//EN"
 "http://www.w3.org/Graphics/SVG/1.1/DTD/svg11.dtd">
<!-- Generated by graphviz version 2.38.0 (20140413.2041)
 -->
<!-- Title: Graphical Class Hierarchy Pages: 1 -->
<svg width="241pt" height="88pt"
 viewBox="0.00 0.00 241.00 88.00" xmlns="http://www.w3.org/2000/svg" xmlns:xlink="http://www.w3.org/1999/xlink">
<g id="graph0" class="graph" transform="scale(1 1) rotate(0) translate(4 84)">
<title>Graphical Class Hierarchy</title>
<polygon fill="white" stroke="none" points="-4,4 -4,-84 237,-84 237,4 -4,4"/>
<!-- Node1 -->
<g id="node1" class="node"><title>Node1</title>
<g id="a_node1"><a doxygen="/local/devel/hpp/install/share/doc/hpp-statistics/doxygen-html/hpp-statistics.doxytag:../../hpp-statistics/doxygen-html/" xlink:href="../../hpp-statistics/doxygen-html/a00002.html" target="_top" xlink:title="hpp::statistics::Bin">
<polygon fill="white" stroke="black" points="0,-30 0,-49 98,-49 98,-30 0,-30"/>
<text text-anchor="middle" x="49" y="-37" font-family="Helvetica,sans-Serif" font-size="10.00">hpp::statistics::Bin</text>
</a>
</g>
</g>
<!-- Node2 -->
<g id="node2" class="node"><title>Node2</title>
<g id="a_node2"><a xlink:href="a00032.html" target="_top" xlink:title="This class is used to do statistics on the roadmap. ">
<polygon fill="white" stroke="black" points="134,-49.5 134,-79.5 233,-79.5 233,-49.5 134,-49.5"/>
<text text-anchor="start" x="142" y="-67.5" font-family="Helvetica,sans-Serif" font-size="10.00">hpp::manipulation::</text>
<text text-anchor="middle" x="183.5" y="-56.5" font-family="Helvetica,sans-Serif" font-size="10.00">graph::LeafBin</text>
</a>
</g>
</g>
<!-- Node1&#45;&gt;Node2 -->
<g id="edge1" class="edge"><title>Node1&#45;&gt;Node2</title>
<path fill="none" stroke="midnightblue" d="M108.103,-50.4628C116.631,-52.0719 125.342,-53.7155 133.659,-55.2847"/>
<polygon fill="midnightblue" stroke="midnightblue" points="108.686,-47.0111 98.2104,-48.5963 107.388,-53.8898 108.686,-47.0111"/>
</g>
<!-- Node3 -->
<g id="node3" class="node"><title>Node3</title>
<g id="a_node3"><a xlink:href="a00037.html" target="_top" xlink:title="This class is used to do statistics on the roadmap. ">
<polygon fill="white" stroke="black" points="134,-0.5 134,-30.5 233,-30.5 233,-0.5 134,-0.5"/>
<text text-anchor="start" x="142" y="-18.5" font-family="Helvetica,sans-Serif" font-size="10.00">hpp::manipulation::</text>
<text text-anchor="middle" x="183.5" y="-7.5" font-family="Helvetica,sans-Serif" font-size="10.00">graph::NodeBin</text>
</a>
</g>
</g>
<!-- Node1&#45;&gt;Node3 -->
<g id="edge2" class="edge"><title>Node1&#45;&gt;Node3</title>
<path fill="none" stroke="midnightblue" d="M108.103,-28.9757C116.631,-27.431 125.342,-25.8532 133.659,-24.3467"/>
<polygon fill="midnightblue" stroke="midnightblue" points="107.426,-25.5412 98.2104,-30.7676 108.674,-32.4291 107.426,-25.5412"/>
</g>
</g>
</svg>
