<?xml version="1.0" encoding="UTF-8" standalone="no"?>
<!DOCTYPE svg PUBLIC "-//W3C//DTD SVG 1.1//EN"
 "http://www.w3.org/Graphics/SVG/1.1/DTD/svg11.dtd">
<!-- Generated by graphviz version 2.38.0 (20140413.2041)
 -->
<!-- Title: Graphical Class Hierarchy Pages: 1 -->
<svg width="782pt" height="304pt"
 viewBox="0.00 0.00 782.00 304.00" xmlns="http://www.w3.org/2000/svg" xmlns:xlink="http://www.w3.org/1999/xlink">
<g id="graph0" class="graph" transform="scale(1 1) rotate(0) translate(4 300)">
<title>Graphical Class Hierarchy</title>
<polygon fill="white" stroke="none" points="-4,4 -4,-300 778,-300 778,4 -4,4"/>
<!-- Node1 -->
<g id="node1" class="node"><title>Node1</title>
<g id="a_node1"><a doxygen="/local/devel/hpp/install/share/doc/hpp-core/doxygen-html/hpp-core.doxytag:../../hpp-core/doxygen-html/" xlink:href="../../hpp-core/doxygen-html/a00065.html" target="_top" xlink:title="hpp::core::PathOptimizer">
<polygon fill="white" stroke="black" points="0,-138 0,-157 125,-157 125,-138 0,-138"/>
<text text-anchor="middle" x="62.5" y="-145" font-family="Helvetica,sans-Serif" font-size="10.00">hpp::core::PathOptimizer</text>
</a>
</g>
</g>
<!-- Node2 -->
<g id="node2" class="node"><title>Node2</title>
<g id="a_node2"><a doxygen="/local/devel/hpp/install/share/doc/hpp-core/doxygen-html/hpp-core.doxytag:../../hpp-core/doxygen-html/" xlink:href="../../hpp-core/doxygen-html/a00082.html" target="_top" xlink:title="hpp::core::pathOptimization\l::RandomShortcut">
<polygon fill="white" stroke="black" points="179,-265.5 179,-295.5 316,-295.5 316,-265.5 179,-265.5"/>
<text text-anchor="start" x="187" y="-283.5" font-family="Helvetica,sans-Serif" font-size="10.00">hpp::core::pathOptimization</text>
<text text-anchor="middle" x="247.5" y="-272.5" font-family="Helvetica,sans-Serif" font-size="10.00">::RandomShortcut</text>
</a>
</g>
</g>
<!-- Node1&#45;&gt;Node2 -->
<g id="edge1" class="edge"><title>Node1&#45;&gt;Node2</title>
<path fill="none" stroke="midnightblue" d="M74.8483,-165.623C91.0105,-189.935 122.956,-232.789 161,-256.5 166.495,-259.925 172.489,-262.872 178.669,-265.406"/>
<polygon fill="midnightblue" stroke="midnightblue" points="77.6432,-163.5 69.269,-157.01 71.768,-167.306 77.6432,-163.5"/>
</g>
<!-- Node4 -->
<g id="node4" class="node"><title>Node4</title>
<g id="a_node4"><a doxygen="/local/devel/hpp/install/share/doc/hpp-core/doxygen-html/hpp-core.doxytag:../../hpp-core/doxygen-html/" xlink:href="../../hpp-core/doxygen-html/a00097.html" target="_top" xlink:title="hpp::core::pathOptimization\l::SplineGradientBasedAbstract\l\&lt; _PolynomeBasis, _SplineOrder \&gt;">
<polygon fill="white" stroke="black" points="162.5,-206 162.5,-247 332.5,-247 332.5,-206 162.5,-206"/>
<text text-anchor="start" x="170.5" y="-235" font-family="Helvetica,sans-Serif" font-size="10.00">hpp::core::pathOptimization</text>
<text text-anchor="start" x="170.5" y="-224" font-family="Helvetica,sans-Serif" font-size="10.00">::SplineGradientBasedAbstract</text>
<text text-anchor="middle" x="247.5" y="-213" font-family="Helvetica,sans-Serif" font-size="10.00">&lt; _PolynomeBasis, _SplineOrder &gt;</text>
</a>
</g>
</g>
<!-- Node1&#45;&gt;Node4 -->
<g id="edge3" class="edge"><title>Node1&#45;&gt;Node4</title>
<path fill="none" stroke="midnightblue" d="M89.217,-162.004C108.594,-172.606 136.009,-186.921 161,-197.5 167.929,-200.433 175.265,-203.285 182.612,-205.985"/>
<polygon fill="midnightblue" stroke="midnightblue" points="90.8416,-158.903 80.3961,-157.13 87.4562,-165.03 90.8416,-158.903"/>
</g>
<!-- Node7 -->
<g id="node7" class="node"><title>Node7</title>
<g id="a_node7"><a xlink:href="a00026.html" target="_top" xlink:title="Path optimizer that recompute the edge parameter of the constraints. ">
<polygon fill="white" stroke="black" points="193.5,-157.5 193.5,-187.5 301.5,-187.5 301.5,-157.5 193.5,-157.5"/>
<text text-anchor="start" x="201.5" y="-175.5" font-family="Helvetica,sans-Serif" font-size="10.00">hpp::manipulation::</text>
<text text-anchor="middle" x="247.5" y="-164.5" font-family="Helvetica,sans-Serif" font-size="10.00">GraphNodeOptimizer</text>
</a>
</g>
</g>
<!-- Node1&#45;&gt;Node7 -->
<g id="edge6" class="edge"><title>Node1&#45;&gt;Node7</title>
<path fill="none" stroke="midnightblue" d="M135.195,-157.294C154.562,-159.94 175.172,-162.756 193.325,-165.236"/>
<polygon fill="midnightblue" stroke="midnightblue" points="135.582,-153.815 125.2,-155.929 134.635,-160.75 135.582,-153.815"/>
</g>
<!-- Node8 -->
<g id="node8" class="node"><title>Node8</title>
<g id="a_node8"><a xlink:href="a00027.html" target="_top" xlink:title="Path optimizer for paths created with the constraint graph. ">
<polygon fill="white" stroke="black" points="198,-108.5 198,-138.5 297,-138.5 297,-108.5 198,-108.5"/>
<text text-anchor="start" x="206" y="-126.5" font-family="Helvetica,sans-Serif" font-size="10.00">hpp::manipulation::</text>
<text text-anchor="middle" x="247.5" y="-115.5" font-family="Helvetica,sans-Serif" font-size="10.00">GraphOptimizer</text>
</a>
</g>
</g>
<!-- Node1&#45;&gt;Node8 -->
<g id="edge7" class="edge"><title>Node1&#45;&gt;Node8</title>
<path fill="none" stroke="midnightblue" d="M135.338,-138.079C156.265,-135.334 178.633,-132.401 197.777,-129.89"/>
<polygon fill="midnightblue" stroke="midnightblue" points="134.66,-134.637 125.2,-139.408 135.571,-141.578 134.66,-134.637"/>
</g>
<!-- Node9 -->
<g id="node9" class="node"><title>Node9</title>
<g id="a_node9"><a xlink:href="a00020.html" target="_top" xlink:title="hpp::manipulation::\lpathOptimization::EnforceTransition\lSemantic">
<polygon fill="white" stroke="black" points="161,-49 161,-90 334,-90 334,-49 161,-49"/>
<text text-anchor="start" x="169" y="-78" font-family="Helvetica,sans-Serif" font-size="10.00">hpp::manipulation::</text>
<text text-anchor="start" x="169" y="-67" font-family="Helvetica,sans-Serif" font-size="10.00">pathOptimization::EnforceTransition</text>
<text text-anchor="middle" x="247.5" y="-56" font-family="Helvetica,sans-Serif" font-size="10.00">Semantic</text>
</a>
</g>
</g>
<!-- Node1&#45;&gt;Node9 -->
<g id="edge8" class="edge"><title>Node1&#45;&gt;Node9</title>
<path fill="none" stroke="midnightblue" d="M90.2897,-133.227C109.655,-123.178 136.593,-109.746 161,-99.5 168.687,-96.2727 176.857,-93.0959 184.978,-90.0869"/>
<polygon fill="midnightblue" stroke="midnightblue" points="88.409,-130.261 81.1719,-137.999 91.6548,-136.463 88.409,-130.261"/>
</g>
<!-- Node10 -->
<g id="node10" class="node"><title>Node10</title>
<g id="a_node10"><a xlink:href="a00046.html" target="_top" xlink:title="Walking trajectory generator for paths created with the constraint graph. ">
<polygon fill="white" stroke="black" points="174.5,-0.5 174.5,-30.5 320.5,-30.5 320.5,-0.5 174.5,-0.5"/>
<text text-anchor="start" x="182.5" y="-18.5" font-family="Helvetica,sans-Serif" font-size="10.00">hpp::manipulation::</text>
<text text-anchor="middle" x="247.5" y="-7.5" font-family="Helvetica,sans-Serif" font-size="10.00">pathOptimization::SmallSteps</text>
</a>
</g>
</g>
<!-- Node1&#45;&gt;Node10 -->
<g id="edge9" class="edge"><title>Node1&#45;&gt;Node10</title>
<path fill="none" stroke="midnightblue" d="M75.1329,-129.183C91.4173,-105.036 123.285,-62.8864 161,-39.5 166.503,-36.0876 172.502,-33.1488 178.686,-30.6202"/>
<polygon fill="midnightblue" stroke="midnightblue" points="72.0624,-127.483 69.4946,-137.762 77.912,-131.327 72.0624,-127.483"/>
</g>
<!-- Node3 -->
<g id="node3" class="node"><title>Node3</title>
<g id="a_node3"><a xlink:href="a00042.html" target="_top" xlink:title="hpp::manipulation::\lpathOptimization::RandomShortcut">
<polygon fill="white" stroke="black" points="370,-265.5 370,-295.5 540,-295.5 540,-265.5 370,-265.5"/>
<text text-anchor="start" x="378" y="-283.5" font-family="Helvetica,sans-Serif" font-size="10.00">hpp::manipulation::</text>
<text text-anchor="middle" x="455" y="-272.5" font-family="Helvetica,sans-Serif" font-size="10.00">pathOptimization::RandomShortcut</text>
</a>
</g>
</g>
<!-- Node2&#45;&gt;Node3 -->
<g id="edge2" class="edge"><title>Node2&#45;&gt;Node3</title>
<path fill="none" stroke="midnightblue" d="M326.303,-280.5C340.541,-280.5 355.459,-280.5 369.872,-280.5"/>
<polygon fill="midnightblue" stroke="midnightblue" points="326.073,-277 316.073,-280.5 326.073,-284 326.073,-277"/>
</g>
<!-- Node5 -->
<g id="node5" class="node"><title>Node5</title>
<g id="a_node5"><a doxygen="/local/devel/hpp/install/share/doc/hpp-core/doxygen-html/hpp-core.doxytag:../../hpp-core/doxygen-html/" xlink:href="../../hpp-core/doxygen-html/a00096.html" target="_top" xlink:title="hpp::core::pathOptimization\l::SplineGradientBased\&lt; \l_PolynomeBasis, _SplineOrder \&gt;">
<polygon fill="white" stroke="black" points="374.5,-206 374.5,-247 535.5,-247 535.5,-206 374.5,-206"/>
<text text-anchor="start" x="382.5" y="-235" font-family="Helvetica,sans-Serif" font-size="10.00">hpp::core::pathOptimization</text>
<text text-anchor="start" x="382.5" y="-224" font-family="Helvetica,sans-Serif" font-size="10.00">::SplineGradientBased&lt; </text>
<text text-anchor="middle" x="455" y="-213" font-family="Helvetica,sans-Serif" font-size="10.00">_PolynomeBasis, _SplineOrder &gt;</text>
</a>
</g>
</g>
<!-- Node4&#45;&gt;Node5 -->
<g id="edge4" class="edge"><title>Node4&#45;&gt;Node5</title>
<path fill="none" stroke="midnightblue" d="M342.73,-226.5C353.268,-226.5 363.927,-226.5 374.259,-226.5"/>
<polygon fill="midnightblue" stroke="midnightblue" points="342.678,-223 332.678,-226.5 342.678,-230 342.678,-223"/>
</g>
<!-- Node6 -->
<g id="node6" class="node"><title>Node6</title>
<g id="a_node6"><a xlink:href="a00047.html" target="_top" xlink:title="hpp::manipulation::\lpathOptimization::SplineGradient\lBased\&lt; _PolynomeBasis, _SplineOrder \&gt;">
<polygon fill="white" stroke="black" points="576,-206 576,-247 774,-247 774,-206 576,-206"/>
<text text-anchor="start" x="584" y="-235" font-family="Helvetica,sans-Serif" font-size="10.00">hpp::manipulation::</text>
<text text-anchor="start" x="584" y="-224" font-family="Helvetica,sans-Serif" font-size="10.00">pathOptimization::SplineGradient</text>
<text text-anchor="middle" x="675" y="-213" font-family="Helvetica,sans-Serif" font-size="10.00">Based&lt; _PolynomeBasis, _SplineOrder &gt;</text>
</a>
</g>
</g>
<!-- Node5&#45;&gt;Node6 -->
<g id="edge5" class="edge"><title>Node5&#45;&gt;Node6</title>
<path fill="none" stroke="midnightblue" d="M545.801,-226.5C555.65,-226.5 565.716,-226.5 575.662,-226.5"/>
<polygon fill="midnightblue" stroke="midnightblue" points="545.628,-223 535.628,-226.5 545.628,-230 545.628,-223"/>
</g>
</g>
</svg>
