<?xml version="1.0" encoding="UTF-8" standalone="no"?>
<!DOCTYPE svg PUBLIC "-//W3C//DTD SVG 1.1//EN"
 "http://www.w3.org/Graphics/SVG/1.1/DTD/svg11.dtd">
<!-- Generated by graphviz version 2.38.0 (20140413.2041)
 -->
<!-- Title: Graphical Class Hierarchy Pages: 1 -->
<svg width="284pt" height="137pt"
 viewBox="0.00 0.00 284.00 137.00" xmlns="http://www.w3.org/2000/svg" xmlns:xlink="http://www.w3.org/1999/xlink">
<g id="graph0" class="graph" transform="scale(1 1) rotate(0) translate(4 133)">
<title>Graphical Class Hierarchy</title>
<polygon fill="white" stroke="none" points="-4,4 -4,-133 280,-133 280,4 -4,4"/>
<!-- Node1 -->
<g id="node1" class="node"><title>Node1</title>
<g id="a_node1"><a xlink:href="a00031.html" target="_top" xlink:title="hpp::manipulation::\lgraph::Histogram">
<polygon fill="white" stroke="black" points="13,-49.5 13,-79.5 112,-79.5 112,-49.5 13,-49.5"/>
<text text-anchor="start" x="21" y="-67.5" font-family="Helvetica,sans-Serif" font-size="10.00">hpp::manipulation::</text>
<text text-anchor="middle" x="62.5" y="-56.5" font-family="Helvetica,sans-Serif" font-size="10.00">graph::Histogram</text>
</a>
</g>
</g>
<!-- Node2 -->
<g id="node2" class="node"><title>Node2</title>
<g id="a_node2"><a xlink:href="a00034.html" target="_top" xlink:title="hpp::manipulation::\lgraph::LeafHistogram">
<polygon fill="white" stroke="black" points="163.5,-73.5 163.5,-103.5 273.5,-103.5 273.5,-73.5 163.5,-73.5"/>
<text text-anchor="start" x="171.5" y="-91.5" font-family="Helvetica,sans-Serif" font-size="10.00">hpp::manipulation::</text>
<text text-anchor="middle" x="218.5" y="-80.5" font-family="Helvetica,sans-Serif" font-size="10.00">graph::LeafHistogram</text>
</a>
</g>
</g>
<!-- Node1&#45;&gt;Node2 -->
<g id="edge1" class="edge"><title>Node1&#45;&gt;Node2</title>
<path fill="none" stroke="midnightblue" d="M122.374,-73.6752C135.884,-75.7806 150.183,-78.009 163.476,-80.0807"/>
<polygon fill="midnightblue" stroke="midnightblue" points="122.646,-70.1754 112.227,-72.0938 121.568,-77.0919 122.646,-70.1754"/>
</g>
<!-- Node3 -->
<g id="node3" class="node"><title>Node3</title>
<g id="a_node3"><a xlink:href="a00051.html" target="_top" xlink:title="hpp::manipulation::\lgraph::StateHistogram">
<polygon fill="white" stroke="black" points="161,-12.5 161,-42.5 276,-42.5 276,-12.5 161,-12.5"/>
<text text-anchor="start" x="169" y="-30.5" font-family="Helvetica,sans-Serif" font-size="10.00">hpp::manipulation::</text>
<text text-anchor="middle" x="218.5" y="-19.5" font-family="Helvetica,sans-Serif" font-size="10.00">graph::StateHistogram</text>
</a>
</g>
</g>
<!-- Node1&#45;&gt;Node3 -->
<g id="edge2" class="edge"><title>Node1&#45;&gt;Node3</title>
<path fill="none" stroke="midnightblue" d="M122.191,-50.3988C134.839,-47.3601 148.186,-44.1534 160.758,-41.1329"/>
<polygon fill="midnightblue" stroke="midnightblue" points="121.132,-47.0536 112.227,-52.793 122.768,-53.8599 121.132,-47.0536"/>
</g>
<!-- Node4 -->
<g id="node4" class="node"><title>Node4</title>
<g id="a_node4"><a doxygen="/local/devel/hpp/install/share/doc/hpp-statistics/doxygen-html/hpp-statistics.doxytag:../../hpp-statistics/doxygen-html/" xlink:href="../../hpp-statistics/doxygen-html/a00005.html" target="_top" xlink:title="hpp::statistics::Statistics\l\&lt; LeafBin \&gt;">
<polygon fill="white" stroke="black" points="0,-98.5 0,-128.5 125,-128.5 125,-98.5 0,-98.5"/>
<text text-anchor="start" x="8" y="-116.5" font-family="Helvetica,sans-Serif" font-size="10.00">hpp::statistics::Statistics</text>
<text text-anchor="middle" x="62.5" y="-105.5" font-family="Helvetica,sans-Serif" font-size="10.00">&lt; LeafBin &gt;</text>
</a>
</g>
</g>
<!-- Node4&#45;&gt;Node2 -->
<g id="edge3" class="edge"><title>Node4&#45;&gt;Node2</title>
<path fill="none" stroke="midnightblue" d="M135.346,-101.837C144.71,-100.317 154.177,-98.7797 163.188,-97.3168"/>
<polygon fill="midnightblue" stroke="midnightblue" points="134.56,-98.4183 125.25,-103.476 135.682,-105.328 134.56,-98.4183"/>
</g>
<!-- Node5 -->
<g id="node5" class="node"><title>Node5</title>
<g id="a_node5"><a doxygen="/local/devel/hpp/install/share/doc/hpp-statistics/doxygen-html/hpp-statistics.doxytag:../../hpp-statistics/doxygen-html/" xlink:href="../../hpp-statistics/doxygen-html/a00005.html" target="_top" xlink:title="hpp::statistics::Statistics\l\&lt; NodeBin \&gt;">
<polygon fill="white" stroke="black" points="0,-0.5 0,-30.5 125,-30.5 125,-0.5 0,-0.5"/>
<text text-anchor="start" x="8" y="-18.5" font-family="Helvetica,sans-Serif" font-size="10.00">hpp::statistics::Statistics</text>
<text text-anchor="middle" x="62.5" y="-7.5" font-family="Helvetica,sans-Serif" font-size="10.00">&lt; NodeBin &gt;</text>
</a>
</g>
</g>
<!-- Node5&#45;&gt;Node3 -->
<g id="edge4" class="edge"><title>Node5&#45;&gt;Node3</title>
<path fill="none" stroke="midnightblue" d="M135.226,-21.089C143.78,-21.7555 152.42,-22.4289 160.723,-23.0758"/>
<polygon fill="midnightblue" stroke="midnightblue" points="135.492,-17.5993 125.25,-20.3117 134.948,-24.5781 135.492,-17.5993"/>
</g>
</g>
</svg>
