<?xml version="1.0" encoding="UTF-8" standalone="no"?>
<!DOCTYPE svg PUBLIC "-//W3C//DTD SVG 1.1//EN"
 "http://www.w3.org/Graphics/SVG/1.1/DTD/svg11.dtd">
<!-- Generated by graphviz version 2.38.0 (20140413.2041)
 -->
<!-- Title: Graphical Class Hierarchy Pages: 1 -->
<svg width="491pt" height="131pt"
 viewBox="0.00 0.00 491.00 131.00" xmlns="http://www.w3.org/2000/svg" xmlns:xlink="http://www.w3.org/1999/xlink">
<g id="graph0" class="graph" transform="scale(1 1) rotate(0) translate(4 127)">
<title>Graphical Class Hierarchy</title>
<polygon fill="white" stroke="none" points="-4,4 -4,-127 487,-127 487,4 -4,4"/>
<!-- Node1 -->
<g id="node1" class="node"><title>Node1</title>
<g id="a_node1"><a doxygen="/local/devel/hpp/install/share/doc/hpp-core/doxygen-html/hpp-core.doxytag:../../hpp-core/doxygen-html/" xlink:href="../../hpp-core/doxygen-html/a00099.html" target="_top" xlink:title="hpp::core::SteeringMethod">
<polygon fill="white" stroke="black" points="0,-38.5 0,-57.5 131,-57.5 131,-38.5 0,-38.5"/>
<text text-anchor="middle" x="65.5" y="-45.5" font-family="Helvetica,sans-Serif" font-size="10.00">hpp::core::SteeringMethod</text>
</a>
</g>
</g>
<!-- Node2 -->
<g id="node2" class="node"><title>Node2</title>
<g id="a_node2"><a xlink:href="a00053.html" target="_top" xlink:title="hpp::manipulation::\lSteeringMethod">
<polygon fill="white" stroke="black" points="188,-60 188,-90 287,-90 287,-60 188,-60"/>
<text text-anchor="start" x="196" y="-78" font-family="Helvetica,sans-Serif" font-size="10.00">hpp::manipulation::</text>
<text text-anchor="middle" x="237.5" y="-67" font-family="Helvetica,sans-Serif" font-size="10.00">SteeringMethod</text>
</a>
</g>
</g>
<!-- Node1&#45;&gt;Node2 -->
<g id="edge1" class="edge"><title>Node1&#45;&gt;Node2</title>
<path fill="none" stroke="midnightblue" d="M136.459,-59.1112C153.688,-61.8476 171.769,-64.7192 187.747,-67.257"/>
<polygon fill="midnightblue" stroke="midnightblue" points="136.861,-55.6312 126.436,-57.5192 135.763,-62.5445 136.861,-55.6312"/>
</g>
<!-- Node5 -->
<g id="node5" class="node"><title>Node5</title>
<g id="a_node5"><a xlink:href="a00019.html" target="_top" xlink:title="Build StraightPath constrained by a varying right hand side constraint. ">
<polygon fill="white" stroke="black" points="167,-0.5 167,-41.5 308,-41.5 308,-0.5 167,-0.5"/>
<text text-anchor="start" x="175" y="-29.5" font-family="Helvetica,sans-Serif" font-size="10.00">hpp::manipulation::</text>
<text text-anchor="start" x="175" y="-18.5" font-family="Helvetica,sans-Serif" font-size="10.00">steeringMethod::EndEffector</text>
<text text-anchor="middle" x="237.5" y="-7.5" font-family="Helvetica,sans-Serif" font-size="10.00">Trajectory</text>
</a>
</g>
</g>
<!-- Node1&#45;&gt;Node5 -->
<g id="edge4" class="edge"><title>Node1&#45;&gt;Node5</title>
<path fill="none" stroke="midnightblue" d="M136.399,-36.8983C146.483,-35.2969 156.859,-33.6489 166.936,-32.0484"/>
<polygon fill="midnightblue" stroke="midnightblue" points="135.763,-33.4555 126.436,-38.4808 136.861,-40.3688 135.763,-33.4555"/>
</g>
<!-- Node3 -->
<g id="node3" class="node"><title>Node3</title>
<g id="a_node3"><a xlink:href="a00014.html" target="_top" xlink:title="Optimization&#45;based steering method. ">
<polygon fill="white" stroke="black" points="344,-81.5 344,-122.5 483,-122.5 483,-81.5 344,-81.5"/>
<text text-anchor="start" x="352" y="-110.5" font-family="Helvetica,sans-Serif" font-size="10.00">hpp::manipulation::</text>
<text text-anchor="start" x="352" y="-99.5" font-family="Helvetica,sans-Serif" font-size="10.00">steeringMethod::CrossState</text>
<text text-anchor="middle" x="413.5" y="-88.5" font-family="Helvetica,sans-Serif" font-size="10.00">Optimization</text>
</a>
</g>
</g>
<!-- Node2&#45;&gt;Node3 -->
<g id="edge2" class="edge"><title>Node2&#45;&gt;Node3</title>
<path fill="none" stroke="midnightblue" d="M297.515,-84.1575C312.397,-86.4668 328.502,-88.9659 343.815,-91.3419"/>
<polygon fill="midnightblue" stroke="midnightblue" points="297.85,-80.6677 287.432,-82.5929 296.777,-87.5849 297.85,-80.6677"/>
</g>
<!-- Node4 -->
<g id="node4" class="node"><title>Node4</title>
<g id="a_node4"><a xlink:href="a00024.html" target="_top" xlink:title="hpp::manipulation::\lsteeringMethod::Graph">
<polygon fill="white" stroke="black" points="355.5,-33 355.5,-63 471.5,-63 471.5,-33 355.5,-33"/>
<text text-anchor="start" x="363.5" y="-51" font-family="Helvetica,sans-Serif" font-size="10.00">hpp::manipulation::</text>
<text text-anchor="middle" x="413.5" y="-40" font-family="Helvetica,sans-Serif" font-size="10.00">steeringMethod::Graph</text>
</a>
</g>
</g>
<!-- Node2&#45;&gt;Node4 -->
<g id="edge3" class="edge"><title>Node2&#45;&gt;Node4</title>
<path fill="none" stroke="midnightblue" d="M297.315,-65.8735C316.04,-62.968 336.717,-59.7594 355.324,-56.8721"/>
<polygon fill="midnightblue" stroke="midnightblue" points="296.777,-62.4151 287.432,-67.4071 297.85,-69.3323 296.777,-62.4151"/>
</g>
</g>
</svg>
