<?xml version="1.0" encoding="UTF-8" standalone="no"?>
<!DOCTYPE svg PUBLIC "-//W3C//DTD SVG 1.1//EN"
 "http://www.w3.org/Graphics/SVG/1.1/DTD/svg11.dtd">
<!-- Generated by graphviz version 2.38.0 (20140413.2041)
 -->
<!-- Title: collision_utility.h Pages: 1 -->
<svg width="792pt" height="364pt"
 viewBox="0.00 0.00 791.50 364.00" xmlns="http://www.w3.org/2000/svg" xmlns:xlink="http://www.w3.org/1999/xlink">
<g id="graph0" class="graph" transform="scale(1 1) rotate(0) translate(4 360)">
<title>collision_utility.h</title>
<polygon fill="white" stroke="none" points="-4,4 -4,-360 787.5,-360 787.5,4 -4,4"/>
<!-- Node1 -->
<g id="node1" class="node"><title>Node1</title>
<polygon fill="#bfbfbf" stroke="black" points="321.5,-336.5 321.5,-355.5 410.5,-355.5 410.5,-336.5 321.5,-336.5"/>
<text text-anchor="middle" x="366" y="-343.5" font-family="Helvetica,sans-Serif" font-size="10.00">collision_utility.h</text>
</g>
<!-- Node2 -->
<g id="node2" class="node"><title>Node2</title>
<g id="a_node2"><a xlink:href="a00128.html" target="_top" xlink:title="hpp/fcl/collision_object.h">
<polygon fill="white" stroke="black" points="304,-280.5 304,-299.5 428,-299.5 428,-280.5 304,-280.5"/>
<text text-anchor="middle" x="366" y="-287.5" font-family="Helvetica,sans-Serif" font-size="10.00">hpp/fcl/collision_object.h</text>
</a>
</g>
</g>
<!-- Node1&#45;&gt;Node2 -->
<g id="edge1" class="edge"><title>Node1&#45;&gt;Node2</title>
<path fill="none" stroke="midnightblue" d="M366,-336.083C366,-329.006 366,-318.861 366,-309.986"/>
<polygon fill="midnightblue" stroke="midnightblue" points="369.5,-309.751 366,-299.751 362.5,-309.751 369.5,-309.751"/>
</g>
<!-- Node3 -->
<g id="node3" class="node"><title>Node3</title>
<polygon fill="white" stroke="#bfbfbf" points="0,-0.5 0,-19.5 110,-19.5 110,-0.5 0,-0.5"/>
<text text-anchor="middle" x="55" y="-7.5" font-family="Helvetica,sans-Serif" font-size="10.00">hpp/fcl/deprecated.hh</text>
</g>
<!-- Node2&#45;&gt;Node3 -->
<g id="edge2" class="edge"><title>Node2&#45;&gt;Node3</title>
<path fill="none" stroke="midnightblue" d="M319.239,-280.447C293.867,-273.903 263.238,-262.709 241,-244 215.563,-222.6 204,-212.241 204,-179 204,-179 204,-179 204,-121 204,-67.9401 142.088,-37.5788 98.0813,-22.7"/>
<polygon fill="midnightblue" stroke="midnightblue" points="99.0302,-19.3285 88.4385,-19.5867 96.8794,-25.99 99.0302,-19.3285"/>
</g>
<!-- Node4 -->
<g id="node4" class="node"><title>Node4</title>
<g id="a_node4"><a xlink:href="a00114.html" target="_top" xlink:title="hpp/fcl/BV/AABB.h">
<polygon fill="white" stroke="black" points="250.5,-224.5 250.5,-243.5 351.5,-243.5 351.5,-224.5 250.5,-224.5"/>
<text text-anchor="middle" x="301" y="-231.5" font-family="Helvetica,sans-Serif" font-size="10.00">hpp/fcl/BV/AABB.h</text>
</a>
</g>
</g>
<!-- Node2&#45;&gt;Node4 -->
<g id="edge3" class="edge"><title>Node2&#45;&gt;Node4</title>
<path fill="none" stroke="midnightblue" d="M355.557,-280.324C345.854,-272.263 331.185,-260.077 319.5,-250.369"/>
<polygon fill="midnightblue" stroke="midnightblue" points="321.562,-247.532 311.633,-243.834 317.089,-252.916 321.562,-247.532"/>
</g>
<!-- Node19 -->
<g id="node19" class="node"><title>Node19</title>
<g id="a_node19"><a xlink:href="a00155.html" target="_top" xlink:title="hpp/fcl/math/transform.h">
<polygon fill="white" stroke="black" points="369.5,-224.5 369.5,-243.5 492.5,-243.5 492.5,-224.5 369.5,-224.5"/>
<text text-anchor="middle" x="431" y="-231.5" font-family="Helvetica,sans-Serif" font-size="10.00">hpp/fcl/math/transform.h</text>
</a>
</g>
</g>
<!-- Node2&#45;&gt;Node19 -->
<g id="edge24" class="edge"><title>Node2&#45;&gt;Node19</title>
<path fill="none" stroke="midnightblue" d="M376.443,-280.324C386.146,-272.263 400.815,-260.077 412.5,-250.369"/>
<polygon fill="midnightblue" stroke="midnightblue" points="414.911,-252.916 420.367,-243.834 410.438,-247.532 414.911,-252.916"/>
</g>
<!-- Node21 -->
<g id="node21" class="node"><title>Node21</title>
<polygon fill="white" stroke="#bfbfbf" points="511,-224.5 511,-243.5 619,-243.5 619,-224.5 511,-224.5"/>
<text text-anchor="middle" x="565" y="-231.5" font-family="Helvetica,sans-Serif" font-size="10.00">boost/shared_ptr.hpp</text>
</g>
<!-- Node2&#45;&gt;Node21 -->
<g id="edge27" class="edge"><title>Node2&#45;&gt;Node21</title>
<path fill="none" stroke="midnightblue" d="M397.532,-280.444C431.592,-271.201 486.006,-256.436 523.515,-246.257"/>
<polygon fill="midnightblue" stroke="midnightblue" points="524.881,-249.513 533.615,-243.516 523.048,-242.758 524.881,-249.513"/>
</g>
<!-- Node5 -->
<g id="node5" class="node"><title>Node5</title>
<polygon fill="white" stroke="#bfbfbf" points="243.5,-168.5 243.5,-187.5 302.5,-187.5 302.5,-168.5 243.5,-168.5"/>
<text text-anchor="middle" x="273" y="-175.5" font-family="Helvetica,sans-Serif" font-size="10.00">stdexcept</text>
</g>
<!-- Node4&#45;&gt;Node5 -->
<g id="edge4" class="edge"><title>Node4&#45;&gt;Node5</title>
<path fill="none" stroke="midnightblue" d="M296.376,-224.083C292.544,-216.691 286.976,-205.953 282.235,-196.811"/>
<polygon fill="midnightblue" stroke="midnightblue" points="285.248,-195.018 277.538,-187.751 279.034,-198.24 285.248,-195.018"/>
</g>
<!-- Node6 -->
<g id="node6" class="node"><title>Node6</title>
<g id="a_node6"><a xlink:href="a00164.html" target="_top" xlink:title="hpp/fcl/math/vec_3f.h">
<polygon fill="white" stroke="black" points="364.5,-112.5 364.5,-131.5 475.5,-131.5 475.5,-112.5 364.5,-112.5"/>
<text text-anchor="middle" x="420" y="-119.5" font-family="Helvetica,sans-Serif" font-size="10.00">hpp/fcl/math/vec_3f.h</text>
</a>
</g>
</g>
<!-- Node4&#45;&gt;Node6 -->
<g id="edge5" class="edge"><title>Node4&#45;&gt;Node6</title>
<path fill="none" stroke="midnightblue" d="M306.19,-224.232C314.335,-210.968 331.147,-185.496 350,-168 363.25,-155.703 380.271,-144.677 394.21,-136.616"/>
<polygon fill="midnightblue" stroke="midnightblue" points="396.272,-139.473 403.284,-131.531 392.85,-133.367 396.272,-139.473"/>
</g>
<!-- Node18 -->
<g id="node18" class="node"><title>Node18</title>
<g id="a_node18"><a xlink:href="a00146.html" target="_top" xlink:title="hpp/fcl/math/matrix_3f.h">
<polygon fill="white" stroke="black" points="359,-168.5 359,-187.5 481,-187.5 481,-168.5 359,-168.5"/>
<text text-anchor="middle" x="420" y="-175.5" font-family="Helvetica,sans-Serif" font-size="10.00">hpp/fcl/math/matrix_3f.h</text>
</a>
</g>
</g>
<!-- Node4&#45;&gt;Node18 -->
<g id="edge22" class="edge"><title>Node4&#45;&gt;Node18</title>
<path fill="none" stroke="midnightblue" d="M319.856,-224.444C339.266,-215.636 369.73,-201.812 391.965,-191.722"/>
<polygon fill="midnightblue" stroke="midnightblue" points="393.572,-194.836 401.232,-187.516 390.68,-188.462 393.572,-194.836"/>
</g>
<!-- Node7 -->
<g id="node7" class="node"><title>Node7</title>
<g id="a_node7"><a xlink:href="a00130.html" target="_top" xlink:title="hpp/fcl/data_types.h">
<polygon fill="white" stroke="black" points="617.5,-56.5 617.5,-75.5 722.5,-75.5 722.5,-56.5 617.5,-56.5"/>
<text text-anchor="middle" x="670" y="-63.5" font-family="Helvetica,sans-Serif" font-size="10.00">hpp/fcl/data_types.h</text>
</a>
</g>
</g>
<!-- Node6&#45;&gt;Node7 -->
<g id="edge6" class="edge"><title>Node6&#45;&gt;Node7</title>
<path fill="none" stroke="midnightblue" d="M459.613,-112.444C503.225,-103.023 573.4,-87.8656 620.578,-77.6752"/>
<polygon fill="midnightblue" stroke="midnightblue" points="621.536,-81.0489 630.572,-75.5164 620.059,-74.2067 621.536,-81.0489"/>
</g>
<!-- Node10 -->
<g id="node10" class="node"><title>Node10</title>
<polygon fill="white" stroke="#bfbfbf" points="519.5,-56.5 519.5,-75.5 584.5,-75.5 584.5,-56.5 519.5,-56.5"/>
<text text-anchor="middle" x="552" y="-63.5" font-family="Helvetica,sans-Serif" font-size="10.00">Eigen/Core</text>
</g>
<!-- Node6&#45;&gt;Node10 -->
<g id="edge9" class="edge"><title>Node6&#45;&gt;Node10</title>
<path fill="none" stroke="midnightblue" d="M440.916,-112.444C462.736,-103.517 497.15,-89.4387 521.892,-79.3168"/>
<polygon fill="midnightblue" stroke="midnightblue" points="523.252,-82.5422 531.182,-75.5164 520.601,-76.0634 523.252,-82.5422"/>
</g>
<!-- Node11 -->
<g id="node11" class="node"><title>Node11</title>
<polygon fill="white" stroke="#bfbfbf" points="518.5,-0.5 518.5,-19.5 605.5,-19.5 605.5,-0.5 518.5,-0.5"/>
<text text-anchor="middle" x="562" y="-7.5" font-family="Helvetica,sans-Serif" font-size="10.00">Eigen/Geometry</text>
</g>
<!-- Node6&#45;&gt;Node11 -->
<g id="edge10" class="edge"><title>Node6&#45;&gt;Node11</title>
<path fill="none" stroke="midnightblue" d="M431.143,-112.368C455.302,-93.6531 512.751,-49.1509 542.853,-25.8324"/>
<polygon fill="midnightblue" stroke="midnightblue" points="545.147,-28.4824 550.909,-19.5914 540.86,-22.9485 545.147,-28.4824"/>
</g>
<!-- Node12 -->
<g id="node12" class="node"><title>Node12</title>
<g id="a_node12"><a xlink:href="a00154.html" target="_top" xlink:title="hpp/fcl/math/tools.h">
<polygon fill="white" stroke="black" points="282.5,-56.5 282.5,-75.5 385.5,-75.5 385.5,-56.5 282.5,-56.5"/>
<text text-anchor="middle" x="334" y="-63.5" font-family="Helvetica,sans-Serif" font-size="10.00">hpp/fcl/math/tools.h</text>
</a>
</g>
</g>
<!-- Node6&#45;&gt;Node12 -->
<g id="edge11" class="edge"><title>Node6&#45;&gt;Node12</title>
<path fill="none" stroke="midnightblue" d="M406.183,-112.324C392.767,-103.9 372.176,-90.9709 356.414,-81.0741"/>
<polygon fill="midnightblue" stroke="midnightblue" points="358.113,-78.0081 347.783,-75.6545 354.391,-83.9364 358.113,-78.0081"/>
</g>
<!-- Node15 -->
<g id="node15" class="node"><title>Node15</title>
<polygon fill="white" stroke="#bfbfbf" points="128,-0.5 128,-19.5 172,-19.5 172,-0.5 128,-0.5"/>
<text text-anchor="middle" x="150" y="-7.5" font-family="Helvetica,sans-Serif" font-size="10.00">cmath</text>
</g>
<!-- Node6&#45;&gt;Node15 -->
<g id="edge19" class="edge"><title>Node6&#45;&gt;Node15</title>
<path fill="none" stroke="midnightblue" d="M385.793,-112.499C355.585,-104.53 310.621,-91.535 273,-76 236.737,-61.0258 196.972,-38.8844 172.748,-24.7001"/>
<polygon fill="midnightblue" stroke="midnightblue" points="174.357,-21.5853 163.968,-19.5075 170.794,-27.6106 174.357,-21.5853"/>
</g>
<!-- Node16 -->
<g id="node16" class="node"><title>Node16</title>
<polygon fill="white" stroke="#bfbfbf" points="388,-0.5 388,-19.5 442,-19.5 442,-0.5 388,-0.5"/>
<text text-anchor="middle" x="415" y="-7.5" font-family="Helvetica,sans-Serif" font-size="10.00">iostream</text>
</g>
<!-- Node6&#45;&gt;Node16 -->
<g id="edge20" class="edge"><title>Node6&#45;&gt;Node16</title>
<path fill="none" stroke="midnightblue" d="M419.608,-112.368C418.801,-94.617 416.939,-53.6664 415.845,-29.5974"/>
<polygon fill="midnightblue" stroke="midnightblue" points="419.341,-29.4221 415.391,-19.5914 412.348,-29.7401 419.341,-29.4221"/>
</g>
<!-- Node17 -->
<g id="node17" class="node"><title>Node17</title>
<polygon fill="white" stroke="#bfbfbf" points="460,-0.5 460,-19.5 500,-19.5 500,-0.5 460,-0.5"/>
<text text-anchor="middle" x="480" y="-7.5" font-family="Helvetica,sans-Serif" font-size="10.00">limits</text>
</g>
<!-- Node6&#45;&gt;Node17 -->
<g id="edge21" class="edge"><title>Node6&#45;&gt;Node17</title>
<path fill="none" stroke="midnightblue" d="M424.708,-112.368C434.522,-94.376 457.336,-52.5503 470.385,-28.6267"/>
<polygon fill="midnightblue" stroke="midnightblue" points="473.598,-30.0464 475.314,-19.5914 467.453,-26.6944 473.598,-30.0464"/>
</g>
<!-- Node8 -->
<g id="node8" class="node"><title>Node8</title>
<polygon fill="white" stroke="#bfbfbf" points="734.5,-0.5 734.5,-19.5 783.5,-19.5 783.5,-0.5 734.5,-0.5"/>
<text text-anchor="middle" x="759" y="-7.5" font-family="Helvetica,sans-Serif" font-size="10.00">cstddef</text>
</g>
<!-- Node7&#45;&gt;Node8 -->
<g id="edge7" class="edge"><title>Node7&#45;&gt;Node8</title>
<path fill="none" stroke="midnightblue" d="M684.299,-56.324C698.183,-47.9002 719.492,-34.9709 735.804,-25.0741"/>
<polygon fill="midnightblue" stroke="midnightblue" points="738.002,-27.8341 744.736,-19.6545 734.371,-21.8495 738.002,-27.8341"/>
</g>
<!-- Node9 -->
<g id="node9" class="node"><title>Node9</title>
<polygon fill="white" stroke="#bfbfbf" points="624,-0.5 624,-19.5 716,-19.5 716,-0.5 624,-0.5"/>
<text text-anchor="middle" x="670" y="-7.5" font-family="Helvetica,sans-Serif" font-size="10.00">boost/cstdint.hpp</text>
</g>
<!-- Node7&#45;&gt;Node9 -->
<g id="edge8" class="edge"><title>Node7&#45;&gt;Node9</title>
<path fill="none" stroke="midnightblue" d="M670,-56.083C670,-49.0059 670,-38.8611 670,-29.9865"/>
<polygon fill="midnightblue" stroke="midnightblue" points="673.5,-29.751 670,-19.7511 666.5,-29.7511 673.5,-29.751"/>
</g>
<!-- Node12&#45;&gt;Node3 -->
<g id="edge12" class="edge"><title>Node12&#45;&gt;Node3</title>
<path fill="none" stroke="midnightblue" d="M289.792,-56.4435C240.713,-46.9444 161.49,-31.611 108.836,-21.4198"/>
<polygon fill="midnightblue" stroke="midnightblue" points="109.484,-17.9805 99.0015,-19.5164 108.154,-24.853 109.484,-17.9805"/>
</g>
<!-- Node12&#45;&gt;Node11 -->
<g id="edge15" class="edge"><title>Node12&#45;&gt;Node11</title>
<path fill="none" stroke="midnightblue" d="M370.127,-56.4435C409.651,-47.0826 473.097,-32.0561 516.113,-21.868"/>
<polygon fill="midnightblue" stroke="midnightblue" points="517.118,-25.2269 526.042,-19.5164 515.504,-18.4154 517.118,-25.2269"/>
</g>
<!-- Node13 -->
<g id="node13" class="node"><title>Node13</title>
<polygon fill="white" stroke="#bfbfbf" points="189.5,-0.5 189.5,-19.5 278.5,-19.5 278.5,-0.5 189.5,-0.5"/>
<text text-anchor="middle" x="234" y="-7.5" font-family="Helvetica,sans-Serif" font-size="10.00">hpp/fcl/config.hh</text>
</g>
<!-- Node12&#45;&gt;Node13 -->
<g id="edge13" class="edge"><title>Node12&#45;&gt;Node13</title>
<path fill="none" stroke="midnightblue" d="M317.933,-56.324C302.042,-47.7428 277.493,-34.486 259.042,-24.5224"/>
<polygon fill="midnightblue" stroke="midnightblue" points="260.489,-21.3264 250.027,-19.6545 257.163,-27.4857 260.489,-21.3264"/>
</g>
<!-- Node14 -->
<g id="node14" class="node"><title>Node14</title>
<polygon fill="white" stroke="#bfbfbf" points="296.5,-0.5 296.5,-19.5 369.5,-19.5 369.5,-0.5 296.5,-0.5"/>
<text text-anchor="middle" x="333" y="-7.5" font-family="Helvetica,sans-Serif" font-size="10.00">Eigen/Dense</text>
</g>
<!-- Node12&#45;&gt;Node14 -->
<g id="edge14" class="edge"><title>Node12&#45;&gt;Node14</title>
<path fill="none" stroke="midnightblue" d="M333.835,-56.083C333.704,-49.0059 333.516,-38.8611 333.352,-29.9865"/>
<polygon fill="midnightblue" stroke="midnightblue" points="336.847,-29.6845 333.162,-19.7511 329.848,-29.8142 336.847,-29.6845"/>
</g>
<!-- Node12&#45;&gt;Node15 -->
<g id="edge16" class="edge"><title>Node12&#45;&gt;Node15</title>
<path fill="none" stroke="midnightblue" d="M304.459,-56.4359C275.443,-48.0092 229.655,-34.6723 182.12,-20.6159"/>
<polygon fill="midnightblue" stroke="midnightblue" points="182.857,-17.1841 172.275,-17.7018 180.87,-23.8963 182.857,-17.1841"/>
</g>
<!-- Node12&#45;&gt;Node16 -->
<g id="edge17" class="edge"><title>Node12&#45;&gt;Node16</title>
<path fill="none" stroke="midnightblue" d="M347.014,-56.324C359.532,-47.979 378.682,-35.2122 393.471,-25.3524"/>
<polygon fill="midnightblue" stroke="midnightblue" points="395.639,-28.1137 402.018,-19.6545 391.756,-22.2894 395.639,-28.1137"/>
</g>
<!-- Node12&#45;&gt;Node17 -->
<g id="edge18" class="edge"><title>Node12&#45;&gt;Node17</title>
<path fill="none" stroke="midnightblue" d="M357.134,-56.4435C382.342,-47.1203 422.744,-32.1768 450.283,-21.9911"/>
<polygon fill="midnightblue" stroke="midnightblue" points="451.63,-25.2247 459.795,-18.473 449.202,-18.6594 451.63,-25.2247"/>
</g>
<!-- Node18&#45;&gt;Node6 -->
<g id="edge23" class="edge"><title>Node18&#45;&gt;Node6</title>
<path fill="none" stroke="midnightblue" d="M420,-168.083C420,-161.006 420,-150.861 420,-141.986"/>
<polygon fill="midnightblue" stroke="midnightblue" points="423.5,-141.751 420,-131.751 416.5,-141.751 423.5,-141.751"/>
</g>
<!-- Node19&#45;&gt;Node18 -->
<g id="edge25" class="edge"><title>Node19&#45;&gt;Node18</title>
<path fill="none" stroke="midnightblue" d="M429.184,-224.083C427.726,-216.927 425.629,-206.635 423.807,-197.691"/>
<polygon fill="midnightblue" stroke="midnightblue" points="427.208,-196.851 421.783,-187.751 420.349,-198.248 427.208,-196.851"/>
</g>
<!-- Node20 -->
<g id="node20" class="node"><title>Node20</title>
<polygon fill="white" stroke="#bfbfbf" points="499.5,-168.5 499.5,-187.5 618.5,-187.5 618.5,-168.5 499.5,-168.5"/>
<text text-anchor="middle" x="559" y="-175.5" font-family="Helvetica,sans-Serif" font-size="10.00">boost/thread/mutex.hpp</text>
</g>
<!-- Node19&#45;&gt;Node20 -->
<g id="edge26" class="edge"><title>Node19&#45;&gt;Node20</title>
<path fill="none" stroke="midnightblue" d="M451.282,-224.444C472.347,-215.557 505.517,-201.563 529.486,-191.451"/>
<polygon fill="midnightblue" stroke="midnightblue" points="530.96,-194.628 538.813,-187.516 528.239,-188.179 530.96,-194.628"/>
</g>
</g>
</svg>
