<?xml version="1.0" encoding="UTF-8" standalone="no"?>
<!DOCTYPE svg PUBLIC "-//W3C//DTD SVG 1.1//EN"
 "http://www.w3.org/Graphics/SVG/1.1/DTD/svg11.dtd">
<!-- Generated by graphviz version 2.38.0 (20140413.2041)
 -->
<!-- Title: BV_splitter.h Pages: 1 -->
<svg width="793pt" height="375pt"
 viewBox="0.00 0.00 793.00 375.00" xmlns="http://www.w3.org/2000/svg" xmlns:xlink="http://www.w3.org/1999/xlink">
<g id="graph0" class="graph" transform="scale(1 1) rotate(0) translate(4 371)">
<title>BV_splitter.h</title>
<polygon fill="white" stroke="none" points="-4,4 -4,-371 789,-371 789,4 -4,4"/>
<!-- Node1 -->
<g id="node1" class="node"><title>Node1</title>
<polygon fill="#bfbfbf" stroke="black" points="577.5,-347.5 577.5,-366.5 650.5,-366.5 650.5,-347.5 577.5,-347.5"/>
<text text-anchor="middle" x="614" y="-354.5" font-family="Helvetica,sans-Serif" font-size="10.00">BV_splitter.h</text>
</g>
<!-- Node2 -->
<g id="node2" class="node"><title>Node2</title>
<g id="a_node2"><a xlink:href="a00121.html" target="_top" xlink:title="hpp/fcl/BVH/BVH_internal.h">
<polygon fill="white" stroke="black" points="89.5,-112.5 89.5,-131.5 228.5,-131.5 228.5,-112.5 89.5,-112.5"/>
<text text-anchor="middle" x="159" y="-119.5" font-family="Helvetica,sans-Serif" font-size="10.00">hpp/fcl/BVH/BVH_internal.h</text>
</a>
</g>
</g>
<!-- Node1&#45;&gt;Node2 -->
<g id="edge1" class="edge"><title>Node1&#45;&gt;Node2</title>
<path fill="none" stroke="midnightblue" d="M577.291,-351.149C537.958,-345.092 474.268,-332.775 423,-311 338.35,-275.046 322.955,-253.671 249,-199 222.572,-179.463 193.858,-154.506 176.143,-138.632"/>
<polygon fill="midnightblue" stroke="midnightblue" points="178.157,-135.735 168.388,-131.633 173.466,-140.931 178.157,-135.735"/>
</g>
<!-- Node6 -->
<g id="node6" class="node"><title>Node6</title>
<g id="a_node6"><a xlink:href="a00143.html" target="_top" xlink:title="hpp/fcl/BV/kIOS.h">
<polygon fill="white" stroke="black" points="566,-291.5 566,-310.5 662,-310.5 662,-291.5 566,-291.5"/>
<text text-anchor="middle" x="614" y="-298.5" font-family="Helvetica,sans-Serif" font-size="10.00">hpp/fcl/BV/kIOS.h</text>
</a>
</g>
</g>
<!-- Node1&#45;&gt;Node6 -->
<g id="edge5" class="edge"><title>Node1&#45;&gt;Node6</title>
<path fill="none" stroke="midnightblue" d="M614,-347.083C614,-340.006 614,-329.861 614,-320.986"/>
<polygon fill="midnightblue" stroke="midnightblue" points="617.5,-320.751 614,-310.751 610.5,-320.751 617.5,-320.751"/>
</g>
<!-- Node16 -->
<g id="node16" class="node"><title>Node16</title>
<polygon fill="white" stroke="#bfbfbf" points="731,-0.5 731,-19.5 785,-19.5 785,-0.5 731,-0.5"/>
<text text-anchor="middle" x="758" y="-7.5" font-family="Helvetica,sans-Serif" font-size="10.00">iostream</text>
</g>
<!-- Node1&#45;&gt;Node16 -->
<g id="edge32" class="edge"><title>Node1&#45;&gt;Node16</title>
<path fill="none" stroke="midnightblue" d="M628.621,-347.482C654.344,-331.272 705,-293.339 705,-246 705,-246 705,-246 705,-121 705,-84.9918 728.334,-48.3388 744.037,-27.7501"/>
<polygon fill="midnightblue" stroke="midnightblue" points="746.935,-29.7291 750.406,-19.7193 741.45,-25.3793 746.935,-29.7291"/>
</g>
<!-- Node19 -->
<g id="node19" class="node"><title>Node19</title>
<g id="a_node19"><a xlink:href="a00150.html" target="_top" xlink:title="hpp/fcl/BV/OBBRSS.h">
<polygon fill="white" stroke="black" points="432,-291.5 432,-310.5 548,-310.5 548,-291.5 432,-291.5"/>
<text text-anchor="middle" x="490" y="-298.5" font-family="Helvetica,sans-Serif" font-size="10.00">hpp/fcl/BV/OBBRSS.h</text>
</a>
</g>
</g>
<!-- Node1&#45;&gt;Node19 -->
<g id="edge24" class="edge"><title>Node1&#45;&gt;Node19</title>
<path fill="none" stroke="midnightblue" d="M594.352,-347.444C574.035,-338.596 542.097,-324.687 518.902,-314.586"/>
<polygon fill="midnightblue" stroke="midnightblue" points="520.122,-311.3 509.556,-310.516 517.327,-317.718 520.122,-311.3"/>
</g>
<!-- Node23 -->
<g id="node23" class="node"><title>Node23</title>
<polygon fill="white" stroke="#bfbfbf" points="733,-291.5 733,-310.5 777,-310.5 777,-291.5 733,-291.5"/>
<text text-anchor="middle" x="755" y="-298.5" font-family="Helvetica,sans-Serif" font-size="10.00">vector</text>
</g>
<!-- Node1&#45;&gt;Node23 -->
<g id="edge31" class="edge"><title>Node1&#45;&gt;Node23</title>
<path fill="none" stroke="midnightblue" d="M636.342,-347.444C659.753,-338.478 696.736,-324.314 723.19,-314.183"/>
<polygon fill="midnightblue" stroke="midnightblue" points="724.676,-317.361 732.763,-310.516 722.172,-310.824 724.676,-317.361"/>
</g>
<!-- Node3 -->
<g id="node3" class="node"><title>Node3</title>
<g id="a_node3"><a xlink:href="a00130.html" target="_top" xlink:title="hpp/fcl/data_types.h">
<polygon fill="white" stroke="black" points="102.5,-56.5 102.5,-75.5 207.5,-75.5 207.5,-56.5 102.5,-56.5"/>
<text text-anchor="middle" x="155" y="-63.5" font-family="Helvetica,sans-Serif" font-size="10.00">hpp/fcl/data_types.h</text>
</a>
</g>
</g>
<!-- Node2&#45;&gt;Node3 -->
<g id="edge2" class="edge"><title>Node2&#45;&gt;Node3</title>
<path fill="none" stroke="midnightblue" d="M158.339,-112.083C157.815,-105.006 157.064,-94.8611 156.406,-85.9865"/>
<polygon fill="midnightblue" stroke="midnightblue" points="159.877,-85.4652 155.648,-75.7511 152.897,-85.9823 159.877,-85.4652"/>
</g>
<!-- Node4 -->
<g id="node4" class="node"><title>Node4</title>
<polygon fill="white" stroke="#bfbfbf" points="110.5,-0.5 110.5,-19.5 159.5,-19.5 159.5,-0.5 110.5,-0.5"/>
<text text-anchor="middle" x="135" y="-7.5" font-family="Helvetica,sans-Serif" font-size="10.00">cstddef</text>
</g>
<!-- Node3&#45;&gt;Node4 -->
<g id="edge3" class="edge"><title>Node3&#45;&gt;Node4</title>
<path fill="none" stroke="midnightblue" d="M151.697,-56.083C149.018,-48.8486 145.151,-38.4087 141.814,-29.3968"/>
<polygon fill="midnightblue" stroke="midnightblue" points="144.996,-27.9129 138.241,-19.7511 138.432,-30.3442 144.996,-27.9129"/>
</g>
<!-- Node5 -->
<g id="node5" class="node"><title>Node5</title>
<polygon fill="white" stroke="#bfbfbf" points="0,-0.5 0,-19.5 92,-19.5 92,-0.5 0,-0.5"/>
<text text-anchor="middle" x="46" y="-7.5" font-family="Helvetica,sans-Serif" font-size="10.00">boost/cstdint.hpp</text>
</g>
<!-- Node3&#45;&gt;Node5 -->
<g id="edge4" class="edge"><title>Node3&#45;&gt;Node5</title>
<path fill="none" stroke="midnightblue" d="M137.487,-56.324C119.928,-47.6247 92.6686,-34.1202 72.4688,-24.113"/>
<polygon fill="midnightblue" stroke="midnightblue" points="73.9837,-20.9575 63.4693,-19.6545 70.8762,-27.23 73.9837,-20.9575"/>
</g>
<!-- Node7 -->
<g id="node7" class="node"><title>Node7</title>
<g id="a_node7"><a xlink:href="a00148.html" target="_top" xlink:title="hpp/fcl/BV/OBB.h">
<polygon fill="white" stroke="black" points="553.5,-235.5 553.5,-254.5 648.5,-254.5 648.5,-235.5 553.5,-235.5"/>
<text text-anchor="middle" x="601" y="-242.5" font-family="Helvetica,sans-Serif" font-size="10.00">hpp/fcl/BV/OBB.h</text>
</a>
</g>
</g>
<!-- Node6&#45;&gt;Node7 -->
<g id="edge6" class="edge"><title>Node6&#45;&gt;Node7</title>
<path fill="none" stroke="midnightblue" d="M611.853,-291.083C610.131,-283.927 607.653,-273.635 605.5,-264.691"/>
<polygon fill="midnightblue" stroke="midnightblue" points="608.85,-263.654 603.107,-254.751 602.045,-265.293 608.85,-263.654"/>
</g>
<!-- Node8 -->
<g id="node8" class="node"><title>Node8</title>
<g id="a_node8"><a xlink:href="a00164.html" target="_top" xlink:title="hpp/fcl/math/vec_3f.h">
<polygon fill="white" stroke="black" points="454.5,-112.5 454.5,-131.5 565.5,-131.5 565.5,-112.5 454.5,-112.5"/>
<text text-anchor="middle" x="510" y="-119.5" font-family="Helvetica,sans-Serif" font-size="10.00">hpp/fcl/math/vec_3f.h</text>
</a>
</g>
</g>
<!-- Node7&#45;&gt;Node8 -->
<g id="edge7" class="edge"><title>Node7&#45;&gt;Node8</title>
<path fill="none" stroke="midnightblue" d="M610.034,-235.449C624.449,-220.752 649.522,-190.145 634,-168 620.489,-148.723 597.837,-137.672 575.562,-131.348"/>
<polygon fill="midnightblue" stroke="midnightblue" points="576.284,-127.92 565.729,-128.84 574.554,-134.703 576.284,-127.92"/>
</g>
<!-- Node18 -->
<g id="node18" class="node"><title>Node18</title>
<g id="a_node18"><a xlink:href="a00146.html" target="_top" xlink:title="hpp/fcl/math/matrix_3f.h">
<polygon fill="white" stroke="black" points="503,-174 503,-193 625,-193 625,-174 503,-174"/>
<text text-anchor="middle" x="564" y="-181" font-family="Helvetica,sans-Serif" font-size="10.00">hpp/fcl/math/matrix_3f.h</text>
</a>
</g>
</g>
<!-- Node7&#45;&gt;Node18 -->
<g id="edge22" class="edge"><title>Node7&#45;&gt;Node18</title>
<path fill="none" stroke="midnightblue" d="M595.699,-235.475C590.259,-226.727 581.641,-212.869 574.764,-201.809"/>
<polygon fill="midnightblue" stroke="midnightblue" points="577.544,-199.653 569.291,-193.009 571.6,-203.349 577.544,-199.653"/>
</g>
<!-- Node8&#45;&gt;Node3 -->
<g id="edge8" class="edge"><title>Node8&#45;&gt;Node3</title>
<path fill="none" stroke="midnightblue" d="M454.141,-112.503C389.88,-102.728 284.634,-86.719 217.643,-76.5289"/>
<polygon fill="midnightblue" stroke="midnightblue" points="218.052,-73.0509 207.64,-75.0072 217,-79.9713 218.052,-73.0509"/>
</g>
<!-- Node9 -->
<g id="node9" class="node"><title>Node9</title>
<polygon fill="white" stroke="#bfbfbf" points="611.5,-56.5 611.5,-75.5 676.5,-75.5 676.5,-56.5 611.5,-56.5"/>
<text text-anchor="middle" x="644" y="-63.5" font-family="Helvetica,sans-Serif" font-size="10.00">Eigen/Core</text>
</g>
<!-- Node8&#45;&gt;Node9 -->
<g id="edge9" class="edge"><title>Node8&#45;&gt;Node9</title>
<path fill="none" stroke="midnightblue" d="M531.233,-112.444C553.384,-103.517 588.319,-89.4387 613.436,-79.3168"/>
<polygon fill="midnightblue" stroke="midnightblue" points="614.9,-82.5006 622.867,-75.5164 612.283,-76.0079 614.9,-82.5006"/>
</g>
<!-- Node10 -->
<g id="node10" class="node"><title>Node10</title>
<polygon fill="white" stroke="#bfbfbf" points="177.5,-0.5 177.5,-19.5 264.5,-19.5 264.5,-0.5 177.5,-0.5"/>
<text text-anchor="middle" x="221" y="-7.5" font-family="Helvetica,sans-Serif" font-size="10.00">Eigen/Geometry</text>
</g>
<!-- Node8&#45;&gt;Node10 -->
<g id="edge10" class="edge"><title>Node8&#45;&gt;Node10</title>
<path fill="none" stroke="midnightblue" d="M479.249,-112.426C450.054,-104.027 405.094,-90.4199 367,-76 324.57,-59.9385 276.778,-37.8764 247.784,-24.0319"/>
<polygon fill="midnightblue" stroke="midnightblue" points="249.236,-20.8468 238.707,-19.6724 246.206,-27.1568 249.236,-20.8468"/>
</g>
<!-- Node11 -->
<g id="node11" class="node"><title>Node11</title>
<g id="a_node11"><a xlink:href="a00154.html" target="_top" xlink:title="hpp/fcl/math/tools.h">
<polygon fill="white" stroke="black" points="413.5,-56.5 413.5,-75.5 516.5,-75.5 516.5,-56.5 413.5,-56.5"/>
<text text-anchor="middle" x="465" y="-63.5" font-family="Helvetica,sans-Serif" font-size="10.00">hpp/fcl/math/tools.h</text>
</a>
</g>
</g>
<!-- Node8&#45;&gt;Node11 -->
<g id="edge11" class="edge"><title>Node8&#45;&gt;Node11</title>
<path fill="none" stroke="midnightblue" d="M502.569,-112.083C496.147,-104.377 486.694,-93.0333 478.878,-83.6531"/>
<polygon fill="midnightblue" stroke="midnightblue" points="481.383,-81.1927 472.293,-75.7511 476.006,-85.674 481.383,-81.1927"/>
</g>
<!-- Node15 -->
<g id="node15" class="node"><title>Node15</title>
<polygon fill="white" stroke="#bfbfbf" points="283,-0.5 283,-19.5 327,-19.5 327,-0.5 283,-0.5"/>
<text text-anchor="middle" x="305" y="-7.5" font-family="Helvetica,sans-Serif" font-size="10.00">cmath</text>
</g>
<!-- Node8&#45;&gt;Node15 -->
<g id="edge19" class="edge"><title>Node8&#45;&gt;Node15</title>
<path fill="none" stroke="midnightblue" d="M486.702,-112.5C464.846,-104.204 431.5,-90.7116 404,-76 375.358,-60.6779 344.365,-39.513 324.83,-25.5516"/>
<polygon fill="midnightblue" stroke="midnightblue" points="326.622,-22.5286 316.466,-19.5123 322.524,-28.2039 326.622,-22.5286"/>
</g>
<!-- Node8&#45;&gt;Node16 -->
<g id="edge20" class="edge"><title>Node8&#45;&gt;Node16</title>
<path fill="none" stroke="midnightblue" d="M521.202,-112.368C541.789,-96.6284 585.078,-64.1317 602,-56 612.82,-50.8007 678.312,-32.5963 720.927,-20.9962"/>
<polygon fill="midnightblue" stroke="midnightblue" points="721.962,-24.342 730.695,-18.3437 720.127,-17.5866 721.962,-24.342"/>
</g>
<!-- Node17 -->
<g id="node17" class="node"><title>Node17</title>
<polygon fill="white" stroke="#bfbfbf" points="673,-0.5 673,-19.5 713,-19.5 713,-0.5 673,-0.5"/>
<text text-anchor="middle" x="693" y="-7.5" font-family="Helvetica,sans-Serif" font-size="10.00">limits</text>
</g>
<!-- Node8&#45;&gt;Node17 -->
<g id="edge21" class="edge"><title>Node8&#45;&gt;Node17</title>
<path fill="none" stroke="midnightblue" d="M515.85,-112.175C525.422,-98.3672 545.713,-71.6233 569,-56 584.745,-45.4366 631.997,-29.7123 663.412,-19.9225"/>
<polygon fill="midnightblue" stroke="midnightblue" points="664.471,-23.2586 672.996,-16.9665 662.408,-16.5695 664.471,-23.2586"/>
</g>
<!-- Node11&#45;&gt;Node10 -->
<g id="edge15" class="edge"><title>Node11&#45;&gt;Node10</title>
<path fill="none" stroke="midnightblue" d="M426.337,-56.4435C383.862,-47.0431 315.569,-31.9291 269.526,-21.7393"/>
<polygon fill="midnightblue" stroke="midnightblue" points="270.002,-18.26 259.482,-19.5164 268.489,-25.0946 270.002,-18.26"/>
</g>
<!-- Node12 -->
<g id="node12" class="node"><title>Node12</title>
<polygon fill="white" stroke="#bfbfbf" points="437,-0.5 437,-19.5 547,-19.5 547,-0.5 437,-0.5"/>
<text text-anchor="middle" x="492" y="-7.5" font-family="Helvetica,sans-Serif" font-size="10.00">hpp/fcl/deprecated.hh</text>
</g>
<!-- Node11&#45;&gt;Node12 -->
<g id="edge12" class="edge"><title>Node11&#45;&gt;Node12</title>
<path fill="none" stroke="midnightblue" d="M469.459,-56.083C473.154,-48.6913 478.523,-37.9533 483.094,-28.8111"/>
<polygon fill="midnightblue" stroke="midnightblue" points="486.283,-30.2606 487.624,-19.7511 480.022,-27.1301 486.283,-30.2606"/>
</g>
<!-- Node13 -->
<g id="node13" class="node"><title>Node13</title>
<polygon fill="white" stroke="#bfbfbf" points="565.5,-0.5 565.5,-19.5 654.5,-19.5 654.5,-0.5 565.5,-0.5"/>
<text text-anchor="middle" x="610" y="-7.5" font-family="Helvetica,sans-Serif" font-size="10.00">hpp/fcl/config.hh</text>
</g>
<!-- Node11&#45;&gt;Node13 -->
<g id="edge13" class="edge"><title>Node11&#45;&gt;Node13</title>
<path fill="none" stroke="midnightblue" d="M487.976,-56.4435C512.157,-47.4381 550.418,-33.1891 577.646,-23.049"/>
<polygon fill="midnightblue" stroke="midnightblue" points="578.982,-26.2864 587.132,-19.5164 576.539,-19.7265 578.982,-26.2864"/>
</g>
<!-- Node14 -->
<g id="node14" class="node"><title>Node14</title>
<polygon fill="white" stroke="#bfbfbf" points="345.5,-0.5 345.5,-19.5 418.5,-19.5 418.5,-0.5 345.5,-0.5"/>
<text text-anchor="middle" x="382" y="-7.5" font-family="Helvetica,sans-Serif" font-size="10.00">Eigen/Dense</text>
</g>
<!-- Node11&#45;&gt;Node14 -->
<g id="edge14" class="edge"><title>Node11&#45;&gt;Node14</title>
<path fill="none" stroke="midnightblue" d="M451.665,-56.324C438.838,-47.979 419.215,-35.2122 404.06,-25.3524"/>
<polygon fill="midnightblue" stroke="midnightblue" points="405.593,-22.1742 395.302,-19.6545 401.776,-28.0417 405.593,-22.1742"/>
</g>
<!-- Node11&#45;&gt;Node15 -->
<g id="edge16" class="edge"><title>Node11&#45;&gt;Node15</title>
<path fill="none" stroke="midnightblue" d="M439.648,-56.4435C411.781,-47.0385 366.968,-31.9142 336.775,-21.7242"/>
<polygon fill="midnightblue" stroke="midnightblue" points="337.736,-18.3546 327.142,-18.473 335.498,-24.9871 337.736,-18.3546"/>
</g>
<!-- Node11&#45;&gt;Node16 -->
<g id="edge17" class="edge"><title>Node11&#45;&gt;Node16</title>
<path fill="none" stroke="midnightblue" d="M516.896,-57.0329C566.819,-49.1167 644.62,-36.1223 721.116,-20.0671"/>
<polygon fill="midnightblue" stroke="midnightblue" points="721.864,-23.4865 730.921,-17.9905 720.413,-16.6384 721.864,-23.4865"/>
</g>
<!-- Node11&#45;&gt;Node17 -->
<g id="edge18" class="edge"><title>Node11&#45;&gt;Node17</title>
<path fill="none" stroke="midnightblue" d="M506.535,-56.4195C546.737,-47.9123 609.309,-34.1375 663,-20 663.099,-19.974 663.197,-19.948 663.296,-19.9218"/>
<polygon fill="midnightblue" stroke="midnightblue" points="664.031,-23.3506 672.72,-17.2877 662.147,-16.6091 664.031,-23.3506"/>
</g>
<!-- Node18&#45;&gt;Node8 -->
<g id="edge23" class="edge"><title>Node18&#45;&gt;Node8</title>
<path fill="none" stroke="midnightblue" d="M556.263,-173.975C548.003,-164.873 534.723,-150.241 524.506,-138.983"/>
<polygon fill="midnightblue" stroke="midnightblue" points="527.035,-136.562 517.723,-131.509 521.851,-141.266 527.035,-136.562"/>
</g>
<!-- Node19&#45;&gt;Node7 -->
<g id="edge25" class="edge"><title>Node19&#45;&gt;Node7</title>
<path fill="none" stroke="midnightblue" d="M507.834,-291.324C525.716,-282.625 553.475,-269.12 574.046,-259.113"/>
<polygon fill="midnightblue" stroke="midnightblue" points="575.749,-262.177 583.21,-254.655 572.687,-255.882 575.749,-262.177"/>
</g>
<!-- Node20 -->
<g id="node20" class="node"><title>Node20</title>
<g id="a_node20"><a xlink:href="a00153.html" target="_top" xlink:title="hpp/fcl/BV/RSS.h">
<polygon fill="white" stroke="black" points="427.5,-235.5 427.5,-254.5 522.5,-254.5 522.5,-235.5 427.5,-235.5"/>
<text text-anchor="middle" x="475" y="-242.5" font-family="Helvetica,sans-Serif" font-size="10.00">hpp/fcl/BV/RSS.h</text>
</a>
</g>
</g>
<!-- Node19&#45;&gt;Node20 -->
<g id="edge26" class="edge"><title>Node19&#45;&gt;Node20</title>
<path fill="none" stroke="midnightblue" d="M487.523,-291.083C485.514,-283.849 482.614,-273.409 480.11,-264.397"/>
<polygon fill="midnightblue" stroke="midnightblue" points="483.48,-263.449 477.431,-254.751 476.735,-265.323 483.48,-263.449"/>
</g>
<!-- Node20&#45;&gt;Node8 -->
<g id="edge28" class="edge"><title>Node20&#45;&gt;Node8</title>
<path fill="none" stroke="midnightblue" d="M476.844,-235.492C479.97,-221.363 486.686,-192.217 494,-168 496.7,-159.059 500.122,-149.274 503.107,-141.119"/>
<polygon fill="midnightblue" stroke="midnightblue" points="506.463,-142.137 506.683,-131.545 499.905,-139.688 506.463,-142.137"/>
</g>
<!-- Node20&#45;&gt;Node18 -->
<g id="edge29" class="edge"><title>Node20&#45;&gt;Node18</title>
<path fill="none" stroke="midnightblue" d="M487.752,-235.475C502.027,-225.931 525.397,-210.307 542.508,-198.868"/>
<polygon fill="midnightblue" stroke="midnightblue" points="544.904,-201.477 551.272,-193.009 541.014,-195.657 544.904,-201.477"/>
</g>
<!-- Node21 -->
<g id="node21" class="node"><title>Node21</title>
<polygon fill="white" stroke="#bfbfbf" points="387.5,-174 387.5,-193 446.5,-193 446.5,-174 387.5,-174"/>
<text text-anchor="middle" x="417" y="-181" font-family="Helvetica,sans-Serif" font-size="10.00">stdexcept</text>
</g>
<!-- Node20&#45;&gt;Node21 -->
<g id="edge27" class="edge"><title>Node20&#45;&gt;Node21</title>
<path fill="none" stroke="midnightblue" d="M466.69,-235.475C457.818,-226.373 443.554,-211.741 432.58,-200.483"/>
<polygon fill="midnightblue" stroke="midnightblue" points="434.781,-197.727 425.295,-193.009 429.769,-202.613 434.781,-197.727"/>
</g>
<!-- Node22 -->
<g id="node22" class="node"><title>Node22</title>
<polygon fill="white" stroke="#bfbfbf" points="258.5,-168.5 258.5,-198.5 369.5,-198.5 369.5,-168.5 258.5,-168.5"/>
<text text-anchor="start" x="266.5" y="-186.5" font-family="Helvetica,sans-Serif" font-size="10.00">boost/math/constants</text>
<text text-anchor="middle" x="314" y="-175.5" font-family="Helvetica,sans-Serif" font-size="10.00">/constants.hpp</text>
</g>
<!-- Node20&#45;&gt;Node22 -->
<g id="edge30" class="edge"><title>Node20&#45;&gt;Node22</title>
<path fill="none" stroke="midnightblue" d="M451.933,-235.475C428.395,-226.776 391.189,-213.026 361.348,-201.998"/>
<polygon fill="midnightblue" stroke="midnightblue" points="362.538,-198.707 351.945,-198.523 360.111,-205.273 362.538,-198.707"/>
</g>
</g>
</svg>
