<?xml version="1.0" encoding="UTF-8" standalone="no"?>
<!DOCTYPE svg PUBLIC "-//W3C//DTD SVG 1.1//EN"
 "http://www.w3.org/Graphics/SVG/1.1/DTD/svg11.dtd">
<!-- Generated by graphviz version 2.38.0 (20140413.2041)
 -->
<!-- Title: AABB.h Pages: 1 -->
<svg width="1522pt" height="431pt"
 viewBox="0.00 0.00 1522.27 431.00" xmlns="http://www.w3.org/2000/svg" xmlns:xlink="http://www.w3.org/1999/xlink">
<g id="graph0" class="graph" transform="scale(1 1) rotate(0) translate(4 427)">
<title>AABB.h</title>
<polygon fill="white" stroke="none" points="-4,4 -4,-427 1518.27,-427 1518.27,4 -4,4"/>
<!-- Node1 -->
<g id="node1" class="node"><title>Node1</title>
<polygon fill="#bfbfbf" stroke="black" points="841,-403.5 841,-422.5 893,-422.5 893,-403.5 841,-403.5"/>
<text text-anchor="middle" x="867" y="-410.5" font-family="Helvetica,sans-Serif" font-size="10.00">AABB.h</text>
</g>
<!-- Node2 -->
<g id="node2" class="node"><title>Node2</title>
<g id="a_node2"><a xlink:href="a00116.html" target="_top" xlink:title="BV.h">
<polygon fill="white" stroke="black" points="282,-291.5 282,-310.5 320,-310.5 320,-291.5 282,-291.5"/>
<text text-anchor="middle" x="301" y="-298.5" font-family="Helvetica,sans-Serif" font-size="10.00">BV.h</text>
</a>
</g>
</g>
<!-- Node1&#45;&gt;Node2 -->
<g id="edge1" class="edge"><title>Node1&#45;&gt;Node2</title>
<path fill="none" stroke="midnightblue" d="M830.703,-404.946C722.07,-383.833 401.969,-321.623 320.194,-305.73"/>
<polygon fill="midnightblue" stroke="midnightblue" points="830.352,-408.443 840.836,-406.915 831.687,-401.572 830.352,-408.443"/>
</g>
<!-- Node17 -->
<g id="node17" class="node"><title>Node17</title>
<g id="a_node17"><a xlink:href="a00128.html" target="_top" xlink:title="collision_object.h">
<polygon fill="white" stroke="black" points="821,-347.5 821,-366.5 913,-366.5 913,-347.5 821,-347.5"/>
<text text-anchor="middle" x="867" y="-354.5" font-family="Helvetica,sans-Serif" font-size="10.00">collision_object.h</text>
</a>
</g>
</g>
<!-- Node1&#45;&gt;Node17 -->
<g id="edge25" class="edge"><title>Node1&#45;&gt;Node17</title>
<path fill="none" stroke="midnightblue" d="M867,-392.805C867,-383.91 867,-373.78 867,-366.751"/>
<polygon fill="midnightblue" stroke="midnightblue" points="863.5,-393.083 867,-403.083 870.5,-393.083 863.5,-393.083"/>
</g>
<!-- Node30 -->
<g id="node30" class="node"><title>Node30</title>
<g id="a_node30"><a xlink:href="a00151.html" target="_top" xlink:title="octree.h">
<polygon fill="white" stroke="black" points="1100,-291.5 1100,-310.5 1152,-310.5 1152,-291.5 1100,-291.5"/>
<text text-anchor="middle" x="1126" y="-298.5" font-family="Helvetica,sans-Serif" font-size="10.00">octree.h</text>
</a>
</g>
</g>
<!-- Node1&#45;&gt;Node30 -->
<g id="edge63" class="edge"><title>Node1&#45;&gt;Node30</title>
<path fill="none" stroke="midnightblue" d="M896.559,-399.446C949.75,-376.855 1060.28,-329.911 1105.77,-310.591"/>
<polygon fill="midnightblue" stroke="midnightblue" points="895.159,-396.238 887.323,-403.368 897.896,-402.681 895.159,-396.238"/>
</g>
<!-- Node3 -->
<g id="node3" class="node"><title>Node3</title>
<g id="a_node3"><a xlink:href="a00118.html" target="_top" xlink:title="BV_node.h">
<polygon fill="white" stroke="black" points="131.5,-235.5 131.5,-254.5 196.5,-254.5 196.5,-235.5 131.5,-235.5"/>
<text text-anchor="middle" x="164" y="-242.5" font-family="Helvetica,sans-Serif" font-size="10.00">BV_node.h</text>
</a>
</g>
</g>
<!-- Node2&#45;&gt;Node3 -->
<g id="edge2" class="edge"><title>Node2&#45;&gt;Node3</title>
<path fill="none" stroke="midnightblue" d="M272.326,-288.698C246.465,-278.504 209.001,-263.738 185.595,-254.512"/>
<polygon fill="midnightblue" stroke="midnightblue" points="271.364,-292.081 281.951,-292.492 273.931,-285.568 271.364,-292.081"/>
</g>
<!-- Node8 -->
<g id="node8" class="node"><title>Node8</title>
<g id="a_node8"><a xlink:href="a00159.html" target="_top" xlink:title="traversal_node_bvhs.h">
<polygon fill="white" stroke="black" points="288.5,-118 288.5,-137 403.5,-137 403.5,-118 288.5,-118"/>
<text text-anchor="middle" x="346" y="-125" font-family="Helvetica,sans-Serif" font-size="10.00">traversal_node_bvhs.h</text>
</a>
</g>
</g>
<!-- Node2&#45;&gt;Node8 -->
<g id="edge18" class="edge"><title>Node2&#45;&gt;Node8</title>
<path fill="none" stroke="midnightblue" d="M293.187,-281.825C283.884,-257.302 271.439,-212.801 287,-179 295.739,-160.017 315.525,-145.508 329.776,-137.015"/>
<polygon fill="midnightblue" stroke="midnightblue" points="290.022,-283.335 297.01,-291.299 296.514,-280.716 290.022,-283.335"/>
</g>
<!-- Node15 -->
<g id="node15" class="node"><title>Node15</title>
<g id="a_node15"><a xlink:href="a00139.html" target="_top" xlink:title="geometric_shapes_utility.h">
<polygon fill="white" stroke="black" points="405.5,-179.5 405.5,-198.5 538.5,-198.5 538.5,-179.5 405.5,-179.5"/>
<text text-anchor="middle" x="472" y="-186.5" font-family="Helvetica,sans-Serif" font-size="10.00">geometric_shapes_utility.h</text>
</a>
</g>
</g>
<!-- Node2&#45;&gt;Node15 -->
<g id="edge19" class="edge"><title>Node2&#45;&gt;Node15</title>
<path fill="none" stroke="midnightblue" d="M323.208,-285.714C359.242,-262.535 429.358,-217.43 458.644,-198.591"/>
<polygon fill="midnightblue" stroke="midnightblue" points="320.935,-283.015 314.418,-291.368 324.722,-288.902 320.935,-283.015"/>
</g>
<!-- Node16 -->
<g id="node16" class="node"><title>Node16</title>
<g id="a_node16"><a xlink:href="a00162.html" target="_top" xlink:title="traversal_node_shapes.h">
<polygon fill="white" stroke="black" points="540.5,-118 540.5,-137 665.5,-137 665.5,-118 540.5,-118"/>
<text text-anchor="middle" x="603" y="-125" font-family="Helvetica,sans-Serif" font-size="10.00">traversal_node_shapes.h</text>
</a>
</g>
</g>
<!-- Node2&#45;&gt;Node16 -->
<g id="edge24" class="edge"><title>Node2&#45;&gt;Node16</title>
<path fill="none" stroke="midnightblue" d="M309.824,-282.404C324.135,-255.74 354.986,-205.418 396,-179 409.917,-170.036 505.575,-148.918 561.861,-137.025"/>
<polygon fill="midnightblue" stroke="midnightblue" points="306.673,-280.879 305.163,-291.365 312.883,-284.109 306.673,-280.879"/>
</g>
<!-- Node4 -->
<g id="node4" class="node"><title>Node4</title>
<g id="a_node4"><a xlink:href="a00122.html" target="_top" xlink:title="BVH_model.h">
<polygon fill="white" stroke="black" points="81.5,-179.5 81.5,-198.5 158.5,-198.5 158.5,-179.5 81.5,-179.5"/>
<text text-anchor="middle" x="120" y="-186.5" font-family="Helvetica,sans-Serif" font-size="10.00">BVH_model.h</text>
</a>
</g>
</g>
<!-- Node3&#45;&gt;Node4 -->
<g id="edge3" class="edge"><title>Node3&#45;&gt;Node4</title>
<path fill="none" stroke="midnightblue" d="M150.265,-227.144C142.599,-217.736 133.367,-206.405 127.131,-198.751"/>
<polygon fill="midnightblue" stroke="midnightblue" points="147.704,-229.541 156.734,-235.083 153.131,-225.12 147.704,-229.541"/>
</g>
<!-- Node3&#45;&gt;Node8 -->
<g id="edge17" class="edge"><title>Node3&#45;&gt;Node8</title>
<path fill="none" stroke="midnightblue" d="M181.911,-228.842C198.673,-215.017 224.705,-194.45 249,-179 275.114,-162.393 307.298,-146.461 327.236,-137.077"/>
<polygon fill="midnightblue" stroke="midnightblue" points="179.49,-226.303 174.049,-235.394 183.972,-231.681 179.49,-226.303"/>
</g>
<!-- Node5 -->
<g id="node5" class="node"><title>Node5</title>
<g id="a_node5"><a xlink:href="a00123.html" target="_top" xlink:title="BVH_utility.h">
<polygon fill="white" stroke="black" points="0,-118 0,-137 74,-137 74,-118 0,-118"/>
<text text-anchor="middle" x="37" y="-125" font-family="Helvetica,sans-Serif" font-size="10.00">BVH_utility.h</text>
</a>
</g>
</g>
<!-- Node4&#45;&gt;Node5 -->
<g id="edge4" class="edge"><title>Node4&#45;&gt;Node5</title>
<path fill="none" stroke="midnightblue" d="M99.9303,-173.613C83.967,-162.169 62.1734,-146.546 48.8698,-137.009"/>
<polygon fill="midnightblue" stroke="midnightblue" points="97.9415,-176.493 108.108,-179.475 102.02,-170.804 97.9415,-176.493"/>
</g>
<!-- Node4&#45;&gt;Node8 -->
<g id="edge7" class="edge"><title>Node4&#45;&gt;Node8</title>
<path fill="none" stroke="midnightblue" d="M162.178,-176.896C206.072,-165.34 273.85,-147.495 313.68,-137.009"/>
<polygon fill="midnightblue" stroke="midnightblue" points="161.16,-173.544 152.38,-179.475 162.942,-180.314 161.16,-173.544"/>
</g>
<!-- Node11 -->
<g id="node11" class="node"><title>Node11</title>
<g id="a_node11"><a xlink:href="a00115.html" target="_top" xlink:title="assimp.h">
<polygon fill="white" stroke="black" points="92,-118 92,-137 148,-137 148,-118 92,-118"/>
<text text-anchor="middle" x="120" y="-125" font-family="Helvetica,sans-Serif" font-size="10.00">assimp.h</text>
</a>
</g>
</g>
<!-- Node4&#45;&gt;Node11 -->
<g id="edge12" class="edge"><title>Node4&#45;&gt;Node11</title>
<path fill="none" stroke="midnightblue" d="M120,-169.317C120,-158.496 120,-145.398 120,-137.009"/>
<polygon fill="midnightblue" stroke="midnightblue" points="116.5,-169.475 120,-179.475 123.5,-169.475 116.5,-169.475"/>
</g>
<!-- Node12 -->
<g id="node12" class="node"><title>Node12</title>
<g id="a_node12"><a xlink:href="a00137.html" target="_top" xlink:title="geometric_shape_to\l_BVH_model.h">
<polygon fill="white" stroke="black" points="166,-112.5 166,-142.5 270,-142.5 270,-112.5 166,-112.5"/>
<text text-anchor="start" x="174" y="-130.5" font-family="Helvetica,sans-Serif" font-size="10.00">geometric_shape_to</text>
<text text-anchor="middle" x="218" y="-119.5" font-family="Helvetica,sans-Serif" font-size="10.00">_BVH_model.h</text>
</a>
</g>
</g>
<!-- Node4&#45;&gt;Node12 -->
<g id="edge13" class="edge"><title>Node4&#45;&gt;Node12</title>
<path fill="none" stroke="midnightblue" d="M142.604,-174.276C158.287,-164.754 179.114,-152.11 194.903,-142.523"/>
<polygon fill="midnightblue" stroke="midnightblue" points="140.772,-171.294 134.041,-179.475 144.405,-177.277 140.772,-171.294"/>
</g>
<!-- Node13 -->
<g id="node13" class="node"><title>Node13</title>
<g id="a_node13"><a xlink:href="a00158.html" target="_top" xlink:title="traversal_node_bvh\l_shape.h">
<polygon fill="white" stroke="black" points="421.5,-112.5 421.5,-142.5 522.5,-142.5 522.5,-112.5 421.5,-112.5"/>
<text text-anchor="start" x="429.5" y="-130.5" font-family="Helvetica,sans-Serif" font-size="10.00">traversal_node_bvh</text>
<text text-anchor="middle" x="472" y="-119.5" font-family="Helvetica,sans-Serif" font-size="10.00">_shape.h</text>
</a>
</g>
</g>
<!-- Node4&#45;&gt;Node13 -->
<g id="edge14" class="edge"><title>Node4&#45;&gt;Node13</title>
<path fill="none" stroke="midnightblue" d="M168.928,-181.742C227.107,-174.005 327.028,-159.784 412,-143 415.049,-142.398 418.177,-141.746 421.327,-141.063"/>
<polygon fill="midnightblue" stroke="midnightblue" points="168.369,-178.285 158.913,-183.064 169.285,-185.225 168.369,-178.285"/>
</g>
<!-- Node14 -->
<g id="node14" class="node"><title>Node14</title>
<g id="a_node14"><a xlink:href="a00160.html" target="_top" xlink:title="traversal_node_octree.h">
<polygon fill="white" stroke="black" points="856.5,-118 856.5,-137 977.5,-137 977.5,-118 856.5,-118"/>
<text text-anchor="middle" x="917" y="-125" font-family="Helvetica,sans-Serif" font-size="10.00">traversal_node_octree.h</text>
</a>
</g>
</g>
<!-- Node4&#45;&gt;Node14 -->
<g id="edge16" class="edge"><title>Node4&#45;&gt;Node14</title>
<path fill="none" stroke="midnightblue" d="M169.034,-184.339C307.94,-173.969 703.859,-144.412 856.218,-133.038"/>
<polygon fill="midnightblue" stroke="midnightblue" points="168.422,-180.875 158.71,-185.11 168.943,-187.856 168.422,-180.875"/>
</g>
<!-- Node6 -->
<g id="node6" class="node"><title>Node6</title>
<g id="a_node6"><a xlink:href="a00161.html" target="_top" xlink:title="traversal_node_setup.h">
<polygon fill="white" stroke="black" points="413,-56.5 413,-75.5 531,-75.5 531,-56.5 413,-56.5"/>
<text text-anchor="middle" x="472" y="-63.5" font-family="Helvetica,sans-Serif" font-size="10.00">traversal_node_setup.h</text>
</a>
</g>
</g>
<!-- Node5&#45;&gt;Node6 -->
<g id="edge5" class="edge"><title>Node5&#45;&gt;Node6</title>
<path fill="none" stroke="midnightblue" d="M70.9387,-115.008C74.9741,-113.878 79.059,-112.841 83,-112 198.356,-87.3808 336.028,-75.4626 412.781,-70.3378"/>
<polygon fill="midnightblue" stroke="midnightblue" points="69.695,-111.727 61.1197,-117.949 71.7035,-118.433 69.695,-111.727"/>
</g>
<!-- Node7 -->
<g id="node7" class="node"><title>Node7</title>
<g id="a_node7"><a xlink:href="a00131.html" target="_top" xlink:title="details.h">
<polygon fill="white" stroke="black" points="667.5,-0.5 667.5,-19.5 720.5,-19.5 720.5,-0.5 667.5,-0.5"/>
<text text-anchor="middle" x="694" y="-7.5" font-family="Helvetica,sans-Serif" font-size="10.00">details.h</text>
</a>
</g>
</g>
<!-- Node6&#45;&gt;Node7 -->
<g id="edge6" class="edge"><title>Node6&#45;&gt;Node7</title>
<path fill="none" stroke="midnightblue" d="M517.003,-54.0534C562.142,-43.0735 630.145,-26.5322 667.349,-17.4826"/>
<polygon fill="midnightblue" stroke="midnightblue" points="516.066,-50.6791 507.177,-56.4435 517.72,-57.4808 516.066,-50.6791"/>
</g>
<!-- Node8&#45;&gt;Node6 -->
<g id="edge10" class="edge"><title>Node8&#45;&gt;Node6</title>
<path fill="none" stroke="midnightblue" d="M373.16,-113.674C397.61,-102.129 432.85,-85.4875 453.981,-75.5091"/>
<polygon fill="midnightblue" stroke="midnightblue" points="371.601,-110.54 364.053,-117.975 374.59,-116.87 371.601,-110.54"/>
</g>
<!-- Node9 -->
<g id="node9" class="node"><title>Node9</title>
<g id="a_node9"><a xlink:href="a00127.html" target="_top" xlink:title="collision_node.h">
<polygon fill="white" stroke="black" points="722,-56.5 722,-75.5 808,-75.5 808,-56.5 722,-56.5"/>
<text text-anchor="middle" x="765" y="-63.5" font-family="Helvetica,sans-Serif" font-size="10.00">collision_node.h</text>
</a>
</g>
</g>
<!-- Node8&#45;&gt;Node9 -->
<g id="edge8" class="edge"><title>Node8&#45;&gt;Node9</title>
<path fill="none" stroke="midnightblue" d="M392.367,-115.766C398.94,-114.405 405.628,-113.104 412,-112 523.095,-92.755 655.192,-78.0795 721.887,-71.2391"/>
<polygon fill="midnightblue" stroke="midnightblue" points="391.245,-112.427 382.196,-117.937 392.706,-119.273 391.245,-112.427"/>
</g>
<!-- Node10 -->
<g id="node10" class="node"><title>Node10</title>
<g id="a_node10"><a xlink:href="a00163.html" target="_top" xlink:title="traversal_recurse.h">
<polygon fill="white" stroke="black" points="960,-56.5 960,-75.5 1060,-75.5 1060,-56.5 960,-56.5"/>
<text text-anchor="middle" x="1010" y="-63.5" font-family="Helvetica,sans-Serif" font-size="10.00">traversal_recurse.h</text>
</a>
</g>
</g>
<!-- Node8&#45;&gt;Node10 -->
<g id="edge11" class="edge"><title>Node8&#45;&gt;Node10</title>
<path fill="none" stroke="midnightblue" d="M390.648,-115.798C397.76,-114.352 405.059,-113.018 412,-112 517.328,-96.5458 835.978,-77.0664 959.922,-69.8544"/>
<polygon fill="midnightblue" stroke="midnightblue" points="389.479,-112.469 380.427,-117.974 390.936,-119.315 389.479,-112.469"/>
</g>
<!-- Node9&#45;&gt;Node7 -->
<g id="edge9" class="edge"><title>Node9&#45;&gt;Node7</title>
<path fill="none" stroke="midnightblue" d="M745.41,-50.1008C732.632,-40.3824 716.387,-28.0269 705.615,-19.8339"/>
<polygon fill="midnightblue" stroke="midnightblue" points="743.514,-53.0561 753.593,-56.324 747.752,-47.4844 743.514,-53.0561"/>
</g>
<!-- Node13&#45;&gt;Node6 -->
<g id="edge15" class="edge"><title>Node13&#45;&gt;Node6</title>
<path fill="none" stroke="midnightblue" d="M472,-102.289C472,-92.857 472,-82.6548 472,-75.6578"/>
<polygon fill="midnightblue" stroke="midnightblue" points="468.5,-102.399 472,-112.399 475.5,-102.399 468.5,-102.399"/>
</g>
<!-- Node15&#45;&gt;Node13 -->
<g id="edge20" class="edge"><title>Node15&#45;&gt;Node13</title>
<path fill="none" stroke="midnightblue" d="M472,-169.235C472,-160.586 472,-150.497 472,-142.523"/>
<polygon fill="midnightblue" stroke="midnightblue" points="468.5,-169.475 472,-179.475 475.5,-169.475 468.5,-169.475"/>
</g>
<!-- Node15&#45;&gt;Node14 -->
<g id="edge21" class="edge"><title>Node15&#45;&gt;Node14</title>
<path fill="none" stroke="midnightblue" d="M545.81,-178.131C632.71,-166.512 775.408,-147.432 856.218,-136.627"/>
<polygon fill="midnightblue" stroke="midnightblue" points="545.206,-174.681 535.758,-179.475 546.133,-181.619 545.206,-174.681"/>
</g>
<!-- Node15&#45;&gt;Node16 -->
<g id="edge22" class="edge"><title>Node15&#45;&gt;Node16</title>
<path fill="none" stroke="midnightblue" d="M499.902,-175.327C525.333,-163.776 562.199,-147.032 584.266,-137.009"/>
<polygon fill="midnightblue" stroke="midnightblue" points="498.427,-172.153 490.769,-179.475 501.321,-178.526 498.427,-172.153"/>
</g>
<!-- Node16&#45;&gt;Node6 -->
<g id="edge23" class="edge"><title>Node16&#45;&gt;Node6</title>
<path fill="none" stroke="midnightblue" d="M575.098,-113.827C549.667,-102.276 512.801,-85.5316 490.734,-75.5091"/>
<polygon fill="midnightblue" stroke="midnightblue" points="573.679,-117.026 584.231,-117.975 576.573,-110.653 573.679,-117.026"/>
</g>
<!-- Node17&#45;&gt;Node4 -->
<g id="edge26" class="edge"><title>Node17&#45;&gt;Node4</title>
<path fill="none" stroke="midnightblue" d="M810.73,-356.925C704.369,-357.535 467.084,-353.459 273,-311 203.076,-295.703 163.776,-313.122 122,-255 109.876,-238.132 114.147,-211.932 117.508,-198.53"/>
<polygon fill="midnightblue" stroke="midnightblue" points="810.939,-360.423 820.913,-356.849 810.888,-353.423 810.939,-360.423"/>
</g>
<!-- Node18 -->
<g id="node18" class="node"><title>Node18</title>
<g id="a_node18"><a xlink:href="a00124.html" target="_top" xlink:title="collision.h">
<polygon fill="white" stroke="black" points="1293,-179.5 1293,-198.5 1353,-198.5 1353,-179.5 1293,-179.5"/>
<text text-anchor="middle" x="1323" y="-186.5" font-family="Helvetica,sans-Serif" font-size="10.00">collision.h</text>
</a>
</g>
</g>
<!-- Node17&#45;&gt;Node18 -->
<g id="edge27" class="edge"><title>Node17&#45;&gt;Node18</title>
<path fill="none" stroke="midnightblue" d="M887.274,-341.702C928.658,-312.763 1021.98,-248.824 1058,-235 1068.93,-230.804 1225.68,-205.517 1292.83,-194.797"/>
<polygon fill="midnightblue" stroke="midnightblue" points="885.223,-338.866 879.046,-347.474 889.243,-344.596 885.223,-338.866"/>
</g>
<!-- Node19 -->
<g id="node19" class="node"><title>Node19</title>
<g id="a_node19"><a xlink:href="a00125.html" target="_top" xlink:title="collision_data.h">
<polygon fill="white" stroke="black" points="922,-235.5 922,-254.5 1006,-254.5 1006,-235.5 922,-235.5"/>
<text text-anchor="middle" x="964" y="-242.5" font-family="Helvetica,sans-Serif" font-size="10.00">collision_data.h</text>
</a>
</g>
</g>
<!-- Node17&#45;&gt;Node19 -->
<g id="edge28" class="edge"><title>Node17&#45;&gt;Node19</title>
<path fill="none" stroke="midnightblue" d="M881.765,-340.012C889.615,-331.457 899.395,-320.711 908,-311 925.583,-291.155 945.788,-267.482 956.469,-254.899"/>
<polygon fill="midnightblue" stroke="midnightblue" points="879.128,-337.709 874.931,-347.437 884.279,-342.449 879.128,-337.709"/>
</g>
<!-- Node20 -->
<g id="node20" class="node"><title>Node20</title>
<g id="a_node20"><a xlink:href="a00126.html" target="_top" xlink:title="collision_func_matrix.h">
<polygon fill="white" stroke="black" points="1371,-179.5 1371,-198.5 1487,-198.5 1487,-179.5 1371,-179.5"/>
<text text-anchor="middle" x="1429" y="-186.5" font-family="Helvetica,sans-Serif" font-size="10.00">collision_func_matrix.h</text>
</a>
</g>
</g>
<!-- Node17&#45;&gt;Node20 -->
<g id="edge45" class="edge"><title>Node17&#45;&gt;Node20</title>
<path fill="none" stroke="midnightblue" d="M905.718,-344.564C1012.01,-313.167 1306.65,-226.139 1400.14,-198.524"/>
<polygon fill="midnightblue" stroke="midnightblue" points="904.631,-341.235 896.032,-347.425 906.614,-347.948 904.631,-341.235"/>
</g>
<!-- Node22 -->
<g id="node22" class="node"><title>Node22</title>
<g id="a_node22"><a xlink:href="a00132.html" target="_top" xlink:title="distance.h">
<polygon fill="white" stroke="black" points="655,-179.5 655,-198.5 717,-198.5 717,-179.5 655,-179.5"/>
<text text-anchor="middle" x="686" y="-186.5" font-family="Helvetica,sans-Serif" font-size="10.00">distance.h</text>
</a>
</g>
</g>
<!-- Node17&#45;&gt;Node22 -->
<g id="edge58" class="edge"><title>Node17&#45;&gt;Node22</title>
<path fill="none" stroke="midnightblue" d="M811.106,-348.073C767.769,-340.71 712.689,-328.274 698,-311 669.966,-278.033 679.135,-220.273 683.901,-198.568"/>
<polygon fill="midnightblue" stroke="midnightblue" points="810.559,-351.53 820.995,-349.701 811.697,-344.623 810.559,-351.53"/>
</g>
<!-- Node23 -->
<g id="node23" class="node"><title>Node23</title>
<g id="a_node23"><a xlink:href="a00133.html" target="_top" xlink:title="distance_func_matrix.h">
<polygon fill="white" stroke="black" points="735,-179.5 735,-198.5 853,-198.5 853,-179.5 735,-179.5"/>
<text text-anchor="middle" x="794" y="-186.5" font-family="Helvetica,sans-Serif" font-size="10.00">distance_func_matrix.h</text>
</a>
</g>
</g>
<!-- Node17&#45;&gt;Node23 -->
<g id="edge59" class="edge"><title>Node17&#45;&gt;Node23</title>
<path fill="none" stroke="midnightblue" d="M873.181,-337.478C876.617,-324.201 879.247,-306.074 874,-291 860.029,-250.861 822.729,-214.668 804.425,-198.674"/>
<polygon fill="midnightblue" stroke="midnightblue" points="869.751,-336.734 870.26,-347.317 876.461,-338.726 869.751,-336.734"/>
</g>
<!-- Node25 -->
<g id="node25" class="node"><title>Node25</title>
<g id="a_node25"><a xlink:href="a00138.html" target="_top" xlink:title="geometric_shapes.h">
<polygon fill="white" stroke="black" points="387,-291.5 387,-310.5 491,-310.5 491,-291.5 387,-291.5"/>
<text text-anchor="middle" x="439" y="-298.5" font-family="Helvetica,sans-Serif" font-size="10.00">geometric_shapes.h</text>
</a>
</g>
</g>
<!-- Node17&#45;&gt;Node25 -->
<g id="edge46" class="edge"><title>Node17&#45;&gt;Node25</title>
<path fill="none" stroke="midnightblue" d="M810.749,-348.903C727.422,-338.39 572.337,-318.823 491.33,-308.602"/>
<polygon fill="midnightblue" stroke="midnightblue" points="810.43,-352.39 820.79,-350.17 811.307,-345.445 810.43,-352.39"/>
</g>
<!-- Node28 -->
<g id="node28" class="node"><title>Node28</title>
<g id="a_node28"><a xlink:href="a00129.html" target="_top" xlink:title="collision_utility.h">
<polygon fill="white" stroke="black" points="707.5,-291.5 707.5,-310.5 796.5,-310.5 796.5,-291.5 707.5,-291.5"/>
<text text-anchor="middle" x="752" y="-298.5" font-family="Helvetica,sans-Serif" font-size="10.00">collision_utility.h</text>
</a>
</g>
</g>
<!-- Node17&#45;&gt;Node28 -->
<g id="edge57" class="edge"><title>Node17&#45;&gt;Node28</title>
<path fill="none" stroke="midnightblue" d="M839.519,-343.096C818.034,-333.007 788.778,-319.27 770.137,-310.516"/>
<polygon fill="midnightblue" stroke="midnightblue" points="838.238,-346.361 848.778,-347.444 841.214,-340.025 838.238,-346.361"/>
</g>
<!-- Node29 -->
<g id="node29" class="node"><title>Node29</title>
<g id="a_node29"><a xlink:href="a00145.html" target="_top" xlink:title="loader.h">
<polygon fill="white" stroke="black" points="814.5,-291.5 814.5,-310.5 865.5,-310.5 865.5,-291.5 814.5,-291.5"/>
<text text-anchor="middle" x="840" y="-298.5" font-family="Helvetica,sans-Serif" font-size="10.00">loader.h</text>
</a>
</g>
</g>
<!-- Node17&#45;&gt;Node29 -->
<g id="edge60" class="edge"><title>Node17&#45;&gt;Node29</title>
<path fill="none" stroke="midnightblue" d="M857.991,-337.983C853.408,-328.817 848.046,-318.092 844.376,-310.751"/>
<polygon fill="midnightblue" stroke="midnightblue" points="854.939,-339.704 862.541,-347.083 861.2,-336.573 854.939,-339.704"/>
</g>
<!-- Node17&#45;&gt;Node30 -->
<g id="edge61" class="edge"><title>Node17&#45;&gt;Node30</title>
<path fill="none" stroke="midnightblue" d="M919.836,-345.431C964.229,-336.481 1029.32,-323.198 1086,-311 1090.45,-310.042 1095.18,-309 1099.77,-307.976"/>
<polygon fill="midnightblue" stroke="midnightblue" points="918.965,-342.036 909.853,-347.44 920.347,-348.898 918.965,-342.036"/>
</g>
<!-- Node19&#45;&gt;Node8 -->
<g id="edge38" class="edge"><title>Node19&#45;&gt;Node8</title>
<path fill="none" stroke="midnightblue" d="M942.482,-229.913C913.885,-211.248 866.424,-180.484 862,-179 671.775,-115.201 610.444,-172.595 412,-143 401.789,-141.477 390.799,-139.288 380.773,-137.07"/>
<polygon fill="midnightblue" stroke="midnightblue" points="940.739,-232.956 951.025,-235.496 944.568,-227.096 940.739,-232.956"/>
</g>
<!-- Node19&#45;&gt;Node13 -->
<g id="edge41" class="edge"><title>Node19&#45;&gt;Node13</title>
<path fill="none" stroke="midnightblue" d="M951.612,-227.204C939.182,-211.769 918.541,-189.713 895,-179 747.034,-111.664 691.23,-170.469 531,-143 528.297,-142.537 525.534,-142.018 522.752,-141.46"/>
<polygon fill="midnightblue" stroke="midnightblue" points="949.056,-229.62 957.942,-235.391 954.594,-225.338 949.056,-229.62"/>
</g>
<!-- Node19&#45;&gt;Node14 -->
<g id="edge42" class="edge"><title>Node19&#45;&gt;Node14</title>
<path fill="none" stroke="midnightblue" d="M1016.18,-235.611C1017.47,-235.405 1018.74,-235.201 1020,-235 1122.18,-218.651 1313.39,-257.528 1246,-179 1212.13,-139.533 1063.24,-130.6 977.817,-128.775"/>
<polygon fill="midnightblue" stroke="midnightblue" points="1015.52,-232.173 1006.2,-237.212 1016.62,-239.085 1015.52,-232.173"/>
</g>
<!-- Node19&#45;&gt;Node16 -->
<g id="edge43" class="edge"><title>Node19&#45;&gt;Node16</title>
<path fill="none" stroke="midnightblue" d="M960.174,-225.449C956.076,-210.487 948.023,-190.157 933,-179 891.763,-148.373 749.43,-135.948 665.763,-131.202"/>
<polygon fill="midnightblue" stroke="midnightblue" points="956.772,-226.276 962.502,-235.188 963.581,-224.648 956.772,-226.276"/>
</g>
<!-- Node19&#45;&gt;Node18 -->
<g id="edge29" class="edge"><title>Node19&#45;&gt;Node18</title>
<path fill="none" stroke="midnightblue" d="M1016.18,-235.577C1017.46,-235.381 1018.74,-235.189 1020,-235 1134.93,-217.778 1164.46,-218.655 1279,-199 1283.46,-198.235 1288.15,-197.355 1292.75,-196.451"/>
<polygon fill="midnightblue" stroke="midnightblue" points="1015.53,-232.136 1006.18,-237.122 1016.6,-239.054 1015.53,-232.136"/>
</g>
<!-- Node19&#45;&gt;Node20 -->
<g id="edge30" class="edge"><title>Node19&#45;&gt;Node20</title>
<path fill="none" stroke="midnightblue" d="M1016.43,-238.426C1092.59,-230.248 1238.25,-214.306 1362,-199 1364.91,-198.64 1367.89,-198.264 1370.9,-197.88"/>
<polygon fill="midnightblue" stroke="midnightblue" points="1015.72,-234.981 1006.15,-239.527 1016.47,-241.941 1015.72,-234.981"/>
</g>
<!-- Node21 -->
<g id="node21" class="node"><title>Node21</title>
<g id="a_node21"><a xlink:href="a00157.html" target="_top" xlink:title="traversal_node_base.h">
<polygon fill="white" stroke="black" points="1121.5,-179.5 1121.5,-198.5 1236.5,-198.5 1236.5,-179.5 1121.5,-179.5"/>
<text text-anchor="middle" x="1179" y="-186.5" font-family="Helvetica,sans-Serif" font-size="10.00">traversal_node_base.h</text>
</a>
</g>
</g>
<!-- Node19&#45;&gt;Node21 -->
<g id="edge31" class="edge"><title>Node19&#45;&gt;Node21</title>
<path fill="none" stroke="midnightblue" d="M1007.96,-232.959C1048.57,-222.76 1108.04,-207.822 1145.09,-198.516"/>
<polygon fill="midnightblue" stroke="midnightblue" points="1006.91,-229.613 998.067,-235.444 1008.62,-236.402 1006.91,-229.613"/>
</g>
<!-- Node19&#45;&gt;Node22 -->
<g id="edge39" class="edge"><title>Node19&#45;&gt;Node22</title>
<path fill="none" stroke="midnightblue" d="M911.877,-234.678C863.59,-225.916 789.817,-212.209 726,-199 723.212,-198.423 720.318,-197.806 717.421,-197.177"/>
<polygon fill="midnightblue" stroke="midnightblue" points="911.318,-238.134 921.781,-236.471 912.565,-231.246 911.318,-238.134"/>
</g>
<!-- Node19&#45;&gt;Node23 -->
<g id="edge40" class="edge"><title>Node19&#45;&gt;Node23</title>
<path fill="none" stroke="midnightblue" d="M927.181,-232.304C895.148,-222.129 849.485,-207.625 820.811,-198.516"/>
<polygon fill="midnightblue" stroke="midnightblue" points="926.473,-235.752 937.063,-235.444 928.592,-229.08 926.473,-235.752"/>
</g>
<!-- Node24 -->
<g id="node24" class="node"><title>Node24</title>
<g id="a_node24"><a xlink:href="a00134.html" target="_top" xlink:title="distance_func_matrix.h">
<polygon fill="white" stroke="black" points="985,-179.5 985,-198.5 1103,-198.5 1103,-179.5 985,-179.5"/>
<text text-anchor="middle" x="1044" y="-186.5" font-family="Helvetica,sans-Serif" font-size="10.00">distance_func_matrix.h</text>
</a>
</g>
</g>
<!-- Node19&#45;&gt;Node24 -->
<g id="edge44" class="edge"><title>Node19&#45;&gt;Node24</title>
<path fill="none" stroke="midnightblue" d="M985.301,-229.622C999.915,-219.757 1018.83,-206.992 1031.18,-198.655"/>
<polygon fill="midnightblue" stroke="midnightblue" points="983.184,-226.828 976.853,-235.324 987.1,-232.63 983.184,-226.828"/>
</g>
<!-- Node21&#45;&gt;Node8 -->
<g id="edge33" class="edge"><title>Node21&#45;&gt;Node8</title>
<path fill="none" stroke="midnightblue" d="M1111.08,-179.007C800.04,-150.968 717.42,-184.118 412,-143 401.42,-141.576 390.022,-139.332 379.724,-137.031"/>
<polygon fill="midnightblue" stroke="midnightblue" points="1111.01,-182.515 1121.29,-179.942 1111.65,-175.545 1111.01,-182.515"/>
</g>
<!-- Node21&#45;&gt;Node9 -->
<g id="edge32" class="edge"><title>Node21&#45;&gt;Node9</title>
<path fill="none" stroke="midnightblue" d="M1151.33,-175.329C1114.33,-158.8 1046.38,-129.887 986,-112 925.369,-94.0385 853.283,-80.8301 808.325,-73.5261"/>
<polygon fill="midnightblue" stroke="midnightblue" points="1149.92,-178.535 1160.48,-179.447 1152.8,-172.152 1149.92,-178.535"/>
</g>
<!-- Node21&#45;&gt;Node10 -->
<g id="edge37" class="edge"><title>Node21&#45;&gt;Node10</title>
<path fill="none" stroke="midnightblue" d="M1161.88,-172.428C1143.89,-156.41 1114.44,-131.165 1087,-112 1066.94,-97.9921 1042.31,-84.1338 1026.4,-75.5763"/>
<polygon fill="midnightblue" stroke="midnightblue" points="1159.96,-175.403 1169.73,-179.482 1164.63,-170.196 1159.96,-175.403"/>
</g>
<!-- Node21&#45;&gt;Node13 -->
<g id="edge34" class="edge"><title>Node21&#45;&gt;Node13</title>
<path fill="none" stroke="midnightblue" d="M1111.22,-179.008C852.766,-154.469 783.51,-181.534 531,-143 528.289,-142.586 525.52,-142.107 522.733,-141.58"/>
<polygon fill="midnightblue" stroke="midnightblue" points="1111,-182.502 1121.29,-179.98 1111.67,-175.535 1111,-182.502"/>
</g>
<!-- Node21&#45;&gt;Node14 -->
<g id="edge35" class="edge"><title>Node21&#45;&gt;Node14</title>
<path fill="none" stroke="midnightblue" d="M1131.7,-177.258C1080.88,-165.716 1001.13,-147.606 954.469,-137.009"/>
<polygon fill="midnightblue" stroke="midnightblue" points="1130.93,-180.674 1141.46,-179.475 1132.49,-173.847 1130.93,-180.674"/>
</g>
<!-- Node21&#45;&gt;Node16 -->
<g id="edge36" class="edge"><title>Node21&#45;&gt;Node16</title>
<path fill="none" stroke="midnightblue" d="M1111.3,-178.956C944.102,-159.576 760.051,-142.474 665.764,-134.022"/>
<polygon fill="midnightblue" stroke="midnightblue" points="1110.93,-182.436 1121.27,-180.116 1111.74,-175.483 1110.93,-182.436"/>
</g>
<!-- Node25&#45;&gt;Node8 -->
<g id="edge47" class="edge"><title>Node25&#45;&gt;Node8</title>
<path fill="none" stroke="midnightblue" d="M419.901,-284.799C410.768,-276.734 400.269,-266.19 393,-255 366.965,-214.919 352.578,-158.388 347.807,-137.076"/>
<polygon fill="midnightblue" stroke="midnightblue" points="417.877,-287.671 427.772,-291.456 422.397,-282.326 417.877,-287.671"/>
</g>
<!-- Node25&#45;&gt;Node12 -->
<g id="edge54" class="edge"><title>Node25&#45;&gt;Node12</title>
<path fill="none" stroke="midnightblue" d="M419.214,-285.335C407.477,-276.591 392.333,-265.236 379,-255 326.555,-214.738 265.328,-166.203 235.766,-142.671"/>
<polygon fill="midnightblue" stroke="midnightblue" points="417.326,-288.292 427.44,-291.45 421.502,-282.675 417.326,-288.292"/>
</g>
<!-- Node25&#45;&gt;Node13 -->
<g id="edge56" class="edge"><title>Node25&#45;&gt;Node13</title>
<path fill="none" stroke="midnightblue" d="M424.838,-283.653C405.97,-259.772 377.048,-214.348 396,-179 404.758,-162.665 421.386,-150.713 436.86,-142.549"/>
<polygon fill="midnightblue" stroke="midnightblue" points="422.17,-285.92 431.227,-291.418 427.576,-281.472 422.17,-285.92"/>
</g>
<!-- Node25&#45;&gt;Node15 -->
<g id="edge55" class="edge"><title>Node25&#45;&gt;Node15</title>
<path fill="none" stroke="midnightblue" d="M444.498,-281.674C451.713,-257.625 464.084,-216.388 469.423,-198.591"/>
<polygon fill="midnightblue" stroke="midnightblue" points="441.111,-280.784 441.589,-291.368 447.815,-282.796 441.111,-280.784"/>
</g>
<!-- Node26 -->
<g id="node26" class="node"><title>Node26</title>
<g id="a_node26"><a xlink:href="a00140.html" target="_top" xlink:title="gjk.h">
<polygon fill="white" stroke="black" points="534,-235.5 534,-254.5 572,-254.5 572,-235.5 534,-235.5"/>
<text text-anchor="middle" x="553" y="-242.5" font-family="Helvetica,sans-Serif" font-size="10.00">gjk.h</text>
</a>
</g>
</g>
<!-- Node25&#45;&gt;Node26 -->
<g id="edge48" class="edge"><title>Node25&#45;&gt;Node26</title>
<path fill="none" stroke="midnightblue" d="M466.242,-287.096C487.54,-277.007 516.542,-263.27 535.021,-254.516"/>
<polygon fill="midnightblue" stroke="midnightblue" points="464.603,-284 457.064,-291.444 467.599,-290.326 464.603,-284"/>
</g>
<!-- Node27 -->
<g id="node27" class="node"><title>Node27</title>
<g id="a_node27"><a xlink:href="a00147.html" target="_top" xlink:title="narrowphase.h">
<polygon fill="white" stroke="black" points="557,-179.5 557,-198.5 637,-198.5 637,-179.5 557,-179.5"/>
<text text-anchor="middle" x="597" y="-186.5" font-family="Helvetica,sans-Serif" font-size="10.00">narrowphase.h</text>
</a>
</g>
</g>
<!-- Node26&#45;&gt;Node27 -->
<g id="edge49" class="edge"><title>Node26&#45;&gt;Node27</title>
<path fill="none" stroke="midnightblue" d="M566.735,-227.144C574.401,-217.736 583.633,-206.405 589.869,-198.751"/>
<polygon fill="midnightblue" stroke="midnightblue" points="563.869,-225.12 560.266,-235.083 569.296,-229.541 563.869,-225.12"/>
</g>
<!-- Node27&#45;&gt;Node7 -->
<g id="edge53" class="edge"><title>Node27&#45;&gt;Node7</title>
<path fill="none" stroke="midnightblue" d="M632.532,-175.359C647.656,-168.18 664.065,-157.643 674,-143 700.808,-103.489 697.422,-42.0931 695.077,-19.6176"/>
<polygon fill="midnightblue" stroke="midnightblue" points="631.092,-172.168 623.351,-179.401 633.913,-178.575 631.092,-172.168"/>
</g>
<!-- Node27&#45;&gt;Node8 -->
<g id="edge50" class="edge"><title>Node27&#45;&gt;Node8</title>
<path fill="none" stroke="midnightblue" d="M551.077,-177.114C502.359,-165.565 426.411,-147.561 381.895,-137.009"/>
<polygon fill="midnightblue" stroke="midnightblue" points="550.5,-180.574 561.038,-179.475 552.115,-173.763 550.5,-180.574"/>
</g>
<!-- Node27&#45;&gt;Node14 -->
<g id="edge51" class="edge"><title>Node27&#45;&gt;Node14</title>
<path fill="none" stroke="midnightblue" d="M647.064,-178.691C708.523,-167.264 811.882,-148.045 871.283,-137.001"/>
<polygon fill="midnightblue" stroke="midnightblue" points="646.396,-175.255 637.204,-180.525 647.676,-182.137 646.396,-175.255"/>
</g>
<!-- Node27&#45;&gt;Node16 -->
<g id="edge52" class="edge"><title>Node27&#45;&gt;Node16</title>
<path fill="none" stroke="midnightblue" d="M598.884,-169.317C599.975,-158.496 601.296,-145.398 602.142,-137.009"/>
<polygon fill="midnightblue" stroke="midnightblue" points="595.381,-169.174 597.86,-179.475 602.345,-169.877 595.381,-169.174"/>
</g>
<!-- Node30&#45;&gt;Node14 -->
<g id="edge62" class="edge"><title>Node30&#45;&gt;Node14</title>
<path fill="none" stroke="midnightblue" d="M1162.23,-299.885C1272.89,-298.401 1593.21,-285.062 1496,-179 1461.46,-141.32 1118.87,-131.651 977.509,-129.256"/>
<polygon fill="midnightblue" stroke="midnightblue" points="1162.15,-296.385 1152.19,-299.994 1162.23,-303.385 1162.15,-296.385"/>
</g>
</g>
</svg>
