<?xml version="1.0" encoding="UTF-8" standalone="no"?>
<!DOCTYPE svg PUBLIC "-//W3C//DTD SVG 1.1//EN"
 "http://www.w3.org/Graphics/SVG/1.1/DTD/svg11.dtd">
<!-- Generated by graphviz version 2.38.0 (20140413.2041)
 -->
<!-- Title: BVH_internal.h Pages: 1 -->
<svg width="767pt" height="319pt"
 viewBox="0.00 0.00 766.50 319.00" xmlns="http://www.w3.org/2000/svg" xmlns:xlink="http://www.w3.org/1999/xlink">
<g id="graph0" class="graph" transform="scale(1 1) rotate(0) translate(4 315)">
<title>BVH_internal.h</title>
<polygon fill="white" stroke="none" points="-4,4 -4,-315 762.5,-315 762.5,4 -4,4"/>
<!-- Node1 -->
<g id="node1" class="node"><title>Node1</title>
<polygon fill="#bfbfbf" stroke="black" points="357.5,-291.5 357.5,-310.5 440.5,-310.5 440.5,-291.5 357.5,-291.5"/>
<text text-anchor="middle" x="399" y="-298.5" font-family="Helvetica,sans-Serif" font-size="10.00">BVH_internal.h</text>
</g>
<!-- Node2 -->
<g id="node2" class="node"><title>Node2</title>
<g id="a_node2"><a xlink:href="a00117.html" target="_top" xlink:title="BV_fitter.h">
<polygon fill="white" stroke="black" points="307.5,-235.5 307.5,-254.5 370.5,-254.5 370.5,-235.5 307.5,-235.5"/>
<text text-anchor="middle" x="339" y="-242.5" font-family="Helvetica,sans-Serif" font-size="10.00">BV_fitter.h</text>
</a>
</g>
</g>
<!-- Node1&#45;&gt;Node2 -->
<g id="edge1" class="edge"><title>Node1&#45;&gt;Node2</title>
<path fill="none" stroke="midnightblue" d="M381.819,-284.537C371.121,-274.909 357.744,-262.869 348.815,-254.834"/>
<polygon fill="midnightblue" stroke="midnightblue" points="379.586,-287.236 389.36,-291.324 384.268,-282.033 379.586,-287.236"/>
</g>
<!-- Node3 -->
<g id="node3" class="node"><title>Node3</title>
<g id="a_node3"><a xlink:href="a00122.html" target="_top" xlink:title="BVH_model.h">
<polygon fill="white" stroke="black" points="360.5,-179.5 360.5,-198.5 437.5,-198.5 437.5,-179.5 360.5,-179.5"/>
<text text-anchor="middle" x="399" y="-186.5" font-family="Helvetica,sans-Serif" font-size="10.00">BVH_model.h</text>
</a>
</g>
</g>
<!-- Node1&#45;&gt;Node3 -->
<g id="edge18" class="edge"><title>Node1&#45;&gt;Node3</title>
<path fill="none" stroke="midnightblue" d="M399,-281.348C399,-257.254 399,-216.308 399,-198.591"/>
<polygon fill="midnightblue" stroke="midnightblue" points="395.5,-281.368 399,-291.368 402.5,-281.369 395.5,-281.368"/>
</g>
<!-- Node14 -->
<g id="node14" class="node"><title>Node14</title>
<g id="a_node14"><a xlink:href="a00119.html" target="_top" xlink:title="BV_splitter.h">
<polygon fill="white" stroke="black" points="427.5,-235.5 427.5,-254.5 500.5,-254.5 500.5,-235.5 427.5,-235.5"/>
<text text-anchor="middle" x="464" y="-242.5" font-family="Helvetica,sans-Serif" font-size="10.00">BV_splitter.h</text>
</a>
</g>
</g>
<!-- Node1&#45;&gt;Node14 -->
<g id="edge16" class="edge"><title>Node1&#45;&gt;Node14</title>
<path fill="none" stroke="midnightblue" d="M417.273,-284.82C428.918,-275.145 443.599,-262.948 453.367,-254.834"/>
<polygon fill="midnightblue" stroke="midnightblue" points="414.899,-282.242 409.443,-291.324 419.372,-287.626 414.899,-282.242"/>
</g>
<!-- Node2&#45;&gt;Node3 -->
<g id="edge2" class="edge"><title>Node2&#45;&gt;Node3</title>
<path fill="none" stroke="midnightblue" d="M356.181,-228.537C366.879,-218.909 380.256,-206.869 389.185,-198.834"/>
<polygon fill="midnightblue" stroke="midnightblue" points="353.732,-226.033 348.64,-235.324 358.414,-231.236 353.732,-226.033"/>
</g>
<!-- Node4 -->
<g id="node4" class="node"><title>Node4</title>
<g id="a_node4"><a xlink:href="a00123.html" target="_top" xlink:title="BVH_utility.h">
<polygon fill="white" stroke="black" points="230,-118 230,-137 304,-137 304,-118 230,-118"/>
<text text-anchor="middle" x="267" y="-125" font-family="Helvetica,sans-Serif" font-size="10.00">BVH_utility.h</text>
</a>
</g>
</g>
<!-- Node3&#45;&gt;Node4 -->
<g id="edge3" class="edge"><title>Node3&#45;&gt;Node4</title>
<path fill="none" stroke="midnightblue" d="M370.885,-175.327C345.26,-163.776 308.112,-147.032 285.877,-137.009"/>
<polygon fill="midnightblue" stroke="midnightblue" points="369.533,-178.556 380.088,-179.475 372.409,-172.175 369.533,-178.556"/>
</g>
<!-- Node7 -->
<g id="node7" class="node"><title>Node7</title>
<g id="a_node7"><a xlink:href="a00159.html" target="_top" xlink:title="traversal_node_bvhs.h">
<polygon fill="white" stroke="black" points="96.5,-118 96.5,-137 211.5,-137 211.5,-118 96.5,-118"/>
<text text-anchor="middle" x="154" y="-125" font-family="Helvetica,sans-Serif" font-size="10.00">traversal_node_bvhs.h</text>
</a>
</g>
</g>
<!-- Node3&#45;&gt;Node7 -->
<g id="edge6" class="edge"><title>Node3&#45;&gt;Node7</title>
<path fill="none" stroke="midnightblue" d="M354.174,-177.114C306.622,-165.565 232.488,-147.561 189.037,-137.009"/>
<polygon fill="midnightblue" stroke="midnightblue" points="353.354,-180.516 363.897,-179.475 355.006,-173.714 353.354,-180.516"/>
</g>
<!-- Node10 -->
<g id="node10" class="node"><title>Node10</title>
<g id="a_node10"><a xlink:href="a00115.html" target="_top" xlink:title="assimp.h">
<polygon fill="white" stroke="black" points="322,-118 322,-137 378,-137 378,-118 322,-118"/>
<text text-anchor="middle" x="350" y="-125" font-family="Helvetica,sans-Serif" font-size="10.00">assimp.h</text>
</a>
</g>
</g>
<!-- Node3&#45;&gt;Node10 -->
<g id="edge11" class="edge"><title>Node3&#45;&gt;Node10</title>
<path fill="none" stroke="midnightblue" d="M385.551,-171.669C376.313,-160.452 364.425,-146.016 357.007,-137.009"/>
<polygon fill="midnightblue" stroke="midnightblue" points="382.921,-173.981 391.979,-179.475 388.324,-169.531 382.921,-173.981"/>
</g>
<!-- Node11 -->
<g id="node11" class="node"><title>Node11</title>
<g id="a_node11"><a xlink:href="a00137.html" target="_top" xlink:title="geometric_shape_to\l_BVH_model.h">
<polygon fill="white" stroke="black" points="396,-112.5 396,-142.5 500,-142.5 500,-112.5 396,-112.5"/>
<text text-anchor="start" x="404" y="-130.5" font-family="Helvetica,sans-Serif" font-size="10.00">geometric_shape_to</text>
<text text-anchor="middle" x="448" y="-119.5" font-family="Helvetica,sans-Serif" font-size="10.00">_BVH_model.h</text>
</a>
</g>
</g>
<!-- Node3&#45;&gt;Node11 -->
<g id="edge12" class="edge"><title>Node3&#45;&gt;Node11</title>
<path fill="none" stroke="midnightblue" d="M412.564,-171.53C420.068,-162.417 429.295,-151.214 436.452,-142.523"/>
<polygon fill="midnightblue" stroke="midnightblue" points="409.676,-169.531 406.021,-179.475 415.079,-173.981 409.676,-169.531"/>
</g>
<!-- Node12 -->
<g id="node12" class="node"><title>Node12</title>
<g id="a_node12"><a xlink:href="a00158.html" target="_top" xlink:title="traversal_node_bvh\l_shape.h">
<polygon fill="white" stroke="black" points="518.5,-112.5 518.5,-142.5 619.5,-142.5 619.5,-112.5 518.5,-112.5"/>
<text text-anchor="start" x="526.5" y="-130.5" font-family="Helvetica,sans-Serif" font-size="10.00">traversal_node_bvh</text>
<text text-anchor="middle" x="569" y="-119.5" font-family="Helvetica,sans-Serif" font-size="10.00">_shape.h</text>
</a>
</g>
</g>
<!-- Node3&#45;&gt;Node12 -->
<g id="edge13" class="edge"><title>Node3&#45;&gt;Node12</title>
<path fill="none" stroke="midnightblue" d="M432.991,-176.103C460.653,-166.422 499.752,-152.737 528.934,-142.523"/>
<polygon fill="midnightblue" stroke="midnightblue" points="431.639,-172.868 423.357,-179.475 433.952,-179.475 431.639,-172.868"/>
</g>
<!-- Node13 -->
<g id="node13" class="node"><title>Node13</title>
<g id="a_node13"><a xlink:href="a00160.html" target="_top" xlink:title="traversal_node_octree.h">
<polygon fill="white" stroke="black" points="637.5,-118 637.5,-137 758.5,-137 758.5,-118 637.5,-118"/>
<text text-anchor="middle" x="698" y="-125" font-family="Helvetica,sans-Serif" font-size="10.00">traversal_node_octree.h</text>
</a>
</g>
</g>
<!-- Node3&#45;&gt;Node13 -->
<g id="edge15" class="edge"><title>Node3&#45;&gt;Node13</title>
<path fill="none" stroke="midnightblue" d="M447.586,-178.602C493.961,-169.596 565.783,-155.557 628,-143 637.489,-141.085 647.694,-138.991 657.298,-137.004"/>
<polygon fill="midnightblue" stroke="midnightblue" points="446.666,-175.215 437.516,-180.556 448,-182.087 446.666,-175.215"/>
</g>
<!-- Node5 -->
<g id="node5" class="node"><title>Node5</title>
<g id="a_node5"><a xlink:href="a00161.html" target="_top" xlink:title="traversal_node_setup.h">
<polygon fill="white" stroke="black" points="222,-56.5 222,-75.5 340,-75.5 340,-56.5 222,-56.5"/>
<text text-anchor="middle" x="281" y="-63.5" font-family="Helvetica,sans-Serif" font-size="10.00">traversal_node_setup.h</text>
</a>
</g>
</g>
<!-- Node4&#45;&gt;Node5 -->
<g id="edge4" class="edge"><title>Node4&#45;&gt;Node5</title>
<path fill="none" stroke="midnightblue" d="M271.316,-108.157C273.877,-97.2724 277.003,-83.9863 278.998,-75.5091"/>
<polygon fill="midnightblue" stroke="midnightblue" points="267.889,-107.439 269.006,-117.975 274.703,-109.043 267.889,-107.439"/>
</g>
<!-- Node6 -->
<g id="node6" class="node"><title>Node6</title>
<g id="a_node6"><a xlink:href="a00131.html" target="_top" xlink:title="details.h">
<polygon fill="white" stroke="black" points="135.5,-0.5 135.5,-19.5 188.5,-19.5 188.5,-0.5 135.5,-0.5"/>
<text text-anchor="middle" x="162" y="-7.5" font-family="Helvetica,sans-Serif" font-size="10.00">details.h</text>
</a>
</g>
</g>
<!-- Node5&#45;&gt;Node6 -->
<g id="edge5" class="edge"><title>Node5&#45;&gt;Node6</title>
<path fill="none" stroke="midnightblue" d="M252.863,-52.2321C230.604,-42.1312 200.144,-28.3091 180.768,-19.5164"/>
<polygon fill="midnightblue" stroke="midnightblue" points="251.591,-55.4984 262.144,-56.4435 254.484,-49.124 251.591,-55.4984"/>
</g>
<!-- Node7&#45;&gt;Node5 -->
<g id="edge9" class="edge"><title>Node7&#45;&gt;Node5</title>
<path fill="none" stroke="midnightblue" d="M181.376,-113.674C206.019,-102.129 241.539,-85.4875 262.838,-75.5091"/>
<polygon fill="midnightblue" stroke="midnightblue" points="179.767,-110.563 172.196,-117.975 182.736,-116.902 179.767,-110.563"/>
</g>
<!-- Node8 -->
<g id="node8" class="node"><title>Node8</title>
<g id="a_node8"><a xlink:href="a00127.html" target="_top" xlink:title="collision_node.h">
<polygon fill="white" stroke="black" points="0,-56.5 0,-75.5 86,-75.5 86,-56.5 0,-56.5"/>
<text text-anchor="middle" x="43" y="-63.5" font-family="Helvetica,sans-Serif" font-size="10.00">collision_node.h</text>
</a>
</g>
</g>
<!-- Node7&#45;&gt;Node8 -->
<g id="edge7" class="edge"><title>Node7&#45;&gt;Node8</title>
<path fill="none" stroke="midnightblue" d="M129.21,-113.212C107.712,-101.688 77.2422,-85.355 58.8741,-75.5091"/>
<polygon fill="midnightblue" stroke="midnightblue" points="127.629,-116.335 138.096,-117.975 130.936,-110.166 127.629,-116.335"/>
</g>
<!-- Node9 -->
<g id="node9" class="node"><title>Node9</title>
<g id="a_node9"><a xlink:href="a00163.html" target="_top" xlink:title="traversal_recurse.h">
<polygon fill="white" stroke="black" points="104,-56.5 104,-75.5 204,-75.5 204,-56.5 104,-56.5"/>
<text text-anchor="middle" x="154" y="-63.5" font-family="Helvetica,sans-Serif" font-size="10.00">traversal_recurse.h</text>
</a>
</g>
</g>
<!-- Node7&#45;&gt;Node9 -->
<g id="edge10" class="edge"><title>Node7&#45;&gt;Node9</title>
<path fill="none" stroke="midnightblue" d="M154,-107.817C154,-96.9962 154,-83.898 154,-75.5091"/>
<polygon fill="midnightblue" stroke="midnightblue" points="150.5,-107.975 154,-117.975 157.5,-107.975 150.5,-107.975"/>
</g>
<!-- Node8&#45;&gt;Node6 -->
<g id="edge8" class="edge"><title>Node8&#45;&gt;Node6</title>
<path fill="none" stroke="midnightblue" d="M71.1367,-52.2321C93.3961,-42.1312 123.856,-28.3091 143.232,-19.5164"/>
<polygon fill="midnightblue" stroke="midnightblue" points="69.5159,-49.124 61.8559,-56.4435 72.4085,-55.4984 69.5159,-49.124"/>
</g>
<!-- Node12&#45;&gt;Node5 -->
<g id="edge14" class="edge"><title>Node12&#45;&gt;Node5</title>
<path fill="none" stroke="midnightblue" d="M508.174,-111.873C439.575,-96.9478 371.398,-83.8161 327.407,-75.5643"/>
<polygon fill="midnightblue" stroke="midnightblue" points="507.779,-115.369 518.296,-114.087 509.275,-108.53 507.779,-115.369"/>
</g>
<!-- Node14&#45;&gt;Node3 -->
<g id="edge17" class="edge"><title>Node14&#45;&gt;Node3</title>
<path fill="none" stroke="midnightblue" d="M445.727,-228.82C434.082,-219.145 419.401,-206.948 409.633,-198.834"/>
<polygon fill="midnightblue" stroke="midnightblue" points="443.628,-231.626 453.557,-235.324 448.101,-226.242 443.628,-231.626"/>
</g>
</g>
</svg>
