<?xml version="1.0" encoding="UTF-8" standalone="no"?>
<!DOCTYPE svg PUBLIC "-//W3C//DTD SVG 1.1//EN"
 "http://www.w3.org/Graphics/SVG/1.1/DTD/svg11.dtd">
<!-- Generated by graphviz version 2.38.0 (20140413.2041)
 -->
<!-- Title: BV_node.h Pages: 1 -->
<svg width="670pt" height="263pt"
 viewBox="0.00 0.00 669.50 263.00" xmlns="http://www.w3.org/2000/svg" xmlns:xlink="http://www.w3.org/1999/xlink">
<g id="graph0" class="graph" transform="scale(1 1) rotate(0) translate(4 259)">
<title>BV_node.h</title>
<polygon fill="white" stroke="none" points="-4,4 -4,-259 665.5,-259 665.5,4 -4,4"/>
<!-- Node1 -->
<g id="node1" class="node"><title>Node1</title>
<polygon fill="#bfbfbf" stroke="black" points="159,-235.5 159,-254.5 224,-254.5 224,-235.5 159,-235.5"/>
<text text-anchor="middle" x="191.5" y="-242.5" font-family="Helvetica,sans-Serif" font-size="10.00">BV_node.h</text>
</g>
<!-- Node2 -->
<g id="node2" class="node"><title>Node2</title>
<g id="a_node2"><a xlink:href="a00122.html" target="_top" xlink:title="BVH_model.h">
<polygon fill="white" stroke="black" points="220,-179.5 220,-198.5 297,-198.5 297,-179.5 220,-179.5"/>
<text text-anchor="middle" x="258.5" y="-186.5" font-family="Helvetica,sans-Serif" font-size="10.00">BVH_model.h</text>
</a>
</g>
</g>
<!-- Node1&#45;&gt;Node2 -->
<g id="edge1" class="edge"><title>Node1&#45;&gt;Node2</title>
<path fill="none" stroke="midnightblue" d="M210.335,-228.82C222.338,-219.145 237.472,-206.948 247.539,-198.834"/>
<polygon fill="midnightblue" stroke="midnightblue" points="207.854,-226.324 202.265,-235.324 212.247,-231.774 207.854,-226.324"/>
</g>
<!-- Node6 -->
<g id="node6" class="node"><title>Node6</title>
<g id="a_node6"><a xlink:href="a00159.html" target="_top" xlink:title="traversal_node_bvhs.h">
<polygon fill="white" stroke="black" points="0,-118 0,-137 115,-137 115,-118 0,-118"/>
<text text-anchor="middle" x="57.5" y="-125" font-family="Helvetica,sans-Serif" font-size="10.00">traversal_node_bvhs.h</text>
</a>
</g>
</g>
<!-- Node1&#45;&gt;Node6 -->
<g id="edge15" class="edge"><title>Node1&#45;&gt;Node6</title>
<path fill="none" stroke="midnightblue" d="M173.844,-228.782C145.419,-204.281 90.402,-156.86 67.6887,-137.282"/>
<polygon fill="midnightblue" stroke="midnightblue" points="171.569,-231.441 181.428,-235.319 176.139,-226.139 171.569,-231.441"/>
</g>
<!-- Node3 -->
<g id="node3" class="node"><title>Node3</title>
<g id="a_node3"><a xlink:href="a00123.html" target="_top" xlink:title="BVH_utility.h">
<polygon fill="white" stroke="black" points="587.5,-118 587.5,-137 661.5,-137 661.5,-118 587.5,-118"/>
<text text-anchor="middle" x="624.5" y="-125" font-family="Helvetica,sans-Serif" font-size="10.00">BVH_utility.h</text>
</a>
</g>
</g>
<!-- Node2&#45;&gt;Node3 -->
<g id="edge2" class="edge"><title>Node2&#45;&gt;Node3</title>
<path fill="none" stroke="midnightblue" d="M307.366,-183.669C370.523,-177.493 483.645,-164.464 578.5,-143 585.524,-141.411 593.02,-139.253 599.878,-137.088"/>
<polygon fill="midnightblue" stroke="midnightblue" points="306.914,-180.196 297.294,-184.637 307.583,-187.164 306.914,-180.196"/>
</g>
<!-- Node2&#45;&gt;Node6 -->
<g id="edge5" class="edge"><title>Node2&#45;&gt;Node6</title>
<path fill="none" stroke="midnightblue" d="M219.748,-176.529C180.683,-164.965 121.296,-147.385 86.245,-137.009"/>
<polygon fill="midnightblue" stroke="midnightblue" points="219.119,-179.993 229.702,-179.475 221.106,-173.281 219.119,-179.993"/>
</g>
<!-- Node9 -->
<g id="node9" class="node"><title>Node9</title>
<g id="a_node9"><a xlink:href="a00115.html" target="_top" xlink:title="assimp.h">
<polygon fill="white" stroke="black" points="132.5,-118 132.5,-137 188.5,-137 188.5,-118 132.5,-118"/>
<text text-anchor="middle" x="160.5" y="-125" font-family="Helvetica,sans-Serif" font-size="10.00">assimp.h</text>
</a>
</g>
</g>
<!-- Node2&#45;&gt;Node9 -->
<g id="edge10" class="edge"><title>Node2&#45;&gt;Node9</title>
<path fill="none" stroke="midnightblue" d="M235.843,-174.244C216.911,-162.75 190.514,-146.723 174.515,-137.009"/>
<polygon fill="midnightblue" stroke="midnightblue" points="234.095,-177.277 244.459,-179.475 237.728,-171.294 234.095,-177.277"/>
</g>
<!-- Node10 -->
<g id="node10" class="node"><title>Node10</title>
<g id="a_node10"><a xlink:href="a00137.html" target="_top" xlink:title="geometric_shape_to\l_BVH_model.h">
<polygon fill="white" stroke="black" points="206.5,-112.5 206.5,-142.5 310.5,-142.5 310.5,-112.5 206.5,-112.5"/>
<text text-anchor="start" x="214.5" y="-130.5" font-family="Helvetica,sans-Serif" font-size="10.00">geometric_shape_to</text>
<text text-anchor="middle" x="258.5" y="-119.5" font-family="Helvetica,sans-Serif" font-size="10.00">_BVH_model.h</text>
</a>
</g>
</g>
<!-- Node2&#45;&gt;Node10 -->
<g id="edge11" class="edge"><title>Node2&#45;&gt;Node10</title>
<path fill="none" stroke="midnightblue" d="M258.5,-169.235C258.5,-160.586 258.5,-150.497 258.5,-142.523"/>
<polygon fill="midnightblue" stroke="midnightblue" points="255,-169.475 258.5,-179.475 262,-169.475 255,-169.475"/>
</g>
<!-- Node11 -->
<g id="node11" class="node"><title>Node11</title>
<g id="a_node11"><a xlink:href="a00158.html" target="_top" xlink:title="traversal_node_bvh\l_shape.h">
<polygon fill="white" stroke="black" points="329,-112.5 329,-142.5 430,-142.5 430,-112.5 329,-112.5"/>
<text text-anchor="start" x="337" y="-130.5" font-family="Helvetica,sans-Serif" font-size="10.00">traversal_node_bvh</text>
<text text-anchor="middle" x="379.5" y="-119.5" font-family="Helvetica,sans-Serif" font-size="10.00">_shape.h</text>
</a>
</g>
</g>
<!-- Node2&#45;&gt;Node11 -->
<g id="edge12" class="edge"><title>Node2&#45;&gt;Node11</title>
<path fill="none" stroke="midnightblue" d="M285.062,-174.938C304.568,-165.347 331.032,-152.334 350.983,-142.523"/>
<polygon fill="midnightblue" stroke="midnightblue" points="283.266,-171.922 275.836,-179.475 286.355,-178.203 283.266,-171.922"/>
</g>
<!-- Node12 -->
<g id="node12" class="node"><title>Node12</title>
<g id="a_node12"><a xlink:href="a00160.html" target="_top" xlink:title="traversal_node_octree.h">
<polygon fill="white" stroke="black" points="448,-118 448,-137 569,-137 569,-118 448,-118"/>
<text text-anchor="middle" x="508.5" y="-125" font-family="Helvetica,sans-Serif" font-size="10.00">traversal_node_octree.h</text>
</a>
</g>
</g>
<!-- Node2&#45;&gt;Node12 -->
<g id="edge14" class="edge"><title>Node2&#45;&gt;Node12</title>
<path fill="none" stroke="midnightblue" d="M304.241,-177.114C352.764,-165.565 428.41,-147.561 472.748,-137.009"/>
<polygon fill="midnightblue" stroke="midnightblue" points="303.237,-173.755 294.319,-179.475 304.858,-180.565 303.237,-173.755"/>
</g>
<!-- Node4 -->
<g id="node4" class="node"><title>Node4</title>
<g id="a_node4"><a xlink:href="a00161.html" target="_top" xlink:title="traversal_node_setup.h">
<polygon fill="white" stroke="black" points="278.5,-56.5 278.5,-75.5 396.5,-75.5 396.5,-56.5 278.5,-56.5"/>
<text text-anchor="middle" x="337.5" y="-63.5" font-family="Helvetica,sans-Serif" font-size="10.00">traversal_node_setup.h</text>
</a>
</g>
</g>
<!-- Node3&#45;&gt;Node4 -->
<g id="edge3" class="edge"><title>Node3&#45;&gt;Node4</title>
<path fill="none" stroke="midnightblue" d="M589.62,-115.022C585.884,-113.937 582.125,-112.906 578.5,-112 515.942,-96.3605 443.023,-83.4718 393.916,-75.5553"/>
<polygon fill="midnightblue" stroke="midnightblue" points="588.763,-118.419 599.349,-117.969 590.793,-111.72 588.763,-118.419"/>
</g>
<!-- Node5 -->
<g id="node5" class="node"><title>Node5</title>
<g id="a_node5"><a xlink:href="a00131.html" target="_top" xlink:title="details.h">
<polygon fill="white" stroke="black" points="171,-0.5 171,-19.5 224,-19.5 224,-0.5 171,-0.5"/>
<text text-anchor="middle" x="197.5" y="-7.5" font-family="Helvetica,sans-Serif" font-size="10.00">details.h</text>
</a>
</g>
</g>
<!-- Node4&#45;&gt;Node5 -->
<g id="edge4" class="edge"><title>Node4&#45;&gt;Node5</title>
<path fill="none" stroke="midnightblue" d="M305.798,-52.772C279.5,-42.6287 242.784,-28.4669 219.58,-19.5164"/>
<polygon fill="midnightblue" stroke="midnightblue" points="304.727,-56.1103 315.317,-56.4435 307.246,-49.5792 304.727,-56.1103"/>
</g>
<!-- Node6&#45;&gt;Node4 -->
<g id="edge8" class="edge"><title>Node6&#45;&gt;Node4</title>
<path fill="none" stroke="midnightblue" d="M106.031,-115.786C111.914,-114.502 117.842,-113.216 123.5,-112 183.63,-99.073 253.355,-84.4864 296.451,-75.5173"/>
<polygon fill="midnightblue" stroke="midnightblue" points="105.246,-112.375 96.2256,-117.931 106.743,-119.213 105.246,-112.375"/>
</g>
<!-- Node7 -->
<g id="node7" class="node"><title>Node7</title>
<g id="a_node7"><a xlink:href="a00127.html" target="_top" xlink:title="collision_node.h">
<polygon fill="white" stroke="black" points="14.5,-56.5 14.5,-75.5 100.5,-75.5 100.5,-56.5 14.5,-56.5"/>
<text text-anchor="middle" x="57.5" y="-63.5" font-family="Helvetica,sans-Serif" font-size="10.00">collision_node.h</text>
</a>
</g>
</g>
<!-- Node6&#45;&gt;Node7 -->
<g id="edge6" class="edge"><title>Node6&#45;&gt;Node7</title>
<path fill="none" stroke="midnightblue" d="M57.5,-107.817C57.5,-96.9962 57.5,-83.898 57.5,-75.5091"/>
<polygon fill="midnightblue" stroke="midnightblue" points="54.0001,-107.975 57.5,-117.975 61.0001,-107.975 54.0001,-107.975"/>
</g>
<!-- Node8 -->
<g id="node8" class="node"><title>Node8</title>
<g id="a_node8"><a xlink:href="a00163.html" target="_top" xlink:title="traversal_recurse.h">
<polygon fill="white" stroke="black" points="118.5,-56.5 118.5,-75.5 218.5,-75.5 218.5,-56.5 118.5,-56.5"/>
<text text-anchor="middle" x="168.5" y="-63.5" font-family="Helvetica,sans-Serif" font-size="10.00">traversal_recurse.h</text>
</a>
</g>
</g>
<!-- Node6&#45;&gt;Node8 -->
<g id="edge9" class="edge"><title>Node6&#45;&gt;Node8</title>
<path fill="none" stroke="midnightblue" d="M82.2898,-113.212C103.788,-101.688 134.258,-85.355 152.626,-75.5091"/>
<polygon fill="midnightblue" stroke="midnightblue" points="80.5637,-110.166 73.4036,-117.975 83.8708,-116.335 80.5637,-110.166"/>
</g>
<!-- Node7&#45;&gt;Node5 -->
<g id="edge7" class="edge"><title>Node7&#45;&gt;Node5</title>
<path fill="none" stroke="midnightblue" d="M89.2022,-52.772C115.5,-42.6287 152.216,-28.4669 175.42,-19.5164"/>
<polygon fill="midnightblue" stroke="midnightblue" points="87.7539,-49.5792 79.6834,-56.4435 90.273,-56.1103 87.7539,-49.5792"/>
</g>
<!-- Node11&#45;&gt;Node4 -->
<g id="edge13" class="edge"><title>Node11&#45;&gt;Node4</title>
<path fill="none" stroke="midnightblue" d="M363.691,-104.104C356.691,-94.1868 348.869,-83.1062 343.611,-75.6578"/>
<polygon fill="midnightblue" stroke="midnightblue" points="360.92,-106.248 369.547,-112.399 366.639,-102.211 360.92,-106.248"/>
</g>
</g>
</svg>
