<?xml version="1.0" encoding="UTF-8" standalone="no"?>
<!DOCTYPE svg PUBLIC "-//W3C//DTD SVG 1.1//EN"
 "http://www.w3.org/Graphics/SVG/1.1/DTD/svg11.dtd">
<!-- Generated by graphviz version 2.38.0 (20140413.2041)
 -->
<!-- Title: collision_object.h Pages: 1 -->
<svg width="1444pt" height="375pt"
 viewBox="0.00 0.00 1444.00 375.00" xmlns="http://www.w3.org/2000/svg" xmlns:xlink="http://www.w3.org/1999/xlink">
<g id="graph0" class="graph" transform="scale(1 1) rotate(0) translate(4 371)">
<title>collision_object.h</title>
<polygon fill="white" stroke="none" points="-4,4 -4,-371 1440,-371 1440,4 -4,4"/>
<!-- Node1 -->
<g id="node1" class="node"><title>Node1</title>
<polygon fill="#bfbfbf" stroke="black" points="1010,-347.5 1010,-366.5 1102,-366.5 1102,-347.5 1010,-347.5"/>
<text text-anchor="middle" x="1056" y="-354.5" font-family="Helvetica,sans-Serif" font-size="10.00">collision_object.h</text>
</g>
<!-- Node2 -->
<g id="node2" class="node"><title>Node2</title>
<g id="a_node2"><a xlink:href="a00122.html" target="_top" xlink:title="BVH_model.h">
<polygon fill="white" stroke="black" points="144.5,-179.5 144.5,-198.5 221.5,-198.5 221.5,-179.5 144.5,-179.5"/>
<text text-anchor="middle" x="183" y="-186.5" font-family="Helvetica,sans-Serif" font-size="10.00">BVH_model.h</text>
</a>
</g>
</g>
<!-- Node1&#45;&gt;Node2 -->
<g id="edge1" class="edge"><title>Node1&#45;&gt;Node2</title>
<path fill="none" stroke="midnightblue" d="M999.652,-354.928C864.799,-351.898 526.642,-341.413 418,-311 326.526,-285.393 229.334,-222.085 195.479,-198.788"/>
<polygon fill="midnightblue" stroke="midnightblue" points="999.695,-358.43 1009.77,-355.15 999.849,-351.432 999.695,-358.43"/>
</g>
<!-- Node13 -->
<g id="node13" class="node"><title>Node13</title>
<g id="a_node13"><a xlink:href="a00124.html" target="_top" xlink:title="collision.h">
<polygon fill="white" stroke="black" points="1026,-179.5 1026,-198.5 1086,-198.5 1086,-179.5 1026,-179.5"/>
<text text-anchor="middle" x="1056" y="-186.5" font-family="Helvetica,sans-Serif" font-size="10.00">collision.h</text>
</a>
</g>
</g>
<!-- Node1&#45;&gt;Node13 -->
<g id="edge15" class="edge"><title>Node1&#45;&gt;Node13</title>
<path fill="none" stroke="midnightblue" d="M1056,-336.93C1056,-300.92 1056,-224.231 1056,-198.568"/>
<polygon fill="midnightblue" stroke="midnightblue" points="1052.5,-337.075 1056,-347.075 1059.5,-337.075 1052.5,-337.075"/>
</g>
<!-- Node14 -->
<g id="node14" class="node"><title>Node14</title>
<g id="a_node14"><a xlink:href="a00125.html" target="_top" xlink:title="collision_data.h">
<polygon fill="white" stroke="black" points="907,-235.5 907,-254.5 991,-254.5 991,-235.5 907,-235.5"/>
<text text-anchor="middle" x="949" y="-242.5" font-family="Helvetica,sans-Serif" font-size="10.00">collision_data.h</text>
</a>
</g>
</g>
<!-- Node1&#45;&gt;Node14 -->
<g id="edge16" class="edge"><title>Node1&#45;&gt;Node14</title>
<path fill="none" stroke="midnightblue" d="M1040.34,-339.897C1017.33,-316.249 975.214,-272.949 957.357,-254.591"/>
<polygon fill="midnightblue" stroke="midnightblue" points="1038.12,-342.641 1047.6,-347.368 1043.14,-337.76 1038.12,-342.641"/>
</g>
<!-- Node15 -->
<g id="node15" class="node"><title>Node15</title>
<g id="a_node15"><a xlink:href="a00126.html" target="_top" xlink:title="collision_func_matrix.h">
<polygon fill="white" stroke="black" points="1104,-179.5 1104,-198.5 1220,-198.5 1220,-179.5 1104,-179.5"/>
<text text-anchor="middle" x="1162" y="-186.5" font-family="Helvetica,sans-Serif" font-size="10.00">collision_func_matrix.h</text>
</a>
</g>
</g>
<!-- Node1&#45;&gt;Node15 -->
<g id="edge34" class="edge"><title>Node1&#45;&gt;Node15</title>
<path fill="none" stroke="midnightblue" d="M1059.05,-337.132C1063.91,-311.793 1075.37,-266.338 1099,-235 1111.06,-219.008 1130.42,-206.388 1144.5,-198.631"/>
<polygon fill="midnightblue" stroke="midnightblue" points="1055.56,-336.779 1057.26,-347.235 1062.45,-337.998 1055.56,-336.779"/>
</g>
<!-- Node18 -->
<g id="node18" class="node"><title>Node18</title>
<g id="a_node18"><a xlink:href="a00132.html" target="_top" xlink:title="distance.h">
<polygon fill="white" stroke="black" points="1238,-179.5 1238,-198.5 1300,-198.5 1300,-179.5 1238,-179.5"/>
<text text-anchor="middle" x="1269" y="-186.5" font-family="Helvetica,sans-Serif" font-size="10.00">distance.h</text>
</a>
</g>
</g>
<!-- Node1&#45;&gt;Node18 -->
<g id="edge50" class="edge"><title>Node1&#45;&gt;Node18</title>
<path fill="none" stroke="midnightblue" d="M1066.81,-338.541C1086.57,-306.841 1127.37,-242.394 1137,-235 1152.99,-222.726 1204.02,-207.382 1237.74,-198.154"/>
<polygon fill="midnightblue" stroke="midnightblue" points="1063.72,-336.887 1061.41,-347.228 1069.67,-340.582 1063.72,-336.887"/>
</g>
<!-- Node19 -->
<g id="node19" class="node"><title>Node19</title>
<g id="a_node19"><a xlink:href="a00133.html" target="_top" xlink:title="distance_func_matrix.h">
<polygon fill="white" stroke="black" points="1318,-179.5 1318,-198.5 1436,-198.5 1436,-179.5 1318,-179.5"/>
<text text-anchor="middle" x="1377" y="-186.5" font-family="Helvetica,sans-Serif" font-size="10.00">distance_func_matrix.h</text>
</a>
</g>
</g>
<!-- Node1&#45;&gt;Node19 -->
<g id="edge51" class="edge"><title>Node1&#45;&gt;Node19</title>
<path fill="none" stroke="midnightblue" d="M1078.87,-342.385C1101.71,-328.92 1137.95,-307.931 1170,-291 1238.59,-254.76 1322.1,-215.444 1358.53,-198.526"/>
<polygon fill="midnightblue" stroke="midnightblue" points="1077.06,-339.389 1070.23,-347.492 1080.62,-345.414 1077.06,-339.389"/>
</g>
<!-- Node21 -->
<g id="node21" class="node"><title>Node21</title>
<g id="a_node21"><a xlink:href="a00138.html" target="_top" xlink:title="geometric_shapes.h">
<polygon fill="white" stroke="black" points="427,-291.5 427,-310.5 531,-310.5 531,-291.5 427,-291.5"/>
<text text-anchor="middle" x="479" y="-298.5" font-family="Helvetica,sans-Serif" font-size="10.00">geometric_shapes.h</text>
</a>
</g>
</g>
<!-- Node1&#45;&gt;Node21 -->
<g id="edge35" class="edge"><title>Node1&#45;&gt;Node21</title>
<path fill="none" stroke="midnightblue" d="M999.699,-350.731C887.947,-340.272 639.575,-317.028 531.233,-306.888"/>
<polygon fill="midnightblue" stroke="midnightblue" points="999.474,-354.225 1009.76,-351.672 1000.13,-347.256 999.474,-354.225"/>
</g>
<!-- Node25 -->
<g id="node25" class="node"><title>Node25</title>
<g id="a_node25"><a xlink:href="a00129.html" target="_top" xlink:title="collision_utility.h">
<polygon fill="white" stroke="black" points="1179.5,-291.5 1179.5,-310.5 1268.5,-310.5 1268.5,-291.5 1179.5,-291.5"/>
<text text-anchor="middle" x="1224" y="-298.5" font-family="Helvetica,sans-Serif" font-size="10.00">collision_utility.h</text>
</a>
</g>
</g>
<!-- Node1&#45;&gt;Node25 -->
<g id="edge49" class="edge"><title>Node1&#45;&gt;Node25</title>
<path fill="none" stroke="midnightblue" d="M1092.39,-344.304C1124.04,-334.129 1169.17,-319.625 1197.5,-310.516"/>
<polygon fill="midnightblue" stroke="midnightblue" points="1091.07,-341.051 1082.62,-347.444 1093.21,-347.715 1091.07,-341.051"/>
</g>
<!-- Node26 -->
<g id="node26" class="node"><title>Node26</title>
<g id="a_node26"><a xlink:href="a00145.html" target="_top" xlink:title="loader.h">
<polygon fill="white" stroke="black" points="1286.5,-291.5 1286.5,-310.5 1337.5,-310.5 1337.5,-291.5 1286.5,-291.5"/>
<text text-anchor="middle" x="1312" y="-298.5" font-family="Helvetica,sans-Serif" font-size="10.00">loader.h</text>
</a>
</g>
</g>
<!-- Node1&#45;&gt;Node26 -->
<g id="edge52" class="edge"><title>Node1&#45;&gt;Node26</title>
<path fill="none" stroke="midnightblue" d="M1111.53,-345.504C1156.32,-336.842 1220.89,-323.918 1277,-311 1280.06,-310.296 1283.26,-309.524 1286.42,-308.737"/>
<polygon fill="midnightblue" stroke="midnightblue" points="1110.59,-342.121 1101.43,-347.449 1111.92,-348.994 1110.59,-342.121"/>
</g>
<!-- Node27 -->
<g id="node27" class="node"><title>Node27</title>
<g id="a_node27"><a xlink:href="a00151.html" target="_top" xlink:title="octree.h">
<polygon fill="white" stroke="black" points="702,-235.5 702,-254.5 754,-254.5 754,-235.5 702,-235.5"/>
<text text-anchor="middle" x="728" y="-242.5" font-family="Helvetica,sans-Serif" font-size="10.00">octree.h</text>
</a>
</g>
</g>
<!-- Node1&#45;&gt;Node27 -->
<g id="edge53" class="edge"><title>Node1&#45;&gt;Node27</title>
<path fill="none" stroke="midnightblue" d="M1020.94,-344.241C954.566,-321.983 812.004,-274.172 753.675,-254.61"/>
<polygon fill="midnightblue" stroke="midnightblue" points="1019.94,-347.599 1030.54,-347.46 1022.17,-340.962 1019.94,-347.599"/>
</g>
<!-- Node3 -->
<g id="node3" class="node"><title>Node3</title>
<g id="a_node3"><a xlink:href="a00123.html" target="_top" xlink:title="BVH_utility.h">
<polygon fill="white" stroke="black" points="196,-118 196,-137 270,-137 270,-118 196,-118"/>
<text text-anchor="middle" x="233" y="-125" font-family="Helvetica,sans-Serif" font-size="10.00">BVH_utility.h</text>
</a>
</g>
</g>
<!-- Node2&#45;&gt;Node3 -->
<g id="edge2" class="edge"><title>Node2&#45;&gt;Node3</title>
<path fill="none" stroke="midnightblue" d="M196.724,-171.669C206.15,-160.452 218.281,-146.016 225.85,-137.009"/>
<polygon fill="midnightblue" stroke="midnightblue" points="193.918,-169.568 190.164,-179.475 199.277,-174.071 193.918,-169.568"/>
</g>
<!-- Node6 -->
<g id="node6" class="node"><title>Node6</title>
<g id="a_node6"><a xlink:href="a00159.html" target="_top" xlink:title="traversal_node_bvhs.h">
<polygon fill="white" stroke="black" points="766.5,-118 766.5,-137 881.5,-137 881.5,-118 766.5,-118"/>
<text text-anchor="middle" x="824" y="-125" font-family="Helvetica,sans-Serif" font-size="10.00">traversal_node_bvhs.h</text>
</a>
</g>
</g>
<!-- Node2&#45;&gt;Node6 -->
<g id="edge5" class="edge"><title>Node2&#45;&gt;Node6</title>
<path fill="none" stroke="midnightblue" d="M231.749,-183.75C320.799,-175.95 515.74,-158.706 680,-143 708.389,-140.286 739.911,-137.128 766.207,-134.453"/>
<polygon fill="midnightblue" stroke="midnightblue" points="231.335,-180.273 221.678,-184.631 231.945,-187.246 231.335,-180.273"/>
</g>
<!-- Node9 -->
<g id="node9" class="node"><title>Node9</title>
<g id="a_node9"><a xlink:href="a00115.html" target="_top" xlink:title="assimp.h">
<polygon fill="white" stroke="black" points="122,-118 122,-137 178,-137 178,-118 122,-118"/>
<text text-anchor="middle" x="150" y="-125" font-family="Helvetica,sans-Serif" font-size="10.00">assimp.h</text>
</a>
</g>
</g>
<!-- Node2&#45;&gt;Node9 -->
<g id="edge10" class="edge"><title>Node2&#45;&gt;Node9</title>
<path fill="none" stroke="midnightblue" d="M173.389,-170.671C167.253,-159.608 159.568,-145.751 154.719,-137.009"/>
<polygon fill="midnightblue" stroke="midnightblue" points="170.361,-172.428 178.272,-179.475 176.482,-169.032 170.361,-172.428"/>
</g>
<!-- Node10 -->
<g id="node10" class="node"><title>Node10</title>
<g id="a_node10"><a xlink:href="a00137.html" target="_top" xlink:title="geometric_shape_to\l_BVH_model.h">
<polygon fill="white" stroke="black" points="0,-112.5 0,-142.5 104,-142.5 104,-112.5 0,-112.5"/>
<text text-anchor="start" x="8" y="-130.5" font-family="Helvetica,sans-Serif" font-size="10.00">geometric_shape_to</text>
<text text-anchor="middle" x="52" y="-119.5" font-family="Helvetica,sans-Serif" font-size="10.00">_BVH_model.h</text>
</a>
</g>
</g>
<!-- Node2&#45;&gt;Node10 -->
<g id="edge11" class="edge"><title>Node2&#45;&gt;Node10</title>
<path fill="none" stroke="midnightblue" d="M155.106,-175.331C133.911,-165.704 104.77,-152.468 82.8741,-142.523"/>
<polygon fill="midnightblue" stroke="midnightblue" points="153.679,-178.526 164.231,-179.475 156.573,-172.153 153.679,-178.526"/>
</g>
<!-- Node11 -->
<g id="node11" class="node"><title>Node11</title>
<g id="a_node11"><a xlink:href="a00158.html" target="_top" xlink:title="traversal_node_bvh\l_shape.h">
<polygon fill="white" stroke="black" points="288.5,-112.5 288.5,-142.5 389.5,-142.5 389.5,-112.5 288.5,-112.5"/>
<text text-anchor="start" x="296.5" y="-130.5" font-family="Helvetica,sans-Serif" font-size="10.00">traversal_node_bvh</text>
<text text-anchor="middle" x="339" y="-119.5" font-family="Helvetica,sans-Serif" font-size="10.00">_shape.h</text>
</a>
</g>
</g>
<!-- Node2&#45;&gt;Node11 -->
<g id="edge12" class="edge"><title>Node2&#45;&gt;Node11</title>
<path fill="none" stroke="midnightblue" d="M214.862,-175.847C240.204,-166.182 275.69,-152.647 302.234,-142.523"/>
<polygon fill="midnightblue" stroke="midnightblue" points="213.447,-172.641 205.351,-179.475 215.942,-179.182 213.447,-172.641"/>
</g>
<!-- Node12 -->
<g id="node12" class="node"><title>Node12</title>
<g id="a_node12"><a xlink:href="a00160.html" target="_top" xlink:title="traversal_node_octree.h">
<polygon fill="white" stroke="black" points="407.5,-118 407.5,-137 528.5,-137 528.5,-118 407.5,-118"/>
<text text-anchor="middle" x="468" y="-125" font-family="Helvetica,sans-Serif" font-size="10.00">traversal_node_octree.h</text>
</a>
</g>
</g>
<!-- Node2&#45;&gt;Node12 -->
<g id="edge14" class="edge"><title>Node2&#45;&gt;Node12</title>
<path fill="none" stroke="midnightblue" d="M231.602,-177.853C286.647,-166.361 375.379,-147.837 427.045,-137.05"/>
<polygon fill="midnightblue" stroke="midnightblue" points="230.807,-174.444 221.733,-179.914 232.237,-181.296 230.807,-174.444"/>
</g>
<!-- Node4 -->
<g id="node4" class="node"><title>Node4</title>
<g id="a_node4"><a xlink:href="a00161.html" target="_top" xlink:title="traversal_node_setup.h">
<polygon fill="white" stroke="black" points="550,-56.5 550,-75.5 668,-75.5 668,-56.5 550,-56.5"/>
<text text-anchor="middle" x="609" y="-63.5" font-family="Helvetica,sans-Serif" font-size="10.00">traversal_node_setup.h</text>
</a>
</g>
</g>
<!-- Node3&#45;&gt;Node4 -->
<g id="edge3" class="edge"><title>Node3&#45;&gt;Node4</title>
<path fill="none" stroke="midnightblue" d="M267.231,-115.01C271.174,-113.895 275.157,-112.861 279,-112 372.521,-91.0435 483.277,-78.3598 549.746,-72.0213"/>
<polygon fill="midnightblue" stroke="midnightblue" points="266.191,-111.668 257.618,-117.893 268.202,-118.373 266.191,-111.668"/>
</g>
<!-- Node5 -->
<g id="node5" class="node"><title>Node5</title>
<g id="a_node5"><a xlink:href="a00131.html" target="_top" xlink:title="details.h">
<polygon fill="white" stroke="black" points="673.5,-0.5 673.5,-19.5 726.5,-19.5 726.5,-0.5 673.5,-0.5"/>
<text text-anchor="middle" x="700" y="-7.5" font-family="Helvetica,sans-Serif" font-size="10.00">details.h</text>
</a>
</g>
</g>
<!-- Node4&#45;&gt;Node5 -->
<g id="edge4" class="edge"><title>Node4&#45;&gt;Node5</title>
<path fill="none" stroke="midnightblue" d="M632.294,-51.1774C649.039,-41.2407 671.1,-28.1492 685.416,-19.6545"/>
<polygon fill="midnightblue" stroke="midnightblue" points="630.434,-48.2108 623.621,-56.324 634.007,-54.2307 630.434,-48.2108"/>
</g>
<!-- Node6&#45;&gt;Node4 -->
<g id="edge8" class="edge"><title>Node6&#45;&gt;Node4</title>
<path fill="none" stroke="midnightblue" d="M783.346,-115.249C741.575,-103.689 677.479,-85.9511 639.747,-75.5091"/>
<polygon fill="midnightblue" stroke="midnightblue" points="782.624,-118.681 793.196,-117.975 784.492,-111.935 782.624,-118.681"/>
</g>
<!-- Node7 -->
<g id="node7" class="node"><title>Node7</title>
<g id="a_node7"><a xlink:href="a00127.html" target="_top" xlink:title="collision_node.h">
<polygon fill="white" stroke="black" points="728,-56.5 728,-75.5 814,-75.5 814,-56.5 728,-56.5"/>
<text text-anchor="middle" x="771" y="-63.5" font-family="Helvetica,sans-Serif" font-size="10.00">collision_node.h</text>
</a>
</g>
</g>
<!-- Node6&#45;&gt;Node7 -->
<g id="edge6" class="edge"><title>Node6&#45;&gt;Node7</title>
<path fill="none" stroke="midnightblue" d="M809.746,-110.497C799.714,-99.2356 786.681,-84.6044 778.58,-75.5091"/>
<polygon fill="midnightblue" stroke="midnightblue" points="807.141,-112.836 816.406,-117.975 812.368,-108.18 807.141,-112.836"/>
</g>
<!-- Node8 -->
<g id="node8" class="node"><title>Node8</title>
<g id="a_node8"><a xlink:href="a00163.html" target="_top" xlink:title="traversal_recurse.h">
<polygon fill="white" stroke="black" points="846,-56.5 846,-75.5 946,-75.5 946,-56.5 846,-56.5"/>
<text text-anchor="middle" x="896" y="-63.5" font-family="Helvetica,sans-Serif" font-size="10.00">traversal_recurse.h</text>
</a>
</g>
</g>
<!-- Node6&#45;&gt;Node8 -->
<g id="edge9" class="edge"><title>Node6&#45;&gt;Node8</title>
<path fill="none" stroke="midnightblue" d="M842.184,-111.473C855.955,-100.093 874.377,-84.8694 885.703,-75.5091"/>
<polygon fill="midnightblue" stroke="midnightblue" points="839.795,-108.907 834.316,-117.975 844.254,-114.303 839.795,-108.907"/>
</g>
<!-- Node7&#45;&gt;Node5 -->
<g id="edge7" class="edge"><title>Node7&#45;&gt;Node5</title>
<path fill="none" stroke="midnightblue" d="M751.41,-50.1008C738.632,-40.3824 722.387,-28.0269 711.615,-19.8339"/>
<polygon fill="midnightblue" stroke="midnightblue" points="749.514,-53.0561 759.593,-56.324 753.752,-47.4844 749.514,-53.0561"/>
</g>
<!-- Node11&#45;&gt;Node4 -->
<g id="edge13" class="edge"><title>Node11&#45;&gt;Node4</title>
<path fill="none" stroke="midnightblue" d="M399.337,-111.728C463.18,-97.1743 526.736,-83.852 567.28,-75.5017"/>
<polygon fill="midnightblue" stroke="midnightblue" points="398.473,-108.335 389.506,-113.979 400.035,-115.159 398.473,-108.335"/>
</g>
<!-- Node14&#45;&gt;Node6 -->
<g id="edge27" class="edge"><title>Node14&#45;&gt;Node6</title>
<path fill="none" stroke="midnightblue" d="M924.394,-230.242C910.862,-222.075 894.193,-210.992 881,-199 859.336,-179.309 839.063,-151.015 829.595,-137.014"/>
<polygon fill="midnightblue" stroke="midnightblue" points="922.786,-233.356 933.18,-235.405 926.332,-227.321 922.786,-233.356"/>
</g>
<!-- Node14&#45;&gt;Node11 -->
<g id="edge30" class="edge"><title>Node14&#45;&gt;Node11</title>
<path fill="none" stroke="midnightblue" d="M896.662,-241.278C745.282,-233.283 317.032,-209.76 307,-199 291.876,-182.779 309.541,-158.18 324.011,-142.742"/>
<polygon fill="midnightblue" stroke="midnightblue" points="896.48,-244.773 906.65,-241.804 896.848,-237.783 896.48,-244.773"/>
</g>
<!-- Node14&#45;&gt;Node12 -->
<g id="edge31" class="edge"><title>Node14&#45;&gt;Node12</title>
<path fill="none" stroke="midnightblue" d="M896.843,-241.211C806.15,-235.814 623.393,-222.371 564,-199 527.248,-184.538 491.898,-152.412 476.316,-137.03"/>
<polygon fill="midnightblue" stroke="midnightblue" points="896.719,-244.709 906.906,-241.799 897.127,-237.721 896.719,-244.709"/>
</g>
<!-- Node14&#45;&gt;Node13 -->
<g id="edge17" class="edge"><title>Node14&#45;&gt;Node13</title>
<path fill="none" stroke="midnightblue" d="M975.302,-230.726C995.115,-220.727 1021.71,-207.307 1038.85,-198.655"/>
<polygon fill="midnightblue" stroke="midnightblue" points="973.542,-227.694 966.191,-235.324 976.696,-233.943 973.542,-227.694"/>
</g>
<!-- Node14&#45;&gt;Node15 -->
<g id="edge18" class="edge"><title>Node14&#45;&gt;Node15</title>
<path fill="none" stroke="midnightblue" d="M992.551,-232.959C1032.78,-222.76 1091.7,-207.822 1128.41,-198.516"/>
<polygon fill="midnightblue" stroke="midnightblue" points="991.584,-229.593 982.75,-235.444 993.304,-236.379 991.584,-229.593"/>
</g>
<!-- Node16 -->
<g id="node16" class="node"><title>Node16</title>
<g id="a_node16"><a xlink:href="a00157.html" target="_top" xlink:title="traversal_node_base.h">
<polygon fill="white" stroke="black" points="680.5,-179.5 680.5,-198.5 795.5,-198.5 795.5,-179.5 680.5,-179.5"/>
<text text-anchor="middle" x="738" y="-186.5" font-family="Helvetica,sans-Serif" font-size="10.00">traversal_node_base.h</text>
</a>
</g>
</g>
<!-- Node14&#45;&gt;Node16 -->
<g id="edge19" class="edge"><title>Node14&#45;&gt;Node16</title>
<path fill="none" stroke="midnightblue" d="M905.858,-232.959C866.006,-222.76 807.637,-207.822 771.277,-198.516"/>
<polygon fill="midnightblue" stroke="midnightblue" points="905.011,-236.355 915.566,-235.444 906.746,-229.573 905.011,-236.355"/>
</g>
<!-- Node17 -->
<g id="node17" class="node"><title>Node17</title>
<g id="a_node17"><a xlink:href="a00162.html" target="_top" xlink:title="traversal_node_shapes.h">
<polygon fill="white" stroke="black" points="546.5,-118 546.5,-137 671.5,-137 671.5,-118 546.5,-118"/>
<text text-anchor="middle" x="609" y="-125" font-family="Helvetica,sans-Serif" font-size="10.00">traversal_node_shapes.h</text>
</a>
</g>
</g>
<!-- Node14&#45;&gt;Node17 -->
<g id="edge32" class="edge"><title>Node14&#45;&gt;Node17</title>
<path fill="none" stroke="midnightblue" d="M896.708,-241.528C798.435,-236.345 594.126,-222.805 573,-199 556.033,-179.881 582.725,-151.328 598.591,-137.142"/>
<polygon fill="midnightblue" stroke="midnightblue" points="896.562,-245.025 906.73,-242.047 896.924,-238.035 896.562,-245.025"/>
</g>
<!-- Node14&#45;&gt;Node18 -->
<g id="edge28" class="edge"><title>Node14&#45;&gt;Node18</title>
<path fill="none" stroke="midnightblue" d="M1001.46,-236.56C1057.85,-228.332 1150.03,-214.214 1229,-199 1231.8,-198.461 1234.69,-197.871 1237.6,-197.259"/>
<polygon fill="midnightblue" stroke="midnightblue" points="1000.75,-233.126 991.362,-238.027 1001.76,-240.054 1000.75,-233.126"/>
</g>
<!-- Node14&#45;&gt;Node19 -->
<g id="edge29" class="edge"><title>Node14&#45;&gt;Node19</title>
<path fill="none" stroke="midnightblue" d="M1001.46,-237.563C1071.57,-228.933 1199.67,-213.069 1309,-199 1311.83,-198.635 1314.74,-198.26 1317.67,-197.879"/>
<polygon fill="midnightblue" stroke="midnightblue" points="1000.63,-234.139 991.134,-238.833 1001.49,-241.086 1000.63,-234.139"/>
</g>
<!-- Node20 -->
<g id="node20" class="node"><title>Node20</title>
<g id="a_node20"><a xlink:href="a00134.html" target="_top" xlink:title="distance_func_matrix.h">
<polygon fill="white" stroke="black" points="890,-179.5 890,-198.5 1008,-198.5 1008,-179.5 890,-179.5"/>
<text text-anchor="middle" x="949" y="-186.5" font-family="Helvetica,sans-Serif" font-size="10.00">distance_func_matrix.h</text>
</a>
</g>
</g>
<!-- Node14&#45;&gt;Node20 -->
<g id="edge33" class="edge"><title>Node14&#45;&gt;Node20</title>
<path fill="none" stroke="midnightblue" d="M949,-224.805C949,-215.91 949,-205.78 949,-198.751"/>
<polygon fill="midnightblue" stroke="midnightblue" points="945.5,-225.083 949,-235.083 952.5,-225.083 945.5,-225.083"/>
</g>
<!-- Node16&#45;&gt;Node6 -->
<g id="edge21" class="edge"><title>Node16&#45;&gt;Node6</title>
<path fill="none" stroke="midnightblue" d="M758.795,-173.613C775.335,-162.169 797.917,-146.546 811.701,-137.009"/>
<polygon fill="midnightblue" stroke="midnightblue" points="756.554,-170.907 750.322,-179.475 760.537,-176.664 756.554,-170.907"/>
</g>
<!-- Node16&#45;&gt;Node7 -->
<g id="edge20" class="edge"><title>Node16&#45;&gt;Node7</title>
<path fill="none" stroke="midnightblue" d="M742.386,-169.202C746.061,-153.774 751.565,-131.39 757,-112 760.578,-99.2373 765.234,-84.6071 768.171,-75.5838"/>
<polygon fill="midnightblue" stroke="midnightblue" points="738.949,-168.528 740.061,-179.065 745.762,-170.135 738.949,-168.528"/>
</g>
<!-- Node16&#45;&gt;Node8 -->
<g id="edge26" class="edge"><title>Node16&#45;&gt;Node8</title>
<path fill="none" stroke="midnightblue" d="M806.004,-184.708C836.356,-179.529 869.766,-167.976 890,-143 905.83,-123.46 901.467,-91.0606 898.166,-75.6535"/>
<polygon fill="midnightblue" stroke="midnightblue" points="805.222,-181.287 795.852,-186.231 806.26,-188.209 805.222,-181.287"/>
</g>
<!-- Node16&#45;&gt;Node11 -->
<g id="edge22" class="edge"><title>Node16&#45;&gt;Node11</title>
<path fill="none" stroke="midnightblue" d="M670.133,-178.901C547.968,-162.983 515.1,-165.041 398,-143 395.305,-142.493 392.549,-141.939 389.771,-141.353"/>
<polygon fill="midnightblue" stroke="midnightblue" points="669.886,-182.399 680.258,-180.235 670.8,-175.459 669.886,-182.399"/>
</g>
<!-- Node16&#45;&gt;Node12 -->
<g id="edge23" class="edge"><title>Node16&#45;&gt;Node12</title>
<path fill="none" stroke="midnightblue" d="M689.257,-177.258C636.88,-165.716 554.698,-147.606 506.613,-137.009"/>
<polygon fill="midnightblue" stroke="midnightblue" points="688.797,-180.741 699.316,-179.475 690.303,-173.905 688.797,-180.741"/>
</g>
<!-- Node16&#45;&gt;Node17 -->
<g id="edge24" class="edge"><title>Node16&#45;&gt;Node17</title>
<path fill="none" stroke="midnightblue" d="M710.193,-175.174C685.161,-163.629 649.082,-146.987 627.448,-137.009"/>
<polygon fill="midnightblue" stroke="midnightblue" points="708.971,-178.465 719.517,-179.475 711.903,-172.108 708.971,-178.465"/>
</g>
<!-- Node17&#45;&gt;Node4 -->
<g id="edge25" class="edge"><title>Node17&#45;&gt;Node4</title>
<path fill="none" stroke="midnightblue" d="M609,-107.817C609,-96.9962 609,-83.898 609,-75.5091"/>
<polygon fill="midnightblue" stroke="midnightblue" points="605.5,-107.975 609,-117.975 612.5,-107.975 605.5,-107.975"/>
</g>
<!-- Node21&#45;&gt;Node6 -->
<g id="edge36" class="edge"><title>Node21&#45;&gt;Node6</title>
<path fill="none" stroke="midnightblue" d="M541.489,-295.65C613.568,-289.681 726.803,-277.092 763,-255 806.497,-228.453 819.629,-160.937 822.985,-137.042"/>
<polygon fill="midnightblue" stroke="midnightblue" points="540.854,-292.19 531.168,-296.483 541.417,-299.167 540.854,-292.19"/>
</g>
<!-- Node21&#45;&gt;Node10 -->
<g id="edge43" class="edge"><title>Node21&#45;&gt;Node10</title>
<path fill="none" stroke="midnightblue" d="M416.696,-289.831C345.383,-276.396 226.626,-248.446 135,-199 107.214,-184.005 80.3594,-158.573 65.0452,-142.701"/>
<polygon fill="midnightblue" stroke="midnightblue" points="416.395,-293.335 426.864,-291.709 417.666,-286.451 416.395,-293.335"/>
</g>
<!-- Node21&#45;&gt;Node11 -->
<g id="edge48" class="edge"><title>Node21&#45;&gt;Node11</title>
<path fill="none" stroke="midnightblue" d="M432.537,-288.53C389.128,-275.072 326.82,-248.085 298,-199 286.53,-179.464 305.413,-156.809 321.188,-142.565"/>
<polygon fill="midnightblue" stroke="midnightblue" points="431.73,-291.941 442.312,-291.432 433.722,-285.23 431.73,-291.941"/>
</g>
<!-- Node22 -->
<g id="node22" class="node"><title>Node22</title>
<g id="a_node22"><a xlink:href="a00140.html" target="_top" xlink:title="gjk.h">
<polygon fill="white" stroke="black" points="507,-235.5 507,-254.5 545,-254.5 545,-235.5 507,-235.5"/>
<text text-anchor="middle" x="526" y="-242.5" font-family="Helvetica,sans-Serif" font-size="10.00">gjk.h</text>
</a>
</g>
</g>
<!-- Node21&#45;&gt;Node22 -->
<g id="edge37" class="edge"><title>Node21&#45;&gt;Node22</title>
<path fill="none" stroke="midnightblue" d="M493.421,-283.431C501.658,-273.967 511.654,-262.483 518.383,-254.751"/>
<polygon fill="midnightblue" stroke="midnightblue" points="490.686,-281.242 486.761,-291.083 495.966,-285.838 490.686,-281.242"/>
</g>
<!-- Node24 -->
<g id="node24" class="node"><title>Node24</title>
<g id="a_node24"><a xlink:href="a00139.html" target="_top" xlink:title="geometric_shapes_utility.h">
<polygon fill="white" stroke="black" points="316.5,-179.5 316.5,-198.5 449.5,-198.5 449.5,-179.5 316.5,-179.5"/>
<text text-anchor="middle" x="383" y="-186.5" font-family="Helvetica,sans-Serif" font-size="10.00">geometric_shapes_utility.h</text>
</a>
</g>
</g>
<!-- Node21&#45;&gt;Node24 -->
<g id="edge44" class="edge"><title>Node21&#45;&gt;Node24</title>
<path fill="none" stroke="midnightblue" d="M464.675,-283.586C443.978,-259.871 406.449,-216.869 390.498,-198.591"/>
<polygon fill="midnightblue" stroke="midnightblue" points="462.255,-286.136 471.467,-291.368 467.529,-281.533 462.255,-286.136"/>
</g>
<!-- Node23 -->
<g id="node23" class="node"><title>Node23</title>
<g id="a_node23"><a xlink:href="a00147.html" target="_top" xlink:title="narrowphase.h">
<polygon fill="white" stroke="black" points="582,-179.5 582,-198.5 662,-198.5 662,-179.5 582,-179.5"/>
<text text-anchor="middle" x="622" y="-186.5" font-family="Helvetica,sans-Serif" font-size="10.00">narrowphase.h</text>
</a>
</g>
</g>
<!-- Node22&#45;&gt;Node23 -->
<g id="edge38" class="edge"><title>Node22&#45;&gt;Node23</title>
<path fill="none" stroke="midnightblue" d="M550.574,-230.177C568.239,-220.241 591.513,-207.149 606.614,-198.655"/>
<polygon fill="midnightblue" stroke="midnightblue" points="548.424,-227.371 541.424,-235.324 551.856,-233.472 548.424,-227.371"/>
</g>
<!-- Node23&#45;&gt;Node5 -->
<g id="edge42" class="edge"><title>Node23&#45;&gt;Node5</title>
<path fill="none" stroke="midnightblue" d="M647.775,-174.164C659.485,-166.534 672.393,-155.964 680,-143 704.048,-102.019 702.406,-42.0267 700.798,-19.7498"/>
<polygon fill="midnightblue" stroke="midnightblue" points="645.877,-171.222 639.161,-179.417 649.521,-177.198 645.877,-171.222"/>
</g>
<!-- Node23&#45;&gt;Node6 -->
<g id="edge39" class="edge"><title>Node23&#45;&gt;Node6</title>
<path fill="none" stroke="midnightblue" d="M660.695,-176.602C699.95,-165.04 759.812,-147.407 795.112,-137.009"/>
<polygon fill="midnightblue" stroke="midnightblue" points="659.545,-173.292 650.942,-179.475 661.523,-180.007 659.545,-173.292"/>
</g>
<!-- Node23&#45;&gt;Node12 -->
<g id="edge40" class="edge"><title>Node23&#45;&gt;Node12</title>
<path fill="none" stroke="midnightblue" d="M590.378,-175.782C560.451,-164.22 516.307,-147.164 490.024,-137.009"/>
<polygon fill="midnightblue" stroke="midnightblue" points="589.346,-179.136 599.936,-179.475 591.869,-172.606 589.346,-179.136"/>
</g>
<!-- Node23&#45;&gt;Node17 -->
<g id="edge41" class="edge"><title>Node23&#45;&gt;Node17</title>
<path fill="none" stroke="midnightblue" d="M617.992,-169.657C615.614,-158.772 612.711,-145.486 610.859,-137.009"/>
<polygon fill="midnightblue" stroke="midnightblue" points="614.583,-170.453 620.137,-179.475 621.422,-168.958 614.583,-170.453"/>
</g>
<!-- Node24&#45;&gt;Node11 -->
<g id="edge45" class="edge"><title>Node24&#45;&gt;Node11</title>
<path fill="none" stroke="midnightblue" d="M370.611,-171.247C363.911,-162.187 355.73,-151.124 349.37,-142.523"/>
<polygon fill="midnightblue" stroke="midnightblue" points="367.936,-173.516 376.696,-179.475 373.564,-169.354 367.936,-173.516"/>
</g>
<!-- Node24&#45;&gt;Node12 -->
<g id="edge46" class="edge"><title>Node24&#45;&gt;Node12</title>
<path fill="none" stroke="midnightblue" d="M403.553,-173.613C419.901,-162.169 442.22,-146.546 455.844,-137.009"/>
<polygon fill="midnightblue" stroke="midnightblue" points="401.364,-170.873 395.178,-179.475 405.378,-176.608 401.364,-170.873"/>
</g>
<!-- Node24&#45;&gt;Node17 -->
<g id="edge47" class="edge"><title>Node24&#45;&gt;Node17</title>
<path fill="none" stroke="midnightblue" d="M425.178,-176.896C469.072,-165.34 536.85,-147.495 576.68,-137.009"/>
<polygon fill="midnightblue" stroke="midnightblue" points="424.16,-173.544 415.38,-179.475 425.942,-180.314 424.16,-173.544"/>
</g>
<!-- Node27&#45;&gt;Node12 -->
<g id="edge54" class="edge"><title>Node27&#45;&gt;Node12</title>
<path fill="none" stroke="midnightblue" d="M691.452,-240.684C635.27,-234.943 531.12,-221.553 502,-199 481.803,-183.357 472.934,-152.669 469.647,-137.469"/>
<polygon fill="midnightblue" stroke="midnightblue" points="691.387,-244.195 701.684,-241.699 692.078,-237.229 691.387,-244.195"/>
</g>
</g>
</svg>
