<?xml version="1.0" encoding="UTF-8" standalone="no"?>
<!DOCTYPE svg PUBLIC "-//W3C//DTD SVG 1.1//EN"
 "http://www.w3.org/Graphics/SVG/1.1/DTD/svg11.dtd">
<!-- Generated by graphviz version 2.38.0 (20140413.2041)
 -->
<!-- Title: collision_data.h Pages: 1 -->
<svg width="840pt" height="263pt"
 viewBox="0.00 0.00 840.00 263.00" xmlns="http://www.w3.org/2000/svg" xmlns:xlink="http://www.w3.org/1999/xlink">
<g id="graph0" class="graph" transform="scale(1 1) rotate(0) translate(4 259)">
<title>collision_data.h</title>
<polygon fill="white" stroke="none" points="-4,4 -4,-259 836,-259 836,4 -4,4"/>
<!-- Node1 -->
<g id="node1" class="node"><title>Node1</title>
<polygon fill="#bfbfbf" stroke="black" points="347,-235.5 347,-254.5 431,-254.5 431,-235.5 347,-235.5"/>
<text text-anchor="middle" x="389" y="-242.5" font-family="Helvetica,sans-Serif" font-size="10.00">collision_data.h</text>
</g>
<!-- Node2 -->
<g id="node2" class="node"><title>Node2</title>
<g id="a_node2"><a xlink:href="a00124.html" target="_top" xlink:title="collision.h">
<polygon fill="white" stroke="black" points="0,-179.5 0,-198.5 60,-198.5 60,-179.5 0,-179.5"/>
<text text-anchor="middle" x="30" y="-186.5" font-family="Helvetica,sans-Serif" font-size="10.00">collision.h</text>
</a>
</g>
</g>
<!-- Node1&#45;&gt;Node2 -->
<g id="edge1" class="edge"><title>Node1&#45;&gt;Node2</title>
<path fill="none" stroke="midnightblue" d="M336.711,-238.066C273.164,-230.527 162.796,-216.383 69,-199 66.1304,-198.468 63.1526,-197.869 60.1794,-197.238"/>
<polygon fill="midnightblue" stroke="midnightblue" points="336.537,-241.569 346.878,-239.263 337.356,-234.617 336.537,-241.569"/>
</g>
<!-- Node3 -->
<g id="node3" class="node"><title>Node3</title>
<g id="a_node3"><a xlink:href="a00126.html" target="_top" xlink:title="collision_func_matrix.h">
<polygon fill="white" stroke="black" points="78,-179.5 78,-198.5 194,-198.5 194,-179.5 78,-179.5"/>
<text text-anchor="middle" x="136" y="-186.5" font-family="Helvetica,sans-Serif" font-size="10.00">collision_func_matrix.h</text>
</a>
</g>
</g>
<!-- Node1&#45;&gt;Node3 -->
<g id="edge2" class="edge"><title>Node1&#45;&gt;Node3</title>
<path fill="none" stroke="midnightblue" d="M339.082,-233.346C291.269,-223.141 220.052,-207.94 175.901,-198.516"/>
<polygon fill="midnightblue" stroke="midnightblue" points="338.401,-236.779 348.911,-235.444 339.862,-229.933 338.401,-236.779"/>
</g>
<!-- Node4 -->
<g id="node4" class="node"><title>Node4</title>
<g id="a_node4"><a xlink:href="a00157.html" target="_top" xlink:title="traversal_node_base.h">
<polygon fill="white" stroke="black" points="288.5,-179.5 288.5,-198.5 403.5,-198.5 403.5,-179.5 288.5,-179.5"/>
<text text-anchor="middle" x="346" y="-186.5" font-family="Helvetica,sans-Serif" font-size="10.00">traversal_node_base.h</text>
</a>
</g>
</g>
<!-- Node1&#45;&gt;Node4 -->
<g id="edge3" class="edge"><title>Node1&#45;&gt;Node4</title>
<path fill="none" stroke="midnightblue" d="M375.578,-227.144C368.086,-217.736 359.063,-206.405 352.968,-198.751"/>
<polygon fill="midnightblue" stroke="midnightblue" points="372.932,-229.44 381.899,-235.083 378.408,-225.08 372.932,-229.44"/>
</g>
<!-- Node7 -->
<g id="node7" class="node"><title>Node7</title>
<g id="a_node7"><a xlink:href="a00159.html" target="_top" xlink:title="traversal_node_bvhs.h">
<polygon fill="white" stroke="black" points="370.5,-118 370.5,-137 485.5,-137 485.5,-118 370.5,-118"/>
<text text-anchor="middle" x="428" y="-125" font-family="Helvetica,sans-Serif" font-size="10.00">traversal_node_bvhs.h</text>
</a>
</g>
</g>
<!-- Node1&#45;&gt;Node7 -->
<g id="edge17" class="edge"><title>Node1&#45;&gt;Node7</title>
<path fill="none" stroke="midnightblue" d="M399.798,-226.522C404.426,-218.4 409.548,-208.462 413,-199 420.805,-177.605 425.094,-150.998 426.921,-137.403"/>
<polygon fill="midnightblue" stroke="midnightblue" points="396.638,-224.99 394.546,-235.376 402.658,-228.562 396.638,-224.99"/>
</g>
<!-- Node10 -->
<g id="node10" class="node"><title>Node10</title>
<g id="a_node10"><a xlink:href="a00158.html" target="_top" xlink:title="traversal_node_bvh\l_shape.h">
<polygon fill="white" stroke="black" points="212.5,-112.5 212.5,-142.5 313.5,-142.5 313.5,-112.5 212.5,-112.5"/>
<text text-anchor="start" x="220.5" y="-130.5" font-family="Helvetica,sans-Serif" font-size="10.00">traversal_node_bvh</text>
<text text-anchor="middle" x="263" y="-119.5" font-family="Helvetica,sans-Serif" font-size="10.00">_shape.h</text>
</a>
</g>
</g>
<!-- Node1&#45;&gt;Node10 -->
<g id="edge20" class="edge"><title>Node1&#45;&gt;Node10</title>
<path fill="none" stroke="midnightblue" d="M336.887,-233.322C316.482,-226.655 294.53,-215.975 280,-199 266.409,-183.122 263.296,-158.193 262.787,-142.627"/>
<polygon fill="midnightblue" stroke="midnightblue" points="336.157,-236.757 346.741,-236.283 338.171,-230.054 336.157,-236.757"/>
</g>
<!-- Node11 -->
<g id="node11" class="node"><title>Node11</title>
<g id="a_node11"><a xlink:href="a00160.html" target="_top" xlink:title="traversal_node_octree.h">
<polygon fill="white" stroke="black" points="542.5,-118 542.5,-137 663.5,-137 663.5,-118 542.5,-118"/>
<text text-anchor="middle" x="603" y="-125" font-family="Helvetica,sans-Serif" font-size="10.00">traversal_node_octree.h</text>
</a>
</g>
</g>
<!-- Node1&#45;&gt;Node11 -->
<g id="edge21" class="edge"><title>Node1&#45;&gt;Node11</title>
<path fill="none" stroke="midnightblue" d="M409.163,-229.525C428.955,-215.65 460.268,-194.573 489,-179 519.83,-162.29 557.292,-146.506 580.647,-137.167"/>
<polygon fill="midnightblue" stroke="midnightblue" points="407.074,-226.716 400.931,-235.348 411.117,-232.43 407.074,-226.716"/>
</g>
<!-- Node12 -->
<g id="node12" class="node"><title>Node12</title>
<g id="a_node12"><a xlink:href="a00162.html" target="_top" xlink:title="traversal_node_shapes.h">
<polygon fill="white" stroke="black" points="69.5,-118 69.5,-137 194.5,-137 194.5,-118 69.5,-118"/>
<text text-anchor="middle" x="132" y="-125" font-family="Helvetica,sans-Serif" font-size="10.00">traversal_node_shapes.h</text>
</a>
</g>
</g>
<!-- Node1&#45;&gt;Node12 -->
<g id="edge22" class="edge"><title>Node1&#45;&gt;Node12</title>
<path fill="none" stroke="midnightblue" d="M352.177,-232.141C327.227,-223.741 293.7,-211.74 265,-199 220.572,-179.278 170.494,-150.998 146.429,-137.007"/>
<polygon fill="midnightblue" stroke="midnightblue" points="351.373,-235.562 361.967,-235.4 353.585,-228.921 351.373,-235.562"/>
</g>
<!-- Node13 -->
<g id="node13" class="node"><title>Node13</title>
<g id="a_node13"><a xlink:href="a00132.html" target="_top" xlink:title="distance.h">
<polygon fill="white" stroke="black" points="498,-179.5 498,-198.5 560,-198.5 560,-179.5 498,-179.5"/>
<text text-anchor="middle" x="529" y="-186.5" font-family="Helvetica,sans-Serif" font-size="10.00">distance.h</text>
</a>
</g>
</g>
<!-- Node1&#45;&gt;Node13 -->
<g id="edge18" class="edge"><title>Node1&#45;&gt;Node13</title>
<path fill="none" stroke="midnightblue" d="M420.702,-231.772C447,-221.629 483.716,-207.467 506.92,-198.516"/>
<polygon fill="midnightblue" stroke="midnightblue" points="419.254,-228.579 411.183,-235.444 421.773,-235.11 419.254,-228.579"/>
</g>
<!-- Node14 -->
<g id="node14" class="node"><title>Node14</title>
<g id="a_node14"><a xlink:href="a00133.html" target="_top" xlink:title="distance_func_matrix.h">
<polygon fill="white" stroke="black" points="578,-179.5 578,-198.5 696,-198.5 696,-179.5 578,-179.5"/>
<text text-anchor="middle" x="637" y="-186.5" font-family="Helvetica,sans-Serif" font-size="10.00">distance_func_matrix.h</text>
</a>
</g>
</g>
<!-- Node1&#45;&gt;Node14 -->
<g id="edge19" class="edge"><title>Node1&#45;&gt;Node14</title>
<path fill="none" stroke="midnightblue" d="M438.226,-233.281C485.091,-223.077 554.699,-207.92 597.888,-198.516"/>
<polygon fill="midnightblue" stroke="midnightblue" points="437.323,-229.896 428.296,-235.444 438.812,-236.736 437.323,-229.896"/>
</g>
<!-- Node15 -->
<g id="node15" class="node"><title>Node15</title>
<g id="a_node15"><a xlink:href="a00134.html" target="_top" xlink:title="distance_func_matrix.h">
<polygon fill="white" stroke="black" points="714,-179.5 714,-198.5 832,-198.5 832,-179.5 714,-179.5"/>
<text text-anchor="middle" x="773" y="-186.5" font-family="Helvetica,sans-Serif" font-size="10.00">distance_func_matrix.h</text>
</a>
</g>
</g>
<!-- Node1&#45;&gt;Node15 -->
<g id="edge23" class="edge"><title>Node1&#45;&gt;Node15</title>
<path fill="none" stroke="midnightblue" d="M441.268,-236.65C512.382,-226.649 639.279,-208.805 713.815,-198.323"/>
<polygon fill="midnightblue" stroke="midnightblue" points="440.608,-233.208 431.193,-238.067 441.583,-240.14 440.608,-233.208"/>
</g>
<!-- Node5 -->
<g id="node5" class="node"><title>Node5</title>
<g id="a_node5"><a xlink:href="a00127.html" target="_top" xlink:title="collision_node.h">
<polygon fill="white" stroke="black" points="458,-56.5 458,-75.5 544,-75.5 544,-56.5 458,-56.5"/>
<text text-anchor="middle" x="501" y="-63.5" font-family="Helvetica,sans-Serif" font-size="10.00">collision_node.h</text>
</a>
</g>
</g>
<!-- Node4&#45;&gt;Node5 -->
<g id="edge4" class="edge"><title>Node4&#45;&gt;Node5</title>
<path fill="none" stroke="midnightblue" d="M414.109,-184.1C443.487,-178.728 475.514,-167.189 495,-143 510.776,-123.417 506.44,-91.0383 503.155,-75.6449"/>
<polygon fill="midnightblue" stroke="midnightblue" points="413.168,-180.707 403.853,-185.754 414.283,-187.617 413.168,-180.707"/>
</g>
<!-- Node4&#45;&gt;Node7 -->
<g id="edge6" class="edge"><title>Node4&#45;&gt;Node7</title>
<path fill="none" stroke="midnightblue" d="M366.267,-173.294C381.997,-161.88 403.252,-146.458 416.273,-137.009"/>
<polygon fill="midnightblue" stroke="midnightblue" points="363.787,-170.769 357.749,-179.475 367.898,-176.435 363.787,-170.769"/>
</g>
<!-- Node9 -->
<g id="node9" class="node"><title>Node9</title>
<g id="a_node9"><a xlink:href="a00163.html" target="_top" xlink:title="traversal_recurse.h">
<polygon fill="white" stroke="black" points="340,-56.5 340,-75.5 440,-75.5 440,-56.5 340,-56.5"/>
<text text-anchor="middle" x="390" y="-63.5" font-family="Helvetica,sans-Serif" font-size="10.00">traversal_recurse.h</text>
</a>
</g>
</g>
<!-- Node4&#45;&gt;Node9 -->
<g id="edge16" class="edge"><title>Node4&#45;&gt;Node9</title>
<path fill="none" stroke="midnightblue" d="M348.094,-169.25C350.281,-153.534 354.476,-130.726 362,-112 367.42,-98.51 376.816,-84.5303 383.215,-75.804"/>
<polygon fill="midnightblue" stroke="midnightblue" points="344.607,-168.923 346.837,-179.28 351.553,-169.793 344.607,-168.923"/>
</g>
<!-- Node4&#45;&gt;Node10 -->
<g id="edge11" class="edge"><title>Node4&#45;&gt;Node10</title>
<path fill="none" stroke="midnightblue" d="M325.728,-173.468C312.587,-164.047 295.559,-151.841 282.561,-142.523"/>
<polygon fill="midnightblue" stroke="midnightblue" points="323.941,-176.493 334.108,-179.475 328.02,-170.804 323.941,-176.493"/>
</g>
<!-- Node4&#45;&gt;Node11 -->
<g id="edge13" class="edge"><title>Node4&#45;&gt;Node11</title>
<path fill="none" stroke="midnightblue" d="M392.709,-177.186C442.578,-165.641 520.572,-147.584 566.246,-137.009"/>
<polygon fill="midnightblue" stroke="midnightblue" points="391.775,-173.81 382.822,-179.475 393.354,-180.629 391.775,-173.81"/>
</g>
<!-- Node4&#45;&gt;Node12 -->
<g id="edge14" class="edge"><title>Node4&#45;&gt;Node12</title>
<path fill="none" stroke="midnightblue" d="M305.535,-176.749C263.959,-165.189 200.16,-147.451 162.604,-137.009"/>
<polygon fill="midnightblue" stroke="midnightblue" points="304.767,-180.168 315.339,-179.475 306.642,-173.424 304.767,-180.168"/>
</g>
<!-- Node6 -->
<g id="node6" class="node"><title>Node6</title>
<g id="a_node6"><a xlink:href="a00131.html" target="_top" xlink:title="details.h">
<polygon fill="white" stroke="black" points="355.5,-0.5 355.5,-19.5 408.5,-19.5 408.5,-0.5 355.5,-0.5"/>
<text text-anchor="middle" x="382" y="-7.5" font-family="Helvetica,sans-Serif" font-size="10.00">details.h</text>
</a>
</g>
</g>
<!-- Node5&#45;&gt;Node6 -->
<g id="edge5" class="edge"><title>Node5&#45;&gt;Node6</title>
<path fill="none" stroke="midnightblue" d="M472.863,-52.2321C450.604,-42.1312 420.144,-28.3091 400.768,-19.5164"/>
<polygon fill="midnightblue" stroke="midnightblue" points="471.591,-55.4984 482.144,-56.4435 474.484,-49.124 471.591,-55.4984"/>
</g>
<!-- Node7&#45;&gt;Node5 -->
<g id="edge7" class="edge"><title>Node7&#45;&gt;Node5</title>
<path fill="none" stroke="midnightblue" d="M446.437,-111.473C460.399,-100.093 479.076,-84.8694 490.56,-75.5091"/>
<polygon fill="midnightblue" stroke="midnightblue" points="443.999,-108.944 438.459,-117.975 448.422,-114.37 443.999,-108.944"/>
</g>
<!-- Node8 -->
<g id="node8" class="node"><title>Node8</title>
<g id="a_node8"><a xlink:href="a00161.html" target="_top" xlink:title="traversal_node_setup.h">
<polygon fill="white" stroke="black" points="204,-56.5 204,-75.5 322,-75.5 322,-56.5 204,-56.5"/>
<text text-anchor="middle" x="263" y="-63.5" font-family="Helvetica,sans-Serif" font-size="10.00">traversal_node_setup.h</text>
</a>
</g>
</g>
<!-- Node7&#45;&gt;Node8 -->
<g id="edge8" class="edge"><title>Node7&#45;&gt;Node8</title>
<path fill="none" stroke="midnightblue" d="M394.952,-114.583C362.879,-103.017 315.002,-85.7524 286.597,-75.5091"/>
<polygon fill="midnightblue" stroke="midnightblue" points="393.765,-117.875 404.36,-117.975 396.14,-111.29 393.765,-117.875"/>
</g>
<!-- Node7&#45;&gt;Node9 -->
<g id="edge10" class="edge"><title>Node7&#45;&gt;Node9</title>
<path fill="none" stroke="midnightblue" d="M417.146,-109.505C410.046,-98.388 401.074,-84.3395 395.434,-75.5091"/>
<polygon fill="midnightblue" stroke="midnightblue" points="414.223,-111.431 422.556,-117.975 420.123,-107.663 414.223,-111.431"/>
</g>
<!-- Node8&#45;&gt;Node6 -->
<g id="edge9" class="edge"><title>Node8&#45;&gt;Node6</title>
<path fill="none" stroke="midnightblue" d="M291.137,-52.2321C313.396,-42.1312 343.856,-28.3091 363.232,-19.5164"/>
<polygon fill="midnightblue" stroke="midnightblue" points="289.516,-49.124 281.856,-56.4435 292.409,-55.4984 289.516,-49.124"/>
</g>
<!-- Node10&#45;&gt;Node8 -->
<g id="edge12" class="edge"><title>Node10&#45;&gt;Node8</title>
<path fill="none" stroke="midnightblue" d="M263,-102.289C263,-92.857 263,-82.6548 263,-75.6578"/>
<polygon fill="midnightblue" stroke="midnightblue" points="259.5,-102.399 263,-112.399 266.5,-102.399 259.5,-102.399"/>
</g>
<!-- Node12&#45;&gt;Node8 -->
<g id="edge15" class="edge"><title>Node12&#45;&gt;Node8</title>
<path fill="none" stroke="midnightblue" d="M159.902,-113.827C185.333,-102.276 222.199,-85.5316 244.266,-75.5091"/>
<polygon fill="midnightblue" stroke="midnightblue" points="158.427,-110.653 150.769,-117.975 161.321,-117.026 158.427,-110.653"/>
</g>
</g>
</svg>
