<?xml version="1.0" encoding="UTF-8" standalone="no"?>
<!DOCTYPE svg PUBLIC "-//W3C//DTD SVG 1.1//EN"
 "http://www.w3.org/Graphics/SVG/1.1/DTD/svg11.dtd">
<!-- Generated by graphviz version 2.38.0 (20140413.2041)
 -->
<!-- Title: data_types.h Pages: 1 -->
<svg width="168pt" height="84pt"
 viewBox="0.00 0.00 167.50 84.00" xmlns="http://www.w3.org/2000/svg" xmlns:xlink="http://www.w3.org/1999/xlink">
<g id="graph0" class="graph" transform="scale(1 1) rotate(0) translate(4 80)">
<title>data_types.h</title>
<polygon fill="white" stroke="none" points="-4,4 -4,-80 163.5,-80 163.5,4 -4,4"/>
<!-- Node1 -->
<g id="node1" class="node"><title>Node1</title>
<polygon fill="#bfbfbf" stroke="black" points="32,-56.5 32,-75.5 105,-75.5 105,-56.5 32,-56.5"/>
<text text-anchor="middle" x="68.5" y="-63.5" font-family="Helvetica,sans-Serif" font-size="10.00">data_types.h</text>
</g>
<!-- Node2 -->
<g id="node2" class="node"><title>Node2</title>
<polygon fill="white" stroke="#bfbfbf" points="0,-0.5 0,-19.5 49,-19.5 49,-0.5 0,-0.5"/>
<text text-anchor="middle" x="24.5" y="-7.5" font-family="Helvetica,sans-Serif" font-size="10.00">cstddef</text>
</g>
<!-- Node1&#45;&gt;Node2 -->
<g id="edge1" class="edge"><title>Node1&#45;&gt;Node2</title>
<path fill="none" stroke="midnightblue" d="M61.2343,-56.083C54.9552,-48.3768 45.7124,-37.0333 38.0692,-27.6531"/>
<polygon fill="midnightblue" stroke="midnightblue" points="40.6606,-25.2926 31.6305,-19.7511 35.2339,-29.7143 40.6606,-25.2926"/>
</g>
<!-- Node3 -->
<g id="node3" class="node"><title>Node3</title>
<polygon fill="white" stroke="#bfbfbf" points="67.5,-0.5 67.5,-19.5 159.5,-19.5 159.5,-0.5 67.5,-0.5"/>
<text text-anchor="middle" x="113.5" y="-7.5" font-family="Helvetica,sans-Serif" font-size="10.00">boost/cstdint.hpp</text>
</g>
<!-- Node1&#45;&gt;Node3 -->
<g id="edge2" class="edge"><title>Node1&#45;&gt;Node3</title>
<path fill="none" stroke="midnightblue" d="M75.9308,-56.083C82.3527,-48.3768 91.8056,-37.0333 99.6225,-27.6531"/>
<polygon fill="midnightblue" stroke="midnightblue" points="102.494,-29.674 106.207,-19.7511 97.1168,-25.1927 102.494,-29.674"/>
</g>
</g>
</svg>
