<?xml version="1.0" encoding="UTF-8" standalone="no"?>
<!DOCTYPE svg PUBLIC "-//W3C//DTD SVG 1.1//EN"
 "http://www.w3.org/Graphics/SVG/1.1/DTD/svg11.dtd">
<!-- Generated by graphviz version 2.38.0 (20140413.2041)
 -->
<!-- Title: BVH_front.h Pages: 1 -->
<svg width="212pt" height="140pt"
 viewBox="0.00 0.00 212.00 140.00" xmlns="http://www.w3.org/2000/svg" xmlns:xlink="http://www.w3.org/1999/xlink">
<g id="graph0" class="graph" transform="scale(1 1) rotate(0) translate(4 136)">
<title>BVH_front.h</title>
<polygon fill="white" stroke="none" points="-4,4 -4,-136 208,-136 208,4 -4,4"/>
<!-- Node1 -->
<g id="node1" class="node"><title>Node1</title>
<polygon fill="#bfbfbf" stroke="black" points="62.5,-112.5 62.5,-131.5 133.5,-131.5 133.5,-112.5 62.5,-112.5"/>
<text text-anchor="middle" x="98" y="-119.5" font-family="Helvetica,sans-Serif" font-size="10.00">BVH_front.h</text>
</g>
<!-- Node2 -->
<g id="node2" class="node"><title>Node2</title>
<g id="a_node2"><a xlink:href="a00127.html" target="_top" xlink:title="collision_node.h">
<polygon fill="white" stroke="black" points="0,-56.5 0,-75.5 86,-75.5 86,-56.5 0,-56.5"/>
<text text-anchor="middle" x="43" y="-63.5" font-family="Helvetica,sans-Serif" font-size="10.00">collision_node.h</text>
</a>
</g>
</g>
<!-- Node1&#45;&gt;Node2 -->
<g id="edge1" class="edge"><title>Node1&#45;&gt;Node2</title>
<path fill="none" stroke="midnightblue" d="M81.7062,-105.002C71.9594,-95.4329 59.947,-83.6389 51.9131,-75.7511"/>
<polygon fill="midnightblue" stroke="midnightblue" points="79.3301,-107.575 88.9179,-112.083 84.2343,-102.58 79.3301,-107.575"/>
</g>
<!-- Node4 -->
<g id="node4" class="node"><title>Node4</title>
<g id="a_node4"><a xlink:href="a00163.html" target="_top" xlink:title="traversal_recurse.h">
<polygon fill="white" stroke="black" points="104,-56.5 104,-75.5 204,-75.5 204,-56.5 104,-56.5"/>
<text text-anchor="middle" x="154" y="-63.5" font-family="Helvetica,sans-Serif" font-size="10.00">traversal_recurse.h</text>
</a>
</g>
</g>
<!-- Node1&#45;&gt;Node4 -->
<g id="edge3" class="edge"><title>Node1&#45;&gt;Node4</title>
<path fill="none" stroke="midnightblue" d="M114.33,-105.253C124.265,-95.6731 136.588,-83.7906 144.839,-75.8339"/>
<polygon fill="midnightblue" stroke="midnightblue" points="111.766,-102.863 106.997,-112.324 116.625,-107.902 111.766,-102.863"/>
</g>
<!-- Node3 -->
<g id="node3" class="node"><title>Node3</title>
<g id="a_node3"><a xlink:href="a00131.html" target="_top" xlink:title="details.h">
<polygon fill="white" stroke="black" points="16.5,-0.5 16.5,-19.5 69.5,-19.5 69.5,-0.5 16.5,-0.5"/>
<text text-anchor="middle" x="43" y="-7.5" font-family="Helvetica,sans-Serif" font-size="10.00">details.h</text>
</a>
</g>
</g>
<!-- Node2&#45;&gt;Node3 -->
<g id="edge2" class="edge"><title>Node2&#45;&gt;Node3</title>
<path fill="none" stroke="midnightblue" d="M43,-45.8045C43,-36.9102 43,-26.7798 43,-19.7511"/>
<polygon fill="midnightblue" stroke="midnightblue" points="39.5001,-46.083 43,-56.083 46.5001,-46.083 39.5001,-46.083"/>
</g>
</g>
</svg>
