<?xml version="1.0" encoding="UTF-8" standalone="no"?>
<!DOCTYPE svg PUBLIC "-//W3C//DTD SVG 1.1//EN"
 "http://www.w3.org/Graphics/SVG/1.1/DTD/svg11.dtd">
<!-- Generated by graphviz version 2.38.0 (20140413.2041)
 -->
<!-- Title: distance_func_matrix.h Pages: 1 -->
<svg width="820pt" height="420pt"
 viewBox="0.00 0.00 819.50 420.00" xmlns="http://www.w3.org/2000/svg" xmlns:xlink="http://www.w3.org/1999/xlink">
<g id="graph0" class="graph" transform="scale(1 1) rotate(0) translate(4 416)">
<title>distance_func_matrix.h</title>
<polygon fill="white" stroke="none" points="-4,4 -4,-416 815.5,-416 815.5,4 -4,4"/>
<!-- Node1 -->
<g id="node1" class="node"><title>Node1</title>
<polygon fill="#bfbfbf" stroke="black" points="576,-392.5 576,-411.5 694,-411.5 694,-392.5 576,-392.5"/>
<text text-anchor="middle" x="635" y="-399.5" font-family="Helvetica,sans-Serif" font-size="10.00">distance_func_matrix.h</text>
</g>
<!-- Node2 -->
<g id="node2" class="node"><title>Node2</title>
<g id="a_node2"><a xlink:href="a00125.html" target="_top" xlink:title="hpp/fcl/collision_data.h">
<polygon fill="white" stroke="black" points="577,-336.5 577,-355.5 693,-355.5 693,-336.5 577,-336.5"/>
<text text-anchor="middle" x="635" y="-343.5" font-family="Helvetica,sans-Serif" font-size="10.00">hpp/fcl/collision_data.h</text>
</a>
</g>
</g>
<!-- Node1&#45;&gt;Node2 -->
<g id="edge1" class="edge"><title>Node1&#45;&gt;Node2</title>
<path fill="none" stroke="midnightblue" d="M635,-392.083C635,-385.006 635,-374.861 635,-365.986"/>
<polygon fill="midnightblue" stroke="midnightblue" points="638.5,-365.751 635,-355.751 631.5,-365.751 638.5,-365.751"/>
</g>
<!-- Node3 -->
<g id="node3" class="node"><title>Node3</title>
<g id="a_node3"><a xlink:href="a00128.html" target="_top" xlink:title="hpp/fcl/collision_object.h">
<polygon fill="white" stroke="black" points="311,-280.5 311,-299.5 435,-299.5 435,-280.5 311,-280.5"/>
<text text-anchor="middle" x="373" y="-287.5" font-family="Helvetica,sans-Serif" font-size="10.00">hpp/fcl/collision_object.h</text>
</a>
</g>
</g>
<!-- Node2&#45;&gt;Node3 -->
<g id="edge2" class="edge"><title>Node2&#45;&gt;Node3</title>
<path fill="none" stroke="midnightblue" d="M593.485,-336.444C547.588,-326.984 473.62,-311.738 424.174,-301.547"/>
<polygon fill="midnightblue" stroke="midnightblue" points="424.821,-298.107 414.32,-299.516 423.408,-304.963 424.821,-298.107"/>
</g>
<!-- Node7 -->
<g id="node7" class="node"><title>Node7</title>
<g id="a_node7"><a xlink:href="a00164.html" target="_top" xlink:title="hpp/fcl/math/vec_3f.h">
<polygon fill="white" stroke="black" points="400.5,-112.5 400.5,-131.5 511.5,-131.5 511.5,-112.5 400.5,-112.5"/>
<text text-anchor="middle" x="456" y="-119.5" font-family="Helvetica,sans-Serif" font-size="10.00">hpp/fcl/math/vec_3f.h</text>
</a>
</g>
</g>
<!-- Node2&#45;&gt;Node7 -->
<g id="edge29" class="edge"><title>Node2&#45;&gt;Node7</title>
<path fill="none" stroke="midnightblue" d="M632.218,-336.16C621.071,-300.79 580.095,-171.22 577,-168 561.105,-151.467 538.585,-140.961 517.275,-134.305"/>
<polygon fill="midnightblue" stroke="midnightblue" points="518.175,-130.923 507.597,-131.511 516.233,-137.648 518.175,-130.923"/>
</g>
<!-- Node18 -->
<g id="node18" class="node"><title>Node18</title>
<polygon fill="white" stroke="#bfbfbf" points="577,-0.5 577,-19.5 617,-19.5 617,-0.5 577,-0.5"/>
<text text-anchor="middle" x="597" y="-7.5" font-family="Helvetica,sans-Serif" font-size="10.00">limits</text>
</g>
<!-- Node2&#45;&gt;Node18 -->
<g id="edge32" class="edge"><title>Node2&#45;&gt;Node18</title>
<path fill="none" stroke="midnightblue" d="M635,-336.442C635,-317.936 635,-272.812 635,-235 635,-235 635,-235 635,-121 635,-86.8131 618.4,-49.7639 607.143,-28.5707"/>
<polygon fill="midnightblue" stroke="midnightblue" points="610.181,-26.832 602.284,-19.769 604.053,-30.2151 610.181,-26.832"/>
</g>
<!-- Node23 -->
<g id="node23" class="node"><title>Node23</title>
<polygon fill="white" stroke="#bfbfbf" points="663,-280.5 663,-299.5 707,-299.5 707,-280.5 663,-280.5"/>
<text text-anchor="middle" x="685" y="-287.5" font-family="Helvetica,sans-Serif" font-size="10.00">vector</text>
</g>
<!-- Node2&#45;&gt;Node23 -->
<g id="edge30" class="edge"><title>Node2&#45;&gt;Node23</title>
<path fill="none" stroke="midnightblue" d="M643.256,-336.083C650.465,-328.298 661.11,-316.801 669.846,-307.367"/>
<polygon fill="midnightblue" stroke="midnightblue" points="672.671,-309.467 676.897,-299.751 667.535,-304.711 672.671,-309.467"/>
</g>
<!-- Node24 -->
<g id="node24" class="node"><title>Node24</title>
<polygon fill="white" stroke="#bfbfbf" points="725,-280.5 725,-299.5 755,-299.5 755,-280.5 725,-280.5"/>
<text text-anchor="middle" x="740" y="-287.5" font-family="Helvetica,sans-Serif" font-size="10.00">set</text>
</g>
<!-- Node2&#45;&gt;Node24 -->
<g id="edge31" class="edge"><title>Node2&#45;&gt;Node24</title>
<path fill="none" stroke="midnightblue" d="M651.87,-336.324C669.207,-327.408 696.359,-313.444 715.945,-303.371"/>
<polygon fill="midnightblue" stroke="midnightblue" points="717.584,-306.464 724.876,-298.778 714.382,-300.239 717.584,-306.464"/>
</g>
<!-- Node4 -->
<g id="node4" class="node"><title>Node4</title>
<polygon fill="white" stroke="#bfbfbf" points="0,-0.5 0,-19.5 110,-19.5 110,-0.5 0,-0.5"/>
<text text-anchor="middle" x="55" y="-7.5" font-family="Helvetica,sans-Serif" font-size="10.00">hpp/fcl/deprecated.hh</text>
</g>
<!-- Node3&#45;&gt;Node4 -->
<g id="edge3" class="edge"><title>Node3&#45;&gt;Node4</title>
<path fill="none" stroke="midnightblue" d="M312.397,-280.464C275.714,-273.769 228.701,-262.417 190,-244 146.737,-223.412 104,-226.911 104,-179 104,-179 104,-179 104,-121 104,-85.4659 82.4,-48.627 67.8822,-27.8799"/>
<polygon fill="midnightblue" stroke="midnightblue" points="70.5281,-25.5675 61.8132,-19.5423 64.8686,-29.6871 70.5281,-25.5675"/>
</g>
<!-- Node5 -->
<g id="node5" class="node"><title>Node5</title>
<g id="a_node5"><a xlink:href="a00114.html" target="_top" xlink:title="hpp/fcl/BV/AABB.h">
<polygon fill="white" stroke="black" points="199.5,-224.5 199.5,-243.5 300.5,-243.5 300.5,-224.5 199.5,-224.5"/>
<text text-anchor="middle" x="250" y="-231.5" font-family="Helvetica,sans-Serif" font-size="10.00">hpp/fcl/BV/AABB.h</text>
</a>
</g>
</g>
<!-- Node3&#45;&gt;Node5 -->
<g id="edge4" class="edge"><title>Node3&#45;&gt;Node5</title>
<path fill="none" stroke="midnightblue" d="M353.51,-280.444C333.358,-271.596 301.677,-257.687 278.669,-247.586"/>
<polygon fill="midnightblue" stroke="midnightblue" points="279.962,-244.332 269.399,-243.516 277.148,-250.741 279.962,-244.332"/>
</g>
<!-- Node20 -->
<g id="node20" class="node"><title>Node20</title>
<g id="a_node20"><a xlink:href="a00155.html" target="_top" xlink:title="hpp/fcl/math/transform.h">
<polygon fill="white" stroke="black" points="445.5,-224.5 445.5,-243.5 568.5,-243.5 568.5,-224.5 445.5,-224.5"/>
<text text-anchor="middle" x="507" y="-231.5" font-family="Helvetica,sans-Serif" font-size="10.00">hpp/fcl/math/transform.h</text>
</a>
</g>
</g>
<!-- Node3&#45;&gt;Node20 -->
<g id="edge25" class="edge"><title>Node3&#45;&gt;Node20</title>
<path fill="none" stroke="midnightblue" d="M394.233,-280.444C416.384,-271.517 451.319,-257.439 476.436,-247.317"/>
<polygon fill="midnightblue" stroke="midnightblue" points="477.9,-250.501 485.867,-243.516 475.283,-244.008 477.9,-250.501"/>
</g>
<!-- Node22 -->
<g id="node22" class="node"><title>Node22</title>
<polygon fill="white" stroke="#bfbfbf" points="319,-224.5 319,-243.5 427,-243.5 427,-224.5 319,-224.5"/>
<text text-anchor="middle" x="373" y="-231.5" font-family="Helvetica,sans-Serif" font-size="10.00">boost/shared_ptr.hpp</text>
</g>
<!-- Node3&#45;&gt;Node22 -->
<g id="edge28" class="edge"><title>Node3&#45;&gt;Node22</title>
<path fill="none" stroke="midnightblue" d="M373,-280.083C373,-273.006 373,-262.861 373,-253.986"/>
<polygon fill="midnightblue" stroke="midnightblue" points="376.5,-253.751 373,-243.751 369.5,-253.751 376.5,-253.751"/>
</g>
<!-- Node6 -->
<g id="node6" class="node"><title>Node6</title>
<polygon fill="white" stroke="#bfbfbf" points="231.5,-168.5 231.5,-187.5 290.5,-187.5 290.5,-168.5 231.5,-168.5"/>
<text text-anchor="middle" x="261" y="-175.5" font-family="Helvetica,sans-Serif" font-size="10.00">stdexcept</text>
</g>
<!-- Node5&#45;&gt;Node6 -->
<g id="edge5" class="edge"><title>Node5&#45;&gt;Node6</title>
<path fill="none" stroke="midnightblue" d="M251.816,-224.083C253.274,-216.927 255.371,-206.635 257.193,-197.691"/>
<polygon fill="midnightblue" stroke="midnightblue" points="260.651,-198.248 259.217,-187.751 253.792,-196.851 260.651,-198.248"/>
</g>
<!-- Node5&#45;&gt;Node7 -->
<g id="edge6" class="edge"><title>Node5&#45;&gt;Node7</title>
<path fill="none" stroke="midnightblue" d="M240.764,-224.168C227.919,-210.821 207.758,-185.241 222,-168 243.026,-142.545 328.799,-131.339 390.406,-126.509"/>
<polygon fill="midnightblue" stroke="midnightblue" points="390.743,-129.993 400.456,-125.76 390.223,-123.013 390.743,-129.993"/>
</g>
<!-- Node19 -->
<g id="node19" class="node"><title>Node19</title>
<g id="a_node19"><a xlink:href="a00146.html" target="_top" xlink:title="hpp/fcl/math/matrix_3f.h">
<polygon fill="white" stroke="black" points="309,-168.5 309,-187.5 431,-187.5 431,-168.5 309,-168.5"/>
<text text-anchor="middle" x="370" y="-175.5" font-family="Helvetica,sans-Serif" font-size="10.00">hpp/fcl/math/matrix_3f.h</text>
</a>
</g>
</g>
<!-- Node5&#45;&gt;Node19 -->
<g id="edge23" class="edge"><title>Node5&#45;&gt;Node19</title>
<path fill="none" stroke="midnightblue" d="M269.014,-224.444C288.588,-215.636 319.308,-201.812 341.729,-191.722"/>
<polygon fill="midnightblue" stroke="midnightblue" points="343.392,-194.812 351.075,-187.516 340.519,-188.428 343.392,-194.812"/>
</g>
<!-- Node8 -->
<g id="node8" class="node"><title>Node8</title>
<g id="a_node8"><a xlink:href="a00130.html" target="_top" xlink:title="hpp/fcl/data_types.h">
<polygon fill="white" stroke="black" points="663.5,-56.5 663.5,-75.5 768.5,-75.5 768.5,-56.5 663.5,-56.5"/>
<text text-anchor="middle" x="716" y="-63.5" font-family="Helvetica,sans-Serif" font-size="10.00">hpp/fcl/data_types.h</text>
</a>
</g>
</g>
<!-- Node7&#45;&gt;Node8 -->
<g id="edge7" class="edge"><title>Node7&#45;&gt;Node8</title>
<path fill="none" stroke="midnightblue" d="M497.198,-112.444C542.649,-103.004 615.842,-87.802 664.909,-77.6111"/>
<polygon fill="midnightblue" stroke="midnightblue" points="665.916,-80.9769 674.995,-75.5164 664.492,-74.1232 665.916,-80.9769"/>
</g>
<!-- Node11 -->
<g id="node11" class="node"><title>Node11</title>
<polygon fill="white" stroke="#bfbfbf" points="503.5,-56.5 503.5,-75.5 568.5,-75.5 568.5,-56.5 503.5,-56.5"/>
<text text-anchor="middle" x="536" y="-63.5" font-family="Helvetica,sans-Serif" font-size="10.00">Eigen/Core</text>
</g>
<!-- Node7&#45;&gt;Node11 -->
<g id="edge10" class="edge"><title>Node7&#45;&gt;Node11</title>
<path fill="none" stroke="midnightblue" d="M468.853,-112.324C481.216,-103.979 500.13,-91.2122 514.737,-81.3524"/>
<polygon fill="midnightblue" stroke="midnightblue" points="516.848,-84.1503 523.179,-75.6545 512.932,-78.3483 516.848,-84.1503"/>
</g>
<!-- Node12 -->
<g id="node12" class="node"><title>Node12</title>
<polygon fill="white" stroke="#bfbfbf" points="128.5,-0.5 128.5,-19.5 215.5,-19.5 215.5,-0.5 128.5,-0.5"/>
<text text-anchor="middle" x="172" y="-7.5" font-family="Helvetica,sans-Serif" font-size="10.00">Eigen/Geometry</text>
</g>
<!-- Node7&#45;&gt;Node12 -->
<g id="edge11" class="edge"><title>Node7&#45;&gt;Node12</title>
<path fill="none" stroke="midnightblue" d="M417.109,-112.47C384.239,-104.695 336.22,-91.994 296,-76 259.312,-61.4105 219.258,-39.1656 194.881,-24.8543"/>
<polygon fill="midnightblue" stroke="midnightblue" points="196.432,-21.705 186.047,-19.6109 192.86,-27.7247 196.432,-21.705"/>
</g>
<!-- Node13 -->
<g id="node13" class="node"><title>Node13</title>
<g id="a_node13"><a xlink:href="a00154.html" target="_top" xlink:title="hpp/fcl/math/tools.h">
<polygon fill="white" stroke="black" points="305.5,-56.5 305.5,-75.5 408.5,-75.5 408.5,-56.5 305.5,-56.5"/>
<text text-anchor="middle" x="357" y="-63.5" font-family="Helvetica,sans-Serif" font-size="10.00">hpp/fcl/math/tools.h</text>
</a>
</g>
</g>
<!-- Node7&#45;&gt;Node13 -->
<g id="edge12" class="edge"><title>Node7&#45;&gt;Node13</title>
<path fill="none" stroke="midnightblue" d="M440.094,-112.324C424.362,-103.743 400.058,-90.486 381.791,-80.5224"/>
<polygon fill="midnightblue" stroke="midnightblue" points="383.322,-77.3704 372.867,-75.6545 379.97,-83.5157 383.322,-77.3704"/>
</g>
<!-- Node16 -->
<g id="node16" class="node"><title>Node16</title>
<polygon fill="white" stroke="#bfbfbf" points="431,-0.5 431,-19.5 475,-19.5 475,-0.5 431,-0.5"/>
<text text-anchor="middle" x="453" y="-7.5" font-family="Helvetica,sans-Serif" font-size="10.00">cmath</text>
</g>
<!-- Node7&#45;&gt;Node16 -->
<g id="edge20" class="edge"><title>Node7&#45;&gt;Node16</title>
<path fill="none" stroke="midnightblue" d="M455.765,-112.368C455.28,-94.617 454.164,-53.6664 453.507,-29.5974"/>
<polygon fill="midnightblue" stroke="midnightblue" points="457.006,-29.4922 453.234,-19.5914 450.008,-29.6832 457.006,-29.4922"/>
</g>
<!-- Node17 -->
<g id="node17" class="node"><title>Node17</title>
<polygon fill="white" stroke="#bfbfbf" points="493,-0.5 493,-19.5 547,-19.5 547,-0.5 493,-0.5"/>
<text text-anchor="middle" x="520" y="-7.5" font-family="Helvetica,sans-Serif" font-size="10.00">iostream</text>
</g>
<!-- Node7&#45;&gt;Node17 -->
<g id="edge21" class="edge"><title>Node7&#45;&gt;Node17</title>
<path fill="none" stroke="midnightblue" d="M461.022,-112.368C471.537,-94.2957 496.043,-52.1764 509.93,-28.3074"/>
<polygon fill="midnightblue" stroke="midnightblue" points="512.998,-29.9951 515.001,-19.5914 506.947,-26.4748 512.998,-29.9951"/>
</g>
<!-- Node7&#45;&gt;Node18 -->
<g id="edge22" class="edge"><title>Node7&#45;&gt;Node18</title>
<path fill="none" stroke="midnightblue" d="M508.359,-112.471C532.178,-106.106 558.999,-95.0681 577,-76 588.767,-63.535 593.62,-44.3018 595.617,-29.9867"/>
<polygon fill="midnightblue" stroke="midnightblue" points="599.124,-30.0935 596.683,-19.7839 592.162,-29.366 599.124,-30.0935"/>
</g>
<!-- Node9 -->
<g id="node9" class="node"><title>Node9</title>
<polygon fill="white" stroke="#bfbfbf" points="762.5,-0.5 762.5,-19.5 811.5,-19.5 811.5,-0.5 762.5,-0.5"/>
<text text-anchor="middle" x="787" y="-7.5" font-family="Helvetica,sans-Serif" font-size="10.00">cstddef</text>
</g>
<!-- Node8&#45;&gt;Node9 -->
<g id="edge8" class="edge"><title>Node8&#45;&gt;Node9</title>
<path fill="none" stroke="midnightblue" d="M727.407,-56.324C738.109,-48.1849 754.341,-35.8395 767.163,-26.0874"/>
<polygon fill="midnightblue" stroke="midnightblue" points="769.544,-28.6734 775.385,-19.8339 765.307,-23.1018 769.544,-28.6734"/>
</g>
<!-- Node10 -->
<g id="node10" class="node"><title>Node10</title>
<polygon fill="white" stroke="#bfbfbf" points="652,-0.5 652,-19.5 744,-19.5 744,-0.5 652,-0.5"/>
<text text-anchor="middle" x="698" y="-7.5" font-family="Helvetica,sans-Serif" font-size="10.00">boost/cstdint.hpp</text>
</g>
<!-- Node8&#45;&gt;Node10 -->
<g id="edge9" class="edge"><title>Node8&#45;&gt;Node10</title>
<path fill="none" stroke="midnightblue" d="M713.028,-56.083C710.616,-48.8486 707.136,-38.4087 704.132,-29.3968"/>
<polygon fill="midnightblue" stroke="midnightblue" points="707.4,-28.1311 700.917,-19.7511 700.759,-30.3447 707.4,-28.1311"/>
</g>
<!-- Node13&#45;&gt;Node4 -->
<g id="edge13" class="edge"><title>Node13&#45;&gt;Node4</title>
<path fill="none" stroke="midnightblue" d="M309.147,-56.4435C255.801,-46.9049 169.555,-31.4834 112.564,-21.293"/>
<polygon fill="midnightblue" stroke="midnightblue" points="113.089,-17.8313 102.629,-19.5164 111.857,-24.722 113.089,-17.8313"/>
</g>
<!-- Node13&#45;&gt;Node12 -->
<g id="edge16" class="edge"><title>Node13&#45;&gt;Node12</title>
<path fill="none" stroke="midnightblue" d="M327.686,-56.4435C296.158,-47.2406 245.869,-32.5617 211.014,-22.3879"/>
<polygon fill="midnightblue" stroke="midnightblue" points="211.757,-18.9587 201.177,-19.5164 209.795,-25.6783 211.757,-18.9587"/>
</g>
<!-- Node14 -->
<g id="node14" class="node"><title>Node14</title>
<polygon fill="white" stroke="#bfbfbf" points="324.5,-0.5 324.5,-19.5 413.5,-19.5 413.5,-0.5 324.5,-0.5"/>
<text text-anchor="middle" x="369" y="-7.5" font-family="Helvetica,sans-Serif" font-size="10.00">hpp/fcl/config.hh</text>
</g>
<!-- Node13&#45;&gt;Node14 -->
<g id="edge14" class="edge"><title>Node13&#45;&gt;Node14</title>
<path fill="none" stroke="midnightblue" d="M358.982,-56.083C360.572,-48.9272 362.859,-38.6353 364.846,-29.6911"/>
<polygon fill="midnightblue" stroke="midnightblue" points="368.303,-30.2722 367.055,-19.7511 361.469,-28.7537 368.303,-30.2722"/>
</g>
<!-- Node15 -->
<g id="node15" class="node"><title>Node15</title>
<polygon fill="white" stroke="#bfbfbf" points="233.5,-0.5 233.5,-19.5 306.5,-19.5 306.5,-0.5 233.5,-0.5"/>
<text text-anchor="middle" x="270" y="-7.5" font-family="Helvetica,sans-Serif" font-size="10.00">Eigen/Dense</text>
</g>
<!-- Node13&#45;&gt;Node15 -->
<g id="edge15" class="edge"><title>Node13&#45;&gt;Node15</title>
<path fill="none" stroke="midnightblue" d="M343.022,-56.324C329.45,-47.9002 308.62,-34.9709 292.675,-25.0741"/>
<polygon fill="midnightblue" stroke="midnightblue" points="294.286,-21.9544 283.943,-19.6545 290.594,-27.9019 294.286,-21.9544"/>
</g>
<!-- Node13&#45;&gt;Node16 -->
<g id="edge17" class="edge"><title>Node13&#45;&gt;Node16</title>
<path fill="none" stroke="midnightblue" d="M372.424,-56.324C387.54,-47.8215 410.815,-34.7288 428.471,-24.7975"/>
<polygon fill="midnightblue" stroke="midnightblue" points="430.614,-27.6077 437.614,-19.6545 427.183,-21.5066 430.614,-27.6077"/>
</g>
<!-- Node13&#45;&gt;Node17 -->
<g id="edge18" class="edge"><title>Node13&#45;&gt;Node17</title>
<path fill="none" stroke="midnightblue" d="M382.828,-56.4435C410.249,-47.3591 453.777,-32.9388 484.432,-22.7831"/>
<polygon fill="midnightblue" stroke="midnightblue" points="485.901,-25.9837 494.293,-19.5164 483.7,-19.3389 485.901,-25.9837"/>
</g>
<!-- Node13&#45;&gt;Node18 -->
<g id="edge19" class="edge"><title>Node13&#45;&gt;Node18</title>
<path fill="none" stroke="midnightblue" d="M395.029,-56.4435C442.65,-45.7287 523.264,-27.5907 566.855,-17.7827"/>
<polygon fill="midnightblue" stroke="midnightblue" points="567.855,-21.1452 576.843,-15.5354 566.318,-14.3159 567.855,-21.1452"/>
</g>
<!-- Node19&#45;&gt;Node7 -->
<g id="edge24" class="edge"><title>Node19&#45;&gt;Node7</title>
<path fill="none" stroke="midnightblue" d="M383.817,-168.324C397.233,-159.9 417.824,-146.971 433.586,-137.074"/>
<polygon fill="midnightblue" stroke="midnightblue" points="435.609,-139.936 442.217,-131.655 431.887,-134.008 435.609,-139.936"/>
</g>
<!-- Node20&#45;&gt;Node19 -->
<g id="edge26" class="edge"><title>Node20&#45;&gt;Node19</title>
<path fill="none" stroke="midnightblue" d="M485.292,-224.444C462.645,-215.517 426.928,-201.439 401.248,-191.317"/>
<polygon fill="midnightblue" stroke="midnightblue" points="402.193,-187.927 391.606,-187.516 399.626,-194.44 402.193,-187.927"/>
</g>
<!-- Node21 -->
<g id="node21" class="node"><title>Node21</title>
<polygon fill="white" stroke="#bfbfbf" points="449.5,-168.5 449.5,-187.5 568.5,-187.5 568.5,-168.5 449.5,-168.5"/>
<text text-anchor="middle" x="509" y="-175.5" font-family="Helvetica,sans-Serif" font-size="10.00">boost/thread/mutex.hpp</text>
</g>
<!-- Node20&#45;&gt;Node21 -->
<g id="edge27" class="edge"><title>Node20&#45;&gt;Node21</title>
<path fill="none" stroke="midnightblue" d="M507.33,-224.083C507.592,-217.006 507.968,-206.861 508.297,-197.986"/>
<polygon fill="midnightblue" stroke="midnightblue" points="511.803,-197.874 508.676,-187.751 504.808,-197.615 511.803,-197.874"/>
</g>
</g>
</svg>
