<?xml version="1.0" encoding="UTF-8" standalone="no"?>
<!DOCTYPE svg PUBLIC "-//W3C//DTD SVG 1.1//EN"
 "http://www.w3.org/Graphics/SVG/1.1/DTD/svg11.dtd">
<!-- Generated by graphviz version 2.38.0 (20140413.2041)
 -->
<!-- Title: geometric_shapes.h Pages: 1 -->
<svg width="691pt" height="330pt"
 viewBox="0.00 0.00 691.00 330.00" xmlns="http://www.w3.org/2000/svg" xmlns:xlink="http://www.w3.org/1999/xlink">
<g id="graph0" class="graph" transform="scale(1 1) rotate(0) translate(4 326)">
<title>geometric_shapes.h</title>
<polygon fill="white" stroke="none" points="-4,4 -4,-326 687,-326 687,4 -4,4"/>
<!-- Node1 -->
<g id="node1" class="node"><title>Node1</title>
<polygon fill="#bfbfbf" stroke="black" points="404,-302.5 404,-321.5 508,-321.5 508,-302.5 404,-302.5"/>
<text text-anchor="middle" x="456" y="-309.5" font-family="Helvetica,sans-Serif" font-size="10.00">geometric_shapes.h</text>
</g>
<!-- Node2 -->
<g id="node2" class="node"><title>Node2</title>
<g id="a_node2"><a xlink:href="a00159.html" target="_top" xlink:title="traversal_node_bvhs.h">
<polygon fill="white" stroke="black" points="88.5,-118 88.5,-137 203.5,-137 203.5,-118 88.5,-118"/>
<text text-anchor="middle" x="146" y="-125" font-family="Helvetica,sans-Serif" font-size="10.00">traversal_node_bvhs.h</text>
</a>
</g>
</g>
<!-- Node1&#45;&gt;Node2 -->
<g id="edge1" class="edge"><title>Node1&#45;&gt;Node2</title>
<path fill="none" stroke="midnightblue" d="M419.288,-299C396.449,-290.933 366.807,-279.355 342,-266 266.239,-225.214 184.848,-160.486 156.467,-137.201"/>
<polygon fill="midnightblue" stroke="midnightblue" points="418.348,-302.378 428.943,-302.345 420.64,-295.764 418.348,-302.378"/>
</g>
<!-- Node7 -->
<g id="node7" class="node"><title>Node7</title>
<g id="a_node7"><a xlink:href="a00140.html" target="_top" xlink:title="gjk.h">
<polygon fill="white" stroke="black" points="351,-241 351,-260 389,-260 389,-241 351,-241"/>
<text text-anchor="middle" x="370" y="-248" font-family="Helvetica,sans-Serif" font-size="10.00">gjk.h</text>
</a>
</g>
</g>
<!-- Node1&#45;&gt;Node7 -->
<g id="edge7" class="edge"><title>Node1&#45;&gt;Node7</title>
<path fill="none" stroke="midnightblue" d="M435.205,-296.613C418.665,-285.169 396.083,-269.546 382.299,-260.009"/>
<polygon fill="midnightblue" stroke="midnightblue" points="433.463,-299.664 443.678,-302.475 437.446,-293.907 433.463,-299.664"/>
</g>
<!-- Node11 -->
<g id="node11" class="node"><title>Node11</title>
<g id="a_node11"><a xlink:href="a00137.html" target="_top" xlink:title="geometric_shape_to\l_BVH_model.h">
<polygon fill="white" stroke="black" points="579,-235.5 579,-265.5 683,-265.5 683,-235.5 579,-235.5"/>
<text text-anchor="start" x="587" y="-253.5" font-family="Helvetica,sans-Serif" font-size="10.00">geometric_shape_to</text>
<text text-anchor="middle" x="631" y="-242.5" font-family="Helvetica,sans-Serif" font-size="10.00">_BVH_model.h</text>
</a>
</g>
</g>
<!-- Node1&#45;&gt;Node11 -->
<g id="edge14" class="edge"><title>Node1&#45;&gt;Node11</title>
<path fill="none" stroke="midnightblue" d="M490.617,-299.23C519.113,-289.542 559.584,-275.782 589.756,-265.523"/>
<polygon fill="midnightblue" stroke="midnightblue" points="489.414,-295.942 481.073,-302.475 491.668,-302.57 489.414,-295.942"/>
</g>
<!-- Node12 -->
<g id="node12" class="node"><title>Node12</title>
<g id="a_node12"><a xlink:href="a00139.html" target="_top" xlink:title="geometric_shapes_utility.h">
<polygon fill="white" stroke="black" points="389.5,-179.5 389.5,-198.5 522.5,-198.5 522.5,-179.5 389.5,-179.5"/>
<text text-anchor="middle" x="456" y="-186.5" font-family="Helvetica,sans-Serif" font-size="10.00">geometric_shapes_utility.h</text>
</a>
</g>
</g>
<!-- Node1&#45;&gt;Node12 -->
<g id="edge15" class="edge"><title>Node1&#45;&gt;Node12</title>
<path fill="none" stroke="midnightblue" d="M456,-291.988C456,-265.346 456,-217.995 456,-198.623"/>
<polygon fill="midnightblue" stroke="midnightblue" points="452.5,-292.298 456,-302.298 459.5,-292.298 452.5,-292.298"/>
</g>
<!-- Node13 -->
<g id="node13" class="node"><title>Node13</title>
<g id="a_node13"><a xlink:href="a00158.html" target="_top" xlink:title="traversal_node_bvh\l_shape.h">
<polygon fill="white" stroke="black" points="542.5,-112.5 542.5,-142.5 643.5,-142.5 643.5,-112.5 542.5,-112.5"/>
<text text-anchor="start" x="550.5" y="-130.5" font-family="Helvetica,sans-Serif" font-size="10.00">traversal_node_bvh</text>
<text text-anchor="middle" x="593" y="-119.5" font-family="Helvetica,sans-Serif" font-size="10.00">_shape.h</text>
</a>
</g>
</g>
<!-- Node1&#45;&gt;Node13 -->
<g id="edge20" class="edge"><title>Node1&#45;&gt;Node13</title>
<path fill="none" stroke="midnightblue" d="M468.947,-293.753C495.885,-257.869 557.516,-175.769 582.344,-142.695"/>
<polygon fill="midnightblue" stroke="midnightblue" points="465.812,-292.099 462.608,-302.198 471.41,-296.301 465.812,-292.099"/>
</g>
<!-- Node3 -->
<g id="node3" class="node"><title>Node3</title>
<g id="a_node3"><a xlink:href="a00127.html" target="_top" xlink:title="collision_node.h">
<polygon fill="white" stroke="black" points="0,-56.5 0,-75.5 86,-75.5 86,-56.5 0,-56.5"/>
<text text-anchor="middle" x="43" y="-63.5" font-family="Helvetica,sans-Serif" font-size="10.00">collision_node.h</text>
</a>
</g>
</g>
<!-- Node2&#45;&gt;Node3 -->
<g id="edge2" class="edge"><title>Node2&#45;&gt;Node3</title>
<path fill="none" stroke="midnightblue" d="M122.458,-112.901C102.542,-101.396 74.6214,-85.2667 57.73,-75.5091"/>
<polygon fill="midnightblue" stroke="midnightblue" points="120.833,-116.004 131.243,-117.975 124.334,-109.942 120.833,-116.004"/>
</g>
<!-- Node5 -->
<g id="node5" class="node"><title>Node5</title>
<g id="a_node5"><a xlink:href="a00161.html" target="_top" xlink:title="traversal_node_setup.h">
<polygon fill="white" stroke="black" points="262,-56.5 262,-75.5 380,-75.5 380,-56.5 262,-56.5"/>
<text text-anchor="middle" x="321" y="-63.5" font-family="Helvetica,sans-Serif" font-size="10.00">traversal_node_setup.h</text>
</a>
</g>
</g>
<!-- Node2&#45;&gt;Node5 -->
<g id="edge4" class="edge"><title>Node2&#45;&gt;Node5</title>
<path fill="none" stroke="midnightblue" d="M180.612,-114.732C214.629,-103.166 265.716,-85.7966 295.973,-75.5091"/>
<polygon fill="midnightblue" stroke="midnightblue" points="179.414,-111.442 171.073,-117.975 181.668,-118.07 179.414,-111.442"/>
</g>
<!-- Node6 -->
<g id="node6" class="node"><title>Node6</title>
<g id="a_node6"><a xlink:href="a00163.html" target="_top" xlink:title="traversal_recurse.h">
<polygon fill="white" stroke="black" points="104,-56.5 104,-75.5 204,-75.5 204,-56.5 104,-56.5"/>
<text text-anchor="middle" x="154" y="-63.5" font-family="Helvetica,sans-Serif" font-size="10.00">traversal_recurse.h</text>
</a>
</g>
</g>
<!-- Node2&#45;&gt;Node6 -->
<g id="edge6" class="edge"><title>Node2&#45;&gt;Node6</title>
<path fill="none" stroke="midnightblue" d="M148.512,-107.817C149.967,-96.9962 151.728,-83.898 152.856,-75.5091"/>
<polygon fill="midnightblue" stroke="midnightblue" points="145.01,-107.598 147.146,-117.975 151.948,-108.531 145.01,-107.598"/>
</g>
<!-- Node4 -->
<g id="node4" class="node"><title>Node4</title>
<g id="a_node4"><a xlink:href="a00131.html" target="_top" xlink:title="details.h">
<polygon fill="white" stroke="black" points="205.5,-0.5 205.5,-19.5 258.5,-19.5 258.5,-0.5 205.5,-0.5"/>
<text text-anchor="middle" x="232" y="-7.5" font-family="Helvetica,sans-Serif" font-size="10.00">details.h</text>
</a>
</g>
</g>
<!-- Node3&#45;&gt;Node4 -->
<g id="edge3" class="edge"><title>Node3&#45;&gt;Node4</title>
<path fill="none" stroke="midnightblue" d="M82.851,-53.614C119.662,-43.0967 173.328,-27.7635 205.248,-18.6433"/>
<polygon fill="midnightblue" stroke="midnightblue" points="81.6013,-50.3309 72.9476,-56.4435 83.5244,-57.0616 81.6013,-50.3309"/>
</g>
<!-- Node5&#45;&gt;Node4 -->
<g id="edge5" class="edge"><title>Node5&#45;&gt;Node4</title>
<path fill="none" stroke="midnightblue" d="M297.762,-50.9005C281.442,-40.9986 260.135,-28.0705 246.264,-19.6545"/>
<polygon fill="midnightblue" stroke="midnightblue" points="296.336,-54.1289 306.701,-56.324 299.967,-48.1444 296.336,-54.1289"/>
</g>
<!-- Node8 -->
<g id="node8" class="node"><title>Node8</title>
<g id="a_node8"><a xlink:href="a00147.html" target="_top" xlink:title="narrowphase.h">
<polygon fill="white" stroke="black" points="283,-179.5 283,-198.5 363,-198.5 363,-179.5 283,-179.5"/>
<text text-anchor="middle" x="323" y="-186.5" font-family="Helvetica,sans-Serif" font-size="10.00">narrowphase.h</text>
</a>
</g>
</g>
<!-- Node7&#45;&gt;Node8 -->
<g id="edge8" class="edge"><title>Node7&#45;&gt;Node8</title>
<path fill="none" stroke="midnightblue" d="M356.838,-232.838C348.016,-221.669 336.767,-207.428 329.721,-198.509"/>
<polygon fill="midnightblue" stroke="midnightblue" points="354.321,-235.297 363.266,-240.975 359.814,-230.958 354.321,-235.297"/>
</g>
<!-- Node8&#45;&gt;Node2 -->
<g id="edge9" class="edge"><title>Node8&#45;&gt;Node2</title>
<path fill="none" stroke="midnightblue" d="M287.993,-176.232C253.586,-164.666 201.916,-147.297 171.313,-137.009"/>
<polygon fill="midnightblue" stroke="midnightblue" points="287.046,-179.606 297.64,-179.475 289.277,-172.971 287.046,-179.606"/>
</g>
<!-- Node8&#45;&gt;Node4 -->
<g id="edge13" class="edge"><title>Node8&#45;&gt;Node4</title>
<path fill="none" stroke="midnightblue" d="M290.204,-175.135C275.904,-167.847 260.309,-157.284 251,-143 224.959,-103.042 228.525,-41.9184 230.911,-19.5664"/>
<polygon fill="midnightblue" stroke="midnightblue" points="288.8,-178.342 299.336,-179.458 291.795,-172.015 288.8,-178.342"/>
</g>
<!-- Node9 -->
<g id="node9" class="node"><title>Node9</title>
<g id="a_node9"><a xlink:href="a00160.html" target="_top" xlink:title="traversal_node_octree.h">
<polygon fill="white" stroke="black" points="403.5,-118 403.5,-137 524.5,-137 524.5,-118 403.5,-118"/>
<text text-anchor="middle" x="464" y="-125" font-family="Helvetica,sans-Serif" font-size="10.00">traversal_node_octree.h</text>
</a>
</g>
</g>
<!-- Node8&#45;&gt;Node9 -->
<g id="edge10" class="edge"><title>Node8&#45;&gt;Node9</title>
<path fill="none" stroke="midnightblue" d="M352.67,-175.48C380.055,-163.924 419.98,-147.076 443.836,-137.009"/>
<polygon fill="midnightblue" stroke="midnightblue" points="351.054,-172.363 343.202,-179.475 353.776,-178.812 351.054,-172.363"/>
</g>
<!-- Node10 -->
<g id="node10" class="node"><title>Node10</title>
<g id="a_node10"><a xlink:href="a00162.html" target="_top" xlink:title="traversal_node_shapes.h">
<polygon fill="white" stroke="black" points="260.5,-118 260.5,-137 385.5,-137 385.5,-118 260.5,-118"/>
<text text-anchor="middle" x="323" y="-125" font-family="Helvetica,sans-Serif" font-size="10.00">traversal_node_shapes.h</text>
</a>
</g>
</g>
<!-- Node8&#45;&gt;Node10 -->
<g id="edge11" class="edge"><title>Node8&#45;&gt;Node10</title>
<path fill="none" stroke="midnightblue" d="M323,-169.317C323,-158.496 323,-145.398 323,-137.009"/>
<polygon fill="midnightblue" stroke="midnightblue" points="319.5,-169.475 323,-179.475 326.5,-169.475 319.5,-169.475"/>
</g>
<!-- Node10&#45;&gt;Node5 -->
<g id="edge12" class="edge"><title>Node10&#45;&gt;Node5</title>
<path fill="none" stroke="midnightblue" d="M322.372,-107.817C322.008,-96.9962 321.568,-83.898 321.286,-75.5091"/>
<polygon fill="midnightblue" stroke="midnightblue" points="318.879,-108.098 322.713,-117.975 325.875,-107.863 318.879,-108.098"/>
</g>
<!-- Node12&#45;&gt;Node9 -->
<g id="edge18" class="edge"><title>Node12&#45;&gt;Node9</title>
<path fill="none" stroke="midnightblue" d="M458.512,-169.317C459.967,-158.496 461.728,-145.398 462.856,-137.009"/>
<polygon fill="midnightblue" stroke="midnightblue" points="455.01,-169.098 457.146,-179.475 461.948,-170.031 455.01,-169.098"/>
</g>
<!-- Node12&#45;&gt;Node10 -->
<g id="edge19" class="edge"><title>Node12&#45;&gt;Node10</title>
<path fill="none" stroke="midnightblue" d="M427.673,-175.327C401.853,-163.776 364.424,-147.032 342.02,-137.009"/>
<polygon fill="midnightblue" stroke="midnightblue" points="426.387,-178.586 436.944,-179.475 429.245,-172.197 426.387,-178.586"/>
</g>
<!-- Node12&#45;&gt;Node13 -->
<g id="edge16" class="edge"><title>Node12&#45;&gt;Node13</title>
<path fill="none" stroke="midnightblue" d="M484.872,-175.461C507.063,-165.823 537.71,-152.513 560.712,-142.523"/>
<polygon fill="midnightblue" stroke="midnightblue" points="483.407,-172.281 475.629,-179.475 486.195,-178.702 483.407,-172.281"/>
</g>
<!-- Node13&#45;&gt;Node5 -->
<g id="edge17" class="edge"><title>Node13&#45;&gt;Node5</title>
<path fill="none" stroke="midnightblue" d="M532.299,-111.877C467.492,-97.2534 403.639,-83.9113 362.91,-75.5356"/>
<polygon fill="midnightblue" stroke="midnightblue" points="531.758,-115.343 542.284,-114.138 533.305,-108.516 531.758,-115.343"/>
</g>
</g>
</svg>
