<?xml version="1.0" encoding="UTF-8" standalone="no"?>
<!DOCTYPE svg PUBLIC "-//W3C//DTD SVG 1.1//EN"
 "http://www.w3.org/Graphics/SVG/1.1/DTD/svg11.dtd">
<!-- Generated by graphviz version 2.38.0 (20140413.2041)
 -->
<!-- Title: kDOP.h Pages: 1 -->
<svg width="813pt" height="375pt"
 viewBox="0.00 0.00 813.00 375.00" xmlns="http://www.w3.org/2000/svg" xmlns:xlink="http://www.w3.org/1999/xlink">
<g id="graph0" class="graph" transform="scale(1 1) rotate(0) translate(4 371)">
<title>kDOP.h</title>
<polygon fill="white" stroke="none" points="-4,4 -4,-371 809,-371 809,4 -4,4"/>
<!-- Node1 -->
<g id="node1" class="node"><title>Node1</title>
<polygon fill="#bfbfbf" stroke="black" points="363.5,-347.5 363.5,-366.5 415.5,-366.5 415.5,-347.5 363.5,-347.5"/>
<text text-anchor="middle" x="389.5" y="-354.5" font-family="Helvetica,sans-Serif" font-size="10.00">kDOP.h</text>
</g>
<!-- Node2 -->
<g id="node2" class="node"><title>Node2</title>
<g id="a_node2"><a xlink:href="a00116.html" target="_top" xlink:title="BV.h">
<polygon fill="white" stroke="black" points="370.5,-291.5 370.5,-310.5 408.5,-310.5 408.5,-291.5 370.5,-291.5"/>
<text text-anchor="middle" x="389.5" y="-298.5" font-family="Helvetica,sans-Serif" font-size="10.00">BV.h</text>
</a>
</g>
</g>
<!-- Node1&#45;&gt;Node2 -->
<g id="edge1" class="edge"><title>Node1&#45;&gt;Node2</title>
<path fill="none" stroke="midnightblue" d="M389.5,-336.805C389.5,-327.91 389.5,-317.78 389.5,-310.751"/>
<polygon fill="midnightblue" stroke="midnightblue" points="386,-337.083 389.5,-347.083 393,-337.083 386,-337.083"/>
</g>
<!-- Node3 -->
<g id="node3" class="node"><title>Node3</title>
<g id="a_node3"><a xlink:href="a00118.html" target="_top" xlink:title="BV_node.h">
<polygon fill="white" stroke="black" points="292,-235.5 292,-254.5 357,-254.5 357,-235.5 292,-235.5"/>
<text text-anchor="middle" x="324.5" y="-242.5" font-family="Helvetica,sans-Serif" font-size="10.00">BV_node.h</text>
</a>
</g>
</g>
<!-- Node2&#45;&gt;Node3 -->
<g id="edge2" class="edge"><title>Node2&#45;&gt;Node3</title>
<path fill="none" stroke="midnightblue" d="M371.227,-284.82C359.582,-275.145 344.901,-262.948 335.133,-254.834"/>
<polygon fill="midnightblue" stroke="midnightblue" points="369.128,-287.626 379.057,-291.324 373.601,-282.242 369.128,-287.626"/>
</g>
<!-- Node8 -->
<g id="node8" class="node"><title>Node8</title>
<g id="a_node8"><a xlink:href="a00159.html" target="_top" xlink:title="traversal_node_bvhs.h">
<polygon fill="white" stroke="black" points="0,-118 0,-137 115,-137 115,-118 0,-118"/>
<text text-anchor="middle" x="57.5" y="-125" font-family="Helvetica,sans-Serif" font-size="10.00">traversal_node_bvhs.h</text>
</a>
</g>
</g>
<!-- Node2&#45;&gt;Node8 -->
<g id="edge18" class="edge"><title>Node2&#45;&gt;Node8</title>
<path fill="none" stroke="midnightblue" d="M361.086,-288.675C339.388,-279.877 308.837,-267.164 282.5,-255 232.336,-231.831 219.71,-226.001 171.5,-199 134.143,-178.077 91.5938,-150.81 70.6152,-137.128"/>
<polygon fill="midnightblue" stroke="midnightblue" points="359.802,-291.931 370.385,-292.426 362.42,-285.44 359.802,-291.931"/>
</g>
<!-- Node15 -->
<g id="node15" class="node"><title>Node15</title>
<g id="a_node15"><a xlink:href="a00139.html" target="_top" xlink:title="geometric_shapes_utility.h">
<polygon fill="white" stroke="black" points="457,-179.5 457,-198.5 590,-198.5 590,-179.5 457,-179.5"/>
<text text-anchor="middle" x="523.5" y="-186.5" font-family="Helvetica,sans-Serif" font-size="10.00">geometric_shapes_utility.h</text>
</a>
</g>
</g>
<!-- Node2&#45;&gt;Node15 -->
<g id="edge19" class="edge"><title>Node2&#45;&gt;Node15</title>
<path fill="none" stroke="midnightblue" d="M407.997,-284.816C436.537,-261.387 490.378,-217.19 513.034,-198.591"/>
<polygon fill="midnightblue" stroke="midnightblue" points="405.523,-282.318 400.015,-291.368 409.965,-287.729 405.523,-282.318"/>
</g>
<!-- Node16 -->
<g id="node16" class="node"><title>Node16</title>
<g id="a_node16"><a xlink:href="a00162.html" target="_top" xlink:title="traversal_node_shapes.h">
<polygon fill="white" stroke="black" points="680,-118 680,-137 805,-137 805,-118 680,-118"/>
<text text-anchor="middle" x="742.5" y="-125" font-family="Helvetica,sans-Serif" font-size="10.00">traversal_node_shapes.h</text>
</a>
</g>
</g>
<!-- Node2&#45;&gt;Node16 -->
<g id="edge24" class="edge"><title>Node2&#45;&gt;Node16</title>
<path fill="none" stroke="midnightblue" d="M416.479,-287.017C456.317,-267.833 533.215,-230.755 598.5,-199 644.057,-176.84 697.62,-150.556 724.779,-137.212"/>
<polygon fill="midnightblue" stroke="midnightblue" points="414.899,-283.893 407.408,-291.384 417.936,-290.2 414.899,-283.893"/>
</g>
<!-- Node4 -->
<g id="node4" class="node"><title>Node4</title>
<g id="a_node4"><a xlink:href="a00122.html" target="_top" xlink:title="BVH_model.h">
<polygon fill="white" stroke="black" points="286,-179.5 286,-198.5 363,-198.5 363,-179.5 286,-179.5"/>
<text text-anchor="middle" x="324.5" y="-186.5" font-family="Helvetica,sans-Serif" font-size="10.00">BVH_model.h</text>
</a>
</g>
</g>
<!-- Node3&#45;&gt;Node4 -->
<g id="edge3" class="edge"><title>Node3&#45;&gt;Node4</title>
<path fill="none" stroke="midnightblue" d="M324.5,-224.805C324.5,-215.91 324.5,-205.78 324.5,-198.751"/>
<polygon fill="midnightblue" stroke="midnightblue" points="321,-225.083 324.5,-235.083 328,-225.083 321,-225.083"/>
</g>
<!-- Node3&#45;&gt;Node8 -->
<g id="edge17" class="edge"><title>Node3&#45;&gt;Node8</title>
<path fill="none" stroke="midnightblue" d="M294.937,-231.212C240.107,-207.493 124.003,-157.268 77.4371,-137.124"/>
<polygon fill="midnightblue" stroke="midnightblue" points="293.864,-234.561 304.432,-235.319 296.643,-228.136 293.864,-234.561"/>
</g>
<!-- Node5 -->
<g id="node5" class="node"><title>Node5</title>
<g id="a_node5"><a xlink:href="a00123.html" target="_top" xlink:title="BVH_utility.h">
<polygon fill="white" stroke="black" points="329.5,-118 329.5,-137 403.5,-137 403.5,-118 329.5,-118"/>
<text text-anchor="middle" x="366.5" y="-125" font-family="Helvetica,sans-Serif" font-size="10.00">BVH_utility.h</text>
</a>
</g>
</g>
<!-- Node4&#45;&gt;Node5 -->
<g id="edge4" class="edge"><title>Node4&#45;&gt;Node5</title>
<path fill="none" stroke="midnightblue" d="M336.496,-171.005C344.344,-159.888 354.26,-145.84 360.494,-137.009"/>
<polygon fill="midnightblue" stroke="midnightblue" points="333.425,-169.287 330.518,-179.475 339.144,-173.324 333.425,-169.287"/>
</g>
<!-- Node4&#45;&gt;Node8 -->
<g id="edge7" class="edge"><title>Node4&#45;&gt;Node8</title>
<path fill="none" stroke="midnightblue" d="M276.298,-177.258C224.503,-165.716 143.234,-147.606 95.6836,-137.009"/>
<polygon fill="midnightblue" stroke="midnightblue" points="275.724,-180.716 286.245,-179.475 277.246,-173.884 275.724,-180.716"/>
</g>
<!-- Node11 -->
<g id="node11" class="node"><title>Node11</title>
<g id="a_node11"><a xlink:href="a00115.html" target="_top" xlink:title="assimp.h">
<polygon fill="white" stroke="black" points="255.5,-118 255.5,-137 311.5,-137 311.5,-118 255.5,-118"/>
<text text-anchor="middle" x="283.5" y="-125" font-family="Helvetica,sans-Serif" font-size="10.00">assimp.h</text>
</a>
</g>
</g>
<!-- Node4&#45;&gt;Node11 -->
<g id="edge12" class="edge"><title>Node4&#45;&gt;Node11</title>
<path fill="none" stroke="midnightblue" d="M312.789,-171.005C305.129,-159.888 295.448,-145.84 289.363,-137.009"/>
<polygon fill="midnightblue" stroke="midnightblue" points="310.07,-173.227 318.626,-179.475 315.834,-169.255 310.07,-173.227"/>
</g>
<!-- Node12 -->
<g id="node12" class="node"><title>Node12</title>
<g id="a_node12"><a xlink:href="a00137.html" target="_top" xlink:title="geometric_shape_to\l_BVH_model.h">
<polygon fill="white" stroke="black" points="133.5,-112.5 133.5,-142.5 237.5,-142.5 237.5,-112.5 133.5,-112.5"/>
<text text-anchor="start" x="141.5" y="-130.5" font-family="Helvetica,sans-Serif" font-size="10.00">geometric_shape_to</text>
<text text-anchor="middle" x="185.5" y="-119.5" font-family="Helvetica,sans-Serif" font-size="10.00">_BVH_model.h</text>
</a>
</g>
</g>
<!-- Node4&#45;&gt;Node12 -->
<g id="edge13" class="edge"><title>Node4&#45;&gt;Node12</title>
<path fill="none" stroke="midnightblue" d="M295.206,-175.461C272.692,-165.823 241.597,-152.513 218.26,-142.523"/>
<polygon fill="midnightblue" stroke="midnightblue" points="294.014,-178.757 304.585,-179.475 296.769,-172.322 294.014,-178.757"/>
</g>
<!-- Node13 -->
<g id="node13" class="node"><title>Node13</title>
<g id="a_node13"><a xlink:href="a00158.html" target="_top" xlink:title="traversal_node_bvh\l_shape.h">
<polygon fill="white" stroke="black" points="561,-112.5 561,-142.5 662,-142.5 662,-112.5 561,-112.5"/>
<text text-anchor="start" x="569" y="-130.5" font-family="Helvetica,sans-Serif" font-size="10.00">traversal_node_bvh</text>
<text text-anchor="middle" x="611.5" y="-119.5" font-family="Helvetica,sans-Serif" font-size="10.00">_shape.h</text>
</a>
</g>
</g>
<!-- Node4&#45;&gt;Node13 -->
<g id="edge14" class="edge"><title>Node4&#45;&gt;Node13</title>
<path fill="none" stroke="midnightblue" d="M373.165,-178.957C419.213,-170.257 490.213,-156.474 551.5,-143 554.535,-142.333 557.653,-141.63 560.795,-140.91"/>
<polygon fill="midnightblue" stroke="midnightblue" points="372.339,-175.551 363.16,-180.841 373.635,-182.43 372.339,-175.551"/>
</g>
<!-- Node14 -->
<g id="node14" class="node"><title>Node14</title>
<g id="a_node14"><a xlink:href="a00160.html" target="_top" xlink:title="traversal_node_octree.h">
<polygon fill="white" stroke="black" points="422,-118 422,-137 543,-137 543,-118 422,-118"/>
<text text-anchor="middle" x="482.5" y="-125" font-family="Helvetica,sans-Serif" font-size="10.00">traversal_node_octree.h</text>
</a>
</g>
</g>
<!-- Node4&#45;&gt;Node14 -->
<g id="edge16" class="edge"><title>Node4&#45;&gt;Node14</title>
<path fill="none" stroke="midnightblue" d="M356.544,-175.933C387.253,-164.368 432.821,-147.208 459.904,-137.009"/>
<polygon fill="midnightblue" stroke="midnightblue" points="355.262,-172.675 347.138,-179.475 357.729,-179.226 355.262,-172.675"/>
</g>
<!-- Node6 -->
<g id="node6" class="node"><title>Node6</title>
<g id="a_node6"><a xlink:href="a00161.html" target="_top" xlink:title="traversal_node_setup.h">
<polygon fill="white" stroke="black" points="307.5,-56.5 307.5,-75.5 425.5,-75.5 425.5,-56.5 307.5,-56.5"/>
<text text-anchor="middle" x="366.5" y="-63.5" font-family="Helvetica,sans-Serif" font-size="10.00">traversal_node_setup.h</text>
</a>
</g>
</g>
<!-- Node5&#45;&gt;Node6 -->
<g id="edge5" class="edge"><title>Node5&#45;&gt;Node6</title>
<path fill="none" stroke="midnightblue" d="M366.5,-107.817C366.5,-96.9962 366.5,-83.898 366.5,-75.5091"/>
<polygon fill="midnightblue" stroke="midnightblue" points="363,-107.975 366.5,-117.975 370,-107.975 363,-107.975"/>
</g>
<!-- Node7 -->
<g id="node7" class="node"><title>Node7</title>
<g id="a_node7"><a xlink:href="a00131.html" target="_top" xlink:title="details.h">
<polygon fill="white" stroke="black" points="185,-0.5 185,-19.5 238,-19.5 238,-0.5 185,-0.5"/>
<text text-anchor="middle" x="211.5" y="-7.5" font-family="Helvetica,sans-Serif" font-size="10.00">details.h</text>
</a>
</g>
</g>
<!-- Node6&#45;&gt;Node7 -->
<g id="edge6" class="edge"><title>Node6&#45;&gt;Node7</title>
<path fill="none" stroke="midnightblue" d="M332.168,-53.0392C303.003,-42.8786 261.863,-28.5457 235.945,-19.5164"/>
<polygon fill="midnightblue" stroke="midnightblue" points="331.345,-56.4587 341.94,-56.4435 333.648,-49.8484 331.345,-56.4587"/>
</g>
<!-- Node8&#45;&gt;Node6 -->
<g id="edge10" class="edge"><title>Node8&#45;&gt;Node6</title>
<path fill="none" stroke="midnightblue" d="M106.277,-115.77C112.406,-114.473 118.595,-113.188 124.5,-112 191.532,-98.5172 269.305,-84.3098 318.209,-75.5502"/>
<polygon fill="midnightblue" stroke="midnightblue" points="105.126,-112.437 96.0778,-117.949 106.588,-119.282 105.126,-112.437"/>
</g>
<!-- Node9 -->
<g id="node9" class="node"><title>Node9</title>
<g id="a_node9"><a xlink:href="a00127.html" target="_top" xlink:title="collision_node.h">
<polygon fill="white" stroke="black" points="14.5,-56.5 14.5,-75.5 100.5,-75.5 100.5,-56.5 14.5,-56.5"/>
<text text-anchor="middle" x="57.5" y="-63.5" font-family="Helvetica,sans-Serif" font-size="10.00">collision_node.h</text>
</a>
</g>
</g>
<!-- Node8&#45;&gt;Node9 -->
<g id="edge8" class="edge"><title>Node8&#45;&gt;Node9</title>
<path fill="none" stroke="midnightblue" d="M57.5,-107.817C57.5,-96.9962 57.5,-83.898 57.5,-75.5091"/>
<polygon fill="midnightblue" stroke="midnightblue" points="54.0001,-107.975 57.5,-117.975 61.0001,-107.975 54.0001,-107.975"/>
</g>
<!-- Node10 -->
<g id="node10" class="node"><title>Node10</title>
<g id="a_node10"><a xlink:href="a00163.html" target="_top" xlink:title="traversal_recurse.h">
<polygon fill="white" stroke="black" points="118.5,-56.5 118.5,-75.5 218.5,-75.5 218.5,-56.5 118.5,-56.5"/>
<text text-anchor="middle" x="168.5" y="-63.5" font-family="Helvetica,sans-Serif" font-size="10.00">traversal_recurse.h</text>
</a>
</g>
</g>
<!-- Node8&#45;&gt;Node10 -->
<g id="edge11" class="edge"><title>Node8&#45;&gt;Node10</title>
<path fill="none" stroke="midnightblue" d="M82.2898,-113.212C103.788,-101.688 134.258,-85.355 152.626,-75.5091"/>
<polygon fill="midnightblue" stroke="midnightblue" points="80.5637,-110.166 73.4036,-117.975 83.8708,-116.335 80.5637,-110.166"/>
</g>
<!-- Node9&#45;&gt;Node7 -->
<g id="edge9" class="edge"><title>Node9&#45;&gt;Node7</title>
<path fill="none" stroke="midnightblue" d="M91.6105,-53.0392C120.587,-42.8786 161.462,-28.5457 187.212,-19.5164"/>
<polygon fill="midnightblue" stroke="midnightblue" points="90.1803,-49.8317 81.9018,-56.4435 92.4966,-56.4373 90.1803,-49.8317"/>
</g>
<!-- Node13&#45;&gt;Node6 -->
<g id="edge15" class="edge"><title>Node13&#45;&gt;Node6</title>
<path fill="none" stroke="midnightblue" d="M550.991,-111.805C504.082,-100.413 440.706,-85.0215 401.768,-75.565"/>
<polygon fill="midnightblue" stroke="midnightblue" points="550.192,-115.213 560.736,-114.172 551.844,-108.41 550.192,-115.213"/>
</g>
<!-- Node15&#45;&gt;Node13 -->
<g id="edge20" class="edge"><title>Node15&#45;&gt;Node13</title>
<path fill="none" stroke="midnightblue" d="M544.592,-173.739C558.578,-164.282 576.847,-151.93 590.76,-142.523"/>
<polygon fill="midnightblue" stroke="midnightblue" points="542.432,-170.974 536.108,-179.475 546.353,-176.773 542.432,-170.974"/>
</g>
<!-- Node15&#45;&gt;Node14 -->
<g id="edge21" class="edge"><title>Node15&#45;&gt;Node14</title>
<path fill="none" stroke="midnightblue" d="M511.789,-171.005C504.129,-159.888 494.448,-145.84 488.363,-137.009"/>
<polygon fill="midnightblue" stroke="midnightblue" points="509.07,-173.227 517.626,-179.475 514.834,-169.255 509.07,-173.227"/>
</g>
<!-- Node15&#45;&gt;Node16 -->
<g id="edge22" class="edge"><title>Node15&#45;&gt;Node16</title>
<path fill="none" stroke="midnightblue" d="M564.641,-176.822C607.182,-165.264 672.666,-147.473 711.181,-137.009"/>
<polygon fill="midnightblue" stroke="midnightblue" points="563.61,-173.476 554.877,-179.475 565.445,-180.231 563.61,-173.476"/>
</g>
<!-- Node16&#45;&gt;Node6 -->
<g id="edge23" class="edge"><title>Node16&#45;&gt;Node6</title>
<path fill="none" stroke="midnightblue" d="M692.563,-115.942C685.503,-114.555 678.327,-113.2 671.5,-112 586.363,-97.0374 487.26,-83.0441 425.695,-74.752"/>
<polygon fill="midnightblue" stroke="midnightblue" points="692.276,-119.454 702.769,-117.985 693.65,-112.59 692.276,-119.454"/>
</g>
</g>
</svg>
