<?xml version="1.0" encoding="UTF-8" standalone="no"?>
<!DOCTYPE svg PUBLIC "-//W3C//DTD SVG 1.1//EN"
 "http://www.w3.org/Graphics/SVG/1.1/DTD/svg11.dtd">
<!-- Generated by graphviz version 2.38.0 (20140413.2041)
 -->
<!-- Title: traversal_node_base.h Pages: 1 -->
<svg width="602pt" height="207pt"
 viewBox="0.00 0.00 602.00 207.00" xmlns="http://www.w3.org/2000/svg" xmlns:xlink="http://www.w3.org/1999/xlink">
<g id="graph0" class="graph" transform="scale(1 1) rotate(0) translate(4 203)">
<title>traversal_node_base.h</title>
<polygon fill="white" stroke="none" points="-4,4 -4,-203 598,-203 598,4 -4,4"/>
<!-- Node1 -->
<g id="node1" class="node"><title>Node1</title>
<polygon fill="#bfbfbf" stroke="black" points="258,-179.5 258,-198.5 373,-198.5 373,-179.5 258,-179.5"/>
<text text-anchor="middle" x="315.5" y="-186.5" font-family="Helvetica,sans-Serif" font-size="10.00">traversal_node_base.h</text>
</g>
<!-- Node2 -->
<g id="node2" class="node"><title>Node2</title>
<g id="a_node2"><a xlink:href="a00127.html" target="_top" xlink:title="collision_node.h">
<polygon fill="white" stroke="black" points="258.5,-56.5 258.5,-75.5 344.5,-75.5 344.5,-56.5 258.5,-56.5"/>
<text text-anchor="middle" x="301.5" y="-63.5" font-family="Helvetica,sans-Serif" font-size="10.00">collision_node.h</text>
</a>
</g>
</g>
<!-- Node1&#45;&gt;Node2 -->
<g id="edge1" class="edge"><title>Node1&#45;&gt;Node2</title>
<path fill="none" stroke="midnightblue" d="M303.743,-170.769C298.937,-162.71 293.939,-152.755 291.5,-143 285.496,-118.986 293.496,-89.7474 298.319,-75.5531"/>
<polygon fill="midnightblue" stroke="midnightblue" points="300.809,-172.678 309.133,-179.232 306.713,-168.917 300.809,-172.678"/>
</g>
<!-- Node4 -->
<g id="node4" class="node"><title>Node4</title>
<g id="a_node4"><a xlink:href="a00159.html" target="_top" xlink:title="traversal_node_bvhs.h">
<polygon fill="white" stroke="black" points="301,-118 301,-137 416,-137 416,-118 301,-118"/>
<text text-anchor="middle" x="358.5" y="-125" font-family="Helvetica,sans-Serif" font-size="10.00">traversal_node_bvhs.h</text>
</a>
</g>
</g>
<!-- Node1&#45;&gt;Node4 -->
<g id="edge3" class="edge"><title>Node1&#45;&gt;Node4</title>
<path fill="none" stroke="midnightblue" d="M327.542,-171.338C335.613,-160.169 345.905,-145.928 352.351,-137.009"/>
<polygon fill="midnightblue" stroke="midnightblue" points="324.682,-169.32 321.661,-179.475 330.355,-173.42 324.682,-169.32"/>
</g>
<!-- Node6 -->
<g id="node6" class="node"><title>Node6</title>
<g id="a_node6"><a xlink:href="a00163.html" target="_top" xlink:title="traversal_recurse.h">
<polygon fill="white" stroke="black" points="378.5,-56.5 378.5,-75.5 478.5,-75.5 478.5,-56.5 378.5,-56.5"/>
<text text-anchor="middle" x="428.5" y="-63.5" font-family="Helvetica,sans-Serif" font-size="10.00">traversal_recurse.h</text>
</a>
</g>
</g>
<!-- Node1&#45;&gt;Node6 -->
<g id="edge13" class="edge"><title>Node1&#45;&gt;Node6</title>
<path fill="none" stroke="midnightblue" d="M375.847,-176.348C394.408,-169.704 412.968,-159.294 424.5,-143 438.85,-122.725 434.281,-91.2414 430.841,-75.9465"/>
<polygon fill="midnightblue" stroke="midnightblue" points="374.606,-173.071 366.178,-179.491 376.77,-179.728 374.606,-173.071"/>
</g>
<!-- Node7 -->
<g id="node7" class="node"><title>Node7</title>
<g id="a_node7"><a xlink:href="a00158.html" target="_top" xlink:title="traversal_node_bvh\l_shape.h">
<polygon fill="white" stroke="black" points="0,-112.5 0,-142.5 101,-142.5 101,-112.5 0,-112.5"/>
<text text-anchor="start" x="8" y="-130.5" font-family="Helvetica,sans-Serif" font-size="10.00">traversal_node_bvh</text>
<text text-anchor="middle" x="50.5" y="-119.5" font-family="Helvetica,sans-Serif" font-size="10.00">_shape.h</text>
</a>
</g>
</g>
<!-- Node1&#45;&gt;Node7 -->
<g id="edge8" class="edge"><title>Node1&#45;&gt;Node7</title>
<path fill="none" stroke="midnightblue" d="M264.855,-177.319C223.106,-168.423 162.374,-155.27 109.5,-143 106.726,-142.356 103.88,-141.687 101.01,-141.005"/>
<polygon fill="midnightblue" stroke="midnightblue" points="264.271,-180.773 274.78,-179.43 265.727,-173.926 264.271,-180.773"/>
</g>
<!-- Node8 -->
<g id="node8" class="node"><title>Node8</title>
<g id="a_node8"><a xlink:href="a00160.html" target="_top" xlink:title="traversal_node_octree.h">
<polygon fill="white" stroke="black" points="473,-118 473,-137 594,-137 594,-118 473,-118"/>
<text text-anchor="middle" x="533.5" y="-125" font-family="Helvetica,sans-Serif" font-size="10.00">traversal_node_octree.h</text>
</a>
</g>
</g>
<!-- Node1&#45;&gt;Node8 -->
<g id="edge10" class="edge"><title>Node1&#45;&gt;Node8</title>
<path fill="none" stroke="midnightblue" d="M356.453,-176.822C398.8,-165.264 463.985,-147.473 502.324,-137.009"/>
<polygon fill="midnightblue" stroke="midnightblue" points="355.46,-173.465 346.734,-179.475 357.303,-180.218 355.46,-173.465"/>
</g>
<!-- Node9 -->
<g id="node9" class="node"><title>Node9</title>
<g id="a_node9"><a xlink:href="a00162.html" target="_top" xlink:title="traversal_node_shapes.h">
<polygon fill="white" stroke="black" points="119,-118 119,-137 244,-137 244,-118 119,-118"/>
<text text-anchor="middle" x="181.5" y="-125" font-family="Helvetica,sans-Serif" font-size="10.00">traversal_node_shapes.h</text>
</a>
</g>
</g>
<!-- Node1&#45;&gt;Node9 -->
<g id="edge11" class="edge"><title>Node1&#45;&gt;Node9</title>
<path fill="none" stroke="midnightblue" d="M286.96,-175.327C260.945,-163.776 223.235,-147.032 200.663,-137.009"/>
<polygon fill="midnightblue" stroke="midnightblue" points="285.741,-178.616 296.301,-179.475 288.582,-172.218 285.741,-178.616"/>
</g>
<!-- Node3 -->
<g id="node3" class="node"><title>Node3</title>
<g id="a_node3"><a xlink:href="a00131.html" target="_top" xlink:title="details.h">
<polygon fill="white" stroke="black" points="215,-0.5 215,-19.5 268,-19.5 268,-0.5 215,-0.5"/>
<text text-anchor="middle" x="241.5" y="-7.5" font-family="Helvetica,sans-Serif" font-size="10.00">details.h</text>
</a>
</g>
</g>
<!-- Node2&#45;&gt;Node3 -->
<g id="edge2" class="edge"><title>Node2&#45;&gt;Node3</title>
<path fill="none" stroke="midnightblue" d="M284.319,-49.5372C273.621,-39.9087 260.244,-27.8694 251.315,-19.8339"/>
<polygon fill="midnightblue" stroke="midnightblue" points="282.086,-52.2358 291.86,-56.324 286.768,-47.0327 282.086,-52.2358"/>
</g>
<!-- Node4&#45;&gt;Node2 -->
<g id="edge4" class="edge"><title>Node4&#45;&gt;Node2</title>
<path fill="none" stroke="midnightblue" d="M343.17,-110.497C332.381,-99.2356 318.365,-84.6044 309.652,-75.5091"/>
<polygon fill="midnightblue" stroke="midnightblue" points="340.888,-113.175 350.333,-117.975 345.943,-108.333 340.888,-113.175"/>
</g>
<!-- Node5 -->
<g id="node5" class="node"><title>Node5</title>
<g id="a_node5"><a xlink:href="a00161.html" target="_top" xlink:title="traversal_node_setup.h">
<polygon fill="white" stroke="black" points="122.5,-56.5 122.5,-75.5 240.5,-75.5 240.5,-56.5 122.5,-56.5"/>
<text text-anchor="middle" x="181.5" y="-63.5" font-family="Helvetica,sans-Serif" font-size="10.00">traversal_node_setup.h</text>
</a>
</g>
</g>
<!-- Node4&#45;&gt;Node5 -->
<g id="edge5" class="edge"><title>Node4&#45;&gt;Node5</title>
<path fill="none" stroke="midnightblue" d="M323.493,-114.732C289.086,-103.166 237.416,-85.7966 206.813,-75.5091"/>
<polygon fill="midnightblue" stroke="midnightblue" points="322.546,-118.106 333.14,-117.975 324.777,-111.471 322.546,-118.106"/>
</g>
<!-- Node4&#45;&gt;Node6 -->
<g id="edge7" class="edge"><title>Node4&#45;&gt;Node6</title>
<path fill="none" stroke="midnightblue" d="M376.179,-111.473C389.568,-100.093 407.477,-84.8694 418.489,-75.5091"/>
<polygon fill="midnightblue" stroke="midnightblue" points="373.882,-108.832 368.529,-117.975 378.415,-114.165 373.882,-108.832"/>
</g>
<!-- Node5&#45;&gt;Node3 -->
<g id="edge6" class="edge"><title>Node5&#45;&gt;Node3</title>
<path fill="none" stroke="midnightblue" d="M198.681,-49.5372C209.379,-39.9087 222.756,-27.8694 231.685,-19.8339"/>
<polygon fill="midnightblue" stroke="midnightblue" points="196.232,-47.0327 191.14,-56.324 200.914,-52.2358 196.232,-47.0327"/>
</g>
<!-- Node7&#45;&gt;Node5 -->
<g id="edge9" class="edge"><title>Node7&#45;&gt;Node5</title>
<path fill="none" stroke="midnightblue" d="M90.7289,-108.228C114.584,-97.3933 143.72,-84.1596 162.438,-75.6578"/>
<polygon fill="midnightblue" stroke="midnightblue" points="89.2026,-105.077 81.5452,-112.399 92.0974,-111.451 89.2026,-105.077"/>
</g>
<!-- Node9&#45;&gt;Node5 -->
<g id="edge12" class="edge"><title>Node9&#45;&gt;Node5</title>
<path fill="none" stroke="midnightblue" d="M181.5,-107.817C181.5,-96.9962 181.5,-83.898 181.5,-75.5091"/>
<polygon fill="midnightblue" stroke="midnightblue" points="178,-107.975 181.5,-117.975 185,-107.975 178,-107.975"/>
</g>
</g>
</svg>
