<?xml version="1.0" encoding="UTF-8" standalone="no"?>
<!DOCTYPE svg PUBLIC "-//W3C//DTD SVG 1.1//EN"
 "http://www.w3.org/Graphics/SVG/1.1/DTD/svg11.dtd">
<!-- Generated by graphviz version 2.38.0 (20140413.2041)
 -->
<!-- Title: traversal_node_shapes.h Pages: 1 -->
<svg width="1090pt" height="576pt"
 viewBox="0.00 0.00 1090.10 576.00" xmlns="http://www.w3.org/2000/svg" xmlns:xlink="http://www.w3.org/1999/xlink">
<g id="graph0" class="graph" transform="scale(1 1) rotate(0) translate(4 572)">
<title>traversal_node_shapes.h</title>
<polygon fill="white" stroke="none" points="-4,4 -4,-572 1086.1,-572 1086.1,4 -4,4"/>
<!-- Node1 -->
<g id="node1" class="node"><title>Node1</title>
<polygon fill="#bfbfbf" stroke="black" points="451.5,-548.5 451.5,-567.5 576.5,-567.5 576.5,-548.5 451.5,-548.5"/>
<text text-anchor="middle" x="514" y="-555.5" font-family="Helvetica,sans-Serif" font-size="10.00">traversal_node_shapes.h</text>
</g>
<!-- Node2 -->
<g id="node2" class="node"><title>Node2</title>
<g id="a_node2"><a xlink:href="a00125.html" target="_top" xlink:title="hpp/fcl/collision_data.h">
<polygon fill="white" stroke="black" points="222,-353 222,-372 338,-372 338,-353 222,-353"/>
<text text-anchor="middle" x="280" y="-360" font-family="Helvetica,sans-Serif" font-size="10.00">hpp/fcl/collision_data.h</text>
</a>
</g>
</g>
<!-- Node1&#45;&gt;Node2 -->
<g id="edge1" class="edge"><title>Node1&#45;&gt;Node2</title>
<path fill="none" stroke="midnightblue" d="M478.242,-548.414C429.925,-534.896 344.604,-503.905 299,-445 284.925,-426.82 280.991,-399.973 280.039,-382.121"/>
<polygon fill="midnightblue" stroke="midnightblue" points="283.537,-382 279.767,-372.099 276.539,-382.19 283.537,-382"/>
</g>
<!-- Node25 -->
<g id="node25" class="node"><title>Node25</title>
<g id="a_node25"><a xlink:href="a00157.html" target="_top" xlink:title="hpp/fcl/traversal/traversal\l_node_base.h">
<polygon fill="white" stroke="black" points="308.5,-414.5 308.5,-444.5 435.5,-444.5 435.5,-414.5 308.5,-414.5"/>
<text text-anchor="start" x="316.5" y="-432.5" font-family="Helvetica,sans-Serif" font-size="10.00">hpp/fcl/traversal/traversal</text>
<text text-anchor="middle" x="372" y="-421.5" font-family="Helvetica,sans-Serif" font-size="10.00">_node_base.h</text>
</a>
</g>
</g>
<!-- Node1&#45;&gt;Node25 -->
<g id="edge33" class="edge"><title>Node1&#45;&gt;Node25</title>
<path fill="none" stroke="midnightblue" d="M504.24,-548.305C482.058,-528.545 427.333,-479.793 395.67,-451.586"/>
<polygon fill="midnightblue" stroke="midnightblue" points="397.946,-448.926 388.151,-444.888 393.29,-454.153 397.946,-448.926"/>
</g>
<!-- Node26 -->
<g id="node26" class="node"><title>Node26</title>
<g id="a_node26"><a xlink:href="a00147.html" target="_top" xlink:title="hpp/fcl/narrowphase\l/narrowphase.h">
<polygon fill="white" stroke="black" points="568,-481.5 568,-511.5 672,-511.5 672,-481.5 568,-481.5"/>
<text text-anchor="start" x="576" y="-499.5" font-family="Helvetica,sans-Serif" font-size="10.00">hpp/fcl/narrowphase</text>
<text text-anchor="middle" x="620" y="-488.5" font-family="Helvetica,sans-Serif" font-size="10.00">/narrowphase.h</text>
</a>
</g>
</g>
<!-- Node1&#45;&gt;Node26 -->
<g id="edge37" class="edge"><title>Node1&#45;&gt;Node26</title>
<path fill="none" stroke="midnightblue" d="M529.187,-548.475C544.013,-540.153 567.076,-527.207 586.249,-516.445"/>
<polygon fill="midnightblue" stroke="midnightblue" points="588.011,-519.47 595.018,-511.523 584.585,-513.366 588.011,-519.47"/>
</g>
<!-- Node31 -->
<g id="node31" class="node"><title>Node31</title>
<g id="a_node31"><a xlink:href="a00139.html" target="_top" xlink:title="hpp/fcl/shape/geometric\l_shapes_utility.h">
<polygon fill="white" stroke="black" points="453.5,-414.5 453.5,-444.5 574.5,-444.5 574.5,-414.5 453.5,-414.5"/>
<text text-anchor="start" x="461.5" y="-432.5" font-family="Helvetica,sans-Serif" font-size="10.00">hpp/fcl/shape/geometric</text>
<text text-anchor="middle" x="514" y="-421.5" font-family="Helvetica,sans-Serif" font-size="10.00">_shapes_utility.h</text>
</a>
</g>
</g>
<!-- Node1&#45;&gt;Node31 -->
<g id="edge45" class="edge"><title>Node1&#45;&gt;Node31</title>
<path fill="none" stroke="midnightblue" d="M514,-548.305C514,-529.298 514,-483.47 514,-454.9"/>
<polygon fill="midnightblue" stroke="midnightblue" points="517.5,-454.888 514,-444.888 510.5,-454.888 517.5,-454.888"/>
</g>
<!-- Node32 -->
<g id="node32" class="node"><title>Node32</title>
<g id="a_node32"><a xlink:href="a00116.html" target="_top" xlink:title="hpp/fcl/BV/BV.h">
<polygon fill="white" stroke="black" points="715.5,-353 715.5,-372 802.5,-372 802.5,-353 715.5,-353"/>
<text text-anchor="middle" x="759" y="-360" font-family="Helvetica,sans-Serif" font-size="10.00">hpp/fcl/BV/BV.h</text>
</a>
</g>
</g>
<!-- Node1&#45;&gt;Node32 -->
<g id="edge67" class="edge"><title>Node1&#45;&gt;Node32</title>
<path fill="none" stroke="midnightblue" d="M576.609,-552.267C610.55,-546.919 651.467,-535.648 681,-512 723.718,-477.795 745.751,-413.787 754.449,-382.163"/>
<polygon fill="midnightblue" stroke="midnightblue" points="757.938,-382.651 757.063,-372.092 751.162,-380.892 757.938,-382.651"/>
</g>
<!-- Node3 -->
<g id="node3" class="node"><title>Node3</title>
<g id="a_node3"><a xlink:href="a00128.html" target="_top" xlink:title="hpp/fcl/collision_object.h">
<polygon fill="white" stroke="black" points="336,-291.5 336,-310.5 460,-310.5 460,-291.5 336,-291.5"/>
<text text-anchor="middle" x="398" y="-298.5" font-family="Helvetica,sans-Serif" font-size="10.00">hpp/fcl/collision_object.h</text>
</a>
</g>
</g>
<!-- Node2&#45;&gt;Node3 -->
<g id="edge2" class="edge"><title>Node2&#45;&gt;Node3</title>
<path fill="none" stroke="midnightblue" d="M296.907,-352.975C316.534,-343.078 349.131,-326.642 371.99,-315.115"/>
<polygon fill="midnightblue" stroke="midnightblue" points="373.772,-318.137 381.125,-310.509 370.62,-311.886 373.772,-318.137"/>
</g>
<!-- Node7 -->
<g id="node7" class="node"><title>Node7</title>
<g id="a_node7"><a xlink:href="a00164.html" target="_top" xlink:title="hpp/fcl/math/vec_3f.h">
<polygon fill="white" stroke="black" points="509.5,-112.5 509.5,-131.5 620.5,-131.5 620.5,-112.5 509.5,-112.5"/>
<text text-anchor="middle" x="565" y="-119.5" font-family="Helvetica,sans-Serif" font-size="10.00">hpp/fcl/math/vec_3f.h</text>
</a>
</g>
</g>
<!-- Node2&#45;&gt;Node7 -->
<g id="edge29" class="edge"><title>Node2&#45;&gt;Node7</title>
<path fill="none" stroke="midnightblue" d="M275.288,-352.69C268.714,-339.219 258.311,-312.77 265,-291 273.834,-262.248 279.92,-254.287 303,-235 367.635,-180.988 462.2,-149.277 518.283,-134.096"/>
<polygon fill="midnightblue" stroke="midnightblue" points="519.181,-137.479 527.955,-131.539 517.392,-130.711 519.181,-137.479"/>
</g>
<!-- Node18 -->
<g id="node18" class="node"><title>Node18</title>
<polygon fill="white" stroke="#bfbfbf" points="188,-0.5 188,-19.5 228,-19.5 228,-0.5 188,-0.5"/>
<text text-anchor="middle" x="208" y="-7.5" font-family="Helvetica,sans-Serif" font-size="10.00">limits</text>
</g>
<!-- Node2&#45;&gt;Node18 -->
<g id="edge32" class="edge"><title>Node2&#45;&gt;Node18</title>
<path fill="none" stroke="midnightblue" d="M269.684,-352.8C249.776,-334.973 208,-292.077 208,-246 208,-246 208,-246 208,-121 208,-88.948 208,-51.6426 208,-29.7489"/>
<polygon fill="midnightblue" stroke="midnightblue" points="211.5,-29.5577 208,-19.5578 204.5,-29.5578 211.5,-29.5577"/>
</g>
<!-- Node23 -->
<g id="node23" class="node"><title>Node23</title>
<polygon fill="white" stroke="#bfbfbf" points="274,-291.5 274,-310.5 318,-310.5 318,-291.5 274,-291.5"/>
<text text-anchor="middle" x="296" y="-298.5" font-family="Helvetica,sans-Serif" font-size="10.00">vector</text>
</g>
<!-- Node2&#45;&gt;Node23 -->
<g id="edge30" class="edge"><title>Node2&#45;&gt;Node23</title>
<path fill="none" stroke="midnightblue" d="M282.292,-352.975C284.574,-344.492 288.147,-331.204 291.073,-320.322"/>
<polygon fill="midnightblue" stroke="midnightblue" points="294.495,-321.075 293.712,-310.509 287.735,-319.257 294.495,-321.075"/>
</g>
<!-- Node24 -->
<g id="node24" class="node"><title>Node24</title>
<polygon fill="white" stroke="#bfbfbf" points="150,-291.5 150,-310.5 180,-310.5 180,-291.5 150,-291.5"/>
<text text-anchor="middle" x="165" y="-298.5" font-family="Helvetica,sans-Serif" font-size="10.00">set</text>
</g>
<!-- Node2&#45;&gt;Node24 -->
<g id="edge31" class="edge"><title>Node2&#45;&gt;Node24</title>
<path fill="none" stroke="midnightblue" d="M263.523,-352.975C244.155,-342.954 211.83,-326.23 189.517,-314.685"/>
<polygon fill="midnightblue" stroke="midnightblue" points="190.834,-311.425 180.344,-309.939 187.617,-317.643 190.834,-311.425"/>
</g>
<!-- Node4 -->
<g id="node4" class="node"><title>Node4</title>
<polygon fill="white" stroke="#bfbfbf" points="246,-0.5 246,-19.5 356,-19.5 356,-0.5 246,-0.5"/>
<text text-anchor="middle" x="301" y="-7.5" font-family="Helvetica,sans-Serif" font-size="10.00">hpp/fcl/deprecated.hh</text>
</g>
<!-- Node3&#45;&gt;Node4 -->
<g id="edge3" class="edge"><title>Node3&#45;&gt;Node4</title>
<path fill="none" stroke="midnightblue" d="M363.131,-291.415C342.842,-284.703 318.325,-273.349 303,-255 282.198,-230.093 284,-216.951 284,-184.5 284,-184.5 284,-184.5 284,-121 284,-88.5826 291.3,-51.4151 296.333,-29.6439"/>
<polygon fill="midnightblue" stroke="midnightblue" points="299.772,-30.3102 298.707,-19.769 292.966,-28.6736 299.772,-30.3102"/>
</g>
<!-- Node5 -->
<g id="node5" class="node"><title>Node5</title>
<g id="a_node5"><a xlink:href="a00114.html" target="_top" xlink:title="hpp/fcl/BV/AABB.h">
<polygon fill="white" stroke="black" points="617.5,-235.5 617.5,-254.5 718.5,-254.5 718.5,-235.5 617.5,-235.5"/>
<text text-anchor="middle" x="668" y="-242.5" font-family="Helvetica,sans-Serif" font-size="10.00">hpp/fcl/BV/AABB.h</text>
</a>
</g>
</g>
<!-- Node3&#45;&gt;Node5 -->
<g id="edge4" class="edge"><title>Node3&#45;&gt;Node5</title>
<path fill="none" stroke="midnightblue" d="M440.782,-291.444C488.179,-281.964 564.626,-266.675 615.583,-256.483"/>
<polygon fill="midnightblue" stroke="midnightblue" points="616.298,-259.91 625.418,-254.516 614.926,-253.046 616.298,-259.91"/>
</g>
<!-- Node20 -->
<g id="node20" class="node"><title>Node20</title>
<g id="a_node20"><a xlink:href="a00155.html" target="_top" xlink:title="hpp/fcl/math/transform.h">
<polygon fill="white" stroke="black" points="476.5,-235.5 476.5,-254.5 599.5,-254.5 599.5,-235.5 476.5,-235.5"/>
<text text-anchor="middle" x="538" y="-242.5" font-family="Helvetica,sans-Serif" font-size="10.00">hpp/fcl/math/transform.h</text>
</a>
</g>
</g>
<!-- Node3&#45;&gt;Node20 -->
<g id="edge25" class="edge"><title>Node3&#45;&gt;Node20</title>
<path fill="none" stroke="midnightblue" d="M420.183,-291.444C443.428,-282.478 480.149,-268.314 506.415,-258.183"/>
<polygon fill="midnightblue" stroke="midnightblue" points="507.85,-261.381 515.92,-254.516 505.331,-254.85 507.85,-261.381"/>
</g>
<!-- Node22 -->
<g id="node22" class="node"><title>Node22</title>
<polygon fill="white" stroke="#bfbfbf" points="312,-235.5 312,-254.5 420,-254.5 420,-235.5 312,-235.5"/>
<text text-anchor="middle" x="366" y="-242.5" font-family="Helvetica,sans-Serif" font-size="10.00">boost/shared_ptr.hpp</text>
</g>
<!-- Node3&#45;&gt;Node22 -->
<g id="edge28" class="edge"><title>Node3&#45;&gt;Node22</title>
<path fill="none" stroke="midnightblue" d="M392.716,-291.083C388.289,-283.613 381.837,-272.724 376.382,-263.52"/>
<polygon fill="midnightblue" stroke="midnightblue" points="379.295,-261.57 371.186,-254.751 373.273,-265.138 379.295,-261.57"/>
</g>
<!-- Node6 -->
<g id="node6" class="node"><title>Node6</title>
<polygon fill="white" stroke="#bfbfbf" points="793.5,-174 793.5,-193 852.5,-193 852.5,-174 793.5,-174"/>
<text text-anchor="middle" x="823" y="-181" font-family="Helvetica,sans-Serif" font-size="10.00">stdexcept</text>
</g>
<!-- Node5&#45;&gt;Node6 -->
<g id="edge5" class="edge"><title>Node5&#45;&gt;Node6</title>
<path fill="none" stroke="midnightblue" d="M690.208,-235.475C716.681,-225.313 761.114,-208.256 791.22,-196.7"/>
<polygon fill="midnightblue" stroke="midnightblue" points="792.752,-199.86 800.833,-193.009 790.243,-193.325 792.752,-199.86"/>
</g>
<!-- Node5&#45;&gt;Node7 -->
<g id="edge6" class="edge"><title>Node5&#45;&gt;Node7</title>
<path fill="none" stroke="midnightblue" d="M661.102,-235.486C649.613,-221.347 625.764,-192.187 605,-168 596.727,-158.364 587.297,-147.738 579.672,-139.233"/>
<polygon fill="midnightblue" stroke="midnightblue" points="582.048,-136.641 572.757,-131.549 576.845,-141.324 582.048,-136.641"/>
</g>
<!-- Node19 -->
<g id="node19" class="node"><title>Node19</title>
<g id="a_node19"><a xlink:href="a00146.html" target="_top" xlink:title="hpp/fcl/math/matrix_3f.h">
<polygon fill="white" stroke="black" points="653,-174 653,-193 775,-193 775,-174 653,-174"/>
<text text-anchor="middle" x="714" y="-181" font-family="Helvetica,sans-Serif" font-size="10.00">hpp/fcl/math/matrix_3f.h</text>
</a>
</g>
</g>
<!-- Node5&#45;&gt;Node19 -->
<g id="edge23" class="edge"><title>Node5&#45;&gt;Node19</title>
<path fill="none" stroke="midnightblue" d="M674.591,-235.475C681.491,-226.55 692.502,-212.307 701.134,-201.143"/>
<polygon fill="midnightblue" stroke="midnightblue" points="704.074,-203.061 707.422,-193.009 698.536,-198.78 704.074,-203.061"/>
</g>
<!-- Node8 -->
<g id="node8" class="node"><title>Node8</title>
<g id="a_node8"><a xlink:href="a00130.html" target="_top" xlink:title="hpp/fcl/data_types.h">
<polygon fill="white" stroke="black" points="71.5,-56.5 71.5,-75.5 176.5,-75.5 176.5,-56.5 71.5,-56.5"/>
<text text-anchor="middle" x="124" y="-63.5" font-family="Helvetica,sans-Serif" font-size="10.00">hpp/fcl/data_types.h</text>
</a>
</g>
</g>
<!-- Node7&#45;&gt;Node8 -->
<g id="edge7" class="edge"><title>Node7&#45;&gt;Node8</title>
<path fill="none" stroke="midnightblue" d="M509.147,-114.161C426.741,-104.07 273.056,-85.2518 186.826,-74.693"/>
<polygon fill="midnightblue" stroke="midnightblue" points="187.006,-71.1889 176.654,-73.4475 186.155,-78.137 187.006,-71.1889"/>
</g>
<!-- Node11 -->
<g id="node11" class="node"><title>Node11</title>
<polygon fill="white" stroke="#bfbfbf" points="391.5,-56.5 391.5,-75.5 456.5,-75.5 456.5,-56.5 391.5,-56.5"/>
<text text-anchor="middle" x="424" y="-63.5" font-family="Helvetica,sans-Serif" font-size="10.00">Eigen/Core</text>
</g>
<!-- Node7&#45;&gt;Node11 -->
<g id="edge10" class="edge"><title>Node7&#45;&gt;Node11</title>
<path fill="none" stroke="midnightblue" d="M542.658,-112.444C519.247,-103.478 482.264,-89.314 455.81,-79.1827"/>
<polygon fill="midnightblue" stroke="midnightblue" points="456.828,-75.8245 446.237,-75.5164 454.324,-82.3615 456.828,-75.8245"/>
</g>
<!-- Node12 -->
<g id="node12" class="node"><title>Node12</title>
<polygon fill="white" stroke="#bfbfbf" points="706.5,-0.5 706.5,-19.5 793.5,-19.5 793.5,-0.5 706.5,-0.5"/>
<text text-anchor="middle" x="750" y="-7.5" font-family="Helvetica,sans-Serif" font-size="10.00">Eigen/Geometry</text>
</g>
<!-- Node7&#45;&gt;Node12 -->
<g id="edge11" class="edge"><title>Node7&#45;&gt;Node12</title>
<path fill="none" stroke="midnightblue" d="M581.19,-112.491C597.849,-103.649 624.474,-89.2717 647,-76 675.437,-59.2453 707.489,-38.7567 728.176,-25.3167"/>
<polygon fill="midnightblue" stroke="midnightblue" points="730.362,-28.0699 736.827,-19.6763 726.538,-22.2061 730.362,-28.0699"/>
</g>
<!-- Node13 -->
<g id="node13" class="node"><title>Node13</title>
<g id="a_node13"><a xlink:href="a00154.html" target="_top" xlink:title="hpp/fcl/math/tools.h">
<polygon fill="white" stroke="black" points="513.5,-56.5 513.5,-75.5 616.5,-75.5 616.5,-56.5 513.5,-56.5"/>
<text text-anchor="middle" x="565" y="-63.5" font-family="Helvetica,sans-Serif" font-size="10.00">hpp/fcl/math/tools.h</text>
</a>
</g>
</g>
<!-- Node7&#45;&gt;Node13 -->
<g id="edge12" class="edge"><title>Node7&#45;&gt;Node13</title>
<path fill="none" stroke="midnightblue" d="M565,-112.083C565,-105.006 565,-94.8611 565,-85.9865"/>
<polygon fill="midnightblue" stroke="midnightblue" points="568.5,-85.751 565,-75.7511 561.5,-85.7511 568.5,-85.751"/>
</g>
<!-- Node16 -->
<g id="node16" class="node"><title>Node16</title>
<polygon fill="white" stroke="#bfbfbf" points="374,-0.5 374,-19.5 418,-19.5 418,-0.5 374,-0.5"/>
<text text-anchor="middle" x="396" y="-7.5" font-family="Helvetica,sans-Serif" font-size="10.00">cmath</text>
</g>
<!-- Node7&#45;&gt;Node16 -->
<g id="edge20" class="edge"><title>Node7&#45;&gt;Node16</title>
<path fill="none" stroke="midnightblue" d="M551.739,-112.368C522.738,-93.4924 453.437,-48.385 417.873,-25.2367"/>
<polygon fill="midnightblue" stroke="midnightblue" points="419.49,-22.1132 409.2,-19.5914 415.671,-27.9799 419.49,-22.1132"/>
</g>
<!-- Node17 -->
<g id="node17" class="node"><title>Node17</title>
<polygon fill="white" stroke="#bfbfbf" points="634,-0.5 634,-19.5 688,-19.5 688,-0.5 634,-0.5"/>
<text text-anchor="middle" x="661" y="-7.5" font-family="Helvetica,sans-Serif" font-size="10.00">iostream</text>
</g>
<!-- Node7&#45;&gt;Node17 -->
<g id="edge21" class="edge"><title>Node7&#45;&gt;Node17</title>
<path fill="none" stroke="midnightblue" d="M579.713,-112.463C592.793,-104.334 611.83,-91.1209 625,-76 637.288,-61.892 647.207,-42.9071 653.498,-29.0992"/>
<polygon fill="midnightblue" stroke="midnightblue" points="656.8,-30.2819 657.58,-19.7158 650.381,-27.4892 656.8,-30.2819"/>
</g>
<!-- Node7&#45;&gt;Node18 -->
<g id="edge22" class="edge"><title>Node7&#45;&gt;Node18</title>
<path fill="none" stroke="midnightblue" d="M524.65,-112.496C487.322,-104.296 430.457,-90.9531 382,-76 330.397,-60.0761 271.846,-37.1698 237.521,-23.2311"/>
<polygon fill="midnightblue" stroke="midnightblue" points="238.676,-19.9219 228.095,-19.3808 236.029,-26.4022 238.676,-19.9219"/>
</g>
<!-- Node9 -->
<g id="node9" class="node"><title>Node9</title>
<polygon fill="white" stroke="#bfbfbf" points="110.5,-0.5 110.5,-19.5 159.5,-19.5 159.5,-0.5 110.5,-0.5"/>
<text text-anchor="middle" x="135" y="-7.5" font-family="Helvetica,sans-Serif" font-size="10.00">cstddef</text>
</g>
<!-- Node8&#45;&gt;Node9 -->
<g id="edge8" class="edge"><title>Node8&#45;&gt;Node9</title>
<path fill="none" stroke="midnightblue" d="M125.816,-56.083C127.274,-48.9272 129.371,-38.6353 131.193,-29.6911"/>
<polygon fill="midnightblue" stroke="midnightblue" points="134.651,-30.2485 133.217,-19.7511 127.792,-28.8512 134.651,-30.2485"/>
</g>
<!-- Node10 -->
<g id="node10" class="node"><title>Node10</title>
<polygon fill="white" stroke="#bfbfbf" points="0,-0.5 0,-19.5 92,-19.5 92,-0.5 0,-0.5"/>
<text text-anchor="middle" x="46" y="-7.5" font-family="Helvetica,sans-Serif" font-size="10.00">boost/cstdint.hpp</text>
</g>
<!-- Node8&#45;&gt;Node10 -->
<g id="edge9" class="edge"><title>Node8&#45;&gt;Node10</title>
<path fill="none" stroke="midnightblue" d="M111.468,-56.324C99.4141,-47.979 80.9732,-35.2122 66.7313,-25.3524"/>
<polygon fill="midnightblue" stroke="midnightblue" points="68.7151,-22.469 58.5009,-19.6545 64.7306,-28.2243 68.7151,-22.469"/>
</g>
<!-- Node13&#45;&gt;Node4 -->
<g id="edge13" class="edge"><title>Node13&#45;&gt;Node4</title>
<path fill="none" stroke="midnightblue" d="M523.168,-56.4435C476.921,-46.9839 402.388,-31.7384 352.564,-21.5472"/>
<polygon fill="midnightblue" stroke="midnightblue" points="353.134,-18.0915 342.636,-19.5164 351.732,-24.9495 353.134,-18.0915"/>
</g>
<!-- Node13&#45;&gt;Node12 -->
<g id="edge16" class="edge"><title>Node13&#45;&gt;Node12</title>
<path fill="none" stroke="midnightblue" d="M594.314,-56.4435C625.842,-47.2406 676.131,-32.5617 710.986,-22.3879"/>
<polygon fill="midnightblue" stroke="midnightblue" points="712.205,-25.6783 720.823,-19.5164 710.243,-18.9587 712.205,-25.6783"/>
</g>
<!-- Node14 -->
<g id="node14" class="node"><title>Node14</title>
<polygon fill="white" stroke="#bfbfbf" points="435.5,-0.5 435.5,-19.5 524.5,-19.5 524.5,-0.5 435.5,-0.5"/>
<text text-anchor="middle" x="480" y="-7.5" font-family="Helvetica,sans-Serif" font-size="10.00">hpp/fcl/config.hh</text>
</g>
<!-- Node13&#45;&gt;Node14 -->
<g id="edge14" class="edge"><title>Node13&#45;&gt;Node14</title>
<path fill="none" stroke="midnightblue" d="M551.343,-56.324C538.084,-47.9002 517.732,-34.9709 502.154,-25.0741"/>
<polygon fill="midnightblue" stroke="midnightblue" points="503.94,-22.0626 493.623,-19.6545 500.187,-27.9711 503.94,-22.0626"/>
</g>
<!-- Node15 -->
<g id="node15" class="node"><title>Node15</title>
<polygon fill="white" stroke="#bfbfbf" points="542.5,-0.5 542.5,-19.5 615.5,-19.5 615.5,-0.5 542.5,-0.5"/>
<text text-anchor="middle" x="579" y="-7.5" font-family="Helvetica,sans-Serif" font-size="10.00">Eigen/Dense</text>
</g>
<!-- Node13&#45;&gt;Node15 -->
<g id="edge15" class="edge"><title>Node13&#45;&gt;Node15</title>
<path fill="none" stroke="midnightblue" d="M567.312,-56.083C569.167,-48.9272 571.835,-38.6353 574.154,-29.6911"/>
<polygon fill="midnightblue" stroke="midnightblue" points="577.609,-30.3094 576.731,-19.7511 570.834,-28.5527 577.609,-30.3094"/>
</g>
<!-- Node13&#45;&gt;Node16 -->
<g id="edge17" class="edge"><title>Node13&#45;&gt;Node16</title>
<path fill="none" stroke="midnightblue" d="M538.221,-56.4435C508.239,-46.8634 459.685,-31.3492 427.798,-21.1604"/>
<polygon fill="midnightblue" stroke="midnightblue" points="428.666,-17.7635 418.076,-18.0537 426.536,-24.4314 428.666,-17.7635"/>
</g>
<!-- Node13&#45;&gt;Node17 -->
<g id="edge18" class="edge"><title>Node13&#45;&gt;Node17</title>
<path fill="none" stroke="midnightblue" d="M580.424,-56.324C595.54,-47.8215 618.815,-34.7288 636.471,-24.7975"/>
<polygon fill="midnightblue" stroke="midnightblue" points="638.614,-27.6077 645.614,-19.6545 635.183,-21.5066 638.614,-27.6077"/>
</g>
<!-- Node13&#45;&gt;Node18 -->
<g id="edge19" class="edge"><title>Node13&#45;&gt;Node18</title>
<path fill="none" stroke="midnightblue" d="M513.404,-60.5705C450.43,-54.5787 340.64,-42.2449 238.069,-19.9162"/>
<polygon fill="midnightblue" stroke="midnightblue" points="238.687,-16.4684 228.167,-17.724 237.174,-23.3029 238.687,-16.4684"/>
</g>
<!-- Node19&#45;&gt;Node7 -->
<g id="edge24" class="edge"><title>Node19&#45;&gt;Node7</title>
<path fill="none" stroke="midnightblue" d="M692.652,-173.975C667.314,-163.857 624.862,-146.905 595.929,-135.351"/>
<polygon fill="midnightblue" stroke="midnightblue" points="596.893,-131.967 586.308,-131.509 594.297,-138.468 596.893,-131.967"/>
</g>
<!-- Node20&#45;&gt;Node19 -->
<g id="edge26" class="edge"><title>Node20&#45;&gt;Node19</title>
<path fill="none" stroke="midnightblue" d="M563.217,-235.475C593.668,-225.18 645.049,-207.81 679.243,-196.25"/>
<polygon fill="midnightblue" stroke="midnightblue" points="680.478,-199.527 688.83,-193.009 678.236,-192.896 680.478,-199.527"/>
</g>
<!-- Node21 -->
<g id="node21" class="node"><title>Node21</title>
<polygon fill="white" stroke="#bfbfbf" points="477.5,-174 477.5,-193 596.5,-193 596.5,-174 477.5,-174"/>
<text text-anchor="middle" x="537" y="-181" font-family="Helvetica,sans-Serif" font-size="10.00">boost/thread/mutex.hpp</text>
</g>
<!-- Node20&#45;&gt;Node21 -->
<g id="edge27" class="edge"><title>Node20&#45;&gt;Node21</title>
<path fill="none" stroke="midnightblue" d="M537.857,-235.475C537.716,-227.08 537.495,-213.981 537.314,-203.163"/>
<polygon fill="midnightblue" stroke="midnightblue" points="540.811,-202.949 537.143,-193.009 533.812,-203.067 540.811,-202.949"/>
</g>
<!-- Node25&#45;&gt;Node2 -->
<g id="edge36" class="edge"><title>Node25&#45;&gt;Node2</title>
<path fill="none" stroke="midnightblue" d="M352.037,-414.396C336.752,-403.597 315.748,-388.756 300.363,-377.887"/>
<polygon fill="midnightblue" stroke="midnightblue" points="302.228,-374.919 292.041,-372.007 298.188,-380.636 302.228,-374.919"/>
</g>
<!-- Node25&#45;&gt;Node8 -->
<g id="edge34" class="edge"><title>Node25&#45;&gt;Node8</title>
<path fill="none" stroke="midnightblue" d="M308.268,-423.518C234.199,-413.844 122,-385.422 122,-302 122,-302 122,-302 122,-182.5 122,-148.359 122.884,-108.549 123.477,-85.7074"/>
<polygon fill="midnightblue" stroke="midnightblue" points="126.976,-85.7831 123.747,-75.6925 119.979,-85.5946 126.976,-85.7831"/>
</g>
<!-- Node25&#45;&gt;Node20 -->
<g id="edge35" class="edge"><title>Node25&#45;&gt;Node20</title>
<path fill="none" stroke="midnightblue" d="M384.75,-414.483C414.973,-381.256 490.842,-297.846 523.106,-262.375"/>
<polygon fill="midnightblue" stroke="midnightblue" points="525.839,-264.571 529.979,-254.819 520.661,-259.861 525.839,-264.571"/>
</g>
<!-- Node27 -->
<g id="node27" class="node"><title>Node27</title>
<g id="a_node27"><a xlink:href="a00140.html" target="_top" xlink:title="hpp/fcl/narrowphase\l/gjk.h">
<polygon fill="white" stroke="black" points="593,-414.5 593,-444.5 697,-444.5 697,-414.5 593,-414.5"/>
<text text-anchor="start" x="601" y="-432.5" font-family="Helvetica,sans-Serif" font-size="10.00">hpp/fcl/narrowphase</text>
<text text-anchor="middle" x="645" y="-421.5" font-family="Helvetica,sans-Serif" font-size="10.00">/gjk.h</text>
</a>
</g>
</g>
<!-- Node26&#45;&gt;Node27 -->
<g id="edge38" class="edge"><title>Node26&#45;&gt;Node27</title>
<path fill="none" stroke="midnightblue" d="M625.425,-481.396C628.504,-473.389 632.438,-463.162 635.97,-453.978"/>
<polygon fill="midnightblue" stroke="midnightblue" points="639.263,-455.166 639.586,-444.577 632.729,-452.654 639.263,-455.166"/>
</g>
<!-- Node27&#45;&gt;Node20 -->
<g id="edge44" class="edge"><title>Node27&#45;&gt;Node20</title>
<path fill="none" stroke="midnightblue" d="M645.05,-414.157C644.447,-387.387 639.769,-329.087 612,-291 601.681,-276.847 585.432,-266.257 570.786,-258.918"/>
<polygon fill="midnightblue" stroke="midnightblue" points="572.011,-255.627 561.471,-254.56 569.045,-261.968 572.011,-255.627"/>
</g>
<!-- Node28 -->
<g id="node28" class="node"><title>Node28</title>
<g id="a_node28"><a xlink:href="a00138.html" target="_top" xlink:title="hpp/fcl/shape/geometric\l_shapes.h">
<polygon fill="white" stroke="black" points="495.5,-347.5 495.5,-377.5 616.5,-377.5 616.5,-347.5 495.5,-347.5"/>
<text text-anchor="start" x="503.5" y="-365.5" font-family="Helvetica,sans-Serif" font-size="10.00">hpp/fcl/shape/geometric</text>
<text text-anchor="middle" x="556" y="-354.5" font-family="Helvetica,sans-Serif" font-size="10.00">_shapes.h</text>
</a>
</g>
</g>
<!-- Node27&#45;&gt;Node28 -->
<g id="edge39" class="edge"><title>Node27&#45;&gt;Node28</title>
<path fill="none" stroke="midnightblue" d="M625.688,-414.396C613.326,-405.367 597.096,-393.514 583.41,-383.518"/>
<polygon fill="midnightblue" stroke="midnightblue" points="585.414,-380.648 575.274,-377.577 581.285,-386.301 585.414,-380.648"/>
</g>
<!-- Node28&#45;&gt;Node3 -->
<g id="edge41" class="edge"><title>Node28&#45;&gt;Node3</title>
<path fill="none" stroke="midnightblue" d="M518.556,-347.399C491.81,-337.327 456.179,-323.909 430.601,-314.277"/>
<polygon fill="midnightblue" stroke="midnightblue" points="431.582,-310.907 420.99,-310.658 429.115,-317.458 431.582,-310.907"/>
</g>
<!-- Node28&#45;&gt;Node7 -->
<g id="edge42" class="edge"><title>Node28&#45;&gt;Node7</title>
<path fill="none" stroke="midnightblue" d="M538.107,-347.209C516.453,-328.643 481.136,-293.96 467,-255 460.529,-237.165 447.786,-199.147 468,-168 478.318,-152.102 495.834,-141.727 513.165,-134.999"/>
<polygon fill="midnightblue" stroke="midnightblue" points="514.462,-138.253 522.728,-131.624 512.133,-131.652 514.462,-138.253"/>
</g>
<!-- Node29 -->
<g id="node29" class="node"><title>Node29</title>
<polygon fill="white" stroke="#bfbfbf" points="969.5,-168.5 969.5,-198.5 1080.5,-198.5 1080.5,-168.5 969.5,-168.5"/>
<text text-anchor="start" x="977.5" y="-186.5" font-family="Helvetica,sans-Serif" font-size="10.00">boost/math/constants</text>
<text text-anchor="middle" x="1025" y="-175.5" font-family="Helvetica,sans-Serif" font-size="10.00">/constants.hpp</text>
</g>
<!-- Node28&#45;&gt;Node29 -->
<g id="edge40" class="edge"><title>Node28&#45;&gt;Node29</title>
<path fill="none" stroke="midnightblue" d="M616.632,-355.593C751.178,-342.469 1063,-311.962 1064,-311 1088.53,-287.503 1084.43,-266.607 1072,-235 1067.64,-223.907 1059.56,-213.806 1051.32,-205.602"/>
<polygon fill="midnightblue" stroke="midnightblue" points="1053.52,-202.866 1043.81,-198.628 1048.76,-207.997 1053.52,-202.866"/>
</g>
<!-- Node30 -->
<g id="node30" class="node"><title>Node30</title>
<polygon fill="white" stroke="#bfbfbf" points="554.5,-291.5 554.5,-310.5 603.5,-310.5 603.5,-291.5 554.5,-291.5"/>
<text text-anchor="middle" x="579" y="-298.5" font-family="Helvetica,sans-Serif" font-size="10.00">string.h</text>
</g>
<!-- Node28&#45;&gt;Node30 -->
<g id="edge43" class="edge"><title>Node28&#45;&gt;Node30</title>
<path fill="none" stroke="midnightblue" d="M561.451,-347.399C564.621,-339.199 568.648,-328.781 572.044,-319.994"/>
<polygon fill="midnightblue" stroke="midnightblue" points="575.312,-321.247 575.653,-310.658 568.783,-318.723 575.312,-321.247"/>
</g>
<!-- Node31&#45;&gt;Node23 -->
<g id="edge46" class="edge"><title>Node31&#45;&gt;Node23</title>
<path fill="none" stroke="midnightblue" d="M489.837,-414.479C447.685,-390.019 361.232,-339.853 319.529,-315.653"/>
<polygon fill="midnightblue" stroke="midnightblue" points="321.279,-312.622 310.873,-310.63 317.765,-318.677 321.279,-312.622"/>
</g>
<!-- Node31&#45;&gt;Node28 -->
<g id="edge47" class="edge"><title>Node31&#45;&gt;Node28</title>
<path fill="none" stroke="midnightblue" d="M523.113,-414.396C528.452,-406.134 535.319,-395.507 541.396,-386.102"/>
<polygon fill="midnightblue" stroke="midnightblue" points="544.417,-387.875 546.904,-377.577 538.537,-384.076 544.417,-387.875"/>
</g>
<!-- Node31&#45;&gt;Node32 -->
<g id="edge48" class="edge"><title>Node31&#45;&gt;Node32</title>
<path fill="none" stroke="midnightblue" d="M566.86,-414.476C611.824,-402.547 675.534,-385.644 717.058,-374.628"/>
<polygon fill="midnightblue" stroke="midnightblue" points="718.085,-377.976 726.854,-372.029 716.29,-371.21 718.085,-377.976"/>
</g>
<!-- Node32&#45;&gt;Node5 -->
<g id="edge52" class="edge"><title>Node32&#45;&gt;Node5</title>
<path fill="none" stroke="midnightblue" d="M752.16,-352.819C737.14,-333.755 701.049,-287.947 681.361,-262.958"/>
<polygon fill="midnightblue" stroke="midnightblue" points="683.857,-260.471 674.919,-254.782 678.359,-264.803 683.857,-260.471"/>
</g>
<!-- Node32&#45;&gt;Node20 -->
<g id="edge66" class="edge"><title>Node32&#45;&gt;Node20</title>
<path fill="none" stroke="midnightblue" d="M748.78,-352.933C731.301,-338.602 694.14,-309.521 659,-291 632.686,-277.131 601.136,-265.548 576.851,-257.608"/>
<polygon fill="midnightblue" stroke="midnightblue" points="577.85,-254.253 567.259,-254.537 575.716,-260.92 577.85,-254.253"/>
</g>
<!-- Node33 -->
<g id="node33" class="node"><title>Node33</title>
<g id="a_node33"><a xlink:href="a00142.html" target="_top" xlink:title="hpp/fcl/BV/kDOP.h">
<polygon fill="white" stroke="black" points="736.5,-235.5 736.5,-254.5 837.5,-254.5 837.5,-235.5 736.5,-235.5"/>
<text text-anchor="middle" x="787" y="-242.5" font-family="Helvetica,sans-Serif" font-size="10.00">hpp/fcl/BV/kDOP.h</text>
</a>
</g>
</g>
<!-- Node32&#45;&gt;Node33 -->
<g id="edge49" class="edge"><title>Node32&#45;&gt;Node33</title>
<path fill="none" stroke="midnightblue" d="M761.105,-352.819C765.625,-334.173 776.347,-289.943 782.483,-264.632"/>
<polygon fill="midnightblue" stroke="midnightblue" points="785.916,-265.325 784.871,-254.782 779.113,-263.676 785.916,-265.325"/>
</g>
<!-- Node34 -->
<g id="node34" class="node"><title>Node34</title>
<g id="a_node34"><a xlink:href="a00148.html" target="_top" xlink:title="hpp/fcl/BV/OBB.h">
<polygon fill="white" stroke="black" points="855.5,-235.5 855.5,-254.5 950.5,-254.5 950.5,-235.5 855.5,-235.5"/>
<text text-anchor="middle" x="903" y="-242.5" font-family="Helvetica,sans-Serif" font-size="10.00">hpp/fcl/BV/OBB.h</text>
</a>
</g>
</g>
<!-- Node32&#45;&gt;Node34 -->
<g id="edge53" class="edge"><title>Node32&#45;&gt;Node34</title>
<path fill="none" stroke="midnightblue" d="M802.655,-356.247C832.33,-350.316 870.049,-337.717 892,-311 902.549,-298.161 904.67,-278.978 904.531,-264.776"/>
<polygon fill="midnightblue" stroke="midnightblue" points="908.021,-264.494 904.052,-254.671 901.029,-264.826 908.021,-264.494"/>
</g>
<!-- Node35 -->
<g id="node35" class="node"><title>Node35</title>
<g id="a_node35"><a xlink:href="a00153.html" target="_top" xlink:title="hpp/fcl/BV/RSS.h">
<polygon fill="white" stroke="black" points="968.5,-235.5 968.5,-254.5 1063.5,-254.5 1063.5,-235.5 968.5,-235.5"/>
<text text-anchor="middle" x="1016" y="-242.5" font-family="Helvetica,sans-Serif" font-size="10.00">hpp/fcl/BV/RSS.h</text>
</a>
</g>
</g>
<!-- Node32&#45;&gt;Node35 -->
<g id="edge56" class="edge"><title>Node32&#45;&gt;Node35</title>
<path fill="none" stroke="midnightblue" d="M802.789,-360.915C878.989,-358.869 1031.02,-349.888 1064,-311 1078.1,-294.375 1057.4,-273.984 1038.95,-260.524"/>
<polygon fill="midnightblue" stroke="midnightblue" points="1040.72,-257.492 1030.5,-254.693 1036.74,-263.254 1040.72,-257.492"/>
</g>
<!-- Node36 -->
<g id="node36" class="node"><title>Node36</title>
<g id="a_node36"><a xlink:href="a00150.html" target="_top" xlink:title="hpp/fcl/BV/OBBRSS.h">
<polygon fill="white" stroke="black" points="939,-291.5 939,-310.5 1055,-310.5 1055,-291.5 939,-291.5"/>
<text text-anchor="middle" x="997" y="-298.5" font-family="Helvetica,sans-Serif" font-size="10.00">hpp/fcl/BV/OBBRSS.h</text>
</a>
</g>
</g>
<!-- Node32&#45;&gt;Node36 -->
<g id="edge61" class="edge"><title>Node32&#45;&gt;Node36</title>
<path fill="none" stroke="midnightblue" d="M793.1,-352.975C835.251,-342.437 907.055,-324.486 953.234,-312.941"/>
<polygon fill="midnightblue" stroke="midnightblue" points="954.111,-316.33 962.964,-310.509 952.413,-309.539 954.111,-316.33"/>
</g>
<!-- Node37 -->
<g id="node37" class="node"><title>Node37</title>
<g id="a_node37"><a xlink:href="a00143.html" target="_top" xlink:title="hpp/fcl/BV/kIOS.h">
<polygon fill="white" stroke="black" points="787,-291.5 787,-310.5 883,-310.5 883,-291.5 787,-291.5"/>
<text text-anchor="middle" x="835" y="-298.5" font-family="Helvetica,sans-Serif" font-size="10.00">hpp/fcl/BV/kIOS.h</text>
</a>
</g>
</g>
<!-- Node32&#45;&gt;Node37 -->
<g id="edge64" class="edge"><title>Node32&#45;&gt;Node37</title>
<path fill="none" stroke="midnightblue" d="M769.889,-352.975C781.966,-343.52 801.667,-328.096 816.24,-316.687"/>
<polygon fill="midnightblue" stroke="midnightblue" points="818.415,-319.429 824.131,-310.509 814.1,-313.918 818.415,-319.429"/>
</g>
<!-- Node33&#45;&gt;Node6 -->
<g id="edge50" class="edge"><title>Node33&#45;&gt;Node6</title>
<path fill="none" stroke="midnightblue" d="M792.158,-235.475C797.451,-226.727 805.835,-212.869 812.527,-201.809"/>
<polygon fill="midnightblue" stroke="midnightblue" points="815.67,-203.377 817.852,-193.009 809.68,-199.753 815.67,-203.377"/>
</g>
<!-- Node33&#45;&gt;Node19 -->
<g id="edge51" class="edge"><title>Node33&#45;&gt;Node19</title>
<path fill="none" stroke="midnightblue" d="M776.541,-235.475C765.049,-226.108 746.37,-210.884 732.413,-199.508"/>
<polygon fill="midnightblue" stroke="midnightblue" points="734.402,-196.614 724.44,-193.009 729.98,-202.04 734.402,-196.614"/>
</g>
<!-- Node34&#45;&gt;Node7 -->
<g id="edge54" class="edge"><title>Node34&#45;&gt;Node7</title>
<path fill="none" stroke="midnightblue" d="M900.891,-235.227C896.5,-219.022 884.751,-184.543 861,-168 824.847,-142.818 706.772,-131.254 631.129,-126.315"/>
<polygon fill="midnightblue" stroke="midnightblue" points="630.95,-122.797 620.75,-125.661 630.51,-129.783 630.95,-122.797"/>
</g>
<!-- Node34&#45;&gt;Node19 -->
<g id="edge55" class="edge"><title>Node34&#45;&gt;Node19</title>
<path fill="none" stroke="midnightblue" d="M875.921,-235.475C843.08,-225.136 787.57,-207.661 750.852,-196.102"/>
<polygon fill="midnightblue" stroke="midnightblue" points="751.618,-192.674 741.029,-193.009 749.516,-199.35 751.618,-192.674"/>
</g>
<!-- Node35&#45;&gt;Node6 -->
<g id="edge57" class="edge"><title>Node35&#45;&gt;Node6</title>
<path fill="none" stroke="midnightblue" d="M988.348,-235.475C954.812,-225.136 898.127,-207.661 860.632,-196.102"/>
<polygon fill="midnightblue" stroke="midnightblue" points="861.188,-192.611 850.601,-193.009 859.126,-199.3 861.188,-192.611"/>
</g>
<!-- Node35&#45;&gt;Node7 -->
<g id="edge58" class="edge"><title>Node35&#45;&gt;Node7</title>
<path fill="none" stroke="midnightblue" d="M1005.11,-235.455C983.92,-219.317 935.072,-184.499 888,-168 802.414,-138.002 697.474,-127.926 630.908,-124.586"/>
<polygon fill="midnightblue" stroke="midnightblue" points="630.714,-121.073 620.563,-124.106 630.39,-128.066 630.714,-121.073"/>
</g>
<!-- Node35&#45;&gt;Node19 -->
<g id="edge59" class="edge"><title>Node35&#45;&gt;Node19</title>
<path fill="none" stroke="midnightblue" d="M971.058,-235.457C924.296,-226.528 848.967,-212.029 784,-199 777.771,-197.751 771.235,-196.422 764.763,-195.094"/>
<polygon fill="midnightblue" stroke="midnightblue" points="765.199,-191.611 754.699,-193.021 763.787,-198.467 765.199,-191.611"/>
</g>
<!-- Node35&#45;&gt;Node29 -->
<g id="edge60" class="edge"><title>Node35&#45;&gt;Node29</title>
<path fill="none" stroke="midnightblue" d="M1017.29,-235.475C1018.35,-228.471 1019.9,-218.192 1021.34,-208.696"/>
<polygon fill="midnightblue" stroke="midnightblue" points="1024.84,-208.934 1022.88,-198.523 1017.92,-207.887 1024.84,-208.934"/>
</g>
<!-- Node36&#45;&gt;Node34 -->
<g id="edge62" class="edge"><title>Node36&#45;&gt;Node34</title>
<path fill="none" stroke="midnightblue" d="M981.897,-291.324C967.097,-282.822 944.306,-269.729 927.018,-259.797"/>
<polygon fill="midnightblue" stroke="midnightblue" points="928.48,-256.601 918.065,-254.655 924.993,-262.671 928.48,-256.601"/>
</g>
<!-- Node36&#45;&gt;Node35 -->
<g id="edge63" class="edge"><title>Node36&#45;&gt;Node35</title>
<path fill="none" stroke="midnightblue" d="M1000.14,-291.083C1002.68,-283.849 1006.36,-273.409 1009.53,-264.397"/>
<polygon fill="midnightblue" stroke="midnightblue" points="1012.9,-265.346 1012.92,-254.751 1006.3,-263.023 1012.9,-265.346"/>
</g>
<!-- Node37&#45;&gt;Node34 -->
<g id="edge65" class="edge"><title>Node37&#45;&gt;Node34</title>
<path fill="none" stroke="midnightblue" d="M845.925,-291.324C856.175,-283.185 871.721,-270.839 884.001,-261.087"/>
<polygon fill="midnightblue" stroke="midnightblue" points="886.221,-263.794 891.876,-254.834 881.868,-258.312 886.221,-263.794"/>
</g>
</g>
</svg>
