<?xml version="1.0" encoding="UTF-8" standalone="no"?>
<!DOCTYPE svg PUBLIC "-//W3C//DTD SVG 1.1//EN"
 "http://www.w3.org/Graphics/SVG/1.1/DTD/svg11.dtd">
<!-- Generated by graphviz version 2.38.0 (20140413.2041)
 -->
<!-- Title: tools.h Pages: 1 -->
<svg width="614pt" height="84pt"
 viewBox="0.00 0.00 614.00 84.00" xmlns="http://www.w3.org/2000/svg" xmlns:xlink="http://www.w3.org/1999/xlink">
<g id="graph0" class="graph" transform="scale(1 1) rotate(0) translate(4 80)">
<title>tools.h</title>
<polygon fill="white" stroke="none" points="-4,4 -4,-80 610,-80 610,4 -4,4"/>
<!-- Node1 -->
<g id="node1" class="node"><title>Node1</title>
<polygon fill="#bfbfbf" stroke="black" points="347,-56.5 347,-75.5 393,-75.5 393,-56.5 347,-56.5"/>
<text text-anchor="middle" x="370" y="-63.5" font-family="Helvetica,sans-Serif" font-size="10.00">tools.h</text>
</g>
<!-- Node2 -->
<g id="node2" class="node"><title>Node2</title>
<polygon fill="white" stroke="#bfbfbf" points="0,-0.5 0,-19.5 110,-19.5 110,-0.5 0,-0.5"/>
<text text-anchor="middle" x="55" y="-7.5" font-family="Helvetica,sans-Serif" font-size="10.00">hpp/fcl/deprecated.hh</text>
</g>
<!-- Node1&#45;&gt;Node2 -->
<g id="edge1" class="edge"><title>Node1&#45;&gt;Node2</title>
<path fill="none" stroke="midnightblue" d="M346.837,-61.0293C298.424,-52.7299 185.194,-33.3189 114.862,-21.262"/>
<polygon fill="midnightblue" stroke="midnightblue" points="115.256,-17.7787 104.809,-19.5386 114.074,-24.678 115.256,-17.7787"/>
</g>
<!-- Node3 -->
<g id="node3" class="node"><title>Node3</title>
<polygon fill="white" stroke="#bfbfbf" points="128.5,-0.5 128.5,-19.5 217.5,-19.5 217.5,-0.5 128.5,-0.5"/>
<text text-anchor="middle" x="173" y="-7.5" font-family="Helvetica,sans-Serif" font-size="10.00">hpp/fcl/config.hh</text>
</g>
<!-- Node1&#45;&gt;Node3 -->
<g id="edge2" class="edge"><title>Node1&#45;&gt;Node3</title>
<path fill="none" stroke="midnightblue" d="M346.628,-58.5934C313.931,-49.6307 254.04,-33.2141 213.872,-22.2035"/>
<polygon fill="midnightblue" stroke="midnightblue" points="214.683,-18.7967 204.113,-19.5285 212.832,-25.5477 214.683,-18.7967"/>
</g>
<!-- Node4 -->
<g id="node4" class="node"><title>Node4</title>
<polygon fill="white" stroke="#bfbfbf" points="235.5,-0.5 235.5,-19.5 308.5,-19.5 308.5,-0.5 235.5,-0.5"/>
<text text-anchor="middle" x="272" y="-7.5" font-family="Helvetica,sans-Serif" font-size="10.00">Eigen/Dense</text>
</g>
<!-- Node1&#45;&gt;Node4 -->
<g id="edge3" class="edge"><title>Node1&#45;&gt;Node4</title>
<path fill="none" stroke="midnightblue" d="M354.255,-56.324C338.681,-47.7428 314.623,-34.486 296.541,-24.5224"/>
<polygon fill="midnightblue" stroke="midnightblue" points="298.154,-21.4152 287.706,-19.6545 294.776,-27.546 298.154,-21.4152"/>
</g>
<!-- Node5 -->
<g id="node5" class="node"><title>Node5</title>
<polygon fill="white" stroke="#bfbfbf" points="326.5,-0.5 326.5,-19.5 413.5,-19.5 413.5,-0.5 326.5,-0.5"/>
<text text-anchor="middle" x="370" y="-7.5" font-family="Helvetica,sans-Serif" font-size="10.00">Eigen/Geometry</text>
</g>
<!-- Node1&#45;&gt;Node5 -->
<g id="edge4" class="edge"><title>Node1&#45;&gt;Node5</title>
<path fill="none" stroke="midnightblue" d="M370,-56.083C370,-49.0059 370,-38.8611 370,-29.9865"/>
<polygon fill="midnightblue" stroke="midnightblue" points="373.5,-29.751 370,-19.7511 366.5,-29.7511 373.5,-29.751"/>
</g>
<!-- Node6 -->
<g id="node6" class="node"><title>Node6</title>
<polygon fill="white" stroke="#bfbfbf" points="432,-0.5 432,-19.5 476,-19.5 476,-0.5 432,-0.5"/>
<text text-anchor="middle" x="454" y="-7.5" font-family="Helvetica,sans-Serif" font-size="10.00">cmath</text>
</g>
<!-- Node1&#45;&gt;Node6 -->
<g id="edge5" class="edge"><title>Node1&#45;&gt;Node6</title>
<path fill="none" stroke="midnightblue" d="M383.496,-56.324C396.6,-47.9002 416.712,-34.9709 432.107,-25.0741"/>
<polygon fill="midnightblue" stroke="midnightblue" points="434.018,-28.0063 440.537,-19.6545 430.233,-22.118 434.018,-28.0063"/>
</g>
<!-- Node7 -->
<g id="node7" class="node"><title>Node7</title>
<polygon fill="white" stroke="#bfbfbf" points="494,-0.5 494,-19.5 548,-19.5 548,-0.5 494,-0.5"/>
<text text-anchor="middle" x="521" y="-7.5" font-family="Helvetica,sans-Serif" font-size="10.00">iostream</text>
</g>
<!-- Node1&#45;&gt;Node7 -->
<g id="edge6" class="edge"><title>Node1&#45;&gt;Node7</title>
<path fill="none" stroke="midnightblue" d="M393.263,-56.6808C418.498,-47.6564 459.004,-33.1709 487.628,-22.9345"/>
<polygon fill="midnightblue" stroke="midnightblue" points="488.975,-26.1699 497.212,-19.5069 486.618,-19.5787 488.975,-26.1699"/>
</g>
<!-- Node8 -->
<g id="node8" class="node"><title>Node8</title>
<polygon fill="white" stroke="#bfbfbf" points="566,-0.5 566,-19.5 606,-19.5 606,-0.5 566,-0.5"/>
<text text-anchor="middle" x="586" y="-7.5" font-family="Helvetica,sans-Serif" font-size="10.00">limits</text>
</g>
<!-- Node1&#45;&gt;Node8 -->
<g id="edge7" class="edge"><title>Node1&#45;&gt;Node8</title>
<path fill="none" stroke="midnightblue" d="M393.154,-59.9355C426.878,-52.4506 491.67,-37.662 555.887,-20.1759"/>
<polygon fill="midnightblue" stroke="midnightblue" points="557.052,-23.4857 565.768,-17.4622 555.198,-16.7356 557.052,-23.4857"/>
</g>
</g>
</svg>
