<?xml version="1.0" encoding="UTF-8" standalone="no"?>
<!DOCTYPE svg PUBLIC "-//W3C//DTD SVG 1.1//EN"
 "http://www.w3.org/Graphics/SVG/1.1/DTD/svg11.dtd">
<!-- Generated by graphviz version 2.38.0 (20140413.2041)
 -->
<!-- Title: OBBRSS.h Pages: 1 -->
<svg width="867pt" height="319pt"
 viewBox="0.00 0.00 866.50 319.00" xmlns="http://www.w3.org/2000/svg" xmlns:xlink="http://www.w3.org/1999/xlink">
<g id="graph0" class="graph" transform="scale(1 1) rotate(0) translate(4 315)">
<title>OBBRSS.h</title>
<polygon fill="white" stroke="none" points="-4,4 -4,-315 862.5,-315 862.5,4 -4,4"/>
<!-- Node1 -->
<g id="node1" class="node"><title>Node1</title>
<polygon fill="#bfbfbf" stroke="black" points="563.5,-291.5 563.5,-310.5 630.5,-310.5 630.5,-291.5 563.5,-291.5"/>
<text text-anchor="middle" x="597" y="-298.5" font-family="Helvetica,sans-Serif" font-size="10.00">OBBRSS.h</text>
</g>
<!-- Node2 -->
<g id="node2" class="node"><title>Node2</title>
<g id="a_node2"><a xlink:href="a00148.html" target="_top" xlink:title="hpp/fcl/BV/OBB.h">
<polygon fill="white" stroke="black" points="493.5,-235.5 493.5,-254.5 588.5,-254.5 588.5,-235.5 493.5,-235.5"/>
<text text-anchor="middle" x="541" y="-242.5" font-family="Helvetica,sans-Serif" font-size="10.00">hpp/fcl/BV/OBB.h</text>
</a>
</g>
</g>
<!-- Node1&#45;&gt;Node2 -->
<g id="edge1" class="edge"><title>Node1&#45;&gt;Node2</title>
<path fill="none" stroke="midnightblue" d="M588.003,-291.324C579.806,-283.42 567.494,-271.548 557.528,-261.938"/>
<polygon fill="midnightblue" stroke="midnightblue" points="559.789,-259.256 550.161,-254.834 554.93,-264.295 559.789,-259.256"/>
</g>
<!-- Node17 -->
<g id="node17" class="node"><title>Node17</title>
<g id="a_node17"><a xlink:href="a00153.html" target="_top" xlink:title="hpp/fcl/BV/RSS.h">
<polygon fill="white" stroke="black" points="606.5,-235.5 606.5,-254.5 701.5,-254.5 701.5,-235.5 606.5,-235.5"/>
<text text-anchor="middle" x="654" y="-242.5" font-family="Helvetica,sans-Serif" font-size="10.00">hpp/fcl/BV/RSS.h</text>
</a>
</g>
</g>
<!-- Node1&#45;&gt;Node17 -->
<g id="edge21" class="edge"><title>Node1&#45;&gt;Node17</title>
<path fill="none" stroke="midnightblue" d="M606.158,-291.324C614.501,-283.42 627.032,-271.548 637.177,-261.938"/>
<polygon fill="midnightblue" stroke="midnightblue" points="639.823,-264.252 644.675,-254.834 635.009,-259.171 639.823,-264.252"/>
</g>
<!-- Node3 -->
<g id="node3" class="node"><title>Node3</title>
<g id="a_node3"><a xlink:href="a00164.html" target="_top" xlink:title="hpp/fcl/math/vec_3f.h">
<polygon fill="white" stroke="black" points="497.5,-112.5 497.5,-131.5 608.5,-131.5 608.5,-112.5 497.5,-112.5"/>
<text text-anchor="middle" x="553" y="-119.5" font-family="Helvetica,sans-Serif" font-size="10.00">hpp/fcl/math/vec_3f.h</text>
</a>
</g>
</g>
<!-- Node2&#45;&gt;Node3 -->
<g id="edge2" class="edge"><title>Node2&#45;&gt;Node3</title>
<path fill="none" stroke="midnightblue" d="M522.611,-235.471C508.899,-227.997 491.185,-215.71 483,-199 476.939,-186.627 476.398,-180.093 483,-168 490.819,-153.679 505.362,-143.236 519.176,-136.036"/>
<polygon fill="midnightblue" stroke="midnightblue" points="521.019,-139.034 528.531,-131.562 517.999,-132.719 521.019,-139.034"/>
</g>
<!-- Node16 -->
<g id="node16" class="node"><title>Node16</title>
<g id="a_node16"><a xlink:href="a00146.html" target="_top" xlink:title="hpp/fcl/math/matrix_3f.h">
<polygon fill="white" stroke="black" points="492,-174 492,-193 614,-193 614,-174 492,-174"/>
<text text-anchor="middle" x="553" y="-181" font-family="Helvetica,sans-Serif" font-size="10.00">hpp/fcl/math/matrix_3f.h</text>
</a>
</g>
</g>
<!-- Node2&#45;&gt;Node16 -->
<g id="edge19" class="edge"><title>Node2&#45;&gt;Node16</title>
<path fill="none" stroke="midnightblue" d="M542.719,-235.475C544.43,-226.992 547.11,-213.704 549.305,-202.822"/>
<polygon fill="midnightblue" stroke="midnightblue" points="552.738,-203.504 551.284,-193.009 545.876,-202.12 552.738,-203.504"/>
</g>
<!-- Node4 -->
<g id="node4" class="node"><title>Node4</title>
<g id="a_node4"><a xlink:href="a00130.html" target="_top" xlink:title="hpp/fcl/data_types.h">
<polygon fill="white" stroke="black" points="82.5,-56.5 82.5,-75.5 187.5,-75.5 187.5,-56.5 82.5,-56.5"/>
<text text-anchor="middle" x="135" y="-63.5" font-family="Helvetica,sans-Serif" font-size="10.00">hpp/fcl/data_types.h</text>
</a>
</g>
</g>
<!-- Node3&#45;&gt;Node4 -->
<g id="edge3" class="edge"><title>Node3&#45;&gt;Node4</title>
<path fill="none" stroke="midnightblue" d="M497.493,-113.829C419.865,-103.801 279.275,-85.6384 197.875,-75.1227"/>
<polygon fill="midnightblue" stroke="midnightblue" points="198.131,-71.6267 187.765,-73.8166 197.235,-78.569 198.131,-71.6267"/>
</g>
<!-- Node7 -->
<g id="node7" class="node"><title>Node7</title>
<polygon fill="white" stroke="#bfbfbf" points="379.5,-56.5 379.5,-75.5 444.5,-75.5 444.5,-56.5 379.5,-56.5"/>
<text text-anchor="middle" x="412" y="-63.5" font-family="Helvetica,sans-Serif" font-size="10.00">Eigen/Core</text>
</g>
<!-- Node3&#45;&gt;Node7 -->
<g id="edge6" class="edge"><title>Node3&#45;&gt;Node7</title>
<path fill="none" stroke="midnightblue" d="M530.658,-112.444C507.247,-103.478 470.264,-89.314 443.81,-79.1827"/>
<polygon fill="midnightblue" stroke="midnightblue" points="444.828,-75.8245 434.237,-75.5164 442.324,-82.3615 444.828,-75.8245"/>
</g>
<!-- Node8 -->
<g id="node8" class="node"><title>Node8</title>
<polygon fill="white" stroke="#bfbfbf" points="177.5,-0.5 177.5,-19.5 264.5,-19.5 264.5,-0.5 177.5,-0.5"/>
<text text-anchor="middle" x="221" y="-7.5" font-family="Helvetica,sans-Serif" font-size="10.00">Eigen/Geometry</text>
</g>
<!-- Node3&#45;&gt;Node8 -->
<g id="edge7" class="edge"><title>Node3&#45;&gt;Node8</title>
<path fill="none" stroke="midnightblue" d="M542.668,-112.314C525.318,-98.2033 488.709,-70.4278 453,-56 436.694,-49.4119 338.164,-31.4633 274.862,-20.3267"/>
<polygon fill="midnightblue" stroke="midnightblue" points="275.093,-16.8137 264.638,-18.5332 273.883,-23.7084 275.093,-16.8137"/>
</g>
<!-- Node9 -->
<g id="node9" class="node"><title>Node9</title>
<g id="a_node9"><a xlink:href="a00154.html" target="_top" xlink:title="hpp/fcl/math/tools.h">
<polygon fill="white" stroke="black" points="501.5,-56.5 501.5,-75.5 604.5,-75.5 604.5,-56.5 501.5,-56.5"/>
<text text-anchor="middle" x="553" y="-63.5" font-family="Helvetica,sans-Serif" font-size="10.00">hpp/fcl/math/tools.h</text>
</a>
</g>
</g>
<!-- Node3&#45;&gt;Node9 -->
<g id="edge8" class="edge"><title>Node3&#45;&gt;Node9</title>
<path fill="none" stroke="midnightblue" d="M553,-112.083C553,-105.006 553,-94.8611 553,-85.9865"/>
<polygon fill="midnightblue" stroke="midnightblue" points="556.5,-85.751 553,-75.7511 549.5,-85.7511 556.5,-85.751"/>
</g>
<!-- Node13 -->
<g id="node13" class="node"><title>Node13</title>
<polygon fill="white" stroke="#bfbfbf" points="610,-0.5 610,-19.5 654,-19.5 654,-0.5 610,-0.5"/>
<text text-anchor="middle" x="632" y="-7.5" font-family="Helvetica,sans-Serif" font-size="10.00">cmath</text>
</g>
<!-- Node3&#45;&gt;Node13 -->
<g id="edge16" class="edge"><title>Node3&#45;&gt;Node13</title>
<path fill="none" stroke="midnightblue" d="M569.893,-112.346C583.439,-104.576 601.952,-91.9481 613,-76 622.519,-62.2583 627.326,-43.7295 629.718,-29.9705"/>
<polygon fill="midnightblue" stroke="midnightblue" points="633.229,-30.1451 631.209,-19.7446 626.302,-29.1345 633.229,-30.1451"/>
</g>
<!-- Node14 -->
<g id="node14" class="node"><title>Node14</title>
<polygon fill="white" stroke="#bfbfbf" points="672,-0.5 672,-19.5 726,-19.5 726,-0.5 672,-0.5"/>
<text text-anchor="middle" x="699" y="-7.5" font-family="Helvetica,sans-Serif" font-size="10.00">iostream</text>
</g>
<!-- Node3&#45;&gt;Node14 -->
<g id="edge17" class="edge"><title>Node3&#45;&gt;Node14</title>
<path fill="none" stroke="midnightblue" d="M571.051,-112.373C587.601,-104.088 612.435,-90.6894 632,-76 651.718,-61.196 671.663,-41.0305 684.601,-27.1049"/>
<polygon fill="midnightblue" stroke="midnightblue" points="687.192,-29.4576 691.354,-19.7145 682.025,-24.7355 687.192,-29.4576"/>
</g>
<!-- Node15 -->
<g id="node15" class="node"><title>Node15</title>
<polygon fill="white" stroke="#bfbfbf" points="744,-0.5 744,-19.5 784,-19.5 784,-0.5 744,-0.5"/>
<text text-anchor="middle" x="764" y="-7.5" font-family="Helvetica,sans-Serif" font-size="10.00">limits</text>
</g>
<!-- Node3&#45;&gt;Node15 -->
<g id="edge18" class="edge"><title>Node3&#45;&gt;Node15</title>
<path fill="none" stroke="midnightblue" d="M575.556,-112.435C597.119,-103.992 630.345,-90.309 658,-76 688.396,-60.2725 721.798,-39.0958 742.824,-25.2511"/>
<polygon fill="midnightblue" stroke="midnightblue" points="744.9,-28.0742 751.296,-19.6279 741.029,-22.2419 744.9,-28.0742"/>
</g>
<!-- Node5 -->
<g id="node5" class="node"><title>Node5</title>
<polygon fill="white" stroke="#bfbfbf" points="110.5,-0.5 110.5,-19.5 159.5,-19.5 159.5,-0.5 110.5,-0.5"/>
<text text-anchor="middle" x="135" y="-7.5" font-family="Helvetica,sans-Serif" font-size="10.00">cstddef</text>
</g>
<!-- Node4&#45;&gt;Node5 -->
<g id="edge4" class="edge"><title>Node4&#45;&gt;Node5</title>
<path fill="none" stroke="midnightblue" d="M135,-56.083C135,-49.0059 135,-38.8611 135,-29.9865"/>
<polygon fill="midnightblue" stroke="midnightblue" points="138.5,-29.751 135,-19.7511 131.5,-29.7511 138.5,-29.751"/>
</g>
<!-- Node6 -->
<g id="node6" class="node"><title>Node6</title>
<polygon fill="white" stroke="#bfbfbf" points="0,-0.5 0,-19.5 92,-19.5 92,-0.5 0,-0.5"/>
<text text-anchor="middle" x="46" y="-7.5" font-family="Helvetica,sans-Serif" font-size="10.00">boost/cstdint.hpp</text>
</g>
<!-- Node4&#45;&gt;Node6 -->
<g id="edge5" class="edge"><title>Node4&#45;&gt;Node6</title>
<path fill="none" stroke="midnightblue" d="M120.701,-56.324C106.817,-47.9002 85.5076,-34.9709 69.1963,-25.0741"/>
<polygon fill="midnightblue" stroke="midnightblue" points="70.6289,-21.8495 60.2639,-19.6545 66.9978,-27.8341 70.6289,-21.8495"/>
</g>
<!-- Node9&#45;&gt;Node8 -->
<g id="edge12" class="edge"><title>Node9&#45;&gt;Node8</title>
<path fill="none" stroke="midnightblue" d="M501.301,-56.7929C447.357,-48.1998 360.042,-34.2082 274.543,-20.0787"/>
<polygon fill="midnightblue" stroke="midnightblue" points="275.105,-16.6242 264.668,-18.4448 273.962,-23.5303 275.105,-16.6242"/>
</g>
<!-- Node10 -->
<g id="node10" class="node"><title>Node10</title>
<polygon fill="white" stroke="#bfbfbf" points="283,-0.5 283,-19.5 393,-19.5 393,-0.5 283,-0.5"/>
<text text-anchor="middle" x="338" y="-7.5" font-family="Helvetica,sans-Serif" font-size="10.00">hpp/fcl/deprecated.hh</text>
</g>
<!-- Node9&#45;&gt;Node10 -->
<g id="edge9" class="edge"><title>Node9&#45;&gt;Node10</title>
<path fill="none" stroke="midnightblue" d="M518.933,-56.4435C481.82,-47.1221 422.339,-32.1828 381.785,-21.9972"/>
<polygon fill="midnightblue" stroke="midnightblue" points="382.459,-18.5579 371.908,-19.5164 380.754,-25.347 382.459,-18.5579"/>
</g>
<!-- Node11 -->
<g id="node11" class="node"><title>Node11</title>
<polygon fill="white" stroke="#bfbfbf" points="411.5,-0.5 411.5,-19.5 500.5,-19.5 500.5,-0.5 411.5,-0.5"/>
<text text-anchor="middle" x="456" y="-7.5" font-family="Helvetica,sans-Serif" font-size="10.00">hpp/fcl/config.hh</text>
</g>
<!-- Node9&#45;&gt;Node11 -->
<g id="edge10" class="edge"><title>Node9&#45;&gt;Node11</title>
<path fill="none" stroke="midnightblue" d="M537.415,-56.324C522.001,-47.7428 498.188,-34.486 480.29,-24.5224"/>
<polygon fill="midnightblue" stroke="midnightblue" points="481.986,-21.4606 471.546,-19.6545 478.581,-27.5767 481.986,-21.4606"/>
</g>
<!-- Node12 -->
<g id="node12" class="node"><title>Node12</title>
<polygon fill="white" stroke="#bfbfbf" points="518.5,-0.5 518.5,-19.5 591.5,-19.5 591.5,-0.5 518.5,-0.5"/>
<text text-anchor="middle" x="555" y="-7.5" font-family="Helvetica,sans-Serif" font-size="10.00">Eigen/Dense</text>
</g>
<!-- Node9&#45;&gt;Node12 -->
<g id="edge11" class="edge"><title>Node9&#45;&gt;Node12</title>
<path fill="none" stroke="midnightblue" d="M553.33,-56.083C553.592,-49.0059 553.968,-38.8611 554.297,-29.9865"/>
<polygon fill="midnightblue" stroke="midnightblue" points="557.803,-29.8738 554.676,-19.7511 550.808,-29.6147 557.803,-29.8738"/>
</g>
<!-- Node9&#45;&gt;Node13 -->
<g id="edge13" class="edge"><title>Node9&#45;&gt;Node13</title>
<path fill="none" stroke="midnightblue" d="M565.693,-56.324C577.901,-47.979 596.578,-35.2122 611.003,-25.3524"/>
<polygon fill="midnightblue" stroke="midnightblue" points="613.058,-28.1871 619.339,-19.6545 609.108,-22.4082 613.058,-28.1871"/>
</g>
<!-- Node9&#45;&gt;Node14 -->
<g id="edge14" class="edge"><title>Node9&#45;&gt;Node14</title>
<path fill="none" stroke="midnightblue" d="M576.134,-56.4435C600.482,-47.4381 639.007,-33.1891 666.423,-23.049"/>
<polygon fill="midnightblue" stroke="midnightblue" points="667.809,-26.2681 675.974,-19.5164 665.381,-19.7028 667.809,-26.2681"/>
</g>
<!-- Node9&#45;&gt;Node15 -->
<g id="edge15" class="edge"><title>Node9&#45;&gt;Node15</title>
<path fill="none" stroke="midnightblue" d="M590.115,-56.4951C624.922,-48.3703 678.628,-35.4548 733.811,-20.2155"/>
<polygon fill="midnightblue" stroke="midnightblue" points="735.068,-23.499 743.763,-17.446 733.191,-16.7552 735.068,-23.499"/>
</g>
<!-- Node16&#45;&gt;Node3 -->
<g id="edge20" class="edge"><title>Node16&#45;&gt;Node3</title>
<path fill="none" stroke="midnightblue" d="M553,-173.975C553,-165.58 553,-152.481 553,-141.663"/>
<polygon fill="midnightblue" stroke="midnightblue" points="556.5,-141.509 553,-131.509 549.5,-141.509 556.5,-141.509"/>
</g>
<!-- Node17&#45;&gt;Node3 -->
<g id="edge23" class="edge"><title>Node17&#45;&gt;Node3</title>
<path fill="none" stroke="midnightblue" d="M652.224,-235.123C648.815,-219.933 640.122,-188.604 623,-168 611.971,-154.729 595.997,-144.046 582.092,-136.425"/>
<polygon fill="midnightblue" stroke="midnightblue" points="583.37,-133.145 572.882,-131.644 580.145,-139.358 583.37,-133.145"/>
</g>
<!-- Node17&#45;&gt;Node16 -->
<g id="edge24" class="edge"><title>Node17&#45;&gt;Node16</title>
<path fill="none" stroke="midnightblue" d="M639.529,-235.475C623.029,-225.755 595.822,-209.727 576.319,-198.237"/>
<polygon fill="midnightblue" stroke="midnightblue" points="577.837,-195.069 567.444,-193.009 574.284,-201.101 577.837,-195.069"/>
</g>
<!-- Node18 -->
<g id="node18" class="node"><title>Node18</title>
<polygon fill="white" stroke="#bfbfbf" points="799.5,-174 799.5,-193 858.5,-193 858.5,-174 799.5,-174"/>
<text text-anchor="middle" x="829" y="-181" font-family="Helvetica,sans-Serif" font-size="10.00">stdexcept</text>
</g>
<!-- Node17&#45;&gt;Node18 -->
<g id="edge22" class="edge"><title>Node17&#45;&gt;Node18</title>
<path fill="none" stroke="midnightblue" d="M680.678,-235.49C708.17,-226.646 752.221,-212.268 790,-199 792.243,-198.212 794.553,-197.388 796.877,-196.548"/>
<polygon fill="midnightblue" stroke="midnightblue" points="798.179,-199.799 806.366,-193.074 795.772,-193.226 798.179,-199.799"/>
</g>
<!-- Node19 -->
<g id="node19" class="node"><title>Node19</title>
<polygon fill="white" stroke="#bfbfbf" points="670.5,-168.5 670.5,-198.5 781.5,-198.5 781.5,-168.5 670.5,-168.5"/>
<text text-anchor="start" x="678.5" y="-186.5" font-family="Helvetica,sans-Serif" font-size="10.00">boost/math/constants</text>
<text text-anchor="middle" x="726" y="-175.5" font-family="Helvetica,sans-Serif" font-size="10.00">/constants.hpp</text>
</g>
<!-- Node17&#45;&gt;Node19 -->
<g id="edge25" class="edge"><title>Node17&#45;&gt;Node19</title>
<path fill="none" stroke="midnightblue" d="M664.316,-235.475C673.885,-227.567 688.506,-215.485 701.112,-205.067"/>
<polygon fill="midnightblue" stroke="midnightblue" points="703.552,-207.591 709.031,-198.523 699.093,-202.195 703.552,-207.591"/>
</g>
</g>
</svg>
