<?xml version="1.0" encoding="UTF-8" standalone="no"?>
<!DOCTYPE svg PUBLIC "-//W3C//DTD SVG 1.1//EN"
 "http://www.w3.org/Graphics/SVG/1.1/DTD/svg11.dtd">
<!-- Generated by graphviz version 2.38.0 (20140413.2041)
 -->
<!-- Title: hpp::fcl::BVNode&lt; BV &gt; Pages: 1 -->
<svg width="172pt" height="95pt"
 viewBox="0.00 0.00 171.50 95.00" xmlns="http://www.w3.org/2000/svg" xmlns:xlink="http://www.w3.org/1999/xlink">
<g id="graph0" class="graph" transform="scale(1 1) rotate(0) translate(4 91)">
<title>hpp::fcl::BVNode&lt; BV &gt;</title>
<polygon fill="white" stroke="none" points="-4,4 -4,-91 167.5,-91 167.5,4 -4,4"/>
<!-- Node1 -->
<g id="node1" class="node"><title>Node1</title>
<polygon fill="#bfbfbf" stroke="black" points="40.5,-0.5 40.5,-19.5 163.5,-19.5 163.5,-0.5 40.5,-0.5"/>
<text text-anchor="middle" x="102" y="-7.5" font-family="Helvetica,sans-Serif" font-size="10.00">hpp::fcl::BVNode&lt; BV &gt;</text>
</g>
<!-- Node2 -->
<g id="node2" class="node"><title>Node2</title>
<g id="a_node2"><a xlink:href="a00019.html" target="_top" xlink:title="BVNodeBase encodes the tree structure for BVH. ">
<polygon fill="white" stroke="black" points="0,-67.5 0,-86.5 114,-86.5 114,-67.5 0,-67.5"/>
<text text-anchor="middle" x="57" y="-74.5" font-family="Helvetica,sans-Serif" font-size="10.00">hpp::fcl::BVNodeBase</text>
</a>
</g>
</g>
<!-- Node2&#45;&gt;Node1 -->
<g id="edge1" class="edge"><title>Node2&#45;&gt;Node1</title>
<path fill="none" stroke="midnightblue" d="M68.8359,-58.9037C77.5803,-46.2729 89.1202,-29.6041 96.0273,-19.6273"/>
<polygon fill="midnightblue" stroke="midnightblue" points="65.8834,-57.0196 63.0689,-67.2338 71.6387,-61.0041 65.8834,-57.0196"/>
</g>
<!-- Node3 -->
<g id="node3" class="node"><title>Node3</title>
<polygon fill="white" stroke="#bfbfbf" points="132,-67.5 132,-86.5 162,-86.5 162,-67.5 132,-67.5"/>
<text text-anchor="middle" x="147" y="-74.5" font-family="Helvetica,sans-Serif" font-size="10.00">BV</text>
</g>
<!-- Node3&#45;&gt;Node1 -->
<g id="edge2" class="edge"><title>Node3&#45;&gt;Node1</title>
<path fill="none" stroke="#9a32cd" stroke-dasharray="5,2" d="M135.164,-58.9037C126.42,-46.2729 114.88,-29.6041 107.973,-19.6273"/>
<polygon fill="#9a32cd" stroke="#9a32cd" points="132.361,-61.0041 140.931,-67.2338 138.117,-57.0196 132.361,-61.0041"/>
<text text-anchor="middle" x="134" y="-41" font-family="Helvetica,sans-Serif" font-size="10.00"> bv</text>
</g>
</g>
</svg>
