<?xml version="1.0" encoding="UTF-8" standalone="no"?>
<!DOCTYPE svg PUBLIC "-//W3C//DTD SVG 1.1//EN"
 "http://www.w3.org/Graphics/SVG/1.1/DTD/svg11.dtd">
<!-- Generated by graphviz version 2.38.0 (20140413.2041)
 -->
<!-- Title: OBBRSS.h Pages: 1 -->
<svg width="813pt" height="375pt"
 viewBox="0.00 0.00 812.50 375.00" xmlns="http://www.w3.org/2000/svg" xmlns:xlink="http://www.w3.org/1999/xlink">
<g id="graph0" class="graph" transform="scale(1 1) rotate(0) translate(4 371)">
<title>OBBRSS.h</title>
<polygon fill="white" stroke="none" points="-4,4 -4,-371 808.5,-371 808.5,4 -4,4"/>
<!-- Node1 -->
<g id="node1" class="node"><title>Node1</title>
<polygon fill="#bfbfbf" stroke="black" points="631,-347.5 631,-366.5 698,-366.5 698,-347.5 631,-347.5"/>
<text text-anchor="middle" x="664.5" y="-354.5" font-family="Helvetica,sans-Serif" font-size="10.00">OBBRSS.h</text>
</g>
<!-- Node2 -->
<g id="node2" class="node"><title>Node2</title>
<g id="a_node2"><a xlink:href="a00116.html" target="_top" xlink:title="BV.h">
<polygon fill="white" stroke="black" points="566.5,-291.5 566.5,-310.5 604.5,-310.5 604.5,-291.5 566.5,-291.5"/>
<text text-anchor="middle" x="585.5" y="-298.5" font-family="Helvetica,sans-Serif" font-size="10.00">BV.h</text>
</a>
</g>
</g>
<!-- Node1&#45;&gt;Node2 -->
<g id="edge1" class="edge"><title>Node1&#45;&gt;Node2</title>
<path fill="none" stroke="midnightblue" d="M643.466,-341.622C629.034,-331.757 610.359,-318.992 598.161,-310.655"/>
<polygon fill="midnightblue" stroke="midnightblue" points="641.577,-344.57 651.807,-347.324 645.527,-338.791 641.577,-344.57"/>
</g>
<!-- Node11 -->
<g id="node11" class="node"><title>Node11</title>
<g id="a_node11"><a xlink:href="a00115.html" target="_top" xlink:title="assimp.h">
<polygon fill="white" stroke="black" points="748.5,-118 748.5,-137 804.5,-137 804.5,-118 748.5,-118"/>
<text text-anchor="middle" x="776.5" y="-125" font-family="Helvetica,sans-Serif" font-size="10.00">assimp.h</text>
</a>
</g>
</g>
<!-- Node1&#45;&gt;Node11 -->
<g id="edge29" class="edge"><title>Node1&#45;&gt;Node11</title>
<path fill="none" stroke="midnightblue" d="M700.257,-343.305C715.529,-336.115 732.179,-325.584 742.5,-311 782.341,-254.701 779.332,-164.997 777.272,-137.079"/>
<polygon fill="midnightblue" stroke="midnightblue" points="698.755,-340.142 690.995,-347.356 701.56,-346.555 698.755,-340.142"/>
</g>
<!-- Node17 -->
<g id="node17" class="node"><title>Node17</title>
<g id="a_node17"><a xlink:href="a00117.html" target="_top" xlink:title="BV_fitter.h">
<polygon fill="white" stroke="black" points="485,-235.5 485,-254.5 548,-254.5 548,-235.5 485,-235.5"/>
<text text-anchor="middle" x="516.5" y="-242.5" font-family="Helvetica,sans-Serif" font-size="10.00">BV_fitter.h</text>
</a>
</g>
</g>
<!-- Node1&#45;&gt;Node17 -->
<g id="edge25" class="edge"><title>Node1&#45;&gt;Node17</title>
<path fill="none" stroke="midnightblue" d="M654.092,-338.525C644.879,-324.246 630.309,-304.315 613.5,-291 592.4,-274.286 564.083,-262.069 543.494,-254.617"/>
<polygon fill="midnightblue" stroke="midnightblue" points="651.327,-340.708 659.576,-347.356 657.274,-337.015 651.327,-340.708"/>
</g>
<!-- Node18 -->
<g id="node18" class="node"><title>Node18</title>
<g id="a_node18"><a xlink:href="a00119.html" target="_top" xlink:title="BV_splitter.h">
<polygon fill="white" stroke="black" points="661,-291.5 661,-310.5 734,-310.5 734,-291.5 661,-291.5"/>
<text text-anchor="middle" x="697.5" y="-298.5" font-family="Helvetica,sans-Serif" font-size="10.00">BV_splitter.h</text>
</a>
</g>
</g>
<!-- Node1&#45;&gt;Node18 -->
<g id="edge27" class="edge"><title>Node1&#45;&gt;Node18</title>
<path fill="none" stroke="midnightblue" d="M675.332,-338.275C680.972,-329.045 687.618,-318.17 692.152,-310.751"/>
<polygon fill="midnightblue" stroke="midnightblue" points="672.177,-336.725 669.949,-347.083 678.15,-340.375 672.177,-336.725"/>
</g>
<!-- Node3 -->
<g id="node3" class="node"><title>Node3</title>
<g id="a_node3"><a xlink:href="a00118.html" target="_top" xlink:title="BV_node.h">
<polygon fill="white" stroke="black" points="566,-235.5 566,-254.5 631,-254.5 631,-235.5 566,-235.5"/>
<text text-anchor="middle" x="598.5" y="-242.5" font-family="Helvetica,sans-Serif" font-size="10.00">BV_node.h</text>
</a>
</g>
</g>
<!-- Node2&#45;&gt;Node3 -->
<g id="edge2" class="edge"><title>Node2&#45;&gt;Node3</title>
<path fill="none" stroke="midnightblue" d="M590.05,-281.101C592.208,-272.136 594.682,-261.858 596.393,-254.751"/>
<polygon fill="midnightblue" stroke="midnightblue" points="586.585,-280.542 587.647,-291.083 593.39,-282.18 586.585,-280.542"/>
</g>
<!-- Node8 -->
<g id="node8" class="node"><title>Node8</title>
<g id="a_node8"><a xlink:href="a00159.html" target="_top" xlink:title="traversal_node_bvhs.h">
<polygon fill="white" stroke="black" points="616,-118 616,-137 731,-137 731,-118 616,-118"/>
<text text-anchor="middle" x="673.5" y="-125" font-family="Helvetica,sans-Serif" font-size="10.00">traversal_node_bvhs.h</text>
</a>
</g>
</g>
<!-- Node2&#45;&gt;Node8 -->
<g id="edge18" class="edge"><title>Node2&#45;&gt;Node8</title>
<path fill="none" stroke="midnightblue" d="M608.361,-285.824C619.26,-277.982 631.61,-267.328 639.5,-255 664.508,-215.925 671.25,-158.797 672.957,-137.201"/>
<polygon fill="midnightblue" stroke="midnightblue" points="606.339,-282.967 600.045,-291.489 610.28,-288.752 606.339,-282.967"/>
</g>
<!-- Node15 -->
<g id="node15" class="node"><title>Node15</title>
<g id="a_node15"><a xlink:href="a00139.html" target="_top" xlink:title="geometric_shapes_utility.h">
<polygon fill="white" stroke="black" points="191,-179.5 191,-198.5 324,-198.5 324,-179.5 191,-179.5"/>
<text text-anchor="middle" x="257.5" y="-186.5" font-family="Helvetica,sans-Serif" font-size="10.00">geometric_shapes_utility.h</text>
</a>
</g>
</g>
<!-- Node2&#45;&gt;Node15 -->
<g id="edge19" class="edge"><title>Node2&#45;&gt;Node15</title>
<path fill="none" stroke="midnightblue" d="M556.732,-290.352C493.537,-269.159 343.446,-218.823 283.19,-198.615"/>
<polygon fill="midnightblue" stroke="midnightblue" points="555.854,-293.749 566.448,-293.61 558.079,-287.112 555.854,-293.749"/>
</g>
<!-- Node16 -->
<g id="node16" class="node"><title>Node16</title>
<g id="a_node16"><a xlink:href="a00162.html" target="_top" xlink:title="traversal_node_shapes.h">
<polygon fill="white" stroke="black" points="0,-118 0,-137 125,-137 125,-118 0,-118"/>
<text text-anchor="middle" x="62.5" y="-125" font-family="Helvetica,sans-Serif" font-size="10.00">traversal_node_shapes.h</text>
</a>
</g>
</g>
<!-- Node2&#45;&gt;Node16 -->
<g id="edge24" class="edge"><title>Node2&#45;&gt;Node16</title>
<path fill="none" stroke="midnightblue" d="M556.345,-295.881C488.481,-285.622 315.53,-255.592 181.5,-199 139.911,-181.44 95.2281,-151.65 74.425,-137.063"/>
<polygon fill="midnightblue" stroke="midnightblue" points="555.907,-299.354 566.312,-297.358 556.934,-292.43 555.907,-299.354"/>
</g>
<!-- Node4 -->
<g id="node4" class="node"><title>Node4</title>
<g id="a_node4"><a xlink:href="a00122.html" target="_top" xlink:title="BVH_model.h">
<polygon fill="white" stroke="black" points="507,-179.5 507,-198.5 584,-198.5 584,-179.5 507,-179.5"/>
<text text-anchor="middle" x="545.5" y="-186.5" font-family="Helvetica,sans-Serif" font-size="10.00">BVH_model.h</text>
</a>
</g>
</g>
<!-- Node3&#45;&gt;Node4 -->
<g id="edge3" class="edge"><title>Node3&#45;&gt;Node4</title>
<path fill="none" stroke="midnightblue" d="M582.519,-227.718C573.178,-218.2 561.754,-206.561 554.089,-198.751"/>
<polygon fill="midnightblue" stroke="midnightblue" points="580.246,-230.398 589.748,-235.083 585.241,-225.494 580.246,-230.398"/>
</g>
<!-- Node3&#45;&gt;Node8 -->
<g id="edge17" class="edge"><title>Node3&#45;&gt;Node8</title>
<path fill="none" stroke="midnightblue" d="M609.64,-226.844C625.866,-201.857 655.412,-156.355 667.797,-137.282"/>
<polygon fill="midnightblue" stroke="midnightblue" points="606.648,-225.026 604.137,-235.319 612.519,-228.838 606.648,-225.026"/>
</g>
<!-- Node5 -->
<g id="node5" class="node"><title>Node5</title>
<g id="a_node5"><a xlink:href="a00123.html" target="_top" xlink:title="BVH_utility.h">
<polygon fill="white" stroke="black" points="401.5,-118 401.5,-137 475.5,-137 475.5,-118 401.5,-118"/>
<text text-anchor="middle" x="438.5" y="-125" font-family="Helvetica,sans-Serif" font-size="10.00">BVH_utility.h</text>
</a>
</g>
</g>
<!-- Node4&#45;&gt;Node5 -->
<g id="edge4" class="edge"><title>Node4&#45;&gt;Node5</title>
<path fill="none" stroke="midnightblue" d="M521.324,-174.556C500.617,-163.042 471.429,-146.811 453.802,-137.009"/>
<polygon fill="midnightblue" stroke="midnightblue" points="519.729,-177.674 530.17,-179.475 523.131,-171.556 519.729,-177.674"/>
</g>
<!-- Node4&#45;&gt;Node8 -->
<g id="edge7" class="edge"><title>Node4&#45;&gt;Node8</title>
<path fill="none" stroke="midnightblue" d="M573.092,-175.174C597.929,-163.629 633.729,-146.987 655.195,-137.009"/>
<polygon fill="midnightblue" stroke="midnightblue" points="571.432,-172.086 563.839,-179.475 574.383,-178.434 571.432,-172.086"/>
</g>
<!-- Node4&#45;&gt;Node11 -->
<g id="edge12" class="edge"><title>Node4&#45;&gt;Node11</title>
<path fill="none" stroke="midnightblue" d="M594.138,-178.766C633.694,-170.768 690.742,-158.121 739.5,-143 745.035,-141.283 750.922,-139.132 756.333,-137.016"/>
<polygon fill="midnightblue" stroke="midnightblue" points="593.343,-175.356 584.222,-180.747 594.714,-182.22 593.343,-175.356"/>
</g>
<!-- Node12 -->
<g id="node12" class="node"><title>Node12</title>
<g id="a_node12"><a xlink:href="a00137.html" target="_top" xlink:title="geometric_shape_to\l_BVH_model.h">
<polygon fill="white" stroke="black" points="493.5,-112.5 493.5,-142.5 597.5,-142.5 597.5,-112.5 493.5,-112.5"/>
<text text-anchor="start" x="501.5" y="-130.5" font-family="Helvetica,sans-Serif" font-size="10.00">geometric_shape_to</text>
<text text-anchor="middle" x="545.5" y="-119.5" font-family="Helvetica,sans-Serif" font-size="10.00">_BVH_model.h</text>
</a>
</g>
</g>
<!-- Node4&#45;&gt;Node12 -->
<g id="edge13" class="edge"><title>Node4&#45;&gt;Node12</title>
<path fill="none" stroke="midnightblue" d="M545.5,-169.235C545.5,-160.586 545.5,-150.497 545.5,-142.523"/>
<polygon fill="midnightblue" stroke="midnightblue" points="542,-169.475 545.5,-179.475 549,-169.475 542,-169.475"/>
</g>
<!-- Node13 -->
<g id="node13" class="node"><title>Node13</title>
<g id="a_node13"><a xlink:href="a00158.html" target="_top" xlink:title="traversal_node_bvh\l_shape.h">
<polygon fill="white" stroke="black" points="143,-112.5 143,-142.5 244,-142.5 244,-112.5 143,-112.5"/>
<text text-anchor="start" x="151" y="-130.5" font-family="Helvetica,sans-Serif" font-size="10.00">traversal_node_bvh</text>
<text text-anchor="middle" x="193.5" y="-119.5" font-family="Helvetica,sans-Serif" font-size="10.00">_shape.h</text>
</a>
</g>
</g>
<!-- Node4&#45;&gt;Node13 -->
<g id="edge14" class="edge"><title>Node4&#45;&gt;Node13</title>
<path fill="none" stroke="midnightblue" d="M496.88,-181.875C438.563,-174.22 337.966,-160.03 252.5,-143 249.81,-142.464 247.059,-141.887 244.285,-141.284"/>
<polygon fill="midnightblue" stroke="midnightblue" points="496.546,-185.361 506.915,-183.183 497.451,-178.42 496.546,-185.361"/>
</g>
<!-- Node14 -->
<g id="node14" class="node"><title>Node14</title>
<g id="a_node14"><a xlink:href="a00160.html" target="_top" xlink:title="traversal_node_octree.h">
<polygon fill="white" stroke="black" points="262,-118 262,-137 383,-137 383,-118 262,-118"/>
<text text-anchor="middle" x="322.5" y="-125" font-family="Helvetica,sans-Serif" font-size="10.00">traversal_node_octree.h</text>
</a>
</g>
</g>
<!-- Node4&#45;&gt;Node14 -->
<g id="edge16" class="edge"><title>Node4&#45;&gt;Node14</title>
<path fill="none" stroke="midnightblue" d="M503.882,-176.896C460.571,-165.34 393.692,-147.495 354.391,-137.009"/>
<polygon fill="midnightblue" stroke="midnightblue" points="502.985,-180.279 513.55,-179.475 504.79,-173.515 502.985,-180.279"/>
</g>
<!-- Node6 -->
<g id="node6" class="node"><title>Node6</title>
<g id="a_node6"><a xlink:href="a00161.html" target="_top" xlink:title="traversal_node_setup.h">
<polygon fill="white" stroke="black" points="377.5,-56.5 377.5,-75.5 495.5,-75.5 495.5,-56.5 377.5,-56.5"/>
<text text-anchor="middle" x="436.5" y="-63.5" font-family="Helvetica,sans-Serif" font-size="10.00">traversal_node_setup.h</text>
</a>
</g>
</g>
<!-- Node5&#45;&gt;Node6 -->
<g id="edge5" class="edge"><title>Node5&#45;&gt;Node6</title>
<path fill="none" stroke="midnightblue" d="M437.872,-107.817C437.508,-96.9962 437.068,-83.898 436.786,-75.5091"/>
<polygon fill="midnightblue" stroke="midnightblue" points="434.379,-108.098 438.213,-117.975 441.375,-107.863 434.379,-108.098"/>
</g>
<!-- Node7 -->
<g id="node7" class="node"><title>Node7</title>
<g id="a_node7"><a xlink:href="a00131.html" target="_top" xlink:title="details.h">
<polygon fill="white" stroke="black" points="529,-0.5 529,-19.5 582,-19.5 582,-0.5 529,-0.5"/>
<text text-anchor="middle" x="555.5" y="-7.5" font-family="Helvetica,sans-Serif" font-size="10.00">details.h</text>
</a>
</g>
</g>
<!-- Node6&#45;&gt;Node7 -->
<g id="edge6" class="edge"><title>Node6&#45;&gt;Node7</title>
<path fill="none" stroke="midnightblue" d="M464.637,-52.2321C486.896,-42.1312 517.356,-28.3091 536.732,-19.5164"/>
<polygon fill="midnightblue" stroke="midnightblue" points="463.016,-49.124 455.356,-56.4435 465.909,-55.4984 463.016,-49.124"/>
</g>
<!-- Node8&#45;&gt;Node6 -->
<g id="edge10" class="edge"><title>Node8&#45;&gt;Node6</title>
<path fill="none" stroke="midnightblue" d="M629.559,-115.468C583.538,-103.915 512.25,-86.0173 470.393,-75.5091"/>
<polygon fill="midnightblue" stroke="midnightblue" points="628.992,-118.935 639.544,-117.975 630.697,-112.145 628.992,-118.935"/>
</g>
<!-- Node9 -->
<g id="node9" class="node"><title>Node9</title>
<g id="a_node9"><a xlink:href="a00127.html" target="_top" xlink:title="collision_node.h">
<polygon fill="white" stroke="black" points="631.5,-56.5 631.5,-75.5 717.5,-75.5 717.5,-56.5 631.5,-56.5"/>
<text text-anchor="middle" x="674.5" y="-63.5" font-family="Helvetica,sans-Serif" font-size="10.00">collision_node.h</text>
</a>
</g>
</g>
<!-- Node8&#45;&gt;Node9 -->
<g id="edge8" class="edge"><title>Node8&#45;&gt;Node9</title>
<path fill="none" stroke="midnightblue" d="M673.814,-107.817C673.996,-96.9962 674.216,-83.898 674.357,-75.5091"/>
<polygon fill="midnightblue" stroke="midnightblue" points="670.312,-107.918 673.643,-117.975 677.311,-108.035 670.312,-107.918"/>
</g>
<!-- Node10 -->
<g id="node10" class="node"><title>Node10</title>
<g id="a_node10"><a xlink:href="a00163.html" target="_top" xlink:title="traversal_recurse.h">
<polygon fill="white" stroke="black" points="513.5,-56.5 513.5,-75.5 613.5,-75.5 613.5,-56.5 513.5,-56.5"/>
<text text-anchor="middle" x="563.5" y="-63.5" font-family="Helvetica,sans-Serif" font-size="10.00">traversal_recurse.h</text>
</a>
</g>
</g>
<!-- Node8&#45;&gt;Node10 -->
<g id="edge11" class="edge"><title>Node8&#45;&gt;Node10</title>
<path fill="none" stroke="midnightblue" d="M648.934,-113.212C627.629,-101.688 597.434,-85.355 579.231,-75.5091"/>
<polygon fill="midnightblue" stroke="midnightblue" points="647.279,-116.296 657.74,-117.975 650.609,-110.139 647.279,-116.296"/>
</g>
<!-- Node9&#45;&gt;Node7 -->
<g id="edge9" class="edge"><title>Node9&#45;&gt;Node7</title>
<path fill="none" stroke="midnightblue" d="M646.363,-52.2321C624.104,-42.1312 593.644,-28.3091 574.268,-19.5164"/>
<polygon fill="midnightblue" stroke="midnightblue" points="645.091,-55.4984 655.644,-56.4435 647.984,-49.124 645.091,-55.4984"/>
</g>
<!-- Node13&#45;&gt;Node6 -->
<g id="edge15" class="edge"><title>Node13&#45;&gt;Node6</title>
<path fill="none" stroke="midnightblue" d="M253.929,-111.651C310.912,-97.6843 366.576,-84.0788 401.565,-75.5314"/>
<polygon fill="midnightblue" stroke="midnightblue" points="252.909,-108.297 244.03,-114.078 254.575,-115.096 252.909,-108.297"/>
</g>
<!-- Node15&#45;&gt;Node13 -->
<g id="edge20" class="edge"><title>Node15&#45;&gt;Node13</title>
<path fill="none" stroke="midnightblue" d="M240.985,-172.646C230.981,-163.346 218.317,-151.572 208.584,-142.523"/>
<polygon fill="midnightblue" stroke="midnightblue" points="238.623,-175.23 248.33,-179.475 243.39,-170.103 238.623,-175.23"/>
</g>
<!-- Node15&#45;&gt;Node14 -->
<g id="edge21" class="edge"><title>Node15&#45;&gt;Node14</title>
<path fill="none" stroke="midnightblue" d="M274.269,-172.65C286.662,-161.306 303.075,-146.281 313.204,-137.009"/>
<polygon fill="midnightblue" stroke="midnightblue" points="271.826,-170.141 266.813,-179.475 276.552,-175.305 271.826,-170.141"/>
</g>
<!-- Node15&#45;&gt;Node16 -->
<g id="edge22" class="edge"><title>Node15&#45;&gt;Node16</title>
<path fill="none" stroke="midnightblue" d="M219.905,-176.529C182.006,-164.965 124.392,-147.385 90.3869,-137.009"/>
<polygon fill="midnightblue" stroke="midnightblue" points="218.975,-179.904 229.561,-179.475 221.018,-173.209 218.975,-179.904"/>
</g>
<!-- Node16&#45;&gt;Node6 -->
<g id="edge23" class="edge"><title>Node16&#45;&gt;Node6</title>
<path fill="none" stroke="midnightblue" d="M112.438,-115.948C119.498,-114.56 126.674,-113.203 133.5,-112 217.953,-97.1162 316.231,-83.1286 377.411,-74.8135"/>
<polygon fill="midnightblue" stroke="midnightblue" points="111.351,-112.597 102.232,-117.992 112.725,-119.46 111.351,-112.597"/>
</g>
<!-- Node17&#45;&gt;Node4 -->
<g id="edge26" class="edge"><title>Node17&#45;&gt;Node4</title>
<path fill="none" stroke="midnightblue" d="M526.176,-225.983C531.098,-216.817 536.858,-206.092 540.8,-198.751"/>
<polygon fill="midnightblue" stroke="midnightblue" points="522.937,-224.617 521.289,-235.083 529.104,-227.929 522.937,-224.617"/>
</g>
<!-- Node18&#45;&gt;Node4 -->
<g id="edge28" class="edge"><title>Node18&#45;&gt;Node4</title>
<path fill="none" stroke="midnightblue" d="M685.433,-283.071C674.642,-268.851 657.751,-248.713 639.5,-235 617.947,-218.806 589.64,-206.219 569.742,-198.525"/>
<polygon fill="midnightblue" stroke="midnightblue" points="682.846,-285.46 691.597,-291.434 688.482,-281.308 682.846,-285.46"/>
</g>
</g>
</svg>
