<?xml version="1.0" encoding="UTF-8" standalone="no"?>
<!DOCTYPE svg PUBLIC "-//W3C//DTD SVG 1.1//EN"
 "http://www.w3.org/Graphics/SVG/1.1/DTD/svg11.dtd">
<!-- Generated by graphviz version 2.38.0 (20140413.2041)
 -->
<!-- Title: geometric_shapes_utility.h Pages: 1 -->
<svg width="915pt" height="442pt"
 viewBox="0.00 0.00 914.50 442.00" xmlns="http://www.w3.org/2000/svg" xmlns:xlink="http://www.w3.org/1999/xlink">
<g id="graph0" class="graph" transform="scale(1 1) rotate(0) translate(4 438)">
<title>geometric_shapes_utility.h</title>
<polygon fill="white" stroke="none" points="-4,4 -4,-438 910.5,-438 910.5,4 -4,4"/>
<!-- Node1 -->
<g id="node1" class="node"><title>Node1</title>
<polygon fill="#bfbfbf" stroke="black" points="55.5,-414.5 55.5,-433.5 188.5,-433.5 188.5,-414.5 55.5,-414.5"/>
<text text-anchor="middle" x="122" y="-421.5" font-family="Helvetica,sans-Serif" font-size="10.00">geometric_shapes_utility.h</text>
</g>
<!-- Node2 -->
<g id="node2" class="node"><title>Node2</title>
<polygon fill="white" stroke="#bfbfbf" points="0,-353 0,-372 44,-372 44,-353 0,-353"/>
<text text-anchor="middle" x="22" y="-360" font-family="Helvetica,sans-Serif" font-size="10.00">vector</text>
</g>
<!-- Node1&#45;&gt;Node2 -->
<g id="edge1" class="edge"><title>Node1&#45;&gt;Node2</title>
<path fill="none" stroke="midnightblue" d="M107.672,-414.475C91.3357,-404.755 64.3976,-388.727 45.0877,-377.237"/>
<polygon fill="midnightblue" stroke="midnightblue" points="46.6845,-374.115 36.301,-372.009 43.1051,-380.13 46.6845,-374.115"/>
</g>
<!-- Node3 -->
<g id="node3" class="node"><title>Node3</title>
<g id="a_node3"><a xlink:href="a00138.html" target="_top" xlink:title="hpp/fcl/shape/geometric\l_shapes.h">
<polygon fill="white" stroke="black" points="61.5,-347.5 61.5,-377.5 182.5,-377.5 182.5,-347.5 61.5,-347.5"/>
<text text-anchor="start" x="69.5" y="-365.5" font-family="Helvetica,sans-Serif" font-size="10.00">hpp/fcl/shape/geometric</text>
<text text-anchor="middle" x="122" y="-354.5" font-family="Helvetica,sans-Serif" font-size="10.00">_shapes.h</text>
</a>
</g>
</g>
<!-- Node1&#45;&gt;Node3 -->
<g id="edge2" class="edge"><title>Node1&#45;&gt;Node3</title>
<path fill="none" stroke="midnightblue" d="M122,-414.475C122,-407.471 122,-397.192 122,-387.696"/>
<polygon fill="midnightblue" stroke="midnightblue" points="125.5,-387.523 122,-377.523 118.5,-387.523 125.5,-387.523"/>
</g>
<!-- Node26 -->
<g id="node26" class="node"><title>Node26</title>
<g id="a_node26"><a xlink:href="a00116.html" target="_top" xlink:title="hpp/fcl/BV/BV.h">
<polygon fill="white" stroke="black" points="463.5,-353 463.5,-372 550.5,-372 550.5,-353 463.5,-353"/>
<text text-anchor="middle" x="507" y="-360" font-family="Helvetica,sans-Serif" font-size="10.00">hpp/fcl/BV/BV.h</text>
</a>
</g>
</g>
<!-- Node1&#45;&gt;Node26 -->
<g id="edge33" class="edge"><title>Node1&#45;&gt;Node26</title>
<path fill="none" stroke="midnightblue" d="M177.161,-414.475C250.835,-403.089 380.51,-383.048 453.389,-371.785"/>
<polygon fill="midnightblue" stroke="midnightblue" points="453.935,-375.243 463.283,-370.256 452.866,-368.325 453.935,-375.243"/>
</g>
<!-- Node4 -->
<g id="node4" class="node"><title>Node4</title>
<polygon fill="white" stroke="#bfbfbf" points="310.5,-168.5 310.5,-198.5 421.5,-198.5 421.5,-168.5 310.5,-168.5"/>
<text text-anchor="start" x="318.5" y="-186.5" font-family="Helvetica,sans-Serif" font-size="10.00">boost/math/constants</text>
<text text-anchor="middle" x="366" y="-175.5" font-family="Helvetica,sans-Serif" font-size="10.00">/constants.hpp</text>
</g>
<!-- Node3&#45;&gt;Node4 -->
<g id="edge3" class="edge"><title>Node3&#45;&gt;Node4</title>
<path fill="none" stroke="midnightblue" d="M109.012,-347.253C101.257,-337.747 92.135,-324.546 88,-311 76.9741,-274.881 94.5933,-255.971 126,-235 189.458,-192.627 220.858,-213.817 300.4,-198.975"/>
<polygon fill="midnightblue" stroke="midnightblue" points="301.228,-202.378 310.344,-196.979 299.851,-195.515 301.228,-202.378"/>
</g>
<!-- Node5 -->
<g id="node5" class="node"><title>Node5</title>
<g id="a_node5"><a xlink:href="a00128.html" target="_top" xlink:title="hpp/fcl/collision_object.h">
<polygon fill="white" stroke="black" points="164,-291.5 164,-310.5 288,-310.5 288,-291.5 164,-291.5"/>
<text text-anchor="middle" x="226" y="-298.5" font-family="Helvetica,sans-Serif" font-size="10.00">hpp/fcl/collision_object.h</text>
</a>
</g>
</g>
<!-- Node3&#45;&gt;Node5 -->
<g id="edge4" class="edge"><title>Node3&#45;&gt;Node5</title>
<path fill="none" stroke="midnightblue" d="M146.647,-347.399C163.317,-337.862 185.231,-325.325 201.805,-315.842"/>
<polygon fill="midnightblue" stroke="midnightblue" points="203.925,-318.662 210.867,-310.658 200.449,-312.586 203.925,-318.662"/>
</g>
<!-- Node9 -->
<g id="node9" class="node"><title>Node9</title>
<g id="a_node9"><a xlink:href="a00164.html" target="_top" xlink:title="hpp/fcl/math/vec_3f.h">
<polygon fill="white" stroke="black" points="551.5,-112.5 551.5,-131.5 662.5,-131.5 662.5,-112.5 551.5,-112.5"/>
<text text-anchor="middle" x="607" y="-119.5" font-family="Helvetica,sans-Serif" font-size="10.00">hpp/fcl/math/vec_3f.h</text>
</a>
</g>
</g>
<!-- Node3&#45;&gt;Node9 -->
<g id="edge31" class="edge"><title>Node3&#45;&gt;Node9</title>
<path fill="none" stroke="midnightblue" d="M105.969,-347.321C96.7298,-338.036 85.9849,-325.049 81,-311 78.0275,-302.623 79.7671,-299.803 81,-291 90.1472,-225.689 104.426,-196.288 164,-168 229.114,-137.082 434.439,-127.329 541.148,-124.313"/>
<polygon fill="midnightblue" stroke="midnightblue" points="541.257,-127.811 551.159,-124.042 541.067,-120.814 541.257,-127.811"/>
</g>
<!-- Node25 -->
<g id="node25" class="node"><title>Node25</title>
<polygon fill="white" stroke="#bfbfbf" points="97.5,-291.5 97.5,-310.5 146.5,-310.5 146.5,-291.5 97.5,-291.5"/>
<text text-anchor="middle" x="122" y="-298.5" font-family="Helvetica,sans-Serif" font-size="10.00">string.h</text>
</g>
<!-- Node3&#45;&gt;Node25 -->
<g id="edge32" class="edge"><title>Node3&#45;&gt;Node25</title>
<path fill="none" stroke="midnightblue" d="M122,-347.399C122,-339.466 122,-329.458 122,-320.858"/>
<polygon fill="midnightblue" stroke="midnightblue" points="125.5,-320.658 122,-310.658 118.5,-320.658 125.5,-320.658"/>
</g>
<!-- Node6 -->
<g id="node6" class="node"><title>Node6</title>
<polygon fill="white" stroke="#bfbfbf" points="97,-0.5 97,-19.5 207,-19.5 207,-0.5 97,-0.5"/>
<text text-anchor="middle" x="152" y="-7.5" font-family="Helvetica,sans-Serif" font-size="10.00">hpp/fcl/deprecated.hh</text>
</g>
<!-- Node5&#45;&gt;Node6 -->
<g id="edge5" class="edge"><title>Node5&#45;&gt;Node6</title>
<path fill="none" stroke="midnightblue" d="M187.852,-291.412C166.803,-284.8 141.803,-273.55 126,-255 104.956,-230.297 107,-216.951 107,-184.5 107,-184.5 107,-184.5 107,-121 107,-85.9296 126.837,-48.9386 140.169,-28.037"/>
<polygon fill="midnightblue" stroke="midnightblue" points="143.134,-29.8991 145.743,-19.6305 137.3,-26.031 143.134,-29.8991"/>
</g>
<!-- Node7 -->
<g id="node7" class="node"><title>Node7</title>
<g id="a_node7"><a xlink:href="a00114.html" target="_top" xlink:title="hpp/fcl/BV/AABB.h">
<polygon fill="white" stroke="black" points="634.5,-235.5 634.5,-254.5 735.5,-254.5 735.5,-235.5 634.5,-235.5"/>
<text text-anchor="middle" x="685" y="-242.5" font-family="Helvetica,sans-Serif" font-size="10.00">hpp/fcl/BV/AABB.h</text>
</a>
</g>
</g>
<!-- Node5&#45;&gt;Node7 -->
<g id="edge6" class="edge"><title>Node5&#45;&gt;Node7</title>
<path fill="none" stroke="midnightblue" d="M288.286,-293.688C364.798,-285.775 498.819,-271.398 624.12,-255.072"/>
<polygon fill="midnightblue" stroke="midnightblue" points="624.819,-258.51 634.279,-253.741 623.909,-251.57 624.819,-258.51"/>
</g>
<!-- Node22 -->
<g id="node22" class="node"><title>Node22</title>
<g id="a_node22"><a xlink:href="a00155.html" target="_top" xlink:title="hpp/fcl/math/transform.h">
<polygon fill="white" stroke="black" points="261.5,-235.5 261.5,-254.5 384.5,-254.5 384.5,-235.5 261.5,-235.5"/>
<text text-anchor="middle" x="323" y="-242.5" font-family="Helvetica,sans-Serif" font-size="10.00">hpp/fcl/math/transform.h</text>
</a>
</g>
</g>
<!-- Node5&#45;&gt;Node22 -->
<g id="edge27" class="edge"><title>Node5&#45;&gt;Node22</title>
<path fill="none" stroke="midnightblue" d="M241.585,-291.324C256.999,-282.743 280.812,-269.486 298.71,-259.522"/>
<polygon fill="midnightblue" stroke="midnightblue" points="300.419,-262.577 307.454,-254.655 297.014,-256.461 300.419,-262.577"/>
</g>
<!-- Node24 -->
<g id="node24" class="node"><title>Node24</title>
<polygon fill="white" stroke="#bfbfbf" points="135,-235.5 135,-254.5 243,-254.5 243,-235.5 135,-235.5"/>
<text text-anchor="middle" x="189" y="-242.5" font-family="Helvetica,sans-Serif" font-size="10.00">boost/shared_ptr.hpp</text>
</g>
<!-- Node5&#45;&gt;Node24 -->
<g id="edge30" class="edge"><title>Node5&#45;&gt;Node24</title>
<path fill="none" stroke="midnightblue" d="M219.89,-291.083C214.718,-283.534 207.154,-272.495 200.806,-263.23"/>
<polygon fill="midnightblue" stroke="midnightblue" points="203.536,-261.022 194.996,-254.751 197.761,-264.979 203.536,-261.022"/>
</g>
<!-- Node8 -->
<g id="node8" class="node"><title>Node8</title>
<polygon fill="white" stroke="#bfbfbf" points="478.5,-174 478.5,-193 537.5,-193 537.5,-174 478.5,-174"/>
<text text-anchor="middle" x="508" y="-181" font-family="Helvetica,sans-Serif" font-size="10.00">stdexcept</text>
</g>
<!-- Node7&#45;&gt;Node8 -->
<g id="edge7" class="edge"><title>Node7&#45;&gt;Node8</title>
<path fill="none" stroke="midnightblue" d="M657.658,-235.446C629.737,-226.626 585.19,-212.32 547,-199 544.756,-198.217 542.444,-197.396 540.119,-196.559"/>
<polygon fill="midnightblue" stroke="midnightblue" points="541.222,-193.236 530.628,-193.091 538.819,-199.811 541.222,-193.236"/>
</g>
<!-- Node7&#45;&gt;Node9 -->
<g id="edge8" class="edge"><title>Node7&#45;&gt;Node9</title>
<path fill="none" stroke="midnightblue" d="M688,-235.296C692.577,-220.367 699.527,-189.42 687,-168 678.139,-152.85 662.095,-142.406 646.688,-135.424"/>
<polygon fill="midnightblue" stroke="midnightblue" points="647.825,-132.106 637.247,-131.512 645.146,-138.573 647.825,-132.106"/>
</g>
<!-- Node21 -->
<g id="node21" class="node"><title>Node21</title>
<g id="a_node21"><a xlink:href="a00146.html" target="_top" xlink:title="hpp/fcl/math/matrix_3f.h">
<polygon fill="white" stroke="black" points="556,-174 556,-193 678,-193 678,-174 556,-174"/>
<text text-anchor="middle" x="617" y="-181" font-family="Helvetica,sans-Serif" font-size="10.00">hpp/fcl/math/matrix_3f.h</text>
</a>
</g>
</g>
<!-- Node7&#45;&gt;Node21 -->
<g id="edge25" class="edge"><title>Node7&#45;&gt;Node21</title>
<path fill="none" stroke="midnightblue" d="M675.257,-235.475C664.653,-226.197 647.481,-211.171 634.521,-199.831"/>
<polygon fill="midnightblue" stroke="midnightblue" points="636.555,-196.96 626.725,-193.009 631.946,-202.228 636.555,-196.96"/>
</g>
<!-- Node10 -->
<g id="node10" class="node"><title>Node10</title>
<g id="a_node10"><a xlink:href="a00130.html" target="_top" xlink:title="hpp/fcl/data_types.h">
<polygon fill="white" stroke="black" points="746.5,-56.5 746.5,-75.5 851.5,-75.5 851.5,-56.5 746.5,-56.5"/>
<text text-anchor="middle" x="799" y="-63.5" font-family="Helvetica,sans-Serif" font-size="10.00">hpp/fcl/data_types.h</text>
</a>
</g>
</g>
<!-- Node9&#45;&gt;Node10 -->
<g id="edge9" class="edge"><title>Node9&#45;&gt;Node10</title>
<path fill="none" stroke="midnightblue" d="M637.423,-112.444C670.285,-103.201 722.785,-88.4356 758.974,-78.2572"/>
<polygon fill="midnightblue" stroke="midnightblue" points="760.04,-81.5932 768.719,-75.5164 758.145,-74.8547 760.04,-81.5932"/>
</g>
<!-- Node13 -->
<g id="node13" class="node"><title>Node13</title>
<polygon fill="white" stroke="#bfbfbf" points="663.5,-56.5 663.5,-75.5 728.5,-75.5 728.5,-56.5 663.5,-56.5"/>
<text text-anchor="middle" x="696" y="-63.5" font-family="Helvetica,sans-Serif" font-size="10.00">Eigen/Core</text>
</g>
<!-- Node9&#45;&gt;Node13 -->
<g id="edge12" class="edge"><title>Node9&#45;&gt;Node13</title>
<path fill="none" stroke="midnightblue" d="M621.299,-112.324C635.183,-103.9 656.492,-90.9709 672.804,-81.0741"/>
<polygon fill="midnightblue" stroke="midnightblue" points="675.002,-83.8341 681.736,-75.6545 671.371,-77.8495 675.002,-83.8341"/>
</g>
<!-- Node14 -->
<g id="node14" class="node"><title>Node14</title>
<polygon fill="white" stroke="#bfbfbf" points="638.5,-0.5 638.5,-19.5 725.5,-19.5 725.5,-0.5 638.5,-0.5"/>
<text text-anchor="middle" x="682" y="-7.5" font-family="Helvetica,sans-Serif" font-size="10.00">Eigen/Geometry</text>
</g>
<!-- Node9&#45;&gt;Node14 -->
<g id="edge13" class="edge"><title>Node9&#45;&gt;Node14</title>
<path fill="none" stroke="midnightblue" d="M612.885,-112.368C625.262,-94.2153 654.181,-51.8015 670.416,-27.9902"/>
<polygon fill="midnightblue" stroke="midnightblue" points="673.401,-29.8254 676.142,-19.5914 667.617,-25.882 673.401,-29.8254"/>
</g>
<!-- Node15 -->
<g id="node15" class="node"><title>Node15</title>
<g id="a_node15"><a xlink:href="a00154.html" target="_top" xlink:title="hpp/fcl/math/tools.h">
<polygon fill="white" stroke="black" points="415.5,-56.5 415.5,-75.5 518.5,-75.5 518.5,-56.5 415.5,-56.5"/>
<text text-anchor="middle" x="467" y="-63.5" font-family="Helvetica,sans-Serif" font-size="10.00">hpp/fcl/math/tools.h</text>
</a>
</g>
</g>
<!-- Node9&#45;&gt;Node15 -->
<g id="edge14" class="edge"><title>Node9&#45;&gt;Node15</title>
<path fill="none" stroke="midnightblue" d="M584.817,-112.444C561.572,-103.478 524.851,-89.314 498.585,-79.1827"/>
<polygon fill="midnightblue" stroke="midnightblue" points="499.669,-75.8497 489.08,-75.5164 497.15,-82.3807 499.669,-75.8497"/>
</g>
<!-- Node18 -->
<g id="node18" class="node"><title>Node18</title>
<polygon fill="white" stroke="#bfbfbf" points="248,-0.5 248,-19.5 292,-19.5 292,-0.5 248,-0.5"/>
<text text-anchor="middle" x="270" y="-7.5" font-family="Helvetica,sans-Serif" font-size="10.00">cmath</text>
</g>
<!-- Node9&#45;&gt;Node18 -->
<g id="edge22" class="edge"><title>Node9&#45;&gt;Node18</title>
<path fill="none" stroke="midnightblue" d="M553.616,-112.44C512.578,-105.053 454.833,-92.8931 406,-76 365.251,-61.9037 320.619,-39.0269 293.982,-24.5114"/>
<polygon fill="midnightblue" stroke="midnightblue" points="295.47,-21.3354 285.023,-19.5737 292.091,-27.4659 295.47,-21.3354"/>
</g>
<!-- Node19 -->
<g id="node19" class="node"><title>Node19</title>
<polygon fill="white" stroke="#bfbfbf" points="508,-0.5 508,-19.5 562,-19.5 562,-0.5 508,-0.5"/>
<text text-anchor="middle" x="535" y="-7.5" font-family="Helvetica,sans-Serif" font-size="10.00">iostream</text>
</g>
<!-- Node9&#45;&gt;Node19 -->
<g id="edge23" class="edge"><title>Node9&#45;&gt;Node19</title>
<path fill="none" stroke="midnightblue" d="M601.35,-112.368C589.468,-94.2153 561.706,-51.8015 546.121,-27.9902"/>
<polygon fill="midnightblue" stroke="midnightblue" points="549.029,-26.0416 540.623,-19.5914 543.172,-29.8753 549.029,-26.0416"/>
</g>
<!-- Node20 -->
<g id="node20" class="node"><title>Node20</title>
<polygon fill="white" stroke="#bfbfbf" points="580,-0.5 580,-19.5 620,-19.5 620,-0.5 580,-0.5"/>
<text text-anchor="middle" x="600" y="-7.5" font-family="Helvetica,sans-Serif" font-size="10.00">limits</text>
</g>
<!-- Node9&#45;&gt;Node20 -->
<g id="edge24" class="edge"><title>Node9&#45;&gt;Node20</title>
<path fill="none" stroke="midnightblue" d="M606.451,-112.368C605.321,-94.617 602.715,-53.6664 601.183,-29.5974"/>
<polygon fill="midnightblue" stroke="midnightblue" points="604.675,-29.3489 600.547,-19.5914 597.689,-29.7935 604.675,-29.3489"/>
</g>
<!-- Node11 -->
<g id="node11" class="node"><title>Node11</title>
<polygon fill="white" stroke="#bfbfbf" points="857.5,-0.5 857.5,-19.5 906.5,-19.5 906.5,-0.5 857.5,-0.5"/>
<text text-anchor="middle" x="882" y="-7.5" font-family="Helvetica,sans-Serif" font-size="10.00">cstddef</text>
</g>
<!-- Node10&#45;&gt;Node11 -->
<g id="edge10" class="edge"><title>Node10&#45;&gt;Node11</title>
<path fill="none" stroke="midnightblue" d="M812.335,-56.324C825.162,-47.979 844.785,-35.2122 859.94,-25.3524"/>
<polygon fill="midnightblue" stroke="midnightblue" points="862.224,-28.0417 868.698,-19.6545 858.407,-22.1742 862.224,-28.0417"/>
</g>
<!-- Node12 -->
<g id="node12" class="node"><title>Node12</title>
<polygon fill="white" stroke="#bfbfbf" points="747,-0.5 747,-19.5 839,-19.5 839,-0.5 747,-0.5"/>
<text text-anchor="middle" x="793" y="-7.5" font-family="Helvetica,sans-Serif" font-size="10.00">boost/cstdint.hpp</text>
</g>
<!-- Node10&#45;&gt;Node12 -->
<g id="edge11" class="edge"><title>Node10&#45;&gt;Node12</title>
<path fill="none" stroke="midnightblue" d="M798.009,-56.083C797.214,-48.9272 796.071,-38.6353 795.077,-29.6911"/>
<polygon fill="midnightblue" stroke="midnightblue" points="798.555,-29.3034 793.972,-19.7511 791.598,-30.0765 798.555,-29.3034"/>
</g>
<!-- Node15&#45;&gt;Node6 -->
<g id="edge15" class="edge"><title>Node15&#45;&gt;Node6</title>
<path fill="none" stroke="midnightblue" d="M417.087,-56.4435C361.33,-46.8851 271.114,-31.4195 211.674,-21.2298"/>
<polygon fill="midnightblue" stroke="midnightblue" points="212.127,-17.7565 201.679,-19.5164 210.944,-24.6558 212.127,-17.7565"/>
</g>
<!-- Node15&#45;&gt;Node14 -->
<g id="edge18" class="edge"><title>Node15&#45;&gt;Node14</title>
<path fill="none" stroke="midnightblue" d="M501.067,-56.4435C538.18,-47.1221 597.661,-32.1828 638.215,-21.9972"/>
<polygon fill="midnightblue" stroke="midnightblue" points="639.246,-25.347 648.092,-19.5164 637.541,-18.5579 639.246,-25.347"/>
</g>
<!-- Node16 -->
<g id="node16" class="node"><title>Node16</title>
<polygon fill="white" stroke="#bfbfbf" points="309.5,-0.5 309.5,-19.5 398.5,-19.5 398.5,-0.5 309.5,-0.5"/>
<text text-anchor="middle" x="354" y="-7.5" font-family="Helvetica,sans-Serif" font-size="10.00">hpp/fcl/config.hh</text>
</g>
<!-- Node15&#45;&gt;Node16 -->
<g id="edge16" class="edge"><title>Node15&#45;&gt;Node16</title>
<path fill="none" stroke="midnightblue" d="M449.095,-56.4435C430.746,-47.6751 401.995,-33.9355 380.906,-23.8579"/>
<polygon fill="midnightblue" stroke="midnightblue" points="382.353,-20.6703 371.821,-19.5164 379.335,-26.9862 382.353,-20.6703"/>
</g>
<!-- Node17 -->
<g id="node17" class="node"><title>Node17</title>
<polygon fill="white" stroke="#bfbfbf" points="416.5,-0.5 416.5,-19.5 489.5,-19.5 489.5,-0.5 416.5,-0.5"/>
<text text-anchor="middle" x="453" y="-7.5" font-family="Helvetica,sans-Serif" font-size="10.00">Eigen/Dense</text>
</g>
<!-- Node15&#45;&gt;Node17 -->
<g id="edge17" class="edge"><title>Node15&#45;&gt;Node17</title>
<path fill="none" stroke="midnightblue" d="M464.688,-56.083C462.833,-48.9272 460.165,-38.6353 457.846,-29.6911"/>
<polygon fill="midnightblue" stroke="midnightblue" points="461.166,-28.5527 455.269,-19.7511 454.391,-30.3094 461.166,-28.5527"/>
</g>
<!-- Node15&#45;&gt;Node18 -->
<g id="edge19" class="edge"><title>Node15&#45;&gt;Node18</title>
<path fill="none" stroke="midnightblue" d="M434.285,-56.4767C402.603,-48.1583 352.969,-34.9579 302.105,-20.5533"/>
<polygon fill="midnightblue" stroke="midnightblue" points="302.836,-17.1224 292.26,-17.7542 300.921,-23.8555 302.836,-17.1224"/>
</g>
<!-- Node15&#45;&gt;Node19 -->
<g id="edge20" class="edge"><title>Node15&#45;&gt;Node19</title>
<path fill="none" stroke="midnightblue" d="M477.925,-56.324C488.175,-48.1849 503.721,-35.8395 516.001,-26.0874"/>
<polygon fill="midnightblue" stroke="midnightblue" points="518.221,-28.7937 523.876,-19.8339 513.868,-23.3119 518.221,-28.7937"/>
</g>
<!-- Node15&#45;&gt;Node20 -->
<g id="edge21" class="edge"><title>Node15&#45;&gt;Node20</title>
<path fill="none" stroke="midnightblue" d="M488.074,-56.4435C510.318,-47.4121 545.552,-33.1067 570.54,-22.9612"/>
<polygon fill="midnightblue" stroke="midnightblue" points="571.946,-26.1678 579.895,-19.1629 569.313,-19.682 571.946,-26.1678"/>
</g>
<!-- Node21&#45;&gt;Node9 -->
<g id="edge26" class="edge"><title>Node21&#45;&gt;Node9</title>
<path fill="none" stroke="midnightblue" d="M615.567,-173.975C614.156,-165.58 611.955,-152.481 610.137,-141.663"/>
<polygon fill="midnightblue" stroke="midnightblue" points="613.539,-140.791 608.43,-131.509 606.636,-141.951 613.539,-140.791"/>
</g>
<!-- Node22&#45;&gt;Node21 -->
<g id="edge28" class="edge"><title>Node22&#45;&gt;Node21</title>
<path fill="none" stroke="midnightblue" d="M365.342,-235.486C410.203,-226.459 483.103,-211.769 546,-199 552.23,-197.735 558.767,-196.405 565.247,-195.084"/>
<polygon fill="midnightblue" stroke="midnightblue" points="566.232,-198.455 575.33,-193.027 564.833,-191.596 566.232,-198.455"/>
</g>
<!-- Node23 -->
<g id="node23" class="node"><title>Node23</title>
<polygon fill="white" stroke="#bfbfbf" points="173.5,-174 173.5,-193 292.5,-193 292.5,-174 173.5,-174"/>
<text text-anchor="middle" x="233" y="-181" font-family="Helvetica,sans-Serif" font-size="10.00">boost/thread/mutex.hpp</text>
</g>
<!-- Node22&#45;&gt;Node23 -->
<g id="edge29" class="edge"><title>Node22&#45;&gt;Node23</title>
<path fill="none" stroke="midnightblue" d="M310.105,-235.475C295.536,-225.843 271.598,-210.017 254.255,-198.552"/>
<polygon fill="midnightblue" stroke="midnightblue" points="256.143,-195.604 245.871,-193.009 252.283,-201.444 256.143,-195.604"/>
</g>
<!-- Node26&#45;&gt;Node7 -->
<g id="edge37" class="edge"><title>Node26&#45;&gt;Node7</title>
<path fill="none" stroke="midnightblue" d="M509.365,-352.758C513.829,-337.9 524.901,-307.714 545,-291 559.382,-279.04 603.17,-266.028 637.987,-257.087"/>
<polygon fill="midnightblue" stroke="midnightblue" points="639.158,-260.401 647.999,-254.563 637.447,-253.613 639.158,-260.401"/>
</g>
<!-- Node26&#45;&gt;Node22 -->
<g id="edge51" class="edge"><title>Node26&#45;&gt;Node22</title>
<path fill="none" stroke="midnightblue" d="M493.17,-352.819C461.602,-333.003 383.996,-284.289 345.461,-260.099"/>
<polygon fill="midnightblue" stroke="midnightblue" points="347.321,-257.134 336.99,-254.782 343.599,-263.063 347.321,-257.134"/>
</g>
<!-- Node27 -->
<g id="node27" class="node"><title>Node27</title>
<g id="a_node27"><a xlink:href="a00142.html" target="_top" xlink:title="hpp/fcl/BV/kDOP.h">
<polygon fill="white" stroke="black" points="515.5,-235.5 515.5,-254.5 616.5,-254.5 616.5,-235.5 515.5,-235.5"/>
<text text-anchor="middle" x="566" y="-242.5" font-family="Helvetica,sans-Serif" font-size="10.00">hpp/fcl/BV/kDOP.h</text>
</a>
</g>
</g>
<!-- Node26&#45;&gt;Node27 -->
<g id="edge34" class="edge"><title>Node26&#45;&gt;Node27</title>
<path fill="none" stroke="midnightblue" d="M505.521,-352.675C503.627,-338.723 501.706,-311.094 512,-291 518.542,-278.23 530.464,-267.699 541.446,-260.042"/>
<polygon fill="midnightblue" stroke="midnightblue" points="543.451,-262.914 549.93,-254.531 539.637,-257.044 543.451,-262.914"/>
</g>
<!-- Node28 -->
<g id="node28" class="node"><title>Node28</title>
<g id="a_node28"><a xlink:href="a00148.html" target="_top" xlink:title="hpp/fcl/BV/OBB.h">
<polygon fill="white" stroke="black" points="753.5,-235.5 753.5,-254.5 848.5,-254.5 848.5,-235.5 753.5,-235.5"/>
<text text-anchor="middle" x="801" y="-242.5" font-family="Helvetica,sans-Serif" font-size="10.00">hpp/fcl/BV/OBB.h</text>
</a>
</g>
</g>
<!-- Node26&#45;&gt;Node28 -->
<g id="edge38" class="edge"><title>Node26&#45;&gt;Node28</title>
<path fill="none" stroke="midnightblue" d="M550.771,-359.938C622.533,-356.41 760.504,-345.242 793,-311 804.363,-299.026 805.411,-279.727 804.188,-265.263"/>
<polygon fill="midnightblue" stroke="midnightblue" points="807.608,-264.41 802.875,-254.932 800.664,-265.293 807.608,-264.41"/>
</g>
<!-- Node29 -->
<g id="node29" class="node"><title>Node29</title>
<g id="a_node29"><a xlink:href="a00153.html" target="_top" xlink:title="hpp/fcl/BV/RSS.h">
<polygon fill="white" stroke="black" points="402.5,-235.5 402.5,-254.5 497.5,-254.5 497.5,-235.5 402.5,-235.5"/>
<text text-anchor="middle" x="450" y="-242.5" font-family="Helvetica,sans-Serif" font-size="10.00">hpp/fcl/BV/RSS.h</text>
</a>
</g>
</g>
<!-- Node26&#45;&gt;Node29 -->
<g id="edge41" class="edge"><title>Node26&#45;&gt;Node29</title>
<path fill="none" stroke="midnightblue" d="M500.53,-352.922C493.371,-343.153 481.816,-326.53 474,-311 466.395,-295.889 459.903,-277.766 455.597,-264.5"/>
<polygon fill="midnightblue" stroke="midnightblue" points="458.847,-263.166 452.516,-254.671 452.167,-265.26 458.847,-263.166"/>
</g>
<!-- Node30 -->
<g id="node30" class="node"><title>Node30</title>
<g id="a_node30"><a xlink:href="a00150.html" target="_top" xlink:title="hpp/fcl/BV/OBBRSS.h">
<polygon fill="white" stroke="black" points="554,-291.5 554,-310.5 670,-310.5 670,-291.5 554,-291.5"/>
<text text-anchor="middle" x="612" y="-298.5" font-family="Helvetica,sans-Serif" font-size="10.00">hpp/fcl/BV/OBBRSS.h</text>
</a>
</g>
</g>
<!-- Node26&#45;&gt;Node30 -->
<g id="edge46" class="edge"><title>Node26&#45;&gt;Node30</title>
<path fill="none" stroke="midnightblue" d="M522.044,-352.975C539.275,-343.211 567.74,-327.081 588.034,-315.581"/>
<polygon fill="midnightblue" stroke="midnightblue" points="590.009,-318.484 596.984,-310.509 586.558,-312.394 590.009,-318.484"/>
</g>
<!-- Node31 -->
<g id="node31" class="node"><title>Node31</title>
<g id="a_node31"><a xlink:href="a00143.html" target="_top" xlink:title="hpp/fcl/BV/kIOS.h">
<polygon fill="white" stroke="black" points="688,-291.5 688,-310.5 784,-310.5 784,-291.5 688,-291.5"/>
<text text-anchor="middle" x="736" y="-298.5" font-family="Helvetica,sans-Serif" font-size="10.00">hpp/fcl/BV/kIOS.h</text>
</a>
</g>
</g>
<!-- Node26&#45;&gt;Node31 -->
<g id="edge49" class="edge"><title>Node26&#45;&gt;Node31</title>
<path fill="none" stroke="midnightblue" d="M539.81,-352.975C580.197,-342.482 648.877,-324.637 693.329,-313.087"/>
<polygon fill="midnightblue" stroke="midnightblue" points="694.452,-316.411 703.251,-310.509 692.692,-309.636 694.452,-316.411"/>
</g>
<!-- Node27&#45;&gt;Node8 -->
<g id="edge35" class="edge"><title>Node27&#45;&gt;Node8</title>
<path fill="none" stroke="midnightblue" d="M557.69,-235.475C548.818,-226.373 534.554,-211.741 523.58,-200.483"/>
<polygon fill="midnightblue" stroke="midnightblue" points="525.781,-197.727 516.295,-193.009 520.769,-202.613 525.781,-197.727"/>
</g>
<!-- Node27&#45;&gt;Node21 -->
<g id="edge36" class="edge"><title>Node27&#45;&gt;Node21</title>
<path fill="none" stroke="midnightblue" d="M573.307,-235.475C581.033,-226.462 593.408,-212.025 603.018,-200.812"/>
<polygon fill="midnightblue" stroke="midnightblue" points="605.856,-202.879 609.706,-193.009 600.541,-198.324 605.856,-202.879"/>
</g>
<!-- Node28&#45;&gt;Node9 -->
<g id="edge39" class="edge"><title>Node28&#45;&gt;Node9</title>
<path fill="none" stroke="midnightblue" d="M791.753,-235.423C775.253,-220.417 739.25,-189.001 705,-168 683.974,-155.107 658.635,-143.567 638.991,-135.401"/>
<polygon fill="midnightblue" stroke="midnightblue" points="640.151,-132.095 629.57,-131.561 637.509,-138.577 640.151,-132.095"/>
</g>
<!-- Node28&#45;&gt;Node21 -->
<g id="edge40" class="edge"><title>Node28&#45;&gt;Node21</title>
<path fill="none" stroke="midnightblue" d="M774.637,-235.475C742.665,-225.136 688.624,-207.661 652.878,-196.102"/>
<polygon fill="midnightblue" stroke="midnightblue" points="653.906,-192.756 643.314,-193.009 651.752,-199.416 653.906,-192.756"/>
</g>
<!-- Node29&#45;&gt;Node4 -->
<g id="edge45" class="edge"><title>Node29&#45;&gt;Node4</title>
<path fill="none" stroke="midnightblue" d="M437.965,-235.475C426.588,-227.417 409.091,-215.023 394.199,-204.474"/>
<polygon fill="midnightblue" stroke="midnightblue" points="395.98,-201.447 385.797,-198.523 391.934,-207.159 395.98,-201.447"/>
</g>
<!-- Node29&#45;&gt;Node8 -->
<g id="edge42" class="edge"><title>Node29&#45;&gt;Node8</title>
<path fill="none" stroke="midnightblue" d="M458.31,-235.475C467.182,-226.373 481.446,-211.741 492.42,-200.483"/>
<polygon fill="midnightblue" stroke="midnightblue" points="495.231,-202.613 499.705,-193.009 490.219,-197.727 495.231,-202.613"/>
</g>
<!-- Node29&#45;&gt;Node9 -->
<g id="edge43" class="edge"><title>Node29&#45;&gt;Node9</title>
<path fill="none" stroke="midnightblue" d="M449.624,-235.219C449.449,-219.611 451.38,-186.903 469,-168 487.816,-147.813 515.787,-136.663 541.637,-130.511"/>
<polygon fill="midnightblue" stroke="midnightblue" points="542.386,-133.93 551.417,-128.39 540.902,-127.089 542.386,-133.93"/>
</g>
<!-- Node29&#45;&gt;Node21 -->
<g id="edge44" class="edge"><title>Node29&#45;&gt;Node21</title>
<path fill="none" stroke="midnightblue" d="M473.927,-235.475C502.697,-225.225 551.156,-207.959 583.602,-196.399"/>
<polygon fill="midnightblue" stroke="midnightblue" points="584.872,-199.662 593.117,-193.009 582.523,-193.068 584.872,-199.662"/>
</g>
<!-- Node30&#45;&gt;Node28 -->
<g id="edge47" class="edge"><title>Node30&#45;&gt;Node28</title>
<path fill="none" stroke="midnightblue" d="M641.948,-291.444C674.158,-282.241 725.534,-267.562 761.142,-257.388"/>
<polygon fill="midnightblue" stroke="midnightblue" points="762.539,-260.629 771.192,-254.516 760.616,-253.898 762.539,-260.629"/>
</g>
<!-- Node30&#45;&gt;Node29 -->
<g id="edge48" class="edge"><title>Node30&#45;&gt;Node29</title>
<path fill="none" stroke="midnightblue" d="M586.331,-291.444C559.077,-282.359 515.816,-267.939 485.349,-257.783"/>
<polygon fill="midnightblue" stroke="midnightblue" points="486.143,-254.358 475.549,-254.516 483.929,-260.999 486.143,-254.358"/>
</g>
<!-- Node31&#45;&gt;Node28 -->
<g id="edge50" class="edge"><title>Node31&#45;&gt;Node28</title>
<path fill="none" stroke="midnightblue" d="M746.443,-291.324C756.146,-283.263 770.815,-271.077 782.5,-261.369"/>
<polygon fill="midnightblue" stroke="midnightblue" points="784.911,-263.916 790.367,-254.834 780.438,-258.532 784.911,-263.916"/>
</g>
</g>
</svg>
