<?xml version="1.0" encoding="UTF-8" standalone="no"?>
<!DOCTYPE svg PUBLIC "-//W3C//DTD SVG 1.1//EN"
 "http://www.w3.org/Graphics/SVG/1.1/DTD/svg11.dtd">
<!-- Generated by graphviz version 2.38.0 (20140413.2041)
 -->
<!-- Title: transform.h Pages: 1 -->
<svg width="1511pt" height="431pt"
 viewBox="0.00 0.00 1511.01 431.00" xmlns="http://www.w3.org/2000/svg" xmlns:xlink="http://www.w3.org/1999/xlink">
<g id="graph0" class="graph" transform="scale(1 1) rotate(0) translate(4 427)">
<title>transform.h</title>
<polygon fill="white" stroke="none" points="-4,4 -4,-427 1507.01,-427 1507.01,4 -4,4"/>
<!-- Node1 -->
<g id="node1" class="node"><title>Node1</title>
<polygon fill="#bfbfbf" stroke="black" points="652.013,-403.5 652.013,-422.5 718.013,-422.5 718.013,-403.5 652.013,-403.5"/>
<text text-anchor="middle" x="685.013" y="-410.5" font-family="Helvetica,sans-Serif" font-size="10.00">transform.h</text>
</g>
<!-- Node2 -->
<g id="node2" class="node"><title>Node2</title>
<g id="a_node2"><a xlink:href="a00116.html" target="_top" xlink:title="BV.h">
<polygon fill="white" stroke="black" points="1222.01,-291.5 1222.01,-310.5 1260.01,-310.5 1260.01,-291.5 1222.01,-291.5"/>
<text text-anchor="middle" x="1241.01" y="-298.5" font-family="Helvetica,sans-Serif" font-size="10.00">BV.h</text>
</a>
</g>
</g>
<!-- Node1&#45;&gt;Node2 -->
<g id="edge1" class="edge"><title>Node1&#45;&gt;Node2</title>
<path fill="none" stroke="midnightblue" d="M727.926,-404.343C776.523,-395.604 858.051,-380.741 928.013,-367 1039.65,-345.073 1173.21,-316.582 1221.99,-306.101"/>
<polygon fill="midnightblue" stroke="midnightblue" points="727.296,-400.9 718.072,-406.112 728.533,-407.79 727.296,-400.9"/>
</g>
<!-- Node17 -->
<g id="node17" class="node"><title>Node17</title>
<g id="a_node17"><a xlink:href="a00128.html" target="_top" xlink:title="collision_object.h">
<polygon fill="white" stroke="black" points="639.013,-347.5 639.013,-366.5 731.013,-366.5 731.013,-347.5 639.013,-347.5"/>
<text text-anchor="middle" x="685.013" y="-354.5" font-family="Helvetica,sans-Serif" font-size="10.00">collision_object.h</text>
</a>
</g>
</g>
<!-- Node1&#45;&gt;Node17 -->
<g id="edge25" class="edge"><title>Node1&#45;&gt;Node17</title>
<path fill="none" stroke="midnightblue" d="M685.013,-392.805C685.013,-383.91 685.013,-373.78 685.013,-366.751"/>
<polygon fill="midnightblue" stroke="midnightblue" points="681.513,-393.083 685.013,-403.083 688.513,-393.083 681.513,-393.083"/>
</g>
<!-- Node21 -->
<g id="node21" class="node"><title>Node21</title>
<g id="a_node21"><a xlink:href="a00157.html" target="_top" xlink:title="traversal_node_base.h">
<polygon fill="white" stroke="black" points="447.513,-179.5 447.513,-198.5 562.513,-198.5 562.513,-179.5 447.513,-179.5"/>
<text text-anchor="middle" x="505.013" y="-186.5" font-family="Helvetica,sans-Serif" font-size="10.00">traversal_node_base.h</text>
</a>
</g>
</g>
<!-- Node1&#45;&gt;Node21 -->
<g id="edge63" class="edge"><title>Node1&#45;&gt;Node21</title>
<path fill="none" stroke="midnightblue" d="M664.303,-397.192C653.477,-388.942 640.365,-378.112 630.013,-367 575.651,-308.644 525.602,-225.555 510.004,-198.717"/>
<polygon fill="midnightblue" stroke="midnightblue" points="662.285,-400.053 672.398,-403.212 666.462,-394.436 662.285,-400.053"/>
</g>
<!-- Node26 -->
<g id="node26" class="node"><title>Node26</title>
<g id="a_node26"><a xlink:href="a00140.html" target="_top" xlink:title="gjk.h">
<polygon fill="white" stroke="black" points="367.013,-235.5 367.013,-254.5 405.013,-254.5 405.013,-235.5 367.013,-235.5"/>
<text text-anchor="middle" x="386.013" y="-242.5" font-family="Helvetica,sans-Serif" font-size="10.00">gjk.h</text>
</a>
</g>
</g>
<!-- Node1&#45;&gt;Node26 -->
<g id="edge66" class="edge"><title>Node1&#45;&gt;Node26</title>
<path fill="none" stroke="midnightblue" d="M641.905,-410.243C599.431,-406.759 534.098,-396.565 486.013,-367 438.189,-337.596 402.58,-277.164 390.494,-254.679"/>
<polygon fill="midnightblue" stroke="midnightblue" points="641.694,-413.737 651.923,-410.975 642.204,-406.755 641.694,-413.737"/>
</g>
<!-- Node31 -->
<g id="node31" class="node"><title>Node31</title>
<g id="a_node31"><a xlink:href="a00141.html" target="_top" xlink:title="intersect.h">
<polygon fill="white" stroke="black" points="857.013,-347.5 857.013,-366.5 919.013,-366.5 919.013,-347.5 857.013,-347.5"/>
<text text-anchor="middle" x="888.013" y="-354.5" font-family="Helvetica,sans-Serif" font-size="10.00">intersect.h</text>
</a>
</g>
</g>
<!-- Node1&#45;&gt;Node31 -->
<g id="edge64" class="edge"><title>Node1&#45;&gt;Node31</title>
<path fill="none" stroke="midnightblue" d="M727.098,-400.805C765.793,-390.512 822.267,-375.489 856.996,-366.251"/>
<polygon fill="midnightblue" stroke="midnightblue" points="725.943,-397.49 717.179,-403.444 727.743,-404.255 725.943,-397.49"/>
</g>
<!-- Node3 -->
<g id="node3" class="node"><title>Node3</title>
<g id="a_node3"><a xlink:href="a00118.html" target="_top" xlink:title="BV_node.h">
<polygon fill="white" stroke="black" points="1307.51,-235.5 1307.51,-254.5 1372.51,-254.5 1372.51,-235.5 1307.51,-235.5"/>
<text text-anchor="middle" x="1340.01" y="-242.5" font-family="Helvetica,sans-Serif" font-size="10.00">BV_node.h</text>
</a>
</g>
</g>
<!-- Node2&#45;&gt;Node3 -->
<g id="edge2" class="edge"><title>Node2&#45;&gt;Node3</title>
<path fill="none" stroke="midnightblue" d="M1265.85,-286.453C1284.13,-276.483 1308.43,-263.228 1324.15,-254.655"/>
<polygon fill="midnightblue" stroke="midnightblue" points="1264.02,-283.463 1256.92,-291.324 1267.37,-289.608 1264.02,-283.463"/>
</g>
<!-- Node8 -->
<g id="node8" class="node"><title>Node8</title>
<g id="a_node8"><a xlink:href="a00159.html" target="_top" xlink:title="traversal_node_bvhs.h">
<polygon fill="white" stroke="black" points="884.513,-118 884.513,-137 999.513,-137 999.513,-118 884.513,-118"/>
<text text-anchor="middle" x="942.013" y="-125" font-family="Helvetica,sans-Serif" font-size="10.00">traversal_node_bvhs.h</text>
</a>
</g>
</g>
<!-- Node2&#45;&gt;Node8 -->
<g id="edge18" class="edge"><title>Node2&#45;&gt;Node8</title>
<path fill="none" stroke="midnightblue" d="M1250.35,-282.385C1262.66,-256.464 1280,-207.992 1255.01,-179 1219.66,-137.979 1067.35,-152.348 1014.01,-143 1003.84,-141.217 992.896,-139.111 982.688,-137.064"/>
<polygon fill="midnightblue" stroke="midnightblue" points="1247.18,-280.908 1245.83,-291.417 1253.44,-284.043 1247.18,-280.908"/>
</g>
<!-- Node15 -->
<g id="node15" class="node"><title>Node15</title>
<g id="a_node15"><a xlink:href="a00139.html" target="_top" xlink:title="geometric_shapes_utility.h">
<polygon fill="white" stroke="black" points="1041.51,-179.5 1041.51,-198.5 1174.51,-198.5 1174.51,-179.5 1041.51,-179.5"/>
<text text-anchor="middle" x="1108.01" y="-186.5" font-family="Helvetica,sans-Serif" font-size="10.00">geometric_shapes_utility.h</text>
</a>
</g>
</g>
<!-- Node2&#45;&gt;Node15 -->
<g id="edge19" class="edge"><title>Node2&#45;&gt;Node15</title>
<path fill="none" stroke="midnightblue" d="M1222.65,-284.816C1194.33,-261.387 1140.89,-217.19 1118.4,-198.591"/>
<polygon fill="midnightblue" stroke="midnightblue" points="1220.64,-287.692 1230.58,-291.368 1225.1,-282.298 1220.64,-287.692"/>
</g>
<!-- Node16 -->
<g id="node16" class="node"><title>Node16</title>
<g id="a_node16"><a xlink:href="a00162.html" target="_top" xlink:title="traversal_node_shapes.h">
<polygon fill="white" stroke="black" points="736.513,-118 736.513,-137 861.513,-137 861.513,-118 736.513,-118"/>
<text text-anchor="middle" x="799.013" y="-125" font-family="Helvetica,sans-Serif" font-size="10.00">traversal_node_shapes.h</text>
</a>
</g>
</g>
<!-- Node2&#45;&gt;Node16 -->
<g id="edge24" class="edge"><title>Node2&#45;&gt;Node16</title>
<path fill="none" stroke="midnightblue" d="M1237.84,-281.295C1232.13,-253.913 1217.35,-203.519 1183.01,-179 1126.93,-138.956 943.124,-153.464 875.013,-143 863.861,-141.287 851.844,-139.137 840.732,-137.021"/>
<polygon fill="midnightblue" stroke="midnightblue" points="1234.47,-282.301 1239.77,-291.478 1241.35,-281.002 1234.47,-282.301"/>
</g>
<!-- Node4 -->
<g id="node4" class="node"><title>Node4</title>
<g id="a_node4"><a xlink:href="a00122.html" target="_top" xlink:title="BVH_model.h">
<polygon fill="white" stroke="black" points="1345.51,-179.5 1345.51,-198.5 1422.51,-198.5 1422.51,-179.5 1345.51,-179.5"/>
<text text-anchor="middle" x="1384.01" y="-186.5" font-family="Helvetica,sans-Serif" font-size="10.00">BVH_model.h</text>
</a>
</g>
</g>
<!-- Node3&#45;&gt;Node4 -->
<g id="edge3" class="edge"><title>Node3&#45;&gt;Node4</title>
<path fill="none" stroke="midnightblue" d="M1353.75,-227.144C1361.41,-217.736 1370.65,-206.405 1376.88,-198.751"/>
<polygon fill="midnightblue" stroke="midnightblue" points="1350.88,-225.12 1347.28,-235.083 1356.31,-229.541 1350.88,-225.12"/>
</g>
<!-- Node3&#45;&gt;Node8 -->
<g id="edge17" class="edge"><title>Node3&#45;&gt;Node8</title>
<path fill="none" stroke="midnightblue" d="M1331.92,-225.628C1324.21,-210.466 1311.1,-189.758 1293.01,-179 1185.55,-115.09 1137.37,-163.354 1014.01,-143 1003.57,-141.277 992.331,-139.147 981.909,-137.055"/>
<polygon fill="midnightblue" stroke="midnightblue" points="1328.94,-227.512 1336.39,-235.048 1335.26,-224.513 1328.94,-227.512"/>
</g>
<!-- Node5 -->
<g id="node5" class="node"><title>Node5</title>
<g id="a_node5"><a xlink:href="a00123.html" target="_top" xlink:title="BVH_utility.h">
<polygon fill="white" stroke="black" points="1174.01,-118 1174.01,-137 1248.01,-137 1248.01,-118 1174.01,-118"/>
<text text-anchor="middle" x="1211.01" y="-125" font-family="Helvetica,sans-Serif" font-size="10.00">BVH_utility.h</text>
</a>
</g>
</g>
<!-- Node4&#45;&gt;Node5 -->
<g id="edge4" class="edge"><title>Node4&#45;&gt;Node5</title>
<path fill="none" stroke="midnightblue" d="M1349.36,-176.083C1315.73,-164.517 1265.54,-147.252 1235.75,-137.009"/>
<polygon fill="midnightblue" stroke="midnightblue" points="1348.63,-179.532 1359.23,-179.475 1350.91,-172.913 1348.63,-179.532"/>
</g>
<!-- Node4&#45;&gt;Node8 -->
<g id="edge7" class="edge"><title>Node4&#45;&gt;Node8</title>
<path fill="none" stroke="midnightblue" d="M1334.96,-179.571C1333.63,-179.375 1332.31,-179.184 1331.01,-179 1190.62,-159.123 1154.09,-165.017 1014.01,-143 1003.31,-141.317 991.772,-139.153 981.14,-137.013"/>
<polygon fill="midnightblue" stroke="midnightblue" points="1334.85,-183.096 1345.26,-181.167 1335.92,-176.178 1334.85,-183.096"/>
</g>
<!-- Node11 -->
<g id="node11" class="node"><title>Node11</title>
<g id="a_node11"><a xlink:href="a00115.html" target="_top" xlink:title="assimp.h">
<polygon fill="white" stroke="black" points="1325.01,-118 1325.01,-137 1381.01,-137 1381.01,-118 1325.01,-118"/>
<text text-anchor="middle" x="1353.01" y="-125" font-family="Helvetica,sans-Serif" font-size="10.00">assimp.h</text>
</a>
</g>
</g>
<!-- Node4&#45;&gt;Node11 -->
<g id="edge12" class="edge"><title>Node4&#45;&gt;Node11</title>
<path fill="none" stroke="midnightblue" d="M1374.81,-170.335C1369.07,-159.328 1361.96,-145.663 1357.45,-137.009"/>
<polygon fill="midnightblue" stroke="midnightblue" points="1371.85,-172.224 1379.57,-179.475 1378.05,-168.989 1371.85,-172.224"/>
</g>
<!-- Node12 -->
<g id="node12" class="node"><title>Node12</title>
<g id="a_node12"><a xlink:href="a00137.html" target="_top" xlink:title="geometric_shape_to\l_BVH_model.h">
<polygon fill="white" stroke="black" points="1399.01,-112.5 1399.01,-142.5 1503.01,-142.5 1503.01,-112.5 1399.01,-112.5"/>
<text text-anchor="start" x="1407.01" y="-130.5" font-family="Helvetica,sans-Serif" font-size="10.00">geometric_shape_to</text>
<text text-anchor="middle" x="1451.01" y="-119.5" font-family="Helvetica,sans-Serif" font-size="10.00">_BVH_model.h</text>
</a>
</g>
</g>
<!-- Node4&#45;&gt;Node12 -->
<g id="edge13" class="edge"><title>Node4&#45;&gt;Node12</title>
<path fill="none" stroke="midnightblue" d="M1401.3,-172.646C1411.78,-163.346 1425.03,-151.572 1435.22,-142.523"/>
<polygon fill="midnightblue" stroke="midnightblue" points="1398.77,-170.218 1393.61,-179.475 1403.41,-175.452 1398.77,-170.218"/>
</g>
<!-- Node13 -->
<g id="node13" class="node"><title>Node13</title>
<g id="a_node13"><a xlink:href="a00158.html" target="_top" xlink:title="traversal_node_bvh\l_shape.h">
<polygon fill="white" stroke="black" points="1023.51,-112.5 1023.51,-142.5 1124.51,-142.5 1124.51,-112.5 1023.51,-112.5"/>
<text text-anchor="start" x="1031.51" y="-130.5" font-family="Helvetica,sans-Serif" font-size="10.00">traversal_node_bvh</text>
<text text-anchor="middle" x="1074.01" y="-119.5" font-family="Helvetica,sans-Serif" font-size="10.00">_shape.h</text>
</a>
</g>
</g>
<!-- Node4&#45;&gt;Node13 -->
<g id="edge14" class="edge"><title>Node4&#45;&gt;Node13</title>
<path fill="none" stroke="midnightblue" d="M1335.47,-178.682C1278.08,-167.668 1183.04,-149.426 1124.73,-138.234"/>
<polygon fill="midnightblue" stroke="midnightblue" points="1334.9,-182.137 1345.38,-180.585 1336.22,-175.262 1334.9,-182.137"/>
</g>
<!-- Node14 -->
<g id="node14" class="node"><title>Node14</title>
<g id="a_node14"><a xlink:href="a00160.html" target="_top" xlink:title="traversal_node_octree.h">
<polygon fill="white" stroke="black" points="401.513,-118 401.513,-137 522.513,-137 522.513,-118 401.513,-118"/>
<text text-anchor="middle" x="462.013" y="-125" font-family="Helvetica,sans-Serif" font-size="10.00">traversal_node_octree.h</text>
</a>
</g>
</g>
<!-- Node4&#45;&gt;Node14 -->
<g id="edge16" class="edge"><title>Node4&#45;&gt;Node14</title>
<path fill="none" stroke="midnightblue" d="M1335.06,-184.841C1179.11,-174.777 694.195,-143.484 522.788,-132.422"/>
<polygon fill="midnightblue" stroke="midnightblue" points="1335.07,-188.349 1345.28,-185.5 1335.52,-181.363 1335.07,-188.349"/>
</g>
<!-- Node6 -->
<g id="node6" class="node"><title>Node6</title>
<g id="a_node6"><a xlink:href="a00161.html" target="_top" xlink:title="traversal_node_setup.h">
<polygon fill="white" stroke="black" points="883.013,-56.5 883.013,-75.5 1001.01,-75.5 1001.01,-56.5 883.013,-56.5"/>
<text text-anchor="middle" x="942.013" y="-63.5" font-family="Helvetica,sans-Serif" font-size="10.00">traversal_node_setup.h</text>
</a>
</g>
</g>
<!-- Node5&#45;&gt;Node6 -->
<g id="edge5" class="edge"><title>Node5&#45;&gt;Node6</title>
<path fill="none" stroke="midnightblue" d="M1163.9,-116.08C1111.8,-104.555 1028.85,-86.2066 980.491,-75.5109"/>
<polygon fill="midnightblue" stroke="midnightblue" points="1163.37,-119.547 1173.89,-118.289 1164.88,-112.712 1163.37,-119.547"/>
</g>
<!-- Node7 -->
<g id="node7" class="node"><title>Node7</title>
<g id="a_node7"><a xlink:href="a00131.html" target="_top" xlink:title="details.h">
<polygon fill="white" stroke="black" points="711.513,-0.5 711.513,-19.5 764.513,-19.5 764.513,-0.5 711.513,-0.5"/>
<text text-anchor="middle" x="738.013" y="-7.5" font-family="Helvetica,sans-Serif" font-size="10.00">details.h</text>
</a>
</g>
</g>
<!-- Node6&#45;&gt;Node7 -->
<g id="edge6" class="edge"><title>Node6&#45;&gt;Node7</title>
<path fill="none" stroke="midnightblue" d="M899.812,-53.8291C859.197,-43.078 799.027,-27.1507 764.66,-18.0537"/>
<polygon fill="midnightblue" stroke="midnightblue" points="899.126,-57.268 909.689,-56.4435 900.917,-50.5011 899.126,-57.268"/>
</g>
<!-- Node8&#45;&gt;Node6 -->
<g id="edge10" class="edge"><title>Node8&#45;&gt;Node6</title>
<path fill="none" stroke="midnightblue" d="M942.013,-107.817C942.013,-96.9962 942.013,-83.898 942.013,-75.5091"/>
<polygon fill="midnightblue" stroke="midnightblue" points="938.513,-107.975 942.013,-117.975 945.513,-107.975 938.513,-107.975"/>
</g>
<!-- Node9 -->
<g id="node9" class="node"><title>Node9</title>
<g id="a_node9"><a xlink:href="a00127.html" target="_top" xlink:title="collision_node.h">
<polygon fill="white" stroke="black" points="695.013,-56.5 695.013,-75.5 781.013,-75.5 781.013,-56.5 695.013,-56.5"/>
<text text-anchor="middle" x="738.013" y="-63.5" font-family="Helvetica,sans-Serif" font-size="10.00">collision_node.h</text>
</a>
</g>
</g>
<!-- Node8&#45;&gt;Node9 -->
<g id="edge8" class="edge"><title>Node8&#45;&gt;Node9</title>
<path fill="none" stroke="midnightblue" d="M902.935,-115.102C863.291,-103.54 802.837,-85.9069 767.187,-75.5091"/>
<polygon fill="midnightblue" stroke="midnightblue" points="902.205,-118.535 912.785,-117.975 904.165,-111.815 902.205,-118.535"/>
</g>
<!-- Node10 -->
<g id="node10" class="node"><title>Node10</title>
<g id="a_node10"><a xlink:href="a00163.html" target="_top" xlink:title="traversal_recurse.h">
<polygon fill="white" stroke="black" points="553.013,-56.5 553.013,-75.5 653.013,-75.5 653.013,-56.5 553.013,-56.5"/>
<text text-anchor="middle" x="603.013" y="-63.5" font-family="Helvetica,sans-Serif" font-size="10.00">traversal_recurse.h</text>
</a>
</g>
</g>
<!-- Node8&#45;&gt;Node10 -->
<g id="edge11" class="edge"><title>Node8&#45;&gt;Node10</title>
<path fill="none" stroke="midnightblue" d="M890.822,-115.983C883.836,-114.608 876.752,-113.246 870.013,-112 794.668,-98.0674 707.025,-83.6336 653.291,-74.9853"/>
<polygon fill="midnightblue" stroke="midnightblue" points="890.445,-119.476 900.936,-117.993 891.81,-112.611 890.445,-119.476"/>
</g>
<!-- Node9&#45;&gt;Node7 -->
<g id="edge9" class="edge"><title>Node9&#45;&gt;Node7</title>
<path fill="none" stroke="midnightblue" d="M738.013,-45.8045C738.013,-36.9102 738.013,-26.7798 738.013,-19.7511"/>
<polygon fill="midnightblue" stroke="midnightblue" points="734.513,-46.083 738.013,-56.083 741.513,-46.083 734.513,-46.083"/>
</g>
<!-- Node13&#45;&gt;Node6 -->
<g id="edge15" class="edge"><title>Node13&#45;&gt;Node6</title>
<path fill="none" stroke="midnightblue" d="M1033.48,-108.228C1009.44,-97.3933 980.081,-84.1596 961.22,-75.6578"/>
<polygon fill="midnightblue" stroke="midnightblue" points="1032.18,-111.481 1042.73,-112.399 1035.05,-105.099 1032.18,-111.481"/>
</g>
<!-- Node15&#45;&gt;Node13 -->
<g id="edge20" class="edge"><title>Node15&#45;&gt;Node13</title>
<path fill="none" stroke="midnightblue" d="M1098.11,-170.678C1093,-161.727 1086.84,-150.945 1082.03,-142.523"/>
<polygon fill="midnightblue" stroke="midnightblue" points="1095.14,-172.529 1103.14,-179.475 1101.22,-169.056 1095.14,-172.529"/>
</g>
<!-- Node15&#45;&gt;Node14 -->
<g id="edge21" class="edge"><title>Node15&#45;&gt;Node14</title>
<path fill="none" stroke="midnightblue" d="M1031.04,-180.911C901.061,-168.939 640.696,-144.958 522.665,-134.086"/>
<polygon fill="midnightblue" stroke="midnightblue" points="1031.03,-184.425 1041.31,-181.857 1031.68,-177.454 1031.03,-184.425"/>
</g>
<!-- Node15&#45;&gt;Node16 -->
<g id="edge22" class="edge"><title>Node15&#45;&gt;Node16</title>
<path fill="none" stroke="midnightblue" d="M1053.72,-177.546C993.857,-166.018 898.692,-147.694 843.203,-137.009"/>
<polygon fill="midnightblue" stroke="midnightblue" points="1053.26,-181.021 1063.74,-179.475 1054.58,-174.147 1053.26,-181.021"/>
</g>
<!-- Node16&#45;&gt;Node6 -->
<g id="edge23" class="edge"><title>Node16&#45;&gt;Node6</title>
<path fill="none" stroke="midnightblue" d="M828.74,-114.131C856.521,-102.572 897.263,-85.62 921.563,-75.5091"/>
<polygon fill="midnightblue" stroke="midnightblue" points="827.39,-110.902 819.501,-117.975 830.079,-117.365 827.39,-110.902"/>
</g>
<!-- Node17&#45;&gt;Node4 -->
<g id="edge26" class="edge"><title>Node17&#45;&gt;Node4</title>
<path fill="none" stroke="midnightblue" d="M741.451,-352.891C878.074,-345.188 1219.05,-324.843 1269.01,-311 1322.65,-296.141 1350.67,-301.654 1381.01,-255 1392.22,-237.764 1389.01,-212.183 1386.22,-198.833"/>
<polygon fill="midnightblue" stroke="midnightblue" points="740.986,-349.412 731.198,-353.467 741.379,-356.401 740.986,-349.412"/>
</g>
<!-- Node18 -->
<g id="node18" class="node"><title>Node18</title>
<g id="a_node18"><a xlink:href="a00124.html" target="_top" xlink:title="collision.h">
<polygon fill="white" stroke="black" points="331.013,-179.5 331.013,-198.5 391.013,-198.5 391.013,-179.5 331.013,-179.5"/>
<text text-anchor="middle" x="361.013" y="-186.5" font-family="Helvetica,sans-Serif" font-size="10.00">collision.h</text>
</a>
</g>
</g>
<!-- Node17&#45;&gt;Node18 -->
<g id="edge27" class="edge"><title>Node17&#45;&gt;Node18</title>
<path fill="none" stroke="midnightblue" d="M648.958,-343.739C631.163,-336.347 610.294,-325.518 595.013,-311 566.877,-284.27 583.057,-258.29 552.013,-235 526.806,-216.089 438.285,-201.01 391.122,-194.1"/>
<polygon fill="midnightblue" stroke="midnightblue" points="647.886,-347.079 658.473,-347.494 650.456,-340.568 647.886,-347.079"/>
</g>
<!-- Node19 -->
<g id="node19" class="node"><title>Node19</title>
<g id="a_node19"><a xlink:href="a00125.html" target="_top" xlink:title="collision_data.h">
<polygon fill="white" stroke="black" points="604.013,-235.5 604.013,-254.5 688.013,-254.5 688.013,-235.5 604.013,-235.5"/>
<text text-anchor="middle" x="646.013" y="-242.5" font-family="Helvetica,sans-Serif" font-size="10.00">collision_data.h</text>
</a>
</g>
</g>
<!-- Node17&#45;&gt;Node19 -->
<g id="edge28" class="edge"><title>Node17&#45;&gt;Node19</title>
<path fill="none" stroke="midnightblue" d="M695.975,-338.495C702.912,-325.039 709.315,-306.235 702.013,-291 694.089,-274.467 676.8,-262.083 663.515,-254.535"/>
<polygon fill="midnightblue" stroke="midnightblue" points="692.914,-336.798 691.018,-347.221 699.001,-340.255 692.914,-336.798"/>
</g>
<!-- Node20 -->
<g id="node20" class="node"><title>Node20</title>
<g id="a_node20"><a xlink:href="a00126.html" target="_top" xlink:title="collision_func_matrix.h">
<polygon fill="white" stroke="black" points="831.013,-179.5 831.013,-198.5 947.013,-198.5 947.013,-179.5 831.013,-179.5"/>
<text text-anchor="middle" x="889.013" y="-186.5" font-family="Helvetica,sans-Serif" font-size="10.00">collision_func_matrix.h</text>
</a>
</g>
</g>
<!-- Node17&#45;&gt;Node20 -->
<g id="edge45" class="edge"><title>Node17&#45;&gt;Node20</title>
<path fill="none" stroke="midnightblue" d="M739.115,-344.751C762.669,-337.885 789.511,-327.209 810.013,-311 850.358,-279.104 876.747,-220.7 885.66,-198.696"/>
<polygon fill="midnightblue" stroke="midnightblue" points="737.964,-341.437 729.251,-347.465 739.821,-348.187 737.964,-341.437"/>
</g>
<!-- Node22 -->
<g id="node22" class="node"><title>Node22</title>
<g id="a_node22"><a xlink:href="a00132.html" target="_top" xlink:title="distance.h">
<polygon fill="white" stroke="black" points="115.013,-179.5 115.013,-198.5 177.013,-198.5 177.013,-179.5 115.013,-179.5"/>
<text text-anchor="middle" x="146.013" y="-186.5" font-family="Helvetica,sans-Serif" font-size="10.00">distance.h</text>
</a>
</g>
</g>
<!-- Node17&#45;&gt;Node22 -->
<g id="edge58" class="edge"><title>Node17&#45;&gt;Node22</title>
<path fill="none" stroke="midnightblue" d="M642.417,-344.721C614.46,-336.712 577.398,-324.931 546.013,-311 484.139,-283.536 477.845,-257.544 414.013,-235 317.28,-200.836 286.776,-218.27 186.013,-199 183.217,-198.465 180.317,-197.878 177.416,-197.267"/>
<polygon fill="midnightblue" stroke="midnightblue" points="641.704,-348.157 652.278,-347.499 643.602,-341.419 641.704,-348.157"/>
</g>
<!-- Node23 -->
<g id="node23" class="node"><title>Node23</title>
<g id="a_node23"><a xlink:href="a00133.html" target="_top" xlink:title="distance_func_matrix.h">
<polygon fill="white" stroke="black" points="195.013,-179.5 195.013,-198.5 313.013,-198.5 313.013,-179.5 195.013,-179.5"/>
<text text-anchor="middle" x="254.013" y="-186.5" font-family="Helvetica,sans-Serif" font-size="10.00">distance_func_matrix.h</text>
</a>
</g>
</g>
<!-- Node17&#45;&gt;Node23 -->
<g id="edge59" class="edge"><title>Node17&#45;&gt;Node23</title>
<path fill="none" stroke="midnightblue" d="M650.606,-343.97C629.12,-335.87 601.227,-324.268 578.013,-311 528.93,-282.947 527.629,-258.061 476.013,-235 446.975,-222.026 366.005,-207.482 310.321,-198.532"/>
<polygon fill="midnightblue" stroke="midnightblue" points="649.395,-347.253 659.988,-347.438 651.822,-340.688 649.395,-347.253"/>
</g>
<!-- Node25 -->
<g id="node25" class="node"><title>Node25</title>
<g id="a_node25"><a xlink:href="a00138.html" target="_top" xlink:title="geometric_shapes.h">
<polygon fill="white" stroke="black" points="1017.01,-291.5 1017.01,-310.5 1121.01,-310.5 1121.01,-291.5 1017.01,-291.5"/>
<text text-anchor="middle" x="1069.01" y="-298.5" font-family="Helvetica,sans-Serif" font-size="10.00">geometric_shapes.h</text>
</a>
</g>
</g>
<!-- Node17&#45;&gt;Node25 -->
<g id="edge46" class="edge"><title>Node17&#45;&gt;Node25</title>
<path fill="none" stroke="midnightblue" d="M741.412,-348.069C815.521,-337.647 944.685,-319.484 1016.7,-309.356"/>
<polygon fill="midnightblue" stroke="midnightblue" points="740.748,-344.628 731.332,-349.486 741.722,-351.56 740.748,-344.628"/>
</g>
<!-- Node28 -->
<g id="node28" class="node"><title>Node28</title>
<g id="a_node28"><a xlink:href="a00129.html" target="_top" xlink:title="collision_utility.h">
<polygon fill="white" stroke="black" points="604.513,-291.5 604.513,-310.5 693.513,-310.5 693.513,-291.5 604.513,-291.5"/>
<text text-anchor="middle" x="649.013" y="-298.5" font-family="Helvetica,sans-Serif" font-size="10.00">collision_utility.h</text>
</a>
</g>
</g>
<!-- Node17&#45;&gt;Node28 -->
<g id="edge57" class="edge"><title>Node17&#45;&gt;Node28</title>
<path fill="none" stroke="midnightblue" d="M673.39,-338.566C667.196,-329.275 659.845,-318.248 654.847,-310.751"/>
<polygon fill="midnightblue" stroke="midnightblue" points="670.609,-340.704 679.068,-347.083 676.434,-336.821 670.609,-340.704"/>
</g>
<!-- Node29 -->
<g id="node29" class="node"><title>Node29</title>
<g id="a_node29"><a xlink:href="a00145.html" target="_top" xlink:title="loader.h">
<polygon fill="white" stroke="black" points="750.513,-291.5 750.513,-310.5 801.513,-310.5 801.513,-291.5 750.513,-291.5"/>
<text text-anchor="middle" x="776.013" y="-298.5" font-family="Helvetica,sans-Serif" font-size="10.00">loader.h</text>
</a>
</g>
</g>
<!-- Node17&#45;&gt;Node29 -->
<g id="edge60" class="edge"><title>Node17&#45;&gt;Node29</title>
<path fill="none" stroke="midnightblue" d="M708.307,-342.177C725.052,-332.241 747.113,-319.149 761.429,-310.655"/>
<polygon fill="midnightblue" stroke="midnightblue" points="706.447,-339.211 699.634,-347.324 710.02,-345.231 706.447,-339.211"/>
</g>
<!-- Node30 -->
<g id="node30" class="node"><title>Node30</title>
<g id="a_node30"><a xlink:href="a00151.html" target="_top" xlink:title="octree.h">
<polygon fill="white" stroke="black" points="130.013,-235.5 130.013,-254.5 182.013,-254.5 182.013,-235.5 130.013,-235.5"/>
<text text-anchor="middle" x="156.013" y="-242.5" font-family="Helvetica,sans-Serif" font-size="10.00">octree.h</text>
</a>
</g>
</g>
<!-- Node17&#45;&gt;Node30 -->
<g id="edge61" class="edge"><title>Node17&#45;&gt;Node30</title>
<path fill="none" stroke="midnightblue" d="M628.706,-345.823C580.624,-337.01 509.667,-323.712 448.013,-311 349.589,-290.706 233.128,-263.955 182.129,-252.102"/>
<polygon fill="midnightblue" stroke="midnightblue" points="628.14,-349.278 638.607,-347.634 629.4,-342.392 628.14,-349.278"/>
</g>
<!-- Node19&#45;&gt;Node8 -->
<g id="edge38" class="edge"><title>Node19&#45;&gt;Node8</title>
<path fill="none" stroke="midnightblue" d="M672.629,-230.857C701.072,-217.06 747.663,-195.167 789.013,-179 831.477,-162.397 881.894,-146.464 912.92,-137.078"/>
<polygon fill="midnightblue" stroke="midnightblue" points="670.817,-227.847 663.364,-235.377 673.886,-234.138 670.817,-227.847"/>
</g>
<!-- Node19&#45;&gt;Node13 -->
<g id="edge41" class="edge"><title>Node19&#45;&gt;Node13</title>
<path fill="none" stroke="midnightblue" d="M685.548,-232.569C712.984,-224.238 750.177,-212.146 782.013,-199 800.385,-191.414 803.193,-185.392 822.013,-179 901.741,-151.921 925.553,-160.035 1008.01,-143 1012.95,-141.979 1018.1,-140.893 1023.23,-139.791"/>
<polygon fill="midnightblue" stroke="midnightblue" points="684.48,-229.236 675.909,-235.464 686.493,-235.94 684.48,-229.236"/>
</g>
<!-- Node19&#45;&gt;Node14 -->
<g id="edge42" class="edge"><title>Node19&#45;&gt;Node14</title>
<path fill="none" stroke="midnightblue" d="M593.697,-234.371C533.717,-223.082 442.961,-205.133 438.013,-199 422.913,-180.283 442.424,-151.548 454.224,-137.233"/>
<polygon fill="midnightblue" stroke="midnightblue" points="593.302,-237.857 603.775,-236.259 594.591,-230.977 593.302,-237.857"/>
</g>
<!-- Node19&#45;&gt;Node16 -->
<g id="edge43" class="edge"><title>Node19&#45;&gt;Node16</title>
<path fill="none" stroke="midnightblue" d="M666.133,-229.639C678.321,-220.879 694.142,-209.403 708.013,-199 737.272,-177.057 771.201,-150.46 788.172,-137.076"/>
<polygon fill="midnightblue" stroke="midnightblue" points="664.069,-226.812 657.98,-235.483 668.147,-232.502 664.069,-226.812"/>
</g>
<!-- Node19&#45;&gt;Node18 -->
<g id="edge29" class="edge"><title>Node19&#45;&gt;Node18</title>
<path fill="none" stroke="midnightblue" d="M593.727,-234.504C544.878,-225.57 469.944,-211.702 405.013,-199 400.575,-198.132 395.889,-197.195 391.296,-196.265"/>
<polygon fill="midnightblue" stroke="midnightblue" points="593.276,-237.98 603.742,-236.334 594.534,-231.094 593.276,-237.98"/>
</g>
<!-- Node19&#45;&gt;Node20 -->
<g id="edge30" class="edge"><title>Node19&#45;&gt;Node20</title>
<path fill="none" stroke="midnightblue" d="M694.536,-233.217C740.453,-223.013 808.46,-207.901 850.689,-198.516"/>
<polygon fill="midnightblue" stroke="midnightblue" points="693.52,-229.858 684.517,-235.444 695.038,-236.691 693.52,-229.858"/>
</g>
<!-- Node19&#45;&gt;Node21 -->
<g id="edge31" class="edge"><title>Node19&#45;&gt;Node21</title>
<path fill="none" stroke="midnightblue" d="M614.084,-231.772C587.599,-221.629 550.621,-207.467 527.25,-198.516"/>
<polygon fill="midnightblue" stroke="midnightblue" points="613.081,-235.136 623.671,-235.444 615.584,-228.599 613.081,-235.136"/>
</g>
<!-- Node19&#45;&gt;Node22 -->
<g id="edge39" class="edge"><title>Node19&#45;&gt;Node22</title>
<path fill="none" stroke="midnightblue" d="M593.69,-240.997C508.054,-235.61 332.795,-222.6 186.013,-199 183.202,-198.548 180.293,-198.018 177.385,-197.444"/>
<polygon fill="midnightblue" stroke="midnightblue" points="593.732,-244.507 603.93,-241.632 594.165,-237.52 593.732,-244.507"/>
</g>
<!-- Node19&#45;&gt;Node23 -->
<g id="edge40" class="edge"><title>Node19&#45;&gt;Node23</title>
<path fill="none" stroke="midnightblue" d="M593.385,-236.75C520.584,-226.721 389.528,-208.668 313.338,-198.172"/>
<polygon fill="midnightblue" stroke="midnightblue" points="593.306,-240.272 603.69,-238.17 594.261,-233.338 593.306,-240.272"/>
</g>
<!-- Node24 -->
<g id="node24" class="node"><title>Node24</title>
<g id="a_node24"><a xlink:href="a00134.html" target="_top" xlink:title="distance_func_matrix.h">
<polygon fill="white" stroke="black" points="581.013,-179.5 581.013,-198.5 699.013,-198.5 699.013,-179.5 581.013,-179.5"/>
<text text-anchor="middle" x="640.013" y="-186.5" font-family="Helvetica,sans-Serif" font-size="10.00">distance_func_matrix.h</text>
</a>
</g>
</g>
<!-- Node19&#45;&gt;Node24 -->
<g id="edge44" class="edge"><title>Node19&#45;&gt;Node24</title>
<path fill="none" stroke="midnightblue" d="M643.913,-225.101C642.917,-216.136 641.775,-205.858 640.985,-198.751"/>
<polygon fill="midnightblue" stroke="midnightblue" points="640.439,-225.531 645.022,-235.083 647.396,-224.758 640.439,-225.531"/>
</g>
<!-- Node21&#45;&gt;Node8 -->
<g id="edge33" class="edge"><title>Node21&#45;&gt;Node8</title>
<path fill="none" stroke="midnightblue" d="M572.932,-178.906C706.064,-162.206 741.514,-163.668 870.013,-143 880.588,-141.299 891.975,-139.153 902.503,-137.038"/>
<polygon fill="midnightblue" stroke="midnightblue" points="572.232,-175.467 562.75,-180.195 573.111,-182.411 572.232,-175.467"/>
</g>
<!-- Node21&#45;&gt;Node9 -->
<g id="edge32" class="edge"><title>Node21&#45;&gt;Node9</title>
<path fill="none" stroke="midnightblue" d="M530.503,-174.763C578.507,-149.834 681.103,-96.554 721.335,-75.661"/>
<polygon fill="midnightblue" stroke="midnightblue" points="528.659,-171.777 521.397,-179.492 531.885,-177.989 528.659,-171.777"/>
</g>
<!-- Node21&#45;&gt;Node10 -->
<g id="edge37" class="edge"><title>Node21&#45;&gt;Node10</title>
<path fill="none" stroke="midnightblue" d="M518.43,-171.435C539.559,-145.346 579.847,-95.6031 596.029,-75.6232"/>
<polygon fill="midnightblue" stroke="midnightblue" points="515.635,-169.324 512.061,-179.298 521.075,-173.73 515.635,-169.324"/>
</g>
<!-- Node21&#45;&gt;Node13 -->
<g id="edge34" class="edge"><title>Node21&#45;&gt;Node13</title>
<path fill="none" stroke="midnightblue" d="M572.699,-178.989C767.032,-158.499 818.932,-171.446 1008.01,-143 1013,-142.25 1018.18,-141.342 1023.33,-140.352"/>
<polygon fill="midnightblue" stroke="midnightblue" points="572.304,-175.511 562.734,-180.056 573.05,-182.472 572.304,-175.511"/>
</g>
<!-- Node21&#45;&gt;Node14 -->
<g id="edge35" class="edge"><title>Node21&#45;&gt;Node14</title>
<path fill="none" stroke="midnightblue" d="M492.971,-171.338C484.9,-160.169 474.608,-145.928 468.162,-137.009"/>
<polygon fill="midnightblue" stroke="midnightblue" points="490.158,-173.42 498.852,-179.475 495.832,-169.32 490.158,-173.42"/>
</g>
<!-- Node21&#45;&gt;Node16 -->
<g id="edge36" class="edge"><title>Node21&#45;&gt;Node16</title>
<path fill="none" stroke="midnightblue" d="M557.024,-177.474C614.002,-165.943 704.282,-147.672 756.968,-137.009"/>
<polygon fill="midnightblue" stroke="midnightblue" points="556.243,-174.061 547.136,-179.475 557.632,-180.922 556.243,-174.061"/>
</g>
<!-- Node25&#45;&gt;Node8 -->
<g id="edge47" class="edge"><title>Node25&#45;&gt;Node8</title>
<path fill="none" stroke="midnightblue" d="M1058.87,-282.769C1044.44,-258.731 1016.67,-214.132 989.013,-179 976.716,-163.377 960.605,-146.782 950.796,-137.044"/>
<polygon fill="midnightblue" stroke="midnightblue" points="1055.91,-284.651 1064.04,-291.455 1061.93,-281.072 1055.91,-284.651"/>
</g>
<!-- Node25&#45;&gt;Node12 -->
<g id="edge54" class="edge"><title>Node25&#45;&gt;Node12</title>
<path fill="none" stroke="midnightblue" d="M1131.38,-296.055C1209.73,-290.24 1339.02,-277.54 1381.01,-255 1410.41,-239.221 1414.94,-228.239 1431.01,-199 1440.94,-180.939 1446.31,-157.504 1448.92,-142.73"/>
<polygon fill="midnightblue" stroke="midnightblue" points="1130.87,-292.583 1121.15,-296.797 1131.38,-299.565 1130.87,-292.583"/>
</g>
<!-- Node25&#45;&gt;Node13 -->
<g id="edge56" class="edge"><title>Node25&#45;&gt;Node13</title>
<path fill="none" stroke="midnightblue" d="M1094.59,-286.232C1122.3,-269.689 1164.98,-239.078 1183.01,-199 1196.52,-168.995 1159.16,-150.284 1124.57,-139.744"/>
<polygon fill="midnightblue" stroke="midnightblue" points="1092.73,-283.264 1085.82,-291.296 1096.23,-289.326 1092.73,-283.264"/>
</g>
<!-- Node25&#45;&gt;Node15 -->
<g id="edge55" class="edge"><title>Node25&#45;&gt;Node15</title>
<path fill="none" stroke="midnightblue" d="M1075.51,-281.674C1084.04,-257.625 1098.66,-216.388 1104.97,-198.591"/>
<polygon fill="midnightblue" stroke="midnightblue" points="1072.12,-280.774 1072.07,-291.368 1078.71,-283.113 1072.12,-280.774"/>
</g>
<!-- Node25&#45;&gt;Node26 -->
<g id="edge48" class="edge"><title>Node25&#45;&gt;Node26</title>
<path fill="none" stroke="midnightblue" d="M1006.57,-295.063C858.623,-283.366 492.606,-254.428 405.051,-247.505"/>
<polygon fill="midnightblue" stroke="midnightblue" points="1006.59,-298.576 1016.84,-295.875 1007.14,-291.597 1006.59,-298.576"/>
</g>
<!-- Node27 -->
<g id="node27" class="node"><title>Node27</title>
<g id="a_node27"><a xlink:href="a00147.html" target="_top" xlink:title="narrowphase.h">
<polygon fill="white" stroke="black" points="17.0131,-179.5 17.0131,-198.5 97.0131,-198.5 97.0131,-179.5 17.0131,-179.5"/>
<text text-anchor="middle" x="57.0131" y="-186.5" font-family="Helvetica,sans-Serif" font-size="10.00">narrowphase.h</text>
</a>
</g>
</g>
<!-- Node26&#45;&gt;Node27 -->
<g id="edge49" class="edge"><title>Node26&#45;&gt;Node27</title>
<path fill="none" stroke="midnightblue" d="M357.025,-239.559C306.154,-231.718 197.517,-214.754 106.013,-199 103.115,-198.501 100.122,-197.976 97.1114,-197.44"/>
<polygon fill="midnightblue" stroke="midnightblue" points="356.561,-243.029 366.977,-241.09 357.625,-236.11 356.561,-243.029"/>
</g>
<!-- Node27&#45;&gt;Node7 -->
<g id="edge53" class="edge"><title>Node27&#45;&gt;Node7</title>
<path fill="none" stroke="midnightblue" d="M96.8914,-176.657C179.862,-153.175 377.235,-97.9301 544.013,-56 603.531,-41.0364 673.779,-25.1895 711.265,-16.8779"/>
<polygon fill="midnightblue" stroke="midnightblue" points="95.7843,-173.333 87.117,-179.426 97.6924,-180.068 95.7843,-173.333"/>
</g>
<!-- Node27&#45;&gt;Node8 -->
<g id="edge50" class="edge"><title>Node27&#45;&gt;Node8</title>
<path fill="none" stroke="midnightblue" d="M107.142,-179.044C445.485,-141.068 535.94,-184.268 870.013,-143 881.529,-141.577 893.955,-139.334 905.19,-137.033"/>
<polygon fill="midnightblue" stroke="midnightblue" points="106.599,-175.583 97.0586,-180.191 107.39,-182.538 106.599,-175.583"/>
</g>
<!-- Node27&#45;&gt;Node14 -->
<g id="edge51" class="edge"><title>Node27&#45;&gt;Node14</title>
<path fill="none" stroke="midnightblue" d="M107.003,-178.892C216.57,-161.199 332.572,-145.4 401.429,-136.329"/>
<polygon fill="midnightblue" stroke="midnightblue" points="106.411,-175.443 97.1013,-180.499 107.533,-182.352 106.411,-175.443"/>
</g>
<!-- Node27&#45;&gt;Node16 -->
<g id="edge52" class="edge"><title>Node27&#45;&gt;Node16</title>
<path fill="none" stroke="midnightblue" d="M107.002,-179.038C244.673,-162.422 593.397,-140.74 736.467,-132.181"/>
<polygon fill="midnightblue" stroke="midnightblue" points="106.559,-175.566 97.0688,-180.276 107.425,-182.512 106.559,-175.566"/>
</g>
<!-- Node30&#45;&gt;Node14 -->
<g id="edge62" class="edge"><title>Node30&#45;&gt;Node14</title>
<path fill="none" stroke="midnightblue" d="M119.837,-240.661C65.7011,-234.332 -26.5349,-217.604 8.01305,-179 33.7955,-150.191 283.718,-135.97 401.358,-130.828"/>
<polygon fill="midnightblue" stroke="midnightblue" points="119.462,-244.14 129.785,-241.758 120.229,-237.183 119.462,-244.14"/>
</g>
<!-- Node31&#45;&gt;Node8 -->
<g id="edge65" class="edge"><title>Node31&#45;&gt;Node8</title>
<path fill="none" stroke="midnightblue" d="M898.42,-338.554C914.555,-310.382 944.905,-252.597 956.013,-199 960.622,-176.762 951.602,-150.51 946.002,-137.192"/>
<polygon fill="midnightblue" stroke="midnightblue" points="895.375,-336.828 893.361,-347.229 901.422,-340.354 895.375,-336.828"/>
</g>
</g>
</svg>
