<?xml version="1.0" encoding="UTF-8" standalone="no"?>
<!DOCTYPE svg PUBLIC "-//W3C//DTD SVG 1.1//EN"
 "http://www.w3.org/Graphics/SVG/1.1/DTD/svg11.dtd">
<!-- Generated by graphviz version 2.38.0 (20140413.2041)
 -->
<!-- Title: hpp::fcl::BVHShapeDistanceTraversalNode&lt; BV, S &gt; Pages: 1 -->
<svg width="445pt" height="329pt"
 viewBox="0.00 0.00 445.00 329.00" xmlns="http://www.w3.org/2000/svg" xmlns:xlink="http://www.w3.org/1999/xlink">
<g id="graph0" class="graph" transform="scale(1 1) rotate(0) translate(4 325)">
<title>hpp::fcl::BVHShapeDistanceTraversalNode&lt; BV, S &gt;</title>
<polygon fill="white" stroke="none" points="-4,4 -4,-325 441,-325 441,4 -4,4"/>
<!-- Node1 -->
<g id="node1" class="node"><title>Node1</title>
<polygon fill="#bfbfbf" stroke="black" points="253,-0.5 253,-30.5 396,-30.5 396,-0.5 253,-0.5"/>
<text text-anchor="start" x="261" y="-18.5" font-family="Helvetica,sans-Serif" font-size="10.00">hpp::fcl::BVHShapeDistance</text>
<text text-anchor="middle" x="324.5" y="-7.5" font-family="Helvetica,sans-Serif" font-size="10.00">TraversalNode&lt; BV, S &gt;</text>
</g>
<!-- Node2 -->
<g id="node2" class="node"><title>Node2</title>
<g id="a_node2"><a xlink:href="a00040.html" target="_top" xlink:title="Node structure encoding the information required for distance traversal. ">
<polygon fill="white" stroke="black" points="157.5,-78.5 157.5,-108.5 291.5,-108.5 291.5,-78.5 157.5,-78.5"/>
<text text-anchor="start" x="165.5" y="-96.5" font-family="Helvetica,sans-Serif" font-size="10.00">hpp::fcl::DistanceTraversal</text>
<text text-anchor="middle" x="224.5" y="-85.5" font-family="Helvetica,sans-Serif" font-size="10.00">NodeBase</text>
</a>
</g>
</g>
<!-- Node2&#45;&gt;Node1 -->
<g id="edge1" class="edge"><title>Node2&#45;&gt;Node1</title>
<path fill="none" stroke="midnightblue" d="M251.328,-72.1108C268.532,-59.0359 290.435,-42.3895 305.775,-30.7309"/>
<polygon fill="midnightblue" stroke="midnightblue" points="249.153,-69.3675 243.309,-78.205 253.389,-74.9407 249.153,-69.3675"/>
</g>
<!-- Node3 -->
<g id="node3" class="node"><title>Node3</title>
<g id="a_node3"><a xlink:href="a00108.html" target="_top" xlink:title="Node structure encoding the information required for traversal. ">
<polygon fill="white" stroke="black" points="0,-156.5 0,-175.5 141,-175.5 141,-156.5 0,-156.5"/>
<text text-anchor="middle" x="70.5" y="-163.5" font-family="Helvetica,sans-Serif" font-size="10.00">hpp::fcl::TraversalNodeBase</text>
</a>
</g>
</g>
<!-- Node3&#45;&gt;Node2 -->
<g id="edge2" class="edge"><title>Node3&#45;&gt;Node2</title>
<path fill="none" stroke="midnightblue" d="M98.3313,-152.259C125.284,-139.92 166.054,-121.256 193.906,-108.506"/>
<polygon fill="midnightblue" stroke="midnightblue" points="96.7116,-149.151 89.076,-156.496 99.6254,-155.516 96.7116,-149.151"/>
</g>
<!-- Node4 -->
<g id="node4" class="node"><title>Node4</title>
<g id="a_node4"><a xlink:href="a00107.html" target="_top" xlink:title="Simple transform class used locally by InterpMotion. ">
<polygon fill="white" stroke="black" points="17,-234.5 17,-253.5 124,-253.5 124,-234.5 17,-234.5"/>
<text text-anchor="middle" x="70.5" y="-241.5" font-family="Helvetica,sans-Serif" font-size="10.00">hpp::fcl::Transform3f</text>
</a>
</g>
</g>
<!-- Node4&#45;&gt;Node3 -->
<g id="edge3" class="edge"><title>Node4&#45;&gt;Node3</title>
<path fill="none" stroke="#9a32cd" stroke-dasharray="5,2" d="M70.5,-224.224C70.5,-208.697 70.5,-187.358 70.5,-175.616"/>
<polygon fill="#9a32cd" stroke="#9a32cd" points="67.0001,-224.282 70.5,-234.282 74.0001,-224.282 67.0001,-224.282"/>
<text text-anchor="middle" x="78" y="-208" font-family="Helvetica,sans-Serif" font-size="10.00"> tf1</text>
<text text-anchor="middle" x="78" y="-197" font-family="Helvetica,sans-Serif" font-size="10.00">tf2</text>
</g>
<!-- Node5 -->
<g id="node5" class="node"><title>Node5</title>
<g id="a_node5"><a xlink:href="a00036.html" target="_top" xlink:title="request to the distance computation ">
<polygon fill="white" stroke="black" points="159,-156.5 159,-175.5 290,-175.5 290,-156.5 159,-156.5"/>
<text text-anchor="middle" x="224.5" y="-163.5" font-family="Helvetica,sans-Serif" font-size="10.00">hpp::fcl::DistanceRequest</text>
</a>
</g>
</g>
<!-- Node5&#45;&gt;Node2 -->
<g id="edge4" class="edge"><title>Node5&#45;&gt;Node2</title>
<path fill="none" stroke="#9a32cd" stroke-dasharray="5,2" d="M224.5,-146.236C224.5,-134.408 224.5,-119.383 224.5,-108.576"/>
<polygon fill="#9a32cd" stroke="#9a32cd" points="221,-146.355 224.5,-156.355 228,-146.355 221,-146.355"/>
<text text-anchor="middle" x="242.5" y="-130" font-family="Helvetica,sans-Serif" font-size="10.00"> request</text>
</g>
<!-- Node6 -->
<g id="node6" class="node"><title>Node6</title>
<g id="a_node6"><a xlink:href="a00037.html" target="_top" xlink:title="distance result ">
<polygon fill="white" stroke="black" points="308.5,-156.5 308.5,-175.5 430.5,-175.5 430.5,-156.5 308.5,-156.5"/>
<text text-anchor="middle" x="369.5" y="-163.5" font-family="Helvetica,sans-Serif" font-size="10.00">hpp::fcl::DistanceResult</text>
</a>
</g>
</g>
<!-- Node6&#45;&gt;Node2 -->
<g id="edge5" class="edge"><title>Node6&#45;&gt;Node2</title>
<path fill="none" stroke="#9a32cd" stroke-dasharray="5,2" d="M342.961,-152.096C317.581,-139.757 279.415,-121.2 253.306,-108.506"/>
<polygon fill="#9a32cd" stroke="#9a32cd" points="341.486,-155.271 352.01,-156.496 344.547,-148.976 341.486,-155.271"/>
<text text-anchor="middle" x="324.5" y="-130" font-family="Helvetica,sans-Serif" font-size="10.00"> result</text>
</g>
<!-- Node7 -->
<g id="node7" class="node"><title>Node7</title>
<g id="a_node7"><a xlink:href="a00025.html" target="_top" xlink:title="The geometry for the object for collision or distance computation. ">
<polygon fill="white" stroke="black" points="302,-234.5 302,-253.5 437,-253.5 437,-234.5 302,-234.5"/>
<text text-anchor="middle" x="369.5" y="-241.5" font-family="Helvetica,sans-Serif" font-size="10.00">hpp::fcl::CollisionGeometry</text>
</a>
</g>
</g>
<!-- Node7&#45;&gt;Node6 -->
<g id="edge6" class="edge"><title>Node7&#45;&gt;Node6</title>
<path fill="none" stroke="#9a32cd" stroke-dasharray="5,2" d="M369.5,-224.224C369.5,-208.697 369.5,-187.358 369.5,-175.616"/>
<polygon fill="#9a32cd" stroke="#9a32cd" points="366,-224.282 369.5,-234.282 373,-224.282 366,-224.282"/>
<text text-anchor="middle" x="376.5" y="-208" font-family="Helvetica,sans-Serif" font-size="10.00"> o1</text>
<text text-anchor="middle" x="376.5" y="-197" font-family="Helvetica,sans-Serif" font-size="10.00">o2</text>
</g>
<!-- Node8 -->
<g id="node8" class="node"><title>Node8</title>
<g id="a_node8"><a xlink:href="a00004.html" target="_top" xlink:title="A class describing the AABB collision structure, which is a box in 3D space determined by two diagona...">
<polygon fill="white" stroke="black" points="328.5,-301.5 328.5,-320.5 410.5,-320.5 410.5,-301.5 328.5,-301.5"/>
<text text-anchor="middle" x="369.5" y="-308.5" font-family="Helvetica,sans-Serif" font-size="10.00">hpp::fcl::AABB</text>
</a>
</g>
</g>
<!-- Node8&#45;&gt;Node7 -->
<g id="edge7" class="edge"><title>Node8&#45;&gt;Node7</title>
<path fill="none" stroke="#9a32cd" stroke-dasharray="5,2" d="M369.5,-291.037C369.5,-278.67 369.5,-263.12 369.5,-253.627"/>
<polygon fill="#9a32cd" stroke="#9a32cd" points="366,-291.234 369.5,-301.234 373,-291.234 366,-291.234"/>
<text text-anchor="middle" x="394.5" y="-275" font-family="Helvetica,sans-Serif" font-size="10.00"> aabb_local</text>
</g>
<!-- Node9 -->
<g id="node9" class="node"><title>Node9</title>
<polygon fill="white" stroke="#bfbfbf" points="309.5,-84 309.5,-103 339.5,-103 339.5,-84 309.5,-84"/>
<text text-anchor="middle" x="324.5" y="-91" font-family="Helvetica,sans-Serif" font-size="10.00">BV</text>
</g>
<!-- Node9&#45;&gt;Node1 -->
<g id="edge8" class="edge"><title>Node9&#45;&gt;Node1</title>
<path fill="none" stroke="#9a32cd" stroke-dasharray="5,2" d="M324.5,-73.7816C324.5,-60.4036 324.5,-42.688 324.5,-30.5198"/>
<polygon fill="#9a32cd" stroke="#9a32cd" points="321,-73.7818 324.5,-83.7818 328,-73.7819 321,-73.7818"/>
<text text-anchor="middle" x="350" y="-52" font-family="Helvetica,sans-Serif" font-size="10.00"> model2_bv</text>
</g>
<!-- Node10 -->
<g id="node10" class="node"><title>Node10</title>
<polygon fill="white" stroke="#bfbfbf" points="384,-84 384,-103 413,-103 413,-84 384,-84"/>
<text text-anchor="middle" x="398.5" y="-91" font-family="Helvetica,sans-Serif" font-size="10.00">S</text>
</g>
<!-- Node10&#45;&gt;Node1 -->
<g id="edge9" class="edge"><title>Node10&#45;&gt;Node1</title>
<path fill="none" stroke="#9a32cd" stroke-dasharray="5,2" d="M392.087,-74.6374C388.437,-66.1939 383.236,-56.3741 376.5,-49 369.894,-41.7686 361.321,-35.5374 353.047,-30.5214"/>
<polygon fill="#9a32cd" stroke="#9a32cd" points="388.85,-75.9719 395.768,-83.997 395.365,-73.4098 388.85,-75.9719"/>
<text text-anchor="middle" x="402" y="-52" font-family="Helvetica,sans-Serif" font-size="10.00"> model2</text>
</g>
</g>
</svg>
