<?xml version="1.0" encoding="UTF-8" standalone="no"?>
<!DOCTYPE svg PUBLIC "-//W3C//DTD SVG 1.1//EN"
 "http://www.w3.org/Graphics/SVG/1.1/DTD/svg11.dtd">
<!-- Generated by graphviz version 2.38.0 (20140413.2041)
 -->
<!-- Title: geometric_shapes.h Pages: 1 -->
<svg width="808pt" height="375pt"
 viewBox="0.00 0.00 808.00 375.00" xmlns="http://www.w3.org/2000/svg" xmlns:xlink="http://www.w3.org/1999/xlink">
<g id="graph0" class="graph" transform="scale(1 1) rotate(0) translate(4 371)">
<title>geometric_shapes.h</title>
<polygon fill="white" stroke="none" points="-4,4 -4,-371 804,-371 804,4 -4,4"/>
<!-- Node1 -->
<g id="node1" class="node"><title>Node1</title>
<polygon fill="#bfbfbf" stroke="black" points="390,-347.5 390,-366.5 494,-366.5 494,-347.5 390,-347.5"/>
<text text-anchor="middle" x="442" y="-354.5" font-family="Helvetica,sans-Serif" font-size="10.00">geometric_shapes.h</text>
</g>
<!-- Node2 -->
<g id="node2" class="node"><title>Node2</title>
<polygon fill="white" stroke="#bfbfbf" points="125.5,-280.5 125.5,-310.5 236.5,-310.5 236.5,-280.5 125.5,-280.5"/>
<text text-anchor="start" x="133.5" y="-298.5" font-family="Helvetica,sans-Serif" font-size="10.00">boost/math/constants</text>
<text text-anchor="middle" x="181" y="-287.5" font-family="Helvetica,sans-Serif" font-size="10.00">/constants.hpp</text>
</g>
<!-- Node1&#45;&gt;Node2 -->
<g id="edge1" class="edge"><title>Node1&#45;&gt;Node2</title>
<path fill="none" stroke="midnightblue" d="M404.605,-347.475C363.462,-338.096 296.555,-322.843 246.633,-311.462"/>
<polygon fill="midnightblue" stroke="midnightblue" points="247.099,-307.979 236.571,-309.168 245.543,-314.804 247.099,-307.979"/>
</g>
<!-- Node3 -->
<g id="node3" class="node"><title>Node3</title>
<g id="a_node3"><a xlink:href="a00128.html" target="_top" xlink:title="hpp/fcl/collision_object.h">
<polygon fill="white" stroke="black" points="255,-286 255,-305 379,-305 379,-286 255,-286"/>
<text text-anchor="middle" x="317" y="-293" font-family="Helvetica,sans-Serif" font-size="10.00">hpp/fcl/collision_object.h</text>
</a>
</g>
</g>
<!-- Node1&#45;&gt;Node3 -->
<g id="edge2" class="edge"><title>Node1&#45;&gt;Node3</title>
<path fill="none" stroke="midnightblue" d="M424.091,-347.475C403.113,-337.49 368.15,-320.848 343.907,-309.307"/>
<polygon fill="midnightblue" stroke="midnightblue" points="345.41,-306.147 334.876,-305.009 342.401,-312.467 345.41,-306.147"/>
</g>
<!-- Node7 -->
<g id="node7" class="node"><title>Node7</title>
<g id="a_node7"><a xlink:href="a00164.html" target="_top" xlink:title="hpp/fcl/math/vec_3f.h">
<polygon fill="white" stroke="black" points="347.5,-112.5 347.5,-131.5 458.5,-131.5 458.5,-112.5 347.5,-112.5"/>
<text text-anchor="middle" x="403" y="-119.5" font-family="Helvetica,sans-Serif" font-size="10.00">hpp/fcl/math/vec_3f.h</text>
</a>
</g>
</g>
<!-- Node1&#45;&gt;Node7 -->
<g id="edge29" class="edge"><title>Node1&#45;&gt;Node7</title>
<path fill="none" stroke="midnightblue" d="M454.063,-347.317C490.886,-319.768 596.508,-232.356 549,-168 530.46,-142.885 498.107,-131.351 468.562,-126.22"/>
<polygon fill="midnightblue" stroke="midnightblue" points="469.087,-122.759 458.674,-124.714 468.033,-129.68 469.087,-122.759"/>
</g>
<!-- Node23 -->
<g id="node23" class="node"><title>Node23</title>
<polygon fill="white" stroke="#bfbfbf" points="596.5,-286 596.5,-305 645.5,-305 645.5,-286 596.5,-286"/>
<text text-anchor="middle" x="621" y="-293" font-family="Helvetica,sans-Serif" font-size="10.00">string.h</text>
</g>
<!-- Node1&#45;&gt;Node23 -->
<g id="edge30" class="edge"><title>Node1&#45;&gt;Node23</title>
<path fill="none" stroke="midnightblue" d="M469.748,-347.485C498.082,-338.695 543.281,-324.413 582,-311 584.246,-310.222 586.559,-309.404 588.885,-308.57"/>
<polygon fill="midnightblue" stroke="midnightblue" points="590.183,-311.822 598.377,-305.107 587.783,-305.246 590.183,-311.822"/>
</g>
<!-- Node4 -->
<g id="node4" class="node"><title>Node4</title>
<polygon fill="white" stroke="#bfbfbf" points="16,-0.5 16,-19.5 126,-19.5 126,-0.5 16,-0.5"/>
<text text-anchor="middle" x="71" y="-7.5" font-family="Helvetica,sans-Serif" font-size="10.00">hpp/fcl/deprecated.hh</text>
</g>
<!-- Node3&#45;&gt;Node4 -->
<g id="edge3" class="edge"><title>Node3&#45;&gt;Node4</title>
<path fill="none" stroke="midnightblue" d="M270.858,-285.951C217.232,-273.039 136,-242.929 136,-179 136,-179 136,-179 136,-121 136,-83.1777 107.165,-46.9402 87.9057,-26.9551"/>
<polygon fill="midnightblue" stroke="midnightblue" points="90.1426,-24.2429 80.591,-19.6585 85.199,-29.1988 90.1426,-24.2429"/>
</g>
<!-- Node5 -->
<g id="node5" class="node"><title>Node5</title>
<g id="a_node5"><a xlink:href="a00114.html" target="_top" xlink:title="hpp/fcl/BV/AABB.h">
<polygon fill="white" stroke="black" points="201.5,-224.5 201.5,-243.5 302.5,-243.5 302.5,-224.5 201.5,-224.5"/>
<text text-anchor="middle" x="252" y="-231.5" font-family="Helvetica,sans-Serif" font-size="10.00">hpp/fcl/BV/AABB.h</text>
</a>
</g>
</g>
<!-- Node3&#45;&gt;Node5 -->
<g id="edge4" class="edge"><title>Node3&#45;&gt;Node5</title>
<path fill="none" stroke="midnightblue" d="M307.687,-285.975C297.551,-276.697 281.136,-261.671 268.748,-250.331"/>
<polygon fill="midnightblue" stroke="midnightblue" points="271.035,-247.68 261.296,-243.509 266.309,-252.843 271.035,-247.68"/>
</g>
<!-- Node20 -->
<g id="node20" class="node"><title>Node20</title>
<g id="a_node20"><a xlink:href="a00155.html" target="_top" xlink:title="hpp/fcl/math/transform.h">
<polygon fill="white" stroke="black" points="320.5,-224.5 320.5,-243.5 443.5,-243.5 443.5,-224.5 320.5,-224.5"/>
<text text-anchor="middle" x="382" y="-231.5" font-family="Helvetica,sans-Serif" font-size="10.00">hpp/fcl/math/transform.h</text>
</a>
</g>
</g>
<!-- Node3&#45;&gt;Node20 -->
<g id="edge25" class="edge"><title>Node3&#45;&gt;Node20</title>
<path fill="none" stroke="midnightblue" d="M326.313,-285.975C336.449,-276.697 352.864,-261.671 365.252,-250.331"/>
<polygon fill="midnightblue" stroke="midnightblue" points="367.691,-252.843 372.704,-243.509 362.965,-247.68 367.691,-252.843"/>
</g>
<!-- Node22 -->
<g id="node22" class="node"><title>Node22</title>
<polygon fill="white" stroke="#bfbfbf" points="0,-224.5 0,-243.5 108,-243.5 108,-224.5 0,-224.5"/>
<text text-anchor="middle" x="54" y="-231.5" font-family="Helvetica,sans-Serif" font-size="10.00">boost/shared_ptr.hpp</text>
</g>
<!-- Node3&#45;&gt;Node22 -->
<g id="edge28" class="edge"><title>Node3&#45;&gt;Node22</title>
<path fill="none" stroke="midnightblue" d="M279.319,-285.975C232.447,-275.371 152.394,-257.26 101.404,-245.724"/>
<polygon fill="midnightblue" stroke="midnightblue" points="102.137,-242.302 91.6116,-243.509 100.593,-249.129 102.137,-242.302"/>
</g>
<!-- Node6 -->
<g id="node6" class="node"><title>Node6</title>
<polygon fill="white" stroke="#bfbfbf" points="164.5,-168.5 164.5,-187.5 223.5,-187.5 223.5,-168.5 164.5,-168.5"/>
<text text-anchor="middle" x="194" y="-175.5" font-family="Helvetica,sans-Serif" font-size="10.00">stdexcept</text>
</g>
<!-- Node5&#45;&gt;Node6 -->
<g id="edge5" class="edge"><title>Node5&#45;&gt;Node6</title>
<path fill="none" stroke="midnightblue" d="M242.681,-224.324C234.107,-216.341 221.188,-204.313 210.812,-194.653"/>
<polygon fill="midnightblue" stroke="midnightblue" points="213.192,-192.086 203.488,-187.834 208.422,-197.21 213.192,-192.086"/>
</g>
<!-- Node5&#45;&gt;Node7 -->
<g id="edge6" class="edge"><title>Node5&#45;&gt;Node7</title>
<path fill="none" stroke="midnightblue" d="M252.114,-224.177C252.772,-210.371 256.045,-183.631 271,-168 288.58,-149.626 313.953,-138.754 337.766,-132.321"/>
<polygon fill="midnightblue" stroke="midnightblue" points="338.633,-135.713 347.495,-129.907 336.947,-128.919 338.633,-135.713"/>
</g>
<!-- Node19 -->
<g id="node19" class="node"><title>Node19</title>
<g id="a_node19"><a xlink:href="a00146.html" target="_top" xlink:title="hpp/fcl/math/matrix_3f.h">
<polygon fill="white" stroke="black" points="280,-168.5 280,-187.5 402,-187.5 402,-168.5 280,-168.5"/>
<text text-anchor="middle" x="341" y="-175.5" font-family="Helvetica,sans-Serif" font-size="10.00">hpp/fcl/math/matrix_3f.h</text>
</a>
</g>
</g>
<!-- Node5&#45;&gt;Node19 -->
<g id="edge23" class="edge"><title>Node5&#45;&gt;Node19</title>
<path fill="none" stroke="midnightblue" d="M266.299,-224.324C280.183,-215.9 301.492,-202.971 317.804,-193.074"/>
<polygon fill="midnightblue" stroke="midnightblue" points="320.002,-195.834 326.736,-187.655 316.371,-189.85 320.002,-195.834"/>
</g>
<!-- Node8 -->
<g id="node8" class="node"><title>Node8</title>
<g id="a_node8"><a xlink:href="a00130.html" target="_top" xlink:title="hpp/fcl/data_types.h">
<polygon fill="white" stroke="black" points="604.5,-56.5 604.5,-75.5 709.5,-75.5 709.5,-56.5 604.5,-56.5"/>
<text text-anchor="middle" x="657" y="-63.5" font-family="Helvetica,sans-Serif" font-size="10.00">hpp/fcl/data_types.h</text>
</a>
</g>
</g>
<!-- Node7&#45;&gt;Node8 -->
<g id="edge7" class="edge"><title>Node7&#45;&gt;Node8</title>
<path fill="none" stroke="midnightblue" d="M443.247,-112.444C487.65,-103.004 559.153,-87.802 607.088,-77.6111"/>
<polygon fill="midnightblue" stroke="midnightblue" points="607.888,-81.0195 616.941,-75.5164 606.432,-74.1725 607.888,-81.0195"/>
</g>
<!-- Node11 -->
<g id="node11" class="node"><title>Node11</title>
<polygon fill="white" stroke="#bfbfbf" points="727.5,-56.5 727.5,-75.5 792.5,-75.5 792.5,-56.5 727.5,-56.5"/>
<text text-anchor="middle" x="760" y="-63.5" font-family="Helvetica,sans-Serif" font-size="10.00">Eigen/Core</text>
</g>
<!-- Node7&#45;&gt;Node11 -->
<g id="edge10" class="edge"><title>Node7&#45;&gt;Node11</title>
<path fill="none" stroke="midnightblue" d="M458.572,-114.361C519.743,-106.768 621.19,-93.336 717.471,-76.174"/>
<polygon fill="midnightblue" stroke="midnightblue" points="718.148,-79.6084 727.37,-74.3927 716.909,-72.719 718.148,-79.6084"/>
</g>
<!-- Node12 -->
<g id="node12" class="node"><title>Node12</title>
<polygon fill="white" stroke="#bfbfbf" points="144.5,-0.5 144.5,-19.5 231.5,-19.5 231.5,-0.5 144.5,-0.5"/>
<text text-anchor="middle" x="188" y="-7.5" font-family="Helvetica,sans-Serif" font-size="10.00">Eigen/Geometry</text>
</g>
<!-- Node7&#45;&gt;Node12 -->
<g id="edge11" class="edge"><title>Node7&#45;&gt;Node12</title>
<path fill="none" stroke="midnightblue" d="M374.795,-112.406C350.168,-104.421 313.805,-91.4543 284,-76 255.771,-61.3629 225.824,-40.0375 207.029,-25.8529"/>
<polygon fill="midnightblue" stroke="midnightblue" points="209.06,-22.9996 198.99,-19.7058 204.808,-28.5603 209.06,-22.9996"/>
</g>
<!-- Node13 -->
<g id="node13" class="node"><title>Node13</title>
<g id="a_node13"><a xlink:href="a00154.html" target="_top" xlink:title="hpp/fcl/math/tools.h">
<polygon fill="white" stroke="black" points="311.5,-56.5 311.5,-75.5 414.5,-75.5 414.5,-56.5 311.5,-56.5"/>
<text text-anchor="middle" x="363" y="-63.5" font-family="Helvetica,sans-Serif" font-size="10.00">hpp/fcl/math/tools.h</text>
</a>
</g>
</g>
<!-- Node7&#45;&gt;Node13 -->
<g id="edge12" class="edge"><title>Node7&#45;&gt;Node13</title>
<path fill="none" stroke="midnightblue" d="M396.395,-112.083C390.745,-104.455 382.455,-93.2645 375.549,-83.9408"/>
<polygon fill="midnightblue" stroke="midnightblue" points="378.247,-81.7034 369.482,-75.7511 372.622,-85.87 378.247,-81.7034"/>
</g>
<!-- Node16 -->
<g id="node16" class="node"><title>Node16</title>
<polygon fill="white" stroke="#bfbfbf" points="250,-0.5 250,-19.5 294,-19.5 294,-0.5 250,-0.5"/>
<text text-anchor="middle" x="272" y="-7.5" font-family="Helvetica,sans-Serif" font-size="10.00">cmath</text>
</g>
<!-- Node7&#45;&gt;Node16 -->
<g id="edge20" class="edge"><title>Node7&#45;&gt;Node16</title>
<path fill="none" stroke="midnightblue" d="M369.412,-112.388C348.178,-105.502 321.374,-93.971 303,-76 289.895,-63.182 281.632,-43.7241 276.964,-29.4372"/>
<polygon fill="midnightblue" stroke="midnightblue" points="280.279,-28.3038 274.074,-19.7155 273.569,-30.2983 280.279,-28.3038"/>
</g>
<!-- Node17 -->
<g id="node17" class="node"><title>Node17</title>
<polygon fill="white" stroke="#bfbfbf" points="510,-0.5 510,-19.5 564,-19.5 564,-0.5 510,-0.5"/>
<text text-anchor="middle" x="537" y="-7.5" font-family="Helvetica,sans-Serif" font-size="10.00">iostream</text>
</g>
<!-- Node7&#45;&gt;Node17 -->
<g id="edge21" class="edge"><title>Node7&#45;&gt;Node17</title>
<path fill="none" stroke="midnightblue" d="M413.515,-112.368C436.216,-93.7334 490.061,-49.5324 518.564,-26.1338"/>
<polygon fill="midnightblue" stroke="midnightblue" points="521.026,-28.6416 526.534,-19.5914 516.584,-23.2311 521.026,-28.6416"/>
</g>
<!-- Node18 -->
<g id="node18" class="node"><title>Node18</title>
<polygon fill="white" stroke="#bfbfbf" points="582,-0.5 582,-19.5 622,-19.5 622,-0.5 582,-0.5"/>
<text text-anchor="middle" x="602" y="-7.5" font-family="Helvetica,sans-Serif" font-size="10.00">limits</text>
</g>
<!-- Node7&#45;&gt;Node18 -->
<g id="edge22" class="edge"><title>Node7&#45;&gt;Node18</title>
<path fill="none" stroke="midnightblue" d="M418.615,-112.368C453.127,-93.2916 536.109,-47.4223 577.567,-24.5054"/>
<polygon fill="midnightblue" stroke="midnightblue" points="579.399,-27.4924 586.457,-19.5914 576.012,-21.366 579.399,-27.4924"/>
</g>
<!-- Node9 -->
<g id="node9" class="node"><title>Node9</title>
<polygon fill="white" stroke="#bfbfbf" points="640.5,-0.5 640.5,-19.5 689.5,-19.5 689.5,-0.5 640.5,-0.5"/>
<text text-anchor="middle" x="665" y="-7.5" font-family="Helvetica,sans-Serif" font-size="10.00">cstddef</text>
</g>
<!-- Node8&#45;&gt;Node9 -->
<g id="edge8" class="edge"><title>Node8&#45;&gt;Node9</title>
<path fill="none" stroke="midnightblue" d="M658.321,-56.083C659.381,-48.9272 660.906,-38.6353 662.231,-29.6911"/>
<polygon fill="midnightblue" stroke="midnightblue" points="665.7,-30.1561 663.704,-19.7511 658.776,-29.1302 665.7,-30.1561"/>
</g>
<!-- Node10 -->
<g id="node10" class="node"><title>Node10</title>
<polygon fill="white" stroke="#bfbfbf" points="708,-0.5 708,-19.5 800,-19.5 800,-0.5 708,-0.5"/>
<text text-anchor="middle" x="754" y="-7.5" font-family="Helvetica,sans-Serif" font-size="10.00">boost/cstdint.hpp</text>
</g>
<!-- Node8&#45;&gt;Node10 -->
<g id="edge9" class="edge"><title>Node8&#45;&gt;Node10</title>
<path fill="none" stroke="midnightblue" d="M672.585,-56.324C687.999,-47.7428 711.812,-34.486 729.71,-24.5224"/>
<polygon fill="midnightblue" stroke="midnightblue" points="731.419,-27.5767 738.454,-19.6545 728.014,-21.4606 731.419,-27.5767"/>
</g>
<!-- Node13&#45;&gt;Node4 -->
<g id="edge13" class="edge"><title>Node13&#45;&gt;Node4</title>
<path fill="none" stroke="midnightblue" d="M316.732,-56.4435C265.259,-46.9246 182.107,-31.5472 127.001,-21.3563"/>
<polygon fill="midnightblue" stroke="midnightblue" points="127.522,-17.8933 117.052,-19.5164 126.249,-24.7766 127.522,-17.8933"/>
</g>
<!-- Node13&#45;&gt;Node12 -->
<g id="edge16" class="edge"><title>Node13&#45;&gt;Node12</title>
<path fill="none" stroke="midnightblue" d="M335.271,-56.4435C305.574,-47.2801 258.284,-32.6876 225.331,-22.5192"/>
<polygon fill="midnightblue" stroke="midnightblue" points="226.187,-19.1206 215.6,-19.5164 224.123,-25.8094 226.187,-19.1206"/>
</g>
<!-- Node14 -->
<g id="node14" class="node"><title>Node14</title>
<polygon fill="white" stroke="#bfbfbf" points="311.5,-0.5 311.5,-19.5 400.5,-19.5 400.5,-0.5 311.5,-0.5"/>
<text text-anchor="middle" x="356" y="-7.5" font-family="Helvetica,sans-Serif" font-size="10.00">hpp/fcl/config.hh</text>
</g>
<!-- Node13&#45;&gt;Node14 -->
<g id="edge14" class="edge"><title>Node13&#45;&gt;Node14</title>
<path fill="none" stroke="midnightblue" d="M361.844,-56.083C360.916,-48.9272 359.582,-38.6353 358.423,-29.6911"/>
<polygon fill="midnightblue" stroke="midnightblue" points="361.891,-29.2181 357.134,-19.7511 354.949,-30.1181 361.891,-29.2181"/>
</g>
<!-- Node15 -->
<g id="node15" class="node"><title>Node15</title>
<polygon fill="white" stroke="#bfbfbf" points="418.5,-0.5 418.5,-19.5 491.5,-19.5 491.5,-0.5 418.5,-0.5"/>
<text text-anchor="middle" x="455" y="-7.5" font-family="Helvetica,sans-Serif" font-size="10.00">Eigen/Dense</text>
</g>
<!-- Node13&#45;&gt;Node15 -->
<g id="edge15" class="edge"><title>Node13&#45;&gt;Node15</title>
<path fill="none" stroke="midnightblue" d="M377.781,-56.324C392.267,-47.8215 414.573,-34.7288 431.493,-24.7975"/>
<polygon fill="midnightblue" stroke="midnightblue" points="433.403,-27.735 440.255,-19.6545 429.859,-21.6981 433.403,-27.735"/>
</g>
<!-- Node13&#45;&gt;Node16 -->
<g id="edge17" class="edge"><title>Node13&#45;&gt;Node16</title>
<path fill="none" stroke="midnightblue" d="M348.379,-56.324C334.051,-47.8215 311.987,-34.7288 295.251,-24.7975"/>
<polygon fill="midnightblue" stroke="midnightblue" points="296.97,-21.7478 286.584,-19.6545 293.398,-27.7677 296.97,-21.7478"/>
</g>
<!-- Node13&#45;&gt;Node17 -->
<g id="edge18" class="edge"><title>Node13&#45;&gt;Node17</title>
<path fill="none" stroke="midnightblue" d="M390.571,-56.4435C420.184,-47.2532 467.395,-32.6017 500.171,-22.4296"/>
<polygon fill="midnightblue" stroke="midnightblue" points="501.331,-25.7343 509.845,-19.4275 499.257,-19.0489 501.331,-25.7343"/>
</g>
<!-- Node13&#45;&gt;Node18 -->
<g id="edge19" class="edge"><title>Node13&#45;&gt;Node18</title>
<path fill="none" stroke="midnightblue" d="M408.749,-56.4275C449.309,-48.5519 510.323,-36.0342 571.901,-20.1121"/>
<polygon fill="midnightblue" stroke="midnightblue" points="572.996,-23.4435 581.785,-17.5277 571.225,-16.6711 572.996,-23.4435"/>
</g>
<!-- Node19&#45;&gt;Node7 -->
<g id="edge24" class="edge"><title>Node19&#45;&gt;Node7</title>
<path fill="none" stroke="midnightblue" d="M350.961,-168.324C360.127,-160.341 373.937,-148.313 385.028,-138.653"/>
<polygon fill="midnightblue" stroke="midnightblue" points="387.615,-141.041 392.857,-131.834 383.018,-135.762 387.615,-141.041"/>
</g>
<!-- Node20&#45;&gt;Node19 -->
<g id="edge26" class="edge"><title>Node20&#45;&gt;Node19</title>
<path fill="none" stroke="midnightblue" d="M375.23,-224.083C369.438,-216.455 360.942,-205.264 353.862,-195.941"/>
<polygon fill="midnightblue" stroke="midnightblue" points="356.479,-193.599 347.644,-187.751 350.904,-197.832 356.479,-193.599"/>
</g>
<!-- Node21 -->
<g id="node21" class="node"><title>Node21</title>
<polygon fill="white" stroke="#bfbfbf" points="420.5,-168.5 420.5,-187.5 539.5,-187.5 539.5,-168.5 420.5,-168.5"/>
<text text-anchor="middle" x="480" y="-175.5" font-family="Helvetica,sans-Serif" font-size="10.00">boost/thread/mutex.hpp</text>
</g>
<!-- Node20&#45;&gt;Node21 -->
<g id="edge27" class="edge"><title>Node20&#45;&gt;Node21</title>
<path fill="none" stroke="midnightblue" d="M397.745,-224.324C413.319,-215.743 437.377,-202.486 455.459,-192.522"/>
<polygon fill="midnightblue" stroke="midnightblue" points="457.224,-195.546 464.294,-187.655 453.846,-189.415 457.224,-195.546"/>
</g>
</g>
</svg>
