<?xml version="1.0" encoding="UTF-8" standalone="no"?>
<!DOCTYPE svg PUBLIC "-//W3C//DTD SVG 1.1//EN"
 "http://www.w3.org/Graphics/SVG/1.1/DTD/svg11.dtd">
<!-- Generated by graphviz version 2.38.0 (20140413.2041)
 -->
<!-- Title: hpp::fcl::BVHShapeCollisionTraversalNode&lt; BV, S &gt; Pages: 1 -->
<svg width="152pt" height="229pt"
 viewBox="0.00 0.00 152.00 229.00" xmlns="http://www.w3.org/2000/svg" xmlns:xlink="http://www.w3.org/1999/xlink">
<g id="graph0" class="graph" transform="scale(1 1) rotate(0) translate(4 225)">
<title>hpp::fcl::BVHShapeCollisionTraversalNode&lt; BV, S &gt;</title>
<polygon fill="white" stroke="none" points="-4,4 -4,-225 148,-225 148,4 -4,4"/>
<!-- Node1 -->
<g id="node1" class="node"><title>Node1</title>
<polygon fill="#bfbfbf" stroke="black" points="1.5,-67.5 1.5,-97.5 142.5,-97.5 142.5,-67.5 1.5,-67.5"/>
<text text-anchor="start" x="9.5" y="-85.5" font-family="Helvetica,sans-Serif" font-size="10.00">hpp::fcl::BVHShapeCollision</text>
<text text-anchor="middle" x="72" y="-74.5" font-family="Helvetica,sans-Serif" font-size="10.00">TraversalNode&lt; BV, S &gt;</text>
</g>
<!-- Node4 -->
<g id="node4" class="node"><title>Node4</title>
<g id="a_node4"><a xlink:href="a00058.html" target="_top" xlink:title="Traversal node for collision between mesh and shape. ">
<polygon fill="white" stroke="black" points="0,-0.5 0,-30.5 144,-30.5 144,-0.5 0,-0.5"/>
<text text-anchor="start" x="8" y="-18.5" font-family="Helvetica,sans-Serif" font-size="10.00">hpp::fcl::MeshShapeCollision</text>
<text text-anchor="middle" x="72" y="-7.5" font-family="Helvetica,sans-Serif" font-size="10.00">TraversalNode&lt; BV, S &gt;</text>
</a>
</g>
</g>
<!-- Node1&#45;&gt;Node4 -->
<g id="edge3" class="edge"><title>Node1&#45;&gt;Node4</title>
<path fill="none" stroke="midnightblue" d="M72,-57.1081C72,-48.1539 72,-38.3227 72,-30.5765"/>
<polygon fill="midnightblue" stroke="midnightblue" points="68.5001,-57.3959 72,-67.396 75.5001,-57.396 68.5001,-57.3959"/>
</g>
<!-- Node2 -->
<g id="node2" class="node"><title>Node2</title>
<g id="a_node2"><a xlink:href="a00029.html" target="_top" xlink:title="Node structure encoding the information required for collision traversal. ">
<polygon fill="white" stroke="black" points="5.5,-134.5 5.5,-164.5 138.5,-164.5 138.5,-134.5 5.5,-134.5"/>
<text text-anchor="start" x="13.5" y="-152.5" font-family="Helvetica,sans-Serif" font-size="10.00">hpp::fcl::CollisionTraversal</text>
<text text-anchor="middle" x="72" y="-141.5" font-family="Helvetica,sans-Serif" font-size="10.00">NodeBase</text>
</a>
</g>
</g>
<!-- Node2&#45;&gt;Node1 -->
<g id="edge1" class="edge"><title>Node2&#45;&gt;Node1</title>
<path fill="none" stroke="midnightblue" d="M72,-124.108C72,-115.154 72,-105.323 72,-97.5765"/>
<polygon fill="midnightblue" stroke="midnightblue" points="68.5001,-124.396 72,-134.396 75.5001,-124.396 68.5001,-124.396"/>
</g>
<!-- Node3 -->
<g id="node3" class="node"><title>Node3</title>
<g id="a_node3"><a xlink:href="a00108.html" target="_top" xlink:title="Node structure encoding the information required for traversal. ">
<polygon fill="white" stroke="black" points="1.5,-201.5 1.5,-220.5 142.5,-220.5 142.5,-201.5 1.5,-201.5"/>
<text text-anchor="middle" x="72" y="-208.5" font-family="Helvetica,sans-Serif" font-size="10.00">hpp::fcl::TraversalNodeBase</text>
</a>
</g>
</g>
<!-- Node3&#45;&gt;Node2 -->
<g id="edge2" class="edge"><title>Node3&#45;&gt;Node2</title>
<path fill="none" stroke="midnightblue" d="M72,-191.235C72,-182.586 72,-172.497 72,-164.523"/>
<polygon fill="midnightblue" stroke="midnightblue" points="68.5001,-191.475 72,-201.475 75.5001,-191.475 68.5001,-191.475"/>
</g>
</g>
</svg>
