<?xml version="1.0" encoding="UTF-8" standalone="no"?>
<!DOCTYPE svg PUBLIC "-//W3C//DTD SVG 1.1//EN"
 "http://www.w3.org/Graphics/SVG/1.1/DTD/svg11.dtd">
<!-- Generated by graphviz version 2.38.0 (20140413.2041)
 -->
<!-- Title: distance_func_matrix.h Pages: 1 -->
<svg width="821pt" height="420pt"
 viewBox="0.00 0.00 821.26 420.00" xmlns="http://www.w3.org/2000/svg" xmlns:xlink="http://www.w3.org/1999/xlink">
<g id="graph0" class="graph" transform="scale(1 1) rotate(0) translate(4 416)">
<title>distance_func_matrix.h</title>
<polygon fill="white" stroke="none" points="-4,4 -4,-416 817.26,-416 817.26,4 -4,4"/>
<!-- Node1 -->
<g id="node1" class="node"><title>Node1</title>
<polygon fill="#bfbfbf" stroke="black" points="139.26,-392.5 139.26,-411.5 257.26,-411.5 257.26,-392.5 139.26,-392.5"/>
<text text-anchor="middle" x="198.26" y="-399.5" font-family="Helvetica,sans-Serif" font-size="10.00">distance_func_matrix.h</text>
</g>
<!-- Node2 -->
<g id="node2" class="node"><title>Node2</title>
<g id="a_node2"><a xlink:href="a00128.html" target="_top" xlink:title="hpp/fcl/collision_object.h">
<polygon fill="white" stroke="black" points="248.26,-280.5 248.26,-299.5 372.26,-299.5 372.26,-280.5 248.26,-280.5"/>
<text text-anchor="middle" x="310.26" y="-287.5" font-family="Helvetica,sans-Serif" font-size="10.00">hpp/fcl/collision_object.h</text>
</a>
</g>
</g>
<!-- Node1&#45;&gt;Node2 -->
<g id="edge1" class="edge"><title>Node1&#45;&gt;Node2</title>
<path fill="none" stroke="midnightblue" d="M207.048,-392.368C225.858,-373.894 270.253,-330.293 294.23,-306.744"/>
<polygon fill="midnightblue" stroke="midnightblue" points="296.83,-309.096 301.512,-299.591 291.925,-304.101 296.83,-309.096"/>
</g>
<!-- Node22 -->
<g id="node22" class="node"><title>Node22</title>
<g id="a_node22"><a xlink:href="a00125.html" target="_top" xlink:title="hpp/fcl/collision_data.h">
<polygon fill="white" stroke="black" points="68.2596,-336.5 68.2596,-355.5 184.26,-355.5 184.26,-336.5 68.2596,-336.5"/>
<text text-anchor="middle" x="126.26" y="-343.5" font-family="Helvetica,sans-Serif" font-size="10.00">hpp/fcl/collision_data.h</text>
</a>
</g>
</g>
<!-- Node1&#45;&gt;Node22 -->
<g id="edge28" class="edge"><title>Node1&#45;&gt;Node22</title>
<path fill="none" stroke="midnightblue" d="M186.692,-392.324C175.839,-384.185 159.379,-371.839 146.376,-362.087"/>
<polygon fill="midnightblue" stroke="midnightblue" points="148.138,-359.034 138.038,-355.834 143.938,-364.634 148.138,-359.034"/>
</g>
<!-- Node3 -->
<g id="node3" class="node"><title>Node3</title>
<polygon fill="white" stroke="#bfbfbf" points="525.26,-0.5 525.26,-19.5 635.26,-19.5 635.26,-0.5 525.26,-0.5"/>
<text text-anchor="middle" x="580.26" y="-7.5" font-family="Helvetica,sans-Serif" font-size="10.00">hpp/fcl/deprecated.hh</text>
</g>
<!-- Node2&#45;&gt;Node3 -->
<g id="edge2" class="edge"><title>Node2&#45;&gt;Node3</title>
<path fill="none" stroke="midnightblue" d="M372.264,-285.26C437.38,-280.082 534.048,-268.445 561.26,-244 583.649,-223.886 580.26,-209.098 580.26,-179 580.26,-179 580.26,-179 580.26,-121 580.26,-88.948 580.26,-51.6426 580.26,-29.7489"/>
<polygon fill="midnightblue" stroke="midnightblue" points="583.76,-29.5577 580.26,-19.5578 576.76,-29.5578 583.76,-29.5577"/>
</g>
<!-- Node4 -->
<g id="node4" class="node"><title>Node4</title>
<g id="a_node4"><a xlink:href="a00114.html" target="_top" xlink:title="hpp/fcl/BV/AABB.h">
<polygon fill="white" stroke="black" points="324.76,-224.5 324.76,-243.5 425.76,-243.5 425.76,-224.5 324.76,-224.5"/>
<text text-anchor="middle" x="375.26" y="-231.5" font-family="Helvetica,sans-Serif" font-size="10.00">hpp/fcl/BV/AABB.h</text>
</a>
</g>
</g>
<!-- Node2&#45;&gt;Node4 -->
<g id="edge3" class="edge"><title>Node2&#45;&gt;Node4</title>
<path fill="none" stroke="midnightblue" d="M320.703,-280.324C330.406,-272.263 345.075,-260.077 356.759,-250.369"/>
<polygon fill="midnightblue" stroke="midnightblue" points="359.171,-252.916 364.626,-243.834 354.698,-247.532 359.171,-252.916"/>
</g>
<!-- Node19 -->
<g id="node19" class="node"><title>Node19</title>
<g id="a_node19"><a xlink:href="a00155.html" target="_top" xlink:title="hpp/fcl/math/transform.h">
<polygon fill="white" stroke="black" points="183.76,-224.5 183.76,-243.5 306.76,-243.5 306.76,-224.5 183.76,-224.5"/>
<text text-anchor="middle" x="245.26" y="-231.5" font-family="Helvetica,sans-Serif" font-size="10.00">hpp/fcl/math/transform.h</text>
</a>
</g>
</g>
<!-- Node2&#45;&gt;Node19 -->
<g id="edge24" class="edge"><title>Node2&#45;&gt;Node19</title>
<path fill="none" stroke="midnightblue" d="M299.816,-280.324C290.113,-272.263 275.444,-260.077 263.76,-250.369"/>
<polygon fill="midnightblue" stroke="midnightblue" points="265.822,-247.532 255.893,-243.834 261.348,-252.916 265.822,-247.532"/>
</g>
<!-- Node21 -->
<g id="node21" class="node"><title>Node21</title>
<polygon fill="white" stroke="#bfbfbf" points="444.26,-224.5 444.26,-243.5 552.26,-243.5 552.26,-224.5 444.26,-224.5"/>
<text text-anchor="middle" x="498.26" y="-231.5" font-family="Helvetica,sans-Serif" font-size="10.00">boost/shared_ptr.hpp</text>
</g>
<!-- Node2&#45;&gt;Node21 -->
<g id="edge27" class="edge"><title>Node2&#45;&gt;Node21</title>
<path fill="none" stroke="midnightblue" d="M340.049,-280.444C372.089,-271.241 423.193,-256.562 458.613,-246.388"/>
<polygon fill="midnightblue" stroke="midnightblue" points="459.965,-249.641 468.61,-243.516 458.032,-242.913 459.965,-249.641"/>
</g>
<!-- Node5 -->
<g id="node5" class="node"><title>Node5</title>
<polygon fill="white" stroke="#bfbfbf" points="454.76,-168.5 454.76,-187.5 513.76,-187.5 513.76,-168.5 454.76,-168.5"/>
<text text-anchor="middle" x="484.26" y="-175.5" font-family="Helvetica,sans-Serif" font-size="10.00">stdexcept</text>
</g>
<!-- Node4&#45;&gt;Node5 -->
<g id="edge4" class="edge"><title>Node4&#45;&gt;Node5</title>
<path fill="none" stroke="midnightblue" d="M392.772,-224.324C410.332,-215.625 437.591,-202.12 457.791,-192.113"/>
<polygon fill="midnightblue" stroke="midnightblue" points="459.383,-195.23 466.79,-187.655 456.276,-188.958 459.383,-195.23"/>
</g>
<!-- Node6 -->
<g id="node6" class="node"><title>Node6</title>
<g id="a_node6"><a xlink:href="a00164.html" target="_top" xlink:title="hpp/fcl/math/vec_3f.h">
<polygon fill="white" stroke="black" points="206.76,-112.5 206.76,-131.5 317.76,-131.5 317.76,-112.5 206.76,-112.5"/>
<text text-anchor="middle" x="262.26" y="-119.5" font-family="Helvetica,sans-Serif" font-size="10.00">hpp/fcl/math/vec_3f.h</text>
</a>
</g>
</g>
<!-- Node4&#45;&gt;Node6 -->
<g id="edge5" class="edge"><title>Node4&#45;&gt;Node6</title>
<path fill="none" stroke="midnightblue" d="M424.255,-224.444C462.256,-216.692 510.395,-204.04 522.26,-188 527.546,-180.854 527.984,-174.8 522.26,-168 497.917,-139.082 396.912,-128.747 328.201,-125.054"/>
<polygon fill="midnightblue" stroke="midnightblue" points="328.052,-121.542 317.889,-124.536 327.701,-128.533 328.052,-121.542"/>
</g>
<!-- Node18 -->
<g id="node18" class="node"><title>Node18</title>
<g id="a_node18"><a xlink:href="a00146.html" target="_top" xlink:title="hpp/fcl/math/matrix_3f.h">
<polygon fill="white" stroke="black" points="314.26,-168.5 314.26,-187.5 436.26,-187.5 436.26,-168.5 314.26,-168.5"/>
<text text-anchor="middle" x="375.26" y="-175.5" font-family="Helvetica,sans-Serif" font-size="10.00">hpp/fcl/math/matrix_3f.h</text>
</a>
</g>
</g>
<!-- Node4&#45;&gt;Node18 -->
<g id="edge22" class="edge"><title>Node4&#45;&gt;Node18</title>
<path fill="none" stroke="midnightblue" d="M375.26,-224.083C375.26,-217.006 375.26,-206.861 375.26,-197.986"/>
<polygon fill="midnightblue" stroke="midnightblue" points="378.76,-197.751 375.26,-187.751 371.76,-197.751 378.76,-197.751"/>
</g>
<!-- Node7 -->
<g id="node7" class="node"><title>Node7</title>
<g id="a_node7"><a xlink:href="a00130.html" target="_top" xlink:title="hpp/fcl/data_types.h">
<polygon fill="white" stroke="black" points="625.76,-56.5 625.76,-75.5 730.76,-75.5 730.76,-56.5 625.76,-56.5"/>
<text text-anchor="middle" x="678.26" y="-63.5" font-family="Helvetica,sans-Serif" font-size="10.00">hpp/fcl/data_types.h</text>
</a>
</g>
</g>
<!-- Node6&#45;&gt;Node7 -->
<g id="edge6" class="edge"><title>Node6&#45;&gt;Node7</title>
<path fill="none" stroke="midnightblue" d="M317.932,-113.773C395.215,-103.741 534.606,-85.6473 615.495,-75.1473"/>
<polygon fill="midnightblue" stroke="midnightblue" points="616.077,-78.6012 625.543,-73.843 615.176,-71.6595 616.077,-78.6012"/>
</g>
<!-- Node10 -->
<g id="node10" class="node"><title>Node10</title>
<polygon fill="white" stroke="#bfbfbf" points="52.7596,-56.5 52.7596,-75.5 117.76,-75.5 117.76,-56.5 52.7596,-56.5"/>
<text text-anchor="middle" x="85.2596" y="-63.5" font-family="Helvetica,sans-Serif" font-size="10.00">Eigen/Core</text>
</g>
<!-- Node6&#45;&gt;Node10 -->
<g id="edge9" class="edge"><title>Node6&#45;&gt;Node10</title>
<path fill="none" stroke="midnightblue" d="M234.213,-112.444C204.178,-103.28 156.347,-88.6876 123.017,-78.5192"/>
<polygon fill="midnightblue" stroke="midnightblue" points="123.761,-75.0869 113.175,-75.5164 121.718,-81.7822 123.761,-75.0869"/>
</g>
<!-- Node11 -->
<g id="node11" class="node"><title>Node11</title>
<polygon fill="white" stroke="#bfbfbf" points="160.76,-0.5 160.76,-19.5 247.76,-19.5 247.76,-0.5 160.76,-0.5"/>
<text text-anchor="middle" x="204.26" y="-7.5" font-family="Helvetica,sans-Serif" font-size="10.00">Eigen/Geometry</text>
</g>
<!-- Node6&#45;&gt;Node11 -->
<g id="edge10" class="edge"><title>Node6&#45;&gt;Node11</title>
<path fill="none" stroke="midnightblue" d="M257.708,-112.368C248.222,-94.376 226.168,-52.5503 213.554,-28.6267"/>
<polygon fill="midnightblue" stroke="midnightblue" points="216.55,-26.8047 208.79,-19.5914 210.358,-30.0696 216.55,-26.8047"/>
</g>
<!-- Node12 -->
<g id="node12" class="node"><title>Node12</title>
<g id="a_node12"><a xlink:href="a00154.html" target="_top" xlink:title="hpp/fcl/math/tools.h">
<polygon fill="white" stroke="black" points="250.76,-56.5 250.76,-75.5 353.76,-75.5 353.76,-56.5 250.76,-56.5"/>
<text text-anchor="middle" x="302.26" y="-63.5" font-family="Helvetica,sans-Serif" font-size="10.00">hpp/fcl/math/tools.h</text>
</a>
</g>
</g>
<!-- Node6&#45;&gt;Node12 -->
<g id="edge11" class="edge"><title>Node6&#45;&gt;Node12</title>
<path fill="none" stroke="midnightblue" d="M268.865,-112.083C274.515,-104.455 282.804,-93.2645 289.711,-83.9408"/>
<polygon fill="midnightblue" stroke="midnightblue" points="292.637,-85.87 295.777,-75.7511 287.013,-81.7034 292.637,-85.87"/>
</g>
<!-- Node15 -->
<g id="node15" class="node"><title>Node15</title>
<polygon fill="white" stroke="#bfbfbf" points="463.26,-0.5 463.26,-19.5 507.26,-19.5 507.26,-0.5 463.26,-0.5"/>
<text text-anchor="middle" x="485.26" y="-7.5" font-family="Helvetica,sans-Serif" font-size="10.00">cmath</text>
</g>
<!-- Node6&#45;&gt;Node15 -->
<g id="edge19" class="edge"><title>Node6&#45;&gt;Node15</title>
<path fill="none" stroke="midnightblue" d="M282.354,-112.403C302.671,-103.608 334.891,-89.3727 362.26,-76 396.935,-59.057 436.243,-37.9411 460.892,-24.4625"/>
<polygon fill="midnightblue" stroke="midnightblue" points="462.805,-27.4053 469.888,-19.5262 459.437,-21.2685 462.805,-27.4053"/>
</g>
<!-- Node16 -->
<g id="node16" class="node"><title>Node16</title>
<polygon fill="white" stroke="#bfbfbf" points="88.2596,-0.5 88.2596,-19.5 142.26,-19.5 142.26,-0.5 88.2596,-0.5"/>
<text text-anchor="middle" x="115.26" y="-7.5" font-family="Helvetica,sans-Serif" font-size="10.00">iostream</text>
</g>
<!-- Node6&#45;&gt;Node16 -->
<g id="edge20" class="edge"><title>Node6&#45;&gt;Node16</title>
<path fill="none" stroke="midnightblue" d="M250.725,-112.368C225.714,-93.6531 166.243,-49.1509 135.081,-25.8324"/>
<polygon fill="midnightblue" stroke="midnightblue" points="136.844,-22.7804 126.741,-19.5914 132.65,-28.385 136.844,-22.7804"/>
</g>
<!-- Node17 -->
<g id="node17" class="node"><title>Node17</title>
<polygon fill="white" stroke="#bfbfbf" points="30.2596,-0.5 30.2596,-19.5 70.2596,-19.5 70.2596,-0.5 30.2596,-0.5"/>
<text text-anchor="middle" x="50.2596" y="-7.5" font-family="Helvetica,sans-Serif" font-size="10.00">limits</text>
</g>
<!-- Node6&#45;&gt;Node17 -->
<g id="edge21" class="edge"><title>Node6&#45;&gt;Node17</title>
<path fill="none" stroke="midnightblue" d="M244.601,-112.339C226.405,-103.375 197.251,-88.9026 172.26,-76 138.373,-58.505 99.5483,-37.6845 74.9724,-24.408"/>
<polygon fill="midnightblue" stroke="midnightblue" points="76.4444,-21.225 65.9836,-19.545 73.1136,-27.3818 76.4444,-21.225"/>
</g>
<!-- Node8 -->
<g id="node8" class="node"><title>Node8</title>
<polygon fill="white" stroke="#bfbfbf" points="653.76,-0.5 653.76,-19.5 702.76,-19.5 702.76,-0.5 653.76,-0.5"/>
<text text-anchor="middle" x="678.26" y="-7.5" font-family="Helvetica,sans-Serif" font-size="10.00">cstddef</text>
</g>
<!-- Node7&#45;&gt;Node8 -->
<g id="edge7" class="edge"><title>Node7&#45;&gt;Node8</title>
<path fill="none" stroke="midnightblue" d="M678.26,-56.083C678.26,-49.0059 678.26,-38.8611 678.26,-29.9865"/>
<polygon fill="midnightblue" stroke="midnightblue" points="681.76,-29.751 678.26,-19.7511 674.76,-29.7511 681.76,-29.751"/>
</g>
<!-- Node9 -->
<g id="node9" class="node"><title>Node9</title>
<polygon fill="white" stroke="#bfbfbf" points="721.26,-0.5 721.26,-19.5 813.26,-19.5 813.26,-0.5 721.26,-0.5"/>
<text text-anchor="middle" x="767.26" y="-7.5" font-family="Helvetica,sans-Serif" font-size="10.00">boost/cstdint.hpp</text>
</g>
<!-- Node7&#45;&gt;Node9 -->
<g id="edge8" class="edge"><title>Node7&#45;&gt;Node9</title>
<path fill="none" stroke="midnightblue" d="M692.559,-56.324C706.443,-47.9002 727.752,-34.9709 744.063,-25.0741"/>
<polygon fill="midnightblue" stroke="midnightblue" points="746.262,-27.8341 752.996,-19.6545 742.631,-21.8495 746.262,-27.8341"/>
</g>
<!-- Node12&#45;&gt;Node3 -->
<g id="edge12" class="edge"><title>Node12&#45;&gt;Node3</title>
<path fill="none" stroke="midnightblue" d="M346.31,-56.4435C395.111,-46.9641 473.823,-31.6747 526.289,-21.4835"/>
<polygon fill="midnightblue" stroke="midnightblue" points="527.267,-24.8591 536.416,-19.5164 525.932,-17.9875 527.267,-24.8591"/>
</g>
<!-- Node12&#45;&gt;Node11 -->
<g id="edge15" class="edge"><title>Node12&#45;&gt;Node11</title>
<path fill="none" stroke="midnightblue" d="M286.514,-56.324C270.941,-47.7428 246.882,-34.486 228.8,-24.5224"/>
<polygon fill="midnightblue" stroke="midnightblue" points="230.413,-21.4152 219.966,-19.6545 227.035,-27.546 230.413,-21.4152"/>
</g>
<!-- Node13 -->
<g id="node13" class="node"><title>Node13</title>
<polygon fill="white" stroke="#bfbfbf" points="356.76,-0.5 356.76,-19.5 445.76,-19.5 445.76,-0.5 356.76,-0.5"/>
<text text-anchor="middle" x="401.26" y="-7.5" font-family="Helvetica,sans-Serif" font-size="10.00">hpp/fcl/config.hh</text>
</g>
<!-- Node12&#45;&gt;Node13 -->
<g id="edge13" class="edge"><title>Node12&#45;&gt;Node13</title>
<path fill="none" stroke="midnightblue" d="M318.166,-56.324C333.898,-47.7428 358.202,-34.486 376.469,-24.5224"/>
<polygon fill="midnightblue" stroke="midnightblue" points="378.29,-27.5157 385.393,-19.6545 374.938,-21.3704 378.29,-27.5157"/>
</g>
<!-- Node14 -->
<g id="node14" class="node"><title>Node14</title>
<polygon fill="white" stroke="#bfbfbf" points="265.76,-0.5 265.76,-19.5 338.76,-19.5 338.76,-0.5 265.76,-0.5"/>
<text text-anchor="middle" x="302.26" y="-7.5" font-family="Helvetica,sans-Serif" font-size="10.00">Eigen/Dense</text>
</g>
<!-- Node12&#45;&gt;Node14 -->
<g id="edge14" class="edge"><title>Node12&#45;&gt;Node14</title>
<path fill="none" stroke="midnightblue" d="M302.26,-56.083C302.26,-49.0059 302.26,-38.8611 302.26,-29.9865"/>
<polygon fill="midnightblue" stroke="midnightblue" points="305.76,-29.751 302.26,-19.7511 298.76,-29.7511 305.76,-29.751"/>
</g>
<!-- Node12&#45;&gt;Node15 -->
<g id="edge16" class="edge"><title>Node12&#45;&gt;Node15</title>
<path fill="none" stroke="midnightblue" d="M331.257,-56.4435C364.411,-46.6602 418.538,-30.6884 452.999,-20.5194"/>
<polygon fill="midnightblue" stroke="midnightblue" points="454.418,-23.7502 463.018,-17.5631 452.436,-17.0364 454.418,-23.7502"/>
</g>
<!-- Node12&#45;&gt;Node16 -->
<g id="edge17" class="edge"><title>Node12&#45;&gt;Node16</title>
<path fill="none" stroke="midnightblue" d="M272.629,-56.4435C240.01,-47.0241 187.524,-31.8679 152.235,-21.6774"/>
<polygon fill="midnightblue" stroke="midnightblue" points="152.902,-18.2269 142.323,-18.8151 150.959,-24.9521 152.902,-18.2269"/>
</g>
<!-- Node12&#45;&gt;Node17 -->
<g id="edge18" class="edge"><title>Node12&#45;&gt;Node17</title>
<path fill="none" stroke="midnightblue" d="M252.332,-56.4284C209.137,-48.6748 144.848,-36.3288 80.3913,-20.0904"/>
<polygon fill="midnightblue" stroke="midnightblue" points="81.0211,-16.6391 70.4663,-17.559 79.291,-23.4219 81.0211,-16.6391"/>
</g>
<!-- Node18&#45;&gt;Node6 -->
<g id="edge23" class="edge"><title>Node18&#45;&gt;Node6</title>
<path fill="none" stroke="midnightblue" d="M357.354,-168.444C339.006,-159.675 310.254,-145.935 289.166,-135.858"/>
<polygon fill="midnightblue" stroke="midnightblue" points="290.613,-132.67 280.081,-131.516 287.595,-138.986 290.613,-132.67"/>
</g>
<!-- Node19&#45;&gt;Node18 -->
<g id="edge25" class="edge"><title>Node19&#45;&gt;Node18</title>
<path fill="none" stroke="midnightblue" d="M265.859,-224.444C287.253,-215.557 320.941,-201.563 345.284,-191.451"/>
<polygon fill="midnightblue" stroke="midnightblue" points="346.865,-194.585 354.757,-187.516 344.179,-188.12 346.865,-194.585"/>
</g>
<!-- Node20 -->
<g id="node20" class="node"><title>Node20</title>
<polygon fill="white" stroke="#bfbfbf" points="176.76,-168.5 176.76,-187.5 295.76,-187.5 295.76,-168.5 176.76,-168.5"/>
<text text-anchor="middle" x="236.26" y="-175.5" font-family="Helvetica,sans-Serif" font-size="10.00">boost/thread/mutex.hpp</text>
</g>
<!-- Node19&#45;&gt;Node20 -->
<g id="edge26" class="edge"><title>Node19&#45;&gt;Node20</title>
<path fill="none" stroke="midnightblue" d="M243.773,-224.083C242.581,-216.927 240.866,-206.635 239.375,-197.691"/>
<polygon fill="midnightblue" stroke="midnightblue" points="242.815,-197.04 237.718,-187.751 235.91,-198.19 242.815,-197.04"/>
</g>
<!-- Node22&#45;&gt;Node2 -->
<g id="edge29" class="edge"><title>Node22&#45;&gt;Node2</title>
<path fill="none" stroke="midnightblue" d="M155.415,-336.444C186.773,-327.241 236.79,-312.562 271.456,-302.388"/>
<polygon fill="midnightblue" stroke="midnightblue" points="272.631,-305.691 281.241,-299.516 270.66,-298.974 272.631,-305.691"/>
</g>
<!-- Node22&#45;&gt;Node6 -->
<g id="edge30" class="edge"><title>Node22&#45;&gt;Node6</title>
<path fill="none" stroke="midnightblue" d="M127.276,-336.228C131.126,-304.302 145.694,-194.777 167.26,-168 179.816,-152.41 199.053,-141.918 216.94,-135.018"/>
<polygon fill="midnightblue" stroke="midnightblue" points="218.443,-138.198 226.688,-131.544 216.093,-131.604 218.443,-138.198"/>
</g>
<!-- Node22&#45;&gt;Node17 -->
<g id="edge33" class="edge"><title>Node22&#45;&gt;Node17</title>
<path fill="none" stroke="midnightblue" d="M84.0541,-336.475C61.9348,-329.965 36.0309,-318.796 19.2596,-300 -0.778869,-277.543 0.259623,-265.098 0.259623,-235 0.259623,-235 0.259623,-235 0.259623,-121 0.259623,-85.1842 22.4995,-48.214 37.3143,-27.5601"/>
<polygon fill="midnightblue" stroke="midnightblue" points="40.1375,-29.6289 43.3073,-19.5193 34.525,-25.4456 40.1375,-29.6289"/>
</g>
<!-- Node23 -->
<g id="node23" class="node"><title>Node23</title>
<polygon fill="white" stroke="#bfbfbf" points="28.2596,-280.5 28.2596,-299.5 72.2596,-299.5 72.2596,-280.5 28.2596,-280.5"/>
<text text-anchor="middle" x="50.2596" y="-287.5" font-family="Helvetica,sans-Serif" font-size="10.00">vector</text>
</g>
<!-- Node22&#45;&gt;Node23 -->
<g id="edge31" class="edge"><title>Node22&#45;&gt;Node23</title>
<path fill="none" stroke="midnightblue" d="M114.049,-336.324C102.484,-328.107 84.8842,-315.602 71.0989,-305.807"/>
<polygon fill="midnightblue" stroke="midnightblue" points="72.8716,-302.773 62.6925,-299.834 68.8171,-308.479 72.8716,-302.773"/>
</g>
<!-- Node24 -->
<g id="node24" class="node"><title>Node24</title>
<polygon fill="white" stroke="#bfbfbf" points="90.2596,-280.5 90.2596,-299.5 120.26,-299.5 120.26,-280.5 90.2596,-280.5"/>
<text text-anchor="middle" x="105.26" y="-287.5" font-family="Helvetica,sans-Serif" font-size="10.00">set</text>
</g>
<!-- Node22&#45;&gt;Node24 -->
<g id="edge32" class="edge"><title>Node22&#45;&gt;Node24</title>
<path fill="none" stroke="midnightblue" d="M122.792,-336.083C119.948,-328.77 115.83,-318.181 112.3,-309.103"/>
<polygon fill="midnightblue" stroke="midnightblue" points="115.549,-307.803 108.663,-299.751 109.025,-310.34 115.549,-307.803"/>
</g>
</g>
</svg>
