<?xml version="1.0" encoding="UTF-8" standalone="no"?>
<!DOCTYPE svg PUBLIC "-//W3C//DTD SVG 1.1//EN"
 "http://www.w3.org/Graphics/SVG/1.1/DTD/svg11.dtd">
<!-- Generated by graphviz version 2.38.0 (20140413.2041)
 -->
<!-- Title: gjk.h Pages: 1 -->
<svg width="818pt" height="442pt"
 viewBox="0.00 0.00 817.50 442.00" xmlns="http://www.w3.org/2000/svg" xmlns:xlink="http://www.w3.org/1999/xlink">
<g id="graph0" class="graph" transform="scale(1 1) rotate(0) translate(4 438)">
<title>gjk.h</title>
<polygon fill="white" stroke="none" points="-4,4 -4,-438 813.5,-438 813.5,4 -4,4"/>
<!-- Node1 -->
<g id="node1" class="node"><title>Node1</title>
<polygon fill="#bfbfbf" stroke="black" points="453,-414.5 453,-433.5 491,-433.5 491,-414.5 453,-414.5"/>
<text text-anchor="middle" x="472" y="-421.5" font-family="Helvetica,sans-Serif" font-size="10.00">gjk.h</text>
</g>
<!-- Node2 -->
<g id="node2" class="node"><title>Node2</title>
<g id="a_node2"><a xlink:href="a00138.html" target="_top" xlink:title="hpp/fcl/shape/geometric\l_shapes.h">
<polygon fill="white" stroke="black" points="347.5,-347.5 347.5,-377.5 468.5,-377.5 468.5,-347.5 347.5,-347.5"/>
<text text-anchor="start" x="355.5" y="-365.5" font-family="Helvetica,sans-Serif" font-size="10.00">hpp/fcl/shape/geometric</text>
<text text-anchor="middle" x="408" y="-354.5" font-family="Helvetica,sans-Serif" font-size="10.00">_shapes.h</text>
</a>
</g>
</g>
<!-- Node1&#45;&gt;Node2 -->
<g id="edge1" class="edge"><title>Node1&#45;&gt;Node2</title>
<path fill="none" stroke="midnightblue" d="M462.83,-414.475C454.405,-406.643 441.575,-394.714 430.444,-384.366"/>
<polygon fill="midnightblue" stroke="midnightblue" points="432.791,-381.769 423.084,-377.523 428.024,-386.895 432.791,-381.769"/>
</g>
<!-- Node21 -->
<g id="node21" class="node"><title>Node21</title>
<g id="a_node21"><a xlink:href="a00155.html" target="_top" xlink:title="hpp/fcl/math/transform.h">
<polygon fill="white" stroke="black" points="413.5,-224.5 413.5,-243.5 536.5,-243.5 536.5,-224.5 413.5,-224.5"/>
<text text-anchor="middle" x="475" y="-231.5" font-family="Helvetica,sans-Serif" font-size="10.00">hpp/fcl/math/transform.h</text>
</a>
</g>
</g>
<!-- Node1&#45;&gt;Node21 -->
<g id="edge32" class="edge"><title>Node1&#45;&gt;Node21</title>
<path fill="none" stroke="midnightblue" d="M473.166,-414.392C474.341,-405.349 476.106,-390.703 477,-378 480.058,-334.543 480.93,-323.522 479,-280 478.617,-271.372 477.824,-261.841 477.044,-253.78"/>
<polygon fill="midnightblue" stroke="midnightblue" points="480.502,-253.199 475.994,-243.612 473.539,-253.918 480.502,-253.199"/>
</g>
<!-- Node3 -->
<g id="node3" class="node"><title>Node3</title>
<polygon fill="white" stroke="#bfbfbf" points="216.5,-280.5 216.5,-310.5 327.5,-310.5 327.5,-280.5 216.5,-280.5"/>
<text text-anchor="start" x="224.5" y="-298.5" font-family="Helvetica,sans-Serif" font-size="10.00">boost/math/constants</text>
<text text-anchor="middle" x="272" y="-287.5" font-family="Helvetica,sans-Serif" font-size="10.00">/constants.hpp</text>
</g>
<!-- Node2&#45;&gt;Node3 -->
<g id="edge2" class="edge"><title>Node2&#45;&gt;Node3</title>
<path fill="none" stroke="midnightblue" d="M378.49,-347.396C358.619,-337.899 332.209,-325.276 310.662,-314.978"/>
<polygon fill="midnightblue" stroke="midnightblue" points="311.984,-311.731 301.452,-310.577 308.966,-318.047 311.984,-311.731"/>
</g>
<!-- Node4 -->
<g id="node4" class="node"><title>Node4</title>
<g id="a_node4"><a xlink:href="a00128.html" target="_top" xlink:title="hpp/fcl/collision_object.h">
<polygon fill="white" stroke="black" points="346,-286 346,-305 470,-305 470,-286 346,-286"/>
<text text-anchor="middle" x="408" y="-293" font-family="Helvetica,sans-Serif" font-size="10.00">hpp/fcl/collision_object.h</text>
</a>
</g>
</g>
<!-- Node2&#45;&gt;Node4 -->
<g id="edge3" class="edge"><title>Node2&#45;&gt;Node4</title>
<path fill="none" stroke="midnightblue" d="M408,-347.396C408,-338.064 408,-325.714 408,-315.517"/>
<polygon fill="midnightblue" stroke="midnightblue" points="411.5,-315.195 408,-305.195 404.5,-315.195 411.5,-315.195"/>
</g>
<!-- Node8 -->
<g id="node8" class="node"><title>Node8</title>
<g id="a_node8"><a xlink:href="a00164.html" target="_top" xlink:title="hpp/fcl/math/vec_3f.h">
<polygon fill="white" stroke="black" points="349.5,-112.5 349.5,-131.5 460.5,-131.5 460.5,-112.5 349.5,-112.5"/>
<text text-anchor="middle" x="405" y="-119.5" font-family="Helvetica,sans-Serif" font-size="10.00">hpp/fcl/math/vec_3f.h</text>
</a>
</g>
</g>
<!-- Node2&#45;&gt;Node8 -->
<g id="edge30" class="edge"><title>Node2&#45;&gt;Node8</title>
<path fill="none" stroke="midnightblue" d="M432.209,-347.372C484.012,-315.356 597.055,-234.864 548,-168 530.165,-143.691 499.19,-132.168 470.619,-126.836"/>
<polygon fill="midnightblue" stroke="midnightblue" points="471.074,-123.364 460.639,-125.198 469.94,-130.272 471.074,-123.364"/>
</g>
<!-- Node24 -->
<g id="node24" class="node"><title>Node24</title>
<polygon fill="white" stroke="#bfbfbf" points="149.5,-286 149.5,-305 198.5,-305 198.5,-286 149.5,-286"/>
<text text-anchor="middle" x="174" y="-293" font-family="Helvetica,sans-Serif" font-size="10.00">string.h</text>
</g>
<!-- Node2&#45;&gt;Node24 -->
<g id="edge31" class="edge"><title>Node2&#45;&gt;Node24</title>
<path fill="none" stroke="midnightblue" d="M347.424,-349.069C307.126,-340.121 253.292,-326.86 207,-311 205.135,-310.361 203.23,-309.66 201.322,-308.921"/>
<polygon fill="midnightblue" stroke="midnightblue" points="202.516,-305.628 191.938,-305.034 199.837,-312.095 202.516,-305.628"/>
</g>
<!-- Node5 -->
<g id="node5" class="node"><title>Node5</title>
<polygon fill="white" stroke="#bfbfbf" points="15,-0.5 15,-19.5 125,-19.5 125,-0.5 15,-0.5"/>
<text text-anchor="middle" x="70" y="-7.5" font-family="Helvetica,sans-Serif" font-size="10.00">hpp/fcl/deprecated.hh</text>
</g>
<!-- Node4&#45;&gt;Node5 -->
<g id="edge4" class="edge"><title>Node4&#45;&gt;Node5</title>
<path fill="none" stroke="midnightblue" d="M366.689,-285.953C290.598,-269.014 136,-228.508 136,-179 136,-179 136,-179 136,-121 136,-82.8574 106.46,-46.5175 86.9056,-26.6396"/>
<polygon fill="midnightblue" stroke="midnightblue" points="89.3344,-24.1194 79.7385,-19.6282 84.4392,-29.1232 89.3344,-24.1194"/>
</g>
<!-- Node6 -->
<g id="node6" class="node"><title>Node6</title>
<g id="a_node6"><a xlink:href="a00114.html" target="_top" xlink:title="hpp/fcl/BV/AABB.h">
<polygon fill="white" stroke="black" points="246.5,-224.5 246.5,-243.5 347.5,-243.5 347.5,-224.5 246.5,-224.5"/>
<text text-anchor="middle" x="297" y="-231.5" font-family="Helvetica,sans-Serif" font-size="10.00">hpp/fcl/BV/AABB.h</text>
</a>
</g>
</g>
<!-- Node4&#45;&gt;Node6 -->
<g id="edge5" class="edge"><title>Node4&#45;&gt;Node6</title>
<path fill="none" stroke="midnightblue" d="M392.096,-285.975C373.715,-276.122 343.244,-259.788 321.755,-248.27"/>
<polygon fill="midnightblue" stroke="midnightblue" points="323.341,-245.149 312.874,-243.509 320.034,-251.318 323.341,-245.149"/>
</g>
<!-- Node4&#45;&gt;Node21 -->
<g id="edge26" class="edge"><title>Node4&#45;&gt;Node21</title>
<path fill="none" stroke="midnightblue" d="M417.599,-285.975C428.048,-276.697 444.968,-261.671 457.736,-250.331"/>
<polygon fill="midnightblue" stroke="midnightblue" points="460.265,-252.766 465.418,-243.509 455.617,-247.532 460.265,-252.766"/>
</g>
<!-- Node23 -->
<g id="node23" class="node"><title>Node23</title>
<polygon fill="white" stroke="#bfbfbf" points="0,-224.5 0,-243.5 108,-243.5 108,-224.5 0,-224.5"/>
<text text-anchor="middle" x="54" y="-231.5" font-family="Helvetica,sans-Serif" font-size="10.00">boost/shared_ptr.hpp</text>
</g>
<!-- Node4&#45;&gt;Node23 -->
<g id="edge29" class="edge"><title>Node4&#45;&gt;Node23</title>
<path fill="none" stroke="midnightblue" d="M366.934,-285.931C356.834,-283.906 346.039,-281.811 336,-280 261.437,-266.548 175.4,-253.12 118.161,-244.482"/>
<polygon fill="midnightblue" stroke="midnightblue" points="118.581,-241.005 108.171,-242.978 117.539,-247.928 118.581,-241.005"/>
</g>
<!-- Node7 -->
<g id="node7" class="node"><title>Node7</title>
<polygon fill="white" stroke="#bfbfbf" points="164.5,-168.5 164.5,-187.5 223.5,-187.5 223.5,-168.5 164.5,-168.5"/>
<text text-anchor="middle" x="194" y="-175.5" font-family="Helvetica,sans-Serif" font-size="10.00">stdexcept</text>
</g>
<!-- Node6&#45;&gt;Node7 -->
<g id="edge6" class="edge"><title>Node6&#45;&gt;Node7</title>
<path fill="none" stroke="midnightblue" d="M280.451,-224.324C264.008,-215.703 238.565,-202.364 219.532,-192.386"/>
<polygon fill="midnightblue" stroke="midnightblue" points="220.989,-189.198 210.508,-187.655 217.739,-195.398 220.989,-189.198"/>
</g>
<!-- Node6&#45;&gt;Node8 -->
<g id="edge7" class="edge"><title>Node6&#45;&gt;Node8</title>
<path fill="none" stroke="midnightblue" d="M288.501,-224.348C276.675,-211.236 258.086,-185.959 271,-168 286.747,-146.101 313.672,-134.711 339.275,-128.843"/>
<polygon fill="midnightblue" stroke="midnightblue" points="340.272,-132.212 349.372,-126.787 338.875,-125.353 340.272,-132.212"/>
</g>
<!-- Node20 -->
<g id="node20" class="node"><title>Node20</title>
<g id="a_node20"><a xlink:href="a00146.html" target="_top" xlink:title="hpp/fcl/math/matrix_3f.h">
<polygon fill="white" stroke="black" points="280,-168.5 280,-187.5 402,-187.5 402,-168.5 280,-168.5"/>
<text text-anchor="middle" x="341" y="-175.5" font-family="Helvetica,sans-Serif" font-size="10.00">hpp/fcl/math/matrix_3f.h</text>
</a>
</g>
</g>
<!-- Node6&#45;&gt;Node20 -->
<g id="edge24" class="edge"><title>Node6&#45;&gt;Node20</title>
<path fill="none" stroke="midnightblue" d="M304.266,-224.083C310.545,-216.377 319.788,-205.033 327.431,-195.653"/>
<polygon fill="midnightblue" stroke="midnightblue" points="330.266,-197.714 333.869,-187.751 324.839,-193.293 330.266,-197.714"/>
</g>
<!-- Node9 -->
<g id="node9" class="node"><title>Node9</title>
<g id="a_node9"><a xlink:href="a00130.html" target="_top" xlink:title="hpp/fcl/data_types.h">
<polygon fill="white" stroke="black" points="621.5,-56.5 621.5,-75.5 726.5,-75.5 726.5,-56.5 621.5,-56.5"/>
<text text-anchor="middle" x="674" y="-63.5" font-family="Helvetica,sans-Serif" font-size="10.00">hpp/fcl/data_types.h</text>
</a>
</g>
</g>
<!-- Node8&#45;&gt;Node9 -->
<g id="edge8" class="edge"><title>Node8&#45;&gt;Node9</title>
<path fill="none" stroke="midnightblue" d="M447.624,-112.444C494.747,-102.984 570.692,-87.7384 621.459,-77.5472"/>
<polygon fill="midnightblue" stroke="midnightblue" points="622.46,-80.9162 631.576,-75.5164 621.082,-74.0531 622.46,-80.9162"/>
</g>
<!-- Node12 -->
<g id="node12" class="node"><title>Node12</title>
<polygon fill="white" stroke="#bfbfbf" points="744.5,-56.5 744.5,-75.5 809.5,-75.5 809.5,-56.5 744.5,-56.5"/>
<text text-anchor="middle" x="777" y="-63.5" font-family="Helvetica,sans-Serif" font-size="10.00">Eigen/Core</text>
</g>
<!-- Node8&#45;&gt;Node12 -->
<g id="edge11" class="edge"><title>Node8&#45;&gt;Node12</title>
<path fill="none" stroke="midnightblue" d="M460.558,-114.84C524.367,-107.453 632.397,-94 734.224,-76.2037"/>
<polygon fill="midnightblue" stroke="midnightblue" points="735.135,-79.5971 744.374,-74.4115 733.917,-72.7037 735.135,-79.5971"/>
</g>
<!-- Node13 -->
<g id="node13" class="node"><title>Node13</title>
<polygon fill="white" stroke="#bfbfbf" points="143.5,-0.5 143.5,-19.5 230.5,-19.5 230.5,-0.5 143.5,-0.5"/>
<text text-anchor="middle" x="187" y="-7.5" font-family="Helvetica,sans-Serif" font-size="10.00">Eigen/Geometry</text>
</g>
<!-- Node8&#45;&gt;Node13 -->
<g id="edge12" class="edge"><title>Node8&#45;&gt;Node13</title>
<path fill="none" stroke="midnightblue" d="M377.333,-112.459C352.735,-104.42 316.11,-91.3426 286,-76 256.927,-61.1861 225.855,-39.7604 206.435,-25.6129"/>
<polygon fill="midnightblue" stroke="midnightblue" points="208.507,-22.792 198.381,-19.6747 204.353,-28.4262 208.507,-22.792"/>
</g>
<!-- Node14 -->
<g id="node14" class="node"><title>Node14</title>
<g id="a_node14"><a xlink:href="a00154.html" target="_top" xlink:title="hpp/fcl/math/tools.h">
<polygon fill="white" stroke="black" points="313.5,-56.5 313.5,-75.5 416.5,-75.5 416.5,-56.5 313.5,-56.5"/>
<text text-anchor="middle" x="365" y="-63.5" font-family="Helvetica,sans-Serif" font-size="10.00">hpp/fcl/math/tools.h</text>
</a>
</g>
</g>
<!-- Node8&#45;&gt;Node14 -->
<g id="edge13" class="edge"><title>Node8&#45;&gt;Node14</title>
<path fill="none" stroke="midnightblue" d="M398.395,-112.083C392.745,-104.455 384.455,-93.2645 377.549,-83.9408"/>
<polygon fill="midnightblue" stroke="midnightblue" points="380.247,-81.7034 371.482,-75.7511 374.622,-85.87 380.247,-81.7034"/>
</g>
<!-- Node17 -->
<g id="node17" class="node"><title>Node17</title>
<polygon fill="white" stroke="#bfbfbf" points="249,-0.5 249,-19.5 293,-19.5 293,-0.5 249,-0.5"/>
<text text-anchor="middle" x="271" y="-7.5" font-family="Helvetica,sans-Serif" font-size="10.00">cmath</text>
</g>
<!-- Node8&#45;&gt;Node17 -->
<g id="edge21" class="edge"><title>Node8&#45;&gt;Node17</title>
<path fill="none" stroke="midnightblue" d="M371.701,-112.463C350.244,-105.563 322.922,-93.9872 304,-76 290.551,-63.215 281.682,-43.7522 276.559,-29.4552"/>
<polygon fill="midnightblue" stroke="midnightblue" points="279.808,-28.1305 273.358,-19.7253 273.158,-30.3183 279.808,-28.1305"/>
</g>
<!-- Node18 -->
<g id="node18" class="node"><title>Node18</title>
<polygon fill="white" stroke="#bfbfbf" points="509,-0.5 509,-19.5 563,-19.5 563,-0.5 509,-0.5"/>
<text text-anchor="middle" x="536" y="-7.5" font-family="Helvetica,sans-Serif" font-size="10.00">iostream</text>
</g>
<!-- Node8&#45;&gt;Node18 -->
<g id="edge22" class="edge"><title>Node8&#45;&gt;Node18</title>
<path fill="none" stroke="midnightblue" d="M415.279,-112.368C437.472,-93.7334 490.111,-49.5324 517.977,-26.1338"/>
<polygon fill="midnightblue" stroke="midnightblue" points="520.361,-28.7024 525.768,-19.5914 515.859,-23.3416 520.361,-28.7024"/>
</g>
<!-- Node19 -->
<g id="node19" class="node"><title>Node19</title>
<polygon fill="white" stroke="#bfbfbf" points="581,-0.5 581,-19.5 621,-19.5 621,-0.5 581,-0.5"/>
<text text-anchor="middle" x="601" y="-7.5" font-family="Helvetica,sans-Serif" font-size="10.00">limits</text>
</g>
<!-- Node8&#45;&gt;Node19 -->
<g id="edge23" class="edge"><title>Node8&#45;&gt;Node19</title>
<path fill="none" stroke="midnightblue" d="M420.38,-112.368C454.371,-93.2916 536.102,-47.4223 576.936,-24.5054"/>
<polygon fill="midnightblue" stroke="midnightblue" points="578.684,-27.5378 585.692,-19.5914 575.258,-21.4334 578.684,-27.5378"/>
</g>
<!-- Node10 -->
<g id="node10" class="node"><title>Node10</title>
<polygon fill="white" stroke="#bfbfbf" points="749.5,-0.5 749.5,-19.5 798.5,-19.5 798.5,-0.5 749.5,-0.5"/>
<text text-anchor="middle" x="774" y="-7.5" font-family="Helvetica,sans-Serif" font-size="10.00">cstddef</text>
</g>
<!-- Node9&#45;&gt;Node10 -->
<g id="edge9" class="edge"><title>Node9&#45;&gt;Node10</title>
<path fill="none" stroke="midnightblue" d="M690.067,-56.324C705.958,-47.7428 730.507,-34.486 748.958,-24.5224"/>
<polygon fill="midnightblue" stroke="midnightblue" points="750.837,-27.4857 757.973,-19.6545 747.511,-21.3264 750.837,-27.4857"/>
</g>
<!-- Node11 -->
<g id="node11" class="node"><title>Node11</title>
<polygon fill="white" stroke="#bfbfbf" points="639,-0.5 639,-19.5 731,-19.5 731,-0.5 639,-0.5"/>
<text text-anchor="middle" x="685" y="-7.5" font-family="Helvetica,sans-Serif" font-size="10.00">boost/cstdint.hpp</text>
</g>
<!-- Node9&#45;&gt;Node11 -->
<g id="edge10" class="edge"><title>Node9&#45;&gt;Node11</title>
<path fill="none" stroke="midnightblue" d="M675.816,-56.083C677.274,-48.9272 679.371,-38.6353 681.193,-29.6911"/>
<polygon fill="midnightblue" stroke="midnightblue" points="684.651,-30.2485 683.217,-19.7511 677.792,-28.8512 684.651,-30.2485"/>
</g>
<!-- Node14&#45;&gt;Node5 -->
<g id="edge14" class="edge"><title>Node14&#45;&gt;Node5</title>
<path fill="none" stroke="midnightblue" d="M318.256,-56.4435C266.255,-46.9246 182.249,-31.5472 126.576,-21.3563"/>
<polygon fill="midnightblue" stroke="midnightblue" points="126.992,-17.8743 116.525,-19.5164 125.731,-24.7599 126.992,-17.8743"/>
</g>
<!-- Node14&#45;&gt;Node13 -->
<g id="edge17" class="edge"><title>Node14&#45;&gt;Node13</title>
<path fill="none" stroke="midnightblue" d="M336.795,-56.4435C306.59,-47.2801 258.489,-32.6876 224.971,-22.5192"/>
<polygon fill="midnightblue" stroke="midnightblue" points="225.658,-19.0703 215.073,-19.5164 223.626,-25.7688 225.658,-19.0703"/>
</g>
<!-- Node15 -->
<g id="node15" class="node"><title>Node15</title>
<polygon fill="white" stroke="#bfbfbf" points="310.5,-0.5 310.5,-19.5 399.5,-19.5 399.5,-0.5 310.5,-0.5"/>
<text text-anchor="middle" x="355" y="-7.5" font-family="Helvetica,sans-Serif" font-size="10.00">hpp/fcl/config.hh</text>
</g>
<!-- Node14&#45;&gt;Node15 -->
<g id="edge15" class="edge"><title>Node14&#45;&gt;Node15</title>
<path fill="none" stroke="midnightblue" d="M363.349,-56.083C362.024,-48.9272 360.118,-38.6353 358.461,-29.6911"/>
<polygon fill="midnightblue" stroke="midnightblue" points="361.883,-28.9466 356.621,-19.7511 355,-30.2212 361.883,-28.9466"/>
</g>
<!-- Node16 -->
<g id="node16" class="node"><title>Node16</title>
<polygon fill="white" stroke="#bfbfbf" points="417.5,-0.5 417.5,-19.5 490.5,-19.5 490.5,-0.5 417.5,-0.5"/>
<text text-anchor="middle" x="454" y="-7.5" font-family="Helvetica,sans-Serif" font-size="10.00">Eigen/Dense</text>
</g>
<!-- Node14&#45;&gt;Node16 -->
<g id="edge16" class="edge"><title>Node14&#45;&gt;Node16</title>
<path fill="none" stroke="midnightblue" d="M379.299,-56.324C393.183,-47.9002 414.492,-34.9709 430.804,-25.0741"/>
<polygon fill="midnightblue" stroke="midnightblue" points="433.002,-27.8341 439.736,-19.6545 429.371,-21.8495 433.002,-27.8341"/>
</g>
<!-- Node14&#45;&gt;Node17 -->
<g id="edge18" class="edge"><title>Node14&#45;&gt;Node17</title>
<path fill="none" stroke="midnightblue" d="M349.897,-56.324C335.097,-47.8215 312.306,-34.7288 295.018,-24.7975"/>
<polygon fill="midnightblue" stroke="midnightblue" points="296.48,-21.6009 286.065,-19.6545 292.993,-27.6707 296.48,-21.6009"/>
</g>
<!-- Node14&#45;&gt;Node18 -->
<g id="edge19" class="edge"><title>Node14&#45;&gt;Node18</title>
<path fill="none" stroke="midnightblue" d="M392.095,-56.4435C420.988,-47.3196 466.925,-32.8133 499.105,-22.6509"/>
<polygon fill="midnightblue" stroke="midnightblue" points="500.549,-25.8654 509.031,-19.5164 498.441,-19.1903 500.549,-25.8654"/>
</g>
<!-- Node14&#45;&gt;Node19 -->
<g id="edge20" class="edge"><title>Node14&#45;&gt;Node19</title>
<path fill="none" stroke="midnightblue" d="M409.684,-56.453C449.651,-48.5472 510.004,-35.9692 570.992,-20.0956"/>
<polygon fill="midnightblue" stroke="midnightblue" points="572.003,-23.449 580.783,-17.5199 570.222,-16.6793 572.003,-23.449"/>
</g>
<!-- Node20&#45;&gt;Node8 -->
<g id="edge25" class="edge"><title>Node20&#45;&gt;Node8</title>
<path fill="none" stroke="midnightblue" d="M351.283,-168.324C360.836,-160.263 375.28,-148.077 386.784,-138.369"/>
<polygon fill="midnightblue" stroke="midnightblue" points="389.144,-140.958 394.53,-131.834 384.63,-135.608 389.144,-140.958"/>
</g>
<!-- Node21&#45;&gt;Node20 -->
<g id="edge27" class="edge"><title>Node21&#45;&gt;Node20</title>
<path fill="none" stroke="midnightblue" d="M453.767,-224.444C431.616,-215.517 396.681,-201.439 371.564,-191.317"/>
<polygon fill="midnightblue" stroke="midnightblue" points="372.717,-188.008 362.133,-187.516 370.1,-194.501 372.717,-188.008"/>
</g>
<!-- Node22 -->
<g id="node22" class="node"><title>Node22</title>
<polygon fill="white" stroke="#bfbfbf" points="420.5,-168.5 420.5,-187.5 539.5,-187.5 539.5,-168.5 420.5,-168.5"/>
<text text-anchor="middle" x="480" y="-175.5" font-family="Helvetica,sans-Serif" font-size="10.00">boost/thread/mutex.hpp</text>
</g>
<!-- Node21&#45;&gt;Node22 -->
<g id="edge28" class="edge"><title>Node21&#45;&gt;Node22</title>
<path fill="none" stroke="midnightblue" d="M475.826,-224.083C476.481,-217.006 477.42,-206.861 478.242,-197.986"/>
<polygon fill="midnightblue" stroke="midnightblue" points="481.753,-198.031 479.19,-187.751 474.783,-197.386 481.753,-198.031"/>
</g>
</g>
</svg>
