<?xml version="1.0" encoding="UTF-8" standalone="no"?>
<!DOCTYPE svg PUBLIC "-//W3C//DTD SVG 1.1//EN"
 "http://www.w3.org/Graphics/SVG/1.1/DTD/svg11.dtd">
<!-- Generated by graphviz version 2.38.0 (20140413.2041)
 -->
<!-- Title: hpp::fcl::MeshShapeCollisionTraversalNodeOBBRSS&lt; S, NarrowPhaseSolver &gt; Pages: 1 -->
<svg width="1198pt" height="340pt"
 viewBox="0.00 0.00 1198.00 340.00" xmlns="http://www.w3.org/2000/svg" xmlns:xlink="http://www.w3.org/1999/xlink">
<g id="graph0" class="graph" transform="scale(1 1) rotate(0) translate(4 336)">
<title>hpp::fcl::MeshShapeCollisionTraversalNodeOBBRSS&lt; S, NarrowPhaseSolver &gt;</title>
<polygon fill="white" stroke="none" points="-4,4 -4,-336 1194,-336 1194,4 -4,4"/>
<!-- Node1 -->
<g id="node1" class="node"><title>Node1</title>
<polygon fill="#bfbfbf" stroke="black" points="1046,-27.5 1046,-68.5 1190,-68.5 1190,-27.5 1046,-27.5"/>
<text text-anchor="start" x="1054" y="-56.5" font-family="Helvetica,sans-Serif" font-size="10.00">hpp::fcl::MeshShapeCollision</text>
<text text-anchor="start" x="1054" y="-45.5" font-family="Helvetica,sans-Serif" font-size="10.00">TraversalNodeOBBRSS&lt; S,</text>
<text text-anchor="middle" x="1118" y="-34.5" font-family="Helvetica,sans-Serif" font-size="10.00"> NarrowPhaseSolver &gt;</text>
</g>
<!-- Node2 -->
<g id="node2" class="node"><title>Node2</title>
<g id="a_node2"><a xlink:href="a00058.html" target="_top" xlink:title="hpp::fcl::MeshShapeCollision\lTraversalNode\&lt; OBBRSS, S,\l NarrowPhaseSolver, 0 \&gt;">
<polygon fill="white" stroke="black" points="862,-27.5 862,-68.5 1009,-68.5 1009,-27.5 862,-27.5"/>
<text text-anchor="start" x="870" y="-56.5" font-family="Helvetica,sans-Serif" font-size="10.00">hpp::fcl::MeshShapeCollision</text>
<text text-anchor="start" x="870" y="-45.5" font-family="Helvetica,sans-Serif" font-size="10.00">TraversalNode&lt; OBBRSS, S,</text>
<text text-anchor="middle" x="935.5" y="-34.5" font-family="Helvetica,sans-Serif" font-size="10.00"> NarrowPhaseSolver, 0 &gt;</text>
</a>
</g>
</g>
<!-- Node2&#45;&gt;Node1 -->
<g id="edge1" class="edge"><title>Node2&#45;&gt;Node1</title>
<path fill="none" stroke="midnightblue" d="M1019.18,-48C1028.13,-48 1037.18,-48 1045.98,-48"/>
<polygon fill="midnightblue" stroke="midnightblue" points="1019.14,-44.5001 1009.14,-48 1019.14,-51.5001 1019.14,-44.5001"/>
</g>
<!-- Node3 -->
<g id="node3" class="node"><title>Node3</title>
<g id="a_node3"><a xlink:href="a00016.html" target="_top" xlink:title="hpp::fcl::BVHShapeCollision\lTraversalNode\&lt; OBBRSS, S \&gt;">
<polygon fill="white" stroke="black" points="638,-116 638,-146 791,-146 791,-116 638,-116"/>
<text text-anchor="start" x="646" y="-134" font-family="Helvetica,sans-Serif" font-size="10.00">hpp::fcl::BVHShapeCollision</text>
<text text-anchor="middle" x="714.5" y="-123" font-family="Helvetica,sans-Serif" font-size="10.00">TraversalNode&lt; OBBRSS, S &gt;</text>
</a>
</g>
</g>
<!-- Node3&#45;&gt;Node2 -->
<g id="edge2" class="edge"><title>Node3&#45;&gt;Node2</title>
<path fill="none" stroke="midnightblue" d="M764.528,-112.419C798.899,-99.3923 844.85,-81.9771 880.308,-68.5385"/>
<polygon fill="midnightblue" stroke="midnightblue" points="763.27,-109.152 755.159,-115.969 765.751,-115.698 763.27,-109.152"/>
</g>
<!-- Node4 -->
<g id="node4" class="node"><title>Node4</title>
<g id="a_node4"><a xlink:href="a00029.html" target="_top" xlink:title="Node structure encoding the information required for collision traversal. ">
<polygon fill="white" stroke="black" points="418,-174 418,-204 551,-204 551,-174 418,-174"/>
<text text-anchor="start" x="426" y="-192" font-family="Helvetica,sans-Serif" font-size="10.00">hpp::fcl::CollisionTraversal</text>
<text text-anchor="middle" x="484.5" y="-181" font-family="Helvetica,sans-Serif" font-size="10.00">NodeBase</text>
</a>
</g>
</g>
<!-- Node4&#45;&gt;Node3 -->
<g id="edge3" class="edge"><title>Node4&#45;&gt;Node3</title>
<path fill="none" stroke="midnightblue" d="M554.222,-171.518C586.137,-163.399 623.706,-153.842 654.339,-146.05"/>
<polygon fill="midnightblue" stroke="midnightblue" points="553.341,-168.131 544.512,-173.988 555.066,-174.915 553.341,-168.131"/>
</g>
<!-- Node5 -->
<g id="node5" class="node"><title>Node5</title>
<g id="a_node5"><a xlink:href="a00108.html" target="_top" xlink:title="Node structure encoding the information required for traversal. ">
<polygon fill="white" stroke="black" points="193,-198.5 193,-217.5 334,-217.5 334,-198.5 193,-198.5"/>
<text text-anchor="middle" x="263.5" y="-205.5" font-family="Helvetica,sans-Serif" font-size="10.00">hpp::fcl::TraversalNodeBase</text>
</a>
</g>
</g>
<!-- Node5&#45;&gt;Node4 -->
<g id="edge4" class="edge"><title>Node5&#45;&gt;Node4</title>
<path fill="none" stroke="midnightblue" d="M344.303,-201.076C368.458,-198.981 394.698,-196.704 417.817,-194.699"/>
<polygon fill="midnightblue" stroke="midnightblue" points="343.754,-197.611 334.094,-201.962 344.359,-204.585 343.754,-197.611"/>
</g>
<!-- Node6 -->
<g id="node6" class="node"><title>Node6</title>
<g id="a_node6"><a xlink:href="a00107.html" target="_top" xlink:title="Simple transform class used locally by InterpMotion. ">
<polygon fill="white" stroke="black" points="0,-198.5 0,-217.5 107,-217.5 107,-198.5 0,-198.5"/>
<text text-anchor="middle" x="53.5" y="-205.5" font-family="Helvetica,sans-Serif" font-size="10.00">hpp::fcl::Transform3f</text>
</a>
</g>
</g>
<!-- Node6&#45;&gt;Node5 -->
<g id="edge5" class="edge"><title>Node6&#45;&gt;Node5</title>
<path fill="none" stroke="#9a32cd" stroke-dasharray="5,2" d="M117.573,-208C141.361,-208 168.549,-208 192.9,-208"/>
<polygon fill="#9a32cd" stroke="#9a32cd" points="117.256,-204.5 107.256,-208 117.256,-211.5 117.256,-204.5"/>
<text text-anchor="middle" x="150" y="-222" font-family="Helvetica,sans-Serif" font-size="10.00"> tf1</text>
<text text-anchor="middle" x="150" y="-211" font-family="Helvetica,sans-Serif" font-size="10.00">tf2</text>
</g>
<!-- Node7 -->
<g id="node7" class="node"><title>Node7</title>
<g id="a_node7"><a xlink:href="a00027.html" target="_top" xlink:title="request to the collision algorithm ">
<polygon fill="white" stroke="black" points="199,-160.5 199,-179.5 328,-179.5 328,-160.5 199,-160.5"/>
<text text-anchor="middle" x="263.5" y="-167.5" font-family="Helvetica,sans-Serif" font-size="10.00">hpp::fcl::CollisionRequest</text>
</a>
</g>
</g>
<!-- Node7&#45;&gt;Node4 -->
<g id="edge6" class="edge"><title>Node7&#45;&gt;Node4</title>
<path fill="none" stroke="#9a32cd" stroke-dasharray="5,2" d="M338.227,-176.396C363.994,-178.632 392.731,-181.125 417.8,-183.3"/>
<polygon fill="#9a32cd" stroke="#9a32cd" points="338.403,-172.899 328.138,-175.521 337.798,-179.872 338.403,-172.899"/>
<text text-anchor="middle" x="376" y="-185" font-family="Helvetica,sans-Serif" font-size="10.00"> request</text>
</g>
<!-- Node8 -->
<g id="node8" class="node"><title>Node8</title>
<g id="a_node8"><a xlink:href="a00028.html" target="_top" xlink:title="collision result ">
<polygon fill="white" stroke="black" points="203,-236.5 203,-255.5 324,-255.5 324,-236.5 203,-236.5"/>
<text text-anchor="middle" x="263.5" y="-243.5" font-family="Helvetica,sans-Serif" font-size="10.00">hpp::fcl::CollisionResult</text>
</a>
</g>
</g>
<!-- Node8&#45;&gt;Node4 -->
<g id="edge7" class="edge"><title>Node8&#45;&gt;Node4</title>
<path fill="none" stroke="#9a32cd" stroke-dasharray="5,2" d="M315.342,-234.139C340.82,-228.063 372.11,-220.401 400,-213 410.497,-210.215 421.694,-207.097 432.368,-204.056"/>
<polygon fill="#9a32cd" stroke="#9a32cd" points="314.445,-230.755 305.524,-236.471 316.062,-237.566 314.445,-230.755"/>
<text text-anchor="middle" x="376" y="-228" font-family="Helvetica,sans-Serif" font-size="10.00"> result</text>
</g>
<!-- Node9 -->
<g id="node9" class="node"><title>Node9</title>
<g id="a_node9"><a xlink:href="a00015.html" target="_top" xlink:title="hpp::fcl::BVHModel\l\&lt; OBBRSS \&gt;">
<polygon fill="white" stroke="black" points="433.5,-116 433.5,-146 535.5,-146 535.5,-116 433.5,-116"/>
<text text-anchor="start" x="441.5" y="-134" font-family="Helvetica,sans-Serif" font-size="10.00">hpp::fcl::BVHModel</text>
<text text-anchor="middle" x="484.5" y="-123" font-family="Helvetica,sans-Serif" font-size="10.00">&lt; OBBRSS &gt;</text>
</a>
</g>
</g>
<!-- Node9&#45;&gt;Node3 -->
<g id="edge8" class="edge"><title>Node9&#45;&gt;Node3</title>
<path fill="none" stroke="#9a32cd" stroke-dasharray="5,2" d="M545.636,-131C573.798,-131 607.656,-131 637.564,-131"/>
<polygon fill="#9a32cd" stroke="#9a32cd" points="545.536,-127.5 535.536,-131 545.536,-134.5 545.536,-127.5"/>
<text text-anchor="middle" x="594.5" y="-134" font-family="Helvetica,sans-Serif" font-size="10.00"> model1</text>
</g>
<!-- Node10 -->
<g id="node10" class="node"><title>Node10</title>
<g id="a_node10"><a xlink:href="a00025.html" target="_top" xlink:title="The geometry for the object for collision or distance computation. ">
<polygon fill="white" stroke="black" points="196,-122.5 196,-141.5 331,-141.5 331,-122.5 196,-122.5"/>
<text text-anchor="middle" x="263.5" y="-129.5" font-family="Helvetica,sans-Serif" font-size="10.00">hpp::fcl::CollisionGeometry</text>
</a>
</g>
</g>
<!-- Node10&#45;&gt;Node9 -->
<g id="edge9" class="edge"><title>Node10&#45;&gt;Node9</title>
<path fill="none" stroke="midnightblue" d="M341.28,-131.649C371.769,-131.51 405.983,-131.354 433.212,-131.23"/>
<polygon fill="midnightblue" stroke="midnightblue" points="341.083,-128.15 331.099,-131.696 341.115,-135.15 341.083,-128.15"/>
</g>
<!-- Node11 -->
<g id="node11" class="node"><title>Node11</title>
<g id="a_node11"><a xlink:href="a00004.html" target="_top" xlink:title="A class describing the AABB collision structure, which is a box in 3D space determined by two diagona...">
<polygon fill="white" stroke="black" points="12.5,-122.5 12.5,-141.5 94.5,-141.5 94.5,-122.5 12.5,-122.5"/>
<text text-anchor="middle" x="53.5" y="-129.5" font-family="Helvetica,sans-Serif" font-size="10.00">hpp::fcl::AABB</text>
</a>
</g>
</g>
<!-- Node11&#45;&gt;Node10 -->
<g id="edge10" class="edge"><title>Node11&#45;&gt;Node10</title>
<path fill="none" stroke="#9a32cd" stroke-dasharray="5,2" d="M104.737,-132C132.113,-132 166.345,-132 195.919,-132"/>
<polygon fill="#9a32cd" stroke="#9a32cd" points="104.605,-128.5 94.6045,-132 104.604,-135.5 104.605,-128.5"/>
<text text-anchor="middle" x="150" y="-135" font-family="Helvetica,sans-Serif" font-size="10.00"> aabb_local</text>
</g>
<!-- Node12 -->
<g id="node12" class="node"><title>Node12</title>
<polygon fill="white" stroke="#bfbfbf" points="228,-84.5 228,-103.5 299,-103.5 299,-84.5 228,-84.5"/>
<text text-anchor="middle" x="263.5" y="-91.5" font-family="Helvetica,sans-Serif" font-size="10.00">noncopyable</text>
</g>
<!-- Node12&#45;&gt;Node9 -->
<g id="edge11" class="edge"><title>Node12&#45;&gt;Node9</title>
<path fill="none" stroke="#8b1a1a" d="M309.432,-101.591C345.507,-107.686 396.127,-116.238 433.484,-122.55"/>
<polygon fill="#8b1a1a" stroke="#8b1a1a" points="309.645,-98.0776 299.201,-99.8628 308.478,-104.98 309.645,-98.0776"/>
</g>
<!-- Node13 -->
<g id="node13" class="node"><title>Node13</title>
<g id="a_node13"><a xlink:href="a00109.html" target="_top" xlink:title="Triangle with 3 indices for points. ">
<polygon fill="white" stroke="black" points="219,-42.5 219,-61.5 308,-61.5 308,-42.5 219,-42.5"/>
<text text-anchor="middle" x="263.5" y="-49.5" font-family="Helvetica,sans-Serif" font-size="10.00">hpp::fcl::Triangle</text>
</a>
</g>
</g>
<!-- Node13&#45;&gt;Node2 -->
<g id="edge18" class="edge"><title>Node13&#45;&gt;Node2</title>
<path fill="none" stroke="#9a32cd" stroke-dasharray="5,2" d="M318.226,-51.6792C437.886,-50.9649 726.427,-49.2422 861.925,-48.4333"/>
<polygon fill="#9a32cd" stroke="#9a32cd" points="318.181,-48.1794 308.202,-51.7391 318.223,-55.1792 318.181,-48.1794"/>
<text text-anchor="middle" x="594.5" y="-54" font-family="Helvetica,sans-Serif" font-size="10.00"> tri_indices</text>
</g>
<!-- Node13&#45;&gt;Node9 -->
<g id="edge12" class="edge"><title>Node13&#45;&gt;Node9</title>
<path fill="none" stroke="#9a32cd" stroke-dasharray="5,2" d="M312.845,-64.2731C339.187,-71.7159 372.025,-82.2403 400,-95 408.53,-98.8907 409.585,-101.866 418,-106 425.21,-109.542 433.057,-112.919 440.731,-115.981"/>
<polygon fill="#9a32cd" stroke="#9a32cd" points="313.662,-60.8677 303.091,-61.5732 311.795,-67.6141 313.662,-60.8677"/>
<text text-anchor="middle" x="376" y="-98" font-family="Helvetica,sans-Serif" font-size="10.00"> tri_indices</text>
</g>
<!-- Node14 -->
<g id="node14" class="node"><title>Node14</title>
<g id="a_node14"><a xlink:href="a00069.html" target="_top" xlink:title="Class merging the OBB and RSS, can handle collision and distance simultaneously. ">
<polygon fill="white" stroke="black" points="436,-274.5 436,-293.5 533,-293.5 533,-274.5 436,-274.5"/>
<text text-anchor="middle" x="484.5" y="-281.5" font-family="Helvetica,sans-Serif" font-size="10.00">hpp::fcl::OBBRSS</text>
</a>
</g>
</g>
<!-- Node14&#45;&gt;Node3 -->
<g id="edge13" class="edge"><title>Node14&#45;&gt;Node3</title>
<path fill="none" stroke="#9a32cd" stroke-dasharray="5,2" d="M508.27,-268.72C551.973,-239.393 647.143,-175.529 690.795,-146.236"/>
<polygon fill="#9a32cd" stroke="#9a32cd" points="506.116,-265.951 499.762,-274.429 510.016,-271.763 506.116,-265.951"/>
<text text-anchor="middle" x="594.5" y="-229" font-family="Helvetica,sans-Serif" font-size="10.00"> model2_bv</text>
</g>
<!-- Node15 -->
<g id="node15" class="node"><title>Node15</title>
<g id="a_node15"><a xlink:href="a00085.html" target="_top" xlink:title="A class for rectangle sphere&#45;swept bounding volume. ">
<polygon fill="white" stroke="black" points="225.5,-274.5 225.5,-293.5 301.5,-293.5 301.5,-274.5 225.5,-274.5"/>
<text text-anchor="middle" x="263.5" y="-281.5" font-family="Helvetica,sans-Serif" font-size="10.00">hpp::fcl::RSS</text>
</a>
</g>
</g>
<!-- Node15&#45;&gt;Node14 -->
<g id="edge14" class="edge"><title>Node15&#45;&gt;Node14</title>
<path fill="none" stroke="#9a32cd" stroke-dasharray="5,2" d="M312.073,-284C348.717,-284 399.146,-284 435.818,-284"/>
<polygon fill="#9a32cd" stroke="#9a32cd" points="311.65,-280.5 301.65,-284 311.65,-287.5 311.65,-280.5"/>
<text text-anchor="middle" x="376" y="-287" font-family="Helvetica,sans-Serif" font-size="10.00"> rss</text>
</g>
<!-- Node16 -->
<g id="node16" class="node"><title>Node16</title>
<g id="a_node16"><a xlink:href="a00068.html" target="_top" xlink:title="Oriented bounding box class. ">
<polygon fill="white" stroke="black" points="225.5,-312.5 225.5,-331.5 301.5,-331.5 301.5,-312.5 225.5,-312.5"/>
<text text-anchor="middle" x="263.5" y="-319.5" font-family="Helvetica,sans-Serif" font-size="10.00">hpp::fcl::OBB</text>
</a>
</g>
</g>
<!-- Node16&#45;&gt;Node14 -->
<g id="edge15" class="edge"><title>Node16&#45;&gt;Node14</title>
<path fill="none" stroke="#9a32cd" stroke-dasharray="5,2" d="M311.602,-314.119C337.668,-309.729 370.638,-304.129 400,-299 411.607,-296.972 424.114,-294.747 435.825,-292.646"/>
<polygon fill="#9a32cd" stroke="#9a32cd" points="310.892,-310.689 301.611,-315.799 312.053,-317.592 310.892,-310.689"/>
<text text-anchor="middle" x="376" y="-309" font-family="Helvetica,sans-Serif" font-size="10.00"> obb</text>
</g>
<!-- Node17 -->
<g id="node17" class="node"><title>Node17</title>
<polygon fill="white" stroke="#bfbfbf" points="470,-77.5 470,-96.5 499,-96.5 499,-77.5 470,-77.5"/>
<text text-anchor="middle" x="484.5" y="-84.5" font-family="Helvetica,sans-Serif" font-size="10.00">S</text>
</g>
<!-- Node17&#45;&gt;Node3 -->
<g id="edge16" class="edge"><title>Node17&#45;&gt;Node3</title>
<path fill="none" stroke="#9a32cd" stroke-dasharray="5,2" d="M509.075,-91.5496C539.265,-97.3757 593.037,-107.753 637.856,-116.402"/>
<polygon fill="#9a32cd" stroke="#9a32cd" points="509.562,-88.079 499.08,-89.6206 508.235,-94.9522 509.562,-88.079"/>
<text text-anchor="middle" x="594.5" y="-116" font-family="Helvetica,sans-Serif" font-size="10.00"> model2</text>
</g>
<!-- Node18 -->
<g id="node18" class="node"><title>Node18</title>
<polygon fill="white" stroke="#bfbfbf" points="662.5,-0.5 662.5,-19.5 766.5,-19.5 766.5,-0.5 662.5,-0.5"/>
<text text-anchor="middle" x="714.5" y="-7.5" font-family="Helvetica,sans-Serif" font-size="10.00">NarrowPhaseSolver</text>
</g>
<!-- Node18&#45;&gt;Node2 -->
<g id="edge17" class="edge"><title>Node18&#45;&gt;Node2</title>
<path fill="none" stroke="#9a32cd" stroke-dasharray="5,2" d="M776.983,-14.0957C798.314,-16.0776 822.313,-18.9377 844,-23 850.729,-24.2605 857.686,-25.7803 864.615,-27.4404"/>
<polygon fill="#9a32cd" stroke="#9a32cd" points="777.017,-10.5852 766.748,-13.192 776.401,-17.5581 777.017,-10.5852"/>
<text text-anchor="middle" x="826.5" y="-26" font-family="Helvetica,sans-Serif" font-size="10.00"> nsolver</text>
</g>
</g>
</svg>
