<?xml version="1.0" encoding="UTF-8" standalone="no"?>
<!DOCTYPE svg PUBLIC "-//W3C//DTD SVG 1.1//EN"
 "http://www.w3.org/Graphics/SVG/1.1/DTD/svg11.dtd">
<!-- Generated by graphviz version 2.38.0 (20140413.2041)
 -->
<!-- Title: hpp::fcl::MeshDistanceTraversalNodeRSS Pages: 1 -->
<svg width="1355pt" height="240pt"
 viewBox="0.00 0.00 1355.00 240.00" xmlns="http://www.w3.org/2000/svg" xmlns:xlink="http://www.w3.org/1999/xlink">
<g id="graph0" class="graph" transform="scale(1 1) rotate(0) translate(4 236)">
<title>hpp::fcl::MeshDistanceTraversalNodeRSS</title>
<polygon fill="white" stroke="none" points="-4,4 -4,-236 1351,-236 1351,4 -4,4"/>
<!-- Node1 -->
<g id="node1" class="node"><title>Node1</title>
<polygon fill="#bfbfbf" stroke="black" points="1189,-12 1189,-42 1347,-42 1347,-12 1189,-12"/>
<text text-anchor="start" x="1197" y="-30" font-family="Helvetica,sans-Serif" font-size="10.00">hpp::fcl::MeshDistanceTraversal</text>
<text text-anchor="middle" x="1268" y="-19" font-family="Helvetica,sans-Serif" font-size="10.00">NodeRSS</text>
</g>
<!-- Node2 -->
<g id="node2" class="node"><title>Node2</title>
<g id="a_node2"><a xlink:href="a00051.html" target="_top" xlink:title="hpp::fcl::MeshDistanceTraversal\lNode\&lt; RSS \&gt;">
<polygon fill="white" stroke="black" points="994,-12 994,-42 1152,-42 1152,-12 994,-12"/>
<text text-anchor="start" x="1002" y="-30" font-family="Helvetica,sans-Serif" font-size="10.00">hpp::fcl::MeshDistanceTraversal</text>
<text text-anchor="middle" x="1073" y="-19" font-family="Helvetica,sans-Serif" font-size="10.00">Node&lt; RSS &gt;</text>
</a>
</g>
</g>
<!-- Node2&#45;&gt;Node1 -->
<g id="edge1" class="edge"><title>Node2&#45;&gt;Node1</title>
<path fill="none" stroke="midnightblue" d="M1162.24,-27C1171.16,-27 1180.18,-27 1188.98,-27"/>
<polygon fill="midnightblue" stroke="midnightblue" points="1162.22,-23.5001 1152.22,-27 1162.22,-30.5001 1162.22,-23.5001"/>
</g>
<!-- Node3 -->
<g id="node3" class="node"><title>Node3</title>
<g id="a_node3"><a xlink:href="a00013.html" target="_top" xlink:title="hpp::fcl::BVHDistanceTraversal\lNode\&lt; RSS \&gt;">
<polygon fill="white" stroke="black" points="802,-50 802,-80 957,-80 957,-50 802,-50"/>
<text text-anchor="start" x="810" y="-68" font-family="Helvetica,sans-Serif" font-size="10.00">hpp::fcl::BVHDistanceTraversal</text>
<text text-anchor="middle" x="879.5" y="-57" font-family="Helvetica,sans-Serif" font-size="10.00">Node&lt; RSS &gt;</text>
</a>
</g>
</g>
<!-- Node3&#45;&gt;Node2 -->
<g id="edge2" class="edge"><title>Node3&#45;&gt;Node2</title>
<path fill="none" stroke="midnightblue" d="M966.148,-48.0045C976.177,-46.0144 986.356,-43.9947 996.237,-42.034"/>
<polygon fill="midnightblue" stroke="midnightblue" points="965.313,-44.6019 956.186,-49.9814 966.676,-51.468 965.313,-44.6019"/>
</g>
<!-- Node4 -->
<g id="node4" class="node"><title>Node4</title>
<g id="a_node4"><a xlink:href="a00040.html" target="_top" xlink:title="Node structure encoding the information required for distance traversal. ">
<polygon fill="white" stroke="black" points="579,-139 579,-169 713,-169 713,-139 579,-139"/>
<text text-anchor="start" x="587" y="-157" font-family="Helvetica,sans-Serif" font-size="10.00">hpp::fcl::DistanceTraversal</text>
<text text-anchor="middle" x="646" y="-146" font-family="Helvetica,sans-Serif" font-size="10.00">NodeBase</text>
</a>
</g>
</g>
<!-- Node4&#45;&gt;Node3 -->
<g id="edge3" class="edge"><title>Node4&#45;&gt;Node3</title>
<path fill="none" stroke="midnightblue" d="M695.633,-135.303C738.384,-118.868 799.798,-95.257 839.424,-80.0229"/>
<polygon fill="midnightblue" stroke="midnightblue" points="694.349,-132.047 686.271,-138.902 696.861,-138.581 694.349,-132.047"/>
</g>
<!-- Node5 -->
<g id="node5" class="node"><title>Node5</title>
<g id="a_node5"><a xlink:href="a00108.html" target="_top" xlink:title="Node structure encoding the information required for traversal. ">
<polygon fill="white" stroke="black" points="354,-200.5 354,-219.5 495,-219.5 495,-200.5 354,-200.5"/>
<text text-anchor="middle" x="424.5" y="-207.5" font-family="Helvetica,sans-Serif" font-size="10.00">hpp::fcl::TraversalNodeBase</text>
</a>
</g>
</g>
<!-- Node5&#45;&gt;Node4 -->
<g id="edge4" class="edge"><title>Node5&#45;&gt;Node4</title>
<path fill="none" stroke="midnightblue" d="M483.154,-198.33C507.313,-193.157 535.628,-186.723 561,-180 573.248,-176.754 586.384,-172.88 598.544,-169.127"/>
<polygon fill="midnightblue" stroke="midnightblue" points="482.132,-194.969 473.075,-200.467 483.584,-201.817 482.132,-194.969"/>
</g>
<!-- Node6 -->
<g id="node6" class="node"><title>Node6</title>
<g id="a_node6"><a xlink:href="a00107.html" target="_top" xlink:title="Simple transform class used locally by InterpMotion. ">
<polygon fill="white" stroke="black" points="182,-200.5 182,-219.5 289,-219.5 289,-200.5 182,-200.5"/>
<text text-anchor="middle" x="235.5" y="-207.5" font-family="Helvetica,sans-Serif" font-size="10.00">hpp::fcl::Transform3f</text>
</a>
</g>
</g>
<!-- Node6&#45;&gt;Node5 -->
<g id="edge5" class="edge"><title>Node6&#45;&gt;Node5</title>
<path fill="none" stroke="#9a32cd" stroke-dasharray="5,2" d="M299.209,-210C316.756,-210 335.931,-210 353.854,-210"/>
<polygon fill="#9a32cd" stroke="#9a32cd" points="299.088,-206.5 289.088,-210 299.088,-213.5 299.088,-206.5"/>
<text text-anchor="middle" x="328.5" y="-224" font-family="Helvetica,sans-Serif" font-size="10.00"> tf1</text>
<text text-anchor="middle" x="328.5" y="-213" font-family="Helvetica,sans-Serif" font-size="10.00">tf2</text>
</g>
<!-- Node7 -->
<g id="node7" class="node"><title>Node7</title>
<g id="a_node7"><a xlink:href="a00036.html" target="_top" xlink:title="request to the distance computation ">
<polygon fill="white" stroke="black" points="359,-162.5 359,-181.5 490,-181.5 490,-162.5 359,-162.5"/>
<text text-anchor="middle" x="424.5" y="-169.5" font-family="Helvetica,sans-Serif" font-size="10.00">hpp::fcl::DistanceRequest</text>
</a>
</g>
</g>
<!-- Node7&#45;&gt;Node4 -->
<g id="edge6" class="edge"><title>Node7&#45;&gt;Node4</title>
<path fill="none" stroke="#9a32cd" stroke-dasharray="5,2" d="M500.175,-165.876C525.711,-163.782 554.079,-161.456 578.892,-159.421"/>
<polygon fill="#9a32cd" stroke="#9a32cd" points="499.85,-162.391 490.17,-166.697 500.423,-169.368 499.85,-162.391"/>
<text text-anchor="middle" x="537" y="-168" font-family="Helvetica,sans-Serif" font-size="10.00"> request</text>
</g>
<!-- Node8 -->
<g id="node8" class="node"><title>Node8</title>
<g id="a_node8"><a xlink:href="a00037.html" target="_top" xlink:title="distance result ">
<polygon fill="white" stroke="black" points="363.5,-124.5 363.5,-143.5 485.5,-143.5 485.5,-124.5 363.5,-124.5"/>
<text text-anchor="middle" x="424.5" y="-131.5" font-family="Helvetica,sans-Serif" font-size="10.00">hpp::fcl::DistanceResult</text>
</a>
</g>
</g>
<!-- Node8&#45;&gt;Node4 -->
<g id="edge7" class="edge"><title>Node8&#45;&gt;Node4</title>
<path fill="none" stroke="#9a32cd" stroke-dasharray="5,2" d="M495.766,-140.402C522.346,-142.824 552.49,-145.571 578.694,-147.958"/>
<polygon fill="#9a32cd" stroke="#9a32cd" points="496.046,-136.913 485.77,-139.492 495.411,-143.885 496.046,-136.913"/>
<text text-anchor="middle" x="537" y="-149" font-family="Helvetica,sans-Serif" font-size="10.00"> result</text>
</g>
<!-- Node9 -->
<g id="node9" class="node"><title>Node9</title>
<g id="a_node9"><a xlink:href="a00025.html" target="_top" xlink:title="The geometry for the object for collision or distance computation. ">
<polygon fill="white" stroke="black" points="168,-105.5 168,-124.5 303,-124.5 303,-105.5 168,-105.5"/>
<text text-anchor="middle" x="235.5" y="-112.5" font-family="Helvetica,sans-Serif" font-size="10.00">hpp::fcl::CollisionGeometry</text>
</a>
</g>
</g>
<!-- Node9&#45;&gt;Node8 -->
<g id="edge8" class="edge"><title>Node9&#45;&gt;Node8</title>
<path fill="none" stroke="#9a32cd" stroke-dasharray="5,2" d="M313.466,-122.82C330.103,-124.51 347.462,-126.274 363.343,-127.888"/>
<polygon fill="#9a32cd" stroke="#9a32cd" points="313.522,-119.308 303.219,-121.779 312.814,-126.272 313.522,-119.308"/>
<text text-anchor="middle" x="328.5" y="-140" font-family="Helvetica,sans-Serif" font-size="10.00"> o1</text>
<text text-anchor="middle" x="328.5" y="-129" font-family="Helvetica,sans-Serif" font-size="10.00">o2</text>
</g>
<!-- Node11 -->
<g id="node11" class="node"><title>Node11</title>
<g id="a_node11"><a xlink:href="a00015.html" target="_top" xlink:title="hpp::fcl::BVHModel\l\&lt; RSS \&gt;">
<polygon fill="white" stroke="black" points="595,-50 595,-80 697,-80 697,-50 595,-50"/>
<text text-anchor="start" x="603" y="-68" font-family="Helvetica,sans-Serif" font-size="10.00">hpp::fcl::BVHModel</text>
<text text-anchor="middle" x="646" y="-57" font-family="Helvetica,sans-Serif" font-size="10.00">&lt; RSS &gt;</text>
</a>
</g>
</g>
<!-- Node9&#45;&gt;Node11 -->
<g id="edge11" class="edge"><title>Node9&#45;&gt;Node11</title>
<path fill="none" stroke="midnightblue" d="M313.303,-106.002C379.073,-98.2406 476.296,-86.6359 561,-76 571.945,-74.6257 583.687,-73.1125 594.819,-71.6598"/>
<polygon fill="midnightblue" stroke="midnightblue" points="312.545,-102.567 303.024,-107.214 313.365,-109.519 312.545,-102.567"/>
</g>
<!-- Node10 -->
<g id="node10" class="node"><title>Node10</title>
<g id="a_node10"><a xlink:href="a00004.html" target="_top" xlink:title="A class describing the AABB collision structure, which is a box in 3D space determined by two diagona...">
<polygon fill="white" stroke="black" points="0,-105.5 0,-124.5 82,-124.5 82,-105.5 0,-105.5"/>
<text text-anchor="middle" x="41" y="-112.5" font-family="Helvetica,sans-Serif" font-size="10.00">hpp::fcl::AABB</text>
</a>
</g>
</g>
<!-- Node10&#45;&gt;Node9 -->
<g id="edge9" class="edge"><title>Node10&#45;&gt;Node9</title>
<path fill="none" stroke="#9a32cd" stroke-dasharray="5,2" d="M92.5651,-115C115.539,-115 143.033,-115 167.679,-115"/>
<polygon fill="#9a32cd" stroke="#9a32cd" points="92.3543,-111.5 82.3543,-115 92.3543,-118.5 92.3543,-111.5"/>
<text text-anchor="middle" x="125" y="-118" font-family="Helvetica,sans-Serif" font-size="10.00"> aabb_local</text>
</g>
<!-- Node11&#45;&gt;Node3 -->
<g id="edge10" class="edge"><title>Node11&#45;&gt;Node3</title>
<path fill="none" stroke="#9a32cd" stroke-dasharray="5,2" d="M707.576,-65C736.436,-65 771.27,-65 801.941,-65"/>
<polygon fill="#9a32cd" stroke="#9a32cd" points="707.232,-61.5001 697.232,-65 707.232,-68.5001 707.232,-61.5001"/>
<text text-anchor="middle" x="757.5" y="-79" font-family="Helvetica,sans-Serif" font-size="10.00"> model1</text>
<text text-anchor="middle" x="757.5" y="-68" font-family="Helvetica,sans-Serif" font-size="10.00">model2</text>
</g>
<!-- Node12 -->
<g id="node12" class="node"><title>Node12</title>
<polygon fill="white" stroke="#bfbfbf" points="389,-48.5 389,-67.5 460,-67.5 460,-48.5 389,-48.5"/>
<text text-anchor="middle" x="424.5" y="-55.5" font-family="Helvetica,sans-Serif" font-size="10.00">noncopyable</text>
</g>
<!-- Node12&#45;&gt;Node11 -->
<g id="edge12" class="edge"><title>Node12&#45;&gt;Node11</title>
<path fill="none" stroke="#8b1a1a" d="M470.535,-59.4362C506.692,-60.5893 557.427,-62.2072 594.87,-63.4013"/>
<polygon fill="#8b1a1a" stroke="#8b1a1a" points="470.387,-55.9298 460.28,-59.1092 470.164,-62.9262 470.387,-55.9298"/>
</g>
<!-- Node13 -->
<g id="node13" class="node"><title>Node13</title>
<g id="a_node13"><a xlink:href="a00109.html" target="_top" xlink:title="Triangle with 3 indices for points. ">
<polygon fill="white" stroke="black" points="380,-0.5 380,-19.5 469,-19.5 469,-0.5 380,-0.5"/>
<text text-anchor="middle" x="424.5" y="-7.5" font-family="Helvetica,sans-Serif" font-size="10.00">hpp::fcl::Triangle</text>
</a>
</g>
</g>
<!-- Node13&#45;&gt;Node2 -->
<g id="edge14" class="edge"><title>Node13&#45;&gt;Node2</title>
<path fill="none" stroke="#9a32cd" stroke-dasharray="5,2" d="M479.429,-11.4181C593.778,-14.4249 860.967,-21.4508 993.949,-24.9476"/>
<polygon fill="#9a32cd" stroke="#9a32cd" points="479.264,-7.91262 469.175,-11.1485 479.08,-14.9102 479.264,-7.91262"/>
<text text-anchor="middle" x="757.5" y="-34" font-family="Helvetica,sans-Serif" font-size="10.00"> tri_indices1</text>
<text text-anchor="middle" x="757.5" y="-23" font-family="Helvetica,sans-Serif" font-size="10.00">tri_indices2</text>
</g>
<!-- Node13&#45;&gt;Node11 -->
<g id="edge13" class="edge"><title>Node13&#45;&gt;Node11</title>
<path fill="none" stroke="#9a32cd" stroke-dasharray="5,2" d="M473.497,-22.0266C509.417,-31.0269 558.42,-43.3056 594.849,-52.4336"/>
<polygon fill="#9a32cd" stroke="#9a32cd" points="474.285,-18.6159 463.734,-19.5803 472.583,-25.4059 474.285,-18.6159"/>
<text text-anchor="middle" x="537" y="-46" font-family="Helvetica,sans-Serif" font-size="10.00"> tri_indices</text>
</g>
</g>
</svg>
