<?xml version="1.0" encoding="UTF-8" standalone="no"?>
<!DOCTYPE svg PUBLIC "-//W3C//DTD SVG 1.1//EN"
 "http://www.w3.org/Graphics/SVG/1.1/DTD/svg11.dtd">
<!-- Generated by graphviz version 2.38.0 (20140413.2041)
 -->
<!-- Title: hpp::fcl::CollisionTraversalNodeBase Pages: 1 -->
<svg width="435pt" height="184pt"
 viewBox="0.00 0.00 435.00 184.00" xmlns="http://www.w3.org/2000/svg" xmlns:xlink="http://www.w3.org/1999/xlink">
<g id="graph0" class="graph" transform="scale(1 1) rotate(0) translate(4 180)">
<title>hpp::fcl::CollisionTraversalNodeBase</title>
<polygon fill="white" stroke="none" points="-4,4 -4,-180 431,-180 431,4 -4,4"/>
<!-- Node1 -->
<g id="node1" class="node"><title>Node1</title>
<polygon fill="#bfbfbf" stroke="black" points="157,-0.5 157,-30.5 290,-30.5 290,-0.5 157,-0.5"/>
<text text-anchor="start" x="165" y="-18.5" font-family="Helvetica,sans-Serif" font-size="10.00">hpp::fcl::CollisionTraversal</text>
<text text-anchor="middle" x="223.5" y="-7.5" font-family="Helvetica,sans-Serif" font-size="10.00">NodeBase</text>
</g>
<!-- Node2 -->
<g id="node2" class="node"><title>Node2</title>
<g id="a_node2"><a xlink:href="a00108.html" target="_top" xlink:title="Node structure encoding the information required for traversal. ">
<polygon fill="white" stroke="black" points="0,-78.5 0,-97.5 141,-97.5 141,-78.5 0,-78.5"/>
<text text-anchor="middle" x="70.5" y="-85.5" font-family="Helvetica,sans-Serif" font-size="10.00">hpp::fcl::TraversalNodeBase</text>
</a>
</g>
</g>
<!-- Node2&#45;&gt;Node1 -->
<g id="edge1" class="edge"><title>Node2&#45;&gt;Node1</title>
<path fill="none" stroke="midnightblue" d="M98.1506,-74.259C124.928,-61.9203 165.434,-43.256 193.104,-30.5059"/>
<polygon fill="midnightblue" stroke="midnightblue" points="96.5728,-71.1323 88.9554,-78.4961 99.5023,-77.4898 96.5728,-71.1323"/>
</g>
<!-- Node3 -->
<g id="node3" class="node"><title>Node3</title>
<g id="a_node3"><a xlink:href="a00107.html" target="_top" xlink:title="Simple transform class used locally by InterpMotion. ">
<polygon fill="white" stroke="black" points="17,-156.5 17,-175.5 124,-175.5 124,-156.5 17,-156.5"/>
<text text-anchor="middle" x="70.5" y="-163.5" font-family="Helvetica,sans-Serif" font-size="10.00">hpp::fcl::Transform3f</text>
</a>
</g>
</g>
<!-- Node3&#45;&gt;Node2 -->
<g id="edge2" class="edge"><title>Node3&#45;&gt;Node2</title>
<path fill="none" stroke="#9a32cd" stroke-dasharray="5,2" d="M70.5,-146.224C70.5,-130.697 70.5,-109.358 70.5,-97.6165"/>
<polygon fill="#9a32cd" stroke="#9a32cd" points="67.0001,-146.282 70.5,-156.282 74.0001,-146.282 67.0001,-146.282"/>
<text text-anchor="middle" x="78" y="-130" font-family="Helvetica,sans-Serif" font-size="10.00"> tf1</text>
<text text-anchor="middle" x="78" y="-119" font-family="Helvetica,sans-Serif" font-size="10.00">tf2</text>
</g>
<!-- Node4 -->
<g id="node4" class="node"><title>Node4</title>
<g id="a_node4"><a xlink:href="a00027.html" target="_top" xlink:title="request to the collision algorithm ">
<polygon fill="white" stroke="black" points="159,-78.5 159,-97.5 288,-97.5 288,-78.5 159,-78.5"/>
<text text-anchor="middle" x="223.5" y="-85.5" font-family="Helvetica,sans-Serif" font-size="10.00">hpp::fcl::CollisionRequest</text>
</a>
</g>
</g>
<!-- Node4&#45;&gt;Node1 -->
<g id="edge3" class="edge"><title>Node4&#45;&gt;Node1</title>
<path fill="none" stroke="#9a32cd" stroke-dasharray="5,2" d="M223.5,-68.2362C223.5,-56.4079 223.5,-41.3829 223.5,-30.5762"/>
<polygon fill="#9a32cd" stroke="#9a32cd" points="220,-68.3553 223.5,-78.3553 227,-68.3554 220,-68.3553"/>
<text text-anchor="middle" x="241.5" y="-52" font-family="Helvetica,sans-Serif" font-size="10.00"> request</text>
</g>
<!-- Node5 -->
<g id="node5" class="node"><title>Node5</title>
<g id="a_node5"><a xlink:href="a00028.html" target="_top" xlink:title="collision result ">
<polygon fill="white" stroke="black" points="306,-78.5 306,-97.5 427,-97.5 427,-78.5 306,-78.5"/>
<text text-anchor="middle" x="366.5" y="-85.5" font-family="Helvetica,sans-Serif" font-size="10.00">hpp::fcl::CollisionResult</text>
</a>
</g>
</g>
<!-- Node5&#45;&gt;Node1 -->
<g id="edge4" class="edge"><title>Node5&#45;&gt;Node1</title>
<path fill="none" stroke="#9a32cd" stroke-dasharray="5,2" d="M339.995,-73.9329C314.966,-61.5933 277.544,-43.1442 251.909,-30.5059"/>
<polygon fill="#9a32cd" stroke="#9a32cd" points="338.734,-77.2133 349.251,-78.4961 341.829,-70.9349 338.734,-77.2133"/>
<text text-anchor="middle" x="321.5" y="-52" font-family="Helvetica,sans-Serif" font-size="10.00"> result</text>
</g>
</g>
</svg>
