<?xml version="1.0" encoding="UTF-8" standalone="no"?>
<!DOCTYPE svg PUBLIC "-//W3C//DTD SVG 1.1//EN"
 "http://www.w3.org/Graphics/SVG/1.1/DTD/svg11.dtd">
<!-- Generated by graphviz version 2.38.0 (20140413.2041)
 -->
<!-- Title: hpp::fcl::MeshShapeDistanceTraversalNodeRSS&lt; S, NarrowPhaseSolver &gt; Pages: 1 -->
<svg width="1429pt" height="289pt"
 viewBox="0.00 0.00 1429.00 289.00" xmlns="http://www.w3.org/2000/svg" xmlns:xlink="http://www.w3.org/1999/xlink">
<g id="graph0" class="graph" transform="scale(1 1) rotate(0) translate(4 285)">
<title>hpp::fcl::MeshShapeDistanceTraversalNodeRSS&lt; S, NarrowPhaseSolver &gt;</title>
<polygon fill="white" stroke="none" points="-4,4 -4,-285 1425,-285 1425,4 -4,4"/>
<!-- Node1 -->
<g id="node1" class="node"><title>Node1</title>
<polygon fill="#bfbfbf" stroke="black" points="1239,-27.5 1239,-68.5 1421,-68.5 1421,-27.5 1239,-27.5"/>
<text text-anchor="start" x="1247" y="-56.5" font-family="Helvetica,sans-Serif" font-size="10.00">hpp::fcl::MeshShapeDistance</text>
<text text-anchor="start" x="1247" y="-45.5" font-family="Helvetica,sans-Serif" font-size="10.00">TraversalNodeRSS&lt; S, NarrowPhase</text>
<text text-anchor="middle" x="1330" y="-34.5" font-family="Helvetica,sans-Serif" font-size="10.00">Solver &gt;</text>
</g>
<!-- Node2 -->
<g id="node2" class="node"><title>Node2</title>
<g id="a_node2"><a xlink:href="a00063.html" target="_top" xlink:title="hpp::fcl::MeshShapeDistance\lTraversalNode\&lt; RSS, S, NarrowPhase\lSolver \&gt;">
<polygon fill="white" stroke="black" points="1014,-27.5 1014,-68.5 1202,-68.5 1202,-27.5 1014,-27.5"/>
<text text-anchor="start" x="1022" y="-56.5" font-family="Helvetica,sans-Serif" font-size="10.00">hpp::fcl::MeshShapeDistance</text>
<text text-anchor="start" x="1022" y="-45.5" font-family="Helvetica,sans-Serif" font-size="10.00">TraversalNode&lt; RSS, S, NarrowPhase</text>
<text text-anchor="middle" x="1108" y="-34.5" font-family="Helvetica,sans-Serif" font-size="10.00">Solver &gt;</text>
</a>
</g>
</g>
<!-- Node2&#45;&gt;Node1 -->
<g id="edge1" class="edge"><title>Node2&#45;&gt;Node1</title>
<path fill="none" stroke="midnightblue" d="M1212.53,-48C1221.28,-48 1230.08,-48 1238.71,-48"/>
<polygon fill="midnightblue" stroke="midnightblue" points="1212.3,-44.5001 1202.3,-48 1212.3,-51.5001 1212.3,-44.5001"/>
</g>
<!-- Node3 -->
<g id="node3" class="node"><title>Node3</title>
<g id="a_node3"><a xlink:href="a00017.html" target="_top" xlink:title="hpp::fcl::BVHShapeDistance\lTraversalNode\&lt; RSS, S \&gt;">
<polygon fill="white" stroke="black" points="800,-124 800,-154 943,-154 943,-124 800,-124"/>
<text text-anchor="start" x="808" y="-142" font-family="Helvetica,sans-Serif" font-size="10.00">hpp::fcl::BVHShapeDistance</text>
<text text-anchor="middle" x="871.5" y="-131" font-family="Helvetica,sans-Serif" font-size="10.00">TraversalNode&lt; RSS, S &gt;</text>
</a>
</g>
</g>
<!-- Node3&#45;&gt;Node2 -->
<g id="edge2" class="edge"><title>Node3&#45;&gt;Node2</title>
<path fill="none" stroke="midnightblue" d="M920.745,-120.278C959.599,-105.2 1014.15,-84.0321 1054.17,-68.5002"/>
<polygon fill="midnightblue" stroke="midnightblue" points="919.279,-117.092 911.223,-123.973 921.812,-123.618 919.279,-117.092"/>
</g>
<!-- Node4 -->
<g id="node4" class="node"><title>Node4</title>
<g id="a_node4"><a xlink:href="a00040.html" target="_top" xlink:title="Node structure encoding the information required for distance traversal. ">
<polygon fill="white" stroke="black" points="579,-206 579,-236 713,-236 713,-206 579,-206"/>
<text text-anchor="start" x="587" y="-224" font-family="Helvetica,sans-Serif" font-size="10.00">hpp::fcl::DistanceTraversal</text>
<text text-anchor="middle" x="646" y="-213" font-family="Helvetica,sans-Serif" font-size="10.00">NodeBase</text>
</a>
</g>
</g>
<!-- Node4&#45;&gt;Node3 -->
<g id="edge3" class="edge"><title>Node4&#45;&gt;Node3</title>
<path fill="none" stroke="midnightblue" d="M708.463,-202.941C731.693,-195.72 758.246,-186.988 782,-178 801.002,-170.81 821.812,-161.705 838.476,-154.1"/>
<polygon fill="midnightblue" stroke="midnightblue" points="707.255,-199.651 698.728,-205.94 709.315,-206.341 707.255,-199.651"/>
</g>
<!-- Node5 -->
<g id="node5" class="node"><title>Node5</title>
<g id="a_node5"><a xlink:href="a00108.html" target="_top" xlink:title="Node structure encoding the information required for traversal. ">
<polygon fill="white" stroke="black" points="354,-249.5 354,-268.5 495,-268.5 495,-249.5 354,-249.5"/>
<text text-anchor="middle" x="424.5" y="-256.5" font-family="Helvetica,sans-Serif" font-size="10.00">hpp::fcl::TraversalNodeBase</text>
</a>
</g>
</g>
<!-- Node5&#45;&gt;Node4 -->
<g id="edge4" class="edge"><title>Node5&#45;&gt;Node4</title>
<path fill="none" stroke="midnightblue" d="M492.102,-247.812C514.05,-244.093 538.577,-239.905 561,-236 566.838,-234.983 572.902,-233.918 578.979,-232.844"/>
<polygon fill="midnightblue" stroke="midnightblue" points="491.492,-244.365 482.216,-249.484 492.659,-251.267 491.492,-244.365"/>
</g>
<!-- Node6 -->
<g id="node6" class="node"><title>Node6</title>
<g id="a_node6"><a xlink:href="a00107.html" target="_top" xlink:title="Simple transform class used locally by InterpMotion. ">
<polygon fill="white" stroke="black" points="182,-249.5 182,-268.5 289,-268.5 289,-249.5 182,-249.5"/>
<text text-anchor="middle" x="235.5" y="-256.5" font-family="Helvetica,sans-Serif" font-size="10.00">hpp::fcl::Transform3f</text>
</a>
</g>
</g>
<!-- Node6&#45;&gt;Node5 -->
<g id="edge5" class="edge"><title>Node6&#45;&gt;Node5</title>
<path fill="none" stroke="#9a32cd" stroke-dasharray="5,2" d="M299.209,-259C316.756,-259 335.931,-259 353.854,-259"/>
<polygon fill="#9a32cd" stroke="#9a32cd" points="299.088,-255.5 289.088,-259 299.088,-262.5 299.088,-255.5"/>
<text text-anchor="middle" x="328.5" y="-273" font-family="Helvetica,sans-Serif" font-size="10.00"> tf1</text>
<text text-anchor="middle" x="328.5" y="-262" font-family="Helvetica,sans-Serif" font-size="10.00">tf2</text>
</g>
<!-- Node7 -->
<g id="node7" class="node"><title>Node7</title>
<g id="a_node7"><a xlink:href="a00036.html" target="_top" xlink:title="request to the distance computation ">
<polygon fill="white" stroke="black" points="359,-211.5 359,-230.5 490,-230.5 490,-211.5 359,-211.5"/>
<text text-anchor="middle" x="424.5" y="-218.5" font-family="Helvetica,sans-Serif" font-size="10.00">hpp::fcl::DistanceRequest</text>
</a>
</g>
</g>
<!-- Node7&#45;&gt;Node4 -->
<g id="edge6" class="edge"><title>Node7&#45;&gt;Node4</title>
<path fill="none" stroke="#9a32cd" stroke-dasharray="5,2" d="M500.175,-221C525.711,-221 554.079,-221 578.892,-221"/>
<polygon fill="#9a32cd" stroke="#9a32cd" points="500.17,-217.5 490.17,-221 500.17,-224.5 500.17,-217.5"/>
<text text-anchor="middle" x="537" y="-224" font-family="Helvetica,sans-Serif" font-size="10.00"> request</text>
</g>
<!-- Node8 -->
<g id="node8" class="node"><title>Node8</title>
<g id="a_node8"><a xlink:href="a00037.html" target="_top" xlink:title="distance result ">
<polygon fill="white" stroke="black" points="363.5,-173.5 363.5,-192.5 485.5,-192.5 485.5,-173.5 363.5,-173.5"/>
<text text-anchor="middle" x="424.5" y="-180.5" font-family="Helvetica,sans-Serif" font-size="10.00">hpp::fcl::DistanceResult</text>
</a>
</g>
</g>
<!-- Node8&#45;&gt;Node4 -->
<g id="edge7" class="edge"><title>Node8&#45;&gt;Node4</title>
<path fill="none" stroke="#9a32cd" stroke-dasharray="5,2" d="M492.102,-194.188C514.05,-197.907 538.577,-202.095 561,-206 566.838,-207.017 572.902,-208.082 578.979,-209.156"/>
<polygon fill="#9a32cd" stroke="#9a32cd" points="492.659,-190.733 482.216,-192.516 491.492,-197.635 492.659,-190.733"/>
<text text-anchor="middle" x="537" y="-209" font-family="Helvetica,sans-Serif" font-size="10.00"> result</text>
</g>
<!-- Node9 -->
<g id="node9" class="node"><title>Node9</title>
<g id="a_node9"><a xlink:href="a00025.html" target="_top" xlink:title="The geometry for the object for collision or distance computation. ">
<polygon fill="white" stroke="black" points="168,-153.5 168,-172.5 303,-172.5 303,-153.5 168,-153.5"/>
<text text-anchor="middle" x="235.5" y="-160.5" font-family="Helvetica,sans-Serif" font-size="10.00">hpp::fcl::CollisionGeometry</text>
</a>
</g>
</g>
<!-- Node9&#45;&gt;Node8 -->
<g id="edge8" class="edge"><title>Node9&#45;&gt;Node8</title>
<path fill="none" stroke="#9a32cd" stroke-dasharray="5,2" d="M313.466,-171.232C330.103,-173.011 347.462,-174.868 363.343,-176.566"/>
<polygon fill="#9a32cd" stroke="#9a32cd" points="313.535,-167.719 303.219,-170.136 312.79,-174.679 313.535,-167.719"/>
<text text-anchor="middle" x="328.5" y="-188" font-family="Helvetica,sans-Serif" font-size="10.00"> o1</text>
<text text-anchor="middle" x="328.5" y="-177" font-family="Helvetica,sans-Serif" font-size="10.00">o2</text>
</g>
<!-- Node13 -->
<g id="node13" class="node"><title>Node13</title>
<g id="a_node13"><a xlink:href="a00015.html" target="_top" xlink:title="hpp::fcl::BVHModel\l\&lt; RSS \&gt;">
<polygon fill="white" stroke="black" points="595,-80 595,-110 697,-110 697,-80 595,-80"/>
<text text-anchor="start" x="603" y="-98" font-family="Helvetica,sans-Serif" font-size="10.00">hpp::fcl::BVHModel</text>
<text text-anchor="middle" x="646" y="-87" font-family="Helvetica,sans-Serif" font-size="10.00">&lt; RSS &gt;</text>
</a>
</g>
</g>
<!-- Node9&#45;&gt;Node13 -->
<g id="edge13" class="edge"><title>Node9&#45;&gt;Node13</title>
<path fill="none" stroke="midnightblue" d="M313.359,-153.946C379.361,-145.62 476.884,-132.003 561,-115 572.02,-112.772 583.793,-110.133 594.932,-107.515"/>
<polygon fill="midnightblue" stroke="midnightblue" points="312.531,-150.522 303.043,-155.237 313.4,-157.468 312.531,-150.522"/>
</g>
<!-- Node10 -->
<g id="node10" class="node"><title>Node10</title>
<g id="a_node10"><a xlink:href="a00004.html" target="_top" xlink:title="A class describing the AABB collision structure, which is a box in 3D space determined by two diagona...">
<polygon fill="white" stroke="black" points="0,-153.5 0,-172.5 82,-172.5 82,-153.5 0,-153.5"/>
<text text-anchor="middle" x="41" y="-160.5" font-family="Helvetica,sans-Serif" font-size="10.00">hpp::fcl::AABB</text>
</a>
</g>
</g>
<!-- Node10&#45;&gt;Node9 -->
<g id="edge9" class="edge"><title>Node10&#45;&gt;Node9</title>
<path fill="none" stroke="#9a32cd" stroke-dasharray="5,2" d="M92.5651,-163C115.539,-163 143.033,-163 167.679,-163"/>
<polygon fill="#9a32cd" stroke="#9a32cd" points="92.3543,-159.5 82.3543,-163 92.3543,-166.5 92.3543,-159.5"/>
<text text-anchor="middle" x="125" y="-166" font-family="Helvetica,sans-Serif" font-size="10.00"> aabb_local</text>
</g>
<!-- Node11 -->
<g id="node11" class="node"><title>Node11</title>
<g id="a_node11"><a xlink:href="a00085.html" target="_top" xlink:title="A class for rectangle sphere&#45;swept bounding volume. ">
<polygon fill="white" stroke="black" points="608,-167.5 608,-186.5 684,-186.5 684,-167.5 608,-167.5"/>
<text text-anchor="middle" x="646" y="-174.5" font-family="Helvetica,sans-Serif" font-size="10.00">hpp::fcl::RSS</text>
</a>
</g>
</g>
<!-- Node11&#45;&gt;Node3 -->
<g id="edge10" class="edge"><title>Node11&#45;&gt;Node3</title>
<path fill="none" stroke="#9a32cd" stroke-dasharray="5,2" d="M694.15,-168.983C724.801,-163.772 765.327,-156.882 799.799,-151.021"/>
<polygon fill="#9a32cd" stroke="#9a32cd" points="693.429,-165.556 684.157,-170.682 694.603,-172.457 693.429,-165.556"/>
<text text-anchor="middle" x="756.5" y="-166" font-family="Helvetica,sans-Serif" font-size="10.00"> model2_bv</text>
</g>
<!-- Node12 -->
<g id="node12" class="node"><title>Node12</title>
<polygon fill="white" stroke="#bfbfbf" points="631.5,-129.5 631.5,-148.5 660.5,-148.5 660.5,-129.5 631.5,-129.5"/>
<text text-anchor="middle" x="646" y="-136.5" font-family="Helvetica,sans-Serif" font-size="10.00">S</text>
</g>
<!-- Node12&#45;&gt;Node3 -->
<g id="edge11" class="edge"><title>Node12&#45;&gt;Node3</title>
<path fill="none" stroke="#9a32cd" stroke-dasharray="5,2" d="M670.739,-139C701.229,-139 755.493,-139 799.776,-139"/>
<polygon fill="#9a32cd" stroke="#9a32cd" points="670.645,-135.5 660.644,-139 670.644,-142.5 670.645,-135.5"/>
<text text-anchor="middle" x="756.5" y="-142" font-family="Helvetica,sans-Serif" font-size="10.00"> model2</text>
</g>
<!-- Node13&#45;&gt;Node3 -->
<g id="edge12" class="edge"><title>Node13&#45;&gt;Node3</title>
<path fill="none" stroke="#9a32cd" stroke-dasharray="5,2" d="M707.003,-106.813C735.566,-112.436 769.918,-119.199 799.746,-125.071"/>
<polygon fill="#9a32cd" stroke="#9a32cd" points="707.646,-103.372 697.158,-104.874 706.293,-110.24 707.646,-103.372"/>
<text text-anchor="middle" x="756.5" y="-124" font-family="Helvetica,sans-Serif" font-size="10.00"> model1</text>
</g>
<!-- Node14 -->
<g id="node14" class="node"><title>Node14</title>
<polygon fill="white" stroke="#bfbfbf" points="389,-97.5 389,-116.5 460,-116.5 460,-97.5 389,-97.5"/>
<text text-anchor="middle" x="424.5" y="-104.5" font-family="Helvetica,sans-Serif" font-size="10.00">noncopyable</text>
</g>
<!-- Node14&#45;&gt;Node13 -->
<g id="edge14" class="edge"><title>Node14&#45;&gt;Node13</title>
<path fill="none" stroke="#8b1a1a" d="M470.535,-104.538C506.692,-102.561 557.427,-99.7876 594.87,-97.7406"/>
<polygon fill="#8b1a1a" stroke="#8b1a1a" points="470.074,-101.058 460.28,-105.099 470.457,-108.047 470.074,-101.058"/>
</g>
<!-- Node15 -->
<g id="node15" class="node"><title>Node15</title>
<g id="a_node15"><a xlink:href="a00109.html" target="_top" xlink:title="Triangle with 3 indices for points. ">
<polygon fill="white" stroke="black" points="380,-49.5 380,-68.5 469,-68.5 469,-49.5 380,-49.5"/>
<text text-anchor="middle" x="424.5" y="-56.5" font-family="Helvetica,sans-Serif" font-size="10.00">hpp::fcl::Triangle</text>
</a>
</g>
</g>
<!-- Node15&#45;&gt;Node2 -->
<g id="edge17" class="edge"><title>Node15&#45;&gt;Node2</title>
<path fill="none" stroke="#9a32cd" stroke-dasharray="5,2" d="M479.209,-58.1331C594.979,-56.2645 869.235,-51.8377 1013.92,-49.5023"/>
<polygon fill="#9a32cd" stroke="#9a32cd" points="479.11,-54.6341 469.168,-58.2952 479.223,-61.6332 479.11,-54.6341"/>
<text text-anchor="middle" x="756.5" y="-58" font-family="Helvetica,sans-Serif" font-size="10.00"> tri_indices</text>
</g>
<!-- Node15&#45;&gt;Node13 -->
<g id="edge15" class="edge"><title>Node15&#45;&gt;Node13</title>
<path fill="none" stroke="#9a32cd" stroke-dasharray="5,2" d="M479.252,-67.8158C514.549,-73.6048 560.401,-81.125 594.929,-86.7879"/>
<polygon fill="#9a32cd" stroke="#9a32cd" points="479.563,-64.3202 469.129,-66.1555 478.43,-71.2279 479.563,-64.3202"/>
<text text-anchor="middle" x="537" y="-84" font-family="Helvetica,sans-Serif" font-size="10.00"> tri_indices</text>
</g>
<!-- Node16 -->
<g id="node16" class="node"><title>Node16</title>
<polygon fill="white" stroke="#bfbfbf" points="819.5,-0.5 819.5,-19.5 923.5,-19.5 923.5,-0.5 819.5,-0.5"/>
<text text-anchor="middle" x="871.5" y="-7.5" font-family="Helvetica,sans-Serif" font-size="10.00">NarrowPhaseSolver</text>
</g>
<!-- Node16&#45;&gt;Node2 -->
<g id="edge16" class="edge"><title>Node16&#45;&gt;Node2</title>
<path fill="none" stroke="#9a32cd" stroke-dasharray="5,2" d="M933.922,-15.0397C953.796,-17.0506 975.892,-19.6889 996,-23 1003.89,-24.2999 1012.07,-25.8142 1020.24,-27.4425"/>
<polygon fill="#9a32cd" stroke="#9a32cd" points="934.046,-11.5353 923.753,-14.045 933.365,-18.502 934.046,-11.5353"/>
<text text-anchor="middle" x="978.5" y="-26" font-family="Helvetica,sans-Serif" font-size="10.00"> nsolver</text>
</g>
</g>
</svg>
