<?xml version="1.0" encoding="UTF-8" standalone="no"?>
<!DOCTYPE svg PUBLIC "-//W3C//DTD SVG 1.1//EN"
 "http://www.w3.org/Graphics/SVG/1.1/DTD/svg11.dtd">
<!-- Generated by graphviz version 2.38.0 (20140413.2041)
 -->
<!-- Title: hpp::fcl::Cylinder Pages: 1 -->
<svg width="143pt" height="209pt"
 viewBox="0.00 0.00 143.00 209.00" xmlns="http://www.w3.org/2000/svg" xmlns:xlink="http://www.w3.org/1999/xlink">
<g id="graph0" class="graph" transform="scale(1 1) rotate(0) translate(4 205)">
<title>hpp::fcl::Cylinder</title>
<polygon fill="white" stroke="none" points="-4,4 -4,-205 139,-205 139,4 -4,4"/>
<!-- Node1 -->
<g id="node1" class="node"><title>Node1</title>
<polygon fill="#bfbfbf" stroke="black" points="22,-0.5 22,-19.5 113,-19.5 113,-0.5 22,-0.5"/>
<text text-anchor="middle" x="67.5" y="-7.5" font-family="Helvetica,sans-Serif" font-size="10.00">hpp::fcl::Cylinder</text>
</g>
<!-- Node2 -->
<g id="node2" class="node"><title>Node2</title>
<g id="a_node2"><a xlink:href="a00088.html" target="_top" xlink:title="Base class for all basic geometric shapes. ">
<polygon fill="white" stroke="black" points="15,-57.5 15,-76.5 120,-76.5 120,-57.5 15,-57.5"/>
<text text-anchor="middle" x="67.5" y="-64.5" font-family="Helvetica,sans-Serif" font-size="10.00">hpp::fcl::ShapeBase</text>
</a>
</g>
</g>
<!-- Node2&#45;&gt;Node1 -->
<g id="edge1" class="edge"><title>Node2&#45;&gt;Node1</title>
<path fill="none" stroke="midnightblue" d="M67.5,-47.1166C67.5,-37.8173 67.5,-27.0557 67.5,-19.7149"/>
<polygon fill="midnightblue" stroke="midnightblue" points="64.0001,-47.4062 67.5,-57.4062 71.0001,-47.4063 64.0001,-47.4062"/>
</g>
<!-- Node3 -->
<g id="node3" class="node"><title>Node3</title>
<g id="a_node3"><a xlink:href="a00025.html" target="_top" xlink:title="The geometry for the object for collision or distance computation. ">
<polygon fill="white" stroke="black" points="0,-114.5 0,-133.5 135,-133.5 135,-114.5 0,-114.5"/>
<text text-anchor="middle" x="67.5" y="-121.5" font-family="Helvetica,sans-Serif" font-size="10.00">hpp::fcl::CollisionGeometry</text>
</a>
</g>
</g>
<!-- Node3&#45;&gt;Node2 -->
<g id="edge2" class="edge"><title>Node3&#45;&gt;Node2</title>
<path fill="none" stroke="midnightblue" d="M67.5,-104.117C67.5,-94.8173 67.5,-84.0557 67.5,-76.7149"/>
<polygon fill="midnightblue" stroke="midnightblue" points="64.0001,-104.406 67.5,-114.406 71.0001,-104.406 64.0001,-104.406"/>
</g>
<!-- Node4 -->
<g id="node4" class="node"><title>Node4</title>
<g id="a_node4"><a xlink:href="a00004.html" target="_top" xlink:title="A class describing the AABB collision structure, which is a box in 3D space determined by two diagona...">
<polygon fill="white" stroke="black" points="26.5,-181.5 26.5,-200.5 108.5,-200.5 108.5,-181.5 26.5,-181.5"/>
<text text-anchor="middle" x="67.5" y="-188.5" font-family="Helvetica,sans-Serif" font-size="10.00">hpp::fcl::AABB</text>
</a>
</g>
</g>
<!-- Node4&#45;&gt;Node3 -->
<g id="edge3" class="edge"><title>Node4&#45;&gt;Node3</title>
<path fill="none" stroke="#9a32cd" stroke-dasharray="5,2" d="M67.5,-171.037C67.5,-158.67 67.5,-143.12 67.5,-133.627"/>
<polygon fill="#9a32cd" stroke="#9a32cd" points="64.0001,-171.234 67.5,-181.234 71.0001,-171.234 64.0001,-171.234"/>
<text text-anchor="middle" x="92.5" y="-155" font-family="Helvetica,sans-Serif" font-size="10.00"> aabb_local</text>
</g>
</g>
</svg>
