<?xml version="1.0" encoding="UTF-8" standalone="no"?>
<!DOCTYPE svg PUBLIC "-//W3C//DTD SVG 1.1//EN"
 "http://www.w3.org/Graphics/SVG/1.1/DTD/svg11.dtd">
<!-- Generated by graphviz version 2.38.0 (20140413.2041)
 -->
<!-- Title: hpp::fcl::MeshDistanceTraversalNode&lt; BV &gt; Pages: 1 -->
<svg width="166pt" height="229pt"
 viewBox="0.00 0.00 166.00 229.00" xmlns="http://www.w3.org/2000/svg" xmlns:xlink="http://www.w3.org/1999/xlink">
<g id="graph0" class="graph" transform="scale(1 1) rotate(0) translate(4 225)">
<title>hpp::fcl::MeshDistanceTraversalNode&lt; BV &gt;</title>
<polygon fill="white" stroke="none" points="-4,4 -4,-225 162,-225 162,4 -4,4"/>
<!-- Node1 -->
<g id="node1" class="node"><title>Node1</title>
<polygon fill="#bfbfbf" stroke="black" points="-1.42109e-14,-0.5 -1.42109e-14,-30.5 158,-30.5 158,-0.5 -1.42109e-14,-0.5"/>
<text text-anchor="start" x="8" y="-18.5" font-family="Helvetica,sans-Serif" font-size="10.00">hpp::fcl::MeshDistanceTraversal</text>
<text text-anchor="middle" x="79" y="-7.5" font-family="Helvetica,sans-Serif" font-size="10.00">Node&lt; BV &gt;</text>
</g>
<!-- Node2 -->
<g id="node2" class="node"><title>Node2</title>
<g id="a_node2"><a xlink:href="a00013.html" target="_top" xlink:title="Traversal node for distance computation between BVH models. ">
<polygon fill="white" stroke="black" points="1.5,-67.5 1.5,-97.5 156.5,-97.5 156.5,-67.5 1.5,-67.5"/>
<text text-anchor="start" x="9.5" y="-85.5" font-family="Helvetica,sans-Serif" font-size="10.00">hpp::fcl::BVHDistanceTraversal</text>
<text text-anchor="middle" x="79" y="-74.5" font-family="Helvetica,sans-Serif" font-size="10.00">Node&lt; BV &gt;</text>
</a>
</g>
</g>
<!-- Node2&#45;&gt;Node1 -->
<g id="edge1" class="edge"><title>Node2&#45;&gt;Node1</title>
<path fill="none" stroke="midnightblue" d="M79,-57.1081C79,-48.1539 79,-38.3227 79,-30.5765"/>
<polygon fill="midnightblue" stroke="midnightblue" points="75.5001,-57.3959 79,-67.396 82.5001,-57.396 75.5001,-57.3959"/>
</g>
<!-- Node3 -->
<g id="node3" class="node"><title>Node3</title>
<g id="a_node3"><a xlink:href="a00040.html" target="_top" xlink:title="Node structure encoding the information required for distance traversal. ">
<polygon fill="white" stroke="black" points="12,-134.5 12,-164.5 146,-164.5 146,-134.5 12,-134.5"/>
<text text-anchor="start" x="20" y="-152.5" font-family="Helvetica,sans-Serif" font-size="10.00">hpp::fcl::DistanceTraversal</text>
<text text-anchor="middle" x="79" y="-141.5" font-family="Helvetica,sans-Serif" font-size="10.00">NodeBase</text>
</a>
</g>
</g>
<!-- Node3&#45;&gt;Node2 -->
<g id="edge2" class="edge"><title>Node3&#45;&gt;Node2</title>
<path fill="none" stroke="midnightblue" d="M79,-124.108C79,-115.154 79,-105.323 79,-97.5765"/>
<polygon fill="midnightblue" stroke="midnightblue" points="75.5001,-124.396 79,-134.396 82.5001,-124.396 75.5001,-124.396"/>
</g>
<!-- Node4 -->
<g id="node4" class="node"><title>Node4</title>
<g id="a_node4"><a xlink:href="a00108.html" target="_top" xlink:title="Node structure encoding the information required for traversal. ">
<polygon fill="white" stroke="black" points="8.5,-201.5 8.5,-220.5 149.5,-220.5 149.5,-201.5 8.5,-201.5"/>
<text text-anchor="middle" x="79" y="-208.5" font-family="Helvetica,sans-Serif" font-size="10.00">hpp::fcl::TraversalNodeBase</text>
</a>
</g>
</g>
<!-- Node4&#45;&gt;Node3 -->
<g id="edge3" class="edge"><title>Node4&#45;&gt;Node3</title>
<path fill="none" stroke="midnightblue" d="M79,-191.235C79,-182.586 79,-172.497 79,-164.523"/>
<polygon fill="midnightblue" stroke="midnightblue" points="75.5001,-191.475 79,-201.475 82.5001,-191.475 75.5001,-191.475"/>
</g>
</g>
</svg>
