<?xml version="1.0" encoding="UTF-8" standalone="no"?>
<!DOCTYPE svg PUBLIC "-//W3C//DTD SVG 1.1//EN"
 "http://www.w3.org/Graphics/SVG/1.1/DTD/svg11.dtd">
<!-- Generated by graphviz version 2.38.0 (20140413.2041)
 -->
<!-- Title: hpp::fcl::MeshShapeDistanceTraversalNodeOBBRSS&lt; S, NarrowPhaseSolver &gt; Pages: 1 -->
<svg width="161pt" height="318pt"
 viewBox="0.00 0.00 161.00 318.00" xmlns="http://www.w3.org/2000/svg" xmlns:xlink="http://www.w3.org/1999/xlink">
<g id="graph0" class="graph" transform="scale(1 1) rotate(0) translate(4 314)">
<title>hpp::fcl::MeshShapeDistanceTraversalNodeOBBRSS&lt; S, NarrowPhaseSolver &gt;</title>
<polygon fill="white" stroke="none" points="-4,4 -4,-314 157,-314 157,4 -4,4"/>
<!-- Node1 -->
<g id="node1" class="node"><title>Node1</title>
<polygon fill="#bfbfbf" stroke="black" points="3.5,-0.5 3.5,-41.5 149.5,-41.5 149.5,-0.5 3.5,-0.5"/>
<text text-anchor="start" x="11.5" y="-29.5" font-family="Helvetica,sans-Serif" font-size="10.00">hpp::fcl::MeshShapeDistance</text>
<text text-anchor="start" x="11.5" y="-18.5" font-family="Helvetica,sans-Serif" font-size="10.00">TraversalNodeOBBRSS&lt; S,</text>
<text text-anchor="middle" x="76.5" y="-7.5" font-family="Helvetica,sans-Serif" font-size="10.00"> NarrowPhaseSolver &gt;</text>
</g>
<!-- Node2 -->
<g id="node2" class="node"><title>Node2</title>
<g id="a_node2"><a xlink:href="a00063.html" target="_top" xlink:title="hpp::fcl::MeshShapeDistance\lTraversalNode\&lt; OBBRSS, S,\l NarrowPhaseSolver \&gt;">
<polygon fill="white" stroke="black" points="3,-78.5 3,-119.5 150,-119.5 150,-78.5 3,-78.5"/>
<text text-anchor="start" x="11" y="-107.5" font-family="Helvetica,sans-Serif" font-size="10.00">hpp::fcl::MeshShapeDistance</text>
<text text-anchor="start" x="11" y="-96.5" font-family="Helvetica,sans-Serif" font-size="10.00">TraversalNode&lt; OBBRSS, S,</text>
<text text-anchor="middle" x="76.5" y="-85.5" font-family="Helvetica,sans-Serif" font-size="10.00"> NarrowPhaseSolver &gt;</text>
</a>
</g>
</g>
<!-- Node2&#45;&gt;Node1 -->
<g id="edge1" class="edge"><title>Node2&#45;&gt;Node1</title>
<path fill="none" stroke="midnightblue" d="M76.5,-68.2965C76.5,-59.3009 76.5,-49.6532 76.5,-41.5056"/>
<polygon fill="midnightblue" stroke="midnightblue" points="73.0001,-68.4281 76.5,-78.4281 80.0001,-68.4281 73.0001,-68.4281"/>
</g>
<!-- Node3 -->
<g id="node3" class="node"><title>Node3</title>
<g id="a_node3"><a xlink:href="a00017.html" target="_top" xlink:title="hpp::fcl::BVHShapeDistance\lTraversalNode\&lt; OBBRSS, S \&gt;">
<polygon fill="white" stroke="black" points="0,-156.5 0,-186.5 153,-186.5 153,-156.5 0,-156.5"/>
<text text-anchor="start" x="8" y="-174.5" font-family="Helvetica,sans-Serif" font-size="10.00">hpp::fcl::BVHShapeDistance</text>
<text text-anchor="middle" x="76.5" y="-163.5" font-family="Helvetica,sans-Serif" font-size="10.00">TraversalNode&lt; OBBRSS, S &gt;</text>
</a>
</g>
</g>
<!-- Node3&#45;&gt;Node2 -->
<g id="edge2" class="edge"><title>Node3&#45;&gt;Node2</title>
<path fill="none" stroke="midnightblue" d="M76.5,-145.982C76.5,-137.347 76.5,-127.762 76.5,-119.588"/>
<polygon fill="midnightblue" stroke="midnightblue" points="73.0001,-146.233 76.5,-156.233 80.0001,-146.233 73.0001,-146.233"/>
</g>
<!-- Node4 -->
<g id="node4" class="node"><title>Node4</title>
<g id="a_node4"><a xlink:href="a00040.html" target="_top" xlink:title="Node structure encoding the information required for distance traversal. ">
<polygon fill="white" stroke="black" points="9.5,-223.5 9.5,-253.5 143.5,-253.5 143.5,-223.5 9.5,-223.5"/>
<text text-anchor="start" x="17.5" y="-241.5" font-family="Helvetica,sans-Serif" font-size="10.00">hpp::fcl::DistanceTraversal</text>
<text text-anchor="middle" x="76.5" y="-230.5" font-family="Helvetica,sans-Serif" font-size="10.00">NodeBase</text>
</a>
</g>
</g>
<!-- Node4&#45;&gt;Node3 -->
<g id="edge3" class="edge"><title>Node4&#45;&gt;Node3</title>
<path fill="none" stroke="midnightblue" d="M76.5,-213.108C76.5,-204.154 76.5,-194.323 76.5,-186.577"/>
<polygon fill="midnightblue" stroke="midnightblue" points="73.0001,-213.396 76.5,-223.396 80.0001,-213.396 73.0001,-213.396"/>
</g>
<!-- Node5 -->
<g id="node5" class="node"><title>Node5</title>
<g id="a_node5"><a xlink:href="a00108.html" target="_top" xlink:title="Node structure encoding the information required for traversal. ">
<polygon fill="white" stroke="black" points="6,-290.5 6,-309.5 147,-309.5 147,-290.5 6,-290.5"/>
<text text-anchor="middle" x="76.5" y="-297.5" font-family="Helvetica,sans-Serif" font-size="10.00">hpp::fcl::TraversalNodeBase</text>
</a>
</g>
</g>
<!-- Node5&#45;&gt;Node4 -->
<g id="edge4" class="edge"><title>Node5&#45;&gt;Node4</title>
<path fill="none" stroke="midnightblue" d="M76.5,-280.235C76.5,-271.586 76.5,-261.497 76.5,-253.523"/>
<polygon fill="midnightblue" stroke="midnightblue" points="73.0001,-280.475 76.5,-290.475 80.0001,-280.475 73.0001,-280.475"/>
</g>
</g>
</svg>
