<?xml version="1.0" encoding="UTF-8" standalone="no"?>
<!DOCTYPE svg PUBLIC "-//W3C//DTD SVG 1.1//EN"
 "http://www.w3.org/Graphics/SVG/1.1/DTD/svg11.dtd">
<!-- Generated by graphviz version 2.38.0 (20140413.2041)
 -->
<!-- Title: hpp::fcl::DistanceTraversalNodeBase Pages: 1 -->
<svg width="445pt" height="251pt"
 viewBox="0.00 0.00 445.00 251.00" xmlns="http://www.w3.org/2000/svg" xmlns:xlink="http://www.w3.org/1999/xlink">
<g id="graph0" class="graph" transform="scale(1 1) rotate(0) translate(4 247)">
<title>hpp::fcl::DistanceTraversalNodeBase</title>
<polygon fill="white" stroke="none" points="-4,4 -4,-247 441,-247 441,4 -4,4"/>
<!-- Node1 -->
<g id="node1" class="node"><title>Node1</title>
<polygon fill="#bfbfbf" stroke="black" points="157.5,-0.5 157.5,-30.5 291.5,-30.5 291.5,-0.5 157.5,-0.5"/>
<text text-anchor="start" x="165.5" y="-18.5" font-family="Helvetica,sans-Serif" font-size="10.00">hpp::fcl::DistanceTraversal</text>
<text text-anchor="middle" x="224.5" y="-7.5" font-family="Helvetica,sans-Serif" font-size="10.00">NodeBase</text>
</g>
<!-- Node2 -->
<g id="node2" class="node"><title>Node2</title>
<g id="a_node2"><a xlink:href="a00108.html" target="_top" xlink:title="Node structure encoding the information required for traversal. ">
<polygon fill="white" stroke="black" points="0,-78.5 0,-97.5 141,-97.5 141,-78.5 0,-78.5"/>
<text text-anchor="middle" x="70.5" y="-85.5" font-family="Helvetica,sans-Serif" font-size="10.00">hpp::fcl::TraversalNodeBase</text>
</a>
</g>
</g>
<!-- Node2&#45;&gt;Node1 -->
<g id="edge1" class="edge"><title>Node2&#45;&gt;Node1</title>
<path fill="none" stroke="midnightblue" d="M98.3313,-74.259C125.284,-61.9203 166.054,-43.256 193.906,-30.5059"/>
<polygon fill="midnightblue" stroke="midnightblue" points="96.7116,-71.1511 89.076,-78.4961 99.6254,-77.5159 96.7116,-71.1511"/>
</g>
<!-- Node3 -->
<g id="node3" class="node"><title>Node3</title>
<g id="a_node3"><a xlink:href="a00107.html" target="_top" xlink:title="Simple transform class used locally by InterpMotion. ">
<polygon fill="white" stroke="black" points="17,-156.5 17,-175.5 124,-175.5 124,-156.5 17,-156.5"/>
<text text-anchor="middle" x="70.5" y="-163.5" font-family="Helvetica,sans-Serif" font-size="10.00">hpp::fcl::Transform3f</text>
</a>
</g>
</g>
<!-- Node3&#45;&gt;Node2 -->
<g id="edge2" class="edge"><title>Node3&#45;&gt;Node2</title>
<path fill="none" stroke="#9a32cd" stroke-dasharray="5,2" d="M70.5,-146.224C70.5,-130.697 70.5,-109.358 70.5,-97.6165"/>
<polygon fill="#9a32cd" stroke="#9a32cd" points="67.0001,-146.282 70.5,-156.282 74.0001,-146.282 67.0001,-146.282"/>
<text text-anchor="middle" x="78" y="-130" font-family="Helvetica,sans-Serif" font-size="10.00"> tf1</text>
<text text-anchor="middle" x="78" y="-119" font-family="Helvetica,sans-Serif" font-size="10.00">tf2</text>
</g>
<!-- Node4 -->
<g id="node4" class="node"><title>Node4</title>
<g id="a_node4"><a xlink:href="a00036.html" target="_top" xlink:title="request to the distance computation ">
<polygon fill="white" stroke="black" points="159,-78.5 159,-97.5 290,-97.5 290,-78.5 159,-78.5"/>
<text text-anchor="middle" x="224.5" y="-85.5" font-family="Helvetica,sans-Serif" font-size="10.00">hpp::fcl::DistanceRequest</text>
</a>
</g>
</g>
<!-- Node4&#45;&gt;Node1 -->
<g id="edge3" class="edge"><title>Node4&#45;&gt;Node1</title>
<path fill="none" stroke="#9a32cd" stroke-dasharray="5,2" d="M224.5,-68.2362C224.5,-56.4079 224.5,-41.3829 224.5,-30.5762"/>
<polygon fill="#9a32cd" stroke="#9a32cd" points="221,-68.3553 224.5,-78.3553 228,-68.3554 221,-68.3553"/>
<text text-anchor="middle" x="242.5" y="-52" font-family="Helvetica,sans-Serif" font-size="10.00"> request</text>
</g>
<!-- Node5 -->
<g id="node5" class="node"><title>Node5</title>
<g id="a_node5"><a xlink:href="a00037.html" target="_top" xlink:title="distance result ">
<polygon fill="white" stroke="black" points="308.5,-78.5 308.5,-97.5 430.5,-97.5 430.5,-78.5 308.5,-78.5"/>
<text text-anchor="middle" x="369.5" y="-85.5" font-family="Helvetica,sans-Serif" font-size="10.00">hpp::fcl::DistanceResult</text>
</a>
</g>
</g>
<!-- Node5&#45;&gt;Node1 -->
<g id="edge4" class="edge"><title>Node5&#45;&gt;Node1</title>
<path fill="none" stroke="#9a32cd" stroke-dasharray="5,2" d="M342.961,-74.0963C317.581,-61.7567 279.415,-43.2001 253.306,-30.5059"/>
<polygon fill="#9a32cd" stroke="#9a32cd" points="341.486,-77.271 352.01,-78.4961 344.547,-70.9757 341.486,-77.271"/>
<text text-anchor="middle" x="324.5" y="-52" font-family="Helvetica,sans-Serif" font-size="10.00"> result</text>
</g>
<!-- Node6 -->
<g id="node6" class="node"><title>Node6</title>
<g id="a_node6"><a xlink:href="a00025.html" target="_top" xlink:title="The geometry for the object for collision or distance computation. ">
<polygon fill="white" stroke="black" points="302,-156.5 302,-175.5 437,-175.5 437,-156.5 302,-156.5"/>
<text text-anchor="middle" x="369.5" y="-163.5" font-family="Helvetica,sans-Serif" font-size="10.00">hpp::fcl::CollisionGeometry</text>
</a>
</g>
</g>
<!-- Node6&#45;&gt;Node5 -->
<g id="edge5" class="edge"><title>Node6&#45;&gt;Node5</title>
<path fill="none" stroke="#9a32cd" stroke-dasharray="5,2" d="M369.5,-146.224C369.5,-130.697 369.5,-109.358 369.5,-97.6165"/>
<polygon fill="#9a32cd" stroke="#9a32cd" points="366,-146.282 369.5,-156.282 373,-146.282 366,-146.282"/>
<text text-anchor="middle" x="376.5" y="-130" font-family="Helvetica,sans-Serif" font-size="10.00"> o1</text>
<text text-anchor="middle" x="376.5" y="-119" font-family="Helvetica,sans-Serif" font-size="10.00">o2</text>
</g>
<!-- Node7 -->
<g id="node7" class="node"><title>Node7</title>
<g id="a_node7"><a xlink:href="a00004.html" target="_top" xlink:title="A class describing the AABB collision structure, which is a box in 3D space determined by two diagona...">
<polygon fill="white" stroke="black" points="328.5,-223.5 328.5,-242.5 410.5,-242.5 410.5,-223.5 328.5,-223.5"/>
<text text-anchor="middle" x="369.5" y="-230.5" font-family="Helvetica,sans-Serif" font-size="10.00">hpp::fcl::AABB</text>
</a>
</g>
</g>
<!-- Node7&#45;&gt;Node6 -->
<g id="edge6" class="edge"><title>Node7&#45;&gt;Node6</title>
<path fill="none" stroke="#9a32cd" stroke-dasharray="5,2" d="M369.5,-213.037C369.5,-200.67 369.5,-185.12 369.5,-175.627"/>
<polygon fill="#9a32cd" stroke="#9a32cd" points="366,-213.234 369.5,-223.234 373,-213.234 366,-213.234"/>
<text text-anchor="middle" x="394.5" y="-197" font-family="Helvetica,sans-Serif" font-size="10.00"> aabb_local</text>
</g>
</g>
</svg>
