<?xml version="1.0" encoding="UTF-8" standalone="no"?>
<!DOCTYPE svg PUBLIC "-//W3C//DTD SVG 1.1//EN"
 "http://www.w3.org/Graphics/SVG/1.1/DTD/svg11.dtd">
<!-- Generated by graphviz version 2.38.0 (20140413.2041)
 -->
<!-- Title: hpp::fcl::DistanceTraversalNodeBase Pages: 1 -->
<svg width="1004pt" height="902pt"
 viewBox="0.00 0.00 1004.00 901.50" xmlns="http://www.w3.org/2000/svg" xmlns:xlink="http://www.w3.org/1999/xlink">
<g id="graph0" class="graph" transform="scale(1 1) rotate(0) translate(4 897.5)">
<title>hpp::fcl::DistanceTraversalNodeBase</title>
<polygon fill="white" stroke="none" points="-4,4 -4,-897.5 1000,-897.5 1000,4 -4,4"/>
<!-- Node1 -->
<g id="node1" class="node"><title>Node1</title>
<polygon fill="#bfbfbf" stroke="black" points="177,-433 177,-463 311,-463 311,-433 177,-433"/>
<text text-anchor="start" x="185" y="-451" font-family="Helvetica,sans-Serif" font-size="10.00">hpp::fcl::DistanceTraversal</text>
<text text-anchor="middle" x="244" y="-440" font-family="Helvetica,sans-Serif" font-size="10.00">NodeBase</text>
</g>
<!-- Node3 -->
<g id="node3" class="node"><title>Node3</title>
<g id="a_node3"><a xlink:href="a00013.html" target="_top" xlink:title="hpp::fcl::BVHDistanceTraversal\lNode\&lt; kIOS \&gt;">
<polygon fill="white" stroke="black" points="372,-863 372,-893 527,-893 527,-863 372,-863"/>
<text text-anchor="start" x="380" y="-881" font-family="Helvetica,sans-Serif" font-size="10.00">hpp::fcl::BVHDistanceTraversal</text>
<text text-anchor="middle" x="449.5" y="-870" font-family="Helvetica,sans-Serif" font-size="10.00">Node&lt; kIOS &gt;</text>
</a>
</g>
</g>
<!-- Node1&#45;&gt;Node3 -->
<g id="edge2" class="edge"><title>Node1&#45;&gt;Node3</title>
<path fill="none" stroke="midnightblue" d="M247.999,-473.229C257.97,-552.936 292.5,-797.311 347,-852 353.998,-859.022 362.617,-864.233 371.849,-868.085"/>
<polygon fill="midnightblue" stroke="midnightblue" points="251.449,-472.61 246.755,-463.112 244.501,-473.464 251.449,-472.61"/>
</g>
<!-- Node6 -->
<g id="node6" class="node"><title>Node6</title>
<g id="a_node6"><a xlink:href="a00013.html" target="_top" xlink:title="hpp::fcl::BVHDistanceTraversal\lNode\&lt; OBBRSS \&gt;">
<polygon fill="white" stroke="black" points="372,-813 372,-843 527,-843 527,-813 372,-813"/>
<text text-anchor="start" x="380" y="-831" font-family="Helvetica,sans-Serif" font-size="10.00">hpp::fcl::BVHDistanceTraversal</text>
<text text-anchor="middle" x="449.5" y="-820" font-family="Helvetica,sans-Serif" font-size="10.00">Node&lt; OBBRSS &gt;</text>
</a>
</g>
</g>
<!-- Node1&#45;&gt;Node6 -->
<g id="edge5" class="edge"><title>Node1&#45;&gt;Node6</title>
<path fill="none" stroke="midnightblue" d="M244.405,-473.43C244.346,-537.967 253.489,-709.46 347,-801 354.036,-807.888 362.62,-813.071 371.786,-816.963"/>
<polygon fill="midnightblue" stroke="midnightblue" points="247.906,-473.37 244.493,-463.339 240.906,-473.309 247.906,-473.37"/>
</g>
<!-- Node9 -->
<g id="node9" class="node"><title>Node9</title>
<g id="a_node9"><a xlink:href="a00013.html" target="_top" xlink:title="hpp::fcl::BVHDistanceTraversal\lNode\&lt; RSS \&gt;">
<polygon fill="white" stroke="black" points="372,-762 372,-792 527,-792 527,-762 372,-762"/>
<text text-anchor="start" x="380" y="-780" font-family="Helvetica,sans-Serif" font-size="10.00">hpp::fcl::BVHDistanceTraversal</text>
<text text-anchor="middle" x="449.5" y="-769" font-family="Helvetica,sans-Serif" font-size="10.00">Node&lt; RSS &gt;</text>
</a>
</g>
</g>
<!-- Node1&#45;&gt;Node9 -->
<g id="edge8" class="edge"><title>Node1&#45;&gt;Node9</title>
<path fill="none" stroke="midnightblue" d="M246.111,-473.269C250.013,-530.477 267.62,-670.838 347,-747 354.094,-753.806 362.655,-759.078 371.762,-763.159"/>
<polygon fill="midnightblue" stroke="midnightblue" points="249.604,-473.056 245.514,-463.283 242.617,-473.474 249.604,-473.056"/>
</g>
<!-- Node12 -->
<g id="node12" class="node"><title>Node12</title>
<g id="a_node12"><a xlink:href="a00017.html" target="_top" xlink:title="hpp::fcl::BVHShapeDistance\lTraversalNode\&lt; kIOS, S \&gt;">
<polygon fill="white" stroke="black" points="378,-708 378,-738 521,-738 521,-708 378,-708"/>
<text text-anchor="start" x="386" y="-726" font-family="Helvetica,sans-Serif" font-size="10.00">hpp::fcl::BVHShapeDistance</text>
<text text-anchor="middle" x="449.5" y="-715" font-family="Helvetica,sans-Serif" font-size="10.00">TraversalNode&lt; kIOS, S &gt;</text>
</a>
</g>
</g>
<!-- Node1&#45;&gt;Node12 -->
<g id="edge11" class="edge"><title>Node1&#45;&gt;Node12</title>
<path fill="none" stroke="midnightblue" d="M248.313,-473.407C256.138,-523.025 280.399,-633.177 347,-693 355.817,-700.92 366.635,-706.753 377.885,-711.049"/>
<polygon fill="midnightblue" stroke="midnightblue" points="251.734,-472.615 246.808,-463.235 244.809,-473.64 251.734,-472.615"/>
</g>
<!-- Node15 -->
<g id="node15" class="node"><title>Node15</title>
<g id="a_node15"><a xlink:href="a00017.html" target="_top" xlink:title="hpp::fcl::BVHShapeDistance\lTraversalNode\&lt; OBBRSS, S \&gt;">
<polygon fill="white" stroke="black" points="373,-654 373,-684 526,-684 526,-654 373,-654"/>
<text text-anchor="start" x="381" y="-672" font-family="Helvetica,sans-Serif" font-size="10.00">hpp::fcl::BVHShapeDistance</text>
<text text-anchor="middle" x="449.5" y="-661" font-family="Helvetica,sans-Serif" font-size="10.00">TraversalNode&lt; OBBRSS, S &gt;</text>
</a>
</g>
</g>
<!-- Node1&#45;&gt;Node15 -->
<g id="edge14" class="edge"><title>Node1&#45;&gt;Node15</title>
<path fill="none" stroke="midnightblue" d="M250.837,-472.974C261.992,-514.978 290.425,-599.525 347,-644 354.633,-650.001 363.509,-654.585 372.774,-658.083"/>
<polygon fill="midnightblue" stroke="midnightblue" points="254.224,-472.09 248.367,-463.262 247.44,-473.816 254.224,-472.09"/>
</g>
<!-- Node18 -->
<g id="node18" class="node"><title>Node18</title>
<g id="a_node18"><a xlink:href="a00017.html" target="_top" xlink:title="hpp::fcl::BVHShapeDistance\lTraversalNode\&lt; RSS, S \&gt;">
<polygon fill="white" stroke="black" points="378,-605 378,-635 521,-635 521,-605 378,-605"/>
<text text-anchor="start" x="386" y="-623" font-family="Helvetica,sans-Serif" font-size="10.00">hpp::fcl::BVHShapeDistance</text>
<text text-anchor="middle" x="449.5" y="-612" font-family="Helvetica,sans-Serif" font-size="10.00">TraversalNode&lt; RSS, S &gt;</text>
</a>
</g>
</g>
<!-- Node1&#45;&gt;Node18 -->
<g id="edge17" class="edge"><title>Node1&#45;&gt;Node18</title>
<path fill="none" stroke="midnightblue" d="M255.279,-472.608C270.387,-505.673 301.783,-563.876 347,-595 356.268,-601.38 367.001,-606.136 377.945,-609.68"/>
<polygon fill="midnightblue" stroke="midnightblue" points="258.366,-470.937 251.115,-463.212 251.966,-473.772 258.366,-470.937"/>
</g>
<!-- Node21 -->
<g id="node21" class="node"><title>Node21</title>
<g id="a_node21"><a xlink:href="a00013.html" target="_top" xlink:title="Traversal node for distance computation between BVH models. ">
<polygon fill="white" stroke="black" points="372,-556 372,-586 527,-586 527,-556 372,-556"/>
<text text-anchor="start" x="380" y="-574" font-family="Helvetica,sans-Serif" font-size="10.00">hpp::fcl::BVHDistanceTraversal</text>
<text text-anchor="middle" x="449.5" y="-563" font-family="Helvetica,sans-Serif" font-size="10.00">Node&lt; BV &gt;</text>
</a>
</g>
</g>
<!-- Node1&#45;&gt;Node21 -->
<g id="edge20" class="edge"><title>Node1&#45;&gt;Node21</title>
<path fill="none" stroke="midnightblue" d="M262.89,-471.176C281.497,-493.665 312.668,-527.09 347,-546 354.71,-550.246 363.141,-553.781 371.744,-556.722"/>
<polygon fill="midnightblue" stroke="midnightblue" points="265.405,-468.718 256.394,-463.145 259.962,-473.121 265.405,-468.718"/>
</g>
<!-- Node23 -->
<g id="node23" class="node"><title>Node23</title>
<g id="a_node23"><a xlink:href="a00017.html" target="_top" xlink:title="Traversal node for distance computation between BVH and shape. ">
<polygon fill="white" stroke="black" points="378,-507 378,-537 521,-537 521,-507 378,-507"/>
<text text-anchor="start" x="386" y="-525" font-family="Helvetica,sans-Serif" font-size="10.00">hpp::fcl::BVHShapeDistance</text>
<text text-anchor="middle" x="449.5" y="-514" font-family="Helvetica,sans-Serif" font-size="10.00">TraversalNode&lt; BV, S &gt;</text>
</a>
</g>
</g>
<!-- Node1&#45;&gt;Node23 -->
<g id="edge22" class="edge"><title>Node1&#45;&gt;Node23</title>
<path fill="none" stroke="midnightblue" d="M281.433,-467.765C300.548,-477.55 324.595,-488.957 347,-497 357.249,-500.679 368.269,-504.007 379.136,-506.946"/>
<polygon fill="midnightblue" stroke="midnightblue" points="282.962,-464.616 272.474,-463.114 279.736,-470.828 282.962,-464.616"/>
</g>
<!-- Node25 -->
<g id="node25" class="node"><title>Node25</title>
<g id="a_node25"><a xlink:href="a00057.html" target="_top" xlink:title="Traversal node for mesh&#45;octree distance. ">
<polygon fill="white" stroke="black" points="347,-458 347,-488 552,-488 552,-458 347,-458"/>
<text text-anchor="start" x="355" y="-476" font-family="Helvetica,sans-Serif" font-size="10.00">hpp::fcl::MeshOcTreeDistance</text>
<text text-anchor="middle" x="449.5" y="-465" font-family="Helvetica,sans-Serif" font-size="10.00">TraversalNode&lt; BV, NarrowPhaseSolver &gt;</text>
</a>
</g>
</g>
<!-- Node1&#45;&gt;Node25 -->
<g id="edge24" class="edge"><title>Node1&#45;&gt;Node25</title>
<path fill="none" stroke="midnightblue" d="M321.192,-457.36C329.604,-458.394 338.266,-459.458 346.926,-460.522"/>
<polygon fill="midnightblue" stroke="midnightblue" points="321.423,-453.862 311.071,-456.117 320.569,-460.81 321.423,-453.862"/>
</g>
<!-- Node26 -->
<g id="node26" class="node"><title>Node26</title>
<g id="a_node26"><a xlink:href="a00072.html" target="_top" xlink:title="Traversal node for octree distance. ">
<polygon fill="white" stroke="black" points="357,-409 357,-439 542,-439 542,-409 357,-409"/>
<text text-anchor="start" x="365" y="-427" font-family="Helvetica,sans-Serif" font-size="10.00">hpp::fcl::OcTreeDistance</text>
<text text-anchor="middle" x="449.5" y="-416" font-family="Helvetica,sans-Serif" font-size="10.00">TraversalNode&lt; NarrowPhaseSolver &gt;</text>
</a>
</g>
</g>
<!-- Node1&#45;&gt;Node26 -->
<g id="edge25" class="edge"><title>Node1&#45;&gt;Node26</title>
<path fill="none" stroke="midnightblue" d="M321.166,-439.017C332.814,-437.644 344.939,-436.214 356.877,-434.806"/>
<polygon fill="midnightblue" stroke="midnightblue" points="320.592,-435.561 311.071,-440.208 321.412,-442.512 320.592,-435.561"/>
</g>
<!-- Node27 -->
<g id="node27" class="node"><title>Node27</title>
<g id="a_node27"><a xlink:href="a00074.html" target="_top" xlink:title="Traversal node for octree&#45;mesh distance. ">
<polygon fill="white" stroke="black" points="347,-360 347,-390 552,-390 552,-360 347,-360"/>
<text text-anchor="start" x="355" y="-378" font-family="Helvetica,sans-Serif" font-size="10.00">hpp::fcl::OcTreeMeshDistance</text>
<text text-anchor="middle" x="449.5" y="-367" font-family="Helvetica,sans-Serif" font-size="10.00">TraversalNode&lt; BV, NarrowPhaseSolver &gt;</text>
</a>
</g>
</g>
<!-- Node1&#45;&gt;Node27 -->
<g id="edge26" class="edge"><title>Node1&#45;&gt;Node27</title>
<path fill="none" stroke="midnightblue" d="M281.402,-428.148C300.509,-418.34 324.558,-406.939 347,-399 356.389,-395.679 366.429,-392.677 376.406,-390.01"/>
<polygon fill="midnightblue" stroke="midnightblue" points="279.699,-425.088 272.448,-432.812 282.933,-431.296 279.699,-425.088"/>
</g>
<!-- Node28 -->
<g id="node28" class="node"><title>Node28</title>
<g id="a_node28"><a xlink:href="a00076.html" target="_top" xlink:title="Traversal node for octree&#45;shape distance. ">
<polygon fill="white" stroke="black" points="350.5,-311 350.5,-341 548.5,-341 548.5,-311 350.5,-311"/>
<text text-anchor="start" x="358.5" y="-329" font-family="Helvetica,sans-Serif" font-size="10.00">hpp::fcl::OcTreeShapeDistance</text>
<text text-anchor="middle" x="449.5" y="-318" font-family="Helvetica,sans-Serif" font-size="10.00">TraversalNode&lt; S, NarrowPhaseSolver &gt;</text>
</a>
</g>
</g>
<!-- Node1&#45;&gt;Node28 -->
<g id="edge27" class="edge"><title>Node1&#45;&gt;Node28</title>
<path fill="none" stroke="midnightblue" d="M262.853,-424.756C281.43,-402.214 312.58,-368.75 347,-350 353.36,-346.535 360.211,-343.567 367.244,-341.025"/>
<polygon fill="midnightblue" stroke="midnightblue" points="259.915,-422.824 256.368,-432.808 265.367,-427.215 259.915,-422.824"/>
</g>
<!-- Node29 -->
<g id="node29" class="node"><title>Node29</title>
<g id="a_node29"><a xlink:href="a00090.html" target="_top" xlink:title="Traversal node for distance computation between shape and BVH. ">
<polygon fill="white" stroke="black" points="378,-262 378,-292 521,-292 521,-262 378,-262"/>
<text text-anchor="start" x="386" y="-280" font-family="Helvetica,sans-Serif" font-size="10.00">hpp::fcl::ShapeBVHDistance</text>
<text text-anchor="middle" x="449.5" y="-269" font-family="Helvetica,sans-Serif" font-size="10.00">TraversalNode&lt; S, BV &gt;</text>
</a>
</g>
</g>
<!-- Node1&#45;&gt;Node29 -->
<g id="edge28" class="edge"><title>Node1&#45;&gt;Node29</title>
<path fill="none" stroke="midnightblue" d="M255.237,-423.331C270.298,-390.196 301.638,-331.913 347,-301 356.277,-294.678 367.014,-290.01 377.96,-286.567"/>
<polygon fill="midnightblue" stroke="midnightblue" points="251.917,-422.186 251.088,-432.749 258.323,-425.009 251.917,-422.186"/>
</g>
<!-- Node31 -->
<g id="node31" class="node"><title>Node31</title>
<g id="a_node31"><a xlink:href="a00092.html" target="_top" xlink:title="Traversal node for distance between two shapes. ">
<polygon fill="white" stroke="black" points="359,-213 359,-243 540,-243 540,-213 359,-213"/>
<text text-anchor="start" x="367" y="-231" font-family="Helvetica,sans-Serif" font-size="10.00">hpp::fcl::ShapeDistanceTraversal</text>
<text text-anchor="middle" x="449.5" y="-220" font-family="Helvetica,sans-Serif" font-size="10.00">Node&lt; S1, S2, NarrowPhaseSolver &gt;</text>
</a>
</g>
</g>
<!-- Node1&#45;&gt;Node31 -->
<g id="edge30" class="edge"><title>Node1&#45;&gt;Node31</title>
<path fill="none" stroke="midnightblue" d="M250.782,-423.012C261.863,-380.938 290.2,-296.226 347,-252 351.429,-248.551 356.274,-245.586 361.369,-243.038"/>
<polygon fill="midnightblue" stroke="midnightblue" points="247.321,-422.423 248.273,-432.975 254.109,-424.133 247.321,-422.423"/>
</g>
<!-- Node32 -->
<g id="node32" class="node"><title>Node32</title>
<g id="a_node32"><a xlink:href="a00103.html" target="_top" xlink:title="Traversal node for shape&#45;octree distance. ">
<polygon fill="white" stroke="black" points="350.5,-164 350.5,-194 548.5,-194 548.5,-164 350.5,-164"/>
<text text-anchor="start" x="358.5" y="-182" font-family="Helvetica,sans-Serif" font-size="10.00">hpp::fcl::ShapeOcTreeDistance</text>
<text text-anchor="middle" x="449.5" y="-171" font-family="Helvetica,sans-Serif" font-size="10.00">TraversalNode&lt; S, NarrowPhaseSolver &gt;</text>
</a>
</g>
</g>
<!-- Node1&#45;&gt;Node32 -->
<g id="edge31" class="edge"><title>Node1&#45;&gt;Node32</title>
<path fill="none" stroke="midnightblue" d="M247.931,-422.943C255.145,-373.079 278.467,-261.223 347,-203 351.002,-199.6 355.4,-196.663 360.052,-194.126"/>
<polygon fill="midnightblue" stroke="midnightblue" points="244.46,-422.494 246.592,-432.872 251.398,-423.43 244.46,-422.494"/>
</g>
<!-- Node33 -->
<g id="node33" class="node"><title>Node33</title>
<g id="a_node33"><a xlink:href="a00090.html" target="_top" xlink:title="hpp::fcl::ShapeBVHDistance\lTraversalNode\&lt; S, kIOS \&gt;">
<polygon fill="white" stroke="black" points="378,-115 378,-145 521,-145 521,-115 378,-115"/>
<text text-anchor="start" x="386" y="-133" font-family="Helvetica,sans-Serif" font-size="10.00">hpp::fcl::ShapeBVHDistance</text>
<text text-anchor="middle" x="449.5" y="-122" font-family="Helvetica,sans-Serif" font-size="10.00">TraversalNode&lt; S, kIOS &gt;</text>
</a>
</g>
</g>
<!-- Node1&#45;&gt;Node33 -->
<g id="edge32" class="edge"><title>Node1&#45;&gt;Node33</title>
<path fill="none" stroke="midnightblue" d="M245.987,-422.48C249.634,-365.344 266.746,-226.477 347,-154 355.735,-146.111 366.578,-140.682 377.895,-136.97"/>
<polygon fill="midnightblue" stroke="midnightblue" points="242.475,-422.597 245.422,-432.774 249.465,-422.98 242.475,-422.597"/>
</g>
<!-- Node36 -->
<g id="node36" class="node"><title>Node36</title>
<g id="a_node36"><a xlink:href="a00090.html" target="_top" xlink:title="hpp::fcl::ShapeBVHDistance\lTraversalNode\&lt; S, OBBRSS \&gt;">
<polygon fill="white" stroke="black" points="373,-66 373,-96 526,-96 526,-66 373,-66"/>
<text text-anchor="start" x="381" y="-84" font-family="Helvetica,sans-Serif" font-size="10.00">hpp::fcl::ShapeBVHDistance</text>
<text text-anchor="middle" x="449.5" y="-73" font-family="Helvetica,sans-Serif" font-size="10.00">TraversalNode&lt; S, OBBRSS &gt;</text>
</a>
</g>
</g>
<!-- Node1&#45;&gt;Node36 -->
<g id="edge35" class="edge"><title>Node1&#45;&gt;Node36</title>
<path fill="none" stroke="midnightblue" d="M244.51,-422.728C244.733,-359.321 254.552,-192.335 347,-105 354.371,-98.0365 363.374,-92.9711 372.943,-89.3066"/>
<polygon fill="midnightblue" stroke="midnightblue" points="241.011,-423.006 244.557,-432.99 248.011,-422.974 241.011,-423.006"/>
</g>
<!-- Node39 -->
<g id="node39" class="node"><title>Node39</title>
<g id="a_node39"><a xlink:href="a00090.html" target="_top" xlink:title="hpp::fcl::ShapeBVHDistance\lTraversalNode\&lt; S, RSS \&gt;">
<polygon fill="white" stroke="black" points="378,-11 378,-41 521,-41 521,-11 378,-11"/>
<text text-anchor="start" x="386" y="-29" font-family="Helvetica,sans-Serif" font-size="10.00">hpp::fcl::ShapeBVHDistance</text>
<text text-anchor="middle" x="449.5" y="-18" font-family="Helvetica,sans-Serif" font-size="10.00">TraversalNode&lt; S, RSS &gt;</text>
</a>
</g>
</g>
<!-- Node1&#45;&gt;Node39 -->
<g id="edge38" class="edge"><title>Node1&#45;&gt;Node39</title>
<path fill="none" stroke="midnightblue" d="M248.327,-422.594C259.045,-344.45 295.03,-109.705 347,-56 355.497,-47.2189 366.429,-40.9755 377.957,-36.5439"/>
<polygon fill="midnightblue" stroke="midnightblue" points="244.798,-422.569 246.93,-432.947 251.736,-423.505 244.798,-422.569"/>
</g>
<!-- Node2 -->
<g id="node2" class="node"><title>Node2</title>
<g id="a_node2"><a xlink:href="a00108.html" target="_top" xlink:title="Node structure encoding the information required for traversal. ">
<polygon fill="white" stroke="black" points="0,-438.5 0,-457.5 141,-457.5 141,-438.5 0,-438.5"/>
<text text-anchor="middle" x="70.5" y="-445.5" font-family="Helvetica,sans-Serif" font-size="10.00">hpp::fcl::TraversalNodeBase</text>
</a>
</g>
</g>
<!-- Node2&#45;&gt;Node1 -->
<g id="edge1" class="edge"><title>Node2&#45;&gt;Node1</title>
<path fill="none" stroke="midnightblue" d="M151.271,-448C159.852,-448 168.513,-448 176.908,-448"/>
<polygon fill="midnightblue" stroke="midnightblue" points="151.256,-444.5 141.256,-448 151.256,-451.5 151.256,-444.5"/>
</g>
<!-- Node4 -->
<g id="node4" class="node"><title>Node4</title>
<g id="a_node4"><a xlink:href="a00051.html" target="_top" xlink:title="hpp::fcl::MeshDistanceTraversal\lNode\&lt; kIOS \&gt;">
<polygon fill="white" stroke="black" points="603,-863 603,-893 761,-893 761,-863 603,-863"/>
<text text-anchor="start" x="611" y="-881" font-family="Helvetica,sans-Serif" font-size="10.00">hpp::fcl::MeshDistanceTraversal</text>
<text text-anchor="middle" x="682" y="-870" font-family="Helvetica,sans-Serif" font-size="10.00">Node&lt; kIOS &gt;</text>
</a>
</g>
</g>
<!-- Node3&#45;&gt;Node4 -->
<g id="edge3" class="edge"><title>Node3&#45;&gt;Node4</title>
<path fill="none" stroke="midnightblue" d="M537.321,-878C558.761,-878 581.601,-878 602.614,-878"/>
<polygon fill="midnightblue" stroke="midnightblue" points="537.253,-874.5 527.253,-878 537.253,-881.5 537.253,-874.5"/>
</g>
<!-- Node5 -->
<g id="node5" class="node"><title>Node5</title>
<g id="a_node5"><a xlink:href="a00052.html" target="_top" xlink:title="hpp::fcl::MeshDistanceTraversal\lNodekIOS">
<polygon fill="white" stroke="black" points="825,-863 825,-893 983,-893 983,-863 825,-863"/>
<text text-anchor="start" x="833" y="-881" font-family="Helvetica,sans-Serif" font-size="10.00">hpp::fcl::MeshDistanceTraversal</text>
<text text-anchor="middle" x="904" y="-870" font-family="Helvetica,sans-Serif" font-size="10.00">NodekIOS</text>
</a>
</g>
</g>
<!-- Node4&#45;&gt;Node5 -->
<g id="edge4" class="edge"><title>Node4&#45;&gt;Node5</title>
<path fill="none" stroke="midnightblue" d="M771.452,-878C789.068,-878 807.451,-878 824.698,-878"/>
<polygon fill="midnightblue" stroke="midnightblue" points="771.183,-874.5 761.183,-878 771.183,-881.5 771.183,-874.5"/>
</g>
<!-- Node7 -->
<g id="node7" class="node"><title>Node7</title>
<g id="a_node7"><a xlink:href="a00051.html" target="_top" xlink:title="hpp::fcl::MeshDistanceTraversal\lNode\&lt; OBBRSS \&gt;">
<polygon fill="white" stroke="black" points="603,-814 603,-844 761,-844 761,-814 603,-814"/>
<text text-anchor="start" x="611" y="-832" font-family="Helvetica,sans-Serif" font-size="10.00">hpp::fcl::MeshDistanceTraversal</text>
<text text-anchor="middle" x="682" y="-821" font-family="Helvetica,sans-Serif" font-size="10.00">Node&lt; OBBRSS &gt;</text>
</a>
</g>
</g>
<!-- Node6&#45;&gt;Node7 -->
<g id="edge6" class="edge"><title>Node6&#45;&gt;Node7</title>
<path fill="none" stroke="midnightblue" d="M537.321,-828.377C558.761,-828.47 581.601,-828.569 602.614,-828.66"/>
<polygon fill="midnightblue" stroke="midnightblue" points="537.268,-824.877 527.253,-828.333 537.238,-831.876 537.268,-824.877"/>
</g>
<!-- Node8 -->
<g id="node8" class="node"><title>Node8</title>
<g id="a_node8"><a xlink:href="a00053.html" target="_top" xlink:title="hpp::fcl::MeshDistanceTraversal\lNodeOBBRSS">
<polygon fill="white" stroke="black" points="825,-814 825,-844 983,-844 983,-814 825,-814"/>
<text text-anchor="start" x="833" y="-832" font-family="Helvetica,sans-Serif" font-size="10.00">hpp::fcl::MeshDistanceTraversal</text>
<text text-anchor="middle" x="904" y="-821" font-family="Helvetica,sans-Serif" font-size="10.00">NodeOBBRSS</text>
</a>
</g>
</g>
<!-- Node7&#45;&gt;Node8 -->
<g id="edge7" class="edge"><title>Node7&#45;&gt;Node8</title>
<path fill="none" stroke="midnightblue" d="M771.452,-829C789.068,-829 807.451,-829 824.698,-829"/>
<polygon fill="midnightblue" stroke="midnightblue" points="771.183,-825.5 761.183,-829 771.183,-832.5 771.183,-825.5"/>
</g>
<!-- Node10 -->
<g id="node10" class="node"><title>Node10</title>
<g id="a_node10"><a xlink:href="a00051.html" target="_top" xlink:title="hpp::fcl::MeshDistanceTraversal\lNode\&lt; RSS \&gt;">
<polygon fill="white" stroke="black" points="603,-765 603,-795 761,-795 761,-765 603,-765"/>
<text text-anchor="start" x="611" y="-783" font-family="Helvetica,sans-Serif" font-size="10.00">hpp::fcl::MeshDistanceTraversal</text>
<text text-anchor="middle" x="682" y="-772" font-family="Helvetica,sans-Serif" font-size="10.00">Node&lt; RSS &gt;</text>
</a>
</g>
</g>
<!-- Node9&#45;&gt;Node10 -->
<g id="edge9" class="edge"><title>Node9&#45;&gt;Node10</title>
<path fill="none" stroke="midnightblue" d="M537.321,-778.13C558.761,-778.409 581.601,-778.706 602.614,-778.98"/>
<polygon fill="midnightblue" stroke="midnightblue" points="537.298,-774.629 527.253,-777.999 537.207,-781.629 537.298,-774.629"/>
</g>
<!-- Node11 -->
<g id="node11" class="node"><title>Node11</title>
<g id="a_node11"><a xlink:href="a00054.html" target="_top" xlink:title="Traversal node for distance computation between two meshes if their underlying BVH node is oriented n...">
<polygon fill="white" stroke="black" points="825,-765 825,-795 983,-795 983,-765 825,-765"/>
<text text-anchor="start" x="833" y="-783" font-family="Helvetica,sans-Serif" font-size="10.00">hpp::fcl::MeshDistanceTraversal</text>
<text text-anchor="middle" x="904" y="-772" font-family="Helvetica,sans-Serif" font-size="10.00">NodeRSS</text>
</a>
</g>
</g>
<!-- Node10&#45;&gt;Node11 -->
<g id="edge10" class="edge"><title>Node10&#45;&gt;Node11</title>
<path fill="none" stroke="midnightblue" d="M771.452,-780C789.068,-780 807.451,-780 824.698,-780"/>
<polygon fill="midnightblue" stroke="midnightblue" points="771.183,-776.5 761.183,-780 771.183,-783.5 771.183,-776.5"/>
</g>
<!-- Node13 -->
<g id="node13" class="node"><title>Node13</title>
<g id="a_node13"><a xlink:href="a00063.html" target="_top" xlink:title="hpp::fcl::MeshShapeDistance\lTraversalNode\&lt; kIOS, S,\l NarrowPhaseSolver \&gt;">
<polygon fill="white" stroke="black" points="609,-705.5 609,-746.5 755,-746.5 755,-705.5 609,-705.5"/>
<text text-anchor="start" x="617" y="-734.5" font-family="Helvetica,sans-Serif" font-size="10.00">hpp::fcl::MeshShapeDistance</text>
<text text-anchor="start" x="617" y="-723.5" font-family="Helvetica,sans-Serif" font-size="10.00">TraversalNode&lt; kIOS, S,</text>
<text text-anchor="middle" x="682" y="-712.5" font-family="Helvetica,sans-Serif" font-size="10.00"> NarrowPhaseSolver &gt;</text>
</a>
</g>
</g>
<!-- Node12&#45;&gt;Node13 -->
<g id="edge12" class="edge"><title>Node12&#45;&gt;Node13</title>
<path fill="none" stroke="midnightblue" d="M531.485,-724.054C556.676,-724.382 584.27,-724.741 608.818,-725.061"/>
<polygon fill="midnightblue" stroke="midnightblue" points="531.269,-720.551 521.224,-723.92 531.178,-727.55 531.269,-720.551"/>
</g>
<!-- Node14 -->
<g id="node14" class="node"><title>Node14</title>
<g id="a_node14"><a xlink:href="a00064.html" target="_top" xlink:title="hpp::fcl::MeshShapeDistance\lTraversalNodekIOS\&lt; S, NarrowPhase\lSolver \&gt;">
<polygon fill="white" stroke="black" points="812,-705.5 812,-746.5 996,-746.5 996,-705.5 812,-705.5"/>
<text text-anchor="start" x="820" y="-734.5" font-family="Helvetica,sans-Serif" font-size="10.00">hpp::fcl::MeshShapeDistance</text>
<text text-anchor="start" x="820" y="-723.5" font-family="Helvetica,sans-Serif" font-size="10.00">TraversalNodekIOS&lt; S, NarrowPhase</text>
<text text-anchor="middle" x="904" y="-712.5" font-family="Helvetica,sans-Serif" font-size="10.00">Solver &gt;</text>
</a>
</g>
</g>
<!-- Node13&#45;&gt;Node14 -->
<g id="edge13" class="edge"><title>Node13&#45;&gt;Node14</title>
<path fill="none" stroke="midnightblue" d="M765.408,-726C780.584,-726 796.51,-726 811.925,-726"/>
<polygon fill="midnightblue" stroke="midnightblue" points="765.036,-722.5 755.036,-726 765.036,-729.5 765.036,-722.5"/>
</g>
<!-- Node16 -->
<g id="node16" class="node"><title>Node16</title>
<g id="a_node16"><a xlink:href="a00063.html" target="_top" xlink:title="hpp::fcl::MeshShapeDistance\lTraversalNode\&lt; OBBRSS, S,\l NarrowPhaseSolver \&gt;">
<polygon fill="white" stroke="black" points="608.5,-645.5 608.5,-686.5 755.5,-686.5 755.5,-645.5 608.5,-645.5"/>
<text text-anchor="start" x="616.5" y="-674.5" font-family="Helvetica,sans-Serif" font-size="10.00">hpp::fcl::MeshShapeDistance</text>
<text text-anchor="start" x="616.5" y="-663.5" font-family="Helvetica,sans-Serif" font-size="10.00">TraversalNode&lt; OBBRSS, S,</text>
<text text-anchor="middle" x="682" y="-652.5" font-family="Helvetica,sans-Serif" font-size="10.00"> NarrowPhaseSolver &gt;</text>
</a>
</g>
</g>
<!-- Node15&#45;&gt;Node16 -->
<g id="edge15" class="edge"><title>Node15&#45;&gt;Node16</title>
<path fill="none" stroke="midnightblue" d="M536.318,-667.883C559.992,-667.575 585.442,-667.244 608.295,-666.946"/>
<polygon fill="midnightblue" stroke="midnightblue" points="536.247,-664.384 526.294,-668.014 536.338,-671.383 536.247,-664.384"/>
</g>
<!-- Node17 -->
<g id="node17" class="node"><title>Node17</title>
<g id="a_node17"><a xlink:href="a00065.html" target="_top" xlink:title="hpp::fcl::MeshShapeDistance\lTraversalNodeOBBRSS\&lt; S,\l NarrowPhaseSolver \&gt;">
<polygon fill="white" stroke="black" points="831,-645.5 831,-686.5 977,-686.5 977,-645.5 831,-645.5"/>
<text text-anchor="start" x="839" y="-674.5" font-family="Helvetica,sans-Serif" font-size="10.00">hpp::fcl::MeshShapeDistance</text>
<text text-anchor="start" x="839" y="-663.5" font-family="Helvetica,sans-Serif" font-size="10.00">TraversalNodeOBBRSS&lt; S,</text>
<text text-anchor="middle" x="904" y="-652.5" font-family="Helvetica,sans-Serif" font-size="10.00"> NarrowPhaseSolver &gt;</text>
</a>
</g>
</g>
<!-- Node16&#45;&gt;Node17 -->
<g id="edge16" class="edge"><title>Node16&#45;&gt;Node17</title>
<path fill="none" stroke="midnightblue" d="M765.692,-666C787.101,-666 809.982,-666 830.806,-666"/>
<polygon fill="midnightblue" stroke="midnightblue" points="765.646,-662.5 755.646,-666 765.646,-669.5 765.646,-662.5"/>
</g>
<!-- Node19 -->
<g id="node19" class="node"><title>Node19</title>
<g id="a_node19"><a xlink:href="a00063.html" target="_top" xlink:title="hpp::fcl::MeshShapeDistance\lTraversalNode\&lt; RSS, S, NarrowPhase\lSolver \&gt;">
<polygon fill="white" stroke="black" points="588,-585.5 588,-626.5 776,-626.5 776,-585.5 588,-585.5"/>
<text text-anchor="start" x="596" y="-614.5" font-family="Helvetica,sans-Serif" font-size="10.00">hpp::fcl::MeshShapeDistance</text>
<text text-anchor="start" x="596" y="-603.5" font-family="Helvetica,sans-Serif" font-size="10.00">TraversalNode&lt; RSS, S, NarrowPhase</text>
<text text-anchor="middle" x="682" y="-592.5" font-family="Helvetica,sans-Serif" font-size="10.00">Solver &gt;</text>
</a>
</g>
</g>
<!-- Node18&#45;&gt;Node19 -->
<g id="edge18" class="edge"><title>Node18&#45;&gt;Node19</title>
<path fill="none" stroke="midnightblue" d="M531.245,-615.096C549.544,-613.984 569.122,-612.795 587.886,-611.656"/>
<polygon fill="midnightblue" stroke="midnightblue" points="530.993,-611.604 521.224,-615.704 531.418,-618.592 530.993,-611.604"/>
</g>
<!-- Node20 -->
<g id="node20" class="node"><title>Node20</title>
<g id="a_node20"><a xlink:href="a00066.html" target="_top" xlink:title="Traversal node for distance between mesh and shape, when mesh BVH is one of the oriented node (RSS...">
<polygon fill="white" stroke="black" points="813,-585.5 813,-626.5 995,-626.5 995,-585.5 813,-585.5"/>
<text text-anchor="start" x="821" y="-614.5" font-family="Helvetica,sans-Serif" font-size="10.00">hpp::fcl::MeshShapeDistance</text>
<text text-anchor="start" x="821" y="-603.5" font-family="Helvetica,sans-Serif" font-size="10.00">TraversalNodeRSS&lt; S, NarrowPhase</text>
<text text-anchor="middle" x="904" y="-592.5" font-family="Helvetica,sans-Serif" font-size="10.00">Solver &gt;</text>
</a>
</g>
</g>
<!-- Node19&#45;&gt;Node20 -->
<g id="edge19" class="edge"><title>Node19&#45;&gt;Node20</title>
<path fill="none" stroke="midnightblue" d="M786.529,-606C795.276,-606 804.078,-606 812.712,-606"/>
<polygon fill="midnightblue" stroke="midnightblue" points="786.3,-602.5 776.3,-606 786.3,-609.5 786.3,-602.5"/>
</g>
<!-- Node22 -->
<g id="node22" class="node"><title>Node22</title>
<g id="a_node22"><a xlink:href="a00051.html" target="_top" xlink:title="Traversal node for distance computation between two meshes. ">
<polygon fill="white" stroke="black" points="603,-537 603,-567 761,-567 761,-537 603,-537"/>
<text text-anchor="start" x="611" y="-555" font-family="Helvetica,sans-Serif" font-size="10.00">hpp::fcl::MeshDistanceTraversal</text>
<text text-anchor="middle" x="682" y="-544" font-family="Helvetica,sans-Serif" font-size="10.00">Node&lt; BV &gt;</text>
</a>
</g>
</g>
<!-- Node21&#45;&gt;Node22 -->
<g id="edge21" class="edge"><title>Node21&#45;&gt;Node22</title>
<path fill="none" stroke="midnightblue" d="M537.321,-563.843C558.761,-562.076 581.601,-560.193 602.614,-558.461"/>
<polygon fill="midnightblue" stroke="midnightblue" points="536.932,-560.364 527.253,-564.673 537.507,-567.34 536.932,-560.364"/>
</g>
<!-- Node24 -->
<g id="node24" class="node"><title>Node24</title>
<g id="a_node24"><a xlink:href="a00063.html" target="_top" xlink:title="Traversal node for distance between mesh and shape. ">
<polygon fill="white" stroke="black" points="609,-488 609,-518 755,-518 755,-488 609,-488"/>
<text text-anchor="start" x="617" y="-506" font-family="Helvetica,sans-Serif" font-size="10.00">hpp::fcl::MeshShapeDistance</text>
<text text-anchor="middle" x="682" y="-495" font-family="Helvetica,sans-Serif" font-size="10.00">TraversalNode&lt; BV, S &gt;</text>
</a>
</g>
</g>
<!-- Node23&#45;&gt;Node24 -->
<g id="edge23" class="edge"><title>Node23&#45;&gt;Node24</title>
<path fill="none" stroke="midnightblue" d="M531.485,-515.324C556.676,-513.248 584.27,-510.973 608.818,-508.95"/>
<polygon fill="midnightblue" stroke="midnightblue" points="530.903,-511.86 521.224,-516.17 531.478,-518.837 530.903,-511.86"/>
</g>
<!-- Node30 -->
<g id="node30" class="node"><title>Node30</title>
<g id="a_node30"><a xlink:href="a00098.html" target="_top" xlink:title="Traversal node for distance between shape and mesh. ">
<polygon fill="white" stroke="black" points="609,-262 609,-292 755,-292 755,-262 609,-262"/>
<text text-anchor="start" x="617" y="-280" font-family="Helvetica,sans-Serif" font-size="10.00">hpp::fcl::ShapeMeshDistance</text>
<text text-anchor="middle" x="682" y="-269" font-family="Helvetica,sans-Serif" font-size="10.00">TraversalNode&lt; S, BV &gt;</text>
</a>
</g>
</g>
<!-- Node29&#45;&gt;Node30 -->
<g id="edge29" class="edge"><title>Node29&#45;&gt;Node30</title>
<path fill="none" stroke="midnightblue" d="M531.485,-277C556.676,-277 584.27,-277 608.818,-277"/>
<polygon fill="midnightblue" stroke="midnightblue" points="531.224,-273.5 521.224,-277 531.224,-280.5 531.224,-273.5"/>
</g>
<!-- Node34 -->
<g id="node34" class="node"><title>Node34</title>
<g id="a_node34"><a xlink:href="a00098.html" target="_top" xlink:title="hpp::fcl::ShapeMeshDistance\lTraversalNode\&lt; S, kIOS,\l NarrowPhaseSolver \&gt;">
<polygon fill="white" stroke="black" points="609,-120.5 609,-161.5 755,-161.5 755,-120.5 609,-120.5"/>
<text text-anchor="start" x="617" y="-149.5" font-family="Helvetica,sans-Serif" font-size="10.00">hpp::fcl::ShapeMeshDistance</text>
<text text-anchor="start" x="617" y="-138.5" font-family="Helvetica,sans-Serif" font-size="10.00">TraversalNode&lt; S, kIOS,</text>
<text text-anchor="middle" x="682" y="-127.5" font-family="Helvetica,sans-Serif" font-size="10.00"> NarrowPhaseSolver &gt;</text>
</a>
</g>
</g>
<!-- Node33&#45;&gt;Node34 -->
<g id="edge33" class="edge"><title>Node33&#45;&gt;Node34</title>
<path fill="none" stroke="midnightblue" d="M531.485,-133.865C556.676,-135.067 584.27,-136.384 608.818,-137.555"/>
<polygon fill="midnightblue" stroke="midnightblue" points="531.38,-130.356 521.224,-133.375 531.046,-137.348 531.38,-130.356"/>
</g>
<!-- Node35 -->
<g id="node35" class="node"><title>Node35</title>
<g id="a_node35"><a xlink:href="a00099.html" target="_top" xlink:title="hpp::fcl::ShapeMeshDistance\lTraversalNodekIOS\&lt; S, NarrowPhase\lSolver \&gt;">
<polygon fill="white" stroke="black" points="812,-120.5 812,-161.5 996,-161.5 996,-120.5 812,-120.5"/>
<text text-anchor="start" x="820" y="-149.5" font-family="Helvetica,sans-Serif" font-size="10.00">hpp::fcl::ShapeMeshDistance</text>
<text text-anchor="start" x="820" y="-138.5" font-family="Helvetica,sans-Serif" font-size="10.00">TraversalNodekIOS&lt; S, NarrowPhase</text>
<text text-anchor="middle" x="904" y="-127.5" font-family="Helvetica,sans-Serif" font-size="10.00">Solver &gt;</text>
</a>
</g>
</g>
<!-- Node34&#45;&gt;Node35 -->
<g id="edge34" class="edge"><title>Node34&#45;&gt;Node35</title>
<path fill="none" stroke="midnightblue" d="M765.408,-141C780.584,-141 796.51,-141 811.925,-141"/>
<polygon fill="midnightblue" stroke="midnightblue" points="765.036,-137.5 755.036,-141 765.036,-144.5 765.036,-137.5"/>
</g>
<!-- Node37 -->
<g id="node37" class="node"><title>Node37</title>
<g id="a_node37"><a xlink:href="a00098.html" target="_top" xlink:title="hpp::fcl::ShapeMeshDistance\lTraversalNode\&lt; S, OBBRSS,\l NarrowPhaseSolver \&gt;">
<polygon fill="white" stroke="black" points="608.5,-60.5 608.5,-101.5 755.5,-101.5 755.5,-60.5 608.5,-60.5"/>
<text text-anchor="start" x="616.5" y="-89.5" font-family="Helvetica,sans-Serif" font-size="10.00">hpp::fcl::ShapeMeshDistance</text>
<text text-anchor="start" x="616.5" y="-78.5" font-family="Helvetica,sans-Serif" font-size="10.00">TraversalNode&lt; S, OBBRSS,</text>
<text text-anchor="middle" x="682" y="-67.5" font-family="Helvetica,sans-Serif" font-size="10.00"> NarrowPhaseSolver &gt;</text>
</a>
</g>
</g>
<!-- Node36&#45;&gt;Node37 -->
<g id="edge36" class="edge"><title>Node36&#45;&gt;Node37</title>
<path fill="none" stroke="midnightblue" d="M536.318,-81C559.992,-81 585.442,-81 608.295,-81"/>
<polygon fill="midnightblue" stroke="midnightblue" points="536.294,-77.5001 526.294,-81 536.294,-84.5001 536.294,-77.5001"/>
</g>
<!-- Node38 -->
<g id="node38" class="node"><title>Node38</title>
<g id="a_node38"><a xlink:href="a00100.html" target="_top" xlink:title="hpp::fcl::ShapeMeshDistance\lTraversalNodeOBBRSS\&lt; S,\l NarrowPhaseSolver \&gt;">
<polygon fill="white" stroke="black" points="831,-60.5 831,-101.5 977,-101.5 977,-60.5 831,-60.5"/>
<text text-anchor="start" x="839" y="-89.5" font-family="Helvetica,sans-Serif" font-size="10.00">hpp::fcl::ShapeMeshDistance</text>
<text text-anchor="start" x="839" y="-78.5" font-family="Helvetica,sans-Serif" font-size="10.00">TraversalNodeOBBRSS&lt; S,</text>
<text text-anchor="middle" x="904" y="-67.5" font-family="Helvetica,sans-Serif" font-size="10.00"> NarrowPhaseSolver &gt;</text>
</a>
</g>
</g>
<!-- Node37&#45;&gt;Node38 -->
<g id="edge37" class="edge"><title>Node37&#45;&gt;Node38</title>
<path fill="none" stroke="midnightblue" d="M765.692,-81C787.101,-81 809.982,-81 830.806,-81"/>
<polygon fill="midnightblue" stroke="midnightblue" points="765.646,-77.5001 755.646,-81 765.646,-84.5001 765.646,-77.5001"/>
</g>
<!-- Node40 -->
<g id="node40" class="node"><title>Node40</title>
<g id="a_node40"><a xlink:href="a00098.html" target="_top" xlink:title="hpp::fcl::ShapeMeshDistance\lTraversalNode\&lt; S, RSS, NarrowPhase\lSolver \&gt;">
<polygon fill="white" stroke="black" points="588,-0.5 588,-41.5 776,-41.5 776,-0.5 588,-0.5"/>
<text text-anchor="start" x="596" y="-29.5" font-family="Helvetica,sans-Serif" font-size="10.00">hpp::fcl::ShapeMeshDistance</text>
<text text-anchor="start" x="596" y="-18.5" font-family="Helvetica,sans-Serif" font-size="10.00">TraversalNode&lt; S, RSS, NarrowPhase</text>
<text text-anchor="middle" x="682" y="-7.5" font-family="Helvetica,sans-Serif" font-size="10.00">Solver &gt;</text>
</a>
</g>
</g>
<!-- Node39&#45;&gt;Node40 -->
<g id="edge39" class="edge"><title>Node39&#45;&gt;Node40</title>
<path fill="none" stroke="midnightblue" d="M531.245,-24.2485C549.544,-23.8515 569.122,-23.4269 587.886,-23.0198"/>
<polygon fill="midnightblue" stroke="midnightblue" points="531.146,-20.7497 521.224,-24.4659 531.298,-27.7481 531.146,-20.7497"/>
</g>
<!-- Node41 -->
<g id="node41" class="node"><title>Node41</title>
<g id="a_node41"><a xlink:href="a00101.html" target="_top" xlink:title="hpp::fcl::ShapeMeshDistance\lTraversalNodeRSS\&lt; S, NarrowPhase\lSolver \&gt;">
<polygon fill="white" stroke="black" points="813,-0.5 813,-41.5 995,-41.5 995,-0.5 813,-0.5"/>
<text text-anchor="start" x="821" y="-29.5" font-family="Helvetica,sans-Serif" font-size="10.00">hpp::fcl::ShapeMeshDistance</text>
<text text-anchor="start" x="821" y="-18.5" font-family="Helvetica,sans-Serif" font-size="10.00">TraversalNodeRSS&lt; S, NarrowPhase</text>
<text text-anchor="middle" x="904" y="-7.5" font-family="Helvetica,sans-Serif" font-size="10.00">Solver &gt;</text>
</a>
</g>
</g>
<!-- Node40&#45;&gt;Node41 -->
<g id="edge40" class="edge"><title>Node40&#45;&gt;Node41</title>
<path fill="none" stroke="midnightblue" d="M786.529,-21C795.276,-21 804.078,-21 812.712,-21"/>
<polygon fill="midnightblue" stroke="midnightblue" points="786.3,-17.5001 776.3,-21 786.3,-24.5001 786.3,-17.5001"/>
</g>
</g>
</svg>
