<?xml version="1.0" encoding="UTF-8" standalone="no"?>
<!DOCTYPE svg PUBLIC "-//W3C//DTD SVG 1.1//EN"
 "http://www.w3.org/Graphics/SVG/1.1/DTD/svg11.dtd">
<!-- Generated by graphviz version 2.38.0 (20140413.2041)
 -->
<!-- Title: hpp::fcl::MeshDistanceTraversalNode&lt; BV &gt; Pages: 1 -->
<svg width="445pt" height="408pt"
 viewBox="0.00 0.00 445.00 408.00" xmlns="http://www.w3.org/2000/svg" xmlns:xlink="http://www.w3.org/1999/xlink">
<g id="graph0" class="graph" transform="scale(1 1) rotate(0) translate(4 404)">
<title>hpp::fcl::MeshDistanceTraversalNode&lt; BV &gt;</title>
<polygon fill="white" stroke="none" points="-4,4 -4,-404 441,-404 441,4 -4,4"/>
<!-- Node1 -->
<g id="node1" class="node"><title>Node1</title>
<polygon fill="#bfbfbf" stroke="black" points="250.5,-0.5 250.5,-30.5 408.5,-30.5 408.5,-0.5 250.5,-0.5"/>
<text text-anchor="start" x="258.5" y="-18.5" font-family="Helvetica,sans-Serif" font-size="10.00">hpp::fcl::MeshDistanceTraversal</text>
<text text-anchor="middle" x="329.5" y="-7.5" font-family="Helvetica,sans-Serif" font-size="10.00">Node&lt; BV &gt;</text>
</g>
<!-- Node2 -->
<g id="node2" class="node"><title>Node2</title>
<g id="a_node2"><a xlink:href="a00013.html" target="_top" xlink:title="Traversal node for distance computation between BVH models. ">
<polygon fill="white" stroke="black" points="147,-89.5 147,-119.5 302,-119.5 302,-89.5 147,-89.5"/>
<text text-anchor="start" x="155" y="-107.5" font-family="Helvetica,sans-Serif" font-size="10.00">hpp::fcl::BVHDistanceTraversal</text>
<text text-anchor="middle" x="224.5" y="-96.5" font-family="Helvetica,sans-Serif" font-size="10.00">Node&lt; BV &gt;</text>
</a>
</g>
</g>
<!-- Node2&#45;&gt;Node1 -->
<g id="edge1" class="edge"><title>Node2&#45;&gt;Node1</title>
<path fill="none" stroke="midnightblue" d="M249.696,-82.6233C269.128,-66.5221 295.476,-44.6912 312.484,-30.599"/>
<polygon fill="midnightblue" stroke="midnightblue" points="247.306,-80.0584 241.839,-89.1337 251.772,-85.4486 247.306,-80.0584"/>
</g>
<!-- Node3 -->
<g id="node3" class="node"><title>Node3</title>
<g id="a_node3"><a xlink:href="a00040.html" target="_top" xlink:title="Node structure encoding the information required for distance traversal. ">
<polygon fill="white" stroke="black" points="157.5,-157.5 157.5,-187.5 291.5,-187.5 291.5,-157.5 157.5,-157.5"/>
<text text-anchor="start" x="165.5" y="-175.5" font-family="Helvetica,sans-Serif" font-size="10.00">hpp::fcl::DistanceTraversal</text>
<text text-anchor="middle" x="224.5" y="-164.5" font-family="Helvetica,sans-Serif" font-size="10.00">NodeBase</text>
</a>
</g>
</g>
<!-- Node3&#45;&gt;Node2 -->
<g id="edge2" class="edge"><title>Node3&#45;&gt;Node2</title>
<path fill="none" stroke="midnightblue" d="M224.5,-147.032C224.5,-137.861 224.5,-127.745 224.5,-119.793"/>
<polygon fill="midnightblue" stroke="midnightblue" points="221,-147.179 224.5,-157.179 228,-147.179 221,-147.179"/>
</g>
<!-- Node4 -->
<g id="node4" class="node"><title>Node4</title>
<g id="a_node4"><a xlink:href="a00108.html" target="_top" xlink:title="Node structure encoding the information required for traversal. ">
<polygon fill="white" stroke="black" points="0,-235.5 0,-254.5 141,-254.5 141,-235.5 0,-235.5"/>
<text text-anchor="middle" x="70.5" y="-242.5" font-family="Helvetica,sans-Serif" font-size="10.00">hpp::fcl::TraversalNodeBase</text>
</a>
</g>
</g>
<!-- Node4&#45;&gt;Node3 -->
<g id="edge3" class="edge"><title>Node4&#45;&gt;Node3</title>
<path fill="none" stroke="midnightblue" d="M98.3313,-231.259C125.284,-218.92 166.054,-200.256 193.906,-187.506"/>
<polygon fill="midnightblue" stroke="midnightblue" points="96.7116,-228.151 89.076,-235.496 99.6254,-234.516 96.7116,-228.151"/>
</g>
<!-- Node5 -->
<g id="node5" class="node"><title>Node5</title>
<g id="a_node5"><a xlink:href="a00107.html" target="_top" xlink:title="Simple transform class used locally by InterpMotion. ">
<polygon fill="white" stroke="black" points="17,-313.5 17,-332.5 124,-332.5 124,-313.5 17,-313.5"/>
<text text-anchor="middle" x="70.5" y="-320.5" font-family="Helvetica,sans-Serif" font-size="10.00">hpp::fcl::Transform3f</text>
</a>
</g>
</g>
<!-- Node5&#45;&gt;Node4 -->
<g id="edge4" class="edge"><title>Node5&#45;&gt;Node4</title>
<path fill="none" stroke="#9a32cd" stroke-dasharray="5,2" d="M70.5,-303.224C70.5,-287.697 70.5,-266.358 70.5,-254.616"/>
<polygon fill="#9a32cd" stroke="#9a32cd" points="67.0001,-303.282 70.5,-313.282 74.0001,-303.282 67.0001,-303.282"/>
<text text-anchor="middle" x="78" y="-287" font-family="Helvetica,sans-Serif" font-size="10.00"> tf1</text>
<text text-anchor="middle" x="78" y="-276" font-family="Helvetica,sans-Serif" font-size="10.00">tf2</text>
</g>
<!-- Node6 -->
<g id="node6" class="node"><title>Node6</title>
<g id="a_node6"><a xlink:href="a00036.html" target="_top" xlink:title="request to the distance computation ">
<polygon fill="white" stroke="black" points="159,-235.5 159,-254.5 290,-254.5 290,-235.5 159,-235.5"/>
<text text-anchor="middle" x="224.5" y="-242.5" font-family="Helvetica,sans-Serif" font-size="10.00">hpp::fcl::DistanceRequest</text>
</a>
</g>
</g>
<!-- Node6&#45;&gt;Node3 -->
<g id="edge5" class="edge"><title>Node6&#45;&gt;Node3</title>
<path fill="none" stroke="#9a32cd" stroke-dasharray="5,2" d="M224.5,-225.236C224.5,-213.408 224.5,-198.383 224.5,-187.576"/>
<polygon fill="#9a32cd" stroke="#9a32cd" points="221,-225.355 224.5,-235.355 228,-225.355 221,-225.355"/>
<text text-anchor="middle" x="242.5" y="-209" font-family="Helvetica,sans-Serif" font-size="10.00"> request</text>
</g>
<!-- Node7 -->
<g id="node7" class="node"><title>Node7</title>
<g id="a_node7"><a xlink:href="a00037.html" target="_top" xlink:title="distance result ">
<polygon fill="white" stroke="black" points="308.5,-235.5 308.5,-254.5 430.5,-254.5 430.5,-235.5 308.5,-235.5"/>
<text text-anchor="middle" x="369.5" y="-242.5" font-family="Helvetica,sans-Serif" font-size="10.00">hpp::fcl::DistanceResult</text>
</a>
</g>
</g>
<!-- Node7&#45;&gt;Node3 -->
<g id="edge6" class="edge"><title>Node7&#45;&gt;Node3</title>
<path fill="none" stroke="#9a32cd" stroke-dasharray="5,2" d="M342.961,-231.096C317.581,-218.757 279.415,-200.2 253.306,-187.506"/>
<polygon fill="#9a32cd" stroke="#9a32cd" points="341.486,-234.271 352.01,-235.496 344.547,-227.976 341.486,-234.271"/>
<text text-anchor="middle" x="324.5" y="-209" font-family="Helvetica,sans-Serif" font-size="10.00"> result</text>
</g>
<!-- Node8 -->
<g id="node8" class="node"><title>Node8</title>
<g id="a_node8"><a xlink:href="a00025.html" target="_top" xlink:title="The geometry for the object for collision or distance computation. ">
<polygon fill="white" stroke="black" points="302,-313.5 302,-332.5 437,-332.5 437,-313.5 302,-313.5"/>
<text text-anchor="middle" x="369.5" y="-320.5" font-family="Helvetica,sans-Serif" font-size="10.00">hpp::fcl::CollisionGeometry</text>
</a>
</g>
</g>
<!-- Node8&#45;&gt;Node7 -->
<g id="edge7" class="edge"><title>Node8&#45;&gt;Node7</title>
<path fill="none" stroke="#9a32cd" stroke-dasharray="5,2" d="M369.5,-303.224C369.5,-287.697 369.5,-266.358 369.5,-254.616"/>
<polygon fill="#9a32cd" stroke="#9a32cd" points="366,-303.282 369.5,-313.282 373,-303.282 366,-303.282"/>
<text text-anchor="middle" x="376.5" y="-287" font-family="Helvetica,sans-Serif" font-size="10.00"> o1</text>
<text text-anchor="middle" x="376.5" y="-276" font-family="Helvetica,sans-Serif" font-size="10.00">o2</text>
</g>
<!-- Node9 -->
<g id="node9" class="node"><title>Node9</title>
<g id="a_node9"><a xlink:href="a00004.html" target="_top" xlink:title="A class describing the AABB collision structure, which is a box in 3D space determined by two diagona...">
<polygon fill="white" stroke="black" points="328.5,-380.5 328.5,-399.5 410.5,-399.5 410.5,-380.5 328.5,-380.5"/>
<text text-anchor="middle" x="369.5" y="-387.5" font-family="Helvetica,sans-Serif" font-size="10.00">hpp::fcl::AABB</text>
</a>
</g>
</g>
<!-- Node9&#45;&gt;Node8 -->
<g id="edge8" class="edge"><title>Node9&#45;&gt;Node8</title>
<path fill="none" stroke="#9a32cd" stroke-dasharray="5,2" d="M369.5,-370.037C369.5,-357.67 369.5,-342.12 369.5,-332.627"/>
<polygon fill="#9a32cd" stroke="#9a32cd" points="366,-370.234 369.5,-380.234 373,-370.234 366,-370.234"/>
<text text-anchor="middle" x="394.5" y="-354" font-family="Helvetica,sans-Serif" font-size="10.00"> aabb_local</text>
</g>
<!-- Node10 -->
<g id="node10" class="node"><title>Node10</title>
<g id="a_node10"><a xlink:href="a00109.html" target="_top" xlink:title="Triangle with 3 indices for points. ">
<polygon fill="white" stroke="black" points="320,-95 320,-114 409,-114 409,-95 320,-95"/>
<text text-anchor="middle" x="364.5" y="-102" font-family="Helvetica,sans-Serif" font-size="10.00">hpp::fcl::Triangle</text>
</a>
</g>
</g>
<!-- Node10&#45;&gt;Node1 -->
<g id="edge9" class="edge"><title>Node10&#45;&gt;Node1</title>
<path fill="none" stroke="#9a32cd" stroke-dasharray="5,2" d="M357.196,-85.3451C350.638,-69.0432 341.146,-45.4484 335.151,-30.5475"/>
<polygon fill="#9a32cd" stroke="#9a32cd" points="354.037,-86.869 361.016,-94.84 360.531,-84.2563 354.037,-86.869"/>
<text text-anchor="middle" x="378" y="-63" font-family="Helvetica,sans-Serif" font-size="10.00"> tri_indices1</text>
<text text-anchor="middle" x="378" y="-52" font-family="Helvetica,sans-Serif" font-size="10.00">tri_indices2</text>
</g>
</g>
</svg>
