<?xml version="1.0" encoding="UTF-8" standalone="no"?>
<!DOCTYPE svg PUBLIC "-//W3C//DTD SVG 1.1//EN"
 "http://www.w3.org/Graphics/SVG/1.1/DTD/svg11.dtd">
<!-- Generated by graphviz version 2.38.0 (20140413.2041)
 -->
<!-- Title: hpp::fcl::MeshShapeCollisionTraversalNode&lt; BV, S, NarrowPhaseSolver, _Options &gt; Pages: 1 -->
<svg width="1005pt" height="204pt"
 viewBox="0.00 0.00 1005.00 204.00" xmlns="http://www.w3.org/2000/svg" xmlns:xlink="http://www.w3.org/1999/xlink">
<g id="graph0" class="graph" transform="scale(1 1) rotate(0) translate(4 200)">
<title>hpp::fcl::MeshShapeCollisionTraversalNode&lt; BV, S, NarrowPhaseSolver, _Options &gt;</title>
<polygon fill="white" stroke="none" points="-4,4 -4,-200 1001,-200 1001,4 -4,4"/>
<!-- Node1 -->
<g id="node1" class="node"><title>Node1</title>
<polygon fill="#bfbfbf" stroke="black" points="816,-27.5 816,-68.5 997,-68.5 997,-27.5 816,-27.5"/>
<text text-anchor="start" x="824" y="-56.5" font-family="Helvetica,sans-Serif" font-size="10.00">hpp::fcl::MeshShapeCollision</text>
<text text-anchor="start" x="824" y="-45.5" font-family="Helvetica,sans-Serif" font-size="10.00">TraversalNode&lt; BV, S, NarrowPhase</text>
<text text-anchor="middle" x="906.5" y="-34.5" font-family="Helvetica,sans-Serif" font-size="10.00">Solver, _Options &gt;</text>
</g>
<!-- Node2 -->
<g id="node2" class="node"><title>Node2</title>
<g id="a_node2"><a xlink:href="a00016.html" target="_top" xlink:title="Traversal node for collision between BVH and shape. ">
<polygon fill="white" stroke="black" points="591,-77 591,-107 732,-107 732,-77 591,-77"/>
<text text-anchor="start" x="599" y="-95" font-family="Helvetica,sans-Serif" font-size="10.00">hpp::fcl::BVHShapeCollision</text>
<text text-anchor="middle" x="661.5" y="-84" font-family="Helvetica,sans-Serif" font-size="10.00">TraversalNode&lt; BV, S &gt;</text>
</a>
</g>
</g>
<!-- Node2&#45;&gt;Node1 -->
<g id="edge1" class="edge"><title>Node2&#45;&gt;Node1</title>
<path fill="none" stroke="midnightblue" d="M742.088,-77.589C765.686,-73.3161 791.688,-68.608 815.876,-64.2282"/>
<polygon fill="midnightblue" stroke="midnightblue" points="741.35,-74.1656 732.134,-79.3914 742.598,-81.0536 741.35,-74.1656"/>
</g>
<!-- Node3 -->
<g id="node3" class="node"><title>Node3</title>
<g id="a_node3"><a xlink:href="a00029.html" target="_top" xlink:title="Node structure encoding the information required for collision traversal. ">
<polygon fill="white" stroke="black" points="371,-121 371,-151 504,-151 504,-121 371,-121"/>
<text text-anchor="start" x="379" y="-139" font-family="Helvetica,sans-Serif" font-size="10.00">hpp::fcl::CollisionTraversal</text>
<text text-anchor="middle" x="437.5" y="-128" font-family="Helvetica,sans-Serif" font-size="10.00">NodeBase</text>
</a>
</g>
</g>
<!-- Node3&#45;&gt;Node2 -->
<g id="edge2" class="edge"><title>Node3&#45;&gt;Node2</title>
<path fill="none" stroke="midnightblue" d="M514.278,-120.981C539.04,-116.073 566.412,-110.648 590.712,-105.832"/>
<polygon fill="midnightblue" stroke="midnightblue" points="513.335,-117.6 504.206,-122.977 514.696,-124.466 513.335,-117.6"/>
</g>
<!-- Node4 -->
<g id="node4" class="node"><title>Node4</title>
<g id="a_node4"><a xlink:href="a00108.html" target="_top" xlink:title="Node structure encoding the information required for traversal. ">
<polygon fill="white" stroke="black" points="158,-164.5 158,-183.5 299,-183.5 299,-164.5 158,-164.5"/>
<text text-anchor="middle" x="228.5" y="-171.5" font-family="Helvetica,sans-Serif" font-size="10.00">hpp::fcl::TraversalNodeBase</text>
</a>
</g>
</g>
<!-- Node4&#45;&gt;Node3 -->
<g id="edge3" class="edge"><title>Node4&#45;&gt;Node3</title>
<path fill="none" stroke="midnightblue" d="M291.559,-162.608C316.551,-158.02 345.405,-152.723 370.756,-148.069"/>
<polygon fill="midnightblue" stroke="midnightblue" points="290.671,-159.212 281.468,-164.46 291.935,-166.097 290.671,-159.212"/>
</g>
<!-- Node5 -->
<g id="node5" class="node"><title>Node5</title>
<g id="a_node5"><a xlink:href="a00107.html" target="_top" xlink:title="Simple transform class used locally by InterpMotion. ">
<polygon fill="white" stroke="black" points="0,-164.5 0,-183.5 107,-183.5 107,-164.5 0,-164.5"/>
<text text-anchor="middle" x="53.5" y="-171.5" font-family="Helvetica,sans-Serif" font-size="10.00">hpp::fcl::Transform3f</text>
</a>
</g>
</g>
<!-- Node5&#45;&gt;Node4 -->
<g id="edge4" class="edge"><title>Node5&#45;&gt;Node4</title>
<path fill="none" stroke="#9a32cd" stroke-dasharray="5,2" d="M117.621,-174C130.671,-174 144.488,-174 157.758,-174"/>
<polygon fill="#9a32cd" stroke="#9a32cd" points="117.346,-170.5 107.346,-174 117.346,-177.5 117.346,-170.5"/>
<text text-anchor="middle" x="132.5" y="-188" font-family="Helvetica,sans-Serif" font-size="10.00"> tf1</text>
<text text-anchor="middle" x="132.5" y="-177" font-family="Helvetica,sans-Serif" font-size="10.00">tf2</text>
</g>
<!-- Node6 -->
<g id="node6" class="node"><title>Node6</title>
<g id="a_node6"><a xlink:href="a00027.html" target="_top" xlink:title="request to the collision algorithm ">
<polygon fill="white" stroke="black" points="164,-126.5 164,-145.5 293,-145.5 293,-126.5 164,-126.5"/>
<text text-anchor="middle" x="228.5" y="-133.5" font-family="Helvetica,sans-Serif" font-size="10.00">hpp::fcl::CollisionRequest</text>
</a>
</g>
</g>
<!-- Node6&#45;&gt;Node3 -->
<g id="edge5" class="edge"><title>Node6&#45;&gt;Node3</title>
<path fill="none" stroke="#9a32cd" stroke-dasharray="5,2" d="M303.037,-136C325.195,-136 349.358,-136 370.959,-136"/>
<polygon fill="#9a32cd" stroke="#9a32cd" points="303.014,-132.5 293.014,-136 303.014,-139.5 303.014,-132.5"/>
<text text-anchor="middle" x="335" y="-139" font-family="Helvetica,sans-Serif" font-size="10.00"> request</text>
</g>
<!-- Node7 -->
<g id="node7" class="node"><title>Node7</title>
<g id="a_node7"><a xlink:href="a00028.html" target="_top" xlink:title="collision result ">
<polygon fill="white" stroke="black" points="168,-88.5 168,-107.5 289,-107.5 289,-88.5 168,-88.5"/>
<text text-anchor="middle" x="228.5" y="-95.5" font-family="Helvetica,sans-Serif" font-size="10.00">hpp::fcl::CollisionResult</text>
</a>
</g>
</g>
<!-- Node7&#45;&gt;Node3 -->
<g id="edge6" class="edge"><title>Node7&#45;&gt;Node3</title>
<path fill="none" stroke="#9a32cd" stroke-dasharray="5,2" d="M291.559,-109.392C316.551,-113.98 345.405,-119.277 370.756,-123.931"/>
<polygon fill="#9a32cd" stroke="#9a32cd" points="291.935,-105.903 281.468,-107.54 290.671,-112.788 291.935,-105.903"/>
<text text-anchor="middle" x="335" y="-124" font-family="Helvetica,sans-Serif" font-size="10.00"> result</text>
</g>
<!-- Node8 -->
<g id="node8" class="node"><title>Node8</title>
<polygon fill="white" stroke="#bfbfbf" points="422.5,-82.5 422.5,-101.5 452.5,-101.5 452.5,-82.5 422.5,-82.5"/>
<text text-anchor="middle" x="437.5" y="-89.5" font-family="Helvetica,sans-Serif" font-size="10.00">BV</text>
</g>
<!-- Node8&#45;&gt;Node2 -->
<g id="edge7" class="edge"><title>Node8&#45;&gt;Node2</title>
<path fill="none" stroke="#9a32cd" stroke-dasharray="5,2" d="M462.874,-92C493.425,-92 547.086,-92 590.788,-92"/>
<polygon fill="#9a32cd" stroke="#9a32cd" points="462.725,-88.5001 452.725,-92 462.725,-95.5001 462.725,-88.5001"/>
<text text-anchor="middle" x="547.5" y="-95" font-family="Helvetica,sans-Serif" font-size="10.00"> model2_bv</text>
</g>
<!-- Node9 -->
<g id="node9" class="node"><title>Node9</title>
<polygon fill="white" stroke="#bfbfbf" points="423,-44.5 423,-63.5 452,-63.5 452,-44.5 423,-44.5"/>
<text text-anchor="middle" x="437.5" y="-51.5" font-family="Helvetica,sans-Serif" font-size="10.00">S</text>
</g>
<!-- Node9&#45;&gt;Node2 -->
<g id="edge8" class="edge"><title>Node9&#45;&gt;Node2</title>
<path fill="none" stroke="#9a32cd" stroke-dasharray="5,2" d="M462.255,-58.0592C489.131,-62.6524 534.213,-70.359 573,-77 578.773,-77.9884 584.76,-79.0139 590.77,-80.0436"/>
<polygon fill="#9a32cd" stroke="#9a32cd" points="462.694,-54.5835 452.248,-56.349 461.515,-61.4835 462.694,-54.5835"/>
<text text-anchor="middle" x="547.5" y="-80" font-family="Helvetica,sans-Serif" font-size="10.00"> model2</text>
</g>
<!-- Node10 -->
<g id="node10" class="node"><title>Node10</title>
<polygon fill="white" stroke="#bfbfbf" points="609.5,-38.5 609.5,-57.5 713.5,-57.5 713.5,-38.5 609.5,-38.5"/>
<text text-anchor="middle" x="661.5" y="-45.5" font-family="Helvetica,sans-Serif" font-size="10.00">NarrowPhaseSolver</text>
</g>
<!-- Node10&#45;&gt;Node1 -->
<g id="edge9" class="edge"><title>Node10&#45;&gt;Node1</title>
<path fill="none" stroke="#9a32cd" stroke-dasharray="5,2" d="M724.076,-48C751.809,-48 785.098,-48 815.547,-48"/>
<polygon fill="#9a32cd" stroke="#9a32cd" points="723.737,-44.5001 713.737,-48 723.737,-51.5001 723.737,-44.5001"/>
<text text-anchor="middle" x="774" y="-51" font-family="Helvetica,sans-Serif" font-size="10.00"> nsolver</text>
</g>
<!-- Node11 -->
<g id="node11" class="node"><title>Node11</title>
<g id="a_node11"><a xlink:href="a00109.html" target="_top" xlink:title="Triangle with 3 indices for points. ">
<polygon fill="white" stroke="black" points="617,-0.5 617,-19.5 706,-19.5 706,-0.5 617,-0.5"/>
<text text-anchor="middle" x="661.5" y="-7.5" font-family="Helvetica,sans-Serif" font-size="10.00">hpp::fcl::Triangle</text>
</a>
</g>
</g>
<!-- Node11&#45;&gt;Node1 -->
<g id="edge10" class="edge"><title>Node11&#45;&gt;Node1</title>
<path fill="none" stroke="#9a32cd" stroke-dasharray="5,2" d="M716.223,-18.4011C745.45,-22.9716 782.371,-28.7453 815.828,-33.9772"/>
<polygon fill="#9a32cd" stroke="#9a32cd" points="716.645,-14.9246 706.224,-16.8375 715.563,-21.8406 716.645,-14.9246"/>
<text text-anchor="middle" x="774" y="-34" font-family="Helvetica,sans-Serif" font-size="10.00"> tri_indices</text>
</g>
</g>
</svg>
