<?xml version="1.0" encoding="UTF-8" standalone="no"?>
<!DOCTYPE svg PUBLIC "-//W3C//DTD SVG 1.1//EN"
 "http://www.w3.org/Graphics/SVG/1.1/DTD/svg11.dtd">
<!-- Generated by graphviz version 2.38.0 (20140413.2041)
 -->
<!-- Title: hpp::fcl::MeshShapeCollisionTraversalNodeOBB&lt; S, NarrowPhaseSolver &gt; Pages: 1 -->
<svg width="196pt" height="318pt"
 viewBox="0.00 0.00 196.00 318.00" xmlns="http://www.w3.org/2000/svg" xmlns:xlink="http://www.w3.org/1999/xlink">
<g id="graph0" class="graph" transform="scale(1 1) rotate(0) translate(4 314)">
<title>hpp::fcl::MeshShapeCollisionTraversalNodeOBB&lt; S, NarrowPhaseSolver &gt;</title>
<polygon fill="white" stroke="none" points="-4,4 -4,-314 192,-314 192,4 -4,4"/>
<!-- Node1 -->
<g id="node1" class="node"><title>Node1</title>
<polygon fill="#bfbfbf" stroke="black" points="3,-0.5 3,-41.5 185,-41.5 185,-0.5 3,-0.5"/>
<text text-anchor="start" x="11" y="-29.5" font-family="Helvetica,sans-Serif" font-size="10.00">hpp::fcl::MeshShapeCollision</text>
<text text-anchor="start" x="11" y="-18.5" font-family="Helvetica,sans-Serif" font-size="10.00">TraversalNodeOBB&lt; S, NarrowPhase</text>
<text text-anchor="middle" x="94" y="-7.5" font-family="Helvetica,sans-Serif" font-size="10.00">Solver &gt;</text>
</g>
<!-- Node2 -->
<g id="node2" class="node"><title>Node2</title>
<g id="a_node2"><a xlink:href="a00058.html" target="_top" xlink:title="hpp::fcl::MeshShapeCollision\lTraversalNode\&lt; OBB, S, NarrowPhase\lSolver, 0 \&gt;">
<polygon fill="white" stroke="black" points="0,-78.5 0,-119.5 188,-119.5 188,-78.5 0,-78.5"/>
<text text-anchor="start" x="8" y="-107.5" font-family="Helvetica,sans-Serif" font-size="10.00">hpp::fcl::MeshShapeCollision</text>
<text text-anchor="start" x="8" y="-96.5" font-family="Helvetica,sans-Serif" font-size="10.00">TraversalNode&lt; OBB, S, NarrowPhase</text>
<text text-anchor="middle" x="94" y="-85.5" font-family="Helvetica,sans-Serif" font-size="10.00">Solver, 0 &gt;</text>
</a>
</g>
</g>
<!-- Node2&#45;&gt;Node1 -->
<g id="edge1" class="edge"><title>Node2&#45;&gt;Node1</title>
<path fill="none" stroke="midnightblue" d="M94,-68.2965C94,-59.3009 94,-49.6532 94,-41.5056"/>
<polygon fill="midnightblue" stroke="midnightblue" points="90.5001,-68.4281 94,-78.4281 97.5001,-68.4281 90.5001,-68.4281"/>
</g>
<!-- Node3 -->
<g id="node3" class="node"><title>Node3</title>
<g id="a_node3"><a xlink:href="a00016.html" target="_top" xlink:title="hpp::fcl::BVHShapeCollision\lTraversalNode\&lt; OBB, S \&gt;">
<polygon fill="white" stroke="black" points="23.5,-156.5 23.5,-186.5 164.5,-186.5 164.5,-156.5 23.5,-156.5"/>
<text text-anchor="start" x="31.5" y="-174.5" font-family="Helvetica,sans-Serif" font-size="10.00">hpp::fcl::BVHShapeCollision</text>
<text text-anchor="middle" x="94" y="-163.5" font-family="Helvetica,sans-Serif" font-size="10.00">TraversalNode&lt; OBB, S &gt;</text>
</a>
</g>
</g>
<!-- Node3&#45;&gt;Node2 -->
<g id="edge2" class="edge"><title>Node3&#45;&gt;Node2</title>
<path fill="none" stroke="midnightblue" d="M94,-145.982C94,-137.347 94,-127.762 94,-119.588"/>
<polygon fill="midnightblue" stroke="midnightblue" points="90.5001,-146.233 94,-156.233 97.5001,-146.233 90.5001,-146.233"/>
</g>
<!-- Node4 -->
<g id="node4" class="node"><title>Node4</title>
<g id="a_node4"><a xlink:href="a00029.html" target="_top" xlink:title="Node structure encoding the information required for collision traversal. ">
<polygon fill="white" stroke="black" points="27.5,-223.5 27.5,-253.5 160.5,-253.5 160.5,-223.5 27.5,-223.5"/>
<text text-anchor="start" x="35.5" y="-241.5" font-family="Helvetica,sans-Serif" font-size="10.00">hpp::fcl::CollisionTraversal</text>
<text text-anchor="middle" x="94" y="-230.5" font-family="Helvetica,sans-Serif" font-size="10.00">NodeBase</text>
</a>
</g>
</g>
<!-- Node4&#45;&gt;Node3 -->
<g id="edge3" class="edge"><title>Node4&#45;&gt;Node3</title>
<path fill="none" stroke="midnightblue" d="M94,-213.108C94,-204.154 94,-194.323 94,-186.577"/>
<polygon fill="midnightblue" stroke="midnightblue" points="90.5001,-213.396 94,-223.396 97.5001,-213.396 90.5001,-213.396"/>
</g>
<!-- Node5 -->
<g id="node5" class="node"><title>Node5</title>
<g id="a_node5"><a xlink:href="a00108.html" target="_top" xlink:title="Node structure encoding the information required for traversal. ">
<polygon fill="white" stroke="black" points="23.5,-290.5 23.5,-309.5 164.5,-309.5 164.5,-290.5 23.5,-290.5"/>
<text text-anchor="middle" x="94" y="-297.5" font-family="Helvetica,sans-Serif" font-size="10.00">hpp::fcl::TraversalNodeBase</text>
</a>
</g>
</g>
<!-- Node5&#45;&gt;Node4 -->
<g id="edge4" class="edge"><title>Node5&#45;&gt;Node4</title>
<path fill="none" stroke="midnightblue" d="M94,-280.235C94,-271.586 94,-261.497 94,-253.523"/>
<polygon fill="midnightblue" stroke="midnightblue" points="90.5001,-280.475 94,-290.475 97.5001,-280.475 90.5001,-280.475"/>
</g>
</g>
</svg>
