<?xml version="1.0" encoding="UTF-8" standalone="no"?>
<!DOCTYPE svg PUBLIC "-//W3C//DTD SVG 1.1//EN"
 "http://www.w3.org/Graphics/SVG/1.1/DTD/svg11.dtd">
<!-- Generated by graphviz version 2.38.0 (20140413.2041)
 -->
<!-- Title: hpp::fcl::MeshShapeDistanceTraversalNode&lt; BV, S, NarrowPhaseSolver &gt; Pages: 1 -->
<svg width="1204pt" height="204pt"
 viewBox="0.00 0.00 1204.00 204.00" xmlns="http://www.w3.org/2000/svg" xmlns:xlink="http://www.w3.org/1999/xlink">
<g id="graph0" class="graph" transform="scale(1 1) rotate(0) translate(4 200)">
<title>hpp::fcl::MeshShapeDistanceTraversalNode&lt; BV, S, NarrowPhaseSolver &gt;</title>
<polygon fill="white" stroke="none" points="-4,4 -4,-200 1200,-200 1200,4 -4,4"/>
<!-- Node1 -->
<g id="node1" class="node"><title>Node1</title>
<polygon fill="#bfbfbf" stroke="black" points="1015,-27.5 1015,-68.5 1196,-68.5 1196,-27.5 1015,-27.5"/>
<text text-anchor="start" x="1023" y="-56.5" font-family="Helvetica,sans-Serif" font-size="10.00">hpp::fcl::MeshShapeDistance</text>
<text text-anchor="start" x="1023" y="-45.5" font-family="Helvetica,sans-Serif" font-size="10.00">TraversalNode&lt; BV, S, NarrowPhase</text>
<text text-anchor="middle" x="1105.5" y="-34.5" font-family="Helvetica,sans-Serif" font-size="10.00">Solver &gt;</text>
</g>
<!-- Node2 -->
<g id="node2" class="node"><title>Node2</title>
<g id="a_node2"><a xlink:href="a00017.html" target="_top" xlink:title="Traversal node for distance computation between BVH and shape. ">
<polygon fill="white" stroke="black" points="788,-77 788,-107 931,-107 931,-77 788,-77"/>
<text text-anchor="start" x="796" y="-95" font-family="Helvetica,sans-Serif" font-size="10.00">hpp::fcl::BVHShapeDistance</text>
<text text-anchor="middle" x="859.5" y="-84" font-family="Helvetica,sans-Serif" font-size="10.00">TraversalNode&lt; BV, S &gt;</text>
</a>
</g>
</g>
<!-- Node2&#45;&gt;Node1 -->
<g id="edge1" class="edge"><title>Node2&#45;&gt;Node1</title>
<path fill="none" stroke="midnightblue" d="M941.061,-77.4726C964.728,-73.2048 990.756,-68.5113 1014.95,-64.1488"/>
<polygon fill="midnightblue" stroke="midnightblue" points="940.295,-74.0542 931.075,-79.2734 941.537,-80.9431 940.295,-74.0542"/>
</g>
<!-- Node3 -->
<g id="node3" class="node"><title>Node3</title>
<g id="a_node3"><a xlink:href="a00040.html" target="_top" xlink:title="Node structure encoding the information required for distance traversal. ">
<polygon fill="white" stroke="black" points="567,-121 567,-151 701,-151 701,-121 567,-121"/>
<text text-anchor="start" x="575" y="-139" font-family="Helvetica,sans-Serif" font-size="10.00">hpp::fcl::DistanceTraversal</text>
<text text-anchor="middle" x="634" y="-128" font-family="Helvetica,sans-Serif" font-size="10.00">NodeBase</text>
</a>
</g>
</g>
<!-- Node3&#45;&gt;Node2 -->
<g id="edge2" class="edge"><title>Node3&#45;&gt;Node2</title>
<path fill="none" stroke="midnightblue" d="M711.242,-120.99C736.051,-116.106 763.466,-110.709 787.848,-105.909"/>
<polygon fill="midnightblue" stroke="midnightblue" points="710.286,-117.611 701.15,-122.977 711.638,-124.48 710.286,-117.611"/>
</g>
<!-- Node4 -->
<g id="node4" class="node"><title>Node4</title>
<g id="a_node4"><a xlink:href="a00108.html" target="_top" xlink:title="Node structure encoding the information required for traversal. ">
<polygon fill="white" stroke="black" points="354,-164.5 354,-183.5 495,-183.5 495,-164.5 354,-164.5"/>
<text text-anchor="middle" x="424.5" y="-171.5" font-family="Helvetica,sans-Serif" font-size="10.00">hpp::fcl::TraversalNodeBase</text>
</a>
</g>
</g>
<!-- Node4&#45;&gt;Node3 -->
<g id="edge3" class="edge"><title>Node4&#45;&gt;Node3</title>
<path fill="none" stroke="midnightblue" d="M487.663,-162.616C512.6,-158.049 541.378,-152.779 566.713,-148.139"/>
<polygon fill="midnightblue" stroke="midnightblue" points="486.799,-159.216 477.593,-164.46 488.06,-166.101 486.799,-159.216"/>
</g>
<!-- Node5 -->
<g id="node5" class="node"><title>Node5</title>
<g id="a_node5"><a xlink:href="a00107.html" target="_top" xlink:title="Simple transform class used locally by InterpMotion. ">
<polygon fill="white" stroke="black" points="182,-164.5 182,-183.5 289,-183.5 289,-164.5 182,-164.5"/>
<text text-anchor="middle" x="235.5" y="-171.5" font-family="Helvetica,sans-Serif" font-size="10.00">hpp::fcl::Transform3f</text>
</a>
</g>
</g>
<!-- Node5&#45;&gt;Node4 -->
<g id="edge4" class="edge"><title>Node5&#45;&gt;Node4</title>
<path fill="none" stroke="#9a32cd" stroke-dasharray="5,2" d="M299.209,-174C316.756,-174 335.931,-174 353.854,-174"/>
<polygon fill="#9a32cd" stroke="#9a32cd" points="299.088,-170.5 289.088,-174 299.088,-177.5 299.088,-170.5"/>
<text text-anchor="middle" x="328.5" y="-188" font-family="Helvetica,sans-Serif" font-size="10.00"> tf1</text>
<text text-anchor="middle" x="328.5" y="-177" font-family="Helvetica,sans-Serif" font-size="10.00">tf2</text>
</g>
<!-- Node6 -->
<g id="node6" class="node"><title>Node6</title>
<g id="a_node6"><a xlink:href="a00036.html" target="_top" xlink:title="request to the distance computation ">
<polygon fill="white" stroke="black" points="359,-126.5 359,-145.5 490,-145.5 490,-126.5 359,-126.5"/>
<text text-anchor="middle" x="424.5" y="-133.5" font-family="Helvetica,sans-Serif" font-size="10.00">hpp::fcl::DistanceRequest</text>
</a>
</g>
</g>
<!-- Node6&#45;&gt;Node3 -->
<g id="edge5" class="edge"><title>Node6&#45;&gt;Node3</title>
<path fill="none" stroke="#9a32cd" stroke-dasharray="5,2" d="M500.193,-136C521.941,-136 545.542,-136 566.733,-136"/>
<polygon fill="#9a32cd" stroke="#9a32cd" points="500.017,-132.5 490.017,-136 500.017,-139.5 500.017,-132.5"/>
<text text-anchor="middle" x="531" y="-139" font-family="Helvetica,sans-Serif" font-size="10.00"> request</text>
</g>
<!-- Node7 -->
<g id="node7" class="node"><title>Node7</title>
<g id="a_node7"><a xlink:href="a00037.html" target="_top" xlink:title="distance result ">
<polygon fill="white" stroke="black" points="363.5,-88.5 363.5,-107.5 485.5,-107.5 485.5,-88.5 363.5,-88.5"/>
<text text-anchor="middle" x="424.5" y="-95.5" font-family="Helvetica,sans-Serif" font-size="10.00">hpp::fcl::DistanceResult</text>
</a>
</g>
</g>
<!-- Node7&#45;&gt;Node3 -->
<g id="edge6" class="edge"><title>Node7&#45;&gt;Node3</title>
<path fill="none" stroke="#9a32cd" stroke-dasharray="5,2" d="M487.663,-109.384C512.6,-113.951 541.378,-119.221 566.713,-123.861"/>
<polygon fill="#9a32cd" stroke="#9a32cd" points="488.06,-105.899 477.593,-107.54 486.799,-112.784 488.06,-105.899"/>
<text text-anchor="middle" x="531" y="-124" font-family="Helvetica,sans-Serif" font-size="10.00"> result</text>
</g>
<!-- Node8 -->
<g id="node8" class="node"><title>Node8</title>
<g id="a_node8"><a xlink:href="a00025.html" target="_top" xlink:title="The geometry for the object for collision or distance computation. ">
<polygon fill="white" stroke="black" points="168,-88.5 168,-107.5 303,-107.5 303,-88.5 168,-88.5"/>
<text text-anchor="middle" x="235.5" y="-95.5" font-family="Helvetica,sans-Serif" font-size="10.00">hpp::fcl::CollisionGeometry</text>
</a>
</g>
</g>
<!-- Node8&#45;&gt;Node7 -->
<g id="edge7" class="edge"><title>Node8&#45;&gt;Node7</title>
<path fill="none" stroke="#9a32cd" stroke-dasharray="5,2" d="M313.466,-98C330.103,-98 347.462,-98 363.343,-98"/>
<polygon fill="#9a32cd" stroke="#9a32cd" points="313.219,-94.5001 303.219,-98 313.219,-101.5 313.219,-94.5001"/>
<text text-anchor="middle" x="328.5" y="-112" font-family="Helvetica,sans-Serif" font-size="10.00"> o1</text>
<text text-anchor="middle" x="328.5" y="-101" font-family="Helvetica,sans-Serif" font-size="10.00">o2</text>
</g>
<!-- Node9 -->
<g id="node9" class="node"><title>Node9</title>
<g id="a_node9"><a xlink:href="a00004.html" target="_top" xlink:title="A class describing the AABB collision structure, which is a box in 3D space determined by two diagona...">
<polygon fill="white" stroke="black" points="0,-88.5 0,-107.5 82,-107.5 82,-88.5 0,-88.5"/>
<text text-anchor="middle" x="41" y="-95.5" font-family="Helvetica,sans-Serif" font-size="10.00">hpp::fcl::AABB</text>
</a>
</g>
</g>
<!-- Node9&#45;&gt;Node8 -->
<g id="edge8" class="edge"><title>Node9&#45;&gt;Node8</title>
<path fill="none" stroke="#9a32cd" stroke-dasharray="5,2" d="M92.5651,-98C115.539,-98 143.033,-98 167.679,-98"/>
<polygon fill="#9a32cd" stroke="#9a32cd" points="92.3543,-94.5001 82.3543,-98 92.3543,-101.5 92.3543,-94.5001"/>
<text text-anchor="middle" x="125" y="-101" font-family="Helvetica,sans-Serif" font-size="10.00"> aabb_local</text>
</g>
<!-- Node10 -->
<g id="node10" class="node"><title>Node10</title>
<polygon fill="white" stroke="#bfbfbf" points="619,-82.5 619,-101.5 649,-101.5 649,-82.5 619,-82.5"/>
<text text-anchor="middle" x="634" y="-89.5" font-family="Helvetica,sans-Serif" font-size="10.00">BV</text>
</g>
<!-- Node10&#45;&gt;Node2 -->
<g id="edge9" class="edge"><title>Node10&#45;&gt;Node2</title>
<path fill="none" stroke="#9a32cd" stroke-dasharray="5,2" d="M659.499,-92C690.129,-92 743.877,-92 787.799,-92"/>
<polygon fill="#9a32cd" stroke="#9a32cd" points="659.321,-88.5001 649.321,-92 659.321,-95.5001 659.321,-88.5001"/>
<text text-anchor="middle" x="744.5" y="-95" font-family="Helvetica,sans-Serif" font-size="10.00"> model2_bv</text>
</g>
<!-- Node11 -->
<g id="node11" class="node"><title>Node11</title>
<polygon fill="white" stroke="#bfbfbf" points="619.5,-44.5 619.5,-63.5 648.5,-63.5 648.5,-44.5 619.5,-44.5"/>
<text text-anchor="middle" x="634" y="-51.5" font-family="Helvetica,sans-Serif" font-size="10.00">S</text>
</g>
<!-- Node11&#45;&gt;Node2 -->
<g id="edge10" class="edge"><title>Node11&#45;&gt;Node2</title>
<path fill="none" stroke="#9a32cd" stroke-dasharray="5,2" d="M658.739,-58.0362C689.229,-63.2201 743.493,-72.4462 787.776,-79.9753"/>
<polygon fill="#9a32cd" stroke="#9a32cd" points="659.09,-54.5456 648.644,-56.3199 657.916,-61.4466 659.09,-54.5456"/>
<text text-anchor="middle" x="744.5" y="-80" font-family="Helvetica,sans-Serif" font-size="10.00"> model2</text>
</g>
<!-- Node12 -->
<g id="node12" class="node"><title>Node12</title>
<polygon fill="white" stroke="#bfbfbf" points="807.5,-38.5 807.5,-57.5 911.5,-57.5 911.5,-38.5 807.5,-38.5"/>
<text text-anchor="middle" x="859.5" y="-45.5" font-family="Helvetica,sans-Serif" font-size="10.00">NarrowPhaseSolver</text>
</g>
<!-- Node12&#45;&gt;Node1 -->
<g id="edge11" class="edge"><title>Node12&#45;&gt;Node1</title>
<path fill="none" stroke="#9a32cd" stroke-dasharray="5,2" d="M921.759,-48C949.953,-48 983.958,-48 1014.95,-48"/>
<polygon fill="#9a32cd" stroke="#9a32cd" points="921.65,-44.5001 911.65,-48 921.65,-51.5001 921.65,-44.5001"/>
<text text-anchor="middle" x="973" y="-51" font-family="Helvetica,sans-Serif" font-size="10.00"> nsolver</text>
</g>
<!-- Node13 -->
<g id="node13" class="node"><title>Node13</title>
<g id="a_node13"><a xlink:href="a00109.html" target="_top" xlink:title="Triangle with 3 indices for points. ">
<polygon fill="white" stroke="black" points="815,-0.5 815,-19.5 904,-19.5 904,-0.5 815,-0.5"/>
<text text-anchor="middle" x="859.5" y="-7.5" font-family="Helvetica,sans-Serif" font-size="10.00">hpp::fcl::Triangle</text>
</a>
</g>
</g>
<!-- Node13&#45;&gt;Node1 -->
<g id="edge12" class="edge"><title>Node13&#45;&gt;Node1</title>
<path fill="none" stroke="#9a32cd" stroke-dasharray="5,2" d="M914.202,-18.3635C943.678,-22.9539 981.001,-28.7665 1014.77,-34.0256"/>
<polygon fill="#9a32cd" stroke="#9a32cd" points="914.542,-14.8742 904.122,-16.7936 913.465,-21.7909 914.542,-14.8742"/>
<text text-anchor="middle" x="973" y="-34" font-family="Helvetica,sans-Serif" font-size="10.00"> tri_indices</text>
</g>
</g>
</svg>
