<?xml version="1.0" encoding="UTF-8" standalone="no"?>
<!DOCTYPE svg PUBLIC "-//W3C//DTD SVG 1.1//EN"
 "http://www.w3.org/Graphics/SVG/1.1/DTD/svg11.dtd">
<!-- Generated by graphviz version 2.38.0 (20140413.2041)
 -->
<!-- Title: hpp::fcl::MeshShapeCollisionTraversalNodeOBB&lt; S, NarrowPhaseSolver &gt; Pages: 1 -->
<svg width="1265pt" height="295pt"
 viewBox="0.00 0.00 1265.00 295.00" xmlns="http://www.w3.org/2000/svg" xmlns:xlink="http://www.w3.org/1999/xlink">
<g id="graph0" class="graph" transform="scale(1 1) rotate(0) translate(4 291)">
<title>hpp::fcl::MeshShapeCollisionTraversalNodeOBB&lt; S, NarrowPhaseSolver &gt;</title>
<polygon fill="white" stroke="none" points="-4,4 -4,-291 1261,-291 1261,4 -4,4"/>
<!-- Node1 -->
<g id="node1" class="node"><title>Node1</title>
<polygon fill="#bfbfbf" stroke="black" points="1075,-27.5 1075,-68.5 1257,-68.5 1257,-27.5 1075,-27.5"/>
<text text-anchor="start" x="1083" y="-56.5" font-family="Helvetica,sans-Serif" font-size="10.00">hpp::fcl::MeshShapeCollision</text>
<text text-anchor="start" x="1083" y="-45.5" font-family="Helvetica,sans-Serif" font-size="10.00">TraversalNodeOBB&lt; S, NarrowPhase</text>
<text text-anchor="middle" x="1166" y="-34.5" font-family="Helvetica,sans-Serif" font-size="10.00">Solver &gt;</text>
</g>
<!-- Node2 -->
<g id="node2" class="node"><title>Node2</title>
<g id="a_node2"><a xlink:href="a00058.html" target="_top" xlink:title="hpp::fcl::MeshShapeCollision\lTraversalNode\&lt; OBB, S, NarrowPhase\lSolver, 0 \&gt;">
<polygon fill="white" stroke="black" points="850,-27.5 850,-68.5 1038,-68.5 1038,-27.5 850,-27.5"/>
<text text-anchor="start" x="858" y="-56.5" font-family="Helvetica,sans-Serif" font-size="10.00">hpp::fcl::MeshShapeCollision</text>
<text text-anchor="start" x="858" y="-45.5" font-family="Helvetica,sans-Serif" font-size="10.00">TraversalNode&lt; OBB, S, NarrowPhase</text>
<text text-anchor="middle" x="944" y="-34.5" font-family="Helvetica,sans-Serif" font-size="10.00">Solver, 0 &gt;</text>
</a>
</g>
</g>
<!-- Node2&#45;&gt;Node1 -->
<g id="edge1" class="edge"><title>Node2&#45;&gt;Node1</title>
<path fill="none" stroke="midnightblue" d="M1048.53,-48C1057.28,-48 1066.08,-48 1074.71,-48"/>
<polygon fill="midnightblue" stroke="midnightblue" points="1048.3,-44.5001 1038.3,-48 1048.3,-51.5001 1048.3,-44.5001"/>
</g>
<!-- Node3 -->
<g id="node3" class="node"><title>Node3</title>
<g id="a_node3"><a xlink:href="a00016.html" target="_top" xlink:title="hpp::fcl::BVHShapeCollision\lTraversalNode\&lt; OBB, S \&gt;">
<polygon fill="white" stroke="black" points="638,-130 638,-160 779,-160 779,-130 638,-130"/>
<text text-anchor="start" x="646" y="-148" font-family="Helvetica,sans-Serif" font-size="10.00">hpp::fcl::BVHShapeCollision</text>
<text text-anchor="middle" x="708.5" y="-137" font-family="Helvetica,sans-Serif" font-size="10.00">TraversalNode&lt; OBB, S &gt;</text>
</a>
</g>
</g>
<!-- Node3&#45;&gt;Node2 -->
<g id="edge2" class="edge"><title>Node3&#45;&gt;Node2</title>
<path fill="none" stroke="midnightblue" d="M755.173,-126.027C794.896,-109.525 852.339,-85.6621 893.224,-68.6777"/>
<polygon fill="midnightblue" stroke="midnightblue" points="753.62,-122.882 745.728,-129.95 756.306,-129.346 753.62,-122.882"/>
</g>
<!-- Node4 -->
<g id="node4" class="node"><title>Node4</title>
<g id="a_node4"><a xlink:href="a00029.html" target="_top" xlink:title="Node structure encoding the information required for collision traversal. ">
<polygon fill="white" stroke="black" points="418,-212 418,-242 551,-242 551,-212 418,-212"/>
<text text-anchor="start" x="426" y="-230" font-family="Helvetica,sans-Serif" font-size="10.00">hpp::fcl::CollisionTraversal</text>
<text text-anchor="middle" x="484.5" y="-219" font-family="Helvetica,sans-Serif" font-size="10.00">NodeBase</text>
</a>
</g>
</g>
<!-- Node4&#45;&gt;Node3 -->
<g id="edge3" class="edge"><title>Node4&#45;&gt;Node3</title>
<path fill="none" stroke="midnightblue" d="M546.752,-208.976C569.898,-201.759 596.35,-193.02 620,-184 638.803,-176.829 659.379,-167.724 675.852,-160.115"/>
<polygon fill="midnightblue" stroke="midnightblue" points="545.574,-205.676 537.052,-211.972 547.64,-212.365 545.574,-205.676"/>
</g>
<!-- Node5 -->
<g id="node5" class="node"><title>Node5</title>
<g id="a_node5"><a xlink:href="a00108.html" target="_top" xlink:title="Node structure encoding the information required for traversal. ">
<polygon fill="white" stroke="black" points="193,-255.5 193,-274.5 334,-274.5 334,-255.5 193,-255.5"/>
<text text-anchor="middle" x="263.5" y="-262.5" font-family="Helvetica,sans-Serif" font-size="10.00">hpp::fcl::TraversalNodeBase</text>
</a>
</g>
</g>
<!-- Node5&#45;&gt;Node4 -->
<g id="edge4" class="edge"><title>Node5&#45;&gt;Node4</title>
<path fill="none" stroke="midnightblue" d="M331.104,-253.825C353.053,-250.108 377.579,-245.917 400,-242 405.804,-240.986 411.832,-239.923 417.874,-238.851"/>
<polygon fill="midnightblue" stroke="midnightblue" points="330.494,-250.379 321.218,-255.497 331.662,-257.281 330.494,-250.379"/>
</g>
<!-- Node6 -->
<g id="node6" class="node"><title>Node6</title>
<g id="a_node6"><a xlink:href="a00107.html" target="_top" xlink:title="Simple transform class used locally by InterpMotion. ">
<polygon fill="white" stroke="black" points="0,-255.5 0,-274.5 107,-274.5 107,-255.5 0,-255.5"/>
<text text-anchor="middle" x="53.5" y="-262.5" font-family="Helvetica,sans-Serif" font-size="10.00">hpp::fcl::Transform3f</text>
</a>
</g>
</g>
<!-- Node6&#45;&gt;Node5 -->
<g id="edge5" class="edge"><title>Node6&#45;&gt;Node5</title>
<path fill="none" stroke="#9a32cd" stroke-dasharray="5,2" d="M117.573,-265C141.361,-265 168.549,-265 192.9,-265"/>
<polygon fill="#9a32cd" stroke="#9a32cd" points="117.256,-261.5 107.256,-265 117.256,-268.5 117.256,-261.5"/>
<text text-anchor="middle" x="150" y="-279" font-family="Helvetica,sans-Serif" font-size="10.00"> tf1</text>
<text text-anchor="middle" x="150" y="-268" font-family="Helvetica,sans-Serif" font-size="10.00">tf2</text>
</g>
<!-- Node7 -->
<g id="node7" class="node"><title>Node7</title>
<g id="a_node7"><a xlink:href="a00027.html" target="_top" xlink:title="request to the collision algorithm ">
<polygon fill="white" stroke="black" points="199,-217.5 199,-236.5 328,-236.5 328,-217.5 199,-217.5"/>
<text text-anchor="middle" x="263.5" y="-224.5" font-family="Helvetica,sans-Serif" font-size="10.00">hpp::fcl::CollisionRequest</text>
</a>
</g>
</g>
<!-- Node7&#45;&gt;Node4 -->
<g id="edge6" class="edge"><title>Node7&#45;&gt;Node4</title>
<path fill="none" stroke="#9a32cd" stroke-dasharray="5,2" d="M338.227,-227C363.994,-227 392.731,-227 417.8,-227"/>
<polygon fill="#9a32cd" stroke="#9a32cd" points="338.138,-223.5 328.138,-227 338.138,-230.5 338.138,-223.5"/>
<text text-anchor="middle" x="376" y="-230" font-family="Helvetica,sans-Serif" font-size="10.00"> request</text>
</g>
<!-- Node8 -->
<g id="node8" class="node"><title>Node8</title>
<g id="a_node8"><a xlink:href="a00028.html" target="_top" xlink:title="collision result ">
<polygon fill="white" stroke="black" points="203,-179.5 203,-198.5 324,-198.5 324,-179.5 203,-179.5"/>
<text text-anchor="middle" x="263.5" y="-186.5" font-family="Helvetica,sans-Serif" font-size="10.00">hpp::fcl::CollisionResult</text>
</a>
</g>
</g>
<!-- Node8&#45;&gt;Node4 -->
<g id="edge7" class="edge"><title>Node8&#45;&gt;Node4</title>
<path fill="none" stroke="#9a32cd" stroke-dasharray="5,2" d="M331.104,-200.175C353.053,-203.892 377.579,-208.083 400,-212 405.804,-213.014 411.832,-214.077 417.874,-215.149"/>
<polygon fill="#9a32cd" stroke="#9a32cd" points="331.662,-196.719 321.218,-198.503 330.494,-203.621 331.662,-196.719"/>
<text text-anchor="middle" x="376" y="-215" font-family="Helvetica,sans-Serif" font-size="10.00"> result</text>
</g>
<!-- Node9 -->
<g id="node9" class="node"><title>Node9</title>
<g id="a_node9"><a xlink:href="a00068.html" target="_top" xlink:title="Oriented bounding box class. ">
<polygon fill="white" stroke="black" points="446.5,-173.5 446.5,-192.5 522.5,-192.5 522.5,-173.5 446.5,-173.5"/>
<text text-anchor="middle" x="484.5" y="-180.5" font-family="Helvetica,sans-Serif" font-size="10.00">hpp::fcl::OBB</text>
</a>
</g>
</g>
<!-- Node9&#45;&gt;Node3 -->
<g id="edge8" class="edge"><title>Node9&#45;&gt;Node3</title>
<path fill="none" stroke="#9a32cd" stroke-dasharray="5,2" d="M532.511,-174.966C558.336,-170.551 590.935,-164.976 620,-160 625.773,-159.012 631.76,-157.986 637.77,-156.956"/>
<polygon fill="#9a32cd" stroke="#9a32cd" points="531.876,-171.524 522.609,-176.659 533.055,-178.423 531.876,-171.524"/>
<text text-anchor="middle" x="594.5" y="-172" font-family="Helvetica,sans-Serif" font-size="10.00"> model2_bv</text>
</g>
<!-- Node10 -->
<g id="node10" class="node"><title>Node10</title>
<polygon fill="white" stroke="#bfbfbf" points="470,-135.5 470,-154.5 499,-154.5 499,-135.5 470,-135.5"/>
<text text-anchor="middle" x="484.5" y="-142.5" font-family="Helvetica,sans-Serif" font-size="10.00">S</text>
</g>
<!-- Node10&#45;&gt;Node3 -->
<g id="edge9" class="edge"><title>Node10&#45;&gt;Node3</title>
<path fill="none" stroke="#9a32cd" stroke-dasharray="5,2" d="M509.119,-145C539.53,-145 593.707,-145 637.768,-145"/>
<polygon fill="#9a32cd" stroke="#9a32cd" points="509.053,-141.5 499.053,-145 509.053,-148.5 509.053,-141.5"/>
<text text-anchor="middle" x="594.5" y="-148" font-family="Helvetica,sans-Serif" font-size="10.00"> model2</text>
</g>
<!-- Node11 -->
<g id="node11" class="node"><title>Node11</title>
<g id="a_node11"><a xlink:href="a00015.html" target="_top" xlink:title="hpp::fcl::BVHModel\l\&lt; OBB \&gt;">
<polygon fill="white" stroke="black" points="433.5,-86 433.5,-116 535.5,-116 535.5,-86 433.5,-86"/>
<text text-anchor="start" x="441.5" y="-104" font-family="Helvetica,sans-Serif" font-size="10.00">hpp::fcl::BVHModel</text>
<text text-anchor="middle" x="484.5" y="-93" font-family="Helvetica,sans-Serif" font-size="10.00">&lt; OBB &gt;</text>
</a>
</g>
</g>
<!-- Node11&#45;&gt;Node3 -->
<g id="edge10" class="edge"><title>Node11&#45;&gt;Node3</title>
<path fill="none" stroke="#9a32cd" stroke-dasharray="5,2" d="M545.421,-112.876C573.916,-118.524 608.155,-125.31 637.807,-131.187"/>
<polygon fill="#9a32cd" stroke="#9a32cd" points="546.088,-109.44 535.598,-110.929 544.727,-116.307 546.088,-109.44"/>
<text text-anchor="middle" x="594.5" y="-130" font-family="Helvetica,sans-Serif" font-size="10.00"> model1</text>
</g>
<!-- Node12 -->
<g id="node12" class="node"><title>Node12</title>
<g id="a_node12"><a xlink:href="a00025.html" target="_top" xlink:title="The geometry for the object for collision or distance computation. ">
<polygon fill="white" stroke="black" points="196,-135.5 196,-154.5 331,-154.5 331,-135.5 196,-135.5"/>
<text text-anchor="middle" x="263.5" y="-142.5" font-family="Helvetica,sans-Serif" font-size="10.00">hpp::fcl::CollisionGeometry</text>
</a>
</g>
</g>
<!-- Node12&#45;&gt;Node11 -->
<g id="edge11" class="edge"><title>Node12&#45;&gt;Node11</title>
<path fill="none" stroke="midnightblue" d="M322.494,-133.499C346.488,-128.727 374.59,-123.118 400,-118 410.732,-115.838 422.237,-113.506 433.17,-111.282"/>
<polygon fill="midnightblue" stroke="midnightblue" points="321.608,-130.107 312.483,-135.489 322.973,-136.972 321.608,-130.107"/>
</g>
<!-- Node13 -->
<g id="node13" class="node"><title>Node13</title>
<g id="a_node13"><a xlink:href="a00004.html" target="_top" xlink:title="A class describing the AABB collision structure, which is a box in 3D space determined by two diagona...">
<polygon fill="white" stroke="black" points="12.5,-135.5 12.5,-154.5 94.5,-154.5 94.5,-135.5 12.5,-135.5"/>
<text text-anchor="middle" x="53.5" y="-142.5" font-family="Helvetica,sans-Serif" font-size="10.00">hpp::fcl::AABB</text>
</a>
</g>
</g>
<!-- Node13&#45;&gt;Node12 -->
<g id="edge12" class="edge"><title>Node13&#45;&gt;Node12</title>
<path fill="none" stroke="#9a32cd" stroke-dasharray="5,2" d="M104.737,-145C132.113,-145 166.345,-145 195.919,-145"/>
<polygon fill="#9a32cd" stroke="#9a32cd" points="104.605,-141.5 94.6045,-145 104.604,-148.5 104.605,-141.5"/>
<text text-anchor="middle" x="150" y="-148" font-family="Helvetica,sans-Serif" font-size="10.00"> aabb_local</text>
</g>
<!-- Node14 -->
<g id="node14" class="node"><title>Node14</title>
<polygon fill="white" stroke="#bfbfbf" points="213,-97.5 213,-116.5 314,-116.5 314,-97.5 213,-97.5"/>
<text text-anchor="middle" x="263.5" y="-104.5" font-family="Helvetica,sans-Serif" font-size="10.00">boost::noncopyable</text>
</g>
<!-- Node14&#45;&gt;Node11 -->
<g id="edge13" class="edge"><title>Node14&#45;&gt;Node11</title>
<path fill="none" stroke="#8b1a1a" d="M324.504,-105.356C358.629,-104.421 400.877,-103.264 433.244,-102.377"/>
<polygon fill="#8b1a1a" stroke="#8b1a1a" points="324.095,-101.866 314.194,-105.639 324.287,-108.863 324.095,-101.866"/>
</g>
<!-- Node15 -->
<g id="node15" class="node"><title>Node15</title>
<g id="a_node15"><a xlink:href="a00109.html" target="_top" xlink:title="Triangle with 3 indices for points. ">
<polygon fill="white" stroke="black" points="219,-49.5 219,-68.5 308,-68.5 308,-49.5 219,-49.5"/>
<text text-anchor="middle" x="263.5" y="-56.5" font-family="Helvetica,sans-Serif" font-size="10.00">hpp::fcl::Triangle</text>
</a>
</g>
</g>
<!-- Node15&#45;&gt;Node2 -->
<g id="edge16" class="edge"><title>Node15&#45;&gt;Node2</title>
<path fill="none" stroke="#9a32cd" stroke-dasharray="5,2" d="M318.236,-58.1288C433.515,-56.2599 705.758,-51.8462 849.831,-49.5105"/>
<polygon fill="#9a32cd" stroke="#9a32cd" points="318.177,-54.6292 308.235,-58.291 318.291,-61.6283 318.177,-54.6292"/>
<text text-anchor="middle" x="594.5" y="-58" font-family="Helvetica,sans-Serif" font-size="10.00"> tri_indices</text>
</g>
<!-- Node15&#45;&gt;Node11 -->
<g id="edge14" class="edge"><title>Node15&#45;&gt;Node11</title>
<path fill="none" stroke="#9a32cd" stroke-dasharray="5,2" d="M318.093,-69.2782C353.181,-76.0074 398.736,-84.7438 433.151,-91.3441"/>
<polygon fill="#9a32cd" stroke="#9a32cd" points="318.509,-65.7943 308.029,-67.3481 317.191,-72.669 318.509,-65.7943"/>
<text text-anchor="middle" x="376" y="-87" font-family="Helvetica,sans-Serif" font-size="10.00"> tri_indices</text>
</g>
<!-- Node16 -->
<g id="node16" class="node"><title>Node16</title>
<polygon fill="white" stroke="#bfbfbf" points="656.5,-0.5 656.5,-19.5 760.5,-19.5 760.5,-0.5 656.5,-0.5"/>
<text text-anchor="middle" x="708.5" y="-7.5" font-family="Helvetica,sans-Serif" font-size="10.00">NarrowPhaseSolver</text>
</g>
<!-- Node16&#45;&gt;Node2 -->
<g id="edge15" class="edge"><title>Node16&#45;&gt;Node2</title>
<path fill="none" stroke="#9a32cd" stroke-dasharray="5,2" d="M770.69,-15.0884C790.335,-17.0971 812.144,-19.7218 832,-23 839.893,-24.3032 848.067,-25.8198 856.236,-27.4496"/>
<polygon fill="#9a32cd" stroke="#9a32cd" points="770.933,-11.5954 760.637,-14.094 770.243,-18.5614 770.933,-11.5954"/>
<text text-anchor="middle" x="814.5" y="-26" font-family="Helvetica,sans-Serif" font-size="10.00"> nsolver</text>
</g>
</g>
</svg>
