<?xml version="1.0" encoding="UTF-8" standalone="no"?>
<!DOCTYPE svg PUBLIC "-//W3C//DTD SVG 1.1//EN"
 "http://www.w3.org/Graphics/SVG/1.1/DTD/svg11.dtd">
<!-- Generated by graphviz version 2.38.0 (20140413.2041)
 -->
<!-- Title: hpp::fcl::OcTreeShapeDistanceTraversalNode&lt; S, NarrowPhaseSolver &gt; Pages: 1 -->
<svg width="995pt" height="149pt"
 viewBox="0.00 0.00 995.00 149.00" xmlns="http://www.w3.org/2000/svg" xmlns:xlink="http://www.w3.org/1999/xlink">
<g id="graph0" class="graph" transform="scale(1 1) rotate(0) translate(4 145)">
<title>hpp::fcl::OcTreeShapeDistanceTraversalNode&lt; S, NarrowPhaseSolver &gt;</title>
<polygon fill="white" stroke="none" points="-4,4 -4,-145 991,-145 991,4 -4,4"/>
<!-- Node1 -->
<g id="node1" class="node"><title>Node1</title>
<polygon fill="#bfbfbf" stroke="black" points="789,-27 789,-57 987,-57 987,-27 789,-27"/>
<text text-anchor="start" x="797" y="-45" font-family="Helvetica,sans-Serif" font-size="10.00">hpp::fcl::OcTreeShapeDistance</text>
<text text-anchor="middle" x="888" y="-34" font-family="Helvetica,sans-Serif" font-size="10.00">TraversalNode&lt; S, NarrowPhaseSolver &gt;</text>
</g>
<!-- Node2 -->
<g id="node2" class="node"><title>Node2</title>
<g id="a_node2"><a xlink:href="a00040.html" target="_top" xlink:title="Node structure encoding the information required for distance traversal. ">
<polygon fill="white" stroke="black" points="618,-59 618,-89 752,-89 752,-59 618,-59"/>
<text text-anchor="start" x="626" y="-77" font-family="Helvetica,sans-Serif" font-size="10.00">hpp::fcl::DistanceTraversal</text>
<text text-anchor="middle" x="685" y="-66" font-family="Helvetica,sans-Serif" font-size="10.00">NodeBase</text>
</a>
</g>
</g>
<!-- Node2&#45;&gt;Node1 -->
<g id="edge1" class="edge"><title>Node2&#45;&gt;Node1</title>
<path fill="none" stroke="midnightblue" d="M762.249,-61.8609C772.126,-60.2885 782.335,-58.6631 792.463,-57.0506"/>
<polygon fill="midnightblue" stroke="midnightblue" points="761.419,-58.4489 752.093,-63.4777 762.519,-65.3618 761.419,-58.4489"/>
</g>
<!-- Node3 -->
<g id="node3" class="node"><title>Node3</title>
<g id="a_node3"><a xlink:href="a00108.html" target="_top" xlink:title="Node structure encoding the information required for traversal. ">
<polygon fill="white" stroke="black" points="354,-109.5 354,-128.5 495,-128.5 495,-109.5 354,-109.5"/>
<text text-anchor="middle" x="424.5" y="-116.5" font-family="Helvetica,sans-Serif" font-size="10.00">hpp::fcl::TraversalNodeBase</text>
</a>
</g>
</g>
<!-- Node3&#45;&gt;Node2 -->
<g id="edge2" class="edge"><title>Node3&#45;&gt;Node2</title>
<path fill="none" stroke="midnightblue" d="M505.307,-109.129C535.121,-105.031 569.207,-99.859 600,-94 607.658,-92.5429 615.671,-90.8526 623.578,-89.0839"/>
<polygon fill="midnightblue" stroke="midnightblue" points="504.81,-105.664 495.371,-110.477 505.751,-112.601 504.81,-105.664"/>
</g>
<!-- Node4 -->
<g id="node4" class="node"><title>Node4</title>
<g id="a_node4"><a xlink:href="a00107.html" target="_top" xlink:title="Simple transform class used locally by InterpMotion. ">
<polygon fill="white" stroke="black" points="182,-109.5 182,-128.5 289,-128.5 289,-109.5 182,-109.5"/>
<text text-anchor="middle" x="235.5" y="-116.5" font-family="Helvetica,sans-Serif" font-size="10.00">hpp::fcl::Transform3f</text>
</a>
</g>
</g>
<!-- Node4&#45;&gt;Node3 -->
<g id="edge3" class="edge"><title>Node4&#45;&gt;Node3</title>
<path fill="none" stroke="#9a32cd" stroke-dasharray="5,2" d="M299.209,-119C316.756,-119 335.931,-119 353.854,-119"/>
<polygon fill="#9a32cd" stroke="#9a32cd" points="299.088,-115.5 289.088,-119 299.088,-122.5 299.088,-115.5"/>
<text text-anchor="middle" x="328.5" y="-133" font-family="Helvetica,sans-Serif" font-size="10.00"> tf1</text>
<text text-anchor="middle" x="328.5" y="-122" font-family="Helvetica,sans-Serif" font-size="10.00">tf2</text>
</g>
<!-- Node5 -->
<g id="node5" class="node"><title>Node5</title>
<g id="a_node5"><a xlink:href="a00036.html" target="_top" xlink:title="request to the distance computation ">
<polygon fill="white" stroke="black" points="359,-71.5 359,-90.5 490,-90.5 490,-71.5 359,-71.5"/>
<text text-anchor="middle" x="424.5" y="-78.5" font-family="Helvetica,sans-Serif" font-size="10.00">hpp::fcl::DistanceRequest</text>
</a>
</g>
</g>
<!-- Node5&#45;&gt;Node2 -->
<g id="edge4" class="edge"><title>Node5&#45;&gt;Node2</title>
<path fill="none" stroke="#9a32cd" stroke-dasharray="5,2" d="M500.308,-78.9743C537.361,-77.9709 581.718,-76.7697 617.561,-75.7991"/>
<polygon fill="#9a32cd" stroke="#9a32cd" points="499.965,-75.4822 490.064,-79.2517 500.155,-82.4796 499.965,-75.4822"/>
<text text-anchor="middle" x="556.5" y="-82" font-family="Helvetica,sans-Serif" font-size="10.00"> request</text>
</g>
<!-- Node6 -->
<g id="node6" class="node"><title>Node6</title>
<g id="a_node6"><a xlink:href="a00037.html" target="_top" xlink:title="distance result ">
<polygon fill="white" stroke="black" points="363.5,-33.5 363.5,-52.5 485.5,-52.5 485.5,-33.5 363.5,-33.5"/>
<text text-anchor="middle" x="424.5" y="-40.5" font-family="Helvetica,sans-Serif" font-size="10.00">hpp::fcl::DistanceResult</text>
</a>
</g>
</g>
<!-- Node6&#45;&gt;Node2 -->
<g id="edge5" class="edge"><title>Node6&#45;&gt;Node2</title>
<path fill="none" stroke="#9a32cd" stroke-dasharray="5,2" d="M495.828,-50.116C527.666,-53.4768 565.76,-57.6914 600,-62 605.846,-62.7357 611.917,-63.5344 617.998,-64.3586"/>
<polygon fill="#9a32cd" stroke="#9a32cd" points="496.035,-46.6186 485.724,-49.0559 495.304,-53.5803 496.035,-46.6186"/>
<text text-anchor="middle" x="556.5" y="-65" font-family="Helvetica,sans-Serif" font-size="10.00"> result</text>
</g>
<!-- Node7 -->
<g id="node7" class="node"><title>Node7</title>
<g id="a_node7"><a xlink:href="a00025.html" target="_top" xlink:title="The geometry for the object for collision or distance computation. ">
<polygon fill="white" stroke="black" points="168,-14.5 168,-33.5 303,-33.5 303,-14.5 168,-14.5"/>
<text text-anchor="middle" x="235.5" y="-21.5" font-family="Helvetica,sans-Serif" font-size="10.00">hpp::fcl::CollisionGeometry</text>
</a>
</g>
</g>
<!-- Node7&#45;&gt;Node6 -->
<g id="edge6" class="edge"><title>Node7&#45;&gt;Node6</title>
<path fill="none" stroke="#9a32cd" stroke-dasharray="5,2" d="M313.466,-31.82C330.103,-33.5105 347.462,-35.2742 363.343,-36.8878"/>
<polygon fill="#9a32cd" stroke="#9a32cd" points="313.522,-28.3078 303.219,-30.779 312.814,-35.272 313.522,-28.3078"/>
<text text-anchor="middle" x="328.5" y="-49" font-family="Helvetica,sans-Serif" font-size="10.00"> o1</text>
<text text-anchor="middle" x="328.5" y="-38" font-family="Helvetica,sans-Serif" font-size="10.00">o2</text>
</g>
<!-- Node9 -->
<g id="node9" class="node"><title>Node9</title>
<g id="a_node9"><a xlink:href="a00070.html" target="_top" xlink:title="Octree is one type of collision geometry which can encode uncertainty information in the sensor data...">
<polygon fill="white" stroke="black" points="513,-0.5 513,-19.5 600,-19.5 600,-0.5 513,-0.5"/>
<text text-anchor="middle" x="556.5" y="-7.5" font-family="Helvetica,sans-Serif" font-size="10.00">hpp::fcl::OcTree</text>
</a>
</g>
</g>
<!-- Node7&#45;&gt;Node9 -->
<g id="edge9" class="edge"><title>Node7&#45;&gt;Node9</title>
<path fill="none" stroke="midnightblue" d="M313.581,-20.6171C376.058,-17.8752 461.798,-14.1123 512.645,-11.8808"/>
<polygon fill="midnightblue" stroke="midnightblue" points="313.21,-17.13 303.373,-21.0651 313.517,-24.1232 313.21,-17.13"/>
</g>
<!-- Node8 -->
<g id="node8" class="node"><title>Node8</title>
<g id="a_node8"><a xlink:href="a00004.html" target="_top" xlink:title="A class describing the AABB collision structure, which is a box in 3D space determined by two diagona...">
<polygon fill="white" stroke="black" points="0,-14.5 0,-33.5 82,-33.5 82,-14.5 0,-14.5"/>
<text text-anchor="middle" x="41" y="-21.5" font-family="Helvetica,sans-Serif" font-size="10.00">hpp::fcl::AABB</text>
</a>
</g>
</g>
<!-- Node8&#45;&gt;Node7 -->
<g id="edge7" class="edge"><title>Node8&#45;&gt;Node7</title>
<path fill="none" stroke="#9a32cd" stroke-dasharray="5,2" d="M92.5651,-24C115.539,-24 143.033,-24 167.679,-24"/>
<polygon fill="#9a32cd" stroke="#9a32cd" points="92.3543,-20.5001 82.3543,-24 92.3543,-27.5001 92.3543,-20.5001"/>
<text text-anchor="middle" x="125" y="-27" font-family="Helvetica,sans-Serif" font-size="10.00"> aabb_local</text>
</g>
<!-- Node9&#45;&gt;Node1 -->
<g id="edge8" class="edge"><title>Node9&#45;&gt;Node1</title>
<path fill="none" stroke="#9a32cd" stroke-dasharray="5,2" d="M610.405,-15.138C658.418,-19.8009 730.441,-26.7955 788.956,-32.4782"/>
<polygon fill="#9a32cd" stroke="#9a32cd" points="610.53,-11.6337 600.239,-14.1506 609.853,-18.601 610.53,-11.6337"/>
<text text-anchor="middle" x="685" y="-32" font-family="Helvetica,sans-Serif" font-size="10.00"> model1</text>
</g>
</g>
</svg>
