<?xml version="1.0" encoding="UTF-8" standalone="no"?>
<!DOCTYPE svg PUBLIC "-//W3C//DTD SVG 1.1//EN"
 "http://www.w3.org/Graphics/SVG/1.1/DTD/svg11.dtd">
<!-- Generated by graphviz version 2.38.0 (20140413.2041)
 -->
<!-- Title: hpp::fcl::ShapeBase Pages: 1 -->
<svg width="419pt" height="332pt"
 viewBox="0.00 0.00 419.00 332.00" xmlns="http://www.w3.org/2000/svg" xmlns:xlink="http://www.w3.org/1999/xlink">
<g id="graph0" class="graph" transform="scale(1 1) rotate(0) translate(4 328)">
<title>hpp::fcl::ShapeBase</title>
<polygon fill="white" stroke="none" points="-4,4 -4,-328 415,-328 415,4 -4,4"/>
<!-- Node1 -->
<g id="node1" class="node"><title>Node1</title>
<polygon fill="#bfbfbf" stroke="black" points="171,-152.5 171,-171.5 276,-171.5 276,-152.5 171,-152.5"/>
<text text-anchor="middle" x="223.5" y="-159.5" font-family="Helvetica,sans-Serif" font-size="10.00">hpp::fcl::ShapeBase</text>
</g>
<!-- Node3 -->
<g id="node3" class="node"><title>Node3</title>
<g id="a_node3"><a xlink:href="a00005.html" target="_top" xlink:title="Center at zero point, axis aligned box. ">
<polygon fill="white" stroke="black" points="325.5,-304.5 325.5,-323.5 397.5,-323.5 397.5,-304.5 325.5,-304.5"/>
<text text-anchor="middle" x="361.5" y="-311.5" font-family="Helvetica,sans-Serif" font-size="10.00">hpp::fcl::Box</text>
</a>
</g>
</g>
<!-- Node1&#45;&gt;Node3 -->
<g id="edge2" class="edge"><title>Node1&#45;&gt;Node3</title>
<path fill="none" stroke="midnightblue" d="M232.477,-181.122C245.278,-209.65 272.988,-263.38 312,-295 316.707,-298.815 322.272,-301.935 327.924,-304.462"/>
<polygon fill="midnightblue" stroke="midnightblue" points="235.638,-179.615 228.442,-171.839 229.219,-182.405 235.638,-179.615"/>
</g>
<!-- Node4 -->
<g id="node4" class="node"><title>Node4</title>
<g id="a_node4"><a xlink:href="a00023.html" target="_top" xlink:title="Center at zero point capsule. ">
<polygon fill="white" stroke="black" points="316,-266.5 316,-285.5 407,-285.5 407,-266.5 316,-266.5"/>
<text text-anchor="middle" x="361.5" y="-273.5" font-family="Helvetica,sans-Serif" font-size="10.00">hpp::fcl::Capsule</text>
</a>
</g>
</g>
<!-- Node1&#45;&gt;Node4 -->
<g id="edge3" class="edge"><title>Node1&#45;&gt;Node4</title>
<path fill="none" stroke="midnightblue" d="M237.113,-180.048C252.611,-201.06 280.724,-235.606 312,-257 317.449,-260.727 323.734,-263.874 329.935,-266.467"/>
<polygon fill="midnightblue" stroke="midnightblue" points="239.78,-177.762 231.093,-171.696 234.101,-181.855 239.78,-177.762"/>
</g>
<!-- Node5 -->
<g id="node5" class="node"><title>Node5</title>
<g id="a_node5"><a xlink:href="a00030.html" target="_top" xlink:title="Center at zero cone. ">
<polygon fill="white" stroke="black" points="322.5,-228.5 322.5,-247.5 400.5,-247.5 400.5,-228.5 322.5,-228.5"/>
<text text-anchor="middle" x="361.5" y="-235.5" font-family="Helvetica,sans-Serif" font-size="10.00">hpp::fcl::Cone</text>
</a>
</g>
</g>
<!-- Node1&#45;&gt;Node5 -->
<g id="edge4" class="edge"><title>Node1&#45;&gt;Node5</title>
<path fill="none" stroke="midnightblue" d="M245.58,-177.487C262.86,-189.745 288.252,-206.776 312,-219 318.674,-222.435 326.118,-225.64 333.132,-228.403"/>
<polygon fill="midnightblue" stroke="midnightblue" points="247.498,-174.556 237.335,-171.563 243.414,-180.24 247.498,-174.556"/>
</g>
<!-- Node6 -->
<g id="node6" class="node"><title>Node6</title>
<g id="a_node6"><a xlink:href="a00033.html" target="_top" xlink:title="Convex polytope. ">
<polygon fill="white" stroke="black" points="317,-190.5 317,-209.5 406,-209.5 406,-190.5 317,-190.5"/>
<text text-anchor="middle" x="361.5" y="-197.5" font-family="Helvetica,sans-Serif" font-size="10.00">hpp::fcl::Convex</text>
</a>
</g>
</g>
<!-- Node1&#45;&gt;Node6 -->
<g id="edge5" class="edge"><title>Node1&#45;&gt;Node6</title>
<path fill="none" stroke="midnightblue" d="M268.587,-174.318C287.272,-179.539 308.718,-185.532 326.192,-190.414"/>
<polygon fill="midnightblue" stroke="midnightblue" points="269.392,-170.909 258.819,-171.589 267.508,-177.651 269.392,-170.909"/>
</g>
<!-- Node7 -->
<g id="node7" class="node"><title>Node7</title>
<g id="a_node7"><a xlink:href="a00034.html" target="_top" xlink:title="Center at zero cylinder. ">
<polygon fill="white" stroke="black" points="316,-152.5 316,-171.5 407,-171.5 407,-152.5 316,-152.5"/>
<text text-anchor="middle" x="361.5" y="-159.5" font-family="Helvetica,sans-Serif" font-size="10.00">hpp::fcl::Cylinder</text>
</a>
</g>
</g>
<!-- Node1&#45;&gt;Node7 -->
<g id="edge6" class="edge"><title>Node1&#45;&gt;Node7</title>
<path fill="none" stroke="midnightblue" d="M286.539,-162C296.454,-162 306.54,-162 315.944,-162"/>
<polygon fill="midnightblue" stroke="midnightblue" points="286.304,-158.5 276.304,-162 286.304,-165.5 286.304,-158.5"/>
</g>
<!-- Node8 -->
<g id="node8" class="node"><title>Node8</title>
<g id="a_node8"><a xlink:href="a00045.html" target="_top" xlink:title="Half Space: this is equivalent to the Plane in ODE. ">
<polygon fill="white" stroke="black" points="312,-114.5 312,-133.5 411,-133.5 411,-114.5 312,-114.5"/>
<text text-anchor="middle" x="361.5" y="-121.5" font-family="Helvetica,sans-Serif" font-size="10.00">hpp::fcl::Halfspace</text>
</a>
</g>
</g>
<!-- Node1&#45;&gt;Node8 -->
<g id="edge7" class="edge"><title>Node1&#45;&gt;Node8</title>
<path fill="none" stroke="midnightblue" d="M268.587,-149.682C287.272,-144.461 308.718,-138.468 326.192,-133.586"/>
<polygon fill="midnightblue" stroke="midnightblue" points="267.508,-146.349 258.819,-152.411 269.392,-153.091 267.508,-146.349"/>
</g>
<!-- Node9 -->
<g id="node9" class="node"><title>Node9</title>
<g id="a_node9"><a xlink:href="a00078.html" target="_top" xlink:title="Infinite plane. ">
<polygon fill="white" stroke="black" points="321.5,-76.5 321.5,-95.5 401.5,-95.5 401.5,-76.5 321.5,-76.5"/>
<text text-anchor="middle" x="361.5" y="-83.5" font-family="Helvetica,sans-Serif" font-size="10.00">hpp::fcl::Plane</text>
</a>
</g>
</g>
<!-- Node1&#45;&gt;Node9 -->
<g id="edge8" class="edge"><title>Node1&#45;&gt;Node9</title>
<path fill="none" stroke="midnightblue" d="M245.58,-146.513C262.86,-134.255 288.252,-117.224 312,-105 318.674,-101.565 326.118,-98.3598 333.132,-95.597"/>
<polygon fill="midnightblue" stroke="midnightblue" points="243.414,-143.76 237.335,-152.437 247.498,-149.444 243.414,-143.76"/>
</g>
<!-- Node10 -->
<g id="node10" class="node"><title>Node10</title>
<g id="a_node10"><a xlink:href="a00106.html" target="_top" xlink:title="Center at zero point sphere. ">
<polygon fill="white" stroke="black" points="318.5,-38.5 318.5,-57.5 404.5,-57.5 404.5,-38.5 318.5,-38.5"/>
<text text-anchor="middle" x="361.5" y="-45.5" font-family="Helvetica,sans-Serif" font-size="10.00">hpp::fcl::Sphere</text>
</a>
</g>
</g>
<!-- Node1&#45;&gt;Node10 -->
<g id="edge9" class="edge"><title>Node1&#45;&gt;Node10</title>
<path fill="none" stroke="midnightblue" d="M237.113,-143.952C252.611,-122.94 280.724,-88.3936 312,-67 317.449,-63.2729 323.734,-60.1265 329.935,-57.5326"/>
<polygon fill="midnightblue" stroke="midnightblue" points="234.101,-142.145 231.093,-152.304 239.78,-146.238 234.101,-142.145"/>
</g>
<!-- Node11 -->
<g id="node11" class="node"><title>Node11</title>
<g id="a_node11"><a xlink:href="a00112.html" target="_top" xlink:title="Triangle stores the points instead of only indices of points. ">
<polygon fill="white" stroke="black" points="313.5,-0.5 313.5,-19.5 409.5,-19.5 409.5,-0.5 313.5,-0.5"/>
<text text-anchor="middle" x="361.5" y="-7.5" font-family="Helvetica,sans-Serif" font-size="10.00">hpp::fcl::TriangleP</text>
</a>
</g>
</g>
<!-- Node1&#45;&gt;Node11 -->
<g id="edge10" class="edge"><title>Node1&#45;&gt;Node11</title>
<path fill="none" stroke="midnightblue" d="M232.477,-142.878C245.278,-114.35 272.988,-60.6204 312,-29 316.707,-25.1848 322.272,-22.0652 327.924,-19.5384"/>
<polygon fill="midnightblue" stroke="midnightblue" points="229.219,-141.595 228.442,-152.161 235.638,-144.385 229.219,-141.595"/>
</g>
<!-- Node2 -->
<g id="node2" class="node"><title>Node2</title>
<g id="a_node2"><a xlink:href="a00025.html" target="_top" xlink:title="The geometry for the object for collision or distance computation. ">
<polygon fill="white" stroke="black" points="0,-152.5 0,-171.5 135,-171.5 135,-152.5 0,-152.5"/>
<text text-anchor="middle" x="67.5" y="-159.5" font-family="Helvetica,sans-Serif" font-size="10.00">hpp::fcl::CollisionGeometry</text>
</a>
</g>
</g>
<!-- Node2&#45;&gt;Node1 -->
<g id="edge1" class="edge"><title>Node2&#45;&gt;Node1</title>
<path fill="none" stroke="midnightblue" d="M145.218,-162C153.818,-162 162.422,-162 170.602,-162"/>
<polygon fill="midnightblue" stroke="midnightblue" points="145.151,-158.5 135.151,-162 145.151,-165.5 145.151,-158.5"/>
</g>
</g>
</svg>
