<?xml version="1.0" encoding="UTF-8" standalone="no"?>
<!DOCTYPE svg PUBLIC "-//W3C//DTD SVG 1.1//EN"
 "http://www.w3.org/Graphics/SVG/1.1/DTD/svg11.dtd">
<!-- Generated by graphviz version 2.38.0 (20140413.2041)
 -->
<!-- Title: hpp::fcl::ShapeDistanceTraversalNode&lt; S1, S2, NarrowPhaseSolver &gt; Pages: 1 -->
<svg width="189pt" height="162pt"
 viewBox="0.00 0.00 189.00 162.00" xmlns="http://www.w3.org/2000/svg" xmlns:xlink="http://www.w3.org/1999/xlink">
<g id="graph0" class="graph" transform="scale(1 1) rotate(0) translate(4 158)">
<title>hpp::fcl::ShapeDistanceTraversalNode&lt; S1, S2, NarrowPhaseSolver &gt;</title>
<polygon fill="white" stroke="none" points="-4,4 -4,-158 185,-158 185,4 -4,4"/>
<!-- Node1 -->
<g id="node1" class="node"><title>Node1</title>
<polygon fill="#bfbfbf" stroke="black" points="0,-0.5 0,-30.5 181,-30.5 181,-0.5 0,-0.5"/>
<text text-anchor="start" x="8" y="-18.5" font-family="Helvetica,sans-Serif" font-size="10.00">hpp::fcl::ShapeDistanceTraversal</text>
<text text-anchor="middle" x="90.5" y="-7.5" font-family="Helvetica,sans-Serif" font-size="10.00">Node&lt; S1, S2, NarrowPhaseSolver &gt;</text>
</g>
<!-- Node2 -->
<g id="node2" class="node"><title>Node2</title>
<g id="a_node2"><a xlink:href="a00040.html" target="_top" xlink:title="Node structure encoding the information required for distance traversal. ">
<polygon fill="white" stroke="black" points="23.5,-67.5 23.5,-97.5 157.5,-97.5 157.5,-67.5 23.5,-67.5"/>
<text text-anchor="start" x="31.5" y="-85.5" font-family="Helvetica,sans-Serif" font-size="10.00">hpp::fcl::DistanceTraversal</text>
<text text-anchor="middle" x="90.5" y="-74.5" font-family="Helvetica,sans-Serif" font-size="10.00">NodeBase</text>
</a>
</g>
</g>
<!-- Node2&#45;&gt;Node1 -->
<g id="edge1" class="edge"><title>Node2&#45;&gt;Node1</title>
<path fill="none" stroke="midnightblue" d="M90.5,-57.1081C90.5,-48.1539 90.5,-38.3227 90.5,-30.5765"/>
<polygon fill="midnightblue" stroke="midnightblue" points="87.0001,-57.3959 90.5,-67.396 94.0001,-57.396 87.0001,-57.3959"/>
</g>
<!-- Node3 -->
<g id="node3" class="node"><title>Node3</title>
<g id="a_node3"><a xlink:href="a00108.html" target="_top" xlink:title="Node structure encoding the information required for traversal. ">
<polygon fill="white" stroke="black" points="20,-134.5 20,-153.5 161,-153.5 161,-134.5 20,-134.5"/>
<text text-anchor="middle" x="90.5" y="-141.5" font-family="Helvetica,sans-Serif" font-size="10.00">hpp::fcl::TraversalNodeBase</text>
</a>
</g>
</g>
<!-- Node3&#45;&gt;Node2 -->
<g id="edge2" class="edge"><title>Node3&#45;&gt;Node2</title>
<path fill="none" stroke="midnightblue" d="M90.5,-124.235C90.5,-115.586 90.5,-105.497 90.5,-97.523"/>
<polygon fill="midnightblue" stroke="midnightblue" points="87.0001,-124.475 90.5,-134.475 94.0001,-124.475 87.0001,-124.475"/>
</g>
</g>
</svg>
