<?xml version="1.0" encoding="UTF-8" standalone="no"?>
<!DOCTYPE svg PUBLIC "-//W3C//DTD SVG 1.1//EN"
 "http://www.w3.org/Graphics/SVG/1.1/DTD/svg11.dtd">
<!-- Generated by graphviz version 2.38.0 (20140413.2041)
 -->
<!-- Title: hpp::fcl::ShapeCollisionTraversalNode&lt; S1, S2, NarrowPhaseSolver &gt; Pages: 1 -->
<svg width="149pt" height="173pt"
 viewBox="0.00 0.00 149.00 173.00" xmlns="http://www.w3.org/2000/svg" xmlns:xlink="http://www.w3.org/1999/xlink">
<g id="graph0" class="graph" transform="scale(1 1) rotate(0) translate(4 169)">
<title>hpp::fcl::ShapeCollisionTraversalNode&lt; S1, S2, NarrowPhaseSolver &gt;</title>
<polygon fill="white" stroke="none" points="-4,4 -4,-169 145,-169 145,4 -4,4"/>
<!-- Node1 -->
<g id="node1" class="node"><title>Node1</title>
<polygon fill="#bfbfbf" stroke="black" points="9.5,-0.5 9.5,-41.5 131.5,-41.5 131.5,-0.5 9.5,-0.5"/>
<text text-anchor="start" x="17.5" y="-29.5" font-family="Helvetica,sans-Serif" font-size="10.00">hpp::fcl::ShapeCollision</text>
<text text-anchor="start" x="17.5" y="-18.5" font-family="Helvetica,sans-Serif" font-size="10.00">TraversalNode&lt; S1, S2,</text>
<text text-anchor="middle" x="70.5" y="-7.5" font-family="Helvetica,sans-Serif" font-size="10.00"> NarrowPhaseSolver &gt;</text>
</g>
<!-- Node2 -->
<g id="node2" class="node"><title>Node2</title>
<g id="a_node2"><a xlink:href="a00029.html" target="_top" xlink:title="Node structure encoding the information required for collision traversal. ">
<polygon fill="white" stroke="black" points="4,-78.5 4,-108.5 137,-108.5 137,-78.5 4,-78.5"/>
<text text-anchor="start" x="12" y="-96.5" font-family="Helvetica,sans-Serif" font-size="10.00">hpp::fcl::CollisionTraversal</text>
<text text-anchor="middle" x="70.5" y="-85.5" font-family="Helvetica,sans-Serif" font-size="10.00">NodeBase</text>
</a>
</g>
</g>
<!-- Node2&#45;&gt;Node1 -->
<g id="edge1" class="edge"><title>Node2&#45;&gt;Node1</title>
<path fill="none" stroke="midnightblue" d="M70.5,-67.9815C70.5,-59.3468 70.5,-49.7625 70.5,-41.5884"/>
<polygon fill="midnightblue" stroke="midnightblue" points="67.0001,-68.2332 70.5,-78.2333 74.0001,-68.2333 67.0001,-68.2332"/>
</g>
<!-- Node3 -->
<g id="node3" class="node"><title>Node3</title>
<g id="a_node3"><a xlink:href="a00108.html" target="_top" xlink:title="Node structure encoding the information required for traversal. ">
<polygon fill="white" stroke="black" points="0,-145.5 0,-164.5 141,-164.5 141,-145.5 0,-145.5"/>
<text text-anchor="middle" x="70.5" y="-152.5" font-family="Helvetica,sans-Serif" font-size="10.00">hpp::fcl::TraversalNodeBase</text>
</a>
</g>
</g>
<!-- Node3&#45;&gt;Node2 -->
<g id="edge2" class="edge"><title>Node3&#45;&gt;Node2</title>
<path fill="none" stroke="midnightblue" d="M70.5,-135.235C70.5,-126.586 70.5,-116.497 70.5,-108.523"/>
<polygon fill="midnightblue" stroke="midnightblue" points="67.0001,-135.475 70.5,-145.475 74.0001,-135.475 67.0001,-135.475"/>
</g>
</g>
</svg>
