<?xml version="1.0" encoding="UTF-8" standalone="no"?>
<!DOCTYPE svg PUBLIC "-//W3C//DTD SVG 1.1//EN"
 "http://www.w3.org/Graphics/SVG/1.1/DTD/svg11.dtd">
<!-- Generated by graphviz version 2.38.0 (20140413.2041)
 -->
<!-- Title: hpp::fcl::OcTreeMeshDistanceTraversalNode&lt; BV, NarrowPhaseSolver &gt; Pages: 1 -->
<svg width="213pt" height="162pt"
 viewBox="0.00 0.00 213.00 162.00" xmlns="http://www.w3.org/2000/svg" xmlns:xlink="http://www.w3.org/1999/xlink">
<g id="graph0" class="graph" transform="scale(1 1) rotate(0) translate(4 158)">
<title>hpp::fcl::OcTreeMeshDistanceTraversalNode&lt; BV, NarrowPhaseSolver &gt;</title>
<polygon fill="white" stroke="none" points="-4,4 -4,-158 209,-158 209,4 -4,4"/>
<!-- Node1 -->
<g id="node1" class="node"><title>Node1</title>
<polygon fill="#bfbfbf" stroke="black" points="-1.42109e-14,-0.5 -1.42109e-14,-30.5 205,-30.5 205,-0.5 -1.42109e-14,-0.5"/>
<text text-anchor="start" x="8" y="-18.5" font-family="Helvetica,sans-Serif" font-size="10.00">hpp::fcl::OcTreeMeshDistance</text>
<text text-anchor="middle" x="102.5" y="-7.5" font-family="Helvetica,sans-Serif" font-size="10.00">TraversalNode&lt; BV, NarrowPhaseSolver &gt;</text>
</g>
<!-- Node2 -->
<g id="node2" class="node"><title>Node2</title>
<g id="a_node2"><a xlink:href="a00040.html" target="_top" xlink:title="Node structure encoding the information required for distance traversal. ">
<polygon fill="white" stroke="black" points="35.5,-67.5 35.5,-97.5 169.5,-97.5 169.5,-67.5 35.5,-67.5"/>
<text text-anchor="start" x="43.5" y="-85.5" font-family="Helvetica,sans-Serif" font-size="10.00">hpp::fcl::DistanceTraversal</text>
<text text-anchor="middle" x="102.5" y="-74.5" font-family="Helvetica,sans-Serif" font-size="10.00">NodeBase</text>
</a>
</g>
</g>
<!-- Node2&#45;&gt;Node1 -->
<g id="edge1" class="edge"><title>Node2&#45;&gt;Node1</title>
<path fill="none" stroke="midnightblue" d="M102.5,-57.1081C102.5,-48.1539 102.5,-38.3227 102.5,-30.5765"/>
<polygon fill="midnightblue" stroke="midnightblue" points="99.0001,-57.3959 102.5,-67.396 106,-57.396 99.0001,-57.3959"/>
</g>
<!-- Node3 -->
<g id="node3" class="node"><title>Node3</title>
<g id="a_node3"><a xlink:href="a00108.html" target="_top" xlink:title="Node structure encoding the information required for traversal. ">
<polygon fill="white" stroke="black" points="32,-134.5 32,-153.5 173,-153.5 173,-134.5 32,-134.5"/>
<text text-anchor="middle" x="102.5" y="-141.5" font-family="Helvetica,sans-Serif" font-size="10.00">hpp::fcl::TraversalNodeBase</text>
</a>
</g>
</g>
<!-- Node3&#45;&gt;Node2 -->
<g id="edge2" class="edge"><title>Node3&#45;&gt;Node2</title>
<path fill="none" stroke="midnightblue" d="M102.5,-124.235C102.5,-115.586 102.5,-105.497 102.5,-97.523"/>
<polygon fill="midnightblue" stroke="midnightblue" points="99.0001,-124.475 102.5,-134.475 106,-124.475 99.0001,-124.475"/>
</g>
</g>
</svg>
