<?xml version="1.0" encoding="UTF-8" standalone="no"?>
<!DOCTYPE svg PUBLIC "-//W3C//DTD SVG 1.1//EN"
 "http://www.w3.org/Graphics/SVG/1.1/DTD/svg11.dtd">
<!-- Generated by graphviz version 2.38.0 (20140413.2041)
 -->
<!-- Title: hpp::fcl::details::EPA Pages: 1 -->
<svg width="643pt" height="154pt"
 viewBox="0.00 0.00 643.00 153.50" xmlns="http://www.w3.org/2000/svg" xmlns:xlink="http://www.w3.org/1999/xlink">
<g id="graph0" class="graph" transform="scale(1 1) rotate(0) translate(4 149.5)">
<title>hpp::fcl::details::EPA</title>
<polygon fill="white" stroke="none" points="-4,4 -4,-149.5 639,-149.5 639,4 -4,4"/>
<!-- Node1 -->
<g id="node1" class="node"><title>Node1</title>
<polygon fill="#bfbfbf" stroke="black" points="525,-75 525,-94 635,-94 635,-75 525,-75"/>
<text text-anchor="middle" x="580" y="-82" font-family="Helvetica,sans-Serif" font-size="10.00">hpp::fcl::details::EPA</text>
</g>
<!-- Node2 -->
<g id="node2" class="node"><title>Node2</title>
<polygon fill="white" stroke="#bfbfbf" points="370,-40.5 370,-70.5 464,-70.5 464,-40.5 370,-40.5"/>
<text text-anchor="start" x="378" y="-58.5" font-family="Helvetica,sans-Serif" font-size="10.00">hpp::fcl::details::</text>
<text text-anchor="middle" x="417" y="-47.5" font-family="Helvetica,sans-Serif" font-size="10.00">EPA::SimplexList</text>
</g>
<!-- Node2&#45;&gt;Node1 -->
<g id="edge1" class="edge"><title>Node2&#45;&gt;Node1</title>
<path fill="none" stroke="#9a32cd" stroke-dasharray="5,2" d="M474.068,-65.573C484.991,-67.5372 496.354,-69.5819 507,-71.5 513.25,-72.6261 519.806,-73.8082 526.309,-74.9816"/>
<polygon fill="#9a32cd" stroke="#9a32cd" points="474.655,-62.1226 464.194,-63.7977 473.417,-69.0121 474.655,-62.1226"/>
<text text-anchor="middle" x="494.5" y="-85.5" font-family="Helvetica,sans-Serif" font-size="10.00"> hull</text>
<text text-anchor="middle" x="494.5" y="-74.5" font-family="Helvetica,sans-Serif" font-size="10.00">stock</text>
</g>
<!-- Node3 -->
<g id="node3" class="node"><title>Node3</title>
<polygon fill="white" stroke="#bfbfbf" points="156,-47.5 156,-77.5 245,-77.5 245,-47.5 156,-47.5"/>
<text text-anchor="start" x="164" y="-65.5" font-family="Helvetica,sans-Serif" font-size="10.00">hpp::fcl::details::</text>
<text text-anchor="middle" x="200.5" y="-54.5" font-family="Helvetica,sans-Serif" font-size="10.00">EPA::SimplexF</text>
</g>
<!-- Node3&#45;&gt;Node1 -->
<g id="edge8" class="edge"><title>Node3&#45;&gt;Node1</title>
<path fill="none" stroke="#9a32cd" stroke-dasharray="5,2" d="M254.938,-74.2186C257.659,-74.6826 260.358,-75.1137 263,-75.5 370.595,-91.2294 398.471,-100.257 507,-93.5 512.784,-93.1399 518.813,-92.6187 524.814,-92.0058"/>
<polygon fill="#9a32cd" stroke="#9a32cd" points="255.519,-70.7669 245.054,-72.4165 254.264,-77.6534 255.519,-70.7669"/>
<text text-anchor="middle" x="417" y="-99.5" font-family="Helvetica,sans-Serif" font-size="10.00"> fc_store</text>
</g>
<!-- Node3&#45;&gt;Node2 -->
<g id="edge2" class="edge"><title>Node3&#45;&gt;Node2</title>
<path fill="none" stroke="#9a32cd" stroke-dasharray="5,2" d="M255.284,-60.7448C290.549,-59.594 336.175,-58.105 369.799,-57.0077"/>
<polygon fill="#9a32cd" stroke="#9a32cd" points="255.046,-57.2506 245.166,-61.075 255.275,-64.2469 255.046,-57.2506"/>
<text text-anchor="middle" x="307.5" y="-63.5" font-family="Helvetica,sans-Serif" font-size="10.00"> root</text>
</g>
<!-- Node3&#45;&gt;Node3 -->
<g id="edge4" class="edge"><title>Node3&#45;&gt;Node3</title>
<path fill="none" stroke="#9a32cd" stroke-dasharray="5,2" d="M186.64,-87.9579C188.361,-92.679 192.98,-96 200.5,-96 212.84,-96 217.371,-87.0566 214.093,-77.659"/>
<polygon fill="#9a32cd" stroke="#9a32cd" points="190.147,-87.7462 186.907,-77.659 183.149,-87.5651 190.147,-87.7462"/>
<text text-anchor="middle" x="200.5" y="-110" font-family="Helvetica,sans-Serif" font-size="10.00"> f</text>
<text text-anchor="middle" x="200.5" y="-99" font-family="Helvetica,sans-Serif" font-size="10.00">l</text>
</g>
<!-- Node4 -->
<g id="node4" class="node"><title>Node4</title>
<g id="a_node4"><a xlink:href="a00105.html" target="_top" xlink:title="hpp::fcl::details::\lGJK::SimplexV">
<polygon fill="white" stroke="black" points="0,-47.5 0,-77.5 89,-77.5 89,-47.5 0,-47.5"/>
<text text-anchor="start" x="8" y="-65.5" font-family="Helvetica,sans-Serif" font-size="10.00">hpp::fcl::details::</text>
<text text-anchor="middle" x="44.5" y="-54.5" font-family="Helvetica,sans-Serif" font-size="10.00">GJK::SimplexV</text>
</a>
</g>
</g>
<!-- Node4&#45;&gt;Node1 -->
<g id="edge7" class="edge"><title>Node4&#45;&gt;Node1</title>
<path fill="none" stroke="#9a32cd" stroke-dasharray="5,2" d="M72.2367,-83.7748C93.5383,-99.2885 124.857,-119.02 156,-127.5 220.106,-144.957 390.153,-131.83 507,-108.5 523.539,-105.198 541.539,-99.1978 555.404,-94.0233"/>
<polygon fill="#9a32cd" stroke="#9a32cd" points="74.1352,-80.8242 64.0292,-77.643 69.9456,-86.432 74.1352,-80.8242"/>
<text text-anchor="middle" x="307.5" y="-137.5" font-family="Helvetica,sans-Serif" font-size="10.00"> sv_store</text>
</g>
<!-- Node4&#45;&gt;Node3 -->
<g id="edge3" class="edge"><title>Node4&#45;&gt;Node3</title>
<path fill="none" stroke="#9a32cd" stroke-dasharray="5,2" d="M99.2795,-62.5C117.812,-62.5 138.324,-62.5 155.939,-62.5"/>
<polygon fill="#9a32cd" stroke="#9a32cd" points="99.2183,-59.0001 89.2183,-62.5 99.2183,-66.0001 99.2183,-59.0001"/>
<text text-anchor="middle" x="122.5" y="-65.5" font-family="Helvetica,sans-Serif" font-size="10.00"> vertex</text>
</g>
<!-- Node5 -->
<g id="node5" class="node"><title>Node5</title>
<g id="a_node5"><a xlink:href="a00104.html" target="_top" xlink:title="hpp::fcl::details::\lGJK::Simplex">
<polygon fill="white" stroke="black" points="263,-0.5 263,-30.5 352,-30.5 352,-0.5 263,-0.5"/>
<text text-anchor="start" x="271" y="-18.5" font-family="Helvetica,sans-Serif" font-size="10.00">hpp::fcl::details::</text>
<text text-anchor="middle" x="307.5" y="-7.5" font-family="Helvetica,sans-Serif" font-size="10.00">GJK::Simplex</text>
</a>
</g>
</g>
<!-- Node4&#45;&gt;Node5 -->
<g id="edge6" class="edge"><title>Node4&#45;&gt;Node5</title>
<path fill="none" stroke="#9a32cd" stroke-dasharray="5,2" d="M98.9824,-49.3268C101.691,-48.6999 104.376,-48.0876 107,-47.5 128.69,-42.6435 134.106,-41.3312 156,-37.5 191.895,-31.2188 232.824,-25.3166 262.93,-21.21"/>
<polygon fill="#9a32cd" stroke="#9a32cd" points="98.0619,-45.9476 89.1279,-51.6427 99.6635,-52.762 98.0619,-45.9476"/>
<text text-anchor="middle" x="122.5" y="-50.5" font-family="Helvetica,sans-Serif" font-size="10.00"> vertex</text>
</g>
<!-- Node5&#45;&gt;Node1 -->
<g id="edge5" class="edge"><title>Node5&#45;&gt;Node1</title>
<path fill="none" stroke="#9a32cd" stroke-dasharray="5,2" d="M362.609,-10.527C392.946,-9.30807 431.173,-10.4119 464,-19.5 504.889,-30.8202 546.738,-59.7243 566.805,-74.8862"/>
<polygon fill="#9a32cd" stroke="#9a32cd" points="362.043,-7.05092 352.23,-11.0458 362.392,-14.0422 362.043,-7.05092"/>
<text text-anchor="middle" x="417" y="-22.5" font-family="Helvetica,sans-Serif" font-size="10.00"> result</text>
</g>
</g>
</svg>
