<?xml version="1.0" encoding="UTF-8" standalone="no"?>
<!DOCTYPE svg PUBLIC "-//W3C//DTD SVG 1.1//EN"
 "http://www.w3.org/Graphics/SVG/1.1/DTD/svg11.dtd">
<!-- Generated by graphviz version 2.38.0 (20140413.2041)
 -->
<!-- Title: hpp::fcl::ShapeMeshCollisionTraversalNodeRSS&lt; S, NarrowPhaseSolver &gt; Pages: 1 -->
<svg width="1265pt" height="273pt"
 viewBox="0.00 0.00 1265.00 273.00" xmlns="http://www.w3.org/2000/svg" xmlns:xlink="http://www.w3.org/1999/xlink">
<g id="graph0" class="graph" transform="scale(1 1) rotate(0) translate(4 269)">
<title>hpp::fcl::ShapeMeshCollisionTraversalNodeRSS&lt; S, NarrowPhaseSolver &gt;</title>
<polygon fill="white" stroke="none" points="-4,4 -4,-269 1261,-269 1261,4 -4,4"/>
<!-- Node1 -->
<g id="node1" class="node"><title>Node1</title>
<polygon fill="#bfbfbf" stroke="black" points="1075,-27.5 1075,-68.5 1257,-68.5 1257,-27.5 1075,-27.5"/>
<text text-anchor="start" x="1083" y="-56.5" font-family="Helvetica,sans-Serif" font-size="10.00">hpp::fcl::ShapeMeshCollision</text>
<text text-anchor="start" x="1083" y="-45.5" font-family="Helvetica,sans-Serif" font-size="10.00">TraversalNodeRSS&lt; S, NarrowPhase</text>
<text text-anchor="middle" x="1166" y="-34.5" font-family="Helvetica,sans-Serif" font-size="10.00">Solver &gt;</text>
</g>
<!-- Node2 -->
<g id="node2" class="node"><title>Node2</title>
<g id="a_node2"><a xlink:href="a00093.html" target="_top" xlink:title="hpp::fcl::ShapeMeshCollision\lTraversalNode\&lt; S, RSS, NarrowPhase\lSolver, 0 \&gt;">
<polygon fill="white" stroke="black" points="850,-27.5 850,-68.5 1038,-68.5 1038,-27.5 850,-27.5"/>
<text text-anchor="start" x="858" y="-56.5" font-family="Helvetica,sans-Serif" font-size="10.00">hpp::fcl::ShapeMeshCollision</text>
<text text-anchor="start" x="858" y="-45.5" font-family="Helvetica,sans-Serif" font-size="10.00">TraversalNode&lt; S, RSS, NarrowPhase</text>
<text text-anchor="middle" x="944" y="-34.5" font-family="Helvetica,sans-Serif" font-size="10.00">Solver, 0 &gt;</text>
</a>
</g>
</g>
<!-- Node2&#45;&gt;Node1 -->
<g id="edge1" class="edge"><title>Node2&#45;&gt;Node1</title>
<path fill="none" stroke="midnightblue" d="M1048.53,-48C1057.28,-48 1066.08,-48 1074.71,-48"/>
<polygon fill="midnightblue" stroke="midnightblue" points="1048.3,-44.5001 1038.3,-48 1048.3,-51.5001 1048.3,-44.5001"/>
</g>
<!-- Node3 -->
<g id="node3" class="node"><title>Node3</title>
<g id="a_node3"><a xlink:href="a00089.html" target="_top" xlink:title="hpp::fcl::ShapeBVHCollision\lTraversalNode\&lt; S, RSS \&gt;">
<polygon fill="white" stroke="black" points="638,-136 638,-166 779,-166 779,-136 638,-136"/>
<text text-anchor="start" x="646" y="-154" font-family="Helvetica,sans-Serif" font-size="10.00">hpp::fcl::ShapeBVHCollision</text>
<text text-anchor="middle" x="708.5" y="-143" font-family="Helvetica,sans-Serif" font-size="10.00">TraversalNode&lt; S, RSS &gt;</text>
</a>
</g>
</g>
<!-- Node3&#45;&gt;Node2 -->
<g id="edge2" class="edge"><title>Node3&#45;&gt;Node2</title>
<path fill="none" stroke="midnightblue" d="M753.357,-131.654C794.121,-113.673 854.648,-86.9734 896.3,-68.5999"/>
<polygon fill="midnightblue" stroke="midnightblue" points="751.691,-128.564 743.954,-135.802 754.516,-134.968 751.691,-128.564"/>
</g>
<!-- Node4 -->
<g id="node4" class="node"><title>Node4</title>
<g id="a_node4"><a xlink:href="a00029.html" target="_top" xlink:title="Node structure encoding the information required for collision traversal. ">
<polygon fill="white" stroke="black" points="418,-180 418,-210 551,-210 551,-180 418,-180"/>
<text text-anchor="start" x="426" y="-198" font-family="Helvetica,sans-Serif" font-size="10.00">hpp::fcl::CollisionTraversal</text>
<text text-anchor="middle" x="484.5" y="-187" font-family="Helvetica,sans-Serif" font-size="10.00">NodeBase</text>
</a>
</g>
</g>
<!-- Node4&#45;&gt;Node3 -->
<g id="edge3" class="edge"><title>Node4&#45;&gt;Node3</title>
<path fill="none" stroke="midnightblue" d="M561.278,-179.981C586.04,-175.073 613.412,-169.648 637.712,-164.832"/>
<polygon fill="midnightblue" stroke="midnightblue" points="560.335,-176.6 551.206,-181.977 561.696,-183.466 560.335,-176.6"/>
</g>
<!-- Node5 -->
<g id="node5" class="node"><title>Node5</title>
<g id="a_node5"><a xlink:href="a00108.html" target="_top" xlink:title="Node structure encoding the information required for traversal. ">
<polygon fill="white" stroke="black" points="193,-207.5 193,-226.5 334,-226.5 334,-207.5 193,-207.5"/>
<text text-anchor="middle" x="263.5" y="-214.5" font-family="Helvetica,sans-Serif" font-size="10.00">hpp::fcl::TraversalNodeBase</text>
</a>
</g>
</g>
<!-- Node5&#45;&gt;Node4 -->
<g id="edge4" class="edge"><title>Node5&#45;&gt;Node4</title>
<path fill="none" stroke="midnightblue" d="M344.303,-208.983C368.458,-206.557 394.698,-203.921 417.817,-201.598"/>
<polygon fill="midnightblue" stroke="midnightblue" points="343.694,-205.527 334.094,-210.009 344.394,-212.492 343.694,-205.527"/>
</g>
<!-- Node6 -->
<g id="node6" class="node"><title>Node6</title>
<g id="a_node6"><a xlink:href="a00107.html" target="_top" xlink:title="Simple transform class used locally by InterpMotion. ">
<polygon fill="white" stroke="black" points="0,-207.5 0,-226.5 107,-226.5 107,-207.5 0,-207.5"/>
<text text-anchor="middle" x="53.5" y="-214.5" font-family="Helvetica,sans-Serif" font-size="10.00">hpp::fcl::Transform3f</text>
</a>
</g>
</g>
<!-- Node6&#45;&gt;Node5 -->
<g id="edge5" class="edge"><title>Node6&#45;&gt;Node5</title>
<path fill="none" stroke="#9a32cd" stroke-dasharray="5,2" d="M117.573,-217C141.361,-217 168.549,-217 192.9,-217"/>
<polygon fill="#9a32cd" stroke="#9a32cd" points="117.256,-213.5 107.256,-217 117.256,-220.5 117.256,-213.5"/>
<text text-anchor="middle" x="150" y="-231" font-family="Helvetica,sans-Serif" font-size="10.00"> tf1</text>
<text text-anchor="middle" x="150" y="-220" font-family="Helvetica,sans-Serif" font-size="10.00">tf2</text>
</g>
<!-- Node7 -->
<g id="node7" class="node"><title>Node7</title>
<g id="a_node7"><a xlink:href="a00027.html" target="_top" xlink:title="request to the collision algorithm ">
<polygon fill="white" stroke="black" points="199,-169.5 199,-188.5 328,-188.5 328,-169.5 199,-169.5"/>
<text text-anchor="middle" x="263.5" y="-176.5" font-family="Helvetica,sans-Serif" font-size="10.00">hpp::fcl::CollisionRequest</text>
</a>
</g>
</g>
<!-- Node7&#45;&gt;Node4 -->
<g id="edge6" class="edge"><title>Node7&#45;&gt;Node4</title>
<path fill="none" stroke="#9a32cd" stroke-dasharray="5,2" d="M338.305,-182.065C358.337,-183.101 380.013,-184.408 400,-186 405.814,-186.463 411.849,-187.001 417.895,-187.58"/>
<polygon fill="#9a32cd" stroke="#9a32cd" points="338.472,-178.569 328.309,-181.563 338.121,-185.56 338.472,-178.569"/>
<text text-anchor="middle" x="376" y="-189" font-family="Helvetica,sans-Serif" font-size="10.00"> request</text>
</g>
<!-- Node8 -->
<g id="node8" class="node"><title>Node8</title>
<g id="a_node8"><a xlink:href="a00028.html" target="_top" xlink:title="collision result ">
<polygon fill="white" stroke="black" points="203,-245.5 203,-264.5 324,-264.5 324,-245.5 203,-245.5"/>
<text text-anchor="middle" x="263.5" y="-252.5" font-family="Helvetica,sans-Serif" font-size="10.00">hpp::fcl::CollisionResult</text>
</a>
</g>
</g>
<!-- Node8&#45;&gt;Node4 -->
<g id="edge7" class="edge"><title>Node8&#45;&gt;Node4</title>
<path fill="none" stroke="#9a32cd" stroke-dasharray="5,2" d="M313.09,-242.926C338.96,-236.378 371.28,-228.005 400,-220 411.078,-216.912 422.938,-213.454 434.139,-210.118"/>
<polygon fill="#9a32cd" stroke="#9a32cd" points="311.993,-239.593 303.153,-245.433 313.705,-246.381 311.993,-239.593"/>
<text text-anchor="middle" x="376" y="-235" font-family="Helvetica,sans-Serif" font-size="10.00"> result</text>
</g>
<!-- Node9 -->
<g id="node9" class="node"><title>Node9</title>
<g id="a_node9"><a xlink:href="a00085.html" target="_top" xlink:title="A class for rectangle sphere&#45;swept bounding volume. ">
<polygon fill="white" stroke="black" points="446.5,-141.5 446.5,-160.5 522.5,-160.5 522.5,-141.5 446.5,-141.5"/>
<text text-anchor="middle" x="484.5" y="-148.5" font-family="Helvetica,sans-Serif" font-size="10.00">hpp::fcl::RSS</text>
</a>
</g>
</g>
<!-- Node9&#45;&gt;Node3 -->
<g id="edge8" class="edge"><title>Node9&#45;&gt;Node3</title>
<path fill="none" stroke="#9a32cd" stroke-dasharray="5,2" d="M533.032,-151C563.573,-151 603.768,-151 637.879,-151"/>
<polygon fill="#9a32cd" stroke="#9a32cd" points="532.658,-147.5 522.658,-151 532.658,-154.5 532.658,-147.5"/>
<text text-anchor="middle" x="594.5" y="-154" font-family="Helvetica,sans-Serif" font-size="10.00"> model1_bv</text>
</g>
<!-- Node10 -->
<g id="node10" class="node"><title>Node10</title>
<g id="a_node10"><a xlink:href="a00015.html" target="_top" xlink:title="hpp::fcl::BVHModel\l\&lt; RSS \&gt;">
<polygon fill="white" stroke="black" points="433.5,-92 433.5,-122 535.5,-122 535.5,-92 433.5,-92"/>
<text text-anchor="start" x="441.5" y="-110" font-family="Helvetica,sans-Serif" font-size="10.00">hpp::fcl::BVHModel</text>
<text text-anchor="middle" x="484.5" y="-99" font-family="Helvetica,sans-Serif" font-size="10.00">&lt; RSS &gt;</text>
</a>
</g>
</g>
<!-- Node10&#45;&gt;Node3 -->
<g id="edge9" class="edge"><title>Node10&#45;&gt;Node3</title>
<path fill="none" stroke="#9a32cd" stroke-dasharray="5,2" d="M545.421,-118.876C573.916,-124.524 608.155,-131.31 637.807,-137.187"/>
<polygon fill="#9a32cd" stroke="#9a32cd" points="546.088,-115.44 535.598,-116.929 544.727,-122.307 546.088,-115.44"/>
<text text-anchor="middle" x="594.5" y="-136" font-family="Helvetica,sans-Serif" font-size="10.00"> model2</text>
</g>
<!-- Node11 -->
<g id="node11" class="node"><title>Node11</title>
<g id="a_node11"><a xlink:href="a00025.html" target="_top" xlink:title="The geometry for the object for collision or distance computation. ">
<polygon fill="white" stroke="black" points="196,-131.5 196,-150.5 331,-150.5 331,-131.5 196,-131.5"/>
<text text-anchor="middle" x="263.5" y="-138.5" font-family="Helvetica,sans-Serif" font-size="10.00">hpp::fcl::CollisionGeometry</text>
</a>
</g>
</g>
<!-- Node11&#45;&gt;Node10 -->
<g id="edge10" class="edge"><title>Node11&#45;&gt;Node10</title>
<path fill="none" stroke="midnightblue" d="M335.935,-129.91C367.744,-124.971 404.449,-119.273 433.293,-114.795"/>
<polygon fill="midnightblue" stroke="midnightblue" points="335.14,-126.491 325.795,-131.484 336.214,-133.408 335.14,-126.491"/>
</g>
<!-- Node12 -->
<g id="node12" class="node"><title>Node12</title>
<g id="a_node12"><a xlink:href="a00004.html" target="_top" xlink:title="A class describing the AABB collision structure, which is a box in 3D space determined by two diagona...">
<polygon fill="white" stroke="black" points="12.5,-131.5 12.5,-150.5 94.5,-150.5 94.5,-131.5 12.5,-131.5"/>
<text text-anchor="middle" x="53.5" y="-138.5" font-family="Helvetica,sans-Serif" font-size="10.00">hpp::fcl::AABB</text>
</a>
</g>
</g>
<!-- Node12&#45;&gt;Node11 -->
<g id="edge11" class="edge"><title>Node12&#45;&gt;Node11</title>
<path fill="none" stroke="#9a32cd" stroke-dasharray="5,2" d="M104.737,-141C132.113,-141 166.345,-141 195.919,-141"/>
<polygon fill="#9a32cd" stroke="#9a32cd" points="104.605,-137.5 94.6045,-141 104.604,-144.5 104.605,-137.5"/>
<text text-anchor="middle" x="150" y="-144" font-family="Helvetica,sans-Serif" font-size="10.00"> aabb_local</text>
</g>
<!-- Node13 -->
<g id="node13" class="node"><title>Node13</title>
<polygon fill="white" stroke="#bfbfbf" points="228,-93.5 228,-112.5 299,-112.5 299,-93.5 228,-93.5"/>
<text text-anchor="middle" x="263.5" y="-100.5" font-family="Helvetica,sans-Serif" font-size="10.00">noncopyable</text>
</g>
<!-- Node13&#45;&gt;Node10 -->
<g id="edge12" class="edge"><title>Node13&#45;&gt;Node10</title>
<path fill="none" stroke="#8b1a1a" d="M309.432,-103.821C345.507,-104.48 396.127,-105.404 433.484,-106.086"/>
<polygon fill="#8b1a1a" stroke="#8b1a1a" points="309.263,-100.317 299.201,-103.634 309.136,-107.316 309.263,-100.317"/>
</g>
<!-- Node14 -->
<g id="node14" class="node"><title>Node14</title>
<g id="a_node14"><a xlink:href="a00109.html" target="_top" xlink:title="Triangle with 3 indices for points. ">
<polygon fill="white" stroke="black" points="219,-48.5 219,-67.5 308,-67.5 308,-48.5 219,-48.5"/>
<text text-anchor="middle" x="263.5" y="-55.5" font-family="Helvetica,sans-Serif" font-size="10.00">hpp::fcl::Triangle</text>
</a>
</g>
</g>
<!-- Node14&#45;&gt;Node2 -->
<g id="edge16" class="edge"><title>Node14&#45;&gt;Node2</title>
<path fill="none" stroke="#9a32cd" stroke-dasharray="5,2" d="M318.236,-57.208C433.515,-55.509 705.758,-51.4966 849.831,-49.3732"/>
<polygon fill="#9a32cd" stroke="#9a32cd" points="318.182,-53.7083 308.235,-57.3554 318.286,-60.7076 318.182,-53.7083"/>
<text text-anchor="middle" x="594.5" y="-57" font-family="Helvetica,sans-Serif" font-size="10.00"> tri_indices</text>
</g>
<!-- Node14&#45;&gt;Node10 -->
<g id="edge13" class="edge"><title>Node14&#45;&gt;Node10</title>
<path fill="none" stroke="#9a32cd" stroke-dasharray="5,2" d="M317.104,-69.7699C352.426,-77.6731 398.686,-88.0233 433.461,-95.8041"/>
<polygon fill="#9a32cd" stroke="#9a32cd" points="317.508,-66.2738 306.985,-67.5058 315.98,-73.1049 317.508,-66.2738"/>
<text text-anchor="middle" x="376" y="-90" font-family="Helvetica,sans-Serif" font-size="10.00"> tri_indices</text>
</g>
<!-- Node15 -->
<g id="node15" class="node"><title>Node15</title>
<polygon fill="white" stroke="#bfbfbf" points="470,-229.5 470,-248.5 499,-248.5 499,-229.5 470,-229.5"/>
<text text-anchor="middle" x="484.5" y="-236.5" font-family="Helvetica,sans-Serif" font-size="10.00">S</text>
</g>
<!-- Node15&#45;&gt;Node3 -->
<g id="edge14" class="edge"><title>Node15&#45;&gt;Node3</title>
<path fill="none" stroke="#9a32cd" stroke-dasharray="5,2" d="M508.923,-232.548C521.51,-228.906 537.229,-224.076 551,-219 595.057,-202.762 644.551,-180.564 675.861,-166.011"/>
<polygon fill="#9a32cd" stroke="#9a32cd" points="507.863,-229.211 499.198,-235.307 509.773,-235.945 507.863,-229.211"/>
<text text-anchor="middle" x="594.5" y="-214" font-family="Helvetica,sans-Serif" font-size="10.00"> model1</text>
</g>
<!-- Node16 -->
<g id="node16" class="node"><title>Node16</title>
<polygon fill="white" stroke="#bfbfbf" points="656.5,-0.5 656.5,-19.5 760.5,-19.5 760.5,-0.5 656.5,-0.5"/>
<text text-anchor="middle" x="708.5" y="-7.5" font-family="Helvetica,sans-Serif" font-size="10.00">NarrowPhaseSolver</text>
</g>
<!-- Node16&#45;&gt;Node2 -->
<g id="edge15" class="edge"><title>Node16&#45;&gt;Node2</title>
<path fill="none" stroke="#9a32cd" stroke-dasharray="5,2" d="M770.69,-15.0884C790.335,-17.0971 812.144,-19.7218 832,-23 839.893,-24.3032 848.067,-25.8198 856.236,-27.4496"/>
<polygon fill="#9a32cd" stroke="#9a32cd" points="770.933,-11.5954 760.637,-14.094 770.243,-18.5614 770.933,-11.5954"/>
<text text-anchor="middle" x="814.5" y="-26" font-family="Helvetica,sans-Serif" font-size="10.00"> nsolver</text>
</g>
</g>
</svg>
