<?xml version="1.0" encoding="UTF-8" standalone="no"?>
<!DOCTYPE svg PUBLIC "-//W3C//DTD SVG 1.1//EN"
 "http://www.w3.org/Graphics/SVG/1.1/DTD/svg11.dtd">
<!-- Generated by graphviz version 2.38.0 (20140413.2041)
 -->
<!-- Title: hpp::fcl::details::GJK::Simplex Pages: 1 -->
<svg width="97pt" height="117pt"
 viewBox="0.00 0.00 97.00 117.00" xmlns="http://www.w3.org/2000/svg" xmlns:xlink="http://www.w3.org/1999/xlink">
<g id="graph0" class="graph" transform="scale(1 1) rotate(0) translate(4 113)">
<title>hpp::fcl::details::GJK::Simplex</title>
<polygon fill="white" stroke="none" points="-4,4 -4,-113 93,-113 93,4 -4,4"/>
<!-- Node1 -->
<g id="node1" class="node"><title>Node1</title>
<polygon fill="#bfbfbf" stroke="black" points="-7.10543e-15,-0.5 -7.10543e-15,-30.5 89,-30.5 89,-0.5 -7.10543e-15,-0.5"/>
<text text-anchor="start" x="8" y="-18.5" font-family="Helvetica,sans-Serif" font-size="10.00">hpp::fcl::details::</text>
<text text-anchor="middle" x="44.5" y="-7.5" font-family="Helvetica,sans-Serif" font-size="10.00">GJK::Simplex</text>
</g>
<!-- Node2 -->
<g id="node2" class="node"><title>Node2</title>
<g id="a_node2"><a xlink:href="a00105.html" target="_top" xlink:title="hpp::fcl::details::\lGJK::SimplexV">
<polygon fill="white" stroke="black" points="-7.10543e-15,-78.5 -7.10543e-15,-108.5 89,-108.5 89,-78.5 -7.10543e-15,-78.5"/>
<text text-anchor="start" x="8" y="-96.5" font-family="Helvetica,sans-Serif" font-size="10.00">hpp::fcl::details::</text>
<text text-anchor="middle" x="44.5" y="-85.5" font-family="Helvetica,sans-Serif" font-size="10.00">GJK::SimplexV</text>
</a>
</g>
</g>
<!-- Node2&#45;&gt;Node1 -->
<g id="edge1" class="edge"><title>Node2&#45;&gt;Node1</title>
<path fill="none" stroke="#9a32cd" stroke-dasharray="5,2" d="M44.5,-68.0898C44.5,-55.7565 44.5,-41.2237 44.5,-30.7309"/>
<polygon fill="#9a32cd" stroke="#9a32cd" points="41.0001,-68.2049 44.5,-78.205 48.0001,-68.205 41.0001,-68.2049"/>
<text text-anchor="middle" x="60" y="-52" font-family="Helvetica,sans-Serif" font-size="10.00"> vertex</text>
</g>
</g>
</svg>
