<?xml version="1.0" encoding="UTF-8" standalone="no"?>
<!DOCTYPE svg PUBLIC "-//W3C//DTD SVG 1.1//EN"
 "http://www.w3.org/Graphics/SVG/1.1/DTD/svg11.dtd">
<!-- Generated by graphviz version 2.38.0 (20140413.2041)
 -->
<!-- Title: mesh_loader Pages: 1 -->
<svg width="142pt" height="295pt"
 viewBox="0.00 0.00 142.00 295.00" xmlns="http://www.w3.org/2000/svg" xmlns:xlink="http://www.w3.org/1999/xlink">
<g id="graph0" class="graph" transform="scale(1 1) rotate(0) translate(4 291)">
<title>mesh_loader</title>
<polygon fill="white" stroke="none" points="-4,4 -4,-291 138,-291 138,4 -4,4"/>
<g id="clust1" class="cluster"><title>clusterdir_401dad4d5cb59733829471464f0bbd16</title>
<g id="a_clust1"><a xlink:href="dir_401dad4d5cb59733829471464f0bbd16.html" target="_top" xlink:title="fcl">
<polygon fill="#ddddee" stroke="black" points="8,-208 8,-279 96,-279 96,-208 8,-208"/>
<text text-anchor="middle" x="52" y="-267" font-family="Helvetica,sans-Serif" font-size="10.00">fcl</text>
</a>
</g>
</g>
<!-- dir_a3c0c1724c6489538b44304109444b84 -->
<g id="node1" class="node"><title>dir_a3c0c1724c6489538b44304109444b84</title>
<g id="a_node1"><a xlink:href="dir_a3c0c1724c6489538b44304109444b84.html" target="_top" xlink:title="mesh_loader">
<polygon fill="#eeeeff" stroke="black" points="88,-252 16,-252 16,-216 88,-216 88,-252"/>
<text text-anchor="middle" x="52" y="-231.5" font-family="Helvetica,sans-Serif" font-size="10.00">mesh_loader</text>
</a>
</g>
</g>
<!-- dir_64268c1c8a58405848bbc25a559c334c -->
<g id="node2" class="node"><title>dir_64268c1c8a58405848bbc25a559c334c</title>
<g id="a_node2"><a xlink:href="dir_64268c1c8a58405848bbc25a559c334c.html" target="_top" xlink:title="math">
<polygon fill="none" stroke="black" points="68,-36 14,-36 14,-0 68,-0 68,-36"/>
<text text-anchor="middle" x="41" y="-15.5" font-family="Helvetica,sans-Serif" font-size="10.00">math</text>
</a>
</g>
</g>
<!-- dir_a3c0c1724c6489538b44304109444b84&#45;&gt;dir_64268c1c8a58405848bbc25a559c334c -->
<g id="edge1" class="edge"><title>dir_a3c0c1724c6489538b44304109444b84&#45;&gt;dir_64268c1c8a58405848bbc25a559c334c</title>
<path fill="none" stroke="black" d="M47.7448,-215.655C41.0149,-186.199 29.0612,-124.484 33,-72 33.6366,-63.5179 34.8384,-54.3361 36.1208,-46.0356"/>
<polygon fill="black" stroke="black" points="39.5836,-46.5472 37.7517,-36.1119 32.6763,-45.412 39.5836,-46.5472"/>
<g id="a_edge1&#45;headlabel"><a xlink:href="dir_000004_000010.html" target="_top" xlink:title="1">
<text text-anchor="middle" x="41.8024" y="-48.0546" font-family="Helvetica,sans-Serif" font-size="10.00">1</text>
</a>
</g>
</g>
<!-- dir_eb48233dd18e3f5f49334422dd112d89 -->
<g id="node3" class="node"><title>dir_eb48233dd18e3f5f49334422dd112d89</title>
<g id="a_node3"><a xlink:href="dir_eb48233dd18e3f5f49334422dd112d89.html" target="_top" xlink:title="BV">
<polygon fill="none" stroke="black" points="96,-108 42,-108 42,-72 96,-72 96,-108"/>
<text text-anchor="middle" x="69" y="-87.5" font-family="Helvetica,sans-Serif" font-size="10.00">BV</text>
</a>
</g>
</g>
<!-- dir_a3c0c1724c6489538b44304109444b84&#45;&gt;dir_eb48233dd18e3f5f49334422dd112d89 -->
<g id="edge2" class="edge"><title>dir_a3c0c1724c6489538b44304109444b84&#45;&gt;dir_eb48233dd18e3f5f49334422dd112d89</title>
<path fill="none" stroke="black" d="M54.0506,-215.871C56.9479,-191.67 62.2705,-147.211 65.7205,-118.393"/>
<polygon fill="black" stroke="black" points="69.2285,-118.534 66.9421,-108.189 62.2782,-117.702 69.2285,-118.534"/>
<g id="a_edge2&#45;headlabel"><a xlink:href="dir_000004_000003.html" target="_top" xlink:title="1">
<text text-anchor="middle" x="71.6205" y="-119.941" font-family="Helvetica,sans-Serif" font-size="10.00">1</text>
</a>
</g>
</g>
<!-- dir_3343fceeba1cdf56986a470cf19afa96 -->
<g id="node4" class="node"><title>dir_3343fceeba1cdf56986a470cf19afa96</title>
<g id="a_node4"><a xlink:href="dir_3343fceeba1cdf56986a470cf19afa96.html" target="_top" xlink:title="BVH">
<polygon fill="none" stroke="black" points="134,-180 80,-180 80,-144 134,-144 134,-180"/>
<text text-anchor="middle" x="107" y="-159.5" font-family="Helvetica,sans-Serif" font-size="10.00">BVH</text>
</a>
</g>
</g>
<!-- dir_a3c0c1724c6489538b44304109444b84&#45;&gt;dir_3343fceeba1cdf56986a470cf19afa96 -->
<g id="edge3" class="edge"><title>dir_a3c0c1724c6489538b44304109444b84&#45;&gt;dir_3343fceeba1cdf56986a470cf19afa96</title>
<path fill="none" stroke="black" d="M65.5955,-215.697C72.1227,-207.389 80.068,-197.277 87.2466,-188.141"/>
<polygon fill="black" stroke="black" points="90.1347,-190.13 93.5609,-180.104 84.6305,-185.805 90.1347,-190.13"/>
<g id="a_edge3&#45;headlabel"><a xlink:href="dir_000004_000005.html" target="_top" xlink:title="1">
<text text-anchor="middle" x="90.1465" y="-192.211" font-family="Helvetica,sans-Serif" font-size="10.00">1</text>
</a>
</g>
</g>
<!-- dir_eb48233dd18e3f5f49334422dd112d89&#45;&gt;dir_64268c1c8a58405848bbc25a559c334c -->
<g id="edge4" class="edge"><title>dir_eb48233dd18e3f5f49334422dd112d89&#45;&gt;dir_64268c1c8a58405848bbc25a559c334c</title>
<path fill="none" stroke="black" d="M62.0786,-71.6966C58.9253,-63.8132 55.1217,-54.3042 51.6186,-45.5464"/>
<polygon fill="black" stroke="black" points="54.8054,-44.0892 47.8417,-36.1043 48.306,-46.689 54.8054,-44.0892"/>
<g id="a_edge4&#45;headlabel"><a xlink:href="dir_000003_000010.html" target="_top" xlink:title="10">
<text text-anchor="middle" x="58.7765" y="-43.8723" font-family="Helvetica,sans-Serif" font-size="10.00">10</text>
</a>
</g>
</g>
<!-- dir_3343fceeba1cdf56986a470cf19afa96&#45;&gt;dir_eb48233dd18e3f5f49334422dd112d89 -->
<g id="edge5" class="edge"><title>dir_3343fceeba1cdf56986a470cf19afa96&#45;&gt;dir_eb48233dd18e3f5f49334422dd112d89</title>
<path fill="none" stroke="black" d="M97.6067,-143.697C93.2351,-135.644 87.9427,-125.894 83.1047,-116.982"/>
<polygon fill="black" stroke="black" points="86.1322,-115.223 78.2852,-108.104 79.9802,-118.563 86.1322,-115.223"/>
<g id="a_edge5&#45;headlabel"><a xlink:href="dir_000005_000003.html" target="_top" xlink:title="5">
<text text-anchor="middle" x="90.3424" y="-114.528" font-family="Helvetica,sans-Serif" font-size="10.00">5</text>
</a>
</g>
</g>
</g>
</svg>
