<?xml version="1.0" encoding="UTF-8" standalone="no"?>
<!DOCTYPE svg PUBLIC "-//W3C//DTD SVG 1.1//EN"
 "http://www.w3.org/Graphics/SVG/1.1/DTD/svg11.dtd">
<!-- Generated by graphviz version 2.38.0 (20140413.2041)
 -->
<!-- Title: traversal Pages: 1 -->
<svg width="328pt" height="447pt"
 viewBox="0.00 0.00 328.00 447.00" xmlns="http://www.w3.org/2000/svg" xmlns:xlink="http://www.w3.org/1999/xlink">
<g id="graph0" class="graph" transform="scale(1 1) rotate(0) translate(4 443)">
<title>traversal</title>
<polygon fill="white" stroke="none" points="-4,4 -4,-443 324,-443 324,4 -4,4"/>
<g id="clust1" class="cluster"><title>clusterdir_401dad4d5cb59733829471464f0bbd16</title>
<g id="a_clust1"><a xlink:href="dir_401dad4d5cb59733829471464f0bbd16.html" target="_top" xlink:title="fcl">
<polygon fill="#ddddee" stroke="black" points="8,-272 8,-431 94,-431 94,-272 8,-272"/>
<text text-anchor="middle" x="51" y="-419" font-family="Helvetica,sans-Serif" font-size="10.00">fcl</text>
</a>
</g>
</g>
<g id="clust2" class="cluster"><title>clusterdir_a3fc75f1fc73eeb5dd38df87feb8498d</title>
<g id="a_clust2"><a xlink:href="dir_a3fc75f1fc73eeb5dd38df87feb8498d.html" target="_top">
<polygon fill="#eeeeff" stroke="black" points="16,-280 16,-404 86,-404 86,-280 16,-280"/>
</a>
</g>
</g>
<!-- dir_a3fc75f1fc73eeb5dd38df87feb8498d -->
<g id="node1" class="node"><title>dir_a3fc75f1fc73eeb5dd38df87feb8498d</title>
<text text-anchor="middle" x="51" y="-375.5" font-family="Helvetica,sans-Serif" font-size="10.00">traversal</text>
</g>
<!-- dir_aa67580363a2d3f4b37812f6bedc0576 -->
<g id="node2" class="node"><title>dir_aa67580363a2d3f4b37812f6bedc0576</title>
<g id="a_node2"><a xlink:href="dir_aa67580363a2d3f4b37812f6bedc0576.html" target="_top" xlink:title="details">
<polygon fill="white" stroke="black" points="78,-324 24,-324 24,-288 78,-288 78,-324"/>
<text text-anchor="middle" x="51" y="-303.5" font-family="Helvetica,sans-Serif" font-size="10.00">details</text>
</a>
</g>
</g>
<!-- dir_a3fc75f1fc73eeb5dd38df87feb8498d&#45;&gt;dir_aa67580363a2d3f4b37812f6bedc0576 -->
<g id="edge4" class="edge"><title>dir_a3fc75f1fc73eeb5dd38df87feb8498d&#45;&gt;dir_aa67580363a2d3f4b37812f6bedc0576</title>
<path fill="none" stroke="black" d="M51,-359.697C51,-351.983 51,-342.712 51,-334.112"/>
<polygon fill="black" stroke="black" points="54.5001,-334.104 51,-324.104 47.5001,-334.104 54.5001,-334.104"/>
<g id="a_edge4&#45;headlabel"><a xlink:href="dir_000012_000013.html" target="_top" xlink:title="2">
<text text-anchor="middle" x="57.3393" y="-335.199" font-family="Helvetica,sans-Serif" font-size="10.00">2</text>
</a>
</g>
</g>
<!-- dir_64268c1c8a58405848bbc25a559c334c -->
<g id="node3" class="node"><title>dir_64268c1c8a58405848bbc25a559c334c</title>
<g id="a_node3"><a xlink:href="dir_64268c1c8a58405848bbc25a559c334c.html" target="_top" xlink:title="math">
<polygon fill="none" stroke="black" points="282,-36 228,-36 228,-0 282,-0 282,-36"/>
<text text-anchor="middle" x="255" y="-15.5" font-family="Helvetica,sans-Serif" font-size="10.00">math</text>
</a>
</g>
</g>
<!-- dir_a3fc75f1fc73eeb5dd38df87feb8498d&#45;&gt;dir_64268c1c8a58405848bbc25a559c334c -->
<g id="edge1" class="edge"><title>dir_a3fc75f1fc73eeb5dd38df87feb8498d&#45;&gt;dir_64268c1c8a58405848bbc25a559c334c</title>
<path fill="none" stroke="black" d="M65.1647,-359.851C72.6902,-349.93 81.4971,-336.89 87,-324 102.881,-286.801 106,-275.447 106,-235 106,-235 106,-235 106,-161 106,-99.0784 174.27,-55.9231 218.387,-34.5001"/>
<polygon fill="black" stroke="black" points="220.11,-37.5577 227.671,-30.1366 217.132,-31.2225 220.11,-37.5577"/>
<g id="a_edge1&#45;headlabel"><a xlink:href="dir_000012_000010.html" target="_top" xlink:title="1">
<text text-anchor="middle" x="218.064" y="-39.1562" font-family="Helvetica,sans-Serif" font-size="10.00">1</text>
</a>
</g>
</g>
<!-- dir_eb48233dd18e3f5f49334422dd112d89 -->
<g id="node4" class="node"><title>dir_eb48233dd18e3f5f49334422dd112d89</title>
<g id="a_node4"><a xlink:href="dir_eb48233dd18e3f5f49334422dd112d89.html" target="_top" xlink:title="BV">
<polygon fill="none" stroke="black" points="245,-108 191,-108 191,-72 245,-72 245,-108"/>
<text text-anchor="middle" x="218" y="-87.5" font-family="Helvetica,sans-Serif" font-size="10.00">BV</text>
</a>
</g>
</g>
<!-- dir_a3fc75f1fc73eeb5dd38df87feb8498d&#45;&gt;dir_eb48233dd18e3f5f49334422dd112d89 -->
<g id="edge2" class="edge"><title>dir_a3fc75f1fc73eeb5dd38df87feb8498d&#45;&gt;dir_eb48233dd18e3f5f49334422dd112d89</title>
<path fill="none" stroke="black" d="M78.2993,-362.234C92.7702,-353.059 109.647,-339.97 120,-324 164.741,-254.982 122.188,-215.412 163,-144 169.22,-133.117 178.346,-123.044 187.383,-114.668"/>
<polygon fill="black" stroke="black" points="189.703,-117.289 194.888,-108.05 185.073,-112.038 189.703,-117.289"/>
<g id="a_edge2&#45;headlabel"><a xlink:href="dir_000012_000003.html" target="_top" xlink:title="3">
<text text-anchor="middle" x="188.885" y="-119.296" font-family="Helvetica,sans-Serif" font-size="10.00">3</text>
</a>
</g>
</g>
<!-- dir_98cc23c92c22e84aa8df830daab0c6f4 -->
<g id="node5" class="node"><title>dir_98cc23c92c22e84aa8df830daab0c6f4</title>
<g id="a_node5"><a xlink:href="dir_98cc23c92c22e84aa8df830daab0c6f4.html" target="_top" xlink:title="shape">
<polygon fill="none" stroke="black" points="281,-252 227,-252 227,-216 281,-216 281,-252"/>
<text text-anchor="middle" x="254" y="-231.5" font-family="Helvetica,sans-Serif" font-size="10.00">shape</text>
</a>
</g>
</g>
<!-- dir_a3fc75f1fc73eeb5dd38df87feb8498d&#45;&gt;dir_98cc23c92c22e84aa8df830daab0c6f4 -->
<g id="edge3" class="edge"><title>dir_a3fc75f1fc73eeb5dd38df87feb8498d&#45;&gt;dir_98cc23c92c22e84aa8df830daab0c6f4</title>
<path fill="none" stroke="black" d="M78.1286,-372.453C109.324,-366.093 160.757,-352.027 196,-324 216.964,-307.328 232.809,-280.928 242.596,-261.203"/>
<polygon fill="black" stroke="black" points="245.777,-262.663 246.909,-252.129 239.455,-259.658 245.777,-262.663"/>
<g id="a_edge3&#45;headlabel"><a xlink:href="dir_000012_000008.html" target="_top" xlink:title="5">
<text text-anchor="middle" x="246.799" y="-264.628" font-family="Helvetica,sans-Serif" font-size="10.00">5</text>
</a>
</g>
</g>
<!-- dir_970d5e0dbb6403831b0c534ae90b5a8e -->
<g id="node6" class="node"><title>dir_970d5e0dbb6403831b0c534ae90b5a8e</title>
<g id="a_node6"><a xlink:href="dir_970d5e0dbb6403831b0c534ae90b5a8e.html" target="_top" xlink:title="narrowphase">
<polygon fill="none" stroke="black" points="320,-324 248,-324 248,-288 320,-288 320,-324"/>
<text text-anchor="middle" x="284" y="-303.5" font-family="Helvetica,sans-Serif" font-size="10.00">narrowphase</text>
</a>
</g>
</g>
<!-- dir_a3fc75f1fc73eeb5dd38df87feb8498d&#45;&gt;dir_970d5e0dbb6403831b0c534ae90b5a8e -->
<g id="edge5" class="edge"><title>dir_a3fc75f1fc73eeb5dd38df87feb8498d&#45;&gt;dir_970d5e0dbb6403831b0c534ae90b5a8e</title>
<path fill="none" stroke="black" d="M78.0923,-369.572C113.916,-359.655 178.942,-341.323 234,-324 235.394,-323.561 236.808,-323.112 238.234,-322.654"/>
<polygon fill="black" stroke="black" points="239.326,-325.979 247.743,-319.545 237.151,-319.326 239.326,-325.979"/>
<g id="a_edge5&#45;headlabel"><a xlink:href="dir_000012_000009.html" target="_top" xlink:title="3">
<text text-anchor="middle" x="236.791" y="-327.295" font-family="Helvetica,sans-Serif" font-size="10.00">3</text>
</a>
</g>
</g>
<!-- dir_3343fceeba1cdf56986a470cf19afa96 -->
<g id="node7" class="node"><title>dir_3343fceeba1cdf56986a470cf19afa96</title>
<g id="a_node7"><a xlink:href="dir_3343fceeba1cdf56986a470cf19afa96.html" target="_top" xlink:title="BVH">
<polygon fill="none" stroke="black" points="226,-180 172,-180 172,-144 226,-144 226,-180"/>
<text text-anchor="middle" x="199" y="-159.5" font-family="Helvetica,sans-Serif" font-size="10.00">BVH</text>
</a>
</g>
</g>
<!-- dir_a3fc75f1fc73eeb5dd38df87feb8498d&#45;&gt;dir_3343fceeba1cdf56986a470cf19afa96 -->
<g id="edge6" class="edge"><title>dir_a3fc75f1fc73eeb5dd38df87feb8498d&#45;&gt;dir_3343fceeba1cdf56986a470cf19afa96</title>
<path fill="none" stroke="black" d="M78.3871,-370.426C102.83,-363.142 137.792,-348.982 158,-324 189.427,-285.148 197.095,-225.144 198.769,-190.413"/>
<polygon fill="black" stroke="black" points="202.278,-190.197 199.124,-180.083 195.282,-189.957 202.278,-190.197"/>
<g id="a_edge6&#45;headlabel"><a xlink:href="dir_000012_000005.html" target="_top" xlink:title="5">
<text text-anchor="middle" x="204.992" y="-191.388" font-family="Helvetica,sans-Serif" font-size="10.00">5</text>
</a>
</g>
</g>
<!-- dir_eb48233dd18e3f5f49334422dd112d89&#45;&gt;dir_64268c1c8a58405848bbc25a559c334c -->
<g id="edge7" class="edge"><title>dir_eb48233dd18e3f5f49334422dd112d89&#45;&gt;dir_64268c1c8a58405848bbc25a559c334c</title>
<path fill="none" stroke="black" d="M227.146,-71.6966C231.403,-63.6436 236.556,-53.8945 241.266,-44.9824"/>
<polygon fill="black" stroke="black" points="244.38,-46.5809 245.959,-36.1043 238.192,-43.3097 244.38,-46.5809"/>
<g id="a_edge7&#45;headlabel"><a xlink:href="dir_000003_000010.html" target="_top" xlink:title="10">
<text text-anchor="middle" x="245.211" y="-48.5857" font-family="Helvetica,sans-Serif" font-size="10.00">10</text>
</a>
</g>
</g>
<!-- dir_98cc23c92c22e84aa8df830daab0c6f4&#45;&gt;dir_64268c1c8a58405848bbc25a559c334c -->
<g id="edge8" class="edge"><title>dir_98cc23c92c22e84aa8df830daab0c6f4&#45;&gt;dir_64268c1c8a58405848bbc25a559c334c</title>
<path fill="none" stroke="black" d="M254.08,-215.849C254.253,-178.832 254.663,-91.1809 254.872,-46.3863"/>
<polygon fill="black" stroke="black" points="258.373,-46.2487 254.919,-36.2325 251.373,-46.216 258.373,-46.2487"/>
<g id="a_edge8&#45;headlabel"><a xlink:href="dir_000008_000010.html" target="_top" xlink:title="1">
<text text-anchor="middle" x="261.195" y="-47.3565" font-family="Helvetica,sans-Serif" font-size="10.00">1</text>
</a>
</g>
</g>
<!-- dir_98cc23c92c22e84aa8df830daab0c6f4&#45;&gt;dir_eb48233dd18e3f5f49334422dd112d89 -->
<g id="edge9" class="edge"><title>dir_98cc23c92c22e84aa8df830daab0c6f4&#45;&gt;dir_eb48233dd18e3f5f49334422dd112d89</title>
<path fill="none" stroke="black" d="M250.861,-215.817C247.447,-197.803 241.589,-168.733 235,-144 232.701,-135.37 229.846,-126.064 227.137,-117.694"/>
<polygon fill="black" stroke="black" points="230.413,-116.453 223.951,-108.057 223.767,-118.65 230.413,-116.453"/>
<g id="a_edge9&#45;headlabel"><a xlink:href="dir_000008_000003.html" target="_top" xlink:title="1">
<text text-anchor="middle" x="234.237" y="-116.475" font-family="Helvetica,sans-Serif" font-size="10.00">1</text>
</a>
</g>
</g>
<!-- dir_98cc23c92c22e84aa8df830daab0c6f4&#45;&gt;dir_3343fceeba1cdf56986a470cf19afa96 -->
<g id="edge10" class="edge"><title>dir_98cc23c92c22e84aa8df830daab0c6f4&#45;&gt;dir_3343fceeba1cdf56986a470cf19afa96</title>
<path fill="none" stroke="black" d="M240.404,-215.697C233.877,-207.389 225.932,-197.277 218.753,-188.141"/>
<polygon fill="black" stroke="black" points="221.369,-185.805 212.439,-180.104 215.865,-190.13 221.369,-185.805"/>
<g id="a_edge10&#45;headlabel"><a xlink:href="dir_000008_000005.html" target="_top" xlink:title="1">
<text text-anchor="middle" x="225.823" y="-184.377" font-family="Helvetica,sans-Serif" font-size="10.00">1</text>
</a>
</g>
</g>
<!-- dir_970d5e0dbb6403831b0c534ae90b5a8e&#45;&gt;dir_64268c1c8a58405848bbc25a559c334c -->
<g id="edge11" class="edge"><title>dir_970d5e0dbb6403831b0c534ae90b5a8e&#45;&gt;dir_64268c1c8a58405848bbc25a559c334c</title>
<path fill="none" stroke="black" d="M286.437,-287.856C287.785,-277.499 289.322,-264.019 290,-252 294.247,-176.73 274.238,-89.0733 262.697,-45.8783"/>
<polygon fill="black" stroke="black" points="266.046,-44.8559 260.034,-36.1324 259.294,-46.7014 266.046,-44.8559"/>
<g id="a_edge11&#45;headlabel"><a xlink:href="dir_000009_000010.html" target="_top" xlink:title="1">
<text text-anchor="middle" x="269.733" y="-45.0748" font-family="Helvetica,sans-Serif" font-size="10.00">1</text>
</a>
</g>
</g>
<!-- dir_970d5e0dbb6403831b0c534ae90b5a8e&#45;&gt;dir_98cc23c92c22e84aa8df830daab0c6f4 -->
<g id="edge12" class="edge"><title>dir_970d5e0dbb6403831b0c534ae90b5a8e&#45;&gt;dir_98cc23c92c22e84aa8df830daab0c6f4</title>
<path fill="none" stroke="black" d="M276.584,-287.697C273.206,-279.813 269.13,-270.304 265.377,-261.546"/>
<polygon fill="black" stroke="black" points="268.487,-259.917 261.33,-252.104 262.053,-262.675 268.487,-259.917"/>
<g id="a_edge12&#45;headlabel"><a xlink:href="dir_000009_000008.html" target="_top" xlink:title="1">
<text text-anchor="middle" x="272.512" y="-259.603" font-family="Helvetica,sans-Serif" font-size="10.00">1</text>
</a>
</g>
</g>
<!-- dir_3343fceeba1cdf56986a470cf19afa96&#45;&gt;dir_eb48233dd18e3f5f49334422dd112d89 -->
<g id="edge13" class="edge"><title>dir_3343fceeba1cdf56986a470cf19afa96&#45;&gt;dir_eb48233dd18e3f5f49334422dd112d89</title>
<path fill="none" stroke="black" d="M203.697,-143.697C205.813,-135.898 208.362,-126.509 210.718,-117.829"/>
<polygon fill="black" stroke="black" points="214.116,-118.672 213.357,-108.104 207.36,-116.838 214.116,-118.672"/>
<g id="a_edge13&#45;headlabel"><a xlink:href="dir_000005_000003.html" target="_top" xlink:title="5">
<text text-anchor="middle" x="215.914" y="-120.385" font-family="Helvetica,sans-Serif" font-size="10.00">5</text>
</a>
</g>
</g>
</g>
</svg>
