<?xml version="1.0" encoding="UTF-8" standalone="no"?>
<!DOCTYPE svg PUBLIC "-//W3C//DTD SVG 1.1//EN"
 "http://www.w3.org/Graphics/SVG/1.1/DTD/svg11.dtd">
<!-- Generated by graphviz version 2.38.0 (20140413.2041)
 -->
<!-- Title: fcl Pages: 1 -->
<svg width="300pt" height="543pt"
 viewBox="0.00 0.00 300.00 543.00" xmlns="http://www.w3.org/2000/svg" xmlns:xlink="http://www.w3.org/1999/xlink">
<g id="graph0" class="graph" transform="scale(1 1) rotate(0) translate(4 539)">
<title>fcl</title>
<polygon fill="white" stroke="none" points="-4,4 -4,-539 296,-539 296,4 -4,4"/>
<g id="clust1" class="cluster"><title>clusterdir_766a2b2ecef16448f861b8cf84e3a157</title>
<g id="a_clust1"><a xlink:href="dir_766a2b2ecef16448f861b8cf84e3a157.html" target="_top" xlink:title="hpp">
<polygon fill="#ddddee" stroke="black" points="8,-8 8,-527 284,-527 284,-8 8,-8"/>
<text text-anchor="middle" x="146" y="-515" font-family="Helvetica,sans-Serif" font-size="10.00">hpp</text>
</a>
</g>
</g>
<g id="clust2" class="cluster"><title>clusterdir_401dad4d5cb59733829471464f0bbd16</title>
<g id="a_clust2"><a xlink:href="dir_401dad4d5cb59733829471464f0bbd16.html" target="_top">
<polygon fill="#eeeeff" stroke="black" points="16,-16 16,-500 276,-500 276,-16 16,-16"/>
</a>
</g>
</g>
<!-- dir_401dad4d5cb59733829471464f0bbd16 -->
<g id="node1" class="node"><title>dir_401dad4d5cb59733829471464f0bbd16</title>
<text text-anchor="middle" x="140" y="-471.5" font-family="Helvetica,sans-Serif" font-size="10.00">fcl</text>
</g>
<!-- dir_3343fceeba1cdf56986a470cf19afa96 -->
<g id="node3" class="node"><title>dir_3343fceeba1cdf56986a470cf19afa96</title>
<g id="a_node3"><a xlink:href="dir_3343fceeba1cdf56986a470cf19afa96.html" target="_top" xlink:title="BVH">
<polygon fill="white" stroke="black" points="164,-204 110,-204 110,-168 164,-168 164,-204"/>
<text text-anchor="middle" x="137" y="-183.5" font-family="Helvetica,sans-Serif" font-size="10.00">BVH</text>
</a>
</g>
</g>
<!-- dir_401dad4d5cb59733829471464f0bbd16&#45;&gt;dir_3343fceeba1cdf56986a470cf19afa96 -->
<g id="edge2" class="edge"><title>dir_401dad4d5cb59733829471464f0bbd16&#45;&gt;dir_3343fceeba1cdf56986a470cf19afa96</title>
<path fill="none" stroke="black" d="M134.591,-455.529C131.705,-445.289 128.455,-432.039 127,-420 118.044,-345.888 127.175,-257.67 132.986,-214.107"/>
<polygon fill="black" stroke="black" points="136.477,-214.415 134.379,-204.03 129.543,-213.456 136.477,-214.415"/>
<g id="a_edge2&#45;headlabel"><a xlink:href="dir_000002_000005.html" target="_top" xlink:title="8">
<text text-anchor="middle" x="138.797" y="-215.864" font-family="Helvetica,sans-Serif" font-size="10.00">8</text>
</a>
</g>
</g>
<!-- dir_a3fc75f1fc73eeb5dd38df87feb8498d -->
<g id="node8" class="node"><title>dir_a3fc75f1fc73eeb5dd38df87feb8498d</title>
<g id="a_node8"><a xlink:href="dir_a3fc75f1fc73eeb5dd38df87feb8498d.html" target="_top" xlink:title="traversal">
<polygon fill="white" stroke="red" points="190,-420 136,-420 136,-384 190,-384 190,-420"/>
<text text-anchor="middle" x="163" y="-399.5" font-family="Helvetica,sans-Serif" font-size="10.00">traversal</text>
</a>
</g>
</g>
<!-- dir_401dad4d5cb59733829471464f0bbd16&#45;&gt;dir_a3fc75f1fc73eeb5dd38df87feb8498d -->
<g id="edge1" class="edge"><title>dir_401dad4d5cb59733829471464f0bbd16&#45;&gt;dir_a3fc75f1fc73eeb5dd38df87feb8498d</title>
<path fill="none" stroke="black" d="M145.685,-455.697C148.248,-447.898 151.333,-438.509 154.185,-429.829"/>
<polygon fill="black" stroke="black" points="157.584,-430.697 157.38,-420.104 150.933,-428.512 157.584,-430.697"/>
<g id="a_edge1&#45;headlabel"><a xlink:href="dir_000002_000012.html" target="_top" xlink:title="4">
<text text-anchor="middle" x="159.159" y="-432.498" font-family="Helvetica,sans-Serif" font-size="10.00">4</text>
</a>
</g>
</g>
<!-- dir_eb48233dd18e3f5f49334422dd112d89 -->
<g id="node2" class="node"><title>dir_eb48233dd18e3f5f49334422dd112d89</title>
<g id="a_node2"><a xlink:href="dir_eb48233dd18e3f5f49334422dd112d89.html" target="_top" xlink:title="BV">
<polygon fill="white" stroke="black" points="189,-132 135,-132 135,-96 189,-96 189,-132"/>
<text text-anchor="middle" x="162" y="-111.5" font-family="Helvetica,sans-Serif" font-size="10.00">BV</text>
</a>
</g>
</g>
<!-- dir_64268c1c8a58405848bbc25a559c334c -->
<g id="node4" class="node"><title>dir_64268c1c8a58405848bbc25a559c334c</title>
<g id="a_node4"><a xlink:href="dir_64268c1c8a58405848bbc25a559c334c.html" target="_top" xlink:title="math">
<polygon fill="white" stroke="black" points="189,-60 135,-60 135,-24 189,-24 189,-60"/>
<text text-anchor="middle" x="162" y="-39.5" font-family="Helvetica,sans-Serif" font-size="10.00">math</text>
</a>
</g>
</g>
<!-- dir_eb48233dd18e3f5f49334422dd112d89&#45;&gt;dir_64268c1c8a58405848bbc25a559c334c -->
<g id="edge11" class="edge"><title>dir_eb48233dd18e3f5f49334422dd112d89&#45;&gt;dir_64268c1c8a58405848bbc25a559c334c</title>
<path fill="none" stroke="black" d="M162,-95.6966C162,-87.9827 162,-78.7125 162,-70.1124"/>
<polygon fill="black" stroke="black" points="165.5,-70.1043 162,-60.1043 158.5,-70.1044 165.5,-70.1043"/>
<g id="a_edge11&#45;headlabel"><a xlink:href="dir_000003_000010.html" target="_top" xlink:title="10">
<text text-anchor="middle" x="168.339" y="-71.199" font-family="Helvetica,sans-Serif" font-size="10.00">10</text>
</a>
</g>
</g>
<!-- dir_3343fceeba1cdf56986a470cf19afa96&#45;&gt;dir_eb48233dd18e3f5f49334422dd112d89 -->
<g id="edge17" class="edge"><title>dir_3343fceeba1cdf56986a470cf19afa96&#45;&gt;dir_eb48233dd18e3f5f49334422dd112d89</title>
<path fill="none" stroke="black" d="M143.18,-167.697C145.995,-159.813 149.391,-150.304 152.519,-141.546"/>
<polygon fill="black" stroke="black" points="155.824,-142.699 155.891,-132.104 149.232,-140.345 155.824,-142.699"/>
<g id="a_edge17&#45;headlabel"><a xlink:href="dir_000005_000003.html" target="_top" xlink:title="5">
<text text-anchor="middle" x="157.289" y="-144.539" font-family="Helvetica,sans-Serif" font-size="10.00">5</text>
</a>
</g>
</g>
<!-- dir_a3c0c1724c6489538b44304109444b84 -->
<g id="node5" class="node"><title>dir_a3c0c1724c6489538b44304109444b84</title>
<g id="a_node5"><a xlink:href="dir_a3c0c1724c6489538b44304109444b84.html" target="_top" xlink:title="mesh_loader">
<polygon fill="white" stroke="black" points="228,-276 156,-276 156,-240 228,-240 228,-276"/>
<text text-anchor="middle" x="192" y="-255.5" font-family="Helvetica,sans-Serif" font-size="10.00">mesh_loader</text>
</a>
</g>
</g>
<!-- dir_a3c0c1724c6489538b44304109444b84&#45;&gt;dir_eb48233dd18e3f5f49334422dd112d89 -->
<g id="edge4" class="edge"><title>dir_a3c0c1724c6489538b44304109444b84&#45;&gt;dir_eb48233dd18e3f5f49334422dd112d89</title>
<path fill="none" stroke="black" d="M188.381,-239.871C183.246,-215.564 173.793,-170.819 167.707,-142.013"/>
<polygon fill="black" stroke="black" points="171.123,-141.25 165.632,-132.189 164.274,-142.697 171.123,-141.25"/>
<g id="a_edge4&#45;headlabel"><a xlink:href="dir_000004_000003.html" target="_top" xlink:title="1">
<text text-anchor="middle" x="174.644" y="-141.68" font-family="Helvetica,sans-Serif" font-size="10.00">1</text>
</a>
</g>
</g>
<!-- dir_a3c0c1724c6489538b44304109444b84&#45;&gt;dir_3343fceeba1cdf56986a470cf19afa96 -->
<g id="edge5" class="edge"><title>dir_a3c0c1724c6489538b44304109444b84&#45;&gt;dir_3343fceeba1cdf56986a470cf19afa96</title>
<path fill="none" stroke="black" d="M178.404,-239.697C171.877,-231.389 163.932,-221.277 156.753,-212.141"/>
<polygon fill="black" stroke="black" points="159.369,-209.805 150.439,-204.104 153.865,-214.13 159.369,-209.805"/>
<g id="a_edge5&#45;headlabel"><a xlink:href="dir_000004_000005.html" target="_top" xlink:title="1">
<text text-anchor="middle" x="163.823" y="-208.377" font-family="Helvetica,sans-Serif" font-size="10.00">1</text>
</a>
</g>
</g>
<!-- dir_a3c0c1724c6489538b44304109444b84&#45;&gt;dir_64268c1c8a58405848bbc25a559c334c -->
<g id="edge3" class="edge"><title>dir_a3c0c1724c6489538b44304109444b84&#45;&gt;dir_64268c1c8a58405848bbc25a559c334c</title>
<path fill="none" stroke="black" d="M196.317,-239.595C202.975,-209.53 213.456,-146.262 198,-96 194.991,-86.2153 189.493,-76.6161 183.684,-68.3336"/>
<polygon fill="black" stroke="black" points="186.407,-66.1306 177.61,-60.2264 180.805,-70.3279 186.407,-66.1306"/>
<g id="a_edge3&#45;headlabel"><a xlink:href="dir_000004_000010.html" target="_top" xlink:title="1">
<text text-anchor="middle" x="190.835" y="-64.8048" font-family="Helvetica,sans-Serif" font-size="10.00">1</text>
</a>
</g>
</g>
<!-- dir_970d5e0dbb6403831b0c534ae90b5a8e -->
<g id="node6" class="node"><title>dir_970d5e0dbb6403831b0c534ae90b5a8e</title>
<g id="a_node6"><a xlink:href="dir_970d5e0dbb6403831b0c534ae90b5a8e.html" target="_top" xlink:title="narrowphase">
<polygon fill="white" stroke="black" points="98,-348 26,-348 26,-312 98,-312 98,-348"/>
<text text-anchor="middle" x="62" y="-327.5" font-family="Helvetica,sans-Serif" font-size="10.00">narrowphase</text>
</a>
</g>
</g>
<!-- dir_970d5e0dbb6403831b0c534ae90b5a8e&#45;&gt;dir_64268c1c8a58405848bbc25a559c334c -->
<g id="edge15" class="edge"><title>dir_970d5e0dbb6403831b0c534ae90b5a8e&#45;&gt;dir_64268c1c8a58405848bbc25a559c334c</title>
<path fill="none" stroke="black" d="M50.5331,-311.667C44.6252,-301.689 38.037,-288.652 35,-276 31.2654,-260.442 31.9087,-255.699 35,-240 48.3629,-172.14 52.2094,-151.11 94,-96 102.879,-84.2915 114.948,-73.7688 126.455,-65.2444"/>
<polygon fill="black" stroke="black" points="128.554,-68.0462 134.68,-59.4021 124.501,-62.3392 128.554,-68.0462"/>
<g id="a_edge15&#45;headlabel"><a xlink:href="dir_000009_000010.html" target="_top" xlink:title="1">
<text text-anchor="middle" x="127.268" y="-69.9425" font-family="Helvetica,sans-Serif" font-size="10.00">1</text>
</a>
</g>
</g>
<!-- dir_98cc23c92c22e84aa8df830daab0c6f4 -->
<g id="node7" class="node"><title>dir_98cc23c92c22e84aa8df830daab0c6f4</title>
<g id="a_node7"><a xlink:href="dir_98cc23c92c22e84aa8df830daab0c6f4.html" target="_top" xlink:title="shape">
<polygon fill="white" stroke="black" points="98,-276 44,-276 44,-240 98,-240 98,-276"/>
<text text-anchor="middle" x="71" y="-255.5" font-family="Helvetica,sans-Serif" font-size="10.00">shape</text>
</a>
</g>
</g>
<!-- dir_970d5e0dbb6403831b0c534ae90b5a8e&#45;&gt;dir_98cc23c92c22e84aa8df830daab0c6f4 -->
<g id="edge16" class="edge"><title>dir_970d5e0dbb6403831b0c534ae90b5a8e&#45;&gt;dir_98cc23c92c22e84aa8df830daab0c6f4</title>
<path fill="none" stroke="black" d="M64.2247,-311.697C65.2165,-303.983 66.4084,-294.712 67.5141,-286.112"/>
<polygon fill="black" stroke="black" points="70.997,-286.469 68.8009,-276.104 64.0541,-285.576 70.997,-286.469"/>
<g id="a_edge16&#45;headlabel"><a xlink:href="dir_000009_000008.html" target="_top" xlink:title="1">
<text text-anchor="middle" x="73.3548" y="-287.896" font-family="Helvetica,sans-Serif" font-size="10.00">1</text>
</a>
</g>
</g>
<!-- dir_98cc23c92c22e84aa8df830daab0c6f4&#45;&gt;dir_eb48233dd18e3f5f49334422dd112d89 -->
<g id="edge13" class="edge"><title>dir_98cc23c92c22e84aa8df830daab0c6f4&#45;&gt;dir_eb48233dd18e3f5f49334422dd112d89</title>
<path fill="none" stroke="black" d="M74.0006,-239.73C77.8912,-220.863 86.0251,-190.351 101,-168 108.394,-156.964 118.663,-146.841 128.67,-138.466"/>
<polygon fill="black" stroke="black" points="130.956,-141.119 136.578,-132.139 126.583,-135.653 130.956,-141.119"/>
<g id="a_edge13&#45;headlabel"><a xlink:href="dir_000008_000003.html" target="_top" xlink:title="1">
<text text-anchor="middle" x="129.922" y="-143.082" font-family="Helvetica,sans-Serif" font-size="10.00">1</text>
</a>
</g>
</g>
<!-- dir_98cc23c92c22e84aa8df830daab0c6f4&#45;&gt;dir_3343fceeba1cdf56986a470cf19afa96 -->
<g id="edge14" class="edge"><title>dir_98cc23c92c22e84aa8df830daab0c6f4&#45;&gt;dir_3343fceeba1cdf56986a470cf19afa96</title>
<path fill="none" stroke="black" d="M87.3146,-239.697C95.307,-231.22 105.072,-220.864 113.822,-211.583"/>
<polygon fill="black" stroke="black" points="116.559,-213.781 120.873,-204.104 111.466,-208.979 116.559,-213.781"/>
<g id="a_edge14&#45;headlabel"><a xlink:href="dir_000008_000005.html" target="_top" xlink:title="1">
<text text-anchor="middle" x="116.159" y="-215.844" font-family="Helvetica,sans-Serif" font-size="10.00">1</text>
</a>
</g>
</g>
<!-- dir_98cc23c92c22e84aa8df830daab0c6f4&#45;&gt;dir_64268c1c8a58405848bbc25a559c334c -->
<g id="edge12" class="edge"><title>dir_98cc23c92c22e84aa8df830daab0c6f4&#45;&gt;dir_64268c1c8a58405848bbc25a559c334c</title>
<path fill="none" stroke="black" d="M70.699,-239.773C70.8876,-221.471 72.6617,-191.933 81,-168 94.2421,-129.991 121.325,-91.9929 140.523,-68.043"/>
<polygon fill="black" stroke="black" points="143.33,-70.1383 146.949,-60.1805 137.91,-65.7085 143.33,-70.1383"/>
<g id="a_edge12&#45;headlabel"><a xlink:href="dir_000008_000010.html" target="_top" xlink:title="1">
<text text-anchor="middle" x="143.254" y="-72.2183" font-family="Helvetica,sans-Serif" font-size="10.00">1</text>
</a>
</g>
</g>
<!-- dir_a3fc75f1fc73eeb5dd38df87feb8498d&#45;&gt;dir_eb48233dd18e3f5f49334422dd112d89 -->
<g id="edge7" class="edge"><title>dir_a3fc75f1fc73eeb5dd38df87feb8498d&#45;&gt;dir_eb48233dd18e3f5f49334422dd112d89</title>
<path fill="none" stroke="black" d="M179.999,-383.839C206.289,-355.147 252.273,-295.142 237,-240 226.531,-202.204 201.253,-164.362 182.932,-140.379"/>
<polygon fill="black" stroke="black" points="185.453,-137.921 176.537,-132.197 179.937,-142.231 185.453,-137.921"/>
<g id="a_edge7&#45;headlabel"><a xlink:href="dir_000012_000003.html" target="_top" xlink:title="3">
<text text-anchor="middle" x="189.903" y="-136.505" font-family="Helvetica,sans-Serif" font-size="10.00">3</text>
</a>
</g>
</g>
<!-- dir_a3fc75f1fc73eeb5dd38df87feb8498d&#45;&gt;dir_3343fceeba1cdf56986a470cf19afa96 -->
<g id="edge10" class="edge"><title>dir_a3fc75f1fc73eeb5dd38df87feb8498d&#45;&gt;dir_3343fceeba1cdf56986a470cf19afa96</title>
<path fill="none" stroke="black" d="M160.689,-383.62C157.5,-359.485 151.62,-314.448 147,-276 144.511,-255.29 141.885,-231.844 139.948,-214.217"/>
<polygon fill="black" stroke="black" points="143.405,-213.631 138.839,-204.071 136.447,-214.392 143.405,-213.631"/>
<g id="a_edge10&#45;headlabel"><a xlink:href="dir_000012_000005.html" target="_top" xlink:title="5">
<text text-anchor="middle" x="146.618" y="-214.396" font-family="Helvetica,sans-Serif" font-size="10.00">5</text>
</a>
</g>
</g>
<!-- dir_a3fc75f1fc73eeb5dd38df87feb8498d&#45;&gt;dir_64268c1c8a58405848bbc25a559c334c -->
<g id="edge6" class="edge"><title>dir_a3fc75f1fc73eeb5dd38df87feb8498d&#45;&gt;dir_64268c1c8a58405848bbc25a559c334c</title>
<path fill="none" stroke="black" d="M187.121,-383.822C217.844,-359.73 267,-312.781 267,-259 267,-259 267,-259 267,-185 267,-135.464 225.179,-91.8955 194.324,-66.4918"/>
<polygon fill="black" stroke="black" points="196.351,-63.6311 186.353,-60.1253 191.983,-69.1007 196.351,-63.6311"/>
<g id="a_edge6&#45;headlabel"><a xlink:href="dir_000012_000010.html" target="_top" xlink:title="1">
<text text-anchor="middle" x="200.932" y="-61.1558" font-family="Helvetica,sans-Serif" font-size="10.00">1</text>
</a>
</g>
</g>
<!-- dir_a3fc75f1fc73eeb5dd38df87feb8498d&#45;&gt;dir_970d5e0dbb6403831b0c534ae90b5a8e -->
<g id="edge9" class="edge"><title>dir_a3fc75f1fc73eeb5dd38df87feb8498d&#45;&gt;dir_970d5e0dbb6403831b0c534ae90b5a8e</title>
<path fill="none" stroke="black" d="M138.293,-383.876C125.331,-374.893 109.272,-363.763 95.235,-354.034"/>
<polygon fill="black" stroke="black" points="97.0151,-351.009 86.8024,-348.19 93.0276,-356.763 97.0151,-351.009"/>
<g id="a_edge9&#45;headlabel"><a xlink:href="dir_000012_000009.html" target="_top" xlink:title="3">
<text text-anchor="middle" x="101.587" y="-348.223" font-family="Helvetica,sans-Serif" font-size="10.00">3</text>
</a>
</g>
</g>
<!-- dir_a3fc75f1fc73eeb5dd38df87feb8498d&#45;&gt;dir_98cc23c92c22e84aa8df830daab0c6f4 -->
<g id="edge8" class="edge"><title>dir_a3fc75f1fc73eeb5dd38df87feb8498d&#45;&gt;dir_98cc23c92c22e84aa8df830daab0c6f4</title>
<path fill="none" stroke="black" d="M152.441,-383.825C141.312,-365.817 123.186,-336.752 107,-312 101.064,-302.923 94.428,-293.073 88.4858,-284.354"/>
<polygon fill="black" stroke="black" points="91.3623,-282.36 82.8265,-276.084 85.5853,-286.313 91.3623,-282.36"/>
<g id="a_edge8&#45;headlabel"><a xlink:href="dir_000012_000008.html" target="_top" xlink:title="5">
<text text-anchor="middle" x="95.7354" y="-281.223" font-family="Helvetica,sans-Serif" font-size="10.00">5</text>
</a>
</g>
</g>
</g>
</svg>
