<?xml version="1.0" encoding="UTF-8" standalone="no"?>
<!DOCTYPE svg PUBLIC "-//W3C//DTD SVG 1.1//EN"
 "http://www.w3.org/Graphics/SVG/1.1/DTD/svg11.dtd">
<!-- Generated by graphviz version 2.38.0 (20140413.2041)
 -->
<!-- Title: Graphical Class Hierarchy Pages: 1 -->
<svg width="230pt" height="88pt"
 viewBox="0.00 0.00 230.00 88.00" xmlns="http://www.w3.org/2000/svg" xmlns:xlink="http://www.w3.org/1999/xlink">
<g id="graph0" class="graph" transform="scale(1 1) rotate(0) translate(4 84)">
<title>Graphical Class Hierarchy</title>
<polygon fill="white" stroke="none" points="-4,4 -4,-84 226,-84 226,4 -4,4"/>
<!-- Node1 -->
<g id="node1" class="node"><title>Node1</title>
<polygon fill="white" stroke="#bfbfbf" points="0,-30 0,-49 45,-49 45,-30 0,-30"/>
<text text-anchor="middle" x="22.5" y="-37" font-family="Helvetica,sans-Serif" font-size="10.00">Parent</text>
</g>
<!-- Node2 -->
<g id="node2" class="node"><title>Node2</title>
<g id="a_node2"><a xlink:href="a00011.html" target="_top" xlink:title="Simultaneous control to hpp&#45;manipulation&#45;server and gepetto&#45;viewer&#45;server. ">
<polygon fill="white" stroke="black" points="81,-49.5 81,-79.5 222,-79.5 222,-49.5 81,-49.5"/>
<text text-anchor="start" x="89" y="-67.5" font-family="Helvetica,sans-Serif" font-size="10.00">gepetto.manipulation.viewer.</text>
<text text-anchor="middle" x="151.5" y="-56.5" font-family="Helvetica,sans-Serif" font-size="10.00">Viewer</text>
</a>
</g>
</g>
<!-- Node1&#45;&gt;Node2 -->
<g id="edge1" class="edge"><title>Node1&#45;&gt;Node2</title>
<path fill="none" stroke="midnightblue" d="M54.9478,-45.6905C62.9309,-47.262 71.8301,-49.0138 80.8968,-50.7986"/>
<polygon fill="midnightblue" stroke="midnightblue" points="55.5316,-42.2383 45.0438,-43.7409 54.1795,-49.1065 55.5316,-42.2383"/>
</g>
<!-- Node3 -->
<g id="node3" class="node"><title>Node3</title>
<g id="a_node3"><a xlink:href="a00012.html" target="_top" xlink:title="Viewer factory for manipulation.Viewer. ">
<polygon fill="white" stroke="black" points="82.5,-0.5 82.5,-30.5 220.5,-30.5 220.5,-0.5 82.5,-0.5"/>
<text text-anchor="start" x="90.5" y="-18.5" font-family="Helvetica,sans-Serif" font-size="10.00">gepetto.manipulation.viewer</text>
<text text-anchor="middle" x="151.5" y="-7.5" font-family="Helvetica,sans-Serif" font-size="10.00">_factory.ViewerFactory</text>
</a>
</g>
</g>
<!-- Node1&#45;&gt;Node3 -->
<g id="edge2" class="edge"><title>Node1&#45;&gt;Node3</title>
<path fill="none" stroke="midnightblue" d="M55.0363,-33.5404C63.3984,-31.9601 72.761,-30.1908 82.2658,-28.3946"/>
<polygon fill="midnightblue" stroke="midnightblue" points="54.22,-30.1326 45.0438,-35.4287 55.5198,-37.0109 54.22,-30.1326"/>
</g>
</g>
</svg>
