<?xml version="1.0" encoding="UTF-8" standalone="no"?>
<!DOCTYPE svg PUBLIC "-//W3C//DTD SVG 1.1//EN"
 "http://www.w3.org/Graphics/SVG/1.1/DTD/svg11.dtd">
<!-- Generated by graphviz version 2.38.0 (20140413.2041)
 -->
<!-- Title: Graphical Class Hierarchy Pages: 1 -->
<svg width="236pt" height="165pt"
 viewBox="0.00 0.00 236.00 165.00" xmlns="http://www.w3.org/2000/svg" xmlns:xlink="http://www.w3.org/1999/xlink">
<g id="graph0" class="graph" transform="scale(1 1) rotate(0) translate(4 161)">
<title>Graphical Class Hierarchy</title>
<polygon fill="white" stroke="none" points="-4,4 -4,-161 232,-161 232,4 -4,4"/>
<!-- Node1 -->
<g id="node1" class="node"><title>Node1</title>
<polygon fill="white" stroke="#bfbfbf" points="0,-69 0,-88 43,-88 43,-69 0,-69"/>
<text text-anchor="middle" x="21.5" y="-76" font-family="Helvetica,sans-Serif" font-size="10.00">object</text>
</g>
<!-- Node2 -->
<g id="node2" class="node"><title>Node2</title>
<g id="a_node2"><a xlink:href="a00006.html" target="_top" xlink:title="displays a path by sampling configurations along the path. ">
<polygon fill="white" stroke="black" points="91,-126.5 91,-156.5 216,-156.5 216,-126.5 91,-126.5"/>
<text text-anchor="start" x="99" y="-144.5" font-family="Helvetica,sans-Serif" font-size="10.00">gepetto.path_player.Path</text>
<text text-anchor="middle" x="153.5" y="-133.5" font-family="Helvetica,sans-Serif" font-size="10.00">Player</text>
</a>
</g>
</g>
<!-- Node1&#45;&gt;Node2 -->
<g id="edge1" class="edge"><title>Node1&#45;&gt;Node2</title>
<path fill="none" stroke="midnightblue" d="M43.2728,-94.4065C53.6163,-101.814 66.5471,-110.331 79,-116.5 86.3673,-120.15 94.3968,-123.48 102.355,-126.435"/>
<polygon fill="midnightblue" stroke="midnightblue" points="45.0561,-91.3735 34.9261,-88.2696 40.9095,-97.0131 45.0561,-91.3735"/>
</g>
<!-- Node3 -->
<g id="node3" class="node"><title>Node3</title>
<g id="a_node3"><a xlink:href="a00002.html" target="_top" xlink:title="Helper class. ">
<polygon fill="white" stroke="black" points="100,-88 100,-107 207,-107 207,-88 100,-88"/>
<text text-anchor="middle" x="153.5" y="-95" font-family="Helvetica,sans-Serif" font-size="10.00">gepetto.viewer.Color</text>
</a>
</g>
</g>
<!-- Node1&#45;&gt;Node3 -->
<g id="edge2" class="edge"><title>Node1&#45;&gt;Node3</title>
<path fill="none" stroke="midnightblue" d="M53.0991,-82.9722C67.0155,-85.0061 83.8872,-87.472 99.7492,-89.7903"/>
<polygon fill="midnightblue" stroke="midnightblue" points="53.5,-79.4937 43.0989,-81.5106 52.4876,-86.4201 53.5,-79.4937"/>
</g>
<!-- Node4 -->
<g id="node4" class="node"><title>Node4</title>
<g id="a_node4"><a xlink:href="a00010.html" target="_top" xlink:title="Simultaneous control of hppcorbaserver and gepetto&#45;viewer&#45;server. ">
<polygon fill="white" stroke="black" points="97,-50 97,-69 210,-69 210,-50 97,-50"/>
<text text-anchor="middle" x="153.5" y="-57" font-family="Helvetica,sans-Serif" font-size="10.00">gepetto.viewer.Viewer</text>
</a>
</g>
</g>
<!-- Node1&#45;&gt;Node4 -->
<g id="edge3" class="edge"><title>Node1&#45;&gt;Node4</title>
<path fill="none" stroke="midnightblue" d="M53.38,-73.9868C66.4199,-72.0809 82.0168,-69.8014 96.936,-67.6209"/>
<polygon fill="midnightblue" stroke="midnightblue" points="52.4876,-70.5799 43.0989,-75.4894 53.5,-77.5063 52.4876,-70.5799"/>
</g>
<!-- Node5 -->
<g id="node5" class="node"><title>Node5</title>
<g id="a_node5"><a xlink:href="a00013.html" target="_top" xlink:title="Viewer factory. ">
<polygon fill="white" stroke="black" points="79,-0.5 79,-30.5 228,-30.5 228,-0.5 79,-0.5"/>
<text text-anchor="start" x="87" y="-18.5" font-family="Helvetica,sans-Serif" font-size="10.00">gepetto.viewer_factory.Viewer</text>
<text text-anchor="middle" x="153.5" y="-7.5" font-family="Helvetica,sans-Serif" font-size="10.00">Factory</text>
</a>
</g>
</g>
<!-- Node1&#45;&gt;Node5 -->
<g id="edge4" class="edge"><title>Node1&#45;&gt;Node5</title>
<path fill="none" stroke="midnightblue" d="M43.2728,-62.5935C53.6163,-55.1862 66.5471,-46.6693 79,-40.5 86.3673,-36.8502 94.3968,-33.5203 102.355,-30.5651"/>
<polygon fill="midnightblue" stroke="midnightblue" points="40.9095,-59.9869 34.9261,-68.7304 45.0561,-65.6265 40.9095,-59.9869"/>
</g>
</g>
</svg>
