<?xml version="1.0" encoding="UTF-8" standalone="no"?>
<!DOCTYPE svg PUBLIC "-//W3C//DTD SVG 1.1//EN"
 "http://www.w3.org/Graphics/SVG/1.1/DTD/svg11.dtd">
<!-- Generated by graphviz version 2.38.0 (20140413.2041)
 -->
<!-- Title: fwd.hh Pages: 1 -->
<svg width="185pt" height="140pt"
 viewBox="0.00 0.00 185.00 140.00" xmlns="http://www.w3.org/2000/svg" xmlns:xlink="http://www.w3.org/1999/xlink">
<g id="graph0" class="graph" transform="scale(1 1) rotate(0) translate(4 136)">
<title>fwd.hh</title>
<polygon fill="white" stroke="none" points="-4,4 -4,-136 181,-136 181,4 -4,4"/>
<!-- Node1 -->
<g id="node1" class="node"><title>Node1</title>
<polygon fill="#bfbfbf" stroke="black" points="48.5,-112.5 48.5,-131.5 94.5,-131.5 94.5,-112.5 48.5,-112.5"/>
<text text-anchor="middle" x="71.5" y="-119.5" font-family="Helvetica,sans-Serif" font-size="10.00">fwd.hh</text>
</g>
<!-- Node2 -->
<g id="node2" class="node"><title>Node2</title>
<g id="a_node2"><a xlink:href="a00008.html" target="_top" xlink:title="bin.hh">
<polygon fill="white" stroke="black" points="0,-56.5 0,-75.5 43,-75.5 43,-56.5 0,-56.5"/>
<text text-anchor="middle" x="21.5" y="-63.5" font-family="Helvetica,sans-Serif" font-size="10.00">bin.hh</text>
</a>
</g>
</g>
<!-- Node1&#45;&gt;Node2 -->
<g id="edge1" class="edge"><title>Node1&#45;&gt;Node2</title>
<path fill="none" stroke="midnightblue" d="M56.4237,-104.718C47.6109,-95.1997 36.8341,-83.5608 29.6028,-75.7511"/>
<polygon fill="midnightblue" stroke="midnightblue" points="53.8812,-107.123 63.2435,-112.083 59.0176,-102.367 53.8812,-107.123"/>
</g>
<!-- Node3 -->
<g id="node3" class="node"><title>Node3</title>
<g id="a_node3"><a xlink:href="a00012.html" target="_top" xlink:title="success&#45;bin.hh">
<polygon fill="white" stroke="black" points="5,-0.5 5,-19.5 88,-19.5 88,-0.5 5,-0.5"/>
<text text-anchor="middle" x="46.5" y="-7.5" font-family="Helvetica,sans-Serif" font-size="10.00">success&#45;bin.hh</text>
</a>
</g>
</g>
<!-- Node1&#45;&gt;Node3 -->
<g id="edge4" class="edge"><title>Node1&#45;&gt;Node3</title>
<path fill="none" stroke="midnightblue" d="M67.2609,-102.348C61.7849,-78.2538 52.4791,-37.3079 48.4526,-19.5914"/>
<polygon fill="midnightblue" stroke="midnightblue" points="63.909,-103.393 69.5383,-112.368 70.735,-101.841 63.909,-103.393"/>
</g>
<!-- Node4 -->
<g id="node4" class="node"><title>Node4</title>
<g id="a_node4"><a xlink:href="a00009.html" target="_top" xlink:title="distribution.hh">
<polygon fill="white" stroke="black" points="100,-56.5 100,-75.5 177,-75.5 177,-56.5 100,-56.5"/>
<text text-anchor="middle" x="138.5" y="-63.5" font-family="Helvetica,sans-Serif" font-size="10.00">distribution.hh</text>
</a>
</g>
</g>
<!-- Node1&#45;&gt;Node4 -->
<g id="edge3" class="edge"><title>Node1&#45;&gt;Node4</title>
<path fill="none" stroke="midnightblue" d="M90.3348,-105.82C102.338,-96.1452 117.472,-83.9481 127.539,-75.8339"/>
<polygon fill="midnightblue" stroke="midnightblue" points="87.8543,-103.324 82.2647,-112.324 92.247,-108.774 87.8543,-103.324"/>
</g>
<!-- Node2&#45;&gt;Node3 -->
<g id="edge2" class="edge"><title>Node2&#45;&gt;Node3</title>
<path fill="none" stroke="midnightblue" d="M29.8413,-46.9827C34.0848,-37.8168 39.0499,-27.0922 42.4486,-19.7511"/>
<polygon fill="midnightblue" stroke="midnightblue" points="26.6534,-45.5379 25.6282,-56.083 33.0057,-48.4788 26.6534,-45.5379"/>
</g>
</g>
</svg>
