<?xml version="1.0" encoding="UTF-8" standalone="no"?>
<!DOCTYPE svg PUBLIC "-//W3C//DTD SVG 1.1//EN"
 "http://www.w3.org/Graphics/SVG/1.1/DTD/svg11.dtd">
<!-- Generated by graphviz version 2.38.0 (20140413.2041)
 -->
<!-- Title: hpp::statistics::SuccessBin Pages: 1 -->
<svg width="249pt" height="241pt"
 viewBox="0.00 0.00 249.00 241.00" xmlns="http://www.w3.org/2000/svg" xmlns:xlink="http://www.w3.org/1999/xlink">
<g id="graph0" class="graph" transform="scale(1 1) rotate(0) translate(4 237)">
<title>hpp::statistics::SuccessBin</title>
<polygon fill="white" stroke="none" points="-4,4 -4,-237 245,-237 245,4 -4,4"/>
<!-- Node1 -->
<g id="node1" class="node"><title>Node1</title>
<polygon fill="#bfbfbf" stroke="black" points="20.5,-0.5 20.5,-19.5 157.5,-19.5 157.5,-0.5 20.5,-0.5"/>
<text text-anchor="middle" x="89" y="-7.5" font-family="Helvetica,sans-Serif" font-size="10.00">hpp::statistics::SuccessBin</text>
</g>
<!-- Node2 -->
<g id="node2" class="node"><title>Node2</title>
<g id="a_node2"><a xlink:href="a00002.html" target="_top" xlink:title="Abstract class representing a bin. ">
<polygon fill="white" stroke="black" points="-7.10543e-15,-73 -7.10543e-15,-92 98,-92 98,-73 -7.10543e-15,-73"/>
<text text-anchor="middle" x="49" y="-80" font-family="Helvetica,sans-Serif" font-size="10.00">hpp::statistics::Bin</text>
</a>
</g>
</g>
<!-- Node2&#45;&gt;Node1 -->
<g id="edge1" class="edge"><title>Node2&#45;&gt;Node1</title>
<path fill="none" stroke="midnightblue" d="M58.878,-64.09C66.8726,-49.9995 77.7975,-30.7445 84.0551,-19.7154"/>
<polygon fill="midnightblue" stroke="midnightblue" points="55.7955,-62.4305 53.9048,-72.8553 61.8838,-65.8849 55.7955,-62.4305"/>
</g>
<!-- Node3 -->
<g id="node3" class="node"><title>Node3</title>
<g id="a_node3"><a xlink:href="a00004.html" target="_top" xlink:title="In case of failure, you can provide a reason. ">
<polygon fill="white" stroke="black" points="116,-67.5 116,-97.5 238,-97.5 238,-67.5 116,-67.5"/>
<text text-anchor="start" x="124" y="-85.5" font-family="Helvetica,sans-Serif" font-size="10.00">hpp::statistics::Success</text>
<text text-anchor="middle" x="177" y="-74.5" font-family="Helvetica,sans-Serif" font-size="10.00">Bin::Reason</text>
</a>
</g>
</g>
<!-- Node3&#45;&gt;Node1 -->
<g id="edge2" class="edge"><title>Node3&#45;&gt;Node1</title>
<path fill="none" stroke="#9a32cd" stroke-dasharray="5,2" d="M151.265,-60.8826C134.278,-47.274 112.876,-30.1278 100.101,-19.8932"/>
<polygon fill="#9a32cd" stroke="#9a32cd" points="149.199,-63.7124 159.192,-67.2333 153.576,-58.2493 149.199,-63.7124"/>
<text text-anchor="middle" x="188" y="-41" font-family="Helvetica,sans-Serif" font-size="10.00"> REASON_UNKNOWN</text>
</g>
<!-- Node4 -->
<g id="node4" class="node"><title>Node4</title>
<g id="a_node4"><a xlink:title="STL class. ">
<polygon fill="white" stroke="#bfbfbf" points="147,-145.5 147,-164.5 207,-164.5 207,-145.5 147,-145.5"/>
<text text-anchor="middle" x="177" y="-152.5" font-family="Helvetica,sans-Serif" font-size="10.00">std::string</text>
</a>
</g>
</g>
<!-- Node4&#45;&gt;Node3 -->
<g id="edge3" class="edge"><title>Node4&#45;&gt;Node3</title>
<path fill="none" stroke="#9a32cd" stroke-dasharray="5,2" d="M177,-135.236C177,-123.408 177,-108.383 177,-97.5762"/>
<polygon fill="#9a32cd" stroke="#9a32cd" points="173.5,-135.355 177,-145.355 180.5,-135.355 173.5,-135.355"/>
<text text-anchor="middle" x="189.5" y="-119" font-family="Helvetica,sans-Serif" font-size="10.00"> what</text>
</g>
<!-- Node5 -->
<g id="node5" class="node"><title>Node5</title>
<g id="a_node5"><a xlink:title="STL class. ">
<polygon fill="white" stroke="#bfbfbf" points="129.5,-202.5 129.5,-232.5 224.5,-232.5 224.5,-202.5 129.5,-202.5"/>
<text text-anchor="start" x="137.5" y="-220.5" font-family="Helvetica,sans-Serif" font-size="10.00">std::basic_string&lt;</text>
<text text-anchor="middle" x="177" y="-209.5" font-family="Helvetica,sans-Serif" font-size="10.00"> char &gt;</text>
</a>
</g>
</g>
<!-- Node5&#45;&gt;Node4 -->
<g id="edge4" class="edge"><title>Node5&#45;&gt;Node4</title>
<path fill="none" stroke="midnightblue" d="M177,-192.352C177,-182.513 177,-171.775 177,-164.54"/>
<polygon fill="midnightblue" stroke="midnightblue" points="173.5,-192.468 177,-202.468 180.5,-192.468 173.5,-192.468"/>
</g>
</g>
</svg>
