<?xml version="1.0" encoding="UTF-8" standalone="no"?>
<!DOCTYPE svg PUBLIC "-//W3C//DTD SVG 1.1//EN"
 "http://www.w3.org/Graphics/SVG/1.1/DTD/svg11.dtd">
<!-- Generated by graphviz version 2.38.0 (20140413.2041)
 -->
<!-- Title: hpp::statistics::SuccessStatistics Pages: 1 -->
<svg width="228pt" height="185pt"
 viewBox="0.00 0.00 228.00 185.00" xmlns="http://www.w3.org/2000/svg" xmlns:xlink="http://www.w3.org/1999/xlink">
<g id="graph0" class="graph" transform="scale(1 1) rotate(0) translate(4 181)">
<title>hpp::statistics::SuccessStatistics</title>
<polygon fill="white" stroke="none" points="-4,4 -4,-181 224,-181 224,4 -4,4"/>
<!-- Node1 -->
<g id="node1" class="node"><title>Node1</title>
<polygon fill="#bfbfbf" stroke="black" points="36.5,-0.5 36.5,-30.5 158.5,-30.5 158.5,-0.5 36.5,-0.5"/>
<text text-anchor="start" x="44.5" y="-18.5" font-family="Helvetica,sans-Serif" font-size="10.00">hpp::statistics::Success</text>
<text text-anchor="middle" x="97.5" y="-7.5" font-family="Helvetica,sans-Serif" font-size="10.00">Statistics</text>
</g>
<!-- Node2 -->
<g id="node2" class="node"><title>Node2</title>
<g id="a_node2"><a xlink:href="a00005.html" target="_top" xlink:title="hpp::statistics::Statistics\l\&lt; SuccessBin \&gt;">
<polygon fill="white" stroke="black" points="-7.10543e-15,-78.5 -7.10543e-15,-108.5 125,-108.5 125,-78.5 -7.10543e-15,-78.5"/>
<text text-anchor="start" x="8" y="-96.5" font-family="Helvetica,sans-Serif" font-size="10.00">hpp::statistics::Statistics</text>
<text text-anchor="middle" x="62.5" y="-85.5" font-family="Helvetica,sans-Serif" font-size="10.00">&lt; SuccessBin &gt;</text>
</a>
</g>
</g>
<!-- Node2&#45;&gt;Node1 -->
<g id="edge1" class="edge"><title>Node2&#45;&gt;Node1</title>
<path fill="none" stroke="midnightblue" d="M73.3986,-68.8345C79.1502,-56.3454 86.0165,-41.4356 90.9463,-30.7309"/>
<polygon fill="midnightblue" stroke="midnightblue" points="70.0872,-67.6578 69.0832,-78.205 76.4454,-70.586 70.0872,-67.6578"/>
</g>
<!-- Node3 -->
<g id="node3" class="node"><title>Node3</title>
<g id="a_node3"><a xlink:title="STL class. ">
<polygon fill="white" stroke="#bfbfbf" points="142.5,-84 142.5,-103 202.5,-103 202.5,-84 142.5,-84"/>
<text text-anchor="middle" x="172.5" y="-91" font-family="Helvetica,sans-Serif" font-size="10.00">std::string</text>
</a>
</g>
</g>
<!-- Node3&#45;&gt;Node1 -->
<g id="edge2" class="edge"><title>Node3&#45;&gt;Node1</title>
<path fill="none" stroke="#9a32cd" stroke-dasharray="5,2" d="M156.734,-76.5238C143.3,-62.911 124.184,-43.5398 111.335,-30.5198"/>
<polygon fill="#9a32cd" stroke="#9a32cd" points="154.381,-79.1225 163.897,-83.7818 159.364,-74.2056 154.381,-79.1225"/>
<text text-anchor="middle" x="155" y="-52" font-family="Helvetica,sans-Serif" font-size="10.00"> name_</text>
</g>
<!-- Node4 -->
<g id="node4" class="node"><title>Node4</title>
<g id="a_node4"><a xlink:title="STL class. ">
<polygon fill="white" stroke="#bfbfbf" points="125,-146.5 125,-176.5 220,-176.5 220,-146.5 125,-146.5"/>
<text text-anchor="start" x="133" y="-164.5" font-family="Helvetica,sans-Serif" font-size="10.00">std::basic_string&lt;</text>
<text text-anchor="middle" x="172.5" y="-153.5" font-family="Helvetica,sans-Serif" font-size="10.00"> char &gt;</text>
</a>
</g>
</g>
<!-- Node4&#45;&gt;Node3 -->
<g id="edge3" class="edge"><title>Node4&#45;&gt;Node3</title>
<path fill="none" stroke="midnightblue" d="M172.5,-135.876C172.5,-124.471 172.5,-111.636 172.5,-103.328"/>
<polygon fill="midnightblue" stroke="midnightblue" points="169,-136.179 172.5,-146.179 176,-136.179 169,-136.179"/>
</g>
</g>
</svg>
