<?xml version="1.0" encoding="UTF-8" standalone="no"?>
<!DOCTYPE svg PUBLIC "-//W3C//DTD SVG 1.1//EN"
 "http://www.w3.org/Graphics/SVG/1.1/DTD/svg11.dtd">
<!-- Generated by graphviz version 2.38.0 (20140413.2041)
 -->
<!-- Title: util.hh Pages: 1 -->
<svg width="667pt" height="263pt"
 viewBox="0.00 0.00 667.00 263.00" xmlns="http://www.w3.org/2000/svg" xmlns:xlink="http://www.w3.org/1999/xlink">
<g id="graph0" class="graph" transform="scale(1 1) rotate(0) translate(4 259)">
<title>util.hh</title>
<polygon fill="white" stroke="none" points="-4,4 -4,-259 663,-259 663,4 -4,4"/>
<!-- Node1 -->
<g id="node1" class="node"><title>Node1</title>
<polygon fill="#bfbfbf" stroke="black" points="194,-235.5 194,-254.5 237,-254.5 237,-235.5 194,-235.5"/>
<text text-anchor="middle" x="215.5" y="-242.5" font-family="Helvetica,sans-Serif" font-size="10.00">util.hh</text>
</g>
<!-- Node2 -->
<g id="node2" class="node"><title>Node2</title>
<g id="a_node2"><a xlink:href="a00018.html" target="_top" xlink:title="hpp/util/debug.hh">
<polygon fill="white" stroke="black" points="224,-118 224,-137 315,-137 315,-118 224,-118"/>
<text text-anchor="middle" x="269.5" y="-125" font-family="Helvetica,sans-Serif" font-size="10.00">hpp/util/debug.hh</text>
</a>
</g>
</g>
<!-- Node1&#45;&gt;Node2 -->
<g id="edge1" class="edge"><title>Node1&#45;&gt;Node2</title>
<path fill="none" stroke="midnightblue" d="M198.366,-235.39C177.124,-223.515 145.349,-201.068 159.5,-179 171.943,-159.595 193.921,-147.548 214.977,-140.116"/>
<polygon fill="midnightblue" stroke="midnightblue" points="216.114,-143.427 224.549,-137.016 213.957,-136.767 216.114,-143.427"/>
</g>
<!-- Node9 -->
<g id="node9" class="node"><title>Node9</title>
<g id="a_node9"><a xlink:href="a00025.html" target="_top" xlink:title="hpp/util/indent.hh">
<polygon fill="white" stroke="black" points="0,-56.5 0,-75.5 91,-75.5 91,-56.5 0,-56.5"/>
<text text-anchor="middle" x="45.5" y="-63.5" font-family="Helvetica,sans-Serif" font-size="10.00">hpp/util/indent.hh</text>
</a>
</g>
</g>
<!-- Node1&#45;&gt;Node9 -->
<g id="edge11" class="edge"><title>Node1&#45;&gt;Node9</title>
<path fill="none" stroke="midnightblue" d="M201.162,-235.342C187.825,-226.935 167.771,-213.368 152.5,-199 113.272,-162.092 75.5733,-110.688 57.1756,-84.2378"/>
<polygon fill="midnightblue" stroke="midnightblue" points="59.8526,-81.9535 51.3037,-75.6951 54.0839,-85.9187 59.8526,-81.9535"/>
</g>
<!-- Node11 -->
<g id="node11" class="node"><title>Node11</title>
<polygon fill="white" stroke="#bfbfbf" points="169,-179.5 169,-198.5 262,-198.5 262,-179.5 169,-179.5"/>
<text text-anchor="middle" x="215.5" y="-186.5" font-family="Helvetica,sans-Serif" font-size="10.00">hpp/util/kitelab.hh</text>
</g>
<!-- Node1&#45;&gt;Node11 -->
<g id="edge12" class="edge"><title>Node1&#45;&gt;Node11</title>
<path fill="none" stroke="midnightblue" d="M215.5,-235.083C215.5,-228.006 215.5,-217.861 215.5,-208.986"/>
<polygon fill="midnightblue" stroke="midnightblue" points="219,-208.751 215.5,-198.751 212,-208.751 219,-208.751"/>
</g>
<!-- Node12 -->
<g id="node12" class="node"><title>Node12</title>
<g id="a_node12"><a xlink:href="a00029.html" target="_top" xlink:title="hpp/util/portability.hh">
<polygon fill="white" stroke="black" points="280,-179.5 280,-198.5 387,-198.5 387,-179.5 280,-179.5"/>
<text text-anchor="middle" x="333.5" y="-186.5" font-family="Helvetica,sans-Serif" font-size="10.00">hpp/util/portability.hh</text>
</a>
</g>
</g>
<!-- Node1&#45;&gt;Node12 -->
<g id="edge13" class="edge"><title>Node1&#45;&gt;Node12</title>
<path fill="none" stroke="midnightblue" d="M234.197,-235.444C253.444,-226.636 283.652,-212.812 305.7,-202.722"/>
<polygon fill="midnightblue" stroke="midnightblue" points="307.253,-205.86 314.89,-198.516 304.34,-199.495 307.253,-205.86"/>
</g>
<!-- Node13 -->
<g id="node13" class="node"><title>Node13</title>
<g id="a_node13"><a xlink:href="a00033.html" target="_top" xlink:title="hpp/util/timer.hh">
<polygon fill="white" stroke="black" points="405.5,-179.5 405.5,-198.5 491.5,-198.5 491.5,-179.5 405.5,-179.5"/>
<text text-anchor="middle" x="448.5" y="-186.5" font-family="Helvetica,sans-Serif" font-size="10.00">hpp/util/timer.hh</text>
</a>
</g>
</g>
<!-- Node1&#45;&gt;Node13 -->
<g id="edge14" class="edge"><title>Node1&#45;&gt;Node13</title>
<path fill="none" stroke="midnightblue" d="M237.002,-239.017C274.208,-230.394 351.41,-212.502 401.532,-200.885"/>
<polygon fill="midnightblue" stroke="midnightblue" points="402.532,-204.246 411.484,-198.579 400.952,-197.427 402.532,-204.246"/>
</g>
<!-- Node3 -->
<g id="node3" class="node"><title>Node3</title>
<polygon fill="white" stroke="#bfbfbf" points="348,-56.5 348,-75.5 393,-75.5 393,-56.5 348,-56.5"/>
<text text-anchor="middle" x="370.5" y="-63.5" font-family="Helvetica,sans-Serif" font-size="10.00">cstdlib</text>
</g>
<!-- Node2&#45;&gt;Node3 -->
<g id="edge2" class="edge"><title>Node2&#45;&gt;Node3</title>
<path fill="none" stroke="midnightblue" d="M283.971,-117.975C300.471,-108.255 327.678,-92.2266 347.181,-80.7372"/>
<polygon fill="midnightblue" stroke="midnightblue" points="349.216,-83.6005 356.056,-75.5091 345.663,-77.5693 349.216,-83.6005"/>
</g>
<!-- Node4 -->
<g id="node4" class="node"><title>Node4</title>
<polygon fill="white" stroke="#bfbfbf" points="411.5,-56.5 411.5,-75.5 463.5,-75.5 463.5,-56.5 411.5,-56.5"/>
<text text-anchor="middle" x="437.5" y="-63.5" font-family="Helvetica,sans-Serif" font-size="10.00">ostream</text>
</g>
<!-- Node2&#45;&gt;Node4 -->
<g id="edge3" class="edge"><title>Node2&#45;&gt;Node4</title>
<path fill="none" stroke="midnightblue" d="M293.57,-117.975C322.513,-107.725 371.262,-90.4593 403.902,-78.8994"/>
<polygon fill="midnightblue" stroke="midnightblue" points="405.217,-82.1468 413.474,-75.5091 402.88,-75.5484 405.217,-82.1468"/>
</g>
<!-- Node5 -->
<g id="node5" class="node"><title>Node5</title>
<polygon fill="white" stroke="#bfbfbf" points="109.5,-56.5 109.5,-75.5 159.5,-75.5 159.5,-56.5 109.5,-56.5"/>
<text text-anchor="middle" x="134.5" y="-63.5" font-family="Helvetica,sans-Serif" font-size="10.00">fstream</text>
</g>
<!-- Node2&#45;&gt;Node5 -->
<g id="edge4" class="edge"><title>Node2&#45;&gt;Node5</title>
<path fill="none" stroke="midnightblue" d="M250.158,-117.975C227.401,-107.945 189.408,-91.2002 163.212,-79.6546"/>
<polygon fill="midnightblue" stroke="midnightblue" points="164.369,-76.3395 153.806,-75.5091 161.545,-82.7449 164.369,-76.3395"/>
</g>
<!-- Node6 -->
<g id="node6" class="node"><title>Node6</title>
<polygon fill="white" stroke="#bfbfbf" points="177.5,-56.5 177.5,-75.5 229.5,-75.5 229.5,-56.5 177.5,-56.5"/>
<text text-anchor="middle" x="203.5" y="-63.5" font-family="Helvetica,sans-Serif" font-size="10.00">sstream</text>
</g>
<!-- Node2&#45;&gt;Node6 -->
<g id="edge5" class="edge"><title>Node2&#45;&gt;Node6</title>
<path fill="none" stroke="midnightblue" d="M260.044,-117.975C249.752,-108.697 233.084,-93.6706 220.506,-82.331"/>
<polygon fill="midnightblue" stroke="midnightblue" points="222.71,-79.6054 212.939,-75.5091 218.022,-84.8046 222.71,-79.6054"/>
</g>
<!-- Node7 -->
<g id="node7" class="node"><title>Node7</title>
<polygon fill="white" stroke="#bfbfbf" points="247.5,-56.5 247.5,-75.5 291.5,-75.5 291.5,-56.5 247.5,-56.5"/>
<text text-anchor="middle" x="269.5" y="-63.5" font-family="Helvetica,sans-Serif" font-size="10.00">vector</text>
</g>
<!-- Node2&#45;&gt;Node7 -->
<g id="edge6" class="edge"><title>Node2&#45;&gt;Node7</title>
<path fill="none" stroke="midnightblue" d="M269.5,-117.975C269.5,-109.58 269.5,-96.4806 269.5,-85.6631"/>
<polygon fill="midnightblue" stroke="midnightblue" points="273,-85.5091 269.5,-75.5091 266,-85.5091 273,-85.5091"/>
</g>
<!-- Node8 -->
<g id="node8" class="node"><title>Node8</title>
<polygon fill="white" stroke="#bfbfbf" points="274,-0.5 274,-19.5 365,-19.5 365,-0.5 274,-0.5"/>
<text text-anchor="middle" x="319.5" y="-7.5" font-family="Helvetica,sans-Serif" font-size="10.00">hpp/util/config.hh</text>
</g>
<!-- Node2&#45;&gt;Node8 -->
<g id="edge7" class="edge"><title>Node2&#45;&gt;Node8</title>
<path fill="none" stroke="midnightblue" d="M275.733,-117.952C282.597,-108.21 293.576,-91.6106 300.5,-76 307.203,-60.8867 312.275,-42.7637 315.486,-29.498"/>
<polygon fill="midnightblue" stroke="midnightblue" points="318.916,-30.1992 317.739,-19.6699 312.093,-28.6347 318.916,-30.1992"/>
</g>
<!-- Node2&#45;&gt;Node9 -->
<g id="edge8" class="edge"><title>Node2&#45;&gt;Node9</title>
<path fill="none" stroke="midnightblue" d="M237.406,-117.975C197.901,-107.482 130.721,-89.6367 87.2394,-78.087"/>
<polygon fill="midnightblue" stroke="midnightblue" points="88.0976,-74.6937 77.5342,-75.5091 86.3005,-81.4591 88.0976,-74.6937"/>
</g>
<!-- Node9&#45;&gt;Node8 -->
<g id="edge10" class="edge"><title>Node9&#45;&gt;Node8</title>
<path fill="none" stroke="midnightblue" d="M88.9161,-56.4435C137.015,-46.9641 214.595,-31.6747 266.306,-21.4835"/>
<polygon fill="midnightblue" stroke="midnightblue" points="267.153,-24.8841 276.287,-19.5164 265.799,-18.0162 267.153,-24.8841"/>
</g>
<!-- Node10 -->
<g id="node10" class="node"><title>Node10</title>
<polygon fill="white" stroke="#bfbfbf" points="23,-0.5 23,-19.5 68,-19.5 68,-0.5 23,-0.5"/>
<text text-anchor="middle" x="45.5" y="-7.5" font-family="Helvetica,sans-Serif" font-size="10.00">iosfwd</text>
</g>
<!-- Node9&#45;&gt;Node10 -->
<g id="edge9" class="edge"><title>Node9&#45;&gt;Node10</title>
<path fill="none" stroke="midnightblue" d="M45.5,-56.083C45.5,-49.0059 45.5,-38.8611 45.5,-29.9865"/>
<polygon fill="midnightblue" stroke="midnightblue" points="49.0001,-29.751 45.5,-19.7511 42.0001,-29.7511 49.0001,-29.751"/>
</g>
<!-- Node13&#45;&gt;Node2 -->
<g id="edge18" class="edge"><title>Node13&#45;&gt;Node2</title>
<path fill="none" stroke="midnightblue" d="M422.854,-179.475C391.883,-169.18 339.627,-151.81 304.849,-140.25"/>
<polygon fill="midnightblue" stroke="midnightblue" points="305.692,-136.842 295.099,-137.009 303.484,-143.485 305.692,-136.842"/>
</g>
<!-- Node13&#45;&gt;Node8 -->
<g id="edge17" class="edge"><title>Node13&#45;&gt;Node8</title>
<path fill="none" stroke="midnightblue" d="M454.179,-179.257C468.188,-156.48 501.246,-94.4183 472.5,-56 460.623,-40.1268 414.158,-27.931 375.517,-20.2654"/>
<polygon fill="midnightblue" stroke="midnightblue" points="375.857,-16.7667 365.376,-18.3195 374.537,-23.6413 375.857,-16.7667"/>
</g>
<!-- Node14 -->
<g id="node14" class="node"><title>Node14</title>
<polygon fill="white" stroke="#bfbfbf" points="520,-112.5 520,-142.5 659,-142.5 659,-112.5 520,-112.5"/>
<text text-anchor="start" x="528" y="-130.5" font-family="Helvetica,sans-Serif" font-size="10.00">boost/date_time/posix</text>
<text text-anchor="middle" x="589.5" y="-119.5" font-family="Helvetica,sans-Serif" font-size="10.00">_time/posix_time_types.hpp</text>
</g>
<!-- Node13&#45;&gt;Node14 -->
<g id="edge15" class="edge"><title>Node13&#45;&gt;Node14</title>
<path fill="none" stroke="midnightblue" d="M468.702,-179.475C489.048,-170.889 521.055,-157.383 547.012,-146.429"/>
<polygon fill="midnightblue" stroke="midnightblue" points="548.417,-149.636 556.269,-142.523 545.695,-143.186 548.417,-149.636"/>
</g>
<!-- Node15 -->
<g id="node15" class="node"><title>Node15</title>
<polygon fill="white" stroke="#bfbfbf" points="350,-112.5 350,-142.5 463,-142.5 463,-112.5 350,-112.5"/>
<text text-anchor="start" x="358" y="-130.5" font-family="Helvetica,sans-Serif" font-size="10.00">boost/date_time/posix</text>
<text text-anchor="middle" x="406.5" y="-119.5" font-family="Helvetica,sans-Serif" font-size="10.00">_time/posix_time.hpp</text>
</g>
<!-- Node13&#45;&gt;Node15 -->
<g id="edge16" class="edge"><title>Node13&#45;&gt;Node15</title>
<path fill="none" stroke="midnightblue" d="M442.482,-179.475C437.219,-172.019 429.337,-160.852 422.29,-150.869"/>
<polygon fill="midnightblue" stroke="midnightblue" points="425.025,-148.674 416.399,-142.523 419.306,-152.711 425.025,-148.674"/>
</g>
</g>
</svg>
