<?xml version="1.0" encoding="UTF-8" standalone="no"?>
<!DOCTYPE svg PUBLIC "-//W3C//DTD SVG 1.1//EN"
 "http://www.w3.org/Graphics/SVG/1.1/DTD/svg11.dtd">
<!-- Generated by graphviz version 2.38.0 (20140413.2041)
 -->
<!-- Title: exception.hh Pages: 1 -->
<svg width="298pt" height="84pt"
 viewBox="0.00 0.00 298.00 84.00" xmlns="http://www.w3.org/2000/svg" xmlns:xlink="http://www.w3.org/1999/xlink">
<g id="graph0" class="graph" transform="scale(1 1) rotate(0) translate(4 80)">
<title>exception.hh</title>
<polygon fill="white" stroke="none" points="-4,4 -4,-80 294,-80 294,4 -4,4"/>
<!-- Node1 -->
<g id="node1" class="node"><title>Node1</title>
<polygon fill="#bfbfbf" stroke="black" points="90.5,-56.5 90.5,-75.5 162.5,-75.5 162.5,-56.5 90.5,-56.5"/>
<text text-anchor="middle" x="126.5" y="-63.5" font-family="Helvetica,sans-Serif" font-size="10.00">exception.hh</text>
</g>
<!-- Node2 -->
<g id="node2" class="node"><title>Node2</title>
<polygon fill="white" stroke="#bfbfbf" points="0,-0.5 0,-19.5 45,-19.5 45,-0.5 0,-0.5"/>
<text text-anchor="middle" x="22.5" y="-7.5" font-family="Helvetica,sans-Serif" font-size="10.00">iosfwd</text>
</g>
<!-- Node1&#45;&gt;Node2 -->
<g id="edge1" class="edge"><title>Node1&#45;&gt;Node2</title>
<path fill="none" stroke="midnightblue" d="M109.791,-56.324C93.1881,-47.7034 67.4979,-34.3643 48.2795,-24.3855"/>
<polygon fill="midnightblue" stroke="midnightblue" points="49.6558,-21.1565 39.1679,-19.6545 46.43,-27.3689 49.6558,-21.1565"/>
</g>
<!-- Node3 -->
<g id="node3" class="node"><title>Node3</title>
<polygon fill="white" stroke="#bfbfbf" points="63,-0.5 63,-19.5 122,-19.5 122,-0.5 63,-0.5"/>
<text text-anchor="middle" x="92.5" y="-7.5" font-family="Helvetica,sans-Serif" font-size="10.00">stdexcept</text>
</g>
<!-- Node1&#45;&gt;Node3 -->
<g id="edge2" class="edge"><title>Node1&#45;&gt;Node3</title>
<path fill="none" stroke="midnightblue" d="M120.886,-56.083C116.133,-48.5341 109.182,-37.4948 103.348,-28.2298"/>
<polygon fill="midnightblue" stroke="midnightblue" points="106.3,-26.3486 98.0099,-19.7511 100.376,-30.0783 106.3,-26.3486"/>
</g>
<!-- Node4 -->
<g id="node4" class="node"><title>Node4</title>
<polygon fill="white" stroke="#bfbfbf" points="140,-0.5 140,-19.5 181,-19.5 181,-0.5 140,-0.5"/>
<text text-anchor="middle" x="160.5" y="-7.5" font-family="Helvetica,sans-Serif" font-size="10.00">string</text>
</g>
<!-- Node1&#45;&gt;Node4 -->
<g id="edge3" class="edge"><title>Node1&#45;&gt;Node4</title>
<path fill="none" stroke="midnightblue" d="M132.114,-56.083C136.867,-48.5341 143.818,-37.4948 149.652,-28.2298"/>
<polygon fill="midnightblue" stroke="midnightblue" points="152.624,-30.0783 154.99,-19.7511 146.7,-26.3486 152.624,-30.0783"/>
</g>
<!-- Node5 -->
<g id="node5" class="node"><title>Node5</title>
<polygon fill="white" stroke="#bfbfbf" points="199,-0.5 199,-19.5 290,-19.5 290,-0.5 199,-0.5"/>
<text text-anchor="middle" x="244.5" y="-7.5" font-family="Helvetica,sans-Serif" font-size="10.00">hpp/util/config.hh</text>
</g>
<!-- Node1&#45;&gt;Node5 -->
<g id="edge4" class="edge"><title>Node1&#45;&gt;Node5</title>
<path fill="none" stroke="midnightblue" d="M145.197,-56.4435C164.444,-47.6356 194.652,-33.8116 216.7,-23.722"/>
<polygon fill="midnightblue" stroke="midnightblue" points="218.253,-26.8603 225.89,-19.5164 215.34,-20.4951 218.253,-26.8603"/>
</g>
</g>
</svg>
