<?xml version="1.0" encoding="UTF-8" standalone="no"?>
<!DOCTYPE svg PUBLIC "-//W3C//DTD SVG 1.1//EN"
 "http://www.w3.org/Graphics/SVG/1.1/DTD/svg11.dtd">
<!-- Generated by graphviz version 2.38.0 (20140413.2041)
 -->
<!-- Title: timer.cc Pages: 1 -->
<svg width="824pt" height="263pt"
 viewBox="0.00 0.00 823.50 263.00" xmlns="http://www.w3.org/2000/svg" xmlns:xlink="http://www.w3.org/1999/xlink">
<g id="graph0" class="graph" transform="scale(1 1) rotate(0) translate(4 259)">
<title>timer.cc</title>
<polygon fill="white" stroke="none" points="-4,4 -4,-259 819.5,-259 819.5,4 -4,4"/>
<!-- Node1 -->
<g id="node1" class="node"><title>Node1</title>
<polygon fill="#bfbfbf" stroke="black" points="92,-235.5 92,-254.5 144,-254.5 144,-235.5 92,-235.5"/>
<text text-anchor="middle" x="118" y="-242.5" font-family="Helvetica,sans-Serif" font-size="10.00">timer.cc</text>
</g>
<!-- Node2 -->
<g id="node2" class="node"><title>Node2</title>
<polygon fill="white" stroke="#bfbfbf" points="0,-179.5 0,-198.5 54,-198.5 54,-179.5 0,-179.5"/>
<text text-anchor="middle" x="27" y="-186.5" font-family="Helvetica,sans-Serif" font-size="10.00">iostream</text>
</g>
<!-- Node1&#45;&gt;Node2 -->
<g id="edge1" class="edge"><title>Node1&#45;&gt;Node2</title>
<path fill="none" stroke="midnightblue" d="M103.379,-235.324C89.0511,-226.822 66.9875,-213.729 50.2513,-203.797"/>
<polygon fill="midnightblue" stroke="midnightblue" points="51.9704,-200.748 41.5844,-198.655 48.3982,-206.768 51.9704,-200.748"/>
</g>
<!-- Node3 -->
<g id="node3" class="node"><title>Node3</title>
<polygon fill="white" stroke="#bfbfbf" points="25.5,-112.5 25.5,-142.5 138.5,-142.5 138.5,-112.5 25.5,-112.5"/>
<text text-anchor="start" x="33.5" y="-130.5" font-family="Helvetica,sans-Serif" font-size="10.00">boost/date_time/posix</text>
<text text-anchor="middle" x="82" y="-119.5" font-family="Helvetica,sans-Serif" font-size="10.00">_time/posix_time.hpp</text>
</g>
<!-- Node1&#45;&gt;Node3 -->
<g id="edge2" class="edge"><title>Node1&#45;&gt;Node3</title>
<path fill="none" stroke="midnightblue" d="M114.488,-235.462C110.86,-226.476 105.156,-211.875 101,-199 96.084,-183.77 91.3958,-166.415 87.9063,-152.736"/>
<polygon fill="midnightblue" stroke="midnightblue" points="91.2084,-151.514 85.3834,-142.664 84.4181,-153.215 91.2084,-151.514"/>
</g>
<!-- Node4 -->
<g id="node4" class="node"><title>Node4</title>
<polygon fill="white" stroke="#bfbfbf" points="110,-179.5 110,-198.5 200,-198.5 200,-179.5 110,-179.5"/>
<text text-anchor="middle" x="155" y="-186.5" font-family="Helvetica,sans-Serif" font-size="10.00">boost/format.hpp</text>
</g>
<!-- Node1&#45;&gt;Node4 -->
<g id="edge3" class="edge"><title>Node1&#45;&gt;Node4</title>
<path fill="none" stroke="midnightblue" d="M124.11,-235.083C129.282,-227.534 136.846,-216.495 143.194,-207.23"/>
<polygon fill="midnightblue" stroke="midnightblue" points="146.239,-208.979 149.004,-198.751 140.464,-205.022 146.239,-208.979"/>
</g>
<!-- Node5 -->
<g id="node5" class="node"><title>Node5</title>
<g id="a_node5"><a xlink:href="a00033.html" target="_top" xlink:title="hpp/util/timer.hh">
<polygon fill="white" stroke="black" points="218,-179.5 218,-198.5 304,-198.5 304,-179.5 218,-179.5"/>
<text text-anchor="middle" x="261" y="-186.5" font-family="Helvetica,sans-Serif" font-size="10.00">hpp/util/timer.hh</text>
</a>
</g>
</g>
<!-- Node1&#45;&gt;Node5 -->
<g id="edge4" class="edge"><title>Node1&#45;&gt;Node5</title>
<path fill="none" stroke="midnightblue" d="M140.659,-235.444C164.402,-226.478 201.909,-212.314 228.738,-202.183"/>
<polygon fill="midnightblue" stroke="midnightblue" points="230.329,-205.324 238.447,-198.516 227.856,-198.775 230.329,-205.324"/>
</g>
<!-- Node5&#45;&gt;Node3 -->
<g id="edge6" class="edge"><title>Node5&#45;&gt;Node3</title>
<path fill="none" stroke="midnightblue" d="M235.354,-179.475C208.958,-170.701 167.102,-156.788 133.781,-145.712"/>
<polygon fill="midnightblue" stroke="midnightblue" points="134.78,-142.356 124.187,-142.523 132.572,-148.999 134.78,-142.356"/>
</g>
<!-- Node6 -->
<g id="node6" class="node"><title>Node6</title>
<polygon fill="white" stroke="#bfbfbf" points="156.5,-112.5 156.5,-142.5 295.5,-142.5 295.5,-112.5 156.5,-112.5"/>
<text text-anchor="start" x="164.5" y="-130.5" font-family="Helvetica,sans-Serif" font-size="10.00">boost/date_time/posix</text>
<text text-anchor="middle" x="226" y="-119.5" font-family="Helvetica,sans-Serif" font-size="10.00">_time/posix_time_types.hpp</text>
</g>
<!-- Node5&#45;&gt;Node6 -->
<g id="edge5" class="edge"><title>Node5&#45;&gt;Node6</title>
<path fill="none" stroke="midnightblue" d="M255.985,-179.475C251.644,-172.094 245.163,-161.077 239.336,-151.171"/>
<polygon fill="midnightblue" stroke="midnightblue" points="242.336,-149.368 234.249,-142.523 236.302,-152.917 242.336,-149.368"/>
</g>
<!-- Node7 -->
<g id="node7" class="node"><title>Node7</title>
<polygon fill="white" stroke="#bfbfbf" points="316.5,-0.5 316.5,-19.5 407.5,-19.5 407.5,-0.5 316.5,-0.5"/>
<text text-anchor="middle" x="362" y="-7.5" font-family="Helvetica,sans-Serif" font-size="10.00">hpp/util/config.hh</text>
</g>
<!-- Node5&#45;&gt;Node7 -->
<g id="edge7" class="edge"><title>Node5&#45;&gt;Node7</title>
<path fill="none" stroke="midnightblue" d="M271.275,-179.184C280.724,-170.666 294.645,-157.023 304,-143 328.918,-105.649 347.393,-55.8343 356.219,-29.3596"/>
<polygon fill="midnightblue" stroke="midnightblue" points="359.646,-30.1387 359.402,-19.5467 352.988,-27.979 359.646,-30.1387"/>
</g>
<!-- Node8 -->
<g id="node8" class="node"><title>Node8</title>
<g id="a_node8"><a xlink:href="a00018.html" target="_top" xlink:title="hpp/util/debug.hh">
<polygon fill="white" stroke="black" points="469.5,-118 469.5,-137 560.5,-137 560.5,-118 469.5,-118"/>
<text text-anchor="middle" x="515" y="-125" font-family="Helvetica,sans-Serif" font-size="10.00">hpp/util/debug.hh</text>
</a>
</g>
</g>
<!-- Node5&#45;&gt;Node8 -->
<g id="edge8" class="edge"><title>Node5&#45;&gt;Node8</title>
<path fill="none" stroke="midnightblue" d="M297.392,-179.475C342.565,-168.893 419.651,-150.836 468.91,-139.297"/>
<polygon fill="midnightblue" stroke="midnightblue" points="469.737,-142.698 478.676,-137.009 468.141,-135.882 469.737,-142.698"/>
</g>
<!-- Node8&#45;&gt;Node7 -->
<g id="edge14" class="edge"><title>Node8&#45;&gt;Node7</title>
<path fill="none" stroke="midnightblue" d="M469.423,-119.961C440.364,-113.502 403.982,-100.799 381,-76 369.397,-63.48 364.844,-44.2541 363.076,-29.9557"/>
<polygon fill="midnightblue" stroke="midnightblue" points="366.542,-29.4197 362.174,-19.7674 359.57,-30.0371 366.542,-29.4197"/>
</g>
<!-- Node9 -->
<g id="node9" class="node"><title>Node9</title>
<polygon fill="white" stroke="#bfbfbf" points="390.5,-56.5 390.5,-75.5 435.5,-75.5 435.5,-56.5 390.5,-56.5"/>
<text text-anchor="middle" x="413" y="-63.5" font-family="Helvetica,sans-Serif" font-size="10.00">cstdlib</text>
</g>
<!-- Node8&#45;&gt;Node9 -->
<g id="edge9" class="edge"><title>Node8&#45;&gt;Node9</title>
<path fill="none" stroke="midnightblue" d="M500.386,-117.975C483.647,-108.211 455.996,-92.0807 436.281,-80.5808"/>
<polygon fill="midnightblue" stroke="midnightblue" points="437.988,-77.5246 427.587,-75.5091 434.461,-83.5711 437.988,-77.5246"/>
</g>
<!-- Node10 -->
<g id="node10" class="node"><title>Node10</title>
<polygon fill="white" stroke="#bfbfbf" points="454,-56.5 454,-75.5 506,-75.5 506,-56.5 454,-56.5"/>
<text text-anchor="middle" x="480" y="-63.5" font-family="Helvetica,sans-Serif" font-size="10.00">ostream</text>
</g>
<!-- Node8&#45;&gt;Node10 -->
<g id="edge10" class="edge"><title>Node8&#45;&gt;Node10</title>
<path fill="none" stroke="midnightblue" d="M509.985,-117.975C504.839,-109.227 496.688,-95.3691 490.182,-84.3093"/>
<polygon fill="midnightblue" stroke="midnightblue" points="493.092,-82.3539 485.005,-75.5091 487.059,-85.903 493.092,-82.3539"/>
</g>
<!-- Node11 -->
<g id="node11" class="node"><title>Node11</title>
<polygon fill="white" stroke="#bfbfbf" points="524,-56.5 524,-75.5 574,-75.5 574,-56.5 524,-56.5"/>
<text text-anchor="middle" x="549" y="-63.5" font-family="Helvetica,sans-Serif" font-size="10.00">fstream</text>
</g>
<!-- Node8&#45;&gt;Node11 -->
<g id="edge11" class="edge"><title>Node8&#45;&gt;Node11</title>
<path fill="none" stroke="midnightblue" d="M519.871,-117.975C524.87,-109.227 532.789,-95.3691 539.109,-84.3093"/>
<polygon fill="midnightblue" stroke="midnightblue" points="542.215,-85.928 544.138,-75.5091 536.137,-82.455 542.215,-85.928"/>
</g>
<!-- Node12 -->
<g id="node12" class="node"><title>Node12</title>
<polygon fill="white" stroke="#bfbfbf" points="592,-56.5 592,-75.5 644,-75.5 644,-56.5 592,-56.5"/>
<text text-anchor="middle" x="618" y="-63.5" font-family="Helvetica,sans-Serif" font-size="10.00">sstream</text>
</g>
<!-- Node8&#45;&gt;Node12 -->
<g id="edge12" class="edge"><title>Node8&#45;&gt;Node12</title>
<path fill="none" stroke="midnightblue" d="M529.757,-117.975C546.661,-108.211 574.583,-92.0807 594.49,-80.5808"/>
<polygon fill="midnightblue" stroke="midnightblue" points="596.362,-83.5419 603.27,-75.5091 592.86,-77.4805 596.362,-83.5419"/>
</g>
<!-- Node13 -->
<g id="node13" class="node"><title>Node13</title>
<polygon fill="white" stroke="#bfbfbf" points="662,-56.5 662,-75.5 706,-75.5 706,-56.5 662,-56.5"/>
<text text-anchor="middle" x="684" y="-63.5" font-family="Helvetica,sans-Serif" font-size="10.00">vector</text>
</g>
<!-- Node8&#45;&gt;Node13 -->
<g id="edge13" class="edge"><title>Node8&#45;&gt;Node13</title>
<path fill="none" stroke="midnightblue" d="M539.214,-117.975C568.99,-107.492 619.607,-89.6709 652.415,-78.1202"/>
<polygon fill="midnightblue" stroke="midnightblue" points="653.712,-81.3742 661.982,-74.7519 651.387,-74.7715 653.712,-81.3742"/>
</g>
<!-- Node14 -->
<g id="node14" class="node"><title>Node14</title>
<g id="a_node14"><a xlink:href="a00025.html" target="_top" xlink:title="hpp/util/indent.hh">
<polygon fill="white" stroke="black" points="724.5,-56.5 724.5,-75.5 815.5,-75.5 815.5,-56.5 724.5,-56.5"/>
<text text-anchor="middle" x="770" y="-63.5" font-family="Helvetica,sans-Serif" font-size="10.00">hpp/util/indent.hh</text>
</a>
</g>
</g>
<!-- Node8&#45;&gt;Node14 -->
<g id="edge15" class="edge"><title>Node8&#45;&gt;Node14</title>
<path fill="none" stroke="midnightblue" d="M551.535,-117.975C596.886,-107.393 674.276,-89.3356 723.729,-77.7966"/>
<polygon fill="midnightblue" stroke="midnightblue" points="724.589,-81.1899 733.532,-75.5091 722.999,-74.373 724.589,-81.1899"/>
</g>
<!-- Node14&#45;&gt;Node7 -->
<g id="edge17" class="edge"><title>Node14&#45;&gt;Node7</title>
<path fill="none" stroke="midnightblue" d="M724.401,-57.4107C721.221,-56.9208 718.064,-56.4458 715,-56 610.327,-40.7689 487.772,-25.783 418.072,-17.5268"/>
<polygon fill="midnightblue" stroke="midnightblue" points="418.107,-14.0067 407.766,-16.3095 417.286,-20.9584 418.107,-14.0067"/>
</g>
<!-- Node15 -->
<g id="node15" class="node"><title>Node15</title>
<polygon fill="white" stroke="#bfbfbf" points="747.5,-0.5 747.5,-19.5 792.5,-19.5 792.5,-0.5 747.5,-0.5"/>
<text text-anchor="middle" x="770" y="-7.5" font-family="Helvetica,sans-Serif" font-size="10.00">iosfwd</text>
</g>
<!-- Node14&#45;&gt;Node15 -->
<g id="edge16" class="edge"><title>Node14&#45;&gt;Node15</title>
<path fill="none" stroke="midnightblue" d="M770,-56.083C770,-49.0059 770,-38.8611 770,-29.9865"/>
<polygon fill="midnightblue" stroke="midnightblue" points="773.5,-29.751 770,-19.7511 766.5,-29.7511 773.5,-29.751"/>
</g>
</g>
</svg>
