<?xml version="1.0" encoding="UTF-8" standalone="no"?>
<!DOCTYPE svg PUBLIC "-//W3C//DTD SVG 1.1//EN"
 "http://www.w3.org/Graphics/SVG/1.1/DTD/svg11.dtd">
<!-- Generated by graphviz version 2.38.0 (20140413.2041)
 -->
<!-- Title: debug.cc Pages: 1 -->
<svg width="879pt" height="196pt"
 viewBox="0.00 0.00 878.50 196.00" xmlns="http://www.w3.org/2000/svg" xmlns:xlink="http://www.w3.org/1999/xlink">
<g id="graph0" class="graph" transform="scale(1 1) rotate(0) translate(4 192)">
<title>debug.cc</title>
<polygon fill="white" stroke="none" points="-4,4 -4,-192 874.5,-192 874.5,4 -4,4"/>
<!-- Node1 -->
<g id="node1" class="node"><title>Node1</title>
<polygon fill="#bfbfbf" stroke="black" points="275.5,-168.5 275.5,-187.5 331.5,-187.5 331.5,-168.5 275.5,-168.5"/>
<text text-anchor="middle" x="303.5" y="-175.5" font-family="Helvetica,sans-Serif" font-size="10.00">debug.cc</text>
</g>
<!-- Node2 -->
<g id="node2" class="node"><title>Node2</title>
<polygon fill="white" stroke="#bfbfbf" points="0,-112.5 0,-131.5 51,-131.5 51,-112.5 0,-112.5"/>
<text text-anchor="middle" x="25.5" y="-119.5" font-family="Helvetica,sans-Serif" font-size="10.00">config.h</text>
</g>
<!-- Node1&#45;&gt;Node2 -->
<g id="edge1" class="edge"><title>Node1&#45;&gt;Node2</title>
<path fill="none" stroke="midnightblue" d="M275.228,-171.98C230.583,-163.979 141.063,-147.64 65.5,-132 64.0624,-131.702 62.5968,-131.394 61.117,-131.08"/>
<polygon fill="midnightblue" stroke="midnightblue" points="61.8082,-127.648 51.2925,-128.94 60.3189,-134.488 61.8082,-127.648"/>
</g>
<!-- Node3 -->
<g id="node3" class="node"><title>Node3</title>
<polygon fill="white" stroke="#bfbfbf" points="6,-56.5 6,-75.5 51,-75.5 51,-56.5 6,-56.5"/>
<text text-anchor="middle" x="28.5" y="-63.5" font-family="Helvetica,sans-Serif" font-size="10.00">cstdlib</text>
</g>
<!-- Node1&#45;&gt;Node3 -->
<g id="edge2" class="edge"><title>Node1&#45;&gt;Node3</title>
<path fill="none" stroke="midnightblue" d="M275.22,-172.36C240.397,-166.031 179.919,-153.011 131.5,-132 100.381,-118.496 67.8144,-96.3902 47.8358,-81.767"/>
<polygon fill="midnightblue" stroke="midnightblue" points="49.7046,-78.7949 39.5927,-75.6326 45.5255,-84.4106 49.7046,-78.7949"/>
</g>
<!-- Node4 -->
<g id="node4" class="node"><title>Node4</title>
<polygon fill="white" stroke="#bfbfbf" points="331.5,-112.5 331.5,-131.5 385.5,-131.5 385.5,-112.5 331.5,-112.5"/>
<text text-anchor="middle" x="358.5" y="-119.5" font-family="Helvetica,sans-Serif" font-size="10.00">iostream</text>
</g>
<!-- Node1&#45;&gt;Node4 -->
<g id="edge3" class="edge"><title>Node1&#45;&gt;Node4</title>
<path fill="none" stroke="midnightblue" d="M312.582,-168.083C320.671,-160.141 332.695,-148.335 342.41,-138.797"/>
<polygon fill="midnightblue" stroke="midnightblue" points="344.903,-141.254 349.587,-131.751 339.999,-136.26 344.903,-141.254"/>
</g>
<!-- Node5 -->
<g id="node5" class="node"><title>Node5</title>
<polygon fill="white" stroke="#bfbfbf" points="69.5,-56.5 69.5,-75.5 119.5,-75.5 119.5,-56.5 69.5,-56.5"/>
<text text-anchor="middle" x="94.5" y="-63.5" font-family="Helvetica,sans-Serif" font-size="10.00">fstream</text>
</g>
<!-- Node1&#45;&gt;Node5 -->
<g id="edge4" class="edge"><title>Node1&#45;&gt;Node5</title>
<path fill="none" stroke="midnightblue" d="M275.497,-172.115C245.653,-166.028 197.797,-153.687 161.5,-132 140.101,-119.215 120.23,-98.328 107.775,-83.6907"/>
<polygon fill="midnightblue" stroke="midnightblue" points="110.41,-81.3849 101.344,-75.9031 105.013,-85.8424 110.41,-81.3849"/>
</g>
<!-- Node6 -->
<g id="node6" class="node"><title>Node6</title>
<polygon fill="white" stroke="#bfbfbf" points="137.5,-56.5 137.5,-75.5 189.5,-75.5 189.5,-56.5 137.5,-56.5"/>
<text text-anchor="middle" x="163.5" y="-63.5" font-family="Helvetica,sans-Serif" font-size="10.00">sstream</text>
</g>
<!-- Node1&#45;&gt;Node6 -->
<g id="edge5" class="edge"><title>Node1&#45;&gt;Node6</title>
<path fill="none" stroke="midnightblue" d="M275.491,-175.287C245.763,-171.889 199.678,-161.808 174.5,-132 163.777,-119.306 161.679,-100.103 161.872,-85.8577"/>
<polygon fill="midnightblue" stroke="midnightblue" points="165.375,-85.8824 162.396,-75.7149 158.384,-85.5208 165.375,-85.8824"/>
</g>
<!-- Node7 -->
<g id="node7" class="node"><title>Node7</title>
<polygon fill="white" stroke="#bfbfbf" points="403.5,-112.5 403.5,-131.5 523.5,-131.5 523.5,-112.5 403.5,-112.5"/>
<text text-anchor="middle" x="463.5" y="-119.5" font-family="Helvetica,sans-Serif" font-size="10.00">boost/assign/list_of.hpp</text>
</g>
<!-- Node1&#45;&gt;Node7 -->
<g id="edge6" class="edge"><title>Node1&#45;&gt;Node7</title>
<path fill="none" stroke="midnightblue" d="M328.852,-168.444C355.769,-159.359 398.496,-144.939 428.587,-134.783"/>
<polygon fill="midnightblue" stroke="midnightblue" points="429.91,-138.031 438.266,-131.516 427.672,-131.398 429.91,-138.031"/>
</g>
<!-- Node8 -->
<g id="node8" class="node"><title>Node8</title>
<polygon fill="white" stroke="#bfbfbf" points="542,-112.5 542,-131.5 649,-131.5 649,-112.5 542,-112.5"/>
<text text-anchor="middle" x="595.5" y="-119.5" font-family="Helvetica,sans-Serif" font-size="10.00">boost/filesystem.hpp</text>
</g>
<!-- Node1&#45;&gt;Node8 -->
<g id="edge7" class="edge"><title>Node1&#45;&gt;Node8</title>
<path fill="none" stroke="midnightblue" d="M331.764,-171.773C379.555,-162.935 477.184,-144.88 539.319,-133.39"/>
<polygon fill="midnightblue" stroke="midnightblue" points="540.154,-136.795 549.351,-131.534 538.881,-129.911 540.154,-136.795"/>
</g>
<!-- Node9 -->
<g id="node9" class="node"><title>Node9</title>
<polygon fill="white" stroke="#bfbfbf" points="667,-112.5 667,-131.5 762,-131.5 762,-112.5 667,-112.5"/>
<text text-anchor="middle" x="714.5" y="-119.5" font-family="Helvetica,sans-Serif" font-size="10.00">boost/foreach.hpp</text>
</g>
<!-- Node1&#45;&gt;Node9 -->
<g id="edge8" class="edge"><title>Node1&#45;&gt;Node9</title>
<path fill="none" stroke="midnightblue" d="M331.615,-173.758C390.176,-166.937 529.724,-150.324 656.941,-132.188"/>
<polygon fill="midnightblue" stroke="midnightblue" points="657.455,-135.65 666.858,-130.767 656.462,-128.721 657.455,-135.65"/>
</g>
<!-- Node10 -->
<g id="node10" class="node"><title>Node10</title>
<polygon fill="white" stroke="#bfbfbf" points="780.5,-112.5 780.5,-131.5 870.5,-131.5 870.5,-112.5 780.5,-112.5"/>
<text text-anchor="middle" x="825.5" y="-119.5" font-family="Helvetica,sans-Serif" font-size="10.00">boost/format.hpp</text>
</g>
<!-- Node1&#45;&gt;Node10 -->
<g id="edge9" class="edge"><title>Node1&#45;&gt;Node10</title>
<path fill="none" stroke="midnightblue" d="M331.534,-174.986C402.928,-169.712 597.584,-154.426 770.414,-132.058"/>
<polygon fill="midnightblue" stroke="midnightblue" points="770.991,-135.513 780.454,-130.747 770.085,-128.572 770.991,-135.513"/>
</g>
<!-- Node11 -->
<g id="node11" class="node"><title>Node11</title>
<g id="a_node11"><a xlink:href="a00025.html" target="_top" xlink:title="hpp/util/indent.hh">
<polygon fill="white" stroke="black" points="378,-56.5 378,-75.5 469,-75.5 469,-56.5 378,-56.5"/>
<text text-anchor="middle" x="423.5" y="-63.5" font-family="Helvetica,sans-Serif" font-size="10.00">hpp/util/indent.hh</text>
</a>
</g>
</g>
<!-- Node1&#45;&gt;Node11 -->
<g id="edge10" class="edge"><title>Node1&#45;&gt;Node11</title>
<path fill="none" stroke="midnightblue" d="M303.786,-168.333C304.679,-154.743 308.268,-128.292 322.5,-112 336.266,-96.2419 356.619,-85.7447 375.455,-78.8853"/>
<polygon fill="midnightblue" stroke="midnightblue" points="376.769,-82.136 385.124,-75.6213 374.53,-75.5037 376.769,-82.136"/>
</g>
<!-- Node14 -->
<g id="node14" class="node"><title>Node14</title>
<g id="a_node14"><a xlink:href="a00018.html" target="_top" xlink:title="hpp/util/debug.hh">
<polygon fill="white" stroke="black" points="184,-112.5 184,-131.5 275,-131.5 275,-112.5 184,-112.5"/>
<text text-anchor="middle" x="229.5" y="-119.5" font-family="Helvetica,sans-Serif" font-size="10.00">hpp/util/debug.hh</text>
</a>
</g>
</g>
<!-- Node1&#45;&gt;Node14 -->
<g id="edge13" class="edge"><title>Node1&#45;&gt;Node14</title>
<path fill="none" stroke="midnightblue" d="M291.611,-168.324C280.35,-160.107 263.213,-147.602 249.791,-137.807"/>
<polygon fill="midnightblue" stroke="midnightblue" points="251.747,-134.901 241.606,-131.834 247.62,-140.556 251.747,-134.901"/>
</g>
<!-- Node12 -->
<g id="node12" class="node"><title>Node12</title>
<polygon fill="white" stroke="#bfbfbf" points="401,-0.5 401,-19.5 446,-19.5 446,-0.5 401,-0.5"/>
<text text-anchor="middle" x="423.5" y="-7.5" font-family="Helvetica,sans-Serif" font-size="10.00">iosfwd</text>
</g>
<!-- Node11&#45;&gt;Node12 -->
<g id="edge11" class="edge"><title>Node11&#45;&gt;Node12</title>
<path fill="none" stroke="midnightblue" d="M423.5,-56.083C423.5,-49.0059 423.5,-38.8611 423.5,-29.9865"/>
<polygon fill="midnightblue" stroke="midnightblue" points="427,-29.751 423.5,-19.7511 420,-29.7511 427,-29.751"/>
</g>
<!-- Node13 -->
<g id="node13" class="node"><title>Node13</title>
<polygon fill="white" stroke="#bfbfbf" points="263,-0.5 263,-19.5 354,-19.5 354,-0.5 263,-0.5"/>
<text text-anchor="middle" x="308.5" y="-7.5" font-family="Helvetica,sans-Serif" font-size="10.00">hpp/util/config.hh</text>
</g>
<!-- Node11&#45;&gt;Node13 -->
<g id="edge12" class="edge"><title>Node11&#45;&gt;Node13</title>
<path fill="none" stroke="midnightblue" d="M405.278,-56.4435C386.604,-47.6751 357.344,-33.9355 335.883,-23.8579"/>
<polygon fill="midnightblue" stroke="midnightblue" points="337.176,-20.5988 326.637,-19.5164 334.201,-26.935 337.176,-20.5988"/>
</g>
<!-- Node14&#45;&gt;Node3 -->
<g id="edge14" class="edge"><title>Node14&#45;&gt;Node3</title>
<path fill="none" stroke="midnightblue" d="M196.75,-112.424C164.673,-103.993 114.155,-90.6295 61.1393,-76.147"/>
<polygon fill="midnightblue" stroke="midnightblue" points="61.784,-72.6948 51.2148,-73.4307 59.936,-79.4465 61.784,-72.6948"/>
</g>
<!-- Node14&#45;&gt;Node5 -->
<g id="edge16" class="edge"><title>Node14&#45;&gt;Node5</title>
<path fill="none" stroke="midnightblue" d="M208.109,-112.444C185.793,-103.517 150.597,-89.4387 125.292,-79.3168"/>
<polygon fill="midnightblue" stroke="midnightblue" points="126.376,-75.9807 115.791,-75.5164 123.776,-82.4801 126.376,-75.9807"/>
</g>
<!-- Node14&#45;&gt;Node6 -->
<g id="edge17" class="edge"><title>Node14&#45;&gt;Node6</title>
<path fill="none" stroke="midnightblue" d="M218.896,-112.324C209.044,-104.263 194.149,-92.0765 182.285,-82.3695"/>
<polygon fill="midnightblue" stroke="midnightblue" points="184.253,-79.4575 174.297,-75.8339 179.82,-84.8752 184.253,-79.4575"/>
</g>
<!-- Node14&#45;&gt;Node11 -->
<g id="edge20" class="edge"><title>Node14&#45;&gt;Node11</title>
<path fill="none" stroke="midnightblue" d="M260.24,-112.444C293.444,-103.201 346.491,-88.4356 383.057,-78.2572"/>
<polygon fill="midnightblue" stroke="midnightblue" points="384.209,-81.5699 392.904,-75.5164 382.332,-74.8262 384.209,-81.5699"/>
</g>
<!-- Node14&#45;&gt;Node13 -->
<g id="edge19" class="edge"><title>Node14&#45;&gt;Node13</title>
<path fill="none" stroke="midnightblue" d="M235.699,-112.368C248.736,-94.2153 279.197,-51.8015 296.298,-27.9902"/>
<polygon fill="midnightblue" stroke="midnightblue" points="299.339,-29.7555 302.33,-19.5914 293.654,-25.6721 299.339,-29.7555"/>
</g>
<!-- Node15 -->
<g id="node15" class="node"><title>Node15</title>
<polygon fill="white" stroke="#bfbfbf" points="307.5,-56.5 307.5,-75.5 359.5,-75.5 359.5,-56.5 307.5,-56.5"/>
<text text-anchor="middle" x="333.5" y="-63.5" font-family="Helvetica,sans-Serif" font-size="10.00">ostream</text>
</g>
<!-- Node14&#45;&gt;Node15 -->
<g id="edge15" class="edge"><title>Node14&#45;&gt;Node15</title>
<path fill="none" stroke="midnightblue" d="M246.209,-112.324C262.812,-103.703 288.502,-90.3643 307.72,-80.3855"/>
<polygon fill="midnightblue" stroke="midnightblue" points="309.57,-83.3689 316.832,-75.6545 306.344,-77.1565 309.57,-83.3689"/>
</g>
<!-- Node16 -->
<g id="node16" class="node"><title>Node16</title>
<polygon fill="white" stroke="#bfbfbf" points="207.5,-56.5 207.5,-75.5 251.5,-75.5 251.5,-56.5 207.5,-56.5"/>
<text text-anchor="middle" x="229.5" y="-63.5" font-family="Helvetica,sans-Serif" font-size="10.00">vector</text>
</g>
<!-- Node14&#45;&gt;Node16 -->
<g id="edge18" class="edge"><title>Node14&#45;&gt;Node16</title>
<path fill="none" stroke="midnightblue" d="M229.5,-112.083C229.5,-105.006 229.5,-94.8611 229.5,-85.9865"/>
<polygon fill="midnightblue" stroke="midnightblue" points="233,-85.751 229.5,-75.7511 226,-85.7511 233,-85.751"/>
</g>
</g>
</svg>
