<?xml version="1.0" encoding="UTF-8" standalone="no"?>
<!DOCTYPE svg PUBLIC "-//W3C//DTD SVG 1.1//EN"
 "http://www.w3.org/Graphics/SVG/1.1/DTD/svg11.dtd">
<!-- Generated by graphviz version 2.38.0 (20140413.2041)
 -->
<!-- Title: debug.hh Pages: 1 -->
<svg width="471pt" height="140pt"
 viewBox="0.00 0.00 471.00 140.00" xmlns="http://www.w3.org/2000/svg" xmlns:xlink="http://www.w3.org/1999/xlink">
<g id="graph0" class="graph" transform="scale(1 1) rotate(0) translate(4 136)">
<title>debug.hh</title>
<polygon fill="white" stroke="none" points="-4,4 -4,-136 467,-136 467,4 -4,4"/>
<!-- Node1 -->
<g id="node1" class="node"><title>Node1</title>
<polygon fill="#bfbfbf" stroke="black" points="199.5,-112.5 199.5,-131.5 255.5,-131.5 255.5,-112.5 199.5,-112.5"/>
<text text-anchor="middle" x="227.5" y="-119.5" font-family="Helvetica,sans-Serif" font-size="10.00">debug.hh</text>
</g>
<!-- Node2 -->
<g id="node2" class="node"><title>Node2</title>
<polygon fill="white" stroke="#bfbfbf" points="0,-56.5 0,-75.5 45,-75.5 45,-56.5 0,-56.5"/>
<text text-anchor="middle" x="22.5" y="-63.5" font-family="Helvetica,sans-Serif" font-size="10.00">cstdlib</text>
</g>
<!-- Node1&#45;&gt;Node2 -->
<g id="edge1" class="edge"><title>Node1&#45;&gt;Node2</title>
<path fill="none" stroke="midnightblue" d="M199.288,-113.843C166.88,-105.583 111.867,-91.4394 55.0797,-76.117"/>
<polygon fill="midnightblue" stroke="midnightblue" points="55.7774,-72.68 45.2104,-73.4468 53.9492,-79.4371 55.7774,-72.68"/>
</g>
<!-- Node3 -->
<g id="node3" class="node"><title>Node3</title>
<polygon fill="white" stroke="#bfbfbf" points="63.5,-56.5 63.5,-75.5 115.5,-75.5 115.5,-56.5 63.5,-56.5"/>
<text text-anchor="middle" x="89.5" y="-63.5" font-family="Helvetica,sans-Serif" font-size="10.00">ostream</text>
</g>
<!-- Node1&#45;&gt;Node3 -->
<g id="edge2" class="edge"><title>Node1&#45;&gt;Node3</title>
<path fill="none" stroke="midnightblue" d="M205.633,-112.444C182.721,-103.478 146.525,-89.314 120.634,-79.1827"/>
<polygon fill="midnightblue" stroke="midnightblue" points="121.852,-75.9011 111.264,-75.5164 119.301,-82.4198 121.852,-75.9011"/>
</g>
<!-- Node4 -->
<g id="node4" class="node"><title>Node4</title>
<polygon fill="white" stroke="#bfbfbf" points="133.5,-56.5 133.5,-75.5 183.5,-75.5 183.5,-56.5 133.5,-56.5"/>
<text text-anchor="middle" x="158.5" y="-63.5" font-family="Helvetica,sans-Serif" font-size="10.00">fstream</text>
</g>
<!-- Node1&#45;&gt;Node4 -->
<g id="edge3" class="edge"><title>Node1&#45;&gt;Node4</title>
<path fill="none" stroke="midnightblue" d="M216.414,-112.324C206.014,-104.185 190.239,-91.8395 177.778,-82.0874"/>
<polygon fill="midnightblue" stroke="midnightblue" points="179.82,-79.2407 169.788,-75.8339 175.506,-84.7533 179.82,-79.2407"/>
</g>
<!-- Node5 -->
<g id="node5" class="node"><title>Node5</title>
<polygon fill="white" stroke="#bfbfbf" points="201.5,-56.5 201.5,-75.5 253.5,-75.5 253.5,-56.5 201.5,-56.5"/>
<text text-anchor="middle" x="227.5" y="-63.5" font-family="Helvetica,sans-Serif" font-size="10.00">sstream</text>
</g>
<!-- Node1&#45;&gt;Node5 -->
<g id="edge4" class="edge"><title>Node1&#45;&gt;Node5</title>
<path fill="none" stroke="midnightblue" d="M227.5,-112.083C227.5,-105.006 227.5,-94.8611 227.5,-85.9865"/>
<polygon fill="midnightblue" stroke="midnightblue" points="231,-85.751 227.5,-75.7511 224,-85.7511 231,-85.751"/>
</g>
<!-- Node6 -->
<g id="node6" class="node"><title>Node6</title>
<polygon fill="white" stroke="#bfbfbf" points="271.5,-56.5 271.5,-75.5 315.5,-75.5 315.5,-56.5 271.5,-56.5"/>
<text text-anchor="middle" x="293.5" y="-63.5" font-family="Helvetica,sans-Serif" font-size="10.00">vector</text>
</g>
<!-- Node1&#45;&gt;Node6 -->
<g id="edge5" class="edge"><title>Node1&#45;&gt;Node6</title>
<path fill="none" stroke="midnightblue" d="M238.104,-112.324C247.956,-104.263 262.851,-92.0765 274.715,-82.3695"/>
<polygon fill="midnightblue" stroke="midnightblue" points="277.18,-84.8752 282.703,-75.8339 272.747,-79.4575 277.18,-84.8752"/>
</g>
<!-- Node7 -->
<g id="node7" class="node"><title>Node7</title>
<polygon fill="white" stroke="#bfbfbf" points="298,-0.5 298,-19.5 389,-19.5 389,-0.5 298,-0.5"/>
<text text-anchor="middle" x="343.5" y="-7.5" font-family="Helvetica,sans-Serif" font-size="10.00">hpp/util/config.hh</text>
</g>
<!-- Node1&#45;&gt;Node7 -->
<g id="edge6" class="edge"><title>Node1&#45;&gt;Node7</title>
<path fill="none" stroke="midnightblue" d="M255.601,-114.725C277.362,-108.455 306.703,-96.688 324.5,-76 335.632,-63.0596 340.248,-43.8902 342.159,-29.7194"/>
<polygon fill="midnightblue" stroke="midnightblue" points="345.654,-29.9438 343.184,-19.6409 338.69,-29.2354 345.654,-29.9438"/>
</g>
<!-- Node8 -->
<g id="node8" class="node"><title>Node8</title>
<g id="a_node8"><a xlink:href="a00025.html" target="_top" xlink:title="hpp/util/indent.hh">
<polygon fill="white" stroke="black" points="372,-56.5 372,-75.5 463,-75.5 463,-56.5 372,-56.5"/>
<text text-anchor="middle" x="417.5" y="-63.5" font-family="Helvetica,sans-Serif" font-size="10.00">hpp/util/indent.hh</text>
</a>
</g>
</g>
<!-- Node1&#45;&gt;Node8 -->
<g id="edge7" class="edge"><title>Node1&#45;&gt;Node8</title>
<path fill="none" stroke="midnightblue" d="M255.535,-113.032C287.805,-103.861 341.048,-88.7286 377.623,-78.3334"/>
<polygon fill="midnightblue" stroke="midnightblue" points="378.804,-81.6365 387.466,-75.536 376.89,-74.9032 378.804,-81.6365"/>
</g>
<!-- Node8&#45;&gt;Node7 -->
<g id="edge9" class="edge"><title>Node8&#45;&gt;Node7</title>
<path fill="none" stroke="midnightblue" d="M405.611,-56.324C394.35,-48.1066 377.213,-35.6017 363.791,-25.8069"/>
<polygon fill="midnightblue" stroke="midnightblue" points="365.747,-22.9014 355.606,-19.8339 361.62,-28.5559 365.747,-22.9014"/>
</g>
<!-- Node9 -->
<g id="node9" class="node"><title>Node9</title>
<polygon fill="white" stroke="#bfbfbf" points="407,-0.5 407,-19.5 452,-19.5 452,-0.5 407,-0.5"/>
<text text-anchor="middle" x="429.5" y="-7.5" font-family="Helvetica,sans-Serif" font-size="10.00">iosfwd</text>
</g>
<!-- Node8&#45;&gt;Node9 -->
<g id="edge8" class="edge"><title>Node8&#45;&gt;Node9</title>
<path fill="none" stroke="midnightblue" d="M419.482,-56.083C421.072,-48.9272 423.359,-38.6353 425.346,-29.6911"/>
<polygon fill="midnightblue" stroke="midnightblue" points="428.803,-30.2722 427.555,-19.7511 421.969,-28.7537 428.803,-30.2722"/>
</g>
</g>
</svg>
