<?xml version="1.0" encoding="UTF-8" standalone="no"?>
<!DOCTYPE svg PUBLIC "-//W3C//DTD SVG 1.1//EN"
 "http://www.w3.org/Graphics/SVG/1.1/DTD/svg11.dtd">
<!-- Generated by graphviz version 2.38.0 (20140413.2041)
 -->
<!-- Title: indent.cc Pages: 1 -->
<svg width="348pt" height="140pt"
 viewBox="0.00 0.00 348.00 140.00" xmlns="http://www.w3.org/2000/svg" xmlns:xlink="http://www.w3.org/1999/xlink">
<g id="graph0" class="graph" transform="scale(1 1) rotate(0) translate(4 136)">
<title>indent.cc</title>
<polygon fill="white" stroke="none" points="-4,4 -4,-136 344,-136 344,4 -4,4"/>
<!-- Node1 -->
<g id="node1" class="node"><title>Node1</title>
<polygon fill="#bfbfbf" stroke="black" points="98.5,-112.5 98.5,-131.5 154.5,-131.5 154.5,-112.5 98.5,-112.5"/>
<text text-anchor="middle" x="126.5" y="-119.5" font-family="Helvetica,sans-Serif" font-size="10.00">indent.cc</text>
</g>
<!-- Node2 -->
<g id="node2" class="node"><title>Node2</title>
<polygon fill="white" stroke="#bfbfbf" points="-3.55271e-15,-56.5 -3.55271e-15,-75.5 49,-75.5 49,-56.5 -3.55271e-15,-56.5"/>
<text text-anchor="middle" x="24.5" y="-63.5" font-family="Helvetica,sans-Serif" font-size="10.00">cassert</text>
</g>
<!-- Node1&#45;&gt;Node2 -->
<g id="edge1" class="edge"><title>Node1&#45;&gt;Node2</title>
<path fill="none" stroke="midnightblue" d="M110.112,-112.324C93.8287,-103.703 68.6325,-90.3643 49.7837,-80.3855"/>
<polygon fill="midnightblue" stroke="midnightblue" points="51.3229,-77.2402 40.8474,-75.6545 48.0477,-83.4267 51.3229,-77.2402"/>
</g>
<!-- Node3 -->
<g id="node3" class="node"><title>Node3</title>
<polygon fill="white" stroke="#bfbfbf" points="67.5,-56.5 67.5,-75.5 117.5,-75.5 117.5,-56.5 67.5,-56.5"/>
<text text-anchor="middle" x="92.5" y="-63.5" font-family="Helvetica,sans-Serif" font-size="10.00">iomanip</text>
</g>
<!-- Node1&#45;&gt;Node3 -->
<g id="edge2" class="edge"><title>Node1&#45;&gt;Node3</title>
<path fill="none" stroke="midnightblue" d="M120.886,-112.083C116.133,-104.534 109.182,-93.4948 103.348,-84.2298"/>
<polygon fill="midnightblue" stroke="midnightblue" points="106.3,-82.3486 98.0099,-75.7511 100.376,-86.0783 106.3,-82.3486"/>
</g>
<!-- Node4 -->
<g id="node4" class="node"><title>Node4</title>
<polygon fill="white" stroke="#bfbfbf" points="135.5,-56.5 135.5,-75.5 187.5,-75.5 187.5,-56.5 135.5,-56.5"/>
<text text-anchor="middle" x="161.5" y="-63.5" font-family="Helvetica,sans-Serif" font-size="10.00">ostream</text>
</g>
<!-- Node1&#45;&gt;Node4 -->
<g id="edge3" class="edge"><title>Node1&#45;&gt;Node4</title>
<path fill="none" stroke="midnightblue" d="M132.28,-112.083C137.172,-104.534 144.327,-93.4948 150.333,-84.2298"/>
<polygon fill="midnightblue" stroke="midnightblue" points="153.326,-86.0463 155.828,-75.7511 147.452,-82.239 153.326,-86.0463"/>
</g>
<!-- Node5 -->
<g id="node5" class="node"><title>Node5</title>
<g id="a_node5"><a xlink:href="a00025.html" target="_top" xlink:title="hpp/util/indent.hh">
<polygon fill="white" stroke="black" points="206,-56.5 206,-75.5 297,-75.5 297,-56.5 206,-56.5"/>
<text text-anchor="middle" x="251.5" y="-63.5" font-family="Helvetica,sans-Serif" font-size="10.00">hpp/util/indent.hh</text>
</a>
</g>
</g>
<!-- Node1&#45;&gt;Node5 -->
<g id="edge4" class="edge"><title>Node1&#45;&gt;Node5</title>
<path fill="none" stroke="midnightblue" d="M146.307,-112.444C166.787,-103.596 198.983,-89.6875 222.365,-79.5865"/>
<polygon fill="midnightblue" stroke="midnightblue" points="223.994,-82.6953 231.786,-75.5164 221.218,-76.2692 223.994,-82.6953"/>
</g>
<!-- Node6 -->
<g id="node6" class="node"><title>Node6</title>
<polygon fill="white" stroke="#bfbfbf" points="186,-0.5 186,-19.5 231,-19.5 231,-0.5 186,-0.5"/>
<text text-anchor="middle" x="208.5" y="-7.5" font-family="Helvetica,sans-Serif" font-size="10.00">iosfwd</text>
</g>
<!-- Node5&#45;&gt;Node6 -->
<g id="edge5" class="edge"><title>Node5&#45;&gt;Node6</title>
<path fill="none" stroke="midnightblue" d="M244.399,-56.083C238.263,-48.3768 229.23,-37.0333 221.761,-27.6531"/>
<polygon fill="midnightblue" stroke="midnightblue" points="224.436,-25.3936 215.468,-19.7511 218.96,-29.7542 224.436,-25.3936"/>
</g>
<!-- Node7 -->
<g id="node7" class="node"><title>Node7</title>
<polygon fill="white" stroke="#bfbfbf" points="249,-0.5 249,-19.5 340,-19.5 340,-0.5 249,-0.5"/>
<text text-anchor="middle" x="294.5" y="-7.5" font-family="Helvetica,sans-Serif" font-size="10.00">hpp/util/config.hh</text>
</g>
<!-- Node5&#45;&gt;Node7 -->
<g id="edge6" class="edge"><title>Node5&#45;&gt;Node7</title>
<path fill="none" stroke="midnightblue" d="M258.601,-56.083C264.737,-48.3768 273.77,-37.0333 281.239,-27.6531"/>
<polygon fill="midnightblue" stroke="midnightblue" points="284.04,-29.7542 287.532,-19.7511 278.564,-25.3936 284.04,-29.7542"/>
</g>
</g>
</svg>
