<?xml version="1.0" encoding="UTF-8" standalone="no"?>
<!DOCTYPE svg PUBLIC "-//W3C//DTD SVG 1.1//EN"
 "http://www.w3.org/Graphics/SVG/1.1/DTD/svg11.dtd">
<!-- Generated by graphviz version 2.38.0 (20140413.2041)
 -->
<!-- Title: hpp::debug::Logging Pages: 1 -->
<svg width="419pt" height="196pt"
 viewBox="0.00 0.00 418.50 196.00" xmlns="http://www.w3.org/2000/svg" xmlns:xlink="http://www.w3.org/1999/xlink">
<g id="graph0" class="graph" transform="scale(1 1) rotate(0) translate(4 192)">
<title>hpp::debug::Logging</title>
<polygon fill="white" stroke="none" points="-4,4 -4,-192 414.5,-192 414.5,4 -4,4"/>
<!-- Node1 -->
<g id="node1" class="node"><title>Node1</title>
<polygon fill="#bfbfbf" stroke="black" points="168,-0.5 168,-19.5 272,-19.5 272,-0.5 168,-0.5"/>
<text text-anchor="middle" x="220" y="-7.5" font-family="Helvetica,sans-Serif" font-size="10.00">hpp::debug::Logging</text>
</g>
<!-- Node2 -->
<g id="node2" class="node"><title>Node2</title>
<g id="a_node2"><a xlink:href="a00003.html" target="_top" xlink:title="Logging in console (std::cerr). ">
<polygon fill="white" stroke="black" points="0,-111.5 0,-130.5 136,-130.5 136,-111.5 0,-111.5"/>
<text text-anchor="middle" x="68" y="-118.5" font-family="Helvetica,sans-Serif" font-size="10.00">hpp::debug::ConsoleOutput</text>
</a>
</g>
</g>
<!-- Node2&#45;&gt;Node1 -->
<g id="edge1" class="edge"><title>Node2&#45;&gt;Node1</title>
<path fill="none" stroke="#9a32cd" stroke-dasharray="5,2" d="M87.3731,-105.195C109.345,-88.5205 146.363,-60.7768 179,-38 188.086,-31.6591 198.517,-24.7956 206.584,-19.5754"/>
<polygon fill="#9a32cd" stroke="#9a32cd" points="85.0376,-102.574 79.199,-111.415 89.2765,-108.145 85.0376,-102.574"/>
<text text-anchor="middle" x="197.5" y="-63" font-family="Helvetica,sans-Serif" font-size="10.00"> console</text>
</g>
<!-- Node3 -->
<g id="node3" class="node"><title>Node3</title>
<g id="a_node3"><a xlink:href="a00010.html" target="_top" xlink:title="Debugging output. ">
<polygon fill="white" stroke="black" points="109,-168.5 109,-187.5 209,-187.5 209,-168.5 109,-168.5"/>
<text text-anchor="middle" x="159" y="-175.5" font-family="Helvetica,sans-Serif" font-size="10.00">hpp::debug::Output</text>
</a>
</g>
</g>
<!-- Node3&#45;&gt;Node2 -->
<g id="edge2" class="edge"><title>Node3&#45;&gt;Node2</title>
<path fill="none" stroke="midnightblue" d="M136.018,-163.11C119.054,-152.857 96.5059,-139.229 82.1189,-130.533"/>
<polygon fill="midnightblue" stroke="midnightblue" points="134.413,-166.229 144.781,-168.406 138.033,-160.238 134.413,-166.229"/>
</g>
<!-- Node4 -->
<g id="node4" class="node"><title>Node4</title>
<g id="a_node4"><a xlink:href="a00007.html" target="_top" xlink:title="Logging in journal file in the logging directory. ">
<polygon fill="white" stroke="black" points="154.5,-111.5 154.5,-130.5 285.5,-130.5 285.5,-111.5 154.5,-111.5"/>
<text text-anchor="middle" x="220" y="-118.5" font-family="Helvetica,sans-Serif" font-size="10.00">hpp::debug::JournalOutput</text>
</a>
</g>
</g>
<!-- Node3&#45;&gt;Node4 -->
<g id="edge4" class="edge"><title>Node3&#45;&gt;Node4</title>
<path fill="none" stroke="midnightblue" d="M175.96,-161.708C187.043,-151.715 201.119,-139.024 210.334,-130.715"/>
<polygon fill="midnightblue" stroke="midnightblue" points="173.614,-159.11 168.531,-168.406 178.302,-164.309 173.614,-159.11"/>
</g>
<!-- Node4&#45;&gt;Node1 -->
<g id="edge3" class="edge"><title>Node4&#45;&gt;Node1</title>
<path fill="none" stroke="#9a32cd" stroke-dasharray="5,2" d="M220,-101.193C220,-77.2756 220,-36.9893 220,-19.5133"/>
<polygon fill="#9a32cd" stroke="#9a32cd" points="216.5,-101.447 220,-111.447 223.5,-101.447 216.5,-101.447"/>
<text text-anchor="middle" x="261.5" y="-68.5" font-family="Helvetica,sans-Serif" font-size="10.00"> benchmarkJournal</text>
<text text-anchor="middle" x="261.5" y="-57.5" font-family="Helvetica,sans-Serif" font-size="10.00">journal</text>
</g>
<!-- Node5 -->
<g id="node5" class="node"><title>Node5</title>
<g id="a_node5"><a xlink:href="a00002.html" target="_top" xlink:title="Receive debugging information. ">
<polygon fill="white" stroke="black" points="303.5,-111.5 303.5,-130.5 410.5,-130.5 410.5,-111.5 303.5,-111.5"/>
<text text-anchor="middle" x="357" y="-118.5" font-family="Helvetica,sans-Serif" font-size="10.00">hpp::debug::Channel</text>
</a>
</g>
</g>
<!-- Node5&#45;&gt;Node1 -->
<g id="edge5" class="edge"><title>Node5&#45;&gt;Node1</title>
<path fill="none" stroke="#9a32cd" stroke-dasharray="5,2" d="M350.475,-101.988C342.833,-83.3584 328.427,-54.7009 307,-38 296.023,-29.4444 282.313,-23.5804 269.045,-19.5684"/>
<polygon fill="#9a32cd" stroke="#9a32cd" points="347.243,-103.333 354.112,-111.4 353.772,-100.81 347.243,-103.333"/>
<text text-anchor="middle" x="371.5" y="-85" font-family="Helvetica,sans-Serif" font-size="10.00"> error</text>
<text text-anchor="middle" x="371.5" y="-74" font-family="Helvetica,sans-Serif" font-size="10.00">notice</text>
<text text-anchor="middle" x="371.5" y="-63" font-family="Helvetica,sans-Serif" font-size="10.00">benchmark</text>
<text text-anchor="middle" x="371.5" y="-52" font-family="Helvetica,sans-Serif" font-size="10.00">warning</text>
<text text-anchor="middle" x="371.5" y="-41" font-family="Helvetica,sans-Serif" font-size="10.00">info</text>
</g>
</g>
</svg>
