<?xml version="1.0" encoding="UTF-8" standalone="no"?>
<!DOCTYPE svg PUBLIC "-//W3C//DTD SVG 1.1//EN"
 "http://www.w3.org/Graphics/SVG/1.1/DTD/svg11.dtd">
<!-- Generated by graphviz version 2.38.0 (20140413.2041)
 -->
<!-- Title: ignoretag.hh Pages: 1 -->
<svg width="410pt" height="140pt"
 viewBox="0.00 0.00 410.00 140.00" xmlns="http://www.w3.org/2000/svg" xmlns:xlink="http://www.w3.org/1999/xlink">
<g id="graph0" class="graph" transform="scale(1 1) rotate(0) translate(4 136)">
<title>ignoretag.hh</title>
<polygon fill="white" stroke="none" points="-4,4 -4,-136 406,-136 406,4 -4,4"/>
<!-- Node1 -->
<g id="node1" class="node"><title>Node1</title>
<polygon fill="#bfbfbf" stroke="black" points="118.5,-112.5 118.5,-131.5 188.5,-131.5 188.5,-112.5 118.5,-112.5"/>
<text text-anchor="middle" x="153.5" y="-119.5" font-family="Helvetica,sans-Serif" font-size="10.00">ignoretag.hh</text>
</g>
<!-- Node2 -->
<g id="node2" class="node"><title>Node2</title>
<g id="a_node2"><a xlink:href="a00027.html" target="_top" xlink:title="hpp/util/parser.hh">
<polygon fill="white" stroke="black" points="107.5,-56.5 107.5,-75.5 199.5,-75.5 199.5,-56.5 107.5,-56.5"/>
<text text-anchor="middle" x="153.5" y="-63.5" font-family="Helvetica,sans-Serif" font-size="10.00">hpp/util/parser.hh</text>
</a>
</g>
</g>
<!-- Node1&#45;&gt;Node2 -->
<g id="edge1" class="edge"><title>Node1&#45;&gt;Node2</title>
<path fill="none" stroke="midnightblue" d="M153.5,-112.083C153.5,-105.006 153.5,-94.8611 153.5,-85.9865"/>
<polygon fill="midnightblue" stroke="midnightblue" points="157,-85.751 153.5,-75.7511 150,-85.7511 157,-85.751"/>
</g>
<!-- Node3 -->
<g id="node3" class="node"><title>Node3</title>
<polygon fill="white" stroke="#bfbfbf" points="0,-0.5 0,-19.5 35,-19.5 35,-0.5 0,-0.5"/>
<text text-anchor="middle" x="17.5" y="-7.5" font-family="Helvetica,sans-Serif" font-size="10.00">map</text>
</g>
<!-- Node2&#45;&gt;Node3 -->
<g id="edge2" class="edge"><title>Node2&#45;&gt;Node3</title>
<path fill="none" stroke="midnightblue" d="M131.95,-56.4435C108.279,-47.0445 70.2217,-31.9336 44.5586,-21.7438"/>
<polygon fill="midnightblue" stroke="midnightblue" points="45.6423,-18.4084 35.0565,-17.971 43.0591,-24.9143 45.6423,-18.4084"/>
</g>
<!-- Node4 -->
<g id="node4" class="node"><title>Node4</title>
<polygon fill="white" stroke="#bfbfbf" points="53,-0.5 53,-19.5 82,-19.5 82,-0.5 53,-0.5"/>
<text text-anchor="middle" x="67.5" y="-7.5" font-family="Helvetica,sans-Serif" font-size="10.00">list</text>
</g>
<!-- Node2&#45;&gt;Node4 -->
<g id="edge3" class="edge"><title>Node2&#45;&gt;Node4</title>
<path fill="none" stroke="midnightblue" d="M139.683,-56.324C126.267,-47.9002 105.676,-34.9709 89.9144,-25.0741"/>
<polygon fill="midnightblue" stroke="midnightblue" points="91.6132,-22.0081 81.2831,-19.6545 87.8908,-27.9364 91.6132,-22.0081"/>
</g>
<!-- Node5 -->
<g id="node5" class="node"><title>Node5</title>
<polygon fill="white" stroke="#bfbfbf" points="100,-0.5 100,-19.5 141,-19.5 141,-0.5 100,-0.5"/>
<text text-anchor="middle" x="120.5" y="-7.5" font-family="Helvetica,sans-Serif" font-size="10.00">string</text>
</g>
<!-- Node2&#45;&gt;Node5 -->
<g id="edge4" class="edge"><title>Node2&#45;&gt;Node5</title>
<path fill="none" stroke="midnightblue" d="M148.051,-56.083C143.486,-48.6127 136.832,-37.7244 131.207,-28.5199"/>
<polygon fill="midnightblue" stroke="midnightblue" points="134.049,-26.4588 125.848,-19.7511 128.076,-30.109 134.049,-26.4588"/>
</g>
<!-- Node6 -->
<g id="node6" class="node"><title>Node6</title>
<polygon fill="white" stroke="#bfbfbf" points="159.5,-0.5 159.5,-19.5 213.5,-19.5 213.5,-0.5 159.5,-0.5"/>
<text text-anchor="middle" x="186.5" y="-7.5" font-family="Helvetica,sans-Serif" font-size="10.00">iostream</text>
</g>
<!-- Node2&#45;&gt;Node6 -->
<g id="edge5" class="edge"><title>Node2&#45;&gt;Node6</title>
<path fill="none" stroke="midnightblue" d="M158.949,-56.083C163.514,-48.6127 170.168,-37.7244 175.793,-28.5199"/>
<polygon fill="midnightblue" stroke="midnightblue" points="178.924,-30.109 181.152,-19.7511 172.951,-26.4588 178.924,-30.109"/>
</g>
<!-- Node7 -->
<g id="node7" class="node"><title>Node7</title>
<polygon fill="white" stroke="#bfbfbf" points="231.5,-0.5 231.5,-19.5 287.5,-19.5 287.5,-0.5 231.5,-0.5"/>
<text text-anchor="middle" x="259.5" y="-7.5" font-family="Helvetica,sans-Serif" font-size="10.00">tinyxml.h</text>
</g>
<!-- Node2&#45;&gt;Node7 -->
<g id="edge6" class="edge"><title>Node2&#45;&gt;Node7</title>
<path fill="none" stroke="midnightblue" d="M170.531,-56.324C187.53,-47.6641 213.876,-34.2424 233.493,-24.249"/>
<polygon fill="midnightblue" stroke="midnightblue" points="235.19,-27.3125 242.512,-19.6545 232.012,-21.0752 235.19,-27.3125"/>
</g>
<!-- Node8 -->
<g id="node8" class="node"><title>Node8</title>
<polygon fill="white" stroke="#bfbfbf" points="305,-0.5 305,-19.5 402,-19.5 402,-0.5 305,-0.5"/>
<text text-anchor="middle" x="353.5" y="-7.5" font-family="Helvetica,sans-Serif" font-size="10.00">boost/function.hpp</text>
</g>
<!-- Node2&#45;&gt;Node8 -->
<g id="edge7" class="edge"><title>Node2&#45;&gt;Node8</title>
<path fill="none" stroke="midnightblue" d="M185.191,-56.4435C219.568,-47.1616 274.577,-32.3093 312.289,-22.127"/>
<polygon fill="midnightblue" stroke="midnightblue" points="313.216,-25.5022 321.958,-19.5164 311.391,-18.7442 313.216,-25.5022"/>
</g>
</g>
</svg>
