<?xml version="1.0" encoding="UTF-8" standalone="no"?>
<!DOCTYPE svg PUBLIC "-//W3C//DTD SVG 1.1//EN"
 "http://www.w3.org/Graphics/SVG/1.1/DTD/svg11.dtd">
<!-- Generated by graphviz version 2.38.0 (20140413.2041)
 -->
<!-- Title: frame.hh Pages: 1 -->
<svg width="866pt" height="151pt"
 viewBox="0.00 0.00 865.50 151.00" xmlns="http://www.w3.org/2000/svg" xmlns:xlink="http://www.w3.org/1999/xlink">
<g id="graph0" class="graph" transform="scale(1 1) rotate(0) translate(4 147)">
<title>frame.hh</title>
<polygon fill="white" stroke="none" points="-4,4 -4,-147 861.5,-147 861.5,4 -4,4"/>
<!-- Node1 -->
<g id="node1" class="node"><title>Node1</title>
<polygon fill="#bfbfbf" stroke="black" points="392.5,-123.5 392.5,-142.5 447.5,-142.5 447.5,-123.5 392.5,-123.5"/>
<text text-anchor="middle" x="420" y="-130.5" font-family="Helvetica,sans-Serif" font-size="10.00">frame.hh</text>
</g>
<!-- Node2 -->
<g id="node2" class="node"><title>Node2</title>
<polygon fill="white" stroke="#bfbfbf" points="232.5,-67.5 232.5,-86.5 281.5,-86.5 281.5,-67.5 232.5,-67.5"/>
<text text-anchor="middle" x="257" y="-74.5" font-family="Helvetica,sans-Serif" font-size="10.00">cstddef</text>
</g>
<!-- Node1&#45;&gt;Node2 -->
<g id="edge1" class="edge"><title>Node1&#45;&gt;Node2</title>
<path fill="none" stroke="midnightblue" d="M394.172,-123.444C366.428,-114.252 322.196,-99.5987 291.491,-89.4265"/>
<polygon fill="midnightblue" stroke="midnightblue" points="292.233,-85.9854 281.64,-86.1629 290.032,-92.6302 292.233,-85.9854"/>
</g>
<!-- Node3 -->
<g id="node3" class="node"><title>Node3</title>
<g id="a_node3"><a xlink:href="a00098.html" target="_top" xlink:title="hpp/pinocchio/fwd.hh">
<polygon fill="white" stroke="black" points="299.5,-67.5 299.5,-86.5 408.5,-86.5 408.5,-67.5 299.5,-67.5"/>
<text text-anchor="middle" x="354" y="-74.5" font-family="Helvetica,sans-Serif" font-size="10.00">hpp/pinocchio/fwd.hh</text>
</a>
</g>
</g>
<!-- Node1&#45;&gt;Node3 -->
<g id="edge2" class="edge"><title>Node1&#45;&gt;Node3</title>
<path fill="none" stroke="midnightblue" d="M409.396,-123.324C399.544,-115.263 384.649,-103.077 372.785,-93.3695"/>
<polygon fill="midnightblue" stroke="midnightblue" points="374.753,-90.4575 364.797,-86.8339 370.32,-95.8752 374.753,-90.4575"/>
</g>
<!-- Node12 -->
<g id="node12" class="node"><title>Node12</title>
<polygon fill="white" stroke="#bfbfbf" points="426.5,-67.5 426.5,-86.5 545.5,-86.5 545.5,-67.5 426.5,-67.5"/>
<text text-anchor="middle" x="486" y="-74.5" font-family="Helvetica,sans-Serif" font-size="10.00">hpp/pinocchio/config.hh</text>
</g>
<!-- Node1&#45;&gt;Node12 -->
<g id="edge11" class="edge"><title>Node1&#45;&gt;Node12</title>
<path fill="none" stroke="midnightblue" d="M430.604,-123.324C440.456,-115.263 455.351,-103.077 467.215,-93.3695"/>
<polygon fill="midnightblue" stroke="midnightblue" points="469.68,-95.8752 475.203,-86.8339 465.247,-90.4575 469.68,-95.8752"/>
</g>
<!-- Node13 -->
<g id="node13" class="node"><title>Node13</title>
<polygon fill="white" stroke="#bfbfbf" points="563.5,-67.5 563.5,-86.5 704.5,-86.5 704.5,-67.5 563.5,-67.5"/>
<text text-anchor="middle" x="634" y="-74.5" font-family="Helvetica,sans-Serif" font-size="10.00">hpp/pinocchio/deprecated.hh</text>
</g>
<!-- Node1&#45;&gt;Node13 -->
<g id="edge12" class="edge"><title>Node1&#45;&gt;Node13</title>
<path fill="none" stroke="midnightblue" d="M447.539,-125.051C483.699,-115.927 547.596,-99.803 590.371,-89.0093"/>
<polygon fill="midnightblue" stroke="midnightblue" points="591.386,-92.3628 600.226,-86.5225 589.673,-85.5756 591.386,-92.3628"/>
</g>
<!-- Node4 -->
<g id="node4" class="node"><title>Node4</title>
<polygon fill="white" stroke="#bfbfbf" points="0,-6 0,-25 44,-25 44,-6 0,-6"/>
<text text-anchor="middle" x="22" y="-13" font-family="Helvetica,sans-Serif" font-size="10.00">vector</text>
</g>
<!-- Node3&#45;&gt;Node4 -->
<g id="edge3" class="edge"><title>Node3&#45;&gt;Node4</title>
<path fill="none" stroke="midnightblue" d="M299.406,-68.2534C215.86,-56.3393 64.6665,-34.519 53,-31 51.1228,-30.4338 49.2145,-29.7726 47.3142,-29.0503"/>
<polygon fill="midnightblue" stroke="midnightblue" points="48.632,-25.8073 38.0616,-25.087 45.8757,-32.2418 48.632,-25.8073"/>
</g>
<!-- Node5 -->
<g id="node5" class="node"><title>Node5</title>
<polygon fill="white" stroke="#bfbfbf" points="62.5,-6 62.5,-25 127.5,-25 127.5,-6 62.5,-6"/>
<text text-anchor="middle" x="95" y="-13" font-family="Helvetica,sans-Serif" font-size="10.00">Eigen/Core</text>
</g>
<!-- Node3&#45;&gt;Node5 -->
<g id="edge4" class="edge"><title>Node3&#45;&gt;Node5</title>
<path fill="none" stroke="midnightblue" d="M303.576,-67.4341C259.316,-59.4675 193.388,-46.5117 137,-31 133.974,-30.1675 130.849,-29.2334 127.732,-28.2509"/>
<polygon fill="midnightblue" stroke="midnightblue" points="128.534,-24.8297 117.941,-25.0135 126.337,-31.4759 128.534,-24.8297"/>
</g>
<!-- Node6 -->
<g id="node6" class="node"><title>Node6</title>
<g id="a_node6"><a doxygen="/local/devel/hpp/install/share/doc/hpp-util/doxygen-html/hpp-util.doxytag:../../hpp-util/doxygen-html/" xlink:href="../../hpp-util/doxygen-html/a00028.html" target="_top" xlink:title="hpp/util/pointer.hh">
<polygon fill="white" stroke="black" points="146,-6 146,-25 240,-25 240,-6 146,-6"/>
<text text-anchor="middle" x="193" y="-13" font-family="Helvetica,sans-Serif" font-size="10.00">hpp/util/pointer.hh</text>
</a>
</g>
</g>
<!-- Node3&#45;&gt;Node6 -->
<g id="edge5" class="edge"><title>Node3&#45;&gt;Node6</title>
<path fill="none" stroke="midnightblue" d="M330.933,-67.4751C303.315,-57.2687 256.88,-40.108 225.604,-28.5492"/>
<polygon fill="midnightblue" stroke="midnightblue" points="226.618,-25.1927 216.025,-25.0091 224.191,-31.7586 226.618,-25.1927"/>
</g>
<!-- Node7 -->
<g id="node7" class="node"><title>Node7</title>
<polygon fill="white" stroke="#bfbfbf" points="258,-6 258,-25 336,-25 336,-6 258,-6"/>
<text text-anchor="middle" x="297" y="-13" font-family="Helvetica,sans-Serif" font-size="10.00">hpp/fcl/fwd.hh</text>
</g>
<!-- Node3&#45;&gt;Node7 -->
<g id="edge6" class="edge"><title>Node3&#45;&gt;Node7</title>
<path fill="none" stroke="midnightblue" d="M345.833,-67.4751C337.114,-58.3733 323.096,-43.741 312.311,-32.483"/>
<polygon fill="midnightblue" stroke="midnightblue" points="314.597,-29.809 305.152,-25.0091 309.542,-34.6515 314.597,-29.809"/>
</g>
<!-- Node8 -->
<g id="node8" class="node"><title>Node8</title>
<polygon fill="white" stroke="#bfbfbf" points="354,-6 354,-25 470,-25 470,-6 354,-6"/>
<text text-anchor="middle" x="412" y="-13" font-family="Helvetica,sans-Serif" font-size="10.00">hpp/fcl/collision_data.h</text>
</g>
<!-- Node3&#45;&gt;Node8 -->
<g id="edge7" class="edge"><title>Node3&#45;&gt;Node8</title>
<path fill="none" stroke="midnightblue" d="M362.31,-67.4751C371.182,-58.3733 385.446,-43.741 396.42,-32.483"/>
<polygon fill="midnightblue" stroke="midnightblue" points="399.231,-34.613 403.705,-25.0091 394.219,-29.7268 399.231,-34.613"/>
</g>
<!-- Node9 -->
<g id="node9" class="node"><title>Node9</title>
<polygon fill="white" stroke="#bfbfbf" points="488.5,-6 488.5,-25 615.5,-25 615.5,-6 488.5,-6"/>
<text text-anchor="middle" x="552" y="-13" font-family="Helvetica,sans-Serif" font-size="10.00">pinocchio/spatial/fwd.hpp</text>
</g>
<!-- Node3&#45;&gt;Node9 -->
<g id="edge8" class="edge"><title>Node3&#45;&gt;Node9</title>
<path fill="none" stroke="midnightblue" d="M382.369,-67.4751C416.921,-57.092 475.424,-39.5116 513.885,-27.9538"/>
<polygon fill="midnightblue" stroke="midnightblue" points="515.114,-31.239 523.684,-25.0091 513.1,-24.5351 515.114,-31.239"/>
</g>
<!-- Node10 -->
<g id="node10" class="node"><title>Node10</title>
<polygon fill="white" stroke="#bfbfbf" points="633.5,-0.5 633.5,-30.5 736.5,-30.5 736.5,-0.5 633.5,-0.5"/>
<text text-anchor="start" x="641.5" y="-18.5" font-family="Helvetica,sans-Serif" font-size="10.00">pinocchio/multibody</text>
<text text-anchor="middle" x="685" y="-7.5" font-family="Helvetica,sans-Serif" font-size="10.00">/fwd.hpp</text>
</g>
<!-- Node3&#45;&gt;Node10 -->
<g id="edge9" class="edge"><title>Node3&#45;&gt;Node10</title>
<path fill="none" stroke="midnightblue" d="M408.716,-68.1068C461.353,-60.2452 543.388,-47.2924 623.126,-31.3037"/>
<polygon fill="midnightblue" stroke="midnightblue" points="624.236,-34.6502 633.343,-29.2357 622.847,-27.7894 624.236,-34.6502"/>
</g>
<!-- Node11 -->
<g id="node11" class="node"><title>Node11</title>
<polygon fill="white" stroke="#bfbfbf" points="754.5,-0.5 754.5,-30.5 857.5,-30.5 857.5,-0.5 754.5,-0.5"/>
<text text-anchor="start" x="762.5" y="-18.5" font-family="Helvetica,sans-Serif" font-size="10.00">pinocchio/multibody</text>
<text text-anchor="middle" x="806" y="-7.5" font-family="Helvetica,sans-Serif" font-size="10.00">/joint/fwd.hpp</text>
</g>
<!-- Node3&#45;&gt;Node11 -->
<g id="edge10" class="edge"><title>Node3&#45;&gt;Node11</title>
<path fill="none" stroke="midnightblue" d="M408.798,-68.1824C411.91,-67.7732 414.994,-67.3762 418,-67 560.249,-49.1959 599.779,-55.9529 744.25,-31.1772"/>
<polygon fill="midnightblue" stroke="midnightblue" points="745.123,-34.578 754.377,-29.4188 743.926,-27.6812 745.123,-34.578"/>
</g>
</g>
</svg>
