<?xml version="1.0" encoding="UTF-8" standalone="no"?>
<!DOCTYPE svg PUBLIC "-//W3C//DTD SVG 1.1//EN"
 "http://www.w3.org/Graphics/SVG/1.1/DTD/svg11.dtd">
<!-- Generated by graphviz version 2.38.0 (20140413.2041)
 -->
<!-- Title: joint&#45;collection.hh Pages: 1 -->
<svg width="1396pt" height="106pt"
 viewBox="0.00 0.00 1395.50 106.00" xmlns="http://www.w3.org/2000/svg" xmlns:xlink="http://www.w3.org/1999/xlink">
<g id="graph0" class="graph" transform="scale(1 1) rotate(0) translate(4 102)">
<title>joint&#45;collection.hh</title>
<polygon fill="white" stroke="none" points="-4,4 -4,-102 1391.5,-102 1391.5,4 -4,4"/>
<!-- Node1 -->
<g id="node1" class="node"><title>Node1</title>
<polygon fill="#bfbfbf" stroke="black" points="642,-78.5 642,-97.5 734,-97.5 734,-78.5 642,-78.5"/>
<text text-anchor="middle" x="688" y="-85.5" font-family="Helvetica,sans-Serif" font-size="10.00">joint&#45;collection.hh</text>
</g>
<!-- Node2 -->
<g id="node2" class="node"><title>Node2</title>
<polygon fill="white" stroke="#bfbfbf" points="0,-11.5 0,-30.5 92,-30.5 92,-11.5 0,-11.5"/>
<text text-anchor="middle" x="46" y="-18.5" font-family="Helvetica,sans-Serif" font-size="10.00">boost/variant.hpp</text>
</g>
<!-- Node1&#45;&gt;Node2 -->
<g id="edge1" class="edge"><title>Node1&#45;&gt;Node2</title>
<path fill="none" stroke="midnightblue" d="M641.722,-87.6939C541.782,-88.2719 298.815,-84.7093 101,-42 92.386,-40.1402 83.2955,-37.2448 75.0402,-34.2291"/>
<polygon fill="midnightblue" stroke="midnightblue" points="76.063,-30.8726 65.473,-30.5524 73.5518,-37.4067 76.063,-30.8726"/>
</g>
<!-- Node3 -->
<g id="node3" class="node"><title>Node3</title>
<polygon fill="white" stroke="#bfbfbf" points="110,-6 110,-36 226,-36 226,-6 110,-6"/>
<text text-anchor="start" x="118" y="-24" font-family="Helvetica,sans-Serif" font-size="10.00">boost/variant/recursive</text>
<text text-anchor="middle" x="168" y="-13" font-family="Helvetica,sans-Serif" font-size="10.00">_wrapper.hpp</text>
</g>
<!-- Node1&#45;&gt;Node3 -->
<g id="edge2" class="edge"><title>Node1&#45;&gt;Node3</title>
<path fill="none" stroke="midnightblue" d="M641.924,-85.3293C559.561,-81.7 381.942,-70.9538 235,-42 230.262,-41.0664 225.379,-39.94 220.509,-38.7033"/>
<polygon fill="midnightblue" stroke="midnightblue" points="221.152,-35.2518 210.586,-36.0362 219.335,-42.0119 221.152,-35.2518"/>
</g>
<!-- Node4 -->
<g id="node4" class="node"><title>Node4</title>
<polygon fill="white" stroke="#bfbfbf" points="244.5,-6 244.5,-36 347.5,-36 347.5,-6 244.5,-6"/>
<text text-anchor="start" x="252.5" y="-24" font-family="Helvetica,sans-Serif" font-size="10.00">pinocchio/multibody</text>
<text text-anchor="middle" x="296" y="-13" font-family="Helvetica,sans-Serif" font-size="10.00">/joint/fwd.hpp</text>
</g>
<!-- Node1&#45;&gt;Node4 -->
<g id="edge3" class="edge"><title>Node1&#45;&gt;Node4</title>
<path fill="none" stroke="midnightblue" d="M641.861,-83.4907C577.284,-77.9599 456.567,-65.3601 356,-42 352.198,-41.1169 348.295,-40.0934 344.393,-38.9856"/>
<polygon fill="midnightblue" stroke="midnightblue" points="345.334,-35.6141 334.75,-36.0899 343.321,-42.3183 345.334,-35.6141"/>
</g>
<!-- Node5 -->
<g id="node5" class="node"><title>Node5</title>
<polygon fill="white" stroke="#bfbfbf" points="365.5,-6 365.5,-36 484.5,-36 484.5,-6 365.5,-6"/>
<text text-anchor="start" x="373.5" y="-24" font-family="Helvetica,sans-Serif" font-size="10.00">pinocchio/multibody</text>
<text text-anchor="middle" x="425" y="-13" font-family="Helvetica,sans-Serif" font-size="10.00">/joint/joint&#45;free&#45;flyer.hpp</text>
</g>
<!-- Node1&#45;&gt;Node5 -->
<g id="edge4" class="edge"><title>Node1&#45;&gt;Node5</title>
<path fill="none" stroke="midnightblue" d="M647.869,-78.4676C608.326,-69.8889 546.269,-55.9669 493,-42 489.159,-40.993 485.207,-39.9221 481.231,-38.8195"/>
<polygon fill="midnightblue" stroke="midnightblue" points="481.928,-35.3794 471.353,-36.0314 480.026,-42.1162 481.928,-35.3794"/>
</g>
<!-- Node6 -->
<g id="node6" class="node"><title>Node6</title>
<polygon fill="white" stroke="#bfbfbf" points="502.5,-6 502.5,-36 609.5,-36 609.5,-6 502.5,-6"/>
<text text-anchor="start" x="510.5" y="-24" font-family="Helvetica,sans-Serif" font-size="10.00">pinocchio/multibody</text>
<text text-anchor="middle" x="556" y="-13" font-family="Helvetica,sans-Serif" font-size="10.00">/joint/joint&#45;planar.hpp</text>
</g>
<!-- Node1&#45;&gt;Node6 -->
<g id="edge5" class="edge"><title>Node1&#45;&gt;Node6</title>
<path fill="none" stroke="midnightblue" d="M670.471,-78.3685C651.07,-68.8145 619.213,-53.1274 594.025,-40.7246"/>
<polygon fill="midnightblue" stroke="midnightblue" points="595.256,-37.4294 584.739,-36.1516 592.164,-43.7093 595.256,-37.4294"/>
</g>
<!-- Node7 -->
<g id="node7" class="node"><title>Node7</title>
<polygon fill="white" stroke="#bfbfbf" points="628,-6 628,-36 748,-36 748,-6 628,-6"/>
<text text-anchor="start" x="636" y="-24" font-family="Helvetica,sans-Serif" font-size="10.00">pinocchio/multibody</text>
<text text-anchor="middle" x="688" y="-13" font-family="Helvetica,sans-Serif" font-size="10.00">/joint/joint&#45;prismatic.hpp</text>
</g>
<!-- Node1&#45;&gt;Node7 -->
<g id="edge6" class="edge"><title>Node1&#45;&gt;Node7</title>
<path fill="none" stroke="midnightblue" d="M688,-78.2338C688,-70.0406 688,-57.4225 688,-46.2136"/>
<polygon fill="midnightblue" stroke="midnightblue" points="691.5,-46.089 688,-36.089 684.5,-46.0891 691.5,-46.089"/>
</g>
<!-- Node8 -->
<g id="node8" class="node"><title>Node8</title>
<polygon fill="white" stroke="#bfbfbf" points="766.5,-0.5 766.5,-41.5 869.5,-41.5 869.5,-0.5 766.5,-0.5"/>
<text text-anchor="start" x="774.5" y="-29.5" font-family="Helvetica,sans-Serif" font-size="10.00">pinocchio/multibody</text>
<text text-anchor="start" x="774.5" y="-18.5" font-family="Helvetica,sans-Serif" font-size="10.00">/joint/joint&#45;revolute</text>
<text text-anchor="middle" x="818" y="-7.5" font-family="Helvetica,sans-Serif" font-size="10.00">&#45;unaligned.hpp</text>
</g>
<!-- Node1&#45;&gt;Node8 -->
<g id="edge7" class="edge"><title>Node1&#45;&gt;Node8</title>
<path fill="none" stroke="midnightblue" d="M705.263,-78.3685C721.653,-70.1735 747.068,-57.466 769.621,-46.1894"/>
<polygon fill="midnightblue" stroke="midnightblue" points="771.37,-49.2281 778.749,-41.6254 768.24,-42.9671 771.37,-49.2281"/>
</g>
<!-- Node9 -->
<g id="node9" class="node"><title>Node9</title>
<polygon fill="white" stroke="#bfbfbf" points="887.5,-0.5 887.5,-41.5 990.5,-41.5 990.5,-0.5 887.5,-0.5"/>
<text text-anchor="start" x="895.5" y="-29.5" font-family="Helvetica,sans-Serif" font-size="10.00">pinocchio/multibody</text>
<text text-anchor="start" x="895.5" y="-18.5" font-family="Helvetica,sans-Serif" font-size="10.00">/joint/joint&#45;prismatic</text>
<text text-anchor="middle" x="939" y="-7.5" font-family="Helvetica,sans-Serif" font-size="10.00">&#45;unaligned.hpp</text>
</g>
<!-- Node1&#45;&gt;Node9 -->
<g id="edge8" class="edge"><title>Node1&#45;&gt;Node9</title>
<path fill="none" stroke="midnightblue" d="M728.887,-78.4882C765.624,-70.591 821.215,-58.0274 877.593,-42.2969"/>
<polygon fill="midnightblue" stroke="midnightblue" points="878.707,-45.6191 887.381,-39.5353 876.807,-38.882 878.707,-45.6191"/>
</g>
<!-- Node10 -->
<g id="node10" class="node"><title>Node10</title>
<polygon fill="white" stroke="#bfbfbf" points="1008.5,-6 1008.5,-36 1123.5,-36 1123.5,-6 1008.5,-6"/>
<text text-anchor="start" x="1016.5" y="-24" font-family="Helvetica,sans-Serif" font-size="10.00">pinocchio/multibody</text>
<text text-anchor="middle" x="1066" y="-13" font-family="Helvetica,sans-Serif" font-size="10.00">/joint/joint&#45;revolute.hpp</text>
</g>
<!-- Node1&#45;&gt;Node10 -->
<g id="edge9" class="edge"><title>Node1&#45;&gt;Node10</title>
<path fill="none" stroke="midnightblue" d="M734.123,-82.55C795.359,-76.1417 906.643,-62.7528 1000,-42 1004.32,-41.0387 1008.78,-39.9375 1013.23,-38.7569"/>
<polygon fill="midnightblue" stroke="midnightblue" points="1014.23,-42.1116 1022.94,-36.0691 1012.36,-35.3656 1014.23,-42.1116"/>
</g>
<!-- Node11 -->
<g id="node11" class="node"><title>Node11</title>
<polygon fill="white" stroke="#bfbfbf" points="1141.5,-0.5 1141.5,-41.5 1244.5,-41.5 1244.5,-0.5 1141.5,-0.5"/>
<text text-anchor="start" x="1149.5" y="-29.5" font-family="Helvetica,sans-Serif" font-size="10.00">pinocchio/multibody</text>
<text text-anchor="start" x="1149.5" y="-18.5" font-family="Helvetica,sans-Serif" font-size="10.00">/joint/joint&#45;revolute</text>
<text text-anchor="middle" x="1193" y="-7.5" font-family="Helvetica,sans-Serif" font-size="10.00">&#45;unbounded.hpp</text>
</g>
<!-- Node1&#45;&gt;Node11 -->
<g id="edge10" class="edge"><title>Node1&#45;&gt;Node11</title>
<path fill="none" stroke="midnightblue" d="M734.001,-85.6904C813.589,-82.7022 982.062,-73.1959 1131.66,-42.0559"/>
<polygon fill="midnightblue" stroke="midnightblue" points="1132.43,-45.4708 1141.49,-39.9733 1130.98,-38.6229 1132.43,-45.4708"/>
</g>
<!-- Node12 -->
<g id="node12" class="node"><title>Node12</title>
<polygon fill="white" stroke="#bfbfbf" points="1262.5,-6 1262.5,-36 1387.5,-36 1387.5,-6 1262.5,-6"/>
<text text-anchor="start" x="1270.5" y="-24" font-family="Helvetica,sans-Serif" font-size="10.00">pinocchio/multibody</text>
<text text-anchor="middle" x="1325" y="-13" font-family="Helvetica,sans-Serif" font-size="10.00">/joint/joint&#45;translation.hpp</text>
</g>
<!-- Node1&#45;&gt;Node12 -->
<g id="edge11" class="edge"><title>Node1&#45;&gt;Node12</title>
<path fill="none" stroke="midnightblue" d="M734.242,-86.3707C831.304,-84.384 1063.08,-76.1409 1254,-42 1259.36,-41.0419 1264.89,-39.8507 1270.4,-38.5302"/>
<polygon fill="midnightblue" stroke="midnightblue" points="1271.4,-41.8866 1280.24,-36.0361 1269.68,-35.1014 1271.4,-41.8866"/>
</g>
</g>
</svg>
