<?xml version="1.0" encoding="UTF-8" standalone="no"?>
<!DOCTYPE svg PUBLIC "-//W3C//DTD SVG 1.1//EN"
 "http://www.w3.org/Graphics/SVG/1.1/DTD/svg11.dtd">
<!-- Generated by graphviz version 2.38.0 (20140413.2041)
 -->
<!-- Title: special&#45;orthogonal.hh Pages: 1 -->
<svg width="117pt" height="196pt"
 viewBox="0.00 0.00 117.00 196.00" xmlns="http://www.w3.org/2000/svg" xmlns:xlink="http://www.w3.org/1999/xlink">
<g id="graph0" class="graph" transform="scale(1 1) rotate(0) translate(4 192)">
<title>special&#45;orthogonal.hh</title>
<polygon fill="white" stroke="none" points="-4,4 -4,-192 113,-192 113,4 -4,4"/>
<!-- Node1 -->
<g id="node1" class="node"><title>Node1</title>
<polygon fill="#bfbfbf" stroke="black" points="0,-168.5 0,-187.5 109,-187.5 109,-168.5 0,-168.5"/>
<text text-anchor="middle" x="54.5" y="-175.5" font-family="Helvetica,sans-Serif" font-size="10.00">special&#45;orthogonal.hh</text>
</g>
<!-- Node2 -->
<g id="node2" class="node"><title>Node2</title>
<g id="a_node2"><a xlink:href="a00105.html" target="_top" xlink:title="liegroup.hh">
<polygon fill="white" stroke="black" points="22.5,-112.5 22.5,-131.5 86.5,-131.5 86.5,-112.5 22.5,-112.5"/>
<text text-anchor="middle" x="54.5" y="-119.5" font-family="Helvetica,sans-Serif" font-size="10.00">liegroup.hh</text>
</a>
</g>
</g>
<!-- Node1&#45;&gt;Node2 -->
<g id="edge1" class="edge"><title>Node1&#45;&gt;Node2</title>
<path fill="none" stroke="midnightblue" d="M54.5,-157.805C54.5,-148.91 54.5,-138.78 54.5,-131.751"/>
<polygon fill="midnightblue" stroke="midnightblue" points="51.0001,-158.083 54.5,-168.083 58.0001,-158.083 51.0001,-158.083"/>
</g>
<!-- Node3 -->
<g id="node3" class="node"><title>Node3</title>
<g id="a_node3"><a xlink:href="a00104.html" target="_top" xlink:title="liegroup&#45;space.hh">
<polygon fill="white" stroke="black" points="8,-56.5 8,-75.5 101,-75.5 101,-56.5 8,-56.5"/>
<text text-anchor="middle" x="54.5" y="-63.5" font-family="Helvetica,sans-Serif" font-size="10.00">liegroup&#45;space.hh</text>
</a>
</g>
</g>
<!-- Node2&#45;&gt;Node3 -->
<g id="edge2" class="edge"><title>Node2&#45;&gt;Node3</title>
<path fill="none" stroke="midnightblue" d="M54.5,-101.805C54.5,-92.9102 54.5,-82.7798 54.5,-75.7511"/>
<polygon fill="midnightblue" stroke="midnightblue" points="51.0001,-102.083 54.5,-112.083 58.0001,-102.083 51.0001,-102.083"/>
</g>
<!-- Node4 -->
<g id="node4" class="node"><title>Node4</title>
<g id="a_node4"><a xlink:href="a00103.html" target="_top" xlink:title="liegroup&#45;element.hh">
<polygon fill="white" stroke="black" points="4,-0.5 4,-19.5 105,-19.5 105,-0.5 4,-0.5"/>
<text text-anchor="middle" x="54.5" y="-7.5" font-family="Helvetica,sans-Serif" font-size="10.00">liegroup&#45;element.hh</text>
</a>
</g>
</g>
<!-- Node3&#45;&gt;Node4 -->
<g id="edge3" class="edge"><title>Node3&#45;&gt;Node4</title>
<path fill="none" stroke="midnightblue" d="M54.5,-45.8045C54.5,-36.9102 54.5,-26.7798 54.5,-19.7511"/>
<polygon fill="midnightblue" stroke="midnightblue" points="51.0001,-46.083 54.5,-56.083 58.0001,-46.083 51.0001,-46.083"/>
</g>
</g>
</svg>
