<?xml version="1.0" encoding="UTF-8" standalone="no"?>
<!DOCTYPE svg PUBLIC "-//W3C//DTD SVG 1.1//EN"
 "http://www.w3.org/Graphics/SVG/1.1/DTD/svg11.dtd">
<!-- Generated by graphviz version 2.38.0 (20140413.2041)
 -->
<!-- Title: liegroup.hh Pages: 1 -->
<svg width="109pt" height="140pt"
 viewBox="0.00 0.00 109.00 140.00" xmlns="http://www.w3.org/2000/svg" xmlns:xlink="http://www.w3.org/1999/xlink">
<g id="graph0" class="graph" transform="scale(1 1) rotate(0) translate(4 136)">
<title>liegroup.hh</title>
<polygon fill="white" stroke="none" points="-4,4 -4,-136 105,-136 105,4 -4,4"/>
<!-- Node1 -->
<g id="node1" class="node"><title>Node1</title>
<polygon fill="#bfbfbf" stroke="black" points="18.5,-112.5 18.5,-131.5 82.5,-131.5 82.5,-112.5 18.5,-112.5"/>
<text text-anchor="middle" x="50.5" y="-119.5" font-family="Helvetica,sans-Serif" font-size="10.00">liegroup.hh</text>
</g>
<!-- Node2 -->
<g id="node2" class="node"><title>Node2</title>
<g id="a_node2"><a xlink:href="a00104.html" target="_top" xlink:title="liegroup&#45;space.hh">
<polygon fill="white" stroke="black" points="4,-56.5 4,-75.5 97,-75.5 97,-56.5 4,-56.5"/>
<text text-anchor="middle" x="50.5" y="-63.5" font-family="Helvetica,sans-Serif" font-size="10.00">liegroup&#45;space.hh</text>
</a>
</g>
</g>
<!-- Node1&#45;&gt;Node2 -->
<g id="edge1" class="edge"><title>Node1&#45;&gt;Node2</title>
<path fill="none" stroke="midnightblue" d="M50.5,-101.805C50.5,-92.9102 50.5,-82.7798 50.5,-75.7511"/>
<polygon fill="midnightblue" stroke="midnightblue" points="47.0001,-102.083 50.5,-112.083 54.0001,-102.083 47.0001,-102.083"/>
</g>
<!-- Node3 -->
<g id="node3" class="node"><title>Node3</title>
<g id="a_node3"><a xlink:href="a00103.html" target="_top" xlink:title="liegroup&#45;element.hh">
<polygon fill="white" stroke="black" points="0,-0.5 0,-19.5 101,-19.5 101,-0.5 0,-0.5"/>
<text text-anchor="middle" x="50.5" y="-7.5" font-family="Helvetica,sans-Serif" font-size="10.00">liegroup&#45;element.hh</text>
</a>
</g>
</g>
<!-- Node2&#45;&gt;Node3 -->
<g id="edge2" class="edge"><title>Node2&#45;&gt;Node3</title>
<path fill="none" stroke="midnightblue" d="M50.5,-45.8045C50.5,-36.9102 50.5,-26.7798 50.5,-19.7511"/>
<polygon fill="midnightblue" stroke="midnightblue" points="47.0001,-46.083 50.5,-56.083 54.0001,-46.083 47.0001,-46.083"/>
</g>
</g>
</svg>
