<?xml version="1.0" encoding="UTF-8" standalone="no"?>
<!DOCTYPE svg PUBLIC "-//W3C//DTD SVG 1.1//EN"
 "http://www.w3.org/Graphics/SVG/1.1/DTD/svg11.dtd">
<!-- Generated by graphviz version 2.38.0 (20140413.2041)
 -->
<!-- Title: liegroup&#45;element.hh Pages: 1 -->
<svg width="1142pt" height="363pt"
 viewBox="0.00 0.00 1141.62 363.00" xmlns="http://www.w3.org/2000/svg" xmlns:xlink="http://www.w3.org/1999/xlink">
<g id="graph0" class="graph" transform="scale(1 1) rotate(0) translate(4 359)">
<title>liegroup&#45;element.hh</title>
<polygon fill="white" stroke="none" points="-4,4 -4,-359 1137.62,-359 1137.62,4 -4,4"/>
<!-- Node1 -->
<g id="node1" class="node"><title>Node1</title>
<polygon fill="#bfbfbf" stroke="black" points="336.12,-335.5 336.12,-354.5 437.12,-354.5 437.12,-335.5 336.12,-335.5"/>
<text text-anchor="middle" x="386.62" y="-342.5" font-family="Helvetica,sans-Serif" font-size="10.00">liegroup&#45;element.hh</text>
</g>
<!-- Node2 -->
<g id="node2" class="node"><title>Node2</title>
<g id="a_node2"><a xlink:href="a00104.html" target="_top" xlink:title="hpp/pinocchio/liegroup\l&#45;space.hh">
<polygon fill="white" stroke="black" points="522.12,-268.5 522.12,-298.5 635.12,-298.5 635.12,-268.5 522.12,-268.5"/>
<text text-anchor="start" x="530.12" y="-286.5" font-family="Helvetica,sans-Serif" font-size="10.00">hpp/pinocchio/liegroup</text>
<text text-anchor="middle" x="578.62" y="-275.5" font-family="Helvetica,sans-Serif" font-size="10.00">&#45;space.hh</text>
</a>
</g>
</g>
<!-- Node1&#45;&gt;Node2 -->
<g id="edge1" class="edge"><title>Node1&#45;&gt;Node2</title>
<path fill="none" stroke="midnightblue" d="M414.129,-335.475C442.562,-326.664 487.723,-312.668 523.537,-301.57"/>
<polygon fill="midnightblue" stroke="midnightblue" points="524.853,-304.826 533.369,-298.523 522.781,-298.14 524.853,-304.826"/>
</g>
<!-- Node12 -->
<g id="node12" class="node"><title>Node12</title>
<polygon fill="white" stroke="#bfbfbf" points="16.1196,-151 16.1196,-170 157.12,-170 157.12,-151 16.1196,-151"/>
<text text-anchor="middle" x="86.6196" y="-158" font-family="Helvetica,sans-Serif" font-size="10.00">hpp/pinocchio/deprecated.hh</text>
</g>
<!-- Node1&#45;&gt;Node12 -->
<g id="edge32" class="edge"><title>Node1&#45;&gt;Node12</title>
<path fill="none" stroke="midnightblue" d="M372.552,-335.442C324.72,-306.344 168.071,-211.05 109.229,-175.254"/>
<polygon fill="midnightblue" stroke="midnightblue" points="111.019,-172.246 100.656,-170.039 107.381,-178.226 111.019,-172.246"/>
</g>
<!-- Node3 -->
<g id="node3" class="node"><title>Node3</title>
<polygon fill="white" stroke="#bfbfbf" points="1089.62,-6 1089.62,-25 1133.62,-25 1133.62,-6 1089.62,-6"/>
<text text-anchor="middle" x="1111.62" y="-13" font-family="Helvetica,sans-Serif" font-size="10.00">vector</text>
</g>
<!-- Node2&#45;&gt;Node3 -->
<g id="edge2" class="edge"><title>Node2&#45;&gt;Node3</title>
<path fill="none" stroke="midnightblue" d="M635.212,-278.265C688.86,-272.687 770.807,-260.056 836.62,-232 950.94,-183.266 1058.42,-74.5044 1096.78,-33.0148"/>
<polygon fill="midnightblue" stroke="midnightblue" points="1099.54,-35.1818 1103.7,-25.4392 1094.37,-30.4592 1099.54,-35.1818"/>
</g>
<!-- Node4 -->
<g id="node4" class="node"><title>Node4</title>
<polygon fill="white" stroke="#bfbfbf" points="515.12,-212.5 515.12,-231.5 556.12,-231.5 556.12,-212.5 515.12,-212.5"/>
<text text-anchor="middle" x="535.62" y="-219.5" font-family="Helvetica,sans-Serif" font-size="10.00">string</text>
</g>
<!-- Node2&#45;&gt;Node4 -->
<g id="edge3" class="edge"><title>Node2&#45;&gt;Node4</title>
<path fill="none" stroke="midnightblue" d="M568.429,-268.399C562.245,-259.842 554.316,-248.871 547.802,-239.857"/>
<polygon fill="midnightblue" stroke="midnightblue" points="550.571,-237.713 541.876,-231.658 544.897,-241.813 550.571,-237.713"/>
</g>
<!-- Node5 -->
<g id="node5" class="node"><title>Node5</title>
<polygon fill="white" stroke="#bfbfbf" points="574.12,-212.5 574.12,-231.5 669.12,-231.5 669.12,-212.5 574.12,-212.5"/>
<text text-anchor="middle" x="621.62" y="-219.5" font-family="Helvetica,sans-Serif" font-size="10.00">pinocchio/fwd.hpp</text>
</g>
<!-- Node2&#45;&gt;Node5 -->
<g id="edge4" class="edge"><title>Node2&#45;&gt;Node5</title>
<path fill="none" stroke="midnightblue" d="M588.81,-268.399C594.994,-259.842 602.923,-248.871 609.437,-239.857"/>
<polygon fill="midnightblue" stroke="midnightblue" points="612.342,-241.813 615.363,-231.658 606.669,-237.713 612.342,-241.813"/>
</g>
<!-- Node6 -->
<g id="node6" class="node"><title>Node6</title>
<polygon fill="white" stroke="#bfbfbf" points="687.62,-212.5 687.62,-231.5 779.62,-231.5 779.62,-212.5 687.62,-212.5"/>
<text text-anchor="middle" x="733.62" y="-219.5" font-family="Helvetica,sans-Serif" font-size="10.00">boost/variant.hpp</text>
</g>
<!-- Node2&#45;&gt;Node6 -->
<g id="edge5" class="edge"><title>Node2&#45;&gt;Node6</title>
<path fill="none" stroke="midnightblue" d="M615.352,-268.399C641.591,-258.327 676.545,-244.909 701.638,-235.277"/>
<polygon fill="midnightblue" stroke="midnightblue" points="702.984,-238.509 711.066,-231.658 700.476,-231.974 702.984,-238.509"/>
</g>
<!-- Node7 -->
<g id="node7" class="node"><title>Node7</title>
<polygon fill="white" stroke="#bfbfbf" points="344.62,-73 344.62,-103 494.62,-103 494.62,-73 344.62,-73"/>
<text text-anchor="start" x="352.62" y="-91" font-family="Helvetica,sans-Serif" font-size="10.00">pinocchio/multibody</text>
<text text-anchor="middle" x="419.62" y="-80" font-family="Helvetica,sans-Serif" font-size="10.00">/liegroup/special&#45;euclidean.hpp</text>
</g>
<!-- Node2&#45;&gt;Node7 -->
<g id="edge6" class="edge"><title>Node2&#45;&gt;Node7</title>
<path fill="none" stroke="midnightblue" d="M551.222,-268.419C536.194,-259.597 518.131,-247.051 505.62,-232 478.532,-199.414 489.122,-180.905 466.62,-145 459.067,-132.949 449.122,-120.72 440.326,-110.776"/>
<polygon fill="midnightblue" stroke="midnightblue" points="442.894,-108.398 433.585,-103.339 437.708,-113.099 442.894,-108.398"/>
</g>
<!-- Node8 -->
<g id="node8" class="node"><title>Node8</title>
<polygon fill="white" stroke="#bfbfbf" points="22.6196,-73 22.6196,-103 176.62,-103 176.62,-73 22.6196,-73"/>
<text text-anchor="start" x="30.6196" y="-91" font-family="Helvetica,sans-Serif" font-size="10.00">pinocchio/multibody</text>
<text text-anchor="middle" x="99.6196" y="-80" font-family="Helvetica,sans-Serif" font-size="10.00">/liegroup/special&#45;orthogonal.hpp</text>
</g>
<!-- Node2&#45;&gt;Node8 -->
<g id="edge7" class="edge"><title>Node2&#45;&gt;Node8</title>
<path fill="none" stroke="midnightblue" d="M521.708,-280.757C390.266,-275.412 71.8244,-254.466 6.61959,-176 -14.886,-150.121 22.0472,-124.264 55.5364,-107.549"/>
<polygon fill="midnightblue" stroke="midnightblue" points="57.3381,-110.566 64.8394,-103.084 54.3094,-104.255 57.3381,-110.566"/>
</g>
<!-- Node9 -->
<g id="node9" class="node"><title>Node9</title>
<polygon fill="white" stroke="#bfbfbf" points="872.12,-73 872.12,-103 1003.12,-103 1003.12,-73 872.12,-73"/>
<text text-anchor="start" x="880.12" y="-91" font-family="Helvetica,sans-Serif" font-size="10.00">pinocchio/multibody</text>
<text text-anchor="middle" x="937.62" y="-80" font-family="Helvetica,sans-Serif" font-size="10.00">/liegroup/vector&#45;space.hpp</text>
</g>
<!-- Node2&#45;&gt;Node9 -->
<g id="edge8" class="edge"><title>Node2&#45;&gt;Node9</title>
<path fill="none" stroke="midnightblue" d="M635.537,-279.683C684.351,-275.095 755.071,-263.122 808.62,-232 860.451,-201.876 902.959,-143.8 923.777,-111.705"/>
<polygon fill="midnightblue" stroke="midnightblue" points="926.892,-113.33 929.297,-103.012 920.982,-109.578 926.892,-113.33"/>
</g>
<!-- Node10 -->
<g id="node10" class="node"><title>Node10</title>
<g id="a_node10"><a xlink:href="a00105.html" target="_top" xlink:title="hpp/pinocchio/liegroup.hh">
<polygon fill="white" stroke="black" points="331.12,-212.5 331.12,-231.5 458.12,-231.5 458.12,-212.5 331.12,-212.5"/>
<text text-anchor="middle" x="394.62" y="-219.5" font-family="Helvetica,sans-Serif" font-size="10.00">hpp/pinocchio/liegroup.hh</text>
</a>
</g>
</g>
<!-- Node2&#45;&gt;Node10 -->
<g id="edge9" class="edge"><title>Node2&#45;&gt;Node10</title>
<path fill="none" stroke="midnightblue" d="M535.014,-268.399C503.22,-258.118 460.645,-244.351 430.745,-234.682"/>
<polygon fill="midnightblue" stroke="midnightblue" points="431.716,-231.318 421.125,-231.571 429.563,-237.978 431.716,-231.318"/>
</g>
<!-- Node15 -->
<g id="node15" class="node"><title>Node15</title>
<g id="a_node15"><a xlink:href="a00098.html" target="_top" xlink:title="hpp/pinocchio/fwd.hh">
<polygon fill="white" stroke="black" points="745.12,-78.5 745.12,-97.5 854.12,-97.5 854.12,-78.5 745.12,-78.5"/>
<text text-anchor="middle" x="799.62" y="-85.5" font-family="Helvetica,sans-Serif" font-size="10.00">hpp/pinocchio/fwd.hh</text>
</a>
</g>
</g>
<!-- Node2&#45;&gt;Node15 -->
<g id="edge31" class="edge"><title>Node2&#45;&gt;Node15</title>
<path fill="none" stroke="midnightblue" d="M635.311,-276.357C690.543,-269.112 768.979,-255.046 788.62,-232 818.551,-196.879 810.911,-137.666 804.411,-107.649"/>
<polygon fill="midnightblue" stroke="midnightblue" points="807.763,-106.612 802.057,-97.6851 800.95,-108.222 807.763,-106.612"/>
</g>
<!-- Node11 -->
<g id="node11" class="node"><title>Node11</title>
<polygon fill="white" stroke="#bfbfbf" points="273.12,-0.5 273.12,-30.5 376.12,-30.5 376.12,-0.5 273.12,-0.5"/>
<text text-anchor="start" x="281.12" y="-18.5" font-family="Helvetica,sans-Serif" font-size="10.00">pinocchio/multibody</text>
<text text-anchor="middle" x="324.62" y="-7.5" font-family="Helvetica,sans-Serif" font-size="10.00">/joint/fwd.hpp</text>
</g>
<!-- Node10&#45;&gt;Node11 -->
<g id="edge10" class="edge"><title>Node10&#45;&gt;Node11</title>
<path fill="none" stroke="midnightblue" d="M376.241,-212.387C362.474,-204.867 344.538,-192.559 335.62,-176 312.443,-132.967 315.946,-73.6666 320.391,-40.8402"/>
<polygon fill="midnightblue" stroke="midnightblue" points="323.878,-41.1926 321.898,-30.7844 316.955,-40.1555 323.878,-41.1926"/>
</g>
<!-- Node10&#45;&gt;Node12 -->
<g id="edge11" class="edge"><title>Node10&#45;&gt;Node12</title>
<path fill="none" stroke="midnightblue" d="M350.491,-212.475C295.142,-201.783 200.284,-183.458 140.648,-171.937"/>
<polygon fill="midnightblue" stroke="midnightblue" points="141.149,-168.469 130.667,-170.009 139.821,-175.342 141.149,-168.469"/>
</g>
<!-- Node13 -->
<g id="node13" class="node"><title>Node13</title>
<g id="a_node13"><a xlink:href="a00114.html" target="_top" xlink:title="hpp/pinocchio/liegroup\l/vector&#45;space.hh">
<polygon fill="white" stroke="black" points="656.12,-145.5 656.12,-175.5 769.12,-175.5 769.12,-145.5 656.12,-145.5"/>
<text text-anchor="start" x="664.12" y="-163.5" font-family="Helvetica,sans-Serif" font-size="10.00">hpp/pinocchio/liegroup</text>
<text text-anchor="middle" x="712.62" y="-152.5" font-family="Helvetica,sans-Serif" font-size="10.00">/vector&#45;space.hh</text>
</a>
</g>
</g>
<!-- Node10&#45;&gt;Node13 -->
<g id="edge12" class="edge"><title>Node10&#45;&gt;Node13</title>
<path fill="none" stroke="midnightblue" d="M441.025,-212.438C489.749,-203.432 568.587,-188.815 636.62,-176 639.625,-175.434 642.696,-174.854 645.799,-174.267"/>
<polygon fill="midnightblue" stroke="midnightblue" points="646.597,-177.678 655.77,-172.376 645.293,-170.801 646.597,-177.678"/>
</g>
<!-- Node22 -->
<g id="node22" class="node"><title>Node22</title>
<g id="a_node22"><a xlink:href="a00089.html" target="_top" xlink:title="hpp/pinocchio/liegroup\l/cartesian&#45;product.hh">
<polygon fill="white" stroke="black" points="515.12,-145.5 515.12,-175.5 628.12,-175.5 628.12,-145.5 515.12,-145.5"/>
<text text-anchor="start" x="523.12" y="-163.5" font-family="Helvetica,sans-Serif" font-size="10.00">hpp/pinocchio/liegroup</text>
<text text-anchor="middle" x="571.62" y="-152.5" font-family="Helvetica,sans-Serif" font-size="10.00">/cartesian&#45;product.hh</text>
</a>
</g>
</g>
<!-- Node10&#45;&gt;Node22 -->
<g id="edge24" class="edge"><title>Node10&#45;&gt;Node22</title>
<path fill="none" stroke="midnightblue" d="M419.979,-212.475C446.08,-203.701 487.469,-189.788 520.417,-178.712"/>
<polygon fill="midnightblue" stroke="midnightblue" points="521.541,-182.027 529.904,-175.523 519.31,-175.392 521.541,-182.027"/>
</g>
<!-- Node24 -->
<g id="node24" class="node"><title>Node24</title>
<g id="a_node24"><a xlink:href="a00111.html" target="_top" xlink:title="hpp/pinocchio/liegroup\l/special&#45;orthogonal.hh">
<polygon fill="white" stroke="black" points="175.12,-145.5 175.12,-175.5 288.12,-175.5 288.12,-145.5 175.12,-145.5"/>
<text text-anchor="start" x="183.12" y="-163.5" font-family="Helvetica,sans-Serif" font-size="10.00">hpp/pinocchio/liegroup</text>
<text text-anchor="middle" x="231.62" y="-152.5" font-family="Helvetica,sans-Serif" font-size="10.00">/special&#45;orthogonal.hh</text>
</a>
</g>
</g>
<!-- Node10&#45;&gt;Node24 -->
<g id="edge27" class="edge"><title>Node10&#45;&gt;Node24</title>
<path fill="none" stroke="midnightblue" d="M371.266,-212.475C347.436,-203.776 309.768,-190.026 279.556,-178.998"/>
<polygon fill="midnightblue" stroke="midnightblue" points="280.629,-175.664 270.035,-175.523 278.229,-182.24 280.629,-175.664"/>
</g>
<!-- Node25 -->
<g id="node25" class="node"><title>Node25</title>
<g id="a_node25"><a xlink:href="a00110.html" target="_top" xlink:title="hpp/pinocchio/liegroup\l/special&#45;euclidean.hh">
<polygon fill="white" stroke="black" points="345.12,-145.5 345.12,-175.5 458.12,-175.5 458.12,-145.5 345.12,-145.5"/>
<text text-anchor="start" x="353.12" y="-163.5" font-family="Helvetica,sans-Serif" font-size="10.00">hpp/pinocchio/liegroup</text>
<text text-anchor="middle" x="401.62" y="-152.5" font-family="Helvetica,sans-Serif" font-size="10.00">/special&#45;euclidean.hh</text>
</a>
</g>
</g>
<!-- Node10&#45;&gt;Node25 -->
<g id="edge29" class="edge"><title>Node10&#45;&gt;Node25</title>
<path fill="none" stroke="midnightblue" d="M395.623,-212.475C396.447,-205.471 397.656,-195.192 398.773,-185.696"/>
<polygon fill="midnightblue" stroke="midnightblue" points="402.277,-185.863 399.97,-175.523 395.325,-185.046 402.277,-185.863"/>
</g>
<!-- Node13&#45;&gt;Node9 -->
<g id="edge13" class="edge"><title>Node13&#45;&gt;Node9</title>
<path fill="none" stroke="midnightblue" d="M757.341,-145.487C793.341,-134.207 844.102,-118.302 882.592,-106.242"/>
<polygon fill="midnightblue" stroke="midnightblue" points="884.102,-109.437 892.598,-103.107 882.009,-102.757 884.102,-109.437"/>
</g>
<!-- Node14 -->
<g id="node14" class="node"><title>Node14</title>
<g id="a_node14"><a doxygen="/local/devel/hpp/install/share/doc/hpp-util/doxygen-html/hpp-util.doxytag:../../hpp-util/doxygen-html/" xlink:href="../../hpp-util/doxygen-html/a00020.html" target="_top" xlink:title="hpp/util/exception\l&#45;factory.hh">
<polygon fill="white" stroke="black" points="634.12,-73 634.12,-103 727.12,-103 727.12,-73 634.12,-73"/>
<text text-anchor="start" x="642.12" y="-91" font-family="Helvetica,sans-Serif" font-size="10.00">hpp/util/exception</text>
<text text-anchor="middle" x="680.62" y="-80" font-family="Helvetica,sans-Serif" font-size="10.00">&#45;factory.hh</text>
</a>
</g>
</g>
<!-- Node13&#45;&gt;Node14 -->
<g id="edge14" class="edge"><title>Node13&#45;&gt;Node14</title>
<path fill="none" stroke="midnightblue" d="M706.144,-145.233C701.893,-135.869 696.233,-123.397 691.322,-112.579"/>
<polygon fill="midnightblue" stroke="midnightblue" points="694.406,-110.905 687.086,-103.246 688.032,-113.798 694.406,-110.905"/>
</g>
<!-- Node13&#45;&gt;Node15 -->
<g id="edge15" class="edge"><title>Node13&#45;&gt;Node15</title>
<path fill="none" stroke="midnightblue" d="M730.225,-145.233C744.835,-133.394 765.573,-116.59 780.569,-104.438"/>
<polygon fill="midnightblue" stroke="midnightblue" points="783.079,-106.908 788.645,-97.8932 778.672,-101.47 783.079,-106.908"/>
</g>
<!-- Node15&#45;&gt;Node3 -->
<g id="edge16" class="edge"><title>Node15&#45;&gt;Node3</title>
<path fill="none" stroke="midnightblue" d="M823.623,-78.4852C835.283,-74.5799 849.564,-70.1331 862.62,-67 958.109,-44.084 986.821,-60.0753 1080.62,-31 1082.49,-30.4195 1084.4,-29.7477 1086.3,-29.0178"/>
<polygon fill="midnightblue" stroke="midnightblue" points="1087.74,-32.206 1095.54,-25.0377 1084.97,-25.7762 1087.74,-32.206"/>
</g>
<!-- Node15&#45;&gt;Node11 -->
<g id="edge23" class="edge"><title>Node15&#45;&gt;Node11</title>
<path fill="none" stroke="midnightblue" d="M776.208,-78.4498C764.219,-74.3888 749.302,-69.8181 735.62,-67 583.757,-35.7207 541.612,-56.175 388.62,-31 387.861,-30.8751 387.098,-30.7468 386.331,-30.6152"/>
<polygon fill="midnightblue" stroke="midnightblue" points="386.682,-27.1209 376.212,-28.745 385.41,-34.0044 386.682,-27.1209"/>
</g>
<!-- Node16 -->
<g id="node16" class="node"><title>Node16</title>
<polygon fill="white" stroke="#bfbfbf" points="664.12,-6 664.12,-25 729.12,-25 729.12,-6 664.12,-6"/>
<text text-anchor="middle" x="696.62" y="-13" font-family="Helvetica,sans-Serif" font-size="10.00">Eigen/Core</text>
</g>
<!-- Node15&#45;&gt;Node16 -->
<g id="edge17" class="edge"><title>Node15&#45;&gt;Node16</title>
<path fill="none" stroke="midnightblue" d="M786.99,-78.3553C769.77,-66.5687 738.687,-45.294 717.851,-31.0325"/>
<polygon fill="midnightblue" stroke="midnightblue" points="719.582,-27.9755 709.353,-25.2154 715.628,-33.7519 719.582,-27.9755"/>
</g>
<!-- Node17 -->
<g id="node17" class="node"><title>Node17</title>
<g id="a_node17"><a doxygen="/local/devel/hpp/install/share/doc/hpp-util/doxygen-html/hpp-util.doxytag:../../hpp-util/doxygen-html/" xlink:href="../../hpp-util/doxygen-html/a00028.html" target="_top" xlink:title="hpp/util/pointer.hh">
<polygon fill="white" stroke="black" points="747.62,-6 747.62,-25 841.62,-25 841.62,-6 747.62,-6"/>
<text text-anchor="middle" x="794.62" y="-13" font-family="Helvetica,sans-Serif" font-size="10.00">hpp/util/pointer.hh</text>
</a>
</g>
</g>
<!-- Node15&#45;&gt;Node17 -->
<g id="edge18" class="edge"><title>Node15&#45;&gt;Node17</title>
<path fill="none" stroke="midnightblue" d="M799.006,-78.3553C798.249,-67.6786 796.94,-49.2167 795.948,-35.2343"/>
<polygon fill="midnightblue" stroke="midnightblue" points="799.436,-34.9427 795.238,-25.2154 792.454,-35.438 799.436,-34.9427"/>
</g>
<!-- Node18 -->
<g id="node18" class="node"><title>Node18</title>
<polygon fill="white" stroke="#bfbfbf" points="859.62,-6 859.62,-25 937.62,-25 937.62,-6 859.62,-6"/>
<text text-anchor="middle" x="898.62" y="-13" font-family="Helvetica,sans-Serif" font-size="10.00">hpp/fcl/fwd.hh</text>
</g>
<!-- Node15&#45;&gt;Node18 -->
<g id="edge19" class="edge"><title>Node15&#45;&gt;Node18</title>
<path fill="none" stroke="midnightblue" d="M811.759,-78.3553C828.31,-66.5687 858.185,-45.294 878.212,-31.0325"/>
<polygon fill="midnightblue" stroke="midnightblue" points="880.266,-33.8671 886.381,-25.2154 876.205,-28.1651 880.266,-33.8671"/>
</g>
<!-- Node19 -->
<g id="node19" class="node"><title>Node19</title>
<polygon fill="white" stroke="#bfbfbf" points="955.62,-6 955.62,-25 1071.62,-25 1071.62,-6 955.62,-6"/>
<text text-anchor="middle" x="1013.62" y="-13" font-family="Helvetica,sans-Serif" font-size="10.00">hpp/fcl/collision_data.h</text>
</g>
<!-- Node15&#45;&gt;Node19 -->
<g id="edge20" class="edge"><title>Node15&#45;&gt;Node19</title>
<path fill="none" stroke="midnightblue" d="M825.433,-78.4961C863.592,-65.9249 935.171,-42.3439 978.207,-28.1664"/>
<polygon fill="midnightblue" stroke="midnightblue" points="979.312,-31.4874 987.715,-25.0341 977.122,-24.8389 979.312,-31.4874"/>
</g>
<!-- Node20 -->
<g id="node20" class="node"><title>Node20</title>
<polygon fill="white" stroke="#bfbfbf" points="398.12,-6 398.12,-25 525.12,-25 525.12,-6 398.12,-6"/>
<text text-anchor="middle" x="461.62" y="-13" font-family="Helvetica,sans-Serif" font-size="10.00">pinocchio/spatial/fwd.hpp</text>
</g>
<!-- Node15&#45;&gt;Node20 -->
<g id="edge21" class="edge"><title>Node15&#45;&gt;Node20</title>
<path fill="none" stroke="midnightblue" d="M774.902,-78.4734C763.108,-74.6118 748.737,-70.2049 735.62,-67 647.033,-45.3565 623.213,-48.0029 533.62,-31 526.97,-29.7381 519.983,-28.3762 513.084,-27.0099"/>
<polygon fill="midnightblue" stroke="midnightblue" points="513.58,-23.54 503.089,-25.0162 512.211,-30.4047 513.58,-23.54"/>
</g>
<!-- Node21 -->
<g id="node21" class="node"><title>Node21</title>
<polygon fill="white" stroke="#bfbfbf" points="543.12,-0.5 543.12,-30.5 646.12,-30.5 646.12,-0.5 543.12,-0.5"/>
<text text-anchor="start" x="551.12" y="-18.5" font-family="Helvetica,sans-Serif" font-size="10.00">pinocchio/multibody</text>
<text text-anchor="middle" x="594.62" y="-7.5" font-family="Helvetica,sans-Serif" font-size="10.00">/fwd.hpp</text>
</g>
<!-- Node15&#45;&gt;Node21 -->
<g id="edge22" class="edge"><title>Node15&#45;&gt;Node21</title>
<path fill="none" stroke="midnightblue" d="M774.892,-78.4961C742.851,-67.477 686.213,-47.9992 644.952,-33.8096"/>
<polygon fill="midnightblue" stroke="midnightblue" points="645.941,-30.4483 635.346,-30.5059 643.664,-37.0678 645.941,-30.4483"/>
</g>
<!-- Node22&#45;&gt;Node14 -->
<g id="edge26" class="edge"><title>Node22&#45;&gt;Node14</title>
<path fill="none" stroke="midnightblue" d="M593.415,-145.403C609.753,-134.836 632.312,-120.245 650.392,-108.551"/>
<polygon fill="midnightblue" stroke="midnightblue" points="652.366,-111.443 658.862,-103.073 648.564,-105.565 652.366,-111.443"/>
</g>
<!-- Node23 -->
<g id="node23" class="node"><title>Node23</title>
<polygon fill="white" stroke="#bfbfbf" points="513.12,-67.5 513.12,-108.5 616.12,-108.5 616.12,-67.5 513.12,-67.5"/>
<text text-anchor="start" x="521.12" y="-96.5" font-family="Helvetica,sans-Serif" font-size="10.00">pinocchio/multibody</text>
<text text-anchor="start" x="521.12" y="-85.5" font-family="Helvetica,sans-Serif" font-size="10.00">/liegroup/cartesian</text>
<text text-anchor="middle" x="564.62" y="-74.5" font-family="Helvetica,sans-Serif" font-size="10.00">&#45;product.hpp</text>
</g>
<!-- Node22&#45;&gt;Node23 -->
<g id="edge25" class="edge"><title>Node22&#45;&gt;Node23</title>
<path fill="none" stroke="midnightblue" d="M570.203,-145.233C569.443,-137.574 568.476,-127.837 567.561,-118.626"/>
<polygon fill="midnightblue" stroke="midnightblue" points="571.036,-118.194 566.565,-108.588 564.07,-118.885 571.036,-118.194"/>
</g>
<!-- Node24&#45;&gt;Node8 -->
<g id="edge28" class="edge"><title>Node24&#45;&gt;Node8</title>
<path fill="none" stroke="midnightblue" d="M205.225,-145.403C185.08,-134.644 157.124,-119.713 135.036,-107.916"/>
<polygon fill="midnightblue" stroke="midnightblue" points="136.438,-104.697 125.969,-103.073 133.141,-110.871 136.438,-104.697"/>
</g>
<!-- Node25&#45;&gt;Node7 -->
<g id="edge30" class="edge"><title>Node25&#45;&gt;Node7</title>
<path fill="none" stroke="midnightblue" d="M405.262,-145.233C407.604,-136.06 410.708,-123.905 413.43,-113.244"/>
<polygon fill="midnightblue" stroke="midnightblue" points="416.9,-113.801 415.982,-103.246 410.117,-112.069 416.9,-113.801"/>
</g>
</g>
</svg>
