<?xml version="1.0" encoding="UTF-8" standalone="no"?>
<!DOCTYPE svg PUBLIC "-//W3C//DTD SVG 1.1//EN"
 "http://www.w3.org/Graphics/SVG/1.1/DTD/svg11.dtd">
<!-- Generated by graphviz version 2.38.0 (20140413.2041)
 -->
<!-- Title: device&#45;sync.hh Pages: 1 -->
<svg width="975pt" height="218pt"
 viewBox="0.00 0.00 974.50 218.00" xmlns="http://www.w3.org/2000/svg" xmlns:xlink="http://www.w3.org/1999/xlink">
<g id="graph0" class="graph" transform="scale(1 1) rotate(0) translate(4 214)">
<title>device&#45;sync.hh</title>
<polygon fill="white" stroke="none" points="-4,4 -4,-214 970.5,-214 970.5,4 -4,4"/>
<!-- Node1 -->
<g id="node1" class="node"><title>Node1</title>
<polygon fill="#bfbfbf" stroke="black" points="433.5,-190.5 433.5,-209.5 516.5,-209.5 516.5,-190.5 433.5,-190.5"/>
<text text-anchor="middle" x="475" y="-197.5" font-family="Helvetica,sans-Serif" font-size="10.00">device&#45;sync.hh</text>
</g>
<!-- Node2 -->
<g id="node2" class="node"><title>Node2</title>
<g id="a_node2"><a xlink:href="a00098.html" target="_top" xlink:title="hpp/pinocchio/fwd.hh">
<polygon fill="white" stroke="black" points="357.5,-67.5 357.5,-86.5 466.5,-86.5 466.5,-67.5 357.5,-67.5"/>
<text text-anchor="middle" x="412" y="-74.5" font-family="Helvetica,sans-Serif" font-size="10.00">hpp/pinocchio/fwd.hh</text>
</a>
</g>
</g>
<!-- Node1&#45;&gt;Node2 -->
<g id="edge1" class="edge"><title>Node1&#45;&gt;Node2</title>
<path fill="none" stroke="midnightblue" d="M470.469,-190.298C460.162,-170.502 434.796,-121.782 421.108,-95.4932"/>
<polygon fill="midnightblue" stroke="midnightblue" points="424.212,-93.8766 416.49,-86.6232 418.004,-97.1093 424.212,-93.8766"/>
</g>
<!-- Node11 -->
<g id="node11" class="node"><title>Node11</title>
<g id="a_node11"><a xlink:href="a00093.html" target="_top" xlink:title="hpp/pinocchio/device\l&#45;data.hh">
<polygon fill="white" stroke="black" points="467,-123.5 467,-153.5 575,-153.5 575,-123.5 467,-123.5"/>
<text text-anchor="start" x="475" y="-141.5" font-family="Helvetica,sans-Serif" font-size="10.00">hpp/pinocchio/device</text>
<text text-anchor="middle" x="521" y="-130.5" font-family="Helvetica,sans-Serif" font-size="10.00">&#45;data.hh</text>
</a>
</g>
</g>
<!-- Node1&#45;&gt;Node11 -->
<g id="edge10" class="edge"><title>Node1&#45;&gt;Node11</title>
<path fill="none" stroke="midnightblue" d="M481.591,-190.475C487.413,-182.944 496.163,-171.626 503.94,-161.566"/>
<polygon fill="midnightblue" stroke="midnightblue" points="506.811,-163.575 510.159,-153.523 501.273,-159.294 506.811,-163.575"/>
</g>
<!-- Node3 -->
<g id="node3" class="node"><title>Node3</title>
<polygon fill="white" stroke="#bfbfbf" points="0,-6 0,-25 44,-25 44,-6 0,-6"/>
<text text-anchor="middle" x="22" y="-13" font-family="Helvetica,sans-Serif" font-size="10.00">vector</text>
</g>
<!-- Node2&#45;&gt;Node3 -->
<g id="edge2" class="edge"><title>Node2&#45;&gt;Node3</title>
<path fill="none" stroke="midnightblue" d="M357.417,-74.4395C286.119,-71.213 158.007,-61.3206 53,-31 51.0734,-30.4437 49.116,-29.7821 47.1694,-29.0525"/>
<polygon fill="midnightblue" stroke="midnightblue" points="48.2898,-25.7251 37.719,-25.0124 45.5382,-32.1616 48.2898,-25.7251"/>
</g>
<!-- Node4 -->
<g id="node4" class="node"><title>Node4</title>
<polygon fill="white" stroke="#bfbfbf" points="62.5,-6 62.5,-25 127.5,-25 127.5,-6 62.5,-6"/>
<text text-anchor="middle" x="95" y="-13" font-family="Helvetica,sans-Serif" font-size="10.00">Eigen/Core</text>
</g>
<!-- Node2&#45;&gt;Node4 -->
<g id="edge3" class="edge"><title>Node2&#45;&gt;Node4</title>
<path fill="none" stroke="midnightblue" d="M357.434,-69.8533C301.541,-62.9099 212.402,-50.0375 137,-31 133.784,-30.188 130.463,-29.2397 127.164,-28.2238"/>
<polygon fill="midnightblue" stroke="midnightblue" points="128.048,-24.8305 117.456,-25.0418 125.868,-31.4823 128.048,-24.8305"/>
</g>
<!-- Node5 -->
<g id="node5" class="node"><title>Node5</title>
<g id="a_node5"><a doxygen="/local/devel/hpp/install/share/doc/hpp-util/doxygen-html/hpp-util.doxytag:../../hpp-util/doxygen-html/" xlink:href="../../hpp-util/doxygen-html/a00028.html" target="_top" xlink:title="hpp/util/pointer.hh">
<polygon fill="white" stroke="black" points="146,-6 146,-25 240,-25 240,-6 146,-6"/>
<text text-anchor="middle" x="193" y="-13" font-family="Helvetica,sans-Serif" font-size="10.00">hpp/util/pointer.hh</text>
</a>
</g>
</g>
<!-- Node2&#45;&gt;Node5 -->
<g id="edge4" class="edge"><title>Node2&#45;&gt;Node5</title>
<path fill="none" stroke="midnightblue" d="M380.623,-67.4751C342.081,-57.0036 276.595,-39.2118 234.076,-27.6601"/>
<polygon fill="midnightblue" stroke="midnightblue" points="234.887,-24.2534 224.319,-25.0091 233.052,-31.0086 234.887,-24.2534"/>
</g>
<!-- Node6 -->
<g id="node6" class="node"><title>Node6</title>
<polygon fill="white" stroke="#bfbfbf" points="258,-6 258,-25 336,-25 336,-6 258,-6"/>
<text text-anchor="middle" x="297" y="-13" font-family="Helvetica,sans-Serif" font-size="10.00">hpp/fcl/fwd.hh</text>
</g>
<!-- Node2&#45;&gt;Node6 -->
<g id="edge5" class="edge"><title>Node2&#45;&gt;Node6</title>
<path fill="none" stroke="midnightblue" d="M395.523,-67.4751C376.395,-57.578 344.627,-41.1416 322.348,-29.6151"/>
<polygon fill="midnightblue" stroke="midnightblue" points="323.936,-26.4958 313.446,-25.0091 320.719,-32.713 323.936,-26.4958"/>
</g>
<!-- Node7 -->
<g id="node7" class="node"><title>Node7</title>
<polygon fill="white" stroke="#bfbfbf" points="354,-6 354,-25 470,-25 470,-6 354,-6"/>
<text text-anchor="middle" x="412" y="-13" font-family="Helvetica,sans-Serif" font-size="10.00">hpp/fcl/collision_data.h</text>
</g>
<!-- Node2&#45;&gt;Node7 -->
<g id="edge6" class="edge"><title>Node2&#45;&gt;Node7</title>
<path fill="none" stroke="midnightblue" d="M412,-67.4751C412,-59.0803 412,-45.9806 412,-35.1631"/>
<polygon fill="midnightblue" stroke="midnightblue" points="415.5,-35.0091 412,-25.0091 408.5,-35.0091 415.5,-35.0091"/>
</g>
<!-- Node8 -->
<g id="node8" class="node"><title>Node8</title>
<polygon fill="white" stroke="#bfbfbf" points="488.5,-6 488.5,-25 615.5,-25 615.5,-6 488.5,-6"/>
<text text-anchor="middle" x="552" y="-13" font-family="Helvetica,sans-Serif" font-size="10.00">pinocchio/spatial/fwd.hpp</text>
</g>
<!-- Node2&#45;&gt;Node8 -->
<g id="edge7" class="edge"><title>Node2&#45;&gt;Node8</title>
<path fill="none" stroke="midnightblue" d="M432.059,-67.4751C455.762,-57.4013 495.406,-40.5525 522.583,-29.0023"/>
<polygon fill="midnightblue" stroke="midnightblue" points="524.144,-32.1417 531.979,-25.0091 521.406,-25.6994 524.144,-32.1417"/>
</g>
<!-- Node9 -->
<g id="node9" class="node"><title>Node9</title>
<polygon fill="white" stroke="#bfbfbf" points="633.5,-0.5 633.5,-30.5 736.5,-30.5 736.5,-0.5 633.5,-0.5"/>
<text text-anchor="start" x="641.5" y="-18.5" font-family="Helvetica,sans-Serif" font-size="10.00">pinocchio/multibody</text>
<text text-anchor="middle" x="685" y="-7.5" font-family="Helvetica,sans-Serif" font-size="10.00">/fwd.hpp</text>
</g>
<!-- Node2&#45;&gt;Node9 -->
<g id="edge8" class="edge"><title>Node2&#45;&gt;Node9</title>
<path fill="none" stroke="midnightblue" d="M454.11,-67.4778C495.033,-59.1121 559.188,-45.7779 623.422,-31.3257"/>
<polygon fill="midnightblue" stroke="midnightblue" points="624.329,-34.7092 633.312,-29.0917 622.786,-27.8812 624.329,-34.7092"/>
</g>
<!-- Node10 -->
<g id="node10" class="node"><title>Node10</title>
<polygon fill="white" stroke="#bfbfbf" points="754.5,-0.5 754.5,-30.5 857.5,-30.5 857.5,-0.5 754.5,-0.5"/>
<text text-anchor="start" x="762.5" y="-18.5" font-family="Helvetica,sans-Serif" font-size="10.00">pinocchio/multibody</text>
<text text-anchor="middle" x="806" y="-7.5" font-family="Helvetica,sans-Serif" font-size="10.00">/joint/fwd.hpp</text>
</g>
<!-- Node2&#45;&gt;Node10 -->
<g id="edge9" class="edge"><title>Node2&#45;&gt;Node10</title>
<path fill="none" stroke="midnightblue" d="M466.631,-68.1621C469.461,-67.7665 472.264,-67.3772 475,-67 592.191,-50.8458 624.855,-53.1625 744.452,-31.1832"/>
<polygon fill="midnightblue" stroke="midnightblue" points="745.17,-34.6098 754.364,-29.3432 743.893,-27.7274 745.17,-34.6098"/>
</g>
<!-- Node11&#45;&gt;Node2 -->
<g id="edge14" class="edge"><title>Node11&#45;&gt;Node2</title>
<path fill="none" stroke="midnightblue" d="M495.169,-123.399C477.533,-113.773 454.3,-101.09 436.872,-91.5772"/>
<polygon fill="midnightblue" stroke="midnightblue" points="438.315,-88.3771 427.86,-86.6578 434.961,-94.5213 438.315,-88.3771"/>
</g>
<!-- Node12 -->
<g id="node12" class="node"><title>Node12</title>
<g id="a_node12"><a doxygen="/local/devel/hpp/install/share/doc/hpp-util/doxygen-html/hpp-util.doxytag:../../hpp-util/doxygen-html/" xlink:href="../../hpp-util/doxygen-html/a00018.html" target="_top" xlink:title="hpp/util/debug.hh">
<polygon fill="white" stroke="black" points="484.5,-67.5 484.5,-86.5 575.5,-86.5 575.5,-67.5 484.5,-67.5"/>
<text text-anchor="middle" x="530" y="-74.5" font-family="Helvetica,sans-Serif" font-size="10.00">hpp/util/debug.hh</text>
</a>
</g>
</g>
<!-- Node11&#45;&gt;Node12 -->
<g id="edge11" class="edge"><title>Node11&#45;&gt;Node12</title>
<path fill="none" stroke="midnightblue" d="M523.133,-123.399C524.346,-115.377 525.881,-105.233 527.191,-96.569"/>
<polygon fill="midnightblue" stroke="midnightblue" points="530.655,-97.0688 528.69,-86.6578 523.734,-96.0218 530.655,-97.0688"/>
</g>
<!-- Node14 -->
<g id="node14" class="node"><title>Node14</title>
<polygon fill="white" stroke="#bfbfbf" points="593.5,-67.5 593.5,-86.5 712.5,-86.5 712.5,-67.5 593.5,-67.5"/>
<text text-anchor="middle" x="653" y="-74.5" font-family="Helvetica,sans-Serif" font-size="10.00">hpp/pinocchio/config.hh</text>
</g>
<!-- Node11&#45;&gt;Node14 -->
<g id="edge13" class="edge"><title>Node11&#45;&gt;Node14</title>
<path fill="none" stroke="midnightblue" d="M552.282,-123.399C574.232,-113.505 603.343,-100.383 624.621,-90.7919"/>
<polygon fill="midnightblue" stroke="midnightblue" points="626.114,-93.958 633.793,-86.6578 623.238,-87.5764 626.114,-93.958"/>
</g>
<!-- Node13 -->
<g id="node13" class="node"><title>Node13</title>
<g id="a_node13"><a doxygen="/local/devel/hpp/install/share/doc/hpp-util/doxygen-html/hpp-util.doxytag:../../hpp-util/doxygen-html/" xlink:href="../../hpp-util/doxygen-html/a00025.html" target="_top" xlink:title="hpp/util/indent.hh">
<polygon fill="white" stroke="black" points="875.5,-6 875.5,-25 966.5,-25 966.5,-6 875.5,-6"/>
<text text-anchor="middle" x="921" y="-13" font-family="Helvetica,sans-Serif" font-size="10.00">hpp/util/indent.hh</text>
</a>
</g>
</g>
<!-- Node12&#45;&gt;Node13 -->
<g id="edge12" class="edge"><title>Node12&#45;&gt;Node13</title>
<path fill="none" stroke="midnightblue" d="M575.599,-68.4114C578.779,-67.9213 581.936,-67.4461 585,-67 710.032,-48.7951 743.036,-55.4393 867,-31 871.991,-30.016 877.202,-28.8273 882.333,-27.5588"/>
<polygon fill="midnightblue" stroke="midnightblue" points="883.217,-30.9452 892.023,-25.0541 881.466,-24.1679 883.217,-30.9452"/>
</g>
</g>
</svg>
