<?xml version="1.0" encoding="UTF-8" standalone="no"?>
<!DOCTYPE svg PUBLIC "-//W3C//DTD SVG 1.1//EN"
 "http://www.w3.org/Graphics/SVG/1.1/DTD/svg11.dtd">
<!-- Generated by graphviz version 2.38.0 (20140413.2041)
 -->
<!-- Title: liegroup.hh Pages: 1 -->
<svg width="950pt" height="240pt"
 viewBox="0.00 0.00 949.50 240.00" xmlns="http://www.w3.org/2000/svg" xmlns:xlink="http://www.w3.org/1999/xlink">
<g id="graph0" class="graph" transform="scale(1 1) rotate(0) translate(4 236)">
<title>liegroup.hh</title>
<polygon fill="white" stroke="none" points="-4,4 -4,-236 945.5,-236 945.5,4 -4,4"/>
<!-- Node1 -->
<g id="node1" class="node"><title>Node1</title>
<polygon fill="#bfbfbf" stroke="black" points="367.5,-212.5 367.5,-231.5 431.5,-231.5 431.5,-212.5 367.5,-212.5"/>
<text text-anchor="middle" x="399.5" y="-219.5" font-family="Helvetica,sans-Serif" font-size="10.00">liegroup.hh</text>
</g>
<!-- Node2 -->
<g id="node2" class="node"><title>Node2</title>
<polygon fill="white" stroke="#bfbfbf" points="0,-0.5 0,-30.5 103,-30.5 103,-0.5 0,-0.5"/>
<text text-anchor="start" x="8" y="-18.5" font-family="Helvetica,sans-Serif" font-size="10.00">pinocchio/multibody</text>
<text text-anchor="middle" x="51.5" y="-7.5" font-family="Helvetica,sans-Serif" font-size="10.00">/joint/fwd.hpp</text>
</g>
<!-- Node1&#45;&gt;Node2 -->
<g id="edge1" class="edge"><title>Node1&#45;&gt;Node2</title>
<path fill="none" stroke="midnightblue" d="M367.334,-220.039C300.252,-217.408 148.417,-207.988 109.5,-176 68.243,-142.089 56.3326,-76.2429 52.8947,-40.6813"/>
<polygon fill="midnightblue" stroke="midnightblue" points="56.3808,-40.3672 52.0766,-30.6861 49.4041,-40.9383 56.3808,-40.3672"/>
</g>
<!-- Node3 -->
<g id="node3" class="node"><title>Node3</title>
<polygon fill="white" stroke="#bfbfbf" points="119,-151 119,-170 260,-170 260,-151 119,-151"/>
<text text-anchor="middle" x="189.5" y="-158" font-family="Helvetica,sans-Serif" font-size="10.00">hpp/pinocchio/deprecated.hh</text>
</g>
<!-- Node1&#45;&gt;Node3 -->
<g id="edge2" class="edge"><title>Node1&#45;&gt;Node3</title>
<path fill="none" stroke="midnightblue" d="M369.412,-212.475C332.61,-202.048 270.189,-184.362 229.406,-172.807"/>
<polygon fill="midnightblue" stroke="midnightblue" points="230.107,-169.368 219.532,-170.009 228.199,-176.103 230.107,-169.368"/>
</g>
<!-- Node4 -->
<g id="node4" class="node"><title>Node4</title>
<g id="a_node4"><a xlink:href="a00114.html" target="_top" xlink:title="hpp/pinocchio/liegroup\l/vector&#45;space.hh">
<polygon fill="white" stroke="black" points="278,-145.5 278,-175.5 391,-175.5 391,-145.5 278,-145.5"/>
<text text-anchor="start" x="286" y="-163.5" font-family="Helvetica,sans-Serif" font-size="10.00">hpp/pinocchio/liegroup</text>
<text text-anchor="middle" x="334.5" y="-152.5" font-family="Helvetica,sans-Serif" font-size="10.00">/vector&#45;space.hh</text>
</a>
</g>
</g>
<!-- Node1&#45;&gt;Node4 -->
<g id="edge3" class="edge"><title>Node1&#45;&gt;Node4</title>
<path fill="none" stroke="midnightblue" d="M390.187,-212.475C381.631,-204.643 368.6,-192.714 357.294,-182.366"/>
<polygon fill="midnightblue" stroke="midnightblue" points="359.559,-179.693 349.819,-175.523 354.832,-184.857 359.559,-179.693"/>
</g>
<!-- Node15 -->
<g id="node15" class="node"><title>Node15</title>
<g id="a_node15"><a xlink:href="a00089.html" target="_top" xlink:title="hpp/pinocchio/liegroup\l/cartesian&#45;product.hh">
<polygon fill="white" stroke="black" points="409,-145.5 409,-175.5 522,-175.5 522,-145.5 409,-145.5"/>
<text text-anchor="start" x="417" y="-163.5" font-family="Helvetica,sans-Serif" font-size="10.00">hpp/pinocchio/liegroup</text>
<text text-anchor="middle" x="465.5" y="-152.5" font-family="Helvetica,sans-Serif" font-size="10.00">/cartesian&#45;product.hh</text>
</a>
</g>
</g>
<!-- Node1&#45;&gt;Node15 -->
<g id="edge15" class="edge"><title>Node1&#45;&gt;Node15</title>
<path fill="none" stroke="midnightblue" d="M408.956,-212.475C417.644,-204.643 430.876,-192.714 442.355,-182.366"/>
<polygon fill="midnightblue" stroke="midnightblue" points="444.861,-184.818 449.945,-175.523 440.174,-179.619 444.861,-184.818"/>
</g>
<!-- Node17 -->
<g id="node17" class="node"><title>Node17</title>
<g id="a_node17"><a xlink:href="a00111.html" target="_top" xlink:title="hpp/pinocchio/liegroup\l/special&#45;orthogonal.hh">
<polygon fill="white" stroke="black" points="580,-145.5 580,-175.5 693,-175.5 693,-145.5 580,-145.5"/>
<text text-anchor="start" x="588" y="-163.5" font-family="Helvetica,sans-Serif" font-size="10.00">hpp/pinocchio/liegroup</text>
<text text-anchor="middle" x="636.5" y="-152.5" font-family="Helvetica,sans-Serif" font-size="10.00">/special&#45;orthogonal.hh</text>
</a>
</g>
</g>
<!-- Node1&#45;&gt;Node17 -->
<g id="edge18" class="edge"><title>Node1&#45;&gt;Node17</title>
<path fill="none" stroke="midnightblue" d="M431.957,-212.852C467.507,-203.926 525.474,-189.374 570.638,-178.035"/>
<polygon fill="midnightblue" stroke="midnightblue" points="571.512,-181.424 580.359,-175.594 569.808,-174.635 571.512,-181.424"/>
</g>
<!-- Node19 -->
<g id="node19" class="node"><title>Node19</title>
<g id="a_node19"><a xlink:href="a00110.html" target="_top" xlink:title="hpp/pinocchio/liegroup\l/special&#45;euclidean.hh">
<polygon fill="white" stroke="black" points="790,-145.5 790,-175.5 903,-175.5 903,-145.5 790,-145.5"/>
<text text-anchor="start" x="798" y="-163.5" font-family="Helvetica,sans-Serif" font-size="10.00">hpp/pinocchio/liegroup</text>
<text text-anchor="middle" x="846.5" y="-152.5" font-family="Helvetica,sans-Serif" font-size="10.00">/special&#45;euclidean.hh</text>
</a>
</g>
</g>
<!-- Node1&#45;&gt;Node19 -->
<g id="edge20" class="edge"><title>Node1&#45;&gt;Node19</title>
<path fill="none" stroke="midnightblue" d="M431.647,-216.721C504.246,-207.057 682.142,-183.378 779.74,-170.386"/>
<polygon fill="midnightblue" stroke="midnightblue" points="780.341,-173.837 789.791,-169.048 779.417,-166.899 780.341,-173.837"/>
</g>
<!-- Node5 -->
<g id="node5" class="node"><title>Node5</title>
<polygon fill="white" stroke="#bfbfbf" points="111,-73 111,-103 242,-103 242,-73 111,-73"/>
<text text-anchor="start" x="119" y="-91" font-family="Helvetica,sans-Serif" font-size="10.00">pinocchio/multibody</text>
<text text-anchor="middle" x="176.5" y="-80" font-family="Helvetica,sans-Serif" font-size="10.00">/liegroup/vector&#45;space.hpp</text>
</g>
<!-- Node4&#45;&gt;Node5 -->
<g id="edge4" class="edge"><title>Node4&#45;&gt;Node5</title>
<path fill="none" stroke="midnightblue" d="M302.906,-145.403C278.363,-134.452 244.133,-119.178 217.483,-107.287"/>
<polygon fill="midnightblue" stroke="midnightblue" points="218.598,-103.951 208.039,-103.073 215.745,-110.344 218.598,-103.951"/>
</g>
<!-- Node6 -->
<g id="node6" class="node"><title>Node6</title>
<g id="a_node6"><a doxygen="/local/devel/hpp/install/share/doc/hpp-util/doxygen-html/hpp-util.doxytag:../../hpp-util/doxygen-html/" xlink:href="../../hpp-util/doxygen-html/a00020.html" target="_top" xlink:title="hpp/util/exception\l&#45;factory.hh">
<polygon fill="white" stroke="black" points="387,-73 387,-103 480,-103 480,-73 387,-73"/>
<text text-anchor="start" x="395" y="-91" font-family="Helvetica,sans-Serif" font-size="10.00">hpp/util/exception</text>
<text text-anchor="middle" x="433.5" y="-80" font-family="Helvetica,sans-Serif" font-size="10.00">&#45;factory.hh</text>
</a>
</g>
</g>
<!-- Node4&#45;&gt;Node6 -->
<g id="edge5" class="edge"><title>Node4&#45;&gt;Node6</title>
<path fill="none" stroke="midnightblue" d="M354.534,-145.233C369.122,-134.845 389.077,-120.634 405.278,-109.098"/>
<polygon fill="midnightblue" stroke="midnightblue" points="407.718,-111.657 413.834,-103.005 403.658,-105.955 407.718,-111.657"/>
</g>
<!-- Node7 -->
<g id="node7" class="node"><title>Node7</title>
<g id="a_node7"><a xlink:href="a00098.html" target="_top" xlink:title="hpp/pinocchio/fwd.hh">
<polygon fill="white" stroke="black" points="260,-78.5 260,-97.5 369,-97.5 369,-78.5 260,-78.5"/>
<text text-anchor="middle" x="314.5" y="-85.5" font-family="Helvetica,sans-Serif" font-size="10.00">hpp/pinocchio/fwd.hh</text>
</a>
</g>
</g>
<!-- Node4&#45;&gt;Node7 -->
<g id="edge6" class="edge"><title>Node4&#45;&gt;Node7</title>
<path fill="none" stroke="midnightblue" d="M330.453,-145.233C327.377,-134.39 323.119,-119.382 319.776,-107.597"/>
<polygon fill="midnightblue" stroke="midnightblue" points="323.119,-106.558 317.023,-97.8932 316.385,-108.469 323.119,-106.558"/>
</g>
<!-- Node7&#45;&gt;Node2 -->
<g id="edge14" class="edge"><title>Node7&#45;&gt;Node2</title>
<path fill="none" stroke="midnightblue" d="M288.129,-78.405C276.617,-74.7448 262.934,-70.5176 250.5,-67 204.654,-54.0297 152.429,-40.8358 112.986,-31.1881"/>
<polygon fill="midnightblue" stroke="midnightblue" points="113.79,-27.7816 103.245,-28.814 112.132,-34.5825 113.79,-27.7816"/>
</g>
<!-- Node8 -->
<g id="node8" class="node"><title>Node8</title>
<polygon fill="white" stroke="#bfbfbf" points="121.5,-6 121.5,-25 165.5,-25 165.5,-6 121.5,-6"/>
<text text-anchor="middle" x="143.5" y="-13" font-family="Helvetica,sans-Serif" font-size="10.00">vector</text>
</g>
<!-- Node7&#45;&gt;Node8 -->
<g id="edge7" class="edge"><title>Node7&#45;&gt;Node8</title>
<path fill="none" stroke="midnightblue" d="M292.03,-78.4666C264.24,-67.8083 215.572,-48.8027 174.5,-31 173.304,-30.4816 172.085,-29.9456 170.857,-29.3988"/>
<polygon fill="midnightblue" stroke="midnightblue" points="172.004,-26.0749 161.453,-25.1088 169.098,-32.4436 172.004,-26.0749"/>
</g>
<!-- Node9 -->
<g id="node9" class="node"><title>Node9</title>
<polygon fill="white" stroke="#bfbfbf" points="184,-6 184,-25 249,-25 249,-6 184,-6"/>
<text text-anchor="middle" x="216.5" y="-13" font-family="Helvetica,sans-Serif" font-size="10.00">Eigen/Core</text>
</g>
<!-- Node7&#45;&gt;Node9 -->
<g id="edge8" class="edge"><title>Node7&#45;&gt;Node9</title>
<path fill="none" stroke="midnightblue" d="M302.483,-78.3553C286.172,-66.6215 256.791,-45.4846 236.968,-31.2248"/>
<polygon fill="midnightblue" stroke="midnightblue" points="238.777,-28.214 228.615,-25.2154 234.689,-33.8964 238.777,-28.214"/>
</g>
<!-- Node10 -->
<g id="node10" class="node"><title>Node10</title>
<g id="a_node10"><a doxygen="/local/devel/hpp/install/share/doc/hpp-util/doxygen-html/hpp-util.doxytag:../../hpp-util/doxygen-html/" xlink:href="../../hpp-util/doxygen-html/a00028.html" target="_top" xlink:title="hpp/util/pointer.hh">
<polygon fill="white" stroke="black" points="267.5,-6 267.5,-25 361.5,-25 361.5,-6 267.5,-6"/>
<text text-anchor="middle" x="314.5" y="-13" font-family="Helvetica,sans-Serif" font-size="10.00">hpp/util/pointer.hh</text>
</a>
</g>
</g>
<!-- Node7&#45;&gt;Node10 -->
<g id="edge9" class="edge"><title>Node7&#45;&gt;Node10</title>
<path fill="none" stroke="midnightblue" d="M314.5,-78.3553C314.5,-67.6786 314.5,-49.2167 314.5,-35.2343"/>
<polygon fill="midnightblue" stroke="midnightblue" points="318,-35.2154 314.5,-25.2154 311,-35.2154 318,-35.2154"/>
</g>
<!-- Node11 -->
<g id="node11" class="node"><title>Node11</title>
<polygon fill="white" stroke="#bfbfbf" points="379.5,-6 379.5,-25 457.5,-25 457.5,-6 379.5,-6"/>
<text text-anchor="middle" x="418.5" y="-13" font-family="Helvetica,sans-Serif" font-size="10.00">hpp/fcl/fwd.hh</text>
</g>
<!-- Node7&#45;&gt;Node11 -->
<g id="edge10" class="edge"><title>Node7&#45;&gt;Node11</title>
<path fill="none" stroke="midnightblue" d="M327.252,-78.3553C344.718,-66.5158 376.306,-45.103 397.344,-30.8411"/>
<polygon fill="midnightblue" stroke="midnightblue" points="399.33,-33.7237 405.643,-25.2154 395.402,-27.9295 399.33,-33.7237"/>
</g>
<!-- Node12 -->
<g id="node12" class="node"><title>Node12</title>
<polygon fill="white" stroke="#bfbfbf" points="475.5,-6 475.5,-25 591.5,-25 591.5,-6 475.5,-6"/>
<text text-anchor="middle" x="533.5" y="-13" font-family="Helvetica,sans-Serif" font-size="10.00">hpp/fcl/collision_data.h</text>
</g>
<!-- Node7&#45;&gt;Node12 -->
<g id="edge11" class="edge"><title>Node7&#45;&gt;Node12</title>
<path fill="none" stroke="midnightblue" d="M340.917,-78.4961C379.967,-65.9249 453.219,-42.3439 497.26,-28.1664"/>
<polygon fill="midnightblue" stroke="midnightblue" points="498.543,-31.4301 506.99,-25.0341 496.398,-24.7669 498.543,-31.4301"/>
</g>
<!-- Node13 -->
<g id="node13" class="node"><title>Node13</title>
<polygon fill="white" stroke="#bfbfbf" points="610,-6 610,-25 737,-25 737,-6 610,-6"/>
<text text-anchor="middle" x="673.5" y="-13" font-family="Helvetica,sans-Serif" font-size="10.00">pinocchio/spatial/fwd.hpp</text>
</g>
<!-- Node7&#45;&gt;Node13 -->
<g id="edge12" class="edge"><title>Node7&#45;&gt;Node13</title>
<path fill="none" stroke="midnightblue" d="M338.499,-78.4644C350.157,-74.5543 364.439,-70.1096 377.5,-67 475.165,-43.7483 501.693,-48.7825 600.5,-31 607.335,-29.7698 614.518,-28.417 621.602,-27.0473"/>
<polygon fill="midnightblue" stroke="midnightblue" points="622.715,-30.396 631.857,-25.0407 621.371,-23.5262 622.715,-30.396"/>
</g>
<!-- Node14 -->
<g id="node14" class="node"><title>Node14</title>
<polygon fill="white" stroke="#bfbfbf" points="755,-0.5 755,-30.5 858,-30.5 858,-0.5 755,-0.5"/>
<text text-anchor="start" x="763" y="-18.5" font-family="Helvetica,sans-Serif" font-size="10.00">pinocchio/multibody</text>
<text text-anchor="middle" x="806.5" y="-7.5" font-family="Helvetica,sans-Serif" font-size="10.00">/fwd.hpp</text>
</g>
<!-- Node7&#45;&gt;Node14 -->
<g id="edge13" class="edge"><title>Node7&#45;&gt;Node14</title>
<path fill="none" stroke="midnightblue" d="M337.528,-78.4081C349.325,-74.3365 364.011,-69.7689 377.5,-67 535.336,-34.6012 581.608,-57.1448 744.791,-30.9475"/>
<polygon fill="midnightblue" stroke="midnightblue" points="745.383,-34.3972 754.683,-29.3231 744.248,-27.4897 745.383,-34.3972"/>
</g>
<!-- Node15&#45;&gt;Node6 -->
<g id="edge17" class="edge"><title>Node15&#45;&gt;Node6</title>
<path fill="none" stroke="midnightblue" d="M459.024,-145.233C454.774,-135.869 449.113,-123.397 444.203,-112.579"/>
<polygon fill="midnightblue" stroke="midnightblue" points="447.286,-110.905 439.966,-103.246 440.912,-113.798 447.286,-110.905"/>
</g>
<!-- Node16 -->
<g id="node16" class="node"><title>Node16</title>
<polygon fill="white" stroke="#bfbfbf" points="498,-67.5 498,-108.5 601,-108.5 601,-67.5 498,-67.5"/>
<text text-anchor="start" x="506" y="-96.5" font-family="Helvetica,sans-Serif" font-size="10.00">pinocchio/multibody</text>
<text text-anchor="start" x="506" y="-85.5" font-family="Helvetica,sans-Serif" font-size="10.00">/liegroup/cartesian</text>
<text text-anchor="middle" x="549.5" y="-74.5" font-family="Helvetica,sans-Serif" font-size="10.00">&#45;product.hpp</text>
</g>
<!-- Node15&#45;&gt;Node16 -->
<g id="edge16" class="edge"><title>Node15&#45;&gt;Node16</title>
<path fill="none" stroke="midnightblue" d="M482.499,-145.233C492.802,-136.586 506.261,-125.29 518.412,-115.092"/>
<polygon fill="midnightblue" stroke="midnightblue" points="520.751,-117.698 526.161,-108.588 516.251,-112.336 520.751,-117.698"/>
</g>
<!-- Node18 -->
<g id="node18" class="node"><title>Node18</title>
<polygon fill="white" stroke="#bfbfbf" points="619.5,-73 619.5,-103 773.5,-103 773.5,-73 619.5,-73"/>
<text text-anchor="start" x="627.5" y="-91" font-family="Helvetica,sans-Serif" font-size="10.00">pinocchio/multibody</text>
<text text-anchor="middle" x="696.5" y="-80" font-family="Helvetica,sans-Serif" font-size="10.00">/liegroup/special&#45;orthogonal.hpp</text>
</g>
<!-- Node17&#45;&gt;Node18 -->
<g id="edge19" class="edge"><title>Node17&#45;&gt;Node18</title>
<path fill="none" stroke="midnightblue" d="M648.642,-145.233C657.018,-135.391 668.316,-122.117 677.83,-110.937"/>
<polygon fill="midnightblue" stroke="midnightblue" points="680.56,-113.129 684.376,-103.246 675.23,-108.592 680.56,-113.129"/>
</g>
<!-- Node20 -->
<g id="node20" class="node"><title>Node20</title>
<polygon fill="white" stroke="#bfbfbf" points="791.5,-73 791.5,-103 941.5,-103 941.5,-73 791.5,-73"/>
<text text-anchor="start" x="799.5" y="-91" font-family="Helvetica,sans-Serif" font-size="10.00">pinocchio/multibody</text>
<text text-anchor="middle" x="866.5" y="-80" font-family="Helvetica,sans-Serif" font-size="10.00">/liegroup/special&#45;euclidean.hpp</text>
</g>
<!-- Node19&#45;&gt;Node20 -->
<g id="edge21" class="edge"><title>Node19&#45;&gt;Node20</title>
<path fill="none" stroke="midnightblue" d="M850.547,-145.233C853.177,-135.964 856.67,-123.652 859.717,-112.911"/>
<polygon fill="midnightblue" stroke="midnightblue" points="863.097,-113.821 862.459,-103.246 856.362,-111.911 863.097,-113.821"/>
</g>
</g>
</svg>
