<?xml version="1.0" encoding="UTF-8" standalone="no"?>
<!DOCTYPE svg PUBLIC "-//W3C//DTD SVG 1.1//EN"
 "http://www.w3.org/Graphics/SVG/1.1/DTD/svg11.dtd">
<!-- Generated by graphviz version 2.38.0 (20140413.2041)
 -->
<!-- Title: center&#45;of&#45;mass&#45;computation.hh Pages: 1 -->
<svg width="1300pt" height="352pt"
 viewBox="0.00 0.00 1300.00 352.00" xmlns="http://www.w3.org/2000/svg" xmlns:xlink="http://www.w3.org/1999/xlink">
<g id="graph0" class="graph" transform="scale(1 1) rotate(0) translate(4 348)">
<title>center&#45;of&#45;mass&#45;computation.hh</title>
<polygon fill="white" stroke="none" points="-4,4 -4,-348 1296,-348 1296,4 -4,4"/>
<!-- Node1 -->
<g id="node1" class="node"><title>Node1</title>
<polygon fill="#bfbfbf" stroke="black" points="433.5,-324.5 433.5,-343.5 585.5,-343.5 585.5,-324.5 433.5,-324.5"/>
<text text-anchor="middle" x="509.5" y="-331.5" font-family="Helvetica,sans-Serif" font-size="10.00">center&#45;of&#45;mass&#45;computation.hh</text>
</g>
<!-- Node2 -->
<g id="node2" class="node"><title>Node2</title>
<polygon fill="white" stroke="#bfbfbf" points="155,-196 155,-215 184,-215 184,-196 155,-196"/>
<text text-anchor="middle" x="169.5" y="-203" font-family="Helvetica,sans-Serif" font-size="10.00">list</text>
</g>
<!-- Node1&#45;&gt;Node2 -->
<g id="edge1" class="edge"><title>Node1&#45;&gt;Node2</title>
<path fill="none" stroke="midnightblue" d="M482.463,-324.458C427.97,-306.98 301.368,-265.058 198.5,-221 196.864,-220.299 195.189,-219.55 193.51,-218.776"/>
<polygon fill="midnightblue" stroke="midnightblue" points="194.621,-215.425 184.095,-214.218 191.571,-221.725 194.621,-215.425"/>
</g>
<!-- Node3 -->
<g id="node3" class="node"><title>Node3</title>
<polygon fill="white" stroke="#bfbfbf" points="732,-257.5 732,-287.5 835,-287.5 835,-257.5 732,-257.5"/>
<text text-anchor="start" x="740" y="-275.5" font-family="Helvetica,sans-Serif" font-size="10.00">pinocchio/multibody</text>
<text text-anchor="middle" x="783.5" y="-264.5" font-family="Helvetica,sans-Serif" font-size="10.00">/data.hpp</text>
</g>
<!-- Node1&#45;&gt;Node3 -->
<g id="edge2" class="edge"><title>Node1&#45;&gt;Node3</title>
<path fill="none" stroke="midnightblue" d="M551.599,-324.432C592.515,-316.031 656.664,-302.67 721.886,-288.105"/>
<polygon fill="midnightblue" stroke="midnightblue" points="722.944,-291.455 731.936,-285.853 721.413,-284.625 722.944,-291.455"/>
</g>
<!-- Node4 -->
<g id="node4" class="node"><title>Node4</title>
<g id="a_node4"><a xlink:href="a00098.html" target="_top" xlink:title="hpp/pinocchio/fwd.hh">
<polygon fill="white" stroke="black" points="414,-67.5 414,-86.5 523,-86.5 523,-67.5 414,-67.5"/>
<text text-anchor="middle" x="468.5" y="-74.5" font-family="Helvetica,sans-Serif" font-size="10.00">hpp/pinocchio/fwd.hh</text>
</a>
</g>
</g>
<!-- Node1&#45;&gt;Node4 -->
<g id="edge3" class="edge"><title>Node1&#45;&gt;Node4</title>
<path fill="none" stroke="midnightblue" d="M452.39,-324.48C358.525,-309.099 178.687,-273.354 145.5,-221 119.321,-179.701 153.726,-148.413 195.5,-123 229.628,-102.239 334.643,-89.4601 404.03,-83.0546"/>
<polygon fill="midnightblue" stroke="midnightblue" points="404.352,-86.5399 413.997,-82.1556 403.723,-79.5683 404.352,-86.5399"/>
</g>
<!-- Node13 -->
<g id="node13" class="node"><title>Node13</title>
<g id="a_node13"><a xlink:href="a00095.html" target="_top" xlink:title="hpp/pinocchio/device.hh">
<polygon fill="white" stroke="black" points="591.5,-263 591.5,-282 713.5,-282 713.5,-263 591.5,-263"/>
<text text-anchor="middle" x="652.5" y="-270" font-family="Helvetica,sans-Serif" font-size="10.00">hpp/pinocchio/device.hh</text>
</a>
</g>
</g>
<!-- Node1&#45;&gt;Node13 -->
<g id="edge12" class="edge"><title>Node1&#45;&gt;Node13</title>
<path fill="none" stroke="midnightblue" d="M529.988,-324.475C554.306,-314.357 595.049,-297.405 622.817,-285.851"/>
<polygon fill="midnightblue" stroke="midnightblue" points="624.161,-289.082 632.05,-282.009 621.472,-282.619 624.161,-289.082"/>
</g>
<!-- Node5 -->
<g id="node5" class="node"><title>Node5</title>
<polygon fill="white" stroke="#bfbfbf" points="812.5,-6 812.5,-25 856.5,-25 856.5,-6 812.5,-6"/>
<text text-anchor="middle" x="834.5" y="-13" font-family="Helvetica,sans-Serif" font-size="10.00">vector</text>
</g>
<!-- Node4&#45;&gt;Node5 -->
<g id="edge4" class="edge"><title>Node4&#45;&gt;Node5</title>
<path fill="none" stroke="midnightblue" d="M523.221,-73.7418C590.433,-69.8157 707.357,-59.2218 803.5,-31 805.381,-30.4478 807.293,-29.7969 809.195,-29.0821"/>
<polygon fill="midnightblue" stroke="midnightblue" points="810.627,-32.2768 818.453,-25.1351 807.881,-25.8376 810.627,-32.2768"/>
</g>
<!-- Node6 -->
<g id="node6" class="node"><title>Node6</title>
<polygon fill="white" stroke="#bfbfbf" points="387,-6 387,-25 452,-25 452,-6 387,-6"/>
<text text-anchor="middle" x="419.5" y="-13" font-family="Helvetica,sans-Serif" font-size="10.00">Eigen/Core</text>
</g>
<!-- Node4&#45;&gt;Node6 -->
<g id="edge5" class="edge"><title>Node4&#45;&gt;Node6</title>
<path fill="none" stroke="midnightblue" d="M461.479,-67.4751C454.057,-58.4617 442.167,-44.0246 432.933,-32.8118"/>
<polygon fill="midnightblue" stroke="midnightblue" points="435.566,-30.5034 426.507,-25.0091 430.163,-34.9534 435.566,-30.5034"/>
</g>
<!-- Node7 -->
<g id="node7" class="node"><title>Node7</title>
<g id="a_node7"><a doxygen="/local/devel/hpp/install/share/doc/hpp-util/doxygen-html/hpp-util.doxytag:../../hpp-util/doxygen-html/" xlink:href="../../hpp-util/doxygen-html/a00028.html" target="_top" xlink:title="hpp/util/pointer.hh">
<polygon fill="white" stroke="black" points="470.5,-6 470.5,-25 564.5,-25 564.5,-6 470.5,-6"/>
<text text-anchor="middle" x="517.5" y="-13" font-family="Helvetica,sans-Serif" font-size="10.00">hpp/util/pointer.hh</text>
</a>
</g>
</g>
<!-- Node4&#45;&gt;Node7 -->
<g id="edge6" class="edge"><title>Node4&#45;&gt;Node7</title>
<path fill="none" stroke="midnightblue" d="M475.521,-67.4751C482.943,-58.4617 494.833,-44.0246 504.067,-32.8118"/>
<polygon fill="midnightblue" stroke="midnightblue" points="506.837,-34.9534 510.493,-25.0091 501.434,-30.5034 506.837,-34.9534"/>
</g>
<!-- Node8 -->
<g id="node8" class="node"><title>Node8</title>
<polygon fill="white" stroke="#bfbfbf" points="582.5,-6 582.5,-25 660.5,-25 660.5,-6 582.5,-6"/>
<text text-anchor="middle" x="621.5" y="-13" font-family="Helvetica,sans-Serif" font-size="10.00">hpp/fcl/fwd.hh</text>
</g>
<!-- Node4&#45;&gt;Node8 -->
<g id="edge7" class="edge"><title>Node4&#45;&gt;Node8</title>
<path fill="none" stroke="midnightblue" d="M490.421,-67.4751C516.552,-57.3129 560.412,-40.2564 590.13,-28.6996"/>
<polygon fill="midnightblue" stroke="midnightblue" points="591.568,-31.8956 599.619,-25.0091 589.031,-25.3716 591.568,-31.8956"/>
</g>
<!-- Node9 -->
<g id="node9" class="node"><title>Node9</title>
<polygon fill="white" stroke="#bfbfbf" points="678.5,-6 678.5,-25 794.5,-25 794.5,-6 678.5,-6"/>
<text text-anchor="middle" x="736.5" y="-13" font-family="Helvetica,sans-Serif" font-size="10.00">hpp/fcl/collision_data.h</text>
</g>
<!-- Node4&#45;&gt;Node9 -->
<g id="edge8" class="edge"><title>Node4&#45;&gt;Node9</title>
<path fill="none" stroke="midnightblue" d="M506.898,-67.4751C554.66,-56.8711 636.236,-38.7602 688.195,-27.2244"/>
<polygon fill="midnightblue" stroke="midnightblue" points="689.17,-30.5933 698.173,-25.0091 687.652,-23.7597 689.17,-30.5933"/>
</g>
<!-- Node10 -->
<g id="node10" class="node"><title>Node10</title>
<polygon fill="white" stroke="#bfbfbf" points="0,-6 0,-25 127,-25 127,-6 0,-6"/>
<text text-anchor="middle" x="63.5" y="-13" font-family="Helvetica,sans-Serif" font-size="10.00">pinocchio/spatial/fwd.hpp</text>
</g>
<!-- Node4&#45;&gt;Node10 -->
<g id="edge9" class="edge"><title>Node4&#45;&gt;Node10</title>
<path fill="none" stroke="midnightblue" d="M413.829,-69.7077C347.72,-61.8465 233.159,-47.4148 135.5,-31 128.325,-29.7939 120.771,-28.4051 113.364,-26.9749"/>
<polygon fill="midnightblue" stroke="midnightblue" points="113.891,-23.5117 103.403,-25.0123 112.538,-30.3796 113.891,-23.5117"/>
</g>
<!-- Node11 -->
<g id="node11" class="node"><title>Node11</title>
<polygon fill="white" stroke="#bfbfbf" points="145,-0.5 145,-30.5 248,-30.5 248,-0.5 145,-0.5"/>
<text text-anchor="start" x="153" y="-18.5" font-family="Helvetica,sans-Serif" font-size="10.00">pinocchio/multibody</text>
<text text-anchor="middle" x="196.5" y="-7.5" font-family="Helvetica,sans-Serif" font-size="10.00">/fwd.hpp</text>
</g>
<!-- Node4&#45;&gt;Node11 -->
<g id="edge10" class="edge"><title>Node4&#45;&gt;Node11</title>
<path fill="none" stroke="midnightblue" d="M426.59,-67.4644C385.861,-59.0887 322.008,-45.7466 258.039,-31.3186"/>
<polygon fill="midnightblue" stroke="midnightblue" points="258.715,-27.8833 248.189,-29.0886 257.169,-34.7105 258.715,-27.8833"/>
</g>
<!-- Node12 -->
<g id="node12" class="node"><title>Node12</title>
<polygon fill="white" stroke="#bfbfbf" points="266,-0.5 266,-30.5 369,-30.5 369,-0.5 266,-0.5"/>
<text text-anchor="start" x="274" y="-18.5" font-family="Helvetica,sans-Serif" font-size="10.00">pinocchio/multibody</text>
<text text-anchor="middle" x="317.5" y="-7.5" font-family="Helvetica,sans-Serif" font-size="10.00">/joint/fwd.hpp</text>
</g>
<!-- Node4&#45;&gt;Node12 -->
<g id="edge11" class="edge"><title>Node4&#45;&gt;Node12</title>
<path fill="none" stroke="midnightblue" d="M446.865,-67.4751C424.981,-58.8518 390.498,-45.2641 362.635,-34.2852"/>
<polygon fill="midnightblue" stroke="midnightblue" points="363.675,-30.9328 353.088,-30.523 361.108,-37.4454 363.675,-30.9328"/>
</g>
<!-- Node13&#45;&gt;Node2 -->
<g id="edge15" class="edge"><title>Node13&#45;&gt;Node2</title>
<path fill="none" stroke="midnightblue" d="M591.099,-267.357C484.707,-259.73 270.564,-242.286 198.5,-221 196.83,-220.507 195.14,-219.921 193.459,-219.272"/>
<polygon fill="midnightblue" stroke="midnightblue" points="194.694,-215.989 184.139,-215.073 191.819,-222.372 194.694,-215.989"/>
</g>
<!-- Node13&#45;&gt;Node4 -->
<g id="edge20" class="edge"><title>Node13&#45;&gt;Node4</title>
<path fill="none" stroke="midnightblue" d="M591.357,-271.352C490.33,-269.926 294.346,-261.803 240.5,-221 204.396,-193.642 183.374,-157.693 212.5,-123 236.442,-94.4825 335.9,-84.0318 403.563,-80.2055"/>
<polygon fill="midnightblue" stroke="midnightblue" points="403.917,-83.6917 413.718,-79.6671 403.546,-76.7016 403.917,-83.6917"/>
</g>
<!-- Node13&#45;&gt;Node5 -->
<g id="edge14" class="edge"><title>Node13&#45;&gt;Node5</title>
<path fill="none" stroke="midnightblue" d="M690.149,-262.934C700.586,-260.769 711.948,-258.606 722.5,-257 803.514,-244.672 1019.82,-264.134 1089.5,-221 1119.38,-202.501 1121.79,-187.776 1131.5,-154 1163.95,-41.1309 950.397,-20.8872 866.924,-17.2763"/>
<polygon fill="midnightblue" stroke="midnightblue" points="866.854,-13.7712 856.729,-16.8909 866.59,-20.7662 866.854,-13.7712"/>
</g>
<!-- Node14 -->
<g id="node14" class="node"><title>Node14</title>
<polygon fill="white" stroke="#bfbfbf" points="513.5,-196 513.5,-215 567.5,-215 567.5,-196 513.5,-196"/>
<text text-anchor="middle" x="540.5" y="-203" font-family="Helvetica,sans-Serif" font-size="10.00">iostream</text>
</g>
<!-- Node13&#45;&gt;Node14 -->
<g id="edge13" class="edge"><title>Node13&#45;&gt;Node14</title>
<path fill="none" stroke="midnightblue" d="M637.395,-262.734C618.587,-251.818 586.245,-233.049 564.142,-220.221"/>
<polygon fill="midnightblue" stroke="midnightblue" points="565.771,-217.12 555.366,-215.127 562.258,-223.174 565.771,-217.12"/>
</g>
<!-- Node15 -->
<g id="node15" class="node"><title>Node15</title>
<polygon fill="white" stroke="#bfbfbf" points="823,-129 823,-148 942,-148 942,-129 823,-129"/>
<text text-anchor="middle" x="882.5" y="-136" font-family="Helvetica,sans-Serif" font-size="10.00">boost/thread/mutex.hpp</text>
</g>
<!-- Node13&#45;&gt;Node15 -->
<g id="edge16" class="edge"><title>Node13&#45;&gt;Node15</title>
<path fill="none" stroke="midnightblue" d="M690.573,-262.958C733.302,-252.872 799.413,-235.62 820.5,-221 844.526,-204.342 863.268,-175.456 873.601,-156.925"/>
<polygon fill="midnightblue" stroke="midnightblue" points="876.708,-158.536 878.339,-148.068 870.536,-155.234 876.708,-158.536"/>
</g>
<!-- Node16 -->
<g id="node16" class="node"><title>Node16</title>
<polygon fill="white" stroke="#bfbfbf" points="615,-123.5 615,-153.5 728,-153.5 728,-123.5 615,-123.5"/>
<text text-anchor="start" x="623" y="-141.5" font-family="Helvetica,sans-Serif" font-size="10.00">boost/thread/condition</text>
<text text-anchor="middle" x="671.5" y="-130.5" font-family="Helvetica,sans-Serif" font-size="10.00">_variable.hpp</text>
</g>
<!-- Node13&#45;&gt;Node16 -->
<g id="edge17" class="edge"><title>Node13&#45;&gt;Node16</title>
<path fill="none" stroke="midnightblue" d="M653.747,-262.839C656.6,-243.019 663.689,-193.769 667.996,-163.844"/>
<polygon fill="midnightblue" stroke="midnightblue" points="671.484,-164.18 669.444,-153.783 664.555,-163.182 671.484,-164.18"/>
</g>
<!-- Node17 -->
<g id="node17" class="node"><title>Node17</title>
<g id="a_node17"><a doxygen="/local/devel/hpp/install/share/doc/hpp-util/doxygen-html/hpp-util.doxytag:../../hpp-util/doxygen-html/" xlink:href="../../hpp-util/doxygen-html/a00018.html" target="_top" xlink:title="hpp/util/debug.hh">
<polygon fill="white" stroke="black" points="1201,-67.5 1201,-86.5 1292,-86.5 1292,-67.5 1201,-67.5"/>
<text text-anchor="middle" x="1246.5" y="-74.5" font-family="Helvetica,sans-Serif" font-size="10.00">hpp/util/debug.hh</text>
</a>
</g>
</g>
<!-- Node13&#45;&gt;Node17 -->
<g id="edge18" class="edge"><title>Node13&#45;&gt;Node17</title>
<path fill="none" stroke="midnightblue" d="M689.401,-262.943C700.036,-260.726 711.687,-258.533 722.5,-257 824.897,-242.482 1102.66,-281.551 1186.5,-221 1227.52,-191.378 1240.65,-128.188 1244.73,-96.6752"/>
<polygon fill="midnightblue" stroke="midnightblue" points="1248.22,-96.9474 1245.86,-86.6192 1241.26,-96.1659 1248.22,-96.9474"/>
</g>
<!-- Node19 -->
<g id="node19" class="node"><title>Node19</title>
<g id="a_node19"><a xlink:href="a00097.html" target="_top" xlink:title="hpp/pinocchio/frame.hh">
<polygon fill="white" stroke="black" points="249.5,-196 249.5,-215 367.5,-215 367.5,-196 249.5,-196"/>
<text text-anchor="middle" x="308.5" y="-203" font-family="Helvetica,sans-Serif" font-size="10.00">hpp/pinocchio/frame.hh</text>
</a>
</g>
</g>
<!-- Node13&#45;&gt;Node19 -->
<g id="edge21" class="edge"><title>Node13&#45;&gt;Node19</title>
<path fill="none" stroke="midnightblue" d="M607.174,-262.936C544.441,-251.082 431.261,-229.696 363.686,-216.928"/>
<polygon fill="midnightblue" stroke="midnightblue" points="364.129,-213.449 353.653,-215.032 362.829,-220.328 364.129,-213.449"/>
</g>
<!-- Node21 -->
<g id="node21" class="node"><title>Node21</title>
<polygon fill="white" stroke="#bfbfbf" points="889,-67.5 889,-86.5 1008,-86.5 1008,-67.5 889,-67.5"/>
<text text-anchor="middle" x="948.5" y="-74.5" font-family="Helvetica,sans-Serif" font-size="10.00">hpp/pinocchio/config.hh</text>
</g>
<!-- Node13&#45;&gt;Node21 -->
<g id="edge31" class="edge"><title>Node13&#45;&gt;Node21</title>
<path fill="none" stroke="midnightblue" d="M690.524,-262.928C700.861,-260.788 712.079,-258.639 722.5,-257 869.555,-233.876 923.055,-288.958 1055.5,-221 1091.06,-202.752 1101.23,-191.337 1115.5,-154 1120.42,-141.131 1123.88,-133.937 1115.5,-123 1103.34,-107.125 1058.61,-95.5862 1018.51,-88.1699"/>
<polygon fill="midnightblue" stroke="midnightblue" points="1018.89,-84.6835 1008.43,-86.3731 1017.66,-91.5747 1018.89,-84.6835"/>
</g>
<!-- Node22 -->
<g id="node22" class="node"><title>Node22</title>
<polygon fill="white" stroke="#bfbfbf" points="337,-129 337,-148 478,-148 478,-129 337,-129"/>
<text text-anchor="middle" x="407.5" y="-136" font-family="Helvetica,sans-Serif" font-size="10.00">hpp/pinocchio/deprecated.hh</text>
</g>
<!-- Node13&#45;&gt;Node22 -->
<g id="edge32" class="edge"><title>Node13&#45;&gt;Node22</title>
<path fill="none" stroke="midnightblue" d="M645.541,-262.971C630.079,-244.206 592.939,-200.2 576.5,-190 555.964,-177.258 496.502,-161.03 453.925,-150.459"/>
<polygon fill="midnightblue" stroke="midnightblue" points="454.585,-147.017 444.039,-148.031 452.915,-153.815 454.585,-147.017"/>
</g>
<!-- Node23 -->
<g id="node23" class="node"><title>Node23</title>
<g id="a_node23"><a xlink:href="a00108.html" target="_top" xlink:title="hpp/pinocchio/pool.hh">
<polygon fill="white" stroke="black" points="701,-196 701,-215 812,-215 812,-196 701,-196"/>
<text text-anchor="middle" x="756.5" y="-203" font-family="Helvetica,sans-Serif" font-size="10.00">hpp/pinocchio/pool.hh</text>
</a>
</g>
</g>
<!-- Node13&#45;&gt;Node23 -->
<g id="edge26" class="edge"><title>Node13&#45;&gt;Node23</title>
<path fill="none" stroke="midnightblue" d="M666.526,-262.734C683.835,-251.916 713.487,-233.383 733.995,-220.566"/>
<polygon fill="midnightblue" stroke="midnightblue" points="736.071,-223.395 742.696,-215.127 732.361,-217.459 736.071,-223.395"/>
</g>
<!-- Node24 -->
<g id="node24" class="node"><title>Node24</title>
<g id="a_node24"><a xlink:href="a00096.html" target="_top" xlink:title="hpp/pinocchio/extra\l&#45;config&#45;space.hh">
<polygon fill="white" stroke="black" points="496,-123.5 496,-153.5 597,-153.5 597,-123.5 496,-123.5"/>
<text text-anchor="start" x="504" y="-141.5" font-family="Helvetica,sans-Serif" font-size="10.00">hpp/pinocchio/extra</text>
<text text-anchor="middle" x="546.5" y="-130.5" font-family="Helvetica,sans-Serif" font-size="10.00">&#45;config&#45;space.hh</text>
</a>
</g>
</g>
<!-- Node13&#45;&gt;Node24 -->
<g id="edge33" class="edge"><title>Node13&#45;&gt;Node24</title>
<path fill="none" stroke="midnightblue" d="M649.354,-262.962C643.317,-247.332 628.957,-213.561 609.5,-190 600.111,-178.631 587.801,-168.079 576.557,-159.592"/>
<polygon fill="midnightblue" stroke="midnightblue" points="578.374,-156.585 568.231,-153.525 574.252,-162.243 578.374,-156.585"/>
</g>
<!-- Node25 -->
<g id="node25" class="node"><title>Node25</title>
<g id="a_node25"><a xlink:href="a00093.html" target="_top" xlink:title="hpp/pinocchio/device\l&#45;data.hh">
<polygon fill="white" stroke="black" points="998.5,-123.5 998.5,-153.5 1106.5,-153.5 1106.5,-123.5 998.5,-123.5"/>
<text text-anchor="start" x="1006.5" y="-141.5" font-family="Helvetica,sans-Serif" font-size="10.00">hpp/pinocchio/device</text>
<text text-anchor="middle" x="1052.5" y="-130.5" font-family="Helvetica,sans-Serif" font-size="10.00">&#45;data.hh</text>
</a>
</g>
</g>
<!-- Node13&#45;&gt;Node25 -->
<g id="edge35" class="edge"><title>Node13&#45;&gt;Node25</title>
<path fill="none" stroke="midnightblue" d="M690.533,-262.98C700.869,-260.84 712.085,-258.678 722.5,-257 791.187,-245.933 981.587,-267.318 1033.5,-221 1049.36,-206.85 1053.3,-182.258 1053.76,-163.779"/>
<polygon fill="midnightblue" stroke="midnightblue" points="1057.26,-163.708 1053.7,-153.731 1050.26,-163.753 1057.26,-163.708"/>
</g>
<!-- Node26 -->
<g id="node26" class="node"><title>Node26</title>
<g id="a_node26"><a xlink:href="a00094.html" target="_top" xlink:title="hpp/pinocchio/device\l&#45;sync.hh">
<polygon fill="white" stroke="black" points="916.5,-190.5 916.5,-220.5 1024.5,-220.5 1024.5,-190.5 916.5,-190.5"/>
<text text-anchor="start" x="924.5" y="-208.5" font-family="Helvetica,sans-Serif" font-size="10.00">hpp/pinocchio/device</text>
<text text-anchor="middle" x="970.5" y="-197.5" font-family="Helvetica,sans-Serif" font-size="10.00">&#45;sync.hh</text>
</a>
</g>
</g>
<!-- Node13&#45;&gt;Node26 -->
<g id="edge39" class="edge"><title>Node13&#45;&gt;Node26</title>
<path fill="none" stroke="midnightblue" d="M693.581,-262.966C703.077,-261 713.139,-258.923 722.5,-257 784.913,-244.181 856.192,-229.681 906.267,-219.518"/>
<polygon fill="midnightblue" stroke="midnightblue" points="907.201,-222.9 916.305,-217.481 905.809,-216.04 907.201,-222.9"/>
</g>
<!-- Node18 -->
<g id="node18" class="node"><title>Node18</title>
<g id="a_node18"><a doxygen="/local/devel/hpp/install/share/doc/hpp-util/doxygen-html/hpp-util.doxytag:../../hpp-util/doxygen-html/" xlink:href="../../hpp-util/doxygen-html/a00025.html" target="_top" xlink:title="hpp/util/indent.hh">
<polygon fill="white" stroke="black" points="1201,-6 1201,-25 1292,-25 1292,-6 1201,-6"/>
<text text-anchor="middle" x="1246.5" y="-13" font-family="Helvetica,sans-Serif" font-size="10.00">hpp/util/indent.hh</text>
</a>
</g>
</g>
<!-- Node17&#45;&gt;Node18 -->
<g id="edge19" class="edge"><title>Node17&#45;&gt;Node18</title>
<path fill="none" stroke="midnightblue" d="M1246.5,-67.4751C1246.5,-59.0803 1246.5,-45.9806 1246.5,-35.1631"/>
<polygon fill="midnightblue" stroke="midnightblue" points="1250,-35.0091 1246.5,-25.0091 1243,-35.0091 1250,-35.0091"/>
</g>
<!-- Node19&#45;&gt;Node4 -->
<g id="edge23" class="edge"><title>Node19&#45;&gt;Node4</title>
<path fill="none" stroke="midnightblue" d="M278.614,-195.842C258.576,-188.305 233.7,-175.189 221.5,-154 214.625,-142.06 212.674,-133.579 221.5,-123 244.294,-95.6778 338.477,-84.9024 403.721,-80.681"/>
<polygon fill="midnightblue" stroke="midnightblue" points="404.16,-84.1609 413.928,-80.0583 403.733,-77.1738 404.16,-84.1609"/>
</g>
<!-- Node20 -->
<g id="node20" class="node"><title>Node20</title>
<polygon fill="white" stroke="#bfbfbf" points="231,-129 231,-148 280,-148 280,-129 231,-129"/>
<text text-anchor="middle" x="255.5" y="-136" font-family="Helvetica,sans-Serif" font-size="10.00">cstddef</text>
</g>
<!-- Node19&#45;&gt;Node20 -->
<g id="edge22" class="edge"><title>Node19&#45;&gt;Node20</title>
<path fill="none" stroke="midnightblue" d="M301.352,-195.734C293.087,-185.598 279.301,-168.69 268.999,-156.056"/>
<polygon fill="midnightblue" stroke="midnightblue" points="271.567,-153.666 262.535,-148.127 266.141,-158.089 271.567,-153.666"/>
</g>
<!-- Node19&#45;&gt;Node21 -->
<g id="edge24" class="edge"><title>Node19&#45;&gt;Node21</title>
<path fill="none" stroke="midnightblue" d="M307.553,-195.958C306.211,-179.058 305.96,-141.404 327.5,-123 368.623,-87.8646 725.044,-80.1624 878.6,-78.474"/>
<polygon fill="midnightblue" stroke="midnightblue" points="878.895,-81.9712 888.857,-78.3669 878.821,-74.9716 878.895,-81.9712"/>
</g>
<!-- Node19&#45;&gt;Node22 -->
<g id="edge25" class="edge"><title>Node19&#45;&gt;Node22</title>
<path fill="none" stroke="midnightblue" d="M321.852,-195.734C338.254,-184.964 366.301,-166.55 385.812,-153.739"/>
<polygon fill="midnightblue" stroke="midnightblue" points="387.922,-156.542 394.36,-148.127 384.08,-150.69 387.922,-156.542"/>
</g>
<!-- Node23&#45;&gt;Node5 -->
<g id="edge27" class="edge"><title>Node23&#45;&gt;Node5</title>
<path fill="none" stroke="midnightblue" d="M758.828,-195.789C762.955,-180.72 772.104,-148.914 782.5,-123 795.404,-90.8343 813.839,-54.8911 824.94,-34.0662"/>
<polygon fill="midnightblue" stroke="midnightblue" points="828.087,-35.6046 829.744,-25.1402 821.923,-32.287 828.087,-35.6046"/>
</g>
<!-- Node23&#45;&gt;Node15 -->
<g id="edge28" class="edge"><title>Node23&#45;&gt;Node15</title>
<path fill="none" stroke="midnightblue" d="M773.232,-195.869C794.601,-184.845 831.799,-165.655 856.781,-152.768"/>
<polygon fill="midnightblue" stroke="midnightblue" points="858.416,-155.862 865.699,-148.167 855.207,-149.641 858.416,-155.862"/>
</g>
<!-- Node23&#45;&gt;Node16 -->
<g id="edge29" class="edge"><title>Node23&#45;&gt;Node16</title>
<path fill="none" stroke="midnightblue" d="M745.037,-195.734C733.107,-186.611 714.005,-172.004 698.259,-159.963"/>
<polygon fill="midnightblue" stroke="midnightblue" points="699.994,-156.883 689.924,-153.589 695.742,-162.444 699.994,-156.883"/>
</g>
<!-- Node23&#45;&gt;Node21 -->
<g id="edge30" class="edge"><title>Node23&#45;&gt;Node21</title>
<path fill="none" stroke="midnightblue" d="M760.187,-196C767.763,-179.508 786.655,-143.034 813.5,-123 835.611,-106.499 864.122,-95.8308 889.24,-89.047"/>
<polygon fill="midnightblue" stroke="midnightblue" points="890.217,-92.4101 899.041,-86.5463 888.486,-85.6274 890.217,-92.4101"/>
</g>
<!-- Node24&#45;&gt;Node4 -->
<g id="edge34" class="edge"><title>Node24&#45;&gt;Node4</title>
<path fill="none" stroke="midnightblue" d="M528.015,-123.399C515.98,-114.218 500.3,-102.258 488.057,-92.9182"/>
<polygon fill="midnightblue" stroke="midnightblue" points="489.923,-89.9401 479.85,-86.6578 485.678,-95.5056 489.923,-89.9401"/>
</g>
<!-- Node25&#45;&gt;Node4 -->
<g id="edge38" class="edge"><title>Node25&#45;&gt;Node4</title>
<path fill="none" stroke="midnightblue" d="M998.419,-125.34C993.724,-124.476 989.036,-123.679 984.5,-123 823.235,-98.8681 631.534,-86.345 533.426,-81.0927"/>
<polygon fill="midnightblue" stroke="midnightblue" points="533.538,-77.5938 523.368,-80.5622 533.169,-84.5841 533.538,-77.5938"/>
</g>
<!-- Node25&#45;&gt;Node17 -->
<g id="edge36" class="edge"><title>Node25&#45;&gt;Node17</title>
<path fill="none" stroke="midnightblue" d="M1098.48,-123.399C1132.14,-113.073 1177.28,-99.2309 1208.82,-89.5559"/>
<polygon fill="midnightblue" stroke="midnightblue" points="1210.02,-92.8494 1218.55,-86.5709 1207.97,-86.157 1210.02,-92.8494"/>
</g>
<!-- Node25&#45;&gt;Node21 -->
<g id="edge37" class="edge"><title>Node25&#45;&gt;Node21</title>
<path fill="none" stroke="midnightblue" d="M1027.85,-123.399C1011.18,-113.862 989.269,-101.325 972.695,-91.8422"/>
<polygon fill="midnightblue" stroke="midnightblue" points="974.051,-88.5858 963.633,-86.6578 970.575,-94.6617 974.051,-88.5858"/>
</g>
<!-- Node26&#45;&gt;Node4 -->
<g id="edge40" class="edge"><title>Node26&#45;&gt;Node4</title>
<path fill="none" stroke="midnightblue" d="M971.559,-190.186C972.064,-171.622 969.808,-139.65 950.5,-123 919.547,-96.3072 657.314,-84.1972 533.169,-79.9205"/>
<polygon fill="midnightblue" stroke="midnightblue" points="533.147,-76.4179 523.034,-79.5783 532.91,-83.4139 533.147,-76.4179"/>
</g>
<!-- Node26&#45;&gt;Node25 -->
<g id="edge41" class="edge"><title>Node26&#45;&gt;Node25</title>
<path fill="none" stroke="midnightblue" d="M988.293,-190.396C999.575,-181.452 1014.35,-169.737 1026.89,-159.802"/>
<polygon fill="midnightblue" stroke="midnightblue" points="1029.08,-162.531 1034.74,-153.577 1024.73,-157.046 1029.08,-162.531"/>
</g>
</g>
</svg>
