<?xml version="1.0" encoding="UTF-8" standalone="no"?>
<!DOCTYPE svg PUBLIC "-//W3C//DTD SVG 1.1//EN"
 "http://www.w3.org/Graphics/SVG/1.1/DTD/svg11.dtd">
<!-- Generated by graphviz version 2.38.0 (20140413.2041)
 -->
<!-- Title: liegroup&#45;space.hh Pages: 1 -->
<svg width="1639pt" height="296pt"
 viewBox="0.00 0.00 1639.00 296.00" xmlns="http://www.w3.org/2000/svg" xmlns:xlink="http://www.w3.org/1999/xlink">
<g id="graph0" class="graph" transform="scale(1 1) rotate(0) translate(4 292)">
<title>liegroup&#45;space.hh</title>
<polygon fill="white" stroke="none" points="-4,4 -4,-292 1635,-292 1635,4 -4,4"/>
<!-- Node1 -->
<g id="node1" class="node"><title>Node1</title>
<polygon fill="#bfbfbf" stroke="black" points="1253.5,-268.5 1253.5,-287.5 1346.5,-287.5 1346.5,-268.5 1253.5,-268.5"/>
<text text-anchor="middle" x="1300" y="-275.5" font-family="Helvetica,sans-Serif" font-size="10.00">liegroup&#45;space.hh</text>
</g>
<!-- Node2 -->
<g id="node2" class="node"><title>Node2</title>
<polygon fill="white" stroke="#bfbfbf" points="0,-6 0,-25 44,-25 44,-6 0,-6"/>
<text text-anchor="middle" x="22" y="-13" font-family="Helvetica,sans-Serif" font-size="10.00">vector</text>
</g>
<!-- Node1&#45;&gt;Node2 -->
<g id="edge1" class="edge"><title>Node1&#45;&gt;Node2</title>
<path fill="none" stroke="midnightblue" d="M1253.21,-275.958C1114.19,-272.568 705.144,-260.389 575,-232 362.606,-185.669 124.702,-69.3387 47.5895,-29.8532"/>
<polygon fill="midnightblue" stroke="midnightblue" points="49.0851,-26.6866 38.5922,-25.22 45.8803,-32.9099 49.0851,-26.6866"/>
</g>
<!-- Node3 -->
<g id="node3" class="node"><title>Node3</title>
<polygon fill="white" stroke="#bfbfbf" points="1366.5,-212.5 1366.5,-231.5 1407.5,-231.5 1407.5,-212.5 1366.5,-212.5"/>
<text text-anchor="middle" x="1387" y="-219.5" font-family="Helvetica,sans-Serif" font-size="10.00">string</text>
</g>
<!-- Node1&#45;&gt;Node3 -->
<g id="edge2" class="edge"><title>Node1&#45;&gt;Node3</title>
<path fill="none" stroke="midnightblue" d="M1313.98,-268.324C1327.55,-259.9 1348.38,-246.971 1364.32,-237.074"/>
<polygon fill="midnightblue" stroke="midnightblue" points="1366.41,-239.902 1373.06,-231.655 1362.71,-233.954 1366.41,-239.902"/>
</g>
<!-- Node4 -->
<g id="node4" class="node"><title>Node4</title>
<polygon fill="white" stroke="#bfbfbf" points="1425.5,-212.5 1425.5,-231.5 1520.5,-231.5 1520.5,-212.5 1425.5,-212.5"/>
<text text-anchor="middle" x="1473" y="-219.5" font-family="Helvetica,sans-Serif" font-size="10.00">pinocchio/fwd.hpp</text>
</g>
<!-- Node1&#45;&gt;Node4 -->
<g id="edge3" class="edge"><title>Node1&#45;&gt;Node4</title>
<path fill="none" stroke="midnightblue" d="M1327.41,-268.444C1356.77,-259.28 1403.52,-244.688 1436.1,-234.519"/>
<polygon fill="midnightblue" stroke="midnightblue" points="1437.21,-237.837 1445.72,-231.516 1435.13,-231.155 1437.21,-237.837"/>
</g>
<!-- Node5 -->
<g id="node5" class="node"><title>Node5</title>
<polygon fill="white" stroke="#bfbfbf" points="1539,-212.5 1539,-231.5 1631,-231.5 1631,-212.5 1539,-212.5"/>
<text text-anchor="middle" x="1585" y="-219.5" font-family="Helvetica,sans-Serif" font-size="10.00">boost/variant.hpp</text>
</g>
<!-- Node1&#45;&gt;Node5 -->
<g id="edge4" class="edge"><title>Node1&#45;&gt;Node5</title>
<path fill="none" stroke="midnightblue" d="M1345.16,-268.444C1395.29,-258.944 1476.22,-243.611 1530.01,-233.42"/>
<polygon fill="midnightblue" stroke="midnightblue" points="1530.88,-236.817 1540.05,-231.516 1529.58,-229.939 1530.88,-236.817"/>
</g>
<!-- Node6 -->
<g id="node6" class="node"><title>Node6</title>
<polygon fill="white" stroke="#bfbfbf" points="1051,-73 1051,-103 1201,-103 1201,-73 1051,-73"/>
<text text-anchor="start" x="1059" y="-91" font-family="Helvetica,sans-Serif" font-size="10.00">pinocchio/multibody</text>
<text text-anchor="middle" x="1126" y="-80" font-family="Helvetica,sans-Serif" font-size="10.00">/liegroup/special&#45;euclidean.hpp</text>
</g>
<!-- Node1&#45;&gt;Node6 -->
<g id="edge5" class="edge"><title>Node1&#45;&gt;Node6</title>
<path fill="none" stroke="midnightblue" d="M1301.5,-268.427C1305.01,-245.53 1311.27,-182.16 1281,-145 1263.46,-123.464 1236.93,-110.208 1210.76,-102.05"/>
<polygon fill="midnightblue" stroke="midnightblue" points="1211.73,-98.6869 1201.15,-99.2692 1209.78,-105.411 1211.73,-98.6869"/>
</g>
<!-- Node7 -->
<g id="node7" class="node"><title>Node7</title>
<polygon fill="white" stroke="#bfbfbf" points="1240,-73 1240,-103 1394,-103 1394,-73 1240,-73"/>
<text text-anchor="start" x="1248" y="-91" font-family="Helvetica,sans-Serif" font-size="10.00">pinocchio/multibody</text>
<text text-anchor="middle" x="1317" y="-80" font-family="Helvetica,sans-Serif" font-size="10.00">/liegroup/special&#45;orthogonal.hpp</text>
</g>
<!-- Node1&#45;&gt;Node7 -->
<g id="edge6" class="edge"><title>Node1&#45;&gt;Node7</title>
<path fill="none" stroke="midnightblue" d="M1303.54,-268.213C1306.95,-259.269 1311.9,-244.921 1314,-232 1320.69,-190.889 1319.9,-142.261 1318.56,-113.615"/>
<polygon fill="midnightblue" stroke="midnightblue" points="1322.04,-113.128 1318.02,-103.328 1315.05,-113.499 1322.04,-113.128"/>
</g>
<!-- Node8 -->
<g id="node8" class="node"><title>Node8</title>
<polygon fill="white" stroke="#bfbfbf" points="452.5,-73 452.5,-103 583.5,-103 583.5,-73 452.5,-73"/>
<text text-anchor="start" x="460.5" y="-91" font-family="Helvetica,sans-Serif" font-size="10.00">pinocchio/multibody</text>
<text text-anchor="middle" x="518" y="-80" font-family="Helvetica,sans-Serif" font-size="10.00">/liegroup/vector&#45;space.hpp</text>
</g>
<!-- Node1&#45;&gt;Node8 -->
<g id="edge7" class="edge"><title>Node1&#45;&gt;Node8</title>
<path fill="none" stroke="midnightblue" d="M1253.42,-276.908C1107.11,-275.693 659.993,-264.653 552,-176 533.088,-160.475 524.658,-133.029 520.924,-113.107"/>
<polygon fill="midnightblue" stroke="midnightblue" points="524.375,-112.525 519.332,-103.207 517.464,-113.636 524.375,-112.525"/>
</g>
<!-- Node9 -->
<g id="node9" class="node"><title>Node9</title>
<g id="a_node9"><a xlink:href="a00105.html" target="_top" xlink:title="hpp/pinocchio/liegroup.hh">
<polygon fill="white" stroke="black" points="875.5,-212.5 875.5,-231.5 1002.5,-231.5 1002.5,-212.5 875.5,-212.5"/>
<text text-anchor="middle" x="939" y="-219.5" font-family="Helvetica,sans-Serif" font-size="10.00">hpp/pinocchio/liegroup.hh</text>
</a>
</g>
</g>
<!-- Node1&#45;&gt;Node9 -->
<g id="edge8" class="edge"><title>Node1&#45;&gt;Node9</title>
<path fill="none" stroke="midnightblue" d="M1253.18,-269.996C1190.26,-260.585 1078.05,-243.8 1006.15,-233.045"/>
<polygon fill="midnightblue" stroke="midnightblue" points="1006.25,-229.521 995.845,-231.503 1005.22,-236.444 1006.25,-229.521"/>
</g>
<!-- Node14 -->
<g id="node14" class="node"><title>Node14</title>
<g id="a_node14"><a xlink:href="a00098.html" target="_top" xlink:title="hpp/pinocchio/fwd.hh">
<polygon fill="white" stroke="black" points="325.5,-78.5 325.5,-97.5 434.5,-97.5 434.5,-78.5 325.5,-78.5"/>
<text text-anchor="middle" x="380" y="-85.5" font-family="Helvetica,sans-Serif" font-size="10.00">hpp/pinocchio/fwd.hh</text>
</a>
</g>
</g>
<!-- Node1&#45;&gt;Node14 -->
<g id="edge30" class="edge"><title>Node1&#45;&gt;Node14</title>
<path fill="none" stroke="midnightblue" d="M1253.4,-276.427C1121.6,-274.402 748.17,-265.763 631,-232 536.018,-204.631 438.51,-134.642 398.666,-103.883"/>
<polygon fill="midnightblue" stroke="midnightblue" points="400.676,-101.011 390.641,-97.612 396.366,-106.527 400.676,-101.011"/>
</g>
<!-- Node10 -->
<g id="node10" class="node"><title>Node10</title>
<polygon fill="white" stroke="#bfbfbf" points="767.5,-0.5 767.5,-30.5 870.5,-30.5 870.5,-0.5 767.5,-0.5"/>
<text text-anchor="start" x="775.5" y="-18.5" font-family="Helvetica,sans-Serif" font-size="10.00">pinocchio/multibody</text>
<text text-anchor="middle" x="819" y="-7.5" font-family="Helvetica,sans-Serif" font-size="10.00">/joint/fwd.hpp</text>
</g>
<!-- Node9&#45;&gt;Node10 -->
<g id="edge9" class="edge"><title>Node9&#45;&gt;Node10</title>
<path fill="none" stroke="midnightblue" d="M912.566,-212.426C894.871,-205.359 872.441,-193.606 859,-176 842.848,-154.844 829.004,-79.8839 822.675,-40.7253"/>
<polygon fill="midnightblue" stroke="midnightblue" points="826.11,-40.0365 821.093,-30.7044 819.195,-41.1278 826.11,-40.0365"/>
</g>
<!-- Node11 -->
<g id="node11" class="node"><title>Node11</title>
<polygon fill="white" stroke="#bfbfbf" points="868.5,-151 868.5,-170 1009.5,-170 1009.5,-151 868.5,-151"/>
<text text-anchor="middle" x="939" y="-158" font-family="Helvetica,sans-Serif" font-size="10.00">hpp/pinocchio/deprecated.hh</text>
</g>
<!-- Node9&#45;&gt;Node11 -->
<g id="edge10" class="edge"><title>Node9&#45;&gt;Node11</title>
<path fill="none" stroke="midnightblue" d="M939,-212.475C939,-204.08 939,-190.981 939,-180.163"/>
<polygon fill="midnightblue" stroke="midnightblue" points="942.5,-180.009 939,-170.009 935.5,-180.009 942.5,-180.009"/>
</g>
<!-- Node12 -->
<g id="node12" class="node"><title>Node12</title>
<g id="a_node12"><a xlink:href="a00114.html" target="_top" xlink:title="hpp/pinocchio/liegroup\l/vector&#45;space.hh">
<polygon fill="white" stroke="black" points="561.5,-145.5 561.5,-175.5 674.5,-175.5 674.5,-145.5 561.5,-145.5"/>
<text text-anchor="start" x="569.5" y="-163.5" font-family="Helvetica,sans-Serif" font-size="10.00">hpp/pinocchio/liegroup</text>
<text text-anchor="middle" x="618" y="-152.5" font-family="Helvetica,sans-Serif" font-size="10.00">/vector&#45;space.hh</text>
</a>
</g>
</g>
<!-- Node9&#45;&gt;Node12 -->
<g id="edge11" class="edge"><title>Node9&#45;&gt;Node12</title>
<path fill="none" stroke="midnightblue" d="M889.604,-212.459C839.129,-203.65 758.51,-189.352 689,-176 687.533,-175.718 686.049,-175.431 684.553,-175.14"/>
<polygon fill="midnightblue" stroke="midnightblue" points="685.045,-171.67 674.558,-173.174 683.694,-178.539 685.045,-171.67"/>
</g>
<!-- Node21 -->
<g id="node21" class="node"><title>Node21</title>
<g id="a_node21"><a xlink:href="a00089.html" target="_top" xlink:title="hpp/pinocchio/liegroup\l/cartesian&#45;product.hh">
<polygon fill="white" stroke="black" points="698.5,-145.5 698.5,-175.5 811.5,-175.5 811.5,-145.5 698.5,-145.5"/>
<text text-anchor="start" x="706.5" y="-163.5" font-family="Helvetica,sans-Serif" font-size="10.00">hpp/pinocchio/liegroup</text>
<text text-anchor="middle" x="755" y="-152.5" font-family="Helvetica,sans-Serif" font-size="10.00">/cartesian&#45;product.hh</text>
</a>
</g>
</g>
<!-- Node9&#45;&gt;Node21 -->
<g id="edge23" class="edge"><title>Node9&#45;&gt;Node21</title>
<path fill="none" stroke="midnightblue" d="M912.637,-212.475C885.505,-203.701 842.479,-189.788 808.228,-178.712"/>
<polygon fill="midnightblue" stroke="midnightblue" points="808.957,-175.27 798.365,-175.523 806.803,-181.93 808.957,-175.27"/>
</g>
<!-- Node23 -->
<g id="node23" class="node"><title>Node23</title>
<g id="a_node23"><a xlink:href="a00111.html" target="_top" xlink:title="hpp/pinocchio/liegroup\l/special&#45;orthogonal.hh">
<polygon fill="white" stroke="black" points="1158.5,-145.5 1158.5,-175.5 1271.5,-175.5 1271.5,-145.5 1158.5,-145.5"/>
<text text-anchor="start" x="1166.5" y="-163.5" font-family="Helvetica,sans-Serif" font-size="10.00">hpp/pinocchio/liegroup</text>
<text text-anchor="middle" x="1215" y="-152.5" font-family="Helvetica,sans-Serif" font-size="10.00">/special&#45;orthogonal.hh</text>
</a>
</g>
</g>
<!-- Node9&#45;&gt;Node23 -->
<g id="edge26" class="edge"><title>Node9&#45;&gt;Node23</title>
<path fill="none" stroke="midnightblue" d="M979.272,-212.435C1019.49,-203.867 1083.35,-190.223 1148.45,-176.114"/>
<polygon fill="midnightblue" stroke="midnightblue" points="1149.45,-179.478 1158.48,-173.938 1147.96,-172.637 1149.45,-179.478"/>
</g>
<!-- Node24 -->
<g id="node24" class="node"><title>Node24</title>
<g id="a_node24"><a xlink:href="a00110.html" target="_top" xlink:title="hpp/pinocchio/liegroup\l/special&#45;euclidean.hh">
<polygon fill="white" stroke="black" points="1027.5,-145.5 1027.5,-175.5 1140.5,-175.5 1140.5,-145.5 1027.5,-145.5"/>
<text text-anchor="start" x="1035.5" y="-163.5" font-family="Helvetica,sans-Serif" font-size="10.00">hpp/pinocchio/liegroup</text>
<text text-anchor="middle" x="1084" y="-152.5" font-family="Helvetica,sans-Serif" font-size="10.00">/special&#45;euclidean.hh</text>
</a>
</g>
</g>
<!-- Node9&#45;&gt;Node24 -->
<g id="edge28" class="edge"><title>Node9&#45;&gt;Node24</title>
<path fill="none" stroke="midnightblue" d="M959.775,-212.475C980.698,-203.889 1013.61,-190.383 1040.31,-179.429"/>
<polygon fill="midnightblue" stroke="midnightblue" points="1041.9,-182.557 1049.83,-175.523 1039.25,-176.081 1041.9,-182.557"/>
</g>
<!-- Node12&#45;&gt;Node8 -->
<g id="edge12" class="edge"><title>Node12&#45;&gt;Node8</title>
<path fill="none" stroke="midnightblue" d="M597.764,-145.233C582.892,-134.749 562.498,-120.371 546.054,-108.778"/>
<polygon fill="midnightblue" stroke="midnightblue" points="548.055,-105.906 537.865,-103.005 544.021,-111.628 548.055,-105.906"/>
</g>
<!-- Node13 -->
<g id="node13" class="node"><title>Node13</title>
<g id="a_node13"><a doxygen="/local/devel/hpp/install/share/doc/hpp-util/doxygen-html/hpp-util.doxytag:../../hpp-util/doxygen-html/" xlink:href="../../hpp-util/doxygen-html/a00020.html" target="_top" xlink:title="hpp/util/exception\l&#45;factory.hh">
<polygon fill="white" stroke="black" points="601.5,-73 601.5,-103 694.5,-103 694.5,-73 601.5,-73"/>
<text text-anchor="start" x="609.5" y="-91" font-family="Helvetica,sans-Serif" font-size="10.00">hpp/util/exception</text>
<text text-anchor="middle" x="648" y="-80" font-family="Helvetica,sans-Serif" font-size="10.00">&#45;factory.hh</text>
</a>
</g>
</g>
<!-- Node12&#45;&gt;Node13 -->
<g id="edge13" class="edge"><title>Node12&#45;&gt;Node13</title>
<path fill="none" stroke="midnightblue" d="M624.071,-145.233C628.056,-135.869 633.363,-123.397 637.966,-112.579"/>
<polygon fill="midnightblue" stroke="midnightblue" points="641.243,-113.818 641.938,-103.246 634.802,-111.077 641.243,-113.818"/>
</g>
<!-- Node12&#45;&gt;Node14 -->
<g id="edge14" class="edge"><title>Node12&#45;&gt;Node14</title>
<path fill="none" stroke="midnightblue" d="M568.111,-145.483C533.044,-135.537 485.066,-121.744 443,-109 434.223,-106.341 424.785,-103.393 415.956,-100.595"/>
<polygon fill="midnightblue" stroke="midnightblue" points="416.903,-97.2238 406.313,-97.5242 414.779,-103.894 416.903,-97.2238"/>
</g>
<!-- Node14&#45;&gt;Node2 -->
<g id="edge15" class="edge"><title>Node14&#45;&gt;Node2</title>
<path fill="none" stroke="midnightblue" d="M325.429,-82.1657C259.645,-75.3153 146.301,-60.2257 53,-31 51.1289,-30.4139 49.2251,-29.738 47.3281,-29.0051"/>
<polygon fill="midnightblue" stroke="midnightblue" points="48.6512,-25.7642 38.0827,-25.0185 45.8795,-32.1921 48.6512,-25.7642"/>
</g>
<!-- Node14&#45;&gt;Node10 -->
<g id="edge22" class="edge"><title>Node14&#45;&gt;Node10</title>
<path fill="none" stroke="midnightblue" d="M403.349,-78.4275C415.101,-74.4116 429.653,-69.887 443,-67 575.117,-38.4226 611.47,-52.0108 745,-31 749.074,-30.359 753.265,-29.6562 757.484,-28.9165"/>
<polygon fill="midnightblue" stroke="midnightblue" points="758.117,-32.359 767.335,-27.1354 756.871,-25.4706 758.117,-32.359"/>
</g>
<!-- Node15 -->
<g id="node15" class="node"><title>Node15</title>
<polygon fill="white" stroke="#bfbfbf" points="462.5,-6 462.5,-25 527.5,-25 527.5,-6 462.5,-6"/>
<text text-anchor="middle" x="495" y="-13" font-family="Helvetica,sans-Serif" font-size="10.00">Eigen/Core</text>
</g>
<!-- Node14&#45;&gt;Node15 -->
<g id="edge16" class="edge"><title>Node14&#45;&gt;Node15</title>
<path fill="none" stroke="midnightblue" d="M394.101,-78.3553C413.586,-66.4101 448.968,-44.7199 472.227,-30.4608"/>
<polygon fill="midnightblue" stroke="midnightblue" points="474.087,-33.4259 480.783,-25.2154 470.429,-27.458 474.087,-33.4259"/>
</g>
<!-- Node16 -->
<g id="node16" class="node"><title>Node16</title>
<g id="a_node16"><a doxygen="/local/devel/hpp/install/share/doc/hpp-util/doxygen-html/hpp-util.doxytag:../../hpp-util/doxygen-html/" xlink:href="../../hpp-util/doxygen-html/a00028.html" target="_top" xlink:title="hpp/util/pointer.hh">
<polygon fill="white" stroke="black" points="546,-6 546,-25 640,-25 640,-6 546,-6"/>
<text text-anchor="middle" x="593" y="-13" font-family="Helvetica,sans-Serif" font-size="10.00">hpp/util/pointer.hh</text>
</a>
</g>
</g>
<!-- Node14&#45;&gt;Node16 -->
<g id="edge17" class="edge"><title>Node14&#45;&gt;Node16</title>
<path fill="none" stroke="midnightblue" d="M405.693,-78.4961C443.594,-65.9513 514.618,-42.4432 557.482,-28.256"/>
<polygon fill="midnightblue" stroke="midnightblue" points="558.822,-31.4991 567.216,-25.0341 556.623,-24.8537 558.822,-31.4991"/>
</g>
<!-- Node17 -->
<g id="node17" class="node"><title>Node17</title>
<polygon fill="white" stroke="#bfbfbf" points="658,-6 658,-25 736,-25 736,-6 658,-6"/>
<text text-anchor="middle" x="697" y="-13" font-family="Helvetica,sans-Serif" font-size="10.00">hpp/fcl/fwd.hh</text>
</g>
<!-- Node14&#45;&gt;Node17 -->
<g id="edge18" class="edge"><title>Node14&#45;&gt;Node17</title>
<path fill="none" stroke="midnightblue" d="M404.316,-78.4392C415.923,-74.5701 430.071,-70.1668 443,-67 533.275,-44.8888 558.572,-52.4774 649,-31 652.891,-30.0759 656.931,-29.0166 660.941,-27.9003"/>
<polygon fill="midnightblue" stroke="midnightblue" points="662.12,-31.2026 670.747,-25.0527 660.168,-24.4803 662.12,-31.2026"/>
</g>
<!-- Node18 -->
<g id="node18" class="node"><title>Node18</title>
<polygon fill="white" stroke="#bfbfbf" points="62,-6 62,-25 178,-25 178,-6 62,-6"/>
<text text-anchor="middle" x="120" y="-13" font-family="Helvetica,sans-Serif" font-size="10.00">hpp/fcl/collision_data.h</text>
</g>
<!-- Node14&#45;&gt;Node18 -->
<g id="edge19" class="edge"><title>Node14&#45;&gt;Node18</title>
<path fill="none" stroke="midnightblue" d="M348.638,-78.4961C301.788,-65.7925 213.476,-41.8463 161.385,-27.7218"/>
<polygon fill="midnightblue" stroke="midnightblue" points="162.041,-24.2732 151.473,-25.0341 160.209,-31.0292 162.041,-24.2732"/>
</g>
<!-- Node19 -->
<g id="node19" class="node"><title>Node19</title>
<polygon fill="white" stroke="#bfbfbf" points="196.5,-6 196.5,-25 323.5,-25 323.5,-6 196.5,-6"/>
<text text-anchor="middle" x="260" y="-13" font-family="Helvetica,sans-Serif" font-size="10.00">pinocchio/spatial/fwd.hpp</text>
</g>
<!-- Node14&#45;&gt;Node19 -->
<g id="edge20" class="edge"><title>Node14&#45;&gt;Node19</title>
<path fill="none" stroke="midnightblue" d="M365.286,-78.3553C344.953,-66.4101 308.034,-44.7199 283.763,-30.4608"/>
<polygon fill="midnightblue" stroke="midnightblue" points="285.23,-27.2632 274.835,-25.2154 281.684,-33.2987 285.23,-27.2632"/>
</g>
<!-- Node20 -->
<g id="node20" class="node"><title>Node20</title>
<polygon fill="white" stroke="#bfbfbf" points="341.5,-0.5 341.5,-30.5 444.5,-30.5 444.5,-0.5 341.5,-0.5"/>
<text text-anchor="start" x="349.5" y="-18.5" font-family="Helvetica,sans-Serif" font-size="10.00">pinocchio/multibody</text>
<text text-anchor="middle" x="393" y="-7.5" font-family="Helvetica,sans-Serif" font-size="10.00">/fwd.hpp</text>
</g>
<!-- Node14&#45;&gt;Node20 -->
<g id="edge21" class="edge"><title>Node14&#45;&gt;Node20</title>
<path fill="none" stroke="midnightblue" d="M381.594,-78.3553C383.327,-68.9552 386.174,-53.5202 388.589,-40.4209"/>
<polygon fill="midnightblue" stroke="midnightblue" points="392.033,-41.0451 390.404,-30.5762 385.149,-39.7756 392.033,-41.0451"/>
</g>
<!-- Node21&#45;&gt;Node13 -->
<g id="edge25" class="edge"><title>Node21&#45;&gt;Node13</title>
<path fill="none" stroke="midnightblue" d="M733.604,-145.403C717.712,-134.932 695.823,-120.51 678.158,-108.87"/>
<polygon fill="midnightblue" stroke="midnightblue" points="679.635,-105.652 669.359,-103.073 675.784,-111.497 679.635,-105.652"/>
</g>
<!-- Node22 -->
<g id="node22" class="node"><title>Node22</title>
<polygon fill="white" stroke="#bfbfbf" points="712.5,-67.5 712.5,-108.5 815.5,-108.5 815.5,-67.5 712.5,-67.5"/>
<text text-anchor="start" x="720.5" y="-96.5" font-family="Helvetica,sans-Serif" font-size="10.00">pinocchio/multibody</text>
<text text-anchor="start" x="720.5" y="-85.5" font-family="Helvetica,sans-Serif" font-size="10.00">/liegroup/cartesian</text>
<text text-anchor="middle" x="764" y="-74.5" font-family="Helvetica,sans-Serif" font-size="10.00">&#45;product.hpp</text>
</g>
<!-- Node21&#45;&gt;Node22 -->
<g id="edge24" class="edge"><title>Node21&#45;&gt;Node22</title>
<path fill="none" stroke="midnightblue" d="M756.821,-145.233C757.799,-137.574 759.042,-127.837 760.218,-118.626"/>
<polygon fill="midnightblue" stroke="midnightblue" points="763.705,-118.951 761.499,-108.588 756.761,-118.065 763.705,-118.951"/>
</g>
<!-- Node23&#45;&gt;Node7 -->
<g id="edge27" class="edge"><title>Node23&#45;&gt;Node7</title>
<path fill="none" stroke="midnightblue" d="M1235.64,-145.233C1250.81,-134.749 1271.61,-120.371 1288.39,-108.778"/>
<polygon fill="midnightblue" stroke="midnightblue" points="1290.5,-111.57 1296.74,-103.005 1286.52,-105.812 1290.5,-111.57"/>
</g>
<!-- Node24&#45;&gt;Node6 -->
<g id="edge29" class="edge"><title>Node24&#45;&gt;Node6</title>
<path fill="none" stroke="midnightblue" d="M1092.5,-145.233C1098.19,-135.677 1105.81,-122.887 1112.35,-111.919"/>
<polygon fill="midnightblue" stroke="midnightblue" points="1115.4,-113.628 1117.51,-103.246 1109.39,-110.045 1115.4,-113.628"/>
</g>
</g>
</svg>
