<?xml version="1.0" encoding="UTF-8" standalone="no"?>
<!DOCTYPE svg PUBLIC "-//W3C//DTD SVG 1.1//EN"
 "http://www.w3.org/Graphics/SVG/1.1/DTD/svg11.dtd">
<!-- Generated by graphviz version 2.38.0 (20140413.2041)
 -->
<!-- Title: cartesian&#45;product.hh Pages: 1 -->
<svg width="222pt" height="106pt"
 viewBox="0.00 0.00 222.00 106.00" xmlns="http://www.w3.org/2000/svg" xmlns:xlink="http://www.w3.org/1999/xlink">
<g id="graph0" class="graph" transform="scale(1 1) rotate(0) translate(4 102)">
<title>cartesian&#45;product.hh</title>
<polygon fill="white" stroke="none" points="-4,4 -4,-102 218,-102 218,4 -4,4"/>
<!-- Node1 -->
<g id="node1" class="node"><title>Node1</title>
<polygon fill="#bfbfbf" stroke="black" points="57,-78.5 57,-97.5 162,-97.5 162,-78.5 57,-78.5"/>
<text text-anchor="middle" x="109.5" y="-85.5" font-family="Helvetica,sans-Serif" font-size="10.00">cartesian&#45;product.hh</text>
</g>
<!-- Node2 -->
<g id="node2" class="node"><title>Node2</title>
<polygon fill="white" stroke="#bfbfbf" points="0,-0.5 0,-41.5 103,-41.5 103,-0.5 0,-0.5"/>
<text text-anchor="start" x="8" y="-29.5" font-family="Helvetica,sans-Serif" font-size="10.00">pinocchio/multibody</text>
<text text-anchor="start" x="8" y="-18.5" font-family="Helvetica,sans-Serif" font-size="10.00">/liegroup/cartesian</text>
<text text-anchor="middle" x="51.5" y="-7.5" font-family="Helvetica,sans-Serif" font-size="10.00">&#45;product.hpp</text>
</g>
<!-- Node1&#45;&gt;Node2 -->
<g id="edge1" class="edge"><title>Node1&#45;&gt;Node2</title>
<path fill="none" stroke="midnightblue" d="M101.678,-78.2338C95.025,-70.7781 85.1027,-59.6581 75.8335,-49.2703"/>
<polygon fill="midnightblue" stroke="midnightblue" points="78.207,-46.6732 68.9375,-41.5421 72.9839,-51.3338 78.207,-46.6732"/>
</g>
<!-- Node3 -->
<g id="node3" class="node"><title>Node3</title>
<g id="a_node3"><a doxygen="/local/devel/hpp/install/share/doc/hpp-util/doxygen-html/hpp-util.doxytag:../../hpp-util/doxygen-html/" xlink:href="../../hpp-util/doxygen-html/a00020.html" target="_top" xlink:title="hpp/util/exception\l&#45;factory.hh">
<polygon fill="white" stroke="black" points="121,-6 121,-36 214,-36 214,-6 121,-6"/>
<text text-anchor="start" x="129" y="-24" font-family="Helvetica,sans-Serif" font-size="10.00">hpp/util/exception</text>
<text text-anchor="middle" x="167.5" y="-13" font-family="Helvetica,sans-Serif" font-size="10.00">&#45;factory.hh</text>
</a>
</g>
</g>
<!-- Node1&#45;&gt;Node3 -->
<g id="edge2" class="edge"><title>Node1&#45;&gt;Node3</title>
<path fill="none" stroke="midnightblue" d="M117.322,-78.2338C125.161,-69.4493 137.538,-55.5783 148.038,-43.8111"/>
<polygon fill="midnightblue" stroke="midnightblue" points="150.882,-45.8807 154.928,-36.089 145.659,-41.2202 150.882,-45.8807"/>
</g>
</g>
</svg>
