<?xml version="1.0" encoding="UTF-8" standalone="no"?>
<!DOCTYPE svg PUBLIC "-//W3C//DTD SVG 1.1//EN"
 "http://www.w3.org/Graphics/SVG/1.1/DTD/svg11.dtd">
<!-- Generated by graphviz version 2.38.0 (20140413.2041)
 -->
<!-- Title: hpp::pinocchio::Device Pages: 1 -->
<svg width="138pt" height="162pt"
 viewBox="0.00 0.00 138.00 162.00" xmlns="http://www.w3.org/2000/svg" xmlns:xlink="http://www.w3.org/1999/xlink">
<g id="graph0" class="graph" transform="scale(1 1) rotate(0) translate(4 158)">
<title>hpp::pinocchio::Device</title>
<polygon fill="white" stroke="none" points="-4,4 -4,-158 134,-158 134,4 -4,4"/>
<!-- Node1 -->
<g id="node1" class="node"><title>Node1</title>
<polygon fill="#bfbfbf" stroke="black" points="7,-67.5 7,-86.5 123,-86.5 123,-67.5 7,-67.5"/>
<text text-anchor="middle" x="65" y="-74.5" font-family="Helvetica,sans-Serif" font-size="10.00">hpp::pinocchio::Device</text>
</g>
<!-- Node3 -->
<g id="node3" class="node"><title>Node3</title>
<g id="a_node3"><a xlink:href="a00073.html" target="_top" xlink:title="Humanoid robot. ">
<polygon fill="white" stroke="black" points="0,-0.5 0,-30.5 130,-30.5 130,-0.5 0,-0.5"/>
<text text-anchor="start" x="8" y="-18.5" font-family="Helvetica,sans-Serif" font-size="10.00">hpp::pinocchio::Humanoid</text>
<text text-anchor="middle" x="65" y="-7.5" font-family="Helvetica,sans-Serif" font-size="10.00">Robot</text>
</a>
</g>
</g>
<!-- Node1&#45;&gt;Node3 -->
<g id="edge2" class="edge"><title>Node1&#45;&gt;Node3</title>
<path fill="none" stroke="midnightblue" d="M65,-57.2349C65,-48.5864 65,-38.4969 65,-30.523"/>
<polygon fill="midnightblue" stroke="midnightblue" points="61.5001,-57.4751 65,-67.4751 68.5001,-57.4751 61.5001,-57.4751"/>
</g>
<!-- Node2 -->
<g id="node2" class="node"><title>Node2</title>
<g id="a_node2"><a xlink:href="a00061.html" target="_top" xlink:title="Abstract class representing a Device. ">
<polygon fill="white" stroke="black" points="4,-123.5 4,-153.5 126,-153.5 126,-123.5 4,-123.5"/>
<text text-anchor="start" x="12" y="-141.5" font-family="Helvetica,sans-Serif" font-size="10.00">hpp::pinocchio::Abstract</text>
<text text-anchor="middle" x="65" y="-130.5" font-family="Helvetica,sans-Serif" font-size="10.00">Device</text>
</a>
</g>
</g>
<!-- Node2&#45;&gt;Node1 -->
<g id="edge1" class="edge"><title>Node2&#45;&gt;Node1</title>
<path fill="none" stroke="midnightblue" d="M65,-113.289C65,-103.857 65,-93.6548 65,-86.6578"/>
<polygon fill="midnightblue" stroke="midnightblue" points="61.5001,-113.399 65,-123.399 68.5001,-113.399 61.5001,-113.399"/>
</g>
</g>
</svg>
