<?xml version="1.0" encoding="UTF-8" standalone="no"?>
<!DOCTYPE svg PUBLIC "-//W3C//DTD SVG 1.1//EN"
 "http://www.w3.org/Graphics/SVG/1.1/DTD/svg11.dtd">
<!-- Generated by graphviz version 2.38.0 (20140413.2041)
 -->
<!-- Title: extra&#45;config&#45;space.hh Pages: 1 -->
<svg width="384pt" height="140pt"
 viewBox="0.00 0.00 384.00 140.00" xmlns="http://www.w3.org/2000/svg" xmlns:xlink="http://www.w3.org/1999/xlink">
<g id="graph0" class="graph" transform="scale(1 1) rotate(0) translate(4 136)">
<title>extra&#45;config&#45;space.hh</title>
<polygon fill="white" stroke="none" points="-4,4 -4,-136 380,-136 380,4 -4,4"/>
<!-- Node1 -->
<g id="node1" class="node"><title>Node1</title>
<polygon fill="#bfbfbf" stroke="black" points="164,-112.5 164,-131.5 274,-131.5 274,-112.5 164,-112.5"/>
<text text-anchor="middle" x="219" y="-119.5" font-family="Helvetica,sans-Serif" font-size="10.00">extra&#45;config&#45;space.hh</text>
</g>
<!-- Node2 -->
<g id="node2" class="node"><title>Node2</title>
<g id="a_node2"><a xlink:href="a00095.html" target="_top" xlink:title="device.hh">
<polygon fill="white" stroke="black" points="189.5,-56.5 189.5,-75.5 248.5,-75.5 248.5,-56.5 189.5,-56.5"/>
<text text-anchor="middle" x="219" y="-63.5" font-family="Helvetica,sans-Serif" font-size="10.00">device.hh</text>
</a>
</g>
</g>
<!-- Node1&#45;&gt;Node2 -->
<g id="edge1" class="edge"><title>Node1&#45;&gt;Node2</title>
<path fill="none" stroke="midnightblue" d="M219,-101.805C219,-92.9102 219,-82.7798 219,-75.7511"/>
<polygon fill="midnightblue" stroke="midnightblue" points="215.5,-102.083 219,-112.083 222.5,-102.083 215.5,-102.083"/>
</g>
<!-- Node3 -->
<g id="node3" class="node"><title>Node3</title>
<g id="a_node3"><a xlink:href="a00090.html" target="_top" xlink:title="center&#45;of&#45;mass&#45;computation.hh">
<polygon fill="white" stroke="black" points="0,-0.5 0,-19.5 152,-19.5 152,-0.5 0,-0.5"/>
<text text-anchor="middle" x="76" y="-7.5" font-family="Helvetica,sans-Serif" font-size="10.00">center&#45;of&#45;mass&#45;computation.hh</text>
</a>
</g>
</g>
<!-- Node2&#45;&gt;Node3 -->
<g id="edge2" class="edge"><title>Node2&#45;&gt;Node3</title>
<path fill="none" stroke="midnightblue" d="M186.973,-52.9058C160.088,-42.7536 122.359,-28.5063 98.5528,-19.5164"/>
<polygon fill="midnightblue" stroke="midnightblue" points="185.75,-56.1851 196.341,-56.4435 188.222,-49.6364 185.75,-56.1851"/>
</g>
<!-- Node4 -->
<g id="node4" class="node"><title>Node4</title>
<g id="a_node4"><a xlink:href="a00100.html" target="_top" xlink:title="humanoid&#45;robot.hh">
<polygon fill="white" stroke="black" points="170.5,-0.5 170.5,-19.5 267.5,-19.5 267.5,-0.5 170.5,-0.5"/>
<text text-anchor="middle" x="219" y="-7.5" font-family="Helvetica,sans-Serif" font-size="10.00">humanoid&#45;robot.hh</text>
</a>
</g>
</g>
<!-- Node2&#45;&gt;Node4 -->
<g id="edge3" class="edge"><title>Node2&#45;&gt;Node4</title>
<path fill="none" stroke="midnightblue" d="M219,-45.8045C219,-36.9102 219,-26.7798 219,-19.7511"/>
<polygon fill="midnightblue" stroke="midnightblue" points="215.5,-46.083 219,-56.083 222.5,-46.083 215.5,-46.083"/>
</g>
<!-- Node5 -->
<g id="node5" class="node"><title>Node5</title>
<g id="a_node5"><a xlink:href="a00109.html" target="_top" xlink:title="simple&#45;device.hh">
<polygon fill="white" stroke="black" points="286,-0.5 286,-19.5 376,-19.5 376,-0.5 286,-0.5"/>
<text text-anchor="middle" x="331" y="-7.5" font-family="Helvetica,sans-Serif" font-size="10.00">simple&#45;device.hh</text>
</a>
</g>
</g>
<!-- Node2&#45;&gt;Node5 -->
<g id="edge4" class="edge"><title>Node2&#45;&gt;Node5</title>
<path fill="none" stroke="midnightblue" d="M246.249,-51.8622C267.016,-41.8492 295.023,-28.3458 313.05,-19.6545"/>
<polygon fill="midnightblue" stroke="midnightblue" points="244.482,-48.8282 236.995,-56.324 247.523,-55.1336 244.482,-48.8282"/>
</g>
</g>
</svg>
