<?xml version="1.0" encoding="UTF-8" standalone="no"?>
<!DOCTYPE svg PUBLIC "-//W3C//DTD SVG 1.1//EN"
 "http://www.w3.org/Graphics/SVG/1.1/DTD/svg11.dtd">
<!-- Generated by graphviz version 2.38.0 (20140413.2041)
 -->
<!-- Title: pool.hh Pages: 1 -->
<svg width="458pt" height="95pt"
 viewBox="0.00 0.00 457.50 95.00" xmlns="http://www.w3.org/2000/svg" xmlns:xlink="http://www.w3.org/1999/xlink">
<g id="graph0" class="graph" transform="scale(1 1) rotate(0) translate(4 91)">
<title>pool.hh</title>
<polygon fill="white" stroke="none" points="-4,4 -4,-91 453.5,-91 453.5,4 -4,4"/>
<!-- Node1 -->
<g id="node1" class="node"><title>Node1</title>
<polygon fill="#bfbfbf" stroke="black" points="165,-67.5 165,-86.5 213,-86.5 213,-67.5 165,-67.5"/>
<text text-anchor="middle" x="189" y="-74.5" font-family="Helvetica,sans-Serif" font-size="10.00">pool.hh</text>
</g>
<!-- Node2 -->
<g id="node2" class="node"><title>Node2</title>
<polygon fill="white" stroke="#bfbfbf" points="0,-6 0,-25 44,-25 44,-6 0,-6"/>
<text text-anchor="middle" x="22" y="-13" font-family="Helvetica,sans-Serif" font-size="10.00">vector</text>
</g>
<!-- Node1&#45;&gt;Node2 -->
<g id="edge1" class="edge"><title>Node1&#45;&gt;Node2</title>
<path fill="none" stroke="midnightblue" d="M164.616,-68.8822C137.157,-60.6486 91.3618,-46.2567 53,-31 51.6198,-30.4511 50.2134,-29.8711 48.7993,-29.2713"/>
<polygon fill="midnightblue" stroke="midnightblue" points="50.1058,-26.0217 39.5472,-25.1462 47.2553,-32.4151 50.1058,-26.0217"/>
</g>
<!-- Node3 -->
<g id="node3" class="node"><title>Node3</title>
<polygon fill="white" stroke="#bfbfbf" points="62.5,-6 62.5,-25 181.5,-25 181.5,-6 62.5,-6"/>
<text text-anchor="middle" x="122" y="-13" font-family="Helvetica,sans-Serif" font-size="10.00">boost/thread/mutex.hpp</text>
</g>
<!-- Node1&#45;&gt;Node3 -->
<g id="edge2" class="edge"><title>Node1&#45;&gt;Node3</title>
<path fill="none" stroke="midnightblue" d="M179.401,-67.4751C168.952,-58.1966 152.032,-43.1706 139.264,-31.831"/>
<polygon fill="midnightblue" stroke="midnightblue" points="141.383,-29.0323 131.582,-25.0091 136.735,-34.2663 141.383,-29.0323"/>
</g>
<!-- Node4 -->
<g id="node4" class="node"><title>Node4</title>
<polygon fill="white" stroke="#bfbfbf" points="199.5,-0.5 199.5,-30.5 312.5,-30.5 312.5,-0.5 199.5,-0.5"/>
<text text-anchor="start" x="207.5" y="-18.5" font-family="Helvetica,sans-Serif" font-size="10.00">boost/thread/condition</text>
<text text-anchor="middle" x="256" y="-7.5" font-family="Helvetica,sans-Serif" font-size="10.00">_variable.hpp</text>
</g>
<!-- Node1&#45;&gt;Node4 -->
<g id="edge3" class="edge"><title>Node1&#45;&gt;Node4</title>
<path fill="none" stroke="midnightblue" d="M198.599,-67.4751C207.419,-59.6426 220.851,-47.7145 232.504,-37.3656"/>
<polygon fill="midnightblue" stroke="midnightblue" points="235.056,-39.7802 240.209,-30.523 230.408,-34.5462 235.056,-39.7802"/>
</g>
<!-- Node5 -->
<g id="node5" class="node"><title>Node5</title>
<polygon fill="white" stroke="#bfbfbf" points="330.5,-6 330.5,-25 449.5,-25 449.5,-6 330.5,-6"/>
<text text-anchor="middle" x="390" y="-13" font-family="Helvetica,sans-Serif" font-size="10.00">hpp/pinocchio/config.hh</text>
</g>
<!-- Node1&#45;&gt;Node5 -->
<g id="edge4" class="edge"><title>Node1&#45;&gt;Node5</title>
<path fill="none" stroke="midnightblue" d="M213.245,-68.8229C247.585,-58.6576 310.74,-39.9626 351.522,-27.8903"/>
<polygon fill="midnightblue" stroke="midnightblue" points="352.53,-31.2422 361.125,-25.0477 350.543,-24.5301 352.53,-31.2422"/>
</g>
</g>
</svg>
