<?xml version="1.0" encoding="UTF-8" standalone="no"?>
<!DOCTYPE svg PUBLIC "-//W3C//DTD SVG 1.1//EN"
 "http://www.w3.org/Graphics/SVG/1.1/DTD/svg11.dtd">
<!-- Generated by graphviz version 2.38.0 (20140413.2041)
 -->
<!-- Title: hpp::pinocchio::liegroup::VectorSpaceOperation&lt; Size, rot &gt; Pages: 1 -->
<svg width="170pt" height="195pt"
 viewBox="0.00 0.00 170.00 195.00" xmlns="http://www.w3.org/2000/svg" xmlns:xlink="http://www.w3.org/1999/xlink">
<g id="graph0" class="graph" transform="scale(1 1) rotate(0) translate(4 191)">
<title>hpp::pinocchio::liegroup::VectorSpaceOperation&lt; Size, rot &gt;</title>
<polygon fill="white" stroke="none" points="-4,4 -4,-191 166,-191 166,4 -4,4"/>
<!-- Node1 -->
<g id="node1" class="node"><title>Node1</title>
<polygon fill="#bfbfbf" stroke="black" points="20.5,-0.5 20.5,-41.5 141.5,-41.5 141.5,-0.5 20.5,-0.5"/>
<text text-anchor="start" x="28.5" y="-29.5" font-family="Helvetica,sans-Serif" font-size="10.00">hpp::pinocchio::liegroup</text>
<text text-anchor="start" x="28.5" y="-18.5" font-family="Helvetica,sans-Serif" font-size="10.00">::VectorSpaceOperation</text>
<text text-anchor="middle" x="81" y="-7.5" font-family="Helvetica,sans-Serif" font-size="10.00">&lt; Size, rot &gt;</text>
</g>
<!-- Node2 -->
<g id="node2" class="node"><title>Node2</title>
<g id="a_node2"><a doxygen="/local/devel/hpp/install/share/doc/pinocchio/doxygen-html/pinocchio.doxytag:../../pinocchio/doxygen-html/" xlink:href="../../pinocchio/doxygen-html/structpinocchio_1_1VectorSpaceOperationTpl.html" target="_top" xlink:title="pinocchio::VectorSpaceOperation\lTpl\&lt; Size, value_type \&gt;">
<polygon fill="white" stroke="black" points="0,-78.5 0,-108.5 162,-108.5 162,-78.5 0,-78.5"/>
<text text-anchor="start" x="8" y="-96.5" font-family="Helvetica,sans-Serif" font-size="10.00">pinocchio::VectorSpaceOperation</text>
<text text-anchor="middle" x="81" y="-85.5" font-family="Helvetica,sans-Serif" font-size="10.00">Tpl&lt; Size, value_type &gt;</text>
</a>
</g>
</g>
<!-- Node2&#45;&gt;Node1 -->
<g id="edge1" class="edge"><title>Node2&#45;&gt;Node1</title>
<path fill="none" stroke="midnightblue" d="M81,-67.9815C81,-59.3468 81,-49.7625 81,-41.5884"/>
<polygon fill="midnightblue" stroke="midnightblue" points="77.5001,-68.2332 81,-78.2333 84.5001,-68.2333 77.5001,-68.2332"/>
</g>
<!-- Node3 -->
<g id="node3" class="node"><title>Node3</title>
<g id="a_node3"><a doxygen="/local/devel/hpp/install/share/doc/pinocchio/doxygen-html/pinocchio.doxytag:../../pinocchio/doxygen-html/" xlink:href="../../pinocchio/doxygen-html/structpinocchio_1_1LieGroupBase.html" target="_top" xlink:title="pinocchio::LieGroupBase\l\&lt; VectorSpaceOperationTpl\l\&lt; Size, _Scalar, _Options \&gt; \&gt;">
<polygon fill="white" stroke="black" points="7.5,-145.5 7.5,-186.5 154.5,-186.5 154.5,-145.5 7.5,-145.5"/>
<text text-anchor="start" x="15.5" y="-174.5" font-family="Helvetica,sans-Serif" font-size="10.00">pinocchio::LieGroupBase</text>
<text text-anchor="start" x="15.5" y="-163.5" font-family="Helvetica,sans-Serif" font-size="10.00">&lt; VectorSpaceOperationTpl</text>
<text text-anchor="middle" x="81" y="-152.5" font-family="Helvetica,sans-Serif" font-size="10.00">&lt; Size, _Scalar, _Options &gt; &gt;</text>
</a>
</g>
</g>
<!-- Node3&#45;&gt;Node2 -->
<g id="edge2" class="edge"><title>Node3&#45;&gt;Node2</title>
<path fill="none" stroke="midnightblue" d="M81,-135.08C81,-126.006 81,-116.45 81,-108.892"/>
<polygon fill="midnightblue" stroke="midnightblue" points="77.5001,-135.362 81,-145.362 84.5001,-135.362 77.5001,-135.362"/>
</g>
</g>
</svg>
