<?xml version="1.0" encoding="UTF-8" standalone="no"?>
<!DOCTYPE svg PUBLIC "-//W3C//DTD SVG 1.1//EN"
 "http://www.w3.org/Graphics/SVG/1.1/DTD/svg11.dtd">
<!-- Generated by graphviz version 2.38.0 (20140413.2041)
 -->
<!-- Title: Graphical Class Hierarchy Pages: 1 -->
<svg width="510pt" height="50pt"
 viewBox="0.00 0.00 510.00 50.00" xmlns="http://www.w3.org/2000/svg" xmlns:xlink="http://www.w3.org/1999/xlink">
<g id="graph0" class="graph" transform="scale(1 1) rotate(0) translate(4 46)">
<title>Graphical Class Hierarchy</title>
<polygon fill="white" stroke="none" points="-4,4 -4,-46 506,-46 506,4 -4,4"/>
<!-- Node1 -->
<g id="node1" class="node"><title>Node1</title>
<g id="a_node1"><a doxygen="/local/devel/hpp/install/share/doc/pinocchio/doxygen-html/pinocchio.doxytag:../../pinocchio/doxygen-html/" xlink:href="../../pinocchio/doxygen-html/structpinocchio_1_1LieGroupBase.html" target="_top" xlink:title="pinocchio::LieGroupBase\l\&lt; VectorSpaceOperationTpl\l\&lt; Size, _Scalar, _Options \&gt; \&gt;">
<polygon fill="white" stroke="black" points="0,-0.5 0,-41.5 147,-41.5 147,-0.5 0,-0.5"/>
<text text-anchor="start" x="8" y="-29.5" font-family="Helvetica,sans-Serif" font-size="10.00">pinocchio::LieGroupBase</text>
<text text-anchor="start" x="8" y="-18.5" font-family="Helvetica,sans-Serif" font-size="10.00">&lt; VectorSpaceOperationTpl</text>
<text text-anchor="middle" x="73.5" y="-7.5" font-family="Helvetica,sans-Serif" font-size="10.00">&lt; Size, _Scalar, _Options &gt; &gt;</text>
</a>
</g>
</g>
<!-- Node2 -->
<g id="node2" class="node"><title>Node2</title>
<g id="a_node2"><a doxygen="/local/devel/hpp/install/share/doc/pinocchio/doxygen-html/pinocchio.doxytag:../../pinocchio/doxygen-html/" xlink:href="../../pinocchio/doxygen-html/structpinocchio_1_1VectorSpaceOperationTpl.html" target="_top" xlink:title="pinocchio::VectorSpaceOperation\lTpl\&lt; Size, value_type \&gt;">
<polygon fill="white" stroke="black" points="183,-6 183,-36 345,-36 345,-6 183,-6"/>
<text text-anchor="start" x="191" y="-24" font-family="Helvetica,sans-Serif" font-size="10.00">pinocchio::VectorSpaceOperation</text>
<text text-anchor="middle" x="264" y="-13" font-family="Helvetica,sans-Serif" font-size="10.00">Tpl&lt; Size, value_type &gt;</text>
</a>
</g>
</g>
<!-- Node1&#45;&gt;Node2 -->
<g id="edge1" class="edge"><title>Node1&#45;&gt;Node2</title>
<path fill="none" stroke="midnightblue" d="M157.372,-21C165.852,-21 174.456,-21 182.905,-21"/>
<polygon fill="midnightblue" stroke="midnightblue" points="157.109,-17.5001 147.109,-21 157.109,-24.5001 157.109,-17.5001"/>
</g>
<!-- Node3 -->
<g id="node3" class="node"><title>Node3</title>
<g id="a_node3"><a xlink:href="a00087.html" target="_top" xlink:title="hpp::pinocchio::liegroup\l::VectorSpaceOperation\l\&lt; Size, rot \&gt;">
<polygon fill="white" stroke="black" points="381,-0.5 381,-41.5 502,-41.5 502,-0.5 381,-0.5"/>
<text text-anchor="start" x="389" y="-29.5" font-family="Helvetica,sans-Serif" font-size="10.00">hpp::pinocchio::liegroup</text>
<text text-anchor="start" x="389" y="-18.5" font-family="Helvetica,sans-Serif" font-size="10.00">::VectorSpaceOperation</text>
<text text-anchor="middle" x="441.5" y="-7.5" font-family="Helvetica,sans-Serif" font-size="10.00">&lt; Size, rot &gt;</text>
</a>
</g>
</g>
<!-- Node2&#45;&gt;Node3 -->
<g id="edge2" class="edge"><title>Node2&#45;&gt;Node3</title>
<path fill="none" stroke="midnightblue" d="M355.217,-21C363.886,-21 372.522,-21 380.788,-21"/>
<polygon fill="midnightblue" stroke="midnightblue" points="355.046,-17.5001 345.046,-21 355.046,-24.5001 355.046,-17.5001"/>
</g>
</g>
</svg>
