<?xml version="1.0" encoding="UTF-8" standalone="no"?>
<!DOCTYPE svg PUBLIC "-//W3C//DTD SVG 1.1//EN"
 "http://www.w3.org/Graphics/SVG/1.1/DTD/svg11.dtd">
<!-- Generated by graphviz version 2.38.0 (20140413.2041)
 -->
<!-- Title: Graphical Class Hierarchy Pages: 1 -->
<svg width="471pt" height="72pt"
 viewBox="0.00 0.00 471.00 71.50" xmlns="http://www.w3.org/2000/svg" xmlns:xlink="http://www.w3.org/1999/xlink">
<g id="graph0" class="graph" transform="scale(1 1) rotate(0) translate(4 67.5)">
<title>Graphical Class Hierarchy</title>
<polygon fill="white" stroke="none" points="-4,4 -4,-67.5 467,-67.5 467,4 -4,4"/>
<!-- Node1 -->
<g id="node1" class="node"><title>Node1</title>
<g id="a_node1"><a xlink:href="a00061.html" target="_top" xlink:title="Abstract class representing a Device. ">
<polygon fill="white" stroke="black" points="0,-14 0,-44 122,-44 122,-14 0,-14"/>
<text text-anchor="start" x="8" y="-32" font-family="Helvetica,sans-Serif" font-size="10.00">hpp::pinocchio::Abstract</text>
<text text-anchor="middle" x="61" y="-21" font-family="Helvetica,sans-Serif" font-size="10.00">Device</text>
</a>
</g>
</g>
<!-- Node2 -->
<g id="node2" class="node"><title>Node2</title>
<g id="a_node2"><a xlink:href="a00067.html" target="_top" xlink:title="Robot with geometric and dynamic pinocchio. ">
<polygon fill="white" stroke="black" points="169.5,-38.5 169.5,-57.5 285.5,-57.5 285.5,-38.5 169.5,-38.5"/>
<text text-anchor="middle" x="227.5" y="-45.5" font-family="Helvetica,sans-Serif" font-size="10.00">hpp::pinocchio::Device</text>
</a>
</g>
</g>
<!-- Node1&#45;&gt;Node2 -->
<g id="edge1" class="edge"><title>Node1&#45;&gt;Node2</title>
<path fill="none" stroke="midnightblue" d="M132.563,-37.1501C144.887,-38.5736 157.569,-40.0384 169.471,-41.413"/>
<polygon fill="midnightblue" stroke="midnightblue" points="132.655,-33.6376 122.32,-35.967 131.852,-40.5914 132.655,-33.6376"/>
</g>
<!-- Node4 -->
<g id="node4" class="node"><title>Node4</title>
<g id="a_node4"><a xlink:href="a00069.html" target="_top" xlink:title="A thread&#45;safe access to a Device. ">
<polygon fill="white" stroke="black" points="158,-0.5 158,-19.5 297,-19.5 297,-0.5 158,-0.5"/>
<text text-anchor="middle" x="227.5" y="-7.5" font-family="Helvetica,sans-Serif" font-size="10.00">hpp::pinocchio::DeviceSync</text>
</a>
</g>
</g>
<!-- Node1&#45;&gt;Node4 -->
<g id="edge3" class="edge"><title>Node1&#45;&gt;Node4</title>
<path fill="none" stroke="midnightblue" d="M132.471,-20.8605C140.881,-19.8891 149.459,-18.8984 157.843,-17.93"/>
<polygon fill="midnightblue" stroke="midnightblue" points="131.852,-17.4086 122.32,-22.033 132.655,-24.3624 131.852,-17.4086"/>
</g>
<!-- Node3 -->
<g id="node3" class="node"><title>Node3</title>
<g id="a_node3"><a xlink:href="a00073.html" target="_top" xlink:title="Humanoid robot. ">
<polygon fill="white" stroke="black" points="333,-33 333,-63 463,-63 463,-33 333,-33"/>
<text text-anchor="start" x="341" y="-51" font-family="Helvetica,sans-Serif" font-size="10.00">hpp::pinocchio::Humanoid</text>
<text text-anchor="middle" x="398" y="-40" font-family="Helvetica,sans-Serif" font-size="10.00">Robot</text>
</a>
</g>
</g>
<!-- Node2&#45;&gt;Node3 -->
<g id="edge2" class="edge"><title>Node2&#45;&gt;Node3</title>
<path fill="none" stroke="midnightblue" d="M295.674,-48C307.9,-48 320.626,-48 332.764,-48"/>
<polygon fill="midnightblue" stroke="midnightblue" points="295.546,-44.5001 285.546,-48 295.546,-51.5001 295.546,-44.5001"/>
</g>
</g>
</svg>
