<?xml version="1.0" encoding="UTF-8" standalone="no"?>
<!DOCTYPE svg PUBLIC "-//W3C//DTD SVG 1.1//EN"
 "http://www.w3.org/Graphics/SVG/1.1/DTD/svg11.dtd">
<!-- Generated by graphviz version 2.38.0 (20140413.2041)
 -->
<!-- Title: MotionRef&lt; Vector6ArgType &gt; Pages: 1 -->
<svg width="158pt" height="162pt"
 viewBox="0.00 0.00 158.00 162.00" xmlns="http://www.w3.org/2000/svg" xmlns:xlink="http://www.w3.org/1999/xlink">
<g id="graph0" class="graph" transform="scale(1 1) rotate(0) translate(4 158)">
<title>MotionRef&lt; Vector6ArgType &gt;</title>
<polygon fill="white" stroke="none" points="-4,4 -4,-158 154,-158 154,4 -4,4"/>
<!-- Node1 -->
<g id="node1" class="node"><title>Node1</title>
<polygon fill="#bfbfbf" stroke="black" points="-1.42109e-14,-0.5 -1.42109e-14,-19.5 150,-19.5 150,-0.5 -1.42109e-14,-0.5"/>
<text text-anchor="middle" x="75" y="-7.5" font-family="Helvetica,sans-Serif" font-size="10.00">MotionRef&lt; Vector6ArgType &gt;</text>
</g>
<!-- Node2 -->
<g id="node2" class="node"><title>Node2</title>
<g id="a_node2"><a xlink:href="classpinocchio_1_1MotionDense.html" target="_top" xlink:title="MotionDense\&lt; MotionRef\l\&lt; Vector6ArgType \&gt; \&gt;">
<polygon fill="white" stroke="black" points="11,-56.5 11,-86.5 139,-86.5 139,-56.5 11,-56.5"/>
<text text-anchor="start" x="19" y="-74.5" font-family="Helvetica,sans-Serif" font-size="10.00">MotionDense&lt; MotionRef</text>
<text text-anchor="middle" x="75" y="-63.5" font-family="Helvetica,sans-Serif" font-size="10.00">&lt; Vector6ArgType &gt; &gt;</text>
</a>
</g>
</g>
<!-- Node2&#45;&gt;Node1 -->
<g id="edge1" class="edge"><title>Node2&#45;&gt;Node1</title>
<path fill="none" stroke="midnightblue" d="M75,-46.2892C75,-36.857 75,-26.6548 75,-19.6578"/>
<polygon fill="midnightblue" stroke="midnightblue" points="71.5001,-46.3993 75,-56.3993 78.5001,-46.3994 71.5001,-46.3993"/>
</g>
<!-- Node3 -->
<g id="node3" class="node"><title>Node3</title>
<g id="a_node3"><a xlink:href="classpinocchio_1_1MotionBase.html" target="_top" xlink:title="MotionBase\&lt; MotionRef\l\&lt; Vector6ArgType \&gt; \&gt;">
<polygon fill="white" stroke="black" points="14,-123.5 14,-153.5 136,-153.5 136,-123.5 14,-123.5"/>
<text text-anchor="start" x="22" y="-141.5" font-family="Helvetica,sans-Serif" font-size="10.00">MotionBase&lt; MotionRef</text>
<text text-anchor="middle" x="75" y="-130.5" font-family="Helvetica,sans-Serif" font-size="10.00">&lt; Vector6ArgType &gt; &gt;</text>
</a>
</g>
</g>
<!-- Node3&#45;&gt;Node2 -->
<g id="edge2" class="edge"><title>Node3&#45;&gt;Node2</title>
<path fill="none" stroke="midnightblue" d="M75,-113.108C75,-104.154 75,-94.3227 75,-86.5765"/>
<polygon fill="midnightblue" stroke="midnightblue" points="71.5001,-113.396 75,-123.396 78.5001,-113.396 71.5001,-113.396"/>
</g>
</g>
</svg>
