<?xml version="1.0" encoding="UTF-8" standalone="no"?>
<!DOCTYPE svg PUBLIC "-//W3C//DTD SVG 1.1//EN"
 "http://www.w3.org/Graphics/SVG/1.1/DTD/svg11.dtd">
<!-- Generated by graphviz version 2.38.0 (20140413.2041)
 -->
<!-- Title: ForceTpl&lt; _Scalar, _Options &gt; Pages: 1 -->
<svg width="130pt" height="173pt"
 viewBox="0.00 0.00 130.00 173.00" xmlns="http://www.w3.org/2000/svg" xmlns:xlink="http://www.w3.org/1999/xlink">
<g id="graph0" class="graph" transform="scale(1 1) rotate(0) translate(4 169)">
<title>ForceTpl&lt; _Scalar, _Options &gt;</title>
<polygon fill="white" stroke="none" points="-4,4 -4,-169 126,-169 126,4 -4,4"/>
<!-- Node1 -->
<g id="node1" class="node"><title>Node1</title>
<polygon fill="#bfbfbf" stroke="black" points="11,-0.5 11,-30.5 111,-30.5 111,-0.5 11,-0.5"/>
<text text-anchor="start" x="19" y="-18.5" font-family="Helvetica,sans-Serif" font-size="10.00">ForceTpl&lt; _Scalar,</text>
<text text-anchor="middle" x="61" y="-7.5" font-family="Helvetica,sans-Serif" font-size="10.00"> _Options &gt;</text>
</g>
<!-- Node2 -->
<g id="node2" class="node"><title>Node2</title>
<g id="a_node2"><a xlink:href="classpinocchio_1_1ForceDense.html" target="_top" xlink:title="ForceDense\&lt; ForceTpl\l\&lt; _Scalar, _Options \&gt; \&gt;">
<polygon fill="white" stroke="black" points="0,-67.5 0,-97.5 122,-97.5 122,-67.5 0,-67.5"/>
<text text-anchor="start" x="8" y="-85.5" font-family="Helvetica,sans-Serif" font-size="10.00">ForceDense&lt; ForceTpl</text>
<text text-anchor="middle" x="61" y="-74.5" font-family="Helvetica,sans-Serif" font-size="10.00">&lt; _Scalar, _Options &gt; &gt;</text>
</a>
</g>
</g>
<!-- Node2&#45;&gt;Node1 -->
<g id="edge1" class="edge"><title>Node2&#45;&gt;Node1</title>
<path fill="none" stroke="midnightblue" d="M61,-57.1081C61,-48.1539 61,-38.3227 61,-30.5765"/>
<polygon fill="midnightblue" stroke="midnightblue" points="57.5001,-57.3959 61,-67.396 64.5001,-57.396 57.5001,-57.3959"/>
</g>
<!-- Node3 -->
<g id="node3" class="node"><title>Node3</title>
<g id="a_node3"><a xlink:href="classpinocchio_1_1ForceBase.html" target="_top" xlink:title="Base interface for forces representation. ">
<polygon fill="white" stroke="black" points="0,-134.5 0,-164.5 122,-164.5 122,-134.5 0,-134.5"/>
<text text-anchor="start" x="8" y="-152.5" font-family="Helvetica,sans-Serif" font-size="10.00">ForceBase&lt; ForceTpl</text>
<text text-anchor="middle" x="61" y="-141.5" font-family="Helvetica,sans-Serif" font-size="10.00">&lt; _Scalar, _Options &gt; &gt;</text>
</a>
</g>
</g>
<!-- Node3&#45;&gt;Node2 -->
<g id="edge2" class="edge"><title>Node3&#45;&gt;Node2</title>
<path fill="none" stroke="midnightblue" d="M61,-124.108C61,-115.154 61,-105.323 61,-97.5765"/>
<polygon fill="midnightblue" stroke="midnightblue" points="57.5001,-124.396 61,-134.396 64.5001,-124.396 57.5001,-124.396"/>
</g>
</g>
</svg>
