<?xml version="1.0" encoding="UTF-8" standalone="no"?>
<!DOCTYPE svg PUBLIC "-//W3C//DTD SVG 1.1//EN"
 "http://www.w3.org/Graphics/SVG/1.1/DTD/svg11.dtd">
<!-- Generated by graphviz version 2.38.0 (20140413.2041)
 -->
<!-- Title: ForceBase&lt; Derived &gt; Pages: 1 -->
<svg width="483pt" height="176pt"
 viewBox="0.00 0.00 483.00 175.50" xmlns="http://www.w3.org/2000/svg" xmlns:xlink="http://www.w3.org/1999/xlink">
<g id="graph0" class="graph" transform="scale(1 1) rotate(0) translate(4 171.5)">
<title>ForceBase&lt; Derived &gt;</title>
<polygon fill="white" stroke="none" points="-4,4 -4,-171.5 479,-171.5 479,4 -4,4"/>
<!-- Node1 -->
<g id="node1" class="node"><title>Node1</title>
<polygon fill="#bfbfbf" stroke="black" points="0,-68.5 0,-87.5 116,-87.5 116,-68.5 0,-68.5"/>
<text text-anchor="middle" x="58" y="-75.5" font-family="Helvetica,sans-Serif" font-size="10.00">ForceBase&lt; Derived &gt;</text>
</g>
<!-- Node2 -->
<g id="node2" class="node"><title>Node2</title>
<g id="a_node2"><a xlink:href="classpinocchio_1_1ForceDense.html" target="_top" xlink:title="ForceDense\&lt; ForceRef\l\&lt; const Vector6ArgType \&gt; \&gt;">
<polygon fill="white" stroke="black" points="152,-137 152,-167 293,-167 293,-137 152,-137"/>
<text text-anchor="start" x="160" y="-155" font-family="Helvetica,sans-Serif" font-size="10.00">ForceDense&lt; ForceRef</text>
<text text-anchor="middle" x="222.5" y="-144" font-family="Helvetica,sans-Serif" font-size="10.00">&lt; const Vector6ArgType &gt; &gt;</text>
</a>
</g>
</g>
<!-- Node1&#45;&gt;Node2 -->
<g id="edge1" class="edge"><title>Node1&#45;&gt;Node2</title>
<path fill="none" stroke="midnightblue" d="M84.3787,-92.606C102.812,-102.908 128.535,-116.659 152,-127 159.862,-130.465 168.369,-133.828 176.645,-136.906"/>
<polygon fill="midnightblue" stroke="midnightblue" points="85.8832,-89.4362 75.4541,-87.5694 82.4427,-95.5324 85.8832,-89.4362"/>
</g>
<!-- Node4 -->
<g id="node4" class="node"><title>Node4</title>
<g id="a_node4"><a xlink:href="classpinocchio_1_1ForceDense.html" target="_top" xlink:title="ForceDense\&lt; ForceRef\l\&lt; Vector6ArgType \&gt; \&gt;">
<polygon fill="white" stroke="black" points="163,-88 163,-118 282,-118 282,-88 163,-88"/>
<text text-anchor="start" x="171" y="-106" font-family="Helvetica,sans-Serif" font-size="10.00">ForceDense&lt; ForceRef</text>
<text text-anchor="middle" x="222.5" y="-95" font-family="Helvetica,sans-Serif" font-size="10.00">&lt; Vector6ArgType &gt; &gt;</text>
</a>
</g>
</g>
<!-- Node1&#45;&gt;Node4 -->
<g id="edge3" class="edge"><title>Node1&#45;&gt;Node4</title>
<path fill="none" stroke="midnightblue" d="M126.335,-88.3592C138.439,-90.2214 150.968,-92.149 162.804,-93.9699"/>
<polygon fill="midnightblue" stroke="midnightblue" points="126.707,-84.8754 116.291,-86.8141 125.643,-91.794 126.707,-84.8754"/>
</g>
<!-- Node6 -->
<g id="node6" class="node"><title>Node6</title>
<g id="a_node6"><a xlink:href="classpinocchio_1_1ForceDense.html" target="_top" xlink:title="ForceDense\&lt; ForceTpl\l\&lt; _Scalar, _Options \&gt; \&gt;">
<polygon fill="white" stroke="black" points="161.5,-39 161.5,-69 283.5,-69 283.5,-39 161.5,-39"/>
<text text-anchor="start" x="169.5" y="-57" font-family="Helvetica,sans-Serif" font-size="10.00">ForceDense&lt; ForceTpl</text>
<text text-anchor="middle" x="222.5" y="-46" font-family="Helvetica,sans-Serif" font-size="10.00">&lt; _Scalar, _Options &gt; &gt;</text>
</a>
</g>
</g>
<!-- Node1&#45;&gt;Node6 -->
<g id="edge5" class="edge"><title>Node1&#45;&gt;Node6</title>
<path fill="none" stroke="midnightblue" d="M126.379,-68.0487C138,-66.3323 150.012,-64.5583 161.424,-62.8728"/>
<polygon fill="midnightblue" stroke="midnightblue" points="125.673,-64.6149 116.291,-69.5385 126.696,-71.5398 125.673,-64.6149"/>
</g>
<!-- Node8 -->
<g id="node8" class="node"><title>Node8</title>
<g id="a_node8"><a xlink:href="classpinocchio_1_1ForceDense.html" target="_top" xlink:title="ForceDense\&lt; Derived \&gt;">
<polygon fill="white" stroke="black" points="161.5,-0.5 161.5,-19.5 283.5,-19.5 283.5,-0.5 161.5,-0.5"/>
<text text-anchor="middle" x="222.5" y="-7.5" font-family="Helvetica,sans-Serif" font-size="10.00">ForceDense&lt; Derived &gt;</text>
</a>
</g>
</g>
<!-- Node1&#45;&gt;Node8 -->
<g id="edge7" class="edge"><title>Node1&#45;&gt;Node8</title>
<path fill="none" stroke="midnightblue" d="M83.4792,-63.2104C101.84,-52.5908 127.859,-38.5275 152,-29 161.076,-25.4183 171.073,-22.2553 180.587,-19.5884"/>
<polygon fill="midnightblue" stroke="midnightblue" points="81.4782,-60.3265 74.6264,-68.4076 85.0221,-66.3631 81.4782,-60.3265"/>
</g>
<!-- Node3 -->
<g id="node3" class="node"><title>Node3</title>
<g id="a_node3"><a xlink:href="classpinocchio_1_1ForceRef_3_01const_01Vector6ArgType_01_4.html" target="_top" xlink:title="ForceRef\&lt; const Vector6Arg\lType \&gt;">
<polygon fill="white" stroke="black" points="331,-137 331,-167 473,-167 473,-137 331,-137"/>
<text text-anchor="start" x="339" y="-155" font-family="Helvetica,sans-Serif" font-size="10.00">ForceRef&lt; const Vector6Arg</text>
<text text-anchor="middle" x="402" y="-144" font-family="Helvetica,sans-Serif" font-size="10.00">Type &gt;</text>
</a>
</g>
</g>
<!-- Node2&#45;&gt;Node3 -->
<g id="edge2" class="edge"><title>Node2&#45;&gt;Node3</title>
<path fill="none" stroke="midnightblue" d="M303.438,-152C312.623,-152 321.934,-152 330.975,-152"/>
<polygon fill="midnightblue" stroke="midnightblue" points="303.143,-148.5 293.143,-152 303.143,-155.5 303.143,-148.5"/>
</g>
<!-- Node5 -->
<g id="node5" class="node"><title>Node5</title>
<g id="a_node5"><a xlink:href="classpinocchio_1_1ForceRef.html" target="_top" xlink:title="ForceRef\&lt; Vector6ArgType \&gt;">
<polygon fill="white" stroke="black" points="329,-93.5 329,-112.5 475,-112.5 475,-93.5 329,-93.5"/>
<text text-anchor="middle" x="402" y="-100.5" font-family="Helvetica,sans-Serif" font-size="10.00">ForceRef&lt; Vector6ArgType &gt;</text>
</a>
</g>
</g>
<!-- Node4&#45;&gt;Node5 -->
<g id="edge4" class="edge"><title>Node4&#45;&gt;Node5</title>
<path fill="none" stroke="midnightblue" d="M292.446,-103C304.379,-103 316.816,-103 328.832,-103"/>
<polygon fill="midnightblue" stroke="midnightblue" points="292.112,-99.5001 282.112,-103 292.112,-106.5 292.112,-99.5001"/>
</g>
<!-- Node7 -->
<g id="node7" class="node"><title>Node7</title>
<g id="a_node7"><a xlink:href="classpinocchio_1_1ForceTpl.html" target="_top" xlink:title="ForceTpl\&lt; _Scalar,\l _Options \&gt;">
<polygon fill="white" stroke="black" points="352,-39 352,-69 452,-69 452,-39 352,-39"/>
<text text-anchor="start" x="360" y="-57" font-family="Helvetica,sans-Serif" font-size="10.00">ForceTpl&lt; _Scalar,</text>
<text text-anchor="middle" x="402" y="-46" font-family="Helvetica,sans-Serif" font-size="10.00"> _Options &gt;</text>
</a>
</g>
</g>
<!-- Node6&#45;&gt;Node7 -->
<g id="edge6" class="edge"><title>Node6&#45;&gt;Node7</title>
<path fill="none" stroke="midnightblue" d="M293.648,-54C313.133,-54 333.872,-54 351.873,-54"/>
<polygon fill="midnightblue" stroke="midnightblue" points="293.593,-50.5001 283.593,-54 293.593,-57.5001 293.593,-50.5001"/>
</g>
<!-- Node9 -->
<g id="node9" class="node"><title>Node9</title>
<g id="a_node9"><a xlink:href="classpinocchio_1_1ForceTpl.html" target="_top" xlink:title="ForceTpl\&lt; Scalar, Options \&gt;">
<polygon fill="white" stroke="black" points="332,-0.5 332,-19.5 472,-19.5 472,-0.5 332,-0.5"/>
<text text-anchor="middle" x="402" y="-7.5" font-family="Helvetica,sans-Serif" font-size="10.00">ForceTpl&lt; Scalar, Options &gt;</text>
</a>
</g>
</g>
<!-- Node8&#45;&gt;Node9 -->
<g id="edge8" class="edge"><title>Node8&#45;&gt;Node9</title>
<path fill="none" stroke="midnightblue" d="M293.922,-10C306.387,-10 319.355,-10 331.786,-10"/>
<polygon fill="midnightblue" stroke="midnightblue" points="293.593,-6.5001 283.593,-10 293.593,-13.5001 293.593,-6.5001"/>
</g>
</g>
</svg>
