<?xml version="1.0" encoding="UTF-8" standalone="no"?>
<!DOCTYPE svg PUBLIC "-//W3C//DTD SVG 1.1//EN"
 "http://www.w3.org/Graphics/SVG/1.1/DTD/svg11.dtd">
<!-- Generated by graphviz version 2.38.0 (20140413.2041)
 -->
<!-- Title: ForceRef&lt; Vector6ArgType &gt; Pages: 1 -->
<svg width="154pt" height="162pt"
 viewBox="0.00 0.00 154.00 162.00" xmlns="http://www.w3.org/2000/svg" xmlns:xlink="http://www.w3.org/1999/xlink">
<g id="graph0" class="graph" transform="scale(1 1) rotate(0) translate(4 158)">
<title>ForceRef&lt; Vector6ArgType &gt;</title>
<polygon fill="white" stroke="none" points="-4,4 -4,-158 150,-158 150,4 -4,4"/>
<!-- Node1 -->
<g id="node1" class="node"><title>Node1</title>
<polygon fill="#bfbfbf" stroke="black" points="0,-0.5 0,-19.5 146,-19.5 146,-0.5 0,-0.5"/>
<text text-anchor="middle" x="73" y="-7.5" font-family="Helvetica,sans-Serif" font-size="10.00">ForceRef&lt; Vector6ArgType &gt;</text>
</g>
<!-- Node2 -->
<g id="node2" class="node"><title>Node2</title>
<g id="a_node2"><a xlink:href="classpinocchio_1_1ForceDense.html" target="_top" xlink:title="ForceDense\&lt; ForceRef\l\&lt; Vector6ArgType \&gt; \&gt;">
<polygon fill="white" stroke="black" points="13.5,-56.5 13.5,-86.5 132.5,-86.5 132.5,-56.5 13.5,-56.5"/>
<text text-anchor="start" x="21.5" y="-74.5" font-family="Helvetica,sans-Serif" font-size="10.00">ForceDense&lt; ForceRef</text>
<text text-anchor="middle" x="73" y="-63.5" font-family="Helvetica,sans-Serif" font-size="10.00">&lt; Vector6ArgType &gt; &gt;</text>
</a>
</g>
</g>
<!-- Node2&#45;&gt;Node1 -->
<g id="edge1" class="edge"><title>Node2&#45;&gt;Node1</title>
<path fill="none" stroke="midnightblue" d="M73,-46.2892C73,-36.857 73,-26.6548 73,-19.6578"/>
<polygon fill="midnightblue" stroke="midnightblue" points="69.5001,-46.3993 73,-56.3993 76.5001,-46.3994 69.5001,-46.3993"/>
</g>
<!-- Node3 -->
<g id="node3" class="node"><title>Node3</title>
<g id="a_node3"><a xlink:href="classpinocchio_1_1ForceBase.html" target="_top" xlink:title="Base interface for forces representation. ">
<polygon fill="white" stroke="black" points="16,-123.5 16,-153.5 130,-153.5 130,-123.5 16,-123.5"/>
<text text-anchor="start" x="24" y="-141.5" font-family="Helvetica,sans-Serif" font-size="10.00">ForceBase&lt; ForceRef</text>
<text text-anchor="middle" x="73" y="-130.5" font-family="Helvetica,sans-Serif" font-size="10.00">&lt; Vector6ArgType &gt; &gt;</text>
</a>
</g>
</g>
<!-- Node3&#45;&gt;Node2 -->
<g id="edge2" class="edge"><title>Node3&#45;&gt;Node2</title>
<path fill="none" stroke="midnightblue" d="M73,-113.108C73,-104.154 73,-94.3227 73,-86.5765"/>
<polygon fill="midnightblue" stroke="midnightblue" points="69.5001,-113.396 73,-123.396 76.5001,-113.396 69.5001,-113.396"/>
</g>
</g>
</svg>
