<?xml version="1.0" encoding="UTF-8" standalone="no"?>
<!DOCTYPE svg PUBLIC "-//W3C//DTD SVG 1.1//EN"
 "http://www.w3.org/Graphics/SVG/1.1/DTD/svg11.dtd">
<!-- Generated by graphviz version 2.38.0 (20140413.2041)
 -->
<!-- Title: ForceRef&lt; const Vector6ArgType &gt; Pages: 1 -->
<svg width="264pt" height="185pt"
 viewBox="0.00 0.00 264.00 185.00" xmlns="http://www.w3.org/2000/svg" xmlns:xlink="http://www.w3.org/1999/xlink">
<g id="graph0" class="graph" transform="scale(1 1) rotate(0) translate(4 181)">
<title>ForceRef&lt; const Vector6ArgType &gt;</title>
<polygon fill="white" stroke="none" points="-4,4 -4,-181 260,-181 260,4 -4,4"/>
<!-- Node1 -->
<g id="node1" class="node"><title>Node1</title>
<polygon fill="#bfbfbf" stroke="black" points="101.5,-0.5 101.5,-30.5 243.5,-30.5 243.5,-0.5 101.5,-0.5"/>
<text text-anchor="start" x="109.5" y="-18.5" font-family="Helvetica,sans-Serif" font-size="10.00">ForceRef&lt; const Vector6Arg</text>
<text text-anchor="middle" x="172.5" y="-7.5" font-family="Helvetica,sans-Serif" font-size="10.00">Type &gt;</text>
</g>
<!-- Node2 -->
<g id="node2" class="node"><title>Node2</title>
<g id="a_node2"><a xlink:href="classpinocchio_1_1ForceDense.html" target="_top" xlink:title="ForceDense\&lt; ForceRef\l\&lt; const Vector6ArgType \&gt; \&gt;">
<polygon fill="white" stroke="black" points="0,-78.5 0,-108.5 141,-108.5 141,-78.5 0,-78.5"/>
<text text-anchor="start" x="8" y="-96.5" font-family="Helvetica,sans-Serif" font-size="10.00">ForceDense&lt; ForceRef</text>
<text text-anchor="middle" x="70.5" y="-85.5" font-family="Helvetica,sans-Serif" font-size="10.00">&lt; const Vector6ArgType &gt; &gt;</text>
</a>
</g>
</g>
<!-- Node2&#45;&gt;Node1 -->
<g id="edge1" class="edge"><title>Node2&#45;&gt;Node1</title>
<path fill="none" stroke="midnightblue" d="M97.8644,-72.1108C115.412,-59.0359 137.754,-42.3895 153.401,-30.7309"/>
<polygon fill="midnightblue" stroke="midnightblue" points="95.6131,-69.4235 89.6854,-78.205 99.7955,-75.0367 95.6131,-69.4235"/>
</g>
<!-- Node3 -->
<g id="node3" class="node"><title>Node3</title>
<g id="a_node3"><a xlink:href="classpinocchio_1_1ForceBase.html" target="_top" xlink:title="Base interface for forces representation. ">
<polygon fill="white" stroke="black" points="0,-146.5 0,-176.5 141,-176.5 141,-146.5 0,-146.5"/>
<text text-anchor="start" x="8" y="-164.5" font-family="Helvetica,sans-Serif" font-size="10.00">ForceBase&lt; ForceRef</text>
<text text-anchor="middle" x="70.5" y="-153.5" font-family="Helvetica,sans-Serif" font-size="10.00">&lt; const Vector6ArgType &gt; &gt;</text>
</a>
</g>
</g>
<!-- Node3&#45;&gt;Node2 -->
<g id="edge2" class="edge"><title>Node3&#45;&gt;Node2</title>
<path fill="none" stroke="midnightblue" d="M70.5,-136.032C70.5,-126.861 70.5,-116.745 70.5,-108.793"/>
<polygon fill="midnightblue" stroke="midnightblue" points="67.0001,-136.179 70.5,-146.179 74.0001,-136.179 67.0001,-136.179"/>
</g>
<!-- Node4 -->
<g id="node4" class="node"><title>Node4</title>
<g id="a_node4"><a xlink:href="structpinocchio_1_1traits.html" target="_top" xlink:title="traits\&lt; ForceRef \&gt;">
<polygon fill="white" stroke="black" points="159,-84 159,-103 256,-103 256,-84 159,-84"/>
<text text-anchor="middle" x="207.5" y="-91" font-family="Helvetica,sans-Serif" font-size="10.00">traits&lt; ForceRef &gt;</text>
</a>
</g>
</g>
<!-- Node4&#45;&gt;Node1 -->
<g id="edge3" class="edge"><title>Node4&#45;&gt;Node1</title>
<path fill="none" stroke="#9a32cd" stroke-dasharray="5,2" d="M199.247,-74.579C193.046,-61.1145 184.672,-42.9314 178.956,-30.5198"/>
<polygon fill="#9a32cd" stroke="#9a32cd" points="196.123,-76.1628 203.485,-83.7818 202.481,-73.2347 196.123,-76.1628"/>
<text text-anchor="middle" x="205.5" y="-52" font-family="Helvetica,sans-Serif" font-size="10.00"> m_ref</text>
</g>
</g>
</svg>
