<?xml version="1.0" encoding="UTF-8" standalone="no"?>
<!DOCTYPE svg PUBLIC "-//W3C//DTD SVG 1.1//EN"
 "http://www.w3.org/Graphics/SVG/1.1/DTD/svg11.dtd">
<!-- Generated by graphviz version 2.38.0 (20140413.2041)
 -->
<!-- Title: Graphical Class Hierarchy Pages: 1 -->
<svg width="332pt" height="50pt"
 viewBox="0.00 0.00 332.00 50.00" xmlns="http://www.w3.org/2000/svg" xmlns:xlink="http://www.w3.org/1999/xlink">
<g id="graph0" class="graph" transform="scale(1 1) rotate(0) translate(4 46)">
<title>Graphical Class Hierarchy</title>
<polygon fill="white" stroke="none" points="-4,4 -4,-46 328,-46 328,4 -4,4"/>
<!-- Node1 -->
<g id="node1" class="node"><title>Node1</title>
<g id="a_node1"><a xlink:href="classpinocchio_1_1MotionBase.html" target="_top" xlink:title="MotionBase\&lt; MotionRevolute\lUnalignedTpl\&lt; _Scalar,\l _Options \&gt; \&gt;">
<polygon fill="white" stroke="black" points="0,-0.5 0,-41.5 146,-41.5 146,-0.5 0,-0.5"/>
<text text-anchor="start" x="8" y="-29.5" font-family="Helvetica,sans-Serif" font-size="10.00">MotionBase&lt; MotionRevolute</text>
<text text-anchor="start" x="8" y="-18.5" font-family="Helvetica,sans-Serif" font-size="10.00">UnalignedTpl&lt; _Scalar,</text>
<text text-anchor="middle" x="73" y="-7.5" font-family="Helvetica,sans-Serif" font-size="10.00"> _Options &gt; &gt;</text>
</a>
</g>
</g>
<!-- Node2 -->
<g id="node2" class="node"><title>Node2</title>
<g id="a_node2"><a xlink:href="structpinocchio_1_1MotionRevoluteUnalignedTpl.html" target="_top" xlink:title="MotionRevoluteUnalignedTpl\l\&lt; _Scalar, _Options \&gt;">
<polygon fill="white" stroke="black" points="182,-6 182,-36 324,-36 324,-6 182,-6"/>
<text text-anchor="start" x="190" y="-24" font-family="Helvetica,sans-Serif" font-size="10.00">MotionRevoluteUnalignedTpl</text>
<text text-anchor="middle" x="253" y="-13" font-family="Helvetica,sans-Serif" font-size="10.00">&lt; _Scalar, _Options &gt;</text>
</a>
</g>
</g>
<!-- Node1&#45;&gt;Node2 -->
<g id="edge1" class="edge"><title>Node1&#45;&gt;Node2</title>
<path fill="none" stroke="midnightblue" d="M156.42,-21C164.894,-21 173.449,-21 181.774,-21"/>
<polygon fill="midnightblue" stroke="midnightblue" points="156.143,-17.5001 146.143,-21 156.143,-24.5001 156.143,-17.5001"/>
</g>
</g>
</svg>
