<?xml version="1.0" encoding="UTF-8" standalone="no"?>
<!DOCTYPE svg PUBLIC "-//W3C//DTD SVG 1.1//EN"
 "http://www.w3.org/Graphics/SVG/1.1/DTD/svg11.dtd">
<!-- Generated by graphviz version 2.38.0 (20140413.2041)
 -->
<!-- Title: Graphical Class Hierarchy Pages: 1 -->
<svg width="349pt" height="50pt"
 viewBox="0.00 0.00 349.00 50.00" xmlns="http://www.w3.org/2000/svg" xmlns:xlink="http://www.w3.org/1999/xlink">
<g id="graph0" class="graph" transform="scale(1 1) rotate(0) translate(4 46)">
<title>Graphical Class Hierarchy</title>
<polygon fill="white" stroke="none" points="-4,4 -4,-46 345,-46 345,4 -4,4"/>
<!-- Node1 -->
<g id="node1" class="node"><title>Node1</title>
<g id="a_node1"><a xlink:href="structpinocchio_1_1LieGroupBase.html" target="_top" xlink:title="LieGroupBase\&lt; SpecialOrthogonal\lOperationTpl\&lt; 3, _Scalar,\l _Options \&gt; \&gt;">
<polygon fill="white" stroke="black" points="0,-0.5 0,-41.5 167,-41.5 167,-0.5 0,-0.5"/>
<text text-anchor="start" x="8" y="-29.5" font-family="Helvetica,sans-Serif" font-size="10.00">LieGroupBase&lt; SpecialOrthogonal</text>
<text text-anchor="start" x="8" y="-18.5" font-family="Helvetica,sans-Serif" font-size="10.00">OperationTpl&lt; 3, _Scalar,</text>
<text text-anchor="middle" x="83.5" y="-7.5" font-family="Helvetica,sans-Serif" font-size="10.00"> _Options &gt; &gt;</text>
</a>
</g>
</g>
<!-- Node2 -->
<g id="node2" class="node"><title>Node2</title>
<g id="a_node2"><a xlink:href="structpinocchio_1_1SpecialOrthogonalOperationTpl_3_013_00_01__Scalar_00_01__Options_01_4.html" target="_top" xlink:title="SpecialOrthogonalOperation\lTpl\&lt; 3, _Scalar, _Options \&gt;">
<polygon fill="white" stroke="black" points="203,-6 203,-36 341,-36 341,-6 203,-6"/>
<text text-anchor="start" x="211" y="-24" font-family="Helvetica,sans-Serif" font-size="10.00">SpecialOrthogonalOperation</text>
<text text-anchor="middle" x="272" y="-13" font-family="Helvetica,sans-Serif" font-size="10.00">Tpl&lt; 3, _Scalar, _Options &gt;</text>
</a>
</g>
</g>
<!-- Node1&#45;&gt;Node2 -->
<g id="edge1" class="edge"><title>Node1&#45;&gt;Node2</title>
<path fill="none" stroke="midnightblue" d="M177.266,-21C185.93,-21 194.599,-21 202.975,-21"/>
<polygon fill="midnightblue" stroke="midnightblue" points="177.116,-17.5001 167.116,-21 177.116,-24.5001 177.116,-17.5001"/>
</g>
</g>
</svg>
