<?xml version="1.0" encoding="UTF-8" standalone="no"?>
<!DOCTYPE svg PUBLIC "-//W3C//DTD SVG 1.1//EN"
 "http://www.w3.org/Graphics/SVG/1.1/DTD/svg11.dtd">
<!-- Generated by graphviz version 2.38.0 (20140413.2041)
 -->
<!-- Title: Graphical Class Hierarchy Pages: 1 -->
<svg width="339pt" height="88pt"
 viewBox="0.00 0.00 339.00 88.00" xmlns="http://www.w3.org/2000/svg" xmlns:xlink="http://www.w3.org/1999/xlink">
<g id="graph0" class="graph" transform="scale(1 1) rotate(0) translate(4 84)">
<title>Graphical Class Hierarchy</title>
<polygon fill="white" stroke="none" points="-4,4 -4,-84 335,-84 335,4 -4,4"/>
<!-- Node1 -->
<g id="node1" class="node"><title>Node1</title>
<g id="a_node1"><a xlink:href="structpinocchio_1_1JointModelBase.html" target="_top" xlink:title="JointModelBase\&lt; JointModel\lTpl\&lt; _Scalar, _Options,\l JointCollectionTpl \&gt; \&gt;">
<polygon fill="white" stroke="black" points="0,-38.5 0,-79.5 143,-79.5 143,-38.5 0,-38.5"/>
<text text-anchor="start" x="8" y="-67.5" font-family="Helvetica,sans-Serif" font-size="10.00">JointModelBase&lt; JointModel</text>
<text text-anchor="start" x="8" y="-56.5" font-family="Helvetica,sans-Serif" font-size="10.00">Tpl&lt; _Scalar, _Options,</text>
<text text-anchor="middle" x="71.5" y="-45.5" font-family="Helvetica,sans-Serif" font-size="10.00"> JointCollectionTpl &gt; &gt;</text>
</a>
</g>
</g>
<!-- Node2 -->
<g id="node2" class="node"><title>Node2</title>
<g id="a_node2"><a xlink:href="structpinocchio_1_1JointModelTpl.html" target="_top" xlink:title="JointModelTpl\&lt; _Scalar,\l _Options, JointCollectionTpl \&gt;">
<polygon fill="white" stroke="black" points="179,-19 179,-49 331,-49 331,-19 179,-19"/>
<text text-anchor="start" x="187" y="-37" font-family="Helvetica,sans-Serif" font-size="10.00">JointModelTpl&lt; _Scalar,</text>
<text text-anchor="middle" x="255" y="-26" font-family="Helvetica,sans-Serif" font-size="10.00"> _Options, JointCollectionTpl &gt;</text>
</a>
</g>
</g>
<!-- Node1&#45;&gt;Node2 -->
<g id="edge1" class="edge"><title>Node1&#45;&gt;Node2</title>
<path fill="none" stroke="midnightblue" d="M153.11,-47.8967C161.621,-46.7243 170.253,-45.5354 178.701,-44.3718"/>
<polygon fill="midnightblue" stroke="midnightblue" points="152.621,-44.4309 143.192,-49.2628 153.576,-51.3654 152.621,-44.4309"/>
</g>
<!-- Node3 -->
<g id="node3" class="node"><title>Node3</title>
<polygon fill="white" stroke="#bfbfbf" points="24,-0.5 24,-19.5 119,-19.5 119,-0.5 24,-0.5"/>
<text text-anchor="middle" x="71.5" y="-7.5" font-family="Helvetica,sans-Serif" font-size="10.00">JointModelVariant</text>
</g>
<!-- Node3&#45;&gt;Node2 -->
<g id="edge2" class="edge"><title>Node3&#45;&gt;Node2</title>
<path fill="none" stroke="midnightblue" d="M129.313,-17.5124C145.023,-19.5899 162.32,-21.877 178.898,-24.0691"/>
<polygon fill="midnightblue" stroke="midnightblue" points="129.613,-14.0218 119.241,-16.1806 128.696,-20.9614 129.613,-14.0218"/>
</g>
</g>
</svg>
