<?xml version="1.0" encoding="UTF-8" standalone="no"?>
<!DOCTYPE svg PUBLIC "-//W3C//DTD SVG 1.1//EN"
 "http://www.w3.org/Graphics/SVG/1.1/DTD/svg11.dtd">
<!-- Generated by graphviz version 2.38.0 (20140413.2041)
 -->
<!-- Title: Graphical Class Hierarchy Pages: 1 -->
<svg width="331pt" height="50pt"
 viewBox="0.00 0.00 331.00 50.00" xmlns="http://www.w3.org/2000/svg" xmlns:xlink="http://www.w3.org/1999/xlink">
<g id="graph0" class="graph" transform="scale(1 1) rotate(0) translate(4 46)">
<title>Graphical Class Hierarchy</title>
<polygon fill="white" stroke="none" points="-4,4 -4,-46 327,-46 327,4 -4,4"/>
<!-- Node1 -->
<g id="node1" class="node"><title>Node1</title>
<g id="a_node1"><a xlink:href="structpinocchio_1_1JointDataBase.html" target="_top" xlink:title="JointDataBase\&lt; JointData\lRevoluteUnboundedTpl\&lt;\l _Scalar, _Options, axis \&gt; \&gt;">
<polygon fill="white" stroke="black" points="0,-0.5 0,-41.5 140,-41.5 140,-0.5 0,-0.5"/>
<text text-anchor="start" x="8" y="-29.5" font-family="Helvetica,sans-Serif" font-size="10.00">JointDataBase&lt; JointData</text>
<text text-anchor="start" x="8" y="-18.5" font-family="Helvetica,sans-Serif" font-size="10.00">RevoluteUnboundedTpl&lt;</text>
<text text-anchor="middle" x="70" y="-7.5" font-family="Helvetica,sans-Serif" font-size="10.00"> _Scalar, _Options, axis &gt; &gt;</text>
</a>
</g>
</g>
<!-- Node2 -->
<g id="node2" class="node"><title>Node2</title>
<g id="a_node2"><a xlink:href="structpinocchio_1_1JointDataRevoluteUnboundedTpl.html" target="_top" xlink:title="JointDataRevoluteUnbounded\lTpl\&lt; _Scalar, _Options,\l axis \&gt;">
<polygon fill="white" stroke="black" points="176,-0.5 176,-41.5 323,-41.5 323,-0.5 176,-0.5"/>
<text text-anchor="start" x="184" y="-29.5" font-family="Helvetica,sans-Serif" font-size="10.00">JointDataRevoluteUnbounded</text>
<text text-anchor="start" x="184" y="-18.5" font-family="Helvetica,sans-Serif" font-size="10.00">Tpl&lt; _Scalar, _Options,</text>
<text text-anchor="middle" x="249.5" y="-7.5" font-family="Helvetica,sans-Serif" font-size="10.00"> axis &gt;</text>
</a>
</g>
</g>
<!-- Node1&#45;&gt;Node2 -->
<g id="edge1" class="edge"><title>Node1&#45;&gt;Node2</title>
<path fill="none" stroke="midnightblue" d="M150.363,-21C158.812,-21 167.376,-21 175.744,-21"/>
<polygon fill="midnightblue" stroke="midnightblue" points="150.134,-17.5001 140.134,-21 150.134,-24.5001 150.134,-17.5001"/>
</g>
</g>
</svg>
