<?xml version="1.0" encoding="UTF-8" standalone="no"?>
<!DOCTYPE svg PUBLIC "-//W3C//DTD SVG 1.1//EN"
 "http://www.w3.org/Graphics/SVG/1.1/DTD/svg11.dtd">
<!-- Generated by graphviz version 2.38.0 (20140413.2041)
 -->
<!-- Title: FrameTpl&lt; _Scalar, _Options &gt; Pages: 1 -->
<svg width="272pt" height="174pt"
 viewBox="0.00 0.00 271.50 174.00" xmlns="http://www.w3.org/2000/svg" xmlns:xlink="http://www.w3.org/1999/xlink">
<g id="graph0" class="graph" transform="scale(1 1) rotate(0) translate(4 170)">
<title>FrameTpl&lt; _Scalar, _Options &gt;</title>
<polygon fill="white" stroke="none" points="-4,4 -4,-170 267.5,-170 267.5,4 -4,4"/>
<!-- Node1 -->
<g id="node1" class="node"><title>Node1</title>
<polygon fill="#bfbfbf" stroke="black" points="80.5,-0.5 80.5,-30.5 183.5,-30.5 183.5,-0.5 80.5,-0.5"/>
<text text-anchor="start" x="88.5" y="-18.5" font-family="Helvetica,sans-Serif" font-size="10.00">FrameTpl&lt; _Scalar,</text>
<text text-anchor="middle" x="132" y="-7.5" font-family="Helvetica,sans-Serif" font-size="10.00"> _Options &gt;</text>
</g>
<!-- Node2 -->
<g id="node2" class="node"><title>Node2</title>
<g id="a_node2"><a xlink:title="STL class. ">
<polygon fill="white" stroke="#bfbfbf" points="41.5,-78.5 41.5,-97.5 82.5,-97.5 82.5,-78.5 41.5,-78.5"/>
<text text-anchor="middle" x="62" y="-85.5" font-family="Helvetica,sans-Serif" font-size="10.00">string</text>
</a>
</g>
</g>
<!-- Node2&#45;&gt;Node1 -->
<g id="edge1" class="edge"><title>Node2&#45;&gt;Node1</title>
<path fill="none" stroke="#9a32cd" stroke-dasharray="5,2" d="M77.7937,-71.0934C89.8859,-58.9149 106.409,-42.2742 118.024,-30.5762"/>
<polygon fill="#9a32cd" stroke="#9a32cd" points="75.1456,-68.793 70.5834,-78.3553 80.1129,-73.7252 75.1456,-68.793"/>
<text text-anchor="middle" x="114" y="-52" font-family="Helvetica,sans-Serif" font-size="10.00"> name</text>
</g>
<!-- Node3 -->
<g id="node3" class="node"><title>Node3</title>
<g id="a_node3"><a xlink:title="STL class. ">
<polygon fill="white" stroke="#bfbfbf" points="0,-141 0,-160 106,-160 106,-141 0,-141"/>
<text text-anchor="middle" x="53" y="-148" font-family="Helvetica,sans-Serif" font-size="10.00">basic_string&lt; char &gt;</text>
</a>
</g>
</g>
<!-- Node3&#45;&gt;Node2 -->
<g id="edge2" class="edge"><title>Node3&#45;&gt;Node2</title>
<path fill="none" stroke="midnightblue" d="M55.7745,-130.849C57.421,-119.781 59.4306,-106.272 60.7129,-97.6521"/>
<polygon fill="midnightblue" stroke="midnightblue" points="52.2991,-130.426 54.2895,-140.832 59.2229,-131.456 52.2991,-130.426"/>
</g>
<!-- Node4 -->
<g id="node4" class="node"><title>Node4</title>
<g id="a_node4"><a xlink:href="structpinocchio_1_1SE3Tpl.html" target="_top" xlink:title="SE3Tpl\&lt; Scalar, Options \&gt;">
<polygon fill="white" stroke="black" points="118,-78.5 118,-97.5 252,-97.5 252,-78.5 118,-78.5"/>
<text text-anchor="middle" x="185" y="-85.5" font-family="Helvetica,sans-Serif" font-size="10.00">SE3Tpl&lt; Scalar, Options &gt;</text>
</a>
</g>
</g>
<!-- Node4&#45;&gt;Node1 -->
<g id="edge3" class="edge"><title>Node4&#45;&gt;Node1</title>
<path fill="none" stroke="#9a32cd" stroke-dasharray="5,2" d="M172.249,-70.0389C163.175,-57.968 151.125,-41.94 142.582,-30.5762"/>
<polygon fill="#9a32cd" stroke="#9a32cd" points="169.694,-72.4653 178.501,-78.3553 175.29,-68.2589 169.694,-72.4653"/>
<text text-anchor="middle" x="188.5" y="-52" font-family="Helvetica,sans-Serif" font-size="10.00"> placement</text>
</g>
<!-- Node5 -->
<g id="node5" class="node"><title>Node5</title>
<g id="a_node5"><a xlink:href="structpinocchio_1_1SE3Base.html" target="_top" xlink:title="SE3Base\&lt; SE3Tpl\&lt; Scalar,\l _Options \&gt; \&gt;">
<polygon fill="white" stroke="black" points="124.5,-135.5 124.5,-165.5 263.5,-165.5 263.5,-135.5 124.5,-135.5"/>
<text text-anchor="start" x="132.5" y="-153.5" font-family="Helvetica,sans-Serif" font-size="10.00">SE3Base&lt; SE3Tpl&lt; Scalar,</text>
<text text-anchor="middle" x="194" y="-142.5" font-family="Helvetica,sans-Serif" font-size="10.00"> _Options &gt; &gt;</text>
</a>
</g>
</g>
<!-- Node5&#45;&gt;Node4 -->
<g id="edge4" class="edge"><title>Node5&#45;&gt;Node4</title>
<path fill="none" stroke="midnightblue" d="M190.408,-125.352C188.944,-115.513 187.347,-104.775 186.27,-97.5399"/>
<polygon fill="midnightblue" stroke="midnightblue" points="186.979,-126.092 191.913,-135.468 193.903,-125.062 186.979,-126.092"/>
</g>
</g>
</svg>
