<?xml version="1.0" encoding="UTF-8" standalone="no"?>
<!DOCTYPE svg PUBLIC "-//W3C//DTD SVG 1.1//EN"
 "http://www.w3.org/Graphics/SVG/1.1/DTD/svg11.dtd">
<!-- Generated by graphviz version 2.38.0 (20140413.2041)
 -->
<!-- Title: CartesianProductOperationVariant Pages: 1 -->
<svg width="507pt" height="167pt"
 viewBox="0.00 0.00 507.00 167.00" xmlns="http://www.w3.org/2000/svg" xmlns:xlink="http://www.w3.org/1999/xlink">
<g id="graph0" class="graph" transform="scale(1 1) rotate(0) translate(4 163)">
<title>CartesianProductOperationVariant</title>
<polygon fill="white" stroke="none" points="-4,4 -4,-163 503,-163 503,4 -4,4"/>
<!-- Node1 -->
<g id="node1" class="node"><title>Node1</title>
<polygon fill="#bfbfbf" stroke="black" points="365,-57 365,-87 499,-87 499,-57 365,-57"/>
<text text-anchor="start" x="373" y="-75" font-family="Helvetica,sans-Serif" font-size="10.00">CartesianProductOperation</text>
<text text-anchor="middle" x="432" y="-64" font-family="Helvetica,sans-Serif" font-size="10.00">Variant</text>
</g>
<!-- Node2 -->
<g id="node2" class="node"><title>Node2</title>
<polygon fill="white" stroke="#bfbfbf" points="143,-117.5 143,-158.5 286,-158.5 286,-117.5 143,-117.5"/>
<text text-anchor="start" x="151" y="-146.5" font-family="Helvetica,sans-Serif" font-size="10.00">LieGroupOperationBase</text>
<text text-anchor="start" x="151" y="-135.5" font-family="Helvetica,sans-Serif" font-size="10.00">&lt; CartesianProductOperation</text>
<text text-anchor="middle" x="214.5" y="-124.5" font-family="Helvetica,sans-Serif" font-size="10.00">Variant &gt;</text>
</g>
<!-- Node2&#45;&gt;Node1 -->
<g id="edge1" class="edge"><title>Node2&#45;&gt;Node1</title>
<path fill="none" stroke="midnightblue" d="M292.453,-114.432C322.219,-105.316 355.408,-95.1512 381.838,-87.0564"/>
<polygon fill="midnightblue" stroke="midnightblue" points="291.041,-111.204 282.504,-117.479 293.091,-117.897 291.041,-111.204"/>
</g>
<!-- Node3 -->
<g id="node3" class="node"><title>Node3</title>
<polygon fill="white" stroke="#bfbfbf" points="149,-79.5 149,-98.5 280,-98.5 280,-79.5 149,-79.5"/>
<text text-anchor="middle" x="214.5" y="-86.5" font-family="Helvetica,sans-Serif" font-size="10.00">vector&lt; LieGroupVariant &gt;</text>
</g>
<!-- Node3&#45;&gt;Node1 -->
<g id="edge2" class="edge"><title>Node3&#45;&gt;Node1</title>
<path fill="none" stroke="#9a32cd" stroke-dasharray="5,2" d="M290.382,-83.0928C314.63,-81.18 341.334,-79.0734 364.897,-77.2146"/>
<polygon fill="#9a32cd" stroke="#9a32cd" points="289.851,-79.6238 280.157,-83.8994 290.401,-86.6021 289.851,-79.6238"/>
<text text-anchor="middle" x="325.5" y="-84" font-family="Helvetica,sans-Serif" font-size="10.00"> liegroups</text>
</g>
<!-- Node4 -->
<g id="node4" class="node"><title>Node4</title>
<g id="a_node4"><a xlink:title="STL class. ">
<polygon fill="white" stroke="#bfbfbf" points="194,-41.5 194,-60.5 235,-60.5 235,-41.5 194,-41.5"/>
<text text-anchor="middle" x="214.5" y="-48.5" font-family="Helvetica,sans-Serif" font-size="10.00">string</text>
</a>
</g>
</g>
<!-- Node4&#45;&gt;Node1 -->
<g id="edge3" class="edge"><title>Node4&#45;&gt;Node1</title>
<path fill="none" stroke="#9a32cd" stroke-dasharray="5,2" d="M245.318,-53.5864C271.98,-55.931 312.113,-59.5394 347,-63 352.838,-63.5791 358.903,-64.1969 364.98,-64.8273"/>
<polygon fill="#9a32cd" stroke="#9a32cd" points="245.382,-50.0786 235.115,-52.6929 244.771,-57.052 245.382,-50.0786"/>
<text text-anchor="middle" x="325.5" y="-66" font-family="Helvetica,sans-Serif" font-size="10.00"> m_name</text>
</g>
<!-- Node5 -->
<g id="node5" class="node"><title>Node5</title>
<g id="a_node5"><a xlink:title="STL class. ">
<polygon fill="white" stroke="#bfbfbf" points="0,-41.5 0,-60.5 106,-60.5 106,-41.5 0,-41.5"/>
<text text-anchor="middle" x="53" y="-48.5" font-family="Helvetica,sans-Serif" font-size="10.00">basic_string&lt; char &gt;</text>
</a>
</g>
</g>
<!-- Node5&#45;&gt;Node4 -->
<g id="edge4" class="edge"><title>Node5&#45;&gt;Node4</title>
<path fill="none" stroke="midnightblue" d="M116.25,-51C143.891,-51 174.482,-51 193.837,-51"/>
<polygon fill="midnightblue" stroke="midnightblue" points="116.226,-47.5001 106.226,-51 116.226,-54.5001 116.226,-47.5001"/>
</g>
<!-- Node6 -->
<g id="node6" class="node"><title>Node6</title>
<polygon fill="white" stroke="#bfbfbf" points="171.5,-0.5 171.5,-19.5 257.5,-19.5 257.5,-0.5 171.5,-0.5"/>
<text text-anchor="middle" x="214.5" y="-7.5" font-family="Helvetica,sans-Serif" font-size="10.00">vector&lt; Index &gt;</text>
</g>
<!-- Node6&#45;&gt;Node1 -->
<g id="edge5" class="edge"><title>Node6&#45;&gt;Node1</title>
<path fill="none" stroke="#9a32cd" stroke-dasharray="5,2" d="M267.77,-15.9405C292.196,-19.5252 321.458,-24.9893 347,-33 366.484,-39.1107 387.309,-48.7567 403.35,-56.9264"/>
<polygon fill="#9a32cd" stroke="#9a32cd" points="268.012,-12.4402 257.623,-14.5172 267.04,-19.3724 268.012,-12.4402"/>
<text text-anchor="middle" x="325.5" y="-47" font-family="Helvetica,sans-Serif" font-size="10.00"> lg_nvs</text>
<text text-anchor="middle" x="325.5" y="-36" font-family="Helvetica,sans-Serif" font-size="10.00">lg_nqs</text>
</g>
</g>
</svg>
