<?xml version="1.0" encoding="UTF-8" standalone="no"?>
<!DOCTYPE svg PUBLIC "-//W3C//DTD SVG 1.1//EN"
 "http://www.w3.org/Graphics/SVG/1.1/DTD/svg11.dtd">
<!-- Generated by graphviz version 2.38.0 (20140413.2041)
 -->
<!-- Title: ConstraintRevoluteUnalignedTpl&lt; _Scalar, _Options &gt;::TransposeConst Pages: 1 -->
<svg width="152pt" height="207pt"
 viewBox="0.00 0.00 152.00 207.00" xmlns="http://www.w3.org/2000/svg" xmlns:xlink="http://www.w3.org/1999/xlink">
<g id="graph0" class="graph" transform="scale(1 1) rotate(0) translate(4 203)">
<title>ConstraintRevoluteUnalignedTpl&lt; _Scalar, _Options &gt;::TransposeConst</title>
<polygon fill="white" stroke="none" points="-4,4 -4,-203 148,-203 148,4 -4,4"/>
<!-- Node1 -->
<g id="node1" class="node"><title>Node1</title>
<polygon fill="#bfbfbf" stroke="black" points="0,-0.5 0,-41.5 144,-41.5 144,-0.5 0,-0.5"/>
<text text-anchor="start" x="8" y="-29.5" font-family="Helvetica,sans-Serif" font-size="10.00">ConstraintRevoluteUnaligned</text>
<text text-anchor="start" x="8" y="-18.5" font-family="Helvetica,sans-Serif" font-size="10.00">Tpl&lt; _Scalar, _Options &gt;</text>
<text text-anchor="middle" x="72" y="-7.5" font-family="Helvetica,sans-Serif" font-size="10.00">::TransposeConst</text>
</g>
<!-- Node2 -->
<g id="node2" class="node"><title>Node2</title>
<g id="a_node2"><a xlink:href="structpinocchio_1_1ConstraintRevoluteUnalignedTpl.html" target="_top" xlink:title="ConstraintRevoluteUnaligned\lTpl\&lt; _Scalar, _Options \&gt;">
<polygon fill="white" stroke="black" points="0,-89.5 0,-119.5 144,-119.5 144,-89.5 0,-89.5"/>
<text text-anchor="start" x="8" y="-107.5" font-family="Helvetica,sans-Serif" font-size="10.00">ConstraintRevoluteUnaligned</text>
<text text-anchor="middle" x="72" y="-96.5" font-family="Helvetica,sans-Serif" font-size="10.00">Tpl&lt; _Scalar, _Options &gt;</text>
</a>
</g>
</g>
<!-- Node2&#45;&gt;Node1 -->
<g id="edge1" class="edge"><title>Node2&#45;&gt;Node1</title>
<path fill="none" stroke="#9a32cd" stroke-dasharray="5,2" d="M72,-79.0662C72,-67.0614 72,-52.7937 72,-41.5278"/>
<polygon fill="#9a32cd" stroke="#9a32cd" points="68.5001,-79.3037 72,-89.3038 75.5001,-79.3038 68.5001,-79.3037"/>
<text text-anchor="middle" x="79.5" y="-63" font-family="Helvetica,sans-Serif" font-size="10.00"> ref</text>
</g>
<!-- Node3 -->
<g id="node3" class="node"><title>Node3</title>
<g id="a_node3"><a xlink:href="classpinocchio_1_1ConstraintBase.html" target="_top" xlink:title="ConstraintBase\&lt; Constraint\lRevoluteUnalignedTpl\&lt; \l_Scalar, _Options \&gt; \&gt;">
<polygon fill="white" stroke="black" points="3,-157.5 3,-198.5 141,-198.5 141,-157.5 3,-157.5"/>
<text text-anchor="start" x="11" y="-186.5" font-family="Helvetica,sans-Serif" font-size="10.00">ConstraintBase&lt; Constraint</text>
<text text-anchor="start" x="11" y="-175.5" font-family="Helvetica,sans-Serif" font-size="10.00">RevoluteUnalignedTpl&lt; </text>
<text text-anchor="middle" x="72" y="-164.5" font-family="Helvetica,sans-Serif" font-size="10.00">_Scalar, _Options &gt; &gt;</text>
</a>
</g>
</g>
<!-- Node3&#45;&gt;Node2 -->
<g id="edge2" class="edge"><title>Node3&#45;&gt;Node2</title>
<path fill="none" stroke="midnightblue" d="M72,-147.158C72,-137.687 72,-127.647 72,-119.797"/>
<polygon fill="midnightblue" stroke="midnightblue" points="68.5001,-147.462 72,-157.462 75.5001,-147.462 68.5001,-147.462"/>
</g>
</g>
</svg>
