<?xml version="1.0" encoding="UTF-8" standalone="no"?>
<!DOCTYPE svg PUBLIC "-//W3C//DTD SVG 1.1//EN"
 "http://www.w3.org/Graphics/SVG/1.1/DTD/svg11.dtd">
<!-- Generated by graphviz version 2.38.0 (20140413.2041)
 -->
<!-- Title: GeometryObject Pages: 1 -->
<svg width="272pt" height="185pt"
 viewBox="0.00 0.00 272.00 185.00" xmlns="http://www.w3.org/2000/svg" xmlns:xlink="http://www.w3.org/1999/xlink">
<g id="graph0" class="graph" transform="scale(1 1) rotate(0) translate(4 181)">
<title>GeometryObject</title>
<polygon fill="white" stroke="none" points="-4,4 -4,-181 268,-181 268,4 -4,4"/>
<!-- Node1 -->
<g id="node1" class="node"><title>Node1</title>
<polygon fill="#bfbfbf" stroke="black" points="75,-0.5 75,-19.5 163,-19.5 163,-0.5 75,-0.5"/>
<text text-anchor="middle" x="119" y="-7.5" font-family="Helvetica,sans-Serif" font-size="10.00">GeometryObject</text>
</g>
<!-- Node2 -->
<g id="node2" class="node"><title>Node2</title>
<g id="a_node2"><a xlink:title="STL class. ">
<polygon fill="white" stroke="#bfbfbf" points="35.5,-89.5 35.5,-108.5 76.5,-108.5 76.5,-89.5 35.5,-89.5"/>
<text text-anchor="middle" x="56" y="-96.5" font-family="Helvetica,sans-Serif" font-size="10.00">string</text>
</a>
</g>
</g>
<!-- Node2&#45;&gt;Node1 -->
<g id="edge1" class="edge"><title>Node2&#45;&gt;Node1</title>
<path fill="none" stroke="#9a32cd" stroke-dasharray="5,2" d="M56.8563,-79.3535C58.2919,-66.5877 61.9334,-49.8847 71,-38 77.1472,-29.9422 86.4332,-23.9281 95.2048,-19.6469"/>
<polygon fill="#9a32cd" stroke="#9a32cd" points="53.3657,-79.0976 56.0816,-89.3384 60.3447,-79.6391 53.3657,-79.0976"/>
<text text-anchor="middle" x="111.5" y="-63" font-family="Helvetica,sans-Serif" font-size="10.00"> meshTexturePath</text>
<text text-anchor="middle" x="111.5" y="-52" font-family="Helvetica,sans-Serif" font-size="10.00">meshPath</text>
<text text-anchor="middle" x="111.5" y="-41" font-family="Helvetica,sans-Serif" font-size="10.00">name</text>
</g>
<!-- Node3 -->
<g id="node3" class="node"><title>Node3</title>
<g id="a_node3"><a xlink:title="STL class. ">
<polygon fill="white" stroke="#bfbfbf" points="0,-152 0,-171 106,-171 106,-152 0,-152"/>
<text text-anchor="middle" x="53" y="-159" font-family="Helvetica,sans-Serif" font-size="10.00">basic_string&lt; char &gt;</text>
</a>
</g>
</g>
<!-- Node3&#45;&gt;Node2 -->
<g id="edge2" class="edge"><title>Node3&#45;&gt;Node2</title>
<path fill="none" stroke="midnightblue" d="M53.942,-141.503C54.4876,-130.5 55.148,-117.182 55.571,-108.652"/>
<polygon fill="midnightblue" stroke="midnightblue" points="50.4295,-141.671 53.4298,-151.832 57.4209,-142.017 50.4295,-141.671"/>
</g>
<!-- Node4 -->
<g id="node4" class="node"><title>Node4</title>
<g id="a_node4"><a xlink:href="structpinocchio_1_1SE3Tpl.html" target="_top" xlink:title="SE3Tpl\&lt; double, 0 \&gt;">
<polygon fill="white" stroke="black" points="138.5,-89.5 138.5,-108.5 245.5,-108.5 245.5,-89.5 138.5,-89.5"/>
<text text-anchor="middle" x="192" y="-96.5" font-family="Helvetica,sans-Serif" font-size="10.00">SE3Tpl&lt; double, 0 &gt;</text>
</a>
</g>
</g>
<!-- Node4&#45;&gt;Node1 -->
<g id="edge3" class="edge"><title>Node4&#45;&gt;Node1</title>
<path fill="none" stroke="#9a32cd" stroke-dasharray="5,2" d="M182.128,-80.3253C174.703,-67.8194 163.811,-51.026 152,-38 145.834,-31.2002 137.899,-24.653 131.355,-19.709"/>
<polygon fill="#9a32cd" stroke="#9a32cd" points="179.265,-82.3663 187.292,-89.2817 185.329,-78.8701 179.265,-82.3663"/>
<text text-anchor="middle" x="200.5" y="-52" font-family="Helvetica,sans-Serif" font-size="10.00"> placement</text>
</g>
<!-- Node5 -->
<g id="node5" class="node"><title>Node5</title>
<g id="a_node5"><a xlink:href="structpinocchio_1_1SE3Base.html" target="_top" xlink:title="SE3Base\&lt; SE3Tpl\&lt; double,\l _Options \&gt; \&gt;">
<polygon fill="white" stroke="black" points="124,-146.5 124,-176.5 264,-176.5 264,-146.5 124,-146.5"/>
<text text-anchor="start" x="132" y="-164.5" font-family="Helvetica,sans-Serif" font-size="10.00">SE3Base&lt; SE3Tpl&lt; double,</text>
<text text-anchor="middle" x="194" y="-153.5" font-family="Helvetica,sans-Serif" font-size="10.00"> _Options &gt; &gt;</text>
</a>
</g>
</g>
<!-- Node5&#45;&gt;Node4 -->
<g id="edge4" class="edge"><title>Node5&#45;&gt;Node4</title>
<path fill="none" stroke="midnightblue" d="M193.202,-136.352C192.876,-126.513 192.521,-115.775 192.282,-108.54"/>
<polygon fill="midnightblue" stroke="midnightblue" points="189.708,-136.589 193.536,-146.468 196.704,-136.358 189.708,-136.589"/>
</g>
</g>
</svg>
