<?xml version="1.0" encoding="UTF-8" standalone="no"?>
<!DOCTYPE svg PUBLIC "-//W3C//DTD SVG 1.1//EN"
 "http://www.w3.org/Graphics/SVG/1.1/DTD/svg11.dtd">
<!-- Generated by graphviz version 2.38.0 (20140413.2041)
 -->
<!-- Title: SpecialOrthogonalOperationTpl&lt; 2, _Scalar, _Options &gt; Pages: 1 -->
<svg width="175pt" height="117pt"
 viewBox="0.00 0.00 175.00 117.00" xmlns="http://www.w3.org/2000/svg" xmlns:xlink="http://www.w3.org/1999/xlink">
<g id="graph0" class="graph" transform="scale(1 1) rotate(0) translate(4 113)">
<title>SpecialOrthogonalOperationTpl&lt; 2, _Scalar, _Options &gt;</title>
<polygon fill="white" stroke="none" points="-4,4 -4,-113 171,-113 171,4 -4,4"/>
<!-- Node1 -->
<g id="node1" class="node"><title>Node1</title>
<polygon fill="#bfbfbf" stroke="black" points="14.5,-0.5 14.5,-30.5 152.5,-30.5 152.5,-0.5 14.5,-0.5"/>
<text text-anchor="start" x="22.5" y="-18.5" font-family="Helvetica,sans-Serif" font-size="10.00">SpecialOrthogonalOperation</text>
<text text-anchor="middle" x="83.5" y="-7.5" font-family="Helvetica,sans-Serif" font-size="10.00">Tpl&lt; 2, _Scalar, _Options &gt;</text>
</g>
<!-- Node2 -->
<g id="node2" class="node"><title>Node2</title>
<g id="a_node2"><a xlink:href="structpinocchio_1_1LieGroupBase.html" target="_top" xlink:title="LieGroupBase\&lt; SpecialOrthogonal\lOperationTpl\&lt; 2, _Scalar,\l _Options \&gt; \&gt;">
<polygon fill="white" stroke="black" points="-1.42109e-14,-67.5 -1.42109e-14,-108.5 167,-108.5 167,-67.5 -1.42109e-14,-67.5"/>
<text text-anchor="start" x="8" y="-96.5" font-family="Helvetica,sans-Serif" font-size="10.00">LieGroupBase&lt; SpecialOrthogonal</text>
<text text-anchor="start" x="8" y="-85.5" font-family="Helvetica,sans-Serif" font-size="10.00">OperationTpl&lt; 2, _Scalar,</text>
<text text-anchor="middle" x="83.5" y="-74.5" font-family="Helvetica,sans-Serif" font-size="10.00"> _Options &gt; &gt;</text>
</a>
</g>
</g>
<!-- Node2&#45;&gt;Node1 -->
<g id="edge1" class="edge"><title>Node2&#45;&gt;Node1</title>
<path fill="none" stroke="midnightblue" d="M83.5,-57.08C83.5,-48.0061 83.5,-38.4498 83.5,-30.8916"/>
<polygon fill="midnightblue" stroke="midnightblue" points="80.0001,-57.3618 83.5,-67.3618 87.0001,-57.3619 80.0001,-57.3618"/>
</g>
</g>
</svg>
