<?xml version="1.0" encoding="UTF-8" standalone="no"?>
<!DOCTYPE svg PUBLIC "-//W3C//DTD SVG 1.1//EN"
 "http://www.w3.org/Graphics/SVG/1.1/DTD/svg11.dtd">
<!-- Generated by graphviz version 2.38.0 (20140413.2041)
 -->
<!-- Title: CodeGenBase&lt; _Scalar &gt; Pages: 1 -->
<svg width="312pt" height="242pt"
 viewBox="0.00 0.00 312.00 241.50" xmlns="http://www.w3.org/2000/svg" xmlns:xlink="http://www.w3.org/1999/xlink">
<g id="graph0" class="graph" transform="scale(1 1) rotate(0) translate(4 237.5)">
<title>CodeGenBase&lt; _Scalar &gt;</title>
<polygon fill="white" stroke="none" points="-4,4 -4,-237.5 308,-237.5 308,4 -4,4"/>
<!-- Node1 -->
<g id="node1" class="node"><title>Node1</title>
<polygon fill="#bfbfbf" stroke="black" points="0,-107 0,-126 131,-126 131,-107 0,-107"/>
<text text-anchor="middle" x="65.5" y="-114" font-family="Helvetica,sans-Serif" font-size="10.00">CodeGenBase&lt; _Scalar &gt;</text>
</g>
<!-- Node2 -->
<g id="node2" class="node"><title>Node2</title>
<g id="a_node2"><a xlink:href="structpinocchio_1_1CodeGenABA.html" target="_top" xlink:title="CodeGenABA\&lt; _Scalar \&gt;">
<polygon fill="white" stroke="black" points="171,-214 171,-233 300,-233 300,-214 171,-214"/>
<text text-anchor="middle" x="235.5" y="-221" font-family="Helvetica,sans-Serif" font-size="10.00">CodeGenABA&lt; _Scalar &gt;</text>
</a>
</g>
</g>
<!-- Node1&#45;&gt;Node2 -->
<g id="edge1" class="edge"><title>Node1&#45;&gt;Node2</title>
<path fill="none" stroke="midnightblue" d="M81.5751,-133.698C99.8792,-153.549 132.595,-185.848 167,-204.5 174.064,-208.329 181.972,-211.447 189.819,-213.966"/>
<polygon fill="midnightblue" stroke="midnightblue" points="84.1648,-131.344 74.8634,-126.271 78.9711,-136.037 84.1648,-131.344"/>
</g>
<!-- Node3 -->
<g id="node3" class="node"><title>Node3</title>
<g id="a_node3"><a xlink:href="structpinocchio_1_1CodeGenABADerivatives.html" target="_top" xlink:title="CodeGenABADerivatives\l\&lt; _Scalar \&gt;">
<polygon fill="white" stroke="black" points="171.5,-164.5 171.5,-194.5 299.5,-194.5 299.5,-164.5 171.5,-164.5"/>
<text text-anchor="start" x="179.5" y="-182.5" font-family="Helvetica,sans-Serif" font-size="10.00">CodeGenABADerivatives</text>
<text text-anchor="middle" x="235.5" y="-171.5" font-family="Helvetica,sans-Serif" font-size="10.00">&lt; _Scalar &gt;</text>
</a>
</g>
</g>
<!-- Node1&#45;&gt;Node3 -->
<g id="edge2" class="edge"><title>Node1&#45;&gt;Node3</title>
<path fill="none" stroke="midnightblue" d="M101.278,-129.716C120.619,-137.049 145.131,-146.316 167,-154.5 175.661,-157.741 184.955,-161.198 193.792,-164.474"/>
<polygon fill="midnightblue" stroke="midnightblue" points="102.268,-126.348 91.6765,-126.074 99.7847,-132.893 102.268,-126.348"/>
</g>
<!-- Node4 -->
<g id="node4" class="node"><title>Node4</title>
<g id="a_node4"><a xlink:href="structpinocchio_1_1CodeGenCRBA.html" target="_top" xlink:title="CodeGenCRBA\&lt; _Scalar \&gt;">
<polygon fill="white" stroke="black" points="167,-126 167,-145 304,-145 304,-126 167,-126"/>
<text text-anchor="middle" x="235.5" y="-133" font-family="Helvetica,sans-Serif" font-size="10.00">CodeGenCRBA&lt; _Scalar &gt;</text>
</a>
</g>
</g>
<!-- Node1&#45;&gt;Node4 -->
<g id="edge3" class="edge"><title>Node1&#45;&gt;Node4</title>
<path fill="none" stroke="midnightblue" d="M141.648,-124.999C150.074,-125.952 158.62,-126.918 166.941,-127.859"/>
<polygon fill="midnightblue" stroke="midnightblue" points="141.783,-121.492 131.453,-123.846 140.996,-128.448 141.783,-121.492"/>
</g>
<!-- Node5 -->
<g id="node5" class="node"><title>Node5</title>
<g id="a_node5"><a xlink:href="structpinocchio_1_1CodeGenMinv.html" target="_top" xlink:title="CodeGenMinv\&lt; _Scalar \&gt;">
<polygon fill="white" stroke="black" points="170.5,-88 170.5,-107 300.5,-107 300.5,-88 170.5,-88"/>
<text text-anchor="middle" x="235.5" y="-95" font-family="Helvetica,sans-Serif" font-size="10.00">CodeGenMinv&lt; _Scalar &gt;</text>
</a>
</g>
</g>
<!-- Node1&#45;&gt;Node5 -->
<g id="edge4" class="edge"><title>Node1&#45;&gt;Node5</title>
<path fill="none" stroke="midnightblue" d="M141.41,-108.028C151.041,-106.939 160.834,-105.831 170.273,-104.764"/>
<polygon fill="midnightblue" stroke="midnightblue" points="140.996,-104.552 131.453,-109.154 141.783,-111.508 140.996,-104.552"/>
</g>
<!-- Node6 -->
<g id="node6" class="node"><title>Node6</title>
<g id="a_node6"><a xlink:href="structpinocchio_1_1CodeGenRNEA.html" target="_top" xlink:title="CodeGenRNEA\&lt; _Scalar \&gt;">
<polygon fill="white" stroke="black" points="167,-50 167,-69 304,-69 304,-50 167,-50"/>
<text text-anchor="middle" x="235.5" y="-57" font-family="Helvetica,sans-Serif" font-size="10.00">CodeGenRNEA&lt; _Scalar &gt;</text>
</a>
</g>
</g>
<!-- Node1&#45;&gt;Node6 -->
<g id="edge5" class="edge"><title>Node1&#45;&gt;Node6</title>
<path fill="none" stroke="midnightblue" d="M99.5942,-103.155C119.069,-95.5116 144.263,-85.9827 167,-78.5 177.061,-75.189 188.079,-71.9341 198.242,-69.0795"/>
<polygon fill="midnightblue" stroke="midnightblue" points="98.2648,-99.9172 90.2523,-106.849 100.839,-106.427 98.2648,-99.9172"/>
</g>
<!-- Node7 -->
<g id="node7" class="node"><title>Node7</title>
<g id="a_node7"><a xlink:href="structpinocchio_1_1CodeGenRNEADerivatives.html" target="_top" xlink:title="CodeGenRNEADerivatives\l\&lt; _Scalar \&gt;">
<polygon fill="white" stroke="black" points="167.5,-0.5 167.5,-30.5 303.5,-30.5 303.5,-0.5 167.5,-0.5"/>
<text text-anchor="start" x="175.5" y="-18.5" font-family="Helvetica,sans-Serif" font-size="10.00">CodeGenRNEADerivatives</text>
<text text-anchor="middle" x="235.5" y="-7.5" font-family="Helvetica,sans-Serif" font-size="10.00">&lt; _Scalar &gt;</text>
</a>
</g>
</g>
<!-- Node1&#45;&gt;Node7 -->
<g id="edge6" class="edge"><title>Node1&#45;&gt;Node7</title>
<path fill="none" stroke="midnightblue" d="M84.6193,-100.177C103.92,-83.4435 135.914,-57.526 167,-40.5 173.686,-36.8381 181.018,-33.5018 188.309,-30.544"/>
<polygon fill="midnightblue" stroke="midnightblue" points="82.1241,-97.711 76.9288,-106.945 86.7483,-102.966 82.1241,-97.711"/>
</g>
</g>
</svg>
