<?xml version="1.0" encoding="UTF-8" standalone="no"?>
<!DOCTYPE svg PUBLIC "-//W3C//DTD SVG 1.1//EN"
 "http://www.w3.org/Graphics/SVG/1.1/DTD/svg11.dtd">
<!-- Generated by graphviz version 2.38.0 (20140413.2041)
 -->
<!-- Title: has_nothrow_copy&lt; ::pinocchio::JointModelRevoluteUnalignedTpl&lt; Scalar, Options &gt; &gt; Pages: 1 -->
<svg width="176pt" height="117pt"
 viewBox="0.00 0.00 176.00 117.00" xmlns="http://www.w3.org/2000/svg" xmlns:xlink="http://www.w3.org/1999/xlink">
<g id="graph0" class="graph" transform="scale(1 1) rotate(0) translate(4 113)">
<title>has_nothrow_copy&lt; ::pinocchio::JointModelRevoluteUnalignedTpl&lt; Scalar, Options &gt; &gt;</title>
<polygon fill="white" stroke="none" points="-4,4 -4,-113 172,-113 172,4 -4,4"/>
<!-- Node1 -->
<g id="node1" class="node"><title>Node1</title>
<polygon fill="#bfbfbf" stroke="black" points="-1.42109e-14,-0.5 -1.42109e-14,-41.5 168,-41.5 168,-0.5 -1.42109e-14,-0.5"/>
<text text-anchor="start" x="8" y="-29.5" font-family="Helvetica,sans-Serif" font-size="10.00">has_nothrow_copy&lt; </text>
<text text-anchor="start" x="8" y="-18.5" font-family="Helvetica,sans-Serif" font-size="10.00">::pinocchio::JointModelRevolute</text>
<text text-anchor="middle" x="84" y="-7.5" font-family="Helvetica,sans-Serif" font-size="10.00">UnalignedTpl&lt; Scalar, Options &gt; &gt;</text>
</g>
<!-- Node2 -->
<g id="node2" class="node"><title>Node2</title>
<polygon fill="white" stroke="#bfbfbf" points="35.5,-78.5 35.5,-108.5 132.5,-108.5 132.5,-78.5 35.5,-78.5"/>
<text text-anchor="start" x="43.5" y="-96.5" font-family="Helvetica,sans-Serif" font-size="10.00">integral_constant&lt;</text>
<text text-anchor="middle" x="84" y="-85.5" font-family="Helvetica,sans-Serif" font-size="10.00"> bool, true &gt;</text>
</g>
<!-- Node2&#45;&gt;Node1 -->
<g id="edge1" class="edge"><title>Node2&#45;&gt;Node1</title>
<path fill="none" stroke="midnightblue" d="M84,-67.9815C84,-59.3468 84,-49.7625 84,-41.5884"/>
<polygon fill="midnightblue" stroke="midnightblue" points="80.5001,-68.2332 84,-78.2333 87.5001,-68.2333 80.5001,-68.2332"/>
</g>
</g>
</svg>
