<?xml version="1.0" encoding="UTF-8" standalone="no"?>
<!DOCTYPE svg PUBLIC "-//W3C//DTD SVG 1.1//EN"
 "http://www.w3.org/Graphics/SVG/1.1/DTD/svg11.dtd">
<!-- Generated by graphviz version 2.38.0 (20140413.2041)
 -->
<!-- Title: ConstraintPlanarTpl&lt; _Scalar, _Options &gt;::ConstraintTranspose Pages: 1 -->
<svg width="171pt" height="196pt"
 viewBox="0.00 0.00 171.00 196.00" xmlns="http://www.w3.org/2000/svg" xmlns:xlink="http://www.w3.org/1999/xlink">
<g id="graph0" class="graph" transform="scale(1 1) rotate(0) translate(4 192)">
<title>ConstraintPlanarTpl&lt; _Scalar, _Options &gt;::ConstraintTranspose</title>
<polygon fill="white" stroke="none" points="-4,4 -4,-192 167,-192 167,4 -4,4"/>
<!-- Node1 -->
<g id="node1" class="node"><title>Node1</title>
<polygon fill="#bfbfbf" stroke="black" points="20.5,-0.5 20.5,-41.5 142.5,-41.5 142.5,-0.5 20.5,-0.5"/>
<text text-anchor="start" x="28.5" y="-29.5" font-family="Helvetica,sans-Serif" font-size="10.00">ConstraintPlanarTpl</text>
<text text-anchor="start" x="28.5" y="-18.5" font-family="Helvetica,sans-Serif" font-size="10.00">&lt; _Scalar, _Options</text>
<text text-anchor="middle" x="81.5" y="-7.5" font-family="Helvetica,sans-Serif" font-size="10.00"> &gt;::ConstraintTranspose</text>
</g>
<!-- Node2 -->
<g id="node2" class="node"><title>Node2</title>
<g id="a_node2"><a xlink:href="structpinocchio_1_1ConstraintPlanarTpl.html" target="_top" xlink:title="ConstraintPlanarTpl\l\&lt; _Scalar, _Options \&gt;">
<polygon fill="white" stroke="black" points="25,-89.5 25,-119.5 138,-119.5 138,-89.5 25,-89.5"/>
<text text-anchor="start" x="33" y="-107.5" font-family="Helvetica,sans-Serif" font-size="10.00">ConstraintPlanarTpl</text>
<text text-anchor="middle" x="81.5" y="-96.5" font-family="Helvetica,sans-Serif" font-size="10.00">&lt; _Scalar, _Options &gt;</text>
</a>
</g>
</g>
<!-- Node2&#45;&gt;Node1 -->
<g id="edge1" class="edge"><title>Node2&#45;&gt;Node1</title>
<path fill="none" stroke="#9a32cd" stroke-dasharray="5,2" d="M81.5,-79.0662C81.5,-67.0614 81.5,-52.7937 81.5,-41.5278"/>
<polygon fill="#9a32cd" stroke="#9a32cd" points="78.0001,-79.3037 81.5,-89.3038 85.0001,-79.3038 78.0001,-79.3037"/>
<text text-anchor="middle" x="89" y="-63" font-family="Helvetica,sans-Serif" font-size="10.00"> ref</text>
</g>
<!-- Node3 -->
<g id="node3" class="node"><title>Node3</title>
<g id="a_node3"><a xlink:href="classpinocchio_1_1ConstraintBase.html" target="_top" xlink:title="ConstraintBase\&lt; Constraint\lPlanarTpl\&lt; _Scalar, _Options \&gt; \&gt;">
<polygon fill="white" stroke="black" points="0,-157.5 0,-187.5 163,-187.5 163,-157.5 0,-157.5"/>
<text text-anchor="start" x="8" y="-175.5" font-family="Helvetica,sans-Serif" font-size="10.00">ConstraintBase&lt; Constraint</text>
<text text-anchor="middle" x="81.5" y="-164.5" font-family="Helvetica,sans-Serif" font-size="10.00">PlanarTpl&lt; _Scalar, _Options &gt; &gt;</text>
</a>
</g>
</g>
<!-- Node3&#45;&gt;Node2 -->
<g id="edge2" class="edge"><title>Node3&#45;&gt;Node2</title>
<path fill="none" stroke="midnightblue" d="M81.5,-147.032C81.5,-137.861 81.5,-127.745 81.5,-119.793"/>
<polygon fill="midnightblue" stroke="midnightblue" points="78.0001,-147.179 81.5,-157.179 85.0001,-147.179 78.0001,-147.179"/>
</g>
</g>
</svg>
