<?xml version="1.0" encoding="UTF-8" standalone="no"?>
<!DOCTYPE svg PUBLIC "-//W3C//DTD SVG 1.1//EN"
 "http://www.w3.org/Graphics/SVG/1.1/DTD/svg11.dtd">
<!-- Generated by graphviz version 2.38.0 (20140413.2041)
 -->
<!-- Title: ConstraintTpl&lt; _Dim, _Scalar, _Options &gt;::Transpose Pages: 1 -->
<svg width="172pt" height="196pt"
 viewBox="0.00 0.00 172.00 196.00" xmlns="http://www.w3.org/2000/svg" xmlns:xlink="http://www.w3.org/1999/xlink">
<g id="graph0" class="graph" transform="scale(1 1) rotate(0) translate(4 192)">
<title>ConstraintTpl&lt; _Dim, _Scalar, _Options &gt;::Transpose</title>
<polygon fill="white" stroke="none" points="-4,4 -4,-192 168,-192 168,4 -4,4"/>
<!-- Node1 -->
<g id="node1" class="node"><title>Node1</title>
<polygon fill="#bfbfbf" stroke="black" points="27,-0.5 27,-41.5 137,-41.5 137,-0.5 27,-0.5"/>
<text text-anchor="start" x="35" y="-29.5" font-family="Helvetica,sans-Serif" font-size="10.00">ConstraintTpl&lt; _Dim,</text>
<text text-anchor="start" x="35" y="-18.5" font-family="Helvetica,sans-Serif" font-size="10.00"> _Scalar, _Options &gt;</text>
<text text-anchor="middle" x="82" y="-7.5" font-family="Helvetica,sans-Serif" font-size="10.00">::Transpose</text>
</g>
<!-- Node2 -->
<g id="node2" class="node"><title>Node2</title>
<g id="a_node2"><a xlink:href="classpinocchio_1_1ConstraintTpl.html" target="_top" xlink:title="ConstraintTpl\&lt; _Dim,\l _Scalar, _Options \&gt;">
<polygon fill="white" stroke="black" points="27,-89.5 27,-119.5 137,-119.5 137,-89.5 27,-89.5"/>
<text text-anchor="start" x="35" y="-107.5" font-family="Helvetica,sans-Serif" font-size="10.00">ConstraintTpl&lt; _Dim,</text>
<text text-anchor="middle" x="82" y="-96.5" font-family="Helvetica,sans-Serif" font-size="10.00"> _Scalar, _Options &gt;</text>
</a>
</g>
</g>
<!-- Node2&#45;&gt;Node1 -->
<g id="edge1" class="edge"><title>Node2&#45;&gt;Node1</title>
<path fill="none" stroke="#9a32cd" stroke-dasharray="5,2" d="M82,-79.0662C82,-67.0614 82,-52.7937 82,-41.5278"/>
<polygon fill="#9a32cd" stroke="#9a32cd" points="78.5001,-79.3037 82,-89.3038 85.5001,-79.3038 78.5001,-79.3037"/>
<text text-anchor="middle" x="89.5" y="-63" font-family="Helvetica,sans-Serif" font-size="10.00"> ref</text>
</g>
<!-- Node3 -->
<g id="node3" class="node"><title>Node3</title>
<g id="a_node3"><a xlink:href="classpinocchio_1_1ConstraintBase.html" target="_top" xlink:title="ConstraintBase\&lt; Constraint\lTpl\&lt; _Dim, _Scalar, _Options \&gt; \&gt;">
<polygon fill="white" stroke="black" points="0,-157.5 0,-187.5 164,-187.5 164,-157.5 0,-157.5"/>
<text text-anchor="start" x="8" y="-175.5" font-family="Helvetica,sans-Serif" font-size="10.00">ConstraintBase&lt; Constraint</text>
<text text-anchor="middle" x="82" y="-164.5" font-family="Helvetica,sans-Serif" font-size="10.00">Tpl&lt; _Dim, _Scalar, _Options &gt; &gt;</text>
</a>
</g>
</g>
<!-- Node3&#45;&gt;Node2 -->
<g id="edge2" class="edge"><title>Node3&#45;&gt;Node2</title>
<path fill="none" stroke="midnightblue" d="M82,-147.032C82,-137.861 82,-127.745 82,-119.793"/>
<polygon fill="midnightblue" stroke="midnightblue" points="78.5001,-147.179 82,-157.179 85.5001,-147.179 78.5001,-147.179"/>
</g>
</g>
</svg>
