<?xml version="1.0" encoding="UTF-8" standalone="no"?>
<!DOCTYPE svg PUBLIC "-//W3C//DTD SVG 1.1//EN"
 "http://www.w3.org/Graphics/SVG/1.1/DTD/svg11.dtd">
<!-- Generated by graphviz version 2.38.0 (20140413.2041)
 -->
<!-- Title: TransformPrismaticTpl&lt; _Scalar, _Options, axis &gt; Pages: 1 -->
<svg width="160pt" height="128pt"
 viewBox="0.00 0.00 160.00 128.00" xmlns="http://www.w3.org/2000/svg" xmlns:xlink="http://www.w3.org/1999/xlink">
<g id="graph0" class="graph" transform="scale(1 1) rotate(0) translate(4 124)">
<title>TransformPrismaticTpl&lt; _Scalar, _Options, axis &gt;</title>
<polygon fill="white" stroke="none" points="-4,4 -4,-124 156,-124 156,4 -4,4"/>
<!-- Node1 -->
<g id="node1" class="node"><title>Node1</title>
<polygon fill="#bfbfbf" stroke="black" points="18,-0.5 18,-41.5 134,-41.5 134,-0.5 18,-0.5"/>
<text text-anchor="start" x="26" y="-29.5" font-family="Helvetica,sans-Serif" font-size="10.00">TransformPrismaticTpl</text>
<text text-anchor="start" x="26" y="-18.5" font-family="Helvetica,sans-Serif" font-size="10.00">&lt; _Scalar, _Options,</text>
<text text-anchor="middle" x="76" y="-7.5" font-family="Helvetica,sans-Serif" font-size="10.00"> axis &gt;</text>
</g>
<!-- Node2 -->
<g id="node2" class="node"><title>Node2</title>
<g id="a_node2"><a xlink:href="structpinocchio_1_1SE3Base.html" target="_top" xlink:title="SE3Base\&lt; TransformPrismatic\lTpl\&lt; _Scalar, _Options,\l axis \&gt; \&gt;">
<polygon fill="white" stroke="black" points="0,-78.5 0,-119.5 152,-119.5 152,-78.5 0,-78.5"/>
<text text-anchor="start" x="8" y="-107.5" font-family="Helvetica,sans-Serif" font-size="10.00">SE3Base&lt; TransformPrismatic</text>
<text text-anchor="start" x="8" y="-96.5" font-family="Helvetica,sans-Serif" font-size="10.00">Tpl&lt; _Scalar, _Options,</text>
<text text-anchor="middle" x="76" y="-85.5" font-family="Helvetica,sans-Serif" font-size="10.00"> axis &gt; &gt;</text>
</a>
</g>
</g>
<!-- Node2&#45;&gt;Node1 -->
<g id="edge1" class="edge"><title>Node2&#45;&gt;Node1</title>
<path fill="none" stroke="midnightblue" d="M76,-68.2965C76,-59.3009 76,-49.6532 76,-41.5056"/>
<polygon fill="midnightblue" stroke="midnightblue" points="72.5001,-68.4281 76,-78.4281 79.5001,-68.4281 72.5001,-68.4281"/>
</g>
</g>
</svg>
