<?xml version="1.0" encoding="UTF-8" standalone="no"?>
<!DOCTYPE svg PUBLIC "-//W3C//DTD SVG 1.1//EN"
 "http://www.w3.org/Graphics/SVG/1.1/DTD/svg11.dtd">
<!-- Generated by graphviz version 2.38.0 (20140413.2041)
 -->
<!-- Title: ConstraintTranslationTpl&lt; _Scalar, _Options &gt;::ConstraintTranspose Pages: 1 -->
<svg width="146pt" height="207pt"
 viewBox="0.00 0.00 146.00 207.00" xmlns="http://www.w3.org/2000/svg" xmlns:xlink="http://www.w3.org/1999/xlink">
<g id="graph0" class="graph" transform="scale(1 1) rotate(0) translate(4 203)">
<title>ConstraintTranslationTpl&lt; _Scalar, _Options &gt;::ConstraintTranspose</title>
<polygon fill="white" stroke="none" points="-4,4 -4,-203 142,-203 142,4 -4,4"/>
<!-- Node1 -->
<g id="node1" class="node"><title>Node1</title>
<polygon fill="#bfbfbf" stroke="black" points="7.5,-0.5 7.5,-41.5 130.5,-41.5 130.5,-0.5 7.5,-0.5"/>
<text text-anchor="start" x="15.5" y="-29.5" font-family="Helvetica,sans-Serif" font-size="10.00">ConstraintTranslationTpl</text>
<text text-anchor="start" x="15.5" y="-18.5" font-family="Helvetica,sans-Serif" font-size="10.00">&lt; _Scalar, _Options &gt;::</text>
<text text-anchor="middle" x="69" y="-7.5" font-family="Helvetica,sans-Serif" font-size="10.00">ConstraintTranspose</text>
</g>
<!-- Node2 -->
<g id="node2" class="node"><title>Node2</title>
<g id="a_node2"><a xlink:href="structpinocchio_1_1ConstraintTranslationTpl.html" target="_top" xlink:title="ConstraintTranslationTpl\l\&lt; _Scalar, _Options \&gt;">
<polygon fill="white" stroke="black" points="7.5,-89.5 7.5,-119.5 130.5,-119.5 130.5,-89.5 7.5,-89.5"/>
<text text-anchor="start" x="15.5" y="-107.5" font-family="Helvetica,sans-Serif" font-size="10.00">ConstraintTranslationTpl</text>
<text text-anchor="middle" x="69" y="-96.5" font-family="Helvetica,sans-Serif" font-size="10.00">&lt; _Scalar, _Options &gt;</text>
</a>
</g>
</g>
<!-- Node2&#45;&gt;Node1 -->
<g id="edge1" class="edge"><title>Node2&#45;&gt;Node1</title>
<path fill="none" stroke="#9a32cd" stroke-dasharray="5,2" d="M69,-79.0662C69,-67.0614 69,-52.7937 69,-41.5278"/>
<polygon fill="#9a32cd" stroke="#9a32cd" points="65.5001,-79.3037 69,-89.3038 72.5001,-79.3038 65.5001,-79.3037"/>
<text text-anchor="middle" x="76.5" y="-63" font-family="Helvetica,sans-Serif" font-size="10.00"> ref</text>
</g>
<!-- Node3 -->
<g id="node3" class="node"><title>Node3</title>
<g id="a_node3"><a xlink:href="classpinocchio_1_1ConstraintBase.html" target="_top" xlink:title="ConstraintBase\&lt; Constraint\lTranslationTpl\&lt; _Scalar,\l _Options \&gt; \&gt;">
<polygon fill="white" stroke="black" points="0,-157.5 0,-198.5 138,-198.5 138,-157.5 0,-157.5"/>
<text text-anchor="start" x="8" y="-186.5" font-family="Helvetica,sans-Serif" font-size="10.00">ConstraintBase&lt; Constraint</text>
<text text-anchor="start" x="8" y="-175.5" font-family="Helvetica,sans-Serif" font-size="10.00">TranslationTpl&lt; _Scalar,</text>
<text text-anchor="middle" x="69" y="-164.5" font-family="Helvetica,sans-Serif" font-size="10.00"> _Options &gt; &gt;</text>
</a>
</g>
</g>
<!-- Node3&#45;&gt;Node2 -->
<g id="edge2" class="edge"><title>Node3&#45;&gt;Node2</title>
<path fill="none" stroke="midnightblue" d="M69,-147.158C69,-137.687 69,-127.647 69,-119.797"/>
<polygon fill="midnightblue" stroke="midnightblue" points="65.5001,-147.462 69,-157.462 72.5001,-147.462 65.5001,-147.462"/>
</g>
</g>
</svg>
