<?xml version="1.0" encoding="UTF-8" standalone="no"?>
<!DOCTYPE svg PUBLIC "-//W3C//DTD SVG 1.1//EN"
 "http://www.w3.org/Graphics/SVG/1.1/DTD/svg11.dtd">
<!-- Generated by graphviz version 2.38.0 (20140413.2041)
 -->
<!-- Title: ModelTpl&lt; _Scalar, _Options, JointCollectionTpl &gt; Pages: 1 -->
<svg width="182pt" height="128pt"
 viewBox="0.00 0.00 182.00 128.00" xmlns="http://www.w3.org/2000/svg" xmlns:xlink="http://www.w3.org/1999/xlink">
<g id="graph0" class="graph" transform="scale(1 1) rotate(0) translate(4 124)">
<title>ModelTpl&lt; _Scalar, _Options, JointCollectionTpl &gt;</title>
<polygon fill="white" stroke="none" points="-4,4 -4,-124 178,-124 178,4 -4,4"/>
<!-- Node1 -->
<g id="node1" class="node"><title>Node1</title>
<polygon fill="#bfbfbf" stroke="black" points="22.5,-0.5 22.5,-41.5 151.5,-41.5 151.5,-0.5 22.5,-0.5"/>
<text text-anchor="start" x="30.5" y="-29.5" font-family="Helvetica,sans-Serif" font-size="10.00">ModelTpl&lt; _Scalar,</text>
<text text-anchor="start" x="30.5" y="-18.5" font-family="Helvetica,sans-Serif" font-size="10.00"> _Options, JointCollection</text>
<text text-anchor="middle" x="87" y="-7.5" font-family="Helvetica,sans-Serif" font-size="10.00">Tpl &gt;</text>
</g>
<!-- Node2 -->
<g id="node2" class="node"><title>Node2</title>
<g id="a_node2"><a xlink:href="structpinocchio_1_1serialization_1_1Serializable.html" target="_top" xlink:title="Serializable\&lt; ModelTpl\l\&lt; _Scalar, _Options, JointCollection\lTpl \&gt; \&gt;">
<polygon fill="white" stroke="black" points="0,-78.5 0,-119.5 174,-119.5 174,-78.5 0,-78.5"/>
<text text-anchor="start" x="8" y="-107.5" font-family="Helvetica,sans-Serif" font-size="10.00">Serializable&lt; ModelTpl</text>
<text text-anchor="start" x="8" y="-96.5" font-family="Helvetica,sans-Serif" font-size="10.00">&lt; _Scalar, _Options, JointCollection</text>
<text text-anchor="middle" x="87" y="-85.5" font-family="Helvetica,sans-Serif" font-size="10.00">Tpl &gt; &gt;</text>
</a>
</g>
</g>
<!-- Node2&#45;&gt;Node1 -->
<g id="edge1" class="edge"><title>Node2&#45;&gt;Node1</title>
<path fill="none" stroke="midnightblue" d="M87,-68.2965C87,-59.3009 87,-49.6532 87,-41.5056"/>
<polygon fill="midnightblue" stroke="midnightblue" points="83.5001,-68.4281 87,-78.4281 90.5001,-68.4281 83.5001,-68.4281"/>
</g>
</g>
</svg>
