<?xml version="1.0" encoding="UTF-8" standalone="no"?>
<!DOCTYPE svg PUBLIC "-//W3C//DTD SVG 1.1//EN"
 "http://www.w3.org/Graphics/SVG/1.1/DTD/svg11.dtd">
<!-- Generated by graphviz version 2.38.0 (20140413.2041)
 -->
<!-- Title: LuaKey Pages: 1 -->
<svg width="117pt" height="152pt"
 viewBox="0.00 0.00 117.00 152.00" xmlns="http://www.w3.org/2000/svg" xmlns:xlink="http://www.w3.org/1999/xlink">
<g id="graph0" class="graph" transform="scale(1 1) rotate(0) translate(4 148)">
<title>LuaKey</title>
<polygon fill="white" stroke="none" points="-4,4 -4,-148 113,-148 113,4 -4,4"/>
<!-- Node1 -->
<g id="node1" class="node"><title>Node1</title>
<polygon fill="#bfbfbf" stroke="black" points="28,-0.5 28,-19.5 78,-19.5 78,-0.5 28,-0.5"/>
<text text-anchor="middle" x="53" y="-7.5" font-family="Helvetica,sans-Serif" font-size="10.00">LuaKey</text>
</g>
<!-- Node2 -->
<g id="node2" class="node"><title>Node2</title>
<g id="a_node2"><a xlink:title="STL class. ">
<polygon fill="white" stroke="#bfbfbf" points="32.5,-67.5 32.5,-86.5 73.5,-86.5 73.5,-67.5 32.5,-67.5"/>
<text text-anchor="middle" x="53" y="-74.5" font-family="Helvetica,sans-Serif" font-size="10.00">string</text>
</a>
</g>
</g>
<!-- Node2&#45;&gt;Node1 -->
<g id="edge1" class="edge"><title>Node2&#45;&gt;Node1</title>
<path fill="none" stroke="#9a32cd" stroke-dasharray="5,2" d="M53,-57.037C53,-44.6703 53,-29.1198 53,-19.6273"/>
<polygon fill="#9a32cd" stroke="#9a32cd" points="49.5001,-57.2338 53,-67.2338 56.5001,-57.2338 49.5001,-57.2338"/>
<text text-anchor="middle" x="81" y="-41" font-family="Helvetica,sans-Serif" font-size="10.00"> string_value</text>
</g>
<!-- Node3 -->
<g id="node3" class="node"><title>Node3</title>
<g id="a_node3"><a xlink:title="STL class. ">
<polygon fill="white" stroke="#bfbfbf" points="-7.10543e-15,-124.5 -7.10543e-15,-143.5 106,-143.5 106,-124.5 -7.10543e-15,-124.5"/>
<text text-anchor="middle" x="53" y="-131.5" font-family="Helvetica,sans-Serif" font-size="10.00">basic_string&lt; char &gt;</text>
</a>
</g>
</g>
<!-- Node3&#45;&gt;Node2 -->
<g id="edge2" class="edge"><title>Node3&#45;&gt;Node2</title>
<path fill="none" stroke="midnightblue" d="M53,-114.117C53,-104.817 53,-94.0557 53,-86.7149"/>
<polygon fill="midnightblue" stroke="midnightblue" points="49.5001,-114.406 53,-124.406 56.5001,-114.406 49.5001,-114.406"/>
</g>
</g>
</svg>
