<?xml version="1.0" encoding="UTF-8" standalone="no"?>
<!DOCTYPE svg PUBLIC "-//W3C//DTD SVG 1.1//EN"
 "http://www.w3.org/Graphics/SVG/1.1/DTD/svg11.dtd">
<!-- Generated by graphviz version 2.38.0 (20140413.2041)
 -->
<!-- Title: has_nothrow_copy&lt; ::pinocchio::JointModelCompositeTpl&lt; Scalar, Options, JointCollectionTpl &gt; &gt; Pages: 1 -->
<svg width="185pt" height="128pt"
 viewBox="0.00 0.00 185.00 128.00" xmlns="http://www.w3.org/2000/svg" xmlns:xlink="http://www.w3.org/1999/xlink">
<g id="graph0" class="graph" transform="scale(1 1) rotate(0) translate(4 124)">
<title>has_nothrow_copy&lt; ::pinocchio::JointModelCompositeTpl&lt; Scalar, Options, JointCollectionTpl &gt; &gt;</title>
<polygon fill="white" stroke="none" points="-4,4 -4,-124 181,-124 181,4 -4,4"/>
<!-- Node1 -->
<g id="node1" class="node"><title>Node1</title>
<polygon fill="#bfbfbf" stroke="black" points="-1.42109e-14,-0.5 -1.42109e-14,-52.5 177,-52.5 177,-0.5 -1.42109e-14,-0.5"/>
<text text-anchor="start" x="8" y="-40.5" font-family="Helvetica,sans-Serif" font-size="10.00">has_nothrow_copy&lt; </text>
<text text-anchor="start" x="8" y="-29.5" font-family="Helvetica,sans-Serif" font-size="10.00">::pinocchio::JointModelComposite</text>
<text text-anchor="start" x="8" y="-18.5" font-family="Helvetica,sans-Serif" font-size="10.00">Tpl&lt; Scalar, Options, JointCollection</text>
<text text-anchor="middle" x="88.5" y="-7.5" font-family="Helvetica,sans-Serif" font-size="10.00">Tpl &gt; &gt;</text>
</g>
<!-- Node2 -->
<g id="node2" class="node"><title>Node2</title>
<polygon fill="white" stroke="#bfbfbf" points="40,-89.5 40,-119.5 137,-119.5 137,-89.5 40,-89.5"/>
<text text-anchor="start" x="48" y="-107.5" font-family="Helvetica,sans-Serif" font-size="10.00">integral_constant&lt;</text>
<text text-anchor="middle" x="88.5" y="-96.5" font-family="Helvetica,sans-Serif" font-size="10.00"> bool, true &gt;</text>
</g>
<!-- Node2&#45;&gt;Node1 -->
<g id="edge1" class="edge"><title>Node2&#45;&gt;Node1</title>
<path fill="none" stroke="midnightblue" d="M88.5,-79.1418C88.5,-70.6306 88.5,-61.0666 88.5,-52.5037"/>
<polygon fill="midnightblue" stroke="midnightblue" points="85.0001,-79.2049 88.5,-89.205 92.0001,-79.205 85.0001,-79.2049"/>
</g>
</g>
</svg>
