<?xml version="1.0" encoding="UTF-8" standalone="no"?>
<!DOCTYPE svg PUBLIC "-//W3C//DTD SVG 1.1//EN"
 "http://www.w3.org/Graphics/SVG/1.1/DTD/svg11.dtd">
<!-- Generated by graphviz version 2.38.0 (20140413.2041)
 -->
<!-- Title: DataTpl&lt; _Scalar, _Options, JointCollectionTpl &gt; Pages: 1 -->
<svg width="873pt" height="688pt"
 viewBox="0.00 0.00 873.00 687.54" xmlns="http://www.w3.org/2000/svg" xmlns:xlink="http://www.w3.org/1999/xlink">
<g id="graph0" class="graph" transform="scale(1 1) rotate(0) translate(4 683.541)">
<title>DataTpl&lt; _Scalar, _Options, JointCollectionTpl &gt;</title>
<polygon fill="white" stroke="none" points="-4,4 -4,-683.541 869,-683.541 869,4 -4,4"/>
<!-- Node1 -->
<g id="node1" class="node"><title>Node1</title>
<polygon fill="#bfbfbf" stroke="black" points="716,-300.541 716,-330.541 865,-330.541 865,-300.541 716,-300.541"/>
<text text-anchor="start" x="724" y="-318.541" font-family="Helvetica,sans-Serif" font-size="10.00">DataTpl&lt; _Scalar, </text>
<text text-anchor="middle" x="790.5" y="-307.541" font-family="Helvetica,sans-Serif" font-size="10.00">_Options, JointCollectionTpl &gt;</text>
</g>
<!-- Node2 -->
<g id="node2" class="node"><title>Node2</title>
<g id="a_node2"><a xlink:href="structpinocchio_1_1container_1_1aligned__vector.html" target="_top" xlink:title="aligned_vector\&lt; typename\l pinocchio::InertiaTpl\l::Matrix6 \&gt;">
<polygon fill="white" stroke="black" points="454.5,-613.041 454.5,-654.041 585.5,-654.041 585.5,-613.041 454.5,-613.041"/>
<text text-anchor="start" x="462.5" y="-642.041" font-family="Helvetica,sans-Serif" font-size="10.00">aligned_vector&lt; typename</text>
<text text-anchor="start" x="462.5" y="-631.041" font-family="Helvetica,sans-Serif" font-size="10.00"> pinocchio::InertiaTpl</text>
<text text-anchor="middle" x="520" y="-620.041" font-family="Helvetica,sans-Serif" font-size="10.00">::Matrix6 &gt;</text>
</a>
</g>
</g>
<!-- Node2&#45;&gt;Node1 -->
<g id="edge1" class="edge"><title>Node2&#45;&gt;Node1</title>
<path fill="none" stroke="#9a32cd" stroke-dasharray="5,2" d="M595.724,-628.262C630.692,-622.176 670.577,-609.53 698,-583.541 773.296,-512.183 786.631,-376.392 788.992,-330.858"/>
<polygon fill="#9a32cd" stroke="#9a32cd" points="594.857,-624.855 585.529,-629.879 595.954,-631.769 594.857,-624.855"/>
<text text-anchor="middle" x="653" y="-671.541" font-family="Helvetica,sans-Serif" font-size="10.00"> vxI</text>
<text text-anchor="middle" x="653" y="-660.541" font-family="Helvetica,sans-Serif" font-size="10.00">doYcrb</text>
<text text-anchor="middle" x="653" y="-649.541" font-family="Helvetica,sans-Serif" font-size="10.00">Yaba</text>
<text text-anchor="middle" x="653" y="-638.541" font-family="Helvetica,sans-Serif" font-size="10.00">Ivx</text>
<text text-anchor="middle" x="653" y="-627.541" font-family="Helvetica,sans-Serif" font-size="10.00">dYcrb</text>
</g>
<!-- Node3 -->
<g id="node3" class="node"><title>Node3</title>
<g id="a_node3"><a xlink:title="STL class. ">
<polygon fill="white" stroke="#bfbfbf" points="201,-615.541 201,-667.541 365,-667.541 365,-615.541 201,-615.541"/>
<text text-anchor="start" x="209" y="-655.541" font-family="Helvetica,sans-Serif" font-size="10.00">vector&lt; typename pinocchio</text>
<text text-anchor="start" x="209" y="-644.541" font-family="Helvetica,sans-Serif" font-size="10.00">::InertiaTpl::Matrix6, Eigen</text>
<text text-anchor="start" x="209" y="-633.541" font-family="Helvetica,sans-Serif" font-size="10.00">::aligned_allocator&lt; typename</text>
<text text-anchor="middle" x="283" y="-622.541" font-family="Helvetica,sans-Serif" font-size="10.00"> pinocchio::InertiaTpl::Matrix6 &gt; &gt;</text>
</a>
</g>
</g>
<!-- Node3&#45;&gt;Node2 -->
<g id="edge2" class="edge"><title>Node3&#45;&gt;Node2</title>
<path fill="none" stroke="midnightblue" d="M375.237,-638.435C401.69,-637.535 430.014,-636.57 454.467,-635.738"/>
<polygon fill="midnightblue" stroke="midnightblue" points="375.078,-634.938 365.203,-638.777 375.316,-641.934 375.078,-634.938"/>
</g>
<!-- Node4 -->
<g id="node4" class="node"><title>Node4</title>
<polygon fill="white" stroke="#bfbfbf" points="43.5,-415.041 43.5,-434.041 72.5,-434.041 72.5,-415.041 43.5,-415.041"/>
<text text-anchor="middle" x="58" y="-422.041" font-family="Helvetica,sans-Serif" font-size="10.00">T</text>
</g>
<!-- Node4&#45;&gt;Node3 -->
<g id="edge3" class="edge"><title>Node4&#45;&gt;Node3</title>
<path fill="none" stroke="#9a32cd" stroke-dasharray="5,2" d="M66.8173,-443.674C78.6237,-471.084 102.959,-522.221 134,-558.541 156.413,-584.766 165.141,-589.262 195,-606.541 200.355,-609.64 206.037,-612.59 211.831,-615.367"/>
<polygon fill="#9a32cd" stroke="#9a32cd" points="69.8951,-441.964 62.7916,-434.103 63.4426,-444.678 69.8951,-441.964"/>
<text text-anchor="middle" x="155.5" y="-598.541" font-family="Helvetica,sans-Serif" font-size="10.00"> elements</text>
</g>
<!-- Node6 -->
<g id="node6" class="node"><title>Node6</title>
<g id="a_node6"><a xlink:title="STL class. ">
<polygon fill="white" stroke="#bfbfbf" points="203,-566.541 203,-596.541 363,-596.541 363,-566.541 203,-566.541"/>
<text text-anchor="start" x="211" y="-584.541" font-family="Helvetica,sans-Serif" font-size="10.00">vector&lt; Matrix6x, Eigen</text>
<text text-anchor="middle" x="283" y="-573.541" font-family="Helvetica,sans-Serif" font-size="10.00">::aligned_allocator&lt; Matrix6x &gt; &gt;</text>
</a>
</g>
</g>
<!-- Node4&#45;&gt;Node6 -->
<g id="edge6" class="edge"><title>Node4&#45;&gt;Node6</title>
<path fill="none" stroke="#9a32cd" stroke-dasharray="5,2" d="M72.3647,-442.54C94.6055,-471.207 142.037,-527.096 195,-557.541 200.977,-560.977 207.469,-563.941 214.124,-566.493"/>
<polygon fill="#9a32cd" stroke="#9a32cd" points="74.8979,-440.09 66.0537,-434.256 69.3296,-444.332 74.8979,-440.09"/>
<text text-anchor="middle" x="155.5" y="-546.541" font-family="Helvetica,sans-Serif" font-size="10.00"> elements</text>
</g>
<!-- Node8 -->
<g id="node8" class="node"><title>Node8</title>
<g id="a_node8"><a xlink:title="STL class. ">
<polygon fill="white" stroke="#bfbfbf" points="222,-495.541 222,-547.541 344,-547.541 344,-495.541 222,-495.541"/>
<text text-anchor="start" x="230" y="-535.541" font-family="Helvetica,sans-Serif" font-size="10.00">vector&lt; pinocchio::</text>
<text text-anchor="start" x="230" y="-524.541" font-family="Helvetica,sans-Serif" font-size="10.00">ForceTpl, Eigen::aligned</text>
<text text-anchor="start" x="230" y="-513.541" font-family="Helvetica,sans-Serif" font-size="10.00">_allocator&lt; pinocchio::</text>
<text text-anchor="middle" x="283" y="-502.541" font-family="Helvetica,sans-Serif" font-size="10.00">ForceTpl &gt; &gt;</text>
</a>
</g>
</g>
<!-- Node4&#45;&gt;Node8 -->
<g id="edge9" class="edge"><title>Node4&#45;&gt;Node8</title>
<path fill="none" stroke="#9a32cd" stroke-dasharray="5,2" d="M82.2081,-435.2C109.208,-447.541 155.175,-468.374 195,-485.541 203.706,-489.294 212.933,-493.194 221.998,-496.982"/>
<polygon fill="#9a32cd" stroke="#9a32cd" points="83.3906,-431.892 72.8413,-430.911 80.4763,-438.256 83.3906,-431.892"/>
<text text-anchor="middle" x="155.5" y="-480.541" font-family="Helvetica,sans-Serif" font-size="10.00"> elements</text>
</g>
<!-- Node10 -->
<g id="node10" class="node"><title>Node10</title>
<g id="a_node10"><a xlink:title="STL class. ">
<polygon fill="white" stroke="#bfbfbf" points="221.5,-435.041 221.5,-476.041 344.5,-476.041 344.5,-435.041 221.5,-435.041"/>
<text text-anchor="start" x="229.5" y="-464.041" font-family="Helvetica,sans-Serif" font-size="10.00">vector&lt; JointData,</text>
<text text-anchor="start" x="229.5" y="-453.041" font-family="Helvetica,sans-Serif" font-size="10.00"> Eigen::aligned_allocator</text>
<text text-anchor="middle" x="283" y="-442.041" font-family="Helvetica,sans-Serif" font-size="10.00">&lt; JointData &gt; &gt;</text>
</a>
</g>
</g>
<!-- Node4&#45;&gt;Node10 -->
<g id="edge12" class="edge"><title>Node4&#45;&gt;Node10</title>
<path fill="none" stroke="#9a32cd" stroke-dasharray="5,2" d="M82.5953,-427.821C115.325,-432.371 175.636,-440.755 221.392,-447.116"/>
<polygon fill="#9a32cd" stroke="#9a32cd" points="83.0007,-424.344 72.614,-426.434 82.0368,-431.277 83.0007,-424.344"/>
<text text-anchor="middle" x="155.5" y="-443.541" font-family="Helvetica,sans-Serif" font-size="10.00"> elements</text>
</g>
<!-- Node15 -->
<g id="node15" class="node"><title>Node15</title>
<g id="a_node15"><a xlink:title="STL class. ">
<polygon fill="white" stroke="#bfbfbf" points="196.5,-375.041 196.5,-416.041 369.5,-416.041 369.5,-375.041 196.5,-375.041"/>
<text text-anchor="start" x="204.5" y="-404.041" font-family="Helvetica,sans-Serif" font-size="10.00">vector&lt; pinocchio::</text>
<text text-anchor="start" x="204.5" y="-393.041" font-family="Helvetica,sans-Serif" font-size="10.00">InertiaTpl, Eigen::aligned</text>
<text text-anchor="middle" x="283" y="-382.041" font-family="Helvetica,sans-Serif" font-size="10.00">_allocator&lt; pinocchio::InertiaTpl &gt; &gt;</text>
</a>
</g>
</g>
<!-- Node4&#45;&gt;Node15 -->
<g id="edge18" class="edge"><title>Node4&#45;&gt;Node15</title>
<path fill="none" stroke="#9a32cd" stroke-dasharray="5,2" d="M82.6505,-421.465C109.663,-417.953 155.413,-412.003 196.276,-406.689"/>
<polygon fill="#9a32cd" stroke="#9a32cd" points="82.0791,-418.01 72.614,-422.771 82.9818,-424.952 82.0791,-418.01"/>
<text text-anchor="middle" x="155.5" y="-417.541" font-family="Helvetica,sans-Serif" font-size="10.00"> elements</text>
</g>
<!-- Node18 -->
<g id="node18" class="node"><title>Node18</title>
<g id="a_node18"><a xlink:title="STL class. ">
<polygon fill="white" stroke="#bfbfbf" points="225,-303.541 225,-355.541 341,-355.541 341,-303.541 225,-303.541"/>
<text text-anchor="start" x="233" y="-343.541" font-family="Helvetica,sans-Serif" font-size="10.00">vector&lt; pinocchio::</text>
<text text-anchor="start" x="233" y="-332.541" font-family="Helvetica,sans-Serif" font-size="10.00">SE3Tpl, Eigen::aligned</text>
<text text-anchor="start" x="233" y="-321.541" font-family="Helvetica,sans-Serif" font-size="10.00">_allocator&lt; pinocchio</text>
<text text-anchor="middle" x="283" y="-310.541" font-family="Helvetica,sans-Serif" font-size="10.00">::SE3Tpl &gt; &gt;</text>
</a>
</g>
</g>
<!-- Node4&#45;&gt;Node18 -->
<g id="edge22" class="edge"><title>Node4&#45;&gt;Node18</title>
<path fill="none" stroke="#9a32cd" stroke-dasharray="5,2" d="M82.248,-414.313C109.285,-402.451 155.286,-382.371 195,-365.541 204.632,-361.459 214.886,-357.168 224.848,-353.028"/>
<polygon fill="#9a32cd" stroke="#9a32cd" points="80.6156,-411.207 72.8671,-418.433 83.4304,-417.616 80.6156,-411.207"/>
<text text-anchor="middle" x="155.5" y="-394.541" font-family="Helvetica,sans-Serif" font-size="10.00"> elements</text>
</g>
<!-- Node20 -->
<g id="node20" class="node"><title>Node20</title>
<g id="a_node20"><a xlink:title="STL class. ">
<polygon fill="white" stroke="#bfbfbf" points="205,-254.541 205,-284.541 361,-284.541 361,-254.541 205,-254.541"/>
<text text-anchor="start" x="213" y="-272.541" font-family="Helvetica,sans-Serif" font-size="10.00">vector&lt; Vector3, Eigen</text>
<text text-anchor="middle" x="283" y="-261.541" font-family="Helvetica,sans-Serif" font-size="10.00">::aligned_allocator&lt; Vector3 &gt; &gt;</text>
</a>
</g>
</g>
<!-- Node4&#45;&gt;Node20 -->
<g id="edge25" class="edge"><title>Node4&#45;&gt;Node20</title>
<path fill="none" stroke="#9a32cd" stroke-dasharray="5,2" d="M72.4279,-406.821C94.7574,-378.597 142.311,-323.564 195,-293.541 200.99,-290.128 207.491,-287.179 214.15,-284.636"/>
<polygon fill="#9a32cd" stroke="#9a32cd" points="69.4623,-404.933 66.0898,-414.977 74.9896,-409.228 69.4623,-404.933"/>
<text text-anchor="middle" x="155.5" y="-340.541" font-family="Helvetica,sans-Serif" font-size="10.00"> elements</text>
</g>
<!-- Node25 -->
<g id="node25" class="node"><title>Node25</title>
<g id="a_node25"><a xlink:title="STL class. ">
<polygon fill="white" stroke="#bfbfbf" points="195,-195.041 195,-236.041 371,-236.041 371,-195.041 195,-195.041"/>
<text text-anchor="start" x="203" y="-224.041" font-family="Helvetica,sans-Serif" font-size="10.00">vector&lt; pinocchio::</text>
<text text-anchor="start" x="203" y="-213.041" font-family="Helvetica,sans-Serif" font-size="10.00">MotionTpl, Eigen::aligned</text>
<text text-anchor="middle" x="283" y="-202.041" font-family="Helvetica,sans-Serif" font-size="10.00">_allocator&lt; pinocchio::MotionTpl &gt; &gt;</text>
</a>
</g>
</g>
<!-- Node4&#45;&gt;Node25 -->
<g id="edge31" class="edge"><title>Node4&#45;&gt;Node25</title>
<path fill="none" stroke="#9a32cd" stroke-dasharray="5,2" d="M67.0578,-405.301C79.0066,-378.216 103.348,-328.174 134,-292.541 156.498,-266.388 164.63,-260.905 195,-244.541 200.606,-241.52 206.585,-238.735 212.682,-236.187"/>
<polygon fill="#9a32cd" stroke="#9a32cd" points="63.7134,-404.218 62.9687,-414.787 70.1416,-406.989 63.7134,-404.218"/>
<text text-anchor="middle" x="155.5" y="-295.541" font-family="Helvetica,sans-Serif" font-size="10.00"> elements</text>
</g>
<!-- Node5 -->
<g id="node5" class="node"><title>Node5</title>
<g id="a_node5"><a xlink:href="structpinocchio_1_1container_1_1aligned__vector.html" target="_top" xlink:title="aligned_vector\&lt; Matrix6x \&gt;">
<polygon fill="white" stroke="black" points="452.5,-557.041 452.5,-576.041 587.5,-576.041 587.5,-557.041 452.5,-557.041"/>
<text text-anchor="middle" x="520" y="-564.041" font-family="Helvetica,sans-Serif" font-size="10.00">aligned_vector&lt; Matrix6x &gt;</text>
</a>
</g>
</g>
<!-- Node5&#45;&gt;Node1 -->
<g id="edge4" class="edge"><title>Node5&#45;&gt;Node1</title>
<path fill="none" stroke="#9a32cd" stroke-dasharray="5,2" d="M598.135,-570.059C631.935,-567.808 670.155,-559.653 698,-537.541 765.741,-483.749 783.782,-371.308 788.186,-330.634"/>
<polygon fill="#9a32cd" stroke="#9a32cd" points="597.616,-566.581 587.804,-570.577 597.967,-573.572 597.616,-566.581"/>
<text text-anchor="middle" x="653" y="-571.541" font-family="Helvetica,sans-Serif" font-size="10.00"> Fcrb</text>
</g>
<!-- Node6&#45;&gt;Node5 -->
<g id="edge5" class="edge"><title>Node6&#45;&gt;Node5</title>
<path fill="none" stroke="midnightblue" d="M373.528,-575.827C399.674,-574.158 427.781,-572.364 452.253,-570.802"/>
<polygon fill="midnightblue" stroke="midnightblue" points="372.989,-572.354 363.233,-576.484 373.435,-579.339 372.989,-572.354"/>
</g>
<!-- Node7 -->
<g id="node7" class="node"><title>Node7</title>
<g id="a_node7"><a xlink:href="structpinocchio_1_1container_1_1aligned__vector.html" target="_top" xlink:title="aligned_vector\&lt; pinocchio\l::ForceTpl \&gt;">
<polygon fill="white" stroke="black" points="455,-501.541 455,-531.541 585,-531.541 585,-501.541 455,-501.541"/>
<text text-anchor="start" x="463" y="-519.541" font-family="Helvetica,sans-Serif" font-size="10.00">aligned_vector&lt; pinocchio</text>
<text text-anchor="middle" x="520" y="-508.541" font-family="Helvetica,sans-Serif" font-size="10.00">::ForceTpl &gt;</text>
</a>
</g>
</g>
<!-- Node7&#45;&gt;Node1 -->
<g id="edge7" class="edge"><title>Node7&#45;&gt;Node1</title>
<path fill="none" stroke="#9a32cd" stroke-dasharray="5,2" d="M587.698,-498.906C637.742,-485.663 697.705,-469.764 698,-469.541 746.631,-432.792 774.431,-362.043 784.791,-330.898"/>
<polygon fill="#9a32cd" stroke="#9a32cd" points="586.615,-495.572 577.842,-501.514 588.405,-502.339 586.615,-495.572"/>
<text text-anchor="middle" x="653" y="-529.541" font-family="Helvetica,sans-Serif" font-size="10.00"> f</text>
<text text-anchor="middle" x="653" y="-518.541" font-family="Helvetica,sans-Serif" font-size="10.00">h</text>
<text text-anchor="middle" x="653" y="-507.541" font-family="Helvetica,sans-Serif" font-size="10.00">of</text>
<text text-anchor="middle" x="653" y="-496.541" font-family="Helvetica,sans-Serif" font-size="10.00">oh</text>
</g>
<!-- Node8&#45;&gt;Node7 -->
<g id="edge8" class="edge"><title>Node8&#45;&gt;Node7</title>
<path fill="none" stroke="midnightblue" d="M354.359,-520.044C386.256,-519.365 423.708,-518.569 454.827,-517.906"/>
<polygon fill="midnightblue" stroke="midnightblue" points="354.136,-516.548 344.213,-520.26 354.285,-523.546 354.136,-516.548"/>
</g>
<!-- Node9 -->
<g id="node9" class="node"><title>Node9</title>
<g id="a_node9"><a xlink:href="structpinocchio_1_1container_1_1aligned__vector.html" target="_top" xlink:title="aligned_vector\&lt; JointData \&gt;">
<polygon fill="white" stroke="black" points="450,-446.041 450,-465.041 590,-465.041 590,-446.041 450,-446.041"/>
<text text-anchor="middle" x="520" y="-453.041" font-family="Helvetica,sans-Serif" font-size="10.00">aligned_vector&lt; JointData &gt;</text>
</a>
</g>
</g>
<!-- Node9&#45;&gt;Node1 -->
<g id="edge10" class="edge"><title>Node9&#45;&gt;Node1</title>
<path fill="none" stroke="#9a32cd" stroke-dasharray="5,2" d="M600.609,-455.091C632.621,-451.913 668.788,-444.319 698,-427.541 738.497,-404.282 768.449,-355.697 781.801,-330.866"/>
<polygon fill="#9a32cd" stroke="#9a32cd" points="600.038,-451.627 590.376,-455.973 600.64,-458.601 600.038,-451.627"/>
<text text-anchor="middle" x="653" y="-457.541" font-family="Helvetica,sans-Serif" font-size="10.00"> joints</text>
</g>
<!-- Node10&#45;&gt;Node9 -->
<g id="edge11" class="edge"><title>Node10&#45;&gt;Node9</title>
<path fill="none" stroke="midnightblue" d="M354.558,-455.541C384.763,-455.541 419.922,-455.541 449.959,-455.541"/>
<polygon fill="midnightblue" stroke="midnightblue" points="354.518,-452.041 344.518,-455.541 354.518,-459.041 354.518,-452.041"/>
</g>
<!-- Node11 -->
<g id="node11" class="node"><title>Node11</title>
<g id="a_node11"><a xlink:href="classpinocchio_1_1InertiaTpl.html" target="_top" xlink:title="InertiaTpl\&lt; Scalar,\l Options \&gt;">
<polygon fill="white" stroke="black" points="471.5,-146.541 471.5,-176.541 568.5,-176.541 568.5,-146.541 471.5,-146.541"/>
<text text-anchor="start" x="479.5" y="-164.541" font-family="Helvetica,sans-Serif" font-size="10.00">InertiaTpl&lt; Scalar,</text>
<text text-anchor="middle" x="520" y="-153.541" font-family="Helvetica,sans-Serif" font-size="10.00"> Options &gt;</text>
</a>
</g>
</g>
<!-- Node11&#45;&gt;Node1 -->
<g id="edge13" class="edge"><title>Node11&#45;&gt;Node1</title>
<path fill="none" stroke="#9a32cd" stroke-dasharray="5,2" d="M578.795,-156.705C615.413,-156.335 662.404,-161.052 698,-182.541 744.308,-210.497 772.798,-271.895 784.017,-300.421"/>
<polygon fill="#9a32cd" stroke="#9a32cd" points="578.677,-153.206 568.76,-156.934 578.837,-160.205 578.677,-153.206"/>
<text text-anchor="middle" x="653" y="-185.541" font-family="Helvetica,sans-Serif" font-size="10.00"> Ig</text>
</g>
<!-- Node12 -->
<g id="node12" class="node"><title>Node12</title>
<g id="a_node12"><a xlink:href="classpinocchio_1_1InertiaBase.html" target="_top" xlink:title="InertiaBase\&lt; InertiaTpl\l\&lt; Scalar, _Options \&gt; \&gt;">
<polygon fill="white" stroke="black" points="225,-146.541 225,-176.541 341,-176.541 341,-146.541 225,-146.541"/>
<text text-anchor="start" x="233" y="-164.541" font-family="Helvetica,sans-Serif" font-size="10.00">InertiaBase&lt; InertiaTpl</text>
<text text-anchor="middle" x="283" y="-153.541" font-family="Helvetica,sans-Serif" font-size="10.00">&lt; Scalar, _Options &gt; &gt;</text>
</a>
</g>
</g>
<!-- Node12&#45;&gt;Node11 -->
<g id="edge14" class="edge"><title>Node12&#45;&gt;Node11</title>
<path fill="none" stroke="midnightblue" d="M351.259,-161.541C389.675,-161.541 436.918,-161.541 471.467,-161.541"/>
<polygon fill="midnightblue" stroke="midnightblue" points="351.187,-158.041 341.187,-161.541 351.187,-165.041 351.187,-158.041"/>
</g>
<!-- Node13 -->
<g id="node13" class="node"><title>Node13</title>
<g id="a_node13"><a xlink:href="classpinocchio_1_1Symmetric3Tpl.html" target="_top" xlink:title="Symmetric3Tpl\&lt; double, 0 \&gt;">
<polygon fill="white" stroke="black" points="213,-108.041 213,-127.041 353,-127.041 353,-108.041 213,-108.041"/>
<text text-anchor="middle" x="283" y="-115.041" font-family="Helvetica,sans-Serif" font-size="10.00">Symmetric3Tpl&lt; double, 0 &gt;</text>
</a>
</g>
</g>
<!-- Node13&#45;&gt;Node11 -->
<g id="edge15" class="edge"><title>Node13&#45;&gt;Node11</title>
<path fill="none" stroke="#9a32cd" stroke-dasharray="5,2" d="M345.006,-128.964C384.385,-136.337 434.874,-145.79 471.312,-152.612"/>
<polygon fill="#9a32cd" stroke="#9a32cd" points="345.465,-125.489 334.992,-127.088 344.177,-132.369 345.465,-125.489"/>
<text text-anchor="middle" x="410.5" y="-148.541" font-family="Helvetica,sans-Serif" font-size="10.00"> m_inertia</text>
</g>
<!-- Node14 -->
<g id="node14" class="node"><title>Node14</title>
<g id="a_node14"><a xlink:href="structpinocchio_1_1container_1_1aligned__vector.html" target="_top" xlink:title="aligned_vector\&lt; pinocchio\l::InertiaTpl \&gt;">
<polygon fill="white" stroke="black" points="455,-391.541 455,-421.541 585,-421.541 585,-391.541 455,-391.541"/>
<text text-anchor="start" x="463" y="-409.541" font-family="Helvetica,sans-Serif" font-size="10.00">aligned_vector&lt; pinocchio</text>
<text text-anchor="middle" x="520" y="-398.541" font-family="Helvetica,sans-Serif" font-size="10.00">::InertiaTpl &gt;</text>
</a>
</g>
</g>
<!-- Node14&#45;&gt;Node1 -->
<g id="edge16" class="edge"><title>Node14&#45;&gt;Node1</title>
<path fill="none" stroke="#9a32cd" stroke-dasharray="5,2" d="M595.424,-402.797C627.835,-399.255 665.712,-392.47 698,-379.541 726.974,-367.939 755.695,-345.617 773.021,-330.647"/>
<polygon fill="#9a32cd" stroke="#9a32cd" points="594.705,-399.352 585.106,-403.837 595.407,-406.316 594.705,-399.352"/>
<text text-anchor="middle" x="653" y="-415.541" font-family="Helvetica,sans-Serif" font-size="10.00"> oYcrb</text>
<text text-anchor="middle" x="653" y="-404.541" font-family="Helvetica,sans-Serif" font-size="10.00">Ycrb</text>
</g>
<!-- Node15&#45;&gt;Node14 -->
<g id="edge17" class="edge"><title>Node15&#45;&gt;Node14</title>
<path fill="none" stroke="midnightblue" d="M379.523,-400.012C404.896,-401.2 431.686,-402.454 454.932,-403.542"/>
<polygon fill="midnightblue" stroke="midnightblue" points="379.658,-396.515 369.505,-399.543 379.331,-403.507 379.658,-396.515"/>
</g>
<!-- Node16 -->
<g id="node16" class="node"><title>Node16</title>
<polygon fill="white" stroke="#bfbfbf" points="484,-88.0411 484,-107.041 556,-107.041 556,-88.0411 484,-88.0411"/>
<text text-anchor="middle" x="520" y="-95.0411" font-family="Helvetica,sans-Serif" font-size="10.00">vector&lt; int &gt;</text>
</g>
<!-- Node16&#45;&gt;Node1 -->
<g id="edge19" class="edge"><title>Node16&#45;&gt;Node1</title>
<path fill="none" stroke="#9a32cd" stroke-dasharray="5,2" d="M565.981,-88.9024C604.513,-84.0914 659.69,-83.6423 698,-110.541 763.708,-156.677 782.916,-261.305 787.912,-300.415"/>
<polygon fill="#9a32cd" stroke="#9a32cd" points="565.497,-85.436 556.074,-90.2803 566.461,-92.3693 565.497,-85.436"/>
<text text-anchor="middle" x="653" y="-146.541" font-family="Helvetica,sans-Serif" font-size="10.00"> parents_fromRow</text>
<text text-anchor="middle" x="653" y="-135.541" font-family="Helvetica,sans-Serif" font-size="10.00">lastChild</text>
<text text-anchor="middle" x="653" y="-124.541" font-family="Helvetica,sans-Serif" font-size="10.00">nvSubtree</text>
<text text-anchor="middle" x="653" y="-113.541" font-family="Helvetica,sans-Serif" font-size="10.00">nvSubtree_fromRow</text>
</g>
<!-- Node17 -->
<g id="node17" class="node"><title>Node17</title>
<g id="a_node17"><a xlink:href="structpinocchio_1_1container_1_1aligned__vector.html" target="_top" xlink:title="aligned_vector\&lt; pinocchio\l::SE3Tpl \&gt;">
<polygon fill="white" stroke="black" points="455,-324.541 455,-354.541 585,-354.541 585,-324.541 455,-324.541"/>
<text text-anchor="start" x="463" y="-342.541" font-family="Helvetica,sans-Serif" font-size="10.00">aligned_vector&lt; pinocchio</text>
<text text-anchor="middle" x="520" y="-331.541" font-family="Helvetica,sans-Serif" font-size="10.00">::SE3Tpl &gt;</text>
</a>
</g>
</g>
<!-- Node17&#45;&gt;Node1 -->
<g id="edge20" class="edge"><title>Node17&#45;&gt;Node1</title>
<path fill="none" stroke="#9a32cd" stroke-dasharray="5,2" d="M595.664,-332.867C633.142,-329.517 678.393,-325.472 715.744,-322.134"/>
<polygon fill="#9a32cd" stroke="#9a32cd" points="594.961,-329.416 585.312,-333.793 595.584,-336.388 594.961,-329.416"/>
<text text-anchor="middle" x="653" y="-367.541" font-family="Helvetica,sans-Serif" font-size="10.00"> oMf</text>
<text text-anchor="middle" x="653" y="-356.541" font-family="Helvetica,sans-Serif" font-size="10.00">oMi</text>
<text text-anchor="middle" x="653" y="-345.541" font-family="Helvetica,sans-Serif" font-size="10.00">liMi</text>
<text text-anchor="middle" x="653" y="-334.541" font-family="Helvetica,sans-Serif" font-size="10.00">iMf</text>
</g>
<!-- Node18&#45;&gt;Node17 -->
<g id="edge21" class="edge"><title>Node18&#45;&gt;Node17</title>
<path fill="none" stroke="midnightblue" d="M351.511,-332.414C384.039,-333.798 422.851,-335.45 454.918,-336.814"/>
<polygon fill="midnightblue" stroke="midnightblue" points="351.327,-328.903 341.187,-331.975 351.029,-335.897 351.327,-328.903"/>
</g>
<!-- Node19 -->
<g id="node19" class="node"><title>Node19</title>
<g id="a_node19"><a xlink:href="structpinocchio_1_1container_1_1aligned__vector.html" target="_top" xlink:title="aligned_vector\&lt; Vector3 \&gt;">
<polygon fill="white" stroke="black" points="454.5,-273.041 454.5,-292.041 585.5,-292.041 585.5,-273.041 454.5,-273.041"/>
<text text-anchor="middle" x="520" y="-280.041" font-family="Helvetica,sans-Serif" font-size="10.00">aligned_vector&lt; Vector3 &gt;</text>
</a>
</g>
</g>
<!-- Node19&#45;&gt;Node1 -->
<g id="edge23" class="edge"><title>Node19&#45;&gt;Node1</title>
<path fill="none" stroke="#9a32cd" stroke-dasharray="5,2" d="M595.801,-280.225C627.506,-280.385 664.741,-282.085 698,-287.541 714.885,-290.311 732.995,-295.385 748.611,-300.46"/>
<polygon fill="#9a32cd" stroke="#9a32cd" points="595.713,-276.725 585.713,-280.224 595.713,-283.725 595.713,-276.725"/>
<text text-anchor="middle" x="653" y="-312.541" font-family="Helvetica,sans-Serif" font-size="10.00"> acom</text>
<text text-anchor="middle" x="653" y="-301.541" font-family="Helvetica,sans-Serif" font-size="10.00">com</text>
<text text-anchor="middle" x="653" y="-290.541" font-family="Helvetica,sans-Serif" font-size="10.00">vcom</text>
</g>
<!-- Node20&#45;&gt;Node19 -->
<g id="edge24" class="edge"><title>Node20&#45;&gt;Node19</title>
<path fill="none" stroke="midnightblue" d="M371.281,-274.369C398.77,-275.89 428.625,-277.542 454.255,-278.959"/>
<polygon fill="midnightblue" stroke="midnightblue" points="371.451,-270.874 361.273,-273.816 371.065,-277.863 371.451,-270.874"/>
</g>
<!-- Node21 -->
<g id="node21" class="node"><title>Node21</title>
<g id="a_node21"><a xlink:href="classpinocchio_1_1ForceTpl.html" target="_top" xlink:title="ForceTpl\&lt; Scalar, Options \&gt;">
<polygon fill="white" stroke="black" points="450,-45.0411 450,-64.0411 590,-64.0411 590,-45.0411 450,-45.0411"/>
<text text-anchor="middle" x="520" y="-52.0411" font-family="Helvetica,sans-Serif" font-size="10.00">ForceTpl&lt; Scalar, Options &gt;</text>
</a>
</g>
</g>
<!-- Node21&#45;&gt;Node1 -->
<g id="edge26" class="edge"><title>Node21&#45;&gt;Node1</title>
<path fill="none" stroke="#9a32cd" stroke-dasharray="5,2" d="M566.263,-43.0627C604.975,-36.0491 660.258,-33.018 698,-60.5411 778.376,-119.155 788.398,-254.971 789.453,-300.418"/>
<polygon fill="#9a32cd" stroke="#9a32cd" points="565.444,-39.6567 556.306,-45.0194 566.794,-46.5253 565.444,-39.6567"/>
<text text-anchor="middle" x="653" y="-74.5411" font-family="Helvetica,sans-Serif" font-size="10.00"> dhg</text>
<text text-anchor="middle" x="653" y="-63.5411" font-family="Helvetica,sans-Serif" font-size="10.00">hg</text>
</g>
<!-- Node22 -->
<g id="node22" class="node"><title>Node22</title>
<g id="a_node22"><a xlink:href="classpinocchio_1_1ForceDense.html" target="_top" xlink:title="ForceDense\&lt; ForceTpl\l\&lt; Scalar, _Options \&gt; \&gt;">
<polygon fill="white" stroke="black" points="224.5,-39.5411 224.5,-69.5411 341.5,-69.5411 341.5,-39.5411 224.5,-39.5411"/>
<text text-anchor="start" x="232.5" y="-57.5411" font-family="Helvetica,sans-Serif" font-size="10.00">ForceDense&lt; ForceTpl</text>
<text text-anchor="middle" x="283" y="-46.5411" font-family="Helvetica,sans-Serif" font-size="10.00">&lt; Scalar, _Options &gt; &gt;</text>
</a>
</g>
</g>
<!-- Node22&#45;&gt;Node21 -->
<g id="edge27" class="edge"><title>Node22&#45;&gt;Node21</title>
<path fill="none" stroke="midnightblue" d="M351.969,-54.5411C382.66,-54.5411 418.868,-54.5411 449.714,-54.5411"/>
<polygon fill="midnightblue" stroke="midnightblue" points="351.788,-51.0412 341.788,-54.5411 351.788,-58.0412 351.788,-51.0412"/>
</g>
<!-- Node23 -->
<g id="node23" class="node"><title>Node23</title>
<g id="a_node23"><a xlink:href="classpinocchio_1_1ForceBase.html" target="_top" xlink:title="Base interface for forces representation. ">
<polygon fill="white" stroke="black" points="0,-45.0411 0,-64.0411 116,-64.0411 116,-45.0411 0,-45.0411"/>
<text text-anchor="middle" x="58" y="-52.0411" font-family="Helvetica,sans-Serif" font-size="10.00">ForceBase&lt; Derived &gt;</text>
</a>
</g>
</g>
<!-- Node23&#45;&gt;Node22 -->
<g id="edge28" class="edge"><title>Node23&#45;&gt;Node22</title>
<path fill="none" stroke="midnightblue" d="M126.489,-54.5411C157.679,-54.5411 194.343,-54.5411 224.235,-54.5411"/>
<polygon fill="midnightblue" stroke="midnightblue" points="126.138,-51.0412 116.138,-54.5411 126.138,-58.0412 126.138,-51.0412"/>
</g>
<!-- Node24 -->
<g id="node24" class="node"><title>Node24</title>
<g id="a_node24"><a xlink:href="structpinocchio_1_1container_1_1aligned__vector.html" target="_top" xlink:title="aligned_vector\&lt; pinocchio\l::MotionTpl \&gt;">
<polygon fill="white" stroke="black" points="455,-197.541 455,-227.541 585,-227.541 585,-197.541 455,-197.541"/>
<text text-anchor="start" x="463" y="-215.541" font-family="Helvetica,sans-Serif" font-size="10.00">aligned_vector&lt; pinocchio</text>
<text text-anchor="middle" x="520" y="-204.541" font-family="Helvetica,sans-Serif" font-size="10.00">::MotionTpl &gt;</text>
</a>
</g>
</g>
<!-- Node24&#45;&gt;Node1 -->
<g id="edge29" class="edge"><title>Node24&#45;&gt;Node1</title>
<path fill="none" stroke="#9a32cd" stroke-dasharray="5,2" d="M595.153,-197.927C628.011,-194.858 666.313,-196.124 698,-210.541 738.936,-229.167 768.689,-276.156 781.9,-300.46"/>
<polygon fill="#9a32cd" stroke="#9a32cd" points="594.709,-194.454 585.143,-199.009 595.462,-201.414 594.709,-194.454"/>
<text text-anchor="middle" x="653" y="-268.541" font-family="Helvetica,sans-Serif" font-size="10.00"> oa</text>
<text text-anchor="middle" x="653" y="-257.541" font-family="Helvetica,sans-Serif" font-size="10.00">oa_gf</text>
<text text-anchor="middle" x="653" y="-246.541" font-family="Helvetica,sans-Serif" font-size="10.00">ov</text>
<text text-anchor="middle" x="653" y="-235.541" font-family="Helvetica,sans-Serif" font-size="10.00">a</text>
<text text-anchor="middle" x="653" y="-224.541" font-family="Helvetica,sans-Serif" font-size="10.00">a_gf</text>
<text text-anchor="middle" x="653" y="-213.541" font-family="Helvetica,sans-Serif" font-size="10.00">v</text>
</g>
<!-- Node25&#45;&gt;Node24 -->
<g id="edge30" class="edge"><title>Node25&#45;&gt;Node24</title>
<path fill="none" stroke="midnightblue" d="M381.325,-214.299C406.091,-213.982 432.088,-213.651 454.739,-213.361"/>
<polygon fill="midnightblue" stroke="midnightblue" points="381.126,-210.801 371.171,-214.428 381.215,-217.8 381.126,-210.801"/>
</g>
<!-- Node26 -->
<g id="node26" class="node"><title>Node26</title>
<polygon fill="white" stroke="#bfbfbf" points="475.5,-7.0411 475.5,-26.0411 564.5,-26.0411 564.5,-7.0411 475.5,-7.0411"/>
<text text-anchor="middle" x="520" y="-14.0411" font-family="Helvetica,sans-Serif" font-size="10.00">vector&lt; Scalar &gt;</text>
</g>
<!-- Node26&#45;&gt;Node1 -->
<g id="edge32" class="edge"><title>Node26&#45;&gt;Node1</title>
<path fill="none" stroke="#9a32cd" stroke-dasharray="5,2" d="M566.229,-5.05352C605.163,1.9977 660.788,4.94355 698,-23.5411 788.486,-92.8057 791.576,-251 790.2,-300.469"/>
<polygon fill="#9a32cd" stroke="#9a32cd" points="565.353,-1.65864 556.217,-7.0227 566.704,-8.52707 565.353,-1.65864"/>
<text text-anchor="middle" x="653" y="-26.5411" font-family="Helvetica,sans-Serif" font-size="10.00"> mass</text>
</g>
</g>
</svg>
