<?xml version="1.0" encoding="UTF-8" standalone="no"?>
<!DOCTYPE svg PUBLIC "-//W3C//DTD SVG 1.1//EN"
 "http://www.w3.org/Graphics/SVG/1.1/DTD/svg11.dtd">
<!-- Generated by graphviz version 2.38.0 (20140413.2041)
 -->
<!-- Title: CartesianProductOperation&lt; LieGroup1, LieGroup2 &gt; Pages: 1 -->
<svg width="188pt" height="106pt"
 viewBox="0.00 0.00 188.00 106.00" xmlns="http://www.w3.org/2000/svg" xmlns:xlink="http://www.w3.org/1999/xlink">
<g id="graph0" class="graph" transform="scale(1 1) rotate(0) translate(4 102)">
<title>CartesianProductOperation&lt; LieGroup1, LieGroup2 &gt;</title>
<polygon fill="white" stroke="none" points="-4,4 -4,-102 184,-102 184,4 -4,4"/>
<!-- Node1 -->
<g id="node1" class="node"><title>Node1</title>
<polygon fill="#bfbfbf" stroke="black" points="23,-0.5 23,-30.5 157,-30.5 157,-0.5 23,-0.5"/>
<text text-anchor="start" x="31" y="-18.5" font-family="Helvetica,sans-Serif" font-size="10.00">CartesianProductOperation</text>
<text text-anchor="middle" x="90" y="-7.5" font-family="Helvetica,sans-Serif" font-size="10.00">&lt; LieGroup1, LieGroup2 &gt;</text>
</g>
<!-- Node2 -->
<g id="node2" class="node"><title>Node2</title>
<g id="a_node2"><a xlink:href="structpinocchio_1_1LieGroupBase.html" target="_top" xlink:title="LieGroupBase\&lt; CartesianProduct\lOperation\&lt; LieGroup1, LieGroup2 \&gt; \&gt;">
<polygon fill="white" stroke="black" points="0,-67.5 0,-97.5 180,-97.5 180,-67.5 0,-67.5"/>
<text text-anchor="start" x="8" y="-85.5" font-family="Helvetica,sans-Serif" font-size="10.00">LieGroupBase&lt; CartesianProduct</text>
<text text-anchor="middle" x="90" y="-74.5" font-family="Helvetica,sans-Serif" font-size="10.00">Operation&lt; LieGroup1, LieGroup2 &gt; &gt;</text>
</a>
</g>
</g>
<!-- Node2&#45;&gt;Node1 -->
<g id="edge1" class="edge"><title>Node2&#45;&gt;Node1</title>
<path fill="none" stroke="midnightblue" d="M90,-57.1081C90,-48.1539 90,-38.3227 90,-30.5765"/>
<polygon fill="midnightblue" stroke="midnightblue" points="86.5001,-57.3959 90,-67.396 93.5001,-57.396 86.5001,-57.3959"/>
</g>
</g>
</svg>
