<?xml version="1.0" encoding="UTF-8" standalone="no"?>
<!DOCTYPE svg PUBLIC "-//W3C//DTD SVG 1.1//EN"
 "http://www.w3.org/Graphics/SVG/1.1/DTD/svg11.dtd">
<!-- Generated by graphviz version 2.38.0 (20140413.2041)
 -->
<!-- Title: client.hh Pages: 1 -->
<svg width="684pt" height="95pt"
 viewBox="0.00 0.00 683.50 95.00" xmlns="http://www.w3.org/2000/svg" xmlns:xlink="http://www.w3.org/1999/xlink">
<g id="graph0" class="graph" transform="scale(1 1) rotate(0) translate(4 91)">
<title>client.hh</title>
<polygon fill="white" stroke="none" points="-4,4 -4,-91 679.5,-91 679.5,4 -4,4"/>
<!-- Node1 -->
<g id="node1" class="node"><title>Node1</title>
<polygon fill="#bfbfbf" stroke="black" points="295.5,-67.5 295.5,-86.5 348.5,-86.5 348.5,-67.5 295.5,-67.5"/>
<text text-anchor="middle" x="322" y="-74.5" font-family="Helvetica,sans-Serif" font-size="10.00">client.hh</text>
</g>
<!-- Node2 -->
<g id="node2" class="node"><title>Node2</title>
<polygon fill="white" stroke="#bfbfbf" points="0,-6 0,-25 112,-25 112,-6 0,-6"/>
<text text-anchor="middle" x="56" y="-13" font-family="Helvetica,sans-Serif" font-size="10.00">omniORB4/CORBA.h</text>
</g>
<!-- Node1&#45;&gt;Node2 -->
<g id="edge1" class="edge"><title>Node1&#45;&gt;Node2</title>
<path fill="none" stroke="midnightblue" d="M295.031,-69.9674C250.268,-59.9547 160.034,-39.7708 104.139,-27.2679"/>
<polygon fill="midnightblue" stroke="midnightblue" points="104.643,-23.7943 94.1202,-25.0269 103.115,-30.6254 104.643,-23.7943"/>
</g>
<!-- Node3 -->
<g id="node3" class="node"><title>Node3</title>
<polygon fill="white" stroke="#bfbfbf" points="130.5,-0.5 130.5,-30.5 241.5,-30.5 241.5,-0.5 130.5,-0.5"/>
<text text-anchor="start" x="138.5" y="-18.5" font-family="Helvetica,sans-Serif" font-size="10.00">hpp/corbaserver/robot</text>
<text text-anchor="middle" x="186" y="-7.5" font-family="Helvetica,sans-Serif" font-size="10.00">&#45;idl.hh</text>
</g>
<!-- Node1&#45;&gt;Node3 -->
<g id="edge2" class="edge"><title>Node1&#45;&gt;Node3</title>
<path fill="none" stroke="midnightblue" d="M302.515,-67.4751C282.976,-58.9271 252.288,-45.5011 227.311,-34.5734"/>
<polygon fill="midnightblue" stroke="midnightblue" points="228.617,-31.3247 218.053,-30.523 225.811,-37.7378 228.617,-31.3247"/>
</g>
<!-- Node4 -->
<g id="node4" class="node"><title>Node4</title>
<polygon fill="white" stroke="#bfbfbf" points="260,-0.5 260,-30.5 384,-30.5 384,-0.5 260,-0.5"/>
<text text-anchor="start" x="268" y="-18.5" font-family="Helvetica,sans-Serif" font-size="10.00">hpp/corbaserver/problem</text>
<text text-anchor="middle" x="322" y="-7.5" font-family="Helvetica,sans-Serif" font-size="10.00">&#45;idl.hh</text>
</g>
<!-- Node1&#45;&gt;Node4 -->
<g id="edge3" class="edge"><title>Node1&#45;&gt;Node4</title>
<path fill="none" stroke="midnightblue" d="M322,-67.4751C322,-60.471 322,-50.1919 322,-40.6956"/>
<polygon fill="midnightblue" stroke="midnightblue" points="325.5,-40.5229 322,-30.523 318.5,-40.523 325.5,-40.5229"/>
</g>
<!-- Node5 -->
<g id="node5" class="node"><title>Node5</title>
<polygon fill="white" stroke="#bfbfbf" points="402,-0.5 402,-30.5 528,-30.5 528,-0.5 402,-0.5"/>
<text text-anchor="start" x="410" y="-18.5" font-family="Helvetica,sans-Serif" font-size="10.00">hpp/corbaserver/obstacle</text>
<text text-anchor="middle" x="465" y="-7.5" font-family="Helvetica,sans-Serif" font-size="10.00">&#45;idl.hh</text>
</g>
<!-- Node1&#45;&gt;Node5 -->
<g id="edge4" class="edge"><title>Node1&#45;&gt;Node5</title>
<path fill="none" stroke="midnightblue" d="M342.488,-67.4751C363.123,-58.8895 395.584,-45.3827 421.91,-34.4291"/>
<polygon fill="midnightblue" stroke="midnightblue" points="423.41,-37.596 431.298,-30.523 420.72,-31.1332 423.41,-37.596"/>
</g>
<!-- Node6 -->
<g id="node6" class="node"><title>Node6</title>
<polygon fill="white" stroke="#bfbfbf" points="546.5,-6 546.5,-25 675.5,-25 675.5,-6 546.5,-6"/>
<text text-anchor="middle" x="611" y="-13" font-family="Helvetica,sans-Serif" font-size="10.00">hpp/corbaserver/config.hh</text>
</g>
<!-- Node1&#45;&gt;Node6 -->
<g id="edge5" class="edge"><title>Node1&#45;&gt;Node6</title>
<path fill="none" stroke="midnightblue" d="M348.67,-70.509C396.587,-60.6438 497.99,-39.7667 559.742,-27.0532"/>
<polygon fill="midnightblue" stroke="midnightblue" points="560.581,-30.4538 569.67,-25.0091 559.17,-23.5976 560.581,-30.4538"/>
</g>
</g>
</svg>
