<?xml version="1.0" encoding="UTF-8" standalone="no"?>
<!DOCTYPE svg PUBLIC "-//W3C//DTD SVG 1.1//EN"
 "http://www.w3.org/Graphics/SVG/1.1/DTD/svg11.dtd">
<!-- Generated by graphviz version 2.38.0 (20140413.2041)
 -->
<!-- Title: path_validations.idl Pages: 1 -->
<svg width="155pt" height="140pt"
 viewBox="0.00 0.00 154.50 140.00" xmlns="http://www.w3.org/2000/svg" xmlns:xlink="http://www.w3.org/1999/xlink">
<g id="graph0" class="graph" transform="scale(1 1) rotate(0) translate(4 136)">
<title>path_validations.idl</title>
<polygon fill="white" stroke="none" points="-4,4 -4,-136 150.5,-136 150.5,4 -4,4"/>
<!-- Node1 -->
<g id="node1" class="node"><title>Node1</title>
<polygon fill="#bfbfbf" stroke="black" points="0,-112.5 0,-131.5 100,-131.5 100,-112.5 0,-112.5"/>
<text text-anchor="middle" x="50" y="-119.5" font-family="Helvetica,sans-Serif" font-size="10.00">path_validations.idl</text>
</g>
<!-- Node2 -->
<g id="node2" class="node"><title>Node2</title>
<g id="a_node2"><a xlink:href="a00071.html" target="_top" xlink:title="hpp/common.idl">
<polygon fill="white" stroke="black" points="7,-0.5 7,-19.5 93,-19.5 93,-0.5 7,-0.5"/>
<text text-anchor="middle" x="50" y="-7.5" font-family="Helvetica,sans-Serif" font-size="10.00">hpp/common.idl</text>
</a>
</g>
</g>
<!-- Node1&#45;&gt;Node2 -->
<g id="edge1" class="edge"><title>Node1&#45;&gt;Node2</title>
<path fill="none" stroke="midnightblue" d="M43.7862,-112.328C35.7233,-100.015 23.22,-76.6604 28,-56 30.2297,-46.3627 34.8215,-36.4052 39.236,-28.3149"/>
<polygon fill="midnightblue" stroke="midnightblue" points="42.3506,-29.9216 44.3622,-19.5194 36.3028,-26.3968 42.3506,-29.9216"/>
</g>
<!-- Node3 -->
<g id="node3" class="node"><title>Node3</title>
<g id="a_node3"><a xlink:href="a00087.html" target="_top" xlink:title="hpp/core_idl/paths.idl">
<polygon fill="white" stroke="black" points="37.5,-56.5 37.5,-75.5 146.5,-75.5 146.5,-56.5 37.5,-56.5"/>
<text text-anchor="middle" x="92" y="-63.5" font-family="Helvetica,sans-Serif" font-size="10.00">hpp/core_idl/paths.idl</text>
</a>
</g>
</g>
<!-- Node1&#45;&gt;Node3 -->
<g id="edge2" class="edge"><title>Node1&#45;&gt;Node3</title>
<path fill="none" stroke="midnightblue" d="M56.9354,-112.083C62.9292,-104.377 71.7518,-93.0333 79.0476,-83.6531"/>
<polygon fill="midnightblue" stroke="midnightblue" points="81.8169,-85.7934 85.1936,-75.7511 76.2914,-81.4958 81.8169,-85.7934"/>
</g>
<!-- Node3&#45;&gt;Node2 -->
<g id="edge3" class="edge"><title>Node3&#45;&gt;Node2</title>
<path fill="none" stroke="midnightblue" d="M85.0646,-56.083C79.0708,-48.3768 70.2482,-37.0333 62.9524,-27.6531"/>
<polygon fill="midnightblue" stroke="midnightblue" points="65.7086,-25.4958 56.8064,-19.7511 60.1831,-29.7934 65.7086,-25.4958"/>
</g>
</g>
</svg>
