<?xml version="1.0" encoding="UTF-8" standalone="no"?>
<!DOCTYPE svg PUBLIC "-//W3C//DTD SVG 1.1//EN"
 "http://www.w3.org/Graphics/SVG/1.1/DTD/svg11.dtd">
<!-- Generated by graphviz version 2.38.0 (20140413.2041)
 -->
<!-- Title: hpp::corbaServer::BasicServer Pages: 1 -->
<svg width="158pt" height="163pt"
 viewBox="0.00 0.00 158.00 163.00" xmlns="http://www.w3.org/2000/svg" xmlns:xlink="http://www.w3.org/1999/xlink">
<g id="graph0" class="graph" transform="scale(1 1) rotate(0) translate(4 159)">
<title>hpp::corbaServer::BasicServer</title>
<polygon fill="white" stroke="none" points="-4,4 -4,-159 154,-159 154,4 -4,4"/>
<!-- Node1 -->
<g id="node1" class="node"><title>Node1</title>
<polygon fill="#bfbfbf" stroke="black" points="-1.42109e-14,-0.5 -1.42109e-14,-19.5 150,-19.5 150,-0.5 -1.42109e-14,-0.5"/>
<text text-anchor="middle" x="75" y="-7.5" font-family="Helvetica,sans-Serif" font-size="10.00">hpp::corbaServer::BasicServer</text>
</g>
<!-- Node2 -->
<g id="node2" class="node"><title>Node2</title>
<g id="a_node2"><a xlink:href="a00055.html" target="_top" xlink:title="hpp::corbaServer::Server\lPlugin">
<polygon fill="white" stroke="black" points="12.5,-57.5 12.5,-87.5 137.5,-87.5 137.5,-57.5 12.5,-57.5"/>
<text text-anchor="start" x="20.5" y="-75.5" font-family="Helvetica,sans-Serif" font-size="10.00">hpp::corbaServer::Server</text>
<text text-anchor="middle" x="75" y="-64.5" font-family="Helvetica,sans-Serif" font-size="10.00">Plugin</text>
</a>
</g>
</g>
<!-- Node2&#45;&gt;Node1 -->
<g id="edge1" class="edge"><title>Node2&#45;&gt;Node1</title>
<path fill="none" stroke="midnightblue" d="M68.3736,-47.3524C67.9701,-37.5132 68.5546,-26.7753 70.1271,-19.5399"/>
<polygon fill="midnightblue" stroke="midnightblue" points="64.8972,-47.7859 69.1992,-57.468 71.874,-47.2164 64.8972,-47.7859"/>
</g>
<!-- Node2&#45;&gt;Node1 -->
<g id="edge3" class="edge"><title>Node2&#45;&gt;Node1</title>
<path fill="none" stroke="midnightblue" d="M81.6264,-47.3524C82.0299,-37.5132 81.4454,-26.7753 79.8729,-19.5399"/>
<polygon fill="midnightblue" stroke="midnightblue" points="78.126,-47.2164 80.8008,-57.468 85.1028,-47.7859 78.126,-47.2164"/>
</g>
<!-- Node3 -->
<g id="node3" class="node"><title>Node3</title>
<g id="a_node3"><a xlink:href="a00054.html" target="_top" xlink:title="Implementation of Hpp module Corba server. ">
<polygon fill="white" stroke="black" points="12.5,-135.5 12.5,-154.5 137.5,-154.5 137.5,-135.5 12.5,-135.5"/>
<text text-anchor="middle" x="75" y="-142.5" font-family="Helvetica,sans-Serif" font-size="10.00">hpp::corbaServer::Server</text>
</a>
</g>
</g>
<!-- Node3&#45;&gt;Node2 -->
<g id="edge2" class="edge"><title>Node3&#45;&gt;Node2</title>
<path fill="none" stroke="#9a32cd" stroke-dasharray="5,2" d="M75,-125.236C75,-113.408 75,-98.3829 75,-87.5762"/>
<polygon fill="#9a32cd" stroke="#9a32cd" points="71.5001,-125.355 75,-135.355 78.5001,-125.355 71.5001,-125.355"/>
<text text-anchor="middle" x="93" y="-109" font-family="Helvetica,sans-Serif" font-size="10.00"> parent_</text>
</g>
</g>
</svg>
