<?xml version="1.0" encoding="UTF-8" standalone="no"?>
<!DOCTYPE svg PUBLIC "-//W3C//DTD SVG 1.1//EN"
 "http://www.w3.org/Graphics/SVG/1.1/DTD/svg11.dtd">
<!-- Generated by graphviz version 2.38.0 (20140413.2041)
 -->
<!-- Title: distances.hh Pages: 1 -->
<svg width="874pt" height="341pt"
 viewBox="0.00 0.00 873.50 341.00" xmlns="http://www.w3.org/2000/svg" xmlns:xlink="http://www.w3.org/1999/xlink">
<g id="graph0" class="graph" transform="scale(1 1) rotate(0) translate(4 337)">
<title>distances.hh</title>
<polygon fill="white" stroke="none" points="-4,4 -4,-337 869.5,-337 869.5,4 -4,4"/>
<!-- Node1 -->
<g id="node1" class="node"><title>Node1</title>
<polygon fill="#bfbfbf" stroke="black" points="253,-313.5 253,-332.5 325,-332.5 325,-313.5 253,-313.5"/>
<text text-anchor="middle" x="289" y="-320.5" font-family="Helvetica,sans-Serif" font-size="10.00">distances.hh</text>
</g>
<!-- Node2 -->
<g id="node2" class="node"><title>Node2</title>
<polygon fill="white" stroke="#bfbfbf" points="0,-252 0,-271 44,-271 44,-252 0,-252"/>
<text text-anchor="middle" x="22" y="-259" font-family="Helvetica,sans-Serif" font-size="10.00">vector</text>
</g>
<!-- Node1&#45;&gt;Node2 -->
<g id="edge1" class="edge"><title>Node1&#45;&gt;Node2</title>
<path fill="none" stroke="midnightblue" d="M252.72,-317.934C205.778,-312.03 121.852,-299.28 53,-277 51.3288,-276.459 49.6303,-275.85 47.9329,-275.195"/>
<polygon fill="midnightblue" stroke="midnightblue" points="48.9931,-271.841 38.4236,-271.109 46.2294,-278.273 48.9931,-271.841"/>
</g>
<!-- Node3 -->
<g id="node3" class="node"><title>Node3</title>
<polygon fill="white" stroke="#bfbfbf" points="62,-252 62,-271 110,-271 110,-252 62,-252"/>
<text text-anchor="middle" x="86" y="-259" font-family="Helvetica,sans-Serif" font-size="10.00">stdlib.h</text>
</g>
<!-- Node1&#45;&gt;Node3 -->
<g id="edge2" class="edge"><title>Node1&#45;&gt;Node3</title>
<path fill="none" stroke="midnightblue" d="M253.619,-313.423C220.004,-305.022 168.176,-291.414 124,-277 121.592,-276.214 119.112,-275.364 116.629,-274.483"/>
<polygon fill="midnightblue" stroke="midnightblue" points="117.766,-271.172 107.172,-271.001 115.347,-277.741 117.766,-271.172"/>
</g>
<!-- Node4 -->
<g id="node4" class="node"><title>Node4</title>
<g id="a_node4"><a doxygen="/local/devel/hpp/install/share/doc/hpp-core/doxygen-html/hpp-core.doxytag:../../hpp-core/doxygen-html/" xlink:href="../../hpp-core/doxygen-html/a00135.html" target="_top" xlink:title="hpp/core/distance.hh">
<polygon fill="white" stroke="black" points="183.5,-185 183.5,-204 290.5,-204 290.5,-185 183.5,-185"/>
<text text-anchor="middle" x="237" y="-192" font-family="Helvetica,sans-Serif" font-size="10.00">hpp/core/distance.hh</text>
</a>
</g>
</g>
<!-- Node1&#45;&gt;Node4 -->
<g id="edge3" class="edge"><title>Node1&#45;&gt;Node4</title>
<path fill="none" stroke="midnightblue" d="M252.864,-320.67C221.778,-317.381 178.628,-307.224 157,-277 148.982,-265.796 150.348,-258.066 157,-246 166.546,-228.686 184.802,-216.489 201.468,-208.425"/>
<polygon fill="midnightblue" stroke="midnightblue" points="203.322,-211.429 211.018,-204.147 200.461,-205.041 203.322,-211.429"/>
</g>
<!-- Node5 -->
<g id="node5" class="node"><title>Node5</title>
<g id="a_node5"><a xlink:href="a00001.html" target="_top" xlink:title="hpp/core/fwd.hh">
<polygon fill="white" stroke="black" points="306,-56.5 306,-75.5 392,-75.5 392,-56.5 306,-56.5"/>
<text text-anchor="middle" x="349" y="-63.5" font-family="Helvetica,sans-Serif" font-size="10.00">hpp/core/fwd.hh</text>
</a>
</g>
</g>
<!-- Node1&#45;&gt;Node5 -->
<g id="edge13" class="edge"><title>Node1&#45;&gt;Node5</title>
<path fill="none" stroke="midnightblue" d="M297.037,-313.461C304.559,-304.931 315.447,-291.092 321,-277 347.272,-210.324 349.772,-123.493 349.468,-85.8121"/>
<polygon fill="midnightblue" stroke="midnightblue" points="352.967,-85.7151 349.306,-75.7727 345.968,-85.8277 352.967,-85.7151"/>
</g>
<!-- Node9 -->
<g id="node9" class="node"><title>Node9</title>
<g id="a_node9"><a doxygen="/local/devel/hpp/install/share/doc/hpp-core/doxygen-html/hpp-core.doxytag:../../hpp-core/doxygen-html/" xlink:href="../../hpp-core/doxygen-html/a00212.html" target="_top" xlink:title="hpp/core/weighed&#45;distance.hh">
<polygon fill="white" stroke="black" points="166,-252 166,-271 312,-271 312,-252 166,-252"/>
<text text-anchor="middle" x="239" y="-259" font-family="Helvetica,sans-Serif" font-size="10.00">hpp/core/weighed&#45;distance.hh</text>
</a>
</g>
</g>
<!-- Node1&#45;&gt;Node9 -->
<g id="edge11" class="edge"><title>Node1&#45;&gt;Node9</title>
<path fill="none" stroke="midnightblue" d="M281.836,-313.475C274.262,-304.462 262.13,-290.025 252.707,-278.812"/>
<polygon fill="midnightblue" stroke="midnightblue" points="255.263,-276.413 246.15,-271.009 249.904,-280.917 255.263,-276.413"/>
</g>
<!-- Node10 -->
<g id="node10" class="node"><title>Node10</title>
<g id="a_node10"><a xlink:href="a00075.html" target="_top" xlink:title="hpp/corbaserver/conversions.hh">
<polygon fill="white" stroke="black" points="368.5,-252 368.5,-271 523.5,-271 523.5,-252 368.5,-252"/>
<text text-anchor="middle" x="446" y="-259" font-family="Helvetica,sans-Serif" font-size="10.00">hpp/corbaserver/conversions.hh</text>
</a>
</g>
</g>
<!-- Node1&#45;&gt;Node10 -->
<g id="edge14" class="edge"><title>Node1&#45;&gt;Node10</title>
<path fill="none" stroke="midnightblue" d="M311.494,-313.475C338.309,-303.313 383.315,-286.256 413.809,-274.7"/>
<polygon fill="midnightblue" stroke="midnightblue" points="415.437,-277.826 423.547,-271.009 412.956,-271.28 415.437,-277.826"/>
</g>
<!-- Node13 -->
<g id="node13" class="node"><title>Node13</title>
<polygon fill="white" stroke="#bfbfbf" points="542,-246.5 542,-276.5 656,-276.5 656,-246.5 542,-246.5"/>
<text text-anchor="start" x="550" y="-264.5" font-family="Helvetica,sans-Serif" font-size="10.00">hpp/core_idl/distances</text>
<text text-anchor="middle" x="599" y="-253.5" font-family="Helvetica,sans-Serif" font-size="10.00">&#45;idl.hh</text>
</g>
<!-- Node1&#45;&gt;Node13 -->
<g id="edge18" class="edge"><title>Node1&#45;&gt;Node13</title>
<path fill="none" stroke="midnightblue" d="M325.042,-315.747C370.761,-307.728 452.283,-293.143 531.622,-277.241"/>
<polygon fill="midnightblue" stroke="midnightblue" points="532.675,-280.599 541.788,-275.194 531.293,-273.737 532.675,-280.599"/>
</g>
<!-- Node14 -->
<g id="node14" class="node"><title>Node14</title>
<g id="a_node14"><a xlink:href="a00096.html" target="_top" xlink:title="hpp/corbaserver/servant\l&#45;base.hh">
<polygon fill="white" stroke="black" points="674,-246.5 674,-276.5 796,-276.5 796,-246.5 674,-246.5"/>
<text text-anchor="start" x="682" y="-264.5" font-family="Helvetica,sans-Serif" font-size="10.00">hpp/corbaserver/servant</text>
<text text-anchor="middle" x="735" y="-253.5" font-family="Helvetica,sans-Serif" font-size="10.00">&#45;base.hh</text>
</a>
</g>
</g>
<!-- Node1&#45;&gt;Node14 -->
<g id="edge19" class="edge"><title>Node1&#45;&gt;Node14</title>
<path fill="none" stroke="midnightblue" d="M325.178,-318.704C390.668,-312.515 533.415,-298.003 663.809,-277.106"/>
<polygon fill="midnightblue" stroke="midnightblue" points="664.662,-280.514 673.973,-275.46 663.543,-273.604 664.662,-280.514"/>
</g>
<!-- Node4&#45;&gt;Node5 -->
<g id="edge4" class="edge"><title>Node4&#45;&gt;Node5</title>
<path fill="none" stroke="midnightblue" d="M247.676,-184.728C259.173,-175.053 277.732,-158.76 292,-143 309.211,-123.99 326.542,-100.036 337.498,-84.1567"/>
<polygon fill="midnightblue" stroke="midnightblue" points="340.427,-86.074 343.164,-75.8386 334.642,-82.1336 340.427,-86.074"/>
</g>
<!-- Node7 -->
<g id="node7" class="node"><title>Node7</title>
<g id="a_node7"><a doxygen="/local/devel/hpp/install/share/doc/hpp-core/doxygen-html/hpp-core.doxytag:../../hpp-core/doxygen-html/" xlink:href="../../hpp-core/doxygen-html/a00001.html" target="_top" xlink:title="hpp/core/fwd.hh">
<polygon fill="white" stroke="black" points="260,-0.5 260,-19.5 346,-19.5 346,-0.5 260,-0.5"/>
<text text-anchor="middle" x="303" y="-7.5" font-family="Helvetica,sans-Serif" font-size="10.00">hpp/core/fwd.hh</text>
</a>
</g>
</g>
<!-- Node4&#45;&gt;Node7 -->
<g id="edge7" class="edge"><title>Node4&#45;&gt;Node7</title>
<path fill="none" stroke="midnightblue" d="M222.104,-184.878C208.779,-176.217 190.135,-161.514 182,-143 176.457,-130.386 176.161,-124.479 182,-112 201.253,-70.8496 246.429,-40.5926 275.804,-24.408"/>
<polygon fill="midnightblue" stroke="midnightblue" points="277.553,-27.4422 284.733,-19.6518 274.262,-21.2639 277.553,-27.4422"/>
</g>
<!-- Node8 -->
<g id="node8" class="node"><title>Node8</title>
<g id="a_node8"><a doxygen="/local/devel/hpp/install/share/doc/hpp-core/doxygen-html/hpp-core.doxytag:../../hpp-core/doxygen-html/" xlink:href="../../hpp-core/doxygen-html/a00162.html" target="_top" xlink:title="hpp/core/node.hh">
<polygon fill="white" stroke="black" points="191,-118 191,-137 283,-137 283,-118 191,-118"/>
<text text-anchor="middle" x="237" y="-125" font-family="Helvetica,sans-Serif" font-size="10.00">hpp/core/node.hh</text>
</a>
</g>
</g>
<!-- Node4&#45;&gt;Node8 -->
<g id="edge8" class="edge"><title>Node4&#45;&gt;Node8</title>
<path fill="none" stroke="midnightblue" d="M237,-184.734C237,-175.183 237,-159.618 237,-147.283"/>
<polygon fill="midnightblue" stroke="midnightblue" points="240.5,-147.127 237,-137.127 233.5,-147.127 240.5,-147.127"/>
</g>
<!-- Node6 -->
<g id="node6" class="node"><title>Node6</title>
<polygon fill="white" stroke="#bfbfbf" points="575,-0.5 575,-19.5 687,-19.5 687,-0.5 575,-0.5"/>
<text text-anchor="middle" x="631" y="-7.5" font-family="Helvetica,sans-Serif" font-size="10.00">omniORB4/CORBA.h</text>
</g>
<!-- Node5&#45;&gt;Node6 -->
<g id="edge5" class="edge"><title>Node5&#45;&gt;Node6</title>
<path fill="none" stroke="midnightblue" d="M392.137,-56.7398C441.564,-47.275 522.651,-31.7476 576.429,-21.4497"/>
<polygon fill="midnightblue" stroke="midnightblue" points="577.308,-24.8451 586.471,-19.5268 575.991,-17.97 577.308,-24.8451"/>
</g>
<!-- Node5&#45;&gt;Node7 -->
<g id="edge6" class="edge"><title>Node5&#45;&gt;Node7</title>
<path fill="none" stroke="midnightblue" d="M341.404,-56.083C334.773,-48.2982 324.979,-36.8015 316.942,-27.3665"/>
<polygon fill="midnightblue" stroke="midnightblue" points="319.604,-25.0939 310.455,-19.7511 314.275,-29.6332 319.604,-25.0939"/>
</g>
<!-- Node8&#45;&gt;Node5 -->
<g id="edge9" class="edge"><title>Node8&#45;&gt;Node5</title>
<path fill="none" stroke="midnightblue" d="M253.047,-117.975C271.593,-108.122 302.34,-91.7883 324.022,-80.2697"/>
<polygon fill="midnightblue" stroke="midnightblue" points="325.794,-83.2916 332.983,-75.5091 322.51,-77.1098 325.794,-83.2916"/>
</g>
<!-- Node8&#45;&gt;Node7 -->
<g id="edge10" class="edge"><title>Node8&#45;&gt;Node7</title>
<path fill="none" stroke="midnightblue" d="M241.961,-117.819C252.759,-98.9224 278.572,-53.7483 292.931,-28.6206"/>
<polygon fill="midnightblue" stroke="midnightblue" points="296.059,-30.201 297.982,-19.782 289.981,-26.728 296.059,-30.201"/>
</g>
<!-- Node9&#45;&gt;Node4 -->
<g id="edge12" class="edge"><title>Node9&#45;&gt;Node4</title>
<path fill="none" stroke="midnightblue" d="M238.73,-251.734C238.436,-242.183 237.957,-226.618 237.578,-214.283"/>
<polygon fill="midnightblue" stroke="midnightblue" points="241.071,-214.015 237.265,-204.127 234.075,-214.23 241.071,-214.015"/>
</g>
<!-- Node10&#45;&gt;Node5 -->
<g id="edge16" class="edge"><title>Node10&#45;&gt;Node5</title>
<path fill="none" stroke="midnightblue" d="M452.724,-251.696C463.464,-236.486 482.194,-204.473 471,-179 451.168,-133.871 403.181,-98.9554 373.645,-80.8141"/>
<polygon fill="midnightblue" stroke="midnightblue" points="375.145,-77.6338 364.763,-75.5218 371.562,-83.6472 375.145,-77.6338"/>
</g>
<!-- Node11 -->
<g id="node11" class="node"><title>Node11</title>
<polygon fill="white" stroke="#bfbfbf" points="368.5,-179.5 368.5,-209.5 461.5,-209.5 461.5,-179.5 368.5,-179.5"/>
<text text-anchor="start" x="376.5" y="-197.5" font-family="Helvetica,sans-Serif" font-size="10.00">hpp/util/exception</text>
<text text-anchor="middle" x="415" y="-186.5" font-family="Helvetica,sans-Serif" font-size="10.00">&#45;factory.hh</text>
</g>
<!-- Node10&#45;&gt;Node11 -->
<g id="edge15" class="edge"><title>Node10&#45;&gt;Node11</title>
<path fill="none" stroke="midnightblue" d="M441.819,-251.734C437.791,-243.287 431.52,-230.138 426.054,-218.678"/>
<polygon fill="midnightblue" stroke="midnightblue" points="429.183,-217.108 421.719,-209.589 422.865,-220.122 429.183,-217.108"/>
</g>
<!-- Node12 -->
<g id="node12" class="node"><title>Node12</title>
<polygon fill="white" stroke="#bfbfbf" points="518.5,-185 518.5,-204 617.5,-204 617.5,-185 518.5,-185"/>
<text text-anchor="middle" x="568" y="-192" font-family="Helvetica,sans-Serif" font-size="10.00">hpp/common&#45;idl.hh</text>
</g>
<!-- Node10&#45;&gt;Node12 -->
<g id="edge17" class="edge"><title>Node10&#45;&gt;Node12</title>
<path fill="none" stroke="midnightblue" d="M462.201,-251.869C482.8,-240.893 518.591,-221.824 542.777,-208.938"/>
<polygon fill="midnightblue" stroke="midnightblue" points="544.553,-211.958 551.732,-204.167 541.261,-205.78 544.553,-211.958"/>
</g>
<!-- Node14&#45;&gt;Node12 -->
<g id="edge21" class="edge"><title>Node14&#45;&gt;Node12</title>
<path fill="none" stroke="midnightblue" d="M698.763,-246.396C669.072,-234.84 627.494,-218.656 599.249,-207.663"/>
<polygon fill="midnightblue" stroke="midnightblue" points="600.445,-204.373 589.856,-204.007 597.906,-210.896 600.445,-204.373"/>
</g>
<!-- Node15 -->
<g id="node15" class="node"><title>Node15</title>
<polygon fill="white" stroke="#bfbfbf" points="784.5,-185 784.5,-204 865.5,-204 865.5,-185 784.5,-185"/>
<text text-anchor="middle" x="825" y="-192" font-family="Helvetica,sans-Serif" font-size="10.00">boost/type.hpp</text>
</g>
<!-- Node14&#45;&gt;Node15 -->
<g id="edge20" class="edge"><title>Node14&#45;&gt;Node15</title>
<path fill="none" stroke="midnightblue" d="M754.529,-246.396C769.482,-235.597 790.03,-220.756 805.079,-209.887"/>
<polygon fill="midnightblue" stroke="midnightblue" points="807.163,-212.699 813.221,-204.007 803.065,-207.025 807.163,-212.699"/>
</g>
<!-- Node16 -->
<g id="node16" class="node"><title>Node16</title>
<g id="a_node16"><a xlink:href="a00098.html" target="_top" xlink:title="hpp/corbaserver/server.hh">
<polygon fill="white" stroke="black" points="636,-185 636,-204 766,-204 766,-185 636,-185"/>
<text text-anchor="middle" x="701" y="-192" font-family="Helvetica,sans-Serif" font-size="10.00">hpp/corbaserver/server.hh</text>
</a>
</g>
</g>
<!-- Node14&#45;&gt;Node16 -->
<g id="edge22" class="edge"><title>Node14&#45;&gt;Node16</title>
<path fill="none" stroke="midnightblue" d="M727.623,-246.396C722.531,-236.662 715.723,-223.646 710.266,-213.214"/>
<polygon fill="midnightblue" stroke="midnightblue" points="713.284,-211.433 705.548,-204.195 707.082,-214.678 713.284,-211.433"/>
</g>
<!-- Node16&#45;&gt;Node5 -->
<g id="edge24" class="edge"><title>Node16&#45;&gt;Node5</title>
<path fill="none" stroke="midnightblue" d="M659.775,-184.93C626.634,-176.996 579.574,-163.328 542,-143 522.83,-132.629 523.298,-122.131 504,-112 472.125,-95.2666 433.205,-83.995 402.339,-76.9176"/>
<polygon fill="midnightblue" stroke="midnightblue" points="402.721,-73.4177 392.202,-74.6764 401.21,-80.2527 402.721,-73.4177"/>
</g>
<!-- Node16&#45;&gt;Node6 -->
<g id="edge23" class="edge"><title>Node16&#45;&gt;Node6</title>
<path fill="none" stroke="midnightblue" d="M712.5,-184.999C741.233,-162.734 811.517,-101.312 778,-56 759.32,-30.7453 726.745,-19.2007 697,-14.0977"/>
<polygon fill="midnightblue" stroke="midnightblue" points="697.454,-10.6267 687.045,-12.6036 696.414,-17.5492 697.454,-10.6267"/>
</g>
<!-- Node17 -->
<g id="node17" class="node"><title>Node17</title>
<polygon fill="white" stroke="#bfbfbf" points="410.5,-56.5 410.5,-75.5 539.5,-75.5 539.5,-56.5 410.5,-56.5"/>
<text text-anchor="middle" x="475" y="-63.5" font-family="Helvetica,sans-Serif" font-size="10.00">hpp/corbaserver/config.hh</text>
</g>
<!-- Node16&#45;&gt;Node17 -->
<g id="edge25" class="edge"><title>Node16&#45;&gt;Node17</title>
<path fill="none" stroke="midnightblue" d="M677.181,-184.858C653.217,-175.769 615.54,-160.389 585,-143 564.527,-131.342 561.337,-125.459 542,-112 526.862,-101.464 509.579,-89.8662 496.358,-81.0838"/>
<polygon fill="midnightblue" stroke="midnightblue" points="498.2,-78.1058 487.93,-75.501 494.334,-83.9415 498.2,-78.1058"/>
</g>
<!-- Node18 -->
<g id="node18" class="node"><title>Node18</title>
<g id="a_node18"><a xlink:href="a00088.html" target="_top" xlink:title="hpp/corbaserver/problem\l&#45;solver&#45;map.hh">
<polygon fill="white" stroke="black" points="594,-112.5 594,-142.5 718,-142.5 718,-112.5 594,-112.5"/>
<text text-anchor="start" x="602" y="-130.5" font-family="Helvetica,sans-Serif" font-size="10.00">hpp/corbaserver/problem</text>
<text text-anchor="middle" x="656" y="-119.5" font-family="Helvetica,sans-Serif" font-size="10.00">&#45;solver&#45;map.hh</text>
</a>
</g>
</g>
<!-- Node16&#45;&gt;Node18 -->
<g id="edge26" class="edge"><title>Node16&#45;&gt;Node18</title>
<path fill="none" stroke="midnightblue" d="M694.931,-184.734C688.966,-176.118 679.615,-162.61 671.572,-150.992"/>
<polygon fill="midnightblue" stroke="midnightblue" points="674.324,-148.819 665.754,-142.589 668.568,-152.803 674.324,-148.819"/>
</g>
<!-- Node18&#45;&gt;Node5 -->
<g id="edge29" class="edge"><title>Node18&#45;&gt;Node5</title>
<path fill="none" stroke="midnightblue" d="M593.874,-114.459C537.581,-103.549 455.51,-87.6428 402.181,-77.3071"/>
<polygon fill="midnightblue" stroke="midnightblue" points="402.726,-73.8477 392.243,-75.381 401.395,-80.7199 402.726,-73.8477"/>
</g>
<!-- Node18&#45;&gt;Node7 -->
<g id="edge31" class="edge"><title>Node18&#45;&gt;Node7</title>
<path fill="none" stroke="midnightblue" d="M636.506,-112.285C610.929,-93.8806 567.167,-63.2933 549,-56 485.673,-30.5772 407.379,-19.409 356.366,-14.5749"/>
<polygon fill="midnightblue" stroke="midnightblue" points="356.498,-11.0728 346.225,-13.6634 355.872,-18.0446 356.498,-11.0728"/>
</g>
<!-- Node18&#45;&gt;Node17 -->
<g id="edge30" class="edge"><title>Node18&#45;&gt;Node17</title>
<path fill="none" stroke="midnightblue" d="M613.106,-112.399C581.965,-102.163 540.313,-88.4703 510.921,-78.8082"/>
<polygon fill="midnightblue" stroke="midnightblue" points="511.666,-75.3689 501.073,-75.5709 509.48,-82.0188 511.666,-75.3689"/>
</g>
<!-- Node19 -->
<g id="node19" class="node"><title>Node19</title>
<polygon fill="white" stroke="#bfbfbf" points="733.5,-56.5 733.5,-75.5 768.5,-75.5 768.5,-56.5 733.5,-56.5"/>
<text text-anchor="middle" x="751" y="-63.5" font-family="Helvetica,sans-Serif" font-size="10.00">map</text>
</g>
<!-- Node18&#45;&gt;Node19 -->
<g id="edge27" class="edge"><title>Node18&#45;&gt;Node19</title>
<path fill="none" stroke="midnightblue" d="M678.514,-112.399C693.599,-102.951 713.385,-90.5589 728.473,-81.1089"/>
<polygon fill="midnightblue" stroke="midnightblue" points="730.559,-83.9321 737.177,-75.6578 726.844,-77.9996 730.559,-83.9321"/>
</g>
<!-- Node20 -->
<g id="node20" class="node"><title>Node20</title>
<polygon fill="white" stroke="#bfbfbf" points="596.5,-56.5 596.5,-75.5 715.5,-75.5 715.5,-56.5 596.5,-56.5"/>
<text text-anchor="middle" x="656" y="-63.5" font-family="Helvetica,sans-Serif" font-size="10.00">boost/thread/mutex.hpp</text>
</g>
<!-- Node18&#45;&gt;Node20 -->
<g id="edge28" class="edge"><title>Node18&#45;&gt;Node20</title>
<path fill="none" stroke="midnightblue" d="M656,-112.399C656,-104.466 656,-94.458 656,-85.8583"/>
<polygon fill="midnightblue" stroke="midnightblue" points="659.5,-85.6577 656,-75.6578 652.5,-85.6578 659.5,-85.6577"/>
</g>
</g>
</svg>
