<?xml version="1.0" encoding="UTF-8" standalone="no"?>
<!DOCTYPE svg PUBLIC "-//W3C//DTD SVG 1.1//EN"
 "http://www.w3.org/Graphics/SVG/1.1/DTD/svg11.dtd">
<!-- Generated by graphviz version 2.38.0 (20140413.2041)
 -->
<!-- Title: fwd.hh Pages: 1 -->
<svg width="840pt" height="364pt"
 viewBox="0.00 0.00 840.01 364.00" xmlns="http://www.w3.org/2000/svg" xmlns:xlink="http://www.w3.org/1999/xlink">
<g id="graph0" class="graph" transform="scale(1 1) rotate(0) translate(4 360)">
<title>fwd.hh</title>
<polygon fill="white" stroke="none" points="-4,4 -4,-360 836.006,-360 836.006,4 -4,4"/>
<!-- Node1 -->
<g id="node1" class="node"><title>Node1</title>
<polygon fill="#bfbfbf" stroke="black" points="432,-336.5 432,-355.5 478,-355.5 478,-336.5 432,-336.5"/>
<text text-anchor="middle" x="455" y="-343.5" font-family="Helvetica,sans-Serif" font-size="10.00">fwd.hh</text>
</g>
<!-- Node2 -->
<g id="node2" class="node"><title>Node2</title>
<g id="a_node2"><a xlink:href="a00097.html" target="_top" xlink:title="server&#45;plugin.hh">
<polygon fill="white" stroke="black" points="340,-224.5 340,-243.5 426,-243.5 426,-224.5 340,-224.5"/>
<text text-anchor="middle" x="383" y="-231.5" font-family="Helvetica,sans-Serif" font-size="10.00">server&#45;plugin.hh</text>
</a>
</g>
</g>
<!-- Node1&#45;&gt;Node2 -->
<g id="edge1" class="edge"><title>Node1&#45;&gt;Node2</title>
<path fill="none" stroke="midnightblue" d="M452.469,-326.196C449.953,-312.521 445.1,-294.023 436,-280 426.013,-264.609 409.201,-251.631 397.189,-243.626"/>
<polygon fill="midnightblue" stroke="midnightblue" points="449.055,-327.016 454.075,-336.346 455.969,-325.922 449.055,-327.016"/>
</g>
<!-- Node5 -->
<g id="node5" class="node"><title>Node5</title>
<g id="a_node5"><a xlink:href="a00088.html" target="_top" xlink:title="problem&#45;solver&#45;map.hh">
<polygon fill="white" stroke="black" points="311,-280.5 311,-299.5 427,-299.5 427,-280.5 311,-280.5"/>
<text text-anchor="middle" x="369" y="-287.5" font-family="Helvetica,sans-Serif" font-size="10.00">problem&#45;solver&#45;map.hh</text>
</a>
</g>
</g>
<!-- Node1&#45;&gt;Node5 -->
<g id="edge4" class="edge"><title>Node1&#45;&gt;Node5</title>
<path fill="none" stroke="midnightblue" d="M432.545,-330.901C416.776,-320.999 396.186,-308.071 382.783,-299.655"/>
<polygon fill="midnightblue" stroke="midnightblue" points="430.852,-333.97 441.183,-336.324 434.575,-328.042 430.852,-333.97"/>
</g>
<!-- Node6 -->
<g id="node6" class="node"><title>Node6</title>
<g id="a_node6"><a xlink:href="a00098.html" target="_top" xlink:title="server.hh">
<polygon fill="white" stroke="black" points="264.5,-224.5 264.5,-243.5 321.5,-243.5 321.5,-224.5 264.5,-224.5"/>
<text text-anchor="middle" x="293" y="-231.5" font-family="Helvetica,sans-Serif" font-size="10.00">server.hh</text>
</a>
</g>
</g>
<!-- Node1&#45;&gt;Node6 -->
<g id="edge30" class="edge"><title>Node1&#45;&gt;Node6</title>
<path fill="none" stroke="midnightblue" d="M421.426,-345.072C386.115,-343.197 331.644,-334.407 302,-300 288.318,-284.119 289.654,-257.488 291.488,-243.764"/>
<polygon fill="midnightblue" stroke="midnightblue" points="421.599,-348.58 431.721,-345.452 421.857,-341.585 421.599,-348.58"/>
</g>
<!-- Node8 -->
<g id="node8" class="node"><title>Node8</title>
<g id="a_node8"><a xlink:href="a00073.html" target="_top" xlink:title="constraints.hh">
<polygon fill="white" stroke="black" points="232,-112.5 232,-131.5 310,-131.5 310,-112.5 232,-112.5"/>
<text text-anchor="middle" x="271" y="-119.5" font-family="Helvetica,sans-Serif" font-size="10.00">constraints.hh</text>
</a>
</g>
</g>
<!-- Node1&#45;&gt;Node8 -->
<g id="edge22" class="edge"><title>Node1&#45;&gt;Node8</title>
<path fill="none" stroke="midnightblue" d="M421.68,-345.935C380.169,-345.314 309.317,-338.142 265,-300 218.022,-259.567 194.505,-224.496 220,-168 227.188,-152.071 243.111,-139.519 255.266,-131.764"/>
<polygon fill="midnightblue" stroke="midnightblue" points="421.807,-349.435 431.817,-345.964 421.827,-342.435 421.807,-349.435"/>
</g>
<!-- Node9 -->
<g id="node9" class="node"><title>Node9</title>
<g id="a_node9"><a xlink:href="a00077.html" target="_top" xlink:title="distances.hh">
<polygon fill="white" stroke="black" points="28,-112.5 28,-131.5 100,-131.5 100,-112.5 28,-112.5"/>
<text text-anchor="middle" x="64" y="-119.5" font-family="Helvetica,sans-Serif" font-size="10.00">distances.hh</text>
</a>
</g>
</g>
<!-- Node1&#45;&gt;Node9 -->
<g id="edge31" class="edge"><title>Node1&#45;&gt;Node9</title>
<path fill="none" stroke="midnightblue" d="M421.991,-343.056C355.078,-338.615 206.145,-326.037 163,-300 109.954,-267.988 106.365,-244.067 80,-188 71.0982,-169.07 66.8044,-144.625 65.0395,-131.78"/>
<polygon fill="midnightblue" stroke="midnightblue" points="421.793,-346.551 431.997,-343.7 422.243,-339.565 421.793,-346.551"/>
</g>
<!-- Node10 -->
<g id="node10" class="node"><title>Node10</title>
<g id="a_node10"><a xlink:href="a00002.html" target="_top" xlink:title="problem.hh">
<polygon fill="white" stroke="black" points="178.5,-0.5 178.5,-19.5 243.5,-19.5 243.5,-0.5 178.5,-0.5"/>
<text text-anchor="middle" x="211" y="-7.5" font-family="Helvetica,sans-Serif" font-size="10.00">problem.hh</text>
</a>
</g>
</g>
<!-- Node1&#45;&gt;Node10 -->
<g id="edge34" class="edge"><title>Node1&#45;&gt;Node10</title>
<path fill="none" stroke="midnightblue" d="M421.782,-344.093C316.947,-340.342 0,-321.82 0,-235 0,-235 0,-235 0,-121 0,-41.4762 119.306,-19.3511 178.494,-13.2678"/>
<polygon fill="midnightblue" stroke="midnightblue" points="421.699,-347.592 431.811,-344.43 421.934,-340.596 421.699,-347.592"/>
</g>
<!-- Node11 -->
<g id="node11" class="node"><title>Node11</title>
<g id="a_node11"><a xlink:href="a00083.html" target="_top" xlink:title="path&#45;validations.hh">
<polygon fill="white" stroke="black" points="447,-56.5 447,-75.5 545,-75.5 545,-56.5 447,-56.5"/>
<text text-anchor="middle" x="496" y="-63.5" font-family="Helvetica,sans-Serif" font-size="10.00">path&#45;validations.hh</text>
</a>
</g>
</g>
<!-- Node1&#45;&gt;Node11 -->
<g id="edge32" class="edge"><title>Node1&#45;&gt;Node11</title>
<path fill="none" stroke="midnightblue" d="M488.42,-345.027C566.709,-344.431 759.051,-338.935 808,-300 832.101,-280.83 832,-265.795 832,-235 832,-235 832,-235 832,-177 832,-146.205 831.942,-131.368 808,-112 768.589,-80.1192 622.839,-70.8144 545.288,-68.1063"/>
<polygon fill="midnightblue" stroke="midnightblue" points="488.138,-341.529 478.157,-345.082 488.176,-348.528 488.138,-341.529"/>
</g>
<!-- Node12 -->
<g id="node12" class="node"><title>Node12</title>
<g id="a_node12"><a xlink:href="a00086.html" target="_top" xlink:title="paths.hh">
<polygon fill="white" stroke="black" points="404,-112.5 404,-131.5 458,-131.5 458,-112.5 404,-112.5"/>
<text text-anchor="middle" x="431" y="-119.5" font-family="Helvetica,sans-Serif" font-size="10.00">paths.hh</text>
</a>
</g>
</g>
<!-- Node1&#45;&gt;Node12 -->
<g id="edge33" class="edge"><title>Node1&#45;&gt;Node12</title>
<path fill="none" stroke="midnightblue" d="M488.196,-343.762C574.314,-339.209 794.317,-318.283 737,-224 707.067,-174.762 527.166,-139.367 458.034,-127.419"/>
<polygon fill="midnightblue" stroke="midnightblue" points="487.967,-340.269 478.149,-344.251 488.307,-347.261 487.967,-340.269"/>
</g>
<!-- Node13 -->
<g id="node13" class="node"><title>Node13</title>
<g id="a_node13"><a xlink:href="a00099.html" target="_top" xlink:title="steering&#45;methods.hh">
<polygon fill="white" stroke="black" points="323.5,-56.5 323.5,-75.5 428.5,-75.5 428.5,-56.5 323.5,-56.5"/>
<text text-anchor="middle" x="376" y="-63.5" font-family="Helvetica,sans-Serif" font-size="10.00">steering&#45;methods.hh</text>
</a>
</g>
</g>
<!-- Node1&#45;&gt;Node13 -->
<g id="edge35" class="edge"><title>Node1&#45;&gt;Node13</title>
<path fill="none" stroke="midnightblue" d="M488.534,-342.505C553.702,-337.198 694.758,-323.327 737,-300 770.635,-281.425 794,-273.423 794,-235 794,-235 794,-235 794,-177 794,-139.621 540.783,-93.7914 428.517,-75.3095"/>
<polygon fill="midnightblue" stroke="midnightblue" points="488.077,-339.031 478.386,-343.312 488.632,-346.009 488.077,-339.031"/>
</g>
<!-- Node14 -->
<g id="node14" class="node"><title>Node14</title>
<g id="a_node14"><a xlink:href="a00076.html" target="_top" xlink:title="corbaserver.hh">
<polygon fill="white" stroke="black" points="229.5,-168.5 229.5,-187.5 310.5,-187.5 310.5,-168.5 229.5,-168.5"/>
<text text-anchor="middle" x="270" y="-175.5" font-family="Helvetica,sans-Serif" font-size="10.00">corbaserver.hh</text>
</a>
</g>
</g>
<!-- Node1&#45;&gt;Node14 -->
<g id="edge41" class="edge"><title>Node1&#45;&gt;Node14</title>
<path fill="none" stroke="midnightblue" d="M421.74,-343.195C385.768,-339.718 328.31,-329.57 289,-300 265.731,-282.496 262.846,-272.04 255,-244 249.445,-224.148 258.867,-200.478 265.124,-187.897"/>
<polygon fill="midnightblue" stroke="midnightblue" points="421.466,-346.684 431.726,-344.042 422.057,-339.709 421.466,-346.684"/>
</g>
<!-- Node15 -->
<g id="node15" class="node"><title>Node15</title>
<g id="a_node15"><a xlink:href="a00090.html" target="_top" xlink:title="problem.impl.hh">
<polygon fill="white" stroke="black" points="444,-224.5 444,-243.5 530,-243.5 530,-224.5 444,-224.5"/>
<text text-anchor="middle" x="487" y="-231.5" font-family="Helvetica,sans-Serif" font-size="10.00">problem.impl.hh</text>
</a>
</g>
</g>
<!-- Node1&#45;&gt;Node15 -->
<g id="edge44" class="edge"><title>Node1&#45;&gt;Node15</title>
<path fill="none" stroke="midnightblue" d="M460.809,-326.788C463.379,-318.615 466.401,-308.842 469,-300 474.878,-280.003 481.284,-256.39 484.642,-243.856"/>
<polygon fill="midnightblue" stroke="midnightblue" points="457.448,-325.808 457.765,-336.398 464.121,-327.922 457.448,-325.808"/>
</g>
<!-- Node16 -->
<g id="node16" class="node"><title>Node16</title>
<g id="a_node16"><a xlink:href="a00075.html" target="_top" xlink:title="conversions.hh">
<polygon fill="white" stroke="black" points="89.5,-168.5 89.5,-187.5 172.5,-187.5 172.5,-168.5 89.5,-168.5"/>
<text text-anchor="middle" x="131" y="-175.5" font-family="Helvetica,sans-Serif" font-size="10.00">conversions.hh</text>
</a>
</g>
</g>
<!-- Node1&#45;&gt;Node16 -->
<g id="edge23" class="edge"><title>Node1&#45;&gt;Node16</title>
<path fill="none" stroke="midnightblue" d="M421.625,-343.37C357.582,-339.625 220.547,-328.437 184,-300 146.714,-270.988 135.117,-210.317 132.009,-187.724"/>
<polygon fill="midnightblue" stroke="midnightblue" points="421.433,-346.865 431.613,-343.928 421.823,-339.876 421.433,-346.865"/>
</g>
<!-- Node17 -->
<g id="node17" class="node"><title>Node17</title>
<g id="a_node17"><a xlink:href="a00080.html" target="_top" xlink:title="object&#45;map.hh">
<polygon fill="white" stroke="black" points="559,-280.5 559,-299.5 637,-299.5 637,-280.5 559,-280.5"/>
<text text-anchor="middle" x="598" y="-287.5" font-family="Helvetica,sans-Serif" font-size="10.00">object&#45;map.hh</text>
</a>
</g>
</g>
<!-- Node1&#45;&gt;Node17 -->
<g id="edge36" class="edge"><title>Node1&#45;&gt;Node17</title>
<path fill="none" stroke="midnightblue" d="M487.027,-332.906C513.912,-322.754 551.641,-308.506 575.447,-299.516"/>
<polygon fill="midnightblue" stroke="midnightblue" points="485.778,-329.636 477.659,-336.444 488.25,-336.185 485.778,-329.636"/>
</g>
<!-- Node18 -->
<g id="node18" class="node"><title>Node18</title>
<g id="a_node18"><a xlink:href="a00094.html" target="_top" xlink:title="robot.impl.hh">
<polygon fill="white" stroke="black" points="548.5,-224.5 548.5,-243.5 621.5,-243.5 621.5,-224.5 548.5,-224.5"/>
<text text-anchor="middle" x="585" y="-231.5" font-family="Helvetica,sans-Serif" font-size="10.00">robot.impl.hh</text>
</a>
</g>
</g>
<!-- Node1&#45;&gt;Node18 -->
<g id="edge42" class="edge"><title>Node1&#45;&gt;Node18</title>
<path fill="none" stroke="midnightblue" d="M472.945,-329.816C500.633,-306.387 552.867,-262.19 574.847,-243.591"/>
<polygon fill="midnightblue" stroke="midnightblue" points="470.574,-327.237 465.201,-336.368 475.096,-332.581 470.574,-327.237"/>
</g>
<!-- Node19 -->
<g id="node19" class="node"><title>Node19</title>
<g id="a_node19"><a xlink:href="a00082.html" target="_top" xlink:title="obstacle.impl.hh">
<polygon fill="white" stroke="black" points="640,-224.5 640,-243.5 728,-243.5 728,-224.5 640,-224.5"/>
<text text-anchor="middle" x="684" y="-231.5" font-family="Helvetica,sans-Serif" font-size="10.00">obstacle.impl.hh</text>
</a>
</g>
</g>
<!-- Node1&#45;&gt;Node19 -->
<g id="edge43" class="edge"><title>Node1&#45;&gt;Node19</title>
<path fill="none" stroke="midnightblue" d="M488.288,-344.882C529.211,-343.13 599,-334.744 646,-300 665.551,-285.547 676.752,-257.783 681.416,-243.68"/>
<polygon fill="midnightblue" stroke="midnightblue" points="488.175,-341.384 478.292,-345.202 488.399,-348.38 488.175,-341.384"/>
</g>
<!-- Node3 -->
<g id="node3" class="node"><title>Node3</title>
<g id="a_node3"><a xlink:href="a00067.html" target="_top" xlink:title="basic&#45;server.hh">
<polygon fill="white" stroke="black" points="433.5,-168.5 433.5,-187.5 516.5,-187.5 516.5,-168.5 433.5,-168.5"/>
<text text-anchor="middle" x="475" y="-175.5" font-family="Helvetica,sans-Serif" font-size="10.00">basic&#45;server.hh</text>
</a>
</g>
</g>
<!-- Node2&#45;&gt;Node3 -->
<g id="edge2" class="edge"><title>Node2&#45;&gt;Node3</title>
<path fill="none" stroke="midnightblue" d="M406.55,-219.177C423.479,-209.241 445.783,-196.149 460.255,-187.655"/>
<polygon fill="midnightblue" stroke="midnightblue" points="404.634,-216.243 397.781,-224.324 408.177,-222.28 404.634,-216.243"/>
</g>
<!-- Node4 -->
<g id="node4" class="node"><title>Node4</title>
<g id="a_node4"><a xlink:href="a00068.html" target="_top" xlink:title="basic&#45;server.hh">
<polygon fill="white" stroke="black" points="537.5,-168.5 537.5,-187.5 620.5,-187.5 620.5,-168.5 537.5,-168.5"/>
<text text-anchor="middle" x="579" y="-175.5" font-family="Helvetica,sans-Serif" font-size="10.00">basic&#45;server.hh</text>
</a>
</g>
</g>
<!-- Node2&#45;&gt;Node4 -->
<g id="edge3" class="edge"><title>Node2&#45;&gt;Node4</title>
<path fill="none" stroke="midnightblue" d="M424.02,-221.699C461.011,-211.507 514.6,-196.743 548.089,-187.516"/>
<polygon fill="midnightblue" stroke="midnightblue" points="422.768,-218.413 414.057,-224.444 424.627,-225.162 422.768,-218.413"/>
</g>
<!-- Node5&#45;&gt;Node2 -->
<g id="edge5" class="edge"><title>Node5&#45;&gt;Node2</title>
<path fill="none" stroke="midnightblue" d="M373.823,-270.396C376.165,-261.362 378.868,-250.936 380.731,-243.751"/>
<polygon fill="midnightblue" stroke="midnightblue" points="370.434,-269.525 371.312,-280.083 377.21,-271.281 370.434,-269.525"/>
</g>
<!-- Node5&#45;&gt;Node6 -->
<g id="edge6" class="edge"><title>Node5&#45;&gt;Node6</title>
<path fill="none" stroke="midnightblue" d="M348.424,-274.38C334.688,-264.62 317.075,-252.106 305.433,-243.834"/>
<polygon fill="midnightblue" stroke="midnightblue" points="346.61,-277.385 356.789,-280.324 350.665,-271.679 346.61,-277.385"/>
</g>
<!-- Node5&#45;&gt;Node15 -->
<g id="edge20" class="edge"><title>Node5&#45;&gt;Node15</title>
<path fill="none" stroke="midnightblue" d="M396.9,-276.232C418.973,-266.131 449.176,-252.309 468.39,-243.516"/>
<polygon fill="midnightblue" stroke="midnightblue" points="395.334,-273.1 387.697,-280.444 398.247,-279.465 395.334,-273.1"/>
</g>
<!-- Node7 -->
<g id="node7" class="node"><title>Node7</title>
<g id="a_node7"><a xlink:href="a00096.html" target="_top" xlink:title="servant&#45;base.hh">
<polygon fill="white" stroke="black" points="329,-168.5 329,-187.5 415,-187.5 415,-168.5 329,-168.5"/>
<text text-anchor="middle" x="372" y="-175.5" font-family="Helvetica,sans-Serif" font-size="10.00">servant&#45;base.hh</text>
</a>
</g>
</g>
<!-- Node6&#45;&gt;Node7 -->
<g id="edge7" class="edge"><title>Node6&#45;&gt;Node7</title>
<path fill="none" stroke="midnightblue" d="M314.034,-218.622C328.466,-208.757 347.141,-195.992 359.339,-187.655"/>
<polygon fill="midnightblue" stroke="midnightblue" points="311.973,-215.791 305.693,-224.324 315.923,-221.57 311.973,-215.791"/>
</g>
<!-- Node6&#45;&gt;Node14 -->
<g id="edge19" class="edge"><title>Node6&#45;&gt;Node14</title>
<path fill="none" stroke="midnightblue" d="M285.201,-214.69C281.325,-205.589 276.821,-195.014 273.727,-187.751"/>
<polygon fill="midnightblue" stroke="midnightblue" points="282.063,-216.254 289.202,-224.083 288.503,-213.511 282.063,-216.254"/>
</g>
<!-- Node7&#45;&gt;Node8 -->
<g id="edge8" class="edge"><title>Node7&#45;&gt;Node8</title>
<path fill="none" stroke="midnightblue" d="M346.917,-163.59C328.243,-153.605 303.296,-140.267 287.187,-131.655"/>
<polygon fill="midnightblue" stroke="midnightblue" points="345.304,-166.696 355.773,-168.324 348.604,-160.522 345.304,-166.696"/>
</g>
<!-- Node7&#45;&gt;Node9 -->
<g id="edge9" class="edge"><title>Node7&#45;&gt;Node9</title>
<path fill="none" stroke="midnightblue" d="M318.787,-167.67C256.243,-156.705 154.152,-138.806 100.143,-129.337"/>
<polygon fill="midnightblue" stroke="midnightblue" points="318.395,-171.155 328.85,-169.435 319.604,-164.26 318.395,-171.155"/>
</g>
<!-- Node7&#45;&gt;Node10 -->
<g id="edge17" class="edge"><title>Node7&#45;&gt;Node10</title>
<path fill="none" stroke="midnightblue" d="M359.145,-159.983C348.763,-146.556 333.538,-127.56 319,-112 285.174,-75.7972 240.967,-36.7756 221.257,-19.7622"/>
<polygon fill="midnightblue" stroke="midnightblue" points="356.635,-162.463 365.491,-168.279 362.195,-158.21 356.635,-162.463"/>
</g>
<!-- Node7&#45;&gt;Node11 -->
<g id="edge11" class="edge"><title>Node7&#45;&gt;Node11</title>
<path fill="none" stroke="midnightblue" d="M412.821,-164.951C431.262,-157.821 452.185,-147.155 467,-132 482.894,-115.741 490.922,-89.2753 494.18,-75.6743"/>
<polygon fill="midnightblue" stroke="midnightblue" points="411.372,-161.754 403.169,-168.459 413.763,-168.333 411.372,-161.754"/>
</g>
<!-- Node7&#45;&gt;Node12 -->
<g id="edge13" class="edge"><title>Node7&#45;&gt;Node12</title>
<path fill="none" stroke="midnightblue" d="M388.895,-161.537C399.415,-151.909 412.569,-139.869 421.348,-131.834"/>
<polygon fill="midnightblue" stroke="midnightblue" points="386.493,-158.99 381.479,-168.324 391.219,-164.154 386.493,-158.99"/>
</g>
<!-- Node7&#45;&gt;Node13 -->
<g id="edge18" class="edge"><title>Node7&#45;&gt;Node13</title>
<path fill="none" stroke="midnightblue" d="M372.678,-158.348C373.554,-134.254 375.043,-93.3079 375.688,-75.5914"/>
<polygon fill="midnightblue" stroke="midnightblue" points="369.18,-158.248 372.314,-168.368 376.175,-158.502 369.18,-158.248"/>
</g>
<!-- Node9&#45;&gt;Node10 -->
<g id="edge10" class="edge"><title>Node9&#45;&gt;Node10</title>
<path fill="none" stroke="midnightblue" d="M74.1309,-103.515C83.1193,-89.2303 97.3795,-69.2962 114,-56 135.02,-39.1845 163.347,-26.9811 183.961,-19.5598"/>
<polygon fill="midnightblue" stroke="midnightblue" points="70.9672,-101.983 68.7862,-112.351 76.9567,-105.606 70.9672,-101.983"/>
</g>
<!-- Node11&#45;&gt;Node10 -->
<g id="edge12" class="edge"><title>Node11&#45;&gt;Node10</title>
<path fill="none" stroke="midnightblue" d="M441.012,-54.5813C382.435,-43.4825 291.664,-26.2838 243.537,-17.1649"/>
<polygon fill="midnightblue" stroke="midnightblue" points="440.364,-58.0207 450.841,-56.4435 441.667,-51.143 440.364,-58.0207"/>
</g>
<!-- Node12&#45;&gt;Node11 -->
<g id="edge14" class="edge"><title>Node12&#45;&gt;Node11</title>
<path fill="none" stroke="midnightblue" d="M449.273,-105.82C460.918,-96.1452 475.599,-83.9481 485.367,-75.8339"/>
<polygon fill="midnightblue" stroke="midnightblue" points="446.899,-103.242 441.443,-112.324 451.372,-108.626 446.899,-103.242"/>
</g>
<!-- Node12&#45;&gt;Node13 -->
<g id="edge15" class="edge"><title>Node12&#45;&gt;Node13</title>
<path fill="none" stroke="midnightblue" d="M414.706,-105.002C404.959,-95.4329 392.947,-83.6389 384.913,-75.7511"/>
<polygon fill="midnightblue" stroke="midnightblue" points="412.33,-107.575 421.918,-112.083 417.234,-102.58 412.33,-107.575"/>
</g>
<!-- Node13&#45;&gt;Node10 -->
<g id="edge16" class="edge"><title>Node13&#45;&gt;Node10</title>
<path fill="none" stroke="midnightblue" d="M340.264,-53.3044C309.173,-43.1294 264.853,-28.6246 237.022,-19.5164"/>
<polygon fill="midnightblue" stroke="midnightblue" points="339.263,-56.6595 349.855,-56.4435 341.44,-50.0067 339.263,-56.6595"/>
</g>
<!-- Node15&#45;&gt;Node4 -->
<g id="edge21" class="edge"><title>Node15&#45;&gt;Node4</title>
<path fill="none" stroke="midnightblue" d="M510.55,-219.177C527.479,-209.241 549.783,-196.149 564.255,-187.655"/>
<polygon fill="midnightblue" stroke="midnightblue" points="508.634,-216.243 501.781,-224.324 512.177,-222.28 508.634,-216.243"/>
</g>
<!-- Node16&#45;&gt;Node8 -->
<g id="edge24" class="edge"><title>Node16&#45;&gt;Node8</title>
<path fill="none" stroke="midnightblue" d="M162.702,-164.772C189,-154.629 225.716,-140.467 248.92,-131.516"/>
<polygon fill="midnightblue" stroke="midnightblue" points="161.254,-161.579 153.183,-168.444 163.773,-168.11 161.254,-161.579"/>
</g>
<!-- Node16&#45;&gt;Node9 -->
<g id="edge25" class="edge"><title>Node16&#45;&gt;Node9</title>
<path fill="none" stroke="midnightblue" d="M112.165,-161.82C100.162,-152.145 85.0283,-139.948 74.9606,-131.834"/>
<polygon fill="midnightblue" stroke="midnightblue" points="110.253,-164.774 120.235,-168.324 114.646,-159.324 110.253,-164.774"/>
</g>
<!-- Node16&#45;&gt;Node10 -->
<g id="edge28" class="edge"><title>Node16&#45;&gt;Node10</title>
<path fill="none" stroke="midnightblue" d="M139.593,-158.899C145.797,-145.851 154.388,-127.824 162,-112 178.474,-77.7521 198.282,-37.077 206.786,-19.6373"/>
<polygon fill="midnightblue" stroke="midnightblue" points="136.323,-157.625 135.193,-168.16 142.646,-160.629 136.323,-157.625"/>
</g>
<!-- Node16&#45;&gt;Node11 -->
<g id="edge26" class="edge"><title>Node16&#45;&gt;Node11</title>
<path fill="none" stroke="midnightblue" d="M149.816,-162.173C171.937,-145.022 207.586,-118.322 223,-112 233.263,-107.79 370.897,-86.2198 446.715,-74.5388"/>
<polygon fill="midnightblue" stroke="midnightblue" points="147.53,-159.517 141.8,-168.429 151.837,-165.035 147.53,-159.517"/>
</g>
<!-- Node16&#45;&gt;Node12 -->
<g id="edge27" class="edge"><title>Node16&#45;&gt;Node12</title>
<path fill="none" stroke="midnightblue" d="M182.63,-167.707C246.811,-156.154 353.97,-136.865 403.881,-127.881"/>
<polygon fill="midnightblue" stroke="midnightblue" points="181.935,-164.275 172.714,-169.492 183.176,-171.165 181.935,-164.275"/>
</g>
<!-- Node16&#45;&gt;Node13 -->
<g id="edge29" class="edge"><title>Node16&#45;&gt;Node13</title>
<path fill="none" stroke="midnightblue" d="M142.016,-159.979C152.558,-145.075 169.812,-123.98 190,-112 230.857,-87.7549 284.106,-76.5549 323.155,-71.3913"/>
<polygon fill="midnightblue" stroke="midnightblue" points="139.073,-158.083 136.353,-168.323 144.865,-162.014 139.073,-158.083"/>
</g>
<!-- Node17&#45;&gt;Node18 -->
<g id="edge37" class="edge"><title>Node17&#45;&gt;Node18</title>
<path fill="none" stroke="midnightblue" d="M593.45,-270.101C591.292,-261.136 588.818,-250.858 587.107,-243.751"/>
<polygon fill="midnightblue" stroke="midnightblue" points="590.11,-271.18 595.853,-280.083 596.915,-269.542 590.11,-271.18"/>
</g>
<!-- Node17&#45;&gt;Node19 -->
<g id="edge39" class="edge"><title>Node17&#45;&gt;Node19</title>
<path fill="none" stroke="midnightblue" d="M620.455,-274.901C636.224,-264.999 656.814,-252.071 670.217,-243.655"/>
<polygon fill="midnightblue" stroke="midnightblue" points="618.425,-272.042 611.817,-280.324 622.148,-277.97 618.425,-272.042"/>
</g>
<!-- Node18&#45;&gt;Node4 -->
<g id="edge38" class="edge"><title>Node18&#45;&gt;Node4</title>
<path fill="none" stroke="midnightblue" d="M582.9,-214.101C581.904,-205.136 580.762,-194.858 579.972,-187.751"/>
<polygon fill="midnightblue" stroke="midnightblue" points="579.426,-214.531 584.009,-224.083 586.383,-213.758 579.426,-214.531"/>
</g>
<!-- Node19&#45;&gt;Node4 -->
<g id="edge40" class="edge"><title>Node19&#45;&gt;Node4</title>
<path fill="none" stroke="midnightblue" d="M658.19,-219.726C638.747,-209.727 612.652,-196.307 595.828,-187.655"/>
<polygon fill="midnightblue" stroke="midnightblue" points="656.636,-222.863 667.13,-224.324 659.838,-216.638 656.636,-222.863"/>
</g>
</g>
</svg>
