<?xml version="1.0" encoding="UTF-8" standalone="no"?>
<!DOCTYPE svg PUBLIC "-//W3C//DTD SVG 1.1//EN"
 "http://www.w3.org/Graphics/SVG/1.1/DTD/svg11.dtd">
<!-- Generated by graphviz version 2.38.0 (20140413.2041)
 -->
<!-- Title: server&#45;plugin.hh Pages: 1 -->
<svg width="192pt" height="84pt"
 viewBox="0.00 0.00 192.00 84.00" xmlns="http://www.w3.org/2000/svg" xmlns:xlink="http://www.w3.org/1999/xlink">
<g id="graph0" class="graph" transform="scale(1 1) rotate(0) translate(4 80)">
<title>server&#45;plugin.hh</title>
<polygon fill="white" stroke="none" points="-4,4 -4,-80 188,-80 188,4 -4,4"/>
<!-- Node1 -->
<g id="node1" class="node"><title>Node1</title>
<polygon fill="#bfbfbf" stroke="black" points="48.5,-56.5 48.5,-75.5 134.5,-75.5 134.5,-56.5 48.5,-56.5"/>
<text text-anchor="middle" x="91.5" y="-63.5" font-family="Helvetica,sans-Serif" font-size="10.00">server&#45;plugin.hh</text>
</g>
<!-- Node2 -->
<g id="node2" class="node"><title>Node2</title>
<g id="a_node2"><a xlink:href="a00067.html" target="_top" xlink:title="basic&#45;server.hh">
<polygon fill="white" stroke="black" points="0,-0.5 0,-19.5 83,-19.5 83,-0.5 0,-0.5"/>
<text text-anchor="middle" x="41.5" y="-7.5" font-family="Helvetica,sans-Serif" font-size="10.00">basic&#45;server.hh</text>
</a>
</g>
</g>
<!-- Node1&#45;&gt;Node2 -->
<g id="edge1" class="edge"><title>Node1&#45;&gt;Node2</title>
<path fill="none" stroke="midnightblue" d="M76.4237,-48.7175C67.6109,-39.1997 56.8341,-27.5608 49.6028,-19.7511"/>
<polygon fill="midnightblue" stroke="midnightblue" points="73.8812,-51.1233 83.2435,-56.083 79.0176,-46.3674 73.8812,-51.1233"/>
</g>
<!-- Node3 -->
<g id="node3" class="node"><title>Node3</title>
<g id="a_node3"><a xlink:href="a00068.html" target="_top" xlink:title="basic&#45;server.hh">
<polygon fill="white" stroke="black" points="101,-0.5 101,-19.5 184,-19.5 184,-0.5 101,-0.5"/>
<text text-anchor="middle" x="142.5" y="-7.5" font-family="Helvetica,sans-Serif" font-size="10.00">basic&#45;server.hh</text>
</a>
</g>
</g>
<!-- Node1&#45;&gt;Node3 -->
<g id="edge2" class="edge"><title>Node1&#45;&gt;Node3</title>
<path fill="none" stroke="midnightblue" d="M106.878,-48.7175C115.867,-39.1997 126.859,-27.5608 134.235,-19.7511"/>
<polygon fill="midnightblue" stroke="midnightblue" points="104.243,-46.4096 99.9216,-56.083 109.332,-51.216 104.243,-46.4096"/>
</g>
</g>
</svg>
