<?xml version="1.0" encoding="UTF-8" standalone="no"?>
<!DOCTYPE svg PUBLIC "-//W3C//DTD SVG 1.1//EN"
 "http://www.w3.org/Graphics/SVG/1.1/DTD/svg11.dtd">
<!-- Generated by graphviz version 2.38.0 (20140413.2041)
 -->
<!-- Title: obstacle.impl.hh Pages: 1 -->
<svg width="863pt" height="218pt"
 viewBox="0.00 0.00 863.00 218.00" xmlns="http://www.w3.org/2000/svg" xmlns:xlink="http://www.w3.org/1999/xlink">
<g id="graph0" class="graph" transform="scale(1 1) rotate(0) translate(4 214)">
<title>obstacle.impl.hh</title>
<polygon fill="white" stroke="none" points="-4,4 -4,-214 859,-214 859,4 -4,4"/>
<!-- Node1 -->
<g id="node1" class="node"><title>Node1</title>
<polygon fill="#bfbfbf" stroke="black" points="207.5,-190.5 207.5,-209.5 295.5,-209.5 295.5,-190.5 207.5,-190.5"/>
<text text-anchor="middle" x="251.5" y="-197.5" font-family="Helvetica,sans-Serif" font-size="10.00">obstacle.impl.hh</text>
</g>
<!-- Node2 -->
<g id="node2" class="node"><title>Node2</title>
<polygon fill="white" stroke="#bfbfbf" points="0,-129 0,-148 35,-148 35,-129 0,-129"/>
<text text-anchor="middle" x="17.5" y="-136" font-family="Helvetica,sans-Serif" font-size="10.00">map</text>
</g>
<!-- Node1&#45;&gt;Node2 -->
<g id="edge1" class="edge"><title>Node1&#45;&gt;Node2</title>
<path fill="none" stroke="midnightblue" d="M207.404,-193.328C164.546,-186.923 98.115,-174.613 43.5,-154 42.4604,-153.608 41.412,-153.179 40.3636,-152.723"/>
<polygon fill="midnightblue" stroke="midnightblue" points="41.6757,-149.465 31.1674,-148.114 38.5394,-155.723 41.6757,-149.465"/>
</g>
<!-- Node3 -->
<g id="node3" class="node"><title>Node3</title>
<polygon fill="white" stroke="#bfbfbf" points="53,-129 53,-148 94,-148 94,-129 53,-129"/>
<text text-anchor="middle" x="73.5" y="-136" font-family="Helvetica,sans-Serif" font-size="10.00">string</text>
</g>
<!-- Node1&#45;&gt;Node3 -->
<g id="edge2" class="edge"><title>Node1&#45;&gt;Node3</title>
<path fill="none" stroke="midnightblue" d="M218.082,-190.433C187.753,-182.285 142.019,-169.06 103.5,-154 102.119,-153.46 100.715,-152.883 99.3043,-152.282"/>
<polygon fill="midnightblue" stroke="midnightblue" points="100.666,-149.056 90.115,-148.096 97.7645,-155.427 100.666,-149.056"/>
</g>
<!-- Node4 -->
<g id="node4" class="node"><title>Node4</title>
<polygon fill="white" stroke="#bfbfbf" points="112,-129 112,-148 223,-148 223,-129 112,-129"/>
<text text-anchor="middle" x="167.5" y="-136" font-family="Helvetica,sans-Serif" font-size="10.00">hpp/fcl/math/vec_3f.h</text>
</g>
<!-- Node1&#45;&gt;Node4 -->
<g id="edge3" class="edge"><title>Node1&#45;&gt;Node4</title>
<path fill="none" stroke="midnightblue" d="M239.465,-190.475C225.992,-180.931 203.934,-165.307 187.785,-153.868"/>
<polygon fill="midnightblue" stroke="midnightblue" points="189.696,-150.933 179.513,-148.009 185.65,-156.645 189.696,-150.933"/>
</g>
<!-- Node5 -->
<g id="node5" class="node"><title>Node5</title>
<g id="a_node5"><a doxygen="/local/devel/hpp/install/share/doc/hpp-core/doxygen-html/hpp-core.doxytag:../../hpp-core/doxygen-html/" xlink:href="../../hpp-core/doxygen-html/a00179.html" target="_top" xlink:title="hpp/core/problem&#45;solver.hh">
<polygon fill="white" stroke="black" points="279.5,-129 279.5,-148 413.5,-148 413.5,-129 279.5,-129"/>
<text text-anchor="middle" x="346.5" y="-136" font-family="Helvetica,sans-Serif" font-size="10.00">hpp/core/problem&#45;solver.hh</text>
</a>
</g>
</g>
<!-- Node1&#45;&gt;Node5 -->
<g id="edge4" class="edge"><title>Node1&#45;&gt;Node5</title>
<path fill="none" stroke="midnightblue" d="M265.111,-190.475C280.561,-180.799 305.99,-164.872 324.316,-153.394"/>
<polygon fill="midnightblue" stroke="midnightblue" points="326.297,-156.283 332.914,-148.009 322.581,-150.351 326.297,-156.283"/>
</g>
<!-- Node6 -->
<g id="node6" class="node"><title>Node6</title>
<g id="a_node6"><a xlink:href="a00001.html" target="_top" xlink:title="hpp/core/fwd.hh">
<polygon fill="white" stroke="black" points="194.5,-62 194.5,-81 280.5,-81 280.5,-62 194.5,-62"/>
<text text-anchor="middle" x="237.5" y="-69" font-family="Helvetica,sans-Serif" font-size="10.00">hpp/core/fwd.hh</text>
</a>
</g>
</g>
<!-- Node1&#45;&gt;Node6 -->
<g id="edge10" class="edge"><title>Node1&#45;&gt;Node6</title>
<path fill="none" stroke="midnightblue" d="M250.538,-190.305C248.29,-169.994 242.652,-119.053 239.578,-91.2768"/>
<polygon fill="midnightblue" stroke="midnightblue" points="243.048,-90.81 238.469,-81.2557 236.09,-91.58 243.048,-90.81"/>
</g>
<!-- Node10 -->
<g id="node10" class="node"><title>Node10</title>
<polygon fill="white" stroke="#bfbfbf" points="593.5,-123.5 593.5,-153.5 719.5,-153.5 719.5,-123.5 593.5,-123.5"/>
<text text-anchor="start" x="601.5" y="-141.5" font-family="Helvetica,sans-Serif" font-size="10.00">hpp/corbaserver/obstacle</text>
<text text-anchor="middle" x="656.5" y="-130.5" font-family="Helvetica,sans-Serif" font-size="10.00">&#45;idl.hh</text>
</g>
<!-- Node1&#45;&gt;Node10 -->
<g id="edge11" class="edge"><title>Node1&#45;&gt;Node10</title>
<path fill="none" stroke="midnightblue" d="M295.539,-193.965C357.534,-186.676 474.279,-172.213 583.463,-154.111"/>
<polygon fill="midnightblue" stroke="midnightblue" points="584.041,-157.563 593.327,-152.462 582.886,-150.659 584.041,-157.563"/>
</g>
<!-- Node11 -->
<g id="node11" class="node"><title>Node11</title>
<g id="a_node11"><a xlink:href="a00080.html" target="_top" xlink:title="hpp/corbaserver/object\l&#45;map.hh">
<polygon fill="white" stroke="black" points="459.5,-123.5 459.5,-153.5 575.5,-153.5 575.5,-123.5 459.5,-123.5"/>
<text text-anchor="start" x="467.5" y="-141.5" font-family="Helvetica,sans-Serif" font-size="10.00">hpp/corbaserver/object</text>
<text text-anchor="middle" x="517.5" y="-130.5" font-family="Helvetica,sans-Serif" font-size="10.00">&#45;map.hh</text>
</a>
</g>
</g>
<!-- Node1&#45;&gt;Node11 -->
<g id="edge12" class="edge"><title>Node1&#45;&gt;Node11</title>
<path fill="none" stroke="midnightblue" d="M289.611,-190.475C331.226,-181.166 398.703,-166.073 449.455,-154.721"/>
<polygon fill="midnightblue" stroke="midnightblue" points="450.374,-158.102 459.369,-152.503 448.846,-151.27 450.374,-158.102"/>
</g>
<!-- Node5&#45;&gt;Node6 -->
<g id="edge5" class="edge"><title>Node5&#45;&gt;Node6</title>
<path fill="none" stroke="midnightblue" d="M331.8,-128.734C313.577,-117.867 282.301,-99.2161 260.798,-86.3931"/>
<polygon fill="midnightblue" stroke="midnightblue" points="262.349,-83.243 251.967,-81.1273 258.764,-89.2552 262.349,-83.243"/>
</g>
<!-- Node8 -->
<g id="node8" class="node"><title>Node8</title>
<g id="a_node8"><a doxygen="/local/devel/hpp/install/share/doc/hpp-core/doxygen-html/hpp-core.doxytag:../../hpp-core/doxygen-html/" xlink:href="../../hpp-core/doxygen-html/a00001.html" target="_top" xlink:title="hpp/core/fwd.hh">
<polygon fill="white" stroke="black" points="265.5,-0.5 265.5,-19.5 351.5,-19.5 351.5,-0.5 265.5,-0.5"/>
<text text-anchor="middle" x="308.5" y="-7.5" font-family="Helvetica,sans-Serif" font-size="10.00">hpp/core/fwd.hh</text>
</a>
</g>
</g>
<!-- Node5&#45;&gt;Node8 -->
<g id="edge8" class="edge"><title>Node5&#45;&gt;Node8</title>
<path fill="none" stroke="midnightblue" d="M342.823,-128.668C338.745,-118.671 332.131,-101.844 327.5,-87 321.437,-67.5676 315.969,-44.8792 312.473,-29.3846"/>
<polygon fill="midnightblue" stroke="midnightblue" points="315.869,-28.5328 310.295,-19.5229 309.034,-30.0424 315.869,-28.5328"/>
</g>
<!-- Node9 -->
<g id="node9" class="node"><title>Node9</title>
<g id="a_node9"><a doxygen="/local/devel/hpp/install/share/doc/hpp-core/doxygen-html/hpp-core.doxytag:../../hpp-core/doxygen-html/" xlink:href="../../hpp-core/doxygen-html/a00125.html" target="_top" xlink:title="hpp/core/container.hh">
<polygon fill="white" stroke="black" points="336.5,-62 336.5,-81 446.5,-81 446.5,-62 336.5,-62"/>
<text text-anchor="middle" x="391.5" y="-69" font-family="Helvetica,sans-Serif" font-size="10.00">hpp/core/container.hh</text>
</a>
</g>
</g>
<!-- Node5&#45;&gt;Node9 -->
<g id="edge9" class="edge"><title>Node5&#45;&gt;Node9</title>
<path fill="none" stroke="midnightblue" d="M352.569,-128.734C359.519,-118.695 371.067,-102.014 379.785,-89.4213"/>
<polygon fill="midnightblue" stroke="midnightblue" points="382.713,-91.3415 385.527,-81.1273 376.957,-87.357 382.713,-91.3415"/>
</g>
<!-- Node7 -->
<g id="node7" class="node"><title>Node7</title>
<polygon fill="white" stroke="#bfbfbf" points="135.5,-0.5 135.5,-19.5 247.5,-19.5 247.5,-0.5 135.5,-0.5"/>
<text text-anchor="middle" x="191.5" y="-7.5" font-family="Helvetica,sans-Serif" font-size="10.00">omniORB4/CORBA.h</text>
</g>
<!-- Node6&#45;&gt;Node7 -->
<g id="edge6" class="edge"><title>Node6&#45;&gt;Node7</title>
<path fill="none" stroke="midnightblue" d="M230.909,-61.9751C224.009,-53.0501 212.998,-38.8071 204.366,-27.6425"/>
<polygon fill="midnightblue" stroke="midnightblue" points="206.964,-25.2798 198.078,-19.5091 201.426,-29.5612 206.964,-25.2798"/>
</g>
<!-- Node6&#45;&gt;Node8 -->
<g id="edge7" class="edge"><title>Node6&#45;&gt;Node8</title>
<path fill="none" stroke="midnightblue" d="M247.673,-61.9751C258.85,-52.6082 277.017,-37.3839 290.591,-26.0081"/>
<polygon fill="midnightblue" stroke="midnightblue" points="292.93,-28.6148 298.346,-19.5091 288.434,-23.2496 292.93,-28.6148"/>
</g>
<!-- Node11&#45;&gt;Node6 -->
<g id="edge15" class="edge"><title>Node11&#45;&gt;Node6</title>
<path fill="none" stroke="midnightblue" d="M459.484,-124.032C407.591,-111.986 332.496,-94.5527 284.336,-83.3725"/>
<polygon fill="midnightblue" stroke="midnightblue" points="285.018,-79.9379 274.485,-81.0859 283.435,-86.7566 285.018,-79.9379"/>
</g>
<!-- Node12 -->
<g id="node12" class="node"><title>Node12</title>
<polygon fill="white" stroke="#bfbfbf" points="464.5,-62 464.5,-81 598.5,-81 598.5,-62 464.5,-62"/>
<text text-anchor="middle" x="531.5" y="-69" font-family="Helvetica,sans-Serif" font-size="10.00">hpp/fcl/BVH/BVH_model.h</text>
</g>
<!-- Node11&#45;&gt;Node12 -->
<g id="edge13" class="edge"><title>Node11&#45;&gt;Node12</title>
<path fill="none" stroke="midnightblue" d="M520.538,-123.396C522.569,-113.963 525.265,-101.448 527.475,-91.1891"/>
<polygon fill="midnightblue" stroke="midnightblue" points="530.943,-91.7073 529.627,-81.1945 524.1,-90.2334 530.943,-91.7073"/>
</g>
<!-- Node13 -->
<g id="node13" class="node"><title>Node13</title>
<polygon fill="white" stroke="#bfbfbf" points="617,-56.5 617,-86.5 738,-86.5 738,-56.5 617,-56.5"/>
<text text-anchor="start" x="625" y="-74.5" font-family="Helvetica,sans-Serif" font-size="10.00">hpp/fcl/shape/geometric</text>
<text text-anchor="middle" x="677.5" y="-63.5" font-family="Helvetica,sans-Serif" font-size="10.00">_shapes.h</text>
</g>
<!-- Node11&#45;&gt;Node13 -->
<g id="edge14" class="edge"><title>Node11&#45;&gt;Node13</title>
<path fill="none" stroke="midnightblue" d="M552.218,-123.396C576.015,-113.728 607.783,-100.823 633.374,-90.4262"/>
<polygon fill="midnightblue" stroke="midnightblue" points="634.903,-93.583 642.85,-86.5765 632.268,-87.0977 634.903,-93.583"/>
</g>
<!-- Node14 -->
<g id="node14" class="node"><title>Node14</title>
<polygon fill="white" stroke="#bfbfbf" points="756,-62 756,-81 855,-81 855,-62 756,-62"/>
<text text-anchor="middle" x="805.5" y="-69" font-family="Helvetica,sans-Serif" font-size="10.00">hpp/common&#45;idl.hh</text>
</g>
<!-- Node11&#45;&gt;Node14 -->
<g id="edge16" class="edge"><title>Node11&#45;&gt;Node14</title>
<path fill="none" stroke="midnightblue" d="M575.543,-124.847C638.069,-111.202 730.884,-90.9004 747.5,-87 752.24,-85.8874 757.19,-84.6958 762.114,-83.4914"/>
<polygon fill="midnightblue" stroke="midnightblue" points="763.24,-86.8184 772.109,-81.0225 761.562,-80.0226 763.24,-86.8184"/>
</g>
</g>
</svg>
