<?xml version="1.0" encoding="UTF-8" standalone="no"?>
<!DOCTYPE svg PUBLIC "-//W3C//DTD SVG 1.1//EN"
 "http://www.w3.org/Graphics/SVG/1.1/DTD/svg11.dtd">
<!-- Generated by graphviz version 2.38.0 (20140413.2041)
 -->
<!-- Title: corbaserver.hh Pages: 1 -->
<svg width="547pt" height="263pt"
 viewBox="0.00 0.00 547.00 263.00" xmlns="http://www.w3.org/2000/svg" xmlns:xlink="http://www.w3.org/1999/xlink">
<g id="graph0" class="graph" transform="scale(1 1) rotate(0) translate(4 259)">
<title>corbaserver.hh</title>
<polygon fill="white" stroke="none" points="-4,4 -4,-259 543,-259 543,4 -4,4"/>
<!-- Node1 -->
<g id="node1" class="node"><title>Node1</title>
<polygon fill="#bfbfbf" stroke="black" points="458,-235.5 458,-254.5 539,-254.5 539,-235.5 458,-235.5"/>
<text text-anchor="middle" x="498.5" y="-242.5" font-family="Helvetica,sans-Serif" font-size="10.00">corbaserver.hh</text>
</g>
<!-- Node2 -->
<g id="node2" class="node"><title>Node2</title>
<g id="a_node2"><a xlink:href="a00001.html" target="_top" xlink:title="hpp/corbaserver/fwd.hh">
<polygon fill="white" stroke="black" points="376,-56.5 376,-75.5 495,-75.5 495,-56.5 376,-56.5"/>
<text text-anchor="middle" x="435.5" y="-63.5" font-family="Helvetica,sans-Serif" font-size="10.00">hpp/corbaserver/fwd.hh</text>
</a>
</g>
</g>
<!-- Node1&#45;&gt;Node2 -->
<g id="edge1" class="edge"><title>Node1&#45;&gt;Node2</title>
<path fill="none" stroke="midnightblue" d="M502.401,-235.432C507.582,-222.849 515.429,-198.73 509.5,-179 498.004,-140.748 468.734,-103.515 450.641,-83.0814"/>
<polygon fill="midnightblue" stroke="midnightblue" points="453.189,-80.6817 443.875,-75.6335 448.008,-85.3887 453.189,-80.6817"/>
</g>
<!-- Node5 -->
<g id="node5" class="node"><title>Node5</title>
<g id="a_node5"><a xlink:href="a00098.html" target="_top" xlink:title="hpp/corbaserver/server.hh">
<polygon fill="white" stroke="black" points="370.5,-179.5 370.5,-198.5 500.5,-198.5 500.5,-179.5 370.5,-179.5"/>
<text text-anchor="middle" x="435.5" y="-186.5" font-family="Helvetica,sans-Serif" font-size="10.00">hpp/corbaserver/server.hh</text>
</a>
</g>
</g>
<!-- Node1&#45;&gt;Node5 -->
<g id="edge4" class="edge"><title>Node1&#45;&gt;Node5</title>
<path fill="none" stroke="midnightblue" d="M488.378,-235.324C478.974,-227.263 464.756,-215.077 453.431,-205.369"/>
<polygon fill="midnightblue" stroke="midnightblue" points="455.677,-202.684 445.806,-198.834 451.121,-207.999 455.677,-202.684"/>
</g>
<!-- Node3 -->
<g id="node3" class="node"><title>Node3</title>
<polygon fill="white" stroke="#bfbfbf" points="423.5,-0.5 423.5,-19.5 535.5,-19.5 535.5,-0.5 423.5,-0.5"/>
<text text-anchor="middle" x="479.5" y="-7.5" font-family="Helvetica,sans-Serif" font-size="10.00">omniORB4/CORBA.h</text>
</g>
<!-- Node2&#45;&gt;Node3 -->
<g id="edge2" class="edge"><title>Node2&#45;&gt;Node3</title>
<path fill="none" stroke="midnightblue" d="M442.766,-56.083C449.045,-48.3768 458.288,-37.0333 465.931,-27.6531"/>
<polygon fill="midnightblue" stroke="midnightblue" points="468.766,-29.7143 472.369,-19.7511 463.339,-25.2926 468.766,-29.7143"/>
</g>
<!-- Node4 -->
<g id="node4" class="node"><title>Node4</title>
<g id="a_node4"><a doxygen="/local/devel/hpp/install/share/doc/hpp-core/doxygen-html/hpp-core.doxytag:../../hpp-core/doxygen-html/" xlink:href="../../hpp-core/doxygen-html/a00001.html" target="_top" xlink:title="hpp/core/fwd.hh">
<polygon fill="white" stroke="black" points="239.5,-0.5 239.5,-19.5 325.5,-19.5 325.5,-0.5 239.5,-0.5"/>
<text text-anchor="middle" x="282.5" y="-7.5" font-family="Helvetica,sans-Serif" font-size="10.00">hpp/core/fwd.hh</text>
</a>
</g>
</g>
<!-- Node2&#45;&gt;Node4 -->
<g id="edge3" class="edge"><title>Node2&#45;&gt;Node4</title>
<path fill="none" stroke="midnightblue" d="M411.257,-56.4435C385.629,-47.3986 345.015,-33.064 316.262,-22.9158"/>
<polygon fill="midnightblue" stroke="midnightblue" points="317.225,-19.5442 306.63,-19.5164 314.895,-26.1452 317.225,-19.5442"/>
</g>
<!-- Node5&#45;&gt;Node2 -->
<g id="edge6" class="edge"><title>Node5&#45;&gt;Node2</title>
<path fill="none" stroke="midnightblue" d="M435.5,-179.298C435.5,-159.85 435.5,-112.49 435.5,-85.9036"/>
<polygon fill="midnightblue" stroke="midnightblue" points="439,-85.6231 435.5,-75.6232 432,-85.6232 439,-85.6231"/>
</g>
<!-- Node5&#45;&gt;Node3 -->
<g id="edge5" class="edge"><title>Node5&#45;&gt;Node3</title>
<path fill="none" stroke="midnightblue" d="M443.318,-179.252C458.68,-161.404 492.361,-118.848 504.5,-76 509.221,-59.3379 500.832,-40.9727 492.527,-28.0263"/>
<polygon fill="midnightblue" stroke="midnightblue" points="495.278,-25.8527 486.682,-19.6588 489.539,-29.8612 495.278,-25.8527"/>
</g>
<!-- Node6 -->
<g id="node6" class="node"><title>Node6</title>
<polygon fill="white" stroke="#bfbfbf" points="0,-56.5 0,-75.5 129,-75.5 129,-56.5 0,-56.5"/>
<text text-anchor="middle" x="64.5" y="-63.5" font-family="Helvetica,sans-Serif" font-size="10.00">hpp/corbaserver/config.hh</text>
</g>
<!-- Node5&#45;&gt;Node6 -->
<g id="edge7" class="edge"><title>Node5&#45;&gt;Node6</title>
<path fill="none" stroke="midnightblue" d="M370.362,-182.363C320.212,-176.519 249.837,-165.013 191.5,-143 150.571,-127.556 107.912,-99.0407 83.9253,-81.6704"/>
<polygon fill="midnightblue" stroke="midnightblue" points="85.8178,-78.7175 75.6892,-75.6093 81.6688,-84.3554 85.8178,-78.7175"/>
</g>
<!-- Node7 -->
<g id="node7" class="node"><title>Node7</title>
<g id="a_node7"><a xlink:href="a00088.html" target="_top" xlink:title="hpp/corbaserver/problem\l&#45;solver&#45;map.hh">
<polygon fill="white" stroke="black" points="200.5,-112.5 200.5,-142.5 324.5,-142.5 324.5,-112.5 200.5,-112.5"/>
<text text-anchor="start" x="208.5" y="-130.5" font-family="Helvetica,sans-Serif" font-size="10.00">hpp/corbaserver/problem</text>
<text text-anchor="middle" x="262.5" y="-119.5" font-family="Helvetica,sans-Serif" font-size="10.00">&#45;solver&#45;map.hh</text>
</a>
</g>
</g>
<!-- Node5&#45;&gt;Node7 -->
<g id="edge8" class="edge"><title>Node5&#45;&gt;Node7</title>
<path fill="none" stroke="midnightblue" d="M410.713,-179.475C385.312,-170.739 345.096,-156.907 312.961,-145.855"/>
<polygon fill="midnightblue" stroke="midnightblue" points="313.867,-142.466 303.273,-142.523 311.591,-149.085 313.867,-142.466"/>
</g>
<!-- Node7&#45;&gt;Node2 -->
<g id="edge11" class="edge"><title>Node7&#45;&gt;Node2</title>
<path fill="none" stroke="midnightblue" d="M303.499,-112.399C333.132,-102.207 372.726,-88.5898 400.798,-78.935"/>
<polygon fill="midnightblue" stroke="midnightblue" points="402.261,-82.133 410.58,-75.5709 399.985,-75.5136 402.261,-82.133"/>
</g>
<!-- Node7&#45;&gt;Node4 -->
<g id="edge13" class="edge"><title>Node7&#45;&gt;Node4</title>
<path fill="none" stroke="midnightblue" d="M221.666,-112.419C192.362,-99.9352 160.623,-79.9881 176.5,-56 188.495,-37.8761 209.418,-27.0301 229.523,-20.5491"/>
<polygon fill="midnightblue" stroke="midnightblue" points="230.662,-23.8627 239.284,-17.7054 228.704,-17.1421 230.662,-23.8627"/>
</g>
<!-- Node7&#45;&gt;Node6 -->
<g id="edge12" class="edge"><title>Node7&#45;&gt;Node6</title>
<path fill="none" stroke="midnightblue" d="M215.827,-112.475C181.37,-102.12 135.044,-88.1989 102.762,-78.4979"/>
<polygon fill="midnightblue" stroke="midnightblue" points="103.391,-75.0324 92.8069,-75.5064 101.377,-81.7363 103.391,-75.0324"/>
</g>
<!-- Node8 -->
<g id="node8" class="node"><title>Node8</title>
<polygon fill="white" stroke="#bfbfbf" points="186,-56.5 186,-75.5 221,-75.5 221,-56.5 186,-56.5"/>
<text text-anchor="middle" x="203.5" y="-63.5" font-family="Helvetica,sans-Serif" font-size="10.00">map</text>
</g>
<!-- Node7&#45;&gt;Node8 -->
<g id="edge9" class="edge"><title>Node7&#45;&gt;Node8</title>
<path fill="none" stroke="midnightblue" d="M248.518,-112.399C239.768,-103.575 228.471,-92.1827 219.383,-83.0178"/>
<polygon fill="midnightblue" stroke="midnightblue" points="221.612,-80.2942 212.085,-75.6578 216.641,-85.2231 221.612,-80.2942"/>
</g>
<!-- Node9 -->
<g id="node9" class="node"><title>Node9</title>
<polygon fill="white" stroke="#bfbfbf" points="239,-56.5 239,-75.5 358,-75.5 358,-56.5 239,-56.5"/>
<text text-anchor="middle" x="298.5" y="-63.5" font-family="Helvetica,sans-Serif" font-size="10.00">boost/thread/mutex.hpp</text>
</g>
<!-- Node7&#45;&gt;Node9 -->
<g id="edge10" class="edge"><title>Node7&#45;&gt;Node9</title>
<path fill="none" stroke="midnightblue" d="M271.031,-112.399C276.101,-104.021 282.571,-93.3269 287.958,-84.4229"/>
<polygon fill="midnightblue" stroke="midnightblue" points="291.08,-86.0255 293.262,-75.6578 285.09,-82.4018 291.08,-86.0255"/>
</g>
</g>
</svg>
