<?xml version="1.0" encoding="UTF-8" standalone="no"?>
<!DOCTYPE svg PUBLIC "-//W3C//DTD SVG 1.1//EN"
 "http://www.w3.org/Graphics/SVG/1.1/DTD/svg11.dtd">
<!-- Generated by graphviz version 2.38.0 (20140413.2041)
 -->
<!-- Title: hpp::corbaServer::AbstractServantKey Pages: 1 -->
<svg width="949pt" height="441pt"
 viewBox="0.00 0.00 949.00 440.50" xmlns="http://www.w3.org/2000/svg" xmlns:xlink="http://www.w3.org/1999/xlink">
<g id="graph0" class="graph" transform="scale(1 1) rotate(0) translate(4 436.5)">
<title>hpp::corbaServer::AbstractServantKey</title>
<polygon fill="white" stroke="none" points="-4,4 -4,-436.5 945,-436.5 945,4 -4,4"/>
<!-- Node1 -->
<g id="node1" class="node"><title>Node1</title>
<polygon fill="#bfbfbf" stroke="black" points="0,-188.5 0,-218.5 134,-218.5 134,-188.5 0,-188.5"/>
<text text-anchor="start" x="8" y="-206.5" font-family="Helvetica,sans-Serif" font-size="10.00">hpp::corbaServer::Abstract</text>
<text text-anchor="middle" x="67" y="-195.5" font-family="Helvetica,sans-Serif" font-size="10.00">ServantKey</text>
</g>
<!-- Node2 -->
<g id="node2" class="node"><title>Node2</title>
<g id="a_node2"><a xlink:href="a00007.html" target="_top" xlink:title="hpp::corbaServer::Abstract\lServantBase\&lt; constraints\l::DifferentiableFunction \&gt;">
<polygon fill="white" stroke="black" points="195,-383 195,-424 329,-424 329,-383 195,-383"/>
<text text-anchor="start" x="203" y="-412" font-family="Helvetica,sans-Serif" font-size="10.00">hpp::corbaServer::Abstract</text>
<text text-anchor="start" x="203" y="-401" font-family="Helvetica,sans-Serif" font-size="10.00">ServantBase&lt; constraints</text>
<text text-anchor="middle" x="262" y="-390" font-family="Helvetica,sans-Serif" font-size="10.00">::DifferentiableFunction &gt;</text>
</a>
</g>
</g>
<!-- Node1&#45;&gt;Node2 -->
<g id="edge1" class="edge"><title>Node1&#45;&gt;Node2</title>
<path fill="none" stroke="#8b1a1a" d="M76.789,-228.299C90.9153,-264.729 122.045,-332.59 170,-371.5 177.413,-377.514 186.036,-382.437 194.963,-386.456"/>
<polygon fill="#8b1a1a" stroke="#8b1a1a" points="80.053,-227.035 73.2558,-218.908 73.5013,-229.5 80.053,-227.035"/>
</g>
<!-- Node5 -->
<g id="node5" class="node"><title>Node5</title>
<g id="a_node5"><a xlink:href="a00007.html" target="_top" xlink:title="hpp::corbaServer::Abstract\lServantBase\&lt; constraints\l::Implicit \&gt;">
<polygon fill="white" stroke="black" points="195,-321 195,-362 329,-362 329,-321 195,-321"/>
<text text-anchor="start" x="203" y="-350" font-family="Helvetica,sans-Serif" font-size="10.00">hpp::corbaServer::Abstract</text>
<text text-anchor="start" x="203" y="-339" font-family="Helvetica,sans-Serif" font-size="10.00">ServantBase&lt; constraints</text>
<text text-anchor="middle" x="262" y="-328" font-family="Helvetica,sans-Serif" font-size="10.00">::Implicit &gt;</text>
</a>
</g>
</g>
<!-- Node1&#45;&gt;Node5 -->
<g id="edge4" class="edge"><title>Node1&#45;&gt;Node5</title>
<path fill="none" stroke="#8b1a1a" d="M85.9422,-226.664C104.752,-249.612 136.225,-284.433 170,-306.5 178.361,-311.962 187.701,-316.766 197.126,-320.924"/>
<polygon fill="#8b1a1a" stroke="#8b1a1a" points="88.6021,-224.387 79.6046,-218.793 83.1496,-228.777 88.6021,-224.387"/>
</g>
<!-- Node8 -->
<g id="node8" class="node"><title>Node8</title>
<g id="a_node8"><a xlink:href="a00007.html" target="_top" xlink:title="hpp::corbaServer::Abstract\lServantBase\&lt; core::Distance \&gt;">
<polygon fill="white" stroke="black" points="184.5,-267.5 184.5,-297.5 339.5,-297.5 339.5,-267.5 184.5,-267.5"/>
<text text-anchor="start" x="192.5" y="-285.5" font-family="Helvetica,sans-Serif" font-size="10.00">hpp::corbaServer::Abstract</text>
<text text-anchor="middle" x="262" y="-274.5" font-family="Helvetica,sans-Serif" font-size="10.00">ServantBase&lt; core::Distance &gt;</text>
</a>
</g>
</g>
<!-- Node1&#45;&gt;Node8 -->
<g id="edge7" class="edge"><title>Node1&#45;&gt;Node8</title>
<path fill="none" stroke="#8b1a1a" d="M105.034,-223.292C124.133,-233.077 147.984,-244.652 170,-253.5 182.462,-258.509 196.148,-263.251 209.036,-267.394"/>
<polygon fill="#8b1a1a" stroke="#8b1a1a" points="106.559,-220.141 96.069,-218.653 103.341,-226.357 106.559,-220.141"/>
</g>
<!-- Node12 -->
<g id="node12" class="node"><title>Node12</title>
<g id="a_node12"><a xlink:href="a00007.html" target="_top" xlink:title="hpp::corbaServer::Abstract\lServantBase\&lt; core::Path \&gt;">
<polygon fill="white" stroke="black" points="194,-214.5 194,-244.5 330,-244.5 330,-214.5 194,-214.5"/>
<text text-anchor="start" x="202" y="-232.5" font-family="Helvetica,sans-Serif" font-size="10.00">hpp::corbaServer::Abstract</text>
<text text-anchor="middle" x="262" y="-221.5" font-family="Helvetica,sans-Serif" font-size="10.00">ServantBase&lt; core::Path &gt;</text>
</a>
</g>
</g>
<!-- Node1&#45;&gt;Node12 -->
<g id="edge11" class="edge"><title>Node1&#45;&gt;Node12</title>
<path fill="none" stroke="#8b1a1a" d="M144.251,-213.772C160.672,-215.984 177.913,-218.307 193.953,-220.468"/>
<polygon fill="#8b1a1a" stroke="#8b1a1a" points="144.527,-210.278 134.15,-212.411 143.593,-217.215 144.527,-210.278"/>
</g>
<!-- Node16 -->
<g id="node16" class="node"><title>Node16</title>
<g id="a_node16"><a xlink:href="a00007.html" target="_top" xlink:title="hpp::corbaServer::Abstract\lServantBase\&lt; core::PathValidation \&gt;">
<polygon fill="white" stroke="black" points="172.5,-163.5 172.5,-193.5 351.5,-193.5 351.5,-163.5 172.5,-163.5"/>
<text text-anchor="start" x="180.5" y="-181.5" font-family="Helvetica,sans-Serif" font-size="10.00">hpp::corbaServer::Abstract</text>
<text text-anchor="middle" x="262" y="-170.5" font-family="Helvetica,sans-Serif" font-size="10.00">ServantBase&lt; core::PathValidation &gt;</text>
</a>
</g>
</g>
<!-- Node1&#45;&gt;Node16 -->
<g id="edge15" class="edge"><title>Node1&#45;&gt;Node16</title>
<path fill="none" stroke="#8b1a1a" d="M144.114,-193.641C153.409,-192.437 162.967,-191.199 172.424,-189.974"/>
<polygon fill="#8b1a1a" stroke="#8b1a1a" points="143.617,-190.176 134.15,-194.931 144.516,-197.118 143.617,-190.176"/>
</g>
<!-- Node19 -->
<g id="node19" class="node"><title>Node19</title>
<g id="a_node19"><a xlink:href="a00007.html" target="_top" xlink:title="hpp::corbaServer::Abstract\lServantBase\&lt; core::Problem \&gt;">
<polygon fill="white" stroke="black" points="186,-112.5 186,-142.5 338,-142.5 338,-112.5 186,-112.5"/>
<text text-anchor="start" x="194" y="-130.5" font-family="Helvetica,sans-Serif" font-size="10.00">hpp::corbaServer::Abstract</text>
<text text-anchor="middle" x="262" y="-119.5" font-family="Helvetica,sans-Serif" font-size="10.00">ServantBase&lt; core::Problem &gt;</text>
</a>
</g>
</g>
<!-- Node1&#45;&gt;Node19 -->
<g id="edge18" class="edge"><title>Node1&#45;&gt;Node19</title>
<path fill="none" stroke="#8b1a1a" d="M104.516,-183.638C123.653,-173.735 147.695,-162.075 170,-153.5 180.275,-149.55 191.405,-145.886 202.239,-142.63"/>
<polygon fill="#8b1a1a" stroke="#8b1a1a" points="102.779,-180.596 95.5441,-188.337 106.027,-186.797 102.779,-180.596"/>
</g>
<!-- Node22 -->
<g id="node22" class="node"><title>Node22</title>
<g id="a_node22"><a xlink:href="a00007.html" target="_top" xlink:title="hpp::corbaServer::Abstract\lServantBase\&lt; core::SteeringMethod \&gt;">
<polygon fill="white" stroke="black" points="170,-59.5 170,-89.5 354,-89.5 354,-59.5 170,-59.5"/>
<text text-anchor="start" x="178" y="-77.5" font-family="Helvetica,sans-Serif" font-size="10.00">hpp::corbaServer::Abstract</text>
<text text-anchor="middle" x="262" y="-66.5" font-family="Helvetica,sans-Serif" font-size="10.00">ServantBase&lt; core::SteeringMethod &gt;</text>
</a>
</g>
</g>
<!-- Node1&#45;&gt;Node22 -->
<g id="edge21" class="edge"><title>Node1&#45;&gt;Node22</title>
<path fill="none" stroke="#8b1a1a" d="M85.7318,-180.318C104.376,-157.449 135.723,-123.023 170,-102.5 178.509,-97.4053 188.028,-93.1607 197.617,-89.6475"/>
<polygon fill="#8b1a1a" stroke="#8b1a1a" points="82.9633,-178.176 79.4555,-188.173 88.4321,-182.545 82.9633,-178.176"/>
</g>
<!-- Node25 -->
<g id="node25" class="node"><title>Node25</title>
<g id="a_node25"><a xlink:href="a00007.html" target="_top" xlink:title="Base class for classes which provides bindings for HPP classes. ">
<polygon fill="white" stroke="black" points="195,-3.5 195,-33.5 329,-33.5 329,-3.5 195,-3.5"/>
<text text-anchor="start" x="203" y="-21.5" font-family="Helvetica,sans-Serif" font-size="10.00">hpp::corbaServer::Abstract</text>
<text text-anchor="middle" x="262" y="-10.5" font-family="Helvetica,sans-Serif" font-size="10.00">ServantBase&lt; T &gt;</text>
</a>
</g>
</g>
<!-- Node1&#45;&gt;Node25 -->
<g id="edge24" class="edge"><title>Node1&#45;&gt;Node25</title>
<path fill="none" stroke="#8b1a1a" d="M78.1452,-178.818C93.2785,-144.943 124.898,-84.2921 170,-49.5 178.458,-42.9757 188.374,-37.776 198.491,-33.6465"/>
<polygon fill="#8b1a1a" stroke="#8b1a1a" points="74.7515,-177.847 73.9812,-188.414 81.1729,-180.634 74.7515,-177.847"/>
</g>
<!-- Node3 -->
<g id="node3" class="node"><title>Node3</title>
<g id="a_node3"><a xlink:href="a00051.html" target="_top" xlink:title="hpp::corbaServer::Servant\lBase\&lt; constraints::Differentiable\lFunction, _Storage \&gt;">
<polygon fill="white" stroke="black" points="391.5,-390 391.5,-431 551.5,-431 551.5,-390 391.5,-390"/>
<text text-anchor="start" x="399.5" y="-419" font-family="Helvetica,sans-Serif" font-size="10.00">hpp::corbaServer::Servant</text>
<text text-anchor="start" x="399.5" y="-408" font-family="Helvetica,sans-Serif" font-size="10.00">Base&lt; constraints::Differentiable</text>
<text text-anchor="middle" x="471.5" y="-397" font-family="Helvetica,sans-Serif" font-size="10.00">Function, _Storage &gt;</text>
</a>
</g>
</g>
<!-- Node2&#45;&gt;Node3 -->
<g id="edge2" class="edge"><title>Node2&#45;&gt;Node3</title>
<path fill="none" stroke="midnightblue" d="M339.607,-406.084C356.525,-406.655 374.479,-407.261 391.49,-407.835"/>
<polygon fill="midnightblue" stroke="midnightblue" points="339.337,-402.573 329.225,-405.734 339.101,-409.569 339.337,-402.573"/>
</g>
<!-- Node4 -->
<g id="node4" class="node"><title>Node4</title>
<g id="a_node4"><a xlink:href="a00019.html" target="_top" xlink:title="hpp::corbaServer::constraints\l_idl::DifferentiableFunctionServant\l\&lt; _Base, _Storage \&gt;">
<polygon fill="white" stroke="black" points="589,-391 589,-432 756,-432 756,-391 589,-391"/>
<text text-anchor="start" x="597" y="-420" font-family="Helvetica,sans-Serif" font-size="10.00">hpp::corbaServer::constraints</text>
<text text-anchor="start" x="597" y="-409" font-family="Helvetica,sans-Serif" font-size="10.00">_idl::DifferentiableFunctionServant</text>
<text text-anchor="middle" x="672.5" y="-398" font-family="Helvetica,sans-Serif" font-size="10.00">&lt; _Base, _Storage &gt;</text>
</a>
</g>
</g>
<!-- Node3&#45;&gt;Node4 -->
<g id="edge3" class="edge"><title>Node3&#45;&gt;Node4</title>
<path fill="none" stroke="midnightblue" d="M561.849,-410.949C570.875,-410.994 580.014,-411.04 588.964,-411.085"/>
<polygon fill="midnightblue" stroke="midnightblue" points="561.739,-407.448 551.722,-410.898 561.704,-414.448 561.739,-407.448"/>
</g>
<!-- Node6 -->
<g id="node6" class="node"><title>Node6</title>
<g id="a_node6"><a xlink:href="a00051.html" target="_top" xlink:title="hpp::corbaServer::Servant\lBase\&lt; constraints::Implicit,\l _Storage \&gt;">
<polygon fill="white" stroke="black" points="403,-329 403,-370 540,-370 540,-329 403,-329"/>
<text text-anchor="start" x="411" y="-358" font-family="Helvetica,sans-Serif" font-size="10.00">hpp::corbaServer::Servant</text>
<text text-anchor="start" x="411" y="-347" font-family="Helvetica,sans-Serif" font-size="10.00">Base&lt; constraints::Implicit,</text>
<text text-anchor="middle" x="471.5" y="-336" font-family="Helvetica,sans-Serif" font-size="10.00"> _Storage &gt;</text>
</a>
</g>
</g>
<!-- Node5&#45;&gt;Node6 -->
<g id="edge5" class="edge"><title>Node5&#45;&gt;Node6</title>
<path fill="none" stroke="midnightblue" d="M339.292,-344.441C360.091,-345.243 382.477,-346.106 402.765,-346.889"/>
<polygon fill="midnightblue" stroke="midnightblue" points="339.352,-340.941 329.225,-344.053 339.083,-347.936 339.352,-340.941"/>
</g>
<!-- Node7 -->
<g id="node7" class="node"><title>Node7</title>
<g id="a_node7"><a xlink:href="a00027.html" target="_top" xlink:title="hpp::corbaServer::constraints\l_idl::ImplicitServant\&lt; _Base,\l _Storage \&gt;">
<polygon fill="white" stroke="black" points="600,-331 600,-372 745,-372 745,-331 600,-331"/>
<text text-anchor="start" x="608" y="-360" font-family="Helvetica,sans-Serif" font-size="10.00">hpp::corbaServer::constraints</text>
<text text-anchor="start" x="608" y="-349" font-family="Helvetica,sans-Serif" font-size="10.00">_idl::ImplicitServant&lt; _Base,</text>
<text text-anchor="middle" x="672.5" y="-338" font-family="Helvetica,sans-Serif" font-size="10.00"> _Storage &gt;</text>
</a>
</g>
</g>
<!-- Node6&#45;&gt;Node7 -->
<g id="edge6" class="edge"><title>Node6&#45;&gt;Node7</title>
<path fill="none" stroke="midnightblue" d="M550.226,-350.281C566.607,-350.446 583.817,-350.619 599.958,-350.781"/>
<polygon fill="midnightblue" stroke="midnightblue" points="550.185,-346.781 540.15,-350.18 550.114,-353.78 550.185,-346.781"/>
</g>
<!-- Node9 -->
<g id="node9" class="node"><title>Node9</title>
<g id="a_node9"><a xlink:href="a00051.html" target="_top" xlink:title="hpp::corbaServer::Servant\lBase\&lt; core::Distance, \l_Storage \&gt;">
<polygon fill="white" stroke="black" points="406,-268 406,-309 537,-309 537,-268 406,-268"/>
<text text-anchor="start" x="414" y="-297" font-family="Helvetica,sans-Serif" font-size="10.00">hpp::corbaServer::Servant</text>
<text text-anchor="start" x="414" y="-286" font-family="Helvetica,sans-Serif" font-size="10.00">Base&lt; core::Distance, </text>
<text text-anchor="middle" x="471.5" y="-275" font-family="Helvetica,sans-Serif" font-size="10.00">_Storage &gt;</text>
</a>
</g>
</g>
<!-- Node8&#45;&gt;Node9 -->
<g id="edge8" class="edge"><title>Node8&#45;&gt;Node9</title>
<path fill="none" stroke="midnightblue" d="M349.699,-285.007C368.453,-285.549 387.972,-286.114 405.713,-286.627"/>
<polygon fill="midnightblue" stroke="midnightblue" points="349.773,-281.508 339.676,-284.717 349.57,-288.505 349.773,-281.508"/>
</g>
<!-- Node10 -->
<g id="node10" class="node"><title>Node10</title>
<g id="a_node10"><a xlink:href="a00021.html" target="_top" xlink:title="hpp::corbaServer::core\l_idl::DistanceServant\l\&lt; _Base, _Storage \&gt;">
<polygon fill="white" stroke="black" points="614.5,-271 614.5,-312 730.5,-312 730.5,-271 614.5,-271"/>
<text text-anchor="start" x="622.5" y="-300" font-family="Helvetica,sans-Serif" font-size="10.00">hpp::corbaServer::core</text>
<text text-anchor="start" x="622.5" y="-289" font-family="Helvetica,sans-Serif" font-size="10.00">_idl::DistanceServant</text>
<text text-anchor="middle" x="672.5" y="-278" font-family="Helvetica,sans-Serif" font-size="10.00">&lt; _Base, _Storage &gt;</text>
</a>
</g>
</g>
<!-- Node9&#45;&gt;Node10 -->
<g id="edge9" class="edge"><title>Node9&#45;&gt;Node10</title>
<path fill="none" stroke="midnightblue" d="M547.171,-289.626C569.377,-289.96 593.346,-290.322 614.257,-290.637"/>
<polygon fill="midnightblue" stroke="midnightblue" points="547.161,-286.125 537.11,-289.474 547.056,-293.124 547.161,-286.125"/>
</g>
<!-- Node11 -->
<g id="node11" class="node"><title>Node11</title>
<g id="a_node11"><a xlink:href="a00064.html" target="_top" xlink:title="hpp::corbaServer::core\l_idl::WeighedDistanceServant\l\&lt; _Base, _Storage \&gt;">
<polygon fill="white" stroke="black" points="792,-271 792,-312 941,-312 941,-271 792,-271"/>
<text text-anchor="start" x="800" y="-300" font-family="Helvetica,sans-Serif" font-size="10.00">hpp::corbaServer::core</text>
<text text-anchor="start" x="800" y="-289" font-family="Helvetica,sans-Serif" font-size="10.00">_idl::WeighedDistanceServant</text>
<text text-anchor="middle" x="866.5" y="-278" font-family="Helvetica,sans-Serif" font-size="10.00">&lt; _Base, _Storage &gt;</text>
</a>
</g>
</g>
<!-- Node10&#45;&gt;Node11 -->
<g id="edge10" class="edge"><title>Node10&#45;&gt;Node11</title>
<path fill="none" stroke="midnightblue" d="M740.706,-291.5C757.253,-291.5 775.056,-291.5 791.888,-291.5"/>
<polygon fill="midnightblue" stroke="midnightblue" points="740.587,-288 730.586,-291.5 740.586,-295 740.587,-288"/>
</g>
<!-- Node13 -->
<g id="node13" class="node"><title>Node13</title>
<g id="a_node13"><a xlink:href="a00051.html" target="_top" xlink:title="hpp::corbaServer::Servant\lBase\&lt; core::Path, _Storage \&gt;">
<polygon fill="white" stroke="black" points="398,-216.5 398,-246.5 545,-246.5 545,-216.5 398,-216.5"/>
<text text-anchor="start" x="406" y="-234.5" font-family="Helvetica,sans-Serif" font-size="10.00">hpp::corbaServer::Servant</text>
<text text-anchor="middle" x="471.5" y="-223.5" font-family="Helvetica,sans-Serif" font-size="10.00">Base&lt; core::Path, _Storage &gt;</text>
</a>
</g>
</g>
<!-- Node12&#45;&gt;Node13 -->
<g id="edge12" class="edge"><title>Node12&#45;&gt;Node13</title>
<path fill="none" stroke="midnightblue" d="M340.14,-230.244C359.051,-230.426 379.227,-230.62 397.916,-230.8"/>
<polygon fill="midnightblue" stroke="midnightblue" points="340.116,-226.743 330.083,-230.147 340.049,-233.743 340.116,-226.743"/>
</g>
<!-- Node14 -->
<g id="node14" class="node"><title>Node14</title>
<g id="a_node14"><a xlink:href="a00034.html" target="_top" xlink:title="hpp::corbaServer::core\l_idl::PathServant\&lt; _Base,\l _Storage \&gt;">
<polygon fill="white" stroke="black" points="607,-211 607,-252 738,-252 738,-211 607,-211"/>
<text text-anchor="start" x="615" y="-240" font-family="Helvetica,sans-Serif" font-size="10.00">hpp::corbaServer::core</text>
<text text-anchor="start" x="615" y="-229" font-family="Helvetica,sans-Serif" font-size="10.00">_idl::PathServant&lt; _Base,</text>
<text text-anchor="middle" x="672.5" y="-218" font-family="Helvetica,sans-Serif" font-size="10.00"> _Storage &gt;</text>
</a>
</g>
</g>
<!-- Node13&#45;&gt;Node14 -->
<g id="edge13" class="edge"><title>Node13&#45;&gt;Node14</title>
<path fill="none" stroke="midnightblue" d="M555.247,-231.5C572.493,-231.5 590.431,-231.5 606.907,-231.5"/>
<polygon fill="midnightblue" stroke="midnightblue" points="555.188,-228 545.188,-231.5 555.188,-235 555.188,-228"/>
</g>
<!-- Node15 -->
<g id="node15" class="node"><title>Node15</title>
<g id="a_node15"><a xlink:href="a00038.html" target="_top" xlink:title="hpp::corbaServer::core\l_idl::PathVectorServant\l\&lt; _Base, _Storage \&gt;">
<polygon fill="white" stroke="black" points="806.5,-211 806.5,-252 926.5,-252 926.5,-211 806.5,-211"/>
<text text-anchor="start" x="814.5" y="-240" font-family="Helvetica,sans-Serif" font-size="10.00">hpp::corbaServer::core</text>
<text text-anchor="start" x="814.5" y="-229" font-family="Helvetica,sans-Serif" font-size="10.00">_idl::PathVectorServant</text>
<text text-anchor="middle" x="866.5" y="-218" font-family="Helvetica,sans-Serif" font-size="10.00">&lt; _Base, _Storage &gt;</text>
</a>
</g>
</g>
<!-- Node14&#45;&gt;Node15 -->
<g id="edge14" class="edge"><title>Node14&#45;&gt;Node15</title>
<path fill="none" stroke="midnightblue" d="M748.437,-231.5C767.607,-231.5 787.956,-231.5 806.217,-231.5"/>
<polygon fill="midnightblue" stroke="midnightblue" points="748.235,-228 738.235,-231.5 748.235,-235 748.235,-228"/>
</g>
<!-- Node17 -->
<g id="node17" class="node"><title>Node17</title>
<g id="a_node17"><a xlink:href="a00051.html" target="_top" xlink:title="hpp::corbaServer::Servant\lBase\&lt; core::PathValidation,\l _Storage \&gt;">
<polygon fill="white" stroke="black" points="402,-157 402,-198 541,-198 541,-157 402,-157"/>
<text text-anchor="start" x="410" y="-186" font-family="Helvetica,sans-Serif" font-size="10.00">hpp::corbaServer::Servant</text>
<text text-anchor="start" x="410" y="-175" font-family="Helvetica,sans-Serif" font-size="10.00">Base&lt; core::PathValidation,</text>
<text text-anchor="middle" x="471.5" y="-164" font-family="Helvetica,sans-Serif" font-size="10.00"> _Storage &gt;</text>
</a>
</g>
</g>
<!-- Node16&#45;&gt;Node17 -->
<g id="edge16" class="edge"><title>Node16&#45;&gt;Node17</title>
<path fill="none" stroke="midnightblue" d="M361.923,-178.023C375.469,-177.958 389.125,-177.892 401.965,-177.83"/>
<polygon fill="midnightblue" stroke="midnightblue" points="361.584,-174.525 351.601,-178.073 361.617,-181.525 361.584,-174.525"/>
</g>
<!-- Node18 -->
<g id="node18" class="node"><title>Node18</title>
<g id="a_node18"><a xlink:href="a00036.html" target="_top" xlink:title="hpp::corbaServer::core\l_idl::PathValidationServant\l\&lt; _Base, _Storage \&gt;">
<polygon fill="white" stroke="black" points="605.5,-151 605.5,-192 739.5,-192 739.5,-151 605.5,-151"/>
<text text-anchor="start" x="613.5" y="-180" font-family="Helvetica,sans-Serif" font-size="10.00">hpp::corbaServer::core</text>
<text text-anchor="start" x="613.5" y="-169" font-family="Helvetica,sans-Serif" font-size="10.00">_idl::PathValidationServant</text>
<text text-anchor="middle" x="672.5" y="-158" font-family="Helvetica,sans-Serif" font-size="10.00">&lt; _Base, _Storage &gt;</text>
</a>
</g>
</g>
<!-- Node17&#45;&gt;Node18 -->
<g id="edge17" class="edge"><title>Node17&#45;&gt;Node18</title>
<path fill="none" stroke="midnightblue" d="M551.635,-175.114C569.459,-174.577 588.195,-174.012 605.419,-173.492"/>
<polygon fill="midnightblue" stroke="midnightblue" points="551.153,-171.627 541.263,-175.427 551.364,-178.624 551.153,-171.627"/>
</g>
<!-- Node20 -->
<g id="node20" class="node"><title>Node20</title>
<g id="a_node20"><a xlink:href="a00051.html" target="_top" xlink:title="hpp::corbaServer::Servant\lBase\&lt; core::Problem, _Storage \&gt;">
<polygon fill="white" stroke="black" points="390,-108.5 390,-138.5 553,-138.5 553,-108.5 390,-108.5"/>
<text text-anchor="start" x="398" y="-126.5" font-family="Helvetica,sans-Serif" font-size="10.00">hpp::corbaServer::Servant</text>
<text text-anchor="middle" x="471.5" y="-115.5" font-family="Helvetica,sans-Serif" font-size="10.00">Base&lt; core::Problem, _Storage &gt;</text>
</a>
</g>
</g>
<!-- Node19&#45;&gt;Node20 -->
<g id="edge19" class="edge"><title>Node19&#45;&gt;Node20</title>
<path fill="none" stroke="midnightblue" d="M348.572,-125.85C362.26,-125.587 376.384,-125.314 389.95,-125.053"/>
<polygon fill="midnightblue" stroke="midnightblue" points="348.136,-122.358 338.206,-126.05 348.271,-129.357 348.136,-122.358"/>
</g>
<!-- Node21 -->
<g id="node21" class="node"><title>Node21</title>
<g id="a_node21"><a xlink:href="a00043.html" target="_top" xlink:title="hpp::corbaServer::core\l_idl::ProblemServant\&lt;\l _Base, _Storage \&gt;">
<polygon fill="white" stroke="black" points="614.5,-91 614.5,-132 730.5,-132 730.5,-91 614.5,-91"/>
<text text-anchor="start" x="622.5" y="-120" font-family="Helvetica,sans-Serif" font-size="10.00">hpp::corbaServer::core</text>
<text text-anchor="start" x="622.5" y="-109" font-family="Helvetica,sans-Serif" font-size="10.00">_idl::ProblemServant&lt;</text>
<text text-anchor="middle" x="672.5" y="-98" font-family="Helvetica,sans-Serif" font-size="10.00"> _Base, _Storage &gt;</text>
</a>
</g>
</g>
<!-- Node20&#45;&gt;Node21 -->
<g id="edge20" class="edge"><title>Node20&#45;&gt;Node21</title>
<path fill="none" stroke="midnightblue" d="M563.302,-118.024C580.636,-116.979 598.323,-115.913 614.24,-114.953"/>
<polygon fill="midnightblue" stroke="midnightblue" points="562.925,-114.541 553.154,-118.636 563.347,-121.528 562.925,-114.541"/>
</g>
<!-- Node23 -->
<g id="node23" class="node"><title>Node23</title>
<g id="a_node23"><a xlink:href="a00051.html" target="_top" xlink:title="hpp::corbaServer::Servant\lBase\&lt; core::SteeringMethod,\l _Storage \&gt;">
<polygon fill="white" stroke="black" points="399.5,-49 399.5,-90 543.5,-90 543.5,-49 399.5,-49"/>
<text text-anchor="start" x="407.5" y="-78" font-family="Helvetica,sans-Serif" font-size="10.00">hpp::corbaServer::Servant</text>
<text text-anchor="start" x="407.5" y="-67" font-family="Helvetica,sans-Serif" font-size="10.00">Base&lt; core::SteeringMethod,</text>
<text text-anchor="middle" x="471.5" y="-56" font-family="Helvetica,sans-Serif" font-size="10.00"> _Storage &gt;</text>
</a>
</g>
</g>
<!-- Node22&#45;&gt;Node23 -->
<g id="edge22" class="edge"><title>Node22&#45;&gt;Node23</title>
<path fill="none" stroke="midnightblue" d="M364.342,-72.058C376.125,-71.7741 387.949,-71.4892 399.207,-71.2179"/>
<polygon fill="midnightblue" stroke="midnightblue" points="363.925,-68.567 354.013,-72.3069 364.094,-75.5649 363.925,-68.567"/>
</g>
<!-- Node24 -->
<g id="node24" class="node"><title>Node24</title>
<g id="a_node24"><a xlink:href="a00058.html" target="_top" xlink:title="hpp::corbaServer::core\l_idl::SteeringMethodServant\l\&lt; _Base, _Storage \&gt;">
<polygon fill="white" stroke="black" points="602.5,-31 602.5,-72 742.5,-72 742.5,-31 602.5,-31"/>
<text text-anchor="start" x="610.5" y="-60" font-family="Helvetica,sans-Serif" font-size="10.00">hpp::corbaServer::core</text>
<text text-anchor="start" x="610.5" y="-49" font-family="Helvetica,sans-Serif" font-size="10.00">_idl::SteeringMethodServant</text>
<text text-anchor="middle" x="672.5" y="-38" font-family="Helvetica,sans-Serif" font-size="10.00">&lt; _Base, _Storage &gt;</text>
</a>
</g>
</g>
<!-- Node23&#45;&gt;Node24 -->
<g id="edge23" class="edge"><title>Node23&#45;&gt;Node24</title>
<path fill="none" stroke="midnightblue" d="M553.462,-62.1768C569.627,-60.7147 586.468,-59.1914 602.197,-57.7686"/>
<polygon fill="midnightblue" stroke="midnightblue" points="553.145,-58.6911 543.501,-63.0778 553.775,-65.6627 553.145,-58.6911"/>
</g>
<!-- Node26 -->
<g id="node26" class="node"><title>Node26</title>
<g id="a_node26"><a xlink:href="a00051.html" target="_top" xlink:title="hpp::corbaServer::Servant\lBase\&lt; T \&gt;">
<polygon fill="white" stroke="black" points="406,-0.5 406,-30.5 537,-30.5 537,-0.5 406,-0.5"/>
<text text-anchor="start" x="414" y="-18.5" font-family="Helvetica,sans-Serif" font-size="10.00">hpp::corbaServer::Servant</text>
<text text-anchor="middle" x="471.5" y="-7.5" font-family="Helvetica,sans-Serif" font-size="10.00">Base&lt; T &gt;</text>
</a>
</g>
</g>
<!-- Node25&#45;&gt;Node26 -->
<g id="edge25" class="edge"><title>Node25&#45;&gt;Node26</title>
<path fill="none" stroke="midnightblue" d="M339.459,-17.3946C361.312,-17.0786 384.904,-16.7375 405.967,-16.433"/>
<polygon fill="midnightblue" stroke="midnightblue" points="339.173,-13.8982 329.225,-17.5425 339.274,-20.8975 339.173,-13.8982"/>
</g>
</g>
</svg>
