<?xml version="1.0" encoding="UTF-8" standalone="no"?>
<!DOCTYPE svg PUBLIC "-//W3C//DTD SVG 1.1//EN"
 "http://www.w3.org/Graphics/SVG/1.1/DTD/svg11.dtd">
<!-- Generated by graphviz version 2.38.0 (20140413.2041)
 -->
<!-- Title: steering_methods.idl Pages: 1 -->
<svg width="289pt" height="207pt"
 viewBox="0.00 0.00 289.28 207.00" xmlns="http://www.w3.org/2000/svg" xmlns:xlink="http://www.w3.org/1999/xlink">
<g id="graph0" class="graph" transform="scale(1 1) rotate(0) translate(4 203)">
<title>steering_methods.idl</title>
<polygon fill="white" stroke="none" points="-4,4 -4,-203 285.278,-203 285.278,4 -4,4"/>
<!-- Node1 -->
<g id="node1" class="node"><title>Node1</title>
<polygon fill="#bfbfbf" stroke="black" points="11.7785,-179.5 11.7785,-198.5 118.778,-198.5 118.778,-179.5 11.7785,-179.5"/>
<text text-anchor="middle" x="65.2785" y="-186.5" font-family="Helvetica,sans-Serif" font-size="10.00">steering_methods.idl</text>
</g>
<!-- Node2 -->
<g id="node2" class="node"><title>Node2</title>
<g id="a_node2"><a xlink:href="a00071.html" target="_top" xlink:title="hpp/common.idl">
<polygon fill="white" stroke="black" points="70.2785,-0.5 70.2785,-19.5 156.278,-19.5 156.278,-0.5 70.2785,-0.5"/>
<text text-anchor="middle" x="113.278" y="-7.5" font-family="Helvetica,sans-Serif" font-size="10.00">hpp/common.idl</text>
</a>
</g>
</g>
<!-- Node1&#45;&gt;Node2 -->
<g id="edge1" class="edge"><title>Node1&#45;&gt;Node2</title>
<path fill="none" stroke="midnightblue" d="M56.0391,-179.457C33.6058,-157.667 -19.8913,-98.7206 8.27845,-56 20.1003,-38.0717 40.7067,-27.259 60.5514,-20.7499"/>
<polygon fill="midnightblue" stroke="midnightblue" points="61.6002,-24.0896 70.1903,-17.888 59.6077,-17.3792 61.6002,-24.0896"/>
</g>
<!-- Node3 -->
<g id="node3" class="node"><title>Node3</title>
<g id="a_node3"><a xlink:href="a00087.html" target="_top" xlink:title="hpp/core_idl/paths.idl">
<polygon fill="white" stroke="black" points="17.7785,-62 17.7785,-81 126.778,-81 126.778,-62 17.7785,-62"/>
<text text-anchor="middle" x="72.2785" y="-69" font-family="Helvetica,sans-Serif" font-size="10.00">hpp/core_idl/paths.idl</text>
</a>
</g>
</g>
<!-- Node1&#45;&gt;Node3 -->
<g id="edge2" class="edge"><title>Node1&#45;&gt;Node3</title>
<path fill="none" stroke="midnightblue" d="M65.8046,-179.319C66.9296,-160.757 69.5912,-116.839 71.1286,-91.4734"/>
<polygon fill="midnightblue" stroke="midnightblue" points="74.6348,-91.4755 71.7462,-81.282 67.6476,-91.0519 74.6348,-91.4755"/>
</g>
<!-- Node4 -->
<g id="node4" class="node"><title>Node4</title>
<g id="a_node4"><a xlink:href="a00065.html" target="_top" xlink:title="hpp/core_idl/_constraints.idl">
<polygon fill="white" stroke="black" points="93.2785,-123.5 93.2785,-142.5 231.278,-142.5 231.278,-123.5 93.2785,-123.5"/>
<text text-anchor="middle" x="162.278" y="-130.5" font-family="Helvetica,sans-Serif" font-size="10.00">hpp/core_idl/_constraints.idl</text>
</a>
</g>
</g>
<!-- Node1&#45;&gt;Node4 -->
<g id="edge4" class="edge"><title>Node1&#45;&gt;Node4</title>
<path fill="none" stroke="midnightblue" d="M80.8632,-179.324C96.2775,-170.743 120.091,-157.486 137.988,-147.522"/>
<polygon fill="midnightblue" stroke="midnightblue" points="139.698,-150.577 146.732,-142.655 136.293,-144.461 139.698,-150.577"/>
</g>
<!-- Node3&#45;&gt;Node2 -->
<g id="edge3" class="edge"><title>Node3&#45;&gt;Node2</title>
<path fill="none" stroke="midnightblue" d="M78.1528,-61.9751C84.2419,-53.1384 93.9232,-39.0886 101.581,-27.975"/>
<polygon fill="midnightblue" stroke="midnightblue" points="104.623,-29.7294 107.415,-19.5091 98.8589,-25.7575 104.623,-29.7294"/>
</g>
<!-- Node4&#45;&gt;Node2 -->
<g id="edge5" class="edge"><title>Node4&#45;&gt;Node2</title>
<path fill="none" stroke="midnightblue" d="M159.591,-123.446C155.052,-109.249 145.374,-80.0083 135.278,-56 131.444,-46.8814 126.674,-36.9817 122.556,-28.7954"/>
<polygon fill="midnightblue" stroke="midnightblue" points="125.637,-27.133 117.964,-19.8273 119.407,-30.3235 125.637,-27.133"/>
</g>
<!-- Node5 -->
<g id="node5" class="node"><title>Node5</title>
<g id="a_node5"><a xlink:href="a00074.html" target="_top" xlink:title="hpp/constraints_idl\l/constraints.idl">
<polygon fill="white" stroke="black" points="183.278,-56.5 183.278,-86.5 281.278,-86.5 281.278,-56.5 183.278,-56.5"/>
<text text-anchor="start" x="191.278" y="-74.5" font-family="Helvetica,sans-Serif" font-size="10.00">hpp/constraints_idl</text>
<text text-anchor="middle" x="232.278" y="-63.5" font-family="Helvetica,sans-Serif" font-size="10.00">/constraints.idl</text>
</a>
</g>
</g>
<!-- Node4&#45;&gt;Node5 -->
<g id="edge6" class="edge"><title>Node4&#45;&gt;Node5</title>
<path fill="none" stroke="midnightblue" d="M172.308,-123.475C181.611,-115.567 195.826,-103.485 208.081,-93.0675"/>
<polygon fill="midnightblue" stroke="midnightblue" points="210.428,-95.6663 215.781,-86.523 205.895,-90.3327 210.428,-95.6663"/>
</g>
<!-- Node5&#45;&gt;Node2 -->
<g id="edge7" class="edge"><title>Node5&#45;&gt;Node2</title>
<path fill="none" stroke="midnightblue" d="M204.077,-56.3993C184.557,-46.6391 158.753,-33.7373 139.644,-24.1826"/>
<polygon fill="midnightblue" stroke="midnightblue" points="141.104,-20.9995 130.594,-19.6578 137.973,-27.2605 141.104,-20.9995"/>
</g>
</g>
</svg>
