<?xml version="1.0" encoding="UTF-8" standalone="no"?>
<!DOCTYPE svg PUBLIC "-//W3C//DTD SVG 1.1//EN"
 "http://www.w3.org/Graphics/SVG/1.1/DTD/svg11.dtd">
<!-- Generated by graphviz version 2.38.0 (20140413.2041)
 -->
<!-- Title: constraints.idl Pages: 1 -->
<svg width="144pt" height="252pt"
 viewBox="0.00 0.00 144.00 252.00" xmlns="http://www.w3.org/2000/svg" xmlns:xlink="http://www.w3.org/1999/xlink">
<g id="graph0" class="graph" transform="scale(1 1) rotate(0) translate(4 248)">
<title>constraints.idl</title>
<polygon fill="white" stroke="none" points="-4,4 -4,-248 140,-248 140,4 -4,4"/>
<!-- Node1 -->
<g id="node1" class="node"><title>Node1</title>
<polygon fill="#bfbfbf" stroke="black" points="0,-224.5 0,-243.5 77,-243.5 77,-224.5 0,-224.5"/>
<text text-anchor="middle" x="38.5" y="-231.5" font-family="Helvetica,sans-Serif" font-size="10.00">constraints.idl</text>
</g>
<!-- Node2 -->
<g id="node2" class="node"><title>Node2</title>
<g id="a_node2"><a xlink:href="a00089.html" target="_top" xlink:title="problem.idl">
<polygon fill="white" stroke="black" points="6.5,-0.5 6.5,-19.5 70.5,-19.5 70.5,-0.5 6.5,-0.5"/>
<text text-anchor="middle" x="38.5" y="-7.5" font-family="Helvetica,sans-Serif" font-size="10.00">problem.idl</text>
</a>
</g>
</g>
<!-- Node1&#45;&gt;Node2 -->
<g id="edge1" class="edge"><title>Node1&#45;&gt;Node2</title>
<path fill="none" stroke="midnightblue" d="M32.4969,-214.926C29.9945,-206.779 27.2658,-196.988 25.5,-188 18.9684,-154.753 16.3543,-145.737 19.5,-112 22.7301,-77.3578 32.0634,-36.8891 36.328,-19.5701"/>
<polygon fill="midnightblue" stroke="midnightblue" points="29.174,-216.026 35.5561,-224.483 35.8408,-213.892 29.174,-216.026"/>
</g>
<!-- Node3 -->
<g id="node3" class="node"><title>Node3</title>
<g id="a_node3"><a xlink:href="a00065.html" target="_top" xlink:title="_constraints.idl">
<polygon fill="white" stroke="black" points="35,-168.5 35,-187.5 118,-187.5 118,-168.5 35,-168.5"/>
<text text-anchor="middle" x="76.5" y="-175.5" font-family="Helvetica,sans-Serif" font-size="10.00">_constraints.idl</text>
</a>
</g>
</g>
<!-- Node1&#45;&gt;Node3 -->
<g id="edge2" class="edge"><title>Node1&#45;&gt;Node3</title>
<path fill="none" stroke="midnightblue" d="M50.5647,-215.855C57.1447,-206.505 65.011,-195.327 70.3418,-187.751"/>
<polygon fill="midnightblue" stroke="midnightblue" points="47.6676,-213.891 44.7749,-224.083 53.3922,-217.919 47.6676,-213.891"/>
</g>
<!-- Node4 -->
<g id="node4" class="node"><title>Node4</title>
<g id="a_node4"><a xlink:href="a00100.html" target="_top" xlink:title="steering_methods.idl">
<polygon fill="white" stroke="black" points="29,-112.5 29,-131.5 136,-131.5 136,-112.5 29,-112.5"/>
<text text-anchor="middle" x="82.5" y="-119.5" font-family="Helvetica,sans-Serif" font-size="10.00">steering_methods.idl</text>
</a>
</g>
</g>
<!-- Node3&#45;&gt;Node4 -->
<g id="edge3" class="edge"><title>Node3&#45;&gt;Node4</title>
<path fill="none" stroke="midnightblue" d="M78.5999,-158.101C79.596,-149.136 80.738,-138.858 81.5277,-131.751"/>
<polygon fill="midnightblue" stroke="midnightblue" points="75.1166,-157.758 77.4908,-168.083 82.0738,-158.531 75.1166,-157.758"/>
</g>
<!-- Node4&#45;&gt;Node2 -->
<g id="edge4" class="edge"><title>Node4&#45;&gt;Node2</title>
<path fill="none" stroke="midnightblue" d="M71.708,-103.715C66.9093,-95.5274 61.462,-85.4834 57.5,-76 49.342,-56.4731 43.2629,-32.2709 40.3724,-19.6218"/>
<polygon fill="midnightblue" stroke="midnightblue" points="68.7465,-105.581 76.9154,-112.328 74.7368,-101.96 68.7465,-105.581"/>
</g>
<!-- Node5 -->
<g id="node5" class="node"><title>Node5</title>
<g id="a_node5"><a xlink:href="a00066.html" target="_top" xlink:title="_problem.idl">
<polygon fill="white" stroke="black" points="67,-56.5 67,-75.5 136,-75.5 136,-56.5 67,-56.5"/>
<text text-anchor="middle" x="101.5" y="-63.5" font-family="Helvetica,sans-Serif" font-size="10.00">_problem.idl</text>
</a>
</g>
</g>
<!-- Node4&#45;&gt;Node5 -->
<g id="edge5" class="edge"><title>Node4&#45;&gt;Node5</title>
<path fill="none" stroke="midnightblue" d="M89.046,-102.396C92.2245,-93.362 95.8929,-82.936 98.4209,-75.7511"/>
<polygon fill="midnightblue" stroke="midnightblue" points="85.655,-101.488 85.6375,-112.083 92.2582,-103.812 85.655,-101.488"/>
</g>
<!-- Node5&#45;&gt;Node2 -->
<g id="edge6" class="edge"><title>Node5&#45;&gt;Node2</title>
<path fill="none" stroke="midnightblue" d="M83.4601,-49.5372C72.2269,-39.9087 58.1809,-27.8694 48.8062,-19.8339"/>
<polygon fill="midnightblue" stroke="midnightblue" points="81.5076,-52.4734 91.378,-56.324 86.0632,-47.1586 81.5076,-52.4734"/>
</g>
</g>
</svg>
