<?xml version="1.0" encoding="UTF-8" standalone="no"?>
<!DOCTYPE svg PUBLIC "-//W3C//DTD SVG 1.1//EN"
 "http://www.w3.org/Graphics/SVG/1.1/DTD/svg11.dtd">
<!-- Generated by graphviz version 2.38.0 (20140413.2041)
 -->
<!-- Title: _constraints.idl Pages: 1 -->
<svg width="128pt" height="196pt"
 viewBox="0.00 0.00 128.00 196.00" xmlns="http://www.w3.org/2000/svg" xmlns:xlink="http://www.w3.org/1999/xlink">
<g id="graph0" class="graph" transform="scale(1 1) rotate(0) translate(4 192)">
<title>_constraints.idl</title>
<polygon fill="white" stroke="none" points="-4,4 -4,-192 124,-192 124,4 -4,4"/>
<!-- Node1 -->
<g id="node1" class="node"><title>Node1</title>
<polygon fill="#bfbfbf" stroke="black" points="12,-168.5 12,-187.5 95,-187.5 95,-168.5 12,-168.5"/>
<text text-anchor="middle" x="53.5" y="-175.5" font-family="Helvetica,sans-Serif" font-size="10.00">_constraints.idl</text>
</g>
<!-- Node2 -->
<g id="node2" class="node"><title>Node2</title>
<g id="a_node2"><a xlink:href="a00100.html" target="_top" xlink:title="steering_methods.idl">
<polygon fill="white" stroke="black" points="-7.10543e-15,-112.5 -7.10543e-15,-131.5 107,-131.5 107,-112.5 -7.10543e-15,-112.5"/>
<text text-anchor="middle" x="53.5" y="-119.5" font-family="Helvetica,sans-Serif" font-size="10.00">steering_methods.idl</text>
</a>
</g>
</g>
<!-- Node1&#45;&gt;Node2 -->
<g id="edge1" class="edge"><title>Node1&#45;&gt;Node2</title>
<path fill="none" stroke="midnightblue" d="M53.5,-157.805C53.5,-148.91 53.5,-138.78 53.5,-131.751"/>
<polygon fill="midnightblue" stroke="midnightblue" points="50.0001,-158.083 53.5,-168.083 57.0001,-158.083 50.0001,-158.083"/>
</g>
<!-- Node3 -->
<g id="node3" class="node"><title>Node3</title>
<g id="a_node3"><a xlink:href="a00089.html" target="_top" xlink:title="problem.idl">
<polygon fill="white" stroke="black" points="21.5,-0.5 21.5,-19.5 85.5,-19.5 85.5,-0.5 21.5,-0.5"/>
<text text-anchor="middle" x="53.5" y="-7.5" font-family="Helvetica,sans-Serif" font-size="10.00">problem.idl</text>
</a>
</g>
</g>
<!-- Node2&#45;&gt;Node3 -->
<g id="edge2" class="edge"><title>Node2&#45;&gt;Node3</title>
<path fill="none" stroke="midnightblue" d="M46.978,-102.607C43.1467,-89.6354 39.4265,-71.8227 41.5,-56 43.1809,-43.1729 47.4482,-28.8015 50.4123,-19.8268"/>
<polygon fill="midnightblue" stroke="midnightblue" points="43.6804,-103.785 50.0977,-112.215 50.3382,-101.623 43.6804,-103.785"/>
</g>
<!-- Node4 -->
<g id="node4" class="node"><title>Node4</title>
<g id="a_node4"><a xlink:href="a00066.html" target="_top" xlink:title="_problem.idl">
<polygon fill="white" stroke="black" points="51,-56.5 51,-75.5 120,-75.5 120,-56.5 51,-56.5"/>
<text text-anchor="middle" x="85.5" y="-63.5" font-family="Helvetica,sans-Serif" font-size="10.00">_problem.idl</text>
</a>
</g>
</g>
<!-- Node2&#45;&gt;Node4 -->
<g id="edge3" class="edge"><title>Node2&#45;&gt;Node4</title>
<path fill="none" stroke="midnightblue" d="M64.0039,-103.275C69.4731,-94.0454 75.9176,-83.1703 80.3142,-75.7511"/>
<polygon fill="midnightblue" stroke="midnightblue" points="60.8712,-101.696 58.7841,-112.083 66.8932,-105.264 60.8712,-101.696"/>
</g>
<!-- Node4&#45;&gt;Node3 -->
<g id="edge4" class="edge"><title>Node4&#45;&gt;Node3</title>
<path fill="none" stroke="midnightblue" d="M74.9961,-47.2747C69.5269,-38.0454 63.0824,-27.1703 58.6858,-19.7511"/>
<polygon fill="midnightblue" stroke="midnightblue" points="72.1068,-49.2644 80.2159,-56.083 78.1288,-45.6957 72.1068,-49.2644"/>
</g>
</g>
</svg>
