<?xml version="1.0" encoding="UTF-8" standalone="no"?>
<!DOCTYPE svg PUBLIC "-//W3C//DTD SVG 1.1//EN"
 "http://www.w3.org/Graphics/SVG/1.1/DTD/svg11.dtd">
<!-- Generated by graphviz version 2.38.0 (20140413.2041)
 -->
<!-- Title: steering&#45;methods.hh Pages: 1 -->
<svg width="1030pt" height="475pt"
 viewBox="0.00 0.00 1029.66 475.00" xmlns="http://www.w3.org/2000/svg" xmlns:xlink="http://www.w3.org/1999/xlink">
<g id="graph0" class="graph" transform="scale(1 1) rotate(0) translate(4 471)">
<title>steering&#45;methods.hh</title>
<polygon fill="white" stroke="none" points="-4,4 -4,-471 1025.66,-471 1025.66,4 -4,4"/>
<!-- Node1 -->
<g id="node1" class="node"><title>Node1</title>
<polygon fill="#bfbfbf" stroke="black" points="522.5,-447.5 522.5,-466.5 627.5,-466.5 627.5,-447.5 522.5,-447.5"/>
<text text-anchor="middle" x="575" y="-454.5" font-family="Helvetica,sans-Serif" font-size="10.00">steering&#45;methods.hh</text>
</g>
<!-- Node2 -->
<g id="node2" class="node"><title>Node2</title>
<polygon fill="white" stroke="#bfbfbf" points="166,-319 166,-338 210,-338 210,-319 166,-319"/>
<text text-anchor="middle" x="188" y="-326" font-family="Helvetica,sans-Serif" font-size="10.00">vector</text>
</g>
<!-- Node1&#45;&gt;Node2 -->
<g id="edge1" class="edge"><title>Node1&#45;&gt;Node2</title>
<path fill="none" stroke="midnightblue" d="M526.341,-447.445C485.859,-439.734 426.985,-427.137 377,-411 304.414,-387.567 288.668,-375.052 219,-344 217.809,-343.469 216.595,-342.923 215.37,-342.368"/>
<polygon fill="midnightblue" stroke="midnightblue" points="216.528,-339.048 205.981,-338.046 213.601,-345.407 216.528,-339.048"/>
</g>
<!-- Node3 -->
<g id="node3" class="node"><title>Node3</title>
<polygon fill="white" stroke="#bfbfbf" points="228,-319 228,-338 276,-338 276,-319 228,-319"/>
<text text-anchor="middle" x="252" y="-326" font-family="Helvetica,sans-Serif" font-size="10.00">stdlib.h</text>
</g>
<!-- Node1&#45;&gt;Node3 -->
<g id="edge2" class="edge"><title>Node1&#45;&gt;Node3</title>
<path fill="none" stroke="midnightblue" d="M551.529,-447.41C501.972,-429.17 383.148,-384.886 285,-344 283.592,-343.413 282.153,-342.807 280.701,-342.19"/>
<polygon fill="midnightblue" stroke="midnightblue" points="281.709,-338.813 271.141,-338.06 278.933,-345.239 281.709,-338.813"/>
</g>
<!-- Node4 -->
<g id="node4" class="node"><title>Node4</title>
<g id="a_node4"><a doxygen="/local/devel/hpp/install/share/doc/hpp-core/doxygen-html/hpp-core.doxytag:../../hpp-core/doxygen-html/" xlink:href="../../hpp-core/doxygen-html/a00203.html" target="_top" xlink:title="hpp/core/steering&#45;method.hh">
<polygon fill="white" stroke="black" points="8,-319 8,-338 148,-338 148,-319 8,-319"/>
<text text-anchor="middle" x="78" y="-326" font-family="Helvetica,sans-Serif" font-size="10.00">hpp/core/steering&#45;method.hh</text>
</a>
</g>
</g>
<!-- Node1&#45;&gt;Node4 -->
<g id="edge3" class="edge"><title>Node1&#45;&gt;Node4</title>
<path fill="none" stroke="midnightblue" d="M522.357,-450.849C465.204,-444.508 371.569,-431.925 293,-411 223.867,-392.588 146.156,-360.011 105.761,-342.127"/>
<polygon fill="midnightblue" stroke="midnightblue" points="107.114,-338.898 96.5561,-338.019 104.262,-345.29 107.114,-338.898"/>
</g>
<!-- Node5 -->
<g id="node5" class="node"><title>Node5</title>
<g id="a_node5"><a xlink:href="a00001.html" target="_top" xlink:title="hpp/core/fwd.hh">
<polygon fill="white" stroke="black" points="513,-56.5 513,-75.5 599,-75.5 599,-56.5 513,-56.5"/>
<text text-anchor="middle" x="556" y="-63.5" font-family="Helvetica,sans-Serif" font-size="10.00">hpp/core/fwd.hh</text>
</a>
</g>
</g>
<!-- Node1&#45;&gt;Node5 -->
<g id="edge20" class="edge"><title>Node1&#45;&gt;Node5</title>
<path fill="none" stroke="midnightblue" d="M581.989,-447.405C597.21,-427.787 632,-377.677 632,-329.5 632,-329.5 632,-329.5 632,-193.5 632,-148.122 595.621,-104.982 573.201,-82.705"/>
<polygon fill="midnightblue" stroke="midnightblue" points="575.572,-80.1293 565.936,-75.7259 570.723,-85.1776 575.572,-80.1293"/>
</g>
<!-- Node13 -->
<g id="node13" class="node"><title>Node13</title>
<g id="a_node13"><a xlink:href="a00075.html" target="_top" xlink:title="hpp/corbaserver/conversions.hh">
<polygon fill="white" stroke="black" points="660.5,-319 660.5,-338 815.5,-338 815.5,-319 660.5,-319"/>
<text text-anchor="middle" x="738" y="-326" font-family="Helvetica,sans-Serif" font-size="10.00">hpp/corbaserver/conversions.hh</text>
</a>
</g>
</g>
<!-- Node1&#45;&gt;Node13 -->
<g id="edge21" class="edge"><title>Node1&#45;&gt;Node13</title>
<path fill="none" stroke="midnightblue" d="M590.147,-447.359C604.847,-438.754 627.573,-424.861 646,-411 674.096,-389.865 704.136,-362.175 721.979,-345.123"/>
<polygon fill="midnightblue" stroke="midnightblue" points="724.497,-347.558 729.269,-338.098 719.639,-342.517 724.497,-347.558"/>
</g>
<!-- Node16 -->
<g id="node16" class="node"><title>Node16</title>
<polygon fill="white" stroke="#bfbfbf" points="736.5,-380.5 736.5,-410.5 843.5,-410.5 843.5,-380.5 736.5,-380.5"/>
<text text-anchor="start" x="744.5" y="-398.5" font-family="Helvetica,sans-Serif" font-size="10.00">hpp/core_idl/steering</text>
<text text-anchor="middle" x="790" y="-387.5" font-family="Helvetica,sans-Serif" font-size="10.00">_methods&#45;idl.hh</text>
</g>
<!-- Node1&#45;&gt;Node16 -->
<g id="edge25" class="edge"><title>Node1&#45;&gt;Node16</title>
<path fill="none" stroke="midnightblue" d="M605.804,-447.475C637.985,-438.569 689.298,-424.369 729.601,-413.215"/>
<polygon fill="midnightblue" stroke="midnightblue" points="730.625,-416.563 739.329,-410.523 728.757,-409.817 730.625,-416.563"/>
</g>
<!-- Node17 -->
<g id="node17" class="node"><title>Node17</title>
<g id="a_node17"><a xlink:href="a00096.html" target="_top" xlink:title="hpp/corbaserver/servant\l&#45;base.hh">
<polygon fill="white" stroke="black" points="834,-313.5 834,-343.5 956,-343.5 956,-313.5 834,-313.5"/>
<text text-anchor="start" x="842" y="-331.5" font-family="Helvetica,sans-Serif" font-size="10.00">hpp/corbaserver/servant</text>
<text text-anchor="middle" x="895" y="-320.5" font-family="Helvetica,sans-Serif" font-size="10.00">&#45;base.hh</text>
</a>
</g>
</g>
<!-- Node1&#45;&gt;Node17 -->
<g id="edge26" class="edge"><title>Node1&#45;&gt;Node17</title>
<path fill="none" stroke="midnightblue" d="M597.82,-447.388C619.236,-439.013 651.934,-425.468 679,-411 701.397,-399.028 703.945,-390.649 727,-380 757.687,-365.825 793.343,-354.449 823.892,-346.109"/>
<polygon fill="midnightblue" stroke="midnightblue" points="824.862,-349.473 833.618,-343.509 823.053,-342.711 824.862,-349.473"/>
</g>
<!-- Node24 -->
<g id="node24" class="node"><title>Node24</title>
<g id="a_node24"><a xlink:href="a00086.html" target="_top" xlink:title="hpp/corbaserver/core\l_idl/paths.hh">
<polygon fill="white" stroke="black" points="464,-380.5 464,-410.5 572,-410.5 572,-380.5 464,-380.5"/>
<text text-anchor="start" x="472" y="-398.5" font-family="Helvetica,sans-Serif" font-size="10.00">hpp/corbaserver/core</text>
<text text-anchor="middle" x="518" y="-387.5" font-family="Helvetica,sans-Serif" font-size="10.00">_idl/paths.hh</text>
</a>
</g>
</g>
<!-- Node1&#45;&gt;Node24 -->
<g id="edge39" class="edge"><title>Node1&#45;&gt;Node24</title>
<path fill="none" stroke="midnightblue" d="M566.833,-447.475C559.474,-439.793 548.341,-428.172 538.562,-417.964"/>
<polygon fill="midnightblue" stroke="midnightblue" points="540.879,-415.323 531.434,-410.523 535.824,-420.165 540.879,-415.323"/>
</g>
<!-- Node4&#45;&gt;Node5 -->
<g id="edge4" class="edge"><title>Node4&#45;&gt;Node5</title>
<path fill="none" stroke="midnightblue" d="M123.528,-318.967C165.949,-310.416 230.647,-295.828 285,-277 352.844,-253.498 372.42,-250.068 432,-210 468.003,-185.788 474.664,-175.856 503,-143 519.182,-124.237 535.078,-100.539 545.175,-84.6371"/>
<polygon fill="midnightblue" stroke="midnightblue" points="548.33,-86.1924 550.662,-75.8574 542.394,-82.4823 548.33,-86.1924"/>
</g>
<!-- Node7 -->
<g id="node7" class="node"><title>Node7</title>
<g id="a_node7"><a doxygen="/local/devel/hpp/install/share/doc/hpp-core/doxygen-html/hpp-core.doxytag:../../hpp-core/doxygen-html/" xlink:href="../../hpp-core/doxygen-html/a00001.html" target="_top" xlink:title="hpp/core/fwd.hh">
<polygon fill="white" stroke="black" points="314,-0.5 314,-19.5 400,-19.5 400,-0.5 314,-0.5"/>
<text text-anchor="middle" x="357" y="-7.5" font-family="Helvetica,sans-Serif" font-size="10.00">hpp/core/fwd.hh</text>
</a>
</g>
</g>
<!-- Node4&#45;&gt;Node7 -->
<g id="edge7" class="edge"><title>Node4&#45;&gt;Node7</title>
<path fill="none" stroke="midnightblue" d="M68.4357,-318.957C47.6074,-299.358 0,-248.737 0,-195.5 0,-195.5 0,-195.5 0,-126.5 0,-63.4271 204.272,-29.687 303.78,-16.9928"/>
<polygon fill="midnightblue" stroke="midnightblue" points="304.449,-20.4366 313.937,-15.7238 303.581,-13.4906 304.449,-20.4366"/>
</g>
<!-- Node8 -->
<g id="node8" class="node"><title>Node8</title>
<g id="a_node8"><a doxygen="/local/devel/hpp/install/share/doc/hpp-core/doxygen-html/hpp-core.doxytag:../../hpp-core/doxygen-html/" xlink:href="../../hpp-core/doxygen-html/a00174.html" target="_top" xlink:title="hpp/core/path.hh">
<polygon fill="white" stroke="black" points="187.5,-252 187.5,-271 276.5,-271 276.5,-252 187.5,-252"/>
<text text-anchor="middle" x="232" y="-259" font-family="Helvetica,sans-Serif" font-size="10.00">hpp/core/path.hh</text>
</a>
</g>
</g>
<!-- Node4&#45;&gt;Node8 -->
<g id="edge8" class="edge"><title>Node4&#45;&gt;Node8</title>
<path fill="none" stroke="midnightblue" d="M98.45,-318.869C125.028,-307.65 171.64,-287.977 202.166,-275.092"/>
<polygon fill="midnightblue" stroke="midnightblue" points="203.613,-278.28 211.465,-271.167 200.891,-271.831 203.613,-278.28"/>
</g>
<!-- Node11 -->
<g id="node11" class="node"><title>Node11</title>
<g id="a_node11"><a doxygen="/local/devel/hpp/install/share/doc/hpp-core/doxygen-html/hpp-core.doxytag:../../hpp-core/doxygen-html/" xlink:href="../../hpp-core/doxygen-html/a00184.html" target="_top" xlink:title="hpp/core/projection\l&#45;error.hh">
<polygon fill="white" stroke="black" points="28.5,-179.5 28.5,-209.5 127.5,-209.5 127.5,-179.5 28.5,-179.5"/>
<text text-anchor="start" x="36.5" y="-197.5" font-family="Helvetica,sans-Serif" font-size="10.00">hpp/core/projection</text>
<text text-anchor="middle" x="78" y="-186.5" font-family="Helvetica,sans-Serif" font-size="10.00">&#45;error.hh</text>
</a>
</g>
</g>
<!-- Node4&#45;&gt;Node11 -->
<g id="edge19" class="edge"><title>Node4&#45;&gt;Node11</title>
<path fill="none" stroke="midnightblue" d="M78,-318.839C78,-299.019 78,-249.769 78,-219.844"/>
<polygon fill="midnightblue" stroke="midnightblue" points="81.5001,-219.783 78,-209.783 74.5001,-219.783 81.5001,-219.783"/>
</g>
<!-- Node6 -->
<g id="node6" class="node"><title>Node6</title>
<polygon fill="white" stroke="#bfbfbf" points="723,-0.5 723,-19.5 835,-19.5 835,-0.5 723,-0.5"/>
<text text-anchor="middle" x="779" y="-7.5" font-family="Helvetica,sans-Serif" font-size="10.00">omniORB4/CORBA.h</text>
</g>
<!-- Node5&#45;&gt;Node6 -->
<g id="edge5" class="edge"><title>Node5&#45;&gt;Node6</title>
<path fill="none" stroke="midnightblue" d="M591.335,-56.4435C629.911,-47.1024 691.785,-32.1194 733.853,-21.9326"/>
<polygon fill="midnightblue" stroke="midnightblue" points="734.935,-25.2717 743.83,-19.5164 733.287,-18.4683 734.935,-25.2717"/>
</g>
<!-- Node5&#45;&gt;Node7 -->
<g id="edge6" class="edge"><title>Node5&#45;&gt;Node7</title>
<path fill="none" stroke="midnightblue" d="M524.468,-56.4435C490.408,-47.2011 435.994,-32.4356 398.485,-22.2572"/>
<polygon fill="midnightblue" stroke="midnightblue" points="398.952,-18.7575 388.385,-19.5164 397.119,-25.5132 398.952,-18.7575"/>
</g>
<!-- Node8&#45;&gt;Node5 -->
<g id="edge9" class="edge"><title>Node8&#45;&gt;Node5</title>
<path fill="none" stroke="midnightblue" d="M276.59,-252.31C310.836,-244.743 358.465,-231.382 396,-210 452.319,-177.918 455.491,-154.988 504,-112 515.309,-101.979 528.145,-90.8673 538.235,-82.1932"/>
<polygon fill="midnightblue" stroke="midnightblue" points="540.659,-84.7249 545.971,-75.5575 536.102,-79.4119 540.659,-84.7249"/>
</g>
<!-- Node8&#45;&gt;Node7 -->
<g id="edge10" class="edge"><title>Node8&#45;&gt;Node7</title>
<path fill="none" stroke="midnightblue" d="M220.717,-251.682C192.616,-229.436 120.903,-170.832 109,-143 103.582,-130.332 101.311,-123.433 109,-112 152.318,-47.5856 244.633,-24.2314 303.601,-15.7781"/>
<polygon fill="midnightblue" stroke="midnightblue" points="304.395,-19.2033 313.844,-14.411 303.468,-12.2648 304.395,-19.2033"/>
</g>
<!-- Node9 -->
<g id="node9" class="node"><title>Node9</title>
<g id="a_node9"><a doxygen="/local/devel/hpp/install/share/doc/hpp-core/doxygen-html/hpp-core.doxytag:../../hpp-core/doxygen-html/" xlink:href="../../hpp-core/doxygen-html/a00123.html" target="_top" xlink:title="hpp/core/constraint\l&#45;set.hh">
<polygon fill="white" stroke="black" points="287,-179.5 287,-209.5 387,-209.5 387,-179.5 287,-179.5"/>
<text text-anchor="start" x="295" y="-197.5" font-family="Helvetica,sans-Serif" font-size="10.00">hpp/core/constraint</text>
<text text-anchor="middle" x="337" y="-186.5" font-family="Helvetica,sans-Serif" font-size="10.00">&#45;set.hh</text>
</a>
</g>
</g>
<!-- Node8&#45;&gt;Node9 -->
<g id="edge11" class="edge"><title>Node8&#45;&gt;Node9</title>
<path fill="none" stroke="midnightblue" d="M246.161,-251.734C261.306,-242.358 285.812,-227.188 305.555,-214.966"/>
<polygon fill="midnightblue" stroke="midnightblue" points="307.58,-217.829 314.241,-209.589 303.896,-211.877 307.58,-217.829"/>
</g>
<!-- Node8&#45;&gt;Node11 -->
<g id="edge15" class="edge"><title>Node8&#45;&gt;Node11</title>
<path fill="none" stroke="midnightblue" d="M211.55,-251.869C188.442,-242.115 150.189,-225.97 120.532,-213.452"/>
<polygon fill="midnightblue" stroke="midnightblue" points="121.81,-210.192 111.236,-209.528 119.088,-216.641 121.81,-210.192"/>
</g>
<!-- Node12 -->
<g id="node12" class="node"><title>Node12</title>
<g id="a_node12"><a doxygen="/local/devel/hpp/install/share/doc/hpp-core/doxygen-html/hpp-core.doxytag:../../hpp-core/doxygen-html/" xlink:href="../../hpp-core/doxygen-html/a00208.html" target="_top" xlink:title="hpp/core/time&#45;parameterization.hh">
<polygon fill="white" stroke="black" points="118,-118 118,-137 282,-137 282,-118 118,-118"/>
<text text-anchor="middle" x="200" y="-125" font-family="Helvetica,sans-Serif" font-size="10.00">hpp/core/time&#45;parameterization.hh</text>
</a>
</g>
</g>
<!-- Node8&#45;&gt;Node12 -->
<g id="edge16" class="edge"><title>Node8&#45;&gt;Node12</title>
<path fill="none" stroke="midnightblue" d="M229.9,-251.839C224.769,-230.674 211.503,-175.948 204.493,-147.033"/>
<polygon fill="midnightblue" stroke="midnightblue" points="207.823,-145.915 202.066,-137.021 201.02,-147.564 207.823,-145.915"/>
</g>
<!-- Node10 -->
<g id="node10" class="node"><title>Node10</title>
<g id="a_node10"><a doxygen="/local/devel/hpp/install/share/doc/hpp-core/doxygen-html/hpp-core.doxytag:../../hpp-core/doxygen-html/" xlink:href="../../hpp-core/doxygen-html/a00124.html" target="_top" xlink:title="hpp/core/constraint.hh">
<polygon fill="white" stroke="black" points="300.5,-118 300.5,-137 413.5,-137 413.5,-118 300.5,-118"/>
<text text-anchor="middle" x="357" y="-125" font-family="Helvetica,sans-Serif" font-size="10.00">hpp/core/constraint.hh</text>
</a>
</g>
</g>
<!-- Node9&#45;&gt;Node10 -->
<g id="edge12" class="edge"><title>Node9&#45;&gt;Node10</title>
<path fill="none" stroke="midnightblue" d="M341.34,-179.396C344.273,-169.863 348.175,-157.182 351.35,-146.862"/>
<polygon fill="midnightblue" stroke="midnightblue" points="354.729,-147.782 354.325,-137.195 348.039,-145.723 354.729,-147.782"/>
</g>
<!-- Node10&#45;&gt;Node5 -->
<g id="edge13" class="edge"><title>Node10&#45;&gt;Node5</title>
<path fill="none" stroke="midnightblue" d="M385.512,-117.975C420.238,-107.592 479.037,-90.0116 517.692,-78.4538"/>
<polygon fill="midnightblue" stroke="midnightblue" points="518.963,-81.7271 527.541,-75.5091 516.957,-75.0205 518.963,-81.7271"/>
</g>
<!-- Node10&#45;&gt;Node7 -->
<g id="edge14" class="edge"><title>Node10&#45;&gt;Node7</title>
<path fill="none" stroke="midnightblue" d="M357,-117.819C357,-99.2568 357,-55.3391 357,-29.9734"/>
<polygon fill="midnightblue" stroke="midnightblue" points="360.5,-29.782 357,-19.782 353.5,-29.782 360.5,-29.782"/>
</g>
<!-- Node12&#45;&gt;Node5 -->
<g id="edge17" class="edge"><title>Node12&#45;&gt;Node5</title>
<path fill="none" stroke="midnightblue" d="M251.006,-117.975C317.937,-106.789 434.854,-87.2477 502.839,-75.8851"/>
<polygon fill="midnightblue" stroke="midnightblue" points="503.622,-79.3028 512.909,-74.2021 502.468,-72.3985 503.622,-79.3028"/>
</g>
<!-- Node12&#45;&gt;Node7 -->
<g id="edge18" class="edge"><title>Node12&#45;&gt;Node7</title>
<path fill="none" stroke="midnightblue" d="M211.801,-117.819C238.509,-98.1698 303.839,-50.1087 336.995,-25.7169"/>
<polygon fill="midnightblue" stroke="midnightblue" points="339.082,-28.5272 345.063,-19.782 334.933,-22.8886 339.082,-28.5272"/>
</g>
<!-- Node13&#45;&gt;Node5 -->
<g id="edge23" class="edge"><title>Node13&#45;&gt;Node5</title>
<path fill="none" stroke="midnightblue" d="M726.54,-318.707C715.331,-309.502 698.587,-294.033 689,-277 651.831,-210.959 693.713,-170.877 646,-112 633.565,-96.655 614.558,-86.0867 597.211,-79.0691"/>
<polygon fill="midnightblue" stroke="midnightblue" points="598.389,-75.7726 587.797,-75.5279 595.924,-82.3245 598.389,-75.7726"/>
</g>
<!-- Node14 -->
<g id="node14" class="node"><title>Node14</title>
<polygon fill="white" stroke="#bfbfbf" points="698.5,-246.5 698.5,-276.5 791.5,-276.5 791.5,-246.5 698.5,-246.5"/>
<text text-anchor="start" x="706.5" y="-264.5" font-family="Helvetica,sans-Serif" font-size="10.00">hpp/util/exception</text>
<text text-anchor="middle" x="745" y="-253.5" font-family="Helvetica,sans-Serif" font-size="10.00">&#45;factory.hh</text>
</g>
<!-- Node13&#45;&gt;Node14 -->
<g id="edge22" class="edge"><title>Node13&#45;&gt;Node14</title>
<path fill="none" stroke="midnightblue" d="M738.944,-318.734C739.826,-310.541 741.185,-297.923 742.392,-286.714"/>
<polygon fill="midnightblue" stroke="midnightblue" points="745.892,-286.906 743.483,-276.589 738.932,-286.157 745.892,-286.906"/>
</g>
<!-- Node15 -->
<g id="node15" class="node"><title>Node15</title>
<polygon fill="white" stroke="#bfbfbf" points="809.5,-252 809.5,-271 908.5,-271 908.5,-252 809.5,-252"/>
<text text-anchor="middle" x="859" y="-259" font-family="Helvetica,sans-Serif" font-size="10.00">hpp/common&#45;idl.hh</text>
</g>
<!-- Node13&#45;&gt;Node15 -->
<g id="edge24" class="edge"><title>Node13&#45;&gt;Node15</title>
<path fill="none" stroke="midnightblue" d="M754.319,-318.734C774.82,-307.721 810.204,-288.713 834.095,-275.879"/>
<polygon fill="midnightblue" stroke="midnightblue" points="835.787,-278.943 842.94,-271.127 832.474,-272.776 835.787,-278.943"/>
</g>
<!-- Node17&#45;&gt;Node15 -->
<g id="edge28" class="edge"><title>Node17&#45;&gt;Node15</title>
<path fill="none" stroke="midnightblue" d="M887.189,-313.396C881.798,-303.662 874.589,-290.646 868.811,-280.214"/>
<polygon fill="midnightblue" stroke="midnightblue" points="871.722,-278.247 863.815,-271.195 865.599,-281.638 871.722,-278.247"/>
</g>
<!-- Node18 -->
<g id="node18" class="node"><title>Node18</title>
<polygon fill="white" stroke="#bfbfbf" points="926.5,-252 926.5,-271 1007.5,-271 1007.5,-252 926.5,-252"/>
<text text-anchor="middle" x="967" y="-259" font-family="Helvetica,sans-Serif" font-size="10.00">boost/type.hpp</text>
</g>
<!-- Node17&#45;&gt;Node18 -->
<g id="edge27" class="edge"><title>Node17&#45;&gt;Node18</title>
<path fill="none" stroke="midnightblue" d="M910.623,-313.396C922.183,-302.96 937.922,-288.751 949.833,-277.998"/>
<polygon fill="midnightblue" stroke="midnightblue" points="952.292,-280.494 957.369,-271.195 947.601,-275.298 952.292,-280.494"/>
</g>
<!-- Node19 -->
<g id="node19" class="node"><title>Node19</title>
<g id="a_node19"><a xlink:href="a00098.html" target="_top" xlink:title="hpp/corbaserver/server.hh">
<polygon fill="white" stroke="black" points="845,-185 845,-204 975,-204 975,-185 845,-185"/>
<text text-anchor="middle" x="910" y="-192" font-family="Helvetica,sans-Serif" font-size="10.00">hpp/corbaserver/server.hh</text>
</a>
</g>
</g>
<!-- Node17&#45;&gt;Node19 -->
<g id="edge29" class="edge"><title>Node17&#45;&gt;Node19</title>
<path fill="none" stroke="midnightblue" d="M956.214,-316.793C978.923,-309.531 1002.43,-297.365 1016,-277 1023.64,-265.534 1023.35,-257.651 1016,-246 1003.88,-226.804 982.248,-214.753 961.67,-207.262"/>
<polygon fill="midnightblue" stroke="midnightblue" points="962.609,-203.886 952.015,-204.037 960.391,-210.525 962.609,-203.886"/>
</g>
<!-- Node19&#45;&gt;Node5 -->
<g id="edge31" class="edge"><title>Node19&#45;&gt;Node5</title>
<path fill="none" stroke="midnightblue" d="M861.319,-184.981C823.447,-177.206 770.244,-163.727 727,-143 705.754,-132.817 704.883,-122.908 684,-112 656.628,-97.7029 623.723,-86.2478 598.13,-78.4733"/>
<polygon fill="midnightblue" stroke="midnightblue" points="598.937,-75.062 588.355,-75.5738 596.946,-81.7731 598.937,-75.062"/>
</g>
<!-- Node19&#45;&gt;Node6 -->
<g id="edge30" class="edge"><title>Node19&#45;&gt;Node6</title>
<path fill="none" stroke="midnightblue" d="M921.257,-184.78C949.353,-161.988 1017.87,-99.4025 983,-56 965.847,-34.6515 897.941,-22.8307 845.13,-16.7257"/>
<polygon fill="midnightblue" stroke="midnightblue" points="845.45,-13.2398 835.125,-15.6155 844.678,-20.1971 845.45,-13.2398"/>
</g>
<!-- Node20 -->
<g id="node20" class="node"><title>Node20</title>
<polygon fill="white" stroke="#bfbfbf" points="845.5,-56.5 845.5,-75.5 974.5,-75.5 974.5,-56.5 845.5,-56.5"/>
<text text-anchor="middle" x="910" y="-63.5" font-family="Helvetica,sans-Serif" font-size="10.00">hpp/corbaserver/config.hh</text>
</g>
<!-- Node19&#45;&gt;Node20 -->
<g id="edge32" class="edge"><title>Node19&#45;&gt;Node20</title>
<path fill="none" stroke="midnightblue" d="M910,-184.805C910,-164.494 910,-113.553 910,-85.7768"/>
<polygon fill="midnightblue" stroke="midnightblue" points="913.5,-85.7557 910,-75.7557 906.5,-85.7557 913.5,-85.7557"/>
</g>
<!-- Node21 -->
<g id="node21" class="node"><title>Node21</title>
<g id="a_node21"><a xlink:href="a00088.html" target="_top" xlink:title="hpp/corbaserver/problem\l&#45;solver&#45;map.hh">
<polygon fill="white" stroke="black" points="736,-112.5 736,-142.5 860,-142.5 860,-112.5 736,-112.5"/>
<text text-anchor="start" x="744" y="-130.5" font-family="Helvetica,sans-Serif" font-size="10.00">hpp/corbaserver/problem</text>
<text text-anchor="middle" x="798" y="-119.5" font-family="Helvetica,sans-Serif" font-size="10.00">&#45;solver&#45;map.hh</text>
</a>
</g>
</g>
<!-- Node19&#45;&gt;Node21 -->
<g id="edge33" class="edge"><title>Node19&#45;&gt;Node21</title>
<path fill="none" stroke="midnightblue" d="M894.895,-184.734C878.595,-175.274 852.129,-159.914 830.973,-147.636"/>
<polygon fill="midnightblue" stroke="midnightblue" points="832.682,-144.581 822.276,-142.589 829.169,-150.636 832.682,-144.581"/>
</g>
<!-- Node21&#45;&gt;Node5 -->
<g id="edge36" class="edge"><title>Node21&#45;&gt;Node5</title>
<path fill="none" stroke="midnightblue" d="M740.956,-112.475C698.021,-101.918 640.009,-87.6552 600.478,-77.9358"/>
<polygon fill="midnightblue" stroke="midnightblue" points="601.144,-74.4952 590.597,-75.5064 599.472,-81.2928 601.144,-74.4952"/>
</g>
<!-- Node21&#45;&gt;Node7 -->
<g id="edge38" class="edge"><title>Node21&#45;&gt;Node7</title>
<path fill="none" stroke="midnightblue" d="M748.987,-112.452C718.829,-103.261 679.643,-90.3279 646,-76 628.441,-68.5218 626.05,-62.2014 608,-56 541.998,-33.3235 462.106,-21.5111 410.457,-15.7817"/>
<polygon fill="midnightblue" stroke="midnightblue" points="410.514,-12.2678 400.198,-14.6825 409.769,-19.228 410.514,-12.2678"/>
</g>
<!-- Node21&#45;&gt;Node20 -->
<g id="edge37" class="edge"><title>Node21&#45;&gt;Node20</title>
<path fill="none" stroke="midnightblue" d="M824.542,-112.399C842.663,-102.773 866.536,-90.0902 884.443,-80.5772"/>
<polygon fill="midnightblue" stroke="midnightblue" points="886.514,-83.4403 893.703,-75.6578 883.23,-77.2585 886.514,-83.4403"/>
</g>
<!-- Node22 -->
<g id="node22" class="node"><title>Node22</title>
<polygon fill="white" stroke="#bfbfbf" points="655.5,-56.5 655.5,-75.5 690.5,-75.5 690.5,-56.5 655.5,-56.5"/>
<text text-anchor="middle" x="673" y="-63.5" font-family="Helvetica,sans-Serif" font-size="10.00">map</text>
</g>
<!-- Node21&#45;&gt;Node22 -->
<g id="edge34" class="edge"><title>Node21&#45;&gt;Node22</title>
<path fill="none" stroke="midnightblue" d="M768.377,-112.399C747.654,-102.535 720.191,-89.463 700.058,-79.8794"/>
<polygon fill="midnightblue" stroke="midnightblue" points="701.358,-76.6221 690.824,-75.4844 698.349,-82.9426 701.358,-76.6221"/>
</g>
<!-- Node23 -->
<g id="node23" class="node"><title>Node23</title>
<polygon fill="white" stroke="#bfbfbf" points="708.5,-56.5 708.5,-75.5 827.5,-75.5 827.5,-56.5 708.5,-56.5"/>
<text text-anchor="middle" x="768" y="-63.5" font-family="Helvetica,sans-Serif" font-size="10.00">boost/thread/mutex.hpp</text>
</g>
<!-- Node21&#45;&gt;Node23 -->
<g id="edge35" class="edge"><title>Node21&#45;&gt;Node23</title>
<path fill="none" stroke="midnightblue" d="M790.89,-112.399C786.711,-104.11 781.389,-93.5542 776.928,-84.7077"/>
<polygon fill="midnightblue" stroke="midnightblue" points="779.993,-83.0112 772.365,-75.6578 773.742,-86.1628 779.993,-83.0112"/>
</g>
<!-- Node24&#45;&gt;Node2 -->
<g id="edge40" class="edge"><title>Node24&#45;&gt;Node2</title>
<path fill="none" stroke="midnightblue" d="M463.777,-389.786C403.075,-383.493 302.299,-369.988 219,-344 217.128,-343.416 215.224,-342.742 213.327,-342.01"/>
<polygon fill="midnightblue" stroke="midnightblue" points="214.649,-338.769 204.08,-338.026 211.879,-345.197 214.649,-338.769"/>
</g>
<!-- Node24&#45;&gt;Node3 -->
<g id="edge41" class="edge"><title>Node24&#45;&gt;Node3</title>
<path fill="none" stroke="midnightblue" d="M463.991,-384.854C417.429,-375.99 348.641,-361.579 290,-344 287.426,-343.228 284.777,-342.365 282.132,-341.456"/>
<polygon fill="midnightblue" stroke="midnightblue" points="283.311,-338.16 272.717,-338.034 280.92,-344.739 283.311,-338.16"/>
</g>
<!-- Node24&#45;&gt;Node5 -->
<g id="edge47" class="edge"><title>Node24&#45;&gt;Node5</title>
<path fill="none" stroke="midnightblue" d="M539.72,-380.363C551.864,-371.359 566.269,-358.651 575,-344 594.04,-312.049 594,-299.694 594,-262.5 594,-262.5 594,-262.5 594,-193.5 594,-153.35 576.224,-108.946 564.988,-84.8892"/>
<polygon fill="midnightblue" stroke="midnightblue" points="568.013,-83.1043 560.508,-75.6255 561.711,-86.1518 568.013,-83.1043"/>
</g>
<!-- Node24&#45;&gt;Node8 -->
<g id="edge42" class="edge"><title>Node24&#45;&gt;Node8</title>
<path fill="none" stroke="midnightblue" d="M463.75,-387.546C423.149,-380.699 367.234,-367.701 323,-344 314.518,-339.455 272.328,-300.395 248.486,-278.04"/>
<polygon fill="midnightblue" stroke="midnightblue" points="250.863,-275.471 241.179,-271.174 246.069,-280.572 250.863,-275.471"/>
</g>
<!-- Node24&#45;&gt;Node13 -->
<g id="edge48" class="edge"><title>Node24&#45;&gt;Node13</title>
<path fill="none" stroke="midnightblue" d="M565.466,-380.476C605.415,-368.673 661.843,-352.001 699.148,-340.979"/>
<polygon fill="midnightblue" stroke="midnightblue" points="700.535,-344.219 709.134,-338.029 698.552,-337.506 700.535,-344.219"/>
</g>
<!-- Node24&#45;&gt;Node17 -->
<g id="edge50" class="edge"><title>Node24&#45;&gt;Node17</title>
<path fill="none" stroke="midnightblue" d="M572.002,-386.222C633.225,-376.689 735.972,-360.247 824,-344 824.101,-343.981 824.201,-343.963 824.302,-343.944"/>
<polygon fill="midnightblue" stroke="midnightblue" points="824.661,-347.438 833.838,-342.144 823.362,-340.56 824.661,-347.438"/>
</g>
<!-- Node25 -->
<g id="node25" class="node"><title>Node25</title>
<g id="a_node25"><a doxygen="/local/devel/hpp/install/share/doc/hpp-core/doxygen-html/hpp-core.doxytag:../../hpp-core/doxygen-html/" xlink:href="../../hpp-core/doxygen-html/a00173.html" target="_top" xlink:title="hpp/core/path&#45;vector.hh">
<polygon fill="white" stroke="black" points="332.5,-319 332.5,-338 451.5,-338 451.5,-319 332.5,-319"/>
<text text-anchor="middle" x="392" y="-326" font-family="Helvetica,sans-Serif" font-size="10.00">hpp/core/path&#45;vector.hh</text>
</a>
</g>
</g>
<!-- Node24&#45;&gt;Node25 -->
<g id="edge43" class="edge"><title>Node24&#45;&gt;Node25</title>
<path fill="none" stroke="midnightblue" d="M490.66,-380.396C468.943,-369.193 438.797,-353.641 417.559,-342.685"/>
<polygon fill="midnightblue" stroke="midnightblue" points="418.982,-339.481 408.49,-338.007 415.773,-345.702 418.982,-339.481"/>
</g>
<!-- Node26 -->
<g id="node26" class="node"><title>Node26</title>
<polygon fill="white" stroke="#bfbfbf" points="470,-313.5 470,-343.5 566,-343.5 566,-313.5 470,-313.5"/>
<text text-anchor="start" x="478" y="-331.5" font-family="Helvetica,sans-Serif" font-size="10.00">hpp/core_idl/paths</text>
<text text-anchor="middle" x="518" y="-320.5" font-family="Helvetica,sans-Serif" font-size="10.00">&#45;idl.hh</text>
</g>
<!-- Node24&#45;&gt;Node26 -->
<g id="edge49" class="edge"><title>Node24&#45;&gt;Node26</title>
<path fill="none" stroke="midnightblue" d="M518,-380.396C518,-372.645 518,-362.812 518,-353.86"/>
<polygon fill="midnightblue" stroke="midnightblue" points="521.5,-353.576 518,-343.577 514.5,-353.577 521.5,-353.576"/>
</g>
<!-- Node25&#45;&gt;Node5 -->
<g id="edge44" class="edge"><title>Node25&#45;&gt;Node5</title>
<path fill="none" stroke="midnightblue" d="M419.797,-318.846C441.977,-310.829 472.748,-297.09 494,-277 548.929,-225.075 555.933,-127.121 556.323,-85.9671"/>
<polygon fill="midnightblue" stroke="midnightblue" points="559.822,-85.7325 556.288,-75.7445 552.822,-85.7564 559.822,-85.7325"/>
</g>
<!-- Node25&#45;&gt;Node7 -->
<g id="edge45" class="edge"><title>Node25&#45;&gt;Node7</title>
<path fill="none" stroke="midnightblue" d="M395.825,-318.684C408.177,-288.958 444.906,-189.917 422,-112 412.208,-78.6907 387.658,-45.9857 371.689,-27.189"/>
<polygon fill="midnightblue" stroke="midnightblue" points="374.255,-24.8065 365.039,-19.5792 368.983,-29.4125 374.255,-24.8065"/>
</g>
<!-- Node25&#45;&gt;Node8 -->
<g id="edge46" class="edge"><title>Node25&#45;&gt;Node8</title>
<path fill="none" stroke="midnightblue" d="M370.753,-318.869C343.063,-307.619 294.442,-287.867 262.733,-274.985"/>
<polygon fill="midnightblue" stroke="midnightblue" points="263.662,-271.585 253.08,-271.064 261.027,-278.07 263.662,-271.585"/>
</g>
</g>
</svg>
