<?xml version="1.0" encoding="UTF-8" standalone="no"?>
<!DOCTYPE svg PUBLIC "-//W3C//DTD SVG 1.1//EN"
 "http://www.w3.org/Graphics/SVG/1.1/DTD/svg11.dtd">
<!-- Generated by graphviz version 2.38.0 (20140413.2041)
 -->
<!-- Title: paths.hh Pages: 1 -->
<svg width="998pt" height="408pt"
 viewBox="0.00 0.00 998.00 408.00" xmlns="http://www.w3.org/2000/svg" xmlns:xlink="http://www.w3.org/1999/xlink">
<g id="graph0" class="graph" transform="scale(1 1) rotate(0) translate(4 404)">
<title>paths.hh</title>
<polygon fill="white" stroke="none" points="-4,4 -4,-404 994,-404 994,4 -4,4"/>
<!-- Node1 -->
<g id="node1" class="node"><title>Node1</title>
<polygon fill="#bfbfbf" stroke="black" points="420,-380.5 420,-399.5 474,-399.5 474,-380.5 420,-380.5"/>
<text text-anchor="middle" x="447" y="-387.5" font-family="Helvetica,sans-Serif" font-size="10.00">paths.hh</text>
</g>
<!-- Node2 -->
<g id="node2" class="node"><title>Node2</title>
<polygon fill="white" stroke="#bfbfbf" points="152,-319 152,-338 196,-338 196,-319 152,-319"/>
<text text-anchor="middle" x="174" y="-326" font-family="Helvetica,sans-Serif" font-size="10.00">vector</text>
</g>
<!-- Node1&#45;&gt;Node2 -->
<g id="edge1" class="edge"><title>Node1&#45;&gt;Node2</title>
<path fill="none" stroke="midnightblue" d="M419.954,-386.238C374.64,-381.112 280.884,-368.365 205,-344 203.328,-343.463 201.628,-342.857 199.93,-342.204"/>
<polygon fill="midnightblue" stroke="midnightblue" points="200.989,-338.85 190.419,-338.124 198.229,-345.283 200.989,-338.85"/>
</g>
<!-- Node3 -->
<g id="node3" class="node"><title>Node3</title>
<polygon fill="white" stroke="#bfbfbf" points="214,-319 214,-338 262,-338 262,-319 214,-319"/>
<text text-anchor="middle" x="238" y="-326" font-family="Helvetica,sans-Serif" font-size="10.00">stdlib.h</text>
</g>
<!-- Node1&#45;&gt;Node3 -->
<g id="edge2" class="edge"><title>Node1&#45;&gt;Node3</title>
<path fill="none" stroke="midnightblue" d="M419.76,-383.487C384.822,-376.087 322.579,-361.792 271,-344 269.137,-343.357 267.232,-342.653 265.325,-341.912"/>
<polygon fill="midnightblue" stroke="midnightblue" points="266.521,-338.619 255.943,-338.02 263.838,-345.085 266.521,-338.619"/>
</g>
<!-- Node4 -->
<g id="node4" class="node"><title>Node4</title>
<g id="a_node4"><a doxygen="/local/devel/hpp/install/share/doc/hpp-core/doxygen-html/hpp-core.doxytag:../../hpp-core/doxygen-html/" xlink:href="../../hpp-core/doxygen-html/a00174.html" target="_top" xlink:title="hpp/core/path.hh">
<polygon fill="white" stroke="black" points="267.5,-252 267.5,-271 356.5,-271 356.5,-252 267.5,-252"/>
<text text-anchor="middle" x="312" y="-259" font-family="Helvetica,sans-Serif" font-size="10.00">hpp/core/path.hh</text>
</a>
</g>
</g>
<!-- Node1&#45;&gt;Node4 -->
<g id="edge3" class="edge"><title>Node1&#45;&gt;Node4</title>
<path fill="none" stroke="midnightblue" d="M444.645,-380.434C440.067,-365.166 428.656,-332.981 409,-313 391.951,-295.67 367.689,-283.042 347.696,-274.748"/>
<polygon fill="midnightblue" stroke="midnightblue" points="348.86,-271.445 338.274,-271.023 346.287,-277.954 348.86,-271.445"/>
</g>
<!-- Node5 -->
<g id="node5" class="node"><title>Node5</title>
<g id="a_node5"><a xlink:href="a00001.html" target="_top" xlink:title="hpp/core/fwd.hh">
<polygon fill="white" stroke="black" points="387,-56.5 387,-75.5 473,-75.5 473,-56.5 387,-56.5"/>
<text text-anchor="middle" x="430" y="-63.5" font-family="Helvetica,sans-Serif" font-size="10.00">hpp/core/fwd.hh</text>
</a>
</g>
</g>
<!-- Node1&#45;&gt;Node5 -->
<g id="edge20" class="edge"><title>Node1&#45;&gt;Node5</title>
<path fill="none" stroke="midnightblue" d="M449.18,-380.477C454.17,-360.187 466,-307.36 466,-262.5 466,-262.5 466,-262.5 466,-193.5 466,-153.52 449.16,-109.054 438.515,-84.9403"/>
<polygon fill="midnightblue" stroke="midnightblue" points="441.611,-83.2933 434.271,-75.6526 435.244,-86.2027 441.611,-83.2933"/>
</g>
<!-- Node12 -->
<g id="node12" class="node"><title>Node12</title>
<g id="a_node12"><a doxygen="/local/devel/hpp/install/share/doc/hpp-core/doxygen-html/hpp-core.doxytag:../../hpp-core/doxygen-html/" xlink:href="../../hpp-core/doxygen-html/a00173.html" target="_top" xlink:title="hpp/core/path&#45;vector.hh">
<polygon fill="white" stroke="black" points="280.5,-319 280.5,-338 399.5,-338 399.5,-319 280.5,-319"/>
<text text-anchor="middle" x="340" y="-326" font-family="Helvetica,sans-Serif" font-size="10.00">hpp/core/path&#45;vector.hh</text>
</a>
</g>
</g>
<!-- Node1&#45;&gt;Node12 -->
<g id="edge16" class="edge"><title>Node1&#45;&gt;Node12</title>
<path fill="none" stroke="midnightblue" d="M431.67,-380.475C414.03,-370.666 384.84,-354.435 364.142,-342.925"/>
<polygon fill="midnightblue" stroke="midnightblue" points="365.743,-339.81 355.302,-338.009 362.341,-345.928 365.743,-339.81"/>
</g>
<!-- Node13 -->
<g id="node13" class="node"><title>Node13</title>
<g id="a_node13"><a xlink:href="a00075.html" target="_top" xlink:title="hpp/corbaserver/conversions.hh">
<polygon fill="white" stroke="black" points="497.5,-252 497.5,-271 652.5,-271 652.5,-252 497.5,-252"/>
<text text-anchor="middle" x="575" y="-259" font-family="Helvetica,sans-Serif" font-size="10.00">hpp/corbaserver/conversions.hh</text>
</a>
</g>
</g>
<!-- Node1&#45;&gt;Node13 -->
<g id="edge21" class="edge"><title>Node1&#45;&gt;Node13</title>
<path fill="none" stroke="midnightblue" d="M455.798,-380.305C477.081,-359.272 531.599,-305.392 558.907,-278.404"/>
<polygon fill="midnightblue" stroke="midnightblue" points="561.488,-280.774 566.14,-271.256 556.568,-275.796 561.488,-280.774"/>
</g>
<!-- Node16 -->
<g id="node16" class="node"><title>Node16</title>
<polygon fill="white" stroke="#bfbfbf" points="570,-313.5 570,-343.5 666,-343.5 666,-313.5 570,-313.5"/>
<text text-anchor="start" x="578" y="-331.5" font-family="Helvetica,sans-Serif" font-size="10.00">hpp/core_idl/paths</text>
<text text-anchor="middle" x="618" y="-320.5" font-family="Helvetica,sans-Serif" font-size="10.00">&#45;idl.hh</text>
</g>
<!-- Node1&#45;&gt;Node16 -->
<g id="edge25" class="edge"><title>Node1&#45;&gt;Node16</title>
<path fill="none" stroke="midnightblue" d="M471.5,-380.475C496.608,-371.739 536.359,-357.907 568.123,-346.855"/>
<polygon fill="midnightblue" stroke="midnightblue" points="569.404,-350.115 577.699,-343.523 567.104,-343.504 569.404,-350.115"/>
</g>
<!-- Node17 -->
<g id="node17" class="node"><title>Node17</title>
<g id="a_node17"><a xlink:href="a00096.html" target="_top" xlink:title="hpp/corbaserver/servant\l&#45;base.hh">
<polygon fill="white" stroke="black" points="705,-246.5 705,-276.5 827,-276.5 827,-246.5 705,-246.5"/>
<text text-anchor="start" x="713" y="-264.5" font-family="Helvetica,sans-Serif" font-size="10.00">hpp/corbaserver/servant</text>
<text text-anchor="middle" x="766" y="-253.5" font-family="Helvetica,sans-Serif" font-size="10.00">&#45;base.hh</text>
</a>
</g>
</g>
<!-- Node1&#45;&gt;Node17 -->
<g id="edge26" class="edge"><title>Node1&#45;&gt;Node17</title>
<path fill="none" stroke="midnightblue" d="M463.152,-380.362C478.84,-371.759 503.134,-357.868 523,-344 540.872,-331.524 541.498,-322.733 561,-313 602.963,-292.057 654.19,-279.434 694.937,-272.045"/>
<polygon fill="midnightblue" stroke="midnightblue" points="695.544,-275.492 704.792,-270.323 694.338,-268.597 695.544,-275.492"/>
</g>
<!-- Node4&#45;&gt;Node5 -->
<g id="edge4" class="edge"><title>Node4&#45;&gt;Node5</title>
<path fill="none" stroke="midnightblue" d="M325.328,-251.891C338.459,-242.828 358.341,-227.468 371,-210 378.712,-199.358 409.127,-121.38 423.016,-85.2657"/>
<polygon fill="midnightblue" stroke="midnightblue" points="426.439,-86.1128 426.752,-75.5225 419.903,-83.6062 426.439,-86.1128"/>
</g>
<!-- Node7 -->
<g id="node7" class="node"><title>Node7</title>
<g id="a_node7"><a doxygen="/local/devel/hpp/install/share/doc/hpp-core/doxygen-html/hpp-core.doxytag:../../hpp-core/doxygen-html/" xlink:href="../../hpp-core/doxygen-html/a00001.html" target="_top" xlink:title="hpp/core/fwd.hh">
<polygon fill="white" stroke="black" points="144,-0.5 144,-19.5 230,-19.5 230,-0.5 144,-0.5"/>
<text text-anchor="middle" x="187" y="-7.5" font-family="Helvetica,sans-Serif" font-size="10.00">hpp/core/fwd.hh</text>
</a>
</g>
</g>
<!-- Node4&#45;&gt;Node7 -->
<g id="edge7" class="edge"><title>Node4&#45;&gt;Node7</title>
<path fill="none" stroke="midnightblue" d="M267.393,-255.998C208.009,-249.151 107.29,-234.286 80,-210 46.5789,-180.258 37.3331,-152.185 57,-112 77.7792,-69.5426 125.97,-39.7887 157.48,-24.0451"/>
<polygon fill="midnightblue" stroke="midnightblue" points="159.189,-27.1072 166.675,-19.6104 156.148,-20.8022 159.189,-27.1072"/>
</g>
<!-- Node8 -->
<g id="node8" class="node"><title>Node8</title>
<g id="a_node8"><a doxygen="/local/devel/hpp/install/share/doc/hpp-core/doxygen-html/hpp-core.doxytag:../../hpp-core/doxygen-html/" xlink:href="../../hpp-core/doxygen-html/a00123.html" target="_top" xlink:title="hpp/core/constraint\l&#45;set.hh">
<polygon fill="white" stroke="black" points="89,-179.5 89,-209.5 189,-209.5 189,-179.5 89,-179.5"/>
<text text-anchor="start" x="97" y="-197.5" font-family="Helvetica,sans-Serif" font-size="10.00">hpp/core/constraint</text>
<text text-anchor="middle" x="139" y="-186.5" font-family="Helvetica,sans-Serif" font-size="10.00">&#45;set.hh</text>
</a>
</g>
</g>
<!-- Node4&#45;&gt;Node8 -->
<g id="edge8" class="edge"><title>Node4&#45;&gt;Node8</title>
<path fill="none" stroke="midnightblue" d="M289.027,-251.869C262.843,-242.031 219.351,-225.689 185.917,-213.128"/>
<polygon fill="midnightblue" stroke="midnightblue" points="186.928,-209.769 176.336,-209.528 184.466,-216.322 186.928,-209.769"/>
</g>
<!-- Node10 -->
<g id="node10" class="node"><title>Node10</title>
<g id="a_node10"><a doxygen="/local/devel/hpp/install/share/doc/hpp-core/doxygen-html/hpp-core.doxytag:../../hpp-core/doxygen-html/" xlink:href="../../hpp-core/doxygen-html/a00184.html" target="_top" xlink:title="hpp/core/projection\l&#45;error.hh">
<polygon fill="white" stroke="black" points="262.5,-179.5 262.5,-209.5 361.5,-209.5 361.5,-179.5 262.5,-179.5"/>
<text text-anchor="start" x="270.5" y="-197.5" font-family="Helvetica,sans-Serif" font-size="10.00">hpp/core/projection</text>
<text text-anchor="middle" x="312" y="-186.5" font-family="Helvetica,sans-Serif" font-size="10.00">&#45;error.hh</text>
</a>
</g>
</g>
<!-- Node4&#45;&gt;Node10 -->
<g id="edge12" class="edge"><title>Node4&#45;&gt;Node10</title>
<path fill="none" stroke="midnightblue" d="M312,-251.734C312,-243.541 312,-230.923 312,-219.714"/>
<polygon fill="midnightblue" stroke="midnightblue" points="315.5,-219.589 312,-209.589 308.5,-219.589 315.5,-219.589"/>
</g>
<!-- Node11 -->
<g id="node11" class="node"><title>Node11</title>
<g id="a_node11"><a doxygen="/local/devel/hpp/install/share/doc/hpp-core/doxygen-html/hpp-core.doxytag:../../hpp-core/doxygen-html/" xlink:href="../../hpp-core/doxygen-html/a00208.html" target="_top" xlink:title="hpp/core/time&#45;parameterization.hh">
<polygon fill="white" stroke="black" points="198,-118 198,-137 362,-137 362,-118 198,-118"/>
<text text-anchor="middle" x="280" y="-125" font-family="Helvetica,sans-Serif" font-size="10.00">hpp/core/time&#45;parameterization.hh</text>
</a>
</g>
</g>
<!-- Node4&#45;&gt;Node11 -->
<g id="edge13" class="edge"><title>Node4&#45;&gt;Node11</title>
<path fill="none" stroke="midnightblue" d="M295.776,-251.985C281.525,-243.492 261.739,-228.983 253,-210 243.113,-188.523 255.845,-162.37 266.961,-145.582"/>
<polygon fill="midnightblue" stroke="midnightblue" points="269.897,-147.493 272.817,-137.308 264.183,-143.449 269.897,-147.493"/>
</g>
<!-- Node6 -->
<g id="node6" class="node"><title>Node6</title>
<polygon fill="white" stroke="#bfbfbf" points="620,-0.5 620,-19.5 732,-19.5 732,-0.5 620,-0.5"/>
<text text-anchor="middle" x="676" y="-7.5" font-family="Helvetica,sans-Serif" font-size="10.00">omniORB4/CORBA.h</text>
</g>
<!-- Node5&#45;&gt;Node6 -->
<g id="edge5" class="edge"><title>Node5&#45;&gt;Node6</title>
<path fill="none" stroke="midnightblue" d="M468.979,-56.4435C511.894,-47.0234 580.946,-31.8656 627.369,-21.6752"/>
<polygon fill="midnightblue" stroke="midnightblue" points="628.186,-25.0792 637.203,-19.5164 626.685,-18.242 628.186,-25.0792"/>
</g>
<!-- Node5&#45;&gt;Node7 -->
<g id="edge6" class="edge"><title>Node5&#45;&gt;Node7</title>
<path fill="none" stroke="midnightblue" d="M391.496,-56.4435C349.194,-47.0431 281.181,-31.9291 235.327,-21.7393"/>
<polygon fill="midnightblue" stroke="midnightblue" points="235.845,-18.2692 225.324,-19.5164 234.327,-25.1025 235.845,-18.2692"/>
</g>
<!-- Node9 -->
<g id="node9" class="node"><title>Node9</title>
<g id="a_node9"><a doxygen="/local/devel/hpp/install/share/doc/hpp-core/doxygen-html/hpp-core.doxytag:../../hpp-core/doxygen-html/" xlink:href="../../hpp-core/doxygen-html/a00124.html" target="_top" xlink:title="hpp/core/constraint.hh">
<polygon fill="white" stroke="black" points="66.5,-118 66.5,-137 179.5,-137 179.5,-118 66.5,-118"/>
<text text-anchor="middle" x="123" y="-125" font-family="Helvetica,sans-Serif" font-size="10.00">hpp/core/constraint.hh</text>
</a>
</g>
</g>
<!-- Node8&#45;&gt;Node9 -->
<g id="edge9" class="edge"><title>Node8&#45;&gt;Node9</title>
<path fill="none" stroke="midnightblue" d="M135.528,-179.396C133.206,-169.963 130.126,-157.448 127.6,-147.189"/>
<polygon fill="midnightblue" stroke="midnightblue" points="130.929,-146.068 125.14,-137.195 124.132,-147.741 130.929,-146.068"/>
</g>
<!-- Node9&#45;&gt;Node5 -->
<g id="edge10" class="edge"><title>Node9&#45;&gt;Node5</title>
<path fill="none" stroke="midnightblue" d="M160.998,-117.936C170.156,-115.932 179.918,-113.845 189,-112 253.448,-98.907 327.891,-85.2261 376.787,-76.4366"/>
<polygon fill="midnightblue" stroke="midnightblue" points="377.596,-79.8475 386.821,-74.6372 376.36,-72.9575 377.596,-79.8475"/>
</g>
<!-- Node9&#45;&gt;Node7 -->
<g id="edge11" class="edge"><title>Node9&#45;&gt;Node7</title>
<path fill="none" stroke="midnightblue" d="M127.81,-117.819C138.281,-98.9224 163.313,-53.7483 177.236,-28.6206"/>
<polygon fill="midnightblue" stroke="midnightblue" points="180.348,-30.2253 182.134,-19.782 174.226,-26.8326 180.348,-30.2253"/>
</g>
<!-- Node11&#45;&gt;Node5 -->
<g id="edge14" class="edge"><title>Node11&#45;&gt;Node5</title>
<path fill="none" stroke="midnightblue" d="M301.491,-117.975C327.11,-107.813 370.11,-90.7564 399.245,-79.1996"/>
<polygon fill="midnightblue" stroke="midnightblue" points="400.544,-82.4497 408.549,-75.5091 397.963,-75.9429 400.544,-82.4497"/>
</g>
<!-- Node11&#45;&gt;Node7 -->
<g id="edge15" class="edge"><title>Node11&#45;&gt;Node7</title>
<path fill="none" stroke="midnightblue" d="M273.01,-117.819C257.593,-98.6715 220.451,-52.5443 200.391,-27.6306"/>
<polygon fill="midnightblue" stroke="midnightblue" points="203.069,-25.3759 194.071,-19.782 197.617,-29.766 203.069,-25.3759"/>
</g>
<!-- Node12&#45;&gt;Node4 -->
<g id="edge19" class="edge"><title>Node12&#45;&gt;Node4</title>
<path fill="none" stroke="midnightblue" d="M336.224,-318.734C332.025,-308.988 325.13,-292.981 319.768,-280.532"/>
<polygon fill="midnightblue" stroke="midnightblue" points="322.887,-278.927 315.716,-271.127 316.458,-281.696 322.887,-278.927"/>
</g>
<!-- Node12&#45;&gt;Node5 -->
<g id="edge17" class="edge"><title>Node12&#45;&gt;Node5</title>
<path fill="none" stroke="midnightblue" d="M344.67,-318.674C349.885,-308.683 358.453,-291.862 365,-277 390.563,-218.968 397.142,-204.13 414,-143 419.365,-123.545 423.926,-100.86 426.789,-85.3729"/>
<polygon fill="midnightblue" stroke="midnightblue" points="430.236,-85.9781 428.561,-75.5165 423.347,-84.7395 430.236,-85.9781"/>
</g>
<!-- Node12&#45;&gt;Node7 -->
<g id="edge18" class="edge"><title>Node12&#45;&gt;Node7</title>
<path fill="none" stroke="midnightblue" d="M309.228,-318.962C225.534,-295.308 0,-228.506 0,-195.5 0,-195.5 0,-195.5 0,-126.5 0,-63.2759 78.3324,-33.5095 133.601,-20.3759"/>
<polygon fill="midnightblue" stroke="midnightblue" points="134.644,-23.7285 143.628,-18.1128 133.103,-16.9003 134.644,-23.7285"/>
</g>
<!-- Node13&#45;&gt;Node5 -->
<g id="edge23" class="edge"><title>Node13&#45;&gt;Node5</title>
<path fill="none" stroke="midnightblue" d="M564.073,-251.784C552.869,-242.406 535.5,-226.59 524,-210 496.799,-170.762 508.128,-150.579 480,-112 471.805,-100.76 460.412,-90.238 450.571,-82.1988"/>
<polygon fill="midnightblue" stroke="midnightblue" points="452.469,-79.239 442.441,-75.8177 448.146,-84.7453 452.469,-79.239"/>
</g>
<!-- Node14 -->
<g id="node14" class="node"><title>Node14</title>
<polygon fill="white" stroke="#bfbfbf" points="532.5,-179.5 532.5,-209.5 625.5,-209.5 625.5,-179.5 532.5,-179.5"/>
<text text-anchor="start" x="540.5" y="-197.5" font-family="Helvetica,sans-Serif" font-size="10.00">hpp/util/exception</text>
<text text-anchor="middle" x="579" y="-186.5" font-family="Helvetica,sans-Serif" font-size="10.00">&#45;factory.hh</text>
</g>
<!-- Node13&#45;&gt;Node14 -->
<g id="edge22" class="edge"><title>Node13&#45;&gt;Node14</title>
<path fill="none" stroke="midnightblue" d="M575.539,-251.734C576.044,-243.541 576.82,-230.923 577.51,-219.714"/>
<polygon fill="midnightblue" stroke="midnightblue" points="581.012,-219.785 578.133,-209.589 574.025,-219.355 581.012,-219.785"/>
</g>
<!-- Node15 -->
<g id="node15" class="node"><title>Node15</title>
<polygon fill="white" stroke="#bfbfbf" points="643.5,-185 643.5,-204 742.5,-204 742.5,-185 643.5,-185"/>
<text text-anchor="middle" x="693" y="-192" font-family="Helvetica,sans-Serif" font-size="10.00">hpp/common&#45;idl.hh</text>
</g>
<!-- Node13&#45;&gt;Node15 -->
<g id="edge24" class="edge"><title>Node13&#45;&gt;Node15</title>
<path fill="none" stroke="midnightblue" d="M590.914,-251.734C610.819,-240.769 645.109,-221.881 668.403,-209.049"/>
<polygon fill="midnightblue" stroke="midnightblue" points="670.268,-212.018 677.338,-204.127 666.89,-205.887 670.268,-212.018"/>
</g>
<!-- Node17&#45;&gt;Node15 -->
<g id="edge28" class="edge"><title>Node17&#45;&gt;Node15</title>
<path fill="none" stroke="midnightblue" d="M750.16,-246.396C738.44,-235.96 722.482,-221.751 710.405,-210.998"/>
<polygon fill="midnightblue" stroke="midnightblue" points="712.561,-208.231 702.765,-204.195 707.906,-213.459 712.561,-208.231"/>
</g>
<!-- Node18 -->
<g id="node18" class="node"><title>Node18</title>
<polygon fill="white" stroke="#bfbfbf" points="760.5,-185 760.5,-204 841.5,-204 841.5,-185 760.5,-185"/>
<text text-anchor="middle" x="801" y="-192" font-family="Helvetica,sans-Serif" font-size="10.00">boost/type.hpp</text>
</g>
<!-- Node17&#45;&gt;Node18 -->
<g id="edge27" class="edge"><title>Node17&#45;&gt;Node18</title>
<path fill="none" stroke="midnightblue" d="M773.594,-246.396C778.836,-236.662 785.844,-223.646 791.462,-213.214"/>
<polygon fill="midnightblue" stroke="midnightblue" points="794.659,-214.659 796.318,-204.195 788.496,-211.34 794.659,-214.659"/>
</g>
<!-- Node19 -->
<g id="node19" class="node"><title>Node19</title>
<g id="a_node19"><a xlink:href="a00098.html" target="_top" xlink:title="hpp/corbaserver/server.hh">
<polygon fill="white" stroke="black" points="860,-185 860,-204 990,-204 990,-185 860,-185"/>
<text text-anchor="middle" x="925" y="-192" font-family="Helvetica,sans-Serif" font-size="10.00">hpp/corbaserver/server.hh</text>
</a>
</g>
</g>
<!-- Node17&#45;&gt;Node19 -->
<g id="edge29" class="edge"><title>Node17&#45;&gt;Node19</title>
<path fill="none" stroke="midnightblue" d="M800.501,-246.396C828.646,-234.89 868.011,-218.797 894.895,-207.807"/>
<polygon fill="midnightblue" stroke="midnightblue" points="896.259,-211.031 904.191,-204.007 893.61,-204.551 896.259,-211.031"/>
</g>
<!-- Node19&#45;&gt;Node5 -->
<g id="edge31" class="edge"><title>Node19&#45;&gt;Node5</title>
<path fill="none" stroke="midnightblue" d="M883.592,-184.939C872.99,-182.87 861.591,-180.753 851,-179 733.301,-159.521 699.14,-177.708 585,-143 571.694,-138.954 496.195,-100.819 455.688,-80.1571"/>
<polygon fill="midnightblue" stroke="midnightblue" points="457.168,-76.983 446.67,-75.5511 453.983,-83.2169 457.168,-76.983"/>
</g>
<!-- Node19&#45;&gt;Node6 -->
<g id="edge30" class="edge"><title>Node19&#45;&gt;Node6</title>
<path fill="none" stroke="midnightblue" d="M926.228,-184.944C929.157,-160.888 933.843,-92.0617 898,-56 876.49,-34.3583 799.482,-22.4186 742.165,-16.371"/>
<polygon fill="midnightblue" stroke="midnightblue" points="742.372,-12.8742 732.07,-15.3446 741.664,-19.8383 742.372,-12.8742"/>
</g>
<!-- Node20 -->
<g id="node20" class="node"><title>Node20</title>
<polygon fill="white" stroke="#bfbfbf" points="759.5,-56.5 759.5,-75.5 888.5,-75.5 888.5,-56.5 759.5,-56.5"/>
<text text-anchor="middle" x="824" y="-63.5" font-family="Helvetica,sans-Serif" font-size="10.00">hpp/corbaserver/config.hh</text>
</g>
<!-- Node19&#45;&gt;Node20 -->
<g id="edge32" class="edge"><title>Node19&#45;&gt;Node20</title>
<path fill="none" stroke="midnightblue" d="M918.058,-184.805C901.409,-163.952 858.982,-110.815 837.258,-83.6051"/>
<polygon fill="midnightblue" stroke="midnightblue" points="839.965,-81.3866 830.991,-75.7557 834.495,-85.7542 839.965,-81.3866"/>
</g>
<!-- Node21 -->
<g id="node21" class="node"><title>Node21</title>
<g id="a_node21"><a xlink:href="a00088.html" target="_top" xlink:title="hpp/corbaserver/problem\l&#45;solver&#45;map.hh">
<polygon fill="white" stroke="black" points="594,-112.5 594,-142.5 718,-142.5 718,-112.5 594,-112.5"/>
<text text-anchor="start" x="602" y="-130.5" font-family="Helvetica,sans-Serif" font-size="10.00">hpp/corbaserver/problem</text>
<text text-anchor="middle" x="656" y="-119.5" font-family="Helvetica,sans-Serif" font-size="10.00">&#45;solver&#45;map.hh</text>
</a>
</g>
</g>
<!-- Node19&#45;&gt;Node21 -->
<g id="edge33" class="edge"><title>Node19&#45;&gt;Node21</title>
<path fill="none" stroke="midnightblue" d="M889.556,-184.936C847.605,-174.799 776.805,-157.691 724.13,-144.963"/>
<polygon fill="midnightblue" stroke="midnightblue" points="724.726,-141.506 714.183,-142.559 723.081,-148.31 724.726,-141.506"/>
</g>
<!-- Node21&#45;&gt;Node5 -->
<g id="edge36" class="edge"><title>Node21&#45;&gt;Node5</title>
<path fill="none" stroke="midnightblue" d="M602.727,-112.475C562.886,-101.986 509.145,-87.8367 472.245,-78.1221"/>
<polygon fill="midnightblue" stroke="midnightblue" points="472.871,-74.6678 462.31,-75.5064 471.089,-81.4371 472.871,-74.6678"/>
</g>
<!-- Node21&#45;&gt;Node7 -->
<g id="edge38" class="edge"><title>Node21&#45;&gt;Node7</title>
<path fill="none" stroke="midnightblue" d="M627.171,-112.379C593.236,-96.3366 534.8,-70.5087 482,-56 399.293,-33.2734 300.18,-21.1212 240.473,-15.3714"/>
<polygon fill="midnightblue" stroke="midnightblue" points="240.44,-11.853 230.157,-14.404 239.786,-18.8224 240.44,-11.853"/>
</g>
<!-- Node21&#45;&gt;Node20 -->
<g id="edge37" class="edge"><title>Node21&#45;&gt;Node20</title>
<path fill="none" stroke="midnightblue" d="M695.814,-112.399C724.505,-102.238 762.81,-88.6716 790.055,-79.0221"/>
<polygon fill="midnightblue" stroke="midnightblue" points="791.297,-82.2955 799.555,-75.6578 788.96,-75.6971 791.297,-82.2955"/>
</g>
<!-- Node22 -->
<g id="node22" class="node"><title>Node22</title>
<polygon fill="white" stroke="#bfbfbf" points="557.5,-56.5 557.5,-75.5 592.5,-75.5 592.5,-56.5 557.5,-56.5"/>
<text text-anchor="middle" x="575" y="-63.5" font-family="Helvetica,sans-Serif" font-size="10.00">map</text>
</g>
<!-- Node21&#45;&gt;Node22 -->
<g id="edge34" class="edge"><title>Node21&#45;&gt;Node22</title>
<path fill="none" stroke="midnightblue" d="M636.804,-112.399C624.184,-103.129 607.707,-91.0254 594.939,-81.6469"/>
<polygon fill="midnightblue" stroke="midnightblue" points="596.918,-78.7572 586.786,-75.6578 592.773,-84.3987 596.918,-78.7572"/>
</g>
<!-- Node23 -->
<g id="node23" class="node"><title>Node23</title>
<polygon fill="white" stroke="#bfbfbf" points="610.5,-56.5 610.5,-75.5 729.5,-75.5 729.5,-56.5 610.5,-56.5"/>
<text text-anchor="middle" x="670" y="-63.5" font-family="Helvetica,sans-Serif" font-size="10.00">boost/thread/mutex.hpp</text>
</g>
<!-- Node21&#45;&gt;Node23 -->
<g id="edge35" class="edge"><title>Node21&#45;&gt;Node23</title>
<path fill="none" stroke="midnightblue" d="M659.318,-112.399C661.205,-104.377 663.592,-94.2328 665.631,-85.569"/>
<polygon fill="midnightblue" stroke="midnightblue" points="669.079,-86.1936 667.963,-75.6578 662.265,-84.5903 669.079,-86.1936"/>
</g>
</g>
</svg>
