<?xml version="1.0" encoding="UTF-8" standalone="no"?>
<!DOCTYPE svg PUBLIC "-//W3C//DTD SVG 1.1//EN"
 "http://www.w3.org/Graphics/SVG/1.1/DTD/svg11.dtd">
<!-- Generated by graphviz version 2.38.0 (20140413.2041)
 -->
<!-- Title: common.idl Pages: 1 -->
<svg width="739pt" height="308pt"
 viewBox="0.00 0.00 738.95 308.00" xmlns="http://www.w3.org/2000/svg" xmlns:xlink="http://www.w3.org/1999/xlink">
<g id="graph0" class="graph" transform="scale(1 1) rotate(0) translate(4 304)">
<title>common.idl</title>
<polygon fill="white" stroke="none" points="-4,4 -4,-304 734.95,-304 734.95,4 -4,4"/>
<!-- Node1 -->
<g id="node1" class="node"><title>Node1</title>
<polygon fill="#bfbfbf" stroke="black" points="315.45,-280.5 315.45,-299.5 382.45,-299.5 382.45,-280.5 315.45,-280.5"/>
<text text-anchor="middle" x="348.95" y="-287.5" font-family="Helvetica,sans-Serif" font-size="10.00">common.idl</text>
</g>
<!-- Node2 -->
<g id="node2" class="node"><title>Node2</title>
<g id="a_node2"><a xlink:href="a00074.html" target="_top" xlink:title="constraints.idl">
<polygon fill="white" stroke="black" points="29.4505,-224.5 29.4505,-243.5 106.45,-243.5 106.45,-224.5 29.4505,-224.5"/>
<text text-anchor="middle" x="67.9505" y="-231.5" font-family="Helvetica,sans-Serif" font-size="10.00">constraints.idl</text>
</a>
</g>
</g>
<!-- Node1&#45;&gt;Node2 -->
<g id="edge1" class="edge"><title>Node1&#45;&gt;Node2</title>
<path fill="none" stroke="midnightblue" d="M305.295,-280.611C250.828,-270.144 158.542,-252.409 106.548,-242.417"/>
<polygon fill="midnightblue" stroke="midnightblue" points="304.854,-284.09 315.334,-282.54 306.175,-277.216 304.854,-284.09"/>
</g>
<!-- Node3 -->
<g id="node3" class="node"><title>Node3</title>
<g id="a_node3"><a xlink:href="a00089.html" target="_top" xlink:title="problem.idl">
<polygon fill="white" stroke="black" points="366.95,-0.5 366.95,-19.5 430.95,-19.5 430.95,-0.5 366.95,-0.5"/>
<text text-anchor="middle" x="398.95" y="-7.5" font-family="Helvetica,sans-Serif" font-size="10.00">problem.idl</text>
</a>
</g>
</g>
<!-- Node1&#45;&gt;Node3 -->
<g id="edge9" class="edge"><title>Node1&#45;&gt;Node3</title>
<path fill="none" stroke="midnightblue" d="M305.263,-288.74C225.78,-287.366 61.8537,-280.103 19.9505,-244 -2.85149,-224.354 0.950495,-209.098 0.950495,-179 0.950495,-179 0.950495,-179 0.950495,-121 0.950495,-45.2798 271.968,-19.6233 366.718,-12.9673"/>
<polygon fill="midnightblue" stroke="midnightblue" points="305.388,-292.242 315.439,-288.891 305.492,-285.243 305.388,-292.242"/>
</g>
<!-- Node4 -->
<g id="node4" class="node"><title>Node4</title>
<g id="a_node4"><a xlink:href="a00065.html" target="_top" xlink:title="_constraints.idl">
<polygon fill="white" stroke="black" points="80.4505,-168.5 80.4505,-187.5 163.45,-187.5 163.45,-168.5 80.4505,-168.5"/>
<text text-anchor="middle" x="121.95" y="-175.5" font-family="Helvetica,sans-Serif" font-size="10.00">_constraints.idl</text>
</a>
</g>
</g>
<!-- Node1&#45;&gt;Node4 -->
<g id="edge12" class="edge"><title>Node1&#45;&gt;Node4</title>
<path fill="none" stroke="midnightblue" d="M305.3,-288.364C263.861,-285.683 201.719,-276.039 158.95,-244 139.621,-229.52 128.847,-201.768 124.401,-187.674"/>
<polygon fill="midnightblue" stroke="midnightblue" points="305.191,-291.864 315.365,-288.906 305.567,-284.874 305.191,-291.864"/>
</g>
<!-- Node5 -->
<g id="node5" class="node"><title>Node5</title>
<g id="a_node5"><a xlink:href="a00100.html" target="_top" xlink:title="steering_methods.idl">
<polygon fill="white" stroke="black" points="193.45,-112.5 193.45,-131.5 300.45,-131.5 300.45,-112.5 193.45,-112.5"/>
<text text-anchor="middle" x="246.95" y="-119.5" font-family="Helvetica,sans-Serif" font-size="10.00">steering_methods.idl</text>
</a>
</g>
</g>
<!-- Node1&#45;&gt;Node5 -->
<g id="edge29" class="edge"><title>Node1&#45;&gt;Node5</title>
<path fill="none" stroke="midnightblue" d="M305.057,-285.984C276.281,-281.459 240.645,-270.458 221.95,-244 196.698,-208.262 227.567,-152.645 241.149,-131.525"/>
<polygon fill="midnightblue" stroke="midnightblue" points="304.925,-289.498 315.304,-287.374 305.866,-282.561 304.925,-289.498"/>
</g>
<!-- Node6 -->
<g id="node6" class="node"><title>Node6</title>
<g id="a_node6"><a xlink:href="a00066.html" target="_top" xlink:title="_problem.idl">
<polygon fill="white" stroke="black" points="332.45,-56.5 332.45,-75.5 401.45,-75.5 401.45,-56.5 332.45,-56.5"/>
<text text-anchor="middle" x="366.95" y="-63.5" font-family="Helvetica,sans-Serif" font-size="10.00">_problem.idl</text>
</a>
</g>
</g>
<!-- Node1&#45;&gt;Node6 -->
<g id="edge13" class="edge"><title>Node1&#45;&gt;Node6</title>
<path fill="none" stroke="midnightblue" d="M392.292,-281.596C414.118,-275.44 438.7,-264.249 451.95,-244 476.479,-206.517 431.631,-225.763 385.95,-132 376.682,-112.975 371.054,-88.569 368.529,-75.7546"/>
<polygon fill="midnightblue" stroke="midnightblue" points="391.336,-278.228 382.508,-284.086 393.062,-285.012 391.336,-278.228"/>
</g>
<!-- Node7 -->
<g id="node7" class="node"><title>Node7</title>
<g id="a_node7"><a xlink:href="a00081.html" target="_top" xlink:title="obstacle.idl">
<polygon fill="white" stroke="black" points="238.95,-224.5 238.95,-243.5 304.95,-243.5 304.95,-224.5 238.95,-224.5"/>
<text text-anchor="middle" x="271.95" y="-231.5" font-family="Helvetica,sans-Serif" font-size="10.00">obstacle.idl</text>
</a>
</g>
</g>
<!-- Node1&#45;&gt;Node7 -->
<g id="edge8" class="edge"><title>Node1&#45;&gt;Node7</title>
<path fill="none" stroke="midnightblue" d="M328.05,-274.342C314.039,-264.517 296.068,-251.913 284.291,-243.655"/>
<polygon fill="midnightblue" stroke="midnightblue" points="326.382,-277.448 336.579,-280.324 330.401,-271.717 326.382,-277.448"/>
</g>
<!-- Node8 -->
<g id="node8" class="node"><title>Node8</title>
<g id="a_node8"><a xlink:href="a00093.html" target="_top" xlink:title="robot.idl">
<polygon fill="white" stroke="black" points="323.45,-224.5 323.45,-243.5 374.45,-243.5 374.45,-224.5 323.45,-224.5"/>
<text text-anchor="middle" x="348.95" y="-231.5" font-family="Helvetica,sans-Serif" font-size="10.00">robot.idl</text>
</a>
</g>
</g>
<!-- Node1&#45;&gt;Node8 -->
<g id="edge10" class="edge"><title>Node1&#45;&gt;Node8</title>
<path fill="none" stroke="midnightblue" d="M348.95,-269.805C348.95,-260.91 348.95,-250.78 348.95,-243.751"/>
<polygon fill="midnightblue" stroke="midnightblue" points="345.451,-270.083 348.95,-280.083 352.451,-270.083 345.451,-270.083"/>
</g>
<!-- Node9 -->
<g id="node9" class="node"><title>Node9</title>
<g id="a_node9"><a xlink:href="a00101.html" target="_top" xlink:title="tools.idl">
<polygon fill="white" stroke="black" points="392.95,-224.5 392.95,-243.5 442.95,-243.5 442.95,-224.5 392.95,-224.5"/>
<text text-anchor="middle" x="417.95" y="-231.5" font-family="Helvetica,sans-Serif" font-size="10.00">tools.idl</text>
</a>
</g>
</g>
<!-- Node1&#45;&gt;Node9 -->
<g id="edge11" class="edge"><title>Node1&#45;&gt;Node9</title>
<path fill="none" stroke="midnightblue" d="M367.988,-274.101C380.406,-264.382 396.194,-252.027 406.663,-243.834"/>
<polygon fill="midnightblue" stroke="midnightblue" points="365.755,-271.405 360.037,-280.324 370.069,-276.917 365.755,-271.405"/>
</g>
<!-- Node10 -->
<g id="node10" class="node"><title>Node10</title>
<g id="a_node10"><a xlink:href="a00072.html" target="_top" xlink:title="configuration_shooters.idl">
<polygon fill="white" stroke="black" points="242.95,-168.5 242.95,-187.5 370.95,-187.5 370.95,-168.5 242.95,-168.5"/>
<text text-anchor="middle" x="306.95" y="-175.5" font-family="Helvetica,sans-Serif" font-size="10.00">configuration_shooters.idl</text>
</a>
</g>
</g>
<!-- Node1&#45;&gt;Node10 -->
<g id="edge14" class="edge"><title>Node1&#45;&gt;Node10</title>
<path fill="none" stroke="midnightblue" d="M305.557,-284.761C278.963,-279.668 246.873,-268.492 229.95,-244 212.895,-219.316 253.249,-198.533 281.746,-187.502"/>
<polygon fill="midnightblue" stroke="midnightblue" points="304.995,-288.215 315.438,-286.43 306.161,-281.313 304.995,-288.215"/>
</g>
<!-- Node11 -->
<g id="node11" class="node"><title>Node11</title>
<g id="a_node11"><a xlink:href="a00078.html" target="_top" xlink:title="distances.idl">
<polygon fill="white" stroke="black" points="395.45,-112.5 395.45,-131.5 466.45,-131.5 466.45,-112.5 395.45,-112.5"/>
<text text-anchor="middle" x="430.95" y="-119.5" font-family="Helvetica,sans-Serif" font-size="10.00">distances.idl</text>
</a>
</g>
</g>
<!-- Node1&#45;&gt;Node11 -->
<g id="edge16" class="edge"><title>Node1&#45;&gt;Node11</title>
<path fill="none" stroke="midnightblue" d="M392.681,-287.311C423.961,-283.536 464.08,-272.889 484.95,-244 512.297,-206.147 462.319,-152.242 440.452,-131.544"/>
<polygon fill="midnightblue" stroke="midnightblue" points="392.051,-283.857 382.453,-288.345 392.755,-290.822 392.051,-283.857"/>
</g>
<!-- Node12 -->
<g id="node12" class="node"><title>Node12</title>
<g id="a_node12"><a xlink:href="a00084.html" target="_top" xlink:title="path_planners.idl">
<polygon fill="white" stroke="black" points="640.95,-112.5 640.95,-131.5 730.95,-131.5 730.95,-112.5 640.95,-112.5"/>
<text text-anchor="middle" x="685.95" y="-119.5" font-family="Helvetica,sans-Serif" font-size="10.00">path_planners.idl</text>
</a>
</g>
</g>
<!-- Node1&#45;&gt;Node12 -->
<g id="edge19" class="edge"><title>Node1&#45;&gt;Node12</title>
<path fill="none" stroke="midnightblue" d="M392.606,-288.43C441.877,-286.083 523.081,-276.968 583.95,-244 633.96,-216.914 669.785,-154.518 681.667,-131.625"/>
<polygon fill="midnightblue" stroke="midnightblue" points="392.447,-284.933 382.596,-288.834 392.729,-291.928 392.447,-284.933"/>
</g>
<!-- Node13 -->
<g id="node13" class="node"><title>Node13</title>
<g id="a_node13"><a xlink:href="a00085.html" target="_top" xlink:title="path_validations.idl">
<polygon fill="white" stroke="black" points="484.95,-112.5 484.95,-131.5 584.95,-131.5 584.95,-112.5 484.95,-112.5"/>
<text text-anchor="middle" x="534.95" y="-119.5" font-family="Helvetica,sans-Serif" font-size="10.00">path_validations.idl</text>
</a>
</g>
</g>
<!-- Node1&#45;&gt;Node13 -->
<g id="edge21" class="edge"><title>Node1&#45;&gt;Node13</title>
<path fill="none" stroke="midnightblue" d="M392.885,-287.473C427.381,-283.91 474.233,-273.467 502.95,-244 534.04,-212.099 535.858,-153.698 535.348,-131.695"/>
<polygon fill="midnightblue" stroke="midnightblue" points="392.267,-284.014 382.61,-288.372 392.876,-290.987 392.267,-284.014"/>
</g>
<!-- Node14 -->
<g id="node14" class="node"><title>Node14</title>
<g id="a_node14"><a xlink:href="a00087.html" target="_top" xlink:title="paths.idl">
<polygon fill="white" stroke="black" points="575.45,-168.5 575.45,-187.5 628.45,-187.5 628.45,-168.5 575.45,-168.5"/>
<text text-anchor="middle" x="601.95" y="-175.5" font-family="Helvetica,sans-Serif" font-size="10.00">paths.idl</text>
</a>
</g>
</g>
<!-- Node1&#45;&gt;Node14 -->
<g id="edge24" class="edge"><title>Node1&#45;&gt;Node14</title>
<path fill="none" stroke="midnightblue" d="M392.79,-289.375C438.606,-287.7 510.689,-279.025 560.95,-244 581.311,-229.812 593.729,-201.928 598.997,-187.74"/>
<polygon fill="midnightblue" stroke="midnightblue" points="392.487,-285.882 382.584,-289.649 392.674,-292.88 392.487,-285.882"/>
</g>
<!-- Node2&#45;&gt;Node3 -->
<g id="edge2" class="edge"><title>Node2&#45;&gt;Node3</title>
<path fill="none" stroke="midnightblue" d="M64.056,-214.275C62.2295,-200.389 62.0934,-181.592 70.9505,-168 139.281,-63.1401 298.487,-26.5346 366.838,-15.3554"/>
<polygon fill="midnightblue" stroke="midnightblue" points="60.6113,-214.896 65.7439,-224.164 67.5115,-213.718 60.6113,-214.896"/>
</g>
<!-- Node2&#45;&gt;Node4 -->
<g id="edge3" class="edge"><title>Node2&#45;&gt;Node4</title>
<path fill="none" stroke="midnightblue" d="M83.9481,-217.002C93.5176,-207.433 105.312,-195.639 113.199,-187.751"/>
<polygon fill="midnightblue" stroke="midnightblue" points="81.4637,-214.537 76.8675,-224.083 86.4135,-219.487 81.4637,-214.537"/>
</g>
<!-- Node4&#45;&gt;Node5 -->
<g id="edge4" class="edge"><title>Node4&#45;&gt;Node5</title>
<path fill="none" stroke="midnightblue" d="M151.192,-164.368C174.6,-154.255 206.792,-140.349 227.237,-131.516"/>
<polygon fill="midnightblue" stroke="midnightblue" points="149.549,-161.265 141.757,-168.444 152.325,-167.691 149.549,-161.265"/>
</g>
<!-- Node5&#45;&gt;Node3 -->
<g id="edge5" class="edge"><title>Node5&#45;&gt;Node3</title>
<path fill="none" stroke="midnightblue" d="M263.303,-105.559C278.251,-91.8047 301.268,-71.5144 322.95,-56 342.654,-41.9019 366.986,-28.0647 382.728,-19.5366"/>
<polygon fill="midnightblue" stroke="midnightblue" points="260.827,-103.082 255.888,-112.455 265.594,-108.208 260.827,-103.082"/>
</g>
<!-- Node5&#45;&gt;Node6 -->
<g id="edge6" class="edge"><title>Node5&#45;&gt;Node6</title>
<path fill="none" stroke="midnightblue" d="M275.324,-108.232C297.77,-98.1312 328.486,-84.3091 348.025,-75.5164"/>
<polygon fill="midnightblue" stroke="midnightblue" points="273.648,-105.148 265.965,-112.444 276.52,-111.532 273.648,-105.148"/>
</g>
<!-- Node6&#45;&gt;Node3 -->
<g id="edge7" class="edge"><title>Node6&#45;&gt;Node3</title>
<path fill="none" stroke="midnightblue" d="M377.454,-47.2747C382.924,-38.0454 389.368,-27.1703 393.765,-19.7511"/>
<polygon fill="midnightblue" stroke="midnightblue" points="374.322,-45.6957 372.235,-56.083 380.344,-49.2644 374.322,-45.6957"/>
</g>
<!-- Node10&#45;&gt;Node6 -->
<g id="edge15" class="edge"><title>Node10&#45;&gt;Node6</title>
<path fill="none" stroke="midnightblue" d="M316.594,-159.32C329.658,-135.37 352.47,-93.5484 362.264,-75.5914"/>
<polygon fill="midnightblue" stroke="midnightblue" points="313.375,-157.914 311.659,-168.368 319.52,-161.266 313.375,-157.914"/>
</g>
<!-- Node11&#45;&gt;Node3 -->
<g id="edge17" class="edge"><title>Node11&#45;&gt;Node3</title>
<path fill="none" stroke="midnightblue" d="M425.619,-102.674C418.623,-78.6248 406.627,-37.3881 401.45,-19.5914"/>
<polygon fill="midnightblue" stroke="midnightblue" points="422.285,-103.744 428.44,-112.368 429.007,-101.789 422.285,-103.744"/>
</g>
<!-- Node11&#45;&gt;Node6 -->
<g id="edge18" class="edge"><title>Node11&#45;&gt;Node6</title>
<path fill="none" stroke="midnightblue" d="M412.959,-105.82C401.493,-96.1452 387.037,-83.9481 377.42,-75.8339"/>
<polygon fill="midnightblue" stroke="midnightblue" points="410.768,-108.55 420.668,-112.324 415.282,-103.2 410.768,-108.55"/>
</g>
<!-- Node12&#45;&gt;Node3 -->
<g id="edge20" class="edge"><title>Node12&#45;&gt;Node3</title>
<path fill="none" stroke="midnightblue" d="M675.053,-103.774C664.591,-88.731 647.388,-67.5479 626.95,-56 563.897,-20.373 477.172,-12.5834 430.97,-11.1094"/>
<polygon fill="midnightblue" stroke="midnightblue" points="672.211,-105.82 680.665,-112.206 678.038,-101.942 672.211,-105.82"/>
</g>
<!-- Node13&#45;&gt;Node3 -->
<g id="edge22" class="edge"><title>Node13&#45;&gt;Node3</title>
<path fill="none" stroke="midnightblue" d="M516.177,-105.816C487.211,-82.3874 432.567,-38.1898 409.573,-19.5914"/>
<polygon fill="midnightblue" stroke="midnightblue" points="514.303,-108.801 524.279,-112.368 518.705,-103.358 514.303,-108.801"/>
</g>
<!-- Node13&#45;&gt;Node6 -->
<g id="edge23" class="edge"><title>Node13&#45;&gt;Node6</title>
<path fill="none" stroke="midnightblue" d="M498.564,-109.304C466.909,-99.1294 421.783,-84.6246 393.446,-75.5164"/>
<polygon fill="midnightblue" stroke="midnightblue" points="497.739,-112.715 508.33,-112.444 499.881,-106.051 497.739,-112.715"/>
</g>
<!-- Node14&#45;&gt;Node3 -->
<g id="edge25" class="edge"><title>Node14&#45;&gt;Node3</title>
<path fill="none" stroke="midnightblue" d="M604.086,-157.751C604.626,-143.853 603.181,-125.272 593.95,-112 555.094,-56.1289 475.619,-29.0677 431.061,-17.8034"/>
<polygon fill="midnightblue" stroke="midnightblue" points="600.567,-157.867 603.293,-168.105 607.547,-158.401 600.567,-157.867"/>
</g>
<!-- Node14&#45;&gt;Node5 -->
<g id="edge28" class="edge"><title>Node14&#45;&gt;Node5</title>
<path fill="none" stroke="midnightblue" d="M565.013,-171.381C502.003,-161.797 373.497,-142.249 300.587,-131.159"/>
<polygon fill="midnightblue" stroke="midnightblue" points="564.855,-174.898 575.268,-172.941 565.908,-167.977 564.855,-174.898"/>
</g>
<!-- Node14&#45;&gt;Node12 -->
<g id="edge26" class="edge"><title>Node14&#45;&gt;Node12</title>
<path fill="none" stroke="midnightblue" d="M623.883,-162.901C639.286,-152.999 659.396,-140.071 672.488,-131.655"/>
<polygon fill="midnightblue" stroke="midnightblue" points="621.966,-159.972 615.447,-168.324 625.751,-165.86 621.966,-159.972"/>
</g>
<!-- Node14&#45;&gt;Node13 -->
<g id="edge27" class="edge"><title>Node14&#45;&gt;Node13</title>
<path fill="none" stroke="midnightblue" d="M583.116,-161.82C571.112,-152.145 555.979,-139.948 545.911,-131.834"/>
<polygon fill="midnightblue" stroke="midnightblue" points="581.203,-164.774 591.186,-168.324 585.596,-159.324 581.203,-164.774"/>
</g>
</g>
</svg>
