<?xml version="1.0" encoding="UTF-8" standalone="no"?>
<!DOCTYPE svg PUBLIC "-//W3C//DTD SVG 1.1//EN"
 "http://www.w3.org/Graphics/SVG/1.1/DTD/svg11.dtd">
<!-- Generated by graphviz version 2.38.0 (20140413.2041)
 -->
<!-- Title: problem.idl Pages: 1 -->
<svg width="779pt" height="330pt"
 viewBox="0.00 0.00 778.50 330.00" xmlns="http://www.w3.org/2000/svg" xmlns:xlink="http://www.w3.org/1999/xlink">
<g id="graph0" class="graph" transform="scale(1 1) rotate(0) translate(4 326)">
<title>problem.idl</title>
<polygon fill="white" stroke="none" points="-4,4 -4,-326 774.5,-326 774.5,4 -4,4"/>
<!-- Node1 -->
<g id="node1" class="node"><title>Node1</title>
<polygon fill="#bfbfbf" stroke="black" points="241,-302.5 241,-321.5 305,-321.5 305,-302.5 241,-302.5"/>
<text text-anchor="middle" x="273" y="-309.5" font-family="Helvetica,sans-Serif" font-size="10.00">problem.idl</text>
</g>
<!-- Node2 -->
<g id="node2" class="node"><title>Node2</title>
<g id="a_node2"><a xlink:href="a00071.html" target="_top" xlink:title="hpp/common.idl">
<polygon fill="white" stroke="black" points="377,-0.5 377,-19.5 463,-19.5 463,-0.5 377,-0.5"/>
<text text-anchor="middle" x="420" y="-7.5" font-family="Helvetica,sans-Serif" font-size="10.00">hpp/common.idl</text>
</a>
</g>
</g>
<!-- Node1&#45;&gt;Node2 -->
<g id="edge1" class="edge"><title>Node1&#45;&gt;Node2</title>
<path fill="none" stroke="midnightblue" d="M240.881,-311.623C168.715,-311.18 0,-299.069 0,-195.5 0,-195.5 0,-195.5 0,-132 0,-56.5752 253.265,-25.3265 366.455,-15.127"/>
<polygon fill="midnightblue" stroke="midnightblue" points="366.979,-18.5946 376.635,-14.2326 366.367,-11.6214 366.979,-18.5946"/>
</g>
<!-- Node3 -->
<g id="node3" class="node"><title>Node3</title>
<g id="a_node3"><a xlink:href="a00074.html" target="_top" xlink:title="hpp/constraints_idl\l/constraints.idl">
<polygon fill="white" stroke="black" points="333,-56.5 333,-86.5 431,-86.5 431,-56.5 333,-56.5"/>
<text text-anchor="start" x="341" y="-74.5" font-family="Helvetica,sans-Serif" font-size="10.00">hpp/constraints_idl</text>
<text text-anchor="middle" x="382" y="-63.5" font-family="Helvetica,sans-Serif" font-size="10.00">/constraints.idl</text>
</a>
</g>
</g>
<!-- Node1&#45;&gt;Node3 -->
<g id="edge2" class="edge"><title>Node1&#45;&gt;Node3</title>
<path fill="none" stroke="midnightblue" d="M269.217,-302.487C260.155,-280.766 239.367,-221.97 259,-179 276.766,-140.117 316.515,-109.986 346.045,-91.8492"/>
<polygon fill="midnightblue" stroke="midnightblue" points="348.044,-94.7323 354.846,-86.609 344.463,-88.7177 348.044,-94.7323"/>
</g>
<!-- Node4 -->
<g id="node4" class="node"><title>Node4</title>
<g id="a_node4"><a xlink:href="a00078.html" target="_top" xlink:title="hpp/core_idl/distances.idl">
<polygon fill="white" stroke="black" points="643.5,-185 643.5,-204 770.5,-204 770.5,-185 643.5,-185"/>
<text text-anchor="middle" x="707" y="-192" font-family="Helvetica,sans-Serif" font-size="10.00">hpp/core_idl/distances.idl</text>
</a>
</g>
</g>
<!-- Node1&#45;&gt;Node4 -->
<g id="edge4" class="edge"><title>Node1&#45;&gt;Node4</title>
<path fill="none" stroke="midnightblue" d="M305.264,-310.984C364.655,-309.99 494.496,-303.299 596,-266 631.625,-252.91 667.792,-227.089 688.773,-210.593"/>
<polygon fill="midnightblue" stroke="midnightblue" points="691.181,-213.148 696.789,-204.158 686.8,-207.689 691.181,-213.148"/>
</g>
<!-- Node5 -->
<g id="node5" class="node"><title>Node5</title>
<g id="a_node5"><a xlink:href="a00087.html" target="_top" xlink:title="hpp/core_idl/paths.idl">
<polygon fill="white" stroke="black" points="129.5,-123.5 129.5,-142.5 238.5,-142.5 238.5,-123.5 129.5,-123.5"/>
<text text-anchor="middle" x="184" y="-130.5" font-family="Helvetica,sans-Serif" font-size="10.00">hpp/core_idl/paths.idl</text>
</a>
</g>
</g>
<!-- Node1&#45;&gt;Node5 -->
<g id="edge6" class="edge"><title>Node1&#45;&gt;Node5</title>
<path fill="none" stroke="midnightblue" d="M260.946,-302.292C250.344,-294.048 235.206,-280.762 226,-266 203.174,-229.397 191.715,-179.282 186.901,-152.56"/>
<polygon fill="midnightblue" stroke="midnightblue" points="190.344,-151.928 185.231,-142.648 183.441,-153.091 190.344,-151.928"/>
</g>
<!-- Node6 -->
<g id="node6" class="node"><title>Node6</title>
<g id="a_node6"><a xlink:href="a00100.html" target="_top" xlink:title="hpp/core_idl/steering\l_methods.idl">
<polygon fill="white" stroke="black" points="441.5,-179.5 441.5,-209.5 548.5,-209.5 548.5,-179.5 441.5,-179.5"/>
<text text-anchor="start" x="449.5" y="-197.5" font-family="Helvetica,sans-Serif" font-size="10.00">hpp/core_idl/steering</text>
<text text-anchor="middle" x="495" y="-186.5" font-family="Helvetica,sans-Serif" font-size="10.00">_methods.idl</text>
</a>
</g>
</g>
<!-- Node1&#45;&gt;Node6 -->
<g id="edge8" class="edge"><title>Node1&#45;&gt;Node6</title>
<path fill="none" stroke="midnightblue" d="M289.686,-302.319C325.495,-283.689 410.398,-239.516 459.068,-214.194"/>
<polygon fill="midnightblue" stroke="midnightblue" points="460.748,-217.266 468.004,-209.545 457.517,-211.056 460.748,-217.266"/>
</g>
<!-- Node8 -->
<g id="node8" class="node"><title>Node8</title>
<g id="a_node8"><a xlink:href="a00084.html" target="_top" xlink:title="hpp/core_idl/path_planners.idl">
<polygon fill="white" stroke="black" points="28,-185 28,-204 174,-204 174,-185 28,-185"/>
<text text-anchor="middle" x="101" y="-192" font-family="Helvetica,sans-Serif" font-size="10.00">hpp/core_idl/path_planners.idl</text>
</a>
</g>
</g>
<!-- Node1&#45;&gt;Node8 -->
<g id="edge14" class="edge"><title>Node1&#45;&gt;Node8</title>
<path fill="none" stroke="midnightblue" d="M254.171,-302.339C236.541,-293.93 209.731,-280.361 188,-266 162.353,-249.052 135.197,-226.143 118.18,-211.103"/>
<polygon fill="midnightblue" stroke="midnightblue" points="120.482,-208.466 110.693,-204.413 115.818,-213.686 120.482,-208.466"/>
</g>
<!-- Node9 -->
<g id="node9" class="node"><title>Node9</title>
<g id="a_node9"><a xlink:href="a00085.html" target="_top" xlink:title="hpp/core_idl/path_validations.idl">
<polygon fill="white" stroke="black" points="268.5,-185 268.5,-204 423.5,-204 423.5,-185 268.5,-185"/>
<text text-anchor="middle" x="346" y="-192" font-family="Helvetica,sans-Serif" font-size="10.00">hpp/core_idl/path_validations.idl</text>
</a>
</g>
</g>
<!-- Node1&#45;&gt;Node9 -->
<g id="edge17" class="edge"><title>Node1&#45;&gt;Node9</title>
<path fill="none" stroke="midnightblue" d="M278.487,-302.319C290.483,-283.339 319.235,-237.848 335.073,-212.788"/>
<polygon fill="midnightblue" stroke="midnightblue" points="338.065,-214.605 340.449,-204.282 332.148,-210.865 338.065,-214.605"/>
</g>
<!-- Node10 -->
<g id="node10" class="node"><title>Node10</title>
<g id="a_node10"><a xlink:href="a00066.html" target="_top" xlink:title="hpp/core_idl/_problem.idl">
<polygon fill="white" stroke="black" points="462.5,-246.5 462.5,-265.5 587.5,-265.5 587.5,-246.5 462.5,-246.5"/>
<text text-anchor="middle" x="525" y="-253.5" font-family="Helvetica,sans-Serif" font-size="10.00">hpp/core_idl/_problem.idl</text>
</a>
</g>
</g>
<!-- Node1&#45;&gt;Node10 -->
<g id="edge20" class="edge"><title>Node1&#45;&gt;Node10</title>
<path fill="none" stroke="midnightblue" d="M305.172,-304.106C348.123,-294.902 424.632,-278.508 475.098,-267.693"/>
<polygon fill="midnightblue" stroke="midnightblue" points="476.094,-271.059 485.138,-265.542 474.627,-264.215 476.094,-271.059"/>
</g>
<!-- Node3&#45;&gt;Node2 -->
<g id="edge3" class="edge"><title>Node3&#45;&gt;Node2</title>
<path fill="none" stroke="midnightblue" d="M391.005,-56.3993C396.413,-47.9315 403.332,-37.0991 409.054,-28.1393"/>
<polygon fill="midnightblue" stroke="midnightblue" points="412.038,-29.9695 414.471,-19.6578 406.138,-26.2018 412.038,-29.9695"/>
</g>
<!-- Node4&#45;&gt;Node2 -->
<g id="edge5" class="edge"><title>Node4&#45;&gt;Node2</title>
<path fill="none" stroke="midnightblue" d="M710.011,-184.735C717.649,-160.724 734.928,-93.2077 702,-56 672.641,-22.8251 546.846,-14.0385 473.564,-11.7568"/>
<polygon fill="midnightblue" stroke="midnightblue" points="473.245,-8.24662 463.151,-11.4653 473.049,-15.2439 473.245,-8.24662"/>
</g>
<!-- Node5&#45;&gt;Node2 -->
<g id="edge7" class="edge"><title>Node5&#45;&gt;Node2</title>
<path fill="none" stroke="midnightblue" d="M193.998,-123.411C212.225,-108.105 252.533,-75.8614 291,-56 318.723,-41.6861 352.015,-30.2012 377.833,-22.4171"/>
<polygon fill="midnightblue" stroke="midnightblue" points="379.085,-25.6971 387.689,-19.5149 377.107,-18.9822 379.085,-25.6971"/>
</g>
<!-- Node6&#45;&gt;Node2 -->
<g id="edge9" class="edge"><title>Node6&#45;&gt;Node2</title>
<path fill="none" stroke="midnightblue" d="M493.203,-179.411C489.445,-153.552 479.11,-97.377 456,-56 450.279,-45.757 442.246,-35.4558 435.219,-27.299"/>
<polygon fill="midnightblue" stroke="midnightblue" points="437.672,-24.7919 428.399,-19.6672 432.452,-29.4561 437.672,-24.7919"/>
</g>
<!-- Node6&#45;&gt;Node5 -->
<g id="edge10" class="edge"><title>Node6&#45;&gt;Node5</title>
<path fill="none" stroke="midnightblue" d="M441.421,-180.989C438.237,-180.301 435.078,-179.633 432,-179 368.443,-165.927 295.308,-152.901 245.015,-144.253"/>
<polygon fill="midnightblue" stroke="midnightblue" points="245.403,-140.769 234.956,-142.529 244.221,-147.668 245.403,-140.769"/>
</g>
<!-- Node7 -->
<g id="node7" class="node"><title>Node7</title>
<g id="a_node7"><a xlink:href="a00065.html" target="_top" xlink:title="hpp/core_idl/_constraints.idl">
<polygon fill="white" stroke="black" points="333,-123.5 333,-142.5 471,-142.5 471,-123.5 333,-123.5"/>
<text text-anchor="middle" x="402" y="-130.5" font-family="Helvetica,sans-Serif" font-size="10.00">hpp/core_idl/_constraints.idl</text>
</a>
</g>
</g>
<!-- Node6&#45;&gt;Node7 -->
<g id="edge11" class="edge"><title>Node6&#45;&gt;Node7</title>
<path fill="none" stroke="midnightblue" d="M472.96,-179.399C458.192,-169.951 438.823,-157.559 424.053,-148.109"/>
<polygon fill="midnightblue" stroke="midnightblue" points="425.842,-145.099 415.532,-142.658 422.07,-150.995 425.842,-145.099"/>
</g>
<!-- Node7&#45;&gt;Node2 -->
<g id="edge12" class="edge"><title>Node7&#45;&gt;Node2</title>
<path fill="none" stroke="midnightblue" d="M412.714,-123.305C421.938,-115.069 434.591,-101.789 440,-87 447.151,-67.4493 438.673,-44.2062 430.656,-28.617"/>
<polygon fill="midnightblue" stroke="midnightblue" points="433.551,-26.6223 425.624,-19.5937 427.438,-30.032 433.551,-26.6223"/>
</g>
<!-- Node7&#45;&gt;Node3 -->
<g id="edge13" class="edge"><title>Node7&#45;&gt;Node3</title>
<path fill="none" stroke="midnightblue" d="M399.134,-123.475C396.73,-116.32 393.176,-105.748 389.927,-96.0841"/>
<polygon fill="midnightblue" stroke="midnightblue" points="393.217,-94.8866 386.714,-86.523 386.582,-97.117 393.217,-94.8866"/>
</g>
<!-- Node8&#45;&gt;Node2 -->
<g id="edge15" class="edge"><title>Node8&#45;&gt;Node2</title>
<path fill="none" stroke="midnightblue" d="M101.24,-184.745C102.058,-170.398 105.532,-141.617 120,-123 179.623,-46.2762 297.668,-22.1102 366.572,-14.499"/>
<polygon fill="midnightblue" stroke="midnightblue" points="367.189,-17.9541 376.78,-13.4528 366.475,-10.9906 367.189,-17.9541"/>
</g>
<!-- Node8&#45;&gt;Node5 -->
<g id="edge16" class="edge"><title>Node8&#45;&gt;Node5</title>
<path fill="none" stroke="midnightblue" d="M112.892,-184.975C126.205,-175.431 148,-159.807 163.957,-148.368"/>
<polygon fill="midnightblue" stroke="midnightblue" points="166.042,-151.18 172.13,-142.509 161.964,-145.491 166.042,-151.18"/>
</g>
<!-- Node9&#45;&gt;Node2 -->
<g id="edge18" class="edge"><title>Node9&#45;&gt;Node2</title>
<path fill="none" stroke="midnightblue" d="M340.94,-184.958C328.107,-162.068 297.154,-98.2324 324,-56 334.165,-40.0096 351.676,-29.6029 368.983,-22.8748"/>
<polygon fill="midnightblue" stroke="midnightblue" points="370.266,-26.1339 378.529,-19.5034 367.935,-19.5334 370.266,-26.1339"/>
</g>
<!-- Node9&#45;&gt;Node5 -->
<g id="edge19" class="edge"><title>Node9&#45;&gt;Node5</title>
<path fill="none" stroke="midnightblue" d="M322.789,-184.975C295.001,-174.769 248.277,-157.608 216.806,-146.049"/>
<polygon fill="midnightblue" stroke="midnightblue" points="217.761,-142.671 207.168,-142.509 215.348,-149.242 217.761,-142.671"/>
</g>
<!-- Node10&#45;&gt;Node2 -->
<g id="edge21" class="edge"><title>Node10&#45;&gt;Node2</title>
<path fill="none" stroke="midnightblue" d="M533.751,-246.286C541.563,-237.84 552.451,-224.246 557,-210 561.191,-196.875 560.918,-192.209 557,-179 538.457,-116.48 520.952,-104.176 477,-56 466.54,-44.5348 452.961,-33.6913 441.68,-25.5223"/>
<polygon fill="midnightblue" stroke="midnightblue" points="443.424,-22.4698 433.229,-19.5836 439.399,-28.197 443.424,-22.4698"/>
</g>
<!-- Node10&#45;&gt;Node4 -->
<g id="edge22" class="edge"><title>Node10&#45;&gt;Node4</title>
<path fill="none" stroke="midnightblue" d="M551.076,-246.475C582.566,-236.18 635.698,-218.81 671.058,-207.25"/>
<polygon fill="midnightblue" stroke="midnightblue" points="672.555,-210.443 680.972,-204.009 670.38,-203.79 672.555,-210.443"/>
</g>
<!-- Node10&#45;&gt;Node6 -->
<g id="edge23" class="edge"><title>Node10&#45;&gt;Node6</title>
<path fill="none" stroke="midnightblue" d="M520.702,-246.475C517.018,-239.17 511.539,-228.302 506.584,-218.475"/>
<polygon fill="midnightblue" stroke="midnightblue" points="509.698,-216.876 502.07,-209.523 503.447,-220.028 509.698,-216.876"/>
</g>
<!-- Node10&#45;&gt;Node9 -->
<g id="edge24" class="edge"><title>Node10&#45;&gt;Node9</title>
<path fill="none" stroke="midnightblue" d="M499.354,-246.475C468.383,-236.18 416.127,-218.81 381.349,-207.25"/>
<polygon fill="midnightblue" stroke="midnightblue" points="382.192,-203.842 371.599,-204.009 379.984,-210.485 382.192,-203.842"/>
</g>
<!-- Node11 -->
<g id="node11" class="node"><title>Node11</title>
<g id="a_node11"><a xlink:href="a00072.html" target="_top" xlink:title="hpp/core_idl/configuration\l_shooters.idl">
<polygon fill="white" stroke="black" points="565,-56.5 565,-86.5 693,-86.5 693,-56.5 565,-56.5"/>
<text text-anchor="start" x="573" y="-74.5" font-family="Helvetica,sans-Serif" font-size="10.00">hpp/core_idl/configuration</text>
<text text-anchor="middle" x="629" y="-63.5" font-family="Helvetica,sans-Serif" font-size="10.00">_shooters.idl</text>
</a>
</g>
</g>
<!-- Node10&#45;&gt;Node11 -->
<g id="edge25" class="edge"><title>Node10&#45;&gt;Node11</title>
<path fill="none" stroke="midnightblue" d="M544.255,-246.49C559.137,-238.957 579.138,-226.58 591,-210 615.534,-175.708 624.242,-126.214 627.324,-96.9042"/>
<polygon fill="midnightblue" stroke="midnightblue" points="630.828,-97.0095 628.25,-86.7331 623.857,-96.3743 630.828,-97.0095"/>
</g>
<!-- Node11&#45;&gt;Node2 -->
<g id="edge26" class="edge"><title>Node11&#45;&gt;Node2</title>
<path fill="none" stroke="midnightblue" d="M579.735,-56.4747C543.048,-46.0304 493.616,-31.9576 459.506,-22.2469"/>
<polygon fill="midnightblue" stroke="midnightblue" points="460.456,-18.8783 449.88,-19.5064 458.539,-25.6108 460.456,-18.8783"/>
</g>
</g>
</svg>
