<?xml version="1.0" encoding="UTF-8" standalone="no"?>
<!DOCTYPE svg PUBLIC "-//W3C//DTD SVG 1.1//EN"
 "http://www.w3.org/Graphics/SVG/1.1/DTD/svg11.dtd">
<!-- Generated by graphviz version 2.38.0 (20140413.2041)
 -->
<!-- Title: distances.idl Pages: 1 -->
<svg width="110pt" height="140pt"
 viewBox="0.00 0.00 110.00 140.00" xmlns="http://www.w3.org/2000/svg" xmlns:xlink="http://www.w3.org/1999/xlink">
<g id="graph0" class="graph" transform="scale(1 1) rotate(0) translate(4 136)">
<title>distances.idl</title>
<polygon fill="white" stroke="none" points="-4,4 -4,-136 106,-136 106,4 -4,4"/>
<!-- Node1 -->
<g id="node1" class="node"><title>Node1</title>
<polygon fill="#bfbfbf" stroke="black" points="0,-112.5 0,-131.5 71,-131.5 71,-112.5 0,-112.5"/>
<text text-anchor="middle" x="35.5" y="-119.5" font-family="Helvetica,sans-Serif" font-size="10.00">distances.idl</text>
</g>
<!-- Node2 -->
<g id="node2" class="node"><title>Node2</title>
<g id="a_node2"><a xlink:href="a00089.html" target="_top" xlink:title="problem.idl">
<polygon fill="white" stroke="black" points="3.5,-0.5 3.5,-19.5 67.5,-19.5 67.5,-0.5 3.5,-0.5"/>
<text text-anchor="middle" x="35.5" y="-7.5" font-family="Helvetica,sans-Serif" font-size="10.00">problem.idl</text>
</a>
</g>
</g>
<!-- Node1&#45;&gt;Node2 -->
<g id="edge1" class="edge"><title>Node1&#45;&gt;Node2</title>
<path fill="none" stroke="midnightblue" d="M28.978,-102.607C25.1467,-89.6354 21.4265,-71.8227 23.5,-56 25.1809,-43.1729 29.4482,-28.8015 32.4123,-19.8268"/>
<polygon fill="midnightblue" stroke="midnightblue" points="25.6804,-103.785 32.0977,-112.215 32.3382,-101.623 25.6804,-103.785"/>
</g>
<!-- Node3 -->
<g id="node3" class="node"><title>Node3</title>
<g id="a_node3"><a xlink:href="a00066.html" target="_top" xlink:title="_problem.idl">
<polygon fill="white" stroke="black" points="33,-56.5 33,-75.5 102,-75.5 102,-56.5 33,-56.5"/>
<text text-anchor="middle" x="67.5" y="-63.5" font-family="Helvetica,sans-Serif" font-size="10.00">_problem.idl</text>
</a>
</g>
</g>
<!-- Node1&#45;&gt;Node3 -->
<g id="edge2" class="edge"><title>Node1&#45;&gt;Node3</title>
<path fill="none" stroke="midnightblue" d="M46.0039,-103.275C51.4731,-94.0454 57.9176,-83.1703 62.3142,-75.7511"/>
<polygon fill="midnightblue" stroke="midnightblue" points="42.8712,-101.696 40.7841,-112.083 48.8932,-105.264 42.8712,-101.696"/>
</g>
<!-- Node3&#45;&gt;Node2 -->
<g id="edge3" class="edge"><title>Node3&#45;&gt;Node2</title>
<path fill="none" stroke="midnightblue" d="M56.9961,-47.2747C51.5269,-38.0454 45.0824,-27.1703 40.6858,-19.7511"/>
<polygon fill="midnightblue" stroke="midnightblue" points="54.1068,-49.2644 62.2159,-56.083 60.1288,-45.6957 54.1068,-49.2644"/>
</g>
</g>
</svg>
