<?xml version="1.0" encoding="UTF-8" standalone="no"?>
<!DOCTYPE svg PUBLIC "-//W3C//DTD SVG 1.1//EN"
 "http://www.w3.org/Graphics/SVG/1.1/DTD/svg11.dtd">
<!-- Generated by graphviz version 2.38.0 (20140413.2041)
 -->
<!-- Title: server.hh Pages: 1 -->
<svg width="559pt" height="207pt"
 viewBox="0.00 0.00 558.50 207.00" xmlns="http://www.w3.org/2000/svg" xmlns:xlink="http://www.w3.org/1999/xlink">
<g id="graph0" class="graph" transform="scale(1 1) rotate(0) translate(4 203)">
<title>server.hh</title>
<polygon fill="white" stroke="none" points="-4,4 -4,-203 554.5,-203 554.5,4 -4,4"/>
<!-- Node1 -->
<g id="node1" class="node"><title>Node1</title>
<polygon fill="#bfbfbf" stroke="black" points="158.5,-179.5 158.5,-198.5 215.5,-198.5 215.5,-179.5 158.5,-179.5"/>
<text text-anchor="middle" x="187" y="-186.5" font-family="Helvetica,sans-Serif" font-size="10.00">server.hh</text>
</g>
<!-- Node2 -->
<g id="node2" class="node"><title>Node2</title>
<polygon fill="white" stroke="#bfbfbf" points="0,-0.5 0,-19.5 112,-19.5 112,-0.5 0,-0.5"/>
<text text-anchor="middle" x="56" y="-7.5" font-family="Helvetica,sans-Serif" font-size="10.00">omniORB4/CORBA.h</text>
</g>
<!-- Node1&#45;&gt;Node2 -->
<g id="edge1" class="edge"><title>Node1&#45;&gt;Node2</title>
<path fill="none" stroke="midnightblue" d="M167.331,-179.45C134.936,-164.141 71.4156,-128.646 46,-76 38.9499,-61.3963 42.8009,-42.9893 47.627,-29.4944"/>
<polygon fill="midnightblue" stroke="midnightblue" points="51.0064,-30.4739 51.5169,-19.8913 44.5185,-27.8458 51.0064,-30.4739"/>
</g>
<!-- Node3 -->
<g id="node3" class="node"><title>Node3</title>
<g id="a_node3"><a xlink:href="a00001.html" target="_top" xlink:title="hpp/corbaserver/fwd.hh">
<polygon fill="white" stroke="black" points="55.5,-56.5 55.5,-75.5 174.5,-75.5 174.5,-56.5 55.5,-56.5"/>
<text text-anchor="middle" x="115" y="-63.5" font-family="Helvetica,sans-Serif" font-size="10.00">hpp/corbaserver/fwd.hh</text>
</a>
</g>
</g>
<!-- Node1&#45;&gt;Node3 -->
<g id="edge2" class="edge"><title>Node1&#45;&gt;Node3</title>
<path fill="none" stroke="midnightblue" d="M181.822,-179.298C170.042,-159.502 141.052,-110.782 125.409,-84.4932"/>
<polygon fill="midnightblue" stroke="midnightblue" points="128.253,-82.4271 120.131,-75.6232 122.237,-86.0066 128.253,-82.4271"/>
</g>
<!-- Node5 -->
<g id="node5" class="node"><title>Node5</title>
<polygon fill="white" stroke="#bfbfbf" points="421.5,-56.5 421.5,-75.5 550.5,-75.5 550.5,-56.5 421.5,-56.5"/>
<text text-anchor="middle" x="486" y="-63.5" font-family="Helvetica,sans-Serif" font-size="10.00">hpp/corbaserver/config.hh</text>
</g>
<!-- Node1&#45;&gt;Node5 -->
<g id="edge5" class="edge"><title>Node1&#45;&gt;Node5</title>
<path fill="none" stroke="midnightblue" d="M211.447,-179.406C236.18,-170.613 275.449,-156.38 309,-143 361.869,-121.916 422.675,-95.2739 457.496,-79.7837"/>
<polygon fill="midnightblue" stroke="midnightblue" points="459.308,-82.808 467.016,-75.5386 456.457,-76.4149 459.308,-82.808"/>
</g>
<!-- Node6 -->
<g id="node6" class="node"><title>Node6</title>
<g id="a_node6"><a xlink:href="a00088.html" target="_top" xlink:title="hpp/corbaserver/problem\l&#45;solver&#45;map.hh">
<polygon fill="white" stroke="black" points="176,-112.5 176,-142.5 300,-142.5 300,-112.5 176,-112.5"/>
<text text-anchor="start" x="184" y="-130.5" font-family="Helvetica,sans-Serif" font-size="10.00">hpp/corbaserver/problem</text>
<text text-anchor="middle" x="238" y="-119.5" font-family="Helvetica,sans-Serif" font-size="10.00">&#45;solver&#45;map.hh</text>
</a>
</g>
</g>
<!-- Node1&#45;&gt;Node6 -->
<g id="edge6" class="edge"><title>Node1&#45;&gt;Node6</title>
<path fill="none" stroke="midnightblue" d="M194.307,-179.475C200.827,-171.869 210.658,-160.399 219.344,-150.265"/>
<polygon fill="midnightblue" stroke="midnightblue" points="222.13,-152.393 225.98,-142.523 216.815,-147.838 222.13,-152.393"/>
</g>
<!-- Node3&#45;&gt;Node2 -->
<g id="edge3" class="edge"><title>Node3&#45;&gt;Node2</title>
<path fill="none" stroke="midnightblue" d="M105.521,-56.324C96.7989,-48.3414 83.6565,-36.3128 73.1022,-26.6529"/>
<polygon fill="midnightblue" stroke="midnightblue" points="75.3917,-24.0036 65.6519,-19.8339 70.6655,-29.1674 75.3917,-24.0036"/>
</g>
<!-- Node4 -->
<g id="node4" class="node"><title>Node4</title>
<g id="a_node4"><a doxygen="/local/devel/hpp/install/share/doc/hpp-core/doxygen-html/hpp-core.doxytag:../../hpp-core/doxygen-html/" xlink:href="../../hpp-core/doxygen-html/a00001.html" target="_top" xlink:title="hpp/core/fwd.hh">
<polygon fill="white" stroke="black" points="145,-0.5 145,-19.5 231,-19.5 231,-0.5 145,-0.5"/>
<text text-anchor="middle" x="188" y="-7.5" font-family="Helvetica,sans-Serif" font-size="10.00">hpp/core/fwd.hh</text>
</a>
</g>
</g>
<!-- Node3&#45;&gt;Node4 -->
<g id="edge4" class="edge"><title>Node3&#45;&gt;Node4</title>
<path fill="none" stroke="midnightblue" d="M126.729,-56.324C137.837,-48.1066 154.742,-35.6017 167.983,-25.8069"/>
<polygon fill="midnightblue" stroke="midnightblue" points="170.1,-28.5948 176.058,-19.8339 165.937,-22.9671 170.1,-28.5948"/>
</g>
<!-- Node6&#45;&gt;Node3 -->
<g id="edge9" class="edge"><title>Node6&#45;&gt;Node3</title>
<path fill="none" stroke="midnightblue" d="M208.851,-112.399C188.582,-102.595 161.759,-89.6194 141.981,-80.052"/>
<polygon fill="midnightblue" stroke="midnightblue" points="143.424,-76.8618 132.898,-75.6578 140.376,-83.1632 143.424,-76.8618"/>
</g>
<!-- Node6&#45;&gt;Node4 -->
<g id="edge11" class="edge"><title>Node6&#45;&gt;Node4</title>
<path fill="none" stroke="midnightblue" d="M231.869,-112.337C222.778,-91.3379 205.729,-51.9551 195.774,-28.9579"/>
<polygon fill="midnightblue" stroke="midnightblue" points="198.938,-27.456 191.753,-19.6695 192.514,-30.2369 198.938,-27.456"/>
</g>
<!-- Node6&#45;&gt;Node5 -->
<g id="edge10" class="edge"><title>Node6&#45;&gt;Node5</title>
<path fill="none" stroke="midnightblue" d="M296.458,-112.475C340.551,-101.896 400.16,-87.5946 440.677,-77.874"/>
<polygon fill="midnightblue" stroke="midnightblue" points="441.637,-81.2429 450.545,-75.5064 440.004,-74.436 441.637,-81.2429"/>
</g>
<!-- Node7 -->
<g id="node7" class="node"><title>Node7</title>
<polygon fill="white" stroke="#bfbfbf" points="231.5,-56.5 231.5,-75.5 266.5,-75.5 266.5,-56.5 231.5,-56.5"/>
<text text-anchor="middle" x="249" y="-63.5" font-family="Helvetica,sans-Serif" font-size="10.00">map</text>
</g>
<!-- Node6&#45;&gt;Node7 -->
<g id="edge7" class="edge"><title>Node6&#45;&gt;Node7</title>
<path fill="none" stroke="midnightblue" d="M240.607,-112.399C242.09,-104.377 243.965,-94.2328 245.567,-85.569"/>
<polygon fill="midnightblue" stroke="midnightblue" points="249.023,-86.1275 247.399,-75.6578 242.14,-84.8548 249.023,-86.1275"/>
</g>
<!-- Node8 -->
<g id="node8" class="node"><title>Node8</title>
<polygon fill="white" stroke="#bfbfbf" points="284.5,-56.5 284.5,-75.5 403.5,-75.5 403.5,-56.5 284.5,-56.5"/>
<text text-anchor="middle" x="344" y="-63.5" font-family="Helvetica,sans-Serif" font-size="10.00">boost/thread/mutex.hpp</text>
</g>
<!-- Node6&#45;&gt;Node8 -->
<g id="edge8" class="edge"><title>Node6&#45;&gt;Node8</title>
<path fill="none" stroke="midnightblue" d="M263.121,-112.399C280.27,-102.773 302.865,-90.0902 319.812,-80.5772"/>
<polygon fill="midnightblue" stroke="midnightblue" points="321.569,-83.6047 328.576,-75.6578 318.143,-77.5006 321.569,-83.6047"/>
</g>
</g>
</svg>
