<?xml version="1.0" encoding="UTF-8" standalone="no"?>
<!DOCTYPE svg PUBLIC "-//W3C//DTD SVG 1.1//EN"
 "http://www.w3.org/Graphics/SVG/1.1/DTD/svg11.dtd">
<!-- Generated by graphviz version 2.38.0 (20140413.2041)
 -->
<!-- Title: problem.impl.hh Pages: 1 -->
<svg width="872pt" height="207pt"
 viewBox="0.00 0.00 871.50 207.00" xmlns="http://www.w3.org/2000/svg" xmlns:xlink="http://www.w3.org/1999/xlink">
<g id="graph0" class="graph" transform="scale(1 1) rotate(0) translate(4 203)">
<title>problem.impl.hh</title>
<polygon fill="white" stroke="none" points="-4,4 -4,-203 867.5,-203 867.5,4 -4,4"/>
<!-- Node1 -->
<g id="node1" class="node"><title>Node1</title>
<polygon fill="#bfbfbf" stroke="black" points="256,-179.5 256,-198.5 342,-198.5 342,-179.5 256,-179.5"/>
<text text-anchor="middle" x="299" y="-186.5" font-family="Helvetica,sans-Serif" font-size="10.00">problem.impl.hh</text>
</g>
<!-- Node2 -->
<g id="node2" class="node"><title>Node2</title>
<polygon fill="white" stroke="#bfbfbf" points="-3.55271e-15,-118 -3.55271e-15,-137 44,-137 44,-118 -3.55271e-15,-118"/>
<text text-anchor="middle" x="22" y="-125" font-family="Helvetica,sans-Serif" font-size="10.00">vector</text>
</g>
<!-- Node1&#45;&gt;Node2 -->
<g id="edge1" class="edge"><title>Node1&#45;&gt;Node2</title>
<path fill="none" stroke="midnightblue" d="M255.965,-183.519C206.21,-177.566 122.274,-165.131 53,-143 51.3268,-142.465 49.6267,-141.861 47.9281,-141.21"/>
<polygon fill="midnightblue" stroke="midnightblue" points="48.986,-137.856 38.4158,-137.133 46.2285,-144.29 48.986,-137.856"/>
</g>
<!-- Node3 -->
<g id="node3" class="node"><title>Node3</title>
<polygon fill="white" stroke="#bfbfbf" points="62,-118 62,-137 110,-137 110,-118 62,-118"/>
<text text-anchor="middle" x="86" y="-125" font-family="Helvetica,sans-Serif" font-size="10.00">stdlib.h</text>
</g>
<!-- Node1&#45;&gt;Node3 -->
<g id="edge2" class="edge"><title>Node1&#45;&gt;Node3</title>
<path fill="none" stroke="midnightblue" d="M260.756,-179.479C225.065,-171.218 170.484,-157.793 124,-143 121.586,-142.232 119.102,-141.394 116.616,-140.522"/>
<polygon fill="midnightblue" stroke="midnightblue" points="117.748,-137.209 107.154,-137.056 115.341,-143.782 117.748,-137.209"/>
</g>
<!-- Node4 -->
<g id="node4" class="node"><title>Node4</title>
<g id="a_node4"><a xlink:href="a00001.html" target="_top" xlink:title="hpp/corbaserver/fwd.hh">
<polygon fill="white" stroke="black" points="79.5,-56.5 79.5,-75.5 198.5,-75.5 198.5,-56.5 79.5,-56.5"/>
<text text-anchor="middle" x="139" y="-63.5" font-family="Helvetica,sans-Serif" font-size="10.00">hpp/corbaserver/fwd.hh</text>
</a>
</g>
</g>
<!-- Node1&#45;&gt;Node4 -->
<g id="edge3" class="edge"><title>Node1&#45;&gt;Node4</title>
<path fill="none" stroke="midnightblue" d="M255.792,-185.369C224.099,-181.12 182.336,-170.293 157,-143 142.759,-127.659 139.148,-103.183 138.525,-86.1684"/>
<polygon fill="midnightblue" stroke="midnightblue" points="142.023,-85.7687 138.477,-75.7848 135.023,-85.8008 142.023,-85.7687"/>
</g>
<!-- Node7 -->
<g id="node7" class="node"><title>Node7</title>
<polygon fill="white" stroke="#bfbfbf" points="166,-112.5 166,-142.5 290,-142.5 290,-112.5 166,-112.5"/>
<text text-anchor="start" x="174" y="-130.5" font-family="Helvetica,sans-Serif" font-size="10.00">hpp/corbaserver/problem</text>
<text text-anchor="middle" x="228" y="-119.5" font-family="Helvetica,sans-Serif" font-size="10.00">&#45;idl.hh</text>
</g>
<!-- Node1&#45;&gt;Node7 -->
<g id="edge6" class="edge"><title>Node1&#45;&gt;Node7</title>
<path fill="none" stroke="midnightblue" d="M288.827,-179.475C279.391,-171.567 264.973,-159.485 252.543,-149.067"/>
<polygon fill="midnightblue" stroke="midnightblue" points="254.646,-146.263 244.733,-142.523 250.15,-151.629 254.646,-146.263"/>
</g>
<!-- Node8 -->
<g id="node8" class="node"><title>Node8</title>
<g id="a_node8"><a xlink:href="a00088.html" target="_top" xlink:title="hpp/corbaserver/problem\l&#45;solver&#45;map.hh">
<polygon fill="white" stroke="black" points="308,-112.5 308,-142.5 432,-142.5 432,-112.5 308,-112.5"/>
<text text-anchor="start" x="316" y="-130.5" font-family="Helvetica,sans-Serif" font-size="10.00">hpp/corbaserver/problem</text>
<text text-anchor="middle" x="370" y="-119.5" font-family="Helvetica,sans-Serif" font-size="10.00">&#45;solver&#45;map.hh</text>
</a>
</g>
</g>
<!-- Node1&#45;&gt;Node8 -->
<g id="edge7" class="edge"><title>Node1&#45;&gt;Node8</title>
<path fill="none" stroke="midnightblue" d="M309.173,-179.475C318.609,-171.567 333.027,-159.485 345.457,-149.067"/>
<polygon fill="midnightblue" stroke="midnightblue" points="347.85,-151.629 353.267,-142.523 343.354,-146.263 347.85,-151.629"/>
</g>
<!-- Node12 -->
<g id="node12" class="node"><title>Node12</title>
<polygon fill="white" stroke="#bfbfbf" points="450,-112.5 450,-142.5 564,-142.5 564,-112.5 450,-112.5"/>
<text text-anchor="start" x="458" y="-130.5" font-family="Helvetica,sans-Serif" font-size="10.00">hpp/core_idl/distances</text>
<text text-anchor="middle" x="507" y="-119.5" font-family="Helvetica,sans-Serif" font-size="10.00">&#45;idl.hh</text>
</g>
<!-- Node1&#45;&gt;Node12 -->
<g id="edge13" class="edge"><title>Node1&#45;&gt;Node12</title>
<path fill="none" stroke="midnightblue" d="M328.801,-179.475C359.868,-170.588 409.366,-156.429 448.32,-145.286"/>
<polygon fill="midnightblue" stroke="midnightblue" points="449.327,-148.638 457.979,-142.523 447.402,-141.908 449.327,-148.638"/>
</g>
<!-- Node13 -->
<g id="node13" class="node"><title>Node13</title>
<polygon fill="white" stroke="#bfbfbf" points="582,-112.5 582,-142.5 694,-142.5 694,-112.5 582,-112.5"/>
<text text-anchor="start" x="590" y="-130.5" font-family="Helvetica,sans-Serif" font-size="10.00">hpp/core_idl/_problem</text>
<text text-anchor="middle" x="638" y="-119.5" font-family="Helvetica,sans-Serif" font-size="10.00">&#45;idl.hh</text>
</g>
<!-- Node1&#45;&gt;Node13 -->
<g id="edge14" class="edge"><title>Node1&#45;&gt;Node13</title>
<path fill="none" stroke="midnightblue" d="M342.32,-181.662C394.437,-173.865 484.808,-159.799 571.648,-143.201"/>
<polygon fill="midnightblue" stroke="midnightblue" points="572.513,-146.599 581.671,-141.271 571.189,-139.725 572.513,-146.599"/>
</g>
<!-- Node14 -->
<g id="node14" class="node"><title>Node14</title>
<polygon fill="white" stroke="#bfbfbf" points="712.5,-118 712.5,-137 863.5,-137 863.5,-118 712.5,-118"/>
<text text-anchor="middle" x="788" y="-125" font-family="Helvetica,sans-Serif" font-size="10.00">hpp/corbaserver/deprecated.hh</text>
</g>
<!-- Node1&#45;&gt;Node14 -->
<g id="edge15" class="edge"><title>Node1&#45;&gt;Node14</title>
<path fill="none" stroke="midnightblue" d="M342.153,-184.023C416.156,-177.018 571.97,-161.458 703,-143 712.036,-141.727 721.587,-140.238 730.897,-138.709"/>
<polygon fill="midnightblue" stroke="midnightblue" points="731.582,-142.143 740.868,-137.041 730.427,-135.239 731.582,-142.143"/>
</g>
<!-- Node5 -->
<g id="node5" class="node"><title>Node5</title>
<polygon fill="white" stroke="#bfbfbf" points="69,-0.5 69,-19.5 181,-19.5 181,-0.5 69,-0.5"/>
<text text-anchor="middle" x="125" y="-7.5" font-family="Helvetica,sans-Serif" font-size="10.00">omniORB4/CORBA.h</text>
</g>
<!-- Node4&#45;&gt;Node5 -->
<g id="edge4" class="edge"><title>Node4&#45;&gt;Node5</title>
<path fill="none" stroke="midnightblue" d="M136.688,-56.083C134.833,-48.9272 132.165,-38.6353 129.846,-29.6911"/>
<polygon fill="midnightblue" stroke="midnightblue" points="133.166,-28.5527 127.269,-19.7511 126.391,-30.3094 133.166,-28.5527"/>
</g>
<!-- Node6 -->
<g id="node6" class="node"><title>Node6</title>
<g id="a_node6"><a doxygen="/local/devel/hpp/install/share/doc/hpp-core/doxygen-html/hpp-core.doxytag:../../hpp-core/doxygen-html/" xlink:href="../../hpp-core/doxygen-html/a00001.html" target="_top" xlink:title="hpp/core/fwd.hh">
<polygon fill="white" stroke="black" points="199,-0.5 199,-19.5 285,-19.5 285,-0.5 199,-0.5"/>
<text text-anchor="middle" x="242" y="-7.5" font-family="Helvetica,sans-Serif" font-size="10.00">hpp/core/fwd.hh</text>
</a>
</g>
</g>
<!-- Node4&#45;&gt;Node6 -->
<g id="edge5" class="edge"><title>Node4&#45;&gt;Node6</title>
<path fill="none" stroke="midnightblue" d="M155.549,-56.324C171.992,-47.7034 197.435,-34.3643 216.468,-24.3855"/>
<polygon fill="midnightblue" stroke="midnightblue" points="218.261,-27.3977 225.492,-19.6545 215.011,-21.198 218.261,-27.3977"/>
</g>
<!-- Node8&#45;&gt;Node4 -->
<g id="edge10" class="edge"><title>Node8&#45;&gt;Node4</title>
<path fill="none" stroke="midnightblue" d="M315.549,-112.475C274.826,-101.986 219.896,-87.8367 182.18,-78.1221"/>
<polygon fill="midnightblue" stroke="midnightblue" points="182.582,-74.6114 172.025,-75.5064 180.836,-81.3902 182.582,-74.6114"/>
</g>
<!-- Node8&#45;&gt;Node6 -->
<g id="edge12" class="edge"><title>Node8&#45;&gt;Node6</title>
<path fill="none" stroke="midnightblue" d="M318.435,-112.399C298.386,-104.596 276.74,-92.9438 262,-76 250.749,-63.0669 245.827,-43.8965 243.674,-29.7235"/>
<polygon fill="midnightblue" stroke="midnightblue" points="247.131,-29.1587 242.473,-19.6431 240.18,-29.987 247.131,-29.1587"/>
</g>
<!-- Node9 -->
<g id="node9" class="node"><title>Node9</title>
<polygon fill="white" stroke="#bfbfbf" points="270.5,-56.5 270.5,-75.5 305.5,-75.5 305.5,-56.5 270.5,-56.5"/>
<text text-anchor="middle" x="288" y="-63.5" font-family="Helvetica,sans-Serif" font-size="10.00">map</text>
</g>
<!-- Node8&#45;&gt;Node9 -->
<g id="edge8" class="edge"><title>Node8&#45;&gt;Node9</title>
<path fill="none" stroke="midnightblue" d="M350.567,-112.399C337.792,-103.129 321.111,-91.0254 308.186,-81.6469"/>
<polygon fill="midnightblue" stroke="midnightblue" points="310.081,-78.6979 299.932,-75.6578 305.97,-84.3635 310.081,-78.6979"/>
</g>
<!-- Node10 -->
<g id="node10" class="node"><title>Node10</title>
<polygon fill="white" stroke="#bfbfbf" points="323.5,-56.5 323.5,-75.5 442.5,-75.5 442.5,-56.5 323.5,-56.5"/>
<text text-anchor="middle" x="383" y="-63.5" font-family="Helvetica,sans-Serif" font-size="10.00">boost/thread/mutex.hpp</text>
</g>
<!-- Node8&#45;&gt;Node10 -->
<g id="edge9" class="edge"><title>Node8&#45;&gt;Node10</title>
<path fill="none" stroke="midnightblue" d="M373.081,-112.399C374.834,-104.377 377.05,-94.2328 378.943,-85.569"/>
<polygon fill="midnightblue" stroke="midnightblue" points="382.393,-86.1744 381.108,-75.6578 375.554,-84.6802 382.393,-86.1744"/>
</g>
<!-- Node11 -->
<g id="node11" class="node"><title>Node11</title>
<polygon fill="white" stroke="#bfbfbf" points="460.5,-56.5 460.5,-75.5 589.5,-75.5 589.5,-56.5 460.5,-56.5"/>
<text text-anchor="middle" x="525" y="-63.5" font-family="Helvetica,sans-Serif" font-size="10.00">hpp/corbaserver/config.hh</text>
</g>
<!-- Node8&#45;&gt;Node11 -->
<g id="edge11" class="edge"><title>Node8&#45;&gt;Node11</title>
<path fill="none" stroke="midnightblue" d="M406.733,-112.399C432.971,-102.327 467.925,-88.9093 493.018,-79.2769"/>
<polygon fill="midnightblue" stroke="midnightblue" points="494.365,-82.5091 502.446,-75.6578 491.856,-75.9741 494.365,-82.5091"/>
</g>
</g>
</svg>
