<?xml version="1.0" encoding="UTF-8" standalone="no"?>
<!DOCTYPE svg PUBLIC "-//W3C//DTD SVG 1.1//EN"
 "http://www.w3.org/Graphics/SVG/1.1/DTD/svg11.dtd">
<!-- Generated by graphviz version 2.38.0 (20140413.2041)
 -->
<!-- Title: servant&#45;base.hh Pages: 1 -->
<svg width="652pt" height="263pt"
 viewBox="0.00 0.00 652.00 263.00" xmlns="http://www.w3.org/2000/svg" xmlns:xlink="http://www.w3.org/1999/xlink">
<g id="graph0" class="graph" transform="scale(1 1) rotate(0) translate(4 259)">
<title>servant&#45;base.hh</title>
<polygon fill="white" stroke="none" points="-4,4 -4,-259 648,-259 648,4 -4,4"/>
<!-- Node1 -->
<g id="node1" class="node"><title>Node1</title>
<polygon fill="#bfbfbf" stroke="black" points="105.5,-235.5 105.5,-254.5 191.5,-254.5 191.5,-235.5 105.5,-235.5"/>
<text text-anchor="middle" x="148.5" y="-242.5" font-family="Helvetica,sans-Serif" font-size="10.00">servant&#45;base.hh</text>
</g>
<!-- Node2 -->
<g id="node2" class="node"><title>Node2</title>
<polygon fill="white" stroke="#bfbfbf" points="0,-179.5 0,-198.5 81,-198.5 81,-179.5 0,-179.5"/>
<text text-anchor="middle" x="40.5" y="-186.5" font-family="Helvetica,sans-Serif" font-size="10.00">boost/type.hpp</text>
</g>
<!-- Node1&#45;&gt;Node2 -->
<g id="edge1" class="edge"><title>Node1&#45;&gt;Node2</title>
<path fill="none" stroke="midnightblue" d="M131.148,-235.324C113.828,-226.664 86.9847,-213.242 66.9981,-203.249"/>
<polygon fill="midnightblue" stroke="midnightblue" points="68.3186,-199.996 57.809,-198.655 65.188,-206.257 68.3186,-199.996"/>
</g>
<!-- Node3 -->
<g id="node3" class="node"><title>Node3</title>
<polygon fill="white" stroke="#bfbfbf" points="99,-179.5 99,-198.5 198,-198.5 198,-179.5 99,-179.5"/>
<text text-anchor="middle" x="148.5" y="-186.5" font-family="Helvetica,sans-Serif" font-size="10.00">hpp/common&#45;idl.hh</text>
</g>
<!-- Node1&#45;&gt;Node3 -->
<g id="edge2" class="edge"><title>Node1&#45;&gt;Node3</title>
<path fill="none" stroke="midnightblue" d="M148.5,-235.083C148.5,-228.006 148.5,-217.861 148.5,-208.986"/>
<polygon fill="midnightblue" stroke="midnightblue" points="152,-208.751 148.5,-198.751 145,-208.751 152,-208.751"/>
</g>
<!-- Node4 -->
<g id="node4" class="node"><title>Node4</title>
<g id="a_node4"><a xlink:href="a00098.html" target="_top" xlink:title="hpp/corbaserver/server.hh">
<polygon fill="white" stroke="black" points="216.5,-179.5 216.5,-198.5 346.5,-198.5 346.5,-179.5 216.5,-179.5"/>
<text text-anchor="middle" x="281.5" y="-186.5" font-family="Helvetica,sans-Serif" font-size="10.00">hpp/corbaserver/server.hh</text>
</a>
</g>
</g>
<!-- Node1&#45;&gt;Node4 -->
<g id="edge3" class="edge"><title>Node1&#45;&gt;Node4</title>
<path fill="none" stroke="midnightblue" d="M169.574,-235.444C191.56,-226.517 226.234,-212.439 251.164,-202.317"/>
<polygon fill="midnightblue" stroke="midnightblue" points="252.576,-205.521 260.524,-198.516 249.942,-199.035 252.576,-205.521"/>
</g>
<!-- Node5 -->
<g id="node5" class="node"><title>Node5</title>
<polygon fill="white" stroke="#bfbfbf" points="93.5,-0.5 93.5,-19.5 205.5,-19.5 205.5,-0.5 93.5,-0.5"/>
<text text-anchor="middle" x="149.5" y="-7.5" font-family="Helvetica,sans-Serif" font-size="10.00">omniORB4/CORBA.h</text>
</g>
<!-- Node4&#45;&gt;Node5 -->
<g id="edge4" class="edge"><title>Node4&#45;&gt;Node5</title>
<path fill="none" stroke="midnightblue" d="M261.696,-179.491C229.078,-164.241 165.117,-128.831 139.5,-76 132.425,-61.4085 136.279,-43.0001 141.112,-29.5016"/>
<polygon fill="midnightblue" stroke="midnightblue" points="144.493,-30.4777 145.008,-19.8954 138.006,-27.8466 144.493,-30.4777"/>
</g>
<!-- Node6 -->
<g id="node6" class="node"><title>Node6</title>
<g id="a_node6"><a xlink:href="a00001.html" target="_top" xlink:title="hpp/corbaserver/fwd.hh">
<polygon fill="white" stroke="black" points="149,-56.5 149,-75.5 268,-75.5 268,-56.5 149,-56.5"/>
<text text-anchor="middle" x="208.5" y="-63.5" font-family="Helvetica,sans-Serif" font-size="10.00">hpp/corbaserver/fwd.hh</text>
</a>
</g>
</g>
<!-- Node4&#45;&gt;Node6 -->
<g id="edge5" class="edge"><title>Node4&#45;&gt;Node6</title>
<path fill="none" stroke="midnightblue" d="M276.25,-179.298C264.307,-159.502 234.914,-110.782 219.054,-84.4932"/>
<polygon fill="midnightblue" stroke="midnightblue" points="221.865,-82.3776 213.702,-75.6232 215.871,-85.9936 221.865,-82.3776"/>
</g>
<!-- Node8 -->
<g id="node8" class="node"><title>Node8</title>
<polygon fill="white" stroke="#bfbfbf" points="515,-56.5 515,-75.5 644,-75.5 644,-56.5 515,-56.5"/>
<text text-anchor="middle" x="579.5" y="-63.5" font-family="Helvetica,sans-Serif" font-size="10.00">hpp/corbaserver/config.hh</text>
</g>
<!-- Node4&#45;&gt;Node8 -->
<g id="edge8" class="edge"><title>Node4&#45;&gt;Node8</title>
<path fill="none" stroke="midnightblue" d="M305.74,-179.385C330.266,-170.574 369.209,-156.328 402.5,-143 455.341,-121.845 516.156,-95.2264 550.987,-79.7598"/>
<polygon fill="midnightblue" stroke="midnightblue" points="552.796,-82.7855 560.509,-75.5216 549.95,-76.3904 552.796,-82.7855"/>
</g>
<!-- Node9 -->
<g id="node9" class="node"><title>Node9</title>
<g id="a_node9"><a xlink:href="a00088.html" target="_top" xlink:title="hpp/corbaserver/problem\l&#45;solver&#45;map.hh">
<polygon fill="white" stroke="black" points="269.5,-112.5 269.5,-142.5 393.5,-142.5 393.5,-112.5 269.5,-112.5"/>
<text text-anchor="start" x="277.5" y="-130.5" font-family="Helvetica,sans-Serif" font-size="10.00">hpp/corbaserver/problem</text>
<text text-anchor="middle" x="331.5" y="-119.5" font-family="Helvetica,sans-Serif" font-size="10.00">&#45;solver&#45;map.hh</text>
</a>
</g>
</g>
<!-- Node4&#45;&gt;Node9 -->
<g id="edge9" class="edge"><title>Node4&#45;&gt;Node9</title>
<path fill="none" stroke="midnightblue" d="M288.664,-179.475C295.056,-171.869 304.694,-160.399 313.21,-150.265"/>
<polygon fill="midnightblue" stroke="midnightblue" points="315.962,-152.43 319.716,-142.523 310.603,-147.927 315.962,-152.43"/>
</g>
<!-- Node6&#45;&gt;Node5 -->
<g id="edge6" class="edge"><title>Node6&#45;&gt;Node5</title>
<path fill="none" stroke="midnightblue" d="M199.021,-56.324C190.299,-48.3414 177.157,-36.3128 166.602,-26.6529"/>
<polygon fill="midnightblue" stroke="midnightblue" points="168.892,-24.0036 159.152,-19.8339 164.166,-29.1674 168.892,-24.0036"/>
</g>
<!-- Node7 -->
<g id="node7" class="node"><title>Node7</title>
<g id="a_node7"><a doxygen="/local/devel/hpp/install/share/doc/hpp-core/doxygen-html/hpp-core.doxytag:../../hpp-core/doxygen-html/" xlink:href="../../hpp-core/doxygen-html/a00001.html" target="_top" xlink:title="hpp/core/fwd.hh">
<polygon fill="white" stroke="black" points="238.5,-0.5 238.5,-19.5 324.5,-19.5 324.5,-0.5 238.5,-0.5"/>
<text text-anchor="middle" x="281.5" y="-7.5" font-family="Helvetica,sans-Serif" font-size="10.00">hpp/core/fwd.hh</text>
</a>
</g>
</g>
<!-- Node6&#45;&gt;Node7 -->
<g id="edge7" class="edge"><title>Node6&#45;&gt;Node7</title>
<path fill="none" stroke="midnightblue" d="M220.229,-56.324C231.337,-48.1066 248.242,-35.6017 261.483,-25.8069"/>
<polygon fill="midnightblue" stroke="midnightblue" points="263.6,-28.5948 269.558,-19.8339 259.437,-22.9671 263.6,-28.5948"/>
</g>
<!-- Node9&#45;&gt;Node6 -->
<g id="edge12" class="edge"><title>Node9&#45;&gt;Node6</title>
<path fill="none" stroke="midnightblue" d="M302.351,-112.399C282.082,-102.595 255.259,-89.6194 235.481,-80.052"/>
<polygon fill="midnightblue" stroke="midnightblue" points="236.924,-76.8618 226.398,-75.6578 233.876,-83.1632 236.924,-76.8618"/>
</g>
<!-- Node9&#45;&gt;Node7 -->
<g id="edge14" class="edge"><title>Node9&#45;&gt;Node7</title>
<path fill="none" stroke="midnightblue" d="M325.369,-112.337C316.278,-91.3379 299.229,-51.9551 289.274,-28.9579"/>
<polygon fill="midnightblue" stroke="midnightblue" points="292.438,-27.456 285.253,-19.6695 286.014,-30.2369 292.438,-27.456"/>
</g>
<!-- Node9&#45;&gt;Node8 -->
<g id="edge13" class="edge"><title>Node9&#45;&gt;Node8</title>
<path fill="none" stroke="midnightblue" d="M389.958,-112.475C434.051,-101.896 493.66,-87.5946 534.177,-77.874"/>
<polygon fill="midnightblue" stroke="midnightblue" points="535.137,-81.2429 544.045,-75.5064 533.504,-74.436 535.137,-81.2429"/>
</g>
<!-- Node10 -->
<g id="node10" class="node"><title>Node10</title>
<polygon fill="white" stroke="#bfbfbf" points="325,-56.5 325,-75.5 360,-75.5 360,-56.5 325,-56.5"/>
<text text-anchor="middle" x="342.5" y="-63.5" font-family="Helvetica,sans-Serif" font-size="10.00">map</text>
</g>
<!-- Node9&#45;&gt;Node10 -->
<g id="edge10" class="edge"><title>Node9&#45;&gt;Node10</title>
<path fill="none" stroke="midnightblue" d="M334.107,-112.399C335.59,-104.377 337.465,-94.2328 339.067,-85.569"/>
<polygon fill="midnightblue" stroke="midnightblue" points="342.523,-86.1275 340.899,-75.6578 335.64,-84.8548 342.523,-86.1275"/>
</g>
<!-- Node11 -->
<g id="node11" class="node"><title>Node11</title>
<polygon fill="white" stroke="#bfbfbf" points="378,-56.5 378,-75.5 497,-75.5 497,-56.5 378,-56.5"/>
<text text-anchor="middle" x="437.5" y="-63.5" font-family="Helvetica,sans-Serif" font-size="10.00">boost/thread/mutex.hpp</text>
</g>
<!-- Node9&#45;&gt;Node11 -->
<g id="edge11" class="edge"><title>Node9&#45;&gt;Node11</title>
<path fill="none" stroke="midnightblue" d="M356.621,-112.399C373.77,-102.773 396.365,-90.0902 413.312,-80.5772"/>
<polygon fill="midnightblue" stroke="midnightblue" points="415.069,-83.6047 422.076,-75.6578 411.643,-77.5006 415.069,-83.6047"/>
</g>
</g>
</svg>
