<?xml version="1.0" encoding="UTF-8" standalone="no"?>
<!DOCTYPE svg PUBLIC "-//W3C//DTD SVG 1.1//EN"
 "http://www.w3.org/Graphics/SVG/1.1/DTD/svg11.dtd">
<!-- Generated by graphviz version 2.38.0 (20140413.2041)
 -->
<!-- Title: hpp::corbaServer::constraints_idl::ImplicitServant&lt; _Base, _Storage &gt; Pages: 1 -->
<svg width="387pt" height="296pt"
 viewBox="0.00 0.00 386.50 296.00" xmlns="http://www.w3.org/2000/svg" xmlns:xlink="http://www.w3.org/1999/xlink">
<g id="graph0" class="graph" transform="scale(1 1) rotate(0) translate(4 292)">
<title>hpp::corbaServer::constraints_idl::ImplicitServant&lt; _Base, _Storage &gt;</title>
<polygon fill="white" stroke="none" points="-4,4 -4,-292 382.5,-292 382.5,4 -4,4"/>
<!-- Node1 -->
<g id="node1" class="node"><title>Node1</title>
<polygon fill="#bfbfbf" stroke="black" points="233.5,-0.5 233.5,-41.5 378.5,-41.5 378.5,-0.5 233.5,-0.5"/>
<text text-anchor="start" x="241.5" y="-29.5" font-family="Helvetica,sans-Serif" font-size="10.00">hpp::corbaServer::constraints</text>
<text text-anchor="start" x="241.5" y="-18.5" font-family="Helvetica,sans-Serif" font-size="10.00">_idl::ImplicitServant&lt; _Base,</text>
<text text-anchor="middle" x="306" y="-7.5" font-family="Helvetica,sans-Serif" font-size="10.00"> _Storage &gt;</text>
</g>
<!-- Node2 -->
<g id="node2" class="node"><title>Node2</title>
<g id="a_node2"><a xlink:href="a00051.html" target="_top" xlink:title="hpp::corbaServer::Servant\lBase\&lt; constraints::Implicit,\l _Storage \&gt;">
<polygon fill="white" stroke="black" points="156.5,-79.5 156.5,-120.5 293.5,-120.5 293.5,-79.5 156.5,-79.5"/>
<text text-anchor="start" x="164.5" y="-108.5" font-family="Helvetica,sans-Serif" font-size="10.00">hpp::corbaServer::Servant</text>
<text text-anchor="start" x="164.5" y="-97.5" font-family="Helvetica,sans-Serif" font-size="10.00">Base&lt; constraints::Implicit,</text>
<text text-anchor="middle" x="225" y="-86.5" font-family="Helvetica,sans-Serif" font-size="10.00"> _Storage &gt;</text>
</a>
</g>
</g>
<!-- Node2&#45;&gt;Node1 -->
<g id="edge1" class="edge"><title>Node2&#45;&gt;Node1</title>
<path fill="none" stroke="midnightblue" d="M253.252,-72.1428C263.763,-62.1509 275.489,-51.004 285.211,-41.7622"/>
<polygon fill="midnightblue" stroke="midnightblue" points="250.696,-69.744 245.86,-79.1706 255.519,-74.8174 250.696,-69.744"/>
</g>
<!-- Node3 -->
<g id="node3" class="node"><title>Node3</title>
<g id="a_node3"><a xlink:href="a00007.html" target="_top" xlink:title="hpp::corbaServer::Abstract\lServantBase\&lt; constraints\l::Implicit \&gt;">
<polygon fill="white" stroke="black" points="74,-168.5 74,-209.5 208,-209.5 208,-168.5 74,-168.5"/>
<text text-anchor="start" x="82" y="-197.5" font-family="Helvetica,sans-Serif" font-size="10.00">hpp::corbaServer::Abstract</text>
<text text-anchor="start" x="82" y="-186.5" font-family="Helvetica,sans-Serif" font-size="10.00">ServantBase&lt; constraints</text>
<text text-anchor="middle" x="141" y="-175.5" font-family="Helvetica,sans-Serif" font-size="10.00">::Implicit &gt;</text>
</a>
</g>
</g>
<!-- Node3&#45;&gt;Node2 -->
<g id="edge2" class="edge"><title>Node3&#45;&gt;Node2</title>
<path fill="none" stroke="midnightblue" d="M167.167,-160.898C179.743,-147.873 194.537,-132.551 206.015,-120.664"/>
<polygon fill="midnightblue" stroke="midnightblue" points="164.489,-158.633 160.061,-168.258 169.525,-163.495 164.489,-158.633"/>
</g>
<!-- Node4 -->
<g id="node4" class="node"><title>Node4</title>
<g id="a_node4"><a xlink:href="a00008.html" target="_top" xlink:title="Abstract class used to avoid duplication of the servants. ">
<polygon fill="white" stroke="black" points="0,-257.5 0,-287.5 134,-287.5 134,-257.5 0,-257.5"/>
<text text-anchor="start" x="8" y="-275.5" font-family="Helvetica,sans-Serif" font-size="10.00">hpp::corbaServer::Abstract</text>
<text text-anchor="middle" x="67" y="-264.5" font-family="Helvetica,sans-Serif" font-size="10.00">ServantKey</text>
</a>
</g>
</g>
<!-- Node4&#45;&gt;Node3 -->
<g id="edge3" class="edge"><title>Node4&#45;&gt;Node3</title>
<path fill="none" stroke="#8b1a1a" d="M86.8828,-249.602C98.2208,-237.115 112.309,-221.598 123.269,-209.528"/>
<polygon fill="#8b1a1a" stroke="#8b1a1a" points="84.0208,-247.547 79.8898,-257.304 89.2033,-252.253 84.0208,-247.547"/>
</g>
<!-- Node5 -->
<g id="node5" class="node"><title>Node5</title>
<g id="a_node5"><a xlink:href="a00054.html" target="_top" xlink:title="Implementation of Hpp module Corba server. ">
<polygon fill="white" stroke="black" points="152.5,-263 152.5,-282 277.5,-282 277.5,-263 152.5,-263"/>
<text text-anchor="middle" x="215" y="-270" font-family="Helvetica,sans-Serif" font-size="10.00">hpp::corbaServer::Server</text>
</a>
</g>
</g>
<!-- Node5&#45;&gt;Node3 -->
<g id="edge4" class="edge"><title>Node5&#45;&gt;Node3</title>
<path fill="none" stroke="#9a32cd" stroke-dasharray="5,2" d="M200.058,-255.043C188.184,-241.966 171.537,-223.632 158.943,-209.761"/>
<polygon fill="#9a32cd" stroke="#9a32cd" points="197.767,-257.727 207.081,-262.778 202.95,-253.022 197.767,-257.727"/>
<text text-anchor="middle" x="203" y="-231" font-family="Helvetica,sans-Serif" font-size="10.00"> server_</text>
</g>
<!-- Node6 -->
<g id="node6" class="node"><title>Node6</title>
<polygon fill="white" stroke="#bfbfbf" points="226,-179.5 226,-198.5 282,-198.5 282,-179.5 226,-179.5"/>
<text text-anchor="middle" x="254" y="-186.5" font-family="Helvetica,sans-Serif" font-size="10.00">_Storage</text>
</g>
<!-- Node6&#45;&gt;Node2 -->
<g id="edge5" class="edge"><title>Node6&#45;&gt;Node2</title>
<path fill="none" stroke="#9a32cd" stroke-dasharray="5,2" d="M247.875,-169.624C243.089,-155.268 236.453,-135.359 231.56,-120.68"/>
<polygon fill="#9a32cd" stroke="#9a32cd" points="244.631,-170.96 251.113,-179.34 251.271,-168.746 244.631,-170.96"/>
<text text-anchor="middle" x="246.5" y="-142" font-family="Helvetica,sans-Serif" font-size="10.00"> s</text>
</g>
<!-- Node7 -->
<g id="node7" class="node"><title>Node7</title>
<polygon fill="white" stroke="#bfbfbf" points="312,-90.5 312,-109.5 356,-109.5 356,-90.5 312,-90.5"/>
<text text-anchor="middle" x="334" y="-97.5" font-family="Helvetica,sans-Serif" font-size="10.00">_Base</text>
</g>
<!-- Node7&#45;&gt;Node1 -->
<g id="edge6" class="edge"><title>Node7&#45;&gt;Node1</title>
<path fill="none" stroke="midnightblue" d="M327.408,-80.8722C323.137,-69.1262 317.573,-53.8267 313.189,-41.7685"/>
<polygon fill="midnightblue" stroke="midnightblue" points="324.19,-82.2636 330.897,-90.4655 330.768,-79.8714 324.19,-82.2636"/>
</g>
</g>
</svg>
