<?xml version="1.0" encoding="UTF-8" standalone="no"?>
<!DOCTYPE svg PUBLIC "-//W3C//DTD SVG 1.1//EN"
 "http://www.w3.org/Graphics/SVG/1.1/DTD/svg11.dtd">
<!-- Generated by graphviz version 2.38.0 (20140413.2041)
 -->
<!-- Title: hpp.corbaserver.problem_solver.ProblemSolver Pages: 1 -->
<svg width="132pt" height="95pt"
 viewBox="0.00 0.00 132.00 95.00" xmlns="http://www.w3.org/2000/svg" xmlns:xlink="http://www.w3.org/1999/xlink">
<g id="graph0" class="graph" transform="scale(1 1) rotate(0) translate(4 91)">
<title>hpp.corbaserver.problem_solver.ProblemSolver</title>
<polygon fill="white" stroke="none" points="-4,4 -4,-91 128,-91 128,4 -4,4"/>
<!-- Node1 -->
<g id="node1" class="node"><title>Node1</title>
<polygon fill="#bfbfbf" stroke="black" points="-7.10543e-15,-0.5 -7.10543e-15,-30.5 124,-30.5 124,-0.5 -7.10543e-15,-0.5"/>
<text text-anchor="start" x="8" y="-18.5" font-family="Helvetica,sans-Serif" font-size="10.00">hpp.corbaserver.problem</text>
<text text-anchor="middle" x="62" y="-7.5" font-family="Helvetica,sans-Serif" font-size="10.00">_solver.ProblemSolver</text>
</g>
<!-- Node2 -->
<g id="node2" class="node"><title>Node2</title>
<polygon fill="white" stroke="#bfbfbf" points="40.5,-67.5 40.5,-86.5 83.5,-86.5 83.5,-67.5 40.5,-67.5"/>
<text text-anchor="middle" x="62" y="-74.5" font-family="Helvetica,sans-Serif" font-size="10.00">object</text>
</g>
<!-- Node2&#45;&gt;Node1 -->
<g id="edge1" class="edge"><title>Node2&#45;&gt;Node1</title>
<path fill="none" stroke="midnightblue" d="M62,-57.2349C62,-48.5864 62,-38.4969 62,-30.523"/>
<polygon fill="midnightblue" stroke="midnightblue" points="58.5001,-57.4751 62,-67.4751 65.5001,-57.4751 58.5001,-57.4751"/>
</g>
</g>
</svg>
