<?xml version="1.0" encoding="UTF-8" standalone="no"?>
<!DOCTYPE svg PUBLIC "-//W3C//DTD SVG 1.1//EN"
 "http://www.w3.org/Graphics/SVG/1.1/DTD/svg11.dtd">
<!-- Generated by graphviz version 2.38.0 (20140413.2041)
 -->
<!-- Title: hpp::corbaServer::core_idl::PathVectorServant&lt; _Base, _Storage &gt; Pages: 1 -->
<svg width="385pt" height="353pt"
 viewBox="0.00 0.00 384.50 353.00" xmlns="http://www.w3.org/2000/svg" xmlns:xlink="http://www.w3.org/1999/xlink">
<g id="graph0" class="graph" transform="scale(1 1) rotate(0) translate(4 349)">
<title>hpp::corbaServer::core_idl::PathVectorServant&lt; _Base, _Storage &gt;</title>
<polygon fill="white" stroke="none" points="-4,4 -4,-349 380.5,-349 380.5,4 -4,4"/>
<!-- Node1 -->
<g id="node1" class="node"><title>Node1</title>
<polygon fill="#bfbfbf" stroke="black" points="251,-0.5 251,-41.5 371,-41.5 371,-0.5 251,-0.5"/>
<text text-anchor="start" x="259" y="-29.5" font-family="Helvetica,sans-Serif" font-size="10.00">hpp::corbaServer::core</text>
<text text-anchor="start" x="259" y="-18.5" font-family="Helvetica,sans-Serif" font-size="10.00">_idl::PathVectorServant</text>
<text text-anchor="middle" x="311" y="-7.5" font-family="Helvetica,sans-Serif" font-size="10.00">&lt; _Base, _Storage &gt;</text>
</g>
<!-- Node2 -->
<g id="node2" class="node"><title>Node2</title>
<g id="a_node2"><a xlink:href="a00034.html" target="_top" xlink:title="hpp::corbaServer::core\l_idl::PathServant\&lt; _Base,\l _Storage \&gt;">
<polygon fill="white" stroke="black" points="245.5,-79.5 245.5,-120.5 376.5,-120.5 376.5,-79.5 245.5,-79.5"/>
<text text-anchor="start" x="253.5" y="-108.5" font-family="Helvetica,sans-Serif" font-size="10.00">hpp::corbaServer::core</text>
<text text-anchor="start" x="253.5" y="-97.5" font-family="Helvetica,sans-Serif" font-size="10.00">_idl::PathServant&lt; _Base,</text>
<text text-anchor="middle" x="311" y="-86.5" font-family="Helvetica,sans-Serif" font-size="10.00"> _Storage &gt;</text>
</a>
</g>
</g>
<!-- Node2&#45;&gt;Node1 -->
<g id="edge1" class="edge"><title>Node2&#45;&gt;Node1</title>
<path fill="none" stroke="midnightblue" d="M311,-68.9057C311,-59.7917 311,-50.017 311,-41.7622"/>
<polygon fill="midnightblue" stroke="midnightblue" points="307.5,-69.1706 311,-79.1706 314.5,-69.1706 307.5,-69.1706"/>
</g>
<!-- Node3 -->
<g id="node3" class="node"><title>Node3</title>
<g id="a_node3"><a xlink:href="a00051.html" target="_top" xlink:title="hpp::corbaServer::Servant\lBase\&lt; core::Path, _Storage \&gt;">
<polygon fill="white" stroke="black" points="152.5,-158.5 152.5,-188.5 299.5,-188.5 299.5,-158.5 152.5,-158.5"/>
<text text-anchor="start" x="160.5" y="-176.5" font-family="Helvetica,sans-Serif" font-size="10.00">hpp::corbaServer::Servant</text>
<text text-anchor="middle" x="226" y="-165.5" font-family="Helvetica,sans-Serif" font-size="10.00">Base&lt; core::Path, _Storage &gt;</text>
</a>
</g>
</g>
<!-- Node3&#45;&gt;Node2 -->
<g id="edge2" class="edge"><title>Node3&#45;&gt;Node2</title>
<path fill="none" stroke="midnightblue" d="M250.506,-151.886C262.249,-142.008 276.239,-130.24 287.807,-120.51"/>
<polygon fill="midnightblue" stroke="midnightblue" points="248.193,-149.258 242.793,-158.374 252.699,-154.615 248.193,-149.258"/>
</g>
<!-- Node4 -->
<g id="node4" class="node"><title>Node4</title>
<g id="a_node4"><a xlink:href="a00007.html" target="_top" xlink:title="hpp::corbaServer::Abstract\lServantBase\&lt; core::Path \&gt;">
<polygon fill="white" stroke="black" points="73,-236.5 73,-266.5 209,-266.5 209,-236.5 73,-236.5"/>
<text text-anchor="start" x="81" y="-254.5" font-family="Helvetica,sans-Serif" font-size="10.00">hpp::corbaServer::Abstract</text>
<text text-anchor="middle" x="141" y="-243.5" font-family="Helvetica,sans-Serif" font-size="10.00">ServantBase&lt; core::Path &gt;</text>
</a>
</g>
</g>
<!-- Node4&#45;&gt;Node3 -->
<g id="edge3" class="edge"><title>Node4&#45;&gt;Node3</title>
<path fill="none" stroke="midnightblue" d="M164.605,-229.394C179.102,-216.432 197.282,-200.178 210.084,-188.731"/>
<polygon fill="midnightblue" stroke="midnightblue" points="162.11,-226.93 156.988,-236.205 166.775,-232.149 162.11,-226.93"/>
</g>
<!-- Node5 -->
<g id="node5" class="node"><title>Node5</title>
<g id="a_node5"><a xlink:href="a00008.html" target="_top" xlink:title="Abstract class used to avoid duplication of the servants. ">
<polygon fill="white" stroke="black" points="0,-314.5 0,-344.5 134,-344.5 134,-314.5 0,-314.5"/>
<text text-anchor="start" x="8" y="-332.5" font-family="Helvetica,sans-Serif" font-size="10.00">hpp::corbaServer::Abstract</text>
<text text-anchor="middle" x="67" y="-321.5" font-family="Helvetica,sans-Serif" font-size="10.00">ServantKey</text>
</a>
</g>
</g>
<!-- Node5&#45;&gt;Node4 -->
<g id="edge4" class="edge"><title>Node5&#45;&gt;Node4</title>
<path fill="none" stroke="#8b1a1a" d="M87.9018,-307.033C100.464,-294.132 116.101,-278.072 127.144,-266.731"/>
<polygon fill="#8b1a1a" stroke="#8b1a1a" points="85.3874,-304.599 80.9188,-314.205 90.4027,-309.482 85.3874,-304.599"/>
</g>
<!-- Node6 -->
<g id="node6" class="node"><title>Node6</title>
<g id="a_node6"><a xlink:href="a00054.html" target="_top" xlink:title="Implementation of Hpp module Corba server. ">
<polygon fill="white" stroke="black" points="152.5,-320 152.5,-339 277.5,-339 277.5,-320 152.5,-320"/>
<text text-anchor="middle" x="215" y="-327" font-family="Helvetica,sans-Serif" font-size="10.00">hpp::corbaServer::Server</text>
</a>
</g>
</g>
<!-- Node6&#45;&gt;Node4 -->
<g id="edge5" class="edge"><title>Node6&#45;&gt;Node4</title>
<path fill="none" stroke="#9a32cd" stroke-dasharray="5,2" d="M199.444,-312.524C186.19,-298.911 167.328,-279.54 154.651,-266.52"/>
<polygon fill="#9a32cd" stroke="#9a32cd" points="197.027,-315.059 206.511,-319.782 202.043,-310.175 197.027,-315.059"/>
<text text-anchor="middle" x="201" y="-288" font-family="Helvetica,sans-Serif" font-size="10.00"> server_</text>
</g>
<!-- Node7 -->
<g id="node7" class="node"><title>Node7</title>
<polygon fill="white" stroke="#bfbfbf" points="227,-242 227,-261 283,-261 283,-242 227,-242"/>
<text text-anchor="middle" x="255" y="-249" font-family="Helvetica,sans-Serif" font-size="10.00">_Storage</text>
</g>
<!-- Node7&#45;&gt;Node3 -->
<g id="edge6" class="edge"><title>Node7&#45;&gt;Node3</title>
<path fill="none" stroke="#9a32cd" stroke-dasharray="5,2" d="M248.01,-232.182C242.888,-218.758 236.039,-200.81 231.35,-188.52"/>
<polygon fill="#9a32cd" stroke="#9a32cd" points="244.838,-233.687 251.673,-241.782 251.378,-231.191 244.838,-233.687"/>
<text text-anchor="middle" x="247.5" y="-210" font-family="Helvetica,sans-Serif" font-size="10.00"> s</text>
</g>
<!-- Node8 -->
<g id="node8" class="node"><title>Node8</title>
<polygon fill="white" stroke="#bfbfbf" points="318,-164 318,-183 362,-183 362,-164 318,-164"/>
<text text-anchor="middle" x="340" y="-171" font-family="Helvetica,sans-Serif" font-size="10.00">_Base</text>
</g>
<!-- Node8&#45;&gt;Node2 -->
<g id="edge7" class="edge"><title>Node8&#45;&gt;Node2</title>
<path fill="none" stroke="midnightblue" d="M332.562,-154.16C328.4,-143.9 323.212,-131.108 318.968,-120.644"/>
<polygon fill="midnightblue" stroke="midnightblue" points="329.442,-155.781 336.444,-163.733 335.929,-153.15 329.442,-155.781"/>
</g>
</g>
</svg>
