<?xml version="1.0" encoding="UTF-8" standalone="no"?>
<!DOCTYPE svg PUBLIC "-//W3C//DTD SVG 1.1//EN"
 "http://www.w3.org/Graphics/SVG/1.1/DTD/svg11.dtd">
<!-- Generated by graphviz version 2.38.0 (20140413.2041)
 -->
<!-- Title: hpp::corbaServer::constraints_idl::DifferentiableFunctionServant&lt; _Base, _Storage &gt; Pages: 1 -->
<svg width="757pt" height="141pt"
 viewBox="0.00 0.00 757.00 140.50" xmlns="http://www.w3.org/2000/svg" xmlns:xlink="http://www.w3.org/1999/xlink">
<g id="graph0" class="graph" transform="scale(1 1) rotate(0) translate(4 136.5)">
<title>hpp::corbaServer::constraints_idl::DifferentiableFunctionServant&lt; _Base, _Storage &gt;</title>
<polygon fill="white" stroke="none" points="-4,4 -4,-136.5 753,-136.5 753,4 -4,4"/>
<!-- Node1 -->
<g id="node1" class="node"><title>Node1</title>
<polygon fill="#bfbfbf" stroke="black" points="582,-7.5 582,-48.5 749,-48.5 749,-7.5 582,-7.5"/>
<text text-anchor="start" x="590" y="-36.5" font-family="Helvetica,sans-Serif" font-size="10.00">hpp::corbaServer::constraints</text>
<text text-anchor="start" x="590" y="-25.5" font-family="Helvetica,sans-Serif" font-size="10.00">_idl::DifferentiableFunctionServant</text>
<text text-anchor="middle" x="665.5" y="-14.5" font-family="Helvetica,sans-Serif" font-size="10.00">&lt; _Base, _Storage &gt;</text>
</g>
<!-- Node2 -->
<g id="node2" class="node"><title>Node2</title>
<g id="a_node2"><a xlink:href="a00051.html" target="_top" xlink:title="hpp::corbaServer::Servant\lBase\&lt; constraints::Differentiable\lFunction, _Storage \&gt;">
<polygon fill="white" stroke="black" points="385,-38.5 385,-79.5 545,-79.5 545,-38.5 385,-38.5"/>
<text text-anchor="start" x="393" y="-67.5" font-family="Helvetica,sans-Serif" font-size="10.00">hpp::corbaServer::Servant</text>
<text text-anchor="start" x="393" y="-56.5" font-family="Helvetica,sans-Serif" font-size="10.00">Base&lt; constraints::Differentiable</text>
<text text-anchor="middle" x="465" y="-45.5" font-family="Helvetica,sans-Serif" font-size="10.00">Function, _Storage &gt;</text>
</a>
</g>
</g>
<!-- Node2&#45;&gt;Node1 -->
<g id="edge1" class="edge"><title>Node2&#45;&gt;Node1</title>
<path fill="none" stroke="midnightblue" d="M555.034,-45.0954C563.958,-43.7018 572.992,-42.2909 581.845,-40.9083"/>
<polygon fill="midnightblue" stroke="midnightblue" points="554.363,-41.6577 545.023,-46.6589 555.443,-48.5739 554.363,-41.6577"/>
</g>
<!-- Node3 -->
<g id="node3" class="node"><title>Node3</title>
<g id="a_node3"><a xlink:href="a00007.html" target="_top" xlink:title="hpp::corbaServer::Abstract\lServantBase\&lt; constraints\l::DifferentiableFunction \&gt;">
<polygon fill="white" stroke="black" points="206,-74.5 206,-115.5 340,-115.5 340,-74.5 206,-74.5"/>
<text text-anchor="start" x="214" y="-103.5" font-family="Helvetica,sans-Serif" font-size="10.00">hpp::corbaServer::Abstract</text>
<text text-anchor="start" x="214" y="-92.5" font-family="Helvetica,sans-Serif" font-size="10.00">ServantBase&lt; constraints</text>
<text text-anchor="middle" x="273" y="-81.5" font-family="Helvetica,sans-Serif" font-size="10.00">::DifferentiableFunction &gt;</text>
</a>
</g>
</g>
<!-- Node3&#45;&gt;Node2 -->
<g id="edge2" class="edge"><title>Node3&#45;&gt;Node2</title>
<path fill="none" stroke="midnightblue" d="M350.147,-80.5722C361.613,-78.3996 373.462,-76.1546 384.987,-73.9709"/>
<polygon fill="midnightblue" stroke="midnightblue" points="349.36,-77.159 340.186,-82.4595 350.663,-84.0366 349.36,-77.159"/>
</g>
<!-- Node4 -->
<g id="node4" class="node"><title>Node4</title>
<g id="a_node4"><a xlink:href="a00008.html" target="_top" xlink:title="Abstract class used to avoid duplication of the servants. ">
<polygon fill="white" stroke="black" points="0,-102 0,-132 134,-132 134,-102 0,-102"/>
<text text-anchor="start" x="8" y="-120" font-family="Helvetica,sans-Serif" font-size="10.00">hpp::corbaServer::Abstract</text>
<text text-anchor="middle" x="67" y="-109" font-family="Helvetica,sans-Serif" font-size="10.00">ServantKey</text>
</a>
</g>
</g>
<!-- Node4&#45;&gt;Node3 -->
<g id="edge3" class="edge"><title>Node4&#45;&gt;Node3</title>
<path fill="none" stroke="#8b1a1a" d="M144.327,-108.769C164.517,-106.591 186.143,-104.259 205.751,-102.145"/>
<polygon fill="#8b1a1a" stroke="#8b1a1a" points="143.8,-105.305 134.233,-109.857 144.551,-112.265 143.8,-105.305"/>
</g>
<!-- Node5 -->
<g id="node5" class="node"><title>Node5</title>
<g id="a_node5"><a xlink:href="a00054.html" target="_top" xlink:title="Implementation of Hpp module Corba server. ">
<polygon fill="white" stroke="black" points="4.5,-63.5 4.5,-82.5 129.5,-82.5 129.5,-63.5 4.5,-63.5"/>
<text text-anchor="middle" x="67" y="-70.5" font-family="Helvetica,sans-Serif" font-size="10.00">hpp::corbaServer::Server</text>
</a>
</g>
</g>
<!-- Node5&#45;&gt;Node3 -->
<g id="edge4" class="edge"><title>Node5&#45;&gt;Node3</title>
<path fill="none" stroke="#9a32cd" stroke-dasharray="5,2" d="M139.803,-80.7434C161.287,-83.0603 184.735,-85.5891 205.839,-87.8649"/>
<polygon fill="#9a32cd" stroke="#9a32cd" points="140.078,-77.2529 129.76,-79.6604 139.327,-84.2126 140.078,-77.2529"/>
<text text-anchor="middle" x="170" y="-89" font-family="Helvetica,sans-Serif" font-size="10.00"> server_</text>
</g>
<!-- Node6 -->
<g id="node6" class="node"><title>Node6</title>
<polygon fill="white" stroke="#bfbfbf" points="245,-36.5 245,-55.5 301,-55.5 301,-36.5 245,-36.5"/>
<text text-anchor="middle" x="273" y="-43.5" font-family="Helvetica,sans-Serif" font-size="10.00">_Storage</text>
</g>
<!-- Node6&#45;&gt;Node2 -->
<g id="edge5" class="edge"><title>Node6&#45;&gt;Node2</title>
<path fill="none" stroke="#9a32cd" stroke-dasharray="5,2" d="M311.288,-48.5513C332.239,-49.9848 359.219,-51.8308 384.659,-53.5714"/>
<polygon fill="#9a32cd" stroke="#9a32cd" points="311.438,-45.0535 301.222,-47.8626 310.96,-52.0371 311.438,-45.0535"/>
<text text-anchor="middle" x="362.5" y="-56" font-family="Helvetica,sans-Serif" font-size="10.00"> s</text>
</g>
<!-- Node7 -->
<g id="node7" class="node"><title>Node7</title>
<polygon fill="white" stroke="#bfbfbf" points="443,-0.5 443,-19.5 487,-19.5 487,-0.5 443,-0.5"/>
<text text-anchor="middle" x="465" y="-7.5" font-family="Helvetica,sans-Serif" font-size="10.00">_Base</text>
</g>
<!-- Node7&#45;&gt;Node1 -->
<g id="edge6" class="edge"><title>Node7&#45;&gt;Node1</title>
<path fill="none" stroke="midnightblue" d="M497.335,-12.8415C520.125,-14.908 552.094,-17.807 581.98,-20.5171"/>
<polygon fill="midnightblue" stroke="midnightblue" points="497.518,-9.3438 487.243,-11.9263 496.886,-16.3152 497.518,-9.3438"/>
</g>
</g>
</svg>
