<?xml version="1.0" encoding="UTF-8" standalone="no"?>
<!DOCTYPE svg PUBLIC "-//W3C//DTD SVG 1.1//EN"
 "http://www.w3.org/Graphics/SVG/1.1/DTD/svg11.dtd">
<!-- Generated by graphviz version 2.38.0 (20140413.2041)
 -->
<!-- Title: hpp::corbaServer::constraints_idl::ImplicitServant&lt; _Base, _Storage &gt; Pages: 1 -->
<svg width="208pt" height="273pt"
 viewBox="0.00 0.00 207.50 273.00" xmlns="http://www.w3.org/2000/svg" xmlns:xlink="http://www.w3.org/1999/xlink">
<g id="graph0" class="graph" transform="scale(1 1) rotate(0) translate(4 269)">
<title>hpp::corbaServer::constraints_idl::ImplicitServant&lt; _Base, _Storage &gt;</title>
<polygon fill="white" stroke="none" points="-4,4 -4,-269 203.5,-269 203.5,4 -4,4"/>
<!-- Node1 -->
<g id="node1" class="node"><title>Node1</title>
<polygon fill="#bfbfbf" stroke="black" points="50,-0.5 50,-41.5 195,-41.5 195,-0.5 50,-0.5"/>
<text text-anchor="start" x="58" y="-29.5" font-family="Helvetica,sans-Serif" font-size="10.00">hpp::corbaServer::constraints</text>
<text text-anchor="start" x="58" y="-18.5" font-family="Helvetica,sans-Serif" font-size="10.00">_idl::ImplicitServant&lt; _Base,</text>
<text text-anchor="middle" x="122.5" y="-7.5" font-family="Helvetica,sans-Serif" font-size="10.00"> _Storage &gt;</text>
</g>
<!-- Node2 -->
<g id="node2" class="node"><title>Node2</title>
<g id="a_node2"><a xlink:href="a00051.html" target="_top" xlink:title="hpp::corbaServer::Servant\lBase\&lt; constraints::Implicit,\l _Storage \&gt;">
<polygon fill="white" stroke="black" points="0,-78.5 0,-119.5 137,-119.5 137,-78.5 0,-78.5"/>
<text text-anchor="start" x="8" y="-107.5" font-family="Helvetica,sans-Serif" font-size="10.00">hpp::corbaServer::Servant</text>
<text text-anchor="start" x="8" y="-96.5" font-family="Helvetica,sans-Serif" font-size="10.00">Base&lt; constraints::Implicit,</text>
<text text-anchor="middle" x="68.5" y="-85.5" font-family="Helvetica,sans-Serif" font-size="10.00"> _Storage &gt;</text>
</a>
</g>
</g>
<!-- Node2&#45;&gt;Node1 -->
<g id="edge1" class="edge"><title>Node2&#45;&gt;Node1</title>
<path fill="none" stroke="midnightblue" d="M88.3609,-70.0476C95.0981,-60.5657 102.474,-50.1845 108.641,-41.5056"/>
<polygon fill="midnightblue" stroke="midnightblue" points="85.3453,-68.2491 82.4063,-78.4281 91.0516,-72.3035 85.3453,-68.2491"/>
</g>
<!-- Node3 -->
<g id="node3" class="node"><title>Node3</title>
<g id="a_node3"><a xlink:href="a00007.html" target="_top" xlink:title="hpp::corbaServer::Abstract\lServantBase\&lt; constraints\l::Implicit \&gt;">
<polygon fill="white" stroke="black" points="1.5,-156.5 1.5,-197.5 135.5,-197.5 135.5,-156.5 1.5,-156.5"/>
<text text-anchor="start" x="9.5" y="-185.5" font-family="Helvetica,sans-Serif" font-size="10.00">hpp::corbaServer::Abstract</text>
<text text-anchor="start" x="9.5" y="-174.5" font-family="Helvetica,sans-Serif" font-size="10.00">ServantBase&lt; constraints</text>
<text text-anchor="middle" x="68.5" y="-163.5" font-family="Helvetica,sans-Serif" font-size="10.00">::Implicit &gt;</text>
</a>
</g>
</g>
<!-- Node3&#45;&gt;Node2 -->
<g id="edge2" class="edge"><title>Node3&#45;&gt;Node2</title>
<path fill="none" stroke="midnightblue" d="M68.5,-146.297C68.5,-137.301 68.5,-127.653 68.5,-119.506"/>
<polygon fill="midnightblue" stroke="midnightblue" points="65.0001,-146.428 68.5,-156.428 72.0001,-146.428 65.0001,-146.428"/>
</g>
<!-- Node4 -->
<g id="node4" class="node"><title>Node4</title>
<g id="a_node4"><a xlink:href="a00008.html" target="_top" xlink:title="Abstract class used to avoid duplication of the servants. ">
<polygon fill="white" stroke="black" points="1.5,-234.5 1.5,-264.5 135.5,-264.5 135.5,-234.5 1.5,-234.5"/>
<text text-anchor="start" x="9.5" y="-252.5" font-family="Helvetica,sans-Serif" font-size="10.00">hpp::corbaServer::Abstract</text>
<text text-anchor="middle" x="68.5" y="-241.5" font-family="Helvetica,sans-Serif" font-size="10.00">ServantKey</text>
</a>
</g>
</g>
<!-- Node4&#45;&gt;Node3 -->
<g id="edge3" class="edge"><title>Node4&#45;&gt;Node3</title>
<path fill="none" stroke="#8b1a1a" d="M68.5,-223.982C68.5,-215.347 68.5,-205.762 68.5,-197.588"/>
<polygon fill="#8b1a1a" stroke="#8b1a1a" points="65.0001,-224.233 68.5,-234.233 72.0001,-224.233 65.0001,-224.233"/>
</g>
<!-- Node5 -->
<g id="node5" class="node"><title>Node5</title>
<polygon fill="white" stroke="#bfbfbf" points="155.5,-89.5 155.5,-108.5 199.5,-108.5 199.5,-89.5 155.5,-89.5"/>
<text text-anchor="middle" x="177.5" y="-96.5" font-family="Helvetica,sans-Serif" font-size="10.00">_Base</text>
</g>
<!-- Node5&#45;&gt;Node1 -->
<g id="edge4" class="edge"><title>Node5&#45;&gt;Node1</title>
<path fill="none" stroke="midnightblue" d="M165.12,-80.8935C156.694,-69.2499 145.519,-53.8086 136.726,-41.6584"/>
<polygon fill="midnightblue" stroke="midnightblue" points="162.493,-83.2326 171.191,-89.2818 168.163,-79.1287 162.493,-83.2326"/>
</g>
</g>
</svg>
