<?xml version="1.0" encoding="UTF-8" standalone="no"?>
<!DOCTYPE svg PUBLIC "-//W3C//DTD SVG 1.1//EN"
 "http://www.w3.org/Graphics/SVG/1.1/DTD/svg11.dtd">
<!-- Generated by graphviz version 2.38.0 (20140413.2041)
 -->
<!-- Title: hpp::corbaServer::core_idl::DistanceServant&lt; _Base, _Storage &gt; Pages: 1 -->
<svg width="379pt" height="285pt"
 viewBox="0.00 0.00 379.00 285.00" xmlns="http://www.w3.org/2000/svg" xmlns:xlink="http://www.w3.org/1999/xlink">
<g id="graph0" class="graph" transform="scale(1 1) rotate(0) translate(4 281)">
<title>hpp::corbaServer::core_idl::DistanceServant&lt; _Base, _Storage &gt;</title>
<polygon fill="white" stroke="none" points="-4,4 -4,-281 375,-281 375,4 -4,4"/>
<!-- Node1 -->
<g id="node1" class="node"><title>Node1</title>
<polygon fill="#bfbfbf" stroke="black" points="255,-0.5 255,-41.5 371,-41.5 371,-0.5 255,-0.5"/>
<text text-anchor="start" x="263" y="-29.5" font-family="Helvetica,sans-Serif" font-size="10.00">hpp::corbaServer::core</text>
<text text-anchor="start" x="263" y="-18.5" font-family="Helvetica,sans-Serif" font-size="10.00">_idl::DistanceServant</text>
<text text-anchor="middle" x="313" y="-7.5" font-family="Helvetica,sans-Serif" font-size="10.00">&lt; _Base, _Storage &gt;</text>
</g>
<!-- Node2 -->
<g id="node2" class="node"><title>Node2</title>
<g id="a_node2"><a xlink:href="a00051.html" target="_top" xlink:title="hpp::corbaServer::Servant\lBase\&lt; core::Distance, \l_Storage \&gt;">
<polygon fill="white" stroke="black" points="168.5,-79.5 168.5,-120.5 299.5,-120.5 299.5,-79.5 168.5,-79.5"/>
<text text-anchor="start" x="176.5" y="-108.5" font-family="Helvetica,sans-Serif" font-size="10.00">hpp::corbaServer::Servant</text>
<text text-anchor="start" x="176.5" y="-97.5" font-family="Helvetica,sans-Serif" font-size="10.00">Base&lt; core::Distance, </text>
<text text-anchor="middle" x="234" y="-86.5" font-family="Helvetica,sans-Serif" font-size="10.00">_Storage &gt;</text>
</a>
</g>
</g>
<!-- Node2&#45;&gt;Node1 -->
<g id="edge1" class="edge"><title>Node2&#45;&gt;Node1</title>
<path fill="none" stroke="midnightblue" d="M261.555,-72.1428C271.806,-62.1509 283.243,-51.004 292.724,-41.7622"/>
<polygon fill="midnightblue" stroke="midnightblue" points="259.063,-69.6843 254.344,-79.1706 263.949,-74.6971 259.063,-69.6843"/>
</g>
<!-- Node3 -->
<g id="node3" class="node"><title>Node3</title>
<g id="a_node3"><a xlink:href="a00007.html" target="_top" xlink:title="hpp::corbaServer::Abstract\lServantBase\&lt; core::Distance \&gt;">
<polygon fill="white" stroke="black" points="63.5,-168.5 63.5,-198.5 218.5,-198.5 218.5,-168.5 63.5,-168.5"/>
<text text-anchor="start" x="71.5" y="-186.5" font-family="Helvetica,sans-Serif" font-size="10.00">hpp::corbaServer::Abstract</text>
<text text-anchor="middle" x="141" y="-175.5" font-family="Helvetica,sans-Serif" font-size="10.00">ServantBase&lt; core::Distance &gt;</text>
</a>
</g>
</g>
<!-- Node3&#45;&gt;Node2 -->
<g id="edge2" class="edge"><title>Node3&#45;&gt;Node2</title>
<path fill="none" stroke="midnightblue" d="M164.775,-161.665C179.222,-149.004 197.549,-132.943 211.717,-120.528"/>
<polygon fill="midnightblue" stroke="midnightblue" points="162.413,-159.081 157.199,-168.304 167.027,-164.345 162.413,-159.081"/>
</g>
<!-- Node4 -->
<g id="node4" class="node"><title>Node4</title>
<g id="a_node4"><a xlink:href="a00008.html" target="_top" xlink:title="Abstract class used to avoid duplication of the servants. ">
<polygon fill="white" stroke="black" points="0,-246.5 0,-276.5 134,-276.5 134,-246.5 0,-246.5"/>
<text text-anchor="start" x="8" y="-264.5" font-family="Helvetica,sans-Serif" font-size="10.00">hpp::corbaServer::Abstract</text>
<text text-anchor="middle" x="67" y="-253.5" font-family="Helvetica,sans-Serif" font-size="10.00">ServantKey</text>
</a>
</g>
</g>
<!-- Node4&#45;&gt;Node3 -->
<g id="edge3" class="edge"><title>Node4&#45;&gt;Node3</title>
<path fill="none" stroke="#8b1a1a" d="M87.9018,-239.033C100.464,-226.132 116.101,-210.072 127.144,-198.731"/>
<polygon fill="#8b1a1a" stroke="#8b1a1a" points="85.3874,-236.599 80.9188,-246.205 90.4027,-241.482 85.3874,-236.599"/>
</g>
<!-- Node5 -->
<g id="node5" class="node"><title>Node5</title>
<g id="a_node5"><a xlink:href="a00054.html" target="_top" xlink:title="Implementation of Hpp module Corba server. ">
<polygon fill="white" stroke="black" points="152.5,-252 152.5,-271 277.5,-271 277.5,-252 152.5,-252"/>
<text text-anchor="middle" x="215" y="-259" font-family="Helvetica,sans-Serif" font-size="10.00">hpp::corbaServer::Server</text>
</a>
</g>
</g>
<!-- Node5&#45;&gt;Node3 -->
<g id="edge4" class="edge"><title>Node5&#45;&gt;Node3</title>
<path fill="none" stroke="#9a32cd" stroke-dasharray="5,2" d="M199.444,-244.524C186.19,-230.911 167.328,-211.54 154.651,-198.52"/>
<polygon fill="#9a32cd" stroke="#9a32cd" points="197.027,-247.059 206.511,-251.782 202.043,-242.175 197.027,-247.059"/>
<text text-anchor="middle" x="201" y="-220" font-family="Helvetica,sans-Serif" font-size="10.00"> server_</text>
</g>
<!-- Node6 -->
<g id="node6" class="node"><title>Node6</title>
<polygon fill="white" stroke="#bfbfbf" points="237,-174 237,-193 293,-193 293,-174 237,-174"/>
<text text-anchor="middle" x="265" y="-181" font-family="Helvetica,sans-Serif" font-size="10.00">_Storage</text>
</g>
<!-- Node6&#45;&gt;Node2 -->
<g id="edge5" class="edge"><title>Node6&#45;&gt;Node2</title>
<path fill="none" stroke="#9a32cd" stroke-dasharray="5,2" d="M258.017,-164.141C253.106,-151.23 246.541,-133.972 241.517,-120.761"/>
<polygon fill="#9a32cd" stroke="#9a32cd" points="254.856,-165.676 261.682,-173.778 261.399,-163.187 254.856,-165.676"/>
<text text-anchor="middle" x="257.5" y="-142" font-family="Helvetica,sans-Serif" font-size="10.00"> s</text>
</g>
<!-- Node7 -->
<g id="node7" class="node"><title>Node7</title>
<polygon fill="white" stroke="#bfbfbf" points="318,-90.5 318,-109.5 362,-109.5 362,-90.5 318,-90.5"/>
<text text-anchor="middle" x="340" y="-97.5" font-family="Helvetica,sans-Serif" font-size="10.00">_Base</text>
</g>
<!-- Node7&#45;&gt;Node1 -->
<g id="edge6" class="edge"><title>Node7&#45;&gt;Node1</title>
<path fill="none" stroke="midnightblue" d="M333.643,-80.8722C329.525,-69.1262 324.16,-53.8267 319.932,-41.7685"/>
<polygon fill="midnightblue" stroke="midnightblue" points="330.396,-82.1869 337.007,-90.4655 337.001,-79.8706 330.396,-82.1869"/>
</g>
</g>
</svg>
