<?xml version="1.0" encoding="UTF-8" standalone="no"?>
<!DOCTYPE svg PUBLIC "-//W3C//DTD SVG 1.1//EN"
 "http://www.w3.org/Graphics/SVG/1.1/DTD/svg11.dtd">
<!-- Generated by graphviz version 2.38.0 (20140413.2041)
 -->
<!-- Title: hpp::corbaServer::core_idl::ProblemServant&lt; _Base, _Storage &gt; Pages: 1 -->
<svg width="234pt" height="251pt"
 viewBox="0.00 0.00 233.50 251.00" xmlns="http://www.w3.org/2000/svg" xmlns:xlink="http://www.w3.org/1999/xlink">
<g id="graph0" class="graph" transform="scale(1 1) rotate(0) translate(4 247)">
<title>hpp::corbaServer::core_idl::ProblemServant&lt; _Base, _Storage &gt;</title>
<polygon fill="white" stroke="none" points="-4,4 -4,-247 229.5,-247 229.5,4 -4,4"/>
<!-- Node1 -->
<g id="node1" class="node"><title>Node1</title>
<polygon fill="#bfbfbf" stroke="black" points="84.5,-0.5 84.5,-41.5 200.5,-41.5 200.5,-0.5 84.5,-0.5"/>
<text text-anchor="start" x="92.5" y="-29.5" font-family="Helvetica,sans-Serif" font-size="10.00">hpp::corbaServer::core</text>
<text text-anchor="start" x="92.5" y="-18.5" font-family="Helvetica,sans-Serif" font-size="10.00">_idl::ProblemServant&lt;</text>
<text text-anchor="middle" x="142.5" y="-7.5" font-family="Helvetica,sans-Serif" font-size="10.00"> _Base, _Storage &gt;</text>
</g>
<!-- Node2 -->
<g id="node2" class="node"><title>Node2</title>
<g id="a_node2"><a xlink:href="a00051.html" target="_top" xlink:title="hpp::corbaServer::Servant\lBase\&lt; core::Problem, _Storage \&gt;">
<polygon fill="white" stroke="black" points="0,-78.5 0,-108.5 163,-108.5 163,-78.5 0,-78.5"/>
<text text-anchor="start" x="8" y="-96.5" font-family="Helvetica,sans-Serif" font-size="10.00">hpp::corbaServer::Servant</text>
<text text-anchor="middle" x="81.5" y="-85.5" font-family="Helvetica,sans-Serif" font-size="10.00">Base&lt; core::Problem, _Storage &gt;</text>
</a>
</g>
</g>
<!-- Node2&#45;&gt;Node1 -->
<g id="edge1" class="edge"><title>Node2&#45;&gt;Node1</title>
<path fill="none" stroke="midnightblue" d="M100.5,-70.5411C108.515,-61.2778 117.771,-50.5799 125.551,-41.5884"/>
<polygon fill="midnightblue" stroke="midnightblue" points="97.7407,-68.3809 93.8443,-78.2333 103.034,-72.9612 97.7407,-68.3809"/>
</g>
<!-- Node3 -->
<g id="node3" class="node"><title>Node3</title>
<g id="a_node3"><a xlink:href="a00007.html" target="_top" xlink:title="hpp::corbaServer::Abstract\lServantBase\&lt; core::Problem \&gt;">
<polygon fill="white" stroke="black" points="5.5,-145.5 5.5,-175.5 157.5,-175.5 157.5,-145.5 5.5,-145.5"/>
<text text-anchor="start" x="13.5" y="-163.5" font-family="Helvetica,sans-Serif" font-size="10.00">hpp::corbaServer::Abstract</text>
<text text-anchor="middle" x="81.5" y="-152.5" font-family="Helvetica,sans-Serif" font-size="10.00">ServantBase&lt; core::Problem &gt;</text>
</a>
</g>
</g>
<!-- Node3&#45;&gt;Node2 -->
<g id="edge2" class="edge"><title>Node3&#45;&gt;Node2</title>
<path fill="none" stroke="midnightblue" d="M81.5,-135.108C81.5,-126.154 81.5,-116.323 81.5,-108.577"/>
<polygon fill="midnightblue" stroke="midnightblue" points="78.0001,-135.396 81.5,-145.396 85.0001,-135.396 78.0001,-135.396"/>
</g>
<!-- Node4 -->
<g id="node4" class="node"><title>Node4</title>
<g id="a_node4"><a xlink:href="a00008.html" target="_top" xlink:title="Abstract class used to avoid duplication of the servants. ">
<polygon fill="white" stroke="black" points="14.5,-212.5 14.5,-242.5 148.5,-242.5 148.5,-212.5 14.5,-212.5"/>
<text text-anchor="start" x="22.5" y="-230.5" font-family="Helvetica,sans-Serif" font-size="10.00">hpp::corbaServer::Abstract</text>
<text text-anchor="middle" x="81.5" y="-219.5" font-family="Helvetica,sans-Serif" font-size="10.00">ServantKey</text>
</a>
</g>
</g>
<!-- Node4&#45;&gt;Node3 -->
<g id="edge3" class="edge"><title>Node4&#45;&gt;Node3</title>
<path fill="none" stroke="#8b1a1a" d="M81.5,-202.108C81.5,-193.154 81.5,-183.323 81.5,-175.577"/>
<polygon fill="#8b1a1a" stroke="#8b1a1a" points="78.0001,-202.396 81.5,-212.396 85.0001,-202.396 78.0001,-202.396"/>
</g>
<!-- Node5 -->
<g id="node5" class="node"><title>Node5</title>
<polygon fill="white" stroke="#bfbfbf" points="181.5,-84 181.5,-103 225.5,-103 225.5,-84 181.5,-84"/>
<text text-anchor="middle" x="203.5" y="-91" font-family="Helvetica,sans-Serif" font-size="10.00">_Base</text>
</g>
<!-- Node5&#45;&gt;Node1 -->
<g id="edge4" class="edge"><title>Node5&#45;&gt;Node1</title>
<path fill="none" stroke="midnightblue" d="M189.27,-76.0536C180.38,-65.7791 168.883,-52.4913 159.512,-41.6616"/>
<polygon fill="midnightblue" stroke="midnightblue" points="186.83,-78.5832 196.02,-83.8553 192.124,-74.003 186.83,-78.5832"/>
</g>
</g>
</svg>
