<?xml version="1.0" encoding="UTF-8" standalone="no"?>
<!DOCTYPE svg PUBLIC "-//W3C//DTD SVG 1.1//EN"
 "http://www.w3.org/Graphics/SVG/1.1/DTD/svg11.dtd">
<!-- Generated by graphviz version 2.38.0 (20140413.2041)
 -->
<!-- Title: hpp::corbaServer::vectorToSeqServant&lt; OutType, InnerBaseType, InnerType &gt; Pages: 1 -->
<svg width="152pt" height="117pt"
 viewBox="0.00 0.00 152.00 117.00" xmlns="http://www.w3.org/2000/svg" xmlns:xlink="http://www.w3.org/1999/xlink">
<g id="graph0" class="graph" transform="scale(1 1) rotate(0) translate(4 113)">
<title>hpp::corbaServer::vectorToSeqServant&lt; OutType, InnerBaseType, InnerType &gt;</title>
<polygon fill="white" stroke="none" points="-4,4 -4,-113 148,-113 148,4 -4,4"/>
<!-- Node1 -->
<g id="node1" class="node"><title>Node1</title>
<polygon fill="#bfbfbf" stroke="black" points="0,-0.5 0,-41.5 144,-41.5 144,-0.5 0,-0.5"/>
<text text-anchor="start" x="8" y="-29.5" font-family="Helvetica,sans-Serif" font-size="10.00">hpp::corbaServer::vector</text>
<text text-anchor="start" x="8" y="-18.5" font-family="Helvetica,sans-Serif" font-size="10.00">ToSeqServant&lt; OutType,</text>
<text text-anchor="middle" x="72" y="-7.5" font-family="Helvetica,sans-Serif" font-size="10.00"> InnerBaseType, InnerType &gt;</text>
</g>
<!-- Node2 -->
<g id="node2" class="node"><title>Node2</title>
<g id="a_node2"><a xlink:href="a00054.html" target="_top" xlink:title="Implementation of Hpp module Corba server. ">
<polygon fill="white" stroke="black" points="9.5,-89.5 9.5,-108.5 134.5,-108.5 134.5,-89.5 9.5,-89.5"/>
<text text-anchor="middle" x="72" y="-96.5" font-family="Helvetica,sans-Serif" font-size="10.00">hpp::corbaServer::Server</text>
</a>
</g>
</g>
<!-- Node2&#45;&gt;Node1 -->
<g id="edge1" class="edge"><title>Node2&#45;&gt;Node1</title>
<path fill="none" stroke="#9a32cd" stroke-dasharray="5,2" d="M72,-79.1372C72,-67.7291 72,-53.2071 72,-41.6584"/>
<polygon fill="#9a32cd" stroke="#9a32cd" points="68.5001,-79.2818 72,-89.2818 75.5001,-79.2819 68.5001,-79.2818"/>
<text text-anchor="middle" x="76.5" y="-63" font-family="Helvetica,sans-Serif" font-size="10.00"> s</text>
</g>
</g>
</svg>
