<?xml version="1.0" encoding="UTF-8" standalone="no"?>
<!DOCTYPE svg PUBLIC "-//W3C//DTD SVG 1.1//EN"
 "http://www.w3.org/Graphics/SVG/1.1/DTD/svg11.dtd">
<!-- Generated by graphviz version 2.38.0 (20140413.2041)
 -->
<!-- Title: hpp.corbaserver.robot.HumanoidRobot Pages: 1 -->
<svg width="421pt" height="78pt"
 viewBox="0.00 0.00 421.00 77.50" xmlns="http://www.w3.org/2000/svg" xmlns:xlink="http://www.w3.org/1999/xlink">
<g id="graph0" class="graph" transform="scale(1 1) rotate(0) translate(4 73.5)">
<title>hpp.corbaserver.robot.HumanoidRobot</title>
<polygon fill="white" stroke="none" points="-4,4 -4,-73.5 417,-73.5 417,4 -4,4"/>
<!-- Node1 -->
<g id="node1" class="node"><title>Node1</title>
<polygon fill="#bfbfbf" stroke="black" points="255,-22.5 255,-52.5 413,-52.5 413,-22.5 255,-22.5"/>
<text text-anchor="start" x="263" y="-40.5" font-family="Helvetica,sans-Serif" font-size="10.00">hpp.corbaserver.robot.Humanoid</text>
<text text-anchor="middle" x="334" y="-29.5" font-family="Helvetica,sans-Serif" font-size="10.00">Robot</text>
</g>
<!-- Node2 -->
<g id="node2" class="node"><title>Node2</title>
<g id="a_node2"><a xlink:href="a00047.html" target="_top" xlink:title="Helper class to load a robot model in hpp::core::ProblemSolver. ">
<polygon fill="white" stroke="black" points="79,-50 79,-69 219,-69 219,-50 79,-50"/>
<text text-anchor="middle" x="149" y="-57" font-family="Helvetica,sans-Serif" font-size="10.00">hpp.corbaserver.robot.Robot</text>
</a>
</g>
</g>
<!-- Node2&#45;&gt;Node1 -->
<g id="edge1" class="edge"><title>Node2&#45;&gt;Node1</title>
<path fill="none" stroke="midnightblue" d="M229.387,-49.9562C237.825,-48.9418 246.402,-47.9107 254.825,-46.898"/>
<polygon fill="midnightblue" stroke="midnightblue" points="228.695,-46.5141 219.184,-51.1827 229.531,-53.464 228.695,-46.5141"/>
</g>
<!-- Node3 -->
<g id="node3" class="node"><title>Node3</title>
<polygon fill="white" stroke="#bfbfbf" points="0,-50 0,-69 43,-69 43,-50 0,-50"/>
<text text-anchor="middle" x="21.5" y="-57" font-family="Helvetica,sans-Serif" font-size="10.00">object</text>
</g>
<!-- Node3&#45;&gt;Node2 -->
<g id="edge2" class="edge"><title>Node3&#45;&gt;Node2</title>
<path fill="none" stroke="midnightblue" d="M53.3288,-59.5C61.2061,-59.5 69.9981,-59.5 78.9629,-59.5"/>
<polygon fill="midnightblue" stroke="midnightblue" points="53.2238,-56.0001 43.2238,-59.5 53.2237,-63.0001 53.2238,-56.0001"/>
</g>
<!-- Node4 -->
<g id="node4" class="node"><title>Node4</title>
<g id="a_node4"><a xlink:href="a00056.html" target="_top" xlink:title="This class provides tools to create static stability constraints. ">
<polygon fill="white" stroke="black" points="79,-0.5 79,-30.5 219,-30.5 219,-0.5 79,-0.5"/>
<text text-anchor="start" x="87" y="-18.5" font-family="Helvetica,sans-Serif" font-size="10.00">hpp.corbaserver.robot.Static</text>
<text text-anchor="middle" x="149" y="-7.5" font-family="Helvetica,sans-Serif" font-size="10.00">StabilityConstraintsFactory</text>
</a>
</g>
</g>
<!-- Node4&#45;&gt;Node1 -->
<g id="edge3" class="edge"><title>Node4&#45;&gt;Node1</title>
<path fill="none" stroke="midnightblue" d="M229.387,-25.0438C237.825,-26.0582 246.402,-27.0893 254.825,-28.102"/>
<polygon fill="midnightblue" stroke="midnightblue" points="229.531,-21.536 219.184,-23.8173 228.695,-28.4859 229.531,-21.536"/>
</g>
</g>
</svg>
