<?xml version="1.0" encoding="UTF-8" standalone="no"?>
<!DOCTYPE svg PUBLIC "-//W3C//DTD SVG 1.1//EN"
 "http://www.w3.org/Graphics/SVG/1.1/DTD/svg11.dtd">
<!-- Generated by graphviz version 2.38.0 (20140413.2041)
 -->
<!-- Title: hpp::corbaServer::core_idl::PathServant&lt; _Base, _Storage &gt; Pages: 1 -->
<svg width="218pt" height="329pt"
 viewBox="0.00 0.00 217.50 329.00" xmlns="http://www.w3.org/2000/svg" xmlns:xlink="http://www.w3.org/1999/xlink">
<g id="graph0" class="graph" transform="scale(1 1) rotate(0) translate(4 325)">
<title>hpp::corbaServer::core_idl::PathServant&lt; _Base, _Storage &gt;</title>
<polygon fill="white" stroke="none" points="-4,4 -4,-325 213.5,-325 213.5,4 -4,4"/>
<!-- Node1 -->
<g id="node1" class="node"><title>Node1</title>
<polygon fill="#bfbfbf" stroke="black" points="65,-78.5 65,-119.5 196,-119.5 196,-78.5 65,-78.5"/>
<text text-anchor="start" x="73" y="-107.5" font-family="Helvetica,sans-Serif" font-size="10.00">hpp::corbaServer::core</text>
<text text-anchor="start" x="73" y="-96.5" font-family="Helvetica,sans-Serif" font-size="10.00">_idl::PathServant&lt; _Base,</text>
<text text-anchor="middle" x="130.5" y="-85.5" font-family="Helvetica,sans-Serif" font-size="10.00"> _Storage &gt;</text>
</g>
<!-- Node6 -->
<g id="node6" class="node"><title>Node6</title>
<g id="a_node6"><a xlink:href="a00038.html" target="_top" xlink:title="hpp::corbaServer::core\l_idl::PathVectorServant\l\&lt; _Base, _Storage \&gt;">
<polygon fill="white" stroke="black" points="70.5,-0.5 70.5,-41.5 190.5,-41.5 190.5,-0.5 70.5,-0.5"/>
<text text-anchor="start" x="78.5" y="-29.5" font-family="Helvetica,sans-Serif" font-size="10.00">hpp::corbaServer::core</text>
<text text-anchor="start" x="78.5" y="-18.5" font-family="Helvetica,sans-Serif" font-size="10.00">_idl::PathVectorServant</text>
<text text-anchor="middle" x="130.5" y="-7.5" font-family="Helvetica,sans-Serif" font-size="10.00">&lt; _Base, _Storage &gt;</text>
</a>
</g>
</g>
<!-- Node1&#45;&gt;Node6 -->
<g id="edge5" class="edge"><title>Node1&#45;&gt;Node6</title>
<path fill="none" stroke="midnightblue" d="M130.5,-68.2965C130.5,-59.3009 130.5,-49.6532 130.5,-41.5056"/>
<polygon fill="midnightblue" stroke="midnightblue" points="127,-68.4281 130.5,-78.4281 134,-68.4281 127,-68.4281"/>
</g>
<!-- Node2 -->
<g id="node2" class="node"><title>Node2</title>
<g id="a_node2"><a xlink:href="a00051.html" target="_top" xlink:title="hpp::corbaServer::Servant\lBase\&lt; core::Path, _Storage \&gt;">
<polygon fill="white" stroke="black" points="0,-156.5 0,-186.5 147,-186.5 147,-156.5 0,-156.5"/>
<text text-anchor="start" x="8" y="-174.5" font-family="Helvetica,sans-Serif" font-size="10.00">hpp::corbaServer::Servant</text>
<text text-anchor="middle" x="73.5" y="-163.5" font-family="Helvetica,sans-Serif" font-size="10.00">Base&lt; core::Path, _Storage &gt;</text>
</a>
</g>
</g>
<!-- Node2&#45;&gt;Node1 -->
<g id="edge1" class="edge"><title>Node2&#45;&gt;Node1</title>
<path fill="none" stroke="midnightblue" d="M91.4813,-148.26C98.9181,-139.062 107.466,-128.489 114.663,-119.588"/>
<polygon fill="midnightblue" stroke="midnightblue" points="88.6003,-146.256 85.0348,-156.233 94.0438,-150.657 88.6003,-146.256"/>
</g>
<!-- Node3 -->
<g id="node3" class="node"><title>Node3</title>
<g id="a_node3"><a xlink:href="a00007.html" target="_top" xlink:title="hpp::corbaServer::Abstract\lServantBase\&lt; core::Path \&gt;">
<polygon fill="white" stroke="black" points="5.5,-223.5 5.5,-253.5 141.5,-253.5 141.5,-223.5 5.5,-223.5"/>
<text text-anchor="start" x="13.5" y="-241.5" font-family="Helvetica,sans-Serif" font-size="10.00">hpp::corbaServer::Abstract</text>
<text text-anchor="middle" x="73.5" y="-230.5" font-family="Helvetica,sans-Serif" font-size="10.00">ServantBase&lt; core::Path &gt;</text>
</a>
</g>
</g>
<!-- Node3&#45;&gt;Node2 -->
<g id="edge2" class="edge"><title>Node3&#45;&gt;Node2</title>
<path fill="none" stroke="midnightblue" d="M73.5,-213.108C73.5,-204.154 73.5,-194.323 73.5,-186.577"/>
<polygon fill="midnightblue" stroke="midnightblue" points="70.0001,-213.396 73.5,-223.396 77.0001,-213.396 70.0001,-213.396"/>
</g>
<!-- Node4 -->
<g id="node4" class="node"><title>Node4</title>
<g id="a_node4"><a xlink:href="a00008.html" target="_top" xlink:title="Abstract class used to avoid duplication of the servants. ">
<polygon fill="white" stroke="black" points="6.5,-290.5 6.5,-320.5 140.5,-320.5 140.5,-290.5 6.5,-290.5"/>
<text text-anchor="start" x="14.5" y="-308.5" font-family="Helvetica,sans-Serif" font-size="10.00">hpp::corbaServer::Abstract</text>
<text text-anchor="middle" x="73.5" y="-297.5" font-family="Helvetica,sans-Serif" font-size="10.00">ServantKey</text>
</a>
</g>
</g>
<!-- Node4&#45;&gt;Node3 -->
<g id="edge3" class="edge"><title>Node4&#45;&gt;Node3</title>
<path fill="none" stroke="#8b1a1a" d="M73.5,-280.108C73.5,-271.154 73.5,-261.323 73.5,-253.577"/>
<polygon fill="#8b1a1a" stroke="#8b1a1a" points="70.0001,-280.396 73.5,-290.396 77.0001,-280.396 70.0001,-280.396"/>
</g>
<!-- Node5 -->
<g id="node5" class="node"><title>Node5</title>
<polygon fill="white" stroke="#bfbfbf" points="165.5,-162 165.5,-181 209.5,-181 209.5,-162 165.5,-162"/>
<text text-anchor="middle" x="187.5" y="-169" font-family="Helvetica,sans-Serif" font-size="10.00">_Base</text>
</g>
<!-- Node5&#45;&gt;Node1 -->
<g id="edge4" class="edge"><title>Node5&#45;&gt;Node1</title>
<path fill="none" stroke="midnightblue" d="M174.203,-154.054C165.896,-143.779 155.153,-130.491 146.397,-119.662"/>
<polygon fill="midnightblue" stroke="midnightblue" points="171.502,-156.28 180.511,-161.855 176.945,-151.878 171.502,-156.28"/>
</g>
</g>
</svg>
