<?xml version="1.0" encoding="UTF-8" standalone="no"?>
<!DOCTYPE svg PUBLIC "-//W3C//DTD SVG 1.1//EN"
 "http://www.w3.org/Graphics/SVG/1.1/DTD/svg11.dtd">
<!-- Generated by graphviz version 2.38.0 (20140413.2041)
 -->
<!-- Title: hpp::corbaServer::ObjectMap Pages: 1 -->
<svg width="403pt" height="262pt"
 viewBox="0.00 0.00 403.00 262.00" xmlns="http://www.w3.org/2000/svg" xmlns:xlink="http://www.w3.org/1999/xlink">
<g id="graph0" class="graph" transform="scale(1 1) rotate(0) translate(4 258)">
<title>hpp::corbaServer::ObjectMap</title>
<polygon fill="white" stroke="none" points="-4,4 -4,-258 399,-258 399,4 -4,4"/>
<!-- Node1 -->
<g id="node1" class="node"><title>Node1</title>
<polygon fill="#bfbfbf" stroke="black" points="207,-0.5 207,-19.5 351,-19.5 351,-0.5 207,-0.5"/>
<text text-anchor="middle" x="279" y="-7.5" font-family="Helvetica,sans-Serif" font-size="10.00">hpp::corbaServer::ObjectMap</text>
</g>
<!-- Node2 -->
<g id="node2" class="node"><title>Node2</title>
<polygon fill="white" stroke="#bfbfbf" points="285,-67.5 285,-97.5 395,-97.5 395,-67.5 285,-67.5"/>
<text text-anchor="start" x="293" y="-85.5" font-family="Helvetica,sans-Serif" font-size="10.00">std::map&lt; std::string,</text>
<text text-anchor="middle" x="340" y="-74.5" font-family="Helvetica,sans-Serif" font-size="10.00"> BasicShapePtr_t &gt;</text>
</g>
<!-- Node2&#45;&gt;Node1 -->
<g id="edge1" class="edge"><title>Node2&#45;&gt;Node1</title>
<path fill="none" stroke="#9a32cd" stroke-dasharray="5,2" d="M323.353,-59.1288C317.985,-52.2115 311.896,-44.6623 306,-38 300.377,-31.6455 293.627,-24.8955 288.283,-19.7341"/>
<polygon fill="#9a32cd" stroke="#9a32cd" points="320.848,-61.6145 329.698,-67.4385 326.411,-57.3664 320.848,-61.6145"/>
<text text-anchor="middle" x="342" y="-41" font-family="Helvetica,sans-Serif" font-size="10.00"> shapeMap_</text>
</g>
<!-- Node3 -->
<g id="node3" class="node"><title>Node3</title>
<g id="a_node3"><a xlink:title="STL class. ">
<polygon fill="white" stroke="#bfbfbf" points="309,-151 309,-170 369,-170 369,-151 309,-151"/>
<text text-anchor="middle" x="339" y="-158" font-family="Helvetica,sans-Serif" font-size="10.00">std::string</text>
</a>
</g>
</g>
<!-- Node3&#45;&gt;Node2 -->
<g id="edge2" class="edge"><title>Node3&#45;&gt;Node2</title>
<path fill="none" stroke="#9a32cd" stroke-dasharray="5,2" d="M339.246,-140.782C339.422,-127.404 339.655,-109.688 339.816,-97.5198"/>
<polygon fill="#9a32cd" stroke="#9a32cd" points="335.747,-140.737 339.115,-150.782 342.746,-140.829 335.747,-140.737"/>
<text text-anchor="middle" x="352.5" y="-119" font-family="Helvetica,sans-Serif" font-size="10.00"> keys</text>
</g>
<!-- Node5 -->
<g id="node5" class="node"><title>Node5</title>
<polygon fill="white" stroke="#bfbfbf" points="157,-67.5 157,-97.5 267,-97.5 267,-67.5 157,-67.5"/>
<text text-anchor="start" x="165" y="-85.5" font-family="Helvetica,sans-Serif" font-size="10.00">std::map&lt; std::string,</text>
<text text-anchor="middle" x="212" y="-74.5" font-family="Helvetica,sans-Serif" font-size="10.00"> PolyhedronData &gt;</text>
</g>
<!-- Node3&#45;&gt;Node5 -->
<g id="edge5" class="edge"><title>Node3&#45;&gt;Node5</title>
<path fill="none" stroke="#9a32cd" stroke-dasharray="5,2" d="M315.732,-145.576C292.911,-131.919 258.303,-111.209 235.428,-97.5198"/>
<polygon fill="#9a32cd" stroke="#9a32cd" points="314.053,-148.65 324.431,-150.782 317.648,-142.643 314.053,-148.65"/>
<text text-anchor="middle" x="296.5" y="-119" font-family="Helvetica,sans-Serif" font-size="10.00"> keys</text>
</g>
<!-- Node4 -->
<g id="node4" class="node"><title>Node4</title>
<g id="a_node4"><a xlink:title="STL class. ">
<polygon fill="white" stroke="#bfbfbf" points="291.5,-223.5 291.5,-253.5 386.5,-253.5 386.5,-223.5 291.5,-223.5"/>
<text text-anchor="start" x="299.5" y="-241.5" font-family="Helvetica,sans-Serif" font-size="10.00">std::basic_string&lt;</text>
<text text-anchor="middle" x="339" y="-230.5" font-family="Helvetica,sans-Serif" font-size="10.00"> char &gt;</text>
</a>
</g>
</g>
<!-- Node4&#45;&gt;Node3 -->
<g id="edge3" class="edge"><title>Node4&#45;&gt;Node3</title>
<path fill="none" stroke="midnightblue" d="M339,-213.165C339,-198.396 339,-180.448 339,-170.064"/>
<polygon fill="midnightblue" stroke="midnightblue" points="335.5,-213.205 339,-223.205 342.5,-213.205 335.5,-213.205"/>
</g>
<!-- Node5&#45;&gt;Node1 -->
<g id="edge4" class="edge"><title>Node5&#45;&gt;Node1</title>
<path fill="none" stroke="#9a32cd" stroke-dasharray="5,2" d="M216.715,-57.5256C218.955,-50.6495 222.231,-43.5262 227,-38 234.045,-29.8368 244.171,-23.8047 253.619,-19.5384"/>
<polygon fill="#9a32cd" stroke="#9a32cd" points="213.328,-56.643 214.119,-67.2082 220.089,-58.4556 213.328,-56.643"/>
<text text-anchor="middle" x="264.5" y="-41" font-family="Helvetica,sans-Serif" font-size="10.00"> polyhedronMap_</text>
</g>
<!-- Node6 -->
<g id="node6" class="node"><title>Node6</title>
<g id="a_node6"><a xlink:href="a00039.html" target="_top" xlink:title="hpp::corbaServer::Object\lMap::PolyhedronData">
<polygon fill="white" stroke="black" points="149.5,-145.5 149.5,-175.5 274.5,-175.5 274.5,-145.5 149.5,-145.5"/>
<text text-anchor="start" x="157.5" y="-163.5" font-family="Helvetica,sans-Serif" font-size="10.00">hpp::corbaServer::Object</text>
<text text-anchor="middle" x="212" y="-152.5" font-family="Helvetica,sans-Serif" font-size="10.00">Map::PolyhedronData</text>
</a>
</g>
</g>
<!-- Node6&#45;&gt;Node5 -->
<g id="edge6" class="edge"><title>Node6&#45;&gt;Node5</title>
<path fill="none" stroke="#9a32cd" stroke-dasharray="5,2" d="M212,-135.09C212,-122.757 212,-108.224 212,-97.7309"/>
<polygon fill="#9a32cd" stroke="#9a32cd" points="208.5,-135.205 212,-145.205 215.5,-135.205 208.5,-135.205"/>
<text text-anchor="middle" x="233.5" y="-119" font-family="Helvetica,sans-Serif" font-size="10.00"> elements</text>
</g>
<!-- Node7 -->
<g id="node7" class="node"><title>Node7</title>
<polygon fill="white" stroke="#bfbfbf" points="0,-229 0,-248 132,-248 132,-229 0,-229"/>
<text text-anchor="middle" x="66" y="-236" font-family="Helvetica,sans-Serif" font-size="10.00">std::vector&lt; fcl::Triangle &gt;</text>
</g>
<!-- Node7&#45;&gt;Node6 -->
<g id="edge7" class="edge"><title>Node7&#45;&gt;Node6</title>
<path fill="none" stroke="#9a32cd" stroke-dasharray="5,2" d="M91.3968,-224.28C117.562,-210.66 158.193,-189.509 184.949,-175.582"/>
<polygon fill="#9a32cd" stroke="#9a32cd" points="89.7183,-221.208 82.4643,-228.93 92.9505,-227.417 89.7183,-221.208"/>
<text text-anchor="middle" x="156.5" y="-197" font-family="Helvetica,sans-Serif" font-size="10.00"> tris</text>
</g>
<!-- Node8 -->
<g id="node8" class="node"><title>Node8</title>
<polygon fill="white" stroke="#bfbfbf" points="150.5,-229 150.5,-248 273.5,-248 273.5,-229 150.5,-229"/>
<text text-anchor="middle" x="212" y="-236" font-family="Helvetica,sans-Serif" font-size="10.00">std::vector&lt; fcl::Vec3f &gt;</text>
</g>
<!-- Node8&#45;&gt;Node6 -->
<g id="edge8" class="edge"><title>Node8&#45;&gt;Node6</title>
<path fill="none" stroke="#9a32cd" stroke-dasharray="5,2" d="M212,-218.782C212,-205.404 212,-187.688 212,-175.52"/>
<polygon fill="#9a32cd" stroke="#9a32cd" points="208.5,-218.782 212,-228.782 215.5,-218.782 208.5,-218.782"/>
<text text-anchor="middle" x="220.5" y="-197" font-family="Helvetica,sans-Serif" font-size="10.00"> pts</text>
</g>
</g>
</svg>
