<?xml version="1.0" encoding="UTF-8" standalone="no"?>
<!DOCTYPE svg PUBLIC "-//W3C//DTD SVG 1.1//EN"
 "http://www.w3.org/Graphics/SVG/1.1/DTD/svg11.dtd">
<!-- Generated by graphviz version 2.38.0 (20140413.2041)
 -->
<!-- Title: hpp::corbaServer::core_idl::SteeringMethodServant&lt; _Base, _Storage &gt; Pages: 1 -->
<svg width="234pt" height="262pt"
 viewBox="0.00 0.00 234.00 262.00" xmlns="http://www.w3.org/2000/svg" xmlns:xlink="http://www.w3.org/1999/xlink">
<g id="graph0" class="graph" transform="scale(1 1) rotate(0) translate(4 258)">
<title>hpp::corbaServer::core_idl::SteeringMethodServant&lt; _Base, _Storage &gt;</title>
<polygon fill="white" stroke="none" points="-4,4 -4,-258 230,-258 230,4 -4,4"/>
<!-- Node1 -->
<g id="node1" class="node"><title>Node1</title>
<polygon fill="#bfbfbf" stroke="black" points="78,-0.5 78,-41.5 218,-41.5 218,-0.5 78,-0.5"/>
<text text-anchor="start" x="86" y="-29.5" font-family="Helvetica,sans-Serif" font-size="10.00">hpp::corbaServer::core</text>
<text text-anchor="start" x="86" y="-18.5" font-family="Helvetica,sans-Serif" font-size="10.00">_idl::SteeringMethodServant</text>
<text text-anchor="middle" x="148" y="-7.5" font-family="Helvetica,sans-Serif" font-size="10.00">&lt; _Base, _Storage &gt;</text>
</g>
<!-- Node2 -->
<g id="node2" class="node"><title>Node2</title>
<g id="a_node2"><a xlink:href="a00051.html" target="_top" xlink:title="hpp::corbaServer::Servant\lBase\&lt; core::SteeringMethod,\l _Storage \&gt;">
<polygon fill="white" stroke="black" points="20,-78.5 20,-119.5 164,-119.5 164,-78.5 20,-78.5"/>
<text text-anchor="start" x="28" y="-107.5" font-family="Helvetica,sans-Serif" font-size="10.00">hpp::corbaServer::Servant</text>
<text text-anchor="start" x="28" y="-96.5" font-family="Helvetica,sans-Serif" font-size="10.00">Base&lt; core::SteeringMethod,</text>
<text text-anchor="middle" x="92" y="-85.5" font-family="Helvetica,sans-Serif" font-size="10.00"> _Storage &gt;</text>
</a>
</g>
</g>
<!-- Node2&#45;&gt;Node1 -->
<g id="edge1" class="edge"><title>Node2&#45;&gt;Node1</title>
<path fill="none" stroke="midnightblue" d="M112.383,-70.3376C119.427,-60.7777 127.167,-50.2731 133.627,-41.5056"/>
<polygon fill="midnightblue" stroke="midnightblue" points="109.536,-68.3013 106.421,-78.4281 115.171,-72.4537 109.536,-68.3013"/>
</g>
<!-- Node3 -->
<g id="node3" class="node"><title>Node3</title>
<g id="a_node3"><a xlink:href="a00007.html" target="_top" xlink:title="hpp::corbaServer::Abstract\lServantBase\&lt; core::SteeringMethod \&gt;">
<polygon fill="white" stroke="black" points="0,-156.5 0,-186.5 184,-186.5 184,-156.5 0,-156.5"/>
<text text-anchor="start" x="8" y="-174.5" font-family="Helvetica,sans-Serif" font-size="10.00">hpp::corbaServer::Abstract</text>
<text text-anchor="middle" x="92" y="-163.5" font-family="Helvetica,sans-Serif" font-size="10.00">ServantBase&lt; core::SteeringMethod &gt;</text>
</a>
</g>
</g>
<!-- Node3&#45;&gt;Node2 -->
<g id="edge2" class="edge"><title>Node3&#45;&gt;Node2</title>
<path fill="none" stroke="midnightblue" d="M92,-145.982C92,-137.347 92,-127.762 92,-119.588"/>
<polygon fill="midnightblue" stroke="midnightblue" points="88.5001,-146.233 92,-156.233 95.5001,-146.233 88.5001,-146.233"/>
</g>
<!-- Node4 -->
<g id="node4" class="node"><title>Node4</title>
<g id="a_node4"><a xlink:href="a00008.html" target="_top" xlink:title="Abstract class used to avoid duplication of the servants. ">
<polygon fill="white" stroke="black" points="25,-223.5 25,-253.5 159,-253.5 159,-223.5 25,-223.5"/>
<text text-anchor="start" x="33" y="-241.5" font-family="Helvetica,sans-Serif" font-size="10.00">hpp::corbaServer::Abstract</text>
<text text-anchor="middle" x="92" y="-230.5" font-family="Helvetica,sans-Serif" font-size="10.00">ServantKey</text>
</a>
</g>
</g>
<!-- Node4&#45;&gt;Node3 -->
<g id="edge3" class="edge"><title>Node4&#45;&gt;Node3</title>
<path fill="none" stroke="#8b1a1a" d="M92,-213.108C92,-204.154 92,-194.323 92,-186.577"/>
<polygon fill="#8b1a1a" stroke="#8b1a1a" points="88.5001,-213.396 92,-223.396 95.5001,-213.396 88.5001,-213.396"/>
</g>
<!-- Node5 -->
<g id="node5" class="node"><title>Node5</title>
<polygon fill="white" stroke="#bfbfbf" points="182,-89.5 182,-108.5 226,-108.5 226,-89.5 182,-89.5"/>
<text text-anchor="middle" x="204" y="-96.5" font-family="Helvetica,sans-Serif" font-size="10.00">_Base</text>
</g>
<!-- Node5&#45;&gt;Node1 -->
<g id="edge4" class="edge"><title>Node5&#45;&gt;Node1</title>
<path fill="none" stroke="midnightblue" d="M191.395,-80.8935C182.816,-69.2499 171.438,-53.8086 162.485,-41.6584"/>
<polygon fill="midnightblue" stroke="midnightblue" points="188.826,-83.3075 197.576,-89.2818 194.462,-79.155 188.826,-83.3075"/>
</g>
</g>
</svg>
