<?xml version="1.0" encoding="UTF-8" standalone="no"?>
<!DOCTYPE svg PUBLIC "-//W3C//DTD SVG 1.1//EN"
 "http://www.w3.org/Graphics/SVG/1.1/DTD/svg11.dtd">
<!-- Generated by graphviz version 2.38.0 (20140413.2041)
 -->
<!-- Title: hpp::corbaServer::core_idl::ProblemServant&lt; _Base, _Storage &gt; Pages: 1 -->
<svg width="389pt" height="274pt"
 viewBox="0.00 0.00 389.00 274.00" xmlns="http://www.w3.org/2000/svg" xmlns:xlink="http://www.w3.org/1999/xlink">
<g id="graph0" class="graph" transform="scale(1 1) rotate(0) translate(4 270)">
<title>hpp::corbaServer::core_idl::ProblemServant&lt; _Base, _Storage &gt;</title>
<polygon fill="white" stroke="none" points="-4,4 -4,-270 385,-270 385,4 -4,4"/>
<!-- Node1 -->
<g id="node1" class="node"><title>Node1</title>
<polygon fill="#bfbfbf" stroke="black" points="265,-0.5 265,-41.5 381,-41.5 381,-0.5 265,-0.5"/>
<text text-anchor="start" x="273" y="-29.5" font-family="Helvetica,sans-Serif" font-size="10.00">hpp::corbaServer::core</text>
<text text-anchor="start" x="273" y="-18.5" font-family="Helvetica,sans-Serif" font-size="10.00">_idl::ProblemServant&lt;</text>
<text text-anchor="middle" x="323" y="-7.5" font-family="Helvetica,sans-Serif" font-size="10.00"> _Base, _Storage &gt;</text>
</g>
<!-- Node2 -->
<g id="node2" class="node"><title>Node2</title>
<g id="a_node2"><a xlink:href="a00051.html" target="_top" xlink:title="hpp::corbaServer::Servant\lBase\&lt; core::Problem, _Storage \&gt;">
<polygon fill="white" stroke="black" points="150.5,-79.5 150.5,-109.5 313.5,-109.5 313.5,-79.5 150.5,-79.5"/>
<text text-anchor="start" x="158.5" y="-97.5" font-family="Helvetica,sans-Serif" font-size="10.00">hpp::corbaServer::Servant</text>
<text text-anchor="middle" x="232" y="-86.5" font-family="Helvetica,sans-Serif" font-size="10.00">Base&lt; core::Problem, _Storage &gt;</text>
</a>
</g>
</g>
<!-- Node2&#45;&gt;Node1 -->
<g id="edge1" class="edge"><title>Node2&#45;&gt;Node1</title>
<path fill="none" stroke="midnightblue" d="M257.874,-73.1703C270.52,-63.2347 285.667,-51.3333 298.17,-41.5096"/>
<polygon fill="midnightblue" stroke="midnightblue" points="255.679,-70.4435 249.979,-79.3739 260.004,-75.9478 255.679,-70.4435"/>
</g>
<!-- Node3 -->
<g id="node3" class="node"><title>Node3</title>
<g id="a_node3"><a xlink:href="a00007.html" target="_top" xlink:title="hpp::corbaServer::Abstract\lServantBase\&lt; core::Problem \&gt;">
<polygon fill="white" stroke="black" points="65,-157.5 65,-187.5 217,-187.5 217,-157.5 65,-157.5"/>
<text text-anchor="start" x="73" y="-175.5" font-family="Helvetica,sans-Serif" font-size="10.00">hpp::corbaServer::Abstract</text>
<text text-anchor="middle" x="141" y="-164.5" font-family="Helvetica,sans-Serif" font-size="10.00">ServantBase&lt; core::Problem &gt;</text>
</a>
</g>
</g>
<!-- Node3&#45;&gt;Node2 -->
<g id="edge2" class="edge"><title>Node3&#45;&gt;Node2</title>
<path fill="none" stroke="midnightblue" d="M165.841,-150.753C181.431,-137.734 201.128,-121.284 214.96,-109.731"/>
<polygon fill="midnightblue" stroke="midnightblue" points="163.548,-148.108 158.116,-157.205 168.035,-153.481 163.548,-148.108"/>
</g>
<!-- Node4 -->
<g id="node4" class="node"><title>Node4</title>
<g id="a_node4"><a xlink:href="a00008.html" target="_top" xlink:title="Abstract class used to avoid duplication of the servants. ">
<polygon fill="white" stroke="black" points="0,-235.5 0,-265.5 134,-265.5 134,-235.5 0,-235.5"/>
<text text-anchor="start" x="8" y="-253.5" font-family="Helvetica,sans-Serif" font-size="10.00">hpp::corbaServer::Abstract</text>
<text text-anchor="middle" x="67" y="-242.5" font-family="Helvetica,sans-Serif" font-size="10.00">ServantKey</text>
</a>
</g>
</g>
<!-- Node4&#45;&gt;Node3 -->
<g id="edge3" class="edge"><title>Node4&#45;&gt;Node3</title>
<path fill="none" stroke="#8b1a1a" d="M87.9018,-228.033C100.464,-215.132 116.101,-199.072 127.144,-187.731"/>
<polygon fill="#8b1a1a" stroke="#8b1a1a" points="85.3874,-225.599 80.9188,-235.205 90.4027,-230.482 85.3874,-225.599"/>
</g>
<!-- Node5 -->
<g id="node5" class="node"><title>Node5</title>
<g id="a_node5"><a xlink:href="a00054.html" target="_top" xlink:title="Implementation of Hpp module Corba server. ">
<polygon fill="white" stroke="black" points="152.5,-241 152.5,-260 277.5,-260 277.5,-241 152.5,-241"/>
<text text-anchor="middle" x="215" y="-248" font-family="Helvetica,sans-Serif" font-size="10.00">hpp::corbaServer::Server</text>
</a>
</g>
</g>
<!-- Node5&#45;&gt;Node3 -->
<g id="edge4" class="edge"><title>Node5&#45;&gt;Node3</title>
<path fill="none" stroke="#9a32cd" stroke-dasharray="5,2" d="M199.444,-233.524C186.19,-219.911 167.328,-200.54 154.651,-187.52"/>
<polygon fill="#9a32cd" stroke="#9a32cd" points="197.027,-236.059 206.511,-240.782 202.043,-231.175 197.027,-236.059"/>
<text text-anchor="middle" x="201" y="-209" font-family="Helvetica,sans-Serif" font-size="10.00"> server_</text>
</g>
<!-- Node6 -->
<g id="node6" class="node"><title>Node6</title>
<polygon fill="white" stroke="#bfbfbf" points="235,-163 235,-182 291,-182 291,-163 235,-163"/>
<text text-anchor="middle" x="263" y="-170" font-family="Helvetica,sans-Serif" font-size="10.00">_Storage</text>
</g>
<!-- Node6&#45;&gt;Node2 -->
<g id="edge5" class="edge"><title>Node6&#45;&gt;Node2</title>
<path fill="none" stroke="#9a32cd" stroke-dasharray="5,2" d="M255.528,-153.182C250.053,-139.758 242.732,-121.81 237.719,-109.52"/>
<polygon fill="#9a32cd" stroke="#9a32cd" points="252.426,-154.844 259.444,-162.782 258.908,-152.201 252.426,-154.844"/>
<text text-anchor="middle" x="254.5" y="-131" font-family="Helvetica,sans-Serif" font-size="10.00"> s</text>
</g>
<!-- Node7 -->
<g id="node7" class="node"><title>Node7</title>
<polygon fill="white" stroke="#bfbfbf" points="332,-85 332,-104 376,-104 376,-85 332,-85"/>
<text text-anchor="middle" x="354" y="-92" font-family="Helvetica,sans-Serif" font-size="10.00">_Base</text>
</g>
<!-- Node7&#45;&gt;Node1 -->
<g id="edge6" class="edge"><title>Node7&#45;&gt;Node1</title>
<path fill="none" stroke="midnightblue" d="M346.189,-75.4835C341.717,-65.1696 336.102,-52.2184 331.517,-41.6441"/>
<polygon fill="midnightblue" stroke="midnightblue" points="343.01,-76.9502 350.199,-84.7327 349.432,-74.1656 343.01,-76.9502"/>
</g>
</g>
</svg>
