<?xml version="1.0" encoding="UTF-8" standalone="no"?>
<!DOCTYPE svg PUBLIC "-//W3C//DTD SVG 1.1//EN"
 "http://www.w3.org/Graphics/SVG/1.1/DTD/svg11.dtd">
<!-- Generated by graphviz version 2.38.0 (20140413.2041)
 -->
<!-- Title: corbaserver Pages: 1 -->
<svg width="113pt" height="223pt"
 viewBox="0.00 0.00 113.00 223.00" xmlns="http://www.w3.org/2000/svg" xmlns:xlink="http://www.w3.org/1999/xlink">
<g id="graph0" class="graph" transform="scale(1 1) rotate(0) translate(4 219)">
<title>corbaserver</title>
<polygon fill="white" stroke="none" points="-4,4 -4,-219 109,-219 109,4 -4,4"/>
<g id="clust1" class="cluster"><title>clusterdir_87882f463c1f563717a22859a8fe91dd</title>
<g id="a_clust1"><a xlink:href="dir_87882f463c1f563717a22859a8fe91dd.html" target="_top" xlink:title="hpp">
<polygon fill="#ddddee" stroke="black" points="8,-136 8,-207 92,-207 92,-136 8,-136"/>
<text text-anchor="middle" x="50" y="-195" font-family="Helvetica,sans-Serif" font-size="10.00">hpp</text>
</a>
</g>
</g>
<!-- dir_19301abaccadef14b656ac5321bb1bd7 -->
<g id="node1" class="node"><title>dir_19301abaccadef14b656ac5321bb1bd7</title>
<g id="a_node1"><a xlink:href="dir_19301abaccadef14b656ac5321bb1bd7.html" target="_top" xlink:title="corbaserver">
<polygon fill="#eeeeff" stroke="black" points="84,-180 16,-180 16,-144 84,-144 84,-180"/>
<text text-anchor="middle" x="50" y="-159.5" font-family="Helvetica,sans-Serif" font-size="10.00">corbaserver</text>
</a>
</g>
</g>
<!-- dir_dd6bd62f689fb7545a1544ccbc1a41a9 -->
<g id="node2" class="node"><title>dir_dd6bd62f689fb7545a1544ccbc1a41a9</title>
<g id="a_node2"><a xlink:href="dir_dd6bd62f689fb7545a1544ccbc1a41a9.html" target="_top" xlink:title="constraints_idl">
<polygon fill="none" stroke="black" points="90,-36 10,-36 10,-0 90,-0 90,-36"/>
<text text-anchor="middle" x="50" y="-15.5" font-family="Helvetica,sans-Serif" font-size="10.00">constraints_idl</text>
</a>
</g>
</g>
<!-- dir_19301abaccadef14b656ac5321bb1bd7&#45;&gt;dir_dd6bd62f689fb7545a1544ccbc1a41a9 -->
<g id="edge1" class="edge"><title>dir_19301abaccadef14b656ac5321bb1bd7&#45;&gt;dir_dd6bd62f689fb7545a1544ccbc1a41a9</title>
<path fill="none" stroke="black" d="M46.7517,-143.888C44.9542,-133.542 42.9053,-120.063 42,-108 40.8026,-92.0449 40.8026,-87.9551 42,-72 42.6366,-63.5179 43.8384,-54.3361 45.1208,-46.0356"/>
<polygon fill="black" stroke="black" points="48.5836,-46.5472 46.7517,-36.1119 41.6763,-45.412 48.5836,-46.5472"/>
<g id="a_edge1&#45;headlabel"><a xlink:href="dir_000012_000010.html" target="_top" xlink:title="1">
<text text-anchor="middle" x="50.8024" y="-48.0546" font-family="Helvetica,sans-Serif" font-size="10.00">1</text>
</a>
</g>
</g>
<!-- dir_d712830fa7038d7f173a24a6fb3aae1e -->
<g id="node3" class="node"><title>dir_d712830fa7038d7f173a24a6fb3aae1e</title>
<g id="a_node3"><a xlink:href="dir_d712830fa7038d7f173a24a6fb3aae1e.html" target="_top" xlink:title="core_idl">
<polygon fill="none" stroke="black" points="105,-108 51,-108 51,-72 105,-72 105,-108"/>
<text text-anchor="middle" x="78" y="-87.5" font-family="Helvetica,sans-Serif" font-size="10.00">core_idl</text>
</a>
</g>
</g>
<!-- dir_19301abaccadef14b656ac5321bb1bd7&#45;&gt;dir_d712830fa7038d7f173a24a6fb3aae1e -->
<g id="edge2" class="edge"><title>dir_19301abaccadef14b656ac5321bb1bd7&#45;&gt;dir_d712830fa7038d7f173a24a6fb3aae1e</title>
<path fill="none" stroke="black" d="M56.9214,-143.697C60.0747,-135.813 63.8783,-126.304 67.3814,-117.546"/>
<polygon fill="black" stroke="black" points="70.694,-118.689 71.1583,-108.104 64.1946,-116.089 70.694,-118.689"/>
<g id="a_edge2&#45;headlabel"><a xlink:href="dir_000012_000002.html" target="_top" xlink:title="6">
<text text-anchor="middle" x="71.9952" y="-120.581" font-family="Helvetica,sans-Serif" font-size="10.00">6</text>
</a>
</g>
</g>
<!-- dir_d712830fa7038d7f173a24a6fb3aae1e&#45;&gt;dir_dd6bd62f689fb7545a1544ccbc1a41a9 -->
<g id="edge3" class="edge"><title>dir_d712830fa7038d7f173a24a6fb3aae1e&#45;&gt;dir_dd6bd62f689fb7545a1544ccbc1a41a9</title>
<path fill="none" stroke="black" d="M71.0786,-71.6966C67.9253,-63.8132 64.1217,-54.3042 60.6186,-45.5464"/>
<polygon fill="black" stroke="black" points="63.8054,-44.0892 56.8417,-36.1043 57.306,-46.689 63.8054,-44.0892"/>
<g id="a_edge3&#45;headlabel"><a xlink:href="dir_000002_000010.html" target="_top" xlink:title="1">
<text text-anchor="middle" x="67.7765" y="-43.8723" font-family="Helvetica,sans-Serif" font-size="10.00">1</text>
</a>
</g>
</g>
</g>
</svg>
