<?xml version="1.0" encoding="UTF-8" standalone="no"?>
<!DOCTYPE svg PUBLIC "-//W3C//DTD SVG 1.1//EN"
 "http://www.w3.org/Graphics/SVG/1.1/DTD/svg11.dtd">
<!-- Generated by graphviz version 2.38.0 (20140413.2041)
 -->
<!-- Title: corbaserver Pages: 1 -->
<svg width="294pt" height="111pt"
 viewBox="0.00 0.00 294.00 111.00" xmlns="http://www.w3.org/2000/svg" xmlns:xlink="http://www.w3.org/1999/xlink">
<g id="graph0" class="graph" transform="scale(1 1) rotate(0) translate(4 107)">
<title>corbaserver</title>
<polygon fill="white" stroke="none" points="-4,4 -4,-107 290,-107 290,4 -4,4"/>
<g id="clust1" class="cluster"><title>clusterdir_766a2b2ecef16448f861b8cf84e3a157</title>
<g id="a_clust1"><a xlink:href="dir_766a2b2ecef16448f861b8cf84e3a157.html" target="_top" xlink:title="hpp">
<polygon fill="#ddddee" stroke="black" points="8,-8 8,-95 278,-95 278,-8 8,-8"/>
<text text-anchor="middle" x="143" y="-83" font-family="Helvetica,sans-Serif" font-size="10.00">hpp</text>
</a>
</g>
</g>
<g id="clust2" class="cluster"><title>clusterdir_b4d1a845b7d187eff587f84b36cf4f45</title>
<g id="a_clust2"><a xlink:href="dir_b4d1a845b7d187eff587f84b36cf4f45.html" target="_top">
<polygon fill="#eeeeff" stroke="black" points="16,-16 16,-68 270,-68 270,-16 16,-16"/>
</a>
</g>
</g>
<!-- dir_b4d1a845b7d187eff587f84b36cf4f45 -->
<g id="node1" class="node"><title>dir_b4d1a845b7d187eff587f84b36cf4f45</title>
<text text-anchor="middle" x="228" y="-39.5" font-family="Helvetica,sans-Serif" font-size="10.00">corbaserver</text>
</g>
<!-- dir_83b690b157c784f2826e224939b0fc56 -->
<g id="node2" class="node"><title>dir_83b690b157c784f2826e224939b0fc56</title>
<g id="a_node2"><a xlink:href="dir_83b690b157c784f2826e224939b0fc56.html" target="_top" xlink:title="constraints_idl">
<polygon fill="white" stroke="black" points="176,-60 96,-60 96,-24 176,-24 176,-60"/>
<text text-anchor="middle" x="136" y="-39.5" font-family="Helvetica,sans-Serif" font-size="10.00">constraints_idl</text>
</a>
</g>
</g>
<!-- dir_0e149a2b0c122d4a280e2bbce63c7926 -->
<g id="node3" class="node"><title>dir_0e149a2b0c122d4a280e2bbce63c7926</title>
<g id="a_node3"><a xlink:href="dir_0e149a2b0c122d4a280e2bbce63c7926.html" target="_top" xlink:title="core_idl">
<polygon fill="white" stroke="black" points="78,-60 24,-60 24,-24 78,-24 78,-60"/>
<text text-anchor="middle" x="51" y="-39.5" font-family="Helvetica,sans-Serif" font-size="10.00">core_idl</text>
</a>
</g>
</g>
</g>
</svg>
