<?xml version="1.0" encoding="UTF-8" standalone="no"?>
<!DOCTYPE svg PUBLIC "-//W3C//DTD SVG 1.1//EN"
 "http://www.w3.org/Graphics/SVG/1.1/DTD/svg11.dtd">
<!-- Generated by graphviz version 2.38.0 (20140413.2041)
 -->
<!-- Title: Graphical Class Hierarchy Pages: 1 -->
<svg width="313pt" height="66pt"
 viewBox="0.00 0.00 313.00 66.00" xmlns="http://www.w3.org/2000/svg" xmlns:xlink="http://www.w3.org/1999/xlink">
<g id="graph0" class="graph" transform="scale(1 1) rotate(0) translate(4 62)">
<title>Graphical Class Hierarchy</title>
<polygon fill="white" stroke="none" points="-4,4 -4,-62 309,-62 309,4 -4,4"/>
<!-- Node1 -->
<g id="node1" class="node"><title>Node1</title>
<g id="a_node1"><a xlink:href="a00016.html" target="_top" xlink:title="hpp::core_idl::Constraint">
<polygon fill="white" stroke="black" points="0,-19.5 0,-38.5 123,-38.5 123,-19.5 0,-19.5"/>
<text text-anchor="middle" x="61.5" y="-26.5" font-family="Helvetica,sans-Serif" font-size="10.00">hpp::core_idl::Constraint</text>
</a>
</g>
</g>
<!-- Node2 -->
<g id="node2" class="node"><title>Node2</title>
<g id="a_node2"><a xlink:href="a00014.html" target="_top" xlink:title="hpp::core_idl::ConfigProjector">
<polygon fill="white" stroke="black" points="159,-38.5 159,-57.5 305,-57.5 305,-38.5 159,-38.5"/>
<text text-anchor="middle" x="232" y="-45.5" font-family="Helvetica,sans-Serif" font-size="10.00">hpp::core_idl::ConfigProjector</text>
</a>
</g>
</g>
<!-- Node1&#45;&gt;Node2 -->
<g id="edge1" class="edge"><title>Node1&#45;&gt;Node2</title>
<path fill="none" stroke="midnightblue" d="M133.441,-36.9993C141.82,-37.9441 150.38,-38.9093 158.777,-39.8562"/>
<polygon fill="midnightblue" stroke="midnightblue" points="133.662,-33.5021 123.332,-35.8594 132.877,-40.458 133.662,-33.5021"/>
</g>
<!-- Node3 -->
<g id="node3" class="node"><title>Node3</title>
<g id="a_node3"><a xlink:href="a00017.html" target="_top" xlink:title="hpp::core_idl::ConstraintSet">
<polygon fill="white" stroke="black" points="163,-0.5 163,-19.5 301,-19.5 301,-0.5 163,-0.5"/>
<text text-anchor="middle" x="232" y="-7.5" font-family="Helvetica,sans-Serif" font-size="10.00">hpp::core_idl::ConstraintSet</text>
</a>
</g>
</g>
<!-- Node1&#45;&gt;Node3 -->
<g id="edge2" class="edge"><title>Node1&#45;&gt;Node3</title>
<path fill="none" stroke="midnightblue" d="M133.382,-21.0074C143.133,-19.9079 153.129,-18.7808 162.829,-17.6869"/>
<polygon fill="midnightblue" stroke="midnightblue" points="132.877,-17.542 123.332,-22.1406 133.662,-24.4979 132.877,-17.542"/>
</g>
</g>
</svg>
