<?xml version="1.0" encoding="UTF-8" standalone="no"?>
<!DOCTYPE svg PUBLIC "-//W3C//DTD SVG 1.1//EN"
 "http://www.w3.org/Graphics/SVG/1.1/DTD/svg11.dtd">
<!-- Generated by graphviz version 2.38.0 (20140413.2041)
 -->
<!-- Title: client.hh Pages: 1 -->
<svg width="324pt" height="95pt"
 viewBox="0.00 0.00 323.50 95.00" xmlns="http://www.w3.org/2000/svg" xmlns:xlink="http://www.w3.org/1999/xlink">
<g id="graph0" class="graph" transform="scale(1 1) rotate(0) translate(4 91)">
<title>client.hh</title>
<polygon fill="white" stroke="none" points="-4,4 -4,-91 319.5,-91 319.5,4 -4,4"/>
<!-- Node1 -->
<g id="node1" class="node"><title>Node1</title>
<polygon fill="#bfbfbf" stroke="black" points="101.5,-67.5 101.5,-86.5 154.5,-86.5 154.5,-67.5 101.5,-67.5"/>
<text text-anchor="middle" x="128" y="-74.5" font-family="Helvetica,sans-Serif" font-size="10.00">client.hh</text>
</g>
<!-- Node2 -->
<g id="node2" class="node"><title>Node2</title>
<polygon fill="white" stroke="#bfbfbf" points="0,-6 0,-25 54,-25 54,-6 0,-6"/>
<text text-anchor="middle" x="27" y="-13" font-family="Helvetica,sans-Serif" font-size="10.00">iostream</text>
</g>
<!-- Node1&#45;&gt;Node2 -->
<g id="edge1" class="edge"><title>Node1&#45;&gt;Node2</title>
<path fill="none" stroke="midnightblue" d="M113.529,-67.4751C97.0291,-57.7548 69.8216,-41.7266 50.3186,-30.2372"/>
<polygon fill="midnightblue" stroke="midnightblue" points="51.8366,-27.0693 41.444,-25.0091 48.2835,-33.1005 51.8366,-27.0693"/>
</g>
<!-- Node3 -->
<g id="node3" class="node"><title>Node3</title>
<polygon fill="white" stroke="#bfbfbf" points="72,-6 72,-25 184,-25 184,-6 72,-6"/>
<text text-anchor="middle" x="128" y="-13" font-family="Helvetica,sans-Serif" font-size="10.00">omniORB4/CORBA.h</text>
</g>
<!-- Node1&#45;&gt;Node3 -->
<g id="edge2" class="edge"><title>Node1&#45;&gt;Node3</title>
<path fill="none" stroke="midnightblue" d="M128,-67.4751C128,-59.0803 128,-45.9806 128,-35.1631"/>
<polygon fill="midnightblue" stroke="midnightblue" points="131.5,-35.0091 128,-25.0091 124.5,-35.0091 131.5,-35.0091"/>
</g>
<!-- Node4 -->
<g id="node4" class="node"><title>Node4</title>
<polygon fill="white" stroke="#bfbfbf" points="202.5,-0.5 202.5,-30.5 315.5,-30.5 315.5,-0.5 202.5,-0.5"/>
<text text-anchor="start" x="210.5" y="-18.5" font-family="Helvetica,sans-Serif" font-size="10.00">gepetto/viewer/corba</text>
<text text-anchor="middle" x="259" y="-7.5" font-family="Helvetica,sans-Serif" font-size="10.00">/graphical&#45;interface.hh</text>
</g>
<!-- Node1&#45;&gt;Node4 -->
<g id="edge3" class="edge"><title>Node1&#45;&gt;Node4</title>
<path fill="none" stroke="midnightblue" d="M146.769,-67.4751C165.506,-58.9648 194.889,-45.6193 218.89,-34.718"/>
<polygon fill="midnightblue" stroke="midnightblue" points="220.468,-37.8451 228.126,-30.523 217.574,-31.4717 220.468,-37.8451"/>
</g>
</g>
</svg>
