<?xml version="1.0" encoding="UTF-8" standalone="no"?>
<!DOCTYPE svg PUBLIC "-//W3C//DTD SVG 1.1//EN"
 "http://www.w3.org/Graphics/SVG/1.1/DTD/svg11.dtd">
<!-- Generated by graphviz version 2.38.0 (20140413.2041)
 -->
<!-- Title: OmniOrbServerPlugin Pages: 1 -->
<svg width="218pt" height="84pt"
 viewBox="0.00 0.00 218.00 84.00" xmlns="http://www.w3.org/2000/svg" xmlns:xlink="http://www.w3.org/1999/xlink">
<g id="graph0" class="graph" transform="scale(1 1) rotate(0) translate(4 80)">
<title>OmniOrbServerPlugin</title>
<polygon fill="white" stroke="none" points="-4,4 -4,-80 214,-80 214,4 -4,4"/>
<!-- Node1 -->
<g id="node1" class="node"><title>Node1</title>
<polygon fill="#bfbfbf" stroke="black" points="28,-0.5 28,-19.5 139,-19.5 139,-0.5 28,-0.5"/>
<text text-anchor="middle" x="83.5" y="-7.5" font-family="Helvetica,sans-Serif" font-size="10.00">OmniOrbServerPlugin</text>
</g>
<!-- Node2 -->
<g id="node2" class="node"><title>Node2</title>
<polygon fill="white" stroke="#bfbfbf" points="0,-56.5 0,-75.5 53,-75.5 53,-56.5 0,-56.5"/>
<text text-anchor="middle" x="26.5" y="-63.5" font-family="Helvetica,sans-Serif" font-size="10.00">QObject</text>
</g>
<!-- Node2&#45;&gt;Node1 -->
<g id="edge1" class="edge"><title>Node2&#45;&gt;Node1</title>
<path fill="none" stroke="midnightblue" d="M43.1215,-49.2533C53.234,-39.6731 65.7766,-27.7906 74.1753,-19.8339"/>
<polygon fill="midnightblue" stroke="midnightblue" points="40.5105,-46.9056 35.658,-56.324 45.3247,-51.9873 40.5105,-46.9056"/>
</g>
<!-- Node3 -->
<g id="node3" class="node"><title>Node3</title>
<g id="a_node3"><a doxygen="/local/devel/hpp/install/share/doc/gepetto-viewer/doxygen-html/gepetto-viewer.doxytag:../../gepetto-viewer/doxygen-html/" xlink:href="../../gepetto-viewer/doxygen-html/a00051.html" target="_top" xlink:title="gepetto::gui::PluginInterface">
<polygon fill="white" stroke="black" points="71,-56.5 71,-75.5 210,-75.5 210,-56.5 71,-56.5"/>
<text text-anchor="middle" x="140.5" y="-63.5" font-family="Helvetica,sans-Serif" font-size="10.00">gepetto::gui::PluginInterface</text>
</a>
</g>
</g>
<!-- Node3&#45;&gt;Node1 -->
<g id="edge2" class="edge"><title>Node3&#45;&gt;Node1</title>
<path fill="none" stroke="midnightblue" d="M123.879,-49.2533C113.766,-39.6731 101.223,-27.7906 92.8247,-19.8339"/>
<polygon fill="midnightblue" stroke="midnightblue" points="121.675,-51.9873 131.342,-56.324 126.49,-46.9056 121.675,-51.9873"/>
</g>
</g>
</svg>
