<?xml version="1.0" encoding="UTF-8" standalone="no"?>
<!DOCTYPE svg PUBLIC "-//W3C//DTD SVG 1.1//EN"
 "http://www.w3.org/Graphics/SVG/1.1/DTD/svg11.dtd">
<!-- Generated by graphviz version 2.38.0 (20140413.2041)
 -->
<!-- Title: omniorbthread.hh Pages: 1 -->
<svg width="645pt" height="207pt"
 viewBox="0.00 0.00 645.00 207.00" xmlns="http://www.w3.org/2000/svg" xmlns:xlink="http://www.w3.org/1999/xlink">
<g id="graph0" class="graph" transform="scale(1 1) rotate(0) translate(4 203)">
<title>omniorbthread.hh</title>
<polygon fill="white" stroke="none" points="-4,4 -4,-203 641,-203 641,4 -4,4"/>
<!-- Node1 -->
<g id="node1" class="node"><title>Node1</title>
<polygon fill="#bfbfbf" stroke="black" points="203,-179.5 203,-198.5 295,-198.5 295,-179.5 203,-179.5"/>
<text text-anchor="middle" x="249" y="-186.5" font-family="Helvetica,sans-Serif" font-size="10.00">omniorbthread.hh</text>
</g>
<!-- Node2 -->
<g id="node2" class="node"><title>Node2</title>
<polygon fill="white" stroke="#bfbfbf" points="0,-118 0,-137 52,-137 52,-118 0,-118"/>
<text text-anchor="middle" x="26" y="-125" font-family="Helvetica,sans-Serif" font-size="10.00">assert.h</text>
</g>
<!-- Node1&#45;&gt;Node2 -->
<g id="edge1" class="edge"><title>Node1&#45;&gt;Node2</title>
<path fill="none" stroke="midnightblue" d="M204.771,-179.473C166.324,-171.575 109.361,-158.697 61,-143 58.8652,-142.307 56.6776,-141.541 54.4892,-140.734"/>
<polygon fill="midnightblue" stroke="midnightblue" points="55.639,-137.426 45.0515,-137.031 53.0821,-143.942 55.639,-137.426"/>
</g>
<!-- Node3 -->
<g id="node3" class="node"><title>Node3</title>
<polygon fill="white" stroke="#bfbfbf" points="70,-118 70,-137 124,-137 124,-118 70,-118"/>
<text text-anchor="middle" x="97" y="-125" font-family="Helvetica,sans-Serif" font-size="10.00">QThread</text>
</g>
<!-- Node1&#45;&gt;Node3 -->
<g id="edge2" class="edge"><title>Node1&#45;&gt;Node3</title>
<path fill="none" stroke="midnightblue" d="M226.952,-179.377C203.802,-170.321 166.341,-155.664 134,-143 132.169,-142.283 130.287,-141.546 128.389,-140.802"/>
<polygon fill="midnightblue" stroke="midnightblue" points="129.5,-137.478 118.912,-137.089 126.946,-143.996 129.5,-137.478"/>
</g>
<!-- Node4 -->
<g id="node4" class="node"><title>Node4</title>
<polygon fill="white" stroke="#bfbfbf" points="142.5,-118 142.5,-137 193.5,-137 193.5,-118 142.5,-118"/>
<text text-anchor="middle" x="168" y="-125" font-family="Helvetica,sans-Serif" font-size="10.00">QMutex</text>
</g>
<!-- Node1&#45;&gt;Node4 -->
<g id="edge3" class="edge"><title>Node1&#45;&gt;Node4</title>
<path fill="none" stroke="midnightblue" d="M237.395,-179.475C224.523,-170.02 203.526,-154.596 187.994,-143.187"/>
<polygon fill="midnightblue" stroke="midnightblue" points="189.715,-140.108 179.584,-137.009 185.571,-145.75 189.715,-140.108"/>
</g>
<!-- Node5 -->
<g id="node5" class="node"><title>Node5</title>
<polygon fill="white" stroke="#bfbfbf" points="212,-118 212,-137 286,-137 286,-118 212,-118"/>
<text text-anchor="middle" x="249" y="-125" font-family="Helvetica,sans-Serif" font-size="10.00">QTimerEvent</text>
</g>
<!-- Node1&#45;&gt;Node5 -->
<g id="edge4" class="edge"><title>Node1&#45;&gt;Node5</title>
<path fill="none" stroke="midnightblue" d="M249,-179.475C249,-171.08 249,-157.981 249,-147.163"/>
<polygon fill="midnightblue" stroke="midnightblue" points="252.5,-147.009 249,-137.009 245.5,-147.009 252.5,-147.009"/>
</g>
<!-- Node6 -->
<g id="node6" class="node"><title>Node6</title>
<polygon fill="white" stroke="#bfbfbf" points="304,-118 304,-137 388,-137 388,-118 304,-118"/>
<text text-anchor="middle" x="346" y="-125" font-family="Helvetica,sans-Serif" font-size="10.00">QElapsedTimer</text>
</g>
<!-- Node1&#45;&gt;Node6 -->
<g id="edge5" class="edge"><title>Node1&#45;&gt;Node6</title>
<path fill="none" stroke="midnightblue" d="M262.898,-179.475C278.672,-169.799 304.637,-153.872 323.349,-142.394"/>
<polygon fill="midnightblue" stroke="midnightblue" points="325.434,-145.221 332.128,-137.009 321.774,-139.254 325.434,-145.221"/>
</g>
<!-- Node7 -->
<g id="node7" class="node"><title>Node7</title>
<g id="a_node7"><a doxygen="/local/devel/hpp/install/share/doc/gepetto-viewer/doxygen-html/gepetto-viewer.doxytag:../../gepetto-viewer/doxygen-html/" xlink:href="../../gepetto-viewer/doxygen-html/a00085.html" target="_top" xlink:title="gepetto/gui/fwd.hh">
<polygon fill="white" stroke="black" points="405.5,-118 405.5,-137 502.5,-137 502.5,-118 405.5,-118"/>
<text text-anchor="middle" x="454" y="-125" font-family="Helvetica,sans-Serif" font-size="10.00">gepetto/gui/fwd.hh</text>
</a>
</g>
</g>
<!-- Node1&#45;&gt;Node7 -->
<g id="edge6" class="edge"><title>Node1&#45;&gt;Node7</title>
<path fill="none" stroke="midnightblue" d="M278.372,-179.475C314.297,-169.048 375.232,-151.362 415.044,-139.807"/>
<polygon fill="midnightblue" stroke="midnightblue" points="416.055,-143.158 424.683,-137.009 414.104,-136.435 416.055,-143.158"/>
</g>
<!-- Node10 -->
<g id="node10" class="node"><title>Node10</title>
<g id="a_node10"><a xlink:href="a00001.html" target="_top" xlink:title="gepetto/viewer/corba\l/fwd.hh">
<polygon fill="white" stroke="black" points="524.5,-112.5 524.5,-142.5 631.5,-142.5 631.5,-112.5 524.5,-112.5"/>
<text text-anchor="start" x="532.5" y="-130.5" font-family="Helvetica,sans-Serif" font-size="10.00">gepetto/viewer/corba</text>
<text text-anchor="middle" x="578" y="-119.5" font-family="Helvetica,sans-Serif" font-size="10.00">/fwd.hh</text>
</a>
</g>
</g>
<!-- Node1&#45;&gt;Node10 -->
<g id="edge10" class="edge"><title>Node1&#45;&gt;Node10</title>
<path fill="none" stroke="midnightblue" d="M295.203,-180.766C347.819,-172.372 436.302,-157.783 512,-143 512.756,-142.852 513.516,-142.703 514.28,-142.552"/>
<polygon fill="midnightblue" stroke="midnightblue" points="515.27,-145.922 524.374,-140.501 513.877,-139.062 515.27,-145.922"/>
</g>
<!-- Node8 -->
<g id="node8" class="node"><title>Node8</title>
<g id="a_node8"><a doxygen="/local/devel/hpp/install/share/doc/gepetto-viewer/doxygen-html/gepetto-viewer.doxytag:../../gepetto-viewer/doxygen-html/" xlink:href="../../gepetto-viewer/doxygen-html/a00102.html" target="_top" xlink:title="gepetto/viewer/macros.h">
<polygon fill="white" stroke="black" points="351,-0.5 351,-19.5 475,-19.5 475,-0.5 351,-0.5"/>
<text text-anchor="middle" x="413" y="-7.5" font-family="Helvetica,sans-Serif" font-size="10.00">gepetto/viewer/macros.h</text>
</a>
</g>
</g>
<!-- Node7&#45;&gt;Node8 -->
<g id="edge7" class="edge"><title>Node7&#45;&gt;Node8</title>
<path fill="none" stroke="midnightblue" d="M436.394,-117.87C421.482,-109.476 401.117,-95.1843 392,-76 384.627,-60.4857 392.32,-41.7191 400.391,-28.347"/>
<polygon fill="midnightblue" stroke="midnightblue" points="403.522,-29.9575 406.124,-19.6871 397.685,-26.0932 403.522,-29.9575"/>
</g>
<!-- Node9 -->
<g id="node9" class="node"><title>Node9</title>
<g id="a_node9"><a doxygen="/local/devel/hpp/install/share/doc/gepetto-viewer/doxygen-html/gepetto-viewer.doxytag:../../gepetto-viewer/doxygen-html/" xlink:href="../../gepetto-viewer/doxygen-html/a00084.html" target="_top" xlink:title="gepetto/viewer/fwd.h">
<polygon fill="white" stroke="black" points="400.5,-56.5 400.5,-75.5 507.5,-75.5 507.5,-56.5 400.5,-56.5"/>
<text text-anchor="middle" x="454" y="-63.5" font-family="Helvetica,sans-Serif" font-size="10.00">gepetto/viewer/fwd.h</text>
</a>
</g>
</g>
<!-- Node7&#45;&gt;Node9 -->
<g id="edge8" class="edge"><title>Node7&#45;&gt;Node9</title>
<path fill="none" stroke="midnightblue" d="M454,-117.975C454,-109.58 454,-96.4806 454,-85.6631"/>
<polygon fill="midnightblue" stroke="midnightblue" points="457.5,-85.5091 454,-75.5091 450.5,-85.5091 457.5,-85.5091"/>
</g>
<!-- Node9&#45;&gt;Node8 -->
<g id="edge9" class="edge"><title>Node9&#45;&gt;Node8</title>
<path fill="none" stroke="midnightblue" d="M447.23,-56.083C441.438,-48.4554 432.942,-37.2645 425.862,-27.9408"/>
<polygon fill="midnightblue" stroke="midnightblue" points="428.479,-25.5991 419.644,-19.7511 422.904,-29.8321 428.479,-25.5991"/>
</g>
<!-- Node11 -->
<g id="node11" class="node"><title>Node11</title>
<polygon fill="white" stroke="#bfbfbf" points="525,-56.5 525,-75.5 637,-75.5 637,-56.5 525,-56.5"/>
<text text-anchor="middle" x="581" y="-63.5" font-family="Helvetica,sans-Serif" font-size="10.00">omniORB4/CORBA.h</text>
</g>
<!-- Node10&#45;&gt;Node11 -->
<g id="edge11" class="edge"><title>Node10&#45;&gt;Node11</title>
<path fill="none" stroke="midnightblue" d="M578.711,-112.399C579.111,-104.466 579.616,-94.458 580.049,-85.8583"/>
<polygon fill="midnightblue" stroke="midnightblue" points="583.555,-85.8214 580.563,-75.6578 576.564,-85.4688 583.555,-85.8214"/>
</g>
</g>
</svg>
