<?xml version="1.0" encoding="UTF-8" standalone="no"?>
<!DOCTYPE svg PUBLIC "-//W3C//DTD SVG 1.1//EN"
 "http://www.w3.org/Graphics/SVG/1.1/DTD/svg11.dtd">
<!-- Generated by graphviz version 2.38.0 (20140413.2041)
 -->
<!-- Title: fwd.hh Pages: 1 -->
<svg width="176pt" height="84pt"
 viewBox="0.00 0.00 175.50 84.00" xmlns="http://www.w3.org/2000/svg" xmlns:xlink="http://www.w3.org/1999/xlink">
<g id="graph0" class="graph" transform="scale(1 1) rotate(0) translate(4 80)">
<title>fwd.hh</title>
<polygon fill="white" stroke="none" points="-4,4 -4,-80 171.5,-80 171.5,4 -4,4"/>
<!-- Node1 -->
<g id="node1" class="node"><title>Node1</title>
<polygon fill="#bfbfbf" stroke="black" points="51.5,-56.5 51.5,-75.5 97.5,-75.5 97.5,-56.5 51.5,-56.5"/>
<text text-anchor="middle" x="74.5" y="-63.5" font-family="Helvetica,sans-Serif" font-size="10.00">fwd.hh</text>
</g>
<!-- Node2 -->
<g id="node2" class="node"><title>Node2</title>
<g id="a_node2"><a xlink:href="a00016.html" target="_top" xlink:title="server.hh">
<polygon fill="white" stroke="black" points="0,-0.5 0,-19.5 57,-19.5 57,-0.5 0,-0.5"/>
<text text-anchor="middle" x="28.5" y="-7.5" font-family="Helvetica,sans-Serif" font-size="10.00">server.hh</text>
</a>
</g>
</g>
<!-- Node1&#45;&gt;Node2 -->
<g id="edge1" class="edge"><title>Node1&#45;&gt;Node2</title>
<path fill="none" stroke="midnightblue" d="M60.386,-48.4314C52.324,-38.9673 42.5408,-27.4827 35.9546,-19.7511"/>
<polygon fill="midnightblue" stroke="midnightblue" points="57.755,-50.7402 66.904,-56.083 63.0837,-46.2009 57.755,-50.7402"/>
</g>
<!-- Node3 -->
<g id="node3" class="node"><title>Node3</title>
<g id="a_node3"><a xlink:href="a00014.html" target="_top" xlink:title="omniorbthread.hh">
<polygon fill="white" stroke="black" points="75.5,-0.5 75.5,-19.5 167.5,-19.5 167.5,-0.5 75.5,-0.5"/>
<text text-anchor="middle" x="121.5" y="-7.5" font-family="Helvetica,sans-Serif" font-size="10.00">omniorbthread.hh</text>
</a>
</g>
</g>
<!-- Node1&#45;&gt;Node3 -->
<g id="edge2" class="edge"><title>Node1&#45;&gt;Node3</title>
<path fill="none" stroke="midnightblue" d="M88.9208,-48.4314C97.1581,-38.9673 107.154,-27.4827 113.883,-19.7511"/>
<polygon fill="midnightblue" stroke="midnightblue" points="86.1863,-46.2421 82.2611,-56.083 91.4664,-50.8378 86.1863,-46.2421"/>
</g>
</g>
</svg>
